<svg width="32" height="32" viewBox="0 0 32 32" fill="none" xmlns="http://www.w3.org/2000/svg">
<path d="M18.6666 6.66666C18.9782 6.66605 19.2801 6.77455 19.52 6.97333C19.655 7.08526 19.7666 7.22273 19.8484 7.37786C19.9302 7.53299 19.9806 7.70273 19.9967 7.87737C20.0128 8.052 19.9943 8.2281 19.9422 8.39557C19.8902 8.56304 19.8056 8.7186 19.6933 8.85333L13.72 16L19.48 23.16C19.5907 23.2964 19.6734 23.4533 19.7233 23.6218C19.7733 23.7902 19.7894 23.9669 19.7708 24.1416C19.7522 24.3163 19.6993 24.4856 19.615 24.6398C19.5308 24.794 19.4169 24.93 19.28 25.04C19.142 25.1614 18.9805 25.2529 18.8054 25.3089C18.6304 25.3649 18.4457 25.3841 18.2629 25.3653C18.0801 25.3466 17.9032 25.2902 17.7432 25.1998C17.5833 25.1094 17.4437 24.9869 17.3333 24.84L10.8933 16.84C10.6972 16.6014 10.59 16.3022 10.59 15.9933C10.59 15.6845 10.6972 15.3852 10.8933 15.1467L17.56 7.14666C17.6937 6.98531 17.8636 6.85776 18.0559 6.77436C18.2482 6.69096 18.4574 6.65406 18.6666 6.66666Z" fill="#212529"/>
</svg>
