<svg width="200" height="200" viewBox="0 0 200 200" fill="none" xmlns="http://www.w3.org/2000/svg">
<path style="mix-blend-mode:screen" d="M200 100C200 44.7715 155.228 -2.2044e-05 100 -1.96299e-05C44.7715 -1.72158e-05 -6.78525e-06 44.7715 -4.37114e-06 100C-1.95703e-06 155.228 44.7716 200 100 200C155.229 200 200 155.228 200 100Z" fill="url(#paint0_radial_362_283)"/>
<path style="mix-blend-mode:screen" d="M99.9723 183.123C143.866 183.123 179.448 147.54 179.448 103.647C179.448 59.7531 143.866 24.1704 99.9723 24.1704C56.0788 24.1704 20.4961 59.7531 20.4961 103.647C20.4961 147.54 56.0788 183.123 99.9723 183.123Z" fill="url(#paint1_radial_362_283)"/>
<path d="M146.815 146.819C172.671 120.962 172.671 79.0415 146.815 53.1854C120.959 27.3293 79.0379 27.3293 53.1818 53.1854C27.3257 79.0415 27.3258 120.962 53.1819 146.819C79.0379 172.675 120.959 172.675 146.815 146.819Z" fill="url(#paint2_radial_362_283)"/>
<path style="mix-blend-mode:multiply" opacity="0.6" d="M47.1133 115.968C48.8057 121.852 52.4773 126.97 57.5075 130.459C62.5378 133.948 68.6183 135.594 74.7217 135.118C77.7671 134.017 80.5318 132.257 82.8179 129.963C85.104 127.67 86.8552 124.9 87.9463 121.851C91.6388 111.417 82.708 88.2739 82.708 88.2739C82.708 88.2739 84.726 110.73 79.1871 122.967C73.6483 135.204 63.3005 133.358 57.7187 127.991C53.8707 124.27 50.3244 120.25 47.1133 115.968Z" fill="url(#paint3_linear_362_283)"/>
<path style="mix-blend-mode:multiply" opacity="0.6" d="M103.874 131.039C108.168 142.632 103.874 154.826 99.9669 157.617C96.0596 160.408 85.2395 151.348 82.4057 144.736C79.5718 138.124 103.874 131.039 103.874 131.039Z" fill="url(#paint4_linear_362_283)"/>
<path style="mix-blend-mode:multiply" opacity="0.6" d="M113.363 121.292C117.399 133.915 122.938 138.166 130.237 141.301C137.537 144.435 150.547 143.018 152.522 140.313C154.691 136.831 156.669 133.233 158.447 129.536L113.363 121.292Z" fill="url(#paint5_linear_362_283)"/>
<path style="mix-blend-mode:multiply" opacity="0.6" d="M108.723 59.2495C114.133 66.5058 121.089 80.4174 117.31 88.2748C113.532 96.1323 109.71 101.542 100.135 99.0949C97.2109 98.1838 94.5527 96.5738 92.3905 94.4042C90.2284 92.2346 88.6275 89.5708 87.7266 86.6433L108.723 59.2495Z" fill="url(#paint6_linear_362_283)"/>
<path style="mix-blend-mode:multiply" opacity="0.6" d="M103.576 44.1357C110.403 56.0722 119.463 63.1138 123.241 62.7274C127.02 62.341 136.122 53.3671 137.453 49.374C138.784 45.3809 103.576 44.1357 103.576 44.1357Z" fill="url(#paint7_linear_362_283)"/>
<path style="mix-blend-mode:multiply" opacity="0.6" d="M48.1399 69.0825C43.2451 94.8446 37.6633 105.064 34.0137 105.407V98.5372L48.1399 69.0825Z" fill="url(#paint8_linear_362_283)"/>
<path style="mix-blend-mode:multiply" opacity="0.6" d="M43.6793 117.342C47.5866 127.647 51.8373 136.793 46.6849 139.197L43.1211 133.487L43.6793 117.342Z" fill="url(#paint9_linear_362_283)"/>
<path style="mix-blend-mode:multiply" opacity="0.6" d="M92.625 118.846C99.3661 126.746 106.15 127.433 108.168 126.274C110.186 125.115 112.462 110.344 110.701 105.407L92.625 118.846Z" fill="url(#paint10_linear_362_283)"/>
<path d="M52.1777 50.3192L52.9506 53.4536C57.4313 55.6324 62.1816 57.2062 67.0768 58.1337C67.0768 58.1337 85.7973 43.4063 91.6367 34.3467L89.8763 33.0156L52.1777 50.3192Z" fill="url(#paint11_radial_362_283)"/>
<path d="M98.2922 30.1812L97.2617 33.8737C101.62 43.4666 108.872 51.4544 118 56.7161C123.297 56.4872 128.52 55.3846 133.458 53.4529C134.833 52.7811 136.055 51.8314 137.045 50.6638C138.035 49.4961 138.773 48.1359 139.211 46.6689L137.794 43.7062L98.2922 30.1812Z" fill="url(#paint12_radial_362_283)"/>
<path d="M151.016 54.4398C150.329 53.1946 145.177 51.606 145.177 51.606C145.177 51.606 136.59 52.1641 133.069 56.7155C133.069 56.7155 114.348 87.9306 113.103 118.716C113.103 118.716 112.373 128.506 125.469 133.444C134.796 136.531 144.587 137.984 154.408 137.737L151.016 54.4398Z" fill="url(#paint13_radial_362_283)"/>
<path d="M75.0629 54.4404C73.9217 57.1745 73.2259 60.0736 73.002 63.0278C73.002 63.0278 83.7362 92.4396 94.084 97.3773C94.084 97.3773 109.198 102.744 115.982 82.9935L75.0629 54.4404Z" fill="url(#paint14_radial_362_283)"/>
<path d="M60.6406 60.4092C64.3668 61.3646 67.8976 62.9629 71.0743 65.1323C71.976 65.7763 85.4581 88.6617 87.0468 104.634C87.5082 113.071 85.0856 121.415 80.1769 128.292C80.1769 128.292 71.1602 134.046 63.9468 131.899L60.6406 60.4092Z" fill="url(#paint15_radial_362_283)"/>
<path d="M32.6895 110.774L34.364 108.541C34.364 108.541 38.6577 109.529 43.9819 117.772C47.2709 122.851 48.4564 129.01 47.288 134.947H43.896L32.6895 110.774Z" fill="url(#paint16_radial_362_283)"/>
<path d="M46.6855 141.689L48.1883 138.597C48.1883 138.597 59.1372 133.874 73.9505 143.32C82.4525 148.254 88.7381 156.26 91.5117 165.69L87.4756 167.408L46.6855 141.689Z" fill="url(#paint17_radial_362_283)"/>
<path d="M100.014 167.407L97.7812 166.204C97.7812 166.204 103.32 144.736 116.158 137.394C116.158 137.394 122.126 133.1 151.839 141.172C152.176 142.638 151.929 144.178 151.152 145.466C151.168 145.594 151.168 145.724 151.152 145.852C149.477 149.158 100.014 167.407 100.014 167.407Z" fill="url(#paint18_radial_362_283)"/>
<path d="M80.3887 136.751C80.4948 135.071 81.0267 133.445 81.9344 132.028C81.9344 132.028 91.08 123.44 99.9679 124.814C99.9679 124.814 103.231 126.36 104.562 134.175C105.893 141.989 101.986 152.036 99.9679 153.196C97.9499 154.355 80.3887 136.751 80.3887 136.751Z" fill="url(#paint19_radial_362_283)"/>
<path d="M103.099 123.655C99.2731 122.813 95.6901 121.109 92.6219 118.674C92.6219 118.674 90.9045 116.398 93.7813 112.835C96.658 109.271 104.558 102.616 109.625 102.015L103.099 123.655Z" fill="url(#paint20_radial_362_283)"/>
<path d="M89.9233 97.8931C89.9233 97.8931 89.1505 97.8931 88.2059 100.126C87.2612 102.359 88.7211 110.86 91.6408 111.547C94.5605 112.234 97.7808 107.039 97.7808 107.039L89.9233 97.8931Z" fill="url(#paint21_radial_362_283)"/>
<path d="M42.7335 56.7148L49.3028 57.4448C49.4261 64.8259 47.9618 72.1473 45.0092 78.9132C42.2505 87.0965 38.5015 94.9118 33.8456 102.185L31.0117 99.9952L42.7335 56.7148Z" fill="url(#paint22_radial_362_283)"/>
<path d="M137.797 43.7068C137.797 43.7068 136.766 53.6252 124.229 54.441C124.229 54.441 108.171 46.4118 103.233 40.6583C98.2951 34.9047 97.8657 32.4144 98.2951 30.1817C98.7244 27.949 101.773 28.5501 106.238 29.4947C108.213 29.9241 110.532 30.5252 112.851 31.2551C117.359 32.7216 121.775 34.4565 126.075 36.4505L128.566 37.6527C131.94 39.1765 135.055 41.2193 137.797 43.7068V43.7068Z" fill="url(#paint23_radial_362_283)"/>
<path d="M115.982 82.8215C114.683 85.7928 112.696 88.4125 110.185 90.4642C105.892 94.4144 99.9234 97.4629 96.0162 96.2177C89.6615 94.1568 72.0574 60.8807 75.063 54.4401C76.4799 51.3487 88.631 41.5591 95.5009 41.5591C99.0218 41.5591 104.818 50.8334 109.37 60.5801C113.921 70.3268 117.012 79.9017 115.982 82.8215Z" fill="url(#paint24_radial_362_283)"/>
<path d="M52.6044 48.9009C49.8565 51.3913 60.8483 54.6545 65.786 53.1946C70.7238 51.7348 88.1991 35.4617 89.8736 33.1861C91.5482 30.9104 66.2154 36.5351 52.6044 48.9009Z" fill="url(#paint25_radial_362_283)"/>
<path d="M42.732 56.7148C43.1614 68.4366 37.4078 86.7707 31.0102 99.9952C31.0102 99.9952 27.9617 80.5448 33.8011 69.6818C39.6405 58.8187 42.732 56.7148 42.732 56.7148Z" fill="url(#paint26_radial_362_283)"/>
<path d="M75.8817 128.506C74.0068 129.962 71.8374 130.993 69.5241 131.527C67.2107 132.061 64.8089 132.085 62.4854 131.597C56.9606 128.522 52.2746 124.139 48.8385 118.831C45.4024 113.524 43.3212 107.454 42.7773 101.155C43.5352 90.0374 46.6064 79.2007 51.7941 69.3387C54.585 64.2292 57.6764 60.7513 60.6391 60.4078C69.2264 59.8067 79.7889 88.3168 81.8499 99.051C83.9109 109.785 79.7889 125.2 75.8817 128.506Z" fill="url(#paint27_radial_362_283)"/>
<path d="M32.689 110.774C31.0144 116.527 36.9827 133.445 43.8955 135.076C43.8955 135.076 47.6739 126.832 44.7972 121.68C41.4782 117.32 37.3712 113.621 32.689 110.774V110.774Z" fill="url(#paint28_radial_362_283)"/>
<path d="M87.6023 167.408C84.2999 167.132 81.0501 166.41 77.9415 165.261C75.6229 164.531 72.9179 163.544 69.6976 162.256C66.3827 160.821 63.2304 159.036 60.2944 156.931C50.9342 150.405 43.4202 141.474 47.9286 140.873C58.4204 140.133 68.8709 142.799 77.7268 148.473C80.631 150.739 83.0154 153.603 84.719 156.869C86.4226 160.135 87.4058 163.729 87.6023 167.408V167.408Z" fill="url(#paint29_radial_362_283)"/>
<path d="M81.0354 135.118C75.9259 145.251 95.2045 156.329 99.1118 154.053C103.019 151.778 105.724 128.721 99.1118 126.66C92.4995 124.599 82.8816 131.426 81.0354 135.118Z" fill="url(#paint30_radial_362_283)"/>
<path d="M93.7812 116.783C93.7812 121.549 104.043 125.628 107.95 122.966C111.858 120.304 112.502 102.4 109.625 102.185C106.748 101.97 93.7812 114.121 93.7812 116.783Z" fill="url(#paint31_radial_362_283)"/>
<path d="M91.6418 110.773C93.9174 113.779 102.333 104.29 101.174 102.186C100.014 100.082 91.6847 95.6596 89.9243 97.8924C88.1639 100.125 89.7955 108.369 91.6418 110.773Z" fill="url(#paint32_radial_362_283)"/>
<path d="M158.79 136.75C150.632 140.228 127.017 132.929 118.473 122.968C117.543 121.905 116.763 120.72 116.154 119.447C114.909 116.699 119.675 96.0033 125.858 75.2218C132.041 54.4404 142.732 53.7534 149.945 54.4404C156.214 55.1703 164.329 68.1802 167.678 83.2081C168.193 85.4408 168.58 87.7594 168.88 90.035C170.898 107.725 167.85 132.843 158.79 136.75Z" fill="url(#paint33_radial_362_283)"/>
<path d="M142.52 155.813C140.76 157.23 138.699 158.733 136.337 160.408C129.195 164.845 121.101 167.523 112.722 168.222C105.723 168.995 100.27 168.48 99.8409 167.406C99.2828 165.131 106.453 145.38 117.832 138.596C123.327 135.29 146.256 141.258 149.691 143.576C152.61 145.466 150.506 149.416 142.52 155.813Z" fill="url(#paint34_radial_362_283)"/>
<path style="mix-blend-mode:screen" opacity="0.2" fill-rule="evenodd" clip-rule="evenodd" d="M158.788 136.75C150.63 140.228 127.015 132.929 118.471 122.968C119.845 123.655 121.906 124.685 124.868 126.274C131.438 129.752 149.214 128.506 154.409 126.789C159.604 125.071 162.266 115.454 163.898 107.553C165.53 99.6529 158.703 84.7538 156.083 81.5335C153.464 78.3132 141.7 81.8341 135.474 85.8272C129.248 89.8203 132.897 94.4146 133.627 97.7207C133.757 103.095 135.233 108.351 137.921 113.006C142.215 119.361 149.686 113.822 151.146 111.546C152.606 109.271 150.63 105.02 151.146 101.585C151.661 98.1501 145.736 96.8619 142.859 95.9173C139.982 94.9727 138.05 97.8924 137.921 98.0642L140.626 92.9118C144.512 92.9495 148.372 93.5423 152.09 94.6722C154.237 96.0891 154.237 104.032 154.538 106.652C154.838 109.271 151.833 119.833 146.68 122.71C141.528 125.587 130.708 117.042 130.708 117.042C130.708 117.042 124.697 105.363 125.598 99.8676C126.404 92.8197 128.121 85.9062 130.708 79.3008C134.1 71.658 132.683 76.467 139.295 71.7439C145.907 67.0209 149.943 68.6095 154.495 68.953C159.046 69.2965 164.37 72.1303 167.762 83.0792C168.277 85.312 168.664 87.6305 168.964 89.9062C170.897 107.725 167.848 132.843 158.788 136.75Z" fill="url(#paint35_radial_362_283)"/>
<path style="mix-blend-mode:screen" opacity="0.2" fill-rule="evenodd" clip-rule="evenodd" d="M73.9023 117.043C70.4256 121.928 65.8901 125.965 60.6347 128.851C59.3896 129.795 47.3243 114.209 46.6803 106.008C46.0362 97.8075 46.6803 85.5705 50.974 83.209C55.2676 80.8474 63.168 80.0316 64.1985 83.209C65.229 86.3863 72.7859 85.4417 72.7859 93.2562C72.7859 101.071 62.1805 104.549 59.5613 102.187C56.9422 99.8255 54.6236 91.6675 55.9546 90.637C58.3579 89.9814 60.8593 89.7633 63.3398 89.993C63.3398 89.993 56.2552 90.8947 58.2303 94.6731C58.8801 95.84 59.7589 96.8636 60.814 97.6826C61.869 98.5016 63.0787 99.099 64.3703 99.4391C68.3634 97.8075 70.8537 94.2867 69.2651 90.637C67.6764 86.9874 60.1624 82.3073 56.8992 83.209C53.636 84.1106 46.6373 96.09 49.5141 99.4391C52.3909 102.788 57.4574 116.099 60.7636 115.283C64.0697 114.467 74.4604 107.168 74.8468 103.647C75.455 99.7135 75.1762 95.694 74.0311 91.8822C72.4396 87.3916 70.1343 83.1871 67.2041 79.4305C64.3345 77.6447 60.9429 76.8876 57.5862 77.2836C54.543 76.8549 51.4625 76.7542 48.3977 76.9831C49.4178 74.3675 50.5935 71.8154 51.9186 69.3403C53.8507 70.1561 60.0336 72.8182 67.2041 76.0814C75.7915 80.0316 77.7666 94.2008 77.8095 99.4391C78.0754 105.548 76.7278 111.62 73.9023 117.043Z" fill="url(#paint36_radial_362_283)"/>
<path style="mix-blend-mode:screen" opacity="0.2" fill-rule="evenodd" clip-rule="evenodd" d="M115.987 82.8219C114.688 85.7932 112.701 88.4129 110.19 90.4646L109.632 89.9923C109.632 89.9923 110.018 73.3328 108.172 70.456C105.756 67.3064 103.006 64.4273 99.9712 61.8686C96.1188 59.3889 91.6687 57.9945 87.0901 57.8326C85.802 58.3907 87.0901 65.1318 89.7093 70.4131C91.5297 74.645 94.2558 78.4263 97.6955 81.4908C100.787 84.1528 102.419 79.4727 102.504 76.1236C102.59 72.7746 102.762 71.83 99.8853 69.0391C97.0085 66.2482 97.6955 70.4131 97.6955 70.4131C97.6955 70.4131 94.2606 69.3826 94.3894 67.8798C94.5182 66.377 99.7995 66.7634 101.517 66.5058C103.234 66.2482 107.313 76.8965 107.356 81.4908C107.399 86.085 103.063 87.6737 97.1803 85.7844C91.2979 83.8952 81.5083 65.6471 80.0055 60.0223C78.5028 54.3976 83.741 52.6801 89.0223 53.0666C93.6595 53.3671 103.878 54.9987 109.203 60.28C113.711 70.0266 117.017 79.9021 115.987 82.8219Z" fill="url(#paint37_radial_362_283)"/>
<path style="mix-blend-mode:screen" opacity="0.2" fill-rule="evenodd" clip-rule="evenodd" d="M131.615 45.8097C131.615 45.8097 119.808 45.552 118.262 43.2334C116.716 40.9148 103.835 33.4868 106.24 29.4937C108.215 29.923 110.533 30.5242 112.852 31.2541C111.993 31.5117 111.392 31.7693 111.306 32.0269C111.306 33.1862 116.244 35.7624 118.004 37.6517C119.765 39.5409 123.758 41.9454 125.475 41.2154C126.334 40.8719 126.334 38.768 126.076 36.4494L128.567 37.6517L131.615 45.8097Z" fill="url(#paint38_radial_362_283)"/>
<path style="mix-blend-mode:screen" opacity="0.2" fill-rule="evenodd" clip-rule="evenodd" d="M77.9435 165.261C75.6249 164.532 72.9199 163.544 69.6996 162.256C66.3847 160.821 63.2324 159.036 60.2964 156.932L62.572 157.49C66.3007 158.437 70.0872 159.14 73.9074 159.594C75.0238 159.293 74.4227 155.3 73.9074 154.055C73.3922 152.81 69.6137 151.049 64.2466 149.761C58.8795 148.473 66.7799 155.257 67.0804 155.515C66.7369 155.515 55.788 149.375 55.4445 147.185C55.101 144.995 59.0942 146.799 62.615 146.541C68.5772 147.324 74.1077 150.074 78.3299 154.355C79.7039 156.288 78.931 161.182 77.9435 165.261Z" fill="url(#paint39_radial_362_283)"/>
<path style="mix-blend-mode:screen" opacity="0.2" fill-rule="evenodd" clip-rule="evenodd" d="M142.516 155.815C140.755 157.232 138.694 158.735 136.333 160.409C129.191 164.847 121.097 167.525 112.718 168.224C109.626 161.654 115.38 154.055 117.999 151.822C120.618 149.589 129.077 145.295 133.757 146.541C138.437 147.786 133.757 157.489 133.757 157.489C133.757 157.489 132.597 149.761 131.61 149.761C128.038 150.602 124.639 152.055 121.563 154.055C119.632 155.734 118.368 158.049 117.999 160.581C120.695 162.107 123.85 162.61 126.887 161.998C132.049 160.967 136.736 158.284 140.24 154.355C141.571 152.38 142.215 153.711 142.516 155.815Z" fill="url(#paint40_radial_362_283)"/>
<path style="mix-blend-mode:screen" opacity="0.2" fill-rule="evenodd" clip-rule="evenodd" d="M87.1721 135.118C84.8964 136.664 85.6692 142.074 90.1776 146.067C94.686 150.06 100.525 148.643 100.869 143.491C101.212 138.338 101.212 130.996 97.7775 131.039C94.3425 131.082 88.1596 135.633 89.963 138.94C91.2735 141.087 93.184 142.803 95.4589 143.877C95.4589 143.877 92.2815 141.172 93.4838 138.424C94.686 135.676 98.078 135.934 98.1639 138.424C98.2498 140.915 101.47 144.994 97.7775 146.282C96.0435 146.9 94.1424 146.856 92.4388 146.159C90.7352 145.462 89.349 144.16 88.546 142.503C87.8471 139.645 88.0726 136.638 89.1901 133.916L87.1721 135.118Z" fill="url(#paint41_radial_362_283)"/>
<path style="mix-blend-mode:screen" d="M73.9062 75.9087C80.905 87.2011 84.6404 98.7511 84.3828 105.406C83.8222 110.528 82.369 115.513 80.0891 120.134C82.6077 112.756 83.097 104.837 81.5061 97.2053C78.5434 87.2011 73.9062 75.9087 73.9062 75.9087Z" fill="url(#paint42_linear_362_283)"/>
<path style="mix-blend-mode:screen" d="M126.331 73.6758C122.422 86.3813 119.168 99.2794 116.584 112.319C116.941 104.163 118.385 96.0911 120.878 88.3173C124.871 77.2825 126.331 73.6758 126.331 73.6758Z" fill="url(#paint43_linear_362_283)"/>
<path style="mix-blend-mode:screen" d="M42.6926 60.4092C44.7107 69.9412 39.4724 84.7973 33.8047 93.857C33.8047 93.857 37.7549 82.2211 40.2023 71.9592C41.2658 68.1633 42.0975 64.3061 42.6926 60.4092V60.4092Z" fill="url(#paint44_linear_362_283)"/>
<path style="mix-blend-mode:screen" d="M118.256 138.425C110.877 142.58 105.431 149.476 103.1 157.618C105.233 153.257 107.917 149.187 111.086 145.509C113.296 142.973 115.693 140.605 118.256 138.425Z" fill="url(#paint45_linear_362_283)"/>
<path style="mix-blend-mode:screen" d="M47.9258 140.829C56.2555 138.038 63.5119 140.056 72.3998 145.338C67.8763 143.047 62.9438 141.675 57.8871 141.302C54.6107 140.633 51.2508 140.474 47.9258 140.829V140.829Z" fill="url(#paint46_linear_362_283)"/>
<path style="mix-blend-mode:screen" d="M106.106 46.7111C123.023 62.1255 121.95 90.8932 103.658 111.116C85.3673 131.34 56.8143 135.032 39.8972 119.704C22.98 104.375 24.0534 75.5218 42.3446 55.2985C60.6357 35.0752 89.1458 31.2968 106.106 46.7111Z" fill="url(#paint47_radial_362_283)"/>
<path d="M60.8121 64.1435C53.9851 64.1435 49.949 77.2822 57.463 77.2822C64.9769 77.2822 65.4922 64.0576 60.8121 64.1435Z" fill="white"/>
<path d="M49.0451 79.4305C45.9107 84.0248 49.818 88.4902 52.1795 84.4541C54.541 80.4181 50.7626 76.8972 49.0451 79.4305Z" fill="white"/>
<path style="mix-blend-mode:screen" opacity="0.8" d="M158.493 119.963C167.51 127.52 166.264 143.921 155.702 156.631C145.139 169.34 129.167 173.548 120.107 166.034C111.048 158.52 112.293 142.032 122.898 129.323C133.504 116.614 149.433 112.406 158.493 119.963Z" fill="url(#paint48_radial_362_283)"/>
<path style="mix-blend-mode:screen" d="M30.9292 99.4379C30.2888 90.6811 31.5635 81.89 34.6647 73.6757C36.752 67.6861 39.4573 61.9302 42.7368 56.501C37.2114 61.7578 33.1685 68.3776 31.015 75.6938C29.4645 83.5298 29.4354 91.5908 30.9292 99.4379V99.4379Z" fill="url(#paint49_radial_362_283)"/>
<path style="mix-blend-mode:screen" d="M52.1777 49.5446C52.1777 49.5446 73.0021 36.1912 89.8763 33.0139C89.8763 33.0139 89.8763 32.3269 87.1713 32.5416C80.9025 33.0139 60.2928 41.0431 52.1777 49.5446Z" fill="url(#paint50_radial_362_283)"/>
<path style="mix-blend-mode:color" d="M168.878 90.035C168.577 87.7593 168.191 85.4407 167.676 83.208C164.541 69.0388 157.113 56.6301 151.016 54.6979V54.4403C150.329 53.1951 145.177 51.6065 145.177 51.6065C143.296 49.8331 141.303 48.1838 139.209 46.6687L137.792 43.7061C135.049 41.2186 131.934 39.1758 128.56 37.652L127.315 37.0509L126.07 36.4498C121.769 34.4558 117.353 32.7209 112.845 31.2544L111.085 30.7391L107.779 29.8375L106.233 29.494C101.939 28.5494 98.5903 28.5494 98.2897 30.181L97.2592 33.8735C95.37 33.8735 93.4808 33.8735 91.6345 34.3458L89.8741 33.0148C89.8741 32.7142 89.8741 32.5425 88.9724 32.5425C88.3721 32.4978 87.7694 32.4978 87.1691 32.5425C81.3834 33.6076 75.7662 35.4415 70.4666 37.9955C63.9579 40.6327 57.9244 44.3166 52.6049 48.9014C52.4085 49.0493 52.2714 49.2625 52.2184 49.5026V49.5026C52.1365 49.7537 52.1365 50.0243 52.2184 50.2754V50.2754L52.9913 53.4098C51.7032 54.6979 50.501 56.029 49.3417 57.4029L42.7723 56.673C42.1069 57.192 41.5147 57.7986 41.0119 58.4764C36.3541 63.3135 32.9364 69.2062 31.0506 75.6511C29.5561 83.4231 29.5561 91.4086 31.0506 99.1805C31.0711 99.366 31.0711 99.5532 31.0506 99.7387L33.8844 101.928C33.8844 102.959 33.8844 104.032 33.8844 105.106C33.8844 106.179 33.8844 107.253 34.2279 108.283L32.5534 110.516C30.8788 116.269 36.847 133.187 43.7599 134.818C44.6186 136.192 45.5203 137.566 46.5078 138.854C46.7273 139.2 46.9712 139.53 47.2378 139.842L46.5078 141.345C45.6062 143.835 52.2184 151.048 60.1188 156.587C63.0548 158.691 66.2071 160.476 69.522 161.911C72.7423 163.199 75.4473 164.187 77.7659 164.917C80.8745 166.065 84.1243 166.787 87.4267 167.064L91.4628 165.346C93.4808 165.604 95.7564 165.733 97.6027 165.819L99.8354 167.021C100.093 168.094 105.546 168.609 112.716 167.837C116.302 167.465 119.85 166.79 123.322 165.819L124.868 165.389C128.935 164.181 132.799 162.372 136.332 160.022L137.233 159.421L140.325 157.145L142.515 155.428C148.054 151.134 150.759 147.742 151.102 145.552C151.118 145.424 151.118 145.294 151.102 145.166C151.88 143.878 152.126 142.338 151.789 140.872V140.872L152.433 140.056L154.236 137.566C155.705 137.518 157.156 137.228 158.53 136.707C161.864 134.692 164.282 131.458 165.271 127.691C166.285 124.99 167.047 122.202 167.547 119.361C168.662 113.458 169.223 107.464 169.221 101.456C169.307 97.6457 169.192 93.8334 168.878 90.035V90.035Z" fill="url(#paint51_radial_362_283)"/>
<defs>
<radialGradient id="paint0_radial_362_283" cx="0" cy="0" r="1" gradientUnits="userSpaceOnUse" gradientTransform="translate(99.9839 100.021) rotate(-24.33) scale(100 100)">
<stop stop-color="#3DA19F"/>
<stop offset="0.572917" stop-color="#296B6A"/>
<stop offset="1" stop-opacity="0"/>
</radialGradient>
<radialGradient id="paint1_radial_362_283" cx="0" cy="0" r="1" gradientUnits="userSpaceOnUse" gradientTransform="translate(99.9723 103.647) scale(79.4762 79.4762)">
<stop stop-color="#0066FF"/>
<stop offset="0.1" stop-color="#0064FA"/>
<stop offset="0.22" stop-color="#005FED"/>
<stop offset="0.34" stop-color="#0056D7"/>
<stop offset="0.47" stop-color="#0049B8"/>
<stop offset="0.6" stop-color="#003990" stop-opacity="0.71"/>
<stop offset="1" stop-color="#00265E" stop-opacity="0"/>
</radialGradient>
<radialGradient id="paint2_radial_362_283" cx="0" cy="0" r="1" gradientUnits="userSpaceOnUse" gradientTransform="translate(81.3051 69.8959) scale(101.675)">
<stop offset="0.01" stop-color="#ED474C"/>
<stop offset="0.09" stop-color="#E6454E"/>
<stop offset="0.21" stop-color="#D44152"/>
<stop offset="0.36" stop-color="#B53A5A"/>
<stop offset="0.51" stop-color="#8A3065"/>
<stop offset="0.69" stop-color="#542372"/>
<stop offset="0.81" stop-color="#28197D"/>
<stop offset="0.85" stop-color="#311C8A"/>
<stop offset="0.92" stop-color="#4A23AE"/>
<stop offset="1" stop-color="#6B2CDE"/>
</radialGradient>
<linearGradient id="paint3_linear_362_283" x1="74.8505" y1="124.298" x2="86.1859" y2="149.33" gradientUnits="userSpaceOnUse">
<stop stop-color="#280077"/>
<stop offset="1" stop-color="#EAAEE6"/>
</linearGradient>
<linearGradient id="paint4_linear_362_283" x1="99.9239" y1="154.869" x2="94.0845" y2="140.356" gradientUnits="userSpaceOnUse">
<stop stop-color="#280077"/>
<stop offset="1" stop-color="#EAAEE6"/>
</linearGradient>
<linearGradient id="paint5_linear_362_283" x1="135.003" y1="143.92" x2="135.862" y2="125.929" gradientUnits="userSpaceOnUse">
<stop stop-color="#280077"/>
<stop offset="1" stop-color="#EAAEE6"/>
</linearGradient>
<linearGradient id="paint6_linear_362_283" x1="102.11" y1="101.671" x2="103.871" y2="66.1194" gradientUnits="userSpaceOnUse">
<stop stop-color="#280077"/>
<stop offset="1" stop-color="#EAAEE6"/>
</linearGradient>
<linearGradient id="paint7_linear_362_283" x1="119.72" y1="63.5002" x2="120.45" y2="48.0001" gradientUnits="userSpaceOnUse">
<stop stop-color="#280077"/>
<stop offset="1" stop-color="#EAAEE6"/>
</linearGradient>
<linearGradient id="paint8_linear_362_283" x1="39.8102" y1="107.554" x2="41.3988" y2="75.2225" gradientUnits="userSpaceOnUse">
<stop stop-color="#280077"/>
<stop offset="1" stop-color="#EAAEE6"/>
</linearGradient>
<linearGradient id="paint9_linear_362_283" x1="45.6544" y1="140.271" x2="46.599" y2="121.25" gradientUnits="userSpaceOnUse">
<stop stop-color="#280077"/>
<stop offset="1" stop-color="#EAAEE6"/>
</linearGradient>
<linearGradient id="paint10_linear_362_283" x1="101.427" y1="127.691" x2="102.329" y2="108.756" gradientUnits="userSpaceOnUse">
<stop stop-color="#280077"/>
<stop offset="1" stop-color="#EAAEE6"/>
</linearGradient>
<radialGradient id="paint11_radial_362_283" cx="0" cy="0" r="1" gradientUnits="userSpaceOnUse" gradientTransform="translate(72.9592 77.1118) scale(79.0039 79.0038)">
<stop offset="0.01" stop-color="#AB1E4E"/>
<stop offset="0.24" stop-color="#901E47"/>
<stop offset="0.75" stop-color="#4D1E34"/>
<stop offset="1" stop-color="#291E2A"/>
</radialGradient>
<radialGradient id="paint12_radial_362_283" cx="0" cy="0" r="1" gradientUnits="userSpaceOnUse" gradientTransform="translate(72.9594 77.1112) scale(79.0039 79.0039)">
<stop offset="0.01" stop-color="#AB1E4E"/>
<stop offset="0.24" stop-color="#901E47"/>
<stop offset="0.75" stop-color="#4D1E34"/>
<stop offset="1" stop-color="#291E2A"/>
</radialGradient>
<radialGradient id="paint13_radial_362_283" cx="0" cy="0" r="1" gradientUnits="userSpaceOnUse" gradientTransform="translate(72.9571 77.1105) scale(79.0039 79.0038)">
<stop offset="0.01" stop-color="#AB1E4E"/>
<stop offset="0.24" stop-color="#901E47"/>
<stop offset="0.75" stop-color="#4D1E34"/>
<stop offset="1" stop-color="#291E2A"/>
</radialGradient>
<radialGradient id="paint14_radial_362_283" cx="0" cy="0" r="1" gradientUnits="userSpaceOnUse" gradientTransform="translate(72.959 77.1111) scale(79.0039 79.0039)">
<stop offset="0.01" stop-color="#AB1E4E"/>
<stop offset="0.24" stop-color="#901E47"/>
<stop offset="0.75" stop-color="#4D1E34"/>
<stop offset="1" stop-color="#291E2A"/>
</radialGradient>
<radialGradient id="paint15_radial_362_283" cx="0" cy="0" r="1" gradientUnits="userSpaceOnUse" gradientTransform="translate(72.7918 77.0258) scale(78.6604 78.6604)">
<stop offset="0.01" stop-color="#AB1E4E"/>
<stop offset="0.24" stop-color="#901E47"/>
<stop offset="0.75" stop-color="#4D1E34"/>
<stop offset="1" stop-color="#291E2A"/>
</radialGradient>
<radialGradient id="paint16_radial_362_283" cx="0" cy="0" r="1" gradientUnits="userSpaceOnUse" gradientTransform="translate(72.9643 77.1112) scale(79.0039 79.004)">
<stop offset="0.01" stop-color="#AB1E4E"/>
<stop offset="0.24" stop-color="#901E47"/>
<stop offset="0.75" stop-color="#4D1E34"/>
<stop offset="1" stop-color="#291E2A"/>
</radialGradient>
<radialGradient id="paint17_radial_362_283" cx="0" cy="0" r="1" gradientUnits="userSpaceOnUse" gradientTransform="translate(72.9629 77.1116) scale(79.0039 79.0039)">
<stop offset="0.01" stop-color="#AB1E4E"/>
<stop offset="0.24" stop-color="#901E47"/>
<stop offset="0.75" stop-color="#4D1E34"/>
<stop offset="1" stop-color="#291E2A"/>
</radialGradient>
<radialGradient id="paint18_radial_362_283" cx="0" cy="0" r="1" gradientUnits="userSpaceOnUse" gradientTransform="translate(72.9637 77.1104) scale(79.0038 79.0039)">
<stop offset="0.01" stop-color="#AB1E4E"/>
<stop offset="0.24" stop-color="#901E47"/>
<stop offset="0.75" stop-color="#4D1E34"/>
<stop offset="1" stop-color="#291E2A"/>
</radialGradient>
<radialGradient id="paint19_radial_362_283" cx="0" cy="0" r="1" gradientUnits="userSpaceOnUse" gradientTransform="translate(72.9606 77.1116) scale(79.0039 79.0039)">
<stop offset="0.01" stop-color="#AB1E4E"/>
<stop offset="0.24" stop-color="#901E47"/>
<stop offset="0.75" stop-color="#4D1E34"/>
<stop offset="1" stop-color="#291E2A"/>
</radialGradient>
<radialGradient id="paint20_radial_362_283" cx="0" cy="0" r="1" gradientUnits="userSpaceOnUse" gradientTransform="translate(72.9568 77.1113) scale(79.0039 79.0037)">
<stop offset="0.01" stop-color="#AB1E4E"/>
<stop offset="0.24" stop-color="#901E47"/>
<stop offset="0.75" stop-color="#4D1E34"/>
<stop offset="1" stop-color="#291E2A"/>
</radialGradient>
<radialGradient id="paint21_radial_362_283" cx="0" cy="0" r="1" gradientUnits="userSpaceOnUse" gradientTransform="translate(72.9632 77.1117) scale(79.004 79.0037)">
<stop offset="0.01" stop-color="#AB1E4E"/>
<stop offset="0.24" stop-color="#901E47"/>
<stop offset="0.75" stop-color="#4D1E34"/>
<stop offset="1" stop-color="#291E2A"/>
</radialGradient>
<radialGradient id="paint22_radial_362_283" cx="0" cy="0" r="1" gradientUnits="userSpaceOnUse" gradientTransform="translate(72.9611 77.1099) scale(79.0039 79.0038)">
<stop offset="0.01" stop-color="#AB1E4E"/>
<stop offset="0.24" stop-color="#901E47"/>
<stop offset="0.75" stop-color="#4D1E34"/>
<stop offset="1" stop-color="#291E2A"/>
</radialGradient>
<radialGradient id="paint23_radial_362_283" cx="0" cy="0" r="1" gradientUnits="userSpaceOnUse" gradientTransform="translate(103.233 80.976) scale(144.826 144.826)">
<stop stop-color="#F5C816"/>
<stop offset="0.85" stop-color="#2E690A"/>
<stop offset="0.87" stop-color="#326B0A"/>
<stop offset="0.9" stop-color="#3F7209"/>
<stop offset="0.93" stop-color="#557D08"/>
<stop offset="0.96" stop-color="#738C07"/>
<stop offset="0.99" stop-color="#9CA105"/>
</radialGradient>
<radialGradient id="paint24_radial_362_283" cx="0" cy="0" r="1" gradientUnits="userSpaceOnUse" gradientTransform="translate(103.23 80.9751) scale(144.826 144.826)">
<stop stop-color="#F5C816"/>
<stop offset="0.85" stop-color="#2E690A"/>
<stop offset="0.87" stop-color="#326B0A"/>
<stop offset="0.9" stop-color="#3F7209"/>
<stop offset="0.93" stop-color="#557D08"/>
<stop offset="0.96" stop-color="#738C07"/>
<stop offset="0.99" stop-color="#9CA105"/>
</radialGradient>
<radialGradient id="paint25_radial_362_283" cx="0" cy="0" r="1" gradientUnits="userSpaceOnUse" gradientTransform="translate(74.4164 69.8541) scale(99.2701 99.27)">
<stop stop-color="#CCD435"/>
<stop offset="0.85" stop-color="#2E690A"/>
<stop offset="0.87" stop-color="#326B0A"/>
<stop offset="0.9" stop-color="#3F7209"/>
<stop offset="0.93" stop-color="#557D08"/>
<stop offset="0.96" stop-color="#738C07"/>
<stop offset="0.99" stop-color="#9CA105"/>
</radialGradient>
<radialGradient id="paint26_radial_362_283" cx="0" cy="0" r="1" gradientUnits="userSpaceOnUse" gradientTransform="translate(103.23 80.9742) scale(144.826 144.826)">
<stop stop-color="#F5C816"/>
<stop offset="0.85" stop-color="#2E690A"/>
<stop offset="0.87" stop-color="#326B0A"/>
<stop offset="0.9" stop-color="#3F7209"/>
<stop offset="0.93" stop-color="#557D08"/>
<stop offset="0.96" stop-color="#738C07"/>
<stop offset="0.99" stop-color="#9CA105"/>
</radialGradient>
<radialGradient id="paint27_radial_362_283" cx="0" cy="0" r="1" gradientUnits="userSpaceOnUse" gradientTransform="translate(72.3608 69.8539) scale(99.0983 99.0983)">
<stop stop-color="#CCD435"/>
<stop offset="0.85" stop-color="#2E690A"/>
<stop offset="0.87" stop-color="#326B0A"/>
<stop offset="0.9" stop-color="#3F7209"/>
<stop offset="0.93" stop-color="#557D08"/>
<stop offset="0.96" stop-color="#738C07"/>
<stop offset="0.99" stop-color="#9CA105"/>
</radialGradient>
<radialGradient id="paint28_radial_362_283" cx="0" cy="0" r="1" gradientUnits="userSpaceOnUse" gradientTransform="translate(74.4236 69.8551) scale(99.2701 99.2701)">
<stop stop-color="#CCD435"/>
<stop offset="0.85" stop-color="#2E690A"/>
<stop offset="0.87" stop-color="#326B0A"/>
<stop offset="0.9" stop-color="#3F7209"/>
<stop offset="0.93" stop-color="#557D08"/>
<stop offset="0.96" stop-color="#738C07"/>
<stop offset="0.99" stop-color="#9CA105"/>
</radialGradient>
<radialGradient id="paint29_radial_362_283" cx="0" cy="0" r="1" gradientUnits="userSpaceOnUse" gradientTransform="translate(74.4206 69.8554) scale(99.27 99.2702)">
<stop stop-color="#CCD435"/>
<stop offset="0.85" stop-color="#2E690A"/>
<stop offset="0.87" stop-color="#326B0A"/>
<stop offset="0.9" stop-color="#3F7209"/>
<stop offset="0.93" stop-color="#557D08"/>
<stop offset="0.96" stop-color="#738C07"/>
<stop offset="0.99" stop-color="#9CA105"/>
</radialGradient>
<radialGradient id="paint30_radial_362_283" cx="0" cy="0" r="1" gradientUnits="userSpaceOnUse" gradientTransform="translate(103.234 80.9747) scale(144.826 144.826)">
<stop stop-color="#F5C816"/>
<stop offset="0.85" stop-color="#2E690A"/>
<stop offset="0.87" stop-color="#326B0A"/>
<stop offset="0.9" stop-color="#3F7209"/>
<stop offset="0.93" stop-color="#557D08"/>
<stop offset="0.96" stop-color="#738C07"/>
<stop offset="0.99" stop-color="#9CA105"/>
</radialGradient>
<radialGradient id="paint31_radial_362_283" cx="0" cy="0" r="1" gradientUnits="userSpaceOnUse" gradientTransform="translate(74.4167 69.8535) scale(99.2701 99.27)">
<stop stop-color="#CCD435"/>
<stop offset="0.85" stop-color="#2E690A"/>
<stop offset="0.87" stop-color="#326B0A"/>
<stop offset="0.9" stop-color="#3F7209"/>
<stop offset="0.93" stop-color="#557D08"/>
<stop offset="0.96" stop-color="#738C07"/>
<stop offset="0.99" stop-color="#9CA105"/>
</radialGradient>
<radialGradient id="paint32_radial_362_283" cx="0" cy="0" r="1" gradientUnits="userSpaceOnUse" gradientTransform="translate(74.424 69.8546) scale(99.2701 99.2701)">
<stop stop-color="#CCD435"/>
<stop offset="0.85" stop-color="#2E690A"/>
<stop offset="0.87" stop-color="#326B0A"/>
<stop offset="0.9" stop-color="#3F7209"/>
<stop offset="0.93" stop-color="#557D08"/>
<stop offset="0.96" stop-color="#738C07"/>
<stop offset="0.99" stop-color="#9CA105"/>
</radialGradient>
<radialGradient id="paint33_radial_362_283" cx="0" cy="0" r="1" gradientUnits="userSpaceOnUse" gradientTransform="translate(74.4193 69.8977) scale(99.2701 99.2701)">
<stop stop-color="#CCD435"/>
<stop offset="0.85" stop-color="#2E690A"/>
<stop offset="0.87" stop-color="#326B0A"/>
<stop offset="0.9" stop-color="#3F7209"/>
<stop offset="0.93" stop-color="#557D08"/>
<stop offset="0.96" stop-color="#738C07"/>
<stop offset="0.99" stop-color="#9CA105"/>
</radialGradient>
<radialGradient id="paint34_radial_362_283" cx="0" cy="0" r="1" gradientUnits="userSpaceOnUse" gradientTransform="translate(74.4653 69.8537) scale(99.2701 99.2702)">
<stop stop-color="#CCD435"/>
<stop offset="0.85" stop-color="#2E690A"/>
<stop offset="0.87" stop-color="#326B0A"/>
<stop offset="0.9" stop-color="#3F7209"/>
<stop offset="0.93" stop-color="#557D08"/>
<stop offset="0.96" stop-color="#738C07"/>
<stop offset="0.99" stop-color="#9CA105"/>
</radialGradient>
<radialGradient id="paint35_radial_362_283" cx="0" cy="0" r="1" gradientUnits="userSpaceOnUse" gradientTransform="translate(67.7622 94.0281) scale(118.334 118.334)">
<stop stop-color="#FFFF00"/>
<stop offset="0.16" stop-color="#FCFD01"/>
<stop offset="0.29" stop-color="#F2F702"/>
<stop offset="0.39" stop-color="#E2EC06"/>
<stop offset="0.5" stop-color="#CBDC0A"/>
<stop offset="0.59" stop-color="#AEC810"/>
<stop offset="0.68" stop-color="#8AB017"/>
<stop offset="0.77" stop-color="#5F931F"/>
<stop offset="0.86" stop-color="#2E7229"/>
<stop offset="0.88" stop-color="#1D662C"/>
<stop offset="0.89" stop-color="#1A7431"/>
<stop offset="0.96" stop-color="#08D754"/>
<stop offset="0.99" stop-color="#00FF62"/>
</radialGradient>
<radialGradient id="paint36_radial_362_283" cx="0" cy="0" r="1" gradientUnits="userSpaceOnUse" gradientTransform="translate(67.7623 94.0291) scale(118.377 118.377)">
<stop stop-color="#FFFF00"/>
<stop offset="0.16" stop-color="#FCFD01"/>
<stop offset="0.29" stop-color="#F2F702"/>
<stop offset="0.39" stop-color="#E2EC06"/>
<stop offset="0.5" stop-color="#CBDC0A"/>
<stop offset="0.59" stop-color="#AEC810"/>
<stop offset="0.68" stop-color="#8AB017"/>
<stop offset="0.77" stop-color="#5F931F"/>
<stop offset="0.86" stop-color="#2E7229"/>
<stop offset="0.88" stop-color="#1D662C"/>
<stop offset="0.89" stop-color="#1A7431"/>
<stop offset="0.96" stop-color="#08D754"/>
<stop offset="0.99" stop-color="#00FF62"/>
</radialGradient>
<radialGradient id="paint37_radial_362_283" cx="0" cy="0" r="1" gradientUnits="userSpaceOnUse" gradientTransform="translate(67.7685 94.0284) scale(118.334 118.334)">
<stop stop-color="#FFFF00"/>
<stop offset="0.16" stop-color="#FCFD01"/>
<stop offset="0.29" stop-color="#F2F702"/>
<stop offset="0.39" stop-color="#E2EC06"/>
<stop offset="0.5" stop-color="#CBDC0A"/>
<stop offset="0.59" stop-color="#AEC810"/>
<stop offset="0.68" stop-color="#8AB017"/>
<stop offset="0.77" stop-color="#5F931F"/>
<stop offset="0.86" stop-color="#2E7229"/>
<stop offset="0.88" stop-color="#1D662C"/>
<stop offset="0.89" stop-color="#1A7431"/>
<stop offset="0.96" stop-color="#08D754"/>
<stop offset="0.99" stop-color="#00FF62"/>
</radialGradient>
<radialGradient id="paint38_radial_362_283" cx="0" cy="0" r="1" gradientUnits="userSpaceOnUse" gradientTransform="translate(67.7682 94.0278) scale(118.377 118.377)">
<stop stop-color="#FFFF00"/>
<stop offset="0.16" stop-color="#FCFD01"/>
<stop offset="0.29" stop-color="#F2F702"/>
<stop offset="0.39" stop-color="#E2EC06"/>
<stop offset="0.5" stop-color="#CBDC0A"/>
<stop offset="0.59" stop-color="#AEC810"/>
<stop offset="0.68" stop-color="#8AB017"/>
<stop offset="0.77" stop-color="#5F931F"/>
<stop offset="0.86" stop-color="#2E7229"/>
<stop offset="0.88" stop-color="#1D662C"/>
<stop offset="0.89" stop-color="#1A7431"/>
<stop offset="0.96" stop-color="#08D754"/>
<stop offset="0.99" stop-color="#00FF62"/>
</radialGradient>
<radialGradient id="paint39_radial_362_283" cx="0" cy="0" r="1" gradientUnits="userSpaceOnUse" gradientTransform="translate(67.7674 94.0291) scale(118.334 118.334)">
<stop stop-color="#FFFF00"/>
<stop offset="0.16" stop-color="#FCFD01"/>
<stop offset="0.29" stop-color="#F2F702"/>
<stop offset="0.39" stop-color="#E2EC06"/>
<stop offset="0.5" stop-color="#CBDC0A"/>
<stop offset="0.59" stop-color="#AEC810"/>
<stop offset="0.68" stop-color="#8AB017"/>
<stop offset="0.77" stop-color="#5F931F"/>
<stop offset="0.86" stop-color="#2E7229"/>
<stop offset="0.88" stop-color="#1D662C"/>
<stop offset="0.89" stop-color="#1A7431"/>
<stop offset="0.96" stop-color="#08D754"/>
<stop offset="0.99" stop-color="#00FF62"/>
</radialGradient>
<radialGradient id="paint40_radial_362_283" cx="0" cy="0" r="1" gradientUnits="userSpaceOnUse" gradientTransform="translate(67.7626 94.0287) scale(118.334 118.334)">
<stop stop-color="#FFFF00"/>
<stop offset="0.16" stop-color="#FCFD01"/>
<stop offset="0.29" stop-color="#F2F702"/>
<stop offset="0.39" stop-color="#E2EC06"/>
<stop offset="0.5" stop-color="#CBDC0A"/>
<stop offset="0.59" stop-color="#AEC810"/>
<stop offset="0.68" stop-color="#8AB017"/>
<stop offset="0.77" stop-color="#5F931F"/>
<stop offset="0.86" stop-color="#2E7229"/>
<stop offset="0.88" stop-color="#1D662C"/>
<stop offset="0.89" stop-color="#1A7431"/>
<stop offset="0.96" stop-color="#08D754"/>
<stop offset="0.99" stop-color="#00FF62"/>
</radialGradient>
<radialGradient id="paint41_radial_362_283" cx="0" cy="0" r="1" gradientUnits="userSpaceOnUse" gradientTransform="translate(67.7646 94.0277) scale(118.334 118.334)">
<stop stop-color="#FFFF00"/>
<stop offset="0.16" stop-color="#FCFD01"/>
<stop offset="0.29" stop-color="#F2F702"/>
<stop offset="0.39" stop-color="#E2EC06"/>
<stop offset="0.5" stop-color="#CBDC0A"/>
<stop offset="0.59" stop-color="#AEC810"/>
<stop offset="0.68" stop-color="#8AB017"/>
<stop offset="0.77" stop-color="#5F931F"/>
<stop offset="0.86" stop-color="#2E7229"/>
<stop offset="0.88" stop-color="#1D662C"/>
<stop offset="0.89" stop-color="#1A7431"/>
<stop offset="0.96" stop-color="#08D754"/>
<stop offset="0.99" stop-color="#00FF62"/>
</radialGradient>
<linearGradient id="paint42_linear_362_283" x1="73.9062" y1="98.0212" x2="84.4258" y2="98.0212" gradientUnits="userSpaceOnUse">
<stop offset="0.02" stop-color="#F1E532"/>
<stop offset="0.18" stop-color="#BBB227"/>
<stop offset="0.4" stop-color="#797319"/>
<stop offset="0.6" stop-color="#45420E"/>
<stop offset="0.77" stop-color="#1F1E07"/>
<stop offset="0.91" stop-color="#080802"/>
<stop offset="1"/>
</linearGradient>
<linearGradient id="paint43_linear_362_283" x1="116.584" y1="92.9974" x2="126.331" y2="92.9974" gradientUnits="userSpaceOnUse">
<stop offset="0.02" stop-color="#F1E532"/>
<stop offset="0.18" stop-color="#BBB227"/>
<stop offset="0.4" stop-color="#797319"/>
<stop offset="0.6" stop-color="#45420E"/>
<stop offset="0.77" stop-color="#1F1E07"/>
<stop offset="0.91" stop-color="#080802"/>
<stop offset="1"/>
</linearGradient>
<linearGradient id="paint44_linear_362_283" x1="33.8047" y1="77.1116" x2="43.122" y2="77.1116" gradientUnits="userSpaceOnUse">
<stop offset="0.02" stop-color="#F1E532"/>
<stop offset="0.18" stop-color="#BBB227"/>
<stop offset="0.4" stop-color="#797319"/>
<stop offset="0.6" stop-color="#45420E"/>
<stop offset="0.77" stop-color="#1F1E07"/>
<stop offset="0.91" stop-color="#080802"/>
<stop offset="1"/>
</linearGradient>
<linearGradient id="paint45_linear_362_283" x1="103.1" y1="148" x2="118.256" y2="148" gradientUnits="userSpaceOnUse">
<stop offset="0.02" stop-color="#F1E532"/>
<stop offset="0.18" stop-color="#BBB227"/>
<stop offset="0.4" stop-color="#797319"/>
<stop offset="0.6" stop-color="#45420E"/>
<stop offset="0.77" stop-color="#1F1E07"/>
<stop offset="0.91" stop-color="#080802"/>
<stop offset="1"/>
</linearGradient>
<linearGradient id="paint46_linear_362_283" x1="47.9258" y1="142.504" x2="72.3998" y2="142.504" gradientUnits="userSpaceOnUse">
<stop offset="0.02" stop-color="#F1E532"/>
<stop offset="0.18" stop-color="#BBB227"/>
<stop offset="0.4" stop-color="#797319"/>
<stop offset="0.6" stop-color="#45420E"/>
<stop offset="0.77" stop-color="#1F1E07"/>
<stop offset="0.91" stop-color="#080802"/>
<stop offset="1"/>
</linearGradient>
<radialGradient id="paint47_radial_362_283" cx="0" cy="0" r="1" gradientUnits="userSpaceOnUse" gradientTransform="translate(101.046 98.9121) rotate(-47.8421) scale(49.1195 41.4398)">
<stop stop-color="#FF3D00"/>
<stop offset="0.27" stop-color="#B72C00"/>
<stop offset="0.78" stop-color="#340D00" stop-opacity="0.4"/>
<stop offset="1" stop-opacity="0"/>
</radialGradient>
<radialGradient id="paint48_radial_362_283" cx="0" cy="0" r="1" gradientUnits="userSpaceOnUse" gradientTransform="translate(139.083 144.736) rotate(-38.6598) scale(27.493 19.5806)">
<stop offset="0.411458" stop-color="#00FF00"/>
<stop offset="1" stop-opacity="0"/>
</radialGradient>
<radialGradient id="paint49_radial_362_283" cx="0" cy="0" r="1" gradientUnits="userSpaceOnUse" gradientTransform="translate(36.2963 78.0553) scale(15.8008 15.8008)">
<stop stop-color="#FFFFD9"/>
<stop offset="1" stop-color="#FFF19D"/>
</radialGradient>
<radialGradient id="paint50_radial_362_283" cx="0" cy="0" r="1" gradientUnits="userSpaceOnUse" gradientTransform="translate(71.027 41.0431) scale(14.5985 14.5985)">
<stop stop-color="#FFFFD9"/>
<stop offset="1" stop-color="#FFF19D"/>
</radialGradient>
<radialGradient id="paint51_radial_362_283" cx="0" cy="0" r="1" gradientUnits="userSpaceOnUse" gradientTransform="translate(99.6208 98.7082) scale(69.8583 69.8583)">
<stop stop-color="#2E353D"/>
<stop offset="0.21" stop-color="#323442"/>
<stop offset="0.46" stop-color="#3C3350"/>
<stop offset="0.72" stop-color="#4E3068"/>
<stop offset="1" stop-color="#662D89"/>
</radialGradient>
</defs>
</svg>
