<svg width="300" height="300" viewBox="0 0 300 300" fill="none" xmlns="http://www.w3.org/2000/svg">
<path style="mix-blend-mode:screen" d="M141.666 268.683C211.17 268.683 267.515 212.338 267.515 142.834C267.515 73.329 211.17 16.9844 141.666 16.9844C72.161 16.9844 15.8164 73.329 15.8164 142.834C15.8164 212.338 72.161 268.683 141.666 268.683Z" fill="url(#paint0_radial_698_2220)"/>
<path style="mix-blend-mode:screen" d="M225 225C266.421 183.579 266.421 116.421 225 75C183.579 33.5786 116.421 33.5786 75 75C33.5787 116.421 33.5786 183.579 75 225C116.421 266.421 183.579 266.421 225 225Z" fill="url(#paint1_radial_698_2220)"/>
<path style="mix-blend-mode:screen" d="M140.54 242.215C196.441 242.215 241.757 196.899 241.757 140.998C241.757 85.0976 196.441 39.7812 140.54 39.7812C84.6396 39.7812 39.3232 85.0976 39.3232 140.998C39.3232 196.899 84.6396 242.215 140.54 242.215Z" fill="url(#paint2_radial_698_2220)"/>
<path fill-rule="evenodd" clip-rule="evenodd" d="M237.883 164.277L237.161 166.865C237.136 166.987 237.102 167.107 237.061 167.224C230.946 188.234 218.172 206.689 200.66 219.81C183.148 232.931 161.848 240.007 139.966 239.974C138.181 239.974 136.345 239.932 134.591 239.832H134.568C131.922 239.692 129.296 239.45 126.708 239.13C110.121 236.962 94.3385 230.681 80.7972 220.859C79.5522 219.956 78.3295 219.032 77.1458 218.09C79.4714 216.085 84.3873 215.884 84.3873 215.884L77.5469 210.448L60.3984 201.223C57.0926 197.049 54.1279 192.615 51.5331 187.966C50.9111 186.852 50.3095 185.728 49.7283 184.595C49.7283 184.554 49.6893 184.534 49.667 184.495C49.0654 183.27 48.4842 182.046 47.9235 180.824H47.9179C46.1524 176.941 44.6378 172.948 43.3836 168.87C42.4617 165.921 41.6595 162.893 41.0162 159.804C41.0007 159.78 40.9938 159.752 40.9967 159.724C40.5566 157.579 40.175 155.393 39.8826 153.184C39.1965 148.435 38.8549 143.644 38.8604 138.846C38.8604 137.732 38.8799 136.579 38.9189 135.476C38.9607 133.805 39.061 132.133 39.2197 130.521C39.3785 128.908 39.5205 127.27 39.721 125.666C39.725 125.546 39.739 125.425 39.7628 125.307C40.0636 123.059 40.4229 120.873 40.8769 118.686C41.4933 115.552 42.2761 112.452 43.2221 109.401C44.4734 105.184 46.0221 101.062 47.8566 97.065C49.5979 93.2158 51.588 89.4841 53.8142 85.8935C60.7131 82.2421 65.1249 80.3231 65.1249 80.3231C65.1249 80.3231 182.861 56.9581 184.685 54.9527C186.51 52.9474 195.417 54.2091 195.417 54.2091C200.93 57.8378 206.082 61.9893 210.799 66.606C211.913 67.6672 212.966 68.7924 214.05 69.9148C214.751 70.6752 215.442 71.4801 216.136 72.26C217.3 73.5857 218.442 74.97 219.545 76.3514C223.59 81.491 227.123 87.0134 230.095 92.8398C231.259 95.0847 232.323 97.3936 233.304 99.7388C233.304 99.7583 233.326 99.7805 233.326 99.8C242.411 135.342 231.198 165.486 231.198 165.486C233.354 164.754 235.607 164.347 237.883 164.277Z" fill="url(#paint3_radial_698_2220)"/>
<path fill-rule="evenodd" clip-rule="evenodd" d="M237.883 164.277L237.161 166.865C237.136 166.987 237.102 167.107 237.061 167.224C230.946 188.234 218.172 206.689 200.66 219.81C183.148 232.931 161.848 240.007 139.966 239.974C138.181 239.974 136.345 239.932 134.591 239.832H134.568C131.922 239.692 129.296 239.45 126.708 239.13C110.121 236.962 94.3385 230.681 80.7972 220.859C79.5522 219.956 78.3295 219.032 77.1458 218.09C79.4714 216.085 84.3873 215.884 84.3873 215.884L77.5469 210.448L60.3984 201.223C57.0926 197.049 54.1279 192.615 51.5331 187.966C50.9111 186.852 50.3095 185.728 49.7283 184.595C49.7283 184.554 49.6893 184.534 49.667 184.495C49.0654 183.27 48.4842 182.046 47.9235 180.824H47.9179C46.1524 176.941 44.6378 172.948 43.3836 168.87C42.4617 165.921 41.6595 162.893 41.0162 159.804C41.0007 159.78 40.9938 159.752 40.9967 159.724C40.5566 157.579 40.175 155.393 39.8826 153.184C39.1965 148.435 38.8549 143.644 38.8604 138.846C38.8604 137.732 38.8799 136.579 38.9189 135.476C38.9607 133.805 39.061 132.133 39.2197 130.521C39.3785 128.908 39.5205 127.27 39.721 125.666C39.725 125.546 39.739 125.425 39.7628 125.307C40.0636 123.059 40.4229 120.873 40.8769 118.686C41.4933 115.552 42.2761 112.452 43.2221 109.401C44.4734 105.184 46.0221 101.062 47.8566 97.065C49.5979 93.2158 51.588 89.4841 53.8142 85.8935C60.7131 82.2421 65.1249 80.3231 65.1249 80.3231C65.1249 80.3231 182.861 56.9581 184.685 54.9527C186.51 52.9474 195.417 54.2091 195.417 54.2091C200.93 57.8378 206.082 61.9893 210.799 66.606C211.913 67.6672 212.966 68.7924 214.05 69.9148C214.751 70.6752 215.442 71.4801 216.136 72.26C217.3 73.5857 218.442 74.97 219.545 76.3514C223.59 81.491 227.123 87.0134 230.095 92.8398C231.259 95.0847 232.323 97.3936 233.304 99.7388C233.304 99.7583 233.326 99.7805 233.326 99.8C242.411 135.342 231.198 165.486 231.198 165.486C233.354 164.754 235.607 164.347 237.883 164.277Z" fill="url(#paint4_radial_698_2220)"/>
<path fill-rule="evenodd" clip-rule="evenodd" d="M234.994 138.846C234.997 142.382 234.796 145.916 234.393 149.429C233.825 154.753 232.784 160.015 231.284 165.155C231.261 165.271 231.228 165.384 231.184 165.494C229.356 171.768 226.882 177.835 223.803 183.598C212.95 203.842 195.161 219.494 173.7 227.682C162.926 231.781 151.493 233.876 139.966 233.863C138.295 233.863 136.576 233.824 134.911 233.723H134.891C132.404 233.604 129.937 233.361 127.511 233.061C111.929 231.026 97.104 225.124 84.3873 215.893C82.5212 214.567 80.7164 213.144 78.9701 211.679C78.491 211.278 78.0092 210.876 77.5469 210.456C69.2627 203.21 62.2764 194.602 56.889 185.005C56.3069 183.96 55.7443 182.899 55.1845 181.835C55.1845 181.796 55.1622 181.774 55.1427 181.735C54.5606 180.59 54.0286 179.448 53.4995 178.284H53.4883C51.825 174.638 50.4043 170.887 49.2353 167.054C48.3468 164.259 47.603 161.42 47.0071 158.548C46.9983 158.537 46.9917 158.524 46.9879 158.51C46.9841 158.496 46.983 158.482 46.9849 158.467C46.5643 156.443 46.2022 154.398 45.9237 152.34C45.2772 147.877 44.9551 143.372 44.96 138.862C44.96 137.798 44.9795 136.734 45.0213 135.693C45.0603 134.127 45.1605 132.562 45.2998 131.039C45.4391 129.515 45.5783 127.975 45.7816 126.485C45.7846 126.371 45.7986 126.257 45.8234 126.145C46.1019 124.039 46.4445 121.967 46.8651 119.926C47.4446 116.981 48.1809 114.069 49.071 111.202C50.249 107.241 51.7037 103.368 53.4242 99.6105C55.2635 95.5536 57.3884 91.6324 59.7828 87.8764C61.4251 85.2763 63.2055 82.766 65.1165 80.3564C67.7693 76.9527 70.6542 73.7365 73.7506 70.7308C91.4639 53.4547 115.237 43.8002 139.98 43.8341C140.983 43.8341 141.985 43.8536 142.968 43.8731C144.03 43.9148 145.094 43.9538 146.157 44.0346C149.104 44.2351 152.034 44.5554 154.9 45.0178C154.942 45.0178 154.962 45.0373 155.001 45.0373C157.407 45.3966 159.774 45.8728 162.103 46.4299C165.111 47.1512 168.058 47.9952 170.946 48.9978C172.912 49.6579 174.845 50.3904 176.745 51.2037C178.168 51.8053 179.552 52.4264 180.922 53.0893C181.162 53.2091 181.404 53.3093 181.644 53.4291C190.816 57.9158 199.206 63.8488 206.493 71.0009C207.538 72.0036 208.54 73.0453 209.557 74.1092C210.22 74.8306 210.88 75.5714 211.523 76.3151C212.637 77.5573 213.687 78.8608 214.732 80.167C225.973 94.4505 232.859 111.67 234.568 129.766C234.862 132.783 235.004 135.814 234.994 138.846Z" fill="url(#paint5_radial_698_2220)"/>
<path style="mix-blend-mode:screen" fill-rule="evenodd" clip-rule="evenodd" d="M93.5735 100.975C93.5735 100.975 91.0529 106.582 93.1529 112.269C95.253 117.957 101.144 114.183 108.173 112.269C115.203 110.356 122.425 102.964 126.985 98.3934C131.544 93.8229 135.914 87.5534 135.535 81.4733C135.157 75.3932 128.737 71.402 128.737 71.402C128.737 71.402 131.071 68.4246 129.11 80.3369C127.149 92.2492 124.481 96.4911 121.932 98.3934C119.384 100.296 111.627 104.799 107.394 107.334C103.16 109.868 98.4337 112.489 95.6318 111.877C92.8298 111.264 91.3509 104.969 93.5735 100.975Z" fill="url(#paint6_radial_698_2220)"/>
<path style="mix-blend-mode:screen" fill-rule="evenodd" clip-rule="evenodd" d="M106.452 96.8729C106.452 96.8729 102.853 100.07 103.803 102.647C104.753 105.223 111.602 103.574 115.963 98.0343C120.325 92.4945 116.88 88.0215 116.88 88.0215C116.88 88.0215 115.275 97.2656 111.031 98.8838C106.786 100.502 105.394 99.8252 105.394 99.8252C105.394 99.8252 104.736 99.0899 106.452 96.8729Z" fill="url(#paint7_radial_698_2220)"/>
<path style="mix-blend-mode:screen" fill-rule="evenodd" clip-rule="evenodd" d="M95.5449 100.866C95.5449 100.866 99.0487 96.8918 103.04 93.1735C107.031 89.4553 113.933 88.0209 113.933 88.0209C113.933 88.0209 109.903 85.8847 104.742 88.8899C99.5807 91.8951 95.5449 100.866 95.5449 100.866Z" fill="url(#paint8_radial_698_2220)"/>
<path style="mix-blend-mode:screen" fill-rule="evenodd" clip-rule="evenodd" d="M81.2375 100.936C81.2375 100.936 89.3619 91.9092 99.241 88.0211C109.12 84.1329 112.543 82.9938 116.913 79.3869C119.858 77.0014 122.968 74.8264 126.218 72.8779C126.218 72.8779 116.601 73.3681 101.901 82.6791C87.2006 91.99 81.1985 97.9085 81.2375 100.936Z" fill="url(#paint9_radial_698_2220)"/>
<path style="mix-blend-mode:screen" fill-rule="evenodd" clip-rule="evenodd" d="M61.4238 99.1394C61.4238 99.1394 75.4891 85.0825 86.5102 79.5734C97.5312 74.0642 104.943 70.4518 114.824 67.9814C124.706 65.5109 139.975 61.2022 139.975 61.2022L142.732 59.8096C142.732 59.8096 111.315 60.4446 90.6907 72.8749C70.0663 85.3053 61.4238 99.1394 61.4238 99.1394Z" fill="url(#paint10_radial_698_2220)"/>
<path style="mix-blend-mode:screen" fill-rule="evenodd" clip-rule="evenodd" d="M78.2768 115.346C78.2768 115.346 80.622 134.762 83.9976 135.634C87.3733 136.506 99.4805 136.417 117.476 127.214C135.471 118.012 139.122 120.14 149.208 109.887C159.293 99.6351 163.376 88.0014 166.498 80.3365C169.62 72.6716 170.534 63.9233 169.562 61.2021C169.562 61.2021 172.96 63.2326 172.96 70.8334C172.96 78.4342 170.679 91.2015 167.448 98.5935C164.217 105.985 155.859 117.575 145.787 123.276C135.716 128.977 115.582 139.923 95.8236 139.77C76.0654 139.617 79.1848 138.188 77.1627 134.247C75.1407 130.306 78.2768 115.346 78.2768 115.346Z" fill="url(#paint11_radial_698_2220)"/>
<g style="mix-blend-mode:multiply" opacity="0.5">
<path fill-rule="evenodd" clip-rule="evenodd" d="M47.4805 131.924C47.4805 131.924 51.0121 139.751 52.9896 146.906C54.9671 154.061 54.5883 166.221 62.7573 168.121C70.9263 170.02 82.3289 175.34 86.71 174.011C91.0911 172.683 107.215 169.786 116.161 171.541C125.107 173.296 141.434 172.301 147.132 169.449C152.831 166.597 165.108 159.28 170.94 157.049C176.772 154.819 184.835 148.468 191.779 141.411C198.722 134.353 198.628 126.318 200.338 122.326C202.048 118.335 205.468 102.376 205.073 95.154C204.677 87.9319 200.338 74.4432 200.338 74.4432L196.274 70.1484C196.274 70.1484 201.288 88.6951 199.007 101.805C196.725 114.915 198.817 120.237 189.696 132.776C180.574 145.315 167.846 155.2 153.594 159.949C139.342 164.698 130.198 164.127 115.4 165.5C101.583 166.781 84.3955 165.803 77.5551 164.021C71.4276 162.422 63.1472 158.308 56.8777 148.298C50.6082 138.288 47.4805 131.924 47.4805 131.924Z" fill="#7D72B3"/>
</g>
<g style="mix-blend-mode:multiply" opacity="0.4">
<path fill-rule="evenodd" clip-rule="evenodd" d="M78.9093 111.4C78.9093 111.4 80.2184 132.484 82.9005 134.298C85.5827 136.111 91.2561 136.863 96.5814 135.058C101.907 133.253 120.144 127.259 123.278 125.368C126.411 123.477 145.623 113.871 149.406 111.022C153.188 108.172 158.243 98.0315 159.95 95.9287C161.658 93.8258 166.317 81.2841 167.649 76.5325C168.98 71.781 169.927 66.0824 169.927 66.0824C169.927 66.0824 170.308 63.4226 168.027 62.5675C165.746 61.7125 165.37 62.5675 165.37 62.5675C165.37 62.5675 164.891 65.7037 162.897 74.7277C160.903 83.7518 134.015 114.726 120.428 122.803C106.842 130.88 93.9216 131.159 89.2675 130.602C84.6134 130.045 78.8147 115.01 78.9093 111.4Z" fill="#7D72B3"/>
</g>
<g style="mix-blend-mode:multiply" opacity="0.4">
<path fill-rule="evenodd" clip-rule="evenodd" d="M78.277 115.347C78.277 115.347 78.8341 102.22 82.2265 97.8001C85.6188 93.38 96.988 84.3114 103.72 80.8884C110.452 77.4654 120.242 72.6219 123.651 71.9005C127.06 71.1791 129.461 71.9005 129.461 71.9005C129.461 71.9005 125.361 69.6724 115.955 72.0537C106.55 74.4351 95.9018 83.175 90.777 85.8794C85.6523 88.5839 77.6754 95.1597 75.7704 98.4797C73.8653 101.8 78.277 115.347 78.277 115.347Z" fill="#7D72B3"/>
</g>
<g style="mix-blend-mode:multiply" opacity="0.4">
<path fill-rule="evenodd" clip-rule="evenodd" d="M55.1602 101.51L84.3157 75.9638L102.375 67.792C102.375 67.792 120.228 61.7258 128.4 59.818C136.572 57.9101 154.907 57.3419 154.907 57.3419L164.518 58.3864C164.518 58.3864 147.79 49.2648 123.077 55.9159C98.3642 62.567 81.9399 70.8724 74.7206 77.6934C67.5014 84.5143 56.6085 98.1702 55.1602 101.51Z" fill="#7D72B3"/>
</g>
<path style="mix-blend-mode:screen" fill-rule="evenodd" clip-rule="evenodd" d="M54.3555 102.646C54.3555 102.646 38.6915 121.552 46.2923 133.186C53.8932 144.819 57.2521 161.595 59.458 165.494C61.6639 169.393 86.881 175.262 92.1172 174.05C97.3534 172.838 109.915 169.541 118.134 172.724C118.134 172.724 132.686 171.471 136.864 171.471C141.042 171.471 148.646 167.925 150.42 167.037C152.194 166.148 162.073 162.984 167.131 160.957C172.189 158.929 180.305 152.601 183.597 150.064C186.889 147.527 195.507 137.269 197.153 134.102C198.799 130.935 203.729 112.439 205.007 103.699C206.285 94.9587 202.525 78.111 199.684 72.2844C196.844 66.4578 187.906 61.0099 187.906 61.0099L188.424 58.3751L195.387 54.2168C195.387 54.2168 207.533 70.1426 208.675 83.8959C209.344 91.973 211.207 109.163 209.087 116.544C207.383 122.471 201.567 139.895 196.512 146.117C191.457 152.339 176.244 168.229 168.136 171.307C160.029 174.384 136.107 178.531 122.027 178.827C111.644 179.038 88.7722 177.181 77.5311 176.802C66.2901 176.423 58.252 169.376 53.7845 165.806C49.3171 162.235 50.835 152.509 46.2645 144.831C41.694 137.152 39.1901 126.936 40.3209 121.376C41.4516 115.817 54.3555 102.646 54.3555 102.646Z" fill="url(#paint12_radial_698_2220)"/>
<path fill-rule="evenodd" clip-rule="evenodd" d="M81.8581 174.627C79.4516 174.07 77.2875 172.742 74.8951 172.14C73.5498 171.817 72.2268 171.616 70.9011 171.238C69.5399 170.845 68.1381 170.61 66.7233 170.536C63.9576 170.436 61.0888 169.792 59.323 167.447C57.8246 165.403 56.7231 163.096 56.0755 160.646C55.1313 157.278 54.2289 153.908 53.1872 150.538C52.2345 147.496 50.8851 144.593 49.1737 141.904C48.4914 140.79 47.9121 139.698 47.1684 138.637C46.486 137.673 45.5446 136.751 45.0238 135.668L45.0015 135.648C43.6785 132.838 43.2162 129.73 43.297 126.683C43.3387 125.037 43.7983 123.494 44.1604 121.887C44.6422 119.862 45.163 118.077 46.2047 116.252C47.1684 114.581 48.1126 112.882 49.0735 111.178C51.2209 107.406 53.4657 103.635 56.1339 100.246C59.6245 95.9377 63.3434 91.82 67.2748 87.9101C69.5196 85.6234 72.0681 83.6181 74.6361 81.713C76.8002 80.1087 78.8138 78.3429 80.9529 76.7191C84.6433 73.9116 88.8545 72.0873 92.9877 70.0792C97.9816 67.6728 102.975 65.3444 108.17 63.4421C114.328 61.1992 120.645 59.4191 127.067 58.1168C134.39 56.6323 142.108 56.3314 149.572 56.3732C153.663 56.3927 158.036 55.8719 161.947 57.3954C164.152 58.2588 166.72 59.1194 168.631 60.4591C169.074 60.7599 169.274 60.8184 169.556 61.2195C169.722 61.4782 169.851 61.7597 169.937 62.055C170.238 62.7569 170.597 63.9183 170.597 64.662C170.597 65.4836 170.238 66.205 170.238 67.0684C170.258 68.2911 169.937 69.394 169.895 70.5972C169.837 71.9899 169.494 73.0649 169.294 74.4102C168.893 76.8974 168.531 79.2843 167.57 81.6294C166.177 85.019 165.241 88.5924 163.698 91.9347C163.236 92.9568 162.414 93.7395 161.952 94.7617C161.512 95.6836 161.117 96.4467 160.59 97.3296C159.607 98.9729 158.805 100.672 157.682 102.243C155.354 105.451 152.987 108.883 149.92 111.434C146.207 114.523 142.158 117.004 137.905 119.257C135.136 120.723 132.248 121.903 129.44 123.31C126.934 124.552 124.427 125.836 121.898 127.02C115.4 130.047 108.501 132.295 101.683 134.42C99.7168 135.041 97.8702 135.704 95.8342 135.985C93.9876 136.244 91.843 136.846 89.9853 136.821C87.9405 136.727 85.9203 136.334 83.9887 135.657C80.7384 134.573 80.4181 131.044 80.1786 128.117C80.0207 125.93 79.7418 123.753 79.343 121.597C79.0227 119.854 78.8835 118.127 78.4824 116.364C78.0654 114.58 77.8367 112.758 77.8 110.927C77.7583 108.601 78.6607 106.415 79.1926 104.148C79.5324 102.683 79.694 101.179 80.3067 99.775C81.1673 97.7307 82.8134 95.9649 84.4372 94.4998C86.1083 93.0153 87.746 91.5531 89.392 90.0435C90.3752 89.1188 91.5366 88.4365 92.5811 87.5953C94.4054 86.1303 96.433 84.9884 98.5191 83.9244C100.162 83.061 101.366 81.6963 102.889 80.6964C104.507 79.6248 106.18 78.6402 107.902 77.7469C109.365 77.0255 110.949 76.5242 112.476 75.9226C113.718 75.4407 114.863 74.7193 116.124 74.2988C117.289 73.8949 118.492 73.7752 119.634 73.2933C120.72 72.8238 121.836 72.4293 122.976 72.1124C124.279 71.7893 125.744 71.249 127.067 71.21C129.674 71.1682 130.967 72.4717 131.621 75.0007C132.543 78.4487 131.479 81.3565 130.229 84.5455C129.226 87.1135 128.123 89.6619 127.14 92.2689C125.836 95.7393 122.748 97.5608 120.141 99.931C117.308 102.478 114.101 104.574 110.632 106.148C109.571 106.629 108.426 106.911 107.384 107.351C106.482 107.752 105.599 108.253 104.697 108.743C104.115 109.064 103.694 109.526 103.151 109.888C102.669 110.208 102.109 110.389 101.608 110.71C100.409 111.539 99.1406 112.264 97.8173 112.877C96.5333 113.456 93.9848 113.799 93.1437 112.294C92.7009 111.531 92.7621 110.467 92.5616 109.607C92.3486 108.619 92.2551 107.609 92.2831 106.599C92.2831 105.535 92.4836 104.752 92.6451 103.73C92.8067 102.708 93.2468 101.964 93.5671 101.001C94.5307 98.2738 96.4163 96.2489 98.0791 94.0013C99.1235 92.5781 100.029 91.1743 101.249 89.8513C103.053 87.924 105.602 86.9631 108.148 86.3197C110.434 85.7627 113.846 85.0775 115.946 86.4005C117.731 87.5146 116.486 89.9293 115.904 91.4138C115.584 92.2494 115.244 93.085 114.963 93.9205C114.762 94.5444 114.684 95.2463 114.32 95.8479C113.579 97.0901 112.114 97.9535 111.011 98.9116C110.509 99.3322 109.707 99.9338 109.106 100.134C108.343 100.374 107.521 100.354 106.758 100.535C106.379 100.616 106.178 101.092 105.716 100.917C105.296 100.775 105.296 100.293 105.374 99.853C105.452 99.4129 105.635 99.0509 105.716 98.6693C105.736 98.5885 105.635 98.4493 105.655 98.349C105.978 97.1653 107.482 95.6808 108.162 94.6781C109.242 95.1182 108.501 95.7615 108.301 96.2434C108.207 96.6404 108.133 97.042 108.081 97.4466C108 97.7864 107.479 98.4075 107.861 98.7696C108.12 99.0314 109.003 98.569 109.284 98.4688C111.61 97.6471 113.114 95.0987 113.838 92.7925C114.297 91.2885 114.217 88.6816 112.554 88.0187C111.309 87.5368 109.805 87.7986 108.501 87.7792C103.789 87.6984 101.001 92.734 98.4941 95.9816C96.8049 98.2058 95.4655 100.675 94.5224 103.304C93.84 105.109 93.5587 106.972 93.0769 108.799C92.7148 110.142 92.2747 112.208 94.3413 111.927C95.5446 111.746 96.848 111.091 97.99 110.724C98.9653 110.403 99.9119 110 100.82 109.52C102.304 108.718 103.967 108.498 105.513 107.816C106.716 107.273 107.939 106.613 109.134 106.031C112.245 104.527 115.261 101.457 117.439 98.8113C118.882 97.026 120.948 95.6808 122.592 94.057C124.318 92.3525 125.24 90.2246 126.424 88.1384C127.608 86.0523 128.209 83.9606 128.73 81.6211C129.212 79.535 130.454 77.1648 129.814 75.0034C129.131 72.7558 126.243 72.7168 124.377 73.0371C122.834 73.2961 121.129 73.5579 119.664 74.1512C116.938 75.2346 114.25 76.396 111.543 77.4934C107.27 79.2564 103.719 82.1642 99.8087 84.5511C97.8228 85.7543 95.6754 86.679 93.8316 88.1217C92.4669 89.1857 91.1634 90.4279 89.8599 91.5921C88.938 92.4277 88.1554 93.3384 87.1332 94.0598C85.788 95.0012 84.4455 96.0456 83.4429 97.3491C82.6073 98.4103 81.677 99.6747 81.2147 100.97C80.8749 101.992 81.1952 102.956 81.2564 103.997C81.3344 105.423 80.9334 106.746 80.8749 108.15C80.8136 109.635 80.8749 111.158 80.8944 112.643C80.8944 115.55 80.4543 118.38 80.5128 121.327C80.5546 123.134 80.9557 125.04 81.315 126.825C81.5935 128.248 82.1784 129.471 82.2786 130.936C82.3176 131.858 82.4792 133.122 83.3008 133.721C83.7019 134.022 84.2227 134.103 84.6934 134.278C85.1641 134.454 85.4955 134.579 85.8966 134.701C86.1166 134.779 86.3589 134.821 86.5985 134.902C86.7795 135.002 86.9188 135.261 87.0998 135.342C87.5817 135.543 88.303 135.423 88.8044 135.323C89.9686 135.103 91.1105 134.821 92.2747 134.621C95.1825 134.119 98.1236 134.178 100.909 133.136C104.098 131.933 107.064 130.209 110.214 128.925C114.927 126.998 119.982 125.583 124.494 123.168C126.522 122.054 128.627 121.043 130.713 120.104C135.668 117.876 140.863 116.074 145.213 112.723C146.884 111.439 148.143 109.974 149.566 108.47C150.368 107.61 151.237 106.847 151.953 105.905C154.131 103.118 156.07 100.153 157.749 97.0399C158.451 95.7365 158.863 94.3104 159.596 93.007C160.71 90.9821 162.083 89.1968 163.125 87.1107C164.166 85.0246 164.748 83.0192 165.431 80.8524C165.854 79.5294 166.155 78.4459 166.113 77.0422C166.074 74.2347 166.375 71.806 167.506 69.2436C168.127 67.8371 169.01 65.7538 168.547 64.169C168.308 63.3864 167.185 63.1858 166.503 62.9658C164.899 62.4227 163.233 62.0216 161.69 61.3392C160.264 60.6986 159.242 59.9466 157.677 59.6681C157.105 59.5377 156.52 59.4769 155.933 59.4871C154.429 59.5679 153.126 60.6012 151.622 60.5483C151.16 60.4924 150.704 60.3993 150.257 60.2697C149.474 60.1277 148.633 60.228 147.87 60.2085C146.146 60.1472 144.481 59.8269 142.734 59.8464C140.69 59.8687 138.685 60.0469 136.637 60.1695C134.732 60.2697 132.808 60.1082 130.903 60.1695C129.677 60.2085 128.917 60.7711 127.839 61.2501C126.856 61.693 125.753 61.874 124.731 62.2556C123.825 62.6149 122.984 62.9352 122.021 62.9769C120.678 62.9964 119.333 62.7959 118.029 63.0772C116.408 63.4919 114.824 64.0416 113.295 64.7205C109.022 66.5476 104.869 68.8342 100.438 70.238C98.2907 70.898 96.0849 71.1989 93.9987 72.0428C93.2161 72.3631 92.5365 72.9257 91.8319 73.3852C90.4393 74.3294 88.9659 75.19 87.5204 76.0925C84.2923 78.1396 81.2231 80.3872 78.1538 82.6711C74.533 85.3588 71.0933 88.0465 68.1047 91.4584C62.8908 97.4549 57.4541 103.513 52.9421 110.069C50.7975 113.158 48.3883 116.489 46.8648 119.937C46.8258 120.018 46.8063 120.079 46.7645 120.16C45.929 122.146 45.4806 124.232 45.7619 126.376C45.7586 126.417 45.7652 126.458 45.7813 126.496C46.0237 128.262 46.784 130.348 47.4859 131.952C48.1878 133.557 48.7699 135.261 49.6723 136.788C50.6555 138.459 52.0202 139.835 52.736 141.639C53.5994 143.868 54.382 146.254 55.0421 148.561C55.8905 151.483 56.5804 154.449 57.1088 157.445C57.4708 159.289 57.7716 161.155 58.6323 162.84C59.8578 165.208 62.4647 166.091 64.5898 167.475C65.543 168.158 66.6872 168.522 67.8596 168.517C69.7647 168.617 71.5695 169.074 73.3938 169.631C77.2931 170.834 81.1924 171.717 85.2699 171.655C87.6958 171.636 90.0048 170.976 92.3889 170.675C94.6171 170.397 96.8452 170.174 99.0483 169.812C101.054 169.491 103.02 168.929 105.064 168.929C107.092 168.945 109.109 169.226 111.064 169.764C114.406 170.686 117.681 171.435 121.171 171.288C123.296 171.227 125.382 170.731 127.488 170.605C129.474 170.486 131.359 170.786 133.337 170.926C136.827 171.146 140.177 170.285 143.425 169.221C145.653 168.5 147.497 167.436 149.483 166.252C151.087 165.311 152.633 165.029 154.396 164.581C157.885 163.688 161.247 162.362 164.406 160.632C168.497 158.303 171.867 154.875 175.825 152.387C178.073 150.995 180.599 150.062 182.788 148.558C184.6 147.327 186.286 145.923 187.824 144.363C189.609 142.558 191.294 140.673 193.079 138.868C194.441 137.475 194.985 135.76 195.787 134.036C196.99 131.487 197.41 128.861 197.853 126.092C198.313 123.366 199.524 120.959 200.7 118.43C202.204 115.202 203.485 112.172 203.808 108.562C204.07 105.855 204.432 103.128 204.432 100.399C204.432 98.6554 204.131 96.9508 203.908 95.224C203.688 93.6197 203.368 92.0767 203.025 90.4892C202.585 88.5395 202.647 86.537 202.285 84.5706C201.964 82.8856 201.449 81.103 200.981 79.4375C200.647 78.2336 200.232 77.0536 199.739 75.9058C198.856 73.8472 197.688 71.9232 196.269 70.1906C195.667 69.4887 194.904 69.2687 194.221 68.7674C193.701 68.3663 193.581 68.0237 192.979 67.7229C192.144 67.3024 191.308 66.8874 190.473 66.4194C189.147 65.6591 187.643 65.4363 186.32 64.7149C185.055 64.0325 183.913 63.1301 182.699 62.3698C181.334 61.5064 179.95 60.9242 178.766 59.8018C177.583 58.6794 176.842 57.2534 175.719 56.1309C174.575 54.9667 172.934 54.2063 171.625 53.2037C169.361 51.4379 166.693 51.2958 164.144 50.2152C162.841 49.6581 161.598 49.5718 160.245 49.2905C158.702 48.9702 157.657 48.0288 156.014 47.8477C154.549 47.6862 153.104 47.6667 151.68 47.2656C150.853 47.0318 150.008 46.8641 149.154 46.7643C147.45 46.6027 145.812 46.8451 144.118 47.0261C142.634 47.1849 141.13 47.1041 139.645 47.1041C138.403 47.1041 137.1 47.2266 135.855 47.0261C132.326 46.483 128.454 46.5443 124.884 46.7838C121.475 47.0261 118.146 47.2656 114.916 48.3881C112.169 49.3322 109.459 50.1344 106.772 51.2373C104.928 51.9782 103.324 53.0031 101.6 53.964C97.4468 56.2925 93.6367 59.1389 89.6845 61.7877C85.2727 64.7149 81.12 67.9652 76.8725 71.1543C74.1068 73.2404 71.3022 75.3042 68.5699 77.4516C67.3862 78.393 66.2442 79.3762 65.119 80.3789C67.7718 76.9752 70.6567 73.759 73.7531 70.7532C91.4664 53.4772 115.239 43.8226 139.982 43.8565C140.985 43.8565 141.988 43.876 142.971 43.8955C144.032 43.9373 145.096 43.9763 146.16 44.0571C149.107 44.2576 152.037 44.5779 154.903 45.0402C154.945 45.0402 154.964 45.0597 155.003 45.0597C158.273 45.9417 161.529 46.8776 164.771 47.8672C167.481 48.6889 170.207 49.4325 172.876 50.3544C174.639 50.956 176.366 51.747 178.07 52.4405C179.613 53.1034 181.32 53.6632 182.763 54.4849C185.111 55.8106 187.295 57.5737 189.462 59.1807C190.9 60.2891 192.267 61.4882 193.553 62.7708C195.383 64.5519 197.011 66.5292 198.408 68.6671C201.658 73.7 204.257 79.3957 205.468 85.253C206.51 90.1884 206.37 95.5582 206.17 100.572C206.018 103.358 205.645 106.127 205.056 108.855C204.454 111.763 203.429 114.473 203.129 117.489C202.989 118.951 203.229 120.458 202.989 121.901C202.789 123.084 202.346 124.226 202.106 125.41C201.636 127.922 200.827 130.358 199.7 132.652C198.135 135.802 196.01 138.409 193.742 141.116C191.197 144.143 188.467 147.051 185.821 150.028C183.175 153.006 179.944 155.423 176.513 157.47C173.845 159.075 171.118 160.999 168.21 162.125C165.481 163.208 162.392 164.751 159.445 165.071C157.198 165.291 155.412 166.135 153.596 167.5C152.482 168.302 151.672 169.386 150.65 170.246C149.725 171.029 148.642 171.268 147.539 171.639C144.912 172.522 142.344 172.321 139.598 172.321C135.699 172.321 131.836 172.703 127.945 173.104C125.996 173.345 124.03 173.425 122.068 173.343C120.302 173.243 118.556 172.786 116.812 172.563C114.863 172.321 112.913 172.285 110.997 171.981C109.586 171.723 108.143 171.696 106.724 171.901C105.479 172.04 104.237 171.901 102.992 172.001C101.747 172.101 100.446 172.402 99.1625 172.583C93.2913 173.343 87.8156 176.031 81.8581 174.627Z" fill="#00C4FF"/>
<path style="mix-blend-mode:screen" fill-rule="evenodd" clip-rule="evenodd" d="M77.1465 218.089C77.1465 218.089 99.3919 221.989 109.502 221.71C124.787 221.267 142.407 223.167 156.087 223.546C169.768 223.924 193.688 212.708 198.049 210.653C202.411 208.597 212.972 202.576 222.183 192.363C231.394 182.149 235.028 165.505 235.028 165.505H231.185C231.185 165.505 229.728 172.71 224.174 180.798C220.832 185.65 215.947 189.898 209.26 195.677C199.642 203.991 187.117 210.391 174.489 213.538C157.678 217.716 142.738 216.569 132.433 218.106C117.51 220.334 84.388 215.059 84.388 215.059L77.1465 218.089Z" fill="url(#paint13_radial_698_2220)"/>
<path fill-rule="evenodd" clip-rule="evenodd" d="M71.2754 207.074C71.2754 207.074 74.8237 216.299 77.1466 218.09C77.1466 218.09 82.0318 218.388 84.3881 215.884L77.5477 210.447L71.2754 207.074Z" fill="url(#paint14_radial_698_2220)"/>
<path fill-rule="evenodd" clip-rule="evenodd" d="M235.309 148.298C235.309 148.298 237.688 158.723 237.883 164.277C237.883 164.277 234.17 166.617 231.198 165.5C231.184 165.5 234.688 152.749 235.309 148.298Z" fill="url(#paint15_radial_698_2220)"/>
<path fill-rule="evenodd" clip-rule="evenodd" d="M170.933 48.9893C170.933 48.9893 190.76 50.9779 195.403 54.2226C195.403 54.2226 192.122 57.8963 188.44 58.381C188.435 58.3949 172.356 49.4627 170.933 48.9893Z" fill="#FF61C7"/>
<path fill-rule="evenodd" clip-rule="evenodd" d="M53.8008 85.8934L61.928 84.6122L65.1115 80.3369C65.1115 80.3369 59.2821 82.9049 53.8008 85.8934Z" fill="#FF61C7"/>
<g style="mix-blend-mode:multiply" opacity="0.5">
<path fill-rule="evenodd" clip-rule="evenodd" d="M60.3994 201.223C60.3994 201.223 98.863 212.389 128.885 212.974C158.906 213.559 170.186 206.846 183.168 201.833C196.15 196.819 217.465 185.3 223.893 176.802C230.322 168.305 235.313 148.301 235.313 148.301C235.313 148.301 229.144 178.301 223.807 183.615C218.471 188.929 194.632 204.986 190.452 207.077C186.271 209.169 174.913 217.789 154.369 215.391C154.369 215.391 140.56 217.341 135.561 216.956C130.561 216.572 122.807 221.616 108.544 217.007C108.544 217.007 88.7165 216.007 84.38 215.057C80.0434 214.107 60.3994 201.223 60.3994 201.223Z" fill="#54469B"/>
</g>
<path fill-rule="evenodd" clip-rule="evenodd" d="M69.7402 160.854C69.7402 160.854 101.62 166.379 124.717 164.02C147.815 161.661 160.301 155.896 166.888 151.587C173.475 147.279 186.384 133.483 191.208 127.214C196.032 120.944 198.472 105.247 198.472 105.247C198.472 105.247 199.344 120.566 195.409 127.214C191.473 133.862 177.917 146.479 172.389 150.147C166.86 153.815 151.012 162.516 142.738 164.02C134.463 165.524 120.807 169.708 110.914 167.892C101.021 166.076 77.0319 166.388 69.7402 160.854Z" fill="#B04FE2"/>
<path fill-rule="evenodd" clip-rule="evenodd" d="M113.928 211.89C113.928 211.89 147.116 209.606 158.519 207.074C169.921 204.543 184.911 198.373 195.395 194.524C205.878 190.675 213.799 183.069 219.576 178.841C225.352 174.613 232.764 157.049 232.764 157.049C232.764 157.049 228.029 174.462 220.788 180.147C213.546 185.832 194.952 196.24 173.963 205.554C150.637 215.903 132.494 212.973 113.928 211.89Z" fill="#8B40E0"/>
<path fill-rule="evenodd" clip-rule="evenodd" d="M229.58 170.213C230.101 168.628 230.664 167.065 231.185 165.5C229.356 171.773 226.883 177.84 223.804 183.604L223.742 183.662C222.862 184.526 221.793 185.208 220.957 186.149C220.122 187.091 219.375 188.035 218.473 188.918C214.139 193.21 209.184 196.9 204.071 200.231C198.815 203.66 193.562 206.916 187.805 209.423C183.409 211.375 178.86 212.965 174.205 214.177C170.456 215.138 166.443 215.57 162.571 215.739C160.608 215.84 158.672 216.163 156.722 216.341C154.296 216.603 151.809 216.564 149.422 216.984C145.267 217.761 141.065 218.27 136.844 218.508C133.254 218.708 129.683 219.21 126.096 219.21C121.481 219.19 116.905 218.469 112.295 218.488C107.822 218.527 103.31 218.327 98.8569 217.931C96.1886 217.672 93.5817 217.171 90.9552 216.87C88.7271 216.608 86.5825 216.127 84.3766 215.887C82.5105 214.561 80.7057 213.138 78.9594 211.673C78.4803 211.272 77.9985 210.871 77.5361 210.45C80.0651 211.252 82.5718 212.121 85.1175 212.918C88.6881 214.032 92.6988 214.703 96.431 215.166C99.478 215.544 103.149 215.826 106.157 215.065C109.287 214.283 111.613 215.285 114.462 216.458C115.785 217.001 117.131 217.26 118.512 217.661C120.462 218.218 121.902 218.104 123.887 217.842C125.634 217.622 127.458 217.321 129.204 216.94C130.689 216.62 132.112 216.018 133.616 215.826C136.223 215.505 138.992 215.124 141.599 215.586C144.607 216.107 147.595 216.422 150.625 215.926C153.687 215.398 156.785 215.118 159.892 215.09C160.901 215.093 161.907 215.186 162.9 215.369C164.064 215.57 165.145 215.249 166.289 215.129C168.302 214.949 170.292 214.565 172.227 213.985C174.071 213.405 175.848 212.592 177.642 211.901C181.171 210.576 184.36 209.272 187.49 207.147C190.117 205.381 193.024 204.139 195.693 202.432C198.241 200.789 200.506 198.722 203.115 197.159C205.861 195.488 208.368 193.447 210.997 191.589C212.669 190.405 214.145 189.002 215.81 187.798C217.253 186.754 218.838 185.932 220.183 184.735C222.489 182.768 224.639 180.643 226.141 177.975C227.552 175.513 228.705 172.912 229.58 170.213Z" fill="#00C4FF"/>
<path fill-rule="evenodd" clip-rule="evenodd" d="M127.757 117.4C127.757 117.4 150.685 98.6301 160.319 80.3369C160.319 80.3369 133.597 107.788 127.757 117.4Z" fill="#FF77F4"/>
<path fill-rule="evenodd" clip-rule="evenodd" d="M103.643 139.773C103.643 139.773 118.126 139.867 134.149 133.186C150.172 126.504 158.213 112.726 158.213 112.726C158.213 112.726 147.373 123.084 135.569 128.88C123.766 134.676 114.825 136.102 103.643 139.773Z" fill="#EA9CF4"/>
<path fill-rule="evenodd" clip-rule="evenodd" d="M160.895 109.419C160.895 109.419 162.518 105.283 165.557 98.0334C168.596 90.7835 170.991 86.8926 170.991 86.8926C170.991 86.8926 170.013 97.961 160.895 109.419Z" fill="#EA9CF4"/>
<path fill-rule="evenodd" clip-rule="evenodd" d="M98.6875 177.95C98.6875 177.95 118.813 182.841 145.036 177.95C171.259 173.06 172.398 171.466 179.62 165.804C186.842 160.142 191.969 152.886 194.819 150.148C197.668 147.411 201.258 137.894 201.258 137.894C201.258 137.894 193.841 151.224 183.216 160.145C172.59 169.066 163.847 173.438 145.986 176.098C128.124 178.758 107.597 178.48 98.6875 177.95Z" fill="#D374F4"/>
<path fill-rule="evenodd" clip-rule="evenodd" d="M116.346 221.65C116.346 221.65 134.586 223.223 141.995 224.744C149.403 226.265 163.658 226.209 171.827 223.198C179.996 220.188 196.183 211.52 196.183 211.52C196.183 211.52 181.079 219.995 163.087 221.887C145.095 223.778 134.149 220.756 116.346 221.65Z" fill="#D374F4"/>
<path fill-rule="evenodd" clip-rule="evenodd" d="M201.483 208.86C201.483 208.86 213.061 201.086 218.752 195.925C218.746 195.925 212.68 204.222 201.483 208.86Z" fill="#D374F4"/>
<path fill-rule="evenodd" clip-rule="evenodd" d="M113.513 109.888C113.513 109.888 126.728 99.9451 130.92 92.7565C135.112 85.5679 135.535 81.4736 135.535 81.4736C135.535 81.4736 137.401 88.4645 129.469 97.3493C121.537 106.234 113.513 109.888 113.513 109.888Z" fill="#F2C4F8"/>
<path style="mix-blend-mode:screen" opacity="0.5" fill-rule="evenodd" clip-rule="evenodd" d="M82.6469 102.958C81.5774 107.81 80.494 112.74 82.14 117.413C83.7861 122.087 86.3178 125.128 88.727 125.382C91.1362 125.635 94.6818 119.934 94.5536 118.288C94.4255 116.642 90.6265 112.333 90.3758 108.027C90.1252 103.721 94.8154 97.3847 94.5536 94.9783C94.2918 92.5719 84.4044 94.9672 82.6469 102.958Z" fill="url(#paint16_linear_698_2220)"/>
<path style="mix-blend-mode:screen" opacity="0.5" fill-rule="evenodd" clip-rule="evenodd" d="M84.8005 83.1169C83.213 81.4096 72.5317 91.4084 65.1119 99.1401C57.6922 106.872 50.3504 117.007 49.7126 123.466C49.0747 129.925 54.4001 139.687 64.0257 148.299C73.6514 156.911 98.7182 164.762 104.737 161.217C110.756 157.671 108.544 146.65 103.623 143.99C98.7015 141.33 82.7534 146.689 75.2807 138.835C67.808 130.981 71.1837 120.427 72.1139 111.559C73.2531 100.697 76.6761 91.5449 79.8429 88.7569C81.7382 87.105 83.4053 85.2084 84.8005 83.1169Z" fill="url(#paint17_linear_698_2220)"/>
<path fill-rule="evenodd" clip-rule="evenodd" d="M52.0541 116.549C49.9902 123.554 49.748 131.032 54.0567 136.795C58.3654 142.558 61.6185 138.243 63.1392 124.203C64.6599 110.163 63.7881 100.56 63.7881 100.56C63.7881 100.56 54.6499 107.734 52.0541 116.549Z" fill="#FFFFF8"/>
<path fill-rule="evenodd" clip-rule="evenodd" d="M59.098 140.895C56.1846 143.597 63.1393 148.958 64.2729 146.374C65.4064 143.789 60.9891 139.138 59.098 140.895Z" fill="#F5CEFA"/>
<path fill-rule="evenodd" clip-rule="evenodd" d="M51.3807 162.088C51.1022 166.544 53.6423 171.594 61.4241 174.507C69.206 177.42 75.3 176.627 75.3 176.627C75.3 176.627 66.1952 174.822 61.1846 171.312C56.174 167.803 51.3807 162.088 51.3807 162.088Z" fill="#F5CEFA"/>
<path fill-rule="evenodd" clip-rule="evenodd" d="M83.2899 103.638C80.7219 100.237 84.0641 95.5858 88.7739 92.7226C93.4837 89.8594 94.0491 90.7284 93.0409 93.2267C92.0326 95.725 90.4924 101.009 88.3032 103.638C86.1141 106.267 84.8106 105.649 83.2899 103.638Z" fill="#FFFFF8"/>
<path fill-rule="evenodd" clip-rule="evenodd" d="M100.221 97.7192C99.2437 96.0481 101.213 91.1851 103.903 91.6336C106.594 92.082 105.934 93.1515 104.675 94.9257C103.733 96.2542 101.143 99.2929 100.221 97.7192Z" fill="#FFFFF8"/>
<path fill-rule="evenodd" clip-rule="evenodd" d="M119.679 106.052C118.763 104.161 126.263 98.3845 127.277 98.9889C128.291 99.5933 127.634 102.651 125.884 103.799C124.135 104.946 119.999 106.712 119.679 106.052Z" fill="#FFFFF8"/>
<defs>
<radialGradient id="paint0_radial_698_2220" cx="0" cy="0" r="1" gradientUnits="userSpaceOnUse" gradientTransform="translate(141.666 142.834) scale(125.849)">
<stop stop-color="#E213FF"/>
<stop offset="1"/>
</radialGradient>
<radialGradient id="paint1_radial_698_2220" cx="0" cy="0" r="1" gradientUnits="userSpaceOnUse" gradientTransform="translate(150.001 150.001) scale(106.066)">
<stop stop-color="#E213FF"/>
<stop offset="1"/>
</radialGradient>
<radialGradient id="paint2_radial_698_2220" cx="0" cy="0" r="1" gradientUnits="userSpaceOnUse" gradientTransform="translate(140.54 140.998) scale(101.217 101.217)">
<stop stop-color="#E213FF"/>
<stop offset="1"/>
</radialGradient>
<radialGradient id="paint3_radial_698_2220" cx="0" cy="0" r="1" gradientUnits="userSpaceOnUse" gradientTransform="translate(76.7197 103.382) scale(155.278 155.278)">
<stop offset="0.01" stop-color="#FF9AFF"/>
<stop offset="0.09" stop-color="#FB94FF"/>
<stop offset="0.21" stop-color="#F183FF"/>
<stop offset="0.34" stop-color="#E068FF"/>
<stop offset="0.49" stop-color="#C841FF"/>
<stop offset="0.64" stop-color="#A910FF"/>
<stop offset="0.68" stop-color="#9F00FF"/>
<stop offset="0.74" stop-color="#9900F8"/>
<stop offset="0.83" stop-color="#8700E5"/>
<stop offset="0.93" stop-color="#6A00C6"/>
<stop offset="1" stop-color="#5200AB"/>
</radialGradient>
<radialGradient id="paint4_radial_698_2220" cx="0" cy="0" r="1" gradientUnits="userSpaceOnUse" gradientTransform="translate(76.7197 103.382) scale(155.278 155.278)">
<stop offset="0.01" stop-color="#FF9AFF"/>
<stop offset="0.09" stop-color="#FB94FF"/>
<stop offset="0.21" stop-color="#F183FF"/>
<stop offset="0.34" stop-color="#E068FF"/>
<stop offset="0.49" stop-color="#C841FF"/>
<stop offset="0.64" stop-color="#A910FF"/>
<stop offset="0.68" stop-color="#9F00FF"/>
<stop offset="0.74" stop-color="#9900F8"/>
<stop offset="0.83" stop-color="#8700E5"/>
<stop offset="0.93" stop-color="#6A00C6"/>
<stop offset="1" stop-color="#5200AB"/>
</radialGradient>
<radialGradient id="paint5_radial_698_2220" cx="0" cy="0" r="1" gradientUnits="userSpaceOnUse" gradientTransform="translate(81.1231 94.3966) scale(152.637 152.637)">
<stop offset="0.01" stop-color="#FF9AFF"/>
<stop offset="0.09" stop-color="#FB94FF"/>
<stop offset="0.21" stop-color="#F183FF"/>
<stop offset="0.34" stop-color="#E068FF"/>
<stop offset="0.49" stop-color="#C841FF"/>
<stop offset="0.64" stop-color="#A910FF"/>
<stop offset="0.68" stop-color="#9F00FF"/>
<stop offset="0.74" stop-color="#9900F8"/>
<stop offset="0.83" stop-color="#8700E5"/>
<stop offset="0.93" stop-color="#6A00C6"/>
<stop offset="1" stop-color="#5200AB"/>
</radialGradient>
<radialGradient id="paint6_radial_698_2220" cx="0" cy="0" r="1" gradientUnits="userSpaceOnUse" gradientTransform="translate(101.197 78.2536) scale(34.1298 34.1298)">
<stop stop-color="white"/>
<stop offset="1" stop-color="#623964"/>
</radialGradient>
<radialGradient id="paint7_radial_698_2220" cx="0" cy="0" r="1" gradientUnits="userSpaceOnUse" gradientTransform="translate(106.627 90.5922) scale(11.8733 11.8733)">
<stop stop-color="white"/>
<stop offset="1" stop-color="#623964"/>
</radialGradient>
<radialGradient id="paint8_radial_698_2220" cx="0" cy="0" r="1" gradientUnits="userSpaceOnUse" gradientTransform="translate(99.3244 89.4915) scale(12.5111 12.5111)">
<stop stop-color="white"/>
<stop offset="1" stop-color="#623964"/>
</radialGradient>
<radialGradient id="paint9_radial_698_2220" cx="0" cy="0" r="1" gradientUnits="userSpaceOnUse" gradientTransform="translate(90.476 77.4429) scale(28.902 28.902)">
<stop stop-color="white"/>
<stop offset="1" stop-color="#623964"/>
</radialGradient>
<radialGradient id="paint10_radial_698_2220" cx="0" cy="0" r="1" gradientUnits="userSpaceOnUse" gradientTransform="translate(78.1211 66.2072) scale(49 49)">
<stop stop-color="white"/>
<stop offset="1" stop-color="#623964"/>
</radialGradient>
<radialGradient id="paint11_radial_698_2220" cx="0" cy="0" r="1" gradientUnits="userSpaceOnUse" gradientTransform="translate(96.2831 73.9695) scale(68.2764 68.2764)">
<stop stop-color="white"/>
<stop offset="1" stop-color="#623964"/>
</radialGradient>
<radialGradient id="paint12_radial_698_2220" cx="0" cy="0" r="1" gradientUnits="userSpaceOnUse" gradientTransform="translate(74.9938 74.4708) scale(115.349 115.349)">
<stop stop-color="white"/>
<stop offset="1" stop-color="#623964"/>
</radialGradient>
<radialGradient id="paint13_radial_698_2220" cx="0" cy="0" r="1" gradientUnits="userSpaceOnUse" gradientTransform="translate(109.572 174.933) scale(90.9117 90.9117)">
<stop stop-color="#FFFF4A"/>
<stop offset="1" stop-color="#360038"/>
</radialGradient>
<radialGradient id="paint14_radial_698_2220" cx="0" cy="0" r="1" gradientUnits="userSpaceOnUse" gradientTransform="translate(73.7709 210.007) scale(9.81225 9.81226)">
<stop stop-color="#6D00C2"/>
<stop offset="0.4" stop-color="#6600BC"/>
<stop offset="0.98" stop-color="#5300AC"/>
<stop offset="1" stop-color="#5200AB"/>
</radialGradient>
<radialGradient id="paint15_radial_698_2220" cx="0" cy="0" r="1" gradientUnits="userSpaceOnUse" gradientTransform="translate(232.46 152.958) scale(10.2495 10.2495)">
<stop stop-color="#1F0081"/>
<stop offset="0.73" stop-color="#260087"/>
<stop offset="1" stop-color="#2A008B"/>
</radialGradient>
<linearGradient id="paint16_linear_698_2220" x1="81.2961" y1="109.723" x2="94.5676" y2="109.723" gradientUnits="userSpaceOnUse">
<stop stop-color="#BDFFE8"/>
<stop offset="0.2" stop-color="#8BBBAA"/>
<stop offset="0.42" stop-color="#5A796E"/>
<stop offset="0.61" stop-color="#33453F"/>
<stop offset="0.78" stop-color="#171F1D"/>
<stop offset="0.91" stop-color="#060808"/>
<stop offset="1"/>
</linearGradient>
<linearGradient id="paint17_linear_698_2220" x1="49.6624" y1="122.508" x2="108.386" y2="122.508" gradientUnits="userSpaceOnUse">
<stop stop-color="#BDFFE8"/>
<stop offset="0.2" stop-color="#8BBBAA"/>
<stop offset="0.42" stop-color="#5A796E"/>
<stop offset="0.61" stop-color="#33453F"/>
<stop offset="0.78" stop-color="#171F1D"/>
<stop offset="0.91" stop-color="#060808"/>
<stop offset="1"/>
</linearGradient>
</defs>
</svg>
