<svg width="200" height="200" viewBox="0 0 200 200" fill="none" xmlns="http://www.w3.org/2000/svg">
<path fill-rule="evenodd" clip-rule="evenodd" d="M90.1996 0.474443C93.4252 0.16053 96.6945 0 100 0C103.306 0 106.575 0.160531 109.8 0.474445C112.167 0.704812 113.9 2.81046 113.669 5.17753C113.439 7.54461 111.333 9.27675 108.966 9.04639C106.017 8.75941 103.027 8.61244 100 8.61244C96.9735 8.61244 93.9826 8.75941 91.0339 9.04638C88.6668 9.27675 86.5611 7.5446 86.3308 5.17753C86.1004 2.81045 87.8326 0.704809 90.1996 0.474443ZM76.3334 7.15457C77.023 9.43066 75.7369 11.8348 73.4608 12.5244C67.6835 14.2748 62.1476 16.5822 56.9155 19.3846C54.819 20.5075 52.2092 19.7183 51.0863 17.6218C49.9633 15.5253 50.7526 12.9155 52.849 11.7926C58.5758 8.72526 64.6368 6.19877 70.9635 4.28195C73.2396 3.59236 75.6438 4.87848 76.3334 7.15457ZM123.667 7.15457C124.356 4.87848 126.76 3.59237 129.036 4.28196C135.363 6.19877 141.424 8.72527 147.151 11.7926C149.247 12.9155 150.037 15.5254 148.914 17.6218C147.791 19.7183 145.181 20.5075 143.085 19.3846C137.852 16.5822 132.317 14.2748 126.539 12.5244C124.263 11.8348 122.977 9.43066 123.667 7.15457ZM42.6188 23.2912C44.1286 25.1287 43.8629 27.8423 42.0253 29.3521C37.3993 33.1529 33.1529 37.3992 29.3521 42.0253C27.8423 43.8628 25.1287 44.1286 23.2912 42.6188C21.4536 41.109 21.1879 38.3954 22.6977 36.5579C26.8546 31.4984 31.4985 26.8546 36.5579 22.6976C38.3955 21.1879 41.109 21.4536 42.6188 23.2912ZM157.381 23.2912C158.891 21.4536 161.605 21.1879 163.442 22.6977C168.502 26.8546 173.145 31.4985 177.302 36.5579C178.812 38.3955 178.546 41.109 176.709 42.6188C174.871 44.1286 172.158 43.8629 170.648 42.0253C166.847 37.3993 162.601 33.1529 157.975 29.3521C156.137 27.8423 155.871 25.1287 157.381 23.2912ZM17.6218 51.0862C19.7183 52.2091 20.5075 54.819 19.3846 56.9154C16.5822 62.1476 14.2748 67.6835 12.5244 73.4607C11.8348 75.7368 9.43066 77.0229 7.15457 76.3333C4.87848 75.6438 3.59237 73.2396 4.28196 70.9635C6.19877 64.6368 8.72527 58.5758 11.7926 52.849C12.9155 50.7526 15.5254 49.9633 17.6218 51.0862ZM182.378 51.0863C184.475 49.9633 187.084 50.7526 188.207 52.849C191.275 58.5758 193.801 64.6368 195.718 70.9635C196.408 73.2396 195.122 75.6438 192.845 76.3334C190.569 77.023 188.165 75.7369 187.476 73.4608C185.725 67.6835 183.418 62.1476 180.615 56.9155C179.492 54.819 180.282 52.2092 182.378 51.0863ZM5.17753 86.3307C7.54461 86.5611 9.27675 88.6668 9.04639 91.0338C8.75941 93.9826 8.61244 96.9735 8.61244 100C8.61244 103.027 8.75941 106.017 9.04638 108.966C9.27675 111.333 7.5446 113.439 5.17753 113.669C2.81045 113.9 0.704809 112.167 0.474443 109.8C0.16053 106.575 0 103.306 0 100C0 96.6945 0.160531 93.4252 0.474445 90.1996C0.704812 87.8325 2.81046 86.1004 5.17753 86.3307ZM194.822 86.3308C197.19 86.1004 199.295 87.8326 199.526 90.1996C199.839 93.4252 200 96.6945 200 100C200 103.306 199.839 106.575 199.526 109.8C199.295 112.167 197.19 113.9 194.822 113.669C192.455 113.439 190.723 111.333 190.954 108.966C191.241 106.017 191.388 103.027 191.388 100C191.388 96.9735 191.241 93.9826 190.954 91.0339C190.723 88.6668 192.455 86.5611 194.822 86.3308ZM7.15457 123.667C9.43066 122.977 11.8348 124.263 12.5244 126.539C14.2748 132.317 16.5822 137.852 19.3846 143.085C20.5075 145.181 19.7183 147.791 17.6218 148.914C15.5253 150.037 12.9155 149.247 11.7926 147.151C8.72526 141.424 6.19877 135.363 4.28195 129.036C3.59236 126.76 4.87848 124.356 7.15457 123.667ZM192.845 123.667C195.122 124.356 196.408 126.76 195.718 129.036C193.801 135.363 191.275 141.424 188.207 147.151C187.084 149.247 184.475 150.037 182.378 148.914C180.282 147.791 179.492 145.181 180.615 143.085C183.418 137.852 185.725 132.317 187.476 126.539C188.165 124.263 190.569 122.977 192.845 123.667ZM23.2912 157.381C25.1287 155.871 27.8423 156.137 29.3521 157.975C33.1529 162.601 37.3992 166.847 42.0253 170.648C43.8628 172.158 44.1286 174.871 42.6188 176.709C41.109 178.546 38.3954 178.812 36.5579 177.302C31.4984 173.145 26.8546 168.502 22.6976 163.442C21.1879 161.605 21.4536 158.891 23.2912 157.381ZM176.709 157.381C178.546 158.891 178.812 161.605 177.302 163.442C173.145 168.502 168.502 173.145 163.442 177.302C161.605 178.812 158.891 178.546 157.381 176.709C155.871 174.871 156.137 172.158 157.975 170.648C162.601 166.847 166.847 162.601 170.648 157.975C172.158 156.137 174.871 155.871 176.709 157.381ZM51.0862 182.378C52.2091 180.282 54.819 179.492 56.9154 180.615C62.1476 183.418 67.6835 185.725 73.4607 187.476C75.7368 188.165 77.0229 190.569 76.3333 192.845C75.6438 195.122 73.2396 196.408 70.9635 195.718C64.6368 193.801 58.5758 191.275 52.849 188.207C50.7526 187.084 49.9633 184.475 51.0862 182.378ZM148.914 182.378C150.037 184.475 149.247 187.084 147.151 188.207C141.424 191.275 135.363 193.801 129.036 195.718C126.76 196.408 124.356 195.122 123.667 192.845C122.977 190.569 124.263 188.165 126.539 187.476C132.317 185.725 137.852 183.418 143.085 180.615C145.181 179.492 147.791 180.282 148.914 182.378ZM86.3307 194.822C86.5611 192.455 88.6668 190.723 91.0338 190.954C93.9826 191.241 96.9735 191.388 100 191.388C103.027 191.388 106.017 191.241 108.966 190.954C111.333 190.723 113.439 192.455 113.669 194.822C113.9 197.19 112.167 199.295 109.8 199.526C106.575 199.839 103.306 200 100 200C96.6945 200 93.4252 199.839 90.1996 199.526C87.8325 199.295 86.1004 197.19 86.3307 194.822Z" fill="#352A5C"/>
</svg>
