<svg width="200" height="200" viewBox="0 0 200 200" fill="none" xmlns="http://www.w3.org/2000/svg">
<path style="mix-blend-mode:screen" d="M190.994 103.472C190.994 53.5175 150.477 13.0323 100.497 13.0456C50.5169 13.0588 9.99999 53.5656 10 103.52C10 153.474 50.5169 193.959 100.497 193.946C150.477 193.933 190.994 153.426 190.994 103.472Z" fill="url(#paint0_radial_362_142)"/>
<path style="mix-blend-mode:screen" d="M180.581 103.474C180.581 59.2613 144.72 23.4265 100.483 23.4348C56.246 23.443 20.3848 59.2912 20.3848 103.504C20.3848 147.717 56.246 183.551 100.483 183.543C144.72 183.535 180.581 147.687 180.581 103.474Z" fill="url(#paint1_radial_362_142)"/>
<path style="mix-blend-mode:screen" d="M171.835 103.466C171.835 64.0837 139.893 32.1663 100.49 32.1767C61.087 32.1871 29.1445 64.1214 29.1445 103.504C29.1445 142.887 61.087 174.804 100.49 174.794C139.893 174.783 171.835 142.849 171.835 103.466Z" fill="url(#paint2_radial_362_142)"/>
<path d="M169.794 103.486C169.809 114.683 167.1 125.715 161.902 135.634C155.803 139.99 150.141 144.927 144.995 150.375C135.278 160.349 135.05 163.452 134.875 163.644C125.398 169.046 114.778 172.137 103.881 172.664C92.9835 173.191 82.1153 171.141 72.1601 166.68C62.2049 162.218 53.4438 155.472 46.5891 146.989C39.7344 138.506 34.9797 128.525 32.7115 117.86C30.8195 108.942 30.7062 99.7394 32.3782 90.7781C32.3972 90.638 32.4387 90.5019 32.501 90.375C32.88 89.6325 33.371 88.9526 33.9567 88.3592C34.3251 87.956 34.7109 87.5354 35.0441 87.1322C35.4369 86.7019 35.7356 86.1944 35.9211 85.6423L38.2888 81.5756L38.815 80.6817C40.7443 77.3337 43.1997 73.0743 44.6378 70.4275C47.0757 65.9226 50.6536 59.9103 53.4072 55.5808C54.214 54.2661 54.9331 53.0742 55.5294 52.0751C56.5116 50.4624 57.143 49.4808 57.143 49.4808C58.1602 48.657 59.2126 47.8507 60.2824 47.0969L60.9664 46.6061C69.4864 40.6669 79.2428 36.7355 89.502 35.1074C91.2559 34.8094 93.0098 34.5991 94.8864 34.4589C96.7631 34.3186 98.6221 34.231 100.534 34.231C108.614 34.2248 116.633 35.6308 124.229 38.3852C137.59 43.2574 149.129 52.1154 157.286 63.7597C165.442 75.4041 169.821 89.2723 169.83 103.486H169.794Z" fill="url(#paint3_radial_362_142)"/>
<path d="M133.349 72.6186C129.841 74.7571 124.106 70.8657 121.072 66.098C118.038 61.3302 117.459 55.5808 125.176 55.1952C127.646 55.1271 130.069 55.8752 132.07 57.3235C134.071 58.7718 135.538 60.8394 136.243 63.2057V63.2057C137.26 66.8342 136.559 70.6554 133.349 72.6186Z" fill="url(#paint4_linear_362_142)"/>
<path d="M128.77 48.0962C125.263 50.3223 131.471 54.2663 132.278 52.0927C133.085 49.9192 130.77 46.8342 128.77 48.0962Z" fill="url(#paint5_linear_362_142)"/>
<path style="mix-blend-mode:multiply" opacity="0.3" d="M157.693 113.671C156.833 116.826 157.114 123.855 159.692 123.557C162.27 123.259 164.55 118.456 163.2 115.213C161.849 111.971 158.377 111.112 157.693 113.671Z" fill="url(#paint6_linear_362_142)"/>
<path d="M51.6363 93.5306C50.5834 93.6819 49.5099 93.592 48.4969 93.2676C43.5509 91.5148 53.7585 79.5428 58.3011 84.5034C58.4926 84.695 58.6631 84.9065 58.8097 85.1344C61.0722 88.5349 56.2666 92.9346 51.6363 93.5306Z" fill="url(#paint7_linear_362_142)"/>
<path d="M116.495 106.905C113.338 108.132 110.62 104.521 108.638 100.91C108.199 100.086 107.778 99.1571 107.41 98.4734C104.025 91.3568 113.742 84.0299 118.565 86.7293C119.274 87.2824 119.851 87.9861 120.254 88.7894C120.658 89.5928 120.877 90.4757 120.897 91.3744V91.3744C121.651 97.1413 119.319 105.818 116.495 106.905Z" fill="url(#paint8_linear_362_142)"/>
<path d="M41.7966 91.6721C40.0427 91.9876 40.3058 93.4249 40.7618 95.8964C41.2178 98.368 44.059 98.0349 43.8661 96.5801C43.6732 95.1252 43.2172 91.3741 41.7966 91.6721Z" fill="url(#paint9_linear_362_142)"/>
<path d="M61.0898 67.3251C60.3532 68.6398 59.1781 69.6915 60.5286 70.34C61.879 70.9886 64.6502 71.1288 64.9834 70.34C65.3167 69.5513 64.6326 66.5539 63.6855 66.4662C63.2155 66.3729 62.7293 66.4029 62.2743 66.5534C61.8193 66.704 61.4112 66.9699 61.0898 67.3251V67.3251Z" fill="url(#paint10_linear_362_142)"/>
<path d="M61.8076 49.9544C61.8076 52.3208 63.0177 52.4785 64.5085 51.5495C65.9993 50.6205 68.9809 47.3076 68.4197 46.8694C67.8584 46.4312 61.7199 45.397 61.8076 49.9544Z" fill="url(#paint11_linear_362_142)"/>
<path style="mix-blend-mode:multiply" opacity="0.3" d="M129.525 163.031C125.579 164.416 123.79 163.276 123.545 161.664C123.481 160.995 123.592 160.32 123.865 159.706C124.139 159.092 124.566 158.559 125.106 158.158C128.21 155.651 127.386 151.287 132.963 152.198C133.622 152.29 134.252 152.53 134.805 152.899C137.839 155.108 135.348 160.98 129.525 163.031Z" fill="url(#paint12_linear_362_142)"/>
<path style="mix-blend-mode:multiply" opacity="0.3" d="M142.523 146.239C140.927 150.796 136.963 150.656 135.507 148.237C134.051 145.818 136.77 143.399 138.804 139.192C140.243 136.23 141.698 137.317 142.453 139.648C143.134 141.789 143.158 144.084 142.523 146.239V146.239Z" fill="url(#paint13_linear_362_142)"/>
<path style="mix-blend-mode:multiply" opacity="0.3" d="M115.967 164.363C116.248 166.519 119.475 166.116 120.352 163.645C121.229 161.173 115.687 162.225 115.967 164.363Z" fill="url(#paint14_linear_362_142)"/>
<path style="mix-blend-mode:multiply" opacity="0.3" d="M56.9498 152.496C56.0729 157.913 63.2111 161.734 62.3693 157.562C61.5274 153.39 57.6514 148.184 56.9498 152.496Z" fill="url(#paint15_linear_362_142)"/>
<path style="mix-blend-mode:multiply" opacity="0.6" d="M120.897 91.3743C120.722 91.0763 120.547 90.7257 120.354 90.3401C117.214 83.8194 108.603 91.7599 108.497 99.8756L108.638 100.875C108.199 100.051 107.778 99.1219 107.41 98.4383C104.025 91.3217 113.742 83.9947 118.565 86.6941C119.278 87.251 119.858 87.9603 120.262 88.7701C120.665 89.5799 120.882 90.4697 120.897 91.3743V91.3743Z" fill="url(#paint16_linear_362_142)"/>
<path style="mix-blend-mode:multiply" opacity="0.6" d="M136.103 63.2057C130.193 58.5256 117.319 53.828 120.932 66.098C117.722 61.225 117.319 55.5808 125.036 55.1952C127.506 55.1271 129.929 55.8752 131.93 57.3235C133.931 58.7718 135.398 60.8394 136.103 63.2057V63.2057Z" fill="url(#paint17_linear_362_142)"/>
<path style="mix-blend-mode:multiply" opacity="0.6" d="M129.526 163.031C125.579 164.416 123.79 163.276 123.545 161.664C125.93 163.417 135.577 157.79 134.805 152.899C137.839 155.108 135.349 160.98 129.526 163.031Z" fill="url(#paint18_linear_362_142)"/>
<path style="mix-blend-mode:multiply" opacity="0.6" d="M142.521 146.239C140.925 150.796 136.962 150.656 135.506 148.237C139.382 148.956 142.679 142.26 142.521 139.648C143.179 141.796 143.179 144.091 142.521 146.239V146.239Z" fill="url(#paint19_linear_362_142)"/>
<path style="mix-blend-mode:multiply" opacity="0.6" d="M58.3012 84.4855C50.742 82.2769 47.6377 89.5688 51.6365 93.5478C50.5836 93.6991 49.51 93.6092 48.497 93.2848C43.5511 91.5495 53.6885 79.5424 58.3012 84.4855Z" fill="url(#paint20_linear_362_142)"/>
<path d="M47.9519 98.5611C39.9718 108.342 44.4442 129.166 54.5816 142.382C64.719 155.599 88.4665 165.292 107.97 160.156C127.473 155.021 134.962 144.644 134.541 127.343C134.541 127.343 148.467 125.765 152.693 118.176C158.727 107.325 163.041 95.6864 152.693 77.6845C148.993 71.234 144.906 67.1674 136.751 75.6512C128.595 84.135 121.615 95.8967 121.895 106.607C122.106 114.302 127.631 121.716 127.631 121.716C120.146 114.982 111.865 109.189 102.971 104.468C90.3957 98.3858 55.4585 89.3761 47.9519 98.5611Z" fill="url(#paint21_radial_362_142)"/>
<path d="M127.595 138.105C127.275 140.952 126.278 143.682 124.689 146.066C123.099 148.45 120.963 150.42 118.458 151.813C106.672 159.034 78.1185 152.303 63.8068 145.029C59.0107 142.482 54.9287 138.776 51.9331 134.249C51.5297 133.671 51.1438 133.075 50.7755 132.496C45.5139 123.732 43.9003 113.057 48.1622 106.098C60.5797 85.8526 117.861 121.383 124.772 127.571C124.975 127.734 125.163 127.916 125.333 128.114C127.261 131.066 128.064 134.611 127.595 138.105V138.105Z" fill="url(#paint22_radial_362_142)"/>
<path style="mix-blend-mode:multiply" opacity="0.6" d="M127.595 138.105C123.544 133.548 109.215 118.824 91.0621 116.265C71.6642 113.513 50.4598 114.354 51.9331 134.249C51.5297 133.671 51.1438 133.075 50.7755 132.496C45.5139 123.732 43.9003 113.057 48.1622 106.098C60.5797 85.8526 117.861 121.383 124.772 127.571C124.975 127.734 125.163 127.916 125.333 128.114C127.261 131.066 128.064 134.611 127.595 138.105V138.105Z" fill="url(#paint23_linear_362_142)"/>
<path d="M153.097 105.257C152.939 106.519 152.746 107.711 152.554 108.763C152.234 110.714 151.8 112.646 151.256 114.547C150.875 115.778 150.235 116.914 149.379 117.878C147.888 119.527 145.993 120.76 143.88 121.454C141.767 122.149 139.51 122.282 137.33 121.839C134.717 121.015 130.595 116.475 128.034 111.147C126.68 108.487 125.903 105.573 125.754 102.593C125.699 101.196 125.92 99.8024 126.403 98.491C129.613 89.9195 137.33 75.7038 140.75 74.9326C144.17 74.1613 149.519 72.1806 152.589 80.717C153.484 83.5959 153.957 86.5894 153.992 89.604C154.131 94.8375 153.832 100.073 153.097 105.257V105.257Z" fill="url(#paint24_radial_362_142)"/>
<path style="mix-blend-mode:multiply" opacity="0.6" d="M153.992 89.6217C152.431 83.6619 131.595 87.2728 128.087 111.199C126.733 108.54 125.956 105.625 125.807 102.645C125.752 101.249 125.973 99.8552 126.456 98.5437C129.666 89.9722 137.383 75.7566 140.803 74.9853C144.223 74.214 149.572 72.2333 152.641 80.7697C153.515 83.64 153.97 86.6214 153.992 89.6217V89.6217Z" fill="url(#paint25_linear_362_142)"/>
<path d="M120.704 51.3391C115.547 56.475 88.6779 69.937 72.5949 68.5522C68.8065 68.2192 64.8077 62.8554 65.176 61.05C66.9299 52.2857 84.4686 39.7352 94.8516 34.4591C96.1319 33.8106 97.2895 33.2847 98.3593 32.864C99.0647 32.5689 99.7918 32.3286 100.534 32.1454C105.515 30.8833 120.862 34.2313 123.773 37.5967C123.954 37.8418 124.107 38.1064 124.229 38.3855C124.897 40.6593 124.922 43.0738 124.3 45.3607C123.677 47.6475 122.432 49.717 120.704 51.3391V51.3391Z" fill="url(#paint26_radial_362_142)"/>
<path d="M121.335 47.2198C115.108 55.984 88.9581 65.7475 80.5395 65.5546C75.0148 65.4144 67.6485 63.4162 69.5251 59.8403C73.9098 51.4792 88.6775 39.5598 99.8321 36.4222C106.514 34.5466 120.247 39.402 121.335 40.5589C123.246 42.5747 123.001 44.8709 121.335 47.2198Z" fill="url(#paint27_radial_362_142)"/>
<path style="mix-blend-mode:multiply" opacity="0.6" d="M121.335 47.2198C121.23 46.9744 121.142 46.729 121.037 46.4485C117.529 35.9314 78.4175 49.3057 69.5254 59.8403C73.9101 51.4792 88.6777 39.5598 99.8324 36.4222C106.515 34.5466 120.247 39.402 121.335 40.5589C123.247 42.5747 123.001 44.8709 121.335 47.2198Z" fill="url(#paint28_linear_362_142)"/>
<path d="M52.2853 74.845C47.5854 79.6004 42.1708 83.5925 36.2374 86.6768C35.4131 87.08 34.957 87.2553 34.957 87.2553V87.1326L35.7814 85.7128C36.3777 84.7136 37.202 83.2938 38.2017 81.576L38.7279 80.6821C42.6741 73.9336 48.6724 63.6618 51.882 58.0176L53.2675 55.5636C53.6534 54.8625 53.9164 54.3717 54.0217 54.1263C54.3687 53.3866 54.8304 52.7063 55.3897 52.1105C55.8583 51.5747 56.4161 51.124 57.0384 50.7783C57.0384 50.7783 57.0383 50.8835 57.126 51.1114C57.8276 53.3024 61.0723 66.256 52.2853 74.845Z" fill="url(#paint29_radial_362_142)"/>
<path d="M58.81 65.6071C52.689 80.559 45.007 85.0113 34.9573 89.3408L32.4844 90.375L33.9401 88.3592L35.8518 85.7124C35.8518 85.7124 36.2552 85.5547 36.9217 85.2216C37.1715 85.0628 37.4358 84.9278 37.7109 84.8185C43.382 82.5644 48.2327 78.6395 51.6191 73.5651C60.3885 59.7351 55.8986 52.2504 55.8986 52.2504C55.8986 52.2504 54.4604 54.0032 51.8998 58.0874C50.0582 60.9621 47.6203 65.0988 44.5861 70.4801C44.8141 70.0243 48.4797 62.5747 52.8995 53.9156C54.3716 50.832 56.9701 48.4295 60.1605 47.2021H60.2833C60.2833 47.2021 60.4061 47.7631 60.5288 48.7271C61.322 54.4101 60.7324 60.2004 58.81 65.6071Z" fill="url(#paint30_radial_362_142)"/>
<path style="mix-blend-mode:screen" opacity="0.5" d="M76.1026 93.6881C94.3955 95.9844 106.164 102.452 120.353 115.686C120.353 115.686 92.8521 96.6504 58.3008 94.6522C58.3008 94.7223 64.6147 92.2332 76.1026 93.6881Z" fill="url(#paint31_radial_362_142)"/>
<path d="M140.68 72.4082C136.274 76.2903 132.602 80.9335 129.842 86.1155C127.007 91.2814 124.489 96.614 122.3 102.084C121.742 94.8798 123.66 87.7008 127.737 81.7334C131.134 77.5184 135.605 74.2969 140.68 72.4082V72.4082Z" fill="url(#paint32_linear_362_142)"/>
<path style="mix-blend-mode:screen" opacity="0.5" d="M55.5287 72.4082C55.5287 72.4082 53.2837 86.1506 36.9727 88.4468C36.9727 88.4468 50.6704 82.6975 55.5287 72.4082Z" fill="url(#paint33_radial_362_142)"/>
<path style="mix-blend-mode:multiply" d="M70.8926 68.0965C75.6807 68.6399 89.887 69.9721 118.651 53.022C115.841 58.3945 111.635 62.9113 106.475 66.0975C101.314 69.2838 95.3905 71.0219 89.3258 71.129C83.0397 71.3706 76.7696 70.3391 70.8926 68.0965V68.0965Z" fill="url(#paint34_linear_362_142)"/>
<path style="mix-blend-mode:multiply" d="M44.2706 115.213C47.6731 138.526 58.6348 145.327 62.3706 150.06C62.3706 150.06 51.707 146.099 47.5503 137.247C43.3936 128.395 44.2706 115.213 44.2706 115.213Z" fill="url(#paint35_linear_362_142)"/>
<path style="mix-blend-mode:multiply" d="M71.5254 155.511C71.5254 155.511 96.4129 168.745 118.652 156.3C121.511 154.705 128 150.077 129.807 146.887C129.807 146.887 128.684 156.09 112.829 160.665C96.9741 165.24 79.9615 161.489 71.5254 155.511Z" fill="url(#paint36_linear_362_142)"/>
<path style="mix-blend-mode:multiply" d="M134.541 127.413C134.541 127.413 151.413 125.906 155.342 113.075C155.342 113.075 154.64 133.986 134.541 127.413Z" fill="url(#paint37_linear_362_142)"/>
<path d="M20.7325 146.834C15.9268 153.338 23.7316 163.855 28.4495 163.644C33.1675 163.434 42.1648 161.734 40.7267 157.667C39.2885 153.6 30.8699 147.571 27.8532 146.834C24.8366 146.098 22.8546 143.96 20.7325 146.834Z" fill="url(#paint38_linear_362_142)"/>
<path d="M44.2697 167.361C44.2697 171.497 51.7763 168.588 50.724 166.449C49.6716 164.311 44.2346 165.082 44.2697 167.361Z" fill="url(#paint39_linear_362_142)"/>
<path d="M94.0454 28.2713C97.2374 27.6578 98.2898 28.2713 98.6054 26.6762C98.9211 25.0811 99.3421 23.3458 97.5181 23.1705C95.694 22.9952 93.414 22.7498 92.8001 24.3449C92.1863 25.94 92.8703 28.5342 94.0454 28.2713Z" fill="url(#paint40_linear_362_142)"/>
<path d="M108.603 15.8612C108.708 18.8586 108.603 21.2776 111.181 21.8911C113.759 22.5046 117.828 23.7841 118.898 20.1382C119.968 16.4923 119.547 13.4949 116.969 13.1268C114.39 12.7587 108.515 13.0567 108.603 15.8612Z" fill="#FFFF45"/>
<path d="M174.197 100.997C174.197 105.607 174.197 111.515 177.407 111.164C180.617 110.813 188.123 109.078 186.843 103.486C185.563 97.8948 184.054 94.7222 181.476 94.7222C178.898 94.7222 174.162 97.8948 174.197 100.997Z" fill="url(#paint41_linear_362_142)"/>
<path style="mix-blend-mode:multiply" opacity="0.3" d="M80.3635 72.5136C80.4954 70.6477 80.8789 68.8081 81.5035 67.0447C81.5035 67.0447 75.4 65.993 73.5059 64.731C76.4607 65.7064 79.6078 65.9529 82.6786 65.4496C83.3276 66.8344 80.9774 71.3568 80.3635 72.5136Z" fill="url(#paint42_linear_362_142)"/>
<path style="mix-blend-mode:multiply" opacity="0.3" d="M87.1684 97.1412C85.4146 99.4024 88.3786 105.905 88.9223 106.992C87.6771 106.484 86.7125 106.133 86.7125 106.133C85.5775 104.863 84.8504 103.282 84.6253 101.593C84.4551 100.728 84.4137 99.8418 84.5025 98.9642C84.713 97.7897 87.2737 95.6513 87.9226 95.1079C88.7789 94.64 89.6928 94.2864 90.6411 94.0562C89.3429 94.9146 88.1736 95.9533 87.1684 97.1412V97.1412Z" fill="url(#paint43_linear_362_142)"/>
<path style="mix-blend-mode:multiply" opacity="0.3" d="M93.2738 74.4943C92.5723 72.6012 92.6425 70.6556 91.6778 69.0254C90.7132 67.3952 87.6264 67.5705 86.1005 68.6573C83.8555 70.2699 81.1546 76.1595 85.9953 78.7187C87.3795 79.5487 88.5744 80.6593 89.503 81.979C87.1002 80.2261 84.2414 78.4733 83.189 76.7204C81.5229 73.9509 83.6801 66.9746 84.3115 66.3435C84.9429 65.7125 88.7138 66.4312 89.8187 66.1332C90.2922 65.9929 90.9236 66.5714 91.5726 67.5705C92.4953 69.2247 93.0066 71.0763 93.0634 72.9693C93.0706 73.4844 93.1413 73.9965 93.2738 74.4943Z" fill="url(#paint44_linear_362_142)"/>
<path style="mix-blend-mode:multiply" opacity="0.3" d="M104.742 73.1447C103.427 72.5487 100.638 74.4243 99.6036 76.6504C98.5688 78.8765 94.57 77.334 93.5527 75.2481C94.3069 76.5102 95.8152 76.2472 97.0605 76.0194C98.8144 75.6863 99.551 71.4094 101.585 70.2349C102.901 69.4286 104.094 70.8835 104.742 73.1447Z" fill="url(#paint45_linear_362_142)"/>
<path style="mix-blend-mode:multiply" opacity="0.3" d="M106.707 69.937C106.242 71.4746 106.092 73.0905 106.269 74.6872C106.163 74.1088 106.058 73.5829 105.953 73.0921C105.647 71.5184 105.052 70.0148 104.199 68.6574C103.129 67.0448 102.901 66.6241 106.128 67.0448C106.521 67.1155 106.889 67.2866 107.197 67.5415C107.504 67.7965 107.74 68.1265 107.882 68.4996C107.396 68.8931 106.996 69.3824 106.707 69.937V69.937Z" fill="url(#paint46_linear_362_142)"/>
<path style="mix-blend-mode:multiply" opacity="0.3" d="M116.881 90.1123C115.9 90.6422 114.768 90.8215 113.671 90.6206C111.128 89.8669 108.409 85.3621 107.234 80.7871C109.023 87.5882 116.881 90.1123 116.881 90.1123Z" fill="url(#paint47_linear_362_142)"/>
<path style="mix-blend-mode:multiply" opacity="0.3" d="M130.912 86.0108C130.544 85.9056 130 86.1685 129.158 87.2553C127.404 89.6918 120.389 97.1765 114.303 96.6331C114.631 96.5885 114.95 96.4939 115.25 96.3526C121.704 93.5305 126.878 86.2737 128.509 85.0467C129.474 84.3631 130.333 85.1694 130.912 86.0108Z" fill="url(#paint48_linear_362_142)"/>
<path style="mix-blend-mode:multiply" opacity="0.3" d="M153.993 74.6521C151.464 74.8548 148.92 74.5325 146.521 73.7055C149.538 72.6187 154.046 72.5486 154.046 59.5249C156.396 66.2033 156.712 73.9509 153.993 74.6521Z" fill="url(#paint49_linear_362_142)"/>
<path style="mix-blend-mode:multiply" opacity="0.3" d="M71.3845 94.6872C70.5931 95.6633 69.9491 96.7499 69.4728 97.9125C69.4971 96.912 69.2022 95.9298 68.6309 95.1079C67.8242 94.2315 70.3848 90.7258 67.7891 87.1675C71.9633 91.3743 72.4018 93.6706 71.3845 94.6872Z" fill="url(#paint50_linear_362_142)"/>
<path style="mix-blend-mode:multiply" opacity="0.3" d="M64.2102 92.3911C63 86.6593 52.5645 79.157 50.53 77.5444C48.4955 75.9318 48.2675 82.2596 37.7793 84.7487C41.2546 83.5204 44.3911 81.4906 46.9345 78.824C46.9345 78.824 50.1617 75.5637 50.4423 75.1956C51.7051 73.618 51.1438 76.7907 52.4242 77.3867C53.7045 77.9826 62.2283 85.9055 63.5087 88.6926C64.0173 89.8572 64.2571 91.1213 64.2102 92.3911V92.3911Z" fill="url(#paint51_linear_362_142)"/>
<path style="mix-blend-mode:multiply" opacity="0.3" d="M69.7878 156.966C64.0351 151.164 58.7735 139.876 56.3181 144.275C53.8626 148.675 48.8991 149.727 46.2508 146.028C43.6024 142.33 40.2525 131.111 35.1312 126.431C35.1312 126.431 33.9561 123.592 37.7445 127.501C37.9668 127.718 38.172 127.953 38.3584 128.202C38.9547 129.376 39.779 130.849 40.919 132.724L41.4802 133.653C43.62 138.228 45.5317 143.364 47.6364 144.398C52.898 146.975 57.7562 141.892 57.7562 141.892C57.7562 141.892 61.264 144.188 63.8948 145.888C65.2688 147.066 66.4521 148.45 67.4025 149.99C67.9287 151.147 69.7352 156.791 69.7878 156.966Z" fill="url(#paint52_linear_362_142)"/>
<path style="mix-blend-mode:multiply" opacity="0.3" d="M82.8902 157.878C83.9249 159.63 83.5391 164.223 82.7323 167.659C82.7452 164.011 81.9107 160.411 80.2944 157.141C78.2775 153.776 76.2254 157.58 75.1731 161.103C74.1208 164.626 77.5058 168.868 77.5058 168.868C77.042 168.822 76.5873 168.71 76.1553 168.535C75.5606 167.734 75.0159 166.897 74.5242 166.028C72.7703 162.715 74.6469 156.23 75.822 154.512C77.4356 152.146 81.3818 155.301 82.8902 157.878Z" fill="url(#paint53_linear_362_142)"/>
<path style="mix-blend-mode:multiply" opacity="0.3" d="M94.7639 165.59C94.8692 166.028 94.9569 166.449 95.0621 166.87C92.5716 161.611 90.4845 161.296 87.9238 163.995C89.1866 160.893 90.6949 157.983 91.5543 158.737C93.0101 160.121 93.9221 162.155 94.7639 165.59Z" fill="url(#paint54_linear_362_142)"/>
<path style="mix-blend-mode:multiply" opacity="0.3" d="M105.497 165.362C106.383 167.32 107.566 169.13 109.005 170.726C105.41 168.675 100.727 161.523 97.2718 163.995C97.2718 163.224 97.0614 162.067 97.1315 161.26C97.5174 157.299 97.9032 154.6 97.9032 154.6C101.4 154.942 104.919 155.006 108.426 154.792C107.216 157.983 104.077 160.367 105.497 165.362Z" fill="url(#paint55_linear_362_142)"/>
<path style="mix-blend-mode:multiply" opacity="0.3" d="M122.265 149.814C121.524 150.727 120.635 151.509 119.634 152.128C114.583 155.634 111.216 161.085 110.637 165.187C110.427 162.207 110.391 158.666 110.427 157.229C110.427 154.915 109.637 155.283 116.425 153.513C118.69 152.875 120.72 151.589 122.265 149.814V149.814Z" fill="url(#paint56_linear_362_142)"/>
<path style="mix-blend-mode:multiply" opacity="0.3" d="M146.398 125.818C146.608 128.062 142.118 135.196 142.118 142.032C142.118 148.517 142.82 150.551 143.381 151.147C142.241 150.726 140.031 149.183 139.295 143.644C138.312 136.055 144.977 124.363 144.977 124.363C144.977 124.363 139.715 127.238 133.91 120.98C135.068 122.099 136.614 122.727 138.225 122.733C141.44 122.856 144.621 122.039 147.38 120.384C147.38 120.384 150.537 116.878 150.642 118.088C150.888 120.507 146.187 123.557 146.398 125.818Z" fill="url(#paint57_linear_362_142)"/>
<path style="mix-blend-mode:screen" d="M116.425 153.513C123.125 151.76 126.018 143.82 126.089 143.592C125.983 143.732 122.686 148.43 119.652 148.763C116.618 149.096 113.759 146.204 112.461 134.425C112.011 130.768 111.853 127.081 111.987 123.399C111.983 122.014 112.19 120.637 112.601 119.315L106.428 115.809C107.448 117.892 108.242 120.078 108.795 122.33C109.682 125.5 109.682 128.853 108.795 132.023C105.498 141.997 101.534 137.808 100.359 134.056C98.8177 128.85 97.9686 123.463 97.8337 118.035C97.7199 115.793 97.7199 113.547 97.8337 111.304C95.6048 109.977 93.256 108.862 90.8182 107.974C93.0982 109.411 95.4835 112.707 96.6937 117.79C97.6454 122.16 97.8294 126.661 97.2374 131.094C96.6153 136.253 95.4392 141.331 93.7296 146.239C93.7296 146.239 90.52 151.497 87.3104 151.813C84.1008 152.128 78.6638 152.006 77.4186 147.168C73.4022 131.76 74.7001 114.389 75.9628 106.642C76.1349 105.24 76.4704 103.864 76.9626 102.54C75.8225 102.277 72.876 101.331 72.876 101.331C72.2448 101.965 71.4021 102.346 70.5083 102.4C70.2778 102.444 70.0396 102.427 69.8179 102.35C69.5963 102.272 69.3989 102.138 69.2458 101.96C69.0928 101.782 68.9894 101.567 68.9462 101.337C68.9031 101.106 68.9216 100.868 69 100.647C69.2185 99.8065 69.3073 98.9375 69.2631 98.0703C69.3076 97.0046 69.0062 95.9532 68.4036 95.0729C67.3338 93.8985 72.1394 88.0614 63.0192 83.6618C59.228 81.9504 55.8442 79.4528 53.0923 76.3348C52.3381 75.6863 52.2154 75.0552 51.4437 73.4601C50.672 71.865 44.5509 76.5802 43.3057 76.9659C40.3767 77.965 38.7281 76.773 37.5179 79.7704C36.8086 81.4602 36.2909 83.224 35.9745 85.029C40.0547 84.3381 43.8588 82.5161 46.9537 79.7704C46.9537 79.7704 50.4615 76.6153 50.7772 76.2647C52.04 74.6871 50.935 76.6854 52.2154 77.2814C53.4957 77.8773 62.0195 85.8003 63.2999 88.5873C64.5802 91.3743 63.7033 95.1079 63.5805 96.072C63.3956 97.2251 62.9649 98.325 62.3177 99.2972C62.194 99.4848 62.0466 99.6557 61.8792 99.8056C61.0198 100.524 62.1949 102.926 63.5103 104.643C64.8257 106.361 71.3677 105.082 71.3677 105.082C71.9457 106.53 72.3975 108.025 72.7182 109.551C73.3914 112.458 73.6746 115.44 73.56 118.421C73.2268 125.923 72.3674 141.208 68.4036 143.539C65.8719 143.547 63.3755 142.946 61.1251 141.787C51.4963 134.775 50.6018 132.356 50.6018 132.356C50.6018 136.475 44.6211 138.929 44.0949 137.965C43.5688 137.001 38.6404 123.907 36.8865 122.225C35.9059 121.232 34.6096 120.612 33.2209 120.472C32.808 120.737 32.4774 121.112 32.2667 121.555C32.0559 121.998 31.9733 122.491 32.0282 122.978C32.379 124.521 35.1326 126.431 35.1326 126.431C35.1326 126.431 33.8874 123.522 37.7283 127.501C41.5693 131.48 44.3931 142.803 47.6202 144.398C52.8818 146.975 57.7401 141.892 57.7401 141.892C57.7401 141.892 61.2478 144.188 63.8786 145.888C65.2527 147.066 66.436 148.45 67.3864 149.99C68.0879 151.252 69.9295 157.001 69.9295 157.001C70.2438 159.509 70.4311 162.03 70.4908 164.556C70.4908 167.659 73.9985 169.815 77.7869 171.83C81.5753 173.846 87.1 173.443 89.3449 173.583C91.5899 173.724 91.7126 172.076 91.7126 172.076C91.7126 172.076 85.8196 171.76 85.9249 170.323C86.0301 168.886 89.9938 157.352 91.6074 158.754C93.221 160.156 94.0628 162.172 94.817 165.608C95.242 168.107 96.0651 170.521 97.2549 172.759C97.9915 173.724 101.026 174.39 104.674 173.636C108.322 172.882 107.778 172.409 107.778 172.409L105.849 172.567C103.434 172.444 101.083 171.747 98.9912 170.533C98.7852 170.371 98.6074 170.175 98.4651 169.955C97.8829 168.882 97.6155 167.667 97.6934 166.449C97.166 163.639 97.1009 160.762 97.5004 157.93C98.4651 152.374 99.798 136.686 101.552 141.559C104.797 150.621 108.427 141.839 108.427 141.839C109.032 144.565 109.495 147.321 109.813 150.095C109.309 153.241 108.111 156.235 106.305 158.859C105.253 160.867 105.021 163.204 105.656 165.38C106.34 167.676 110.286 172.111 110.286 172.111C112.047 172.825 113.968 173.049 115.846 172.759C118.617 172.216 118.792 170.376 118.792 170.376C118.792 170.376 112.163 171.497 111.409 169.464C110.655 167.431 110.532 159.56 110.584 157.194C110.637 154.828 109.637 155.283 116.425 153.513ZM81.5051 171.252C80.102 173.618 76.3487 169.324 74.4896 165.993C72.6305 162.663 74.6124 156.195 75.7874 154.477C77.401 152.128 81.3472 155.284 82.803 157.86C84.2587 160.437 82.8907 168.903 81.5051 171.252V171.252Z" fill="url(#paint58_radial_362_142)"/>
<path style="mix-blend-mode:screen" d="M157.22 139.139L153.396 142.347C153.396 142.347 150.064 146.186 147.977 140.594C145.732 134.67 149.871 127.711 149.871 127.343C150.932 124.824 152.337 122.465 154.045 120.331C156.395 117.334 155.22 110.48 154.501 108.71C153.782 106.939 152.572 108.605 152.572 108.605C153.024 106.401 153.329 104.17 153.484 101.926C152.379 103.854 150.573 109.499 149.17 112.917C144.574 124.082 141.154 112.917 140.979 111.549C138.138 89.779 136.103 80.3836 142.084 75.1075C142.084 75.1075 142.084 74.4765 144.031 74.1084L145.469 74.0208C148.328 72.2679 154.045 74.0208 154.045 59.3669C154.045 55.458 154.045 53.6876 147.942 52.8638C149.081 53.7647 150.101 54.8073 150.976 55.9663C152.975 58.4028 152.116 66.6763 148.538 67.6754C144.96 68.6746 139.471 75.5633 139.471 75.5633C139.471 75.5633 137.717 81.7859 136.471 81.6808C135.226 81.5756 135.366 80.6816 135.366 80.6816L133.613 83.5037C132.41 83.2059 131.236 82.8011 130.105 82.2943C129.456 81.856 127.316 82.2943 124.843 84.3451C122.37 86.3959 116.793 91.3565 113.724 90.4626C110.654 89.5686 107.287 83.0655 106.708 77.6667C106.572 76.0799 106.326 74.5044 105.972 72.9515C105.676 71.3695 105.08 69.8584 104.218 68.4993C103.148 66.8866 102.92 66.466 106.147 66.8866C108.918 67.2547 108.655 73.6877 109.918 76.4748C110.014 76.6755 110.126 76.8688 110.251 77.0532V77.0532C110.361 77.204 110.491 77.3396 110.637 77.4564C111.689 78.2452 112.391 76.1943 112.759 73.3722C113.134 70.3602 113.322 67.3277 113.32 64.2924C113.32 59.8927 113.724 53.5825 118.792 50.5851C123.861 47.5877 113.005 46.1153 111.075 44.9409C109.146 43.7665 106.691 42.2941 104.551 41.032C102.229 39.5236 99.7819 38.2159 97.2373 37.1231C99.3945 34.4062 98.4123 32.6709 98.4123 32.6709C97.1701 32.5648 95.9224 32.5355 94.6766 32.5832C90.3376 32.5869 86.0622 33.6266 82.2065 35.6157C80.2422 36.72 78.5585 37.6139 78.5585 37.6139L89.5027 35.6858L93.0104 35.0372C97.8336 35.4579 91.9405 39.6297 91.9405 39.6297C89.8215 40.5143 87.8653 41.7466 86.1527 43.2757C86.5737 45.1688 95.7289 40.6464 95.992 43.4334C96.0005 43.4739 96.0005 43.5157 95.992 43.5561C95.992 46.834 94.2381 52.4606 93.8523 55.1951C93.2735 59.5597 92.5895 63.1355 88.7134 61.4177C85.9423 60.1907 86.2054 56.5974 83.4518 57.1232C80.6982 57.6491 77.9271 59.7701 74.6824 59.7701C73.7515 59.773 72.8488 60.0894 72.12 60.6683C71.3913 61.2471 70.879 62.0546 70.666 62.9603L71.1922 63.3809C75.6295 66.7815 82.8379 65.4493 82.8379 65.4493C83.5921 66.9392 80.3825 72.7938 80.3825 72.7938C80.3825 72.7938 81.0139 79.6825 85.1881 82.3644C89.3623 85.0462 92.2036 92.4433 88.8362 93.3898C85.4687 94.3364 81.4348 95.8614 80.5579 97.1234C80.3132 97.6171 80.2333 98.1761 80.3299 98.7185C80.5496 100.54 80.943 102.336 81.505 104.082V104.082C83.3992 106.414 84.3989 107.588 88.2925 107.22C88.8334 107.192 89.3756 107.233 89.906 107.343C88.31 106.641 86.8718 106.133 86.8718 106.133C85.7369 104.863 85.0097 103.281 84.7847 101.593C84.6145 100.728 84.5731 99.8416 84.662 98.9639C84.8724 97.7895 87.4331 95.651 88.082 95.1076C89.2941 94.5276 90.5489 94.0412 91.8353 93.6528C93.5892 92.8815 94.1855 88.9025 93.1156 85.6948C92.0458 82.4871 85.0829 79.5773 83.4167 76.7903C81.7505 74.0032 83.9078 67.0444 84.5567 66.4134C85.2056 65.7823 88.9589 66.501 90.0463 66.203C90.5199 66.0628 91.1513 66.6412 91.8002 67.6404C92.7229 69.2945 93.2343 71.1462 93.291 73.0392C93.4138 76.6501 95.5535 76.2644 97.3425 75.9489C99.1314 75.6334 99.833 71.3389 101.867 70.1645C103.2 69.3932 104.428 71.0234 105.077 73.4774C105.357 74.9264 105.428 76.408 105.288 77.8771C105.077 82.2592 108.795 99.1743 115.285 96.3522C121.774 93.5301 126.913 86.2732 128.544 85.0462C130.175 83.8192 131.596 87.2548 131.596 87.2548L130.526 89.3232C130.754 89.0077 133.227 85.4669 134.858 85.4669C136.489 85.4669 138.366 94.8973 137.857 105.187C137.348 115.476 130.842 115.844 130.842 115.844C131.14 116.335 131.403 116.826 131.648 117.316C132.981 119.911 133.928 122.47 138.243 122.75C141.454 122.864 144.629 122.042 147.381 120.384C147.381 120.384 150.538 116.878 150.643 118.088C150.836 120.507 146.17 123.557 146.381 125.818C146.591 128.079 142.119 135.195 142.119 142.032C142.119 153.162 144.206 151.199 144.101 151.322L145.714 150.778C148.061 150.004 150.465 149.418 152.905 149.026C153.149 148.993 153.379 148.897 153.572 148.745V148.745C155.554 147.273 157.571 140.717 157.22 139.139ZM102.113 41.8559C102.379 41.9589 102.61 42.1352 102.78 42.3642C104.073 44.5125 104.797 46.9551 104.883 49.461C104.969 51.9669 104.414 54.4532 103.271 56.685C102.166 58.5956 98.7105 58.8235 97.5529 58.1925C96.3954 57.5614 97.3249 48.8498 97.6757 44.2748C97.6892 44.0169 97.7424 43.7627 97.8336 43.5211C98.1971 42.748 98.844 42.144 99.6405 41.8341C100.437 41.5242 101.322 41.532 102.113 41.8559Z" fill="url(#paint59_radial_362_142)"/>
<path style="mix-blend-mode:multiply" opacity="0.3" d="M153.537 148.71C153.344 148.862 153.114 148.958 152.87 148.991C150.431 149.383 148.026 149.969 145.679 150.743L144.066 151.287C144.171 151.164 142.084 153.04 142.084 141.997C142.084 135.143 146.609 127.974 146.399 125.783C142.996 138.561 144.294 139.245 145.469 143.609C146.469 147.36 151.923 148.465 153.537 148.71Z" fill="url(#paint60_linear_362_142)"/>
<path style="mix-blend-mode:multiply" opacity="0.3" d="M73.1027 101.331C73.1027 101.331 75.9615 102.4 77.1015 102.663C76.6596 103.948 76.3539 105.276 76.1895 106.624C74.8491 107.317 73.7263 108.367 72.9449 109.657C72.6242 108.131 72.1724 106.635 71.5944 105.187C71.5944 105.187 65.0524 106.467 63.737 104.749C62.4216 103.031 61.2465 100.63 62.1059 99.9109C62.2733 99.761 62.4207 99.5902 62.5444 99.4026C64.2983 99.5253 64.1229 104.048 66.1749 103.031C66.5081 102.873 69.139 98.2632 69.4897 98.1055C69.534 98.9727 69.4452 99.8417 69.2267 100.682C69.1483 100.903 69.1298 101.141 69.1729 101.372C69.2161 101.602 69.3195 101.818 69.4725 101.995C69.6256 102.173 69.823 102.308 70.0446 102.385C70.2663 102.462 70.5045 102.479 70.735 102.435C71.6336 102.372 72.477 101.978 73.1027 101.331V101.331Z" fill="url(#paint61_linear_362_142)"/>
<path style="mix-blend-mode:multiply" opacity="0.3" d="M86.7139 106.133C86.7139 106.133 88.152 106.642 89.748 107.343C89.2176 107.234 88.6754 107.192 88.1345 107.22C84.2409 107.501 83.2412 106.414 81.347 104.082C80.7851 102.336 80.3915 100.54 80.1719 98.7188C81.4773 99.9298 82.9851 100.903 84.6267 101.593C84.8518 103.281 85.5789 104.863 86.7139 106.133V106.133Z" fill="url(#paint62_linear_362_142)"/>
<path style="mix-blend-mode:multiply" opacity="0.3" d="M98.0429 111.304C97.9291 113.546 97.9291 115.793 98.0429 118.035L96.938 117.79C95.7278 112.706 93.4302 109.411 91.0625 107.974C93.499 108.838 95.8385 109.954 98.0429 111.304Z" fill="url(#paint63_linear_362_142)"/>
<path style="mix-blend-mode:multiply" opacity="0.3" d="M112.601 119.315C112.19 120.637 111.983 122.015 111.987 123.399L108.795 122.33C108.227 120.05 107.41 117.84 106.357 115.739L112.601 119.315Z" fill="url(#paint64_linear_362_142)"/>
<path style="mix-blend-mode:multiply" opacity="0.3" d="M104.445 41.225C103.807 41.5151 103.215 41.8991 102.691 42.3644C102.521 42.1354 102.29 41.9592 102.025 41.8561C101.223 41.5379 100.329 41.5428 99.5311 41.8697C98.733 42.1966 98.0928 42.82 97.7452 43.6089C97.451 43.4696 97.1321 43.39 96.8069 43.375C96.4817 43.3599 96.1567 43.4097 95.851 43.5213C95.5879 40.7342 86.4326 45.2741 86.0117 43.3635C87.7242 41.8344 89.6805 40.6021 91.7995 39.7176L97.0611 37.4038C99.6269 38.4649 102.097 39.7433 104.445 41.225V41.225Z" fill="url(#paint65_linear_362_142)"/>
<path d="M80.3822 100.261C81.9607 103.101 83.89 98.5085 83.7496 97.1764C83.6093 95.8442 80.6277 95.4235 80.3997 97.1764C80.2687 98.2002 80.2628 99.2362 80.3822 100.261V100.261Z" fill="white"/>
<path d="M72.243 62.1016C74.1723 64.3452 75.7508 59.6826 75.7508 59.6826C75.7508 59.6826 70.3839 59.9105 72.243 62.1016Z" fill="white"/>
<path d="M77.6992 59.192C77.6992 59.192 83.1012 61.4356 84.82 57.2814C84.82 57.2814 83.1538 56.3173 77.6992 59.192Z" fill="white"/>
<path style="mix-blend-mode:screen" fill-rule="evenodd" clip-rule="evenodd" d="M60.8962 46.6412C69.2622 40.8042 86.6081 30.8655 98.324 32.8637C95.7282 35.3177 86.6256 36.2467 86.6256 36.2467C72.4367 41.5929 65.5791 45.2214 60.5805 48.6044C59.0722 49.621 57.9673 50.4799 57.1956 51.111C56.4239 51.742 55.9503 52.1802 55.9503 52.1802C48.1455 73.8981 37.1663 84.9586 36.9734 85.1514L36.2367 86.6764L34.9564 89.3408C30.028 100.226 32.6062 117.386 32.6939 117.86C30.8019 108.942 30.6887 99.7394 32.3607 90.7781C32.3796 90.638 32.4211 90.5019 32.4835 90.375L34.6582 85.1164C35.2546 84.1173 36.7103 80.9972 38.3063 78.6308C38.8851 77.7894 40.5688 77.6317 40.5688 77.6317C42.5156 74.2837 43.1821 73.0918 44.6203 70.445C44.8483 69.9892 48.5139 62.5396 52.9336 53.8805C54.4058 50.7969 57.0043 48.3944 60.1947 47.167L60.8962 46.6412Z" fill="url(#paint66_radial_362_142)"/>
<path style="mix-blend-mode:screen" fill-rule="evenodd" clip-rule="evenodd" d="M146.923 52.0751C140.592 47.0268 124.123 38.3853 124.123 38.3853C132.537 41.4339 140.279 46.0828 146.923 52.0751V52.0751Z" fill="url(#paint67_radial_362_142)"/>
<path fill-rule="evenodd" clip-rule="evenodd" d="M67.6484 55.844C67.6484 55.844 87.2919 36.843 97.78 33.3022H95.1141C95.1141 33.3022 77.3649 41.3303 67.6484 55.844Z" fill="url(#paint68_radial_362_142)"/>
<path style="mix-blend-mode:screen" d="M36.2368 151.304C41.6738 158.824 43.2523 166.922 39.8498 169.394C36.4473 171.865 29.3266 167.781 23.8194 160.244C18.3122 152.707 16.8039 144.626 20.2064 142.155C23.6089 139.683 30.8174 143.785 36.2368 151.304Z" fill="url(#paint69_radial_362_142)"/>
<path d="M54.1445 77.2461C54.1445 77.2461 56.6877 83.3636 60.897 82.5047L54.1445 77.2461Z" fill="white"/>
<path d="M66.1758 143.469C71.1042 143.469 76.5587 148.991 76.5587 148.991C76.5587 148.991 70.7709 147.939 68.9995 146.484C67.9366 145.6 66.9881 144.588 66.1758 143.469V143.469Z" fill="white"/>
<path style="mix-blend-mode:screen" d="M138.912 76.8627C138.912 46.2723 114.114 21.4882 83.5236 21.506C52.9332 21.5238 28.1348 46.3367 28.1348 76.9271C28.1348 107.517 52.9332 132.301 83.5236 132.284C114.114 132.266 138.912 107.453 138.912 76.8627Z" fill="url(#paint70_radial_362_142)"/>
<path style="mix-blend-mode:color-dodge" d="M110.97 133.566C113.043 133.566 114.723 131.886 114.723 129.815C114.723 127.743 113.043 126.063 110.97 126.063C108.897 126.063 107.217 127.743 107.217 129.815C107.217 131.886 108.897 133.566 110.97 133.566Z" fill="url(#paint71_radial_362_142)"/>
<path style="mix-blend-mode:color-dodge" d="M142.118 98.1931C142.118 102.084 140.365 105.204 138.032 105.204C135.699 105.204 133.963 102.049 133.963 98.1931C133.963 94.3368 135.717 91.1816 138.032 91.1816C140.347 91.1816 142.118 94.3193 142.118 98.1931Z" fill="url(#paint72_radial_362_142)"/>
<path style="mix-blend-mode:color-dodge" d="M101.411 125.537C101.411 129.411 99.9023 132.549 98.0432 132.549C96.1841 132.549 94.6582 129.394 94.6582 125.537C94.6582 121.681 96.1841 118.526 98.0432 118.526C99.9023 118.526 101.411 121.646 101.411 125.537Z" fill="url(#paint73_radial_362_142)"/>
<path style="mix-blend-mode:color-dodge" d="M60.3181 77.2463C60.3181 78.633 59.9067 79.9886 59.1358 81.1416C58.3649 82.2947 57.2692 83.1933 55.9873 83.724C54.7054 84.2547 53.2948 84.3935 51.934 84.123C50.5731 83.8525 49.323 83.1847 48.3419 82.2041C47.3608 81.2236 46.6926 79.9742 46.4219 78.6142C46.1512 77.2541 46.2901 75.8443 46.8211 74.5631C47.3521 73.282 48.2513 72.1869 49.405 71.4165C50.5587 70.6461 51.9151 70.2349 53.3026 70.2349C55.1632 70.2349 56.9477 70.9736 58.2633 72.2885C59.579 73.6034 60.3181 75.3867 60.3181 77.2463Z" fill="url(#paint74_radial_362_142)"/>
<path style="mix-blend-mode:color-dodge" d="M98.8852 50.27C98.8818 50.8482 98.707 51.4124 98.3831 51.8915C98.0592 52.3706 97.6005 52.743 97.065 52.9619C96.5295 53.1808 95.9412 53.2363 95.3742 53.1213C94.8072 53.0064 94.2869 52.7262 93.879 52.3162C93.4712 51.9061 93.194 51.3845 93.0824 50.8171C92.9708 50.2498 93.0298 49.6621 93.252 49.1282C93.4742 48.5944 93.8496 48.1382 94.3309 47.8173C94.8121 47.4965 95.3777 47.3252 95.9562 47.3252C96.3424 47.3252 96.7247 47.4015 97.0812 47.5497C97.4377 47.6979 97.7614 47.9151 98.0336 48.1888C98.3058 48.4624 98.5212 48.7872 98.6673 49.1444C98.8135 49.5016 98.8876 49.8841 98.8852 50.27V50.27Z" fill="url(#paint75_radial_362_142)"/>
<path style="mix-blend-mode:color-dodge" d="M75.751 125.537C75.751 130.656 74.8741 134.81 73.8042 134.81C72.7344 134.81 71.8574 130.656 71.8574 125.537C71.8574 120.419 72.7168 116.265 73.8042 116.265C74.8916 116.265 75.751 120.419 75.751 125.537Z" fill="url(#paint76_radial_362_142)"/>
<defs>
<radialGradient id="paint0_radial_362_142" cx="0" cy="0" r="1" gradientUnits="userSpaceOnUse" gradientTransform="translate(100.513 103.485) rotate(-13.5976) scale(90.5 90.4474)">
<stop offset="0.625" stop-color="#FF9F00"/>
<stop offset="1" stop-opacity="0"/>
</radialGradient>
<radialGradient id="paint1_radial_362_142" cx="0" cy="0" r="1" gradientUnits="userSpaceOnUse" gradientTransform="translate(100.482 103.492) rotate(-9.35534) scale(80.0995 80.053)">
<stop offset="0.609375" stop-color="#FF7300"/>
<stop offset="1" stop-opacity="0"/>
</radialGradient>
<radialGradient id="paint2_radial_362_142" cx="0" cy="0" r="1" gradientUnits="userSpaceOnUse" gradientTransform="translate(100.5 103.498) rotate(-13.5276) scale(71.3477 71.3062)">
<stop stop-color="#FF7900"/>
<stop offset="0.18" stop-color="#FC7800"/>
<stop offset="0.32" stop-color="#F37300"/>
<stop offset="0.43" stop-color="#E36C00"/>
<stop offset="0.54" stop-color="#CC6100"/>
<stop offset="0.64" stop-color="#AF5300"/>
<stop offset="0.74" stop-color="#8C4200"/>
<stop offset="0.83" stop-color="#622E00"/>
<stop offset="1" stop-color="#321800" stop-opacity="0"/>
</radialGradient>
<radialGradient id="paint3_radial_362_142" cx="0" cy="0" r="1" gradientUnits="userSpaceOnUse" gradientTransform="translate(73.0506 61.6106) scale(114.002 113.936)">
<stop offset="0.01" stop-color="#FFF81C"/>
<stop offset="0.1" stop-color="#FCED1B"/>
<stop offset="0.27" stop-color="#F4D018"/>
<stop offset="0.5" stop-color="#E6A014"/>
<stop offset="0.76" stop-color="#D45F0E"/>
<stop offset="0.91" stop-color="#C9380A"/>
<stop offset="0.93" stop-color="#CA3B10"/>
<stop offset="0.95" stop-color="#CC4221"/>
<stop offset="0.97" stop-color="#CF4F3C"/>
<stop offset="1" stop-color="#D45F5F"/>
</radialGradient>
<linearGradient id="paint4_linear_362_142" x1="121.5" y1="56.9336" x2="141.485" y2="81.9448" gradientUnits="userSpaceOnUse">
<stop stop-color="#F7920F"/>
<stop offset="0.32" stop-color="#F27F0F"/>
<stop offset="0.552083" stop-color="#E34D0E"/>
<stop offset="1" stop-color="#E44F0E"/>
</linearGradient>
<linearGradient id="paint5_linear_362_142" x1="111.407" y1="22.1715" x2="182.399" y2="128.871" gradientUnits="userSpaceOnUse">
<stop stop-color="#F7920F"/>
<stop offset="0.32" stop-color="#F27F0F"/>
<stop offset="0.97" stop-color="#E44F0E"/>
<stop offset="1" stop-color="#E34D0E"/>
</linearGradient>
<linearGradient id="paint6_linear_362_142" x1="100.99" y1="29.113" x2="171.982" y2="135.812" gradientUnits="userSpaceOnUse">
<stop stop-color="#F7920F"/>
<stop offset="0.32" stop-color="#F27F0F"/>
<stop offset="0.97" stop-color="#E44F0E"/>
<stop offset="1" stop-color="#E34D0E"/>
</linearGradient>
<linearGradient id="paint7_linear_362_142" x1="44.007" y1="75.108" x2="88.2041" y2="141.53" gradientUnits="userSpaceOnUse">
<stop stop-color="#F7920F"/>
<stop offset="0.32" stop-color="#F27F0F"/>
<stop offset="0.97" stop-color="#E44F0E"/>
<stop offset="1" stop-color="#E34D0E"/>
</linearGradient>
<linearGradient id="paint8_linear_362_142" x1="79.9619" y1="43.1007" x2="150.954" y2="149.818" gradientUnits="userSpaceOnUse">
<stop stop-color="#F7920F"/>
<stop offset="0.32" stop-color="#F27F0F"/>
<stop offset="0.97" stop-color="#E44F0E"/>
<stop offset="1" stop-color="#E34D0E"/>
</linearGradient>
<linearGradient id="paint9_linear_362_142" x1="29.8703" y1="76.4222" x2="100.863" y2="183.121" gradientUnits="userSpaceOnUse">
<stop stop-color="#F7920F"/>
<stop offset="0.32" stop-color="#F27F0F"/>
<stop offset="0.97" stop-color="#E44F0E"/>
<stop offset="1" stop-color="#E34D0E"/>
</linearGradient>
<linearGradient id="paint10_linear_362_142" x1="55.9334" y1="59.0867" x2="126.926" y2="165.786" gradientUnits="userSpaceOnUse">
<stop stop-color="#F7920F"/>
<stop offset="0.32" stop-color="#F27F0F"/>
<stop offset="0.97" stop-color="#E44F0E"/>
<stop offset="1" stop-color="#E34D0E"/>
</linearGradient>
<linearGradient id="paint11_linear_362_142" x1="66.9815" y1="51.7423" x2="137.956" y2="158.442" gradientUnits="userSpaceOnUse">
<stop stop-color="#F7920F"/>
<stop offset="0.32" stop-color="#F27F0F"/>
<stop offset="0.97" stop-color="#E44F0E"/>
<stop offset="1" stop-color="#E34D0E"/>
</linearGradient>
<linearGradient id="paint12_linear_362_142" x1="81.136" y1="85.1866" x2="131.519" y2="160.92" gradientUnits="userSpaceOnUse">
<stop stop-color="#F7920F"/>
<stop offset="0.32" stop-color="#F27F0F"/>
<stop offset="0.97" stop-color="#E44F0E"/>
<stop offset="1" stop-color="#E34D0E"/>
</linearGradient>
<linearGradient id="paint13_linear_362_142" x1="74.4372" y1="46.7817" x2="145.43" y2="153.481" gradientUnits="userSpaceOnUse">
<stop stop-color="#F7920F"/>
<stop offset="0.32" stop-color="#F27F0F"/>
<stop offset="0.97" stop-color="#E44F0E"/>
<stop offset="1" stop-color="#E34D0E"/>
</linearGradient>
<linearGradient id="paint14_linear_362_142" x1="50.7582" y1="62.5223" x2="121.75" y2="169.239" gradientUnits="userSpaceOnUse">
<stop stop-color="#F7920F"/>
<stop offset="0.32" stop-color="#F27F0F"/>
<stop offset="0.97" stop-color="#E44F0E"/>
<stop offset="1" stop-color="#E34D0E"/>
</linearGradient>
<linearGradient id="paint15_linear_362_142" x1="13.9799" y1="86.9919" x2="84.9547" y2="193.709" gradientUnits="userSpaceOnUse">
<stop stop-color="#F7920F"/>
<stop offset="0.32" stop-color="#F27F0F"/>
<stop offset="0.97" stop-color="#E44F0E"/>
<stop offset="1" stop-color="#E34D0E"/>
</linearGradient>
<linearGradient id="paint16_linear_362_142" x1="95.0978" y1="65.73" x2="130.69" y2="119.211" gradientUnits="userSpaceOnUse">
<stop stop-color="#E95A29"/>
<stop offset="1" stop-color="#F1E532"/>
</linearGradient>
<linearGradient id="paint17_linear_362_142" x1="99.5873" y1="20.8041" x2="153.283" y2="101.517" gradientUnits="userSpaceOnUse">
<stop stop-color="#E95A29"/>
<stop offset="1" stop-color="#F1E532"/>
</linearGradient>
<linearGradient id="paint18_linear_362_142" x1="119.511" y1="142.803" x2="141.504" y2="175.874" gradientUnits="userSpaceOnUse">
<stop stop-color="#E95A29"/>
<stop offset="1" stop-color="#F1E532"/>
</linearGradient>
<linearGradient id="paint19_linear_362_142" x1="127.052" y1="125.993" x2="152.936" y2="164.92" gradientUnits="userSpaceOnUse">
<stop stop-color="#E95A29"/>
<stop offset="1" stop-color="#F1E532"/>
</linearGradient>
<linearGradient id="paint20_linear_362_142" x1="47.1816" y1="88.4469" x2="58.3012" y2="88.4469" gradientUnits="userSpaceOnUse">
<stop stop-color="#E95A29"/>
<stop offset="1" stop-color="#F1E532"/>
</linearGradient>
<radialGradient id="paint21_radial_362_142" cx="0" cy="0" r="1" gradientUnits="userSpaceOnUse" gradientTransform="translate(93.8333 79.2796) scale(86.9572 86.9066)">
<stop offset="0.01" stop-color="#FFF81C"/>
<stop offset="0.23" stop-color="#FFED1C"/>
<stop offset="0.61" stop-color="#FFD01C"/>
<stop offset="1" stop-color="#FFAD1C"/>
</radialGradient>
<radialGradient id="paint22_radial_362_142" cx="0" cy="0" r="1" gradientUnits="userSpaceOnUse" gradientTransform="translate(44.2686 191.234) scale(63.35 63.3132)">
<stop stop-color="#F7920F"/>
<stop offset="0.61" stop-color="#EC7F0A"/>
<stop offset="1" stop-color="#E37107"/>
</radialGradient>
<linearGradient id="paint23_linear_362_142" x1="81.7139" y1="98.9464" x2="88.1259" y2="134.285" gradientUnits="userSpaceOnUse">
<stop stop-color="#E95A29"/>
<stop offset="1" stop-color="#F1E532"/>
</linearGradient>
<radialGradient id="paint24_radial_362_142" cx="0" cy="0" r="1" gradientUnits="userSpaceOnUse" gradientTransform="translate(106.462 130.761) scale(40.3041 40.2806)">
<stop stop-color="#F7920F"/>
<stop offset="0.61" stop-color="#EC7F0A"/>
<stop offset="1" stop-color="#E37107"/>
</radialGradient>
<linearGradient id="paint25_linear_362_142" x1="125.754" y1="92.6892" x2="153.992" y2="92.6892" gradientUnits="userSpaceOnUse">
<stop stop-color="#E95A29"/>
<stop offset="1" stop-color="#F1E532"/>
</linearGradient>
<radialGradient id="paint26_radial_362_142" cx="0" cy="0" r="1" gradientUnits="userSpaceOnUse" gradientTransform="translate(127.807 57.3164) scale(54.3175 54.286)">
<stop offset="0.01" stop-color="#FFF81C"/>
<stop offset="0.23" stop-color="#FFED1C"/>
<stop offset="0.61" stop-color="#FFD01C"/>
<stop offset="1" stop-color="#FFAD1C"/>
</radialGradient>
<radialGradient id="paint27_radial_362_142" cx="0" cy="0" r="1" gradientUnits="userSpaceOnUse" gradientTransform="translate(48.3734 55.9139) scale(39.8831 39.86)">
<stop stop-color="#F7920F"/>
<stop offset="0.61" stop-color="#EC7F0A"/>
<stop offset="1" stop-color="#E37107"/>
</radialGradient>
<linearGradient id="paint28_linear_362_142" x1="69.5254" y1="47.9209" x2="122.668" y2="47.9209" gradientUnits="userSpaceOnUse">
<stop stop-color="#E95A29"/>
<stop offset="1" stop-color="#F1E532"/>
</linearGradient>
<radialGradient id="paint29_radial_362_142" cx="0" cy="0" r="1" gradientUnits="userSpaceOnUse" gradientTransform="translate(-6.66245 94.3368) scale(49.0559 49.0274)">
<stop stop-color="#F7920F"/>
<stop offset="0.61" stop-color="#EC7F0A"/>
<stop offset="1" stop-color="#E37107"/>
</radialGradient>
<radialGradient id="paint30_radial_362_142" cx="0" cy="0" r="1" gradientUnits="userSpaceOnUse" gradientTransform="translate(3.51036 81.3303) scale(51.7042 51.6742)">
<stop offset="0.01" stop-color="#FFF81C"/>
<stop offset="0.23" stop-color="#FFED1C"/>
<stop offset="0.61" stop-color="#FFD01C"/>
<stop offset="1" stop-color="#FFAD1C"/>
</radialGradient>
<radialGradient id="paint31_radial_362_142" cx="0" cy="0" r="1" gradientUnits="userSpaceOnUse" gradientTransform="translate(89.3268 104.451) scale(23.3265 23.313)">
<stop stop-color="#FFEA00"/>
<stop offset="0.36" stop-color="#FFEB22"/>
<stop offset="1" stop-color="#FFED66"/>
</radialGradient>
<linearGradient id="paint32_linear_362_142" x1="122.16" y1="87.2549" x2="140.68" y2="87.2549" gradientUnits="userSpaceOnUse">
<stop stop-color="#F7920F"/>
<stop offset="0.32" stop-color="#F27F0F"/>
<stop offset="0.97" stop-color="#E44F0E"/>
<stop offset="1" stop-color="#E34D0E"/>
</linearGradient>
<radialGradient id="paint33_radial_362_142" cx="0" cy="0" r="1" gradientUnits="userSpaceOnUse" gradientTransform="translate(46.2507 80.4188) scale(8.68169 8.67664)">
<stop stop-color="#FFEA00"/>
<stop offset="0.36" stop-color="#FFEB22"/>
<stop offset="1" stop-color="#FFED66"/>
</radialGradient>
<linearGradient id="paint34_linear_362_142" x1="70.8926" y1="62.1018" x2="118.651" y2="62.1018" gradientUnits="userSpaceOnUse">
<stop stop-color="#EF8C1D"/>
<stop offset="0.13" stop-color="#F29125"/>
<stop offset="0.68" stop-color="#FBA241"/>
<stop offset="0.99" stop-color="#FFA84B"/>
</linearGradient>
<linearGradient id="paint35_linear_362_142" x1="44.2004" y1="132.637" x2="62.3706" y2="132.637" gradientUnits="userSpaceOnUse">
<stop stop-color="#EF8C1D"/>
<stop offset="0.13" stop-color="#F29125"/>
<stop offset="0.68" stop-color="#FBA241"/>
<stop offset="0.99" stop-color="#FFA84B"/>
</linearGradient>
<linearGradient id="paint36_linear_362_142" x1="71.5254" y1="154.793" x2="129.807" y2="154.793" gradientUnits="userSpaceOnUse">
<stop stop-color="#EF8C1D"/>
<stop offset="0.13" stop-color="#F29125"/>
<stop offset="0.68" stop-color="#FBA241"/>
<stop offset="0.99" stop-color="#FFA84B"/>
</linearGradient>
<linearGradient id="paint37_linear_362_142" x1="134.541" y1="120.875" x2="155.342" y2="120.875" gradientUnits="userSpaceOnUse">
<stop stop-color="#EF8C1D"/>
<stop offset="0.13" stop-color="#F29125"/>
<stop offset="0.68" stop-color="#FBA241"/>
<stop offset="0.99" stop-color="#FFA84B"/>
</linearGradient>
<linearGradient id="paint38_linear_362_142" x1="20.1361" y1="162.961" x2="28.1997" y2="155.506" gradientUnits="userSpaceOnUse">
<stop stop-color="#F7920F"/>
<stop offset="0.32" stop-color="#F27F0F"/>
<stop offset="0.97" stop-color="#E44F0E"/>
<stop offset="1" stop-color="#E34D0E"/>
</linearGradient>
<linearGradient id="paint39_linear_362_142" x1="44.2697" y1="167.326" x2="50.8292" y2="167.326" gradientUnits="userSpaceOnUse">
<stop stop-color="#F7920F"/>
<stop offset="0.32" stop-color="#F27F0F"/>
<stop offset="0.97" stop-color="#E44F0E"/>
<stop offset="1" stop-color="#E34D0E"/>
</linearGradient>
<linearGradient id="paint40_linear_362_142" x1="92.5721" y1="25.6596" x2="98.8861" y2="25.6596" gradientUnits="userSpaceOnUse">
<stop stop-color="#F7920F"/>
<stop offset="0.32" stop-color="#F27F0F"/>
<stop offset="0.97" stop-color="#E44F0E"/>
<stop offset="1" stop-color="#E34D0E"/>
</linearGradient>
<linearGradient id="paint41_linear_362_142" x1="174.197" y1="102.943" x2="186.983" y2="102.943" gradientUnits="userSpaceOnUse">
<stop stop-color="#F7920F"/>
<stop offset="0.32" stop-color="#F27F0F"/>
<stop offset="0.97" stop-color="#E44F0E"/>
<stop offset="1" stop-color="#E34D0E"/>
</linearGradient>
<linearGradient id="paint42_linear_362_142" x1="79.241" y1="70.901" x2="78.6454" y2="67.8509" gradientUnits="userSpaceOnUse">
<stop stop-color="#EF8C1D"/>
<stop offset="1" stop-color="#E95A29"/>
</linearGradient>
<linearGradient id="paint43_linear_362_142" x1="88.9399" y1="104.468" x2="88.1165" y2="100.244" gradientUnits="userSpaceOnUse">
<stop stop-color="#EF8C1D"/>
<stop offset="1" stop-color="#E95A29"/>
</linearGradient>
<linearGradient id="paint44_linear_362_142" x1="88.8891" y1="78.7713" x2="87.7854" y2="73.1794" gradientUnits="userSpaceOnUse">
<stop stop-color="#EF8C1D"/>
<stop offset="1" stop-color="#E95A29"/>
</linearGradient>
<linearGradient id="paint45_linear_362_142" x1="99.5159" y1="76.0018" x2="99.0604" y2="73.688" gradientUnits="userSpaceOnUse">
<stop stop-color="#EF8C1D"/>
<stop offset="1" stop-color="#E95A29"/>
</linearGradient>
<linearGradient id="paint46_linear_362_142" x1="106.549" y1="72.9694" x2="106.006" y2="70.2173" gradientUnits="userSpaceOnUse">
<stop stop-color="#EF8C1D"/>
<stop offset="1" stop-color="#E95A29"/>
</linearGradient>
<linearGradient id="paint47_linear_362_142" x1="112.706" y1="88.8503" x2="111.971" y2="85.0289" gradientUnits="userSpaceOnUse">
<stop stop-color="#EF8C1D"/>
<stop offset="1" stop-color="#E95A29"/>
</linearGradient>
<linearGradient id="paint48_linear_362_142" x1="114.338" y1="90.726" x2="130.912" y2="90.726" gradientUnits="userSpaceOnUse">
<stop stop-color="#EF8C1D"/>
<stop offset="1" stop-color="#E95A29"/>
</linearGradient>
<linearGradient id="paint49_linear_362_142" x1="146.521" y1="67.1674" x2="155.922" y2="67.1674" gradientUnits="userSpaceOnUse">
<stop stop-color="#EF8C1D"/>
<stop offset="1" stop-color="#E95A29"/>
</linearGradient>
<linearGradient id="paint50_linear_362_142" x1="67.7891" y1="92.5488" x2="71.8405" y2="92.5488" gradientUnits="userSpaceOnUse">
<stop stop-color="#EF8C1D"/>
<stop offset="1" stop-color="#E95A29"/>
</linearGradient>
<linearGradient id="paint51_linear_362_142" x1="37.7793" y1="83.5742" x2="64.2102" y2="83.5742" gradientUnits="userSpaceOnUse">
<stop stop-color="#EF8C1D"/>
<stop offset="1" stop-color="#E95A29"/>
</linearGradient>
<linearGradient id="paint52_linear_362_142" x1="34.8681" y1="141.138" x2="69.7878" y2="141.138" gradientUnits="userSpaceOnUse">
<stop stop-color="#EF8C1D"/>
<stop offset="1" stop-color="#E95A29"/>
</linearGradient>
<linearGradient id="paint53_linear_362_142" x1="73.7876" y1="161.261" x2="83.5216" y2="161.261" gradientUnits="userSpaceOnUse">
<stop stop-color="#EF8C1D"/>
<stop offset="1" stop-color="#E95A29"/>
</linearGradient>
<linearGradient id="paint54_linear_362_142" x1="87.8361" y1="162.751" x2="94.9744" y2="162.751" gradientUnits="userSpaceOnUse">
<stop stop-color="#EF8C1D"/>
<stop offset="1" stop-color="#E95A29"/>
</linearGradient>
<linearGradient id="paint55_linear_362_142" x1="97.0789" y1="162.663" x2="108.953" y2="162.663" gradientUnits="userSpaceOnUse">
<stop stop-color="#EF8C1D"/>
<stop offset="1" stop-color="#E95A29"/>
</linearGradient>
<linearGradient id="paint56_linear_362_142" x1="110.427" y1="157.492" x2="122.265" y2="157.492" gradientUnits="userSpaceOnUse">
<stop stop-color="#EF8C1D"/>
<stop offset="1" stop-color="#E95A29"/>
</linearGradient>
<linearGradient id="paint57_linear_362_142" x1="133.875" y1="134.477" x2="150.66" y2="134.477" gradientUnits="userSpaceOnUse">
<stop stop-color="#EF8C1D"/>
<stop offset="1" stop-color="#E95A29"/>
</linearGradient>
<radialGradient id="paint58_radial_362_142" cx="0" cy="0" r="1" gradientUnits="userSpaceOnUse" gradientTransform="translate(84.3288 123.224) scale(120.579 120.509)">
<stop stop-color="#D98E2C"/>
<stop offset="1"/>
</radialGradient>
<radialGradient id="paint59_radial_362_142" cx="0" cy="0" r="1" gradientUnits="userSpaceOnUse" gradientTransform="translate(117.266 81.9262) scale(120.579 120.509)">
<stop stop-color="#D98E2C"/>
<stop offset="1"/>
</radialGradient>
<linearGradient id="paint60_linear_362_142" x1="142.084" y1="138.596" x2="153.537" y2="138.596" gradientUnits="userSpaceOnUse">
<stop stop-color="#EF8C1D"/>
<stop offset="1" stop-color="#E95A29"/>
</linearGradient>
<linearGradient id="paint61_linear_362_142" x1="61.8078" y1="103.872" x2="77.1015" y2="103.872" gradientUnits="userSpaceOnUse">
<stop stop-color="#EF8C1D"/>
<stop offset="1" stop-color="#E95A29"/>
</linearGradient>
<linearGradient id="paint62_linear_362_142" x1="80.1719" y1="103.031" x2="89.748" y2="103.031" gradientUnits="userSpaceOnUse">
<stop stop-color="#EF8C1D"/>
<stop offset="1" stop-color="#E95A29"/>
</linearGradient>
<linearGradient id="paint63_linear_362_142" x1="90.9923" y1="113.004" x2="98.0429" y2="113.004" gradientUnits="userSpaceOnUse">
<stop stop-color="#EF8C1D"/>
<stop offset="1" stop-color="#E95A29"/>
</linearGradient>
<linearGradient id="paint64_linear_362_142" x1="106.428" y1="119.578" x2="112.601" y2="119.578" gradientUnits="userSpaceOnUse">
<stop stop-color="#EF8C1D"/>
<stop offset="1" stop-color="#E95A29"/>
</linearGradient>
<linearGradient id="paint65_linear_362_142" x1="86.0994" y1="40.5414" x2="104.445" y2="40.5414" gradientUnits="userSpaceOnUse">
<stop stop-color="#EF8C1D"/>
<stop offset="1" stop-color="#E95A29"/>
</linearGradient>
<radialGradient id="paint66_radial_362_142" cx="0" cy="0" r="1" gradientUnits="userSpaceOnUse" gradientTransform="translate(64.7548 75.2303) scale(38.3748 38.3525)">
<stop stop-color="#FFFFD9"/>
<stop offset="1" stop-color="#FFF19D"/>
</radialGradient>
<radialGradient id="paint67_radial_362_142" cx="0" cy="0" r="1" gradientUnits="userSpaceOnUse" gradientTransform="translate(135.558 45.2389) scale(9.38324 9.37779)">
<stop stop-color="#FFFFD9"/>
<stop offset="1" stop-color="#FFF19D"/>
</radialGradient>
<radialGradient id="paint68_radial_362_142" cx="0" cy="0" r="1" gradientUnits="userSpaceOnUse" gradientTransform="translate(82.7142 44.5731) scale(13.3119 13.3042)">
<stop stop-color="#FFFFD9"/>
<stop offset="1" stop-color="#FFF19D"/>
</radialGradient>
<radialGradient id="paint69_radial_362_142" cx="0" cy="0" r="1" gradientUnits="userSpaceOnUse" gradientTransform="translate(30.5 156.434) rotate(-36.0274) scale(6.80073 14.9497)">
<stop stop-color="#FFBB00"/>
<stop offset="0.17" stop-color="#C59000"/>
<stop offset="0.4" stop-color="#805E00" stop-opacity="0.76"/>
<stop offset="1" stop-color="#493500" stop-opacity="0"/>
</radialGradient>
<radialGradient id="paint70_radial_362_142" cx="0" cy="0" r="1" gradientUnits="userSpaceOnUse" gradientTransform="translate(83.5269 76.8941) rotate(-45.0167) scale(55.4049 55.3727)">
<stop stop-color="#FFBB00"/>
<stop offset="0.17" stop-color="#C59000"/>
<stop offset="0.4" stop-color="#805E00"/>
<stop offset="1" stop-color="#493500" stop-opacity="0"/>
</radialGradient>
<radialGradient id="paint71_radial_362_142" cx="0" cy="0" r="1" gradientUnits="userSpaceOnUse" gradientTransform="translate(110.97 129.815) scale(3.75329 3.75111)">
<stop stop-color="#FFBB00"/>
<stop offset="0.17" stop-color="#C59000"/>
<stop offset="0.4" stop-color="#805E00"/>
<stop offset="0.6" stop-color="#493500"/>
<stop offset="0.78" stop-color="#211800"/>
<stop offset="0.92" stop-color="#090700"/>
<stop offset="1"/>
</radialGradient>
<radialGradient id="paint72_radial_362_142" cx="0" cy="0" r="1" gradientUnits="userSpaceOnUse" gradientTransform="translate(138 97.9341) scale(4 6.89255)">
<stop stop-color="#FFBB00"/>
<stop offset="0.17" stop-color="#C59000"/>
<stop offset="0.4" stop-color="#805E00"/>
<stop offset="0.6" stop-color="#493500"/>
<stop offset="0.78" stop-color="#211800"/>
<stop offset="0.92" stop-color="#090700"/>
<stop offset="1"/>
</radialGradient>
<radialGradient id="paint73_radial_362_142" cx="0" cy="0" r="1" gradientUnits="userSpaceOnUse" gradientTransform="translate(106.116 125.537) scale(3.38427 7.04648)">
<stop stop-color="#FFBB00"/>
<stop offset="0.17" stop-color="#C59000"/>
<stop offset="0.4" stop-color="#805E00"/>
<stop offset="0.6" stop-color="#493500"/>
<stop offset="0.78" stop-color="#211800"/>
<stop offset="0.92" stop-color="#090700"/>
<stop offset="1"/>
</radialGradient>
<radialGradient id="paint74_radial_362_142" cx="0" cy="0" r="1" gradientUnits="userSpaceOnUse" gradientTransform="translate(53.2851 77.2463) scale(7.05058 7.04648)">
<stop stop-color="#FFBB00"/>
<stop offset="0.17" stop-color="#C59000"/>
<stop offset="0.4" stop-color="#805E00"/>
<stop offset="0.6" stop-color="#493500"/>
<stop offset="0.78" stop-color="#211800"/>
<stop offset="0.92" stop-color="#090700"/>
<stop offset="1"/>
</radialGradient>
<radialGradient id="paint75_radial_362_142" cx="0" cy="0" r="1" gradientUnits="userSpaceOnUse" gradientTransform="translate(95.9563 50.27) scale(2.92898 2.92727)">
<stop stop-color="#FFBB00"/>
<stop offset="0.17" stop-color="#C59000"/>
<stop offset="0.4" stop-color="#805E00"/>
<stop offset="0.6" stop-color="#493500"/>
<stop offset="0.78" stop-color="#211800"/>
<stop offset="0.92" stop-color="#090700"/>
<stop offset="1"/>
</radialGradient>
<radialGradient id="paint76_radial_362_142" cx="0" cy="0" r="1" gradientUnits="userSpaceOnUse" gradientTransform="translate(108.076 143.85) scale(1.96995 9.26981)">
<stop stop-color="#FFBB00"/>
<stop offset="0.17" stop-color="#C59000"/>
<stop offset="0.4" stop-color="#805E00"/>
<stop offset="0.6" stop-color="#493500"/>
<stop offset="0.78" stop-color="#211800"/>
<stop offset="0.92" stop-color="#090700"/>
<stop offset="1"/>
</radialGradient>
</defs>
</svg>
