<svg width="300" height="300" viewBox="0 0 300 300" fill="none" xmlns="http://www.w3.org/2000/svg">
<path d="M201.684 63.9238L188.686 60.5903L186.361 60.0021L179.245 58.1812L150 50.6738C151.681 46.9481 153.67 42.8862 155.883 38.8244C164.034 23.9216 175.212 8.87864 184.568 10.9516C185.679 11.2608 186.661 11.9188 187.369 12.8285C191.207 17.5346 191.487 29.6362 190.815 40.5332C192.598 39.194 194.811 38.5561 197.034 38.7403C199.835 39.1885 201.432 42.2139 202.104 46.0236C202.791 51.9812 202.65 58.0051 201.684 63.9238Z" fill="url(#paint0_radial_698_1877)"/>
<path style="mix-blend-mode:multiply" opacity="0.8" d="M190.854 40.7415C185.937 45.8222 181.993 51.7473 179.213 58.2277L150 50.7891C151.679 47.0976 153.666 43.073 155.876 39.0484C165.922 45.238 186.657 33.4973 187.412 13.291C191.246 17.843 191.526 29.9723 190.854 40.7415Z" fill="url(#paint1_linear_698_1877)"/>
<path style="mix-blend-mode:multiply" opacity="0.8" d="M201.619 63.9243L188.435 60.5115L186.076 59.9092C197.812 57.4715 202.131 45.5698 202.131 45.5698C202.802 51.6824 202.63 57.8594 201.619 63.9243V63.9243Z" fill="url(#paint2_linear_698_1877)"/>
<path style="mix-blend-mode:screen" d="M300 150C300.033 169.707 296.175 189.228 288.649 207.441C281.122 225.655 270.075 242.204 256.139 256.139C242.204 270.075 225.655 281.122 207.441 288.649C189.228 296.175 169.707 300.033 150 300C120.333 300 91.3318 291.202 66.6645 274.72C41.9971 258.238 22.7713 234.811 11.4181 207.402C0.0649929 179.993 -2.90551 149.834 2.88227 120.736C8.67005 91.6393 22.9562 64.9119 43.934 43.934C64.9119 22.9562 91.6393 8.67005 120.736 2.88228C149.834 -2.9055 179.994 0.0649849 207.402 11.4181C234.811 22.7713 258.238 41.9971 274.72 66.6645C291.202 91.3318 300 120.333 300 150Z" fill="url(#paint3_radial_698_1877)"/>
<path style="mix-blend-mode:screen" d="M271.519 154.1C271.538 169.691 268.489 185.133 262.547 199.54C256.606 213.948 247.889 227.039 236.895 238.064C225.901 249.088 212.846 257.83 198.479 263.788C184.111 269.746 168.713 272.803 153.165 272.785C146.767 272.784 140.38 272.273 134.063 271.255C111.768 267.599 90.983 257.621 74.162 242.499C57.3409 227.378 45.1869 207.744 39.1357 185.919C33.0844 164.093 33.3886 140.986 40.0124 119.328C46.6361 97.67 59.3028 78.3653 76.5161 63.6943C93.7294 49.0233 114.77 39.5988 137.153 36.5341C159.536 33.4693 182.327 36.8924 202.832 46.3989C223.337 55.9055 240.701 71.0984 252.872 90.183C265.044 109.268 271.514 131.447 271.519 154.1V154.1Z" fill="url(#paint4_radial_698_1877)"/>
<path d="M258.228 150.306C258.25 164.568 255.466 178.694 250.036 191.874C244.607 205.054 236.638 217.03 226.586 227.115C216.534 237.199 204.598 245.194 191.46 250.642C178.323 256.09 164.243 258.882 150.028 258.86C144.183 258.864 138.348 258.398 132.577 257.469C112.188 254.137 93.1756 245.018 77.7869 231.191C62.3983 217.364 51.2766 199.406 45.7363 179.44C40.196 159.473 40.4686 138.333 46.522 118.517C52.5753 98.7013 64.1563 81.0381 79.8964 67.615C95.6365 54.192 114.878 45.5701 135.346 42.7685C155.814 39.9668 176.654 43.1023 195.403 51.8045C214.152 60.5068 230.026 74.412 241.149 91.8768C252.272 109.342 258.179 129.636 258.173 150.362L258.228 150.306Z" fill="url(#paint5_radial_698_1877)"/>
<g style="mix-blend-mode:multiply" opacity="0.3">
<path fill-rule="evenodd" clip-rule="evenodd" d="M195.57 56.1947H194.515C193.407 56.453 192.252 56.4244 191.158 56.1115C190.388 55.8214 189.6 55.5804 188.799 55.3902C187.523 55.196 186.33 54.6412 185.053 54.4748C183.738 54.2166 182.454 53.8166 181.224 53.2819C180.408 52.9897 179.516 52.9897 178.699 53.2819C177.825 53.4397 176.923 53.2614 176.174 52.7826C175.218 52.4277 174.22 52.1947 173.205 52.0891C170.431 51.5342 167.85 50.6742 165.186 49.9807C163.591 49.6407 161.961 49.4917 160.331 49.5368C158.999 49.5368 157.806 49.8975 156.474 49.8975C155.626 49.8737 154.781 49.7809 153.949 49.6201C153.061 49.4536 152.145 49.6201 151.174 49.6201C150.057 49.3144 148.878 49.3144 147.761 49.6201C146.858 49.8736 145.924 49.995 144.986 49.9807C143.804 50.0737 142.634 50.278 141.49 50.591C139.464 51.083 137.388 51.3435 135.302 51.3678C133.878 51.1442 132.426 51.1442 131.002 51.3678C130.225 51.6452 129.836 52.4496 129.309 53.0045C128.186 54.0071 127.129 55.0821 126.146 56.2225C125.13 57.297 124.513 58.6874 124.398 60.1617C124.553 61.5699 124.977 62.9354 125.646 64.1842C126.229 65.4603 126.423 66.6254 125.119 67.4577C123.415 68.6084 121.543 69.4881 119.57 70.0654C119.027 70.3285 118.422 70.4391 117.821 70.3854C117.22 70.3316 116.645 70.1155 116.157 69.7602C115.768 69.4273 115.546 68.7893 115.047 68.5119C114.547 68.2344 114.048 68.5119 113.521 68.6783C112.221 69.1106 110.896 69.4626 109.553 69.7325C108.748 69.7325 108.027 70.315 107.222 70.4537C106.417 70.5924 105.53 69.9267 104.447 70.1486C103.049 70.6184 101.609 70.9529 100.147 71.1473C98.9969 71.1462 97.8712 70.8192 96.9001 70.2041C96.3729 69.9267 96.2341 69.6215 95.6514 69.7879C95.0741 69.998 94.572 70.3745 94.2086 70.8698C93.8479 71.3414 93.7369 72.0073 93.3761 72.5066C93.0154 73.0059 92.6547 73.644 92.3218 74.2265C91.7267 75.3948 91.0303 76.5087 90.2407 77.5555C89.6858 78.3045 89.2973 79.3032 88.6868 79.969C88.2574 80.3213 87.7924 80.6282 87.2995 80.8844C86.1896 81.6334 85.0242 82.3547 83.9698 83.1592C81.9165 84.796 79.9464 86.5714 77.8654 88.1249C76.1282 89.2595 74.2661 90.1904 72.3159 90.899C71.1782 91.3429 69.9851 91.6758 68.8475 92.1474C68.3706 92.2935 67.9139 92.4985 67.4879 92.7577C67.1166 93.2206 66.7826 93.7123 66.4889 94.228C65.4474 95.4055 64.5185 96.6779 63.7142 98.0285C63.2801 98.8297 62.9358 99.6763 62.6876 100.553C62.2713 101.746 61.6332 102.856 61.2169 104.048C60.4123 106.545 60.2458 109.153 59.3024 111.649C58.7275 113.042 58.0792 114.403 57.3601 115.727C56.3932 118.084 55.8394 120.59 55.723 123.134C55.5467 124.64 55.5934 126.164 55.8617 127.656C56.066 129.21 56.131 130.779 56.0559 132.344C55.8578 134.045 55.1072 135.633 53.9194 136.866C52.976 138.004 51.5331 138.448 50.451 139.474C49.4288 140.33 48.6211 141.413 48.0924 142.636C48.0502 143.218 48.0502 143.802 48.0924 144.384C47.8427 145.688 47.5097 146.936 47.3155 148.24C47.1441 149.852 47.0699 151.474 47.0935 153.095C47.0935 153.899 47.0935 154.759 47.0935 155.592C47.0935 156.424 47.4265 157.117 47.482 157.894C47.5375 158.671 47.482 159.004 47.482 159.559C47.482 160.113 47.8427 160.835 47.9815 161.417C48.3422 162.888 48.6196 164.33 48.8971 165.8C49.2236 167.164 49.6313 168.508 50.118 169.823C50.6759 171.643 51.1207 173.496 51.4499 175.371C51.7273 176.758 51.6996 178.145 51.8938 179.616C52.0881 181.086 52.31 181.918 52.3655 183.055C52.3655 184.775 52.0048 186.523 51.9771 188.271C52.2516 191.237 52.8756 194.161 53.8361 196.982C54.0304 197.758 54.2246 198.563 54.4466 199.367C46.2717 183.207 42.3756 165.221 43.1301 147.127C43.8846 129.033 49.2646 111.434 58.7565 96.0101C68.2485 80.5859 81.5358 67.8511 97.3504 59.0208C113.165 50.1906 130.979 45.5596 149.093 45.5698C151.424 45.5698 153.699 45.5698 155.974 45.7918C169.728 46.6233 183.184 50.1584 195.57 56.1947V56.1947Z" fill="#7D72B3"/>
</g>
<path style="mix-blend-mode:screen" d="M241.773 92.9028C225.59 69.8413 201.083 53.9941 173.441 48.7165C145.798 43.4389 117.19 49.1455 93.6741 64.6278C70.1583 80.1101 53.581 104.153 47.4524 131.664C41.3238 159.176 46.125 187.997 60.8395 212.025C52.4966 200.136 46.6234 186.688 43.5683 172.481C40.5132 158.274 40.3386 143.598 43.0549 129.322C45.7711 115.046 51.3228 101.462 59.3805 89.3768C67.4381 77.2915 77.8374 66.951 89.9612 58.9689C102.085 50.9869 115.686 45.5261 129.957 42.9106C144.228 40.2952 158.878 40.5784 173.038 43.7435C187.198 46.9086 200.579 52.891 212.386 61.3356C224.193 69.7803 234.186 80.5151 241.773 92.9028V92.9028Z" fill="url(#paint6_radial_698_1877)"/>
<g style="mix-blend-mode:multiply" opacity="0.3">
<path d="M257.589 163.166C257.895 160.394 258.117 157.844 258.228 155.155C232.356 165.19 194.311 179.326 186.502 178.356C175.803 177.026 244.667 146.784 257.95 141.019C257.613 136.847 257.019 132.7 256.172 128.601C251.42 135.309 239.248 149.806 224.408 148.004C205.149 145.537 240.026 90.1827 240.026 90.1827C237.734 86.7634 235.247 83.4779 232.578 80.3426C222.963 123.639 155.016 135.78 141.288 134.727C127.56 133.673 100.882 107.646 77.3159 70.2529C73.397 73.7737 69.7378 77.5718 66.3667 81.6176C89.4879 98.2489 149.264 145.066 105.273 152.3C75.7597 157.151 54.8339 150.859 41.9394 144.207C41.8282 146.221 41.7726 148.244 41.7726 150.277C41.7376 170.463 47.4004 190.251 58.1131 207.378C95.6017 196.512 158.601 179.936 155.822 191.91C153.405 202.36 116.416 223.87 88.1818 239.032C92.0601 241.741 96.1174 244.186 100.326 246.35C133.896 217.966 180.917 179.825 185.363 187.753C190.921 197.399 182.112 227.723 171.468 256.329C177.842 255.059 184.084 253.203 190.115 250.785C192.644 224.009 198.452 191.356 208.373 184.122C216.543 178.162 235.802 185.923 249.697 192.964C251.064 189.843 252.261 186.651 253.282 183.401C239.692 180.075 228.271 176.277 227.882 173.062C227.159 165.107 257.589 163.166 257.589 163.166ZM188.476 130.319C190.115 128.019 198.647 125.386 210.707 117.541C222.768 109.697 224.047 119.87 217.599 126.716C211.152 133.563 186.086 133.784 188.476 130.319ZM179.611 173.727C150.181 184.177 94.2677 165.855 102.327 160.755C111.525 154.851 207.678 133.895 214.57 140.132C221.462 146.369 209.207 163.305 179.694 173.727H179.611Z" fill="#7D72B3"/>
</g>
<path style="mix-blend-mode:multiply" opacity="0.6" d="M132.602 256.962C113.724 253.883 96.0015 245.88 81.2333 233.766C66.4651 221.652 55.1779 205.858 48.5184 187.99L48.1016 182.452L97.868 167.722C103.341 172.219 106.937 178.585 107.955 185.581C107.955 185.581 120.542 196.13 120.514 212.217C120.57 212.217 143.244 248.379 132.602 256.962Z" fill="url(#paint7_linear_698_1877)"/>
<path style="mix-blend-mode:multiply" opacity="0.6" d="M241.139 208.479C228.441 228.418 209.634 243.659 187.561 251.899C186.412 248.297 185.923 244.515 186.118 240.737C186.391 231.287 189.18 222.085 194.192 214.088C191.964 210.359 190.034 206.459 188.421 202.423L197.799 192.405L237.949 199.661L241.139 208.479Z" fill="url(#paint8_linear_698_1877)"/>
<path d="M125.317 245.543C115.732 252.259 105.477 257.968 94.7162 262.576C87.4277 265.354 80.8069 266.41 77.413 263.27C65.145 251.822 98.4439 216.923 98.889 216.451C98.3883 216.728 72.8507 231.399 54.3791 236.679C52.4341 237.262 50.4553 237.725 48.4538 238.068V238.068C43.6133 238.93 39.7187 238.679 37.6045 236.762C28.5356 228.426 50.6793 201.918 54.8521 197.056C55.2694 196.556 55.5197 196.306 55.5197 196.306C55.5197 196.306 42.1668 199.807 38.2165 194.555C34.2663 189.303 50.9296 160.628 53.7671 159.934C58.0683 158.934 62.59 159.652 66.369 161.934C68.953 163.471 71.2574 165.435 73.1846 167.741V167.741C74.0505 165.293 75.4577 163.07 77.3017 161.239C81.7527 158.766 89.8201 160.378 95.3561 164.991C97.0002 166.321 98.3863 167.94 99.4454 169.77C100.752 172.137 101.38 174.818 101.262 177.518C101.145 180.219 100.285 182.835 98.7778 185.08C104.422 186.355 109.459 189.522 113.049 194.055C113.78 195.019 114.431 196.041 114.996 197.111C120.254 207.17 113.132 211.004 113.132 211.004L103.257 214.283C106.847 215.183 110.21 216.82 113.132 219.09C124.983 228.26 125.317 245.543 125.317 245.543Z" fill="url(#paint9_radial_698_1877)"/>
<path d="M244.712 208.571C243.896 209.661 242.708 210.414 241.374 210.687C235.809 212.08 227.185 208.682 226.962 208.598C227.769 210.186 242.653 239.651 233.472 246.474C233.211 246.677 232.932 246.854 232.638 247.004C222.733 252.574 200.365 235.641 191.852 225.42C193.579 222.442 195.683 219.699 198.111 217.26C199.984 215.372 202.076 213.717 204.343 212.33L203.397 212.108C200.56 211.25 197.881 209.933 195.468 208.209C193.015 206.574 190.723 204.709 188.624 202.639C188.318 198.433 192.102 182.364 205.929 177.824C210.022 176.544 214.359 176.248 218.588 176.961L224.514 185.761C225.277 184.975 226.116 184.266 227.018 183.645C228.325 182.625 229.824 181.878 231.424 181.447C233.025 181.017 234.696 180.912 236.338 181.138C237.757 181.528 248.663 203.112 244.712 208.571Z" fill="url(#paint10_radial_698_1877)"/>
<path d="M48.1016 237.975L54.4307 236.709C52.3531 237.24 50.2394 237.663 48.1016 237.975V237.975Z" fill="url(#paint11_linear_698_1877)"/>
<path style="mix-blend-mode:multiply" opacity="0.8" d="M70.5469 184.209C64.8683 188.069 59.5012 192.371 54.4956 197.076C54.91 196.577 55.1587 196.328 55.1587 196.328C55.1587 196.328 41.8977 199.822 37.9746 194.581C49.8266 195.329 72.8676 171.648 65.9332 162.025C68.5225 163.527 70.8392 165.458 72.7847 167.738C68.9722 179.274 70.5469 184.209 70.5469 184.209Z" fill="url(#paint12_linear_698_1877)"/>
<path style="mix-blend-mode:multiply" opacity="0.8" d="M112.696 210.647L102.921 213.943L98.4873 216.374C97.9917 216.653 72.7142 231.402 54.4307 236.709C55.2567 236.374 78.414 226.374 80.1212 211.318C81.8284 196.262 77.9734 189.362 77.9734 189.362C77.9734 189.362 75.5228 189.697 71.9432 185.423C71.9432 185.423 82.9573 186.736 90.1716 180.479C92.2926 178.493 93.8637 175.978 94.7285 173.185C95.5932 170.391 95.7215 167.417 95.1005 164.557V164.557C96.7279 165.894 98.0998 167.523 99.1482 169.362C100.441 171.742 101.063 174.437 100.947 177.151C100.83 179.866 99.9793 182.496 98.4873 184.753C98.4873 184.753 86.3442 194.558 84.5544 202.798C82.7646 211.038 99.6163 213.133 105.702 209.251C111.787 205.368 112.613 193.636 112.613 193.636C113.337 194.605 113.981 195.633 114.54 196.708C119.745 206.904 112.696 210.647 112.696 210.647Z" fill="url(#paint13_linear_698_1877)"/>
<path style="mix-blend-mode:multiply" opacity="0.8" d="M125.316 245.65C115.603 252.357 105.21 258.057 94.3037 262.658V262.658C109.415 252.198 114.969 226.395 113.08 218.987C124.978 228.393 125.316 245.65 125.316 245.65Z" fill="url(#paint14_linear_698_1877)"/>
<path style="mix-blend-mode:multiply" opacity="0.8" d="M224.346 185.693C227.138 197.774 225.435 203.164 225.435 203.164C225.435 189.591 213.402 178.009 205.696 177.815C209.804 176.544 214.156 176.251 218.399 176.958L224.346 185.693Z" fill="url(#paint15_linear_698_1877)"/>
<path style="mix-blend-mode:multiply" opacity="0.8" d="M244.689 208.635C243.851 209.73 242.631 210.486 241.262 210.76C244.404 193.988 226.582 183.645 226.582 183.645C227.924 182.622 229.462 181.872 231.106 181.44C232.749 181.008 234.464 180.902 236.15 181.129C237.549 181.493 248.745 203.156 244.689 208.635Z" fill="url(#paint16_linear_698_1877)"/>
<path style="mix-blend-mode:multiply" opacity="0.8" d="M233.138 246.311C232.88 246.512 232.603 246.687 232.311 246.835C232.587 232.763 213.015 216.759 198.102 217.366C199.957 215.496 202.03 213.856 204.276 212.482L203.339 212.262C206.658 214.226 210.558 214.967 214.366 214.359C216.534 214.04 218.57 213.118 220.241 211.699C221.913 210.279 223.153 208.419 223.821 206.329L226.577 208.702C227.377 210.358 242.235 239.551 233.138 246.311Z" fill="url(#paint17_linear_698_1877)"/>
<path style="mix-blend-mode:screen" opacity="0.6" d="M48.7344 131.468C48.7344 161.208 86.6901 150.198 113.262 116.225C139.834 82.2516 187.341 53.701 239.874 89.9425C239.874 89.9425 195.671 28.1936 122.23 50.3812C56.1756 70.4108 48.7344 122.809 48.7344 131.468Z" fill="url(#paint18_linear_698_1877)"/>
<path d="M191.028 107.961C185.326 110.783 195.048 110.443 195.521 109.215C195.994 107.987 192.893 107.047 191.028 107.961Z" fill="#0EDBFF"/>
<path d="M200.639 98.7563C199.085 99.7916 200.639 103.674 202.391 100.942C204.142 98.21 202.645 97.376 200.639 98.7563Z" fill="#0EDBFF"/>
<path d="M178.493 61.9359C178.929 64.1381 180.622 65.5768 181.519 63.6683C182.417 61.7597 178.236 60.6734 178.493 61.9359Z" fill="#0EDBFF"/>
<path d="M116.582 57.9947C115.598 61.9515 120.713 61.0152 120.881 59.1727C121.05 57.3302 117.116 55.9106 116.582 57.9947Z" fill="#0EDBFF"/>
<path d="M122.804 64.5104C123.345 65.2691 123.986 67.0393 124.594 64.5104C125.201 61.9815 122.534 64.1058 122.804 64.5104Z" fill="#0EDBFF"/>
<path d="M130.445 59.549C131.931 64.5038 138.069 61.0213 137.271 57.7936C136.472 54.5658 129.646 57.3689 130.445 59.549Z" fill="#0EDBFF"/>
<path d="M238.943 110.225C235.856 112.445 241.136 114.6 241.136 112.316C241.136 110.032 241.321 108.521 238.943 110.225Z" fill="#0EDBFF"/>
<path d="M52.6138 121.127C51.9172 123.417 55.8643 121.301 55.6902 120.258C55.5161 119.214 53.6876 117.649 52.6138 121.127Z" fill="#0EDBFF"/>
<path d="M47.3659 152.538C45.1401 156.314 50.6324 159.763 50.6324 155.906C50.6324 152.049 49.0714 149.658 47.3659 152.538Z" fill="#0EDBFF"/>
<path d="M73.5573 122.656C72.5314 124.826 77.4947 125.549 77.8275 123.35C78.1602 121.151 74.4169 120.949 73.5573 122.656Z" fill="#0EDBFF"/>
<path d="M89.2487 75.9438C89.0472 77.2809 92.502 77.9637 92.9915 75.9438C93.4809 73.9238 89.9397 71.4487 89.2487 75.9438Z" fill="#0EDBFF"/>
<path d="M116.761 163.054C115.596 163.982 118.103 167.749 118.761 164.572C119.42 161.395 118.609 161.564 116.761 163.054Z" fill="#0EDBFF"/>
<path d="M108.267 171.544C109.082 175.395 113.843 172.455 113.238 170.32C112.633 168.186 107.741 168.629 108.267 171.544Z" fill="#0EDBFF"/>
<path d="M123.532 169.717C120.152 170.083 123.959 174.112 124.659 172.333C125.36 170.554 127.705 169.246 123.532 169.717Z" fill="#0EDBFF"/>
<path d="M145.611 242.637C147.619 248.031 151.187 249.973 151.857 245.981C152.526 241.99 144.942 240.749 145.611 242.637Z" fill="#0EDBFF"/>
<path d="M140.019 235.494C139.031 238.535 143.351 239.682 144.198 237.416C145.045 235.15 140.527 233.974 140.019 235.494Z" fill="#0EDBFF"/>
<path d="M157.673 236.389C157.012 239.66 160.759 238.801 160.759 237.082C160.759 235.363 158.004 234.781 157.673 236.389Z" fill="#0EDBFF"/>
<path d="M178.534 215.194C179.09 218.324 181.251 222.429 181.622 218.885C181.992 215.342 177.979 212.034 178.534 215.194Z" fill="#0EDBFF"/>
<path d="M242.099 170.348C239.823 171.612 242.099 174.799 243.745 172.745C245.39 170.691 245.747 168.426 242.099 170.348Z" fill="#0EDBFF"/>
<path d="M234.327 174.556C231.473 176.03 237.341 177.453 237.341 175.927C237.341 174.401 236.411 173.393 234.327 174.556Z" fill="#0EDBFF"/>
<path d="M241.788 177.352C239.235 179.236 245.054 181.385 244.935 179.864C244.817 178.344 244.787 175.104 241.788 177.352Z" fill="#0EDBFF"/>
<path d="M219.697 173.2C218.936 175.772 224.05 174.31 224.05 173.877C224.05 173.444 220.024 172.117 219.697 173.2Z" fill="#0EDBFF"/>
<path d="M230.494 161.095C228.018 163.101 232.359 164.998 233.933 163.211C235.506 161.425 235.302 157.193 230.494 161.095Z" fill="#0EDBFF"/>
<path d="M239.719 132.459C238.207 141.903 240.544 144.22 243.018 139.155C245.493 134.09 240.159 129.798 239.719 132.459Z" fill="#0EDBFF"/>
<path d="M200.005 81.1963C199.842 84.8605 203.797 88.2267 203.797 84.354C203.797 80.4814 200.195 76.6087 200.005 81.1963Z" fill="#0EDBFF"/>
<path d="M142.103 70.0111C136.702 77.2572 146.586 76.4212 148.342 71.4603C150.097 66.4995 145.587 65.4126 142.103 70.0111Z" fill="#0EDBFF"/>
<path d="M198.052 91.9904C197.549 94.6085 191.427 91.9904 186.033 87.7738C178.709 82.0691 172.783 73.5258 184.411 71.5691C186.086 71.3941 187.777 71.6801 189.297 72.3952C190.816 73.1103 192.105 74.2266 193.021 75.6203C196.64 80.3026 198.427 86.1146 198.052 91.9904V91.9904Z" fill="#0EDBFF"/>
<path d="M160.483 104.521C154.075 100.693 150.508 94.4069 155.551 85.7454C160.344 77.5589 168.814 78.7044 176.086 83.5102C182.829 88.0086 188.541 95.6922 189.209 102.035C190.101 110.333 171.294 110.948 160.483 104.521Z" fill="#0EDBFF"/>
<path style="mix-blend-mode:multiply" opacity="0.4" d="M160.439 104.431C154.069 100.617 150.524 94.3532 155.537 85.7234C160.301 77.5669 168.72 78.7082 175.949 83.4964C160.467 78.235 151.715 92.0705 160.439 104.431Z" fill="url(#paint19_linear_698_1877)"/>
<path style="mix-blend-mode:multiply" opacity="0.4" d="M193.038 75.4858C187.693 73.3399 181.648 74.5469 186.042 87.3418C178.71 81.7893 172.778 73.474 184.419 71.5695C186.092 71.3964 187.783 71.6707 189.305 72.3619C190.826 73.0531 192.118 74.1343 193.038 75.4858V75.4858Z" fill="url(#paint20_linear_698_1877)"/>
<path style="mix-blend-mode:multiply" opacity="0.8" d="M101.16 174.051C96.9993 183.026 84.26 188.802 77.8477 188.314C77.8477 188.314 83.918 190.13 98.7948 184.734C100.061 183.1 100.875 181.188 101.16 179.176C101.3 177.47 101.3 175.756 101.16 174.051V174.051Z" fill="url(#paint21_linear_698_1877)"/>
<path style="mix-blend-mode:multiply" opacity="0.8" d="M86.8744 208.861C91.9036 211.574 97.4523 213.221 103.165 213.696L86.8744 222.395L74.0508 228.481C74.0508 228.481 83.7178 222.228 85.6907 217.365C86.9087 214.702 87.3198 211.749 86.8744 208.861V208.861Z" fill="url(#paint22_linear_698_1877)"/>
<g style="mix-blend-mode:overlay" opacity="0.6">
<path d="M35.4712 233.51C39.2224 237.845 52.1432 226.869 47.086 224.23C42.0289 221.59 31.72 229.176 35.4712 233.51Z" fill="#FFF19D"/>
<path d="M57.2256 218.758C51.8905 231.04 64.4501 226.649 68.1735 215.285C71.8969 203.92 61.5881 208.672 57.2256 218.758Z" fill="#FFF19D"/>
<path d="M81.2883 168.715C77.7594 176.217 86.8456 170.354 87.4014 167.659C87.9571 164.964 84.3448 162.213 81.2883 168.715Z" fill="#FFF19D"/>
<path d="M94.4059 240.628C87.1536 253.855 102.742 248.269 104.27 240.628C105.798 232.987 97.8792 234.293 94.4059 240.628Z" fill="#FFF19D"/>
<path d="M206.666 229.094C210.945 241.876 223.06 244.822 218.031 236.597C213.002 228.372 204.694 223.176 206.666 229.094Z" fill="#FFF19D"/>
<path d="M203.193 190.806C204.277 202.477 212.557 202.532 210.807 195.78C209.056 189.028 202.526 184.054 203.193 190.806Z" fill="#FFF19D"/>
<path d="M233.842 202.14C236.149 207.864 242.429 205.419 238.233 199.751C234.037 194.082 230.814 194.694 233.842 202.14Z" fill="#FFF19D"/>
<path d="M219.472 232.125C221.945 238.877 226.724 240.85 225.946 235.681C225.168 230.513 217.666 227.095 219.472 232.125Z" fill="#FFF19D"/>
<path d="M220.448 218.76C221.615 228.596 232.896 229.096 229.84 222.177C226.783 215.259 219.781 213.286 220.448 218.76Z" fill="#FFF19D"/>
<path d="M176.043 27.7819C169.152 37.8962 178.349 44.8429 180.239 39.1467C182.128 33.4504 180.294 21.6411 176.043 27.7819Z" fill="#FFF19D"/>
<path d="M180.293 13.9985C178.153 20.056 186.017 21.1952 185.544 17.4996C185.072 13.804 181.96 9.2192 180.293 13.9985Z" fill="#FFF19D"/>
</g>
<path style="mix-blend-mode:screen" d="M63.2913 240.506C91.9542 240.506 115.19 217.412 115.19 188.924C115.19 160.436 91.9542 137.342 63.2913 137.342C34.6284 137.342 11.3926 160.436 11.3926 188.924C11.3926 217.412 34.6284 240.506 63.2913 240.506Z" fill="url(#paint23_radial_698_1877)"/>
<path style="mix-blend-mode:screen" d="M221.519 267.089C239.346 267.089 253.797 252.92 253.797 235.443C253.797 217.966 239.346 203.797 221.519 203.797C203.692 203.797 189.24 217.966 189.24 235.443C189.24 252.92 203.692 267.089 221.519 267.089Z" fill="url(#paint24_radial_698_1877)"/>
<path style="mix-blend-mode:screen" d="M175.316 57.595C187.9 57.595 198.101 47.3939 198.101 34.8102C198.101 22.2265 187.9 12.0254 175.316 12.0254C162.732 12.0254 152.531 22.2265 152.531 34.8102C152.531 47.3939 162.732 57.595 175.316 57.595Z" fill="url(#paint25_radial_698_1877)"/>
<path d="M63.0908 104.383C56.3288 113.906 71.4389 113.55 79.0079 104.383C86.5769 95.2169 70.8267 93.4604 63.0908 104.383Z" fill="white"/>
<path d="M73.0172 87.766C71.0244 95.5867 81.9017 93.3924 104.376 82.1395C126.85 70.8867 127.321 61.8281 113.482 63.4879C99.643 65.1477 75.7572 76.8788 73.0172 87.766Z" fill="white"/>
<path style="mix-blend-mode:color-dodge" opacity="0.5" d="M123.661 116.698C145.015 95.3437 151.942 67.6483 139.132 54.8387C126.322 42.0291 98.6271 48.9559 77.2728 70.3102C55.9185 91.6645 48.9917 119.36 61.8013 132.169C74.6109 144.979 102.306 138.052 123.661 116.698Z" fill="url(#paint26_radial_698_1877)"/>
<path style="mix-blend-mode:screen" d="M187.975 98.734C198.461 98.734 206.962 90.233 206.962 79.7466C206.962 69.2602 198.461 60.7593 187.975 60.7593C177.488 60.7593 168.987 69.2602 168.987 79.7466C168.987 90.233 177.488 98.734 187.975 98.734Z" fill="url(#paint27_radial_698_1877)"/>
<path style="mix-blend-mode:screen" d="M230.38 168.355C234.225 168.355 237.342 165.379 237.342 161.709C237.342 158.039 234.225 155.063 230.38 155.063C226.535 155.063 223.418 158.039 223.418 161.709C223.418 165.379 226.535 168.355 230.38 168.355Z" fill="url(#paint28_radial_698_1877)"/>
<path style="mix-blend-mode:screen" d="M239.557 118.355C243.227 118.355 246.202 115.379 246.202 111.709C246.202 108.039 243.227 105.063 239.557 105.063C235.886 105.063 232.911 108.039 232.911 111.709C232.911 115.379 235.886 118.355 239.557 118.355Z" fill="url(#paint29_radial_698_1877)"/>
<path style="mix-blend-mode:screen" d="M109.81 180.38C114.878 180.38 118.987 176.271 118.987 171.203C118.987 166.134 114.878 162.025 109.81 162.025C104.742 162.025 100.633 166.134 100.633 171.203C100.633 176.271 104.742 180.38 109.81 180.38Z" fill="url(#paint30_radial_698_1877)"/>
<path style="mix-blend-mode:screen" d="M149.05 254.43C154.119 254.43 158.227 250.18 158.227 244.937C158.227 239.693 154.119 235.443 149.05 235.443C143.982 235.443 139.873 239.693 139.873 244.937C139.873 250.18 143.982 254.43 149.05 254.43Z" fill="url(#paint31_radial_698_1877)"/>
<defs>
<radialGradient id="paint0_radial_698_1877" cx="0" cy="0" r="1" gradientUnits="userSpaceOnUse" gradientTransform="translate(143.725 52.4666) scale(50.5912 50.5912)">
<stop offset="0.01" stop-color="#FFC22E"/>
<stop offset="0.2" stop-color="#FEBD2E"/>
<stop offset="0.43" stop-color="#FDAE2F"/>
<stop offset="0.69" stop-color="#FA9531"/>
<stop offset="0.96" stop-color="#F77333"/>
<stop offset="1" stop-color="#F66D33"/>
</radialGradient>
<linearGradient id="paint1_linear_698_1877" x1="178.542" y1="44.8772" x2="165.11" y2="27.0638" gradientUnits="userSpaceOnUse">
<stop stop-color="#E74136"/>
<stop offset="1" stop-color="#F09E50"/>
</linearGradient>
<linearGradient id="paint2_linear_698_1877" x1="203.097" y1="66.4193" x2="189.168" y2="45.861" gradientUnits="userSpaceOnUse">
<stop stop-color="#E74136"/>
<stop offset="1" stop-color="#F09E50"/>
</linearGradient>
<radialGradient id="paint3_radial_698_1877" cx="0" cy="0" r="1" gradientUnits="userSpaceOnUse" gradientTransform="translate(150.111 150) scale(149.889)">
<stop stop-color="#FF0003"/>
<stop offset="0.08" stop-color="#F90003"/>
<stop offset="0.2" stop-color="#E60003"/>
<stop offset="0.34" stop-color="#C80002"/>
<stop offset="0.5" stop-color="#9F0002"/>
<stop offset="0.66" stop-color="#690001"/>
<stop offset="0.84" stop-color="#290000"/>
<stop offset="0.94"/>
</radialGradient>
<radialGradient id="paint4_radial_698_1877" cx="0" cy="0" r="1" gradientUnits="userSpaceOnUse" gradientTransform="translate(153.165 154.1) scale(118.354 118.684)">
<stop stop-color="#E95A29"/>
<stop offset="0.19" stop-color="#E65928"/>
<stop offset="0.33" stop-color="#DD5527"/>
<stop offset="0.45" stop-color="#CD4F24"/>
<stop offset="0.56" stop-color="#B64620"/>
<stop offset="0.66" stop-color="#993B1B"/>
<stop offset="0.76" stop-color="#762E15"/>
<stop offset="0.86" stop-color="#4C1D0D"/>
<stop offset="0.95" stop-color="#1C0B05"/>
<stop offset="1"/>
</radialGradient>
<radialGradient id="paint5_radial_698_1877" cx="0" cy="0" r="1" gradientUnits="userSpaceOnUse" gradientTransform="translate(128.027 110.725) scale(146.514 146.994)">
<stop offset="0.01" stop-color="#DE6B52"/>
<stop offset="0.19" stop-color="#DB6952"/>
<stop offset="0.34" stop-color="#D16151"/>
<stop offset="0.47" stop-color="#C15550"/>
<stop offset="0.59" stop-color="#A9434E"/>
<stop offset="0.71" stop-color="#8B2C4C"/>
<stop offset="0.82" stop-color="#671049"/>
<stop offset="0.87" stop-color="#520048"/>
<stop offset="1" stop-color="#6B1944"/>
</radialGradient>
<radialGradient id="paint6_radial_698_1877" cx="0" cy="0" r="1" gradientUnits="userSpaceOnUse" gradientTransform="translate(121.354 95.9907) scale(124.362 124.575)">
<stop stop-color="#FFFF4A"/>
<stop offset="1"/>
</radialGradient>
<linearGradient id="paint7_linear_698_1877" x1="91.1436" y1="181.815" x2="92.6335" y2="263.248" gradientUnits="userSpaceOnUse">
<stop stop-color="#280077"/>
<stop offset="1" stop-color="#EAAEE6"/>
</linearGradient>
<linearGradient id="paint8_linear_698_1877" x1="213.865" y1="244.225" x2="213.388" y2="210.097" gradientUnits="userSpaceOnUse">
<stop stop-color="#280077"/>
<stop offset="1" stop-color="#EAAEE6"/>
</linearGradient>
<radialGradient id="paint9_radial_698_1877" cx="0" cy="0" r="1" gradientUnits="userSpaceOnUse" gradientTransform="translate(63.921 190.415) scale(49.1 49.0425)">
<stop offset="0.01" stop-color="#FFC22E"/>
<stop offset="0.2" stop-color="#FEBD2E"/>
<stop offset="0.43" stop-color="#FDAE2F"/>
<stop offset="0.69" stop-color="#FA9531"/>
<stop offset="0.96" stop-color="#F77333"/>
<stop offset="1" stop-color="#F66D33"/>
</radialGradient>
<radialGradient id="paint10_radial_698_1877" cx="0" cy="0" r="1" gradientUnits="userSpaceOnUse" gradientTransform="translate(162.778 141.814) scale(102.911 103.017)">
<stop offset="0.01" stop-color="#FFC22E"/>
<stop offset="0.2" stop-color="#FEBD2E"/>
<stop offset="0.43" stop-color="#FDAE2F"/>
<stop offset="0.69" stop-color="#FA9531"/>
<stop offset="0.96" stop-color="#F77333"/>
<stop offset="1" stop-color="#F66D33"/>
</radialGradient>
<linearGradient id="paint11_linear_698_1877" x1="48.1016" y1="237.342" x2="54.4307" y2="237.342" gradientUnits="userSpaceOnUse">
<stop offset="0.01" stop-color="#FFB80B"/>
<stop offset="0.39" stop-color="#FFB60C"/>
<stop offset="0.58" stop-color="#FEAE10"/>
<stop offset="0.73" stop-color="#FCA117"/>
<stop offset="0.85" stop-color="#FA8E21"/>
<stop offset="0.97" stop-color="#F7762E"/>
<stop offset="1" stop-color="#F66D33"/>
</linearGradient>
<linearGradient id="paint12_linear_698_1877" x1="62.6456" y1="182.629" x2="26.7006" y2="169.93" gradientUnits="userSpaceOnUse">
<stop stop-color="#E74136"/>
<stop offset="1" stop-color="#F09E50"/>
</linearGradient>
<linearGradient id="paint13_linear_698_1877" x1="100.332" y1="200.619" x2="56.1103" y2="200.619" gradientUnits="userSpaceOnUse">
<stop stop-color="#E74136"/>
<stop offset="1" stop-color="#F09E50"/>
</linearGradient>
<linearGradient id="paint14_linear_698_1877" x1="118.55" y1="252.947" x2="98.4852" y2="236.235" gradientUnits="userSpaceOnUse">
<stop stop-color="#E74136"/>
<stop offset="1" stop-color="#F09E50"/>
</linearGradient>
<linearGradient id="paint15_linear_698_1877" x1="205.696" y1="189.868" x2="225.91" y2="189.868" gradientUnits="userSpaceOnUse">
<stop stop-color="#E74136"/>
<stop offset="1" stop-color="#F09E50"/>
</linearGradient>
<linearGradient id="paint16_linear_698_1877" x1="226.582" y1="195.861" x2="245.575" y2="195.861" gradientUnits="userSpaceOnUse">
<stop stop-color="#E74136"/>
<stop offset="1" stop-color="#F09E50"/>
</linearGradient>
<linearGradient id="paint17_linear_698_1877" x1="198.102" y1="226.582" x2="236.088" y2="226.582" gradientUnits="userSpaceOnUse">
<stop stop-color="#E74136"/>
<stop offset="1" stop-color="#F09E50"/>
</linearGradient>
<linearGradient id="paint18_linear_698_1877" x1="48.7344" y1="97.1632" x2="239.874" y2="97.1632" gradientUnits="userSpaceOnUse">
<stop offset="0.02" stop-color="#EF8C1D"/>
<stop offset="0.18" stop-color="#BB6E17"/>
<stop offset="0.4" stop-color="#79470F"/>
<stop offset="0.6" stop-color="#452808"/>
<stop offset="0.77" stop-color="#1F1204"/>
<stop offset="0.91" stop-color="#080501"/>
<stop offset="1"/>
</linearGradient>
<linearGradient id="paint19_linear_698_1877" x1="173.899" y1="81.8818" x2="152.018" y2="99.0046" gradientUnits="userSpaceOnUse">
<stop stop-color="#8A2787"/>
<stop offset="1" stop-color="#8880EA"/>
</linearGradient>
<linearGradient id="paint20_linear_698_1877" x1="191.303" y1="73.9031" x2="179.988" y2="83.1937" gradientUnits="userSpaceOnUse">
<stop stop-color="#8A2787"/>
<stop offset="1" stop-color="#8880EA"/>
</linearGradient>
<linearGradient id="paint21_linear_698_1877" x1="99.7637" y1="185.06" x2="69.0212" y2="172.271" gradientUnits="userSpaceOnUse">
<stop stop-color="#E74136"/>
<stop offset="1" stop-color="#F09E50"/>
</linearGradient>
<linearGradient id="paint22_linear_698_1877" x1="85.5498" y1="219.922" x2="54.8069" y2="207.593" gradientUnits="userSpaceOnUse">
<stop stop-color="#E74136"/>
<stop offset="1" stop-color="#F09E50"/>
</linearGradient>
<radialGradient id="paint23_radial_698_1877" cx="0" cy="0" r="1" gradientUnits="userSpaceOnUse" gradientTransform="translate(63.2913 188.924) scale(51.8987 51.5823)">
<stop stop-color="#FF5B00"/>
<stop offset="0.17" stop-color="#C54600"/>
<stop offset="0.4" stop-color="#802E00"/>
<stop offset="0.6" stop-color="#491A00"/>
<stop offset="0.78" stop-color="#210C00"/>
<stop offset="0.92" stop-color="#090300"/>
<stop offset="1"/>
</radialGradient>
<radialGradient id="paint24_radial_698_1877" cx="0" cy="0" r="1" gradientUnits="userSpaceOnUse" gradientTransform="translate(161.511 191.817) scale(32.0231 31.4271)">
<stop stop-color="#FF5B00"/>
<stop offset="0.17" stop-color="#C54600"/>
<stop offset="0.4" stop-color="#802E00"/>
<stop offset="0.6" stop-color="#491A00"/>
<stop offset="0.78" stop-color="#210C00"/>
<stop offset="0.92" stop-color="#090300"/>
<stop offset="1"/>
</radialGradient>
<radialGradient id="paint25_radial_698_1877" cx="0" cy="0" r="1" gradientUnits="userSpaceOnUse" gradientTransform="translate(175.316 34.8102) scale(22.7848)">
<stop stop-color="#FF5B00"/>
<stop offset="0.17" stop-color="#C54600"/>
<stop offset="0.4" stop-color="#802E00"/>
<stop offset="0.6" stop-color="#491A00"/>
<stop offset="0.78" stop-color="#210C00"/>
<stop offset="0.92" stop-color="#090300"/>
<stop offset="1"/>
</radialGradient>
<radialGradient id="paint26_radial_698_1877" cx="0" cy="0" r="1" gradientUnits="userSpaceOnUse" gradientTransform="translate(107.215 72.5067) rotate(-45) scale(54.5866 32.752)">
<stop stop-color="#F1E532"/>
<stop offset="0.14" stop-color="#C5BB29"/>
<stop offset="0.37" stop-color="#80791A"/>
<stop offset="0.59" stop-color="#49450F"/>
<stop offset="0.77" stop-color="#212007"/>
<stop offset="0.91" stop-color="#090802"/>
<stop offset="1"/>
</radialGradient>
<radialGradient id="paint27_radial_698_1877" cx="0" cy="0" r="1" gradientUnits="userSpaceOnUse" gradientTransform="translate(187.975 79.7466) scale(18.9873)">
<stop stop-color="#317AFF"/>
<stop offset="0.1" stop-color="#2967D7"/>
<stop offset="0.29" stop-color="#1D4897"/>
<stop offset="0.47" stop-color="#132E61"/>
<stop offset="0.64" stop-color="#0B1A37"/>
<stop offset="0.78" stop-color="#050C19"/>
<stop offset="0.91" stop-color="#010307"/>
<stop offset="1"/>
</radialGradient>
<radialGradient id="paint28_radial_698_1877" cx="0" cy="0" r="1" gradientUnits="userSpaceOnUse" gradientTransform="translate(230.38 161.709) scale(6.96203 6.64557)">
<stop stop-color="#317AFF"/>
<stop offset="0.1" stop-color="#2967D7"/>
<stop offset="0.29" stop-color="#1D4897"/>
<stop offset="0.47" stop-color="#132E61"/>
<stop offset="0.64" stop-color="#0B1A37"/>
<stop offset="0.78" stop-color="#050C19"/>
<stop offset="0.91" stop-color="#010307"/>
<stop offset="1"/>
</radialGradient>
<radialGradient id="paint29_radial_698_1877" cx="0" cy="0" r="1" gradientUnits="userSpaceOnUse" gradientTransform="translate(239.557 111.709) scale(6.64557)">
<stop stop-color="#317AFF"/>
<stop offset="0.1" stop-color="#2967D7"/>
<stop offset="0.29" stop-color="#1D4897"/>
<stop offset="0.47" stop-color="#132E61"/>
<stop offset="0.64" stop-color="#0B1A37"/>
<stop offset="0.78" stop-color="#050C19"/>
<stop offset="0.91" stop-color="#010307"/>
<stop offset="1"/>
</radialGradient>
<radialGradient id="paint30_radial_698_1877" cx="0" cy="0" r="1" gradientUnits="userSpaceOnUse" gradientTransform="translate(109.81 171.203) scale(9.17722)">
<stop stop-color="#317AFF"/>
<stop offset="0.1" stop-color="#2967D7"/>
<stop offset="0.29" stop-color="#1D4897"/>
<stop offset="0.47" stop-color="#132E61"/>
<stop offset="0.64" stop-color="#0B1A37"/>
<stop offset="0.78" stop-color="#050C19"/>
<stop offset="0.91" stop-color="#010307"/>
<stop offset="1"/>
</radialGradient>
<radialGradient id="paint31_radial_698_1877" cx="0" cy="0" r="1" gradientUnits="userSpaceOnUse" gradientTransform="translate(149.05 244.937) scale(9.17722 9.49367)">
<stop stop-color="#317AFF"/>
<stop offset="0.1" stop-color="#2967D7"/>
<stop offset="0.29" stop-color="#1D4897"/>
<stop offset="0.47" stop-color="#132E61"/>
<stop offset="0.64" stop-color="#0B1A37"/>
<stop offset="0.78" stop-color="#050C19"/>
<stop offset="0.91" stop-color="#010307"/>
<stop offset="1"/>
</radialGradient>
</defs>
</svg>
