<svg width="200" height="200" viewBox="0 0 200 200" fill="none" xmlns="http://www.w3.org/2000/svg">
<path style="mix-blend-mode:screen" d="M100 200C155.228 200 200 155.228 200 100C200 44.7715 155.228 0 100 0C44.7715 0 0 44.7715 0 100C0 155.228 44.7715 200 100 200Z" fill="url(#paint0_radial_359_1924)"/>
<path style="mix-blend-mode:screen" d="M99.9991 178.54C143.376 178.54 178.539 143.377 178.539 100C178.539 56.6236 143.376 21.46 99.9991 21.46C56.6226 21.46 21.459 56.6236 21.459 100C21.459 143.377 56.6226 178.54 99.9991 178.54Z" fill="url(#paint1_radial_359_1924)"/>
<path style="mix-blend-mode:screen" d="M100.001 174.948C141.394 174.948 174.949 141.393 174.949 100C174.949 58.6072 141.394 25.0518 100.001 25.0518C58.6082 25.0518 25.0527 58.6072 25.0527 100C25.0527 141.393 58.6082 174.948 100.001 174.948Z" fill="url(#paint2_radial_359_1924)"/>
<path fill-rule="evenodd" clip-rule="evenodd" d="M117.854 143.772L138.79 144.966C138.79 144.966 156.122 139.744 164.768 128.735L168.836 105.816L162.116 84.8477L125.613 108.195C125.613 108.195 117.33 136.202 117.854 143.772Z" fill="url(#paint3_linear_359_1924)"/>
<path fill-rule="evenodd" clip-rule="evenodd" d="M163.744 100.299C163.752 109.221 162 118.058 158.589 126.303C155.177 134.547 150.173 142.038 143.863 148.346C137.553 154.655 130.061 159.657 121.816 163.066C113.57 166.475 104.733 168.225 95.8105 168.215C94.6059 168.215 93.3874 168.187 92.1967 168.115H92.1828C90.4048 168.029 88.6407 167.856 86.9064 167.641C74.1169 165.967 62.0748 160.663 52.2058 152.358C45.8405 147.001 40.4933 140.541 36.4206 133.287C36.0045 132.54 35.6022 131.782 35.202 131.021C35.202 130.993 35.1861 130.979 35.1722 130.95C34.7561 130.133 34.3758 129.315 33.9975 128.485H33.9815C32.7943 125.877 31.7793 123.195 30.9431 120.455C30.3079 118.456 29.7762 116.427 29.3502 114.374C29.344 114.366 29.3394 114.357 29.3367 114.348C29.334 114.338 29.3331 114.328 29.3343 114.318C29.0336 112.869 28.7749 111.407 28.5758 109.938C28.1135 106.747 27.8832 103.527 27.8868 100.303C27.8868 98.4233 27.9585 96.5457 28.1297 94.7099C28.2173 93.5351 28.3447 92.3724 28.504 91.2116C29.3626 84.6537 31.1939 78.2604 33.9377 72.2425C39.3351 60.3585 48.0392 50.2791 59.0104 43.2083C69.9816 36.1374 82.7562 32.3739 95.8085 32.3672C96.5253 32.3672 97.2421 32.3811 97.945 32.3951C98.7036 32.4249 99.4641 32.4528 100.225 32.5105C104.066 32.7596 107.88 33.3351 111.624 34.2308C113.774 34.7465 115.881 35.3498 117.945 36.0666C119.351 36.5405 120.733 37.0622 122.091 37.6435C123.108 38.0736 124.098 38.5176 125.087 38.9915C125.259 39.0771 125.43 39.1488 125.603 39.2344C132.159 42.4425 138.158 46.6839 143.367 51.7961C144.114 52.5129 144.831 53.2576 145.548 54.0182C146.022 54.5339 146.493 55.0655 146.953 55.5951C147.75 56.4851 148.5 57.417 149.247 58.3488C155.18 65.8931 159.441 74.6122 161.749 83.9282C163.079 89.2833 163.749 94.781 163.744 100.299Z" fill="url(#paint4_radial_359_1924)"/>
<path style="mix-blend-mode:multiply" opacity="0.71" fill-rule="evenodd" clip-rule="evenodd" d="M56.4844 95.0322C56.4844 95.0322 68.4985 105.77 71.4871 110.194C74.4757 114.618 84.5267 144.825 84.7975 151.185C85.0683 157.544 79.0512 166.136 79.0512 166.136C79.0512 166.136 68.853 163.263 63.1505 159.86L66.5971 136.138L56.4844 95.0322Z" fill="url(#paint5_linear_359_1924)"/>
<path style="mix-blend-mode:multiply" opacity="0.71" fill-rule="evenodd" clip-rule="evenodd" d="M127.404 115.003L146.2 124.317C146.2 124.317 149.927 126.826 154.364 122.127C154.364 122.127 154.81 115.574 152.094 109.256L127.404 115.003Z" fill="url(#paint6_linear_359_1924)"/>
<g style="mix-blend-mode:multiply" opacity="0.3">
<path fill-rule="evenodd" clip-rule="evenodd" d="M58.4461 98.5906C56.9129 105.123 57.8866 111.979 60.2481 118.203C60.7598 119.549 61.3053 121.273 62.1396 122.486C62.7986 123.439 63.9116 124.011 64.8156 124.7C66.0102 125.61 67.0973 126.645 68.2721 127.579C69.6061 128.636 70.9581 129.283 72.5669 129.855C75.6232 130.942 78.6934 131.756 81.925 130.8C84.8897 129.868 87.4606 127.977 89.2342 125.424C90.0067 124.278 90.9007 123.262 91.717 122.155C92.5334 121.048 93.0252 119.686 93.5249 118.434C94.5205 115.951 94.8291 112.811 94.6539 110.155C94.585 108.88 94.4017 107.614 94.1063 106.372C93.7818 105.084 93.1924 103.889 92.9455 102.577C92.5473 100.428 91.5816 98.521 90.7215 96.508C88.5851 91.5183 83.034 88.5437 77.9149 87.789C75.5117 87.4406 73.1363 87.9881 70.7709 88.3625C68.2781 88.7467 66.4622 89.9056 64.2422 90.9927C62.936 91.6338 61.6537 92.3506 60.7179 93.4875C58.5018 96.1715 58.1813 99.9565 58.4461 98.5906Z" fill="#7D72B3"/>
<path fill-rule="evenodd" clip-rule="evenodd" d="M78.9434 134.744C80.0962 133.707 81.6651 132.524 83.1484 132.003C84.1659 131.646 85.1157 132.035 85.946 132.628C87.6205 133.823 87.2999 136.61 85.9758 138.024C83.5586 140.612 79.007 138.543 79.0249 135.25L78.9434 134.744Z" fill="#7D72B3"/>
<path fill-rule="evenodd" clip-rule="evenodd" d="M102.378 113.073C101.711 112.171 101.247 111.879 101.283 110.969C101.309 110.292 102.08 109.002 102.428 108.353C103.466 106.427 105.218 104.986 107.306 104.337C108.735 103.877 110.226 103.642 111.726 103.64C113.12 103.64 114.269 104.038 115.579 104.462C117.955 105.229 120.579 106.495 122.327 108.351C123.972 110.099 123.733 113.255 122.291 115.035C121.19 116.396 119.587 117.225 118.134 118.155C116.541 119.174 114.793 120.478 112.957 120.986C111.762 121.314 110.904 121.484 109.729 121.139C108.662 120.843 107.625 120.443 106.635 119.945C105.685 119.463 104.965 119.264 104.188 118.503C103.51 117.86 102.928 117.122 102.46 116.313C101.777 115.128 102.016 113.679 102.378 113.073Z" fill="#7D72B3"/>
<path fill-rule="evenodd" clip-rule="evenodd" d="M97.2051 100.765C96.9324 101.647 96.3291 103.425 97.922 103.327C98.6467 103.282 99.7279 102.67 100.112 102.222C101.705 100.369 97.9041 99.1202 97.5676 100.765H97.2051Z" fill="#7D72B3"/>
<path fill-rule="evenodd" clip-rule="evenodd" d="M120.902 145.176C120.141 143.583 119.972 142.97 120.488 141.269C121.329 138.606 122.465 136.045 123.873 133.633C124.727 132.174 125.778 130.185 127.389 129.486C128.724 128.92 130.145 128.584 131.592 128.49C134.65 128.303 137.016 129.749 139.192 131.766C140.534 133.01 141.653 134.048 142.434 135.748C143.108 137.223 143.509 139.171 143.351 140.787C142.903 145.393 138.893 148.652 135.927 151.796C133.585 154.277 129.677 157.393 126.029 156.067C123.506 155.151 122.001 152.483 120.968 150.149C120.289 148.616 120.54 146.822 120.902 145.176Z" fill="#7D72B3"/>
<path fill-rule="evenodd" clip-rule="evenodd" d="M116.921 133.122C116.029 133.849 115.727 134.741 115.514 135.883C115.356 136.716 115.014 138.561 115.828 139.234C116.543 139.832 117.857 138.836 118.429 138.46C118.894 138.159 119.309 137.786 119.655 137.353C119.854 137.118 120.115 136.913 120.231 136.624C120.416 136.162 120.348 135.517 120.326 135.031C120.3 134.422 119.954 133.93 119.53 133.524C119.171 133.18 118.869 133.094 118.383 132.99C117.859 132.875 117.208 132.656 116.921 133.122Z" fill="#7D72B3"/>
<path fill-rule="evenodd" clip-rule="evenodd" d="M91.0483 162.978C90.9507 163.245 90.8492 163.412 90.9926 163.669C91.1359 163.926 91.5898 164.302 91.779 164.475C92.4719 165.116 93.2106 165.305 94.1145 165.497C95.0185 165.688 95.9244 165.801 96.8224 165.62C97.3958 165.505 98.1246 165.377 98.5029 164.889C99.2037 163.983 98.6223 162.621 98.1584 161.755C97.802 161.092 97.3003 160.497 96.8921 159.864C96.4208 159.194 95.8524 158.598 95.2056 158.096C94.4391 157.457 93.2524 156.581 92.2629 157.299C91.329 157.97 90.8133 159.181 90.5665 160.262C90.4262 160.897 90.462 161.558 90.67 162.173C90.8233 162.588 91.1259 162.874 91.0483 162.978Z" fill="#7D72B3"/>
<path fill-rule="evenodd" clip-rule="evenodd" d="M146.158 136.626C145.618 136.174 145.415 136.15 145.475 135.535C145.502 134.888 145.623 134.248 145.833 133.636C146.361 132.301 147.466 131.196 148.525 130.263C149.143 129.752 149.858 129.371 150.626 129.142C151.024 129.008 151.345 128.849 151.759 128.907C152.083 128.945 152.389 129.079 152.638 129.292C152.886 129.505 153.065 129.786 153.153 130.101C153.495 131.145 152.981 132.307 152.414 133.162C151.689 134.255 151.124 135.491 149.973 136.21C149.441 136.542 148.884 136.869 148.32 137.148C147.982 137.317 147.601 137.496 147.209 137.448C146.93 137.417 146.078 137.196 146.158 136.626Z" fill="#7D72B3"/>
<path fill-rule="evenodd" clip-rule="evenodd" d="M35.2643 89.5349C35.4057 90.1322 35.4335 90.7594 35.6267 91.3448C36.0249 92.5395 36.8891 93.5748 37.7811 94.4469C39.4735 96.1015 41.8846 96.7805 44.1425 97.2344C45.3378 97.4975 46.555 97.6495 47.7783 97.6884C48.7559 97.7003 49.7913 97.9094 50.7649 97.8337C52.3802 97.7189 53.9473 97.2331 55.3444 96.4141C57.4151 95.1876 59.1115 93.2801 58.4285 90.7614C58.0562 89.3816 57.1443 88.1989 56.1468 87.2193C55.0556 86.1481 54.1796 85.0291 52.7619 84.382C52.1367 84.0953 51.4996 83.8066 50.8624 83.5517C50.0939 83.2471 49.3691 82.825 48.5488 82.6836C47.8698 82.5661 47.167 82.3033 46.4801 82.2715C45.7902 82.2333 45.0984 82.2399 44.4093 82.2914C41.9643 82.4905 39.4317 83.9221 37.7412 85.6643C37.0682 86.3552 36.4948 87.1277 35.8258 87.8106C35.1906 88.4458 35.2643 89.2044 35.2643 89.5349Z" fill="#7D72B3"/>
<path fill-rule="evenodd" clip-rule="evenodd" d="M85.5867 72.4536C84.9077 73.5128 84.6589 73.7517 84.5593 74.9922C84.4258 76.5361 84.5523 78.0915 84.9336 79.5936C85.8236 83.1058 88.5773 85.9371 90.9268 88.5833C94.7815 92.9258 99.1281 96.8801 104.428 99.369C106.517 100.351 108.725 101.464 111.112 101.149C113.426 100.846 115.527 99.9782 117.731 99.2774C119.696 98.6206 121.712 98.1304 123.76 97.812C124.703 97.6825 125.645 97.5571 126.593 97.4536C127.969 97.3003 129.132 96.7487 130.446 96.3644C132.343 95.8069 134.322 95.4685 136.204 94.8632C137.064 94.5856 137.898 94.236 138.699 93.8179C140.015 93.1349 141.427 92.7307 142.735 92.008C147.577 89.3379 150.882 83.9959 151.139 78.4288C151.27 75.5915 150.235 72.6228 148.809 70.2136C148.001 68.8457 146.978 67.6252 146.084 66.3031C144.912 64.6182 143.567 63.0612 142.07 61.6579C139.32 59.0217 136.22 57.3214 132.592 56.2024C130.672 55.6024 128.669 55.3081 126.657 55.3303C123.451 55.3303 120.186 55.7803 117.046 56.4134C113.906 57.0466 110.718 57.7216 107.628 58.5917C104.375 59.5095 101.097 60.8993 98.0369 62.3289C94.8811 63.8023 92.1294 65.7615 90.1104 68.6227C89.6565 69.2658 89.1309 69.8851 88.6988 70.5342C88.3583 71.0479 88.1731 71.4461 87.6753 71.8164C86.7674 72.4914 85.9232 72.6407 85.5867 72.4536Z" fill="#7D72B3"/>
</g>
<path style="mix-blend-mode:multiply" opacity="0.71" fill-rule="evenodd" clip-rule="evenodd" d="M153.828 84.7681L163.744 100.298C163.744 100.298 164.058 89.915 162.599 87.8244C161.139 85.7337 153.828 84.7681 153.828 84.7681Z" fill="url(#paint7_linear_359_1924)"/>
<path style="mix-blend-mode:multiply" opacity="0.71" fill-rule="evenodd" clip-rule="evenodd" d="M35.627 73.0486C35.627 73.0486 55.026 85.5705 108.082 83.2031L129.445 84.8497C129.445 84.8497 149.744 77.9427 154.355 65.807C154.355 65.807 148.36 57.1618 146.956 55.5848C145.553 54.0079 120.57 59.3997 120.57 59.3997L35.627 73.0486Z" fill="url(#paint8_linear_359_1924)"/>
<path fill-rule="evenodd" clip-rule="evenodd" d="M38.4842 59.9235V55.9812C38.4842 55.9812 49.2081 42.1153 66.867 26.8855C66.867 26.8855 112.779 22.8277 125.821 26.8855L130.982 38.6926L146.196 44.4667L146.954 55.5889C146.954 55.5889 136.959 71.4718 118.757 77.0189L109.55 74.8287C109.55 74.8287 99.4669 79.01 72.8442 79.01C45.6421 79.01 35.625 73.0507 35.625 73.0507V63.9196L38.4842 59.9235Z" fill="url(#paint9_linear_359_1924)"/>
<path fill-rule="evenodd" clip-rule="evenodd" d="M76.9117 146.004L72.4576 157.642L58.7072 160.911L44.7996 160.28C44.7996 160.28 30.0457 150.922 22.9774 136.12L24.5104 122.656L19.2918 117.838C19.2918 117.838 18.0295 105.262 28.4966 93.7779C28.4966 93.7779 40.0449 90.5663 56.4852 95.0263L66.6218 106.272C66.6218 106.272 74.9206 122.103 76.9117 146.004Z" fill="url(#paint10_linear_359_1924)"/>
<path style="mix-blend-mode:multiply" opacity="0.71" fill-rule="evenodd" clip-rule="evenodd" d="M94.9902 153.962C94.9902 153.962 98.1103 158.088 100.012 158.902C101.913 159.716 112.51 162.161 113.732 162.026C114.955 161.891 114.955 150.705 114.276 148.895C113.812 147.722 113.17 146.628 112.374 145.649L94.9902 153.962Z" fill="url(#paint11_linear_359_1924)"/>
<path fill-rule="evenodd" clip-rule="evenodd" d="M171.579 69.7099L171.05 74.14L163.324 88.5375C158.994 88.651 154.376 85.1965 153.833 84.7664C153.819 84.7505 153.789 84.7365 153.775 84.7226C150.679 79.6752 149.594 68.5769 149.594 68.5769L153.208 64.1189L159.129 63.0437L160.62 63.9178L165.869 62.4404L169.974 65.0567L171.193 65.8531L171.579 69.7099Z" fill="url(#paint12_linear_359_1924)"/>
<path fill-rule="evenodd" clip-rule="evenodd" d="M155.413 91.3209C155.413 91.3209 146.779 86.5981 142.566 86.7574L131.792 94.1244C131.792 94.1244 127.412 106.001 127.412 114.993C127.412 114.993 137.796 118.738 145.099 117.709C145.099 117.709 153.441 113.999 156.325 107.901C156.319 107.911 157.454 97.4495 155.413 91.3209Z" fill="url(#paint13_linear_359_1924)"/>
<path fill-rule="evenodd" clip-rule="evenodd" d="M38.4844 55.9813C38.4844 55.9813 58.445 56.6364 80.4504 50.9897C80.4504 50.9897 102.729 43.1727 107.075 40.1821C111.422 37.1915 125.821 26.8857 125.821 26.8857C125.821 26.8857 102.999 21.1971 66.8672 26.8857C66.8692 26.8857 47.8663 41.0821 38.4844 55.9813Z" fill="url(#paint14_linear_359_1924)"/>
<path fill-rule="evenodd" clip-rule="evenodd" d="M130.984 38.6929C130.984 38.6929 117.128 54.6673 115.499 55.9814C113.871 57.2955 91.2917 66.3908 91.2917 66.3908L78.5488 69.6621C78.5488 69.6621 94.4874 69.5307 97.2032 69.6621L102.274 64.7223L119.844 65.447C119.844 65.447 135.972 55.7206 146.196 44.465L130.984 38.6929Z" fill="url(#paint15_linear_359_1924)"/>
<path fill-rule="evenodd" clip-rule="evenodd" d="M35.627 63.9194L49.7636 65.2654C49.7636 65.2654 59.1815 65.6736 64.6152 63.8398C64.6152 63.8398 45.6999 62.9139 38.4961 59.9233L35.627 63.9194Z" fill="url(#paint16_linear_359_1924)"/>
<path fill-rule="evenodd" clip-rule="evenodd" d="M131.791 94.1265C131.791 94.1265 137.963 96.4401 142.017 96.1693C146.071 95.8985 155.411 91.3131 155.411 91.3131C155.411 91.3131 151.132 87.5718 142.565 86.7495L131.791 94.1265Z" fill="url(#paint17_linear_359_1924)"/>
<path fill-rule="evenodd" clip-rule="evenodd" d="M19.2875 117.85C19.2875 117.85 37.94 113.774 43.0611 111.714C48.1822 109.653 56.481 95.0363 56.481 95.0363C56.481 95.0363 46.2348 90.2836 28.4963 93.7839C28.4963 93.7839 17.4438 104.068 19.2875 117.85Z" fill="url(#paint18_linear_359_1924)"/>
<path fill-rule="evenodd" clip-rule="evenodd" d="M24.5136 122.667C24.5136 122.667 37.5772 120.948 42.1865 119.68C46.7959 118.412 54.0135 113.95 54.0135 113.95C54.0135 113.95 48.4803 126.545 46.4813 129.397C46.4813 129.397 30.9608 135.244 22.9686 136.128C22.9766 136.138 22.5544 129.116 24.5136 122.667Z" fill="url(#paint19_linear_359_1924)"/>
<path fill-rule="evenodd" clip-rule="evenodd" d="M94.3066 150.854C94.3066 150.854 97.2933 144.311 100.827 142.914C100.827 142.914 109.25 142.991 112.376 145.649L110.335 158.04L98.6532 157.243C98.6532 157.243 94.3066 155.033 94.3066 150.854Z" fill="url(#paint20_linear_359_1924)"/>
<path fill-rule="evenodd" clip-rule="evenodd" d="M94.3066 150.854C94.3066 150.854 97.9742 151.909 101.371 150.854C104.768 149.799 108.977 144.319 108.977 144.319C108.977 144.319 106.261 142.545 100.827 142.914C100.827 142.908 95.2584 145.253 94.3066 150.854Z" fill="url(#paint21_linear_359_1924)"/>
<path style="mix-blend-mode:multiply" opacity="0.5" fill-rule="evenodd" clip-rule="evenodd" d="M76.9124 146.004L72.4583 157.642L58.7079 160.911L44.8003 160.28C44.8003 160.28 58.5785 159.434 58.9946 157.397C59.4108 155.36 60.3426 149.526 60.3426 149.526C56.9577 139.346 46.4927 129.394 46.4927 129.394C50.8731 123.222 54.019 113.937 54.019 113.937L48.0835 117.251L44.2129 111.078C50.6361 105.358 56.4859 95.0342 56.4859 95.0342L66.6225 106.272C66.6225 106.272 74.9213 122.103 76.9124 146.004Z" fill="url(#paint22_linear_359_1924)"/>
<path style="mix-blend-mode:multiply" opacity="0.5" fill-rule="evenodd" clip-rule="evenodd" d="M103.789 149.536L110.336 158.05L112.373 145.649L108.978 144.321L103.789 149.536Z" fill="url(#paint23_linear_359_1924)"/>
<path style="mix-blend-mode:multiply" opacity="0.71" fill-rule="evenodd" clip-rule="evenodd" d="M142.02 96.177C142.02 96.177 144.297 104.028 144.57 107.285C144.843 110.543 145.094 117.719 145.094 117.719C145.094 117.719 151.364 115.6 156.319 107.91C156.319 107.91 157.628 98.9506 155.414 91.3208C155.412 91.3208 147.212 95.52 142.02 96.177Z" fill="url(#paint24_linear_359_1924)"/>
<path style="mix-blend-mode:multiply" opacity="0.5" fill-rule="evenodd" clip-rule="evenodd" d="M154.98 69.851L156.633 71.1472C156.633 71.1472 160.243 69.6778 160.36 67.8181C160.478 65.9584 160.607 63.9176 160.607 63.9176L159.126 63.0415L154.98 69.851Z" fill="url(#paint25_linear_359_1924)"/>
<path style="mix-blend-mode:multiply" opacity="0.71" fill-rule="evenodd" clip-rule="evenodd" d="M171.579 69.7098L171.049 74.1399L163.323 88.5374C158.993 88.6509 154.376 85.1964 153.832 84.7663C156.215 86.2944 158.987 87.1051 161.818 87.1019C161.818 87.1019 162.091 82.5582 161.818 79.703C161.545 76.8478 159.495 71.1414 159.495 71.1414L169.974 65.0566L171.192 65.8531L171.579 69.7098Z" fill="url(#paint26_linear_359_1924)"/>
<path fill-rule="evenodd" clip-rule="evenodd" d="M159.125 63.0415L154.98 69.851C154.98 69.851 152.489 70.5041 149.584 68.5827L153.196 64.1187L159.125 63.0415Z" fill="url(#paint27_linear_359_1924)"/>
<path fill-rule="evenodd" clip-rule="evenodd" d="M160.606 63.9179L160.359 67.8184C160.359 67.8184 158.239 70.5741 155.438 71.7687C155.438 71.7687 160.813 71.1833 163.302 70.0942C163.302 70.0942 169.765 67.5058 171.199 65.8472L165.863 62.4365L160.606 63.9179Z" fill="url(#paint28_linear_359_1924)"/>
<path style="mix-blend-mode:multiply" opacity="0.5" fill-rule="evenodd" clip-rule="evenodd" d="M82.1543 50.1792L95.827 64.5508L115.509 55.9892C115.509 55.9892 129.906 40.1999 130.994 38.7007L125.833 26.8936C125.833 26.8936 111.706 36.6498 107.087 40.19C102.467 43.7301 82.1543 50.1792 82.1543 50.1792Z" fill="url(#paint29_linear_359_1924)"/>
<path style="mix-blend-mode:multiply" opacity="0.5" fill-rule="evenodd" clip-rule="evenodd" d="M102.276 64.7222L109.552 74.8329C109.552 74.8329 104.007 76.6965 98.113 77.4213L97.2051 69.668L102.276 64.7222Z" fill="url(#paint30_linear_359_1924)"/>
<path style="mix-blend-mode:multiply" opacity="0.5" fill-rule="evenodd" clip-rule="evenodd" d="M119.845 65.4548L118.758 77.025C118.758 77.025 137.842 70.1876 146.956 55.595L146.201 44.4648C146.201 44.4648 131.648 58.1575 119.845 65.4548Z" fill="url(#paint31_linear_359_1924)"/>
<path style="mix-blend-mode:multiply" opacity="0.2" fill-rule="evenodd" clip-rule="evenodd" d="M40.8555 64.4175L54.0145 78.2654H60.5571L61.7518 64.5509C61.7518 64.5509 46.992 65.9267 40.8555 64.4175Z" fill="url(#paint32_linear_359_1924)"/>
<g style="mix-blend-mode:soft-light">
<path fill-rule="evenodd" clip-rule="evenodd" d="M43.7755 51.5014C43.5008 50.7448 43.6859 50.468 44.1001 49.7691C44.7551 48.6701 45.6532 47.7462 46.4456 46.7507C47.9847 44.8133 49.6313 43.0094 51.7 41.6157C53.8424 40.1761 55.943 38.6151 58.2069 37.3707C59.754 36.5185 61.3169 35.6484 62.9855 35.0431C64.1542 34.615 65.3747 34.2785 66.5594 33.9162C68.8949 33.2073 72.0747 32.8967 74.3246 34.0914C75.6985 34.8201 76.2341 36.1681 76.7478 37.5578C77.0027 38.2428 77.2217 38.8321 77.0883 39.5788C76.9301 40.246 76.683 40.8889 76.3536 41.4902C75.4098 43.4136 73.6596 45.1777 72.021 46.5237C68.676 49.2674 64.8809 51.2485 60.7972 52.6363C59.7041 53.0066 58.6071 53.4208 57.4841 53.6876C56.7554 53.8608 56.0067 53.9404 55.28 54.1216C53.5896 54.5646 51.8714 54.8939 50.137 55.1072C49.6631 55.159 49.1275 55.3242 48.6596 55.3223C48.2335 55.3223 47.8194 55.0555 47.3992 54.9818C46.6984 54.8603 45.7029 54.8882 45.0777 54.5418C43.4072 53.6239 43.2101 51.812 43.7755 51.5014Z" fill="#FFA989"/>
<path fill-rule="evenodd" clip-rule="evenodd" d="M71.6705 49.5083C71.8198 48.8034 71.78 48.7736 72.2241 48.3733C72.4741 48.0115 72.7625 47.6778 73.0842 47.3778C73.4921 47.0258 73.9383 46.7206 74.4142 46.4679C75.7861 45.7053 77.4606 44.8531 79.0654 45.325C80.1485 45.6436 80.7577 46.1652 80.5069 47.3479C80.3655 48.015 79.8101 48.6879 79.2884 49.1001C78.3546 49.8428 77.2853 50.2848 76.1922 50.7447C75.3639 51.0932 74.1514 51.3002 73.2514 51.1011C72.4291 50.9199 71.555 50.0259 71.6705 49.5083Z" fill="#FFA989"/>
<path fill-rule="evenodd" clip-rule="evenodd" d="M95.3949 29.948C94.1445 30.3462 93.4795 30.5852 92.4402 31.292C90.8951 32.3453 89.2345 33.4025 87.8208 34.6291C86.8909 35.4133 86.0888 36.3376 85.4435 37.3688C84.9637 38.1772 84.8083 39.1349 84.7366 40.0627C84.6649 40.9906 84.9656 42.7248 86.001 43.1509C86.3992 43.3141 87.116 43.1688 87.5102 43.1728C88.3858 43.1654 89.2564 43.0401 90.0986 42.8004C90.9747 42.5834 91.8567 42.5257 92.7288 42.2688C93.6009 42.012 94.4949 41.7611 95.3909 41.5401C97.3203 41.0602 99.1899 40.5963 100.996 39.7382C102.7 38.9258 104.47 38.2508 106.143 37.3688C107.351 36.7336 108.532 36.0845 109.776 35.5211C111.495 34.7425 113.217 33.982 114.872 33.076C115.518 32.704 116.103 32.2338 116.606 31.6823C117.149 31.1287 117.8 30.6608 118.199 29.9859C118.38 29.6832 118.796 29.1158 118.796 28.7394C118.78 28.2616 118.093 27.6722 117.737 27.4492C117.054 27.0614 116.299 26.8162 115.519 26.7284C114.425 26.5672 113.32 26.5039 112.216 26.5393C110.883 26.6316 109.557 26.8038 108.245 27.055C107.399 27.2143 106.652 27.4213 105.782 27.4353C104.249 27.4513 102.718 27.5797 101.203 27.8196C100.323 27.9629 99.4766 28.2656 98.6145 28.5085C97.838 28.7295 97.0216 28.8908 96.2789 29.2372C95.9086 29.4005 94.5726 29.6971 95.3949 29.948Z" fill="#FFA989"/>
<path fill-rule="evenodd" clip-rule="evenodd" d="M91.773 27.4116C90.9407 27.8098 89.7082 28.2319 89.2024 29.1C88.8699 29.6675 89.3318 29.781 89.8336 29.783C90.7216 29.783 91.6256 29.3649 92.4877 29.1319C93.1705 28.9411 93.8146 28.6325 94.3912 28.22C94.652 28.0209 95.1737 27.8397 94.9984 27.4474C94.8949 27.2165 94.3554 26.9736 94.1304 26.9059C93.6979 26.7786 93.241 26.7581 92.7988 26.8462C92.3567 26.9343 91.9424 27.1283 91.5917 27.4116H91.773Z" fill="#FFA989"/>
<path fill-rule="evenodd" clip-rule="evenodd" d="M121.476 53.6736C120.721 53.9185 119.971 54.0499 119.232 54.271C118.493 54.492 117.796 54.9738 117.159 55.4258C116.062 56.2023 114.873 57.1979 114.21 58.3885C113.655 59.3841 113.056 61.19 114.222 62.0063C115.827 63.1273 118.332 61.9884 119.935 61.4548C122.449 60.6205 125.217 59.6509 127.349 58.0182C128.258 57.2917 129.128 56.5188 129.956 55.7025C130.675 55.0185 131.341 54.2803 131.947 53.4944C132.371 52.9389 132.435 52.1724 132.359 51.4934C132.283 50.8144 131.646 50.3167 131.051 50.0817C129.856 49.6118 128.849 50.1713 127.682 50.3625C126.464 50.5616 125.044 50.914 123.955 51.5312C122.296 52.479 120.544 53.2854 121.476 53.6736Z" fill="#FFA989"/>
<path fill-rule="evenodd" clip-rule="evenodd" d="M125.642 46.9717C125.442 46.7117 125.315 46.4042 125.271 46.0797C125.638 45.9841 125.845 45.562 126.096 45.327C126.319 45.1359 126.569 44.9783 126.838 44.8591C127.272 44.6461 128.057 44.2757 128.547 44.4609C129.482 44.8193 129.709 45.7312 129.227 46.6113C128.984 47.0426 128.643 47.4111 128.232 47.6876C127.821 47.9641 127.351 48.141 126.86 48.2041C126.139 48.2977 124.58 47.2783 125.466 46.4321L125.642 46.9717Z" fill="#FFA989"/>
<path fill-rule="evenodd" clip-rule="evenodd" d="M136.327 44.437C135.704 44.5525 134.854 44.5604 134.274 44.8491C134.153 44.9108 133.991 45.106 133.864 45.1936C133.241 45.6137 132.53 45.9522 131.965 46.444C131.349 46.9816 130.664 47.9572 130.987 48.8034C132.104 51.7383 136.19 50.1016 138.053 49.0642C138.68 48.7158 139.091 48.2101 139.662 47.7959C140.092 47.4853 140.443 47.2524 140.757 46.8004C141.213 46.1513 141.309 45.7113 140.99 44.9646C140.751 44.4091 140.174 44.0627 139.596 43.9292C139.092 43.785 138.571 43.7067 138.047 43.6963C136.805 43.752 135.742 44.5584 134.702 45.1557L136.327 44.437Z" fill="#FFA989"/>
<path fill-rule="evenodd" clip-rule="evenodd" d="M29.4687 97.1409C26.6553 98.461 24.1604 100.605 22.5775 103.301C21.8744 104.497 21.2832 105.754 20.8115 107.058C20.5606 107.741 20.459 108.452 20.1922 109.141C19.9368 109.711 19.7401 110.305 19.6049 110.915C19.352 112.353 18.675 115.274 20.9846 115.465C22.02 115.55 23.2306 115.298 24.2401 115.088C26.2311 114.676 28.3058 113.872 30.1436 113.008C32.1864 112.046 34.2512 110.969 36.0133 109.555C37.6739 108.221 39.5315 107.132 41.0368 105.609C42.8288 103.789 45.4312 100.804 43.4023 98.2121C41.4868 95.7631 37.3533 96.3226 34.6714 96.6431C33.405 96.7964 31.9933 96.8104 30.7608 97.1827C30.452 97.2746 30.1531 97.3973 29.8688 97.5491C29.6777 97.6546 29.5244 97.8657 29.4687 97.1409Z" fill="#FFA989"/>
<path fill-rule="evenodd" clip-rule="evenodd" d="M39.4304 109.277C39.6155 108.653 39.6772 108.377 40.1232 107.947C40.5692 107.517 41.0093 107.009 41.4593 106.553C42.1621 105.828 43.6494 104.984 44.6908 104.924C45.1607 104.896 45.7979 104.91 46.1443 105.291C46.4908 105.671 46.3335 106.471 46.1443 106.915C45.9818 107.339 45.7179 107.716 45.3757 108.014C44.9556 108.383 44.4598 108.906 43.968 109.169C43.2801 109.504 42.5612 109.77 41.8216 109.966C41.2482 110.135 40.3622 110.43 39.8206 109.966C39.506 109.695 39.1994 109.06 39.4304 109.277Z" fill="#FFA989"/>
<path fill-rule="evenodd" clip-rule="evenodd" d="M31.642 124.128C31.0447 124.266 30.1627 124.341 29.6171 124.725C29.1532 125.09 28.7471 125.522 28.4125 126.008C27.7016 126.942 27.0884 127.951 26.3796 128.891C25.7945 129.678 25.2554 130.498 24.7648 131.348C24.4303 131.915 24.2472 132.447 24.5657 133.06C25.3622 134.593 27.841 134.223 29.1751 133.902C30.6086 133.558 31.8949 132.863 33.2389 132.274C34.4495 131.742 35.7098 131.278 36.8706 130.659C38.8736 129.578 41.3107 128.469 42.3939 126.346C42.814 125.516 42.9772 124.841 42.6109 123.967C42.2671 123.171 41.6576 122.519 40.8866 122.123C40.0762 121.681 39.1982 121.781 38.3122 121.775C37.0272 121.77 35.7484 121.952 34.5151 122.312C33.7565 122.539 32.9641 122.91 32.2293 123.214C31.0944 123.676 30.5191 124.602 31.642 124.128Z" fill="#FFA989"/>
<path fill-rule="evenodd" clip-rule="evenodd" d="M24.5782 125.397C24.5346 125.095 24.544 124.789 24.606 124.491C25.1396 124.327 25.3686 123.734 26.0356 123.939C26.5235 124.088 26.6012 124.65 26.4817 125.034C26.2388 125.803 24.3612 127.396 24.397 125.759L24.5782 125.397Z" fill="#FFA989"/>
<path fill-rule="evenodd" clip-rule="evenodd" d="M143.214 89.1726C142.31 89.2098 141.409 89.2761 140.51 89.3717C140.27 89.5667 140.008 89.7331 139.73 89.8675C138.8 90.3573 137.954 90.7117 137.141 91.4086C136.49 91.9721 134.951 92.9656 135.041 94.0129C135.126 94.9726 136.52 95.1578 137.261 95.1618C138.002 95.1658 138.782 94.9965 139.541 94.9627C140.594 94.9069 141.631 94.7755 142.677 94.6501C144.013 94.4888 145.438 94.2399 146.617 93.5649C147.274 93.1984 147.849 92.6994 148.303 92.0995C148.536 91.8068 148.889 91.5141 148.817 91.104C148.769 90.8352 148.272 90.2916 148.076 90.1084C147.758 89.8562 147.403 89.6547 147.023 89.5111C145.295 88.7505 143.32 89.3618 143.214 89.1726Z" fill="#FFA989"/>
<path fill-rule="evenodd" clip-rule="evenodd" d="M98.8354 147.129C98.1047 147.452 97.6507 147.527 97.3242 148.204C97.2047 148.455 96.8125 148.991 96.8225 149.323C96.8364 149.777 97.2943 149.755 97.6786 149.652C98.1724 149.518 98.6741 149.07 99.0843 148.8C99.4074 148.591 99.6946 148.331 99.9345 148.031C100.09 147.844 100.225 147.748 100.275 147.491C100.325 147.235 100.199 147.049 100.434 146.894C100.283 145.845 98.3018 147.292 97.9295 147.304L98.8354 147.129Z" fill="#FFA989"/>
<path fill-rule="evenodd" clip-rule="evenodd" d="M103.908 145.138C102.781 145.638 102.022 146.026 101.445 147.143C101.263 147.495 101.09 147.862 101.273 148.218C101.861 149.359 103.117 148.344 103.766 147.854C104.214 147.517 104.702 147.282 105.086 146.858C105.261 146.671 105.379 146.46 105.536 146.261C105.693 146.062 105.96 145.893 106.054 145.677C106.235 145.253 105.942 144.933 105.55 144.809C104.806 144.574 104.242 145.064 103.545 145.134L103.908 145.138Z" fill="#FFA989"/>
<path fill-rule="evenodd" clip-rule="evenodd" d="M44.6825 120.325C44.348 121.046 43.1415 123.76 44.7423 123.746C46.1361 123.732 48.4198 122.225 48.4954 120.688C48.5452 119.66 47.7229 119.16 46.7652 119.051C45.5487 118.91 44.8399 119.877 44.3202 120.869L44.6825 120.325Z" fill="#FFA989"/>
<path fill-rule="evenodd" clip-rule="evenodd" d="M48.8487 96.9599C48.5361 97.39 48.0941 97.7564 48.5361 98.1904C48.7338 98.4078 49.0016 98.5488 49.2927 98.5886C49.9059 98.6742 50.8139 98.1247 50.8437 97.5075C50.8534 97.2945 50.8084 97.0825 50.7129 96.8919C50.6174 96.7012 50.4746 96.5382 50.2982 96.4184C49.8025 96.058 49.46 96.285 49.0299 96.6035L48.8487 96.9599Z" fill="#FFA989"/>
</g>
<path fill-rule="evenodd" clip-rule="evenodd" d="M65.5996 54.1773C65.5996 54.1773 73.6913 51.6865 75.4773 50.9916C77.2633 50.2967 86.289 48.8213 86.289 48.8213C86.289 48.8213 94.0362 45.4942 96.2085 44.4728C98.3807 43.4514 103.906 40.7316 103.906 40.7316L110.339 37.7788C110.339 37.7788 105.989 42.2428 102.176 43.7043C98.3629 45.1657 88.6822 49.0603 88.6822 49.0603C88.6822 49.0603 85.7852 49.8667 81.7135 51.1828C77.6417 52.4989 65.5996 54.1773 65.5996 54.1773Z" fill="#FFBD4A"/>
<path fill-rule="evenodd" clip-rule="evenodd" d="M115.975 65.3032L119.69 67.0952C119.69 67.0952 123.533 64.8094 124.134 62.6152C124.134 62.6132 116.857 64.6183 115.975 65.3032Z" fill="#FFAB4A"/>
<path fill-rule="evenodd" clip-rule="evenodd" d="M95.4629 69.6617L97.3305 70.7408L98.6805 68.2241L95.4629 69.6617Z" fill="#FFAB4A"/>
<path style="mix-blend-mode:multiply" opacity="0.71" fill-rule="evenodd" clip-rule="evenodd" d="M65.5996 93.8595C65.5996 93.8595 69.9919 98.2398 79.6367 101.205C79.6367 101.205 80.3157 100.498 81.13 96.3523C81.9444 92.2069 81.13 90.7554 81.13 90.7554C81.13 90.7554 69.2911 92.2507 65.5996 93.8595Z" fill="url(#paint33_linear_359_1924)"/>
<path style="mix-blend-mode:multiply" opacity="0.71" fill-rule="evenodd" clip-rule="evenodd" d="M72.084 106.973C72.084 106.973 72.2114 108.438 72.755 109.446C73.2986 110.453 79.3893 111.972 80.1957 111.636C81.689 111.009 79.9966 107.375 79.3674 106.288C78.885 105.514 78.3253 104.79 77.6968 104.129L72.084 106.973Z" fill="url(#paint34_linear_359_1924)"/>
<path fill-rule="evenodd" clip-rule="evenodd" d="M34.2676 133.508C34.2676 133.508 42.5067 129.828 45.0891 127.975C47.6715 126.121 51.5461 119.435 51.5461 119.435L47.3967 129.743L44.6351 130.784L41.6923 131.417L34.2676 133.508Z" fill="#FFAB4A"/>
<path fill-rule="evenodd" clip-rule="evenodd" d="M39.3496 112.934L46.3542 108.986C46.3542 108.986 45.6951 111.236 44.6897 111.841C43.6842 112.446 39.3496 112.934 39.3496 112.934Z" fill="#FFAB4A"/>
<path fill-rule="evenodd" clip-rule="evenodd" d="M139.582 96.0914L142.688 98.5942C142.688 98.5942 143.451 96.5454 143.602 95.8923C143.753 95.2392 139.582 96.0914 139.582 96.0914Z" fill="#FF864A"/>
<path fill-rule="evenodd" clip-rule="evenodd" d="M157.363 71.5117L161.819 70.0742L165.724 69.0527C165.724 69.0527 161.363 71.3604 160.607 71.7686C159.85 72.1767 157.363 71.5117 157.363 71.5117Z" fill="#FFAB4A"/>
<path fill-rule="evenodd" clip-rule="evenodd" d="M153.828 69.9584L155.435 68.708V70.2093L153.828 69.9584Z" fill="#FFAB4A"/>
<path fill-rule="evenodd" clip-rule="evenodd" d="M100.17 151.143L105.496 148.116L104.861 150.928L100.17 151.143Z" fill="#FF864A"/>
<path fill-rule="evenodd" clip-rule="evenodd" d="M40.4746 64.4174C40.4746 64.4174 44.5364 64.0889 46.9198 64.0889C49.3031 64.0889 54.014 64.5508 54.014 64.5508L58.5756 65.0008C58.5756 65.0008 55.9592 65.2138 50.4359 65.3034C47.0936 65.357 43.755 65.06 40.4746 64.4174Z" fill="#FFB14A"/>
<path fill-rule="evenodd" clip-rule="evenodd" d="M63.3359 90.0607C63.3359 90.0607 67.5013 85.4294 69.3092 84.7664C71.1171 84.1034 79.619 87.982 81.1143 88.5335C82.6096 89.0851 78.2352 97.6925 77.1222 98.5945C76.0092 99.4964 63.5171 94.9329 63.3359 90.0607Z" fill="url(#paint35_linear_359_1924)"/>
<path fill-rule="evenodd" clip-rule="evenodd" d="M78.9388 109.442C78.5525 110.547 74.7575 109.972 73.3896 109.442L73.2901 109.384L73.0034 109.185C72.9726 109.169 72.9474 109.144 72.9316 109.113C71.956 108.118 71.7271 105.372 72.3861 103.923C72.3861 103.923 75.6992 102.905 76.9178 103.325C77.7142 103.598 78.4948 105.635 78.8393 107.325V107.341C79.0105 108.251 79.0682 109.07 78.9388 109.442Z" fill="url(#paint36_linear_359_1924)"/>
<path style="mix-blend-mode:multiply" opacity="0.5" fill-rule="evenodd" clip-rule="evenodd" d="M73.9688 92.6647L77.1266 98.5941C77.1266 98.5941 81.1705 94.1918 81.4233 89.1226L73.9688 92.6647Z" fill="url(#paint37_linear_359_1924)"/>
<path fill-rule="evenodd" clip-rule="evenodd" d="M33.1181 74.124L25.4644 75.9797C25.4644 75.9797 24.2141 80.4059 24.3972 82.2536L29.14 87.2771C29.14 87.2771 30.6094 78.2734 33.1181 74.124Z" fill="url(#paint38_linear_359_1924)"/>
<path fill-rule="evenodd" clip-rule="evenodd" d="M63.3359 90.0604C65.9842 91.2875 68.7814 92.163 71.6567 92.6647C76.2362 93.4293 81.423 89.1226 81.423 89.1226C81.423 89.1226 76.5129 84.7422 69.4486 83.9199C69.4486 83.9199 64.8312 86.5601 63.3359 90.0604Z" fill="url(#paint39_linear_359_1924)"/>
<path style="mix-blend-mode:multiply" opacity="0.5" fill-rule="evenodd" clip-rule="evenodd" d="M78.939 109.442C78.5528 110.547 74.7577 109.972 73.3899 109.442L73.2903 109.384L73.0036 109.185L72.918 109.129L72.9319 109.113L73.9633 107.68L78.2082 106.648L78.8395 107.335V107.351C79.0107 108.251 79.0685 109.07 78.939 109.442Z" fill="url(#paint40_linear_359_1924)"/>
<path fill-rule="evenodd" clip-rule="evenodd" d="M72.3818 103.915C72.3818 103.915 72.3022 106.951 73.5924 107.558C74.8826 108.166 77.8234 106.945 78.2117 106.65C78.5999 106.356 77.3117 103.586 76.1987 103.228C75.0857 102.869 72.3818 103.915 72.3818 103.915Z" fill="url(#paint41_linear_359_1924)"/>
<path style="mix-blend-mode:multiply" opacity="0.71" fill-rule="evenodd" clip-rule="evenodd" d="M138.345 144.373C138.345 144.373 136.899 144.104 135.782 144.359C134.665 144.614 132.857 150.448 132.857 151.328C132.857 154.771 136.859 153.793 138.076 153.472C139.293 153.152 139.585 150.546 139.585 150.546L138.345 144.373Z" fill="url(#paint42_linear_359_1924)"/>
<path fill-rule="evenodd" clip-rule="evenodd" d="M134.134 150.32C133.174 149.651 134.731 146.139 135.617 144.972L135.699 144.891L135.97 144.67C135.993 144.644 136.024 144.626 136.057 144.618C137.286 143.947 139.986 144.459 141.204 145.482C141.204 145.482 141.3 148.945 140.559 150.004C140.087 150.691 137.913 150.908 136.191 150.786H136.179C135.261 150.707 134.455 150.543 134.134 150.32Z" fill="url(#paint43_linear_359_1924)"/>
<path style="mix-blend-mode:multiply" opacity="0.5" fill-rule="evenodd" clip-rule="evenodd" d="M134.134 150.32C133.174 149.651 134.731 146.139 135.617 144.972L135.699 144.891L135.97 144.67L136.047 144.602L136.057 144.618L137.162 145.998L137.023 150.362L136.191 150.786H136.179C135.261 150.707 134.455 150.543 134.134 150.32Z" fill="url(#paint44_linear_359_1924)"/>
<path fill-rule="evenodd" clip-rule="evenodd" d="M141.212 145.478C141.212 145.478 138.307 144.59 137.377 145.678C136.448 146.765 136.838 149.919 137.017 150.37C137.196 150.822 140.213 150.323 140.854 149.347C141.495 148.371 141.212 145.478 141.212 145.478Z" fill="url(#paint45_linear_359_1924)"/>
<path fill-rule="evenodd" clip-rule="evenodd" d="M48.0801 139.19L55.1763 139.688L66.1511 139.19L69.6972 140.431L65.8943 139.885L58.5711 143.328L58.0395 144.321L54.0195 143.236L48.0801 139.19Z" fill="url(#paint46_linear_359_1924)"/>
<path fill-rule="evenodd" clip-rule="evenodd" d="M48.0801 139.19L54.0195 142.864L56.136 142.535L59.3277 142.263L65.8943 139.885L58.5711 143.328L58.0395 144.321L53.4879 143.485L48.0801 139.19Z" fill="url(#paint47_linear_359_1924)"/>
<path fill-rule="evenodd" clip-rule="evenodd" d="M61.7539 54.5475L67.5261 57.9702L73.9692 57.4665L81.7205 51.1806L71.7372 50.4658L65.6007 52.0447L61.7539 54.5475Z" fill="url(#paint48_linear_359_1924)"/>
<path fill-rule="evenodd" clip-rule="evenodd" d="M61.7559 54.5476H63.6772L67.2095 55.3301H71.0124L75.1559 53.6954L79.6995 51.1787H81.7185C81.7185 51.1787 77.6049 55.3938 73.9672 57.4646L67.5241 57.9703L61.7559 54.5476Z" fill="url(#paint49_linear_359_1924)"/>
<path fill-rule="evenodd" clip-rule="evenodd" d="M26.0156 135.638L28.7474 133.076L31.734 133.508C31.734 133.508 32.1143 135.403 31.734 136.893C31.3538 138.382 28.7474 137.454 28.7474 137.454L26.0156 135.638Z" fill="url(#paint50_linear_359_1924)"/>
<path fill-rule="evenodd" clip-rule="evenodd" d="M26.0156 135.638C26.0156 135.638 28.7674 136.534 29.2193 136.534C29.6713 136.534 30.7584 136.49 31.2104 136.136C31.6624 135.781 31.7261 133.516 31.7261 133.516C31.7261 133.516 32.1064 135.636 31.7261 136.9C31.7261 136.9 31.6624 137.988 29.735 137.92L28.4667 137.534L26.0156 135.638Z" fill="url(#paint51_linear_359_1924)"/>
<path fill-rule="evenodd" clip-rule="evenodd" d="M146.643 95.0324C146.643 95.0324 147.351 93.4396 148.303 92.7566C149.255 92.0737 152.038 92.1473 152.038 92.1473L152.387 92.7566C152.387 92.7566 151.427 95.2156 150.68 95.6457C149.934 96.0757 148.371 95.6457 148.371 95.6457L146.643 95.0324Z" fill="url(#paint52_linear_359_1924)"/>
<path fill-rule="evenodd" clip-rule="evenodd" d="M152.038 92.147C152.038 92.147 151.053 93.8016 150.374 94.2436C149.881 94.5488 149.362 94.81 148.823 95.0241C148.1 95.1282 147.366 95.1282 146.643 95.0241C146.643 95.0241 148.247 95.7946 149.514 95.8305C149.514 95.8305 150.941 95.8524 151.15 95.6314C151.359 95.4104 152.387 92.7423 152.387 92.7423L152.038 92.147Z" fill="url(#paint53_linear_359_1924)"/>
<defs>
<radialGradient id="paint0_radial_359_1924" cx="0" cy="0" r="1" gradientUnits="userSpaceOnUse" gradientTransform="translate(100 100) scale(100)">
<stop stop-color="#FF4000"/>
<stop offset="0.739583" stop-color="#521500" stop-opacity="0.77"/>
<stop offset="1" stop-opacity="0"/>
</radialGradient>
<radialGradient id="paint1_radial_359_1924" cx="0" cy="0" r="1" gradientUnits="userSpaceOnUse" gradientTransform="translate(99.9991 100) scale(78.5401)">
<stop stop-color="#FF7300"/>
<stop offset="1" stop-opacity="0"/>
</radialGradient>
<radialGradient id="paint2_radial_359_1924" cx="0" cy="0" r="1" gradientUnits="userSpaceOnUse" gradientTransform="translate(100.001 100) scale(74.9482)">
<stop stop-color="#FF7900"/>
<stop offset="0.18" stop-color="#FC7800"/>
<stop offset="0.32" stop-color="#F37300"/>
<stop offset="0.43" stop-color="#E36C00"/>
<stop offset="0.54" stop-color="#CC6100"/>
<stop offset="0.64" stop-color="#AF5300"/>
<stop offset="0.74" stop-color="#8C4200"/>
<stop offset="0.83" stop-color="#622E00"/>
<stop offset="0.9999" stop-color="#321800" stop-opacity="0"/>
<stop offset="1" stop-opacity="0"/>
</radialGradient>
<linearGradient id="paint3_linear_359_1924" x1="147.266" y1="134.504" x2="131.723" y2="86.8717" gradientUnits="userSpaceOnUse">
<stop stop-color="#5B006F"/>
<stop offset="0.02" stop-color="#5C0270"/>
<stop offset="0.23" stop-color="#6A1A7C"/>
<stop offset="0.46" stop-color="#732C84"/>
<stop offset="0.7" stop-color="#793689"/>
<stop offset="0.99" stop-color="#7B398B"/>
</linearGradient>
<radialGradient id="paint4_radial_359_1924" cx="0" cy="0" r="1" gradientUnits="userSpaceOnUse" gradientTransform="translate(60.9905 72.8658) scale(109.117 109.117)">
<stop offset="0.01" stop-color="#9D4863"/>
<stop offset="0.24" stop-color="#9A4563"/>
<stop offset="0.42" stop-color="#903D61"/>
<stop offset="0.58" stop-color="#802E5F"/>
<stop offset="0.73" stop-color="#68195B"/>
<stop offset="0.87" stop-color="#4C0057"/>
<stop offset="0.98" stop-color="#4C0086"/>
</radialGradient>
<linearGradient id="paint5_linear_359_1924" x1="56.4844" y1="130.583" x2="84.8074" y2="130.583" gradientUnits="userSpaceOnUse">
<stop stop-color="#CA528D"/>
<stop offset="1" stop-color="#8E7090"/>
</linearGradient>
<linearGradient id="paint6_linear_359_1924" x1="127.404" y1="117.121" x2="154.381" y2="117.121" gradientUnits="userSpaceOnUse">
<stop stop-color="#CA528D"/>
<stop offset="1" stop-color="#8E7090"/>
</linearGradient>
<linearGradient id="paint7_linear_359_1924" x1="153.828" y1="92.5293" x2="163.774" y2="92.5293" gradientUnits="userSpaceOnUse">
<stop stop-color="#CA528D"/>
<stop offset="1" stop-color="#8E7090"/>
</linearGradient>
<linearGradient id="paint8_linear_359_1924" x1="35.627" y1="70.0739" x2="154.355" y2="70.0739" gradientUnits="userSpaceOnUse">
<stop stop-color="#CA528D"/>
<stop offset="1" stop-color="#8E7090"/>
</linearGradient>
<linearGradient id="paint9_linear_359_1924" x1="35.627" y1="52.0448" x2="146.956" y2="52.0448" gradientUnits="userSpaceOnUse">
<stop offset="0.01" stop-color="#DE6863"/>
<stop offset="0.25" stop-color="#DB6563"/>
<stop offset="0.43" stop-color="#D35B62"/>
<stop offset="0.6" stop-color="#C54B60"/>
<stop offset="0.76" stop-color="#B1335D"/>
<stop offset="0.91" stop-color="#981659"/>
<stop offset="1" stop-color="#860057"/>
</linearGradient>
<linearGradient id="paint10_linear_359_1924" x1="48.0808" y1="160.917" x2="48.0808" y2="92.6649" gradientUnits="userSpaceOnUse">
<stop stop-color="#860057"/>
<stop offset="0.03" stop-color="#8C0757"/>
<stop offset="0.19" stop-color="#AA2456"/>
<stop offset="0.36" stop-color="#C13C55"/>
<stop offset="0.54" stop-color="#D14C54"/>
<stop offset="0.74" stop-color="#DB5654"/>
<stop offset="0.99" stop-color="#DE5954"/>
</linearGradient>
<linearGradient id="paint11_linear_359_1924" x1="94.9902" y1="153.841" x2="114.732" y2="153.841" gradientUnits="userSpaceOnUse">
<stop stop-color="#CA528D"/>
<stop offset="1" stop-color="#8E7090"/>
</linearGradient>
<linearGradient id="paint12_linear_359_1924" x1="160.583" y1="88.5395" x2="160.583" y2="62.4404" gradientUnits="userSpaceOnUse">
<stop stop-color="#860057"/>
<stop offset="0.03" stop-color="#880557"/>
<stop offset="0.23" stop-color="#951C56"/>
<stop offset="0.45" stop-color="#9E2C55"/>
<stop offset="0.69" stop-color="#A33654"/>
<stop offset="0.99" stop-color="#A53954"/>
</linearGradient>
<linearGradient id="paint13_linear_359_1924" x1="142.019" y1="117.898" x2="142.019" y2="86.7534" gradientUnits="userSpaceOnUse">
<stop stop-color="#860057"/>
<stop offset="0.03" stop-color="#880557"/>
<stop offset="0.23" stop-color="#951C56"/>
<stop offset="0.45" stop-color="#9E2C55"/>
<stop offset="0.69" stop-color="#A33654"/>
<stop offset="0.99" stop-color="#A53954"/>
</linearGradient>
<linearGradient id="paint14_linear_359_1924" x1="82.1547" y1="56.0052" x2="82.1547" y2="24.357" gradientUnits="userSpaceOnUse">
<stop stop-color="#F49F57"/>
<stop offset="0.1" stop-color="#F79656"/>
<stop offset="0.35" stop-color="#FB8655"/>
<stop offset="0.63" stop-color="#FE7C54"/>
<stop offset="0.99" stop-color="#FF7954"/>
</linearGradient>
<linearGradient id="paint15_linear_359_1924" x1="112.375" y1="69.6621" x2="112.375" y2="38.6929" gradientUnits="userSpaceOnUse">
<stop stop-color="#F47D57"/>
<stop offset="0.4" stop-color="#FC7A55"/>
<stop offset="0.99" stop-color="#FF7954"/>
</linearGradient>
<linearGradient id="paint16_linear_359_1924" x1="35.627" y1="62.6133" x2="64.6052" y2="62.6133" gradientUnits="userSpaceOnUse">
<stop stop-color="#F49F57"/>
<stop offset="0.1" stop-color="#F79656"/>
<stop offset="0.35" stop-color="#FB8655"/>
<stop offset="0.63" stop-color="#FE7C54"/>
<stop offset="0.99" stop-color="#FF7954"/>
</linearGradient>
<linearGradient id="paint17_linear_359_1924" x1="131.791" y1="91.4783" x2="155.411" y2="91.4783" gradientUnits="userSpaceOnUse">
<stop offset="0.01" stop-color="#C75357"/>
<stop offset="0.13" stop-color="#D35856"/>
<stop offset="0.37" stop-color="#E35F55"/>
<stop offset="0.65" stop-color="#ED6454"/>
<stop offset="0.99" stop-color="#F06554"/>
</linearGradient>
<linearGradient id="paint18_linear_359_1924" x1="19.0805" y1="105.173" x2="56.481" y2="105.173" gradientUnits="userSpaceOnUse">
<stop stop-color="#F49F57"/>
<stop offset="0.1" stop-color="#F79656"/>
<stop offset="0.35" stop-color="#FB8655"/>
<stop offset="0.63" stop-color="#FE7C54"/>
<stop offset="0.99" stop-color="#FF7954"/>
</linearGradient>
<linearGradient id="paint19_linear_359_1924" x1="22.9387" y1="125.038" x2="54.0215" y2="125.038" gradientUnits="userSpaceOnUse">
<stop stop-color="#F49F57"/>
<stop offset="0.1" stop-color="#F79656"/>
<stop offset="0.35" stop-color="#FB8655"/>
<stop offset="0.63" stop-color="#FE7C54"/>
<stop offset="0.99" stop-color="#FF7954"/>
</linearGradient>
<linearGradient id="paint20_linear_359_1924" x1="103.34" y1="158.048" x2="103.34" y2="142.914" gradientUnits="userSpaceOnUse">
<stop stop-color="#860057"/>
<stop offset="0.03" stop-color="#880557"/>
<stop offset="0.23" stop-color="#951C56"/>
<stop offset="0.45" stop-color="#9E2C55"/>
<stop offset="0.69" stop-color="#A33654"/>
<stop offset="0.99" stop-color="#A53954"/>
</linearGradient>
<linearGradient id="paint21_linear_359_1924" x1="94.3066" y1="147.093" x2="108.977" y2="147.093" gradientUnits="userSpaceOnUse">
<stop offset="0.01" stop-color="#C75357"/>
<stop offset="0.26" stop-color="#D15149"/>
<stop offset="0.58" stop-color="#D94F3F"/>
<stop offset="0.99" stop-color="#DB4F3C"/>
</linearGradient>
<linearGradient id="paint22_linear_359_1924" x1="44.2129" y1="127.975" x2="76.9184" y2="127.975" gradientUnits="userSpaceOnUse">
<stop stop-color="#CA528D"/>
<stop offset="1" stop-color="#8E7090"/>
</linearGradient>
<linearGradient id="paint23_linear_359_1924" x1="103.791" y1="151.185" x2="112.373" y2="151.185" gradientUnits="userSpaceOnUse">
<stop stop-color="#CA528D"/>
<stop offset="1" stop-color="#8E7090"/>
</linearGradient>
<linearGradient id="paint24_linear_359_1924" x1="142.018" y1="104.52" x2="156.702" y2="104.52" gradientUnits="userSpaceOnUse">
<stop stop-color="#CA528D"/>
<stop offset="1" stop-color="#8E7090"/>
</linearGradient>
<linearGradient id="paint25_linear_359_1924" x1="154.98" y1="67.0934" x2="160.607" y2="67.0934" gradientUnits="userSpaceOnUse">
<stop stop-color="#CA528D"/>
<stop offset="1" stop-color="#8E7090"/>
</linearGradient>
<linearGradient id="paint26_linear_359_1924" x1="153.828" y1="76.802" x2="171.579" y2="76.802" gradientUnits="userSpaceOnUse">
<stop stop-color="#CA528D"/>
<stop offset="1" stop-color="#8E7090"/>
</linearGradient>
<linearGradient id="paint27_linear_359_1924" x1="149.428" y1="67.824" x2="159.64" y2="65.9681" gradientUnits="userSpaceOnUse">
<stop stop-color="#F47D57"/>
<stop offset="0.4" stop-color="#FC7A55"/>
<stop offset="0.99" stop-color="#FF7954"/>
</linearGradient>
<linearGradient id="paint28_linear_359_1924" x1="154.775" y1="68.2204" x2="171.074" y2="65.2585" gradientUnits="userSpaceOnUse">
<stop stop-color="#F47D57"/>
<stop offset="0.4" stop-color="#FC7A55"/>
<stop offset="0.99" stop-color="#FF7954"/>
</linearGradient>
<linearGradient id="paint29_linear_359_1924" x1="82.1543" y1="45.7192" x2="130.984" y2="45.7192" gradientUnits="userSpaceOnUse">
<stop stop-color="#CA528D"/>
<stop offset="1" stop-color="#8E7090"/>
</linearGradient>
<linearGradient id="paint30_linear_359_1924" x1="97.2051" y1="71.0697" x2="109.552" y2="71.0697" gradientUnits="userSpaceOnUse">
<stop stop-color="#CA528D"/>
<stop offset="1" stop-color="#8E7090"/>
</linearGradient>
<linearGradient id="paint31_linear_359_1924" x1="118.758" y1="60.7399" x2="146.956" y2="60.7399" gradientUnits="userSpaceOnUse">
<stop stop-color="#CA528D"/>
<stop offset="1" stop-color="#8E7090"/>
</linearGradient>
<linearGradient id="paint32_linear_359_1924" x1="40.8555" y1="71.3425" x2="61.7558" y2="71.3425" gradientUnits="userSpaceOnUse">
<stop stop-color="#CA528D"/>
<stop offset="1" stop-color="#8E7090"/>
</linearGradient>
<linearGradient id="paint33_linear_359_1924" x1="65.5996" y1="95.98" x2="81.4924" y2="95.98" gradientUnits="userSpaceOnUse">
<stop stop-color="#CA528D"/>
<stop offset="1" stop-color="#8E7090"/>
</linearGradient>
<linearGradient id="paint34_linear_359_1924" x1="72.084" y1="107.906" x2="80.795" y2="107.906" gradientUnits="userSpaceOnUse">
<stop stop-color="#CA528D"/>
<stop offset="1" stop-color="#8E7090"/>
</linearGradient>
<linearGradient id="paint35_linear_359_1924" x1="72.3814" y1="98.708" x2="72.3814" y2="84.6888" gradientUnits="userSpaceOnUse">
<stop stop-color="#A20057"/>
<stop offset="0.28" stop-color="#BA2456"/>
<stop offset="0.57" stop-color="#CE4155"/>
<stop offset="0.82" stop-color="#DA5354"/>
<stop offset="0.99" stop-color="#DE5954"/>
</linearGradient>
<linearGradient id="paint36_linear_359_1924" x1="75.5101" y1="110.073" x2="75.5101" y2="103.228" gradientUnits="userSpaceOnUse">
<stop stop-color="#A20057"/>
<stop offset="0.28" stop-color="#BA2456"/>
<stop offset="0.57" stop-color="#CE4155"/>
<stop offset="0.82" stop-color="#DA5354"/>
<stop offset="0.99" stop-color="#DE5954"/>
</linearGradient>
<linearGradient id="paint37_linear_359_1924" x1="73.9688" y1="93.8593" x2="81.4233" y2="93.8593" gradientUnits="userSpaceOnUse">
<stop stop-color="#CA528D"/>
<stop offset="1" stop-color="#8E7090"/>
</linearGradient>
<linearGradient id="paint38_linear_359_1924" x1="28.7477" y1="87.2771" x2="28.7477" y2="74.124" gradientUnits="userSpaceOnUse">
<stop stop-color="#A20057"/>
<stop offset="0.28" stop-color="#BA2456"/>
<stop offset="0.57" stop-color="#CE4155"/>
<stop offset="0.82" stop-color="#DA5354"/>
<stop offset="0.99" stop-color="#DE5954"/>
</linearGradient>
<linearGradient id="paint39_linear_359_1924" x1="72.3795" y1="92.7563" x2="72.3795" y2="83.9199" gradientUnits="userSpaceOnUse">
<stop stop-color="#F49F57"/>
<stop offset="0.1" stop-color="#F79656"/>
<stop offset="0.35" stop-color="#FB8655"/>
<stop offset="0.63" stop-color="#FE7C54"/>
<stop offset="0.99" stop-color="#FF7954"/>
</linearGradient>
<linearGradient id="paint40_linear_359_1924" x1="72.918" y1="108.359" x2="79.0107" y2="108.359" gradientUnits="userSpaceOnUse">
<stop stop-color="#CA528D"/>
<stop offset="1" stop-color="#8E7090"/>
</linearGradient>
<linearGradient id="paint41_linear_359_1924" x1="75.3306" y1="107.726" x2="75.3306" y2="103.152" gradientUnits="userSpaceOnUse">
<stop stop-color="#F47D57"/>
<stop offset="0.4" stop-color="#FC7A55"/>
<stop offset="0.99" stop-color="#FF7954"/>
</linearGradient>
<linearGradient id="paint42_linear_359_1924" x1="138.099" y1="144.298" x2="135.421" y2="153.957" gradientUnits="userSpaceOnUse">
<stop stop-color="#CA528D"/>
<stop offset="1" stop-color="#8E7090"/>
</linearGradient>
<linearGradient id="paint43_linear_359_1924" x1="134.486" y1="146.854" x2="141.082" y2="148.683" gradientUnits="userSpaceOnUse">
<stop stop-color="#A20057"/>
<stop offset="0.28" stop-color="#BA2456"/>
<stop offset="0.57" stop-color="#CE4155"/>
<stop offset="0.82" stop-color="#DA5354"/>
<stop offset="0.99" stop-color="#DE5954"/>
</linearGradient>
<linearGradient id="paint44_linear_359_1924" x1="136.829" y1="144.811" x2="135.201" y2="150.682" gradientUnits="userSpaceOnUse">
<stop stop-color="#CA528D"/>
<stop offset="1" stop-color="#8E7090"/>
</linearGradient>
<linearGradient id="paint45_linear_359_1924" x1="136.794" y1="147.308" x2="141.201" y2="148.53" gradientUnits="userSpaceOnUse">
<stop stop-color="#F47D57"/>
<stop offset="0.4" stop-color="#FC7A55"/>
<stop offset="0.99" stop-color="#FF7954"/>
</linearGradient>
<linearGradient id="paint46_linear_359_1924" x1="48.0801" y1="141.757" x2="69.6972" y2="141.757" gradientUnits="userSpaceOnUse">
<stop stop-color="#860057"/>
<stop offset="0.21" stop-color="#8A0A4D"/>
<stop offset="0.55" stop-color="#8E1343"/>
<stop offset="0.99" stop-color="#8F1640"/>
</linearGradient>
<linearGradient id="paint47_linear_359_1924" x1="48.0801" y1="141.757" x2="65.8943" y2="141.757" gradientUnits="userSpaceOnUse">
<stop stop-color="#F49F57"/>
<stop offset="0.1" stop-color="#F79656"/>
<stop offset="0.35" stop-color="#FB8655"/>
<stop offset="0.63" stop-color="#FE7C54"/>
<stop offset="0.99" stop-color="#FF7954"/>
</linearGradient>
<linearGradient id="paint48_linear_359_1924" x1="71.7372" y1="57.9702" x2="71.7372" y2="50.4658" gradientUnits="userSpaceOnUse">
<stop stop-color="#860057"/>
<stop offset="0.03" stop-color="#880557"/>
<stop offset="0.23" stop-color="#951C56"/>
<stop offset="0.45" stop-color="#9E2C55"/>
<stop offset="0.69" stop-color="#A33654"/>
<stop offset="0.99" stop-color="#A53954"/>
</linearGradient>
<linearGradient id="paint49_linear_359_1924" x1="61.7559" y1="54.5755" x2="81.7205" y2="54.5755" gradientUnits="userSpaceOnUse">
<stop stop-color="#F49F57"/>
<stop offset="0.1" stop-color="#F79656"/>
<stop offset="0.35" stop-color="#FB8655"/>
<stop offset="0.63" stop-color="#FE7C54"/>
<stop offset="0.99" stop-color="#FF7954"/>
</linearGradient>
<linearGradient id="paint50_linear_359_1924" x1="28.9565" y1="137.745" x2="28.9565" y2="133.076" gradientUnits="userSpaceOnUse">
<stop stop-color="#860057"/>
<stop offset="0.03" stop-color="#880557"/>
<stop offset="0.23" stop-color="#951C56"/>
<stop offset="0.45" stop-color="#9E2C55"/>
<stop offset="0.69" stop-color="#A33654"/>
<stop offset="0.99" stop-color="#A53954"/>
</linearGradient>
<linearGradient id="paint51_linear_359_1924" x1="26.0156" y1="135.712" x2="31.8973" y2="135.712" gradientUnits="userSpaceOnUse">
<stop stop-color="#F49F57"/>
<stop offset="0.1" stop-color="#F79656"/>
<stop offset="0.35" stop-color="#FB8655"/>
<stop offset="0.63" stop-color="#FE7C54"/>
<stop offset="0.99" stop-color="#FF7954"/>
</linearGradient>
<linearGradient id="paint52_linear_359_1924" x1="146.643" y1="93.9911" x2="152.387" y2="93.9911" gradientUnits="userSpaceOnUse">
<stop stop-color="#860057"/>
<stop offset="0.21" stop-color="#8A0A4D"/>
<stop offset="0.55" stop-color="#8E1343"/>
<stop offset="0.99" stop-color="#8F1640"/>
</linearGradient>
<linearGradient id="paint53_linear_359_1924" x1="146.643" y1="93.9927" x2="152.387" y2="93.9927" gradientUnits="userSpaceOnUse">
<stop offset="0.01" stop-color="#C75357"/>
<stop offset="0.13" stop-color="#D35856"/>
<stop offset="0.37" stop-color="#E35F55"/>
<stop offset="0.65" stop-color="#ED6454"/>
<stop offset="0.99" stop-color="#F06554"/>
</linearGradient>
</defs>
</svg>
