<svg width="300" height="300" viewBox="0 0 300 300" fill="none" xmlns="http://www.w3.org/2000/svg">
<path style="mix-blend-mode:screen" d="M150 300C232.843 300 300 232.843 300 150C300 67.1573 232.843 0 150 0C67.1574 0 0 67.1573 0 150C0 232.843 67.1574 300 150 300Z" fill="url(#paint0_radial_698_1730)"/>
<path style="mix-blend-mode:screen" d="M150.001 267.81C215.065 267.81 267.811 215.064 267.811 150C267.811 84.9349 215.065 32.1895 150.001 32.1895C84.9358 32.1895 32.1904 84.9349 32.1904 150C32.1904 215.064 84.9358 267.81 150.001 267.81Z" fill="url(#paint1_radial_698_1730)"/>
<path style="mix-blend-mode:screen" d="M150 262.422C212.09 262.422 262.423 212.089 262.423 150C262.423 87.9108 212.09 37.5776 150 37.5776C87.9113 37.5776 37.5781 87.9108 37.5781 150C37.5781 212.089 87.9113 262.422 150 262.422Z" fill="url(#paint2_radial_698_1730)"/>
<path fill-rule="evenodd" clip-rule="evenodd" d="M176.782 215.661L208.186 217.453C208.186 217.453 234.185 209.619 247.153 193.106L253.254 158.727L243.174 127.275L188.421 162.296C188.421 162.296 175.996 204.306 176.782 215.661Z" fill="url(#paint3_linear_698_1730)"/>
<path fill-rule="evenodd" clip-rule="evenodd" d="M245.616 150.451C245.628 163.835 243 177.09 237.883 189.457C232.766 201.824 225.26 213.06 215.795 222.523C206.33 231.985 195.092 239.488 182.723 244.602C170.355 249.716 157.1 252.34 143.716 252.325C141.909 252.325 140.081 252.283 138.295 252.175H138.274C135.607 252.047 132.961 251.787 130.36 251.465C111.175 248.953 93.1121 240.998 78.3088 228.539C68.7608 220.505 60.7399 210.815 54.6309 199.934C54.0067 198.814 53.4034 197.676 52.8031 196.535C52.8031 196.493 52.7792 196.472 52.7583 196.427C52.1341 195.203 51.5637 193.975 50.9962 192.73H50.9723C49.1915 188.819 47.669 184.795 46.4146 180.685C45.4618 177.688 44.6643 174.643 44.0253 171.564C44.016 171.552 44.0092 171.539 44.0051 171.524C44.001 171.51 43.9997 171.495 44.0014 171.48C43.5504 169.306 43.1623 167.114 42.8636 164.909C42.1703 160.123 41.8248 155.293 41.8301 150.457C41.8301 147.638 41.9377 144.821 42.1946 142.068C42.326 140.306 42.5171 138.561 42.756 136.82C44.0439 126.983 46.7909 117.394 50.9065 108.367C59.0027 90.5406 72.0588 75.4216 88.5156 64.8153C104.972 54.209 124.134 48.5638 143.713 48.5537C144.788 48.5537 145.863 48.5746 146.917 48.5955C148.055 48.6403 149.196 48.6821 150.337 48.7687C156.099 49.1423 161.819 50.0056 167.435 51.3492C170.661 52.1227 173.821 53.0277 176.918 54.1028C179.027 54.8137 181.099 55.5962 183.136 56.4683C184.662 57.1134 186.147 57.7794 187.631 58.4902C187.888 58.6186 188.145 58.7261 188.405 58.8546C198.239 63.6667 207.236 70.0287 215.051 77.6971C216.171 78.7723 217.246 79.8893 218.322 81.0302C219.032 81.8037 219.74 82.6012 220.43 83.3956C221.625 84.7306 222.751 86.1284 223.871 87.5261C232.77 98.8426 239.162 111.921 242.624 125.895C244.619 133.928 245.624 142.174 245.616 150.451V150.451Z" fill="url(#paint4_radial_698_1730)"/>
<path style="mix-blend-mode:multiply" opacity="0.71" fill-rule="evenodd" clip-rule="evenodd" d="M84.7275 142.551C84.7275 142.551 102.749 158.658 107.232 165.294C111.715 171.93 126.791 217.24 127.197 226.779C127.603 236.319 118.578 249.206 118.578 249.206C118.578 249.206 103.28 244.896 94.7267 239.792L99.8966 204.21L84.7275 142.551Z" fill="url(#paint5_linear_698_1730)"/>
<path style="mix-blend-mode:multiply" opacity="0.71" fill-rule="evenodd" clip-rule="evenodd" d="M191.107 172.507L219.301 186.478C219.301 186.478 224.892 190.242 231.546 183.193C231.546 183.193 232.215 173.364 228.142 163.888L191.107 172.507Z" fill="url(#paint6_linear_698_1730)"/>
<g style="mix-blend-mode:multiply" opacity="0.3">
<path fill-rule="evenodd" clip-rule="evenodd" d="M87.6691 147.888C85.3694 157.687 86.8299 167.97 90.3721 177.306C91.1396 179.325 91.958 181.911 93.2094 183.73C94.1979 185.161 95.8674 186.018 97.2234 187.051C99.0153 188.416 100.646 189.969 102.408 191.37C104.409 192.956 106.437 193.927 108.85 194.784C113.435 196.415 118.04 197.636 122.887 196.202C127.334 194.803 131.191 191.967 133.851 188.139C135.01 186.418 136.351 184.895 137.576 183.235C138.8 181.574 139.538 179.531 140.287 177.653C141.781 173.928 142.244 169.218 141.981 165.234C141.877 163.322 141.603 161.423 141.159 159.56C140.673 157.627 139.789 155.835 139.418 153.867C138.821 150.645 137.372 147.783 136.082 144.764C132.878 137.279 124.551 132.817 116.872 131.686C113.268 131.163 109.704 131.984 106.156 132.546C102.417 133.122 99.6933 134.86 96.3633 136.491C94.404 137.453 92.4806 138.528 91.0769 140.233C87.7528 144.259 87.2719 149.937 87.6691 147.888Z" fill="#7D72B3"/>
<path fill-rule="evenodd" clip-rule="evenodd" d="M118.414 202.119C120.143 200.563 122.497 198.789 124.722 198.007C126.248 197.472 127.673 198.054 128.918 198.944C131.43 200.736 130.949 204.918 128.963 207.038C125.337 210.921 118.51 207.818 118.536 202.878L118.414 202.119Z" fill="#7D72B3"/>
<path fill-rule="evenodd" clip-rule="evenodd" d="M153.566 169.613C152.566 168.26 151.87 167.821 151.924 166.456C151.963 165.441 153.118 163.505 153.641 162.532C155.199 159.644 157.825 157.482 160.958 156.508C163.101 155.818 165.338 155.466 167.589 155.462C169.679 155.462 171.403 156.06 173.368 156.696C176.931 157.846 180.867 159.745 183.489 162.529C185.956 165.151 185.598 169.885 183.436 172.555C181.784 174.598 179.38 175.84 177.2 177.235C174.81 178.764 172.188 180.72 169.434 181.482C167.642 181.975 166.355 182.228 164.593 181.712C162.991 181.267 161.437 180.667 159.952 179.92C158.527 179.197 157.446 178.898 156.281 177.758C155.264 176.792 154.391 175.686 153.689 174.472C152.665 172.695 153.023 170.521 153.566 169.613Z" fill="#7D72B3"/>
<path fill-rule="evenodd" clip-rule="evenodd" d="M145.807 151.149C145.398 152.473 144.493 155.14 146.882 154.993C147.969 154.925 149.591 154.008 150.167 153.336C152.557 150.555 146.855 148.683 146.35 151.149H145.807Z" fill="#7D72B3"/>
<path fill-rule="evenodd" clip-rule="evenodd" d="M181.354 217.766C180.213 215.376 179.959 214.457 180.733 211.906C181.995 207.912 183.698 204.07 185.81 200.452C187.091 198.263 188.668 195.279 191.084 194.231C193.087 193.383 195.219 192.878 197.389 192.738C201.977 192.457 205.525 194.625 208.789 197.651C210.802 199.517 212.481 201.073 213.651 203.624C214.664 205.837 215.264 208.758 215.028 211.183C214.356 218.091 208.341 222.98 203.891 227.696C200.379 231.418 194.516 236.092 189.044 234.103C185.26 232.729 183.003 228.727 181.452 225.226C180.434 222.927 180.81 220.236 181.354 217.766Z" fill="#7D72B3"/>
<path fill-rule="evenodd" clip-rule="evenodd" d="M175.38 199.685C174.042 200.775 173.588 202.113 173.269 203.828C173.033 205.076 172.519 207.845 173.741 208.854C174.813 209.75 176.784 208.257 177.641 207.692C178.34 207.241 178.961 206.681 179.481 206.032C179.779 205.679 180.171 205.372 180.344 204.939C180.622 204.246 180.52 203.278 180.487 202.549C180.449 201.635 179.929 200.898 179.293 200.289C178.755 199.772 178.301 199.643 177.572 199.488C176.787 199.315 175.81 198.986 175.38 199.685Z" fill="#7D72B3"/>
<path fill-rule="evenodd" clip-rule="evenodd" d="M136.572 244.469C136.426 244.87 136.274 245.121 136.489 245.506C136.704 245.891 137.385 246.456 137.668 246.715C138.708 247.677 139.816 247.961 141.172 248.248C142.528 248.534 143.887 248.705 145.234 248.433C146.094 248.26 147.187 248.068 147.754 247.337C148.806 245.978 147.934 243.935 147.238 242.636C146.703 241.641 145.95 240.748 145.338 239.798C144.631 238.794 143.779 237.9 142.808 237.146C141.659 236.188 139.879 234.873 138.394 235.952C136.994 236.958 136.22 238.774 135.85 240.396C135.639 241.348 135.693 242.339 136.005 243.263C136.235 243.884 136.689 244.314 136.572 244.469Z" fill="#7D72B3"/>
<path fill-rule="evenodd" clip-rule="evenodd" d="M219.237 204.942C218.427 204.264 218.123 204.228 218.212 203.305C218.253 202.334 218.434 201.375 218.75 200.456C219.541 198.455 221.199 196.797 222.788 195.396C223.715 194.63 224.786 194.058 225.939 193.715C226.536 193.515 227.017 193.276 227.638 193.362C228.125 193.42 228.584 193.621 228.956 193.94C229.329 194.259 229.598 194.682 229.729 195.154C230.243 196.719 229.472 198.464 228.621 199.745C227.534 201.385 226.685 203.239 224.959 204.317C224.162 204.816 223.325 205.306 222.48 205.724C221.973 205.978 221.402 206.247 220.814 206.175C220.396 206.127 219.117 205.796 219.237 204.942Z" fill="#7D72B3"/>
<path fill-rule="evenodd" clip-rule="evenodd" d="M52.8965 134.305C53.1086 135.201 53.1503 136.142 53.44 137.02C54.0373 138.812 55.3336 140.365 56.6716 141.673C59.2103 144.155 62.827 145.173 66.2138 145.854C68.0068 146.249 69.8325 146.477 71.6674 146.535C73.1339 146.553 74.6869 146.867 76.1474 146.753C78.5704 146.581 80.921 145.852 83.0166 144.624C86.1227 142.784 88.6672 139.923 87.6428 136.145C87.0843 134.075 85.7164 132.301 84.2201 130.831C82.5835 129.225 81.2694 127.546 79.1429 126.575C78.2051 126.145 77.2494 125.712 76.2936 125.33C75.1408 124.873 74.0536 124.24 72.8231 124.028C71.8047 123.852 70.7505 123.457 69.7202 123.41C68.6852 123.352 67.6476 123.362 66.614 123.439C62.9464 123.738 59.1475 125.886 56.6118 128.499C55.6024 129.535 54.7422 130.694 53.7387 131.718C52.7859 132.671 52.8965 133.809 52.8965 134.305Z" fill="#7D72B3"/>
<path fill-rule="evenodd" clip-rule="evenodd" d="M128.38 108.683C127.362 110.272 126.988 110.63 126.839 112.491C126.639 114.807 126.828 117.14 127.4 119.393C128.735 124.661 132.866 128.908 136.39 132.877C142.172 139.391 148.692 145.323 156.642 149.056C159.775 150.528 163.088 152.198 166.669 151.726C170.139 151.272 173.29 149.97 176.596 148.919C179.543 147.933 182.569 147.198 185.64 146.72C187.055 146.526 188.468 146.338 189.889 146.183C191.953 145.953 193.697 145.126 195.669 144.549C198.515 143.713 201.484 143.205 204.306 142.297C205.595 141.881 206.847 141.356 208.048 140.729C210.022 139.705 212.14 139.099 214.102 138.014C221.365 134.009 226.323 125.996 226.708 117.646C226.906 113.39 225.353 108.937 223.214 105.323C222.002 103.271 220.467 101.44 219.126 99.4571C217.369 96.9297 215.35 94.5942 213.104 92.4893C208.98 88.535 204.33 85.9845 198.888 84.306C196.007 83.406 193.003 82.9645 189.985 82.9978C185.177 82.9978 180.278 83.6728 175.569 84.6226C170.859 85.5723 166.077 86.5848 161.442 87.8899C156.562 89.2668 151.646 91.3514 147.055 93.4958C142.322 95.7059 138.194 98.6448 135.166 102.937C134.485 103.901 133.696 104.83 133.048 105.804C132.537 106.574 132.26 107.172 131.513 107.727C130.151 108.74 128.885 108.964 128.38 108.683Z" fill="#7D72B3"/>
</g>
<path style="mix-blend-mode:multiply" opacity="0.71" fill-rule="evenodd" clip-rule="evenodd" d="M230.743 127.155L245.616 150.451C245.616 150.451 246.088 134.876 243.899 131.74C241.71 128.604 230.743 127.155 230.743 127.155Z" fill="url(#paint7_linear_698_1730)"/>
<path style="mix-blend-mode:multiply" opacity="0.71" fill-rule="evenodd" clip-rule="evenodd" d="M53.4395 109.576C53.4395 109.576 82.5381 128.359 162.123 124.808L194.166 127.278C194.166 127.278 224.615 116.917 231.532 98.7135C231.532 98.7135 222.539 85.7456 220.433 83.3802C218.328 81.0148 180.855 89.1026 180.855 89.1026L53.4395 109.576Z" fill="url(#paint8_linear_698_1730)"/>
<path fill-rule="evenodd" clip-rule="evenodd" d="M57.7262 89.8882V83.9747C57.7262 83.9747 73.8121 63.1758 100.3 40.3312C100.3 40.3312 169.169 34.2445 188.731 40.3312L196.473 58.0418L219.293 66.703L220.431 83.3863C220.431 83.3863 205.439 107.211 178.135 115.531L164.325 112.246C164.325 112.246 149.2 118.518 109.266 118.518C68.4631 118.518 53.4375 109.579 53.4375 109.579V95.8823L57.7262 89.8882Z" fill="url(#paint9_linear_698_1730)"/>
<path fill-rule="evenodd" clip-rule="evenodd" d="M115.368 219.009L108.686 236.466L88.0608 241.37L67.1994 240.423C67.1994 240.423 45.0685 226.386 34.466 204.183L36.7656 183.988L28.9377 176.76C28.9377 176.76 27.0442 157.897 42.7449 140.67C42.7449 140.67 60.0673 135.852 84.7279 142.542L99.9327 159.411C99.9327 159.411 112.381 183.157 115.368 219.009Z" fill="url(#paint10_linear_698_1730)"/>
<path style="mix-blend-mode:multiply" opacity="0.71" fill-rule="evenodd" clip-rule="evenodd" d="M142.486 230.946C142.486 230.946 147.166 237.134 150.019 238.356C152.871 239.578 168.766 243.245 170.599 243.042C172.433 242.839 172.433 226.06 171.415 223.345C170.718 221.586 169.756 219.945 168.563 218.477L142.486 230.946Z" fill="url(#paint11_linear_698_1730)"/>
<path fill-rule="evenodd" clip-rule="evenodd" d="M257.369 104.567L256.574 111.212L244.986 132.809C238.49 132.979 231.564 127.797 230.749 127.152C230.728 127.128 230.683 127.107 230.663 127.086C226.018 119.515 224.391 102.868 224.391 102.868L229.811 96.1808L238.694 94.568L240.93 95.8792L248.803 93.6631L254.962 97.5875L256.789 98.7822L257.369 104.567Z" fill="url(#paint12_linear_698_1730)"/>
<path fill-rule="evenodd" clip-rule="evenodd" d="M233.118 136.984C233.118 136.984 220.168 129.9 213.848 130.139L197.688 141.189C197.688 141.189 191.117 159.004 191.117 172.492C191.117 172.492 206.692 178.11 217.647 176.566C217.647 176.566 230.161 171.002 234.486 161.854C234.477 161.869 236.179 146.177 233.118 136.984Z" fill="url(#paint13_linear_698_1730)"/>
<path fill-rule="evenodd" clip-rule="evenodd" d="M57.7256 83.9749C57.7256 83.9749 87.6665 84.9575 120.675 76.4874C120.675 76.4874 154.092 64.762 160.612 60.2761C167.132 55.7902 188.731 40.3314 188.731 40.3314C188.731 40.3314 154.498 31.7986 100.3 40.3314C100.303 40.3314 71.7985 61.626 57.7256 83.9749Z" fill="url(#paint14_linear_698_1730)"/>
<path fill-rule="evenodd" clip-rule="evenodd" d="M196.475 58.042C196.475 58.042 175.691 82.0037 173.248 83.9748C170.805 85.946 136.937 99.5889 136.937 99.5889L117.822 104.496C117.822 104.496 141.73 104.299 145.804 104.496L153.411 97.0861L179.765 98.1732C179.765 98.1732 203.956 83.5836 219.293 66.7002L196.475 58.042Z" fill="url(#paint15_linear_698_1730)"/>
<path fill-rule="evenodd" clip-rule="evenodd" d="M53.4395 95.8818L74.6445 97.9008C74.6445 97.9008 88.7713 98.5131 96.9218 95.7624C96.9218 95.7624 68.5488 94.3736 57.7432 89.8877L53.4395 95.8818Z" fill="url(#paint16_linear_698_1730)"/>
<path fill-rule="evenodd" clip-rule="evenodd" d="M197.688 141.192C197.688 141.192 206.946 144.663 213.027 144.257C219.108 143.85 233.118 136.972 233.118 136.972C233.118 136.972 226.7 131.36 213.848 130.127L197.688 141.192Z" fill="url(#paint17_linear_698_1730)"/>
<path fill-rule="evenodd" clip-rule="evenodd" d="M28.9313 176.778C28.9313 176.778 56.9101 170.664 64.5917 167.573C72.2732 164.482 84.7214 142.557 84.7214 142.557C84.7214 142.557 69.3522 135.428 42.7444 140.679C42.7444 140.679 26.1657 156.104 28.9313 176.778Z" fill="url(#paint18_linear_698_1730)"/>
<path fill-rule="evenodd" clip-rule="evenodd" d="M36.7714 184.002C36.7714 184.002 56.3667 181.425 63.2808 179.522C70.1948 177.62 81.0213 170.927 81.0213 170.927C81.0213 170.927 72.7214 189.82 69.7229 194.097C69.7229 194.097 46.4422 202.869 34.4539 204.195C34.4658 204.21 33.8326 193.676 36.7714 184.002Z" fill="url(#paint19_linear_698_1730)"/>
<path fill-rule="evenodd" clip-rule="evenodd" d="M141.462 226.284C141.462 226.284 145.942 216.47 151.243 214.374C151.243 214.374 163.876 214.49 168.565 218.477L165.504 237.063L147.982 235.868C147.982 235.868 141.462 232.553 141.462 226.284Z" fill="url(#paint20_linear_698_1730)"/>
<path fill-rule="evenodd" clip-rule="evenodd" d="M141.462 226.284C141.462 226.284 146.963 227.867 152.058 226.284C157.154 224.702 163.467 216.482 163.467 216.482C163.467 216.482 159.394 213.821 151.243 214.374C151.243 214.365 142.89 217.883 141.462 226.284Z" fill="url(#paint21_linear_698_1730)"/>
<path style="mix-blend-mode:multiply" opacity="0.5" fill-rule="evenodd" clip-rule="evenodd" d="M115.368 219.008L108.687 236.465L88.0609 241.369L67.1995 240.422C67.1995 240.422 87.8667 239.153 88.491 236.098C89.1152 233.042 90.5129 224.292 90.5129 224.292C85.4356 209.021 69.7381 194.094 69.7381 194.094C76.3087 184.835 81.0275 170.909 81.0275 170.909L72.1243 175.878L66.3184 166.62C75.9532 158.039 84.7279 142.554 84.7279 142.554L99.9327 159.41C99.9327 159.41 112.381 183.157 115.368 219.008Z" fill="url(#paint22_linear_698_1730)"/>
<path style="mix-blend-mode:multiply" opacity="0.5" fill-rule="evenodd" clip-rule="evenodd" d="M155.687 224.304L165.503 237.075L168.562 218.474L163.467 216.482L155.687 224.304Z" fill="url(#paint23_linear_698_1730)"/>
<path style="mix-blend-mode:multiply" opacity="0.71" fill-rule="evenodd" clip-rule="evenodd" d="M213.03 144.269C213.03 144.269 216.447 156.045 216.856 160.931C217.265 165.817 217.642 176.581 217.642 176.581C217.642 176.581 227.046 173.403 234.48 161.869C234.48 161.869 236.442 148.429 233.121 136.984C233.118 136.984 220.819 143.283 213.03 144.269Z" fill="url(#paint24_linear_698_1730)"/>
<path style="mix-blend-mode:multiply" opacity="0.5" fill-rule="evenodd" clip-rule="evenodd" d="M232.47 104.779L234.949 106.723C234.949 106.723 240.363 104.519 240.54 101.73C240.716 98.9403 240.91 95.8791 240.91 95.8791L238.688 94.5649L232.47 104.779Z" fill="url(#paint25_linear_698_1730)"/>
<path style="mix-blend-mode:multiply" opacity="0.71" fill-rule="evenodd" clip-rule="evenodd" d="M257.369 104.568L256.574 111.213L244.986 132.809C238.49 132.979 231.564 127.798 230.749 127.152C234.324 129.445 238.482 130.661 242.728 130.656C242.728 130.656 243.137 123.84 242.728 119.557C242.319 115.275 239.243 106.715 239.243 106.715L254.961 97.5879L256.789 98.7825L257.369 104.568Z" fill="url(#paint26_linear_698_1730)"/>
<path fill-rule="evenodd" clip-rule="evenodd" d="M238.688 94.5649L232.47 104.779C232.47 104.779 228.733 105.759 224.376 102.877L229.794 96.1807L238.688 94.5649Z" fill="url(#paint27_linear_698_1730)"/>
<path fill-rule="evenodd" clip-rule="evenodd" d="M240.91 95.8793L240.54 101.73C240.54 101.73 237.359 105.864 233.157 107.656C233.157 107.656 241.221 106.777 244.954 105.144C244.954 105.144 254.649 101.261 256.799 98.7733L248.795 93.6572L240.91 95.8793Z" fill="url(#paint28_linear_698_1730)"/>
<path style="mix-blend-mode:multiply" opacity="0.5" fill-rule="evenodd" clip-rule="evenodd" d="M123.23 75.2718L143.74 96.8292L173.262 83.9867C173.262 83.9867 194.859 60.3028 196.489 58.0539L188.748 40.3433C188.748 40.3433 167.558 54.9777 160.629 60.2879C153.7 65.5981 123.23 75.2718 123.23 75.2718Z" fill="url(#paint29_linear_698_1730)"/>
<path style="mix-blend-mode:multiply" opacity="0.5" fill-rule="evenodd" clip-rule="evenodd" d="M153.414 97.0859L164.327 112.252C164.327 112.252 156.009 115.047 147.169 116.135L145.807 104.505L153.414 97.0859Z" fill="url(#paint30_linear_698_1730)"/>
<path style="mix-blend-mode:multiply" opacity="0.5" fill-rule="evenodd" clip-rule="evenodd" d="M179.767 98.1851L178.137 115.54C178.137 115.54 206.764 105.284 220.433 83.3954L219.301 66.7002C219.301 66.7002 197.472 87.2392 179.767 98.1851Z" fill="url(#paint31_linear_698_1730)"/>
<path style="mix-blend-mode:multiply" opacity="0.2" fill-rule="evenodd" clip-rule="evenodd" d="M61.2832 96.6289L81.0217 117.401H90.8357L92.6277 96.829C92.6277 96.829 70.488 98.8928 61.2832 96.6289Z" fill="url(#paint32_linear_698_1730)"/>
<g style="mix-blend-mode:soft-light">
<path fill-rule="evenodd" clip-rule="evenodd" d="M65.6653 77.2555C65.2531 76.1206 65.5308 75.7054 66.152 74.6571C67.1346 73.0085 68.4817 71.6227 69.6704 70.1294C71.979 67.2234 74.4489 64.5175 77.552 62.4269C80.7656 60.2676 83.9165 57.9261 87.3123 56.0594C89.6329 54.7812 91.9774 53.476 94.4802 52.5681C96.2333 51.926 98.064 51.4212 99.8411 50.8777C103.344 49.8144 108.114 49.3485 111.489 51.1405C113.55 52.2336 114.353 54.2555 115.124 56.3402C115.506 57.3676 115.835 58.2516 115.634 59.3716C115.397 60.3724 115.026 61.3367 114.532 62.2388C113.117 65.1238 110.491 67.77 108.033 69.7889C103.016 73.9045 97.3234 76.8762 91.1978 78.9578C89.5581 79.5134 87.9126 80.1346 86.2282 80.5348C85.1351 80.7946 84.012 80.9141 82.9219 81.1859C80.3863 81.8504 77.809 82.3443 75.2074 82.6642C74.4966 82.7419 73.6932 82.9898 72.9914 82.9868C72.3522 82.9868 71.731 82.5866 71.1008 82.4761C70.0495 82.2939 68.5563 82.3357 67.6185 81.816C65.1127 80.4392 64.8171 77.7214 65.6653 77.2555Z" fill="#FFA989"/>
<path fill-rule="evenodd" clip-rule="evenodd" d="M107.505 74.2658C107.729 73.2086 107.669 73.1638 108.335 72.5634C108.71 72.0207 109.143 71.5201 109.625 71.0701C110.237 70.5421 110.906 70.0843 111.62 69.7053C113.678 68.5614 116.19 67.2831 118.597 67.9909C120.222 68.4688 121.136 69.2513 120.759 71.0253C120.547 72.0259 119.714 73.0353 118.932 73.6536C117.531 74.7676 115.927 75.4306 114.287 76.1205C113.045 76.6432 111.226 76.9538 109.876 76.6551C108.643 76.3833 107.332 75.0423 107.505 74.2658Z" fill="#FFA989"/>
<path fill-rule="evenodd" clip-rule="evenodd" d="M143.092 44.9252C141.217 45.5225 140.219 45.8809 138.66 46.9412C136.343 48.5211 133.852 50.107 131.731 51.9468C130.336 53.1231 129.133 54.5096 128.165 56.0563C127.445 57.2689 127.212 58.7055 127.105 60.0972C126.997 61.489 127.448 64.0904 129.001 64.7295C129.599 64.9744 130.674 64.7564 131.265 64.7623C132.579 64.7512 133.885 64.5634 135.148 64.2038C136.462 63.8783 137.785 63.7917 139.093 63.4064C140.401 63.0211 141.742 62.6448 143.086 62.3133C145.98 61.5935 148.785 60.8977 151.494 59.6104C154.05 58.3919 156.705 57.3794 159.214 56.0563C161.027 55.1036 162.798 54.13 164.665 53.2848C167.242 52.117 169.826 50.9761 172.307 49.6172C173.278 49.0592 174.155 48.3539 174.909 47.5266C175.724 46.6963 176.701 45.9944 177.298 44.982C177.57 44.528 178.194 43.6768 178.194 43.1123C178.17 42.3955 177.14 41.5115 176.605 41.177C175.581 40.5953 174.449 40.2275 173.278 40.0958C171.638 39.854 169.98 39.7591 168.323 39.8121C166.325 39.9505 164.336 40.2088 162.368 40.5857C161.099 40.8246 159.979 41.1352 158.674 41.1561C156.373 41.1801 154.077 41.3728 151.804 41.7325C150.484 41.9475 149.215 42.4015 147.922 42.7659C146.757 43.0974 145.532 43.3393 144.418 43.859C143.863 44.1039 141.859 44.5489 143.092 44.9252Z" fill="#FFA989"/>
<path fill-rule="evenodd" clip-rule="evenodd" d="M137.66 41.1201C136.412 41.7174 134.563 42.3506 133.805 43.6528C133.306 44.5039 133.999 44.6742 134.751 44.6772C136.083 44.6772 137.439 44.05 138.733 43.7005C139.757 43.4143 140.723 42.9514 141.588 42.3327C141.979 42.034 142.761 41.7622 142.499 41.1739C142.343 40.8274 141.534 40.463 141.197 40.3615C140.548 40.1706 139.862 40.1399 139.199 40.272C138.536 40.4041 137.915 40.6951 137.389 41.1201H137.66Z" fill="#FFA989"/>
<path fill-rule="evenodd" clip-rule="evenodd" d="M182.215 80.5139C181.083 80.8812 179.957 81.0783 178.849 81.4099C177.741 81.7414 176.695 82.4641 175.74 83.1421C174.094 84.3069 172.311 85.8002 171.317 87.5862C170.483 89.0795 169.584 91.7884 171.335 93.0129C173.742 94.6943 177.499 92.986 179.903 92.1856C183.675 90.9342 187.827 89.4797 191.025 87.0307C192.387 85.941 193.692 84.7817 194.935 83.5572C196.014 82.5312 197.012 81.4239 197.921 80.2451C198.558 79.4118 198.653 78.262 198.54 77.2435C198.426 76.2251 197.47 75.4784 196.577 75.126C194.785 74.4212 193.274 75.2604 191.524 75.5471C189.696 75.8458 187.567 76.3744 185.933 77.3003C183.445 78.7219 180.817 79.9315 182.215 80.5139Z" fill="#FFA989"/>
<path fill-rule="evenodd" clip-rule="evenodd" d="M188.462 70.4607C188.164 70.0708 187.972 69.6095 187.907 69.1227C188.456 68.9793 188.767 68.3462 189.143 67.9937C189.479 67.7071 189.854 67.4706 190.257 67.2919C190.908 66.9723 192.085 66.4168 192.82 66.6946C194.224 67.2321 194.564 68.6 193.841 69.9201C193.476 70.567 192.965 71.1198 192.348 71.5346C191.732 71.9493 191.027 72.2146 190.29 72.3094C189.209 72.4498 186.87 70.9206 188.199 69.6513L188.462 70.4607Z" fill="#FFA989"/>
<path fill-rule="evenodd" clip-rule="evenodd" d="M204.491 66.6584C203.557 66.8316 202.281 66.8436 201.412 67.2766C201.23 67.3692 200.988 67.6619 200.797 67.7933C199.862 68.4235 198.796 68.9312 197.948 69.6689C197.025 70.4753 195.997 71.9387 196.481 73.208C198.157 77.6103 204.285 75.1553 207.081 73.5993C208.022 73.0766 208.637 72.318 209.494 71.6968C210.139 71.2309 210.665 70.8815 211.137 70.2035C211.821 69.2299 211.964 68.5698 211.486 67.4498C211.128 66.6166 210.262 66.0969 209.395 65.8968C208.639 65.6804 207.858 65.5629 207.072 65.5474C205.208 65.631 203.613 66.8406 202.054 67.7366L204.491 66.6584Z" fill="#FFA989"/>
<path fill-rule="evenodd" clip-rule="evenodd" d="M44.203 145.715C39.9829 147.695 36.2406 150.911 33.8662 154.955C32.8116 156.748 31.9249 158.635 31.2172 160.591C30.8409 161.616 30.6885 162.682 30.2883 163.715C29.9052 164.57 29.6101 165.462 29.4073 166.376C29.028 168.533 28.0125 172.914 31.4769 173.201C33.03 173.329 34.8459 172.95 36.3601 172.636C39.3467 172.018 42.4587 170.811 45.2154 169.515C48.2797 168.073 51.3768 166.457 54.0199 164.336C56.5108 162.335 59.2973 160.702 61.5552 158.417C64.2431 155.687 68.1468 151.21 65.1034 147.322C62.2303 143.648 56.03 144.487 52.007 144.968C50.1075 145.198 47.99 145.219 46.1413 145.777C45.678 145.915 45.2297 146.099 44.8033 146.327C44.5166 146.485 44.2867 146.802 44.203 145.715Z" fill="#FFA989"/>
<path fill-rule="evenodd" clip-rule="evenodd" d="M59.1455 163.918C59.4233 162.983 59.5159 162.568 60.1849 161.923C60.8539 161.278 61.5139 160.516 62.1889 159.832C63.2432 158.745 65.4742 157.479 67.0362 157.389C67.741 157.347 68.6968 157.368 69.2165 157.939C69.7361 158.509 69.5002 159.71 69.2165 160.376C68.9727 161.011 68.5768 161.577 68.0635 162.024C67.4334 162.577 66.6897 163.362 65.952 163.757C64.9201 164.258 63.8418 164.658 62.7324 164.951C61.8722 165.205 60.5433 165.647 59.7309 164.951C59.259 164.545 58.7991 163.592 59.1455 163.918Z" fill="#FFA989"/>
<path fill-rule="evenodd" clip-rule="evenodd" d="M47.464 186.195C46.568 186.401 45.245 186.515 44.4267 187.091C43.7308 187.638 43.1216 188.286 42.6197 189.015C41.5534 190.415 40.6336 191.93 39.5703 193.339C38.6927 194.52 37.884 195.751 37.1482 197.025C36.6465 197.876 36.3717 198.673 36.8496 199.593C38.0442 201.893 41.7625 201.338 43.7636 200.857C45.9139 200.34 47.8433 199.298 49.8593 198.414C51.6752 197.616 53.5656 196.92 55.3068 195.992C58.3114 194.37 61.9671 192.706 63.5918 189.523C64.222 188.277 64.4668 187.265 63.9173 185.953C63.4016 184.76 62.4873 183.782 61.3308 183.188C60.1153 182.525 58.7983 182.674 57.4692 182.665C55.5418 182.659 53.6235 182.93 51.7736 183.472C50.6357 183.812 49.4471 184.368 48.345 184.825C46.6426 185.517 45.7796 186.906 47.464 186.195Z" fill="#FFA989"/>
<path fill-rule="evenodd" clip-rule="evenodd" d="M36.8673 188.098C36.8019 187.646 36.8159 187.186 36.909 186.739C37.7094 186.494 38.053 185.604 39.0535 185.912C39.7852 186.136 39.9017 186.978 39.7225 187.554C39.3582 188.707 36.5417 191.096 36.5955 188.641L36.8673 188.098Z" fill="#FFA989"/>
<path fill-rule="evenodd" clip-rule="evenodd" d="M214.822 133.762C213.466 133.818 212.114 133.917 210.766 134.061C210.406 134.353 210.014 134.603 209.596 134.804C208.201 135.539 206.932 136.071 205.713 137.116C204.736 137.961 202.428 139.452 202.562 141.023C202.691 142.462 204.781 142.74 205.892 142.746C207.003 142.752 208.174 142.498 209.312 142.447C210.892 142.364 212.448 142.166 214.016 141.978C216.02 141.736 218.158 141.363 219.926 140.351C220.913 139.801 221.774 139.052 222.456 138.152C222.806 137.713 223.334 137.274 223.227 136.659C223.155 136.256 222.408 135.441 222.116 135.166C221.638 134.788 221.105 134.485 220.536 134.27C217.943 133.129 214.981 134.046 214.822 133.762Z" fill="#FFA989"/>
<path fill-rule="evenodd" clip-rule="evenodd" d="M148.254 220.696C147.158 221.18 146.477 221.294 145.987 222.309C145.808 222.686 145.22 223.489 145.235 223.988C145.256 224.669 145.942 224.636 146.519 224.48C147.26 224.28 148.012 223.608 148.627 223.202C149.112 222.89 149.543 222.5 149.903 222.049C150.136 221.769 150.339 221.625 150.413 221.24C150.488 220.855 150.3 220.577 150.652 220.344C150.425 218.77 147.454 220.941 146.895 220.959L148.254 220.696Z" fill="#FFA989"/>
<path fill-rule="evenodd" clip-rule="evenodd" d="M155.86 217.71C154.17 218.46 153.032 219.042 152.166 220.718C151.894 221.246 151.634 221.796 151.909 222.331C152.79 224.042 154.675 222.519 155.648 221.784C156.32 221.279 157.052 220.927 157.628 220.291C157.891 220.01 158.067 219.693 158.303 219.395C158.539 219.096 158.939 218.842 159.08 218.52C159.352 217.883 158.913 217.403 158.324 217.217C157.207 216.865 156.362 217.6 155.317 217.704L155.86 217.71Z" fill="#FFA989"/>
<path fill-rule="evenodd" clip-rule="evenodd" d="M67.0238 180.491C66.5221 181.572 64.7123 185.643 67.1135 185.622C69.2041 185.601 72.6297 183.34 72.7432 181.034C72.8178 179.493 71.5844 178.744 70.1478 178.579C68.323 178.367 67.2598 179.819 66.4803 181.306L67.0238 180.491Z" fill="#FFA989"/>
<path fill-rule="evenodd" clip-rule="evenodd" d="M73.272 145.443C72.8031 146.088 72.1402 146.637 72.8032 147.289C73.0997 147.615 73.5014 147.826 73.9381 147.886C74.8579 148.014 76.2198 147.19 76.2646 146.264C76.2791 145.945 76.2116 145.627 76.0684 145.341C75.9251 145.055 75.711 144.81 75.4464 144.63C74.7027 144.09 74.189 144.43 73.5439 144.908L73.272 145.443Z" fill="#FFA989"/>
</g>
<path fill-rule="evenodd" clip-rule="evenodd" d="M98.4014 81.2687C98.4014 81.2687 110.539 77.5324 113.218 76.4901C115.897 75.4478 129.435 73.2347 129.435 73.2347C129.435 73.2347 141.056 68.244 144.315 66.7119C147.573 65.1798 155.861 61.1001 155.861 61.1001L165.511 56.6709C165.511 56.6709 158.985 63.3669 153.266 65.5591C147.546 67.7513 133.025 73.5931 133.025 73.5931C133.025 73.5931 128.68 74.8027 122.572 76.7768C116.464 78.751 98.4014 81.2687 98.4014 81.2687Z" fill="#FFBD4A"/>
<path fill-rule="evenodd" clip-rule="evenodd" d="M173.963 97.9582L179.536 100.646C179.536 100.646 185.3 97.2175 186.202 93.9263C186.202 93.9233 175.286 96.9308 173.963 97.9582Z" fill="#FFAB4A"/>
<path fill-rule="evenodd" clip-rule="evenodd" d="M143.193 104.496L145.998 106.111L148.02 102.339L143.193 104.496Z" fill="#FFAB4A"/>
<path style="mix-blend-mode:multiply" opacity="0.71" fill-rule="evenodd" clip-rule="evenodd" d="M98.4014 140.792C98.4014 140.792 104.99 147.363 119.457 151.81C119.457 151.81 120.475 150.75 121.697 144.532C122.919 138.313 121.697 136.136 121.697 136.136C121.697 136.136 103.939 138.379 98.4014 140.792Z" fill="url(#paint33_linear_698_1730)"/>
<path style="mix-blend-mode:multiply" opacity="0.71" fill-rule="evenodd" clip-rule="evenodd" d="M108.125 160.462C108.125 160.462 108.316 162.66 109.132 164.172C109.947 165.683 119.083 167.962 120.293 167.457C122.533 166.516 119.994 161.065 119.05 159.435C118.327 158.274 117.487 157.189 116.544 156.197L108.125 160.462Z" fill="url(#paint34_linear_698_1730)"/>
<path fill-rule="evenodd" clip-rule="evenodd" d="M51.4023 200.265C51.4023 200.265 63.761 194.745 67.6347 191.965C71.5083 189.184 77.3202 179.155 77.3202 179.155L71.0961 194.617L66.9536 196.179L62.5395 197.129L51.4023 200.265Z" fill="#FFAB4A"/>
<path fill-rule="evenodd" clip-rule="evenodd" d="M59.0244 169.404L69.5313 163.481C69.5313 163.481 68.5427 166.856 67.0345 167.764C65.5262 168.672 59.0244 169.404 59.0244 169.404Z" fill="#FFAB4A"/>
<path fill-rule="evenodd" clip-rule="evenodd" d="M209.374 144.14L214.033 147.894C214.033 147.894 215.177 144.821 215.404 143.842C215.631 142.862 209.374 144.14 209.374 144.14Z" fill="#FF864A"/>
<path fill-rule="evenodd" clip-rule="evenodd" d="M236.045 107.271L242.729 105.114L248.586 103.582C248.586 103.582 242.045 107.044 240.91 107.656C239.775 108.268 236.045 107.271 236.045 107.271Z" fill="#FFAB4A"/>
<path fill-rule="evenodd" clip-rule="evenodd" d="M230.743 104.938L233.156 103.062V105.317L230.743 104.938Z" fill="#FFAB4A"/>
<path fill-rule="evenodd" clip-rule="evenodd" d="M150.254 226.714L158.243 222.175L157.29 226.392L150.254 226.714Z" fill="#FF864A"/>
<path fill-rule="evenodd" clip-rule="evenodd" d="M60.7119 96.6285C60.7119 96.6285 66.8047 96.1357 70.3796 96.1357C73.9546 96.1357 81.0209 96.8286 81.0209 96.8286L87.8633 97.5036C87.8633 97.5036 83.9388 97.8232 75.6539 97.9576C70.6405 98.0379 65.6325 97.5925 60.7119 96.6285V96.6285Z" fill="#FFB14A"/>
<path fill-rule="evenodd" clip-rule="evenodd" d="M95.0049 135.094C95.0049 135.094 101.253 128.147 103.965 127.152C106.677 126.158 119.429 131.975 121.672 132.803C123.915 133.63 117.354 146.541 115.684 147.894C114.015 149.247 95.2767 142.402 95.0049 135.094Z" fill="url(#paint35_linear_698_1730)"/>
<path fill-rule="evenodd" clip-rule="evenodd" d="M118.408 164.166C117.829 165.823 112.136 164.96 110.084 164.166L109.935 164.079L109.505 163.781C109.459 163.757 109.421 163.719 109.397 163.673C107.934 162.18 107.591 158.061 108.579 155.887C108.579 155.887 113.549 154.361 115.377 154.991C116.571 155.4 117.742 158.455 118.259 160.991V161.015C118.516 162.38 118.602 163.607 118.408 164.166Z" fill="url(#paint36_linear_698_1730)"/>
<path style="mix-blend-mode:multiply" opacity="0.5" fill-rule="evenodd" clip-rule="evenodd" d="M110.953 139L115.69 147.894C115.69 147.894 121.756 141.291 122.135 133.687L110.953 139Z" fill="url(#paint37_linear_698_1730)"/>
<path fill-rule="evenodd" clip-rule="evenodd" d="M49.6762 111.188L38.1957 113.972C38.1957 113.972 36.3201 120.611 36.5949 123.383L43.7089 130.918C43.7089 130.918 45.9131 117.413 49.6762 111.188Z" fill="url(#paint38_linear_698_1730)"/>
<path fill-rule="evenodd" clip-rule="evenodd" d="M95.0049 135.094C98.9772 136.935 103.173 138.248 107.486 139.001C114.355 140.147 122.135 133.687 122.135 133.687C122.135 133.687 114.77 127.117 104.174 125.883C104.174 125.883 97.2478 129.844 95.0049 135.094Z" fill="url(#paint39_linear_698_1730)"/>
<path style="mix-blend-mode:multiply" opacity="0.5" fill-rule="evenodd" clip-rule="evenodd" d="M118.409 164.165C117.829 165.823 112.137 164.96 110.085 164.165L109.935 164.079L109.505 163.78L109.377 163.696L109.398 163.673L110.945 161.522L117.312 159.975L118.259 161.005V161.029C118.516 162.379 118.603 163.607 118.409 164.165Z" fill="url(#paint40_linear_698_1730)"/>
<path fill-rule="evenodd" clip-rule="evenodd" d="M108.574 155.875C108.574 155.875 108.454 160.429 110.39 161.34C112.325 162.251 116.736 160.42 117.318 159.978C117.901 159.536 115.969 155.382 114.299 154.844C112.63 154.307 108.574 155.875 108.574 155.875Z" fill="url(#paint41_linear_698_1730)"/>
<path style="mix-blend-mode:multiply" opacity="0.71" fill-rule="evenodd" clip-rule="evenodd" d="M207.517 216.563C207.517 216.563 205.349 216.159 203.673 216.542C201.998 216.924 199.286 225.675 199.286 226.995C199.286 232.159 205.289 230.692 207.114 230.211C208.939 229.731 209.378 225.821 209.378 225.821L207.517 216.563Z" fill="url(#paint42_linear_698_1730)"/>
<path fill-rule="evenodd" clip-rule="evenodd" d="M201.199 225.484C199.759 224.48 202.095 219.212 203.424 217.462L203.546 217.339L203.953 217.008C203.988 216.97 204.034 216.943 204.084 216.93C205.927 215.924 209.977 216.691 211.804 218.226C211.804 218.226 211.948 223.42 210.837 225.009C210.129 226.039 206.868 226.365 204.284 226.183H204.266C202.889 226.063 201.68 225.818 201.199 225.484Z" fill="url(#paint43_linear_698_1730)"/>
<path style="mix-blend-mode:multiply" opacity="0.5" fill-rule="evenodd" clip-rule="evenodd" d="M201.199 225.484C199.759 224.48 202.095 219.212 203.424 217.462L203.546 217.339L203.953 217.008L204.069 216.906L204.084 216.93L205.742 219L205.533 225.547L204.284 226.183H204.266C202.889 226.063 201.68 225.818 201.199 225.484Z" fill="url(#paint44_linear_698_1730)"/>
<path fill-rule="evenodd" clip-rule="evenodd" d="M211.816 218.22C211.816 218.22 207.459 216.888 206.064 218.519C204.669 220.149 205.255 224.88 205.524 225.558C205.792 226.236 210.317 225.487 211.279 224.023C212.24 222.56 211.816 218.22 211.816 218.22Z" fill="url(#paint45_linear_698_1730)"/>
<path fill-rule="evenodd" clip-rule="evenodd" d="M72.1211 208.786L82.7654 209.535L99.2277 208.786L104.547 210.646L98.8424 209.831L87.8576 214.992L87.0602 216.482L81.0302 214.857L72.1211 208.786Z" fill="url(#paint46_linear_698_1730)"/>
<path fill-rule="evenodd" clip-rule="evenodd" d="M72.1211 208.786L81.0302 214.296L84.2049 213.803L88.9955 213.397L98.8424 209.831L87.8576 214.992L87.0602 216.482L80.2328 215.231L72.1211 208.786Z" fill="url(#paint47_linear_698_1730)"/>
<path fill-rule="evenodd" clip-rule="evenodd" d="M92.6309 81.8213L101.289 86.9583L110.954 86.1997L122.581 76.7709L107.606 75.6987L98.4011 78.0701L92.6309 81.8213Z" fill="url(#paint48_linear_698_1730)"/>
<path fill-rule="evenodd" clip-rule="evenodd" d="M92.6328 81.8239H95.5149L100.813 82.9976H106.518L112.733 80.5456L119.548 76.7705H122.577C122.577 76.7705 116.406 83.0932 110.95 86.1993L101.285 86.9579L92.6328 81.8239Z" fill="url(#paint49_linear_698_1730)"/>
<path fill-rule="evenodd" clip-rule="evenodd" d="M39.0234 203.46L43.1211 199.617L47.6011 200.265C47.6011 200.265 48.1715 203.108 47.6011 205.342C47.0306 207.576 43.1211 206.184 43.1211 206.184L39.0234 203.46Z" fill="url(#paint50_linear_698_1730)"/>
<path fill-rule="evenodd" clip-rule="evenodd" d="M39.0234 203.461C39.0234 203.461 43.151 204.805 43.829 204.805C44.507 204.805 46.1377 204.739 46.8156 204.207C47.4936 203.676 47.5891 200.277 47.5891 200.277C47.5891 200.277 48.1596 203.458 47.5891 205.354C47.5891 205.354 47.4935 206.985 44.6025 206.883L42.7 206.304L39.0234 203.461Z" fill="url(#paint51_linear_698_1730)"/>
<path fill-rule="evenodd" clip-rule="evenodd" d="M219.965 142.551C219.965 142.551 221.028 140.162 222.456 139.137C223.883 138.113 228.058 138.223 228.058 138.223L228.581 139.137C228.581 139.137 227.142 142.826 226.022 143.471C224.902 144.116 222.557 143.471 222.557 143.471L219.965 142.551Z" fill="url(#paint52_linear_698_1730)"/>
<path fill-rule="evenodd" clip-rule="evenodd" d="M228.058 138.223C228.058 138.223 226.58 140.705 225.562 141.368C224.822 141.826 224.044 142.218 223.235 142.539C222.151 142.695 221.049 142.695 219.965 142.539C219.965 142.539 222.372 143.695 224.272 143.748C224.272 143.748 226.413 143.781 226.726 143.45C227.04 143.118 228.581 139.116 228.581 139.116L228.058 138.223Z" fill="url(#paint53_linear_698_1730)"/>
<defs>
<radialGradient id="paint0_radial_698_1730" cx="0" cy="0" r="1" gradientUnits="userSpaceOnUse" gradientTransform="translate(150 150) scale(150 150)">
<stop stop-color="#FF4000"/>
<stop offset="1"/>
</radialGradient>
<radialGradient id="paint1_radial_698_1730" cx="0" cy="0" r="1" gradientUnits="userSpaceOnUse" gradientTransform="translate(150.001 150) scale(117.81 117.81)">
<stop stop-color="#FF7300"/>
<stop offset="1"/>
</radialGradient>
<radialGradient id="paint2_radial_698_1730" cx="0" cy="0" r="1" gradientUnits="userSpaceOnUse" gradientTransform="translate(150 150) scale(112.422 112.422)">
<stop stop-color="#FF7900"/>
<stop offset="0.18" stop-color="#FC7800"/>
<stop offset="0.32" stop-color="#F37300"/>
<stop offset="0.43" stop-color="#E36C00"/>
<stop offset="0.54" stop-color="#CC6100"/>
<stop offset="0.64" stop-color="#AF5300"/>
<stop offset="0.74" stop-color="#8C4200"/>
<stop offset="0.83" stop-color="#622E00"/>
<stop offset="0.92" stop-color="#321800"/>
<stop offset="1"/>
</radialGradient>
<linearGradient id="paint3_linear_698_1730" x1="220.9" y1="201.76" x2="197.585" y2="130.311" gradientUnits="userSpaceOnUse">
<stop stop-color="#5B006F"/>
<stop offset="0.02" stop-color="#5C0270"/>
<stop offset="0.23" stop-color="#6A1A7C"/>
<stop offset="0.46" stop-color="#732C84"/>
<stop offset="0.7" stop-color="#793689"/>
<stop offset="0.99" stop-color="#7B398B"/>
</linearGradient>
<radialGradient id="paint4_radial_698_1730" cx="0" cy="0" r="1" gradientUnits="userSpaceOnUse" gradientTransform="translate(91.4857 109.302) scale(163.676 163.676)">
<stop offset="0.01" stop-color="#9D4863"/>
<stop offset="0.24" stop-color="#9A4563"/>
<stop offset="0.42" stop-color="#903D61"/>
<stop offset="0.58" stop-color="#802E5F"/>
<stop offset="0.73" stop-color="#68195B"/>
<stop offset="0.87" stop-color="#4C0057"/>
<stop offset="0.98" stop-color="#4C0086"/>
</radialGradient>
<linearGradient id="paint5_linear_698_1730" x1="84.7275" y1="195.877" x2="127.212" y2="195.877" gradientUnits="userSpaceOnUse">
<stop stop-color="#CA528D"/>
<stop offset="1" stop-color="#8E7090"/>
</linearGradient>
<linearGradient id="paint6_linear_698_1730" x1="191.107" y1="175.685" x2="231.573" y2="175.685" gradientUnits="userSpaceOnUse">
<stop stop-color="#CA528D"/>
<stop offset="1" stop-color="#8E7090"/>
</linearGradient>
<linearGradient id="paint7_linear_698_1730" x1="230.743" y1="138.797" x2="245.661" y2="138.797" gradientUnits="userSpaceOnUse">
<stop stop-color="#CA528D"/>
<stop offset="1" stop-color="#8E7090"/>
</linearGradient>
<linearGradient id="paint8_linear_698_1730" x1="53.4395" y1="105.114" x2="231.532" y2="105.114" gradientUnits="userSpaceOnUse">
<stop stop-color="#CA528D"/>
<stop offset="1" stop-color="#8E7090"/>
</linearGradient>
<linearGradient id="paint9_linear_698_1730" x1="53.4405" y1="78.0701" x2="220.434" y2="78.0701" gradientUnits="userSpaceOnUse">
<stop offset="0.01" stop-color="#DE6863"/>
<stop offset="0.25" stop-color="#DB6563"/>
<stop offset="0.43" stop-color="#D35B62"/>
<stop offset="0.6" stop-color="#C54B60"/>
<stop offset="0.76" stop-color="#B1335D"/>
<stop offset="0.91" stop-color="#981659"/>
<stop offset="1" stop-color="#860057"/>
</linearGradient>
<linearGradient id="paint10_linear_698_1730" x1="72.1213" y1="241.379" x2="72.1213" y2="139" gradientUnits="userSpaceOnUse">
<stop stop-color="#860057"/>
<stop offset="0.03" stop-color="#8C0757"/>
<stop offset="0.19" stop-color="#AA2456"/>
<stop offset="0.36" stop-color="#C13C55"/>
<stop offset="0.54" stop-color="#D14C54"/>
<stop offset="0.74" stop-color="#DB5654"/>
<stop offset="0.99" stop-color="#DE5954"/>
</linearGradient>
<linearGradient id="paint11_linear_698_1730" x1="142.486" y1="230.764" x2="172.099" y2="230.764" gradientUnits="userSpaceOnUse">
<stop stop-color="#CA528D"/>
<stop offset="1" stop-color="#8E7090"/>
</linearGradient>
<linearGradient id="paint12_linear_698_1730" x1="240.874" y1="132.812" x2="240.874" y2="93.6631" gradientUnits="userSpaceOnUse">
<stop stop-color="#860057"/>
<stop offset="0.03" stop-color="#880557"/>
<stop offset="0.23" stop-color="#951C56"/>
<stop offset="0.45" stop-color="#9E2C55"/>
<stop offset="0.69" stop-color="#A33654"/>
<stop offset="0.99" stop-color="#A53954"/>
</linearGradient>
<linearGradient id="paint13_linear_698_1730" x1="213.027" y1="176.849" x2="213.027" y2="130.133" gradientUnits="userSpaceOnUse">
<stop stop-color="#860057"/>
<stop offset="0.03" stop-color="#880557"/>
<stop offset="0.23" stop-color="#951C56"/>
<stop offset="0.45" stop-color="#9E2C55"/>
<stop offset="0.69" stop-color="#A33654"/>
<stop offset="0.99" stop-color="#A53954"/>
</linearGradient>
<linearGradient id="paint14_linear_698_1730" x1="123.231" y1="84.0107" x2="123.231" y2="36.5384" gradientUnits="userSpaceOnUse">
<stop stop-color="#F49F57"/>
<stop offset="0.1" stop-color="#F79656"/>
<stop offset="0.35" stop-color="#FB8655"/>
<stop offset="0.63" stop-color="#FE7C54"/>
<stop offset="0.99" stop-color="#FF7954"/>
</linearGradient>
<linearGradient id="paint15_linear_698_1730" x1="168.562" y1="104.496" x2="168.562" y2="58.042" gradientUnits="userSpaceOnUse">
<stop stop-color="#F47D57"/>
<stop offset="0.4" stop-color="#FC7A55"/>
<stop offset="0.99" stop-color="#FF7954"/>
</linearGradient>
<linearGradient id="paint16_linear_698_1730" x1="53.4395" y1="93.9226" x2="96.9068" y2="93.9226" gradientUnits="userSpaceOnUse">
<stop stop-color="#F49F57"/>
<stop offset="0.1" stop-color="#F79656"/>
<stop offset="0.35" stop-color="#FB8655"/>
<stop offset="0.63" stop-color="#FE7C54"/>
<stop offset="0.99" stop-color="#FF7954"/>
</linearGradient>
<linearGradient id="paint17_linear_698_1730" x1="197.688" y1="137.22" x2="233.118" y2="137.22" gradientUnits="userSpaceOnUse">
<stop offset="0.01" stop-color="#C75357"/>
<stop offset="0.13" stop-color="#D35856"/>
<stop offset="0.37" stop-color="#E35F55"/>
<stop offset="0.65" stop-color="#ED6454"/>
<stop offset="0.99" stop-color="#F06554"/>
</linearGradient>
<linearGradient id="paint18_linear_698_1730" x1="28.6207" y1="157.762" x2="84.7214" y2="157.762" gradientUnits="userSpaceOnUse">
<stop stop-color="#F49F57"/>
<stop offset="0.1" stop-color="#F79656"/>
<stop offset="0.35" stop-color="#FB8655"/>
<stop offset="0.63" stop-color="#FE7C54"/>
<stop offset="0.99" stop-color="#FF7954"/>
</linearGradient>
<linearGradient id="paint19_linear_698_1730" x1="34.4091" y1="187.559" x2="81.0332" y2="187.559" gradientUnits="userSpaceOnUse">
<stop stop-color="#F49F57"/>
<stop offset="0.1" stop-color="#F79656"/>
<stop offset="0.35" stop-color="#FB8655"/>
<stop offset="0.63" stop-color="#FE7C54"/>
<stop offset="0.99" stop-color="#FF7954"/>
</linearGradient>
<linearGradient id="paint20_linear_698_1730" x1="155.012" y1="237.075" x2="155.012" y2="214.374" gradientUnits="userSpaceOnUse">
<stop stop-color="#860057"/>
<stop offset="0.03" stop-color="#880557"/>
<stop offset="0.23" stop-color="#951C56"/>
<stop offset="0.45" stop-color="#9E2C55"/>
<stop offset="0.69" stop-color="#A33654"/>
<stop offset="0.99" stop-color="#A53954"/>
</linearGradient>
<linearGradient id="paint21_linear_698_1730" x1="141.462" y1="220.643" x2="163.467" y2="220.643" gradientUnits="userSpaceOnUse">
<stop offset="0.01" stop-color="#C75357"/>
<stop offset="0.26" stop-color="#D15149"/>
<stop offset="0.58" stop-color="#D94F3F"/>
<stop offset="0.99" stop-color="#DB4F3C"/>
</linearGradient>
<linearGradient id="paint22_linear_698_1730" x1="66.3184" y1="191.964" x2="115.377" y2="191.964" gradientUnits="userSpaceOnUse">
<stop stop-color="#CA528D"/>
<stop offset="1" stop-color="#8E7090"/>
</linearGradient>
<linearGradient id="paint23_linear_698_1730" x1="155.687" y1="226.78" x2="168.559" y2="226.78" gradientUnits="userSpaceOnUse">
<stop stop-color="#CA528D"/>
<stop offset="1" stop-color="#8E7090"/>
</linearGradient>
<linearGradient id="paint24_linear_698_1730" x1="213.027" y1="156.783" x2="235.054" y2="156.783" gradientUnits="userSpaceOnUse">
<stop stop-color="#CA528D"/>
<stop offset="1" stop-color="#8E7090"/>
</linearGradient>
<linearGradient id="paint25_linear_698_1730" x1="232.47" y1="100.643" x2="240.91" y2="100.643" gradientUnits="userSpaceOnUse">
<stop stop-color="#CA528D"/>
<stop offset="1" stop-color="#8E7090"/>
</linearGradient>
<linearGradient id="paint26_linear_698_1730" x1="230.743" y1="115.206" x2="257.369" y2="115.206" gradientUnits="userSpaceOnUse">
<stop stop-color="#CA528D"/>
<stop offset="1" stop-color="#8E7090"/>
</linearGradient>
<linearGradient id="paint27_linear_698_1730" x1="224.141" y1="101.739" x2="239.46" y2="98.9548" gradientUnits="userSpaceOnUse">
<stop stop-color="#F47D57"/>
<stop offset="0.4" stop-color="#FC7A55"/>
<stop offset="0.99" stop-color="#FF7954"/>
</linearGradient>
<linearGradient id="paint28_linear_698_1730" x1="232.163" y1="102.333" x2="256.612" y2="97.8901" gradientUnits="userSpaceOnUse">
<stop stop-color="#F47D57"/>
<stop offset="0.4" stop-color="#FC7A55"/>
<stop offset="0.99" stop-color="#FF7954"/>
</linearGradient>
<linearGradient id="paint29_linear_698_1730" x1="123.23" y1="68.5818" x2="196.474" y2="68.5818" gradientUnits="userSpaceOnUse">
<stop stop-color="#CA528D"/>
<stop offset="1" stop-color="#8E7090"/>
</linearGradient>
<linearGradient id="paint30_linear_698_1730" x1="145.807" y1="106.607" x2="164.327" y2="106.607" gradientUnits="userSpaceOnUse">
<stop stop-color="#CA528D"/>
<stop offset="1" stop-color="#8E7090"/>
</linearGradient>
<linearGradient id="paint31_linear_698_1730" x1="178.137" y1="91.1128" x2="220.433" y2="91.1128" gradientUnits="userSpaceOnUse">
<stop stop-color="#CA528D"/>
<stop offset="1" stop-color="#8E7090"/>
</linearGradient>
<linearGradient id="paint32_linear_698_1730" x1="61.2832" y1="107.016" x2="92.6337" y2="107.016" gradientUnits="userSpaceOnUse">
<stop stop-color="#CA528D"/>
<stop offset="1" stop-color="#8E7090"/>
</linearGradient>
<linearGradient id="paint33_linear_698_1730" x1="98.4014" y1="143.973" x2="122.241" y2="143.973" gradientUnits="userSpaceOnUse">
<stop stop-color="#CA528D"/>
<stop offset="1" stop-color="#8E7090"/>
</linearGradient>
<linearGradient id="paint34_linear_698_1730" x1="108.125" y1="161.863" x2="121.192" y2="161.863" gradientUnits="userSpaceOnUse">
<stop stop-color="#CA528D"/>
<stop offset="1" stop-color="#8E7090"/>
</linearGradient>
<linearGradient id="paint35_linear_698_1730" x1="108.573" y1="148.064" x2="108.573" y2="127.036" gradientUnits="userSpaceOnUse">
<stop stop-color="#A20057"/>
<stop offset="0.28" stop-color="#BA2456"/>
<stop offset="0.57" stop-color="#CE4155"/>
<stop offset="0.82" stop-color="#DA5354"/>
<stop offset="0.99" stop-color="#DE5954"/>
</linearGradient>
<linearGradient id="paint36_linear_698_1730" x1="113.265" y1="165.113" x2="113.265" y2="154.845" gradientUnits="userSpaceOnUse">
<stop stop-color="#A20057"/>
<stop offset="0.28" stop-color="#BA2456"/>
<stop offset="0.57" stop-color="#CE4155"/>
<stop offset="0.82" stop-color="#DA5354"/>
<stop offset="0.99" stop-color="#DE5954"/>
</linearGradient>
<linearGradient id="paint37_linear_698_1730" x1="110.953" y1="140.792" x2="122.135" y2="140.792" gradientUnits="userSpaceOnUse">
<stop stop-color="#CA528D"/>
<stop offset="1" stop-color="#8E7090"/>
</linearGradient>
<linearGradient id="paint38_linear_698_1730" x1="43.1206" y1="130.918" x2="43.1206" y2="111.188" gradientUnits="userSpaceOnUse">
<stop stop-color="#A20057"/>
<stop offset="0.28" stop-color="#BA2456"/>
<stop offset="0.57" stop-color="#CE4155"/>
<stop offset="0.82" stop-color="#DA5354"/>
<stop offset="0.99" stop-color="#DE5954"/>
</linearGradient>
<linearGradient id="paint39_linear_698_1730" x1="108.57" y1="139.138" x2="108.57" y2="125.883" gradientUnits="userSpaceOnUse">
<stop stop-color="#F49F57"/>
<stop offset="0.1" stop-color="#F79656"/>
<stop offset="0.35" stop-color="#FB8655"/>
<stop offset="0.63" stop-color="#FE7C54"/>
<stop offset="0.99" stop-color="#FF7954"/>
</linearGradient>
<linearGradient id="paint40_linear_698_1730" x1="109.377" y1="162.541" x2="118.516" y2="162.541" gradientUnits="userSpaceOnUse">
<stop stop-color="#CA528D"/>
<stop offset="1" stop-color="#8E7090"/>
</linearGradient>
<linearGradient id="paint41_linear_698_1730" x1="112.997" y1="161.591" x2="112.997" y2="154.731" gradientUnits="userSpaceOnUse">
<stop stop-color="#F47D57"/>
<stop offset="0.4" stop-color="#FC7A55"/>
<stop offset="0.99" stop-color="#FF7954"/>
</linearGradient>
<linearGradient id="paint42_linear_698_1730" x1="207.149" y1="216.45" x2="203.131" y2="230.938" gradientUnits="userSpaceOnUse">
<stop stop-color="#CA528D"/>
<stop offset="1" stop-color="#8E7090"/>
</linearGradient>
<linearGradient id="paint43_linear_698_1730" x1="201.727" y1="220.284" x2="211.621" y2="223.028" gradientUnits="userSpaceOnUse">
<stop stop-color="#A20057"/>
<stop offset="0.28" stop-color="#BA2456"/>
<stop offset="0.57" stop-color="#CE4155"/>
<stop offset="0.82" stop-color="#DA5354"/>
<stop offset="0.99" stop-color="#DE5954"/>
</linearGradient>
<linearGradient id="paint44_linear_698_1730" x1="205.242" y1="217.22" x2="202.799" y2="226.027" gradientUnits="userSpaceOnUse">
<stop stop-color="#CA528D"/>
<stop offset="1" stop-color="#8E7090"/>
</linearGradient>
<linearGradient id="paint45_linear_698_1730" x1="205.189" y1="220.965" x2="211.8" y2="222.798" gradientUnits="userSpaceOnUse">
<stop stop-color="#F47D57"/>
<stop offset="0.4" stop-color="#FC7A55"/>
<stop offset="0.99" stop-color="#FF7954"/>
</linearGradient>
<linearGradient id="paint46_linear_698_1730" x1="72.1211" y1="212.635" x2="104.547" y2="212.635" gradientUnits="userSpaceOnUse">
<stop stop-color="#860057"/>
<stop offset="0.21" stop-color="#8A0A4D"/>
<stop offset="0.55" stop-color="#8E1343"/>
<stop offset="0.99" stop-color="#8F1640"/>
</linearGradient>
<linearGradient id="paint47_linear_698_1730" x1="72.1211" y1="212.635" x2="98.8424" y2="212.635" gradientUnits="userSpaceOnUse">
<stop stop-color="#F49F57"/>
<stop offset="0.1" stop-color="#F79656"/>
<stop offset="0.35" stop-color="#FB8655"/>
<stop offset="0.63" stop-color="#FE7C54"/>
<stop offset="0.99" stop-color="#FF7954"/>
</linearGradient>
<linearGradient id="paint48_linear_698_1730" x1="107.606" y1="86.9583" x2="107.606" y2="75.6987" gradientUnits="userSpaceOnUse">
<stop stop-color="#860057"/>
<stop offset="0.03" stop-color="#880557"/>
<stop offset="0.23" stop-color="#951C56"/>
<stop offset="0.45" stop-color="#9E2C55"/>
<stop offset="0.69" stop-color="#A33654"/>
<stop offset="0.99" stop-color="#A53954"/>
</linearGradient>
<linearGradient id="paint49_linear_698_1730" x1="92.6328" y1="81.8657" x2="122.58" y2="81.8657" gradientUnits="userSpaceOnUse">
<stop stop-color="#F49F57"/>
<stop offset="0.1" stop-color="#F79656"/>
<stop offset="0.35" stop-color="#FB8655"/>
<stop offset="0.63" stop-color="#FE7C54"/>
<stop offset="0.99" stop-color="#FF7954"/>
</linearGradient>
<linearGradient id="paint50_linear_698_1730" x1="43.4347" y1="206.62" x2="43.4347" y2="199.617" gradientUnits="userSpaceOnUse">
<stop stop-color="#860057"/>
<stop offset="0.03" stop-color="#880557"/>
<stop offset="0.23" stop-color="#951C56"/>
<stop offset="0.45" stop-color="#9E2C55"/>
<stop offset="0.69" stop-color="#A33654"/>
<stop offset="0.99" stop-color="#A53954"/>
</linearGradient>
<linearGradient id="paint51_linear_698_1730" x1="39.0234" y1="203.571" x2="47.846" y2="203.571" gradientUnits="userSpaceOnUse">
<stop stop-color="#F49F57"/>
<stop offset="0.1" stop-color="#F79656"/>
<stop offset="0.35" stop-color="#FB8655"/>
<stop offset="0.63" stop-color="#FE7C54"/>
<stop offset="0.99" stop-color="#FF7954"/>
</linearGradient>
<linearGradient id="paint52_linear_698_1730" x1="219.965" y1="140.989" x2="228.581" y2="140.989" gradientUnits="userSpaceOnUse">
<stop stop-color="#860057"/>
<stop offset="0.21" stop-color="#8A0A4D"/>
<stop offset="0.55" stop-color="#8E1343"/>
<stop offset="0.99" stop-color="#8F1640"/>
</linearGradient>
<linearGradient id="paint53_linear_698_1730" x1="219.965" y1="140.992" x2="228.581" y2="140.992" gradientUnits="userSpaceOnUse">
<stop offset="0.01" stop-color="#C75357"/>
<stop offset="0.13" stop-color="#D35856"/>
<stop offset="0.37" stop-color="#E35F55"/>
<stop offset="0.65" stop-color="#ED6454"/>
<stop offset="0.99" stop-color="#F06554"/>
</linearGradient>
</defs>
</svg>
