<svg width="200" height="200" viewBox="0 0 200 200" fill="none" xmlns="http://www.w3.org/2000/svg">
<path style="mix-blend-mode:screen" d="M102.516 170.797C140.809 170.797 171.851 139.755 171.851 101.463C171.851 63.1701 140.809 32.1279 102.516 32.1279C64.2239 32.1279 33.1816 63.1701 33.1816 101.463C33.1816 139.755 64.2239 170.797 102.516 170.797Z" fill="url(#paint0_radial_359_1828)"/>
<path style="mix-blend-mode:screen" d="M147.043 108.772C151.083 84.1823 134.424 60.9731 109.834 56.9331C85.244 52.8931 62.0348 69.5522 57.9948 94.1422C53.9548 118.732 70.6139 141.942 95.2039 145.982C119.794 150.022 143.003 133.362 147.043 108.772Z" fill="url(#paint1_radial_359_1828)"/>
<path fill-rule="evenodd" clip-rule="evenodd" d="M58.2179 111.752C63.7692 151.424 119.011 152.992 138.046 130.798C157.081 108.604 152.06 72.1261 115.581 62.6032C79.1029 53.0803 54.7201 86.8055 58.2179 111.752Z" fill="url(#paint2_radial_359_1828)"/>
<g style="mix-blend-mode:multiply">
<path fill-rule="evenodd" clip-rule="evenodd" d="M86.2339 80.2159C80.0846 99.7808 128.658 94.3423 126.943 80.2159C125.228 66.0894 91.2549 64.2277 86.2339 80.2159Z" fill="#B9BFE2"/>
</g>
<g style="mix-blend-mode:multiply">
<path fill-rule="evenodd" clip-rule="evenodd" d="M126.987 98.8332C111.868 98.5286 106.858 130.561 122.192 133.472C137.526 136.383 139.985 99.104 126.987 98.8332Z" fill="#B9BFE2"/>
</g>
<g style="mix-blend-mode:multiply">
<path fill-rule="evenodd" clip-rule="evenodd" d="M135.381 89.1862C125.994 90.6756 131.996 103.087 138.044 103.098C144.092 103.11 141.452 88.182 135.381 89.1862Z" fill="#B9BFE2"/>
</g>
<g style="mix-blend-mode:multiply">
<path fill-rule="evenodd" clip-rule="evenodd" d="M93.6359 126.15C89.4273 137.681 106.047 127.086 103.407 122.483C100.767 117.879 94.956 122.539 93.6359 126.15Z" fill="#B9BFE2"/>
</g>
<path style="mix-blend-mode:screen" fill-rule="evenodd" clip-rule="evenodd" d="M61.647 114.787C68.9923 123.498 76.8115 108.096 87.034 97.5128C97.2565 86.9292 110.289 65.7959 140.426 79.3695C140.426 79.3695 118.751 53.2829 91.7842 63.6747C64.8176 74.0664 59.5371 95.2674 59.3566 101.394C59.176 107.521 58.8375 111.436 61.647 114.787Z" fill="url(#paint3_radial_359_1828)"/>
<path style="mix-blend-mode:screen" opacity="0.5" fill-rule="evenodd" clip-rule="evenodd" d="M161.436 59.0831C151.348 40.2855 130.87 35.0275 130.87 35.0275C130.87 35.0275 132.077 35.0275 122.701 33.5833C113.324 32.1391 111.914 32.7709 111.914 32.7709C111.914 32.7709 88.6821 31.4169 57.8453 50.6998C27.0086 69.9826 17.1133 107.239 42.2972 137.298C47.7808 143.831 55.0922 151.244 67.5939 160.18C80.0956 169.116 99.9878 178.143 129.651 165.133C159.314 152.124 163.5 136.451 168.815 123.126C177.491 101.44 171.523 77.9034 161.436 59.0831ZM152.308 97.0846C149.938 97.0846 144.951 93.9254 142.943 91.161C142.277 90.2358 142.141 89.6152 142.232 89.3444C142.322 89.0736 142.378 88.8931 143.27 88.8931C146.655 88.8931 153.075 93.3274 153.075 96.3174C153.075 96.8703 152.917 97.0846 152.308 97.0846ZM102.662 168.45C100.259 168.45 98.8369 167.773 98.442 166.453C98.3517 166.171 98.2953 165.325 99.6831 163.418C104.388 157.088 120.534 146.73 130.17 146.73C131.783 146.628 133.38 147.095 134.683 148.05C135.071 148.35 135.342 148.775 135.45 149.253C135.557 149.731 135.493 150.232 135.27 150.668C132.867 157.291 112.467 168.394 102.696 168.394L102.662 168.45ZM131.186 135.052C131.507 135.011 131.833 135.088 132.103 135.268C132.373 135.449 132.568 135.721 132.652 136.034C132.759 136.395 132.774 136.778 132.695 137.146C132.616 137.515 132.446 137.858 132.201 138.144C131.362 139.138 130.329 139.951 129.165 140.533C128.001 141.115 126.73 141.454 125.431 141.529C125.143 141.561 124.85 141.532 124.574 141.442C124.298 141.353 124.044 141.205 123.829 141.01C123.615 140.762 123.829 140.254 123.942 139.972C124.912 137.93 128.748 135.052 131.186 135.052ZM154 83.2741C146.485 83.2741 135.09 69.8585 132.133 59.8504C131.434 57.4696 130.655 53.2385 133.262 51.5573C134.234 50.9585 135.358 50.6529 136.5 50.6772C143.586 50.6772 154.553 60.0648 158.615 69.6328C160.127 73.187 161.244 78.1516 157.96 81.5704C157.459 82.1187 156.846 82.5541 156.163 82.8478C155.481 83.1415 154.743 83.2868 154 83.2741ZM95.3955 158.736C94.9306 159.809 94.1432 160.712 93.1426 161.318C92.1419 161.925 90.9774 162.205 89.8104 162.121C86.4931 162.121 82.0815 160.394 78.0083 157.494C73.935 154.595 71.0466 151.21 70.1101 148.4C69.4669 146.426 69.8393 144.948 71.2384 143.887C72.4091 143.293 73.7204 143.031 75.0295 143.131C80.8742 143.131 91.3223 146.234 94.9329 151.83C95.6141 152.837 96.0158 154.007 96.097 155.22C96.1783 156.434 95.9362 157.647 95.3955 158.736ZM61.9975 81.2206C60.3953 78.964 61.0272 74.5523 63.69 69.362C68.1017 60.7756 77.4102 51.6363 85.9854 51.6363C87.9705 51.6363 89.9191 52.1702 91.627 53.1821C93.8836 54.4796 94.5493 56.4316 93.8159 59.1395C92.6876 63.3707 87.8923 69.1477 81.4045 74.2363C75.0972 79.1445 68.553 82.3151 64.728 82.3151C64.218 82.3707 63.7022 82.3 63.2259 82.1091C62.7497 81.9183 62.3279 81.6131 61.9975 81.2206Z" fill="url(#paint4_radial_359_1828)"/>
<path style="mix-blend-mode:screen" fill-rule="evenodd" clip-rule="evenodd" d="M170.035 103.776C159.881 149.416 136.31 166.837 105.722 169.139C61.1195 172.524 52.2172 137.298 83.7196 142.184C157.647 153.647 170.035 103.776 170.035 103.776Z" fill="url(#paint5_linear_359_1828)"/>
<path style="mix-blend-mode:screen" fill-rule="evenodd" clip-rule="evenodd" d="M37.4235 70.2416C18.6032 102.116 33.181 134.036 60.1138 131.091C64.5029 130.606 91.4357 121.884 90.5782 88.4187C89.7207 54.953 144.376 57.2209 144.376 57.2209C144.376 57.2209 109.59 27.0611 80.2429 39.3936C50.8955 51.726 44.5995 58.0671 37.4235 70.2416Z" fill="url(#paint6_radial_359_1828)"/>
<path style="mix-blend-mode:screen" opacity="0.5" fill-rule="evenodd" clip-rule="evenodd" d="M52.2266 146.731C61.7834 156.751 77.6587 165.709 77.6587 165.709C77.6587 165.709 104.174 122.935 128.241 109.982C152.308 97.0292 172.945 106.236 172.945 106.236C172.945 106.236 173.565 85.8025 167.642 73.5941C161.718 61.3858 113.043 97.6497 94.1433 128.419C75.2441 159.188 52.2266 146.731 52.2266 146.731Z" fill="url(#paint7_radial_359_1828)"/>
<g style="mix-blend-mode:multiply" opacity="0.5">
<path fill-rule="evenodd" clip-rule="evenodd" d="M132.696 50.6991C122.71 57.1418 148.289 93.0898 158.647 82.2918C169.005 71.4939 143.099 44.0534 132.696 50.6991Z" fill="url(#paint8_radial_359_1828)"/>
<path fill-rule="evenodd" clip-rule="evenodd" d="M110.006 38.8409C94.5817 29.7692 58.9045 53.193 65.0199 61.7117C71.1354 70.2305 123.85 46.9647 110.006 38.8409Z" fill="url(#paint9_radial_359_1828)"/>
<path fill-rule="evenodd" clip-rule="evenodd" d="M70.6498 143.029C61.1946 150.047 90.5194 171.959 96.3302 159.164C102.141 146.369 75.5354 139.396 70.6498 143.029Z" fill="url(#paint10_radial_359_1828)"/>
<path fill-rule="evenodd" clip-rule="evenodd" d="M135.339 147.248C126.594 139.937 95.6219 160.438 97.5062 166.689C100.643 177.194 144.094 154.628 135.339 147.248Z" fill="url(#paint11_radial_359_1828)"/>
<path fill-rule="evenodd" clip-rule="evenodd" d="M141.26 88.9723C140.03 92.7183 154.1 101.891 154.1 96.2612C154.1 91.4433 142.478 85.215 141.26 88.9723Z" fill="url(#paint12_radial_359_1828)"/>
<path fill-rule="evenodd" clip-rule="evenodd" d="M133.621 135.696C131.815 130.528 120.69 138.832 123.026 141.687C125.361 144.542 135.2 140.017 133.621 135.696Z" fill="url(#paint13_radial_359_1828)"/>
</g>
<path fill-rule="evenodd" clip-rule="evenodd" d="M52.2265 57.2217C34.2412 66.8123 31.4768 84.1996 36.0803 86.5578C40.6838 88.9159 63.4644 51.2303 52.2265 57.2217Z" fill="white"/>
<path fill-rule="evenodd" clip-rule="evenodd" d="M136.5 158.182C128.219 160.935 114.25 166.08 119.508 166.904C122.137 167.333 142.729 156.117 136.5 158.182Z" fill="white"/>
<path fill-rule="evenodd" clip-rule="evenodd" d="M33.1808 96.8136C31.5222 101.699 36.4303 100.887 36.8816 96.2607C37.333 91.6346 34.2301 93.6994 33.1808 96.8136Z" fill="white"/>
<path style="mix-blend-mode:screen" opacity="0.92" fill-rule="evenodd" clip-rule="evenodd" d="M58.0605 151.243C58.0605 151.243 52.6785 164.783 64.8304 171.158C78.4378 178.255 88.3557 167.423 88.3557 167.423C88.3557 167.423 88.1752 163.903 83.8989 159.92C77.1064 153.568 64.2888 146.222 58.0605 151.243Z" fill="url(#paint14_radial_359_1828)"/>
<path style="mix-blend-mode:screen" fill-rule="evenodd" clip-rule="evenodd" d="M58.0593 151.243C66.2283 146.03 66.8488 159.141 68.2141 163.779C70.7528 172.151 75.2999 173.166 75.2999 173.166C70.098 173.497 64.9736 171.776 61.0267 168.371C53.5009 161.658 58.0593 151.243 58.0593 151.243Z" fill="url(#paint15_linear_359_1828)"/>
<path fill-rule="evenodd" clip-rule="evenodd" d="M88.0153 165.776C85.2639 168.733 81.8925 171.045 78.1426 172.546C78.1426 172.546 86.3116 172.298 88.0153 165.776Z" fill="white"/>
<path style="mix-blend-mode:screen" opacity="0.92" fill-rule="evenodd" clip-rule="evenodd" d="M71.3072 48.668C71.3072 48.668 70.3594 31.2017 86.6071 26.9254C104.829 22.1301 112.017 37.5316 112.017 37.5316C112.017 37.5316 110.471 41.6386 104.119 45.2266C93.9186 50.9133 76.5313 56.2164 71.3072 48.668Z" fill="url(#paint16_radial_359_1828)"/>
<path style="mix-blend-mode:screen" fill-rule="evenodd" clip-rule="evenodd" d="M71.3064 48.6682C78.6404 56.9838 84.3497 41.6388 87.7121 36.5501C93.7937 27.3431 99.3562 27.3318 99.3562 27.3318C93.322 25.5681 86.8358 26.2532 81.3033 29.2387C70.0878 35.151 71.3064 48.6682 71.3064 48.6682Z" fill="url(#paint17_linear_359_1828)"/>
<path fill-rule="evenodd" clip-rule="evenodd" d="M111.022 39.3709C109.023 35.2025 106.037 31.5849 102.322 28.8325C102.322 28.8325 111.507 31.2245 111.022 39.3709Z" fill="white"/>
<path style="mix-blend-mode:screen" opacity="0.92" fill-rule="evenodd" clip-rule="evenodd" d="M62.9906 62.5124C62.9906 62.5124 60.4858 54.8737 67.1992 51.0375C69.1508 49.7898 71.4818 49.2751 73.7773 49.5851C76.0729 49.895 78.1839 51.0094 79.7348 52.7299C79.3688 54.4289 78.4527 55.9598 77.1284 57.0852C73.2921 60.8199 66.195 65.2429 62.9906 62.5124Z" fill="url(#paint18_radial_359_1828)"/>
<path style="mix-blend-mode:screen" fill-rule="evenodd" clip-rule="evenodd" d="M62.9917 62.5124C67.2342 65.3332 67.945 57.8412 68.8364 55.1783C70.4386 50.3717 72.9096 49.6948 72.9096 49.6948C70.0124 49.6231 67.2049 50.7023 65.1017 52.6961C60.8366 56.6564 62.9917 62.5124 62.9917 62.5124Z" fill="url(#paint19_linear_359_1828)"/>
<path fill-rule="evenodd" clip-rule="evenodd" d="M79.519 53.6669C78.1357 52.0509 76.3767 50.7994 74.3965 50.0225C74.3965 50.0225 78.7856 49.9774 79.519 53.6669Z" fill="white"/>
<path style="mix-blend-mode:screen" opacity="0.92" fill-rule="evenodd" clip-rule="evenodd" d="M98.9492 52.6281C98.9492 52.6281 99.5924 42.3718 109.352 40.9839C112.257 40.4246 115.266 40.9106 117.847 42.356C120.428 43.8014 122.415 46.1131 123.456 48.8821C123.456 48.8821 122.328 51.1387 118.3 52.8199C111.981 55.4827 101.477 57.3783 98.9492 52.6281Z" fill="url(#paint20_radial_359_1828)"/>
<path style="mix-blend-mode:screen" fill-rule="evenodd" clip-rule="evenodd" d="M98.9492 52.6291C102.65 57.9773 107.039 49.4134 109.341 46.6716C113.516 41.7183 116.765 42.1019 116.765 42.1019C113.36 40.6509 109.518 40.6063 106.08 41.9778C99.1636 44.6519 98.9492 52.6291 98.9492 52.6291Z" fill="url(#paint21_linear_359_1828)"/>
<path fill-rule="evenodd" clip-rule="evenodd" d="M122.789 49.9105C121.908 47.3337 120.414 45.0101 118.434 43.1406C118.434 43.1406 123.613 45.1829 122.789 49.9105Z" fill="white"/>
<path fill-rule="evenodd" clip-rule="evenodd" d="M71.5754 46.4908C74.0577 49.4695 78.3453 33.8875 76.3933 34.8015C74.4413 35.7154 70.2214 44.866 71.5754 46.4908Z" fill="white"/>
<path fill-rule="evenodd" clip-rule="evenodd" d="M100.836 51.7266C104.65 50.226 103.769 42.1021 101.863 45.1711C99.9558 48.2402 97.3156 53.0806 100.836 51.7266Z" fill="white"/>
<path fill-rule="evenodd" clip-rule="evenodd" d="M57.3505 153.499C55.1841 162.109 60.4533 161.68 61.3108 157.9C62.1684 154.12 59.1783 146.414 57.3505 153.499Z" fill="white"/>
<defs>
<radialGradient id="paint0_radial_359_1828" cx="0" cy="0" r="1" gradientUnits="userSpaceOnUse" gradientTransform="translate(102.516 101.463) scale(69.3347)">
<stop offset="0.01" stop-color="#00FF00"/>
<stop offset="1" stop-opacity="0.58"/>
</radialGradient>
<radialGradient id="paint1_radial_359_1828" cx="0" cy="0" r="1" gradientUnits="userSpaceOnUse" gradientTransform="translate(102.518 101.458) scale(45.1212 45.1212)">
<stop offset="0.01" stop-color="#00FF00"/>
<stop offset="1"/>
</radialGradient>
<radialGradient id="paint2_radial_359_1828" cx="0" cy="0" r="1" gradientUnits="userSpaceOnUse" gradientTransform="translate(94.9444 90.1678) scale(53.5158 53.5158)">
<stop stop-color="#ABFFD3"/>
<stop offset="0.39" stop-color="#31F58D"/>
<stop offset="0.45" stop-color="#2EEA8A"/>
<stop offset="0.55" stop-color="#27CC81"/>
<stop offset="0.7" stop-color="#1A9B74"/>
<stop offset="0.86" stop-color="#095961"/>
<stop offset="0.95" stop-color="#003457"/>
</radialGradient>
<radialGradient id="paint3_radial_359_1828" cx="0" cy="0" r="1" gradientUnits="userSpaceOnUse" gradientTransform="translate(69.6919 78.9859) scale(64.2009)">
<stop stop-color="#97FF11"/>
<stop offset="1"/>
</radialGradient>
<radialGradient id="paint4_radial_359_1828" cx="0" cy="0" r="1" gradientUnits="userSpaceOnUse" gradientTransform="translate(100.496 102.128) scale(71.0159 71.0159)">
<stop offset="0.89"/>
<stop offset="0.9" stop-color="#010602"/>
<stop offset="0.92" stop-color="#031707"/>
<stop offset="0.94" stop-color="#07320F"/>
<stop offset="0.96" stop-color="#0C581B"/>
<stop offset="0.99" stop-color="#13892A"/>
<stop offset="1" stop-color="#17A533"/>
</radialGradient>
<linearGradient id="paint5_linear_359_1828" x1="117.964" y1="199.795" x2="117.637" y2="145.117" gradientUnits="userSpaceOnUse">
<stop offset="0.02" stop-color="#59DDF5"/>
<stop offset="0.09" stop-color="#4DCFEF"/>
<stop offset="0.35" stop-color="#27A2D9"/>
<stop offset="0.42" stop-color="#228CBB"/>
<stop offset="0.57" stop-color="#165A79"/>
<stop offset="0.72" stop-color="#0C3345" stop-opacity="0.72"/>
<stop offset="0.84" stop-color="#06171F" stop-opacity="0.58"/>
<stop offset="0.94" stop-color="#020608" stop-opacity="0.35"/>
<stop offset="1" stop-opacity="0"/>
</linearGradient>
<radialGradient id="paint6_radial_359_1828" cx="0" cy="0" r="1" gradientUnits="userSpaceOnUse" gradientTransform="translate(40.8648 68.3912) scale(84.8039 84.8039)">
<stop offset="0.02" stop-color="#2BAE73"/>
<stop offset="0.25" stop-color="#1E7850"/>
<stop offset="0.5" stop-color="#11452E"/>
<stop offset="0.71" stop-color="#081F15" stop-opacity="0.59"/>
<stop offset="0.89" stop-color="#020806" stop-opacity="0.25"/>
<stop offset="1" stop-opacity="0"/>
</radialGradient>
<radialGradient id="paint7_radial_359_1828" cx="0" cy="0" r="1" gradientUnits="userSpaceOnUse" gradientTransform="translate(112.591 118.433) scale(54.2154 54.2154)">
<stop offset="0.02" stop-color="#2BAE73"/>
<stop offset="0.25" stop-color="#1E7850"/>
<stop offset="0.5" stop-color="#11452E"/>
<stop offset="0.71" stop-color="#081F15"/>
<stop offset="0.89" stop-color="#020806"/>
<stop offset="1"/>
</radialGradient>
<radialGradient id="paint8_radial_359_1828" cx="0" cy="0" r="1" gradientUnits="userSpaceOnUse" gradientTransform="translate(145.762 66.9806) scale(16.3492 16.3492)">
<stop offset="0.01" stop-color="#27A2D9"/>
<stop offset="1" stop-color="#00A6E7"/>
</radialGradient>
<radialGradient id="paint9_radial_359_1828" cx="0" cy="0" r="1" gradientUnits="userSpaceOnUse" gradientTransform="translate(88.3196 50.1691) scale(19.4295 19.4295)">
<stop offset="0.01" stop-color="#27A2D9"/>
<stop offset="1" stop-color="#00A6E7"/>
</radialGradient>
<radialGradient id="paint10_radial_359_1828" cx="0" cy="0" r="1" gradientUnits="userSpaceOnUse" gradientTransform="translate(82.971 152.586) scale(12.4791 12.4791)">
<stop offset="0.01" stop-color="#27A2D9"/>
<stop offset="1" stop-color="#00A6E7"/>
</radialGradient>
<radialGradient id="paint11_radial_359_1828" cx="0" cy="0" r="1" gradientUnits="userSpaceOnUse" gradientTransform="translate(116.958 157.55) scale(16.1687 16.1687)">
<stop offset="0.01" stop-color="#27A2D9"/>
<stop offset="1" stop-color="#00A6E7"/>
</radialGradient>
<radialGradient id="paint12_radial_359_1828" cx="0" cy="0" r="1" gradientUnits="userSpaceOnUse" gradientTransform="translate(147.635 92.9326) scale(5.82208 5.82209)">
<stop offset="0.01" stop-color="#27A2D9"/>
<stop offset="1" stop-color="#00A6E7"/>
</radialGradient>
<radialGradient id="paint13_radial_359_1828" cx="0" cy="0" r="1" gradientUnits="userSpaceOnUse" gradientTransform="translate(128.239 138.302) scale(4.942 4.942)">
<stop offset="0.01" stop-color="#27A2D9"/>
<stop offset="1" stop-color="#00A6E7"/>
</radialGradient>
<radialGradient id="paint14_radial_359_1828" cx="0" cy="0" r="1" gradientUnits="userSpaceOnUse" gradientTransform="translate(59.6057 151.807) rotate(32.0054) scale(31.9334 31.9334)">
<stop stop-color="#092708"/>
<stop offset="0.35" stop-color="#0A280A"/>
<stop offset="0.47" stop-color="#0B2B11"/>
<stop offset="0.56" stop-color="#0F301C"/>
<stop offset="0.64" stop-color="#13372D"/>
<stop offset="0.7" stop-color="#194043"/>
<stop offset="0.75" stop-color="#214B5F"/>
<stop offset="0.8" stop-color="#2A597F"/>
<stop offset="0.85" stop-color="#3569A5"/>
<stop offset="0.89" stop-color="#407ACE"/>
<stop offset="0.9" stop-color="#437FD9"/>
<stop offset="1" stop-color="#00AB22"/>
</radialGradient>
<linearGradient id="paint15_linear_359_1828" x1="58.4764" y1="151.807" x2="70.8878" y2="172.681" gradientUnits="userSpaceOnUse">
<stop offset="0.02" stop-color="#2BAE73"/>
<stop offset="0.25" stop-color="#1E7850"/>
<stop offset="0.5" stop-color="#11452E"/>
<stop offset="0.71" stop-color="#081F15"/>
<stop offset="0.89" stop-color="#020806"/>
<stop offset="1"/>
</linearGradient>
<radialGradient id="paint16_radial_359_1828" cx="0" cy="0" r="1" gradientUnits="userSpaceOnUse" gradientTransform="translate(75.2898 43.7915) rotate(-20.0734) scale(33.7559 23.057)">
<stop stop-color="#092708"/>
<stop offset="0.35" stop-color="#0A280A"/>
<stop offset="0.47" stop-color="#0B2B11"/>
<stop offset="0.56" stop-color="#0F301C"/>
<stop offset="0.64" stop-color="#13372D"/>
<stop offset="0.7" stop-color="#194043"/>
<stop offset="0.75" stop-color="#214B5F"/>
<stop offset="0.8" stop-color="#2A597F"/>
<stop offset="0.85" stop-color="#3569A5"/>
<stop offset="0.89" stop-color="#407ACE"/>
<stop offset="0.9" stop-color="#437FD9"/>
<stop offset="1" stop-color="#00AB22" stop-opacity="0.72"/>
</radialGradient>
<linearGradient id="paint17_linear_359_1828" x1="56.5139" y1="51.7107" x2="80.4247" y2="26.2818" gradientUnits="userSpaceOnUse">
<stop offset="0.02" stop-color="#2BAE73"/>
<stop offset="0.25" stop-color="#1E7850"/>
<stop offset="0.5" stop-color="#11452E"/>
<stop offset="0.71" stop-color="#081F15"/>
<stop offset="0.89" stop-color="#020806"/>
<stop offset="1"/>
</linearGradient>
<radialGradient id="paint18_radial_359_1828" cx="0" cy="0" r="1" gradientUnits="userSpaceOnUse" gradientTransform="translate(63.5557 60.9774) rotate(-28.3008) scale(16.6593 10.9167)">
<stop stop-color="#092708"/>
<stop offset="0.35" stop-color="#0A280A"/>
<stop offset="0.47" stop-color="#0B2B11"/>
<stop offset="0.56" stop-color="#0F301C"/>
<stop offset="0.64" stop-color="#13372D"/>
<stop offset="0.7" stop-color="#194043"/>
<stop offset="0.75" stop-color="#214B5F"/>
<stop offset="0.8" stop-color="#2A597F"/>
<stop offset="0.85" stop-color="#3569A5"/>
<stop offset="0.89" stop-color="#407ACE"/>
<stop offset="0.9" stop-color="#437FD9"/>
<stop offset="1" stop-color="#00AB22"/>
</radialGradient>
<linearGradient id="paint19_linear_359_1828" x1="64.1199" y1="62.1061" x2="70.2511" y2="50.7827" gradientUnits="userSpaceOnUse">
<stop offset="0.02" stop-color="#2BAE73"/>
<stop offset="0.25" stop-color="#1E7850"/>
<stop offset="0.5" stop-color="#11452E"/>
<stop offset="0.71" stop-color="#081F15"/>
<stop offset="0.89" stop-color="#020806"/>
<stop offset="1"/>
</linearGradient>
<radialGradient id="paint20_radial_359_1828" cx="0" cy="0" r="1" gradientUnits="userSpaceOnUse" gradientTransform="translate(100.789 50.8228) rotate(-8.13011) scale(19.9459 12.6091)">
<stop stop-color="#092708"/>
<stop offset="0.35" stop-color="#0A280A"/>
<stop offset="0.47" stop-color="#0B2B11"/>
<stop offset="0.56" stop-color="#0F301C"/>
<stop offset="0.64" stop-color="#13372D"/>
<stop offset="0.7" stop-color="#194043"/>
<stop offset="0.75" stop-color="#214B5F"/>
<stop offset="0.8" stop-color="#2A597F"/>
<stop offset="0.85" stop-color="#3569A5"/>
<stop offset="0.89" stop-color="#407ACE"/>
<stop offset="0.9" stop-color="#437FD9" stop-opacity="0.92"/>
<stop offset="1" stop-color="#00AB22" stop-opacity="0.81"/>
</radialGradient>
<linearGradient id="paint21_linear_359_1828" x1="99.0969" y1="52.5159" x2="113.704" y2="41.7152" gradientUnits="userSpaceOnUse">
<stop offset="0.02" stop-color="#2BAE73"/>
<stop offset="0.25" stop-color="#1E7850"/>
<stop offset="0.5" stop-color="#11452E"/>
<stop offset="0.71" stop-color="#081F15"/>
<stop offset="0.89" stop-color="#020806"/>
<stop offset="1"/>
</linearGradient>
</defs>
</svg>
