<svg width="300" height="300" viewBox="0 0 300 300" fill="none" xmlns="http://www.w3.org/2000/svg">
<path style="mix-blend-mode:screen" opacity="0.33" d="M150 300C232.843 300 300 232.843 300 150C300 67.1573 232.843 0 150 0C67.1573 0 0 67.1573 0 150C0 232.843 67.1573 300 150 300Z" fill="url(#paint0_radial_698_2094)"/>
<path style="mix-blend-mode:screen" d="M269.363 164.667C279.937 99.24 235.47 37.6292 170.044 27.0552C104.617 16.4812 43.0061 60.9481 32.4321 126.375C21.8581 191.802 66.325 253.412 131.752 263.986C197.178 274.56 258.789 230.093 269.363 164.667Z" fill="url(#paint1_radial_698_2094)"/>
<path style="mix-blend-mode:screen" d="M206.571 205.224C236.982 174.814 236.982 125.509 206.571 95.098C176.161 64.6874 126.856 64.6874 96.445 95.098C66.0345 125.509 66.0345 174.814 96.445 205.224C126.856 235.635 176.161 235.635 206.571 205.224Z" fill="url(#paint2_radial_698_2094)"/>
<path fill-rule="evenodd" clip-rule="evenodd" d="M75.0671 167.99C84.6751 236.455 180.015 239.143 212.87 200.846C245.725 162.548 236.991 99.5929 174.103 83.199C111.214 66.8051 69.0874 124.923 75.0671 167.99Z" fill="url(#paint3_radial_698_2094)"/>
<g style="mix-blend-mode:multiply">
<path fill-rule="evenodd" clip-rule="evenodd" d="M123.45 113.567C112.834 147.161 196.618 137.956 193.662 113.567C190.705 89.1776 132.117 85.9526 123.45 113.567Z" fill="#B9BFE2"/>
</g>
<g style="mix-blend-mode:multiply">
<path fill-rule="evenodd" clip-rule="evenodd" d="M193.794 145.689C167.658 145.151 158.991 200.38 185.463 205.419C211.935 210.458 216.168 146.092 193.794 145.689Z" fill="#B9BFE2"/>
</g>
<g style="mix-blend-mode:multiply">
<path fill-rule="evenodd" clip-rule="evenodd" d="M208.243 128.953C192.05 131.506 202.33 152.939 212.879 152.939C223.427 152.939 218.724 127.004 208.243 128.953Z" fill="#B9BFE2"/>
</g>
<g style="mix-blend-mode:multiply">
<path fill-rule="evenodd" clip-rule="evenodd" d="M136.21 192.779C128.954 212.935 157.576 194.391 153.075 186.463C148.573 178.535 138.495 186.53 136.21 192.779Z" fill="#B9BFE2"/>
</g>
<path style="mix-blend-mode:screen" fill-rule="evenodd" clip-rule="evenodd" d="M81.3875 173.169C94.0189 188.22 107.524 161.613 125.127 143.405C142.73 125.197 165.44 88.6467 217.309 112.095C217.309 112.095 179.885 67.0793 133.324 85.2201C86.7625 103.361 77.6922 139.643 77.4234 150.258C77.1547 160.874 76.1468 167.324 81.3875 173.169Z" fill="url(#paint4_radial_698_2094)"/>
<path style="mix-blend-mode:screen" opacity="0.5" fill-rule="evenodd" clip-rule="evenodd" d="M253.19 77.0813C241.527 57.025 222.671 42.1563 200.448 35.4918C200.448 35.4918 202.53 35.4918 186.405 33.0058C170.28 30.5199 167.727 31.6621 167.727 31.6621C167.727 31.6621 127.414 29.3105 74.4697 62.5686C21.5254 95.8268 4.19085 160.193 47.5944 211.995C60.2865 227.065 74.9538 240.354 91.1996 251.502C112.834 266.888 147.1 282.476 198.23 260.035C249.361 237.594 256.55 210.584 265.822 187.539C280.872 150.182 270.592 109.466 253.19 77.0813ZM237.468 142.523C231.061 141.073 225.345 137.468 221.276 132.31C220.134 130.697 219.932 129.622 220.067 129.152C220.201 128.682 220.067 128.413 221.881 128.413C227.659 128.413 238.812 136.073 238.812 141.246C238.812 142.254 238.543 142.523 237.468 142.523ZM151.871 265.679C147.705 265.679 145.152 264.536 144.547 262.252C144.547 261.714 144.547 260.236 146.697 257.011C154.76 246.194 182.643 228.255 199.238 228.255C202.022 228.095 204.775 228.902 207.032 230.539C207.712 231.059 208.186 231.803 208.371 232.639C208.555 233.476 208.438 234.35 208.04 235.108C203.941 246.53 168.735 265.679 151.871 265.679ZM200.985 208.165C201.543 208.081 202.113 208.205 202.584 208.516C203.055 208.826 203.395 209.299 203.538 209.845C203.723 210.469 203.746 211.129 203.605 211.764C203.464 212.398 203.163 212.987 202.732 213.473C201.294 215.21 199.514 216.631 197.503 217.648C195.491 218.665 193.292 219.257 191.041 219.386C190.541 219.436 190.037 219.378 189.561 219.216C189.086 219.054 188.651 218.791 188.287 218.445C188.287 218.042 188.287 217.169 188.287 216.698C189.668 214.449 191.516 212.523 193.707 211.05C195.898 209.578 198.38 208.594 200.985 208.165ZM240.357 118.805C227.323 118.805 207.704 95.6252 202.665 78.4923C201.455 74.3938 200.112 67.1374 204.546 64.1812C206.239 63.1989 208.165 62.6885 210.123 62.703C222.418 62.703 241.298 78.8954 248.286 95.4237C250.14 98.579 251.028 102.21 250.836 105.865C250.645 109.52 249.384 113.039 247.211 115.983C246.331 116.91 245.266 117.64 244.085 118.126C242.904 118.612 241.634 118.844 240.357 118.805ZM139.575 249.016C138.772 250.857 137.415 252.403 135.693 253.439C133.972 254.474 131.97 254.948 129.967 254.794C122.624 254.104 115.63 251.33 109.811 246.799C103.916 242.955 99.2517 237.498 96.373 231.077C95.7343 229.766 95.5795 228.271 95.9361 226.857C96.2926 225.444 97.1376 224.201 98.3215 223.35C100.378 222.245 102.717 221.777 105.04 222.006C115.119 222.006 133.192 227.381 139.441 237.056C140.487 238.883 141.021 240.959 140.985 243.064C140.95 245.169 140.346 247.225 139.239 249.016H139.575ZM81.3901 115.244C78.6354 111.414 79.7104 103.755 84.3464 95.0877C91.9387 80.2391 107.997 64.4499 122.778 64.4499C126.251 64.4496 129.661 65.3774 132.655 67.1374C134.438 68.0861 135.809 69.66 136.503 71.5572C137.198 73.4544 137.167 75.5413 136.417 77.4172C131.848 87.958 124.395 96.9943 114.917 103.486C106.809 110.702 96.8514 115.518 86.1605 117.394C85.2487 117.466 84.3337 117.306 83.5 116.93C82.6662 116.554 81.9405 115.975 81.3901 115.244Z" fill="url(#paint5_radial_698_2094)"/>
<path style="mix-blend-mode:screen" fill-rule="evenodd" clip-rule="evenodd" d="M268.037 154.214C250.501 232.891 209.852 262.992 157.109 266.956C80.1117 272.734 64.7927 211.996 119.081 220.461C246.671 240.215 268.037 154.214 268.037 154.214Z" fill="url(#paint6_linear_698_2094)"/>
<path style="mix-blend-mode:screen" fill-rule="evenodd" clip-rule="evenodd" d="M39.1918 96.296C6.73993 151.323 31.8683 206.417 78.3626 201.311C85.9548 200.505 132.113 185.455 130.837 127.404C129.56 69.3535 223.691 73.6536 223.691 73.6536C223.691 73.6536 163.759 21.5827 113.099 42.8814C62.4389 64.18 51.6216 75.3333 39.1918 96.296Z" fill="url(#paint7_radial_698_2094)"/>
<path style="mix-blend-mode:screen" opacity="0.5" fill-rule="evenodd" clip-rule="evenodd" d="M64.793 228.254C77.9786 241.053 92.6918 252.178 108.6 261.378C108.6 261.378 154.422 187.471 195.944 165.231C207.549 158.598 220.456 154.562 233.773 153.402C247.089 152.242 260.499 153.985 273.076 158.512C273.076 158.512 274.084 123.239 263.872 102.142C253.659 81.0445 169.808 143.664 137.087 196.743C104.367 249.821 64.793 228.254 64.793 228.254Z" fill="url(#paint8_radial_698_2094)"/>
<g style="mix-blend-mode:multiply" opacity="0.5">
<path fill-rule="evenodd" clip-rule="evenodd" d="M203.602 62.5758C186.402 73.7291 230.477 135.744 248.483 117.065C266.49 98.3871 221.541 51.0194 203.602 62.5758Z" fill="url(#paint9_radial_698_2094)"/>
<path fill-rule="evenodd" clip-rule="evenodd" d="M164.428 42.1506C137.553 26.4957 76.2775 66.8758 86.826 81.5901C97.3745 96.3043 188.347 56.1929 164.428 42.1506Z" fill="url(#paint10_radial_698_2094)"/>
<path fill-rule="evenodd" clip-rule="evenodd" d="M96.5663 221.95C80.2396 234.044 130.832 271.871 140.843 249.766C150.854 227.661 104.965 215.635 96.5663 221.95Z" fill="url(#paint11_radial_698_2094)"/>
<path fill-rule="evenodd" clip-rule="evenodd" d="M208.161 229.208C193.043 216.577 139.629 251.985 142.854 262.803C148.565 280.809 223.278 241.84 208.161 229.208Z" fill="url(#paint12_radial_698_2094)"/>
<path fill-rule="evenodd" clip-rule="evenodd" d="M218.377 128.622C216.294 135.341 240.549 150.928 240.549 141.253C240.549 132.855 220.46 122.172 218.377 128.622Z" fill="url(#paint13_radial_698_2094)"/>
<path fill-rule="evenodd" clip-rule="evenodd" d="M205.218 209.243C202.06 200.307 182.911 214.686 186.943 219.59C190.974 224.495 207.838 216.701 205.218 209.243Z" fill="url(#paint14_radial_698_2094)"/>
</g>
<path fill-rule="evenodd" clip-rule="evenodd" d="M64.7951 73.854C33.7541 90.3823 28.9838 120.415 36.912 124.447C44.8402 128.478 84.1453 63.507 64.7951 73.854Z" fill="white"/>
<path fill-rule="evenodd" clip-rule="evenodd" d="M210.189 247.938C195.878 252.642 171.757 261.376 180.827 262.989C185.396 263.862 220.939 244.512 210.189 247.938Z" fill="white"/>
<path fill-rule="evenodd" clip-rule="evenodd" d="M31.8619 142.193C29.04 150.591 37.5057 148.912 38.5807 141.252C39.6557 133.593 33.676 136.885 31.8619 142.193Z" fill="white"/>
<path style="mix-blend-mode:screen" opacity="0.92" fill-rule="evenodd" clip-rule="evenodd" d="M74.6698 236.054C74.6698 236.054 65.3978 259.503 86.3606 270.454C92.9105 273.813 100.368 274.973 107.628 273.763C114.889 272.553 121.567 269.037 126.673 263.736C125.767 258.631 123.047 254.026 119.014 250.768C107.659 240.085 85.5543 227.79 74.6698 236.054Z" fill="url(#paint15_radial_698_2094)"/>
<path style="mix-blend-mode:screen" fill-rule="evenodd" clip-rule="evenodd" d="M74.6613 236.056C88.7708 227.053 89.8458 249.494 92.2646 257.691C96.6318 272.136 104.493 273.883 104.493 273.883C95.5306 274.45 86.7027 271.484 79.902 265.619C66.9347 254.063 74.6613 236.056 74.6613 236.056Z" fill="url(#paint16_linear_698_2094)"/>
<path fill-rule="evenodd" clip-rule="evenodd" d="M126.541 261.375C121.777 266.441 115.949 270.388 109.476 272.931C109.476 272.931 123.585 272.393 126.541 261.375Z" fill="white"/>
<path style="mix-blend-mode:screen" opacity="0.92" fill-rule="evenodd" clip-rule="evenodd" d="M97.7097 59.0782C97.7097 59.0782 96.0301 28.9779 124.048 21.5872C132.318 18.9431 141.256 19.3067 149.284 22.6138C157.312 25.9209 163.913 31.9588 167.921 39.6608C165.023 45.4822 160.305 50.1998 154.484 53.0985C136.679 62.9751 106.646 72.1127 97.7097 59.0782Z" fill="url(#paint17_radial_698_2094)"/>
<path style="mix-blend-mode:screen" fill-rule="evenodd" clip-rule="evenodd" d="M97.7088 59.0796C110.34 73.4579 120.15 46.9858 125.995 38.1841C136.476 22.2605 146.151 22.2605 146.151 22.2605C135.709 19.2092 124.486 20.3919 114.909 25.5527C95.5588 35.7653 97.7088 59.0796 97.7088 59.0796Z" fill="url(#paint18_linear_698_2094)"/>
<path fill-rule="evenodd" clip-rule="evenodd" d="M166.176 43.018C162.742 35.8362 157.597 29.607 151.193 24.8772C151.193 24.8772 167.117 28.9757 166.176 43.018Z" fill="white"/>
<path style="mix-blend-mode:screen" opacity="0.92" fill-rule="evenodd" clip-rule="evenodd" d="M83.332 82.9962C82.1144 79.2776 82.2065 75.2543 83.5927 71.5952C84.9789 67.9361 87.5759 64.8618 90.9518 62.8834C94.3276 60.905 98.2789 60.1417 102.149 60.7205C106.019 61.2993 109.574 63.1852 112.223 66.0648C111.606 69.0059 110.021 71.6554 107.721 73.5898C101.137 79.9727 88.8414 87.6994 83.332 82.9962Z" fill="url(#paint19_radial_698_2094)"/>
<path style="mix-blend-mode:screen" fill-rule="evenodd" clip-rule="evenodd" d="M83.3346 82.9979C90.6582 87.8354 91.8675 74.9353 93.4129 70.2993C96.1676 62.0351 100.468 60.8929 100.468 60.8929C97.9978 60.8307 95.5399 61.2555 93.2343 62.1432C90.9286 63.0308 88.8204 64.364 87.03 66.0664C84.9138 68.2742 83.4488 71.0237 82.7967 74.0115C82.1446 76.9993 82.3308 80.1092 83.3346 82.9979Z" fill="url(#paint20_linear_698_2094)"/>
<path fill-rule="evenodd" clip-rule="evenodd" d="M111.82 67.6731C109.433 64.9112 106.413 62.7674 103.019 61.4246C103.019 61.4246 110.611 61.3574 111.82 67.6731Z" fill="white"/>
<path style="mix-blend-mode:screen" opacity="0.92" fill-rule="evenodd" clip-rule="evenodd" d="M145.354 65.9278C145.656 61.0343 147.597 56.3852 150.863 52.7288C154.13 49.0725 158.531 46.6218 163.36 45.7713C168.348 44.785 173.523 45.5925 177.973 48.0512C182.424 50.5098 185.862 54.4616 187.682 59.2089C185.499 62.3466 182.367 64.7014 178.746 65.9278C167.862 70.8325 149.721 74.1247 145.354 65.9278Z" fill="url(#paint21_radial_698_2094)"/>
<path style="mix-blend-mode:screen" fill-rule="evenodd" clip-rule="evenodd" d="M145.354 65.9326C152.072 75.1374 159.329 60.356 163.293 55.6528C170.549 47.1199 176.126 47.7246 176.126 47.7246C170.223 45.3268 163.618 45.3268 157.716 47.7246C154.188 49.3402 151.171 51.8916 148.991 55.1017C146.812 58.3118 145.554 62.0577 145.354 65.9326Z" fill="url(#paint22_linear_698_2094)"/>
<path fill-rule="evenodd" clip-rule="evenodd" d="M186.472 61.2246C184.946 56.7962 182.363 52.8066 178.947 49.6011C178.947 49.6011 187.95 53.0949 186.472 61.2246Z" fill="white"/>
<path fill-rule="evenodd" clip-rule="evenodd" d="M98.1217 55.3208C102.422 60.4943 109.947 33.6191 106.453 35.1644C102.959 36.7097 95.8373 52.5661 98.1217 55.3208Z" fill="white"/>
<path fill-rule="evenodd" clip-rule="evenodd" d="M148.58 64.3887C155.298 61.7684 153.619 47.726 150.326 53.0339C147.034 58.3418 142.533 66.5387 148.58 64.3887Z" fill="white"/>
<path fill-rule="evenodd" clip-rule="evenodd" d="M73.6629 240.011C69.9676 254.86 79.038 254.12 80.3817 247.603C81.7255 241.086 76.7536 227.783 73.6629 240.011Z" fill="white"/>
<defs>
<radialGradient id="paint0_radial_698_2094" cx="0" cy="0" r="1" gradientUnits="userSpaceOnUse" gradientTransform="translate(150 150) scale(150)">
<stop stop-color="#067FFF"/>
<stop offset="0.09" stop-color="#0679F3"/>
<stop offset="0.25" stop-color="#0569D2"/>
<stop offset="0.47" stop-color="#044E9D"/>
<stop offset="0.73" stop-color="#022A53"/>
<stop offset="1"/>
</radialGradient>
<radialGradient id="paint1_radial_698_2094" cx="0" cy="0" r="1" gradientUnits="userSpaceOnUse" gradientTransform="translate(150.881 145.486) rotate(-0.0894564) scale(120.003 120.003)">
<stop offset="0.01" stop-color="#00FF00"/>
<stop offset="1"/>
</radialGradient>
<radialGradient id="paint2_radial_698_2094" cx="0" cy="0" r="1" gradientUnits="userSpaceOnUse" gradientTransform="translate(151.514 150.13) scale(77.8711)">
<stop offset="0.01" stop-color="#00FF00"/>
<stop offset="1"/>
</radialGradient>
<radialGradient id="paint3_radial_698_2094" cx="0" cy="0" r="1" gradientUnits="userSpaceOnUse" gradientTransform="translate(138.493 130.701) scale(92.3166 92.3166)">
<stop stop-color="#ABFFD3"/>
<stop offset="0.39" stop-color="#31F58D"/>
<stop offset="0.45" stop-color="#2EEA8A"/>
<stop offset="0.55" stop-color="#27CC81"/>
<stop offset="0.7" stop-color="#1A9B74"/>
<stop offset="0.86" stop-color="#095961"/>
<stop offset="0.95" stop-color="#003457"/>
</radialGradient>
<radialGradient id="paint4_radial_698_2094" cx="0" cy="0" r="1" gradientUnits="userSpaceOnUse" gradientTransform="translate(94.8923 111.424) scale(110.793 110.793)">
<stop stop-color="#97FF11"/>
<stop offset="1"/>
</radialGradient>
<radialGradient id="paint5_radial_698_2094" cx="0" cy="0" r="1" gradientUnits="userSpaceOnUse" gradientTransform="translate(148.041 151.324) scale(122.551 122.551)">
<stop offset="0.89"/>
<stop offset="0.9" stop-color="#010602"/>
<stop offset="0.92" stop-color="#031707"/>
<stop offset="0.94" stop-color="#07320F"/>
<stop offset="0.96" stop-color="#0C581B"/>
<stop offset="0.99" stop-color="#13892A"/>
<stop offset="1" stop-color="#17A533"/>
</radialGradient>
<linearGradient id="paint6_linear_698_2094" x1="178.206" y1="319.833" x2="177.602" y2="225.501" gradientUnits="userSpaceOnUse">
<stop offset="0.02" stop-color="#59DDF5"/>
<stop offset="0.09" stop-color="#4DCFEF"/>
<stop offset="0.35" stop-color="#27A2D9"/>
<stop offset="0.42" stop-color="#228CBB"/>
<stop offset="0.57" stop-color="#165A79"/>
<stop offset="0.72" stop-color="#0C3345"/>
<stop offset="0.84" stop-color="#06171F"/>
<stop offset="0.94" stop-color="#020608"/>
<stop offset="1"/>
</linearGradient>
<radialGradient id="paint7_radial_698_2094" cx="0" cy="0" r="1" gradientUnits="userSpaceOnUse" gradientTransform="translate(45.1716 93.1382) scale(146.336 146.336)">
<stop offset="0.02" stop-color="#2BAE73"/>
<stop offset="0.25" stop-color="#1E7850"/>
<stop offset="0.5" stop-color="#11452E"/>
<stop offset="0.71" stop-color="#081F15"/>
<stop offset="0.89" stop-color="#020806"/>
<stop offset="1"/>
</radialGradient>
<radialGradient id="paint8_radial_698_2094" cx="0" cy="0" r="1" gradientUnits="userSpaceOnUse" gradientTransform="translate(168.935 179.475) scale(93.526 93.526)">
<stop offset="0.02" stop-color="#2BAE73"/>
<stop offset="0.25" stop-color="#1E7850"/>
<stop offset="0.5" stop-color="#11452E"/>
<stop offset="0.71" stop-color="#081F15"/>
<stop offset="0.89" stop-color="#020806"/>
<stop offset="1"/>
</radialGradient>
<radialGradient id="paint9_radial_698_2094" cx="0" cy="0" r="1" gradientUnits="userSpaceOnUse" gradientTransform="translate(226.177 90.6605) scale(28.219 28.219)">
<stop offset="0.01" stop-color="#27A2D9"/>
<stop offset="1" stop-color="#00A6E7"/>
</radialGradient>
<radialGradient id="paint10_radial_698_2094" cx="0" cy="0" r="1" gradientUnits="userSpaceOnUse" gradientTransform="translate(127.005 61.7023) scale(33.5269 33.5269)">
<stop offset="0.01" stop-color="#27A2D9"/>
<stop offset="1" stop-color="#00A6E7"/>
</radialGradient>
<radialGradient id="paint11_radial_698_2094" cx="0" cy="0" r="1" gradientUnits="userSpaceOnUse" gradientTransform="translate(117.798 238.411) scale(21.5674 21.5674)">
<stop offset="0.01" stop-color="#27A2D9"/>
<stop offset="1" stop-color="#00A6E7"/>
</radialGradient>
<radialGradient id="paint12_radial_698_2094" cx="0" cy="0" r="1" gradientUnits="userSpaceOnUse" gradientTransform="translate(176.448 247.013) scale(27.8831 27.8831)">
<stop offset="0.01" stop-color="#27A2D9"/>
<stop offset="1" stop-color="#00A6E7"/>
</radialGradient>
<radialGradient id="paint13_radial_698_2094" cx="0" cy="0" r="1" gradientUnits="userSpaceOnUse" gradientTransform="translate(229.396 135.475) scale(10.0782 10.0782)">
<stop offset="0.01" stop-color="#27A2D9"/>
<stop offset="1" stop-color="#00A6E7"/>
</radialGradient>
<radialGradient id="paint14_radial_698_2094" cx="0" cy="0" r="1" gradientUnits="userSpaceOnUse" gradientTransform="translate(195.946 213.745) scale(8.53286 8.53289)">
<stop offset="0.01" stop-color="#27A2D9"/>
<stop offset="1" stop-color="#00A6E7"/>
</radialGradient>
<radialGradient id="paint15_radial_698_2094" cx="0" cy="0" r="1" gradientUnits="userSpaceOnUse" gradientTransform="translate(55.5615 497.752) rotate(62.1619) scale(24.074)">
<stop stop-color="#092708"/>
<stop offset="0.35" stop-color="#0A280A"/>
<stop offset="0.47" stop-color="#0B2B11"/>
<stop offset="0.56" stop-color="#0F301C"/>
<stop offset="0.64" stop-color="#13372D"/>
<stop offset="0.7" stop-color="#194043"/>
<stop offset="0.75" stop-color="#214B5F"/>
<stop offset="0.8" stop-color="#2A597F"/>
<stop offset="0.85" stop-color="#3569A5"/>
<stop offset="0.89" stop-color="#407ACE"/>
<stop offset="0.9" stop-color="#437FD9"/>
<stop offset="1" stop-color="#00AB22"/>
</radialGradient>
<linearGradient id="paint16_linear_698_2094" x1="32.6452" y1="481.021" x2="54.9395" y2="523.238" gradientUnits="userSpaceOnUse">
<stop offset="0.02" stop-color="#2BAE73"/>
<stop offset="0.25" stop-color="#1E7850"/>
<stop offset="0.5" stop-color="#11452E"/>
<stop offset="0.71" stop-color="#081F15"/>
<stop offset="0.89" stop-color="#020806"/>
<stop offset="1"/>
</linearGradient>
<radialGradient id="paint17_radial_698_2094" cx="0" cy="0" r="1" gradientUnits="userSpaceOnUse" gradientTransform="translate(45.8256 63.4199) rotate(-46.5911) scale(30.3872 27.4352)">
<stop stop-color="#092708"/>
<stop offset="0.35" stop-color="#0A280A"/>
<stop offset="0.47" stop-color="#0B2B11"/>
<stop offset="0.56" stop-color="#0F301C"/>
<stop offset="0.64" stop-color="#13372D"/>
<stop offset="0.7" stop-color="#194043"/>
<stop offset="0.75" stop-color="#214B5F"/>
<stop offset="0.8" stop-color="#2A597F"/>
<stop offset="0.85" stop-color="#3569A5"/>
<stop offset="0.89" stop-color="#407ACE"/>
<stop offset="0.9" stop-color="#437FD9"/>
<stop offset="1" stop-color="#00AB22"/>
</radialGradient>
<linearGradient id="paint18_linear_698_2094" x1="13.411" y1="77.0961" x2="54.6678" y2="33.2198" gradientUnits="userSpaceOnUse">
<stop offset="0.02" stop-color="#2BAE73"/>
<stop offset="0.25" stop-color="#1E7850"/>
<stop offset="0.5" stop-color="#11452E"/>
<stop offset="0.71" stop-color="#081F15"/>
<stop offset="0.89" stop-color="#020806"/>
<stop offset="1"/>
</linearGradient>
<radialGradient id="paint19_radial_698_2094" cx="0" cy="0" r="1" gradientUnits="userSpaceOnUse" gradientTransform="translate(145.562 -111.819) rotate(-61.6609) scale(13.8597 12.5693)">
<stop stop-color="#092708"/>
<stop offset="0.35" stop-color="#0A280A"/>
<stop offset="0.47" stop-color="#0B2B11"/>
<stop offset="0.56" stop-color="#0F301C"/>
<stop offset="0.64" stop-color="#13372D"/>
<stop offset="0.7" stop-color="#194043"/>
<stop offset="0.75" stop-color="#214B5F"/>
<stop offset="0.8" stop-color="#2A597F"/>
<stop offset="0.85" stop-color="#3569A5"/>
<stop offset="0.89" stop-color="#407ACE"/>
<stop offset="0.9" stop-color="#437FD9"/>
<stop offset="1" stop-color="#00AB22"/>
</radialGradient>
<linearGradient id="paint20_linear_698_2094" x1="132.83" y1="-101.963" x2="145.699" y2="-126.206" gradientUnits="userSpaceOnUse">
<stop offset="0.02" stop-color="#2BAE73"/>
<stop offset="0.25" stop-color="#1E7850"/>
<stop offset="0.5" stop-color="#11452E"/>
<stop offset="0.71" stop-color="#081F15"/>
<stop offset="0.89" stop-color="#020806"/>
<stop offset="1"/>
</linearGradient>
<radialGradient id="paint21_radial_698_2094" cx="0" cy="0" r="1" gradientUnits="userSpaceOnUse" gradientTransform="translate(110.735 -49.7703) rotate(-39.8056) scale(17.805 16.0537)">
<stop stop-color="#092708"/>
<stop offset="0.35" stop-color="#0A280A"/>
<stop offset="0.47" stop-color="#0B2B11"/>
<stop offset="0.56" stop-color="#0F301C"/>
<stop offset="0.64" stop-color="#13372D"/>
<stop offset="0.7" stop-color="#194043"/>
<stop offset="0.75" stop-color="#214B5F"/>
<stop offset="0.8" stop-color="#2A597F"/>
<stop offset="0.85" stop-color="#3569A5"/>
<stop offset="0.89" stop-color="#407ACE"/>
<stop offset="0.9" stop-color="#437FD9"/>
<stop offset="1" stop-color="#00AB22"/>
</radialGradient>
<linearGradient id="paint22_linear_698_2094" x1="90.9196" y1="-44.0612" x2="117.887" y2="-66.7906" gradientUnits="userSpaceOnUse">
<stop offset="0.02" stop-color="#2BAE73"/>
<stop offset="0.25" stop-color="#1E7850"/>
<stop offset="0.5" stop-color="#11452E"/>
<stop offset="0.71" stop-color="#081F15"/>
<stop offset="0.89" stop-color="#020806"/>
<stop offset="1"/>
</linearGradient>
</defs>
</svg>
