<svg width="300" height="300" viewBox="0 0 300 300" fill="none" xmlns="http://www.w3.org/2000/svg">
<path style="mix-blend-mode:screen" d="M150 300C232.843 300 300 232.843 300 150C300 67.1573 232.843 0 150 0C67.1573 0 0 67.1573 0 150C0 232.843 67.1573 300 150 300Z" fill="url(#paint0_radial_698_2164)"/>
<path style="mix-blend-mode:screen" d="M149.996 277.777C220.567 277.777 277.776 220.568 277.776 149.997C277.776 79.4267 220.567 22.2178 149.996 22.2178C79.4257 22.2178 22.2168 79.4267 22.2168 149.997C22.2168 220.568 79.4257 277.777 149.996 277.777Z" fill="url(#paint1_radial_698_2164)"/>
<path style="mix-blend-mode:screen" opacity="0.92" fill-rule="evenodd" clip-rule="evenodd" d="M260.877 150.012C260.89 164.577 258.031 179.001 252.462 192.46C246.894 205.918 238.726 218.146 228.426 228.444C218.126 238.741 205.896 246.907 192.437 252.472C178.977 258.038 164.552 260.894 149.987 260.877C145.127 260.874 140.271 260.562 135.45 259.942C131.106 259.378 126.799 258.549 122.555 257.461C102.506 252.36 84.2871 241.745 69.9627 226.819C55.6382 211.893 45.7811 193.252 41.5086 173.011C41.4897 172.983 41.4812 172.95 41.4843 172.917C39.9121 165.389 39.1205 157.718 39.1221 150.027C39.1197 120.621 50.7985 92.4181 71.5897 71.6224C92.3808 50.8267 120.581 39.1417 149.987 39.1377C152.41 39.1377 154.809 39.2074 157.195 39.3709C169.476 40.1542 181.54 42.9813 192.89 47.7357C194.834 48.5534 196.727 49.4196 198.623 50.3342C206.637 54.2427 214.143 59.1153 220.976 64.8438C223.269 66.7397 225.492 68.7537 227.621 70.8343C228.393 71.5854 229.135 72.3485 229.892 73.1299C249.812 93.7618 260.923 121.334 260.877 150.012Z" fill="url(#paint2_radial_698_2164)"/>
<path fill-rule="evenodd" clip-rule="evenodd" d="M253.321 150.012C253.333 163.584 250.668 177.025 245.479 189.566C240.289 202.107 232.678 213.502 223.08 223.097C213.482 232.693 202.086 240.302 189.544 245.488C177.002 250.674 163.56 253.336 149.988 253.322C145.459 253.318 140.936 253.027 136.444 252.449C132.395 251.925 128.382 251.153 124.427 250.139C105.743 245.382 88.7644 235.488 75.4158 221.576C62.0671 207.664 52.8821 190.292 48.9017 171.427C48.8843 171.401 48.8768 171.37 48.8804 171.339C47.4156 164.325 46.6777 157.178 46.6787 150.012C46.6763 122.61 57.5591 96.3291 76.9331 76.9505C96.3072 57.5719 122.586 46.683 149.988 46.679C152.256 46.679 154.482 46.7425 156.705 46.897C168.149 47.6309 179.39 50.2696 189.964 54.7046C191.782 55.4677 193.541 56.2733 195.307 57.1274C202.774 60.7702 209.769 65.3102 216.137 70.6467C218.257 72.4124 220.347 74.281 222.33 76.2313C223.048 76.9279 223.748 77.6487 224.45 78.3513C243.014 97.5832 253.368 123.283 253.321 150.012Z" fill="url(#paint3_radial_698_2164)"/>
<path style="mix-blend-mode:multiply" opacity="0.4" fill-rule="evenodd" clip-rule="evenodd" d="M253.321 150.012C253.332 163.584 250.667 177.025 245.478 189.566C240.289 202.107 232.677 213.502 223.079 223.097C213.481 232.693 202.085 240.302 189.543 245.488C177.001 250.674 163.559 253.336 149.987 253.322C145.459 253.318 140.935 253.027 136.444 252.449C122.96 250.683 109.964 246.25 98.2116 239.408C101.637 238.536 104.996 237.358 108.442 236.486C116.664 234.366 124.514 231.97 132.955 231.035C136.335 230.644 141.592 229.314 141.738 225.235C141.78 224.078 141.541 223.772 142.262 223.142C143.046 222.443 143.985 222.77 144.966 222.537C147.365 222.013 149.285 219.526 150.811 217.782C153.312 214.898 156.002 212.183 158.864 209.656C164.403 204.792 171.732 202.548 175.288 195.567C176.245 193.647 176.333 191.685 176.802 189.635C177.347 187.324 179.07 185.755 181.075 184.598C183.562 183.181 186.245 182.678 188.492 180.737C190.585 178.92 191.608 176.136 192.429 173.583C193.783 169.343 193.565 165.079 194.152 160.761C194.455 158.58 195.091 156.463 195.176 154.24C195.285 152.12 194.413 150.467 193.716 148.486C192.538 145.124 190.969 141.66 189.528 138.41C188.971 137.211 188.169 136.141 187.175 135.269C185.733 133.937 184.47 132.432 183.007 131.123C181.984 130.215 180.697 129.609 179.694 128.682C178.907 127.94 178.253 126.938 177.535 126.151C176.202 124.733 174.852 123.273 173.15 122.313C169.049 120.045 166.629 115.923 161.832 115.093C155.987 114.091 151.232 107.855 145.014 110.057C141.026 111.474 137.098 113.001 132.9 114.07C130.217 114.745 127.164 114.675 124.632 115.684C123.043 116.317 121.34 117.668 120.208 118.934C118.46 120.851 117.785 123.446 116.325 125.542C115.235 127.111 114.508 128.637 113.575 130.318C111.743 133.676 111.94 136.772 111.94 140.524C111.94 142.508 111.743 144.625 111.961 146.608C112.203 149.031 113.378 150.751 114.841 152.629C115.713 153.74 116.325 155.657 117.416 156.566C117.982 157.023 118.506 156.893 119.115 157.154C120.162 157.614 120.535 158.029 121.428 158.704C124.133 160.73 126.837 162.641 130.175 163.392C131.94 163.762 133.488 164.047 135.081 164.767C136.472 165.371 137.952 165.746 139.463 165.879C142.931 166.227 145.962 165.028 148.579 162.89C150.218 161.581 151.502 160.512 152.768 158.768C153.467 157.808 153.903 157.22 154.906 156.648C155.581 156.254 156.323 155.818 157.129 155.906C157.807 155.994 158.504 156.866 159.224 156.43C159.83 156.057 160.206 154.116 160.436 153.528C160.851 152.481 161.132 151.193 161.614 150.197C162.441 148.431 163.837 148.843 165.518 148.801C166.693 148.801 168.155 148.692 168.919 147.668C169.618 146.687 169.443 144.528 168.919 143.546C168.134 142.105 166.084 140.709 164.948 139.534C164.083 138.615 163.309 137.614 162.637 136.544C161.308 134.473 160.742 130.742 157.904 130.112C156.771 129.848 155.266 130.066 154.109 130.066C152.758 130.088 151.841 129.739 150.557 129.461C148.57 129 146.762 128.392 144.687 128.37C142.116 128.325 139.936 129.109 137.579 130.091C136.574 130.506 135.747 130.309 134.83 130.615C133.676 131.008 131.974 133.34 131.801 134.431C131.41 136.787 132.283 139.076 134.551 140.015C135.293 140.318 137.016 140.451 137.561 141.063C138.279 141.869 137.67 142.916 137.298 143.831C136.389 146.166 136.862 148.958 139.763 149.395C141.726 149.676 143.646 148.413 145.281 147.647C146.677 146.95 148.915 146.775 148.915 144.967C148.806 145.818 147.368 145.491 146.671 145.491C145.23 145.491 144.357 145.467 143.225 144.552C142.092 143.637 142.013 142.916 141.589 141.629C141.367 141.04 141.081 140.477 140.738 139.949C140.499 139.6 139.736 139.122 139.603 138.737C138.818 136.666 145.166 135.684 146.386 135.554C149.048 135.251 150.881 137.147 152.407 139.152C153.082 140.061 154.412 141.333 154.348 142.447C154.303 143.492 153.44 145.303 153.016 146.305C152.58 147.353 152.253 148.356 151.904 149.334C151.468 150.6 150.814 150.848 149.703 151.514C148.591 152.181 147.804 153.129 146.868 153.958C145.841 154.867 144.554 154.961 143.234 155.267C141.271 155.745 139.527 154.7 137.543 154.831C135.905 154.919 134.487 155.854 132.873 155.963C129.472 156.181 126.441 155.77 125.262 152.081C124.738 150.512 125.175 149.791 126.135 148.789C127.161 147.72 126.813 146.76 126.289 145.497C125.683 144.034 125.002 142.638 124.717 141.069C124.433 139.5 125.393 137.71 125.656 136.117C125.895 134.788 125.241 132.934 125.677 131.669C126.071 130.557 128.361 129.421 129.296 128.658C130.508 127.677 132.219 127.262 133.639 126.538C135.384 125.63 136.604 125.905 138.391 125.599C139.854 125.339 140.638 124.203 141.947 123.679C143.388 123.113 145.372 123.398 146.919 123.419C148.643 123.461 149.56 124.006 151.062 124.748C152.504 125.469 153.767 126.581 155.448 126.777C157.389 126.996 159.385 126.626 161.314 126.711C163.243 126.796 163.909 127.825 165.372 128.831C166.983 129.942 168.074 130.596 169.252 132.256C169.818 133.04 170.103 134.001 170.669 134.742C171.302 135.59 171.759 136.051 172.153 137.074C172.698 138.492 173.419 139.712 173.789 141.175C174.007 142.047 174.312 142.768 174.246 143.683C174.137 144.84 173.658 145.821 173.64 147.014C173.595 149.673 172.635 151.639 171.46 154.013C170.285 156.387 169.3 158.813 168.21 161.191C167.468 162.805 167.301 166.009 165.133 166.424C164 166.642 162.886 166.424 161.802 167.011C160.717 167.599 160.518 168.91 159.621 169.737C158.77 170.522 157.704 170.258 156.568 170.258C154.903 170.228 153.251 170.556 151.723 171.218C149.827 172.027 148.54 173.944 146.644 174.904C145.059 175.701 143.391 176.323 141.671 176.757C140.46 177.06 139.294 176.757 138.07 177.13C135.281 177.96 132.946 179.789 130.241 180.794C128.149 181.557 125.487 182.057 123.218 181.863C122.282 181.776 121.54 181.403 120.647 181.121C119.251 180.706 117.788 180.706 116.349 180.334C115.221 180.029 114.109 179.665 113.018 179.244C111.907 178.829 111.201 178.002 110.141 177.52C107.718 176.367 105.386 176.497 103.175 174.707C100.407 172.442 97.9845 169.889 94.9771 167.947C93.7324 167.117 92.9026 166.073 92.097 164.873C91.3762 163.804 90.5282 163.171 89.7196 162.257C88.5082 160.882 87.7147 159.268 87.0363 157.611C85.9037 154.885 84.5499 152.441 83.5929 149.628C82.2391 145.636 80.4947 141.972 79.7315 137.786C79.1258 134.318 79.8829 131.263 80.0162 127.883C80.0374 127.098 80.1464 126.138 79.992 125.375C79.7527 124.088 78.6413 123.237 77.8114 122.301C75.107 119.224 72.7508 116.15 71.2698 112.289C69.7556 108.352 69.0226 103.567 70.2886 99.4874C71.4667 95.7805 73.7562 93.7332 76.7878 91.483C79.7315 89.2813 83.0902 87.6246 86.3398 85.965C87.8238 85.2018 89.2169 84.1479 90.7887 83.5664C92.3605 82.9849 94.2988 82.6942 95.9796 82.2369C97.4636 81.8432 98.6841 81.6917 99.9712 80.7741C101.367 79.8113 102.714 78.7783 104.005 77.6789C105.519 76.3252 106.71 74.9291 108.693 74.4082C111.419 73.6874 114.278 72.8575 117.046 72.2882C120.471 71.5674 124.681 72.5062 128.082 72.8787C131.474 73.2012 134.881 73.3387 138.288 73.2906C141.168 73.2906 143.894 72.8333 146.768 72.7243C147.813 72.6819 148.888 72.8333 149.951 72.7697C151.674 72.6819 153.31 71.9187 154.966 71.5038C158.152 70.6739 161.138 69.1264 164.258 68.0997C166.681 67.2941 168.991 67.3819 171.478 66.967C174.094 66.5521 176.778 65.6587 179.437 65.5497C181.772 65.4619 184.234 64.5684 186.33 65.8344C190.212 68.233 192.69 72.3336 196.557 74.6656C200.636 77.1308 205.216 78.8752 209.598 80.6197C211.112 81.2072 212.805 80.5106 214.18 81.0346C214.877 81.295 215.597 82.3853 216.1 82.9758C216.818 82.4731 216.6 81.7644 216.621 80.9922C216.688 79.8989 217.19 79.0721 217.227 77.9364C217.248 76.6068 217.378 75.1471 217.16 73.8358C217.051 73.1816 216.158 71.5674 216.136 70.6528C218.256 72.4184 220.346 74.287 222.33 76.2374C232.159 85.8431 239.964 97.3197 245.287 109.99C250.61 122.661 253.341 136.269 253.321 150.012V150.012Z" fill="url(#paint4_radial_698_2164)"/>
<path style="mix-blend-mode:multiply" opacity="0.3" fill-rule="evenodd" clip-rule="evenodd" d="M81.1373 181.272C80.5366 183.527 80.1772 185.84 80.0652 188.171C80.6558 188.026 81.5552 189.41 82.2155 189.685C83.4269 190.222 84.6383 190.064 85.7588 190.873C86.7522 191.581 87.9606 192.993 89.1326 193.356C89.8807 193.586 90.9255 193.377 91.719 193.377C93.3443 193.346 94.9683 193.485 96.5646 193.792C98.2606 194.134 100.502 194.701 102.234 194.534C103.427 194.413 105.263 193.774 106.171 193.02C107.08 192.266 107.531 189.897 107.598 188.689C107.8 184.919 105.023 181.369 102.195 179.134C100.729 177.971 99.0541 177.974 97.4247 177.132C95.5758 176.196 93.6286 175.468 91.619 174.961C90.3622 174.618 88.6178 173.995 87.3094 174.034C86.0011 174.073 84.5595 174.87 83.33 175.191C82.1004 175.512 80.8405 175.715 79.9986 176.82C79.0506 178.041 79.4716 179.812 81.1373 181.272Z" fill="url(#paint5_linear_698_2164)"/>
<path style="mix-blend-mode:multiply" opacity="0.3" fill-rule="evenodd" clip-rule="evenodd" d="M110.323 194.495C109.669 195.27 103.563 200.579 106.577 202.672C107.118 202.883 107.673 203.053 108.239 203.181C109.169 203.414 109.333 203.275 110.099 202.778C111.547 201.845 111.74 200.301 111.38 198.668C111.23 198.106 111.046 197.554 110.829 197.015C110.553 196.442 109.92 196.27 109.772 195.591L110.323 194.495Z" fill="url(#paint6_linear_698_2164)"/>
<path style="mix-blend-mode:multiply" opacity="0.3" fill-rule="evenodd" clip-rule="evenodd" d="M145.587 60.61C146.705 60.0588 150.212 57.9207 152.177 57.7238C152.813 57.6602 153.716 57.8632 154.4 57.8571C155.89 57.8571 157.186 57.5845 158.283 58.7929C159.11 59.7015 159.515 60.6464 158.889 61.6791C158.031 63.1298 155.796 64.1988 154.385 65.0105C151.093 66.9154 146.72 68.7295 142.777 68.36C139.645 68.0572 136.804 65.7161 134.124 64.3109C132.107 63.2509 128.44 61.246 130.89 58.8171C132.892 56.8334 135.932 55.7432 138.688 55.6402C139.936 55.5948 142.965 55.1557 143.943 55.8976C145.033 56.7244 143.84 60.2345 146.12 60.0558L145.587 60.61Z" fill="url(#paint7_linear_698_2164)"/>
<path style="mix-blend-mode:screen" fill-rule="evenodd" clip-rule="evenodd" d="M45.0977 128.949C46.6696 150.012 95.977 115.905 143.701 100.753C199.728 82.9638 242.179 121.817 248.382 119.7C258.094 116.387 218.211 39.3045 154.367 40.2949C82.4486 41.4094 42.5689 94.9537 45.0977 128.949Z" fill="url(#paint8_linear_698_2164)"/>
<path style="mix-blend-mode:screen" fill-rule="evenodd" clip-rule="evenodd" d="M101.577 244.941C101.577 244.941 150.615 262.022 197.448 236.125C244.281 210.228 251.992 151.811 251.992 151.811C251.992 151.811 246.238 220.507 201.028 242.431C155.818 264.354 121.962 257.613 101.577 244.941Z" fill="url(#paint9_radial_698_2164)"/>
<path style="mix-blend-mode:screen" opacity="0.5" fill-rule="evenodd" clip-rule="evenodd" d="M40.207 165.515L43.6777 181.566C43.6777 181.566 62.9361 192.842 107.595 188.696C152.254 184.55 162.865 162.714 180.298 149.994C197.73 137.274 231.537 127.28 240.353 117.353C249.169 107.425 241.677 87.6517 241.677 87.6517L238.285 82.9575C238.285 82.9575 244.545 99.8628 237.049 112.395C229.554 124.927 196.276 130.693 178.093 146.554C159.91 162.414 123.049 174.749 91.6163 174.976C60.1832 175.203 40.207 165.515 40.207 165.515Z" fill="url(#paint10_linear_698_2164)"/>
<path style="mix-blend-mode:screen" opacity="0.5" fill-rule="evenodd" clip-rule="evenodd" d="M55.0312 207.281L62.112 217.602C62.112 217.602 94.2144 226.991 142.426 217.602C190.637 208.214 226.985 181.018 243.93 165.512C260.874 150.006 258.769 128.333 258.769 128.333L257.255 121.813C257.255 121.813 254.227 144.36 235.401 165.512C216.576 186.663 185.219 205.849 140.081 213.774C94.9442 221.7 55.0312 207.281 55.0312 207.281Z" fill="url(#paint11_linear_698_2164)"/>
<path style="mix-blend-mode:screen" opacity="0.5" fill-rule="evenodd" clip-rule="evenodd" d="M46.6787 109.748C46.6787 109.748 109.672 131.232 158.341 121.817C207.009 112.401 220.05 80.9316 220.974 64.844L212.045 58.1177C212.045 58.1177 212.248 90.42 181.412 109.906C150.575 129.391 71.652 117.822 50.4916 101.053L46.6787 109.748Z" fill="url(#paint12_linear_698_2164)"/>
<path fill-rule="evenodd" clip-rule="evenodd" d="M53.5769 147.792C54.2826 151.675 63.0532 146.247 69.6281 133.095C76.2031 119.942 77.4539 92.8333 74.0346 90.468C70.6154 88.1028 48.7071 120.92 53.5769 147.792Z" fill="white"/>
<path fill-rule="evenodd" clip-rule="evenodd" d="M173.789 249.684C172.417 251.225 177.478 253.088 184.995 251.552C192.511 250.017 204.095 241.803 203.977 239.638C203.859 237.472 183.28 239.014 173.789 249.684Z" fill="white"/>
<path fill-rule="evenodd" clip-rule="evenodd" d="M54.1826 153.449C49.6398 154.3 49.7428 163.171 52.6502 166.978C55.5576 170.784 59.2463 168.976 59.4765 161.196C59.6128 156.405 57.938 152.747 54.1826 153.449Z" fill="white"/>
<path fill-rule="evenodd" clip-rule="evenodd" d="M234.078 217.981C234.078 217.981 253.085 193.392 257.219 162.607C257.228 162.607 259.391 191.935 234.078 217.981Z" fill="#FF9AFF"/>
<path style="mix-blend-mode:screen" opacity="0.92" fill-rule="evenodd" clip-rule="evenodd" d="M181.411 43.6686C181.411 43.6686 210.2 20.3732 234.077 36.918C260.868 55.4738 247.763 97.6854 247.763 97.6854C247.763 97.6854 192.444 68.6025 181.411 43.6686Z" fill="url(#paint13_radial_698_2164)"/>
<path style="mix-blend-mode:screen" opacity="0.92" fill-rule="evenodd" clip-rule="evenodd" d="M75.8799 232.442C75.8799 232.442 79.4959 265.02 103.988 276.865C126.835 287.916 147.341 260.844 147.341 260.844C147.341 260.844 142.426 217.603 75.8799 232.442Z" fill="url(#paint14_radial_698_2164)"/>
<path style="mix-blend-mode:screen" fill-rule="evenodd" clip-rule="evenodd" d="M186.909 42.7023C191.513 48.6049 206.47 50.1403 224.926 52.0695C243.382 53.9987 245.941 59.232 245.941 59.232C245.941 59.232 240.078 37.469 222.173 33.8862C204.269 30.3035 186.909 42.7023 186.909 42.7023Z" fill="url(#paint15_linear_698_2164)"/>
<path style="mix-blend-mode:screen" fill-rule="evenodd" clip-rule="evenodd" d="M77.9121 234.708C77.9121 234.708 80.8468 254.551 88.836 258.134C96.8253 261.716 101.577 243.394 121.344 242.991C132.374 242.758 144.485 255.662 144.485 255.662C144.485 255.662 132.622 220.383 77.9121 234.708Z" fill="url(#paint16_linear_698_2164)"/>
<path fill-rule="evenodd" clip-rule="evenodd" d="M108.643 275.763C108.643 275.763 121.49 277.67 133.825 269.978C133.834 269.978 125.723 283.94 108.643 275.763Z" fill="#FF9AFF"/>
<path fill-rule="evenodd" clip-rule="evenodd" d="M244.648 90.3504C244.648 90.3504 249.003 79.4476 247.516 65.156C247.516 65.156 255.209 80.6954 244.648 90.3504Z" fill="#FF9AFF"/>
<path fill-rule="evenodd" clip-rule="evenodd" d="M187.836 42.0818C185.819 43.8626 201.098 43.5143 205.919 40.2859C210.74 37.0575 212.682 35.204 211.428 33.2385C210.174 31.273 195.101 35.6765 187.836 42.0818Z" fill="white"/>
<path fill-rule="evenodd" clip-rule="evenodd" d="M213.205 33.4231C213.017 32.2269 217.66 32.5509 217.572 33.7018C217.484 34.8526 213.559 35.6612 213.205 33.4231Z" fill="white"/>
<path fill-rule="evenodd" clip-rule="evenodd" d="M79.7836 238.83C76.755 237.939 81.1918 252.34 87.6335 257.17C87.6335 257.17 88.5724 241.425 79.7836 238.83Z" fill="white"/>
<path style="mix-blend-mode:screen" opacity="0.92" fill-rule="evenodd" clip-rule="evenodd" d="M246.068 99.0874C246.068 99.0874 260.096 90.8467 267.331 100.565C277.61 114.375 259.457 128.828 259.457 128.828C259.457 128.828 244.417 119.424 246.068 99.0874Z" fill="url(#paint17_radial_698_2164)"/>
<path style="mix-blend-mode:screen" fill-rule="evenodd" clip-rule="evenodd" d="M247.318 99.1786C241.77 100.838 257.788 104.136 263.297 106.892C268.805 109.648 268.254 112.949 268.254 112.949C268.254 112.949 271.286 92.0162 247.318 99.1786Z" fill="url(#paint18_linear_698_2164)"/>
<path fill-rule="evenodd" clip-rule="evenodd" d="M258.213 125.765C258.213 125.765 263.146 123.46 266.732 115.513C266.732 115.498 268.083 124.015 258.213 125.765Z" fill="#FF9AFF"/>
<path fill-rule="evenodd" clip-rule="evenodd" d="M249.523 99.4722C248.045 101.377 256.488 101.083 257.221 99.1027C257.954 97.122 251.31 97.1856 249.523 99.4722Z" fill="white"/>
<path fill-rule="evenodd" clip-rule="evenodd" d="M245.94 103.903C245.94 103.903 246.08 116.889 253.933 124.194C253.933 124.203 247.146 111.768 245.94 103.903Z" fill="white"/>
<path fill-rule="evenodd" clip-rule="evenodd" d="M255.42 125.766C255.42 125.766 257.255 128.546 258.751 128.352C258.76 128.337 256.865 125.306 255.42 125.766Z" fill="white"/>
<path style="mix-blend-mode:screen" opacity="0.92" fill-rule="evenodd" clip-rule="evenodd" d="M162.966 40.2856C162.966 40.2856 166.845 33.32 172.545 33.2564C180.64 33.1656 181.122 44.0652 181.122 44.0652C181.122 44.0652 172.515 47.3875 162.966 40.2856Z" fill="url(#paint19_radial_698_2164)"/>
<path style="mix-blend-mode:screen" fill-rule="evenodd" clip-rule="evenodd" d="M165.554 38.3047C163.955 40.5095 170.881 37.163 173.731 36.6179C176.581 36.0727 177.317 37.4628 177.317 37.4628C177.317 37.4628 172.456 28.777 165.554 38.3047Z" fill="url(#paint20_linear_698_2164)"/>
<path fill-rule="evenodd" clip-rule="evenodd" d="M179.603 43.6929C179.603 43.6929 180.091 41.1792 178.059 37.6177C178.05 37.6147 181.684 39.453 179.603 43.6929Z" fill="#FF9AFF"/>
<path fill-rule="evenodd" clip-rule="evenodd" d="M166.463 37.784C166.463 38.9167 169.522 36.397 169.234 35.443C168.946 34.489 166.475 36.4242 166.463 37.784Z" fill="white"/>
<path fill-rule="evenodd" clip-rule="evenodd" d="M166.385 42.4331C166.385 42.4331 172.878 45.8584 177.833 44.8923C177.833 44.9044 169.71 44.1503 166.385 42.4331Z" fill="white"/>
<path fill-rule="evenodd" clip-rule="evenodd" d="M178.832 44.7526C178.832 44.7526 180.398 44.8253 180.74 44.1984C180.74 44.1984 179.062 44.0803 178.832 44.7526Z" fill="white"/>
<path fill-rule="evenodd" clip-rule="evenodd" d="M185.046 49.9707C185.046 49.9707 189.41 50.9671 190.697 57.0272C190.697 57.0181 186.227 55.7249 185.046 49.9707Z" fill="white"/>
<path fill-rule="evenodd" clip-rule="evenodd" d="M75.8799 232.442C75.8799 232.442 81.4887 230.577 90.9468 229.341C100.405 228.105 105.747 229.341 105.747 229.341C105.747 229.341 84.9594 230.994 75.8799 232.442Z" fill="white"/>
<path fill-rule="evenodd" clip-rule="evenodd" d="M127.776 234.932C127.776 234.932 139.612 244.144 143.706 250.404C143.709 250.404 142.483 242.309 127.776 234.932Z" fill="white"/>
<path fill-rule="evenodd" clip-rule="evenodd" d="M104.62 51.8273C104.62 51.8273 107.836 47.8508 114.405 46.1003C119.714 44.6829 122.697 44.9162 123.739 44.792C123.739 44.792 112.512 52.5753 104.62 51.8273Z" fill="white"/>
<path fill-rule="evenodd" clip-rule="evenodd" d="M108.643 229.677C108.643 229.677 112.371 228.036 113.7 230.355C113.7 230.355 109.645 231.661 108.643 229.677Z" fill="white"/>
<path fill-rule="evenodd" clip-rule="evenodd" d="M135.744 269.015C135.744 269.015 135.777 266.023 140.696 264.472C140.696 264.472 141.123 268.409 135.744 269.015Z" fill="#FF9AFF"/>
<path style="mix-blend-mode:screen" opacity="0.92" d="M67.5928 64.7058C79.7256 56.7965 83.1494 40.5492 75.2401 28.4165C67.3309 16.2837 51.0836 12.8598 38.9508 20.7691C26.818 28.6784 23.3941 44.9256 31.3034 57.0584C39.2127 69.1912 55.46 72.6151 67.5928 64.7058Z" fill="url(#paint21_radial_698_2164)"/>
<path style="mix-blend-mode:screen" fill-rule="evenodd" clip-rule="evenodd" d="M28.9982 43.1476C28.9982 43.1476 33.4199 50.6584 47.3269 40.6521C61.2339 30.6459 67.6362 25.2763 73.6963 27.8929C73.6963 27.8929 60.3344 12.3293 43.0476 20.0188C26.1514 27.5113 28.9982 43.1476 28.9982 43.1476Z" fill="url(#paint22_linear_698_2164)"/>
<path fill-rule="evenodd" clip-rule="evenodd" d="M62.4697 65.1559C62.4697 65.1559 74.4536 59.4017 76.934 46.6819C76.934 46.6789 79.4143 61.2309 62.4697 65.1559Z" fill="#FF9AFF"/>
<path fill-rule="evenodd" clip-rule="evenodd" d="M28.959 37.6141C28.959 37.6141 30.5157 25.4818 42.5662 21.2812C42.5662 21.2812 37.3904 37.7625 28.959 37.6141Z" fill="white"/>
<path fill-rule="evenodd" clip-rule="evenodd" d="M50.0732 67.2186C50.0732 67.2186 56.2726 62.2608 62.469 65.1561C62.469 65.1561 58.544 68.969 50.0732 67.2186Z" fill="white"/>
<path style="mix-blend-mode:screen" opacity="0.92" fill-rule="evenodd" clip-rule="evenodd" d="M216.191 271.529C216.193 273.945 215.478 276.307 214.137 278.317C212.795 280.327 210.888 281.894 208.656 282.82C206.425 283.746 203.968 283.989 201.598 283.518C199.228 283.048 197.051 281.885 195.342 280.177C193.633 278.468 192.469 276.292 191.998 273.922C191.526 271.552 191.768 269.096 192.692 266.864C193.617 264.631 195.183 262.723 197.192 261.381C199.201 260.039 201.564 259.323 203.98 259.324C207.217 259.325 210.322 260.61 212.611 262.899C214.901 265.188 216.188 268.291 216.191 271.529V271.529Z" fill="url(#paint23_radial_698_2164)"/>
<path style="mix-blend-mode:screen" fill-rule="evenodd" clip-rule="evenodd" d="M192.678 271.72C192.678 271.72 194.734 275.214 201.212 270.557C207.69 265.899 210.67 263.397 213.49 264.615C213.49 264.615 207.269 257.367 199.219 260.941C191.348 264.436 192.678 271.72 192.678 271.72Z" fill="url(#paint24_linear_698_2164)"/>
<path fill-rule="evenodd" clip-rule="evenodd" d="M208.264 281.968C208.264 281.968 213.845 279.288 214.999 273.364C214.999 273.364 216.153 280.139 208.264 281.968Z" fill="#FF9AFF"/>
<path fill-rule="evenodd" clip-rule="evenodd" d="M192.657 269.142C192.657 269.142 193.381 263.491 198.996 261.534C198.996 261.534 196.585 269.211 192.657 269.142Z" fill="white"/>
<path fill-rule="evenodd" clip-rule="evenodd" d="M199.226 261.265C198.638 260.962 201.1 260.096 202.475 260.163C202.475 260.163 200.046 261.683 199.226 261.265Z" fill="white"/>
<path fill-rule="evenodd" clip-rule="evenodd" d="M202.49 282.928C202.49 282.928 205.376 280.617 208.263 281.968C208.263 281.968 206.436 283.743 202.49 282.928Z" fill="white"/>
<defs>
<radialGradient id="paint0_radial_698_2164" cx="0" cy="0" r="1" gradientUnits="userSpaceOnUse" gradientTransform="translate(150 150) scale(150)">
<stop offset="0.01" stop-color="#009BFF"/>
<stop offset="1"/>
</radialGradient>
<radialGradient id="paint1_radial_698_2164" cx="0" cy="0" r="1" gradientUnits="userSpaceOnUse" gradientTransform="translate(149.996 149.999) rotate(45) scale(127.78)">
<stop offset="0.01" stop-color="#0092FF"/>
<stop offset="0.13" stop-color="#0090FB"/>
<stop offset="0.26" stop-color="#0089EF"/>
<stop offset="0.38" stop-color="#007DDB"/>
<stop offset="0.51" stop-color="#006DBF"/>
<stop offset="0.63" stop-color="#00599B"/>
<stop offset="0.76" stop-color="#003F6E"/>
<stop offset="0.88" stop-color="#00223B"/>
<stop offset="1"/>
</radialGradient>
<radialGradient id="paint2_radial_698_2164" cx="0" cy="0" r="1" gradientUnits="userSpaceOnUse" gradientTransform="translate(150 150) scale(110.877 110.877)">
<stop offset="0.89"/>
<stop offset="0.9" stop-color="#000506"/>
<stop offset="0.92" stop-color="#001217"/>
<stop offset="0.94" stop-color="#002932"/>
<stop offset="0.96" stop-color="#004858"/>
<stop offset="0.99" stop-color="#006F89"/>
<stop offset="1" stop-color="#008BAB"/>
</radialGradient>
<radialGradient id="paint3_radial_698_2164" cx="0" cy="0" r="1" gradientUnits="userSpaceOnUse" gradientTransform="translate(120.72 120.687) scale(151.56 151.56)">
<stop offset="0.01" stop-color="#00CEC0"/>
<stop offset="0.26" stop-color="#00CCC0"/>
<stop offset="0.38" stop-color="#00C4C1"/>
<stop offset="0.48" stop-color="#00B7C2"/>
<stop offset="0.56" stop-color="#00A4C4"/>
<stop offset="0.64" stop-color="#008CC6"/>
<stop offset="0.71" stop-color="#006EC8"/>
<stop offset="0.72" stop-color="#0068C9"/>
<stop offset="0.74" stop-color="#0767CB"/>
<stop offset="0.78" stop-color="#1A66CF"/>
<stop offset="0.83" stop-color="#3A63D6"/>
<stop offset="0.88" stop-color="#6660E0"/>
<stop offset="0.93" stop-color="#9E5BEC"/>
<stop offset="0.99" stop-color="#E255FC"/>
<stop offset="1" stop-color="#F154FF"/>
</radialGradient>
<radialGradient id="paint4_radial_698_2164" cx="0" cy="0" r="1" gradientUnits="userSpaceOnUse" gradientTransform="translate(161.499 159.24) scale(92.9607 92.9607)">
<stop stop-color="#1372B3"/>
<stop offset="1" stop-color="white"/>
</radialGradient>
<linearGradient id="paint5_linear_698_2164" x1="79.4958" y1="184.316" x2="107.604" y2="184.316" gradientUnits="userSpaceOnUse">
<stop stop-color="#B8C2FF"/>
<stop offset="1" stop-color="#7D72B3"/>
</linearGradient>
<linearGradient id="paint6_linear_698_2164" x1="105.747" y1="198.895" x2="111.537" y2="198.895" gradientUnits="userSpaceOnUse">
<stop stop-color="#B8C2FF"/>
<stop offset="1" stop-color="#7D72B3"/>
</linearGradient>
<linearGradient id="paint7_linear_698_2164" x1="130.09" y1="61.9426" x2="159.197" y2="61.9426" gradientUnits="userSpaceOnUse">
<stop stop-color="#B8C2FF"/>
<stop offset="1" stop-color="#7D72B3"/>
</linearGradient>
<linearGradient id="paint8_linear_698_2164" x1="85.0016" y1="57.6102" x2="201.797" y2="168.895" gradientUnits="userSpaceOnUse">
<stop offset="0.02" stop-color="#B3FFE8"/>
<stop offset="0.21" stop-color="#83BBAA"/>
<stop offset="0.43" stop-color="#55796E"/>
<stop offset="0.62" stop-color="#30453F"/>
<stop offset="0.78" stop-color="#161F1D"/>
<stop offset="0.92" stop-color="#060808"/>
<stop offset="1"/>
</linearGradient>
<radialGradient id="paint9_radial_698_2164" cx="0" cy="0" r="1" gradientUnits="userSpaceOnUse" gradientTransform="translate(196.07 237.082) scale(65.1739 65.1739)">
<stop stop-color="#97E5D9"/>
<stop offset="0.36" stop-color="#61938C"/>
<stop offset="1"/>
</radialGradient>
<linearGradient id="paint10_linear_698_2164" x1="142.426" y1="189.625" x2="142.426" y2="82.9636" gradientUnits="userSpaceOnUse">
<stop stop-color="#BDFFE8"/>
<stop offset="0.2" stop-color="#8BBBAA"/>
<stop offset="0.42" stop-color="#5A796E"/>
<stop offset="0.61" stop-color="#33453F"/>
<stop offset="0.78" stop-color="#171F1D"/>
<stop offset="0.91" stop-color="#060808"/>
<stop offset="1"/>
</linearGradient>
<linearGradient id="paint11_linear_698_2164" x1="156.938" y1="221.782" x2="156.938" y2="121.816" gradientUnits="userSpaceOnUse">
<stop stop-color="#BDFFE8"/>
<stop offset="0.2" stop-color="#8BBBAA"/>
<stop offset="0.42" stop-color="#5A796E"/>
<stop offset="0.61" stop-color="#33453F"/>
<stop offset="0.78" stop-color="#171F1D"/>
<stop offset="0.91" stop-color="#060808"/>
<stop offset="1"/>
</linearGradient>
<linearGradient id="paint12_linear_698_2164" x1="133.825" y1="124.203" x2="133.825" y2="58.1177" gradientUnits="userSpaceOnUse">
<stop stop-color="#BDFFE8"/>
<stop offset="0.2" stop-color="#8BBBAA"/>
<stop offset="0.42" stop-color="#5A796E"/>
<stop offset="0.61" stop-color="#33453F"/>
<stop offset="0.78" stop-color="#171F1D"/>
<stop offset="0.91" stop-color="#060808"/>
<stop offset="1"/>
</linearGradient>
<radialGradient id="paint13_radial_698_2164" cx="0" cy="0" r="1" gradientUnits="userSpaceOnUse" gradientTransform="translate(216.194 64.3323) scale(34.074 34.074)">
<stop offset="0.77"/>
<stop offset="0.79" stop-color="#060106"/>
<stop offset="0.8" stop-color="#170416"/>
<stop offset="0.82" stop-color="#320A31"/>
<stop offset="0.84" stop-color="#581157"/>
<stop offset="0.86" stop-color="#8A1B88"/>
<stop offset="0.89" stop-color="#C527C2"/>
<stop offset="0.91" stop-color="#FF32FC"/>
<stop offset="0.92" stop-color="#FB33FB"/>
<stop offset="0.93" stop-color="#EE38F7"/>
<stop offset="0.94" stop-color="#D93FF0"/>
<stop offset="0.95" stop-color="#BC49E7"/>
<stop offset="0.97" stop-color="#9657DB"/>
<stop offset="0.98" stop-color="#6867CC"/>
<stop offset="0.99" stop-color="#327ABB"/>
<stop offset="1" stop-color="#008BAB"/>
</radialGradient>
<radialGradient id="paint14_radial_698_2164" cx="0" cy="0" r="1" gradientUnits="userSpaceOnUse" gradientTransform="translate(113.322 246.104) scale(32.3992 32.3992)">
<stop offset="0.77"/>
<stop offset="0.79" stop-color="#060106"/>
<stop offset="0.8" stop-color="#170416"/>
<stop offset="0.82" stop-color="#320A31"/>
<stop offset="0.84" stop-color="#581157"/>
<stop offset="0.86" stop-color="#8A1B88"/>
<stop offset="0.89" stop-color="#C527C2"/>
<stop offset="0.91" stop-color="#FF32FC"/>
<stop offset="0.92" stop-color="#FB33FB"/>
<stop offset="0.93" stop-color="#EE38F7"/>
<stop offset="0.94" stop-color="#D93FF0"/>
<stop offset="0.95" stop-color="#BC49E7"/>
<stop offset="0.97" stop-color="#9657DB"/>
<stop offset="0.98" stop-color="#6867CC"/>
<stop offset="0.99" stop-color="#327ABB"/>
<stop offset="1" stop-color="#008BAB"/>
</radialGradient>
<linearGradient id="paint15_linear_698_2164" x1="198.742" y1="30.2156" x2="238.1" y2="67.5089" gradientUnits="userSpaceOnUse">
<stop offset="0.02" stop-color="#54FFE8"/>
<stop offset="0.21" stop-color="#3EBBAA"/>
<stop offset="0.43" stop-color="#28796E"/>
<stop offset="0.62" stop-color="#17453F"/>
<stop offset="0.78" stop-color="#0A1F1D"/>
<stop offset="0.92" stop-color="#030808"/>
<stop offset="1"/>
</linearGradient>
<linearGradient id="paint16_linear_698_2164" x1="86.0801" y1="226.092" x2="131.614" y2="269.236" gradientUnits="userSpaceOnUse">
<stop offset="0.02" stop-color="#54FFE8"/>
<stop offset="0.21" stop-color="#3EBBAA"/>
<stop offset="0.43" stop-color="#28796E"/>
<stop offset="0.62" stop-color="#17453F"/>
<stop offset="0.78" stop-color="#0A1F1D"/>
<stop offset="0.92" stop-color="#030808"/>
<stop offset="1"/>
</linearGradient>
<radialGradient id="paint17_radial_698_2164" cx="0" cy="0" r="1" gradientUnits="userSpaceOnUse" gradientTransform="translate(259.956 113.185) rotate(-11.7125) scale(12.8661 15.3979)">
<stop offset="0.77"/>
<stop offset="0.79" stop-color="#060106"/>
<stop offset="0.8" stop-color="#170416"/>
<stop offset="0.82" stop-color="#320A31"/>
<stop offset="0.84" stop-color="#581157"/>
<stop offset="0.86" stop-color="#8A1B88"/>
<stop offset="0.89" stop-color="#C527C2"/>
<stop offset="0.91" stop-color="#FF32FC"/>
<stop offset="0.92" stop-color="#FB33FB"/>
<stop offset="0.93" stop-color="#EE38F7"/>
<stop offset="0.94" stop-color="#D93FF0"/>
<stop offset="0.95" stop-color="#BC49E7"/>
<stop offset="0.97" stop-color="#9657DB"/>
<stop offset="0.98" stop-color="#6867CC"/>
<stop offset="0.99" stop-color="#327ABB"/>
<stop offset="1" stop-color="#008BAB"/>
</radialGradient>
<linearGradient id="paint18_linear_698_2164" x1="250.259" y1="95.5081" x2="268.451" y2="112.743" gradientUnits="userSpaceOnUse">
<stop offset="0.02" stop-color="#54FFE8"/>
<stop offset="0.21" stop-color="#3EBBAA"/>
<stop offset="0.43" stop-color="#28796E"/>
<stop offset="0.62" stop-color="#17453F"/>
<stop offset="0.78" stop-color="#0A1F1D"/>
<stop offset="0.92" stop-color="#030808"/>
<stop offset="1"/>
</linearGradient>
<radialGradient id="paint19_radial_698_2164" cx="0" cy="0" r="1" gradientUnits="userSpaceOnUse" gradientTransform="translate(175.157 40.3202) rotate(-65.8977) scale(6.66939 7.9952)">
<stop offset="0.42"/>
<stop offset="0.49" stop-color="#000506"/>
<stop offset="0.59" stop-color="#001217"/>
<stop offset="0.69" stop-color="#002932"/>
<stop offset="0.8" stop-color="#004858"/>
<stop offset="0.92" stop-color="#006F89"/>
<stop offset="1" stop-color="#008BAB"/>
</radialGradient>
<linearGradient id="paint20_linear_698_2164" x1="163.512" y1="36.1047" x2="175.219" y2="37.2887" gradientUnits="userSpaceOnUse">
<stop offset="0.02" stop-color="#54FFE8"/>
<stop offset="0.21" stop-color="#3EBBAA"/>
<stop offset="0.43" stop-color="#28796E"/>
<stop offset="0.62" stop-color="#17453F"/>
<stop offset="0.78" stop-color="#0A1F1D"/>
<stop offset="0.92" stop-color="#030808"/>
<stop offset="1"/>
</linearGradient>
<radialGradient id="paint21_radial_698_2164" cx="0" cy="0" r="1" gradientUnits="userSpaceOnUse" gradientTransform="translate(50.7435 42.4827) rotate(0.11524) scale(28.1666 28.1666)">
<stop offset="0.77"/>
<stop offset="0.79" stop-color="#000506"/>
<stop offset="0.8" stop-color="#001217"/>
<stop offset="0.82" stop-color="#002932"/>
<stop offset="0.84" stop-color="#004858"/>
<stop offset="0.86" stop-color="#006F89"/>
<stop offset="0.87" stop-color="#008BAB"/>
<stop offset="0.98" stop-color="#FF32FC"/>
</radialGradient>
<linearGradient id="paint22_linear_698_2164" x1="28.8165" y1="31.8664" x2="73.6963" y2="31.8664" gradientUnits="userSpaceOnUse">
<stop offset="0.02" stop-color="#54FFE8"/>
<stop offset="0.21" stop-color="#3EBBAA"/>
<stop offset="0.43" stop-color="#28796E"/>
<stop offset="0.62" stop-color="#17453F"/>
<stop offset="0.78" stop-color="#0A1F1D"/>
<stop offset="0.92" stop-color="#030808"/>
<stop offset="1"/>
</linearGradient>
<radialGradient id="paint23_radial_698_2164" cx="0" cy="0" r="1" gradientUnits="userSpaceOnUse" gradientTransform="translate(202.959 270.62) scale(13.0651 13.0651)">
<stop offset="0.77"/>
<stop offset="0.79" stop-color="#000506"/>
<stop offset="0.8" stop-color="#001217"/>
<stop offset="0.82" stop-color="#002932"/>
<stop offset="0.84" stop-color="#004858"/>
<stop offset="0.86" stop-color="#006F89"/>
<stop offset="0.87" stop-color="#008BAB"/>
<stop offset="0.98" stop-color="#FF32FC"/>
</radialGradient>
<linearGradient id="paint24_linear_698_2164" x1="192.593" y1="266.465" x2="213.49" y2="266.465" gradientUnits="userSpaceOnUse">
<stop offset="0.02" stop-color="#54FFE8"/>
<stop offset="0.21" stop-color="#3EBBAA"/>
<stop offset="0.43" stop-color="#28796E"/>
<stop offset="0.62" stop-color="#17453F"/>
<stop offset="0.78" stop-color="#0A1F1D"/>
<stop offset="0.92" stop-color="#030808"/>
<stop offset="1"/>
</linearGradient>
</defs>
</svg>
