<svg width="200" height="200" viewBox="0 0 200 200" fill="none" xmlns="http://www.w3.org/2000/svg">
<path style="mix-blend-mode:screen" d="M100 200C155.228 200 200 155.228 200 100C200 44.7715 155.228 0 100 0C44.7715 0 0 44.7715 0 100C0 155.228 44.7715 200 100 200Z" fill="url(#paint0_radial_359_1587)"/>
<path style="mix-blend-mode:screen" d="M100.024 185.188C147.072 185.188 185.211 147.049 185.211 100.002C185.211 52.9547 147.072 14.8154 100.024 14.8154C52.9772 14.8154 14.8379 52.9547 14.8379 100.002C14.8379 147.049 52.9772 185.188 100.024 185.188Z" fill="url(#paint1_radial_359_1587)"/>
<path style="mix-blend-mode:screen" opacity="0.92" fill-rule="evenodd" clip-rule="evenodd" d="M173.919 100.006C173.927 109.716 172.021 119.332 168.309 128.304C164.597 137.277 159.151 145.429 152.285 152.294C145.418 159.159 137.265 164.603 128.292 168.313C119.319 172.023 109.702 173.927 99.9923 173.916C96.7519 173.914 93.5149 173.706 90.301 173.293C87.4044 172.916 84.5334 172.364 81.704 171.639C68.3381 168.238 56.1921 161.161 46.6424 151.21C37.0928 141.26 30.5214 128.833 27.673 115.339C27.6605 115.32 27.6548 115.298 27.6569 115.276C26.6087 110.257 26.081 105.143 26.082 100.016C26.0804 80.412 33.8663 61.6101 47.7271 47.7463C61.5878 33.8825 80.3881 26.0925 99.9923 26.0898C101.607 26.0898 103.207 26.1363 104.798 26.2453C112.985 26.7675 121.027 28.6522 128.594 31.8218C129.89 32.367 131.152 32.9444 132.416 33.5542C137.758 36.1599 142.763 39.4083 147.318 43.2273C148.846 44.4912 150.328 45.8338 151.748 47.2209C152.263 47.7216 152.757 48.2304 153.262 48.7513C166.542 62.5059 173.95 80.8871 173.919 100.006Z" fill="url(#paint2_radial_359_1587)"/>
<path fill-rule="evenodd" clip-rule="evenodd" d="M168.879 100.006C168.887 109.054 167.11 118.015 163.65 126.375C160.191 134.736 155.117 142.332 148.718 148.729C142.319 155.127 134.722 160.199 126.361 163.657C117.999 167.114 109.038 168.889 99.99 168.879C96.971 168.877 93.9552 168.682 90.9609 168.297C88.2615 167.948 85.586 167.433 82.9494 166.757C70.4933 163.586 59.1743 156.99 50.2752 147.715C41.3761 138.441 35.2528 126.859 32.5991 114.283C32.5876 114.265 32.5826 114.245 32.585 114.224C31.6084 109.548 31.1165 104.783 31.1172 100.006C31.1156 81.738 38.3708 64.2173 51.2868 51.2982C64.2028 38.3792 81.7218 31.1199 99.99 31.1172C101.502 31.1172 102.986 31.1596 104.468 31.2626C112.097 31.7518 119.591 33.511 126.641 36.4676C127.852 36.9764 129.025 37.5134 130.203 38.0828C135.181 40.5114 139.844 43.538 144.089 47.0957C145.503 48.2728 146.896 49.5185 148.218 50.8188C148.697 51.2831 149.163 51.7637 149.632 52.2321C162.007 65.0533 168.91 82.1863 168.879 100.006Z" fill="url(#paint3_radial_359_1587)"/>
<path style="mix-blend-mode:multiply" opacity="0.4" fill-rule="evenodd" clip-rule="evenodd" d="M168.882 100.006C168.89 109.054 167.113 118.015 163.654 126.376C160.194 134.736 155.12 142.333 148.722 148.73C142.323 155.127 134.725 160.199 126.364 163.657C118.003 167.114 109.042 168.889 99.9935 168.879C96.9746 168.877 93.9588 168.683 90.9645 168.298C81.9755 167.121 73.311 164.165 65.4764 159.604C67.7599 159.022 69.999 158.237 72.2966 157.655C77.7782 156.242 83.0115 154.645 88.6385 154.021C90.8918 153.761 94.3968 152.874 94.4937 150.155C94.522 149.384 94.3625 149.18 94.843 148.76C95.3659 148.293 95.9918 148.511 96.646 148.356C98.245 148.007 99.5251 146.349 100.543 145.186C102.21 143.263 104.004 141.454 105.911 139.769C109.604 136.526 114.49 135.03 116.86 130.377C117.498 129.096 117.557 127.788 117.87 126.421C118.233 124.881 119.382 123.835 120.719 123.064C122.376 122.119 124.165 121.784 125.663 120.489C127.058 119.278 127.741 117.422 128.288 115.72C129.191 112.894 129.045 110.051 129.437 107.172C129.639 105.718 130.063 104.307 130.119 102.825C130.192 101.412 129.61 100.309 129.146 98.9888C128.361 96.7477 127.315 94.438 126.354 92.2716C125.983 91.472 125.448 90.7588 124.785 90.1778C123.824 89.2895 122.982 88.286 122.007 87.4138C121.324 86.8081 120.466 86.4043 119.798 85.7865C119.273 85.2918 118.837 84.6235 118.359 84.0986C117.47 83.1537 116.57 82.1805 115.435 81.5405C112.701 80.0282 111.088 77.2804 107.89 76.7271C103.993 76.0588 100.823 71.9017 96.6783 73.3695C94.0192 74.3144 91.4006 75.332 88.6022 76.0447C86.8133 76.495 84.7782 76.4485 83.0903 77.1208C82.0303 77.5428 80.8956 78.4433 80.1405 79.2872C78.9755 80.5653 78.5253 82.2956 77.5521 83.6928C76.8253 84.7386 76.3407 85.7562 75.7188 86.8768C74.4973 89.1158 74.6286 91.1793 74.6286 93.6808C74.6286 95.0033 74.4973 96.4146 74.6427 97.737C74.8042 99.3523 75.5876 100.499 76.5628 101.751C77.1443 102.492 77.5521 103.77 78.279 104.376C78.6565 104.68 79.0058 104.594 79.4116 104.767C80.1102 105.074 80.3585 105.351 80.9542 105.801C82.7571 107.152 84.5601 108.426 86.7851 108.926C87.9622 109.173 88.9939 109.363 90.0559 109.843C90.9836 110.245 91.9701 110.496 92.9774 110.584C95.2892 110.816 97.3102 110.017 99.0547 108.591C100.147 107.719 101.003 107.006 101.847 105.843C102.313 105.203 102.604 104.812 103.272 104.43C103.723 104.168 104.217 103.877 104.754 103.935C105.207 103.994 105.671 104.575 106.152 104.285C106.555 104.036 106.806 102.742 106.959 102.351C107.236 101.652 107.423 100.794 107.745 100.13C108.296 98.9525 109.226 99.2271 110.347 99.1988C111.13 99.1988 112.106 99.1261 112.614 98.4437C113.081 97.7895 112.964 96.35 112.614 95.6958C112.091 94.7348 110.725 93.804 109.967 93.0206C109.39 92.4081 108.874 91.7407 108.427 91.0278C107.541 89.6468 107.163 87.1594 105.271 86.7394C104.516 86.5638 103.513 86.7092 102.741 86.7092C101.841 86.7233 101.229 86.4911 100.373 86.3054C99.0486 85.9985 97.8433 85.5926 96.4602 85.5785C94.7461 85.5482 93.2924 86.0712 91.7216 86.7253C91.0513 87.0019 90.5001 86.8707 89.8883 87.0746C89.1191 87.3371 87.9844 88.8917 87.8693 89.6186C87.6088 91.1894 88.1903 92.7158 89.7026 93.3417C90.1972 93.5436 91.346 93.6324 91.7095 94.0402C92.188 94.5773 91.7822 95.2759 91.5338 95.8856C90.9281 97.4423 91.2431 99.3038 93.1773 99.5946C94.4856 99.7823 95.7657 98.9404 96.8559 98.4296C97.7867 97.9652 99.2788 97.8481 99.2788 96.6427C99.2061 97.2101 98.2471 96.992 97.7827 96.992C96.8216 96.992 96.2402 96.9759 95.485 96.3661C94.7299 95.7564 94.6774 95.2759 94.3948 94.4178C94.2464 94.025 94.0562 93.6493 93.8274 93.2972C93.6679 93.065 93.1591 92.746 93.0703 92.4896C92.5474 91.1086 96.7792 90.4544 97.5929 90.3676C99.3676 90.1657 100.589 91.4296 101.607 92.7662C102.057 93.3719 102.943 94.2199 102.901 94.9629C102.871 95.6595 102.295 96.8668 102.013 97.5351C101.722 98.2337 101.504 98.902 101.272 99.5542C100.981 100.398 100.545 100.564 99.8037 101.008C99.0627 101.452 98.5378 102.084 97.9139 102.637C97.2295 103.243 96.3714 103.306 95.4911 103.509C94.1828 103.828 93.0198 103.132 91.6974 103.219C90.6051 103.277 89.6602 103.901 88.584 103.974C86.3167 104.119 84.2956 103.845 83.5102 101.385C83.1609 100.34 83.4517 99.859 84.0917 99.1907C84.7762 98.478 84.544 97.838 84.1947 96.9961C83.7909 96.0209 83.3366 95.0901 83.1468 94.0443C82.957 92.9984 83.597 91.8052 83.7727 90.7432C83.9322 89.8568 83.4961 88.6212 83.7868 87.7772C84.0493 87.0362 85.5757 86.2791 86.1996 85.7703C87.0072 85.1162 88.1479 84.8396 89.0948 84.357C90.2578 83.7513 91.0715 83.935 92.2627 83.7311C93.2379 83.5575 93.7608 82.8003 94.633 82.4511C95.5941 82.0735 96.9165 82.2633 97.9482 82.2774C99.0971 82.3057 99.7088 82.6691 100.71 83.1638C101.671 83.6443 102.513 84.3853 103.634 84.5165C104.928 84.6619 106.259 84.4156 107.545 84.4721C108.831 84.5286 109.275 85.2151 110.25 85.8854C111.324 86.6264 112.051 87.0625 112.836 88.1689C113.214 88.6919 113.404 89.3319 113.781 89.8265C114.203 90.3919 114.508 90.6987 114.771 91.3812C115.134 92.3261 115.615 93.1397 115.861 94.1149C116.006 94.6964 116.21 95.1769 116.166 95.7867C116.093 96.5579 115.774 97.2121 115.762 98.0076C115.732 99.7803 115.092 101.091 114.308 102.674C113.525 104.256 112.869 105.874 112.142 107.459C111.647 108.535 111.536 110.671 110.091 110.947C109.336 111.093 108.593 110.947 107.87 111.339C107.147 111.731 107.014 112.605 106.416 113.156C105.849 113.679 105.138 113.504 104.381 113.504C103.271 113.484 102.169 113.702 101.15 114.144C99.8865 114.683 99.0284 115.961 97.7645 116.601C96.7078 117.132 95.5961 117.547 94.4493 117.836C93.6417 118.038 92.8643 117.836 92.0487 118.085C90.1891 118.638 88.6325 119.857 86.8295 120.528C85.4344 121.037 83.6596 121.37 82.1474 121.24C81.5235 121.182 81.0289 120.934 80.4333 120.746C79.5025 120.469 78.5273 120.469 77.5683 120.221C76.8158 120.017 76.0745 119.775 75.3473 119.494C74.6064 119.217 74.1359 118.666 73.4293 118.345C71.8141 117.576 70.2594 117.663 68.7855 116.47C66.9401 114.959 65.3249 113.257 63.32 111.963C62.4902 111.41 61.937 110.713 61.4 109.914C60.9194 109.201 60.3541 108.779 59.815 108.169C59.0074 107.253 58.4784 106.177 58.0262 105.072C57.2711 103.255 56.3686 101.626 55.7305 99.75C54.828 97.089 53.6651 94.6459 53.1563 91.8556C52.7525 89.5439 53.2573 87.5067 53.3461 85.2535C53.3602 84.7305 53.4329 84.0905 53.3299 83.5817C53.1704 82.7236 52.4295 82.1563 51.8762 81.5324C50.0733 79.4811 48.5025 77.4318 47.5152 74.8575C46.5057 72.2328 46.0171 69.0427 46.861 66.3231C47.6464 63.8518 49.1728 62.487 51.1938 60.9869C53.1563 59.519 55.3954 58.4146 57.5618 57.3082C58.5511 56.7994 59.4799 56.0968 60.5277 55.7092C61.5756 55.3215 62.8678 55.1277 63.9883 54.8228C64.9777 54.5603 65.7913 54.4594 66.6494 53.8476C67.5802 53.2057 68.4778 52.517 69.3387 51.7842C70.3483 50.8817 71.1417 49.9509 72.4642 49.6036C74.2813 49.1231 76.1873 48.5699 78.0326 48.1903C80.3161 47.7098 83.1226 48.3357 85.3899 48.584C87.6513 48.799 89.9227 48.8907 92.194 48.8586C94.1141 48.8586 95.9312 48.5537 97.8473 48.4811C98.5439 48.4528 99.2606 48.5537 99.9693 48.5113C101.118 48.4528 102.208 47.944 103.313 47.6674C105.437 47.1142 107.428 46.0825 109.507 45.398C111.122 44.861 112.663 44.9195 114.32 44.6429C116.065 44.3663 117.854 43.7707 119.626 43.698C121.183 43.6395 122.825 43.0438 124.222 43.8878C126.81 45.4869 128.462 48.2206 131.04 49.7753C133.76 51.4187 136.812 52.5817 139.734 53.7447C140.743 54.1363 141.872 53.672 142.789 54.0213C143.253 54.1949 143.734 54.9217 144.069 55.3154C144.547 54.9803 144.402 54.5078 144.416 53.993C144.46 53.2641 144.796 52.7129 144.82 51.9558C144.834 51.0694 144.921 50.0963 144.775 49.222C144.703 48.7859 144.107 47.7098 144.093 47.1001C145.506 48.2771 146.899 49.5229 148.222 50.8231C154.774 57.227 159.978 64.878 163.527 73.3251C167.075 81.7722 168.896 90.8443 168.882 100.006Z" fill="url(#paint4_radial_359_1587)"/>
<path style="mix-blend-mode:multiply" opacity="0.3" fill-rule="evenodd" clip-rule="evenodd" d="M54.0909 120.847C53.6904 122.35 53.4508 123.892 53.3761 125.446C53.7699 125.349 54.3695 126.272 54.8097 126.456C55.6173 126.813 56.4249 126.708 57.1719 127.247C57.8341 127.719 58.6397 128.66 59.4211 128.903C59.9198 129.056 60.6164 128.917 61.1453 128.917C62.2288 128.896 63.3116 128.989 64.3758 129.193C65.5064 129.421 67.0005 129.799 68.1554 129.688C68.9509 129.607 70.1744 129.181 70.7801 128.678C71.3858 128.176 71.6866 126.597 71.7311 125.791C71.8663 123.278 70.0149 120.911 68.1291 119.421C67.1519 118.646 66.0354 118.648 64.9492 118.087C63.7165 117.462 62.4184 116.977 61.0787 116.639C60.2408 116.411 59.0779 115.995 58.2056 116.021C57.3334 116.047 56.3724 116.578 55.5527 116.792C54.7329 117.006 53.893 117.142 53.3317 117.879C52.6998 118.692 52.9804 119.873 54.0909 120.847Z" fill="url(#paint5_linear_359_1587)"/>
<path style="mix-blend-mode:multiply" opacity="0.3" fill-rule="evenodd" clip-rule="evenodd" d="M73.5493 129.661C73.1132 130.178 69.0429 133.717 71.0518 135.112C71.4123 135.253 71.7829 135.366 72.1602 135.452C72.7801 135.607 72.8891 135.514 73.3999 135.183C74.365 134.561 74.4942 133.532 74.254 132.443C74.1543 132.069 74.0316 131.701 73.8865 131.341C73.7028 130.959 73.2808 130.844 73.1819 130.392L73.5493 129.661Z" fill="url(#paint6_linear_359_1587)"/>
<path style="mix-blend-mode:multiply" opacity="0.3" fill-rule="evenodd" clip-rule="evenodd" d="M97.0581 40.4047C97.8032 40.0373 100.141 38.6118 101.452 38.4806C101.876 38.4382 102.477 38.5735 102.933 38.5694C103.927 38.5694 104.791 38.3877 105.522 39.1933C106.073 39.799 106.344 40.429 105.926 41.1174C105.354 42.0846 103.864 42.7973 102.923 43.3384C100.729 44.6083 97.8133 45.8177 95.1845 45.5714C93.0968 45.3695 91.203 43.8088 89.4162 42.872C88.0715 42.1653 85.6265 40.8287 87.2599 39.2095C88.5944 37.887 90.6215 37.1602 92.4588 37.0915C93.2907 37.0612 95.3097 36.7685 95.9618 37.2631C96.6887 37.8143 95.8932 40.1544 97.4135 40.0353L97.0581 40.4047Z" fill="url(#paint7_linear_359_1587)"/>
<path style="mix-blend-mode:screen" fill-rule="evenodd" clip-rule="evenodd" d="M30.0639 85.964C31.1117 100.006 63.9834 77.2681 95.7991 67.167C133.151 55.3072 161.452 81.2092 165.586 79.7979C172.061 77.5891 145.473 26.2011 102.91 26.8613C54.9644 27.6043 28.378 63.3005 30.0639 85.964Z" fill="url(#paint8_linear_359_1587)"/>
<path style="mix-blend-mode:screen" fill-rule="evenodd" clip-rule="evenodd" d="M67.7188 163.292C67.7188 163.292 100.411 174.679 131.633 157.415C162.855 140.15 167.995 101.205 167.995 101.205C167.995 101.205 164.159 147.002 134.019 161.618C103.879 176.234 81.3088 171.74 67.7188 163.292Z" fill="url(#paint9_radial_359_1587)"/>
<path style="mix-blend-mode:screen" opacity="0.5" fill-rule="evenodd" clip-rule="evenodd" d="M26.8047 110.341L29.1185 121.042C29.1185 121.042 41.9574 128.559 71.7299 125.795C101.502 123.031 108.577 108.474 120.198 99.9937C131.82 91.5138 154.358 84.8511 160.236 78.2327C166.113 71.6144 161.118 58.4322 161.118 58.4322L158.857 55.3027C158.857 55.3027 163.03 66.5729 158.033 74.9276C153.036 83.2823 130.851 87.1265 118.729 97.7001C106.606 108.274 82.0329 116.497 61.0775 116.649C40.1221 116.8 26.8047 110.341 26.8047 110.341Z" fill="url(#paint10_linear_359_1587)"/>
<path style="mix-blend-mode:screen" opacity="0.5" fill-rule="evenodd" clip-rule="evenodd" d="M36.6875 138.186L41.408 145.067C41.408 145.067 62.8096 151.326 94.9503 145.067C127.091 138.808 151.323 120.677 162.62 110.34C173.916 100.003 172.513 85.5545 172.513 85.5545L171.503 81.2075C171.503 81.2075 169.484 96.2391 156.934 110.34C144.384 124.441 123.479 137.231 93.3876 142.515C63.2962 147.799 36.6875 138.186 36.6875 138.186Z" fill="url(#paint11_linear_359_1587)"/>
<path style="mix-blend-mode:screen" opacity="0.5" fill-rule="evenodd" clip-rule="evenodd" d="M31.1172 73.1629C31.1172 73.1629 73.1128 87.4858 105.558 81.2087C138.004 74.9316 146.698 53.9519 147.314 43.2269L141.362 38.7427C141.362 38.7427 141.497 60.2775 120.939 73.2679C100.382 86.2583 47.766 78.5456 33.6591 67.3663L31.1172 73.1629Z" fill="url(#paint12_linear_359_1587)"/>
<path fill-rule="evenodd" clip-rule="evenodd" d="M35.7186 98.5261C36.189 101.114 42.0361 97.4964 46.4194 88.7278C50.8027 79.9592 51.6366 61.8869 49.3571 60.3101C47.0776 58.7332 32.472 80.6113 35.7186 98.5261Z" fill="white"/>
<path fill-rule="evenodd" clip-rule="evenodd" d="M115.859 166.454C114.944 167.482 118.318 168.723 123.329 167.7C128.34 166.676 136.063 161.2 135.984 159.757C135.906 158.313 122.186 159.341 115.859 166.454Z" fill="white"/>
<path fill-rule="evenodd" clip-rule="evenodd" d="M36.1231 102.298C33.0945 102.865 33.1632 108.779 35.1014 111.316C37.0397 113.854 39.4989 112.649 39.6523 107.462C39.7432 104.268 38.6266 101.829 36.1231 102.298Z" fill="white"/>
<path fill-rule="evenodd" clip-rule="evenodd" d="M156.051 145.319C156.051 145.319 168.722 128.927 171.478 108.403C171.484 108.403 172.926 127.955 156.051 145.319Z" fill="#FF9AFF"/>
<path style="mix-blend-mode:screen" opacity="0.92" fill-rule="evenodd" clip-rule="evenodd" d="M120.943 29.1106C120.943 29.1106 140.136 13.5803 156.054 24.6102C173.914 36.9807 165.178 65.1218 165.178 65.1218C165.178 65.1218 128.299 45.7332 120.943 29.1106Z" fill="url(#paint13_radial_359_1587)"/>
<path style="mix-blend-mode:screen" opacity="0.92" fill-rule="evenodd" clip-rule="evenodd" d="M50.5859 154.96C50.5859 154.96 52.9966 176.679 69.3245 184.575C84.5559 191.942 98.2267 173.894 98.2267 173.894C98.2267 173.894 94.9498 145.067 50.5859 154.96Z" fill="url(#paint14_radial_359_1587)"/>
<path style="mix-blend-mode:screen" fill-rule="evenodd" clip-rule="evenodd" d="M124.605 28.4664C127.674 32.4014 137.646 33.4251 149.95 34.7112C162.254 35.9973 163.96 39.4862 163.96 39.4862C163.96 39.4862 160.051 24.9775 148.115 22.589C136.178 20.2005 124.605 28.4664 124.605 28.4664Z" fill="url(#paint15_linear_359_1587)"/>
<path style="mix-blend-mode:screen" fill-rule="evenodd" clip-rule="evenodd" d="M51.9414 156.47C51.9414 156.47 53.8978 169.699 59.224 172.087C64.5502 174.476 67.718 162.261 80.8962 161.992C88.2494 161.837 96.3235 170.44 96.3235 170.44C96.3235 170.44 88.415 146.92 51.9414 156.47Z" fill="url(#paint16_linear_359_1587)"/>
<path fill-rule="evenodd" clip-rule="evenodd" d="M72.4297 183.84C72.4297 183.84 80.9944 185.112 89.2178 179.983C89.2239 179.983 83.817 189.291 72.4297 183.84Z" fill="#FF9AFF"/>
<path fill-rule="evenodd" clip-rule="evenodd" d="M163.098 60.2313C163.098 60.2313 166.001 52.9628 165.01 43.4351C165.01 43.4351 170.138 53.7947 163.098 60.2313Z" fill="#FF9AFF"/>
<path fill-rule="evenodd" clip-rule="evenodd" d="M125.223 28.0523C123.878 29.2395 134.064 29.0073 137.279 26.855C140.493 24.7027 141.787 23.4671 140.951 22.1567C140.115 20.8464 130.067 23.7821 125.223 28.0523Z" fill="white"/>
<path fill-rule="evenodd" clip-rule="evenodd" d="M142.137 22.2803C142.011 21.4828 145.106 21.6988 145.048 22.4661C144.989 23.2333 142.373 23.7724 142.137 22.2803Z" fill="white"/>
<path fill-rule="evenodd" clip-rule="evenodd" d="M53.1877 159.218C51.1687 158.624 54.1266 168.225 58.421 171.445C58.421 171.445 59.0469 160.948 53.1877 159.218Z" fill="white"/>
<path style="mix-blend-mode:screen" opacity="0.92" fill-rule="evenodd" clip-rule="evenodd" d="M164.045 66.0563C164.045 66.0563 173.397 60.5625 178.221 67.0416C185.073 76.2483 172.971 85.883 172.971 85.883C172.971 85.883 162.945 79.614 164.045 66.0563Z" fill="url(#paint17_radial_359_1587)"/>
<path style="mix-blend-mode:screen" fill-rule="evenodd" clip-rule="evenodd" d="M164.879 66.1165C161.18 67.2229 171.858 69.4216 175.531 71.2589C179.204 73.0963 178.836 75.297 178.836 75.297C178.836 75.297 180.857 61.3415 164.879 66.1165Z" fill="url(#paint18_linear_359_1587)"/>
<path fill-rule="evenodd" clip-rule="evenodd" d="M172.141 83.8417C172.141 83.8417 175.43 82.3052 177.82 77.0073C177.82 76.9972 178.721 82.6747 172.141 83.8417Z" fill="#FF9AFF"/>
<path fill-rule="evenodd" clip-rule="evenodd" d="M166.348 66.3128C165.363 67.5828 170.992 67.3869 171.48 66.0665C171.969 64.7461 167.539 64.7885 166.348 66.3128Z" fill="white"/>
<path fill-rule="evenodd" clip-rule="evenodd" d="M163.959 69.2666C163.959 69.2666 164.052 77.9242 169.287 82.794C169.287 82.8001 164.763 74.51 163.959 69.2666Z" fill="white"/>
<path fill-rule="evenodd" clip-rule="evenodd" d="M170.279 83.8418C170.279 83.8418 171.503 85.6952 172.5 85.566C172.506 85.5559 171.242 83.5349 170.279 83.8418Z" fill="white"/>
<path style="mix-blend-mode:screen" opacity="0.92" fill-rule="evenodd" clip-rule="evenodd" d="M108.643 26.855C108.643 26.855 111.229 22.2112 115.029 22.1688C120.426 22.1083 120.747 29.3747 120.747 29.3747C120.747 29.3747 115.009 31.5896 108.643 26.855Z" fill="url(#paint19_radial_359_1587)"/>
<path style="mix-blend-mode:screen" fill-rule="evenodd" clip-rule="evenodd" d="M110.371 25.5349C109.305 27.0047 113.922 24.7737 115.822 24.4103C117.722 24.0469 118.213 24.9736 118.213 24.9736C118.213 24.9736 114.972 19.183 110.371 25.5349Z" fill="url(#paint20_linear_359_1587)"/>
<path fill-rule="evenodd" clip-rule="evenodd" d="M119.737 29.1263C119.737 29.1263 120.062 27.4505 118.707 25.0762C118.701 25.0742 121.124 26.2997 119.737 29.1263Z" fill="#FF9AFF"/>
<path fill-rule="evenodd" clip-rule="evenodd" d="M110.975 25.1871C110.975 25.9422 113.014 24.2624 112.822 23.6264C112.63 22.9904 110.983 24.2805 110.975 25.1871Z" fill="white"/>
<path fill-rule="evenodd" clip-rule="evenodd" d="M110.924 28.2866C110.924 28.2866 115.253 30.5701 118.556 29.9261C118.556 29.9341 113.141 29.4314 110.924 28.2866Z" fill="white"/>
<path fill-rule="evenodd" clip-rule="evenodd" d="M119.221 29.8333C119.221 29.8333 120.265 29.8818 120.493 29.4638C120.493 29.4638 119.374 29.3851 119.221 29.8333Z" fill="white"/>
<path fill-rule="evenodd" clip-rule="evenodd" d="M123.363 33.3115C123.363 33.3115 126.273 33.9758 127.131 38.0158C127.131 38.0098 124.151 37.1477 123.363 33.3115Z" fill="white"/>
<path fill-rule="evenodd" clip-rule="evenodd" d="M50.5859 154.96C50.5859 154.96 54.3252 153.716 60.6306 152.892C66.936 152.069 70.4975 152.892 70.4975 152.892C70.4975 152.892 56.639 153.995 50.5859 154.96Z" fill="white"/>
<path fill-rule="evenodd" clip-rule="evenodd" d="M85.1836 156.619C85.1836 156.619 93.0739 162.761 95.8036 166.934C95.8056 166.934 94.988 161.537 85.1836 156.619Z" fill="white"/>
<path fill-rule="evenodd" clip-rule="evenodd" d="M69.7461 34.5496C69.7461 34.5496 71.8903 31.8986 76.2695 30.7316C79.8089 29.7867 81.7976 29.9422 82.4922 29.8594C82.4922 29.8594 75.0077 35.0482 69.7461 34.5496Z" fill="white"/>
<path fill-rule="evenodd" clip-rule="evenodd" d="M72.4297 153.117C72.4297 153.117 74.9151 152.023 75.8015 153.569C75.8015 153.569 73.098 154.439 72.4297 153.117Z" fill="white"/>
<path fill-rule="evenodd" clip-rule="evenodd" d="M90.498 179.342C90.498 179.342 90.5203 177.347 93.7991 176.313C93.7991 176.313 94.0838 178.938 90.498 179.342Z" fill="#FF9AFF"/>
<path style="mix-blend-mode:screen" opacity="0.92" d="M45.0625 43.1374C53.151 37.8645 55.4336 27.033 50.1607 18.9445C44.8879 10.8559 34.0564 8.57338 25.9678 13.8462C17.8793 19.1191 15.5967 29.9506 20.8696 38.0391C26.1424 46.1277 36.974 48.4102 45.0625 43.1374Z" fill="url(#paint21_radial_359_1587)"/>
<path style="mix-blend-mode:screen" fill-rule="evenodd" clip-rule="evenodd" d="M19.3335 28.7628C19.3335 28.7628 22.2812 33.77 31.5526 27.0991C40.8239 20.4283 45.0921 16.8486 49.1322 18.593C49.1322 18.593 40.2242 8.21727 28.6997 13.3436C17.4356 18.3386 19.3335 28.7628 19.3335 28.7628Z" fill="url(#paint22_linear_359_1587)"/>
<path fill-rule="evenodd" clip-rule="evenodd" d="M41.6445 43.4352C41.6445 43.4352 49.6338 39.599 51.2874 31.1191C51.2874 31.1171 52.9409 40.8185 41.6445 43.4352Z" fill="#FF9AFF"/>
<path fill-rule="evenodd" clip-rule="evenodd" d="M19.3066 25.0741C19.3066 25.0741 20.3444 16.9859 28.3781 14.1855C28.3781 14.1855 24.9276 25.1731 19.3066 25.0741Z" fill="white"/>
<path fill-rule="evenodd" clip-rule="evenodd" d="M28.7102 13.798C27.8662 13.368 31.3935 12.1243 33.3539 12.2212C33.362 12.2212 29.8832 14.3977 28.7102 13.798Z" fill="white"/>
<path fill-rule="evenodd" clip-rule="evenodd" d="M33.3809 44.8101C33.3809 44.8101 37.5138 41.5049 41.6447 43.4351C41.6447 43.4351 39.0281 45.9771 33.3809 44.8101Z" fill="white"/>
<path style="mix-blend-mode:screen" opacity="0.92" fill-rule="evenodd" clip-rule="evenodd" d="M144.127 181.018C144.128 182.628 143.652 184.203 142.758 185.543C141.864 186.883 140.592 187.928 139.104 188.545C137.616 189.162 135.979 189.324 134.399 189.01C132.819 188.697 131.367 187.922 130.228 186.783C129.089 185.644 128.313 184.193 127.998 182.613C127.684 181.033 127.845 179.396 128.462 177.907C129.078 176.419 130.122 175.147 131.461 174.253C132.801 173.358 134.376 172.88 135.987 172.881C138.145 172.881 140.214 173.739 141.741 175.264C143.267 176.79 144.126 178.859 144.127 181.018Z" fill="url(#paint23_radial_359_1587)"/>
<path style="mix-blend-mode:screen" fill-rule="evenodd" clip-rule="evenodd" d="M128.453 181.145C128.453 181.145 129.824 183.475 134.143 180.369C138.461 177.264 140.448 175.596 142.328 176.408C142.328 176.408 138.181 171.577 132.814 173.959C127.567 176.289 128.453 181.145 128.453 181.145Z" fill="url(#paint24_linear_359_1587)"/>
<path fill-rule="evenodd" clip-rule="evenodd" d="M138.842 187.977C138.842 187.977 142.563 186.19 143.332 182.241C143.332 182.241 144.101 186.757 138.842 187.977Z" fill="#FF9AFF"/>
<path fill-rule="evenodd" clip-rule="evenodd" d="M128.438 179.427C128.438 179.427 128.92 175.659 132.663 174.355C132.663 174.355 131.056 179.473 128.438 179.427Z" fill="white"/>
<path fill-rule="evenodd" clip-rule="evenodd" d="M132.815 174.175C132.424 173.973 134.065 173.396 134.982 173.44C134.982 173.44 133.362 174.453 132.815 174.175Z" fill="white"/>
<path fill-rule="evenodd" clip-rule="evenodd" d="M134.994 188.617C134.994 188.617 136.918 187.076 138.842 187.977C138.842 187.977 137.625 189.16 134.994 188.617Z" fill="white"/>
<defs>
<radialGradient id="paint0_radial_359_1587" cx="0" cy="0" r="1" gradientUnits="userSpaceOnUse" gradientTransform="translate(100 100) scale(100)">
<stop offset="0.01" stop-color="#009BFF"/>
<stop offset="1" stop-opacity="0"/>
</radialGradient>
<radialGradient id="paint1_radial_359_1587" cx="0" cy="0" r="1" gradientUnits="userSpaceOnUse" gradientTransform="translate(100.024 100.003) rotate(45) scale(85.1865)">
<stop offset="0.01" stop-color="#0092FF"/>
<stop offset="0.432292" stop-color="#0090FB" stop-opacity="0.87"/>
<stop offset="0.864583" stop-color="#0089EF" stop-opacity="0.53"/>
<stop offset="0.9995" stop-color="#007DDB" stop-opacity="0"/>
<stop offset="0.9996" stop-color="#006DBF" stop-opacity="0"/>
<stop offset="0.9997" stop-color="#00599B" stop-opacity="0"/>
<stop offset="0.9998" stop-color="#003F6E" stop-opacity="0.23"/>
<stop offset="0.9999" stop-color="#00223B" stop-opacity="0"/>
<stop offset="1" stop-opacity="0"/>
</radialGradient>
<radialGradient id="paint2_radial_359_1587" cx="0" cy="0" r="1" gradientUnits="userSpaceOnUse" gradientTransform="translate(100 99.9981) scale(73.9183 73.9183)">
<stop offset="0.89"/>
<stop offset="0.9" stop-color="#000506"/>
<stop offset="0.92" stop-color="#001217"/>
<stop offset="0.94" stop-color="#002932"/>
<stop offset="0.96" stop-color="#004858"/>
<stop offset="0.99" stop-color="#006F89"/>
<stop offset="1" stop-color="#008BAB"/>
</radialGradient>
<radialGradient id="paint3_radial_359_1587" cx="0" cy="0" r="1" gradientUnits="userSpaceOnUse" gradientTransform="translate(80.4782 80.456) scale(101.04 101.04)">
<stop offset="0.01" stop-color="#00CEC0"/>
<stop offset="0.26" stop-color="#00CCC0"/>
<stop offset="0.38" stop-color="#00C4C1"/>
<stop offset="0.48" stop-color="#00B7C2"/>
<stop offset="0.56" stop-color="#00A4C4"/>
<stop offset="0.64" stop-color="#008CC6"/>
<stop offset="0.71" stop-color="#006EC8"/>
<stop offset="0.72" stop-color="#0068C9"/>
<stop offset="0.74" stop-color="#0767CB"/>
<stop offset="0.78" stop-color="#1A66CF"/>
<stop offset="0.83" stop-color="#3A63D6"/>
<stop offset="0.88" stop-color="#6660E0"/>
<stop offset="0.93" stop-color="#9E5BEC"/>
<stop offset="0.99" stop-color="#E255FC"/>
<stop offset="1" stop-color="#F154FF"/>
</radialGradient>
<radialGradient id="paint4_radial_359_1587" cx="0" cy="0" r="1" gradientUnits="userSpaceOnUse" gradientTransform="translate(107.668 106.158) scale(61.9738 61.9738)">
<stop stop-color="#1372B3"/>
<stop offset="1" stop-color="white"/>
</radialGradient>
<linearGradient id="paint5_linear_359_1587" x1="52.9966" y1="122.876" x2="71.7351" y2="122.876" gradientUnits="userSpaceOnUse">
<stop stop-color="#B8C2FF"/>
<stop offset="1" stop-color="#7D72B3"/>
</linearGradient>
<linearGradient id="paint6_linear_359_1587" x1="70.4986" y1="132.595" x2="74.359" y2="132.595" gradientUnits="userSpaceOnUse">
<stop stop-color="#B8C2FF"/>
<stop offset="1" stop-color="#7D72B3"/>
</linearGradient>
<linearGradient id="paint7_linear_359_1587" x1="86.7268" y1="41.2931" x2="106.132" y2="41.2931" gradientUnits="userSpaceOnUse">
<stop stop-color="#B8C2FF"/>
<stop offset="1" stop-color="#7D72B3"/>
</linearGradient>
<linearGradient id="paint8_linear_359_1587" x1="56.6664" y1="38.4048" x2="134.53" y2="112.595" gradientUnits="userSpaceOnUse">
<stop offset="0.02" stop-color="#B3FFE8"/>
<stop offset="0.21" stop-color="#83BBAA"/>
<stop offset="0.43" stop-color="#55796E"/>
<stop offset="0.62" stop-color="#30453F"/>
<stop offset="0.78" stop-color="#161F1D"/>
<stop offset="0.92" stop-color="#060808"/>
<stop offset="1"/>
</linearGradient>
<radialGradient id="paint9_radial_359_1587" cx="0" cy="0" r="1" gradientUnits="userSpaceOnUse" gradientTransform="translate(130.714 158.053) scale(43.4493 43.4493)">
<stop stop-color="#97E5D9"/>
<stop offset="0.36" stop-color="#61938C"/>
<stop offset="1"/>
</radialGradient>
<linearGradient id="paint10_linear_359_1587" x1="94.9506" y1="126.415" x2="94.9506" y2="55.3068" gradientUnits="userSpaceOnUse">
<stop stop-color="#BDFFE8"/>
<stop offset="0.2" stop-color="#8BBBAA"/>
<stop offset="0.42" stop-color="#5A796E"/>
<stop offset="0.61" stop-color="#33453F"/>
<stop offset="0.78" stop-color="#171F1D"/>
<stop offset="0.91" stop-color="#060808"/>
<stop offset="1"/>
</linearGradient>
<linearGradient id="paint11_linear_359_1587" x1="104.625" y1="147.853" x2="104.625" y2="81.2095" gradientUnits="userSpaceOnUse">
<stop stop-color="#BDFFE8"/>
<stop offset="0.2" stop-color="#8BBBAA"/>
<stop offset="0.42" stop-color="#5A796E"/>
<stop offset="0.61" stop-color="#33453F"/>
<stop offset="0.78" stop-color="#171F1D"/>
<stop offset="0.91" stop-color="#060808"/>
<stop offset="1"/>
</linearGradient>
<linearGradient id="paint12_linear_359_1587" x1="89.2145" y1="82.7997" x2="89.2145" y2="38.7427" gradientUnits="userSpaceOnUse">
<stop stop-color="#BDFFE8"/>
<stop offset="0.2" stop-color="#8BBBAA"/>
<stop offset="0.42" stop-color="#5A796E"/>
<stop offset="0.61" stop-color="#33453F"/>
<stop offset="0.78" stop-color="#171F1D"/>
<stop offset="0.91" stop-color="#060808"/>
<stop offset="1"/>
</linearGradient>
<radialGradient id="paint13_radial_359_1587" cx="0" cy="0" r="1" gradientUnits="userSpaceOnUse" gradientTransform="translate(144.132 42.8864) scale(22.716 22.716)">
<stop stop-color="#581157" stop-opacity="0"/>
<stop offset="0.776042" stop-color="#8A1B88" stop-opacity="0.49"/>
<stop offset="0.875" stop-color="#EE38F7" stop-opacity="0.78"/>
<stop offset="0.895833" stop-color="#FF32FC" stop-opacity="0.86"/>
<stop offset="0.927083" stop-color="#D93FF0" stop-opacity="0.84"/>
<stop offset="0.958333" stop-color="#6867CC" stop-opacity="0.87"/>
<stop offset="0.99" stop-color="#327ABB"/>
<stop offset="0.9901" stop-color="#008BAB"/>
</radialGradient>
<radialGradient id="paint14_radial_359_1587" cx="0" cy="0" r="1" gradientUnits="userSpaceOnUse" gradientTransform="translate(75.5471 164.068) scale(21.5995 21.5995)">
<stop stop-color="#8A1B88" stop-opacity="0"/>
<stop offset="0.791667" stop-color="#C527C2" stop-opacity="0.36"/>
<stop offset="0.822917" stop-color="#EE38F7" stop-opacity="0.42"/>
<stop offset="0.854167" stop-color="#BC49E7" stop-opacity="0.62"/>
<stop offset="0.895833" stop-color="#9657DB"/>
<stop offset="0.932292" stop-color="#6867CC"/>
<stop offset="0.963542" stop-color="#327ABB"/>
<stop offset="1" stop-color="#008BAB"/>
</radialGradient>
<linearGradient id="paint15_linear_359_1587" x1="132.494" y1="20.142" x2="158.733" y2="45.0042" gradientUnits="userSpaceOnUse">
<stop offset="0.02" stop-color="#54FFE8"/>
<stop offset="0.21" stop-color="#3EBBAA" stop-opacity="0.64"/>
<stop offset="0.43" stop-color="#28796E" stop-opacity="0.37"/>
<stop offset="0.9997" stop-color="#17453F" stop-opacity="0"/>
<stop offset="0.9998" stop-color="#0A1F1D"/>
<stop offset="0.9999" stop-color="#030808"/>
<stop offset="1"/>
</linearGradient>
<linearGradient id="paint16_linear_359_1587" x1="57.3867" y1="150.726" x2="87.7426" y2="179.489" gradientUnits="userSpaceOnUse">
<stop offset="0.02" stop-color="#54FFE8"/>
<stop offset="0.21" stop-color="#3EBBAA" stop-opacity="0.65"/>
<stop offset="0.43" stop-color="#28796E" stop-opacity="0.45"/>
<stop offset="0.9997" stop-color="#17453F" stop-opacity="0"/>
<stop offset="0.9998" stop-color="#0A1F1D"/>
<stop offset="0.9999" stop-color="#030808"/>
<stop offset="1" stop-color="#050F0E"/>
</linearGradient>
<radialGradient id="paint17_radial_359_1587" cx="0" cy="0" r="1" gradientUnits="userSpaceOnUse" gradientTransform="translate(173.304 75.4546) rotate(-11.7125) scale(8.57743 10.2653)">
<stop stop-color="#581157" stop-opacity="0"/>
<stop offset="0.682292" stop-color="#721671" stop-opacity="0.24"/>
<stop offset="0.739583" stop-color="#8A1B88" stop-opacity="0.46"/>
<stop offset="0.786458" stop-color="#C527C2" stop-opacity="0.5"/>
<stop offset="0.848958" stop-color="#FF32FC" stop-opacity="0.37"/>
<stop offset="0.895833" stop-color="#9657DB" stop-opacity="0.63"/>
<stop offset="0.958333" stop-color="#327ABB" stop-opacity="0.67"/>
<stop offset="1" stop-color="#008BAB"/>
</radialGradient>
<linearGradient id="paint18_linear_359_1587" x1="166.839" y1="63.6694" x2="178.967" y2="75.1597" gradientUnits="userSpaceOnUse">
<stop offset="0.02" stop-color="#54FFE8"/>
<stop offset="0.21" stop-color="#3EBBAA" stop-opacity="0.7"/>
<stop offset="0.43" stop-color="#28796E" stop-opacity="0.56"/>
<stop offset="1" stop-color="#17453F" stop-opacity="0"/>
</linearGradient>
<radialGradient id="paint19_radial_359_1587" cx="0" cy="0" r="1" gradientUnits="userSpaceOnUse" gradientTransform="translate(116.77 26.878) rotate(-65.8977) scale(4.44626 5.33013)">
<stop stop-color="#001217" stop-opacity="0"/>
<stop offset="0.69" stop-color="#002932" stop-opacity="0.33"/>
<stop offset="0.8" stop-color="#004858" stop-opacity="0.39"/>
<stop offset="0.92" stop-color="#006F89" stop-opacity="0.8"/>
<stop offset="1" stop-color="#008BAB"/>
</radialGradient>
<linearGradient id="paint20_linear_359_1587" x1="109.009" y1="24.0682" x2="116.814" y2="24.8575" gradientUnits="userSpaceOnUse">
<stop offset="0.02" stop-color="#54FFE8"/>
<stop offset="0.21" stop-color="#3EBBAA" stop-opacity="0.86"/>
<stop offset="0.43" stop-color="#28796E" stop-opacity="0.74"/>
<stop offset="0.62" stop-color="#17453F" stop-opacity="0.67"/>
<stop offset="1" stop-color="#0A1F1D" stop-opacity="0"/>
</linearGradient>
<radialGradient id="paint21_radial_359_1587" cx="0" cy="0" r="1" gradientUnits="userSpaceOnUse" gradientTransform="translate(33.8296 28.322) rotate(0.115241) scale(18.7778 18.7778)">
<stop stop-color="#004858" stop-opacity="0"/>
<stop offset="0.713542" stop-color="#006F89" stop-opacity="0.35"/>
<stop offset="0.848958" stop-color="#008BAB" stop-opacity="0.65"/>
<stop offset="0.98" stop-color="#FF32FC"/>
</radialGradient>
<linearGradient id="paint22_linear_359_1587" x1="19.2123" y1="21.242" x2="49.1322" y2="21.242" gradientUnits="userSpaceOnUse">
<stop offset="0.02" stop-color="#54FFE8"/>
<stop offset="0.21" stop-color="#3EBBAA" stop-opacity="0.61"/>
<stop offset="0.43" stop-color="#28796E" stop-opacity="0.46"/>
<stop offset="0.9997" stop-color="#17453F" stop-opacity="0"/>
<stop offset="0.9998" stop-color="#0A1F1D" stop-opacity="0"/>
<stop offset="0.9999" stop-color="#030808" stop-opacity="0"/>
<stop offset="1" stop-opacity="0"/>
</linearGradient>
<radialGradient id="paint23_radial_359_1587" cx="0" cy="0" r="1" gradientUnits="userSpaceOnUse" gradientTransform="translate(135.306 180.412) scale(8.71005 8.71004)">
<stop stop-opacity="0"/>
<stop offset="0.0001" stop-color="#001217"/>
<stop offset="0.0002" stop-color="#000506"/>
<stop offset="0.0003" stop-color="#002932" stop-opacity="0"/>
<stop offset="0.625" stop-color="#004858" stop-opacity="0.47"/>
<stop offset="0.755208" stop-color="#006F89" stop-opacity="0.62"/>
<stop offset="0.87" stop-color="#008BAB" stop-opacity="0.83"/>
<stop offset="0.98" stop-color="#FF32FC"/>
</radialGradient>
<linearGradient id="paint24_linear_359_1587" x1="128.396" y1="177.642" x2="142.328" y2="177.642" gradientUnits="userSpaceOnUse">
<stop offset="0.02" stop-color="#54FFE8"/>
<stop offset="0.21" stop-color="#3EBBAA"/>
<stop offset="0.43" stop-color="#28796E"/>
<stop offset="0.62" stop-color="#17453F"/>
<stop offset="0.78" stop-color="#0A1F1D"/>
<stop offset="0.92" stop-color="#030808"/>
<stop offset="1"/>
</linearGradient>
</defs>
</svg>
