<svg width="200" height="200" viewBox="0 0 200 200" fill="none" xmlns="http://www.w3.org/2000/svg">
<path style="mix-blend-mode:screen" d="M100 192C150.81 192 192 150.81 192 100C192 49.1898 150.81 8 100 8C49.1898 8 8 49.1898 8 100C8 150.81 49.1898 192 100 192Z" fill="url(#paint0_radial_393_679)"/>
<path style="mix-blend-mode:screen" d="M100.022 178.373C143.305 178.373 178.393 143.285 178.393 100.001C178.393 56.718 143.305 21.6299 100.022 21.6299C56.7385 21.6299 21.6504 56.718 21.6504 100.001C21.6504 143.285 56.7385 178.373 100.022 178.373Z" fill="url(#paint1_radial_393_679)"/>
<path style="mix-blend-mode:screen" opacity="0.92" fill-rule="evenodd" clip-rule="evenodd" d="M168.004 100.006C168.012 108.939 166.258 117.786 162.843 126.04C159.428 134.295 154.418 141.795 148.101 148.111C141.783 154.427 134.282 159.435 126.027 162.848C117.772 166.262 108.925 168.013 99.9916 168.003C97.0104 168.001 94.0324 167.81 91.0756 167.429C88.4107 167.083 85.7694 166.575 83.1663 165.908C70.8697 162.779 59.6954 156.269 50.9097 147.114C42.124 137.959 36.0784 126.527 33.4579 114.112C33.4463 114.095 33.4411 114.075 33.443 114.054C32.4787 109.437 31.9932 104.732 31.9941 100.015C31.9927 81.9794 39.1557 64.6816 51.9076 51.9269C64.6595 39.1722 81.9557 32.0054 99.9916 32.0029C101.478 32.0029 102.949 32.0457 104.412 32.146C111.944 32.6264 119.344 34.3603 126.305 37.2764C127.497 37.7779 128.658 38.3092 129.821 38.8701C134.736 41.2674 139.341 44.2559 143.531 47.7694C144.937 48.9322 146.301 50.1674 147.607 51.4435C148.08 51.9042 148.535 52.3722 149 52.8515C161.217 65.5057 168.032 82.4165 168.004 100.006Z" fill="url(#paint2_radial_393_679)"/>
<path fill-rule="evenodd" clip-rule="evenodd" d="M163.368 100.005C163.375 108.329 161.74 116.573 158.558 124.265C155.375 131.957 150.706 138.945 144.82 144.831C138.933 150.716 131.943 155.383 124.251 158.564C116.558 161.745 108.314 163.377 99.9899 163.368C97.2125 163.366 94.438 163.187 91.6832 162.833C89.1997 162.512 86.7383 162.038 84.3126 161.416C72.853 158.499 62.4395 152.43 54.2523 143.898C46.0652 135.365 40.4317 124.71 37.9904 113.14C37.9797 113.124 37.9751 113.105 37.9774 113.086C37.0789 108.784 36.6264 104.4 36.627 100.005C36.6255 83.1986 43.3002 67.0795 55.183 55.194C67.0658 43.3085 83.1832 36.6299 99.9899 36.6274C101.381 36.6274 102.746 36.6664 104.11 36.7612C111.129 37.2113 118.023 38.8297 124.509 41.5498C125.623 42.0179 126.703 42.512 127.785 43.0358C132.365 45.2701 136.656 48.0546 140.561 51.3277C141.862 52.4106 143.143 53.5567 144.36 54.7529C144.8 55.1801 145.229 55.6222 145.66 56.0531C157.046 67.8487 163.396 83.611 163.368 100.005Z" fill="url(#paint3_radial_393_679)"/>
<path style="mix-blend-mode:multiply" opacity="0.4" fill-rule="evenodd" clip-rule="evenodd" d="M163.371 100.006C163.378 108.33 161.744 116.574 158.561 124.266C155.378 131.957 150.71 138.946 144.823 144.831C138.937 150.717 131.947 155.384 124.254 158.564C116.562 161.745 108.318 163.378 99.9936 163.369C97.2161 163.367 94.4416 163.188 91.6868 162.834C83.417 161.751 75.4457 159.032 68.2378 154.836C70.3386 154.301 72.3986 153.578 74.5124 153.043C79.5555 151.743 84.3701 150.274 89.547 149.7C91.62 149.46 94.8446 148.645 94.9337 146.142C94.9597 145.433 94.813 145.245 95.2551 144.859C95.7362 144.43 96.312 144.631 96.9138 144.487C98.385 144.166 99.5626 142.641 100.499 141.571C102.033 139.802 103.683 138.137 105.438 136.588C108.835 133.604 113.33 132.228 115.511 127.946C116.098 126.769 116.152 125.565 116.44 124.308C116.774 122.89 117.831 121.928 119.061 121.219C120.586 120.349 122.232 120.041 123.61 118.85C124.893 117.736 125.521 116.029 126.025 114.463C126.855 111.862 126.721 109.247 127.081 106.598C127.267 105.261 127.657 103.962 127.709 102.599C127.776 101.299 127.241 100.285 126.814 99.0698C126.091 97.008 125.129 94.883 124.245 92.8899C123.903 92.1543 123.412 91.4982 122.802 90.9637C121.918 90.1464 121.143 89.2232 120.246 88.4208C119.618 87.8635 118.829 87.492 118.214 86.9236C117.731 86.4685 117.33 85.8537 116.889 85.3708C116.072 84.5014 115.244 83.6061 114.2 83.0173C111.685 81.626 110.201 79.098 107.258 78.589C103.673 77.9742 100.757 74.1496 96.9435 75.5C94.4972 76.3693 92.088 77.3055 89.5136 77.9612C87.8678 78.3754 85.9955 78.3327 84.4426 78.9512C83.4674 79.3394 82.4235 80.1679 81.7288 80.9443C80.657 82.1201 80.2428 83.712 79.3475 84.9974C78.6788 85.9596 78.233 86.8958 77.6609 87.9267C76.5371 89.9866 76.6578 91.885 76.6578 94.1864C76.6578 95.4031 76.5371 96.7015 76.6708 97.9181C76.8194 99.4041 77.5401 100.459 78.4373 101.611C78.9723 102.293 79.3475 103.468 80.0162 104.026C80.3635 104.306 80.6849 104.226 81.0582 104.386C81.7009 104.668 81.9294 104.923 82.4773 105.337C84.1361 106.58 85.7948 107.752 87.8418 108.212C88.9247 108.439 89.8739 108.614 90.851 109.056C91.7044 109.426 92.612 109.656 93.5388 109.737C95.6656 109.951 97.5249 109.215 99.1298 107.904C100.135 107.102 100.922 106.446 101.699 105.376C102.128 104.787 102.395 104.427 103.01 104.076C103.424 103.834 103.879 103.567 104.374 103.621C104.79 103.675 105.217 104.209 105.659 103.942C106.03 103.714 106.261 102.523 106.402 102.163C106.656 101.52 106.829 100.73 107.124 100.119C107.632 99.0364 108.488 99.289 109.519 99.263C110.24 99.263 111.137 99.1961 111.605 98.5683C112.034 97.9664 111.926 96.642 111.605 96.0402C111.124 95.156 109.866 94.2997 109.17 93.579C108.639 93.0155 108.164 92.4015 107.752 91.7457C106.937 90.4751 106.59 88.1867 104.849 87.8004C104.154 87.6388 103.231 87.7725 102.522 87.7725C101.693 87.7855 101.13 87.5719 100.343 87.401C99.1242 87.1186 98.0153 86.7453 96.7429 86.7323C95.1659 86.7044 93.8285 87.1855 92.3834 87.7874C91.7667 88.0418 91.2596 87.9211 90.6968 88.1087C89.9891 88.3502 88.9452 89.7804 88.8393 90.4491C88.5997 91.8943 89.1346 93.2986 90.5259 93.8744C90.981 94.0601 92.0379 94.1419 92.3722 94.5171C92.8125 95.0112 92.4391 95.6539 92.2106 96.2148C91.6534 97.647 91.9432 99.3596 93.7226 99.627C94.9263 99.7998 96.104 99.0252 97.107 98.5553C97.9633 98.128 99.336 98.0203 99.336 96.9114C99.2691 97.4333 98.3868 97.2327 97.9596 97.2327C97.0754 97.2327 96.5405 97.2179 95.8458 96.6569C95.1511 96.0959 95.1028 95.6539 94.8427 94.8644C94.7062 94.5031 94.5312 94.1574 94.3208 93.8335C94.174 93.6199 93.7059 93.3264 93.6242 93.0905C93.1431 91.82 97.0364 91.2181 97.785 91.1383C99.4177 90.9525 100.542 92.1153 101.478 93.345C101.892 93.9022 102.707 94.6824 102.668 95.3659C102.64 96.0068 102.111 97.1176 101.851 97.7324C101.584 98.3751 101.383 98.9899 101.169 99.5899C100.902 100.366 100.501 100.519 99.819 100.927C99.1373 101.336 98.6543 101.917 98.0803 102.426C97.4506 102.984 96.6612 103.041 95.8513 103.229C94.6477 103.522 93.5778 102.881 92.3611 102.961C91.3562 103.015 90.4869 103.589 89.4968 103.656C87.4109 103.79 85.5515 103.537 84.8289 101.275C84.5076 100.312 84.7751 99.8704 85.3639 99.2555C85.9936 98.5999 85.78 98.011 85.4586 97.2364C85.0871 96.3393 84.6692 95.483 84.4946 94.5208C84.32 93.5586 84.9088 92.4608 85.0704 91.4838C85.2172 90.6683 84.8159 89.5315 85.0834 88.7551C85.3249 88.0734 86.7292 87.3769 87.3031 86.9088C88.0461 86.3069 89.0956 86.0525 89.9668 85.6085C91.0367 85.0513 91.7853 85.2203 92.8812 85.0327C93.7784 84.8729 94.2595 84.1764 95.0619 83.855C95.9461 83.5077 97.1627 83.6823 98.1119 83.6953C99.1688 83.7213 99.7317 84.0556 100.653 84.5107C101.537 84.9528 102.312 85.6345 103.343 85.7552C104.533 85.889 105.757 85.6624 106.941 85.7144C108.124 85.7664 108.532 86.3979 109.43 87.0146C110.418 87.6963 111.087 88.0976 111.809 89.1155C112.156 89.5966 112.331 90.1854 112.678 90.6405C113.067 91.1606 113.347 91.4429 113.589 92.0707C113.923 92.94 114.365 93.6886 114.592 94.5858C114.725 95.1208 114.913 95.5628 114.872 96.1238C114.805 96.8334 114.512 97.4352 114.501 98.1671C114.473 99.7979 113.884 101.003 113.163 102.46C112.443 103.916 111.839 105.404 111.17 106.862C110.715 107.852 110.613 109.817 109.283 110.072C108.588 110.205 107.905 110.072 107.24 110.432C106.575 110.792 106.452 111.597 105.902 112.104C105.38 112.585 104.726 112.423 104.03 112.423C103.009 112.405 101.995 112.606 101.058 113.012C99.8951 113.508 99.1057 114.684 97.9429 115.273C96.9707 115.762 95.948 116.143 94.8929 116.41C94.1499 116.595 93.4347 116.41 92.6843 116.638C90.9735 117.147 89.5414 118.269 87.8827 118.886C86.5991 119.354 84.9664 119.66 83.5751 119.541C83.0012 119.487 82.5461 119.259 81.9981 119.086C81.1418 118.832 80.2446 118.832 79.3623 118.603C78.6701 118.416 77.9881 118.193 77.3191 117.935C76.6374 117.68 76.2046 117.173 75.5545 116.878C74.0685 116.17 72.6382 116.25 71.2822 115.152C69.5845 113.763 68.0985 112.197 66.254 111.006C65.4905 110.497 64.9816 109.856 64.4875 109.121C64.0454 108.465 63.5253 108.077 63.0294 107.516C62.2864 106.673 61.7997 105.682 61.3836 104.666C60.6889 102.995 59.8586 101.496 59.2716 99.7701C58.4413 97.3219 57.3714 95.0743 56.9033 92.5072C56.5318 90.3804 56.9962 88.5062 57.0779 86.4332C57.0909 85.9521 57.1578 85.3633 57.0631 84.8952C56.9163 84.1058 56.2346 83.5838 55.7257 83.0099C54.0669 81.1227 52.6218 79.2373 51.7135 76.869C50.7847 74.4542 50.3352 71.5194 51.1117 69.0173C51.8342 66.7438 53.2385 65.4881 55.0978 64.108C56.9033 62.7576 58.9633 61.7415 60.9564 60.7236C61.8666 60.2555 62.721 59.6091 63.6851 59.2525C64.6491 58.8958 65.8379 58.7175 66.8688 58.437C67.779 58.1956 68.5275 58.1027 69.317 57.5399C70.1733 56.9493 70.9991 56.3157 71.7912 55.6415C72.7199 54.8112 73.4499 53.9549 74.6666 53.6354C76.3383 53.1933 78.0918 52.6844 79.7896 52.3352C81.8904 51.8931 84.4723 52.4689 86.5583 52.6974C88.6387 52.8952 90.7284 52.9795 92.818 52.95C94.5845 52.95 96.2563 52.6695 98.019 52.6026C98.6599 52.5766 99.3193 52.6695 99.9713 52.6305C101.028 52.5766 102.031 52.1085 103.047 51.8541C105.001 51.3451 106.833 50.3959 108.746 49.7662C110.232 49.2721 111.649 49.326 113.174 49.0715C114.779 48.817 116.425 48.2691 118.056 48.2022C119.488 48.1484 120.998 47.6004 122.284 48.3768C124.665 49.848 126.184 52.363 128.556 53.7933C131.058 55.3053 133.867 56.3752 136.555 57.4451C137.483 57.8055 138.522 57.3783 139.365 57.6996C139.792 57.8594 140.234 58.528 140.543 58.8903C140.983 58.5819 140.849 58.1473 140.862 57.6736C140.903 57.0031 141.211 56.4959 141.234 55.7994C141.247 54.9839 141.327 54.0886 141.193 53.2843C141.126 52.8831 140.578 51.8931 140.565 51.3321C141.865 52.415 143.147 53.5611 144.364 54.7573C150.392 60.6489 155.179 67.6878 158.444 75.4592C161.709 83.2305 163.384 91.5768 163.371 100.006V100.006Z" fill="url(#paint4_radial_393_679)"/>
<path style="mix-blend-mode:multiply" opacity="0.3" fill-rule="evenodd" clip-rule="evenodd" d="M57.7634 119.179C57.3949 120.562 57.1745 121.98 57.1058 123.41C57.468 123.321 58.0197 124.17 58.4246 124.339C59.1676 124.668 59.9106 124.571 60.5979 125.067C61.2072 125.502 61.9483 126.367 62.6672 126.59C63.126 126.731 63.7668 126.603 64.2535 126.603C65.2503 126.584 66.2464 126.669 67.2255 126.858C68.2657 127.068 69.6402 127.415 70.7027 127.313C71.4346 127.238 72.5602 126.847 73.1174 126.384C73.6747 125.921 73.9515 124.469 73.9923 123.728C74.1168 121.415 72.4135 119.238 70.6786 117.867C69.7795 117.154 68.7523 117.156 67.753 116.64C66.619 116.065 65.4247 115.619 64.1922 115.308C63.4213 115.098 62.3514 114.715 61.549 114.739C60.7465 114.764 59.8623 115.252 59.1082 115.449C58.3541 115.646 57.5813 115.77 57.065 116.448C56.4836 117.197 56.7418 118.283 57.7634 119.179Z" fill="url(#paint5_linear_393_679)"/>
<path style="mix-blend-mode:multiply" opacity="0.3" fill-rule="evenodd" clip-rule="evenodd" d="M75.6666 127.288C75.2653 127.764 71.5206 131.02 73.3688 132.303C73.7005 132.433 74.0414 132.537 74.3886 132.615C74.9589 132.758 75.0592 132.673 75.5291 132.368C76.417 131.796 76.5359 130.849 76.3148 129.848C76.2231 129.503 76.1102 129.164 75.9768 128.834C75.8077 128.482 75.4195 128.377 75.3285 127.961L75.6666 127.288Z" fill="url(#paint6_linear_393_679)"/>
<path style="mix-blend-mode:multiply" opacity="0.3" fill-rule="evenodd" clip-rule="evenodd" d="M97.2933 45.1721C97.9788 44.834 100.13 43.5226 101.335 43.4019C101.725 43.3629 102.279 43.4874 102.699 43.4836C103.613 43.4836 104.408 43.3165 105.08 44.0576C105.587 44.6148 105.836 45.1944 105.451 45.8278C104.926 46.7175 103.555 47.3732 102.689 47.871C100.67 49.0394 97.988 50.152 95.5696 49.9254C93.6489 49.7397 91.9066 48.3038 90.2627 47.442C89.0256 46.7918 86.7762 45.5622 88.2789 44.0724C89.5067 42.8558 91.3716 42.1871 93.062 42.1239C93.8273 42.0961 95.6847 41.8268 96.2847 42.2818C96.9534 42.7889 96.2216 44.9418 97.6203 44.8322L97.2933 45.1721Z" fill="url(#paint7_linear_393_679)"/>
<path style="mix-blend-mode:screen" fill-rule="evenodd" clip-rule="evenodd" d="M35.6574 87.0869C36.6215 100.006 66.8634 79.0866 96.1338 69.7936C130.498 58.8826 156.534 82.7125 160.338 81.4141C166.295 79.382 141.834 32.1049 102.676 32.7123C58.5659 33.3959 34.1064 66.2365 35.6574 87.0869Z" fill="url(#paint8_linear_393_679)"/>
<path style="mix-blend-mode:screen" fill-rule="evenodd" clip-rule="evenodd" d="M70.3027 158.229C70.3027 158.229 100.379 168.705 129.104 152.822C157.828 136.938 162.557 101.109 162.557 101.109C162.557 101.109 159.028 143.242 131.299 156.689C103.571 170.135 82.8056 166.001 70.3027 158.229Z" fill="url(#paint9_radial_393_679)"/>
<path style="mix-blend-mode:screen" opacity="0.5" fill-rule="evenodd" clip-rule="evenodd" d="M32.6602 109.514L34.7888 119.359C34.7888 119.359 46.6007 126.274 73.9913 123.732C101.382 121.189 107.891 107.796 118.582 99.9946C129.274 92.1931 150.009 86.0634 155.417 79.9745C160.824 73.8856 156.228 61.758 156.228 61.758L154.148 58.8789C154.148 58.8789 157.987 69.2474 153.39 76.9338C148.793 84.6201 128.383 88.1568 117.23 97.8845C106.078 107.612 83.4701 115.178 64.1912 115.317C44.9122 115.456 32.6602 109.514 32.6602 109.514Z" fill="url(#paint10_linear_393_679)"/>
<path style="mix-blend-mode:screen" opacity="0.5" fill-rule="evenodd" clip-rule="evenodd" d="M41.752 135.131L46.0948 141.462C46.0948 141.462 65.7843 147.22 95.3538 141.462C124.923 135.703 147.217 119.023 157.61 109.513C168.002 100.002 166.711 86.7101 166.711 86.7101L165.783 82.7109C165.783 82.7109 163.925 96.54 152.379 109.513C140.833 122.486 121.6 134.253 93.9161 139.114C66.2319 143.975 41.752 135.131 41.752 135.131Z" fill="url(#paint11_linear_393_679)"/>
<path style="mix-blend-mode:screen" opacity="0.5" fill-rule="evenodd" clip-rule="evenodd" d="M36.627 75.3097C36.627 75.3097 75.2629 88.4868 105.113 82.7118C134.963 76.9368 142.961 57.6356 143.528 47.7686L138.052 43.6431C138.052 43.6431 138.176 63.4551 119.263 75.4063C100.35 87.3574 51.9439 80.2618 38.9655 69.9768L36.627 75.3097Z" fill="url(#paint12_linear_393_679)"/>
<path fill-rule="evenodd" clip-rule="evenodd" d="M40.8608 98.644C41.2936 101.025 46.6729 97.6967 50.7055 89.6295C54.7382 81.5624 55.5053 64.936 53.4082 63.4853C51.3111 62.0346 37.874 82.1624 40.8608 98.644Z" fill="white"/>
<path fill-rule="evenodd" clip-rule="evenodd" d="M114.591 161.138C113.749 162.083 116.853 163.226 121.464 162.284C126.074 161.342 133.179 156.305 133.106 154.976C133.034 153.648 120.412 154.594 114.591 161.138Z" fill="white"/>
<path fill-rule="evenodd" clip-rule="evenodd" d="M41.2345 102.114C38.4483 102.636 38.5115 108.076 40.2946 110.411C42.0778 112.746 44.3403 111.637 44.4814 106.865C44.565 103.927 43.5378 101.683 41.2345 102.114Z" fill="white"/>
<path fill-rule="evenodd" clip-rule="evenodd" d="M151.568 141.693C151.568 141.693 163.226 126.612 165.761 107.731C165.767 107.731 167.093 125.719 151.568 141.693Z" fill="#FF9AFF"/>
<path style="mix-blend-mode:screen" opacity="0.92" fill-rule="evenodd" clip-rule="evenodd" d="M119.268 34.7822C119.268 34.7822 136.925 20.4943 151.569 30.6418C168.001 42.0227 159.963 67.9125 159.963 67.9125C159.963 67.9125 126.034 50.075 119.268 34.7822Z" fill="url(#paint13_radial_393_679)"/>
<path style="mix-blend-mode:screen" opacity="0.92" fill-rule="evenodd" clip-rule="evenodd" d="M54.5391 150.563C54.5391 150.563 56.7569 170.544 71.7785 177.809C85.7915 184.587 98.3686 167.983 98.3686 167.983C98.3686 167.983 95.3539 141.461 54.5391 150.563Z" fill="url(#paint14_radial_393_679)"/>
<path style="mix-blend-mode:screen" fill-rule="evenodd" clip-rule="evenodd" d="M122.637 34.1891C125.46 37.8093 134.634 38.7511 145.954 39.9343C157.273 41.1175 158.843 44.3273 158.843 44.3273C158.843 44.3273 155.247 30.9793 144.265 28.7819C133.284 26.5845 122.637 34.1891 122.637 34.1891Z" fill="url(#paint15_linear_393_679)"/>
<path style="mix-blend-mode:screen" fill-rule="evenodd" clip-rule="evenodd" d="M55.7852 151.952C55.7852 151.952 57.5851 164.123 62.4852 166.32C67.3852 168.518 70.2996 157.28 82.4235 157.033C89.1885 156.89 96.6167 164.805 96.6167 164.805C96.6167 164.805 89.3409 143.167 55.7852 151.952Z" fill="url(#paint16_linear_393_679)"/>
<path fill-rule="evenodd" clip-rule="evenodd" d="M74.6367 177.133C74.6367 177.133 82.5162 178.303 90.0818 173.585C90.0874 173.585 85.113 182.148 74.6367 177.133Z" fill="#FF9AFF"/>
<path fill-rule="evenodd" clip-rule="evenodd" d="M158.049 63.4125C158.049 63.4125 160.72 56.7255 159.808 47.96C159.808 47.96 164.526 57.4908 158.049 63.4125Z" fill="#FF9AFF"/>
<path fill-rule="evenodd" clip-rule="evenodd" d="M123.206 33.8079C121.968 34.9001 131.34 34.6865 134.297 32.7064C137.254 30.7263 138.445 29.5895 137.675 28.384C136.906 27.1785 127.662 29.8793 123.206 33.8079Z" fill="white"/>
<path fill-rule="evenodd" clip-rule="evenodd" d="M138.765 28.4978C138.65 27.7641 141.497 27.9629 141.444 28.6687C141.39 29.3746 138.982 29.8705 138.765 28.4978Z" fill="white"/>
<path fill-rule="evenodd" clip-rule="evenodd" d="M56.9327 154.48C55.0752 153.934 57.7965 162.767 61.7474 165.729C61.7474 165.729 62.3232 156.072 56.9327 154.48Z" fill="white"/>
<path style="mix-blend-mode:screen" opacity="0.92" fill-rule="evenodd" clip-rule="evenodd" d="M158.921 68.772C158.921 68.772 167.525 63.7178 171.963 69.6785C178.267 78.1487 167.133 87.0126 167.133 87.0126C167.133 87.0126 157.909 81.2451 158.921 68.772Z" fill="url(#paint17_radial_393_679)"/>
<path style="mix-blend-mode:screen" fill-rule="evenodd" clip-rule="evenodd" d="M159.688 68.8269C156.285 69.8448 166.11 71.8676 169.489 73.558C172.867 75.2483 172.529 77.273 172.529 77.273C172.529 77.273 174.389 64.4339 159.688 68.8269Z" fill="url(#paint18_linear_393_679)"/>
<path fill-rule="evenodd" clip-rule="evenodd" d="M166.369 85.1343C166.369 85.1343 169.395 83.7208 171.594 78.8467C171.594 78.8374 172.423 84.0607 166.369 85.1343Z" fill="#FF9AFF"/>
<path fill-rule="evenodd" clip-rule="evenodd" d="M161.04 69.0079C160.133 70.1763 165.312 69.9961 165.762 68.7813C166.211 67.5665 162.136 67.6055 161.04 69.0079Z" fill="white"/>
<path fill-rule="evenodd" clip-rule="evenodd" d="M158.842 71.7256C158.842 71.7256 158.927 79.6905 163.744 84.1708C163.744 84.1764 159.581 76.5495 158.842 71.7256Z" fill="white"/>
<path fill-rule="evenodd" clip-rule="evenodd" d="M164.656 85.1346C164.656 85.1346 165.782 86.8398 166.699 86.721C166.705 86.7117 165.542 84.8523 164.656 85.1346Z" fill="white"/>
<path style="mix-blend-mode:screen" opacity="0.92" fill-rule="evenodd" clip-rule="evenodd" d="M107.951 32.7066C107.951 32.7066 110.331 28.4344 113.826 28.3954C118.792 28.3396 119.087 35.0248 119.087 35.0248C119.087 35.0248 113.808 37.0624 107.951 32.7066Z" fill="url(#paint19_radial_393_679)"/>
<path style="mix-blend-mode:screen" fill-rule="evenodd" clip-rule="evenodd" d="M109.542 31.4921C108.561 32.8443 112.809 30.7918 114.557 30.4575C116.305 30.1231 116.756 30.9757 116.756 30.9757C116.756 30.9757 113.775 25.6484 109.542 31.4921Z" fill="url(#paint20_linear_393_679)"/>
<path fill-rule="evenodd" clip-rule="evenodd" d="M118.158 34.796C118.158 34.796 118.457 33.2542 117.211 31.0698C117.205 31.068 119.434 32.1955 118.158 34.796Z" fill="#FF9AFF"/>
<path fill-rule="evenodd" clip-rule="evenodd" d="M110.098 31.1722C110.098 31.8669 111.974 30.3214 111.797 29.7363C111.621 29.1512 110.105 30.3382 110.098 31.1722Z" fill="white"/>
<path fill-rule="evenodd" clip-rule="evenodd" d="M110.051 34.0234C110.051 34.0234 114.033 36.1243 117.072 35.5317C117.072 35.5392 112.09 35.0766 110.051 34.0234Z" fill="white"/>
<path fill-rule="evenodd" clip-rule="evenodd" d="M117.684 35.4464C117.684 35.4464 118.644 35.491 118.854 35.1065C118.854 35.1065 117.825 35.034 117.684 35.4464Z" fill="white"/>
<path fill-rule="evenodd" clip-rule="evenodd" d="M121.494 38.6465C121.494 38.6465 124.171 39.2576 124.96 42.9745C124.96 42.9689 122.219 42.1757 121.494 38.6465Z" fill="white"/>
<path fill-rule="evenodd" clip-rule="evenodd" d="M54.5391 150.563C54.5391 150.563 57.9791 149.419 63.7801 148.661C69.5811 147.903 72.8577 148.661 72.8577 148.661C72.8577 148.661 60.1078 149.675 54.5391 150.563Z" fill="white"/>
<path fill-rule="evenodd" clip-rule="evenodd" d="M86.3691 152.089C86.3691 152.089 93.6282 157.74 96.1396 161.579C96.1414 161.579 95.3891 156.614 86.3691 152.089Z" fill="white"/>
<path fill-rule="evenodd" clip-rule="evenodd" d="M72.166 39.7857C72.166 39.7857 74.1387 37.3468 78.1676 36.2731C81.4238 35.4038 83.2534 35.5469 83.8924 35.4707C83.8924 35.4707 77.0067 40.2445 72.166 39.7857Z" fill="white"/>
<path fill-rule="evenodd" clip-rule="evenodd" d="M74.6367 148.868C74.6367 148.868 76.9233 147.861 77.7387 149.284C77.7387 149.284 75.2516 150.084 74.6367 148.868Z" fill="white"/>
<path fill-rule="evenodd" clip-rule="evenodd" d="M91.2578 172.994C91.2578 172.994 91.2782 171.159 94.2948 170.208C94.2948 170.208 94.5567 172.623 91.2578 172.994Z" fill="#FF9AFF"/>
<path style="mix-blend-mode:screen" opacity="0.92" d="M49.457 47.6863C56.8985 42.8353 58.9984 32.8703 54.1474 25.4288C49.2964 17.9874 39.3314 15.8874 31.8899 20.7384C24.4485 25.5894 22.3485 35.5545 27.1996 42.9959C32.0506 50.4373 42.0156 52.5373 49.457 47.6863Z" fill="url(#paint21_radial_393_679)"/>
<path style="mix-blend-mode:screen" fill-rule="evenodd" clip-rule="evenodd" d="M25.7867 34.4618C25.7867 34.4618 28.4986 39.0684 37.0283 32.9313C45.5579 26.7941 49.4847 23.5008 53.2015 25.1056C53.2015 25.1056 45.0062 15.56 34.4036 20.2761C24.0407 24.8716 25.7867 34.4618 25.7867 34.4618Z" fill="url(#paint22_linear_393_679)"/>
<path fill-rule="evenodd" clip-rule="evenodd" d="M46.3125 47.9601C46.3125 47.9601 53.6626 44.4309 55.1839 36.6294C55.1839 36.6275 56.7052 45.5528 46.3125 47.9601Z" fill="#FF9AFF"/>
<path fill-rule="evenodd" clip-rule="evenodd" d="M25.7637 31.0683C25.7637 31.0683 26.7184 23.6271 34.1094 21.0508C34.1094 21.0508 30.9349 31.1593 25.7637 31.0683Z" fill="white"/>
<path fill-rule="evenodd" clip-rule="evenodd" d="M34.4128 20.6944C33.6364 20.2987 36.8814 19.1545 38.6851 19.2437C38.6925 19.2437 35.492 21.2461 34.4128 20.6944Z" fill="white"/>
<path fill-rule="evenodd" clip-rule="evenodd" d="M38.7109 49.2249C38.7109 49.2249 42.5132 46.1842 46.3137 47.96C46.3137 47.96 43.9064 50.2986 38.7109 49.2249Z" fill="white"/>
<path style="mix-blend-mode:screen" opacity="0.92" fill-rule="evenodd" clip-rule="evenodd" d="M140.598 174.537C140.599 176.018 140.16 177.467 139.338 178.7C138.515 179.933 137.346 180.894 135.977 181.462C134.608 182.029 133.101 182.179 131.648 181.89C130.194 181.601 128.859 180.888 127.811 179.841C126.763 178.793 126.049 177.458 125.759 176.004C125.47 174.551 125.618 173.044 126.185 171.675C126.753 170.306 127.713 169.136 128.945 168.313C130.178 167.49 131.626 167.05 133.108 167.051C135.094 167.051 136.998 167.84 138.402 169.244C139.807 170.647 140.596 172.551 140.598 174.537V174.537Z" fill="url(#paint23_radial_393_679)"/>
<path style="mix-blend-mode:screen" fill-rule="evenodd" clip-rule="evenodd" d="M126.177 174.653C126.177 174.653 127.438 176.796 131.411 173.94C135.385 171.083 137.212 169.548 138.942 170.295C138.942 170.295 135.126 165.85 130.189 168.042C125.362 170.186 126.177 174.653 126.177 174.653Z" fill="url(#paint24_linear_393_679)"/>
<path fill-rule="evenodd" clip-rule="evenodd" d="M135.734 180.939C135.734 180.939 139.158 179.295 139.865 175.662C139.865 175.662 140.573 179.817 135.734 180.939Z" fill="#FF9AFF"/>
<path fill-rule="evenodd" clip-rule="evenodd" d="M126.162 173.073C126.162 173.073 126.606 169.607 130.05 168.407C130.05 168.407 128.571 173.115 126.162 173.073Z" fill="white"/>
<path fill-rule="evenodd" clip-rule="evenodd" d="M130.189 168.241C129.829 168.055 131.339 167.524 132.182 167.565C132.182 167.565 130.693 168.497 130.189 168.241Z" fill="white"/>
<path fill-rule="evenodd" clip-rule="evenodd" d="M132.193 181.527C132.193 181.527 133.964 180.11 135.734 180.939C135.734 180.939 134.614 182.027 132.193 181.527Z" fill="white"/>
<defs>
<radialGradient id="paint0_radial_393_679" cx="0" cy="0" r="1" gradientUnits="userSpaceOnUse" gradientTransform="translate(100 100) scale(92)">
<stop offset="0.01" stop-color="#009BFF"/>
<stop offset="1" stop-opacity="0"/>
</radialGradient>
<radialGradient id="paint1_radial_393_679" cx="0" cy="0" r="1" gradientUnits="userSpaceOnUse" gradientTransform="translate(100.022 100.002) rotate(45) scale(78.3715)">
<stop offset="0.01" stop-color="#0092FF"/>
<stop offset="0.432292" stop-color="#0090FB" stop-opacity="0.87"/>
<stop offset="0.864583" stop-color="#0089EF" stop-opacity="0.53"/>
<stop offset="0.9995" stop-color="#007DDB" stop-opacity="0"/>
<stop offset="0.9996" stop-color="#006DBF" stop-opacity="0"/>
<stop offset="0.9997" stop-color="#00599B" stop-opacity="0"/>
<stop offset="0.9998" stop-color="#003F6E" stop-opacity="0.23"/>
<stop offset="0.9999" stop-color="#00223B" stop-opacity="0"/>
<stop offset="1" stop-opacity="0"/>
</radialGradient>
<radialGradient id="paint2_radial_393_679" cx="0" cy="0" r="1" gradientUnits="userSpaceOnUse" gradientTransform="translate(99.999 99.9985) scale(68.0048 68.0048)">
<stop offset="0.89"/>
<stop offset="0.9" stop-color="#000506"/>
<stop offset="0.92" stop-color="#001217"/>
<stop offset="0.94" stop-color="#002932"/>
<stop offset="0.96" stop-color="#004858"/>
<stop offset="0.99" stop-color="#006F89"/>
<stop offset="1" stop-color="#008BAB"/>
</radialGradient>
<radialGradient id="paint3_radial_393_679" cx="0" cy="0" r="1" gradientUnits="userSpaceOnUse" gradientTransform="translate(82.039 82.0191) scale(92.9566 92.9566)">
<stop offset="0.01" stop-color="#00CEC0"/>
<stop offset="0.26" stop-color="#00CCC0"/>
<stop offset="0.38" stop-color="#00C4C1"/>
<stop offset="0.48" stop-color="#00B7C2"/>
<stop offset="0.56" stop-color="#00A4C4"/>
<stop offset="0.64" stop-color="#008CC6"/>
<stop offset="0.71" stop-color="#006EC8"/>
<stop offset="0.72" stop-color="#0068C9"/>
<stop offset="0.74" stop-color="#0767CB"/>
<stop offset="0.78" stop-color="#1A66CF"/>
<stop offset="0.83" stop-color="#3A63D6"/>
<stop offset="0.88" stop-color="#6660E0"/>
<stop offset="0.93" stop-color="#9E5BEC"/>
<stop offset="0.99" stop-color="#E255FC"/>
<stop offset="1" stop-color="#F154FF"/>
</radialGradient>
<radialGradient id="paint4_radial_393_679" cx="0" cy="0" r="1" gradientUnits="userSpaceOnUse" gradientTransform="translate(107.054 105.666) scale(57.0159 57.0159)">
<stop stop-color="#1372B3"/>
<stop offset="1" stop-color="white"/>
</radialGradient>
<linearGradient id="paint5_linear_393_679" x1="56.7566" y1="121.046" x2="73.996" y2="121.046" gradientUnits="userSpaceOnUse">
<stop stop-color="#B8C2FF"/>
<stop offset="1" stop-color="#7D72B3"/>
</linearGradient>
<linearGradient id="paint6_linear_393_679" x1="72.8599" y1="129.987" x2="76.4114" y2="129.987" gradientUnits="userSpaceOnUse">
<stop stop-color="#B8C2FF"/>
<stop offset="1" stop-color="#7D72B3"/>
</linearGradient>
<linearGradient id="paint7_linear_393_679" x1="87.7885" y1="45.9894" x2="105.641" y2="45.9894" gradientUnits="userSpaceOnUse">
<stop stop-color="#B8C2FF"/>
<stop offset="1" stop-color="#7D72B3"/>
</linearGradient>
<linearGradient id="paint8_linear_393_679" x1="60.1318" y1="43.3324" x2="131.766" y2="111.587" gradientUnits="userSpaceOnUse">
<stop offset="0.02" stop-color="#B3FFE8"/>
<stop offset="0.21" stop-color="#83BBAA"/>
<stop offset="0.43" stop-color="#55796E"/>
<stop offset="0.62" stop-color="#30453F"/>
<stop offset="0.78" stop-color="#161F1D"/>
<stop offset="0.92" stop-color="#060808"/>
<stop offset="1"/>
</linearGradient>
<radialGradient id="paint9_radial_393_679" cx="0" cy="0" r="1" gradientUnits="userSpaceOnUse" gradientTransform="translate(128.259 153.409) scale(39.9734 39.9733)">
<stop stop-color="#97E5D9"/>
<stop offset="0.36" stop-color="#61938C"/>
<stop offset="1"/>
</radialGradient>
<linearGradient id="paint10_linear_393_679" x1="95.3544" y1="124.302" x2="95.3544" y2="58.8826" gradientUnits="userSpaceOnUse">
<stop stop-color="#BDFFE8"/>
<stop offset="0.2" stop-color="#8BBBAA"/>
<stop offset="0.42" stop-color="#5A796E"/>
<stop offset="0.61" stop-color="#33453F"/>
<stop offset="0.78" stop-color="#171F1D"/>
<stop offset="0.91" stop-color="#060808"/>
<stop offset="1"/>
</linearGradient>
<linearGradient id="paint11_linear_393_679" x1="104.255" y1="144.025" x2="104.255" y2="82.7128" gradientUnits="userSpaceOnUse">
<stop stop-color="#BDFFE8"/>
<stop offset="0.2" stop-color="#8BBBAA"/>
<stop offset="0.42" stop-color="#5A796E"/>
<stop offset="0.61" stop-color="#33453F"/>
<stop offset="0.78" stop-color="#171F1D"/>
<stop offset="0.91" stop-color="#060808"/>
<stop offset="1"/>
</linearGradient>
<linearGradient id="paint12_linear_393_679" x1="90.0764" y1="84.1755" x2="90.0764" y2="43.6431" gradientUnits="userSpaceOnUse">
<stop stop-color="#BDFFE8"/>
<stop offset="0.2" stop-color="#8BBBAA"/>
<stop offset="0.42" stop-color="#5A796E"/>
<stop offset="0.61" stop-color="#33453F"/>
<stop offset="0.78" stop-color="#171F1D"/>
<stop offset="0.91" stop-color="#060808"/>
<stop offset="1"/>
</linearGradient>
<radialGradient id="paint13_radial_393_679" cx="0" cy="0" r="1" gradientUnits="userSpaceOnUse" gradientTransform="translate(140.601 47.4559) scale(20.8987 20.8987)">
<stop stop-color="#581157" stop-opacity="0"/>
<stop offset="0.776042" stop-color="#8A1B88" stop-opacity="0.49"/>
<stop offset="0.875" stop-color="#EE38F7" stop-opacity="0.78"/>
<stop offset="0.895833" stop-color="#FF32FC" stop-opacity="0.86"/>
<stop offset="0.927083" stop-color="#D93FF0" stop-opacity="0.84"/>
<stop offset="0.958333" stop-color="#6867CC" stop-opacity="0.87"/>
<stop offset="0.99" stop-color="#327ABB"/>
<stop offset="0.9901" stop-color="#008BAB"/>
</radialGradient>
<radialGradient id="paint14_radial_393_679" cx="0" cy="0" r="1" gradientUnits="userSpaceOnUse" gradientTransform="translate(77.5033 158.942) scale(19.8715 19.8715)">
<stop stop-color="#8A1B88" stop-opacity="0"/>
<stop offset="0.791667" stop-color="#C527C2" stop-opacity="0.36"/>
<stop offset="0.822917" stop-color="#EE38F7" stop-opacity="0.42"/>
<stop offset="0.854167" stop-color="#BC49E7" stop-opacity="0.62"/>
<stop offset="0.895833" stop-color="#9657DB"/>
<stop offset="0.932292" stop-color="#6867CC"/>
<stop offset="0.963542" stop-color="#327ABB"/>
<stop offset="1" stop-color="#008BAB"/>
</radialGradient>
<linearGradient id="paint15_linear_393_679" x1="129.894" y1="26.5306" x2="154.034" y2="49.4038" gradientUnits="userSpaceOnUse">
<stop offset="0.02" stop-color="#54FFE8"/>
<stop offset="0.21" stop-color="#3EBBAA" stop-opacity="0.64"/>
<stop offset="0.43" stop-color="#28796E" stop-opacity="0.37"/>
<stop offset="0.9997" stop-color="#17453F" stop-opacity="0"/>
<stop offset="0.9998" stop-color="#0A1F1D"/>
<stop offset="0.9999" stop-color="#030808"/>
<stop offset="1"/>
</linearGradient>
<linearGradient id="paint16_linear_393_679" x1="60.7948" y1="146.668" x2="88.7223" y2="173.13" gradientUnits="userSpaceOnUse">
<stop offset="0.02" stop-color="#54FFE8"/>
<stop offset="0.21" stop-color="#3EBBAA" stop-opacity="0.65"/>
<stop offset="0.43" stop-color="#28796E" stop-opacity="0.45"/>
<stop offset="0.9997" stop-color="#17453F" stop-opacity="0"/>
<stop offset="0.9998" stop-color="#0A1F1D"/>
<stop offset="0.9999" stop-color="#030808"/>
<stop offset="1" stop-color="#050F0E"/>
</linearGradient>
<radialGradient id="paint17_radial_393_679" cx="0" cy="0" r="1" gradientUnits="userSpaceOnUse" gradientTransform="translate(167.439 77.4184) rotate(-11.7125) scale(7.89124 9.44405)">
<stop stop-color="#581157" stop-opacity="0"/>
<stop offset="0.682292" stop-color="#721671" stop-opacity="0.24"/>
<stop offset="0.739583" stop-color="#8A1B88" stop-opacity="0.46"/>
<stop offset="0.786458" stop-color="#C527C2" stop-opacity="0.5"/>
<stop offset="0.848958" stop-color="#FF32FC" stop-opacity="0.37"/>
<stop offset="0.895833" stop-color="#9657DB" stop-opacity="0.63"/>
<stop offset="0.958333" stop-color="#327ABB" stop-opacity="0.67"/>
<stop offset="1" stop-color="#008BAB"/>
</radialGradient>
<linearGradient id="paint18_linear_393_679" x1="161.492" y1="66.5756" x2="172.65" y2="77.1466" gradientUnits="userSpaceOnUse">
<stop offset="0.02" stop-color="#54FFE8"/>
<stop offset="0.21" stop-color="#3EBBAA" stop-opacity="0.7"/>
<stop offset="0.43" stop-color="#28796E" stop-opacity="0.56"/>
<stop offset="1" stop-color="#17453F" stop-opacity="0"/>
</linearGradient>
<radialGradient id="paint19_radial_393_679" cx="0" cy="0" r="1" gradientUnits="userSpaceOnUse" gradientTransform="translate(115.428 32.7278) rotate(-65.8977) scale(4.09056 4.90372)">
<stop stop-color="#001217" stop-opacity="0"/>
<stop offset="0.69" stop-color="#002932" stop-opacity="0.33"/>
<stop offset="0.8" stop-color="#004858" stop-opacity="0.39"/>
<stop offset="0.92" stop-color="#006F89" stop-opacity="0.8"/>
<stop offset="1" stop-color="#008BAB"/>
</radialGradient>
<linearGradient id="paint20_linear_393_679" x1="108.289" y1="30.1427" x2="115.469" y2="30.8689" gradientUnits="userSpaceOnUse">
<stop offset="0.02" stop-color="#54FFE8"/>
<stop offset="0.21" stop-color="#3EBBAA" stop-opacity="0.86"/>
<stop offset="0.43" stop-color="#28796E" stop-opacity="0.74"/>
<stop offset="0.62" stop-color="#17453F" stop-opacity="0.67"/>
<stop offset="1" stop-color="#0A1F1D" stop-opacity="0"/>
</linearGradient>
<radialGradient id="paint21_radial_393_679" cx="0" cy="0" r="1" gradientUnits="userSpaceOnUse" gradientTransform="translate(39.1228 34.0561) rotate(0.11524) scale(17.2755 17.2755)">
<stop stop-color="#004858" stop-opacity="0"/>
<stop offset="0.713542" stop-color="#006F89" stop-opacity="0.35"/>
<stop offset="0.848958" stop-color="#008BAB" stop-opacity="0.65"/>
<stop offset="0.98" stop-color="#FF32FC"/>
</radialGradient>
<linearGradient id="paint22_linear_393_679" x1="25.6753" y1="27.5427" x2="53.2015" y2="27.5427" gradientUnits="userSpaceOnUse">
<stop offset="0.02" stop-color="#54FFE8"/>
<stop offset="0.21" stop-color="#3EBBAA" stop-opacity="0.61"/>
<stop offset="0.43" stop-color="#28796E" stop-opacity="0.46"/>
<stop offset="0.9997" stop-color="#17453F" stop-opacity="0"/>
<stop offset="0.9998" stop-color="#0A1F1D" stop-opacity="0"/>
<stop offset="0.9999" stop-color="#030808" stop-opacity="0"/>
<stop offset="1" stop-opacity="0"/>
</linearGradient>
<radialGradient id="paint23_radial_393_679" cx="0" cy="0" r="1" gradientUnits="userSpaceOnUse" gradientTransform="translate(132.482 173.979) scale(8.01324 8.01324)">
<stop stop-opacity="0"/>
<stop offset="0.0001" stop-color="#001217"/>
<stop offset="0.0002" stop-color="#000506"/>
<stop offset="0.0003" stop-color="#002932" stop-opacity="0"/>
<stop offset="0.625" stop-color="#004858" stop-opacity="0.47"/>
<stop offset="0.755208" stop-color="#006F89" stop-opacity="0.62"/>
<stop offset="0.87" stop-color="#008BAB" stop-opacity="0.83"/>
<stop offset="0.98" stop-color="#FF32FC"/>
</radialGradient>
<linearGradient id="paint24_linear_393_679" x1="126.125" y1="171.43" x2="138.942" y2="171.43" gradientUnits="userSpaceOnUse">
<stop offset="0.02" stop-color="#54FFE8"/>
<stop offset="0.21" stop-color="#3EBBAA"/>
<stop offset="0.43" stop-color="#28796E"/>
<stop offset="0.62" stop-color="#17453F"/>
<stop offset="0.78" stop-color="#0A1F1D"/>
<stop offset="0.92" stop-color="#030808"/>
<stop offset="1"/>
</linearGradient>
</defs>
</svg>
