<svg width="200" height="200" viewBox="0 0 200 200" fill="none" xmlns="http://www.w3.org/2000/svg">
<path style="mix-blend-mode:screen" opacity="0.64" d="M101.706 197.78C155.721 197.78 199.509 154.244 199.509 100.539C199.509 46.8335 155.721 3.29688 101.706 3.29688C47.6918 3.29688 3.9043 46.8335 3.9043 100.539C3.9043 154.244 47.6918 197.78 101.706 197.78Z" fill="url(#paint0_radial_347_315)"/>
<g opacity="0.1">
<path d="M101.616 51.3626C112.946 45.7252 92.9236 40.2307 87.6598 49.1648C82.3961 58.0988 137.968 57.2637 123.22 49.9889C123.22 49.9889 147.968 52.967 125.715 59.2747C103.462 65.5823 51.9236 39.2307 96.6049 42.8571C141.286 46.4834 101.616 51.3626 101.616 51.3626Z" fill="#D2EFFF"/>
<path d="M126.472 78.9338C114.142 100.461 61.9445 75.8239 85.1972 77.0876C108.45 78.3514 124.813 79.5492 110.109 81.769C110.109 81.769 141.307 81.769 103.307 76.3514C65.3071 70.9338 54.8346 64.5492 73.8126 81.0217C92.7906 97.4942 156.747 84.0327 144.032 76.3514C131.318 68.6701 152.329 62.3294 148.769 72.4173C148.769 72.4173 177.835 55.6481 125.824 61.703C125.824 61.703 157.417 64.9997 128.549 67.8349C99.6808 70.6701 46.2412 46.1536 85.0873 53.0217C85.0873 53.0217 35.8016 35.8459 72.0873 61.703C108.373 87.5602 138.813 57.4173 126.472 78.9338ZM109.747 70.1426C108.142 71.0767 91.0654 70.8788 84.472 64.9558C80.6258 61.4503 114.461 67.3843 109.747 70.1316V70.1426ZM135.186 71.2415C139.912 73.6481 148.45 81.7799 128.703 82.4613C126.472 82.4942 130.472 68.7909 135.164 71.1975L135.186 71.2415Z" fill="#D2EFFF"/>
<path d="M138.824 93.5058C149.165 88.6487 165.89 80.0553 153.638 90.5498C141.385 101.044 83.5716 114.803 73.8243 100.912C64.0771 87.0223 110.835 95.1212 104.517 99.4289C104.517 99.4289 139.154 96.2201 88.4397 90.5498C37.7254 84.8794 48.9892 75.2421 62.7254 80.2201C62.7254 80.2201 22.198 67.352 55.6485 87.3739C89.0991 107.396 15.5716 94.6047 78.9452 108.341C142.319 122.077 147.714 102.682 147.714 102.682C147.714 102.682 142.429 109.923 119.143 108.341C95.8573 106.759 141.264 107.242 156.681 94.7036C172.099 82.1652 172.352 70.352 138 93.9234L138.824 93.5058Z" fill="#D2EFFF"/>
<path d="M144.814 113.242C144.814 113.242 142.111 142.418 58.759 109.121C58.759 109.121 87.3964 127.802 112.946 128.671C138.495 129.539 64.8909 142.725 58.759 115.231C58.759 115.231 38.6711 147.264 117.682 134.176C163.781 126.539 131.693 135.429 131.693 135.429C131.693 135.429 165.55 130.89 134.99 126.231C135.001 126.231 174.583 109.121 144.814 113.242Z" fill="#D2EFFF"/>
<path d="M133.484 137.362C133.484 137.362 107.111 151.648 71.3193 144.296C35.5281 136.945 81.4622 139.505 81.4622 139.505C81.4622 139.505 48.9347 132.384 51.5721 139.714C54.2094 147.044 111.034 146.747 106.187 150.703C101.341 154.659 72.9017 156.198 86.0775 152.659C86.0775 152.659 53.7808 151.428 92.4512 157.055C131.122 162.681 129.814 146.78 129.814 146.78C129.814 146.78 124.451 156.187 114.528 152.692C104.605 149.198 150.209 134.395 134.616 149.285C134.616 149.285 151.869 135.857 130.869 140.351L133.484 137.362Z" fill="#D2EFFF"/>
<path d="M102.197 161.737C102.197 161.737 83.5155 165.1 76.6474 158.188C76.5924 158.242 73.1639 170.067 102.197 161.737Z" fill="#D2EFFF"/>
</g>
<path style="mix-blend-mode:screen" d="M167.104 116.425C175.874 80.3137 153.709 43.9306 117.598 35.161C81.4866 26.3914 45.1035 48.5562 36.3338 84.6675C27.5642 120.779 49.729 157.162 85.8403 165.932C121.952 174.701 158.335 152.536 167.104 116.425Z" fill="url(#paint1_radial_347_315)"/>
<path style="mix-blend-mode:screen" opacity="0.53" d="M161.298 108.429C148.287 124.352 119.089 71.6487 79.012 99.8465C38.9351 128.044 31.6164 80.2201 56.2098 57.385C75.4296 39.5278 93.5724 31.9894 124.957 42.7146C156.342 53.4399 169.968 97.8025 161.298 108.429Z" fill="url(#paint2_linear_347_315)"/>
<path style="mix-blend-mode:screen" opacity="0.55" d="M41.2427 93.748C54.2537 77.8359 83.4515 130.528 123.528 102.341C163.605 74.1546 170.924 121.946 146.331 144.803C127.111 162.66 108.968 170.188 77.5834 159.462C46.1988 148.737 32.5724 104.396 41.2427 93.748Z" fill="url(#paint3_linear_347_315)"/>
<g style="mix-blend-mode:screen">
<path d="M102.53 38.5601C84.6726 31.4173 116.244 24.4612 124.508 35.7909C132.771 47.1206 45.1781 46.0436 68.4638 36.8239C68.4638 36.8239 29.4308 40.5931 64.5297 48.5931C99.6286 56.5931 180.881 23.1865 110.42 27.714C39.9583 32.2415 102.53 38.5601 102.53 38.5601Z" fill="url(#paint4_linear_347_315)"/>
<path d="M149.081 51.6488C206.312 18.9125 128.576 40.6597 128.576 40.6597C189.829 31.9345 105.587 63.0444 60.0483 59.429C14.5099 55.8136 64.367 51.6488 64.367 51.6488C-17.578 43.9564 28.1802 65.2202 28.1802 65.2202C22.5648 52.4509 55.7187 60.44 35.6637 70.1982C15.6088 79.9564 116.488 96.9894 146.378 76.1213C176.268 55.2531 159.785 63.3411 99.8725 70.1982C39.9604 77.0553 89.1472 77.0553 89.1472 77.0553C65.9604 74.2531 91.7626 72.6597 128.422 71.1323C165.081 69.6048 82.7956 100.726 63.345 73.4729C43.8945 46.2202 91.8615 84.374 149.081 51.6488ZM129.543 55.7586C119.235 63.2641 92.2351 63.5169 89.7077 62.352C82.2901 58.8466 135.642 51.3191 129.543 55.7586ZM59.8286 77.8905C28.6967 77.0114 42.1582 66.7147 49.5978 63.6707C57.0373 60.6268 63.345 78.0224 59.8286 77.8905Z" fill="url(#paint5_linear_347_315)"/>
<path d="M43.8706 91.9128C27.563 85.7699 1.18933 74.8798 20.508 88.1765C39.8267 101.473 130.981 118.946 146.354 101.297C161.728 83.6491 88.0025 93.9677 98.0025 99.4183C98.0025 99.4183 43.3871 95.3524 123.277 88.1765C203.167 81.0007 185.497 68.8029 163.838 75.0666C163.838 75.0666 227.739 58.7809 174.992 84.1326C122.244 109.484 238.178 93.2864 138.266 110.682C38.3542 128.078 29.8487 103.517 29.8487 103.517C29.8487 103.517 38.1784 112.682 74.9036 110.682C111.629 108.682 40.0245 109.242 15.7278 93.4073C-8.56891 77.5721 -8.98649 62.5611 45.2223 92.4183L43.8706 91.9128Z" fill="url(#paint6_linear_347_315)"/>
<path d="M34.4198 116.912C34.4198 116.912 38.6836 153.846 170.112 111.692C170.112 111.692 124.958 135.297 84.6726 136.451C44.3869 137.604 160.431 154.253 170.112 119.429C170.112 119.429 201.771 160 77.2001 143.418C4.51874 133.747 55.1121 145.011 55.1121 145.011C55.1121 145.011 1.71654 139.264 49.9034 133.363C49.9034 133.363 -12.5142 111.692 34.4198 116.912Z" fill="url(#paint7_linear_347_315)"/>
<path d="M52.279 147.395C52.279 147.395 93.8175 165.472 150.301 156.186C206.785 146.9 134.312 150.109 134.312 150.109C134.312 150.109 185.598 141.098 181.455 150.384C177.312 159.67 87.6966 159.34 95.323 164.307C102.949 169.274 147.806 171.252 127.037 166.791C127.037 166.791 177.949 165.23 116.982 172.285C56.0153 179.34 58.0922 159.34 58.0922 159.34C60.878 162.879 64.6716 165.49 68.9723 166.828C73.2729 168.166 77.8782 168.168 82.1801 166.835C97.8175 162.439 25.9274 143.659 50.5318 162.516C50.5318 162.516 23.312 145.505 56.4329 151.197L52.279 147.395Z" fill="url(#paint8_linear_347_315)"/>
<path d="M101.707 178.33C101.707 178.33 131.191 182.571 141.993 173.824C141.993 173.824 147.388 188.868 101.707 178.33Z" fill="url(#paint9_linear_347_315)"/>
</g>
<defs>
<radialGradient id="paint0_radial_347_315" cx="0" cy="0" r="1" gradientUnits="userSpaceOnUse" gradientTransform="translate(101.122 100.678) scale(104.492 104.492)">
<stop offset="0.44" stop-color="#8B6FFF"/>
<stop offset="0.58" stop-color="#524196"/>
<stop offset="0.69" stop-color="#261E45"/>
<stop offset="0.77" stop-color="#0A0813"/>
<stop offset="0.81"/>
</radialGradient>
<radialGradient id="paint1_radial_347_315" cx="0" cy="0" r="1" gradientUnits="userSpaceOnUse" gradientTransform="translate(101.718 100.546) scale(67.2857)">
<stop offset="0.29"/>
<stop offset="0.42" stop-color="#010203"/>
<stop offset="0.51" stop-color="#050A0C"/>
<stop offset="0.6" stop-color="#0C181C"/>
<stop offset="0.67" stop-color="#152B33"/>
<stop offset="0.75" stop-color="#214450"/>
<stop offset="0.81" stop-color="#306274"/>
<stop offset="0.88" stop-color="#42869E"/>
<stop offset="0.94" stop-color="#56AFCE"/>
<stop offset="1" stop-color="#6AD8FF"/>
</radialGradient>
<linearGradient id="paint2_linear_347_315" x1="132.077" y1="44.066" x2="83.6859" y2="124.554" gradientUnits="userSpaceOnUse">
<stop stop-color="#00FDFD"/>
<stop offset="0.12" stop-color="#00C3C3"/>
<stop offset="0.25" stop-color="#008F8F"/>
<stop offset="0.37" stop-color="#006363"/>
<stop offset="0.5" stop-color="#003F3F"/>
<stop offset="0.62" stop-color="#002323"/>
<stop offset="0.75" stop-color="#001010"/>
<stop offset="0.87" stop-color="#000404"/>
<stop offset="1"/>
</linearGradient>
<linearGradient id="paint3_linear_347_315" x1="89.8826" y1="162.296" x2="109.423" y2="84.0073" gradientUnits="userSpaceOnUse">
<stop stop-color="#FF00FF"/>
<stop offset="0.01" stop-color="#F600F6"/>
<stop offset="0.05" stop-color="#C800C8"/>
<stop offset="0.09" stop-color="#9D009D"/>
<stop offset="0.14" stop-color="#770077"/>
<stop offset="0.2" stop-color="#570057"/>
<stop offset="0.25" stop-color="#3B003B"/>
<stop offset="0.32" stop-color="#250025"/>
<stop offset="0.4" stop-color="#140014"/>
<stop offset="0.49" stop-color="#090009"/>
<stop offset="0.63" stop-color="#020002"/>
<stop offset="1"/>
</linearGradient>
<linearGradient id="paint4_linear_347_315" x1="49.9034" y1="38.5601" x2="138.288" y2="38.5601" gradientUnits="userSpaceOnUse">
<stop/>
<stop offset="0.09" stop-color="#1C1F32"/>
<stop offset="0.25" stop-color="#4C5689"/>
<stop offset="0.38" stop-color="#6F7FC8"/>
<stop offset="0.48" stop-color="#8598F0"/>
<stop offset="0.53" stop-color="#8DA1FF"/>
<stop offset="1"/>
</linearGradient>
<linearGradient id="paint5_linear_347_315" x1="15.422" y1="59.8026" x2="170.114" y2="59.8026" gradientUnits="userSpaceOnUse">
<stop/>
<stop offset="0.09" stop-color="#1C1F32"/>
<stop offset="0.25" stop-color="#4C5689"/>
<stop offset="0.38" stop-color="#6F7FC8"/>
<stop offset="0.48" stop-color="#8598F0"/>
<stop offset="0.53" stop-color="#8DA1FF"/>
<stop offset="1"/>
</linearGradient>
<linearGradient id="paint6_linear_347_315" x1="0.00252001" y1="93.4183" x2="195.871" y2="93.4183" gradientUnits="userSpaceOnUse">
<stop/>
<stop offset="0.09" stop-color="#1C1F32"/>
<stop offset="0.25" stop-color="#4C5689"/>
<stop offset="0.38" stop-color="#6F7FC8"/>
<stop offset="0.48" stop-color="#8598F0"/>
<stop offset="0.53" stop-color="#8DA1FF"/>
<stop offset="1"/>
</linearGradient>
<linearGradient id="paint7_linear_347_315" x1="16.9363" y1="129.55" x2="173.706" y2="129.55" gradientUnits="userSpaceOnUse">
<stop/>
<stop offset="0.09" stop-color="#1C1F32"/>
<stop offset="0.25" stop-color="#4C5689"/>
<stop offset="0.38" stop-color="#6F7FC8"/>
<stop offset="0.48" stop-color="#8598F0"/>
<stop offset="0.53" stop-color="#8DA1FF"/>
<stop offset="1"/>
</linearGradient>
<linearGradient id="paint8_linear_347_315" x1="40.0153" y1="160.01" x2="181.686" y2="160.01" gradientUnits="userSpaceOnUse">
<stop/>
<stop offset="0.09" stop-color="#1C1F32"/>
<stop offset="0.25" stop-color="#4C5689"/>
<stop offset="0.38" stop-color="#6F7FC8"/>
<stop offset="0.48" stop-color="#8598F0"/>
<stop offset="0.53" stop-color="#8DA1FF"/>
<stop offset="1"/>
</linearGradient>
<linearGradient id="paint9_linear_347_315" x1="101.707" y1="177.956" x2="142.191" y2="177.956" gradientUnits="userSpaceOnUse">
<stop/>
<stop offset="0.09" stop-color="#1C1F32"/>
<stop offset="0.25" stop-color="#4C5689"/>
<stop offset="0.38" stop-color="#6F7FC8"/>
<stop offset="0.48" stop-color="#8598F0"/>
<stop offset="0.53" stop-color="#8DA1FF"/>
<stop offset="1"/>
</linearGradient>
</defs>
</svg>
