<svg width="400" height="215" viewBox="0 0 400 215" fill="none" xmlns="http://www.w3.org/2000/svg">
<path d="M175.451 159.046L165.884 142.83L161.37 135.811C161.166 135.526 160.975 135.232 160.801 134.928L161.37 135.811C162.324 137.149 164.303 139.313 166.097 137.235L167.122 134.8C167.465 133.982 167.574 133.085 167.435 132.209L161.74 94.5792C161.618 93.7723 161.293 93.0095 160.797 92.3617C160.3 91.7139 159.648 91.2021 158.901 90.8739C158.154 90.5457 157.336 90.4118 156.523 90.4846C155.71 90.5574 154.929 90.8346 154.252 91.2903L149.126 94.6219C148.213 95.2237 147.53 96.1169 147.19 97.1562L136.982 127.795C136.69 128.722 136.69 129.716 136.982 130.643L141.509 146.546C141.583 146.792 141.635 147.045 141.666 147.3L145.795 182.41C145.888 183.219 146.184 183.991 146.655 184.654C147.127 185.318 147.759 185.851 148.492 186.205C149.225 186.559 150.036 186.722 150.849 186.678C151.661 186.634 152.45 186.385 153.141 185.955L161.256 185.329C162.337 184.662 163.114 183.599 163.42 182.367L176.021 162.677C176.309 161.439 176.105 160.137 175.451 159.046Z" fill="url(#paint0_linear_860_1116)"/>
<path style="mix-blend-mode:multiply" opacity="0.14" d="M153.141 186.013L161.257 185.386C162.338 184.72 163.115 183.657 163.421 182.425L176.021 162.678C176.322 161.445 176.134 160.143 175.494 159.047L165.927 142.83L161.413 135.811C161.209 135.527 161.019 135.232 160.844 134.929L163.435 158.42L152.572 162.692L147.859 185.828C148.624 186.374 149.533 186.683 150.473 186.716C151.412 186.749 152.34 186.504 153.141 186.013Z" fill="url(#paint1_linear_860_1116)"/>
<path style="mix-blend-mode:multiply" opacity="0.14" d="M144.357 131.425L160.802 134.928L161.371 135.811C162.325 137.149 164.304 139.313 166.098 137.234L167.123 134.8C167.466 133.982 167.575 133.085 167.436 132.208L161.926 96.2305L144.357 105.599V131.425Z" fill="url(#paint2_linear_860_1116)"/>
<path style="mix-blend-mode:multiply" opacity="0.14" d="M173.246 160.826L163.393 158.42L152.53 162.72L167.494 164.727L168.932 173.768L175.979 162.663L173.246 160.826Z" fill="url(#paint3_linear_860_1116)"/>
<path style="mix-blend-mode:multiply" opacity="0.14" d="M144.357 131.426L149.511 161.908L147.817 134.103L160.802 134.928L162.111 136.722C163.151 137.875 164.689 138.872 166.098 137.249L167.123 134.814C167.466 133.997 167.575 133.099 167.436 132.223L166.34 125.104L147.831 126.827L144.357 131.426Z" fill="url(#paint4_linear_860_1116)"/>
<path style="mix-blend-mode:multiply" opacity="0.14" d="M165.955 122.527L164.588 113.643L159.904 112.945L165.955 122.527Z" fill="url(#paint5_linear_860_1116)"/>
<path style="mix-blend-mode:color-dodge" opacity="0.32" d="M144.357 107.137L143.019 131.768L149.511 161.908L144.983 132.109L157.655 134.515L147.817 134.102C147.817 134.102 159.42 134.999 159.904 136.38C160.388 137.761 162.922 158.42 162.922 158.42L151.048 162.478L147.817 185.258C147.817 185.258 152.728 163.901 154.651 163.617C156.573 163.332 167.464 164.77 167.464 164.77C167.464 164.77 154.651 162.421 155.903 161.922C157.156 161.424 163.35 158.904 163.35 158.904L173.216 160.855C173.216 160.855 163.876 158.52 163.435 156.099C162.994 153.679 159.89 135.427 165.855 142.844L162.083 136.736L164.218 130.33C164.218 130.33 163.221 134.344 156.402 133.177C149.582 132.01 144.784 132.408 146.065 130.614C146.738 129.728 147.315 128.774 147.788 127.767L166.297 125.19C166.297 125.19 148.557 126.4 147.788 125.546C146.978 124.007 146.371 122.371 145.98 120.677C145.98 120.677 145.852 128.479 144.428 129.917L144.357 107.137Z" fill="url(#paint6_linear_860_1116)"/>
<g style="mix-blend-mode:multiply" opacity="0.24">
<path d="M163.422 182.41L176.022 162.677C176.324 161.445 176.135 160.143 175.495 159.047L165.928 142.83L161.415 135.811C161.21 135.527 161.02 135.232 160.845 134.929L161.415 135.811C162.369 137.15 164.348 139.314 166.141 137.235L167.167 134.8C167.51 133.983 167.618 133.085 167.48 132.209L161.785 94.5797C161.666 93.766 161.341 92.996 160.842 92.3424C160.343 91.6888 159.686 91.1731 158.932 90.844C158.179 90.5149 157.353 90.3832 156.535 90.4614C155.716 90.5396 154.931 90.825 154.253 91.2908L149.128 94.6224C148.215 95.2242 147.532 96.1174 147.191 97.1567L152.53 125.788L148.8 132.907L159.023 159.83L155.933 163.617L153.769 186.041L161.258 185.457C161.802 185.118 162.274 184.673 162.645 184.15C163.016 183.627 163.281 183.036 163.422 182.41Z" fill="#2E1D72"/>
</g>
<path d="M316.16 89.8666L311.79 88.7133L312.886 83.2319C309.213 75.8996 304.343 66.7592 298.734 56.9923L292.028 50.4431C292.028 50.4431 295.118 50.9272 294.164 49.2899C292.128 45.9583 290.021 42.5983 287.828 39.3236L283.172 37.4728C285.778 36.8606 285.109 35.266 284.753 34.6253C282.005 30.5534 279.143 26.5384 276.21 22.6516C275.344 21.9168 274.292 21.4339 273.17 21.2557C272.047 21.0774 270.898 21.2106 269.846 21.6407C272.551 19.9607 272.85 18.7932 272.608 17.9959C267.963 12.0879 262.916 6.5078 257.502 1.29542C256.835 0.662667 255.988 0.25184 255.078 0.119292C254.168 -0.013256 253.239 0.138965 252.419 0.555077C244.55 4.57649 236.899 9.0105 229.497 13.8386L230.593 17.1559C229.104 16.4783 227.488 16.1241 225.852 16.1166C222.378 18.4041 218.686 20.9573 214.776 23.7764C211.344 27.6489 217.837 28.375 217.837 28.375L205.649 30.5676C199.556 35.2375 193.12 40.5338 186.415 46.3285L143.574 105.656C156.425 120.008 170.219 133.488 184.863 146.005C193.961 152.953 199.855 152.284 199.855 152.284C198.773 156.056 200.424 157.979 201.279 158.776C205.956 162.115 210.829 165.172 215.872 167.93C217.069 168.589 218.414 168.934 219.78 168.934C221.146 168.934 222.491 168.589 223.688 167.93C237.556 160.2 286.333 132.18 316.232 104.303C317.576 103.066 318.487 101.43 318.833 99.6366C319.179 97.8429 318.941 95.9855 318.154 94.3371C317.712 93.0415 316.972 91.5039 316.16 89.8666Z" fill="url(#paint7_linear_860_1116)"/>
<g style="mix-blend-mode:multiply" opacity="0.24">
<path d="M184.977 146.005C194.075 152.953 199.969 152.283 199.969 152.283C198.887 156.056 200.539 157.978 201.393 158.776C206.071 162.115 210.944 165.172 215.986 167.93C217.184 168.588 218.528 168.933 219.894 168.933C221.261 168.933 222.605 168.588 223.802 167.93C237.67 160.2 286.447 132.18 316.346 104.303C317.69 103.066 318.602 101.43 318.948 99.6366C319.293 97.8429 319.055 95.9855 318.268 94.3371C317.656 93.013 316.93 91.4896 316.104 89.7811L311.733 88.6279L312.829 83.1465C309.156 75.8142 304.287 66.6737 298.677 56.9068L291.971 50.3576C291.971 50.3576 295.061 50.8417 294.107 49.2044C292.071 45.8728 289.964 42.5128 287.771 39.2382L283.116 37.3873C285.721 36.7751 285.052 35.1805 284.696 34.5398C281.948 30.4679 279.087 26.4529 276.154 22.5661C275.287 21.8313 274.235 21.3485 273.113 21.1702C271.991 20.992 270.841 21.1252 269.789 21.5553C272.495 19.8752 272.794 18.7078 272.551 17.9105C267.907 12.0024 262.859 6.42232 257.446 1.20995C256.787 0.592471 255.959 0.185911 255.068 0.0424805L259.339 19.3485L259.966 22.1959L260.478 26.0828L263.852 37.3731L264.749 40.3914L266.97 44.8762L270.032 53.9454L271.199 57.4336V60.096L279.186 74.7891L258.399 121.502L236.574 146.389H234.395L220.087 137.989L209.351 140.58L195.484 148.696L180.179 141.833L183.567 132.152L229.953 110.682L236.63 75.9993L154.338 90.792L143.617 105.656C156.491 120.01 170.308 133.49 184.977 146.005Z" fill="#2E1D72"/>
</g>
<path style="mix-blend-mode:multiply" opacity="0.14" d="M294.192 49.2331L293.722 48.4785C293.338 50.5002 285.693 47.8663 285.693 47.8663L270.031 53.9457L224.329 26.6667C224.329 26.6667 219.944 26.9657 218.392 27.222C216.811 27.1629 215.259 26.775 213.836 26.083C214.178 27.9481 217.88 28.3752 217.88 28.3752L221.482 31.8349L205.692 30.5678L206.86 47.2968L223.532 33.0594L236.573 37.9286L271.242 57.505L292.028 50.3863C292.028 50.3863 295.118 50.8704 294.192 49.2331Z" fill="url(#paint8_linear_860_1116)"/>
<path style="mix-blend-mode:multiply" opacity="0.14" d="M237.94 40.6623C237.94 40.6623 235.889 38.6121 232.814 42.8833C229.739 47.1545 223.232 59.8401 223.232 59.8401C223.232 59.8401 240.673 70.4328 242.04 70.5039C243.407 70.5751 245.642 68.0978 245.642 68.0978L247.521 89.1692L248.205 90.593L265.831 96.0459L281.207 71.8423L269.404 97.2419L265.831 96.1171L248.547 123.396L238.794 113.117C238.794 113.117 224.044 126.044 224.329 127.867C224.613 129.689 228.358 136.039 228.358 136.039L220.157 131.255C219.132 131.597 220.157 130.913 219.132 131.597C218.107 132.28 201.335 148.013 201.335 148.013L199.911 152.284C198.829 156.057 200.481 157.979 201.335 158.776C206.013 162.116 210.886 165.173 215.929 167.931C217.126 168.589 218.47 168.934 219.837 168.934C221.203 168.934 222.547 168.589 223.745 167.931C237.612 160.2 286.39 132.181 316.288 104.304C317.632 103.066 318.544 101.431 318.89 99.6369C319.236 97.8432 318.998 95.9858 318.21 94.3374C317.598 93.0133 316.872 91.4899 316.046 89.7814L311.675 88.6282L312.772 83.1468C309.098 75.8145 304.229 66.6741 298.62 56.9072L291.914 50.358L271.127 60.0679L237.94 40.6623Z" fill="url(#paint9_linear_860_1116)"/>
<path style="mix-blend-mode:multiply" opacity="0.14" d="M264.792 40.3915L283.173 37.3447C285.778 36.7325 285.109 35.1379 284.753 34.4972C282.005 30.4253 279.144 26.4104 276.211 22.5236C275.344 21.7887 274.292 21.3059 273.17 21.1276C272.048 20.9494 270.898 21.0826 269.847 21.5127L260.535 26.026L264.792 40.3915Z" fill="url(#paint10_linear_860_1116)"/>
<path style="mix-blend-mode:multiply" opacity="0.14" d="M271.241 60.0966L250.17 47.7954L245.643 68.0411L247.522 89.1125L248.205 90.4793L261.361 94.5654L271.241 60.0966Z" fill="url(#paint11_linear_860_1116)"/>
<path style="mix-blend-mode:multiply" opacity="0.14" d="M290.191 54.9566L295.061 58.9858L295.488 97.555L315.676 93.2838L296.513 114.825L248.547 123.225L238.794 112.946L228.515 122.499L239.819 156.014L228.429 135.868L220.157 131.255L219.559 164.215L200.78 158.093C200.974 158.348 201.199 158.577 201.449 158.776C206.127 162.116 211 165.173 216.043 167.931C217.24 168.589 218.585 168.934 219.951 168.934C221.317 168.934 222.662 168.589 223.859 167.931C237.726 160.2 286.504 132.181 316.403 104.304C317.746 103.066 318.658 101.431 319.004 99.6369C319.35 97.8432 319.112 95.9858 318.325 94.3374C317.712 93.0133 316.986 91.4899 316.16 89.7814L311.79 88.6282L312.886 83.1467C309.213 75.8145 304.343 66.674 298.734 56.9071L292.028 50.3579L271.241 60.0678L290.191 54.9566Z" fill="url(#paint12_linear_860_1116)"/>
<path style="mix-blend-mode:multiply" opacity="0.14" d="M183.51 132.152L206.29 123.809L229.881 110.682L236.558 75.9995L173.43 88.443L169.941 132.579L171.564 134.088L173.743 127.681L183.51 132.152Z" fill="url(#paint13_linear_860_1116)"/>
<path style="mix-blend-mode:multiply" opacity="0.14" d="M271.241 57.4343L292.028 50.3155C292.028 50.3155 295.117 50.7996 294.164 49.1623C292.128 45.8307 290.02 42.4707 287.828 39.1961L283.172 37.3452L267.013 44.8768L271.241 57.4343Z" fill="url(#paint14_linear_860_1116)"/>
<path style="mix-blend-mode:multiply" opacity="0.14" d="M259.381 19.3632L260.007 22.2107L269.831 21.5842C272.536 19.9042 272.835 18.7368 272.593 17.9395L259.381 19.3632Z" fill="url(#paint15_linear_860_1116)"/>
<g style="mix-blend-mode:multiply" opacity="0.24">
<path d="M180.122 141.833L189.433 135.014L229.896 110.682L236.574 75.9995L153.156 92.4295L143.617 105.656C155.066 118.421 167.255 130.501 180.122 141.833Z" fill="#2E1D72"/>
</g>
<path style="mix-blend-mode:multiply" opacity="0.14" d="M284.753 34.5545C284.624 37.0603 263.895 37.402 263.895 37.402L234.95 17.4695L260.022 22.1964L269.846 21.5699C272.551 19.8899 272.85 18.7224 272.608 17.9251C267.963 12.0171 262.916 6.43697 257.502 1.2246C256.844 0.607124 256.016 0.200559 255.124 0.0571289L259.396 19.3631L229.497 13.7678L230.593 17.0851L264.763 40.3918L283.144 37.345C285.778 36.7328 285.109 35.1382 284.753 34.5545Z" fill="url(#paint16_linear_860_1116)"/>
<path style="mix-blend-mode:multiply" opacity="0.14" d="M247.522 89.1124L235.563 81.2676L229.896 110.682L189.434 135.014L220.158 131.241L224.33 127.696L228.515 122.499L235.235 112.035L248.206 90.4792L247.522 89.1124Z" fill="url(#paint17_linear_860_1116)"/>
<path style="mix-blend-mode:multiply" opacity="0.14" d="M224.329 127.695L229.896 110.682L235.235 112.034L228.515 122.499L224.329 127.695Z" fill="url(#paint18_linear_860_1116)"/>
<path style="mix-blend-mode:multiply" opacity="0.14" d="M224.329 26.6668L230.579 17.085L245.643 27.3359L231.718 31.0661L224.329 26.6668Z" fill="url(#paint19_linear_860_1116)"/>
<path style="mix-blend-mode:multiply" opacity="0.24" d="M294.192 49.2331L293.722 48.4785C293.338 50.5002 285.693 47.8663 285.693 47.8663L270.031 53.9457L224.329 26.6667C224.329 26.6667 219.944 26.9657 218.392 27.222C216.811 27.1629 215.259 26.775 213.836 26.083C214.178 27.9481 217.88 28.3752 217.88 28.3752L221.482 31.8349L205.692 30.5678L206.86 47.2968L223.532 33.0594L236.573 37.9286L271.242 57.505L292.028 50.3863C292.028 50.3863 295.118 50.8704 294.192 49.2331Z" fill="url(#paint20_linear_860_1116)"/>
<path style="mix-blend-mode:multiply" opacity="0.24" d="M284.753 34.5545C284.624 37.0603 263.895 37.402 263.895 37.402L234.95 17.4695L260.022 22.1964L269.846 21.5699C272.551 19.8899 272.85 18.7224 272.608 17.9251C267.963 12.0171 262.916 6.43697 257.502 1.2246C256.844 0.607124 256.016 0.200559 255.124 0.0571289L259.396 19.3631L229.497 13.7678L230.593 17.0851L264.763 40.3918L283.144 37.345C285.778 36.7328 285.109 35.1382 284.753 34.5545Z" fill="url(#paint21_linear_860_1116)"/>
<path style="mix-blend-mode:color-dodge" opacity="0.32" d="M229.483 13.7676C229.483 13.7676 257.332 18.4233 257.588 17.0849C257.844 15.7466 255.111 0 255.111 0L259.382 19.306L229.483 13.7676Z" fill="url(#paint22_linear_860_1116)"/>
<path style="mix-blend-mode:color-dodge" opacity="0.32" d="M260.022 22.1961L239.663 19.3486C239.663 19.3486 261.304 34.7678 261.816 34.1698C262.329 33.5718 260.022 26.0829 260.022 26.0829L260.179 23.0646C260.179 23.0646 260.834 25.5989 261.603 25.2429C262.371 24.887 269.832 21.527 269.832 21.527C269.832 21.527 260.691 25.9406 261.375 27.8626C262.058 29.7847 262.799 36.7041 268.337 37.3021H263.895L234.95 17.3696L260.022 22.1961Z" fill="url(#paint23_linear_860_1116)"/>
<path style="mix-blend-mode:color-dodge" opacity="0.32" d="M230.58 17.085L225.511 26.5813C225.511 26.5813 230.793 29.8559 233.085 29.9698C235.378 30.0837 245.643 27.3359 245.643 27.3359C245.643 27.3359 233.57 30.8668 234.253 31.9631C234.936 33.0594 267.796 52.166 268.309 52.0379C268.821 51.9097 266.572 44.9192 265.162 44.3354C265.397 43.0069 265.248 41.6392 264.735 40.3917L267.341 44.0791L278.588 39.4662C278.588 39.4662 267.54 44.791 268.11 46.9694C268.679 49.1477 269.79 52.5362 270.957 52.8352C272.124 53.1342 285.351 47.9802 285.351 47.9802L270.046 53.9457L224.329 26.6668L221.667 26.8661C221.667 26.8661 224.429 26.5101 230.58 17.085Z" fill="url(#paint24_linear_860_1116)"/>
<path style="mix-blend-mode:color-dodge" opacity="0.32" d="M205.835 32.2192C205.835 32.2192 206.903 44.8763 207.672 44.7055C208.441 44.5346 223.532 32.9881 223.532 32.9881L236.574 37.8573L271.242 57.4338L282.632 53.5754C282.632 53.5754 271.712 58.0175 271.769 58.9856C271.826 59.9538 282.276 54.9564 282.276 54.9564L275.955 58.3022L289.551 54.9564C289.551 54.9564 272.196 60.267 272.837 61.7192C273.477 63.1715 275.684 68.1688 275.684 68.1688C275.684 68.1688 271.925 61.6338 271.285 62.6589C270.644 63.684 261.859 93.7108 261.859 93.7108L263.383 95.9318L259.425 108.148C259.425 108.148 251.068 121.161 251.324 121.417C253.694 121.57 256.07 121.599 258.443 121.502L248.548 123.225L238.709 114.683C238.709 114.683 229.042 122.086 229.469 123.225C229.896 124.364 233.057 135.953 233.057 135.953C233.057 135.953 229.185 124.905 227.932 124.834C226.679 124.763 224.33 127.681 224.33 127.681C224.33 127.681 221.069 131.753 222.037 132.294C222.037 132.294 219.19 131.269 211.402 138.601C211.402 138.601 216.3 133.889 215.673 133.291C215.047 132.693 190.046 135.597 190.046 135.597L180.436 141.819C180.436 141.819 189.149 135.256 190.046 132.949L229.911 110.668L192.281 134.088C192.281 134.088 217.61 131.241 219.831 130.472C222.052 129.703 229.797 111.408 229.797 111.408L225.853 124.834L235.207 112.02L230.936 119.594C230.936 119.594 237.699 114.54 239.578 110.013C239.578 110.013 246.17 121.559 248.733 121.403C251.295 121.246 260.792 98.822 260.792 98.822C260.792 98.822 251.637 90.1229 249.245 91.3901C246.853 92.6572 236.688 109.557 236.688 109.557C236.688 109.557 246.483 92.045 245.316 89.4111C244.148 86.7771 235.563 81.3242 235.563 81.3242C235.563 81.3242 246.084 87.7738 246.583 85.9798C247.081 84.1859 245.785 69.6637 245.785 69.6637C245.785 69.6637 247.693 88.8273 250.769 90.1087C253.844 91.3901 259.411 93.1555 260.735 92.5148C262.059 91.8741 270.388 60.6657 269.021 59.3985C267.654 58.1314 251.238 49.1476 250.64 49.831C250.042 50.5144 246.54 63.7837 246.54 63.7837C246.54 63.7837 250.128 48.9482 247.309 47.2967C244.49 45.6452 236.901 41.1176 235.52 41.7583C234.139 42.399 226.479 53.5327 226.479 53.5327C226.479 53.5327 233.598 40.0071 232.602 38.2844C231.605 36.5617 224.643 33.8423 223.361 34.184C222.08 34.5257 207.003 48.2079 207.003 48.2079L204.326 45.9014C205.697 41.4787 206.209 36.8345 205.835 32.2192Z" fill="url(#paint25_linear_860_1116)"/>
<g style="mix-blend-mode:multiply" opacity="0.24">
<path d="M214.334 153.053L219.858 147.5L228.87 155.957L220.157 149.721L214.334 153.053Z" fill="#2E1D72"/>
</g>
<g style="mix-blend-mode:multiply" opacity="0.24">
<path d="M227.248 100.374H231.889L236.574 105.044L231.619 101.712L227.248 100.374Z" fill="#2E1D72"/>
</g>
<g style="mix-blend-mode:multiply" opacity="0.24">
<path d="M251.95 8.94132L256.449 6.07959L259.069 8.10131L256.62 6.74875L251.95 8.94132Z" fill="#2E1D72"/>
</g>
<g style="mix-blend-mode:multiply" opacity="0.24">
<path d="M248.803 11.9455L257.075 8.94141L261.118 11.9455L257.288 9.90955L248.803 11.9455Z" fill="#2E1D72"/>
</g>
<g style="mix-blend-mode:multiply" opacity="0.24">
<path d="M246.497 128.251L249.658 131.497V137.406L248.206 133.149L246.497 128.251Z" fill="#2E1D72"/>
</g>
<g style="mix-blend-mode:multiply" opacity="0.24">
<path d="M248.974 126.798L252.22 128.849L252.647 143.385L250.81 130.173L248.974 126.798Z" fill="#2E1D72"/>
</g>
<g style="mix-blend-mode:multiply" opacity="0.24">
<path d="M253.942 5.29641C257.544 5.01166 260.819 5.09709 262.343 6.07947C262.343 6.07947 263.339 4.92624 260.235 3.91538C258.835 3.58837 257.402 3.41649 255.964 3.40283C256.448 4.82658 254.754 5.19675 253.942 5.29641Z" fill="#2E1D72"/>
</g>
<path d="M189.49 179.178L195.541 158.89C195.607 158.671 195.731 158.473 195.9 158.318C196.068 158.163 196.275 158.056 196.499 158.008C196.723 157.96 196.955 157.973 197.172 158.046C197.389 158.118 197.583 158.247 197.734 158.42L216.242 179.961C216.462 180.211 216.575 180.536 216.559 180.868C216.544 181.2 216.399 181.513 216.157 181.741L214.918 182.908C214.715 183.096 214.58 183.347 214.534 183.62L211.458 201.275C211.417 201.51 211.31 201.729 211.15 201.907C210.99 202.084 210.784 202.214 210.554 202.281C210.325 202.347 210.081 202.348 209.851 202.284C209.621 202.219 209.413 202.092 209.252 201.915L189.689 180.402C189.555 180.232 189.467 180.03 189.432 179.816C189.397 179.602 189.417 179.382 189.49 179.178Z" fill="url(#paint26_linear_860_1116)"/>
<path style="mix-blend-mode:multiply" opacity="0.24" d="M211.53 201.275L214.605 183.62C214.651 183.347 214.786 183.097 214.989 182.908L216.228 181.741C216.47 181.513 216.615 181.2 216.631 180.868C216.647 180.536 216.533 180.211 216.313 179.961L197.805 158.42L198.588 180.161L208.554 200.933L209.451 201.915C209.615 202.058 209.813 202.156 210.026 202.201C210.239 202.246 210.46 202.236 210.668 202.172C210.876 202.108 211.064 201.992 211.215 201.835C211.366 201.678 211.474 201.485 211.53 201.275Z" fill="url(#paint27_linear_860_1116)"/>
<path style="mix-blend-mode:multiply" opacity="0.24" d="M216.228 181.741C216.47 181.513 216.615 181.2 216.631 180.868C216.647 180.536 216.533 180.211 216.313 179.961L214.534 177.897L213.822 177.769L198.517 180.16L214.605 183.62C214.651 183.347 214.786 183.097 214.989 182.908L216.228 181.741Z" fill="url(#paint28_linear_860_1116)"/>
<path style="mix-blend-mode:color-dodge" opacity="0.32" d="M197.734 160.043L197.378 180.702L207.999 200.121C207.999 200.121 199.727 182.438 200.738 181.855C201.749 181.271 210.306 182.709 210.306 182.709C210.306 182.709 196.068 180.73 209.523 178.438C209.523 178.438 200.211 179.862 199.556 178.438C198.901 177.014 197.734 160.043 197.734 160.043Z" fill="url(#paint29_linear_860_1116)"/>
<path style="mix-blend-mode:color-dodge" opacity="0.68" d="M189.49 179.164L196.808 165.496L195.541 158.89L189.49 179.164Z" fill="url(#paint30_linear_860_1116)"/>
<path d="M216.556 208.037L219.688 190.497C219.726 190.292 219.821 190.102 219.962 189.948C220.103 189.795 220.284 189.684 220.485 189.628L225.881 188.119C226.067 188.064 226.263 188.058 226.452 188.101C226.641 188.144 226.815 188.235 226.958 188.366C227.102 188.496 227.209 188.661 227.269 188.845C227.33 189.029 227.342 189.225 227.305 189.415L222.464 213.305C222.42 213.506 222.323 213.691 222.181 213.84C222.04 213.989 221.861 214.096 221.663 214.15C221.465 214.205 221.255 214.204 221.058 214.148C220.86 214.091 220.682 213.982 220.542 213.832L217.154 210.059C216.909 209.789 216.728 209.466 216.624 209.116C216.521 208.766 216.497 208.398 216.556 208.037Z" fill="url(#paint31_linear_860_1116)"/>
<path style="mix-blend-mode:multiply" opacity="0.24" d="M220.513 213.889C220.653 214.039 220.831 214.148 221.029 214.204C221.226 214.26 221.435 214.261 221.633 214.207C221.831 214.153 222.011 214.045 222.152 213.896C222.293 213.748 222.391 213.563 222.435 213.362L227.276 189.529C227.309 189.36 227.304 189.186 227.258 189.019C227.213 188.853 227.13 188.7 227.015 188.572C226.901 188.443 226.758 188.343 226.598 188.28C226.438 188.216 226.266 188.19 226.094 188.205L221.609 193.472L217.039 210.045L217.124 210.173L220.513 213.889Z" fill="url(#paint32_linear_860_1116)"/>
<path style="mix-blend-mode:multiply" opacity="0.24" d="M222.436 213.363L226.38 193.857L221.611 193.416L219.489 212.75L220.514 213.889C220.654 214.04 220.833 214.149 221.03 214.205C221.228 214.261 221.437 214.262 221.635 214.208C221.833 214.153 222.012 214.046 222.153 213.897C222.295 213.748 222.393 213.563 222.436 213.363Z" fill="url(#paint33_linear_860_1116)"/>
<path style="mix-blend-mode:color-dodge" opacity="0.32" d="M217.979 206.614L221.026 192.832L225.796 188.561C225.796 188.561 222.692 192.974 225.454 193.828C225.454 193.828 221.852 191.992 220.542 203.211C220.542 203.154 221.582 191.735 217.979 206.614Z" fill="url(#paint34_linear_860_1116)"/>
<path style="mix-blend-mode:color-dodge" opacity="0.68" d="M220.484 189.685L221.025 192.761L226.095 188.147L220.484 189.685Z" fill="url(#paint35_linear_860_1116)"/>
<path d="M306.778 130.771L299.403 121.018C298.851 120.309 298.106 119.773 297.258 119.475C296.409 119.177 295.493 119.13 294.619 119.338C296.156 118.598 296.142 114.355 296.142 114.355L294.391 102.595C294.318 102.105 294.082 101.654 293.722 101.314L264.094 73.9635C263.779 73.6682 263.382 73.4747 262.955 73.4083L257.374 72.5398C257.086 72.4955 256.793 72.5087 256.511 72.5788C256.229 72.6489 255.964 72.7743 255.73 72.9479C255.497 73.1214 255.301 73.3396 255.153 73.5898C255.005 73.8399 254.908 74.117 254.868 74.4049L249.6 113.985C249.553 114.322 249.586 114.666 249.697 114.988C249.809 115.309 249.995 115.6 250.241 115.836L279.072 143.812C279.204 143.934 279.319 144.073 279.413 144.225L282.417 149.095C282.417 149.095 284.88 149.991 286.318 144.937C286.453 144.068 286.638 143.207 286.874 142.36C286.743 143.23 286.557 144.091 286.318 144.937C285.792 148.24 285.464 154.12 288.483 158.904L289.294 160.228C289.337 160.291 289.375 160.358 289.408 160.428L299.887 182.14C300.122 182.628 300.531 183.011 301.034 183.214C301.537 183.417 302.098 183.424 302.606 183.236L311.946 179.79C312.413 179.62 312.808 179.296 313.066 178.872C313.325 178.448 313.432 177.948 313.37 177.456L307.247 131.796C307.18 131.42 307.019 131.067 306.778 130.771Z" fill="url(#paint36_linear_860_1116)"/>
<path style="mix-blend-mode:multiply" opacity="0.14" d="M302.578 183.236L311.918 179.79C312.384 179.62 312.779 179.296 313.038 178.872C313.297 178.448 313.404 177.948 313.341 177.456L307.219 131.796C307.165 131.424 307.018 131.072 306.792 130.771L299.417 121.018C298.865 120.309 298.12 119.773 297.272 119.475C296.424 119.177 295.508 119.13 294.633 119.338C296.171 118.598 296.157 114.355 296.157 114.355L294.406 102.595C294.333 102.105 294.097 101.654 293.736 101.314L264.094 73.9635C263.779 73.6682 263.382 73.4747 262.955 73.4083L257.374 72.5398C257.087 72.4955 256.793 72.5087 256.511 72.5788C256.229 72.6489 255.964 72.7743 255.731 72.9479C255.498 73.1214 255.301 73.3396 255.153 73.5898C255.005 73.8399 254.908 74.117 254.868 74.4049V74.5472L270.529 113.871L288.753 123.98L279.955 139.014L281.051 146.945L282.375 149.095C282.375 149.095 284.838 149.991 286.276 144.937C286.41 144.068 286.596 143.207 286.831 142.36C286.7 143.23 286.515 144.091 286.276 144.937C285.979 146.791 285.879 148.672 285.977 150.547L290.476 131.839L296.769 122.357L304.272 132.565L298.463 179.363L299.802 182.14C300.038 182.641 300.457 183.034 300.972 183.238C301.488 183.442 302.062 183.441 302.578 183.236Z" fill="url(#paint37_linear_860_1116)"/>
<path style="mix-blend-mode:multiply" opacity="0.14" d="M262.955 73.4085L259.666 72.896L270.657 109.529L266.528 76.2133L264.094 73.9638C263.779 73.6685 263.382 73.475 262.955 73.4085Z" fill="url(#paint38_linear_860_1116)"/>
<path style="mix-blend-mode:multiply" opacity="0.14" d="M274.886 116.278L294.619 119.339C296.157 118.598 296.142 114.355 296.142 114.355L294.391 102.595C294.318 102.105 294.083 101.654 293.722 101.314L270.529 113.871L274.886 116.278Z" fill="url(#paint39_linear_860_1116)"/>
<path style="mix-blend-mode:multiply" opacity="0.14" d="M298.463 179.363L299.801 182.14C300.037 182.628 300.446 183.011 300.949 183.214C301.452 183.416 302.012 183.424 302.521 183.236L311.86 179.79C312.327 179.62 312.722 179.296 312.981 178.872C313.24 178.448 313.346 177.948 313.284 177.455L307.162 131.796C307.135 131.611 307.087 131.429 307.02 131.255L304.272 132.565L298.463 179.363Z" fill="url(#paint40_linear_860_1116)"/>
<path style="mix-blend-mode:multiply" opacity="0.14" d="M279.955 139.015L281.051 146.945L282.375 149.095C282.375 149.095 284.839 149.992 286.277 144.937C286.411 144.068 286.596 143.208 286.832 142.36C286.701 143.23 286.515 144.091 286.277 144.937C285.98 146.791 285.879 148.672 285.977 150.547L290.477 131.839L296.769 122.357H300.372L299.361 121.018C298.724 120.153 297.792 119.55 296.741 119.324L288.754 124.037L279.955 139.015Z" fill="url(#paint41_linear_860_1116)"/>
<path style="mix-blend-mode:color-dodge" opacity="0.32" d="M250.938 115.024L268.465 112.746L255.067 75.0742L269.646 108.945L260.364 75.2451C260.364 75.2451 270.586 111.095 273.519 110.839C276.452 110.582 291.7 102.296 291.7 102.296C291.7 102.296 273.192 112.362 274.615 114.626C276.039 116.89 288.696 123.866 288.696 123.866C288.696 123.866 268.992 113.145 250.938 115.024Z" fill="url(#paint42_linear_860_1116)"/>
<path style="mix-blend-mode:color-dodge" opacity="0.32" d="M307.006 131.255C303.746 132.679 296.755 122.356 296.755 122.356C296.755 122.356 301.539 130.372 302.279 131.853C302.735 132.736 298.406 132.55 294.861 132.266C297.823 132.707 301.339 133.547 302.251 135.113C302.763 135.996 299.645 169.781 299.645 169.781C301.419 156.819 303.876 143.959 307.006 131.255Z" fill="url(#paint43_linear_860_1116)"/>
<path style="mix-blend-mode:color-dodge" opacity="0.32" d="M296.813 122.356L290.52 131.839L286.021 150.547C286.021 150.547 292.2 133.39 294.919 132.266C294.745 128.858 295.395 125.46 296.813 122.356Z" fill="url(#paint44_linear_860_1116)"/>
<path d="M313.584 162.478L317.855 189.258C317.883 189.441 317.966 189.611 318.093 189.745C318.22 189.879 318.385 189.972 318.565 190.011C318.746 190.049 318.934 190.032 319.105 189.961C319.276 189.89 319.421 189.769 319.521 189.614L333.217 169.24C333.327 169.067 333.377 168.862 333.36 168.657L331.424 145.393C331.408 145.201 331.332 145.02 331.206 144.874C331.081 144.728 330.913 144.626 330.726 144.581L326.654 143.613C326.473 143.573 326.283 143.588 326.111 143.656C325.938 143.725 325.79 143.844 325.686 143.998L313.726 161.809C313.659 161.905 313.612 162.014 313.588 162.129C313.563 162.244 313.562 162.362 313.584 162.478Z" fill="url(#paint45_linear_860_1116)"/>
<path style="mix-blend-mode:multiply" opacity="0.14" d="M325.43 148.084L327.281 143.727L330.726 144.539C330.913 144.583 331.081 144.685 331.207 144.831C331.332 144.977 331.408 145.159 331.424 145.35L333.36 168.6C333.378 168.805 333.328 169.01 333.218 169.184L319.521 189.529C319.42 189.68 319.276 189.799 319.108 189.871L326.498 165.667L325.43 148.084Z" fill="url(#paint46_linear_860_1116)"/>
<path style="mix-blend-mode:multiply" opacity="0.14" d="M331.424 145.393L333.36 168.642C333.378 168.847 333.328 169.052 333.218 169.226L326.469 165.169L325.43 148.084L329.701 144.282L330.769 144.538C330.954 144.593 331.118 144.705 331.236 144.859C331.354 145.012 331.419 145.199 331.424 145.393Z" fill="url(#paint47_linear_860_1116)"/>
<path style="mix-blend-mode:color-dodge" opacity="0.32" d="M317.613 167.077C317.613 167.077 324.163 165.511 325.173 162.934C326.184 160.357 325.43 148.084 325.43 148.084C325.43 148.084 326.526 164.856 333.217 169.184C333.217 169.184 327.665 166.721 322.767 177.968C322.767 177.968 328.434 164.414 317.613 167.077Z" fill="url(#paint48_linear_860_1116)"/>
<path d="M332.035 138.716L336.762 161.823C336.769 161.899 336.769 161.975 336.762 162.051L335.822 185.728C335.819 185.923 335.878 186.115 335.99 186.274C336.103 186.434 336.263 186.555 336.448 186.618C336.633 186.681 336.833 186.684 337.02 186.626C337.207 186.569 337.371 186.454 337.488 186.297L359.798 154.775C359.878 154.671 359.932 154.549 359.955 154.42L364.966 128.564C364.996 128.42 364.989 128.27 364.947 128.128C364.905 127.987 364.828 127.858 364.724 127.753L357.99 120.976C357.896 120.876 357.78 120.8 357.652 120.753C357.523 120.706 357.385 120.69 357.25 120.705L345.86 121.873C345.621 121.9 345.402 122.017 345.247 122.2L332.291 137.961C332.191 138.057 332.116 138.176 332.072 138.307C332.027 138.439 332.014 138.579 332.035 138.716Z" fill="url(#paint49_linear_860_1116)"/>
<path style="mix-blend-mode:multiply" opacity="0.14" d="M345.803 121.873L357.193 120.705C357.329 120.69 357.466 120.706 357.595 120.753C357.723 120.8 357.839 120.876 357.933 120.976L364.667 127.753C364.772 127.858 364.848 127.987 364.89 128.128C364.933 128.27 364.939 128.42 364.909 128.564L359.898 154.42C359.875 154.549 359.822 154.671 359.741 154.775L339.809 182.866L348.238 149.009L337.417 160.741L346.757 145.08L343.795 123.724L345.062 122.172C345.156 122.071 345.271 121.991 345.399 121.94C345.527 121.888 345.665 121.865 345.803 121.873Z" fill="url(#paint50_linear_860_1116)"/>
<path style="mix-blend-mode:multiply" opacity="0.14" d="M364.98 128.564L359.969 154.419L348.365 149.009L337.545 160.741L346.885 145.08L357.264 120.705L358.075 121.047L364.738 127.753C364.842 127.857 364.919 127.986 364.961 128.128C365.003 128.27 365.01 128.419 364.98 128.564Z" fill="url(#paint51_linear_860_1116)"/>
<path style="mix-blend-mode:color-dodge" opacity="0.32" d="M338.328 159.346C338.328 159.346 346.073 151.971 346.486 153.338C346.899 154.704 342.343 173.028 342.343 173.028C342.343 173.028 347.383 152.754 348.935 151.914C350.487 151.074 359.926 154.42 359.926 154.42C359.926 154.42 349.661 149.451 348.252 147.301C346.842 145.151 353.349 129.846 353.349 129.846L347.07 140.567L344.222 126.215C344.222 126.215 346.187 142.361 345.361 145.664C344.536 148.967 338.328 159.346 338.328 159.346Z" fill="url(#paint52_linear_860_1116)"/>
<path d="M233.54 57.8183L223.873 39.0676C223.561 38.4532 223.019 37.9873 222.364 37.772L192.309 27.8058C191.936 27.6892 191.544 27.6504 191.156 27.6919L160.645 31.4933C160.284 31.5367 159.936 31.6539 159.622 31.8376C159.309 32.0214 159.037 32.2676 158.822 32.5611L156.758 35.4086L159.249 37.7151L155.59 37.0174L142.52 55.1132C142.316 55.3879 142.169 55.7009 142.088 56.0336C142.008 56.3662 141.995 56.7118 142.051 57.0495L142.791 61.8333C142.866 62.37 143.111 62.8687 143.489 63.257L152.188 84.1719C152.8 84.7983 157.598 83.6735 158.452 83.5312L231.547 77.3664C233.327 77.0531 233.54 57.8183 233.54 57.8183Z" fill="url(#paint53_linear_860_1116)"/>
<g style="mix-blend-mode:multiply" opacity="0.24">
<path d="M233.541 57.8183L223.873 39.0676C223.561 38.4531 223.019 37.9873 222.364 37.772L194.231 28.5034L213.85 39.0534L211.928 50.6996L204.995 49.7599C204.995 49.7599 176.99 51.7674 172.248 54.0312C171.01 54.7142 169.619 55.0724 168.205 55.0724C166.791 55.0724 165.4 54.7142 164.162 54.0312L143.674 55.2698L142.079 55.939C141.977 56.2951 141.953 56.6689 142.008 57.0353L155.306 65.4069L164.048 58.6726L175.068 57.7614L188.152 62.716L207.97 54.5437L216.684 66.3608L231.547 77.3663C233.327 77.0531 233.541 57.8183 233.541 57.8183Z" fill="#2E1D72"/>
</g>
<g style="mix-blend-mode:multiply" opacity="0.47">
<path d="M158.936 52.6076L167.223 47.2686L177.616 48.6923L202.588 47.2686L210.519 58.0321L205.834 73.6932C205.834 73.6932 203.855 79.3028 202.873 79.616C201.891 79.9293 152.188 84.172 152.188 84.172L142.734 61.4918L142.051 57.1209V56.6368C142.029 56.1338 142.197 55.641 142.521 55.256C142.845 54.871 143.303 54.6219 143.802 54.5581L158.936 52.6076Z" fill="#2E1D72"/>
</g>
<path d="M143.773 54.5009C143.773 54.5009 144.685 54.5009 153.014 62.7159C155.576 65.236 162.325 59.8684 162.325 59.8684C162.695 59.783 147.717 48.1795 143.773 54.5009Z" fill="#803472"/>
<path d="M176.904 56.8782C176.904 56.8782 185.447 61.7189 189.604 59.7257C193.761 57.7324 194.673 52.6069 199.898 48.3357C206.205 43.2529 191.355 47.9655 191.355 47.9655L176.904 56.8782Z" fill="#CC43BB"/>
<path style="mix-blend-mode:multiply" opacity="0.14" d="M142.378 55.3549L158.039 49.6599L167.009 44.207L162.14 39.0815L159.292 37.7432L157.398 38.8252L148.756 50.2152L144.869 51.9806L142.563 55.184C142.496 55.2354 142.434 55.2926 142.378 55.3549Z" fill="url(#paint54_linear_860_1116)"/>
<path style="mix-blend-mode:multiply" opacity="0.14" d="M208.014 54.558L220.158 66.2897L231.548 77.3664C233.299 77.0674 233.513 57.8184 233.513 57.8184L232.602 56.0672L213.04 53.4902L208.014 54.558Z" fill="url(#paint55_linear_860_1116)"/>
<path style="mix-blend-mode:multiply" opacity="0.14" d="M212.441 52.6074L222.849 37.9998C222.695 37.9096 222.533 37.8334 222.365 37.772L192.309 27.8058C191.937 27.6892 191.544 27.6504 191.156 27.6919V49.7599L212.441 52.6074Z" fill="url(#paint56_linear_860_1116)"/>
<g style="mix-blend-mode:color-dodge" opacity="0.68">
<path d="M158.823 32.5467L156.758 35.3942L159.25 37.7007L155.591 37.003L152.516 41.2743L157.356 38.7969H161.257C161.257 38.7969 156.474 32.1053 189.177 27.9907L160.645 31.4931C160.286 31.5348 159.938 31.6499 159.625 31.8311C159.311 32.0123 159.038 32.2558 158.823 32.5467Z" fill="#5F4972"/>
</g>
<path style="mix-blend-mode:color-dodge" opacity="0.32" d="M189.476 28.5033C191.27 28.5887 191.142 38.1135 191.142 38.1135C191.327 34.7677 192.138 29.329 192.366 27.891C191.978 27.7568 191.565 27.7083 191.156 27.7487L184.037 28.6172C186.614 28.5317 188.835 28.4605 189.476 28.5033Z" fill="url(#paint57_linear_860_1116)"/>
<path style="mix-blend-mode:color-dodge" opacity="0.32" d="M213.338 39.3095C213.807 39.6939 212.184 49.1903 211.273 49.6316C210.362 50.073 205.934 49.233 205.934 49.233L176.035 48.2079L167.094 46.5279L161.542 50.3435L159.534 49.6316L167.094 44.1787C167.094 44.1787 160.545 48.1652 159.705 48.1652C157.492 47.4936 155.377 46.5364 153.412 45.3177C153.07 44.8763 157.427 38.8112 157.427 38.8112C152.714 45.3177 149.824 45.1184 149.824 45.1184L158.936 52.6073L167.222 47.2682L177.616 48.692L175.622 49.6459C175.622 49.6459 199.128 50.5286 205.521 50.9272C211.914 51.3259 213.039 53.3618 213.039 53.3618L222.848 37.9996C222.848 37.9996 213.466 50.2581 212.953 50.3435C212.441 50.4289 213.38 45.1326 213.807 42.0431C214.234 38.9536 215.943 39.1956 215.943 39.1956C213.793 38.7969 202.517 32.4328 197.819 29.7419L194.145 28.5317C199.072 31.2226 212.953 38.9963 213.338 39.3095Z" fill="url(#paint58_linear_860_1116)"/>
<g style="mix-blend-mode:multiply" opacity="0.68">
<path d="M149.54 68.5109L151.348 83.6026L204.141 79.7158L209.152 62.8159L198.46 62.0044L189.917 67.9414C189.508 68.212 189.027 68.3563 188.536 68.3563C188.045 68.3563 187.565 68.212 187.155 67.9414L180.037 63.2858L159.748 64.8234L155.89 69.6641C155.52 70.1273 154.995 70.4414 154.411 70.5486C153.828 70.6559 153.226 70.5491 152.715 70.2479L149.54 68.5109Z" fill="#2E1D72"/>
</g>
<g style="mix-blend-mode:multiply" opacity="0.82">
<path d="M156.288 84.1716C156.288 84.1716 183.04 60.8934 208.013 73.465C232.985 86.0367 156.288 84.1716 156.288 84.1716Z" fill="#2E1D72"/>
</g>
<path d="M137.438 78.6049L142.151 75.3303C142.734 74.9202 143.431 74.7013 144.144 74.7039H144.827C145.668 74.7101 146.48 75.0126 147.12 75.5581L153.341 80.9684C153.755 81.3333 154.25 81.5936 154.785 81.7274C155.321 81.8612 155.88 81.8646 156.417 81.7372L181.717 75.8429C182.259 75.7078 182.826 75.7078 183.368 75.8429L191.911 78.0639C192.781 78.2893 193.706 78.1668 194.488 77.7222L214.135 66.7167C214.902 66.2889 215.8 66.162 216.655 66.3607L227.903 69.0374C228.187 69.0951 228.461 69.196 228.714 69.3364L237.741 74.0347C238.555 74.4626 239.169 75.1939 239.449 76.0704C239.728 76.9468 239.652 77.8982 239.236 78.7188L222.293 111.849C221.882 112.645 221.185 113.255 220.343 113.558L183.468 126.585C183.004 126.753 182.509 126.818 182.018 126.776C181.526 126.734 181.049 126.587 180.62 126.343L142.037 104.816C141.604 104.573 141.227 104.24 140.933 103.84C140.638 103.439 140.432 102.981 140.328 102.495L136.057 82.1928C135.905 81.5252 135.955 80.8274 136.201 80.1883C136.447 79.5493 136.878 78.998 137.438 78.6049Z" fill="url(#paint59_linear_860_1116)"/>
<path style="mix-blend-mode:multiply" opacity="0.14" d="M141.695 104.574L142.037 104.816L180.677 126.358C181.452 126.794 182.368 126.906 183.226 126.671C175.381 124.735 147.291 98.0679 147.291 98.0679C145.057 99.89 143.162 102.093 141.695 104.574Z" fill="url(#paint60_linear_860_1116)"/>
<g style="mix-blend-mode:multiply" opacity="0.14">
<path d="M237.812 74.0489L228.785 69.3505C228.532 69.2101 228.258 69.1093 227.974 69.0515L216.726 66.3749C215.871 66.1761 214.973 66.303 214.206 66.7308L212.455 67.7132C215.915 67.7132 218.378 79.9289 218.378 79.9289L215.787 83.5168L221.994 112.433C222.134 112.254 222.258 112.064 222.364 111.864L239.307 78.733C239.723 77.9124 239.799 76.961 239.52 76.0845C239.24 75.208 238.626 74.4768 237.812 74.0489Z" fill="#2E1D72"/>
</g>
<g style="mix-blend-mode:color-dodge" opacity="0.68">
<path d="M144.144 74.7036C143.431 74.7011 142.734 74.92 142.151 75.3301L137.438 78.6047C136.87 78.9923 136.43 79.5411 136.177 80.1805C135.923 80.82 135.866 81.5207 136.014 82.1925L139.531 98.7649C138.691 91.8882 138.15 79.6013 144.144 74.7036Z" fill="#5F4972"/>
</g>
<path style="mix-blend-mode:multiply" opacity="0.14" d="M237.813 74.0489L228.786 69.3505C228.532 69.2101 228.259 69.1093 227.975 69.0515L216.727 66.3749C215.872 66.1761 214.974 66.303 214.207 66.7308L212.456 67.7132C215.916 67.7132 218.379 79.9289 218.379 79.9289L215.787 83.5168C215.787 83.5168 190.16 92.3582 188.85 92.6287C187.54 92.8993 172.078 87.4321 168.718 86.7629L154.267 93.6538L158.168 81.3242L156.417 81.7229C155.88 81.8502 155.321 81.8469 154.786 81.7131C154.251 81.5793 153.756 81.319 153.342 80.954L147.12 75.6292C146.845 75.4013 146.538 75.2143 146.209 75.074L147.291 98.1386L171.011 91.5752L171.523 95.0064L219.304 114.028L220.415 113.643C221.257 113.34 221.954 112.73 222.365 111.935L239.308 78.8042C239.525 78.3944 239.658 77.9456 239.701 77.4839C239.743 77.0221 239.693 76.5565 239.554 76.1141C239.415 75.6717 239.189 75.2614 238.89 74.9069C238.592 74.5523 238.225 74.2607 237.813 74.0489Z" fill="url(#paint61_linear_860_1116)"/>
<path style="mix-blend-mode:multiply" opacity="0.14" d="M189.191 92.5009L202.147 88.2296L194.53 77.7366C193.748 78.1812 192.824 78.3037 191.953 78.0783L183.41 75.8573C183.254 75.8425 183.097 75.8425 182.94 75.8573L188.764 92.387L189.191 92.5009Z" fill="url(#paint62_linear_860_1116)"/>
<g style="mix-blend-mode:multiply" opacity="0.14">
<path d="M171.537 94.921L171.011 91.4897L147.291 98.0674L165.017 113.956L161.329 99.8044L171.537 94.921Z" fill="#2E1D72"/>
</g>
<path style="mix-blend-mode:multiply" opacity="0.14" d="M154.267 93.6541L158.168 81.3245L156.417 81.7231C155.88 81.8505 155.321 81.8471 154.786 81.7134C154.251 81.5796 153.756 81.3192 153.342 80.9543L147.12 75.6295C146.845 75.4015 146.538 75.2145 146.209 75.0742L147.291 98.1389L154.267 93.6541Z" fill="url(#paint63_linear_860_1116)"/>
<g style="mix-blend-mode:multiply" opacity="0.14">
<path d="M193.235 97.9108L171.011 91.4897L147.291 98.0674L165.017 113.956L161.329 99.8044L171.537 94.921L193.235 103.577L211.046 94.024L193.235 97.9108Z" fill="#2E1D72"/>
</g>
<path style="mix-blend-mode:color-dodge" opacity="0.32" d="M146.209 75.0028C146.209 75.0028 147.305 95.8322 146.209 97.9109C145.112 99.9895 142.322 102.182 141.695 104.574C141.695 104.574 145.411 98.9787 147.547 99.5909C149.682 100.203 165.016 113.956 165.016 113.956C165.016 113.956 149.127 99.719 149.355 98.7651C149.583 97.8112 170.555 92.0593 170.555 92.0593C170.555 92.0593 170.555 95.4051 161.3 99.8045L158.14 98.7651C158.14 98.7651 161.144 99.2065 164.532 112.177C164.532 112.177 161.158 100.531 163.891 99.1638C166.625 97.797 171.323 95.3766 174.242 96.5441C177.161 97.7116 206.091 108.717 206.091 108.717L194.844 103.52L211.003 94.0383L193.633 102.68C193.633 102.68 172.719 96.1739 171.864 94.4369C171.01 92.7 172.035 92.4579 172.035 92.4579L193.235 97.8682L170.839 90.5644C170.839 90.5644 150.992 97.441 151.163 96.5014C151.334 95.5617 168.718 86.7202 168.718 86.7202L188.65 93.3122L202.518 88.144C202.518 88.144 214.662 84.1433 215.516 85.4246C216.371 86.706 220.3 105.015 220.3 105.015C220.3 105.015 215.744 86.165 218.392 81.3243C219.803 78.8448 220.976 76.2372 221.895 73.5364C221.895 73.5364 219.247 81.3243 217.709 76.6117C217.135 74.5737 216.367 72.5953 215.417 70.7031C215.417 70.7031 219.688 80.0429 215.417 83.6307C211.146 87.2186 200.225 85.5955 195.214 78.6334C195.214 78.6334 200.482 86.6206 199.414 88.1867C198.346 89.7528 190.174 92.643 189.32 91.504C188.465 90.365 184.849 81.3243 184.849 81.3243C184.849 81.3243 189.234 92.2444 186.159 91.5325C183.084 90.8206 164.632 84.1717 164.632 84.1717L168.134 86.2647C168.134 86.2647 154.751 94.6505 154.794 93.1983C155.435 90.2614 156.253 87.366 157.243 84.5277C157.243 84.5277 152.516 95.0207 149.412 96.5583C147.675 97.3699 146.209 75.0028 146.209 75.0028Z" fill="url(#paint64_linear_860_1116)"/>
<path style="mix-blend-mode:multiply" opacity="0.24" d="M181.304 126.628C181.452 126.675 181.605 126.708 181.759 126.728H181.944H182.556C182.783 126.713 183.007 126.675 183.226 126.614C183.33 126.625 183.435 126.625 183.539 126.614L209.252 117.53L219.303 113.971L220.414 113.586C221.256 113.284 221.953 112.673 222.364 111.878L239.307 78.7474C239.723 77.9268 239.799 76.9754 239.52 76.0989C239.24 75.2224 238.626 74.4912 237.812 74.0633L228.785 69.3649C228.532 69.2245 228.258 69.1237 227.974 69.0659L218.008 93.6682L200.353 110.127L165.059 113.971L145.439 106.695L180.72 126.372C180.906 126.475 181.102 126.561 181.304 126.628Z" fill="url(#paint65_linear_860_1116)"/>
<path style="mix-blend-mode:screen" d="M206.319 48.8487C208.412 54.7287 202.575 62.1891 193.278 65.5207C183.981 68.8523 174.769 66.7736 172.633 60.8793C170.498 54.985 176.364 47.5388 185.661 44.2073C194.958 40.8757 204.212 42.9686 206.319 48.8487Z" fill="url(#paint66_radial_860_1116)"/>
<path style="mix-blend-mode:screen" d="M170.01 62.1643C171.073 56.0381 164.089 49.7108 154.41 48.0319C144.732 46.353 136.024 49.9582 134.961 56.0843C133.899 62.2105 140.883 68.5378 150.562 70.2167C160.24 71.8957 168.948 68.2905 170.01 62.1643Z" fill="url(#paint67_radial_860_1116)"/>
<path d="M140.556 54.5294L147.675 55.1843C148.105 55.2274 148.522 55.3582 148.899 55.5687L158.965 61.2637C159.633 61.6342 160.413 61.7457 161.158 61.5769L165.557 60.5803C166.137 60.4465 166.665 60.1483 167.079 59.7215C167.493 59.2947 167.776 58.7574 167.892 58.1742L168.291 56.2379C168.402 55.6709 168.354 55.0839 168.15 54.5431C167.946 54.0023 167.596 53.5291 167.137 53.1768L156.502 45.0188C156.06 44.6876 155.719 44.2386 155.52 43.7232L154.836 42.0574C154.684 41.6802 154.46 41.3367 154.175 41.0466C153.89 40.7565 153.551 40.5254 153.176 40.3667C152.802 40.208 152.4 40.1247 151.993 40.1217C151.587 40.1186 151.184 40.1958 150.807 40.3489L140.271 44.6201C139.776 44.8192 139.342 45.145 139.012 45.5648C138.682 45.9846 138.468 46.4836 138.392 47.012L137.78 50.9985C137.716 51.4147 137.738 51.8397 137.845 52.247C137.952 52.6542 138.142 53.0352 138.402 53.3662C138.662 53.6973 138.988 53.9713 139.358 54.1714C139.729 54.3715 140.137 54.4933 140.556 54.5294Z" fill="url(#paint68_linear_860_1116)"/>
<g style="mix-blend-mode:multiply" opacity="0.24">
<path d="M137.794 50.9839C137.728 51.4001 137.748 51.8255 137.853 52.2336C137.958 52.6416 138.146 53.0237 138.405 53.3562C138.664 53.6886 138.989 53.9643 139.359 54.166C139.729 54.3678 140.136 54.4913 140.556 54.5291L147.675 55.184C148.105 55.227 148.522 55.3579 148.899 55.5684L158.965 61.2634C159.632 61.6339 160.413 61.7454 161.158 61.5766L165.557 60.58C166.136 60.4462 166.665 60.148 167.079 59.7212C167.493 59.2944 167.775 58.7571 167.892 58.1738L168.29 56.2375C168.402 55.6705 168.354 55.0836 168.15 54.5428C167.946 54.002 167.595 53.5288 167.137 53.1765C167.507 56.4084 158.595 55.7677 158.595 55.7677L151.476 49.9873C151.476 49.9873 141.937 48.8341 140.328 48.1507C139.944 47.9186 139.611 47.6109 139.349 47.2462C139.087 46.8816 138.902 46.4676 138.805 46.0293C138.632 46.3434 138.516 46.6857 138.463 47.0402L137.794 50.9839Z" fill="#2E1D72"/>
</g>
<g style="mix-blend-mode:color-dodge" opacity="0.68">
<path d="M150.821 40.3064L140.286 44.5776C139.624 44.8596 139.08 45.3629 138.748 46.0014C138.748 46.0014 149.227 41.5735 155.15 42.741L154.851 42.0291C154.7 41.6507 154.476 41.3057 154.192 41.0141C153.908 40.7225 153.569 40.4899 153.194 40.3298C152.82 40.1697 152.417 40.0852 152.01 40.0812C151.603 40.0772 151.199 40.1537 150.821 40.3064Z" fill="#5F4972"/>
</g>
<path style="mix-blend-mode:multiply" opacity="0.14" d="M144.699 49.0195C147.846 49.5178 151.462 49.9449 151.462 49.9449L156.26 44.6771C155.966 44.3954 155.734 44.0561 155.577 43.6805L155.192 42.7266L144.699 49.0195Z" fill="url(#paint69_linear_860_1116)"/>
<path style="mix-blend-mode:multiply" opacity="0.14" d="M158.154 60.7514L158.98 61.2212C159.648 61.5917 160.428 61.7033 161.173 61.5345L165.572 60.5378C166.151 60.4041 166.68 60.1059 167.094 59.6791C167.508 59.2523 167.791 58.715 167.907 58.1317L168.306 56.1954C166.782 57.4198 158.539 55.7256 158.539 55.7256L158.154 60.7514Z" fill="url(#paint70_linear_860_1116)"/>
<path style="mix-blend-mode:multiply" opacity="0.14" d="M140.556 54.5294L147.675 55.1843C148.083 55.231 148.478 55.3517 148.842 55.5403L151.405 49.945C151.405 49.945 147.789 49.5178 144.642 49.0195C140.371 53.5755 139.246 53.9599 139.09 53.9884C139.522 54.295 140.028 54.4816 140.556 54.5294Z" fill="url(#paint71_linear_860_1116)"/>
<path style="mix-blend-mode:color-dodge" opacity="0.32" d="M138.748 45.9869C139.241 46.7647 139.935 47.3941 140.758 47.8079C141.58 48.2216 142.5 48.4042 143.418 48.3361C146.678 48.151 155.15 42.7266 155.15 42.7266C155.15 42.7266 145.995 48.5212 146.351 48.9198C148.043 49.4089 149.82 49.5255 151.562 49.2616C153.223 47.849 154.779 46.3168 156.217 44.6771C156.217 44.6771 151.761 49.6887 152.174 50.3009C154.242 52.2176 156.509 53.9073 158.937 55.3409C159.706 55.4548 166.055 55.8962 167.166 53.1341C167.166 53.1341 169.572 55.9816 159.478 55.9816L164.148 56.6223C164.148 56.6223 159.307 56.2094 158.78 57.8752C158.477 58.8344 158.272 59.8218 158.168 60.8224C158.168 60.8224 158.908 56.8074 156.972 55.3836C155.036 53.9599 151.135 51.4826 151.135 51.4826L148.871 55.6115C148.871 55.6115 150.893 50.9558 149.739 50.4148C148.07 49.8009 146.277 49.6006 144.514 49.831C143.119 50.7885 141.813 51.8702 140.613 53.063C140.613 53.063 143.973 49.8168 143.204 49.0907C142.705 49.2158 142.185 49.2324 141.679 49.1396C141.173 49.0467 140.692 48.8465 140.27 48.5524C139.848 48.2584 139.494 47.8772 139.231 47.4347C138.968 46.9921 138.804 46.4985 138.748 45.9869Z" fill="url(#paint72_linear_860_1116)"/>
<path d="M171.337 55.9248L172.448 58.0177C172.739 58.5643 173.188 59.0104 173.737 59.2974C174.286 59.5845 174.908 59.6992 175.523 59.6266L179.41 59.1852C179.849 59.1454 180.273 59.004 180.649 58.7723L196.566 49.2617C196.873 49.0753 197.21 48.9452 197.563 48.8773L202.147 47.9946C202.951 47.8394 203.661 47.3714 204.12 46.6933C204.579 46.0152 204.751 45.1825 204.596 44.3783L204.24 42.5274C204.132 41.9245 203.849 41.3667 203.427 40.9236C203.004 40.4805 202.46 40.1717 201.863 40.0358L188.009 37.0033C187.541 36.8993 187.055 36.8993 186.586 37.0033L179.908 38.6263C179.48 38.7305 179.079 38.9255 178.733 39.1982C178.386 39.4708 178.103 39.8148 177.901 40.2067L171.295 53.0204C171.059 53.4698 170.94 53.9708 170.948 54.478C170.955 54.9852 171.089 55.4825 171.337 55.9248Z" fill="url(#paint73_linear_860_1116)"/>
<g style="mix-blend-mode:multiply" opacity="0.24">
<path d="M171.338 55.9248L172.448 58.0177C172.739 58.5644 173.188 59.0104 173.737 59.2975C174.286 59.5845 174.908 59.6992 175.523 59.6266L179.41 59.1852C179.849 59.1454 180.273 59.004 180.649 58.7723L196.566 49.2617C196.873 49.0754 197.21 48.9452 197.563 48.8773L202.147 47.9946C202.951 47.8394 203.661 47.3714 204.12 46.6933C204.579 46.0152 204.751 45.1825 204.596 44.3783L204.24 42.5274C204.132 41.9245 203.849 41.3667 203.427 40.9236C203.004 40.4805 202.46 40.1717 201.863 40.0359L201.279 39.9077C202.703 42.7552 193.662 42.2569 193.662 42.2569C193.662 42.2569 178.2 52.8923 175.609 53.5614C174.138 53.8378 172.623 53.7745 171.181 53.3763C171.021 53.7872 170.952 54.2278 170.979 54.6678C171.006 55.1078 171.129 55.5367 171.338 55.9248Z" fill="#2E1D72"/>
</g>
<path style="mix-blend-mode:multiply" opacity="0.14" d="M176.021 53.4619C178.747 52.08 181.382 50.525 183.909 48.8063C183.909 48.8063 186.116 43.1113 187.668 39.9933C188.75 37.8434 189.704 37.5302 190.188 37.5445L187.995 37.0604C187.526 36.9564 187.04 36.9564 186.571 37.0604C188.679 38.1994 176.021 53.4619 176.021 53.4619Z" fill="url(#paint74_linear_860_1116)"/>
<path style="mix-blend-mode:multiply" opacity="0.14" d="M191.683 52.1657L183.895 48.8057C181.372 50.5238 178.743 52.0789 176.021 53.4613L180.293 58.957C180.425 58.9039 180.553 58.8421 180.677 58.7719L191.683 52.1657Z" fill="url(#paint75_linear_860_1116)"/>
<path style="mix-blend-mode:multiply" opacity="0.14" d="M193.904 50.8422L196.566 49.2618C196.873 49.0755 197.211 48.9453 197.563 48.8774L199.314 48.5357L193.619 42.314L193.904 50.8422Z" fill="url(#paint76_linear_860_1116)"/>
<path style="mix-blend-mode:multiply" opacity="0.14" d="M203.614 47.2542C204.01 46.9046 204.308 46.4586 204.48 45.9597C204.652 45.4608 204.692 44.9258 204.597 44.4067L204.241 42.5559C204.138 41.9478 203.857 41.3838 203.434 40.9352C203.011 40.4867 202.464 40.1737 201.863 40.0359L201.279 39.9077C203.073 41.3172 203.5 45.3322 203.614 47.2542Z" fill="url(#paint77_linear_860_1116)"/>
<path style="mix-blend-mode:color-dodge" opacity="0.32" d="M171.181 53.4333C172.061 53.6805 172.99 53.7045 173.882 53.5031C174.774 53.3018 175.603 52.8815 176.292 52.2801C178.655 50.2014 185.347 40.8901 185.347 40.8901L179.282 51.0272C180.875 50.2734 182.322 49.2417 183.553 47.9804C185.018 45.5999 186.307 43.116 187.411 40.5484L184.863 47.781L193.662 42.3139C193.662 42.3139 202.46 42.5986 201.094 39.9932C201.094 39.9932 205.493 42.5132 194.231 42.5986L198.787 47.9661L193.961 43.2108V50.8421L193.064 43.4386C193.064 43.4386 185.034 48.1655 185.689 48.9912C186.344 49.817 191.683 52.1662 191.683 52.1662C191.683 52.1662 184.564 49.0197 183.226 49.6177C181.887 50.2157 176.933 52.8496 177.531 54.5154C178.282 56.0947 179.209 57.5847 180.293 58.9574C180.293 58.9574 176.605 53.4048 174.825 53.7608C173.046 54.1167 172.733 54.2733 171.181 53.4333Z" fill="url(#paint78_linear_860_1116)"/>
<path d="M175.21 192.206L167.806 175.42C167.62 174.981 167.355 174.581 167.023 174.238L135.345 141.122C134.715 140.461 133.883 140.03 132.981 139.896C132.078 139.762 131.156 139.933 130.362 140.381L129.308 140.979C128.705 141.305 128.029 141.475 127.344 141.475C126.658 141.475 125.983 141.305 125.379 140.979L115.085 135.569C114.42 135.221 113.862 134.697 113.473 134.055C113.084 133.412 112.879 132.675 112.878 131.924V120.534C112.878 119.718 112.635 118.92 112.181 118.242L98.9684 98.5802C98.4883 97.8653 97.7954 97.3197 96.9879 97.0207C96.1803 96.7217 95.2991 96.6845 94.4693 96.9145L88.9737 98.4094C88.3145 98.5922 87.6201 98.6072 86.9537 98.453C86.2873 98.2989 85.6699 97.9804 85.158 97.5267L65.4392 80.0431C64.9901 79.6458 64.4608 79.3496 63.8873 79.1746L52.298 75.7291C51.4586 75.4743 50.5592 75.4992 49.7353 75.8003L23.9655 85.0404C22.9798 85.3885 22.1614 86.095 21.6733 87.0194L12.7179 104.959C12.4636 105.455 12.3158 105.998 12.2839 106.555C12.2521 107.112 12.3368 107.669 12.5328 108.191L13.4583 110.753C13.8233 111.757 13.7837 112.863 13.348 113.838C12.9123 114.813 12.1145 115.581 11.1233 115.978C10.5787 116.194 10.0869 116.524 9.6815 116.946C9.27609 117.369 8.96663 117.874 8.77419 118.427L0.231727 142.545C0.0227233 143.142 -0.0462429 143.778 0.0302962 144.405C0.106835 145.032 0.32682 145.633 0.673084 146.162L21.2889 177.627C21.6233 178.138 22.0678 178.569 22.5901 178.887C23.1123 179.204 23.699 179.401 24.3072 179.463L36.0673 180.645C36.5654 180.701 37.0484 180.851 37.4911 181.086L83.7628 204.72C84.5414 205.156 85.4428 205.322 86.3255 205.19L123.87 199.623H124.325L171.579 198.029C172.259 198.01 172.923 197.824 173.513 197.486C174.103 197.148 174.599 196.669 174.959 196.093C175.319 195.516 175.53 194.859 175.574 194.181C175.617 193.502 175.492 192.824 175.21 192.206Z" fill="url(#paint79_linear_860_1116)"/>
<path style="mix-blend-mode:multiply" opacity="0.14" d="M45.6919 116.106L38.9433 136.124L6.12598 145.051L41.1074 142.802L68.6141 163.902L67.1904 168.002L49.3082 167.489L36.0531 155.188L20.1214 158.32L33.1487 159.289L48.8099 175.448L37.548 181.143L83.8197 204.777C84.5886 205.181 85.4676 205.326 86.3255 205.19L123.87 199.623H124.325L171.579 198.029C172.251 198.006 172.908 197.82 173.491 197.485C174.074 197.15 174.566 196.678 174.924 196.109C175.282 195.54 175.496 194.892 175.546 194.221C175.595 193.551 175.48 192.878 175.21 192.263L172.903 187.037L171.38 188.461L112.764 185.087L138.819 166.991L125.379 140.993L115.085 135.583C114.42 135.235 113.862 134.711 113.473 134.069C113.084 133.426 112.879 132.69 112.878 131.938V124.136L98.285 151.572L80.9153 145.777L74.9356 134.202L88.9737 98.4093C88.3145 98.5921 87.6202 98.6071 86.9537 98.4529C86.2873 98.2987 85.67 97.9803 85.1581 97.5265L65.4392 80.0429C64.9901 79.6456 64.4608 79.3495 63.8873 79.1745L52.298 75.729L46.902 110.312L17.3451 108.888L12.7179 104.958C12.4636 105.455 12.3158 105.998 12.2839 106.555C12.2521 107.111 12.3368 107.669 12.5328 108.19L13.4583 110.753C13.8233 111.757 13.7837 112.863 13.348 113.838C12.9123 114.813 12.1145 115.581 11.1233 115.978C10.497 116.232 9.944 116.638 9.5145 117.16L15.2949 114.611L45.6919 116.106Z" fill="url(#paint80_linear_860_1116)"/>
<path style="mix-blend-mode:multiply" opacity="0.14" d="M45.6913 116.106L47.6276 116.348L40.6228 137.819L41.1068 142.802L68.6135 163.902L67.1898 168.002L49.3076 167.489L36.0525 155.188L19.1527 158.562L33.1481 159.289L48.8093 175.448L37.5474 181.143L49.8201 187.408L72.4434 174.508L82.8225 188.746L83.8191 204.791C84.5896 205.191 85.4685 205.331 86.3249 205.19L123.869 199.623L169.927 191.394L86.2252 187.052L76.8143 170.878L95.8783 178.367L117.832 145.791L109.859 184.873C109.859 184.873 124.823 165.824 125.378 165.582C125.933 165.34 125.378 141.022 125.378 141.022L115.085 135.612C114.419 135.263 113.862 134.74 113.473 134.097C113.084 133.455 112.878 132.718 112.878 131.967V124.165L99.0104 156.655H89.0442L72.5431 145.265L70.5498 136.85L81.6408 105.528L88.9731 98.4093C88.3139 98.5921 87.6195 98.6071 86.9531 98.4529C86.2867 98.2987 85.6693 97.9803 85.1574 97.5266L65.4386 80.043L53.1801 111.764L46.9014 113.188L16.0204 111.764H13.714C13.8111 112.656 13.6149 113.556 13.155 114.326C12.6952 115.097 11.9968 115.697 11.1655 116.035C10.5392 116.289 9.98615 116.695 9.55664 117.217L15.337 114.668L45.6913 116.106Z" fill="url(#paint81_linear_860_1116)"/>
<g style="mix-blend-mode:multiply" opacity="0.24">
<path d="M81.6414 105.485L70.7213 123.951L55.8859 110.013L53.1808 111.764L46.9021 113.216L15.2949 114.654L47.6282 116.349L68.5572 133.533L66.7491 144.937L84.4747 159.403L69.4542 169.896L49.8919 168.999L49.3082 167.489L36.0531 155.188L19.1533 158.563L33.1487 159.289L48.8383 175.448L49.8919 171.533L70.1803 172.615L89.7283 159.773L100.392 157.238L112.878 124.151L99.0111 156.64H88.9737L72.4725 145.293L70.5504 136.85L81.6414 105.485Z" fill="#2E1D72"/>
</g>
<path style="mix-blend-mode:color-dodge" opacity="0.32" d="M17.3457 108.931C17.3457 108.931 44.7386 109.956 45.5786 108.931C46.4186 107.906 51.6295 80.043 51.6295 80.043C51.6295 80.043 48.1128 109.472 48.9528 109.942C49.7929 110.411 64.4432 82.5772 64.4432 82.5772C64.4432 82.5772 55.5875 106.781 56.6695 108.205C57.7516 109.628 70.7219 124.008 70.7219 124.008L55.8865 110.07L53.1813 111.821L46.9027 113.245L17.3457 108.931Z" fill="url(#paint82_linear_860_1116)"/>
<path style="mix-blend-mode:color-dodge" opacity="0.32" d="M15.2949 114.654C15.2949 114.654 41.7197 116.462 42.6736 117.673C43.6275 118.883 40.0254 134.444 37.8613 134.928C35.6972 135.412 6.12598 145.051 6.12598 145.051C6.12598 145.051 38.4592 136.979 38.8721 137.819C39.285 138.659 40.6518 141.819 35.1135 143.2C35.1135 143.2 46.119 147.472 48.8953 149.764C51.6716 152.056 67.9592 164.87 66.9768 166.407C65.9944 167.945 49.3651 167.489 49.3651 167.489L67.2189 167.974L68.6427 163.873L41.1359 142.802L40.6518 137.819L47.6567 116.349L45.7203 116.107L15.2949 114.654Z" fill="url(#paint83_linear_860_1116)"/>
<path style="mix-blend-mode:color-dodge" opacity="0.32" d="M88.9737 98.4092C88.9737 98.4092 76.3593 132.579 76.3593 134.686C76.3593 136.793 80.6305 143.855 81.7838 143.969C82.937 144.083 94.213 136.608 94.213 136.608C94.213 136.608 83.6061 144.937 84.6882 145.535C85.7702 146.133 98.3134 151.572 98.3134 151.572L80.9437 145.777L72.5009 145.293C72.5009 145.293 79.1357 144.453 78.5377 143.129C77.9397 141.805 70.8779 136.01 70.8779 136.01C70.8779 136.01 79.0644 129.034 88.9737 98.4092Z" fill="url(#paint84_linear_860_1116)"/>
<path style="mix-blend-mode:color-dodge" opacity="0.32" d="M19.1533 158.562C19.1533 158.562 30.5433 159.887 30.5433 169.298C30.5433 169.298 31.5115 160.499 34.0457 162.421C36.58 164.343 48.8811 175.448 48.8811 175.448L33.2199 159.289L19.1533 158.562Z" fill="url(#paint85_linear_860_1116)"/>
<g style="mix-blend-mode:multiply" opacity="0.24">
<path d="M78.0112 111.621L84.5747 110.482L96.9612 108.873L106.657 135.925L104.991 142.702L115.47 149.351H117.121L125.493 147.3L138.819 167.076L146.08 187.094L126.532 189.187L83.8201 204.848C84.597 205.228 85.4756 205.348 86.3259 205.19L123.87 199.623H124.326L171.58 198.028C172.252 198.006 172.908 197.819 173.491 197.485C174.074 197.15 174.566 196.677 174.925 196.108C175.283 195.539 175.496 194.891 175.546 194.221C175.596 193.55 175.48 192.878 175.21 192.262L167.807 175.476C167.62 175.038 167.355 174.637 167.024 174.295L135.345 141.121C134.716 140.461 133.884 140.03 132.981 139.896C132.078 139.761 131.157 139.932 130.362 140.381L129.309 140.979C128.705 141.304 128.03 141.474 127.344 141.474C126.658 141.474 125.983 141.304 125.379 140.979L115.086 135.569C114.42 135.22 113.863 134.697 113.474 134.054C113.085 133.412 112.879 132.675 112.879 131.924V120.534C112.878 119.718 112.635 118.92 112.181 118.242L98.9687 98.5798C98.4887 97.8649 97.7958 97.3193 96.9882 97.0203C96.1807 96.7213 95.2995 96.6841 94.4697 96.914L88.974 98.4089C88.3149 98.5918 87.6205 98.6068 86.9541 98.4526C86.2876 98.2984 85.6703 97.9799 85.1584 97.5262L65.4396 80.0426C64.9905 79.6453 64.4612 79.3492 63.8877 79.1742L57.3242 77.2236L64.4429 82.5911L78.0112 111.621Z" fill="#2E1D72"/>
</g>
<path d="M296.014 183.934L290.177 166.55C290.02 166.092 289.947 165.609 289.963 165.126L291.031 119.296C291.052 118.381 291.377 117.5 291.954 116.791C292.532 116.082 293.329 115.586 294.22 115.38L295.402 115.11C296.071 114.955 296.691 114.635 297.206 114.181C297.72 113.726 298.113 113.149 298.349 112.504L302.307 101.57C302.566 100.866 302.625 100.104 302.48 99.3682C302.334 98.6324 301.989 97.9509 301.481 97.3983L293.765 88.8559C293.209 88.2566 292.851 87.5011 292.74 86.6918L289.251 63.2712C289.125 62.4178 289.27 61.5462 289.666 60.7797C290.062 60.0133 290.689 59.3907 291.458 58.9999L296.541 56.423C297.149 56.1086 297.669 55.6491 298.057 55.0853C298.444 54.5216 298.686 53.8709 298.762 53.1911L301.61 26.9942C301.68 26.4005 301.874 25.8281 302.179 25.3141L308.429 15.0489C308.879 14.297 309.558 13.7085 310.365 13.3689L335.637 2.83322C336.62 2.44101 337.715 2.44101 338.698 2.83322L357.406 10.0374C357.916 10.2395 358.379 10.5413 358.771 10.9251C359.162 11.309 359.472 11.7671 359.684 12.2726L360.723 14.7927C361.129 15.7795 361.902 16.5702 362.88 16.9978C363.857 17.4255 364.963 17.4567 365.963 17.0849C366.51 16.8739 367.097 16.785 367.682 16.8243C368.267 16.8637 368.837 17.0304 369.351 17.3127L391.861 29.4288C392.417 29.7273 392.898 30.1495 393.266 30.6629C393.633 31.1763 393.879 31.7672 393.982 32.3902L399.948 69.5214C400.045 70.127 400.005 70.7466 399.833 71.3352C399.661 71.9238 399.359 72.4666 398.951 72.9242L391.006 81.7229C390.661 82.1002 390.39 82.5399 390.209 83.0185L371.957 131.668C371.647 132.463 371.107 133.147 370.405 133.633L338.897 154.818C338.767 154.904 338.644 154.999 338.527 155.103L302.535 185.756C302.023 186.182 301.415 186.477 300.764 186.616C300.113 186.755 299.438 186.734 298.797 186.555C298.155 186.376 297.567 186.044 297.082 185.587C296.598 185.13 296.231 184.563 296.014 183.934Z" fill="url(#paint86_linear_860_1116)"/>
<path style="mix-blend-mode:multiply" opacity="0.14" d="M340.449 40.4342L358.958 50.6852L389.213 35.1806L361.834 57.1205L355.698 91.2904L359.528 93.3548L372.341 80.9682L373.922 62.8155L387.789 54.4154L378.819 63.8975L378.193 86.4069L390.323 83.0184L372.071 131.668C371.761 132.463 371.221 133.147 370.519 133.633L339.011 154.818C338.881 154.904 338.758 154.999 338.641 155.103L302.649 185.756C302.137 186.191 301.526 186.494 300.87 186.638C300.213 186.783 299.532 186.764 298.884 186.585C298.237 186.405 297.643 186.069 297.155 185.607C296.667 185.145 296.3 184.57 296.086 183.933L294.277 178.523H296.399L337.445 136.537L306.009 140.723L298.42 112.447L302.378 101.513C302.637 100.809 302.697 100.047 302.551 99.3112C302.405 98.5754 302.06 97.8938 301.553 97.3413L296.299 91.6463L325.514 102.082L334.441 86.0937L331.11 73.4793L296.541 56.5083C297.149 56.1939 297.669 55.7344 298.057 55.1707C298.444 54.6069 298.686 53.9562 298.762 53.2764L301.61 27.0795C301.68 26.4858 301.874 25.9135 302.179 25.3995L308.429 15.0488L335.723 36.9745L356.623 16.0455L357.406 10.0088C357.918 10.2141 358.384 10.5203 358.775 10.9092C359.166 11.2981 359.476 11.7618 359.684 12.2725L360.723 14.7926C361.129 15.7794 361.902 16.5701 362.88 16.9977C363.857 17.4254 364.963 17.4566 365.963 17.0848C366.6 16.8515 367.284 16.7782 367.956 16.8712L361.962 18.893L340.449 40.4342Z" fill="url(#paint87_linear_860_1116)"/>
<path style="mix-blend-mode:multiply" opacity="0.14" d="M340.45 40.4343L339.197 41.858L358.831 53.0202L361.835 57.1206L355.699 91.2904L359.528 93.3549L372.342 80.9683L373.922 62.8156L388.672 53.9314L378.82 63.8976L378.194 86.407L390.324 83.0185L385.483 95.8322L360.069 101.527L361.991 119.025L372.072 131.568C371.762 132.363 371.222 133.048 370.52 133.533L339.012 154.718L299.432 179.662L358.261 120.164L354.332 101.869L345.277 120.235L307.12 110.967L339.325 134.487C339.325 134.487 315.435 130.472 314.866 130.671C314.296 130.871 298.322 112.518 298.322 112.518L302.28 101.584C302.538 100.88 302.598 100.118 302.452 99.3824C302.307 98.6466 301.961 97.9651 301.454 97.4126L296.2 91.7176L328.363 106.311L335.78 99.5482L340.336 80.0571L336.065 72.5112L306.736 56.8501L296.542 56.5511C297.149 56.2367 297.67 55.7772 298.057 55.2135C298.445 54.6497 298.687 53.999 298.763 53.3192L301.61 27.1223L332.05 42.3136L337.66 39.1529L359.457 17.2557L361.194 15.6611C361.722 16.3857 362.473 16.9172 363.332 17.1743C364.191 17.4315 365.11 17.4 365.95 17.0849C366.586 16.8516 367.271 16.7783 367.943 16.8713L361.949 18.893L340.45 40.4343Z" fill="url(#paint88_linear_860_1116)"/>
<g style="mix-blend-mode:multiply" opacity="0.24">
<path d="M306.75 56.8074L327.238 63.1003L328.818 42.7977L332.007 42.271L337.617 39.1102L361.949 18.8931L339.197 41.915L335.31 68.7241L344.323 75.9283L340.977 98.5658L359.144 96.2024L372.997 82.3494L372.399 80.8402L373.922 62.8156L388.672 53.9314L378.82 63.8976L378.122 86.407L374.705 84.2145L360.439 98.6939L337.346 102.367L327.75 107.692L296.229 91.6464L328.362 106.311L335.78 99.5482L340.336 80.0571L336.065 72.5113L306.75 56.8074Z" fill="#2E1D72"/>
</g>
<path style="mix-blend-mode:color-dodge" opacity="0.32" d="M356.567 16.0454C356.567 16.0454 337.019 35.2375 335.709 35.0524C334.399 34.8673 311.776 17.7824 311.776 17.7824C311.776 17.7824 334.2 37.188 333.901 38.085C333.602 38.9819 304.002 28.3038 304.002 28.3038C304.002 28.3038 326.938 40.2348 326.938 41.9576C326.938 43.6803 327.195 63.1002 327.195 63.1002L328.818 42.883L332.007 42.342L337.617 39.1813L356.567 16.0454Z" fill="url(#paint89_linear_860_1116)"/>
<path style="mix-blend-mode:color-dodge" opacity="0.32" d="M361.948 18.8931C361.948 18.8931 343.639 38.0282 343.738 39.5658C343.838 41.1035 356.993 50.1727 358.93 49.0622C360.866 47.9517 389.199 35.1807 389.199 35.1807C389.199 35.1807 359.869 50.9843 360.168 51.8528C360.467 52.7212 361.592 55.9959 366.561 53.2765C366.561 53.2765 361.322 63.8407 360.866 67.4143C360.41 70.9879 356.965 91.4186 358.716 91.9027C360.467 92.3868 372.455 80.8402 372.455 80.8402L359.642 93.2268L355.812 91.1623L361.948 56.9925L358.944 52.9917L339.311 41.8296L340.563 40.4058L361.948 18.8931Z" fill="url(#paint90_linear_860_1116)"/>
<path style="mix-blend-mode:color-dodge" opacity="0.32" d="M296.542 56.5088C296.542 56.5088 328.818 73.2663 330.327 74.8039C331.837 76.3415 333.303 84.5138 332.577 85.3254C331.851 86.1369 318.396 88.2583 318.396 88.2583C318.396 88.2583 331.851 87.2617 331.452 88.4434C331.053 89.6251 325.444 102.083 325.444 102.083L334.371 86.0942L340.294 80.0575C340.294 80.0575 334.826 83.9016 334.371 82.5064C333.915 81.1111 335.211 72.0703 335.211 72.0703C335.211 72.0703 324.504 72.469 296.542 56.5088Z" fill="url(#paint91_linear_860_1116)"/>
<path style="mix-blend-mode:color-dodge" opacity="0.32" d="M388.672 53.9316C388.672 53.9316 381.183 62.5595 387.519 69.5074C387.519 69.5074 380.884 63.6558 380.315 66.7881C379.745 69.9203 378.193 86.4072 378.193 86.4072L378.891 63.8979L388.672 53.9316Z" fill="url(#paint92_linear_860_1116)"/>
<g style="mix-blend-mode:multiply" opacity="0.24">
<path d="M290.177 166.55L296.015 183.933C296.229 184.57 296.596 185.145 297.084 185.607C297.572 186.069 298.166 186.405 298.813 186.585C299.461 186.765 300.142 186.783 300.799 186.639C301.455 186.494 302.066 186.191 302.578 185.756L338.57 155.103C338.687 154.999 338.81 154.904 338.94 154.818L370.448 133.633C371.15 133.147 371.69 132.463 372 131.668L390.252 83.0185C390.433 82.5399 390.704 82.1002 391.05 81.7228L398.937 72.9241C399.345 72.4666 399.647 71.9238 399.819 71.3352C399.992 70.7466 400.031 70.127 399.934 69.5214L393.968 32.3901C393.865 31.7671 393.619 31.1762 393.252 30.6628C392.884 30.1494 392.403 29.7272 391.847 29.4287L389.199 35.1237L358.83 53.0771L355.698 91.1765L368.825 99.6336L360.88 109.6L355.954 109.301L335.808 131.896L314.893 130.685L305.938 140.808L297.04 164.898L290.291 148.553L289.921 165.14C289.921 165.621 290.007 166.099 290.177 166.55Z" fill="#2E1D72"/>
</g>
<defs>
<linearGradient id="paint0_linear_860_1116" x1="129.364" y1="114.227" x2="180.975" y2="165.852" gradientUnits="userSpaceOnUse">
<stop stop-color="#5F4972"/>
<stop offset="0.03" stop-color="#5A466C"/>
<stop offset="0.22" stop-color="#44374D"/>
<stop offset="0.41" stop-color="#352C38"/>
<stop offset="0.59" stop-color="#2B252A"/>
<stop offset="0.75" stop-color="#282326"/>
</linearGradient>
<linearGradient id="paint1_linear_860_1116" x1="118.758" y1="124.834" x2="170.369" y2="176.459" gradientUnits="userSpaceOnUse">
<stop stop-color="#5F4972"/>
<stop offset="0.29" stop-color="#564172"/>
<stop offset="0.75" stop-color="#3E2B72"/>
<stop offset="1" stop-color="#2E1D72"/>
</linearGradient>
<linearGradient id="paint2_linear_860_1116" x1="141.453" y1="102.139" x2="193.078" y2="153.764" gradientUnits="userSpaceOnUse">
<stop stop-color="#5F4972"/>
<stop offset="0.29" stop-color="#564172"/>
<stop offset="0.75" stop-color="#3E2B72"/>
<stop offset="1" stop-color="#2E1D72"/>
</linearGradient>
<linearGradient id="paint3_linear_860_1116" x1="122.575" y1="121.018" x2="174.2" y2="172.629" gradientUnits="userSpaceOnUse">
<stop stop-color="#5F4972"/>
<stop offset="0.29" stop-color="#564172"/>
<stop offset="0.75" stop-color="#3E2B72"/>
<stop offset="1" stop-color="#2E1D72"/>
</linearGradient>
<linearGradient id="paint4_linear_860_1116" x1="129.024" y1="114.583" x2="180.634" y2="166.194" gradientUnits="userSpaceOnUse">
<stop stop-color="#5F4972"/>
<stop offset="0.29" stop-color="#564172"/>
<stop offset="0.75" stop-color="#3E2B72"/>
<stop offset="1" stop-color="#2E1D72"/>
</linearGradient>
<linearGradient id="paint5_linear_860_1116" x1="145.396" y1="98.1953" x2="197.007" y2="149.82" gradientUnits="userSpaceOnUse">
<stop stop-color="#5F4972"/>
<stop offset="0.29" stop-color="#564172"/>
<stop offset="0.75" stop-color="#3E2B72"/>
<stop offset="1" stop-color="#2E1D72"/>
</linearGradient>
<linearGradient id="paint6_linear_860_1116" x1="143.019" y1="146.176" x2="173.245" y2="146.176" gradientUnits="userSpaceOnUse">
<stop stop-color="#5F4972"/>
<stop offset="0.19" stop-color="#5C476E"/>
<stop offset="0.38" stop-color="#523F62"/>
<stop offset="0.56" stop-color="#42324F"/>
<stop offset="0.75" stop-color="#2B2133"/>
<stop offset="0.93" stop-color="#0D0A10"/>
<stop offset="1"/>
</linearGradient>
<linearGradient id="paint7_linear_860_1116" x1="189.732" y1="43.0538" x2="283.685" y2="137.007" gradientUnits="userSpaceOnUse">
<stop offset="0.13" stop-color="#5F4972"/>
<stop offset="0.14" stop-color="#5E4870"/>
<stop offset="0.23" stop-color="#4A3B55"/>
<stop offset="0.32" stop-color="#3B3040"/>
<stop offset="0.43" stop-color="#302931"/>
<stop offset="0.55" stop-color="#2A2429"/>
<stop offset="0.74" stop-color="#282326"/>
</linearGradient>
<linearGradient id="paint8_linear_860_1116" x1="217.296" y1="14.9066" x2="327.166" y2="124.777" gradientUnits="userSpaceOnUse">
<stop stop-color="#5F4972"/>
<stop offset="0.29" stop-color="#564172"/>
<stop offset="0.75" stop-color="#3E2B72"/>
<stop offset="1" stop-color="#2E1D72"/>
</linearGradient>
<linearGradient id="paint9_linear_860_1116" x1="187.496" y1="45.2894" x2="281.449" y2="139.242" gradientUnits="userSpaceOnUse">
<stop stop-color="#5F4972"/>
<stop offset="0.29" stop-color="#564172"/>
<stop offset="0.75" stop-color="#3E2B72"/>
<stop offset="1" stop-color="#2E1D72"/>
</linearGradient>
<linearGradient id="paint10_linear_860_1116" x1="235.904" y1="-3.11809" x2="329.857" y2="90.8349" gradientUnits="userSpaceOnUse">
<stop stop-color="#5F4972"/>
<stop offset="0.29" stop-color="#564172"/>
<stop offset="0.75" stop-color="#3E2B72"/>
<stop offset="1" stop-color="#2E1D72"/>
</linearGradient>
<linearGradient id="paint11_linear_860_1116" x1="208.611" y1="24.1755" x2="302.564" y2="118.128" gradientUnits="userSpaceOnUse">
<stop stop-color="#5F4972"/>
<stop offset="0.29" stop-color="#564172"/>
<stop offset="0.75" stop-color="#3E2B72"/>
<stop offset="1" stop-color="#2E1D72"/>
</linearGradient>
<linearGradient id="paint12_linear_860_1116" x1="187.497" y1="45.2894" x2="281.45" y2="139.242" gradientUnits="userSpaceOnUse">
<stop stop-color="#5F4972"/>
<stop offset="0.29" stop-color="#564172"/>
<stop offset="0.75" stop-color="#3E2B72"/>
<stop offset="1" stop-color="#2E1D72"/>
</linearGradient>
<linearGradient id="paint13_linear_860_1116" x1="165.869" y1="66.916" x2="259.822" y2="160.869" gradientUnits="userSpaceOnUse">
<stop stop-color="#5F4972"/>
<stop offset="0.29" stop-color="#564172"/>
<stop offset="0.75" stop-color="#3E2B72"/>
<stop offset="1" stop-color="#2E1D72"/>
</linearGradient>
<linearGradient id="paint14_linear_860_1116" x1="232.003" y1="0.783453" x2="325.956" y2="94.7364" gradientUnits="userSpaceOnUse">
<stop stop-color="#5F4972"/>
<stop offset="0.29" stop-color="#564172"/>
<stop offset="0.75" stop-color="#3E2B72"/>
<stop offset="1" stop-color="#2E1D72"/>
</linearGradient>
<linearGradient id="paint15_linear_860_1116" x1="239.52" y1="-6.7198" x2="333.458" y2="87.2192" gradientUnits="userSpaceOnUse">
<stop stop-color="#5F4972"/>
<stop offset="0.29" stop-color="#564172"/>
<stop offset="0.75" stop-color="#3E2B72"/>
<stop offset="1" stop-color="#2E1D72"/>
</linearGradient>
<linearGradient id="paint16_linear_860_1116" x1="215.26" y1="-19.6617" x2="415.21" y2="180.289" gradientUnits="userSpaceOnUse">
<stop stop-color="#5F4972"/>
<stop offset="0.29" stop-color="#564172"/>
<stop offset="0.75" stop-color="#3E2B72"/>
<stop offset="1" stop-color="#2E1D72"/>
</linearGradient>
<linearGradient id="paint17_linear_860_1116" x1="189.434" y1="108.134" x2="248.206" y2="108.134" gradientUnits="userSpaceOnUse">
<stop stop-color="#5F4972"/>
<stop offset="0.29" stop-color="#564172"/>
<stop offset="0.75" stop-color="#3E2B72"/>
<stop offset="1" stop-color="#2E1D72"/>
</linearGradient>
<linearGradient id="paint18_linear_860_1116" x1="224.329" y1="119.181" x2="235.235" y2="119.181" gradientUnits="userSpaceOnUse">
<stop stop-color="#5F4972"/>
<stop offset="0.29" stop-color="#564172"/>
<stop offset="0.75" stop-color="#3E2B72"/>
<stop offset="1" stop-color="#2E1D72"/>
</linearGradient>
<linearGradient id="paint19_linear_860_1116" x1="224.329" y1="24.0755" x2="245.643" y2="24.0755" gradientUnits="userSpaceOnUse">
<stop stop-color="#5F4972"/>
<stop offset="0.29" stop-color="#564172"/>
<stop offset="0.75" stop-color="#3E2B72"/>
<stop offset="1" stop-color="#2E1D72"/>
</linearGradient>
<linearGradient id="paint20_linear_860_1116" x1="205.692" y1="41.7584" x2="294.335" y2="41.7584" gradientUnits="userSpaceOnUse">
<stop stop-color="#2E1D72"/>
<stop offset="0.25" stop-color="#3E2B72"/>
<stop offset="0.71" stop-color="#564172"/>
<stop offset="1" stop-color="#5F4972"/>
</linearGradient>
<linearGradient id="paint21_linear_860_1116" x1="229.483" y1="20.2316" x2="285.109" y2="20.2316" gradientUnits="userSpaceOnUse">
<stop stop-color="#2E1D72"/>
<stop offset="0.25" stop-color="#3E2B72"/>
<stop offset="0.71" stop-color="#564172"/>
<stop offset="1" stop-color="#5F4972"/>
</linearGradient>
<linearGradient id="paint22_linear_860_1116" x1="229.483" y1="9.70994" x2="259.382" y2="9.70994" gradientUnits="userSpaceOnUse">
<stop offset="0.35" stop-color="#5F4972"/>
<stop offset="0.48" stop-color="#5C476E"/>
<stop offset="0.6" stop-color="#523F62"/>
<stop offset="0.72" stop-color="#42324F"/>
<stop offset="0.84" stop-color="#2B2133"/>
<stop offset="0.95" stop-color="#0D0A10"/>
<stop offset="1"/>
</linearGradient>
<linearGradient id="paint23_linear_860_1116" x1="234.95" y1="27.407" x2="269.832" y2="27.407" gradientUnits="userSpaceOnUse">
<stop offset="0.35" stop-color="#5F4972"/>
<stop offset="0.48" stop-color="#5C476E"/>
<stop offset="0.6" stop-color="#523F62"/>
<stop offset="0.72" stop-color="#42324F"/>
<stop offset="0.84" stop-color="#2B2133"/>
<stop offset="0.95" stop-color="#0D0A10"/>
<stop offset="1"/>
</linearGradient>
<linearGradient id="paint24_linear_860_1116" x1="221.667" y1="35.5082" x2="285.38" y2="35.5082" gradientUnits="userSpaceOnUse">
<stop offset="0.35" stop-color="#5F4972"/>
<stop offset="0.48" stop-color="#5C476E"/>
<stop offset="0.6" stop-color="#523F62"/>
<stop offset="0.72" stop-color="#42324F"/>
<stop offset="0.84" stop-color="#2B2133"/>
<stop offset="0.95" stop-color="#0D0A10"/>
<stop offset="1"/>
</linearGradient>
<linearGradient id="paint25_linear_860_1116" x1="180.478" y1="87.0192" x2="289.509" y2="87.0192" gradientUnits="userSpaceOnUse">
<stop offset="0.35" stop-color="#5F4972"/>
<stop offset="0.48" stop-color="#5C476E"/>
<stop offset="0.6" stop-color="#523F62"/>
<stop offset="0.72" stop-color="#42324F"/>
<stop offset="0.84" stop-color="#2B2133"/>
<stop offset="0.95" stop-color="#0D0A10"/>
<stop offset="1"/>
</linearGradient>
<linearGradient id="paint26_linear_860_1116" x1="188.792" y1="165.425" x2="218.25" y2="194.896" gradientUnits="userSpaceOnUse">
<stop stop-color="#5F4972"/>
<stop offset="0.58" stop-color="#3D3243"/>
<stop offset="1" stop-color="#282326"/>
</linearGradient>
<linearGradient id="paint27_linear_860_1116" x1="188.778" y1="165.425" x2="218.25" y2="194.896" gradientUnits="userSpaceOnUse">
<stop stop-color="#5F4972"/>
<stop offset="0.58" stop-color="#3D3243"/>
<stop offset="1" stop-color="#282326"/>
</linearGradient>
<linearGradient id="paint28_linear_860_1116" x1="190.857" y1="163.36" x2="220.314" y2="192.818" gradientUnits="userSpaceOnUse">
<stop stop-color="#5F4972"/>
<stop offset="0.58" stop-color="#3D3243"/>
<stop offset="1" stop-color="#282326"/>
</linearGradient>
<linearGradient id="paint29_linear_860_1116" x1="197.421" y1="180.089" x2="210.348" y2="180.089" gradientUnits="userSpaceOnUse">
<stop stop-color="#5F4972"/>
<stop offset="0.58" stop-color="#3D3243"/>
<stop offset="1" stop-color="#282326"/>
</linearGradient>
<linearGradient id="paint30_linear_860_1116" x1="189.49" y1="169.027" x2="196.808" y2="169.027" gradientUnits="userSpaceOnUse">
<stop stop-color="#5F4972"/>
<stop offset="0.58" stop-color="#3D3243"/>
<stop offset="1" stop-color="#282326"/>
</linearGradient>
<linearGradient id="paint31_linear_860_1116" x1="216.271" y1="193.7" x2="229.312" y2="206.742" gradientUnits="userSpaceOnUse">
<stop stop-color="#5F4972"/>
<stop offset="0.58" stop-color="#3D3243"/>
<stop offset="1" stop-color="#282326"/>
</linearGradient>
<linearGradient id="paint32_linear_860_1116" x1="216.27" y1="193.7" x2="229.312" y2="206.742" gradientUnits="userSpaceOnUse">
<stop stop-color="#5F4972"/>
<stop offset="0.58" stop-color="#3D3243"/>
<stop offset="1" stop-color="#282326"/>
</linearGradient>
<linearGradient id="paint33_linear_860_1116" x1="214.777" y1="195.196" x2="227.818" y2="208.237" gradientUnits="userSpaceOnUse">
<stop stop-color="#5F4972"/>
<stop offset="0.58" stop-color="#3D3243"/>
<stop offset="1" stop-color="#282326"/>
</linearGradient>
<linearGradient id="paint34_linear_860_1116" x1="217.979" y1="197.53" x2="225.796" y2="197.53" gradientUnits="userSpaceOnUse">
<stop stop-color="#5F4972"/>
<stop offset="0.58" stop-color="#3D3243"/>
<stop offset="1" stop-color="#282326"/>
</linearGradient>
<linearGradient id="paint35_linear_860_1116" x1="220.484" y1="190.454" x2="226.109" y2="190.454" gradientUnits="userSpaceOnUse">
<stop stop-color="#5F4972"/>
<stop offset="0.58" stop-color="#3D3243"/>
<stop offset="1" stop-color="#282326"/>
</linearGradient>
<linearGradient id="paint36_linear_860_1116" x1="239.084" y1="108.523" x2="326.86" y2="148.969" gradientUnits="userSpaceOnUse">
<stop stop-color="#5F4972"/>
<stop offset="0.03" stop-color="#5A466C"/>
<stop offset="0.18" stop-color="#44374D"/>
<stop offset="0.33" stop-color="#352C38"/>
<stop offset="0.48" stop-color="#2B252A"/>
<stop offset="0.61" stop-color="#282326"/>
</linearGradient>
<linearGradient id="paint37_linear_860_1116" x1="239.084" y1="108.523" x2="326.861" y2="148.97" gradientUnits="userSpaceOnUse">
<stop stop-color="#5F4972"/>
<stop offset="0.29" stop-color="#564172"/>
<stop offset="0.75" stop-color="#3E2B72"/>
<stop offset="1" stop-color="#2E1D72"/>
</linearGradient>
<linearGradient id="paint38_linear_860_1116" x1="250.44" y1="83.904" x2="338.216" y2="124.351" gradientUnits="userSpaceOnUse">
<stop stop-color="#5F4972"/>
<stop offset="0.29" stop-color="#564172"/>
<stop offset="0.75" stop-color="#3E2B72"/>
<stop offset="1" stop-color="#2E1D72"/>
</linearGradient>
<linearGradient id="paint39_linear_860_1116" x1="246.901" y1="91.5845" x2="334.677" y2="132.031" gradientUnits="userSpaceOnUse">
<stop stop-color="#5F4972"/>
<stop offset="0.29" stop-color="#564172"/>
<stop offset="0.75" stop-color="#3E2B72"/>
<stop offset="1" stop-color="#2E1D72"/>
</linearGradient>
<linearGradient id="paint40_linear_860_1116" x1="231.944" y1="124.043" x2="319.72" y2="164.49" gradientUnits="userSpaceOnUse">
<stop stop-color="#5F4972"/>
<stop offset="0.29" stop-color="#564172"/>
<stop offset="0.75" stop-color="#3E2B72"/>
<stop offset="1" stop-color="#2E1D72"/>
</linearGradient>
<linearGradient id="paint41_linear_860_1116" x1="238.188" y1="110.493" x2="325.965" y2="150.94" gradientUnits="userSpaceOnUse">
<stop stop-color="#5F4972"/>
<stop offset="0.29" stop-color="#564172"/>
<stop offset="0.75" stop-color="#3E2B72"/>
<stop offset="1" stop-color="#2E1D72"/>
</linearGradient>
<linearGradient id="paint42_linear_860_1116" x1="248.449" y1="108.238" x2="288.425" y2="93.482" gradientUnits="userSpaceOnUse">
<stop stop-color="#5F4972"/>
<stop offset="0.19" stop-color="#5C476E"/>
<stop offset="0.38" stop-color="#523F62"/>
<stop offset="0.56" stop-color="#42324F"/>
<stop offset="0.75" stop-color="#2B2133"/>
<stop offset="0.93" stop-color="#0D0A10"/>
<stop offset="1"/>
</linearGradient>
<linearGradient id="paint43_linear_860_1116" x1="291.859" y1="148.504" x2="310.852" y2="141.493" gradientUnits="userSpaceOnUse">
<stop stop-color="#5F4972"/>
<stop offset="0.19" stop-color="#5C476E"/>
<stop offset="0.38" stop-color="#523F62"/>
<stop offset="0.56" stop-color="#42324F"/>
<stop offset="0.75" stop-color="#2B2133"/>
<stop offset="0.93" stop-color="#0D0A10"/>
<stop offset="1"/>
</linearGradient>
<linearGradient id="paint44_linear_860_1116" x1="282.109" y1="139.931" x2="300.782" y2="133.039" gradientUnits="userSpaceOnUse">
<stop stop-color="#5F4972"/>
<stop offset="0.19" stop-color="#5C476E"/>
<stop offset="0.38" stop-color="#523F62"/>
<stop offset="0.56" stop-color="#42324F"/>
<stop offset="0.75" stop-color="#2B2133"/>
<stop offset="0.93" stop-color="#0D0A10"/>
<stop offset="1"/>
</linearGradient>
<linearGradient id="paint45_linear_860_1116" x1="314.789" y1="155.963" x2="334.611" y2="181.409" gradientUnits="userSpaceOnUse">
<stop stop-color="#5F4972"/>
<stop offset="0.14" stop-color="#4E3D5B"/>
<stop offset="0.32" stop-color="#3D3243"/>
<stop offset="0.51" stop-color="#312933"/>
<stop offset="0.73" stop-color="#2A2529"/>
<stop offset="1" stop-color="#282326"/>
</linearGradient>
<linearGradient id="paint46_linear_860_1116" x1="314.874" y1="171.36" x2="336.279" y2="167.212" gradientUnits="userSpaceOnUse">
<stop stop-color="#5F4972"/>
<stop offset="0.29" stop-color="#564172"/>
<stop offset="0.75" stop-color="#3E2B72"/>
<stop offset="1" stop-color="#2E1D72"/>
</linearGradient>
<linearGradient id="paint47_linear_860_1116" x1="313.291" y1="163.206" x2="334.684" y2="159.051" gradientUnits="userSpaceOnUse">
<stop stop-color="#5F4972"/>
<stop offset="0.29" stop-color="#564172"/>
<stop offset="0.75" stop-color="#3E2B72"/>
<stop offset="1" stop-color="#2E1D72"/>
</linearGradient>
<linearGradient id="paint48_linear_860_1116" x1="319.19" y1="161.701" x2="334.316" y2="171.906" gradientUnits="userSpaceOnUse">
<stop stop-color="#5F4972"/>
<stop offset="0.19" stop-color="#5C476E"/>
<stop offset="0.38" stop-color="#523F62"/>
<stop offset="0.56" stop-color="#42324F"/>
<stop offset="0.75" stop-color="#2B2133"/>
<stop offset="0.93" stop-color="#0D0A10"/>
<stop offset="1"/>
</linearGradient>
<linearGradient id="paint49_linear_860_1116" x1="332.642" y1="135.594" x2="360.834" y2="171.777" gradientUnits="userSpaceOnUse">
<stop stop-color="#5F4972"/>
<stop offset="0.14" stop-color="#4E3D5B"/>
<stop offset="0.32" stop-color="#3D3243"/>
<stop offset="0.51" stop-color="#312933"/>
<stop offset="0.73" stop-color="#2A2529"/>
<stop offset="1" stop-color="#282326"/>
</linearGradient>
<linearGradient id="paint50_linear_860_1116" x1="330.871" y1="157.666" x2="369.897" y2="150.085" gradientUnits="userSpaceOnUse">
<stop stop-color="#5F4972"/>
<stop offset="0.29" stop-color="#564172"/>
<stop offset="0.75" stop-color="#3E2B72"/>
<stop offset="1" stop-color="#2E1D72"/>
</linearGradient>
<linearGradient id="paint51_linear_860_1116" x1="328.857" y1="147.295" x2="367.883" y2="139.715" gradientUnits="userSpaceOnUse">
<stop stop-color="#5F4972"/>
<stop offset="0.29" stop-color="#564172"/>
<stop offset="0.75" stop-color="#3E2B72"/>
<stop offset="1" stop-color="#2E1D72"/>
</linearGradient>
<linearGradient id="paint52_linear_860_1116" x1="334.842" y1="144.593" x2="358.736" y2="160.714" gradientUnits="userSpaceOnUse">
<stop stop-color="#5F4972"/>
<stop offset="0.19" stop-color="#5C476E"/>
<stop offset="0.38" stop-color="#523F62"/>
<stop offset="0.56" stop-color="#42324F"/>
<stop offset="0.75" stop-color="#2B2133"/>
<stop offset="0.93" stop-color="#0D0A10"/>
<stop offset="1"/>
</linearGradient>
<linearGradient id="paint53_linear_860_1116" x1="171.921" y1="26.0688" x2="202.218" y2="91.0628" gradientUnits="userSpaceOnUse">
<stop stop-color="#706495"/>
<stop offset="0.02" stop-color="#6D618F"/>
<stop offset="0.15" stop-color="#5A5071"/>
<stop offset="0.29" stop-color="#4B435A"/>
<stop offset="0.44" stop-color="#403949"/>
<stop offset="0.6" stop-color="#3A343F"/>
<stop offset="0.81" stop-color="#38323C"/>
</linearGradient>
<linearGradient id="paint54_linear_860_1116" x1="148.201" y1="43.1249" x2="199.513" y2="94.4509" gradientUnits="userSpaceOnUse">
<stop stop-color="#5F4972"/>
<stop offset="0.29" stop-color="#564172"/>
<stop offset="0.75" stop-color="#3E2B72"/>
<stop offset="1" stop-color="#2E1D72"/>
</linearGradient>
<linearGradient id="paint55_linear_860_1116" x1="171.395" y1="6.37852" x2="237.015" y2="71.999" gradientUnits="userSpaceOnUse">
<stop stop-color="#5F4972"/>
<stop offset="0.29" stop-color="#564172"/>
<stop offset="0.75" stop-color="#3E2B72"/>
<stop offset="1" stop-color="#2E1D72"/>
</linearGradient>
<linearGradient id="paint56_linear_860_1116" x1="177.232" y1="14.0951" x2="228.544" y2="65.4212" gradientUnits="userSpaceOnUse">
<stop stop-color="#5F4972"/>
<stop offset="0.29" stop-color="#564172"/>
<stop offset="0.75" stop-color="#3E2B72"/>
<stop offset="1" stop-color="#2E1D72"/>
</linearGradient>
<linearGradient id="paint57_linear_860_1116" x1="175.039" y1="16.2875" x2="226.351" y2="67.5991" gradientUnits="userSpaceOnUse">
<stop stop-color="#5F4972"/>
<stop offset="0.15" stop-color="#584369"/>
<stop offset="0.4" stop-color="#433451"/>
<stop offset="0.72" stop-color="#231B2A"/>
<stop offset="1"/>
</linearGradient>
<linearGradient id="paint58_linear_860_1116" x1="168.034" y1="23.2924" x2="219.36" y2="74.6041" gradientUnits="userSpaceOnUse">
<stop stop-color="#5F4972"/>
<stop offset="0.15" stop-color="#584369"/>
<stop offset="0.4" stop-color="#433451"/>
<stop offset="0.72" stop-color="#231B2A"/>
<stop offset="1"/>
</linearGradient>
<linearGradient id="paint59_linear_860_1116" x1="208.725" y1="120.677" x2="171.053" y2="57.9606" gradientUnits="userSpaceOnUse">
<stop stop-color="#38323C"/>
<stop offset="0.28" stop-color="#453E51"/>
<stop offset="0.85" stop-color="#665C86"/>
<stop offset="1" stop-color="#706495"/>
</linearGradient>
<linearGradient id="paint60_linear_860_1116" x1="141.695" y1="112.433" x2="183.226" y2="112.433" gradientUnits="userSpaceOnUse">
<stop stop-color="#5F4972"/>
<stop offset="0.29" stop-color="#564172"/>
<stop offset="0.75" stop-color="#3E2B72"/>
<stop offset="1" stop-color="#2E1D72"/>
</linearGradient>
<linearGradient id="paint61_linear_860_1116" x1="146.209" y1="90.123" x2="239.692" y2="90.123" gradientUnits="userSpaceOnUse">
<stop stop-color="#5F4972"/>
<stop offset="0.29" stop-color="#564172"/>
<stop offset="0.75" stop-color="#3E2B72"/>
<stop offset="1" stop-color="#2E1D72"/>
</linearGradient>
<linearGradient id="paint62_linear_860_1116" x1="182.912" y1="84.1577" x2="202.147" y2="84.1577" gradientUnits="userSpaceOnUse">
<stop stop-color="#5F4972"/>
<stop offset="0.29" stop-color="#564172"/>
<stop offset="0.75" stop-color="#3E2B72"/>
<stop offset="1" stop-color="#2E1D72"/>
</linearGradient>
<linearGradient id="paint63_linear_860_1116" x1="146.209" y1="86.5354" x2="158.168" y2="86.5354" gradientUnits="userSpaceOnUse">
<stop stop-color="#5F4972"/>
<stop offset="0.29" stop-color="#564172"/>
<stop offset="0.75" stop-color="#3E2B72"/>
<stop offset="1" stop-color="#2E1D72"/>
</linearGradient>
<linearGradient id="paint64_linear_860_1116" x1="141.695" y1="92.3156" x2="221.895" y2="92.3156" gradientUnits="userSpaceOnUse">
<stop stop-color="#5F4972"/>
<stop offset="0.19" stop-color="#5C476E"/>
<stop offset="0.38" stop-color="#523F62"/>
<stop offset="0.56" stop-color="#42324F"/>
<stop offset="0.75" stop-color="#2B2133"/>
<stop offset="0.93" stop-color="#0D0A10"/>
<stop offset="1"/>
</linearGradient>
<linearGradient id="paint65_linear_860_1116" x1="135.929" y1="97.911" x2="1487.15" y2="97.911" gradientUnits="userSpaceOnUse">
<stop stop-color="#5F4972"/>
<stop offset="0.29" stop-color="#564172"/>
<stop offset="0.75" stop-color="#3E2B72"/>
<stop offset="1" stop-color="#2E1D72"/>
</linearGradient>
<radialGradient id="paint66_radial_860_1116" cx="0" cy="0" r="1" gradientUnits="userSpaceOnUse" gradientTransform="translate(186.141 53.2933) rotate(-19.8851) scale(17.8751 11.3669)">
<stop stop-color="#D20FB1"/>
<stop offset="0.16" stop-color="#990B81"/>
<stop offset="0.33" stop-color="#630753"/>
<stop offset="0.49" stop-color="#38042F"/>
<stop offset="0.63" stop-color="#190215"/>
<stop offset="0.75" stop-color="#070006"/>
<stop offset="0.84"/>
</radialGradient>
<radialGradient id="paint67_radial_860_1116" cx="0" cy="0" r="1" gradientUnits="userSpaceOnUse" gradientTransform="translate(152.414 59.7051) rotate(9.84113) scale(17.7863 11.2054)">
<stop stop-color="#9A1884"/>
<stop offset="0.16" stop-color="#990B81"/>
<stop offset="0.33" stop-color="#630753"/>
<stop offset="1" stop-color="#38042F" stop-opacity="0"/>
</radialGradient>
<linearGradient id="paint68_linear_860_1116" x1="144.888" y1="42.8402" x2="160.058" y2="65.7892" gradientUnits="userSpaceOnUse">
<stop stop-color="#706495"/>
<stop offset="0.12" stop-color="#645981"/>
<stop offset="0.36" stop-color="#514863"/>
<stop offset="0.58" stop-color="#433C4D"/>
<stop offset="0.8" stop-color="#3B3440"/>
<stop offset="1" stop-color="#38323C"/>
</linearGradient>
<linearGradient id="paint69_linear_860_1116" x1="146.215" y1="41.9629" x2="161.385" y2="64.9119" gradientUnits="userSpaceOnUse">
<stop stop-color="#5F4972"/>
<stop offset="0.29" stop-color="#564172"/>
<stop offset="0.75" stop-color="#3E2B72"/>
<stop offset="1" stop-color="#2E1D72"/>
</linearGradient>
<linearGradient id="paint70_linear_860_1116" x1="157.987" y1="59.1318" x2="167.461" y2="61.0652" gradientUnits="userSpaceOnUse">
<stop stop-color="#5F4972"/>
<stop offset="0.29" stop-color="#564172"/>
<stop offset="0.75" stop-color="#3E2B72"/>
<stop offset="1" stop-color="#2E1D72"/>
</linearGradient>
<linearGradient id="paint71_linear_860_1116" x1="139.564" y1="52.4069" x2="150.615" y2="54.6621" gradientUnits="userSpaceOnUse">
<stop stop-color="#5F4972"/>
<stop offset="0.29" stop-color="#564172"/>
<stop offset="0.75" stop-color="#3E2B72"/>
<stop offset="1" stop-color="#2E1D72"/>
</linearGradient>
<linearGradient id="paint72_linear_860_1116" x1="138.187" y1="49.4663" x2="167.265" y2="55.4005" gradientUnits="userSpaceOnUse">
<stop stop-color="#5F4972"/>
<stop offset="0.15" stop-color="#584369"/>
<stop offset="0.4" stop-color="#433451"/>
<stop offset="0.72" stop-color="#231B2A"/>
<stop offset="1"/>
</linearGradient>
<linearGradient id="paint73_linear_860_1116" x1="174.65" y1="40.2839" x2="195.589" y2="54.4221" gradientUnits="userSpaceOnUse">
<stop stop-color="#706495"/>
<stop offset="0.12" stop-color="#645981"/>
<stop offset="0.36" stop-color="#514863"/>
<stop offset="0.58" stop-color="#433C4D"/>
<stop offset="0.8" stop-color="#3B3440"/>
<stop offset="1" stop-color="#38323C"/>
</linearGradient>
<linearGradient id="paint74_linear_860_1116" x1="175.066" y1="39.6677" x2="195.991" y2="53.8086" gradientUnits="userSpaceOnUse">
<stop stop-color="#5F4972"/>
<stop offset="0.29" stop-color="#564172"/>
<stop offset="0.75" stop-color="#3E2B72"/>
<stop offset="1" stop-color="#2E1D72"/>
</linearGradient>
<linearGradient id="paint75_linear_860_1116" x1="174.301" y1="53.1924" x2="189.621" y2="50.2221" gradientUnits="userSpaceOnUse">
<stop stop-color="#5F4972"/>
<stop offset="0.29" stop-color="#564172"/>
<stop offset="0.75" stop-color="#3E2B72"/>
<stop offset="1" stop-color="#2E1D72"/>
</linearGradient>
<linearGradient id="paint76_linear_860_1116" x1="191.037" y1="44.91" x2="196.674" y2="43.8172" gradientUnits="userSpaceOnUse">
<stop stop-color="#5F4972"/>
<stop offset="0.29" stop-color="#564172"/>
<stop offset="0.75" stop-color="#3E2B72"/>
<stop offset="1" stop-color="#2E1D72"/>
</linearGradient>
<linearGradient id="paint77_linear_860_1116" x1="199.906" y1="41.8877" x2="202.277" y2="41.4278" gradientUnits="userSpaceOnUse">
<stop stop-color="#5F4972"/>
<stop offset="0.29" stop-color="#564172"/>
<stop offset="0.75" stop-color="#3E2B72"/>
<stop offset="1" stop-color="#2E1D72"/>
</linearGradient>
<linearGradient id="paint78_linear_860_1116" x1="168.92" y1="50.4574" x2="200.83" y2="44.2708" gradientUnits="userSpaceOnUse">
<stop stop-color="#5F4972"/>
<stop offset="0.15" stop-color="#584369"/>
<stop offset="0.4" stop-color="#433451"/>
<stop offset="0.72" stop-color="#231B2A"/>
<stop offset="1"/>
</linearGradient>
<linearGradient id="paint79_linear_860_1116" x1="15.2379" y1="93.1985" x2="146.578" y2="224.539" gradientUnits="userSpaceOnUse">
<stop stop-color="#5F4972"/>
<stop offset="0.05" stop-color="#5A466C"/>
<stop offset="0.3" stop-color="#44374D"/>
<stop offset="0.54" stop-color="#352C38"/>
<stop offset="0.78" stop-color="#2B252A"/>
<stop offset="1" stop-color="#282326"/>
</linearGradient>
<linearGradient id="paint80_linear_860_1116" x1="15.9783" y1="92.458" x2="147.319" y2="223.798" gradientUnits="userSpaceOnUse">
<stop stop-color="#5F4972"/>
<stop offset="0.29" stop-color="#564172"/>
<stop offset="0.75" stop-color="#3E2B72"/>
<stop offset="1" stop-color="#2E1D72"/>
</linearGradient>
<linearGradient id="paint81_linear_860_1116" x1="15.9777" y1="92.458" x2="147.318" y2="223.798" gradientUnits="userSpaceOnUse">
<stop stop-color="#5F4972"/>
<stop offset="0.29" stop-color="#564172"/>
<stop offset="0.75" stop-color="#3E2B72"/>
<stop offset="1" stop-color="#2E1D72"/>
</linearGradient>
<linearGradient id="paint82_linear_860_1116" x1="17.3457" y1="101.997" x2="70.7219" y2="101.997" gradientUnits="userSpaceOnUse">
<stop stop-color="#5F4972"/>
<stop offset="0.19" stop-color="#5C476E"/>
<stop offset="0.38" stop-color="#523F62"/>
<stop offset="0.56" stop-color="#42324F"/>
<stop offset="0.75" stop-color="#2B2133"/>
<stop offset="0.93" stop-color="#0D0A10"/>
<stop offset="1"/>
</linearGradient>
<linearGradient id="paint83_linear_860_1116" x1="6.12598" y1="141.321" x2="68.6142" y2="141.321" gradientUnits="userSpaceOnUse">
<stop stop-color="#5F4972"/>
<stop offset="0.19" stop-color="#5C476E"/>
<stop offset="0.38" stop-color="#523F62"/>
<stop offset="0.56" stop-color="#42324F"/>
<stop offset="0.75" stop-color="#2B2133"/>
<stop offset="0.93" stop-color="#0D0A10"/>
<stop offset="1"/>
</linearGradient>
<linearGradient id="paint84_linear_860_1116" x1="70.8495" y1="124.976" x2="98.285" y2="124.976" gradientUnits="userSpaceOnUse">
<stop stop-color="#5F4972"/>
<stop offset="0.19" stop-color="#5C476E"/>
<stop offset="0.38" stop-color="#523F62"/>
<stop offset="0.56" stop-color="#42324F"/>
<stop offset="0.75" stop-color="#2B2133"/>
<stop offset="0.93" stop-color="#0D0A10"/>
<stop offset="1"/>
</linearGradient>
<linearGradient id="paint85_linear_860_1116" x1="19.1533" y1="167.005" x2="48.8384" y2="167.005" gradientUnits="userSpaceOnUse">
<stop stop-color="#5F4972"/>
<stop offset="0.19" stop-color="#5C476E"/>
<stop offset="0.38" stop-color="#523F62"/>
<stop offset="0.56" stop-color="#42324F"/>
<stop offset="0.75" stop-color="#2B2133"/>
<stop offset="0.93" stop-color="#0D0A10"/>
<stop offset="1"/>
</linearGradient>
<linearGradient id="paint86_linear_860_1116" x1="300.405" y1="17.9799" x2="364.589" y2="156.653" gradientUnits="userSpaceOnUse">
<stop stop-color="#5F4972"/>
<stop offset="0.05" stop-color="#5A466C"/>
<stop offset="0.3" stop-color="#44374D"/>
<stop offset="0.54" stop-color="#352C38"/>
<stop offset="0.78" stop-color="#2B252A"/>
<stop offset="1" stop-color="#282326"/>
</linearGradient>
<linearGradient id="paint87_linear_860_1116" x1="344.362" y1="4.08274" x2="335.178" y2="189.283" gradientUnits="userSpaceOnUse">
<stop stop-color="#5F4972"/>
<stop offset="0.29" stop-color="#564172"/>
<stop offset="0.75" stop-color="#3E2B72"/>
<stop offset="1" stop-color="#2E1D72"/>
</linearGradient>
<linearGradient id="paint88_linear_860_1116" x1="344.363" y1="4.08281" x2="335.179" y2="189.283" gradientUnits="userSpaceOnUse">
<stop stop-color="#5F4972"/>
<stop offset="0.29" stop-color="#564172"/>
<stop offset="0.75" stop-color="#3E2B72"/>
<stop offset="1" stop-color="#2E1D72"/>
</linearGradient>
<linearGradient id="paint89_linear_860_1116" x1="349.742" y1="12.0574" x2="310.244" y2="47.8194" gradientUnits="userSpaceOnUse">
<stop stop-color="#5F4972"/>
<stop offset="0.19" stop-color="#5C476E"/>
<stop offset="0.38" stop-color="#523F62"/>
<stop offset="0.56" stop-color="#42324F"/>
<stop offset="0.75" stop-color="#2B2133"/>
<stop offset="0.93" stop-color="#0D0A10"/>
<stop offset="1"/>
</linearGradient>
<linearGradient id="paint90_linear_860_1116" x1="384.391" y1="33.6404" x2="338.15" y2="75.5074" gradientUnits="userSpaceOnUse">
<stop stop-color="#5F4972"/>
<stop offset="0.19" stop-color="#5C476E"/>
<stop offset="0.38" stop-color="#523F62"/>
<stop offset="0.56" stop-color="#42324F"/>
<stop offset="0.75" stop-color="#2B2133"/>
<stop offset="0.93" stop-color="#0D0A10"/>
<stop offset="1"/>
</linearGradient>
<linearGradient id="paint91_linear_860_1116" x1="325.546" y1="64.9104" x2="305.243" y2="83.2923" gradientUnits="userSpaceOnUse">
<stop stop-color="#5F4972"/>
<stop offset="0.19" stop-color="#5C476E"/>
<stop offset="0.38" stop-color="#523F62"/>
<stop offset="0.56" stop-color="#42324F"/>
<stop offset="0.75" stop-color="#2B2133"/>
<stop offset="0.93" stop-color="#0D0A10"/>
<stop offset="1"/>
</linearGradient>
<linearGradient id="paint92_linear_860_1116" x1="391.96" y1="61.3753" x2="370.003" y2="81.2547" gradientUnits="userSpaceOnUse">
<stop stop-color="#5F4972"/>
<stop offset="0.19" stop-color="#5C476E"/>
<stop offset="0.38" stop-color="#523F62"/>
<stop offset="0.56" stop-color="#42324F"/>
<stop offset="0.75" stop-color="#2B2133"/>
<stop offset="0.93" stop-color="#0D0A10"/>
<stop offset="1"/>
</linearGradient>
</defs>
</svg>
