<svg width="401" height="215" viewBox="0 0 401 215" fill="none" xmlns="http://www.w3.org/2000/svg">
<path d="M175.861 159.509L166.268 143.248L161.755 136.213C161.548 135.927 161.359 135.628 161.189 135.318L161.755 136.213C162.705 137.547 164.697 139.721 166.506 137.657L167.511 135.208C167.856 134.384 167.97 133.48 167.84 132.596L162.066 94.8836C161.946 94.0791 161.624 93.3179 161.132 92.6703C160.64 92.0226 159.993 91.5094 159.25 91.1781C158.507 90.8467 157.693 90.7078 156.882 90.7742C156.071 90.8407 155.29 91.1103 154.611 91.5582L149.477 94.9018C148.561 95.4994 147.873 96.3874 147.522 97.4233L137.29 128.156C136.997 129.083 136.997 130.078 137.29 131.006L141.84 146.957C141.908 147.202 141.956 147.453 141.986 147.706L146.188 182.988C146.272 183.798 146.559 184.575 147.022 185.245C147.485 185.915 148.11 186.457 148.839 186.822C149.568 187.186 150.377 187.361 151.191 187.329C152.005 187.298 152.798 187.062 153.497 186.642L161.646 186.003C162.728 185.332 163.503 184.262 163.802 183.025L176.391 163.218C176.558 162.597 176.598 161.947 176.507 161.309C176.416 160.672 176.196 160.059 175.861 159.509Z" fill="url(#paint0_linear_860_593)"/>
<path style="mix-blend-mode:multiply" opacity="0.14" d="M153.498 186.55L161.647 185.911C162.725 185.236 163.498 184.168 163.803 182.933L176.392 163.127C176.552 162.513 176.587 161.873 176.496 161.246C176.405 160.618 176.19 160.015 175.862 159.472L166.269 143.211L161.756 136.176C161.549 135.89 161.36 135.591 161.19 135.281L163.785 158.833L152.822 163.145L148.126 186.386C148.906 186.939 149.832 187.249 150.787 187.278C151.743 187.307 152.685 187.054 153.498 186.55Z" fill="url(#paint1_linear_860_593)"/>
<path style="mix-blend-mode:multiply" opacity="0.14" d="M144.69 131.81L161.134 135.318L161.701 136.213C162.651 137.547 164.643 139.721 166.451 137.656L167.456 135.208C167.802 134.383 167.915 133.48 167.785 132.595L162.304 96.5276L144.672 105.919L144.69 131.81Z" fill="url(#paint2_linear_860_593)"/>
<path style="mix-blend-mode:multiply" opacity="0.14" d="M173.668 161.281L163.783 158.87L152.894 163.182L167.894 165.192L169.338 174.254L176.409 163.127L173.668 161.281Z" fill="url(#paint3_linear_860_593)"/>
<path style="mix-blend-mode:multiply" opacity="0.14" d="M144.689 131.81L149.952 162.378L148.124 134.496L161.152 135.318L162.449 137.145C163.509 138.296 165.044 139.301 166.469 137.675L167.474 135.227C167.819 134.402 167.933 133.498 167.803 132.614L166.706 125.451L148.124 127.279L144.689 131.81Z" fill="url(#paint4_linear_860_593)"/>
<path style="mix-blend-mode:multiply" opacity="0.14" d="M166.361 122.875L164.991 113.977L160.295 113.282L166.361 122.875Z" fill="url(#paint5_linear_860_593)"/>
<path style="mix-blend-mode:color-dodge" opacity="0.32" d="M144.689 107.454L143.337 132.138L149.951 162.378L145.402 132.486L158.192 134.916L148.325 134.495C148.325 134.495 159.946 135.391 160.439 136.779C160.932 138.168 163.472 158.869 163.472 158.869L151.577 162.926L148.124 185.728C148.124 185.728 153.057 164.351 154.976 164.04C159.288 164.182 163.588 164.566 167.857 165.191C167.857 165.191 155.067 162.834 156.255 162.378L163.728 159.344L173.613 161.299C173.613 161.299 164.258 158.961 163.819 156.531C163.381 154.101 160.165 135.811 166.231 143.247L162.449 137.126L164.605 130.695C164.605 130.695 163.6 134.715 156.748 133.509C149.896 132.303 145.109 132.741 146.388 130.951C147.073 130.044 147.656 129.063 148.124 128.027L166.706 125.433C166.706 125.433 148.91 126.657 148.124 125.798C147.306 124.258 146.692 122.618 146.297 120.92C146.297 120.92 146.151 128.74 144.744 130.165L144.689 107.454Z" fill="url(#paint6_linear_860_593)"/>
<g style="mix-blend-mode:multiply" opacity="0.47">
<path d="M163.803 182.933L176.392 163.127C176.552 162.513 176.588 161.874 176.497 161.246C176.406 160.619 176.19 160.016 175.862 159.473L166.27 143.211L161.757 136.177C161.55 135.89 161.361 135.591 161.19 135.281L161.757 136.177C162.707 137.511 164.699 139.685 166.507 137.62L167.512 135.172C167.858 134.347 167.971 133.444 167.841 132.559L162.067 94.8469C161.947 94.0425 161.626 93.2813 161.134 92.6337C160.642 91.986 159.994 91.4728 159.251 91.1414C158.509 90.8101 157.694 90.6712 156.883 90.7376C156.073 90.804 155.292 91.0737 154.613 91.5216L149.478 94.8652C148.563 95.4628 147.874 96.3508 147.523 97.3867L152.877 126.109L149.223 133.18L159.473 160.167L156.367 163.967L154.211 186.459L161.72 185.875C162.763 185.195 163.508 184.143 163.803 182.933Z" fill="#2B5270"/>
</g>
<path d="M316.952 90.078L312.567 88.9269L313.663 83.4455C310.009 76.137 305.167 67.0013 299.484 57.1531L292.76 50.5571C292.76 50.5571 295.848 51.0505 294.88 49.4243C292.852 46.0807 290.732 42.7005 288.54 39.3568L283.881 37.5297C286.493 36.9084 285.817 35.3188 285.47 34.7341C282.711 30.6596 279.843 26.6217 276.883 22.7299C276.024 21.9901 274.979 21.5 273.861 21.3132C272.743 21.1263 271.595 21.2498 270.543 21.6701C273.247 19.9709 273.557 18.7467 273.301 18.0159C268.651 12.089 263.596 6.49068 258.173 1.26106C257.498 0.629376 256.647 0.219067 255.732 0.0851687C254.818 -0.0487297 253.884 0.100179 253.057 0.511926C245.166 4.54505 237.494 8.99115 230.071 13.8317L231.186 17.1571C229.698 16.5145 228.093 16.1849 226.472 16.1887C223 18.4909 219.291 21.0489 215.381 23.881C211.928 27.7545 218.451 28.4854 218.451 28.4854L206.191 30.6231C200.088 35.3188 193.62 40.5627 186.896 46.4278L143.94 105.919C156.855 120.307 170.71 133.821 185.416 146.372C194.552 153.333 200.454 152.676 200.454 152.676C199.994 153.779 199.89 154.999 200.155 156.164C200.42 157.33 201.042 158.384 201.934 159.18C206.62 162.514 211.501 165.565 216.551 168.316C217.751 168.976 219.099 169.323 220.47 169.323C221.84 169.323 223.188 168.976 224.389 168.316C238.294 160.551 287.188 132.468 317.189 104.512C318.518 103.271 319.42 101.64 319.764 99.8545C320.109 98.0688 319.879 96.2197 319.108 94.5728C318.505 93.3303 317.774 91.7773 316.952 90.078Z" fill="url(#paint7_linear_860_593)"/>
<g style="mix-blend-mode:multiply" opacity="0.64">
<path d="M185.416 146.427C194.552 153.388 200.454 152.731 200.454 152.731C199.994 153.834 199.89 155.054 200.155 156.219C200.42 157.385 201.042 158.439 201.934 159.235C206.62 162.569 211.501 165.62 216.551 168.371C217.751 169.031 219.099 169.378 220.47 169.378C221.84 169.378 223.188 169.031 224.389 168.371C238.294 160.606 287.188 132.522 317.189 104.567C318.518 103.326 319.42 101.695 319.764 99.9094C320.109 98.1237 319.879 96.2747 319.108 94.6277C318.487 93.3122 317.756 91.7591 316.933 90.0599L312.548 88.9088L313.645 83.4274C309.99 76.1188 305.148 66.9832 299.466 57.1349L292.742 50.539C292.742 50.539 295.83 51.0323 294.862 49.4061C292.834 46.0625 290.714 42.6823 288.522 39.3386L283.862 37.5115C286.475 36.8903 285.799 35.3007 285.452 34.716C282.693 30.6415 279.824 26.6035 276.864 22.7117C276.006 21.9783 274.963 21.4936 273.849 21.3101C272.734 21.1265 271.591 21.2511 270.543 21.6702C273.247 19.971 273.557 18.7468 273.301 18.016C268.651 12.0891 263.596 6.49078 258.173 1.26116C257.509 0.641288 256.676 0.234039 255.779 0.0917969L260.055 19.4411L260.676 22.2915L261.188 26.1833L264.586 37.5115L265.481 40.5445L267.71 45.021L270.78 54.1567L271.949 57.6465V60.3324L279.97 75.0591L259.123 121.889L237.197 146.847H234.913L220.57 138.424L209.79 141.019L195.904 149.168L180.556 142.279L183.936 132.559L230.455 111.017L237.142 76.3016L154.702 91.1379L143.94 106.047C156.857 120.41 170.713 133.9 185.416 146.427Z" fill="#2B5270"/>
</g>
<path style="mix-blend-mode:multiply" opacity="0.14" d="M294.882 49.4057L294.426 48.6383C294.042 50.6665 286.368 48.0354 286.368 48.0354L270.746 54.1197L224.867 26.7675C224.867 26.7675 220.481 27.0599 218.928 27.3157C217.344 27.2583 215.788 26.8725 214.361 26.1829C214.689 28.01 218.417 28.4851 218.417 28.4851L222.071 31.9566L206.248 30.6776L207.417 47.4507L224.136 33.1077L237.145 37.9313L271.86 57.5365L292.708 50.4655C292.708 50.4655 295.851 51.0319 294.882 49.4057Z" fill="url(#paint8_linear_860_593)"/>
<path style="mix-blend-mode:multiply" opacity="0.14" d="M238.532 40.8004C238.532 40.8004 236.467 38.681 233.379 42.9747C230.292 47.2685 223.769 59.9671 223.769 59.9671C223.769 59.9671 241.273 70.5827 242.643 70.6741C244.013 70.7654 246.297 68.244 246.297 68.244L248.124 89.3839L248.819 90.7543L266.487 96.2357L281.908 71.8982L270.068 97.3502L266.414 96.2357L249.074 123.643L239.299 113.338C239.299 113.338 224.518 126.292 224.792 128.137C225.882 130.988 227.24 133.729 228.848 136.323L220.608 131.682C219.585 132.029 220.608 131.335 219.585 132.029C218.561 132.724 201.752 148.473 201.752 148.473L200.381 152.767C199.922 153.871 199.818 155.09 200.083 156.256C200.348 157.421 200.97 158.476 201.861 159.272C206.547 162.605 211.428 165.656 216.478 168.407C217.679 169.068 219.027 169.414 220.398 169.414C221.768 169.414 223.116 169.068 224.317 168.407C238.221 160.642 287.115 132.559 317.117 104.604C318.446 103.362 319.348 101.732 319.692 99.9461C320.037 98.1603 319.807 96.3113 319.035 94.6643C318.414 93.3488 317.683 91.7957 316.861 90.0965L312.476 88.9454L313.572 83.464C309.918 76.1555 305.076 67.0198 299.394 57.1715L292.67 50.5756L271.822 60.3325L238.532 40.8004Z" fill="url(#paint9_linear_860_593)"/>
<path style="mix-blend-mode:multiply" opacity="0.14" d="M265.445 40.5446L283.88 37.475C286.493 36.8538 285.817 35.2642 285.47 34.6795C282.711 30.605 279.842 26.567 276.883 22.6752C276.018 21.9445 274.971 21.4645 273.853 21.2873C272.735 21.1101 271.59 21.2426 270.542 21.6703L261.188 26.1833L265.445 40.5446Z" fill="url(#paint10_linear_860_593)"/>
<path style="mix-blend-mode:multiply" opacity="0.14" d="M271.913 60.2775L250.792 47.9443L246.242 68.2438L248.124 89.3837L248.818 90.7541L262.01 94.8469L271.913 60.2775Z" fill="url(#paint11_linear_860_593)"/>
<path style="mix-blend-mode:multiply" opacity="0.14" d="M290.917 55.1431L295.796 59.1811L296.234 97.8432L316.461 93.5677L297.257 115.164L249.149 123.588L239.374 113.283L229.069 122.857L240.415 156.458L228.922 136.268L220.682 131.627L220.098 164.68L201.26 158.522C201.466 158.766 201.692 158.992 201.936 159.198C206.622 162.532 211.503 165.583 216.553 168.334C217.754 168.995 219.102 169.341 220.472 169.341C221.842 169.341 223.191 168.995 224.391 168.334C238.296 160.569 287.19 132.486 317.191 104.531C318.52 103.289 319.422 101.658 319.767 99.8727C320.111 98.0869 319.881 96.2379 319.11 94.591C318.489 93.2754 317.758 91.7224 316.936 90.0231L312.55 88.872L313.647 83.3906C309.993 76.0821 305.151 66.9464 299.468 57.0982L292.744 50.5022L271.897 60.2591L290.917 55.1431Z" fill="url(#paint12_linear_860_593)"/>
<path style="mix-blend-mode:multiply" opacity="0.14" d="M183.939 132.522L206.796 124.172L230.457 111.017L237.145 76.3015L173.835 88.7808L170.345 132.943L171.971 134.459L174.163 128.046L183.939 132.522Z" fill="url(#paint13_linear_860_593)"/>
<path style="mix-blend-mode:multiply" opacity="0.14" d="M271.914 57.6099L292.761 50.5389C292.761 50.5389 295.849 51.0323 294.881 49.4061C292.853 46.0625 290.733 42.6823 288.541 39.3386L283.881 37.5115L267.675 45.0575L271.914 57.6099Z" fill="url(#paint14_linear_860_593)"/>
<path style="mix-blend-mode:multiply" opacity="0.14" d="M260.021 19.4413L260.642 22.2916L270.508 21.6704C273.212 19.9711 273.523 18.747 273.267 18.0161L260.021 19.4413Z" fill="url(#paint15_linear_860_593)"/>
<g style="mix-blend-mode:multiply" opacity="0.24">
<path d="M180.558 142.243L189.894 135.409L230.457 111.017L237.144 76.3015L153.607 92.7457L144.033 106.011C155.494 118.788 167.689 130.885 180.558 142.243Z" fill="#2B5270"/>
</g>
<path style="mix-blend-mode:multiply" opacity="0.14" d="M285.472 34.679C285.326 37.2005 264.552 37.5111 264.552 37.5111L235.519 17.4126L260.642 22.1997L270.508 21.5785C273.212 19.8792 273.523 18.655 273.267 17.9242C268.616 11.9973 263.561 6.39899 258.138 1.16936C257.475 0.549491 256.642 0.142242 255.745 0L260.02 19.3494L230.037 13.7401L231.152 17.0654L265.447 40.4527L283.883 37.3832C286.495 36.8533 285.819 35.2637 285.472 34.679Z" fill="url(#paint16_linear_860_593)"/>
<path style="mix-blend-mode:multiply" opacity="0.14" d="M248.124 89.384L236.138 81.509L230.474 110.999L189.894 135.391L220.699 131.627L224.883 128.064L229.067 122.857L235.828 112.369L248.819 90.7543L248.124 89.384Z" fill="url(#paint17_linear_860_593)"/>
<path style="mix-blend-mode:multiply" opacity="0.14" d="M224.884 128.064L230.475 110.998L235.828 112.369L229.068 122.856L224.884 128.064Z" fill="url(#paint18_linear_860_593)"/>
<path style="mix-blend-mode:multiply" opacity="0.14" d="M224.884 26.7677L231.151 17.157L246.243 27.4437L232.284 31.1894L224.884 26.7677Z" fill="url(#paint19_linear_860_593)"/>
<path style="mix-blend-mode:multiply" opacity="0.24" d="M294.882 49.4057L294.426 48.6383C294.042 50.6665 286.368 48.0354 286.368 48.0354L270.746 54.1197L224.867 26.7675C224.867 26.7675 220.481 27.0599 218.928 27.3157C217.344 27.2583 215.788 26.8725 214.361 26.1829C214.689 28.01 218.417 28.4851 218.417 28.4851L222.071 31.9566L206.248 30.6776L207.417 47.4507L224.136 33.1077L237.145 37.9313L271.86 57.5365L292.708 50.4655C292.708 50.4655 295.851 51.0319 294.882 49.4057Z" fill="url(#paint20_linear_860_593)"/>
<path style="mix-blend-mode:multiply" opacity="0.24" d="M285.472 34.679C285.326 37.2005 264.552 37.5111 264.552 37.5111L235.519 17.4126L260.642 22.1997L270.508 21.5785C273.212 19.8792 273.523 18.655 273.267 17.9242C268.616 11.9973 263.561 6.39899 258.138 1.16936C257.475 0.549491 256.642 0.142242 255.745 0L260.02 19.3494L230.037 13.7401L231.152 17.0654L265.447 40.4527L283.883 37.3832C286.495 36.8533 285.819 35.2637 285.472 34.679Z" fill="url(#paint21_linear_860_593)"/>
<path style="mix-blend-mode:color-dodge" opacity="0.32" d="M230.037 13.8318C230.037 13.8318 257.974 18.5093 258.23 17.1572C258.486 15.8051 255.745 0.0917969 255.745 0.0917969L260.02 19.4411L230.037 13.8318Z" fill="url(#paint22_linear_860_593)"/>
<path style="mix-blend-mode:color-dodge" opacity="0.32" d="M260.641 22.291L240.232 19.4407C240.232 19.4407 261.938 34.9165 262.45 34.3135C262.961 33.7106 260.623 26.1828 260.623 26.1828L260.787 23.168C260.787 23.168 261.427 25.6895 262.157 25.3423L270.526 21.688C270.526 21.688 261.39 26.0914 262.03 28.0282C262.669 29.965 263.455 36.9081 269.027 37.4928H264.569L235.536 17.3943L260.641 22.291Z" fill="url(#paint23_linear_860_593)"/>
<path style="mix-blend-mode:color-dodge" opacity="0.32" d="M231.149 17.157L226.07 26.6763C226.07 26.6763 231.35 29.9652 233.652 30.0931C235.955 30.221 246.241 27.4438 246.241 27.4438C246.241 27.4438 234.146 30.9884 234.877 32.0847C235.607 33.181 268.514 52.3293 269.026 52.1832C269.537 52.037 267.29 45.1121 265.883 44.4726C266.115 43.1422 265.963 41.7732 265.445 40.526L268.057 44.1803L279.331 39.5394C279.331 39.5394 268.258 44.8929 268.825 47.0672C269.391 49.2415 270.524 52.6582 271.657 52.9505C272.79 53.2429 286.091 48.0904 286.091 48.0904L270.743 54.0651L224.864 26.7677L222.196 26.9687C222.196 26.9687 225.047 26.6215 231.149 17.157Z" fill="url(#paint24_linear_860_593)"/>
<path style="mix-blend-mode:color-dodge" opacity="0.32" d="M206.339 32.3406C206.339 32.3406 207.398 45.0209 208.166 44.8564C208.933 44.692 224.08 33.108 224.08 33.108L237.144 37.9316L271.86 57.5368L283.334 53.7546C283.334 53.7546 272.371 58.2128 272.371 59.236C272.371 60.2592 282.914 55.198 282.914 55.198L276.574 58.5417L290.204 55.198C290.204 55.198 272.846 60.515 273.468 61.9767C274.089 63.4384 276.3 68.4447 276.3 68.4447C276.3 68.4447 272.536 61.8853 271.896 62.9633C271.257 64.0413 262.45 94.0246 262.45 94.0246L263.967 96.2537L260.002 108.496C260.002 108.496 251.633 121.541 251.889 121.815C254.281 121.942 256.678 121.942 259.07 121.815L249.13 123.551L239.282 114.964C239.282 114.964 229.58 122.382 230.018 123.551C230.457 124.72 233.673 136.341 233.673 136.341C233.673 136.341 229.799 125.25 228.538 125.177C227.278 125.104 224.884 128.064 224.884 128.064C224.884 128.064 221.632 132.139 222.6 132.669C222.6 132.669 219.805 131.645 211.93 138.99C211.93 138.99 216.845 134.276 216.242 133.673C215.639 133.07 190.662 135.994 190.662 135.994L181.015 142.224C181.015 142.224 189.767 135.647 190.662 133.326L230.457 111.017L192.745 134.514C192.745 134.514 218.124 131.7 220.353 130.86C222.582 130.019 230.347 111.748 230.347 111.748L226.437 125.196L235.81 112.406L231.498 120.006C231.498 120.006 238.259 114.945 240.159 110.396C240.159 110.396 246.755 121.98 249.295 121.888C251.834 121.797 261.409 99.2137 261.409 99.2137C261.409 99.2137 252.273 90.4983 249.843 91.7772C247.413 93.0562 237.254 110.049 237.254 110.049C237.254 110.049 247.084 92.5081 245.896 89.8587C244.709 87.2094 236.139 81.6001 236.139 81.6001C236.139 81.6001 246.682 88.0499 247.102 86.2593C247.522 84.4687 246.316 69.9613 246.316 69.9613C246.316 69.9613 248.144 89.1827 251.304 90.4617C254.465 91.7407 259.965 93.513 261.336 92.8553C262.706 92.1975 271.038 60.9352 269.667 59.6562C268.297 58.3772 251.834 49.3877 251.231 50.082C250.628 50.7764 247.12 64.0596 247.12 64.0596C247.12 64.0596 250.775 49.1867 247.888 47.5241C245.001 45.8614 237.437 41.3301 236.066 42.0427C234.696 42.7552 226.931 53.8459 226.931 53.8459C226.931 53.8459 234.093 40.2886 233.07 38.5711C232.046 36.8536 225.231 33.9667 223.952 34.2773C222.673 34.5879 207.508 48.328 207.508 48.328L204.822 46.0258C206.187 41.6007 206.702 36.9572 206.339 32.3406Z" fill="url(#paint25_linear_860_593)"/>
<g style="mix-blend-mode:multiply" opacity="0.24">
<path d="M214.853 153.498L220.389 147.925L229.433 156.403L220.699 150.154L214.853 153.498Z" fill="#2B5270"/>
</g>
<g style="mix-blend-mode:multiply" opacity="0.24">
<path d="M227.807 100.675H232.448L237.162 105.353L232.192 102.009L227.807 100.675Z" fill="#2B5270"/>
</g>
<g style="mix-blend-mode:multiply" opacity="0.24">
<path d="M252.565 8.98969L257.078 6.12109L259.71 8.14921L257.261 6.79713L252.565 8.98969Z" fill="#2B5270"/>
</g>
<g style="mix-blend-mode:multiply" opacity="0.24">
<path d="M249.422 12.005L257.717 8.99023L261.755 12.005L257.936 9.97689L249.422 12.005Z" fill="#2B5270"/>
</g>
<g style="mix-blend-mode:multiply" opacity="0.24">
<path d="M247.102 128.631L250.281 131.883V137.803L248.819 133.528L247.102 128.631Z" fill="#2B5270"/>
</g>
<g style="mix-blend-mode:multiply" opacity="0.24">
<path d="M249.586 127.169L252.857 129.233L253.277 143.796L251.431 130.549L249.586 127.169Z" fill="#2B5270"/>
</g>
<path d="M189.948 179.681L196.014 159.345C196.079 159.125 196.202 158.927 196.37 158.771C196.538 158.615 196.745 158.507 196.969 158.458C197.194 158.409 197.427 158.422 197.644 158.494C197.862 158.567 198.056 158.697 198.206 158.87L216.843 180.448C217.072 180.703 217.191 181.038 217.174 181.381C217.157 181.723 217.005 182.045 216.752 182.275L215.509 183.445C215.309 183.635 215.174 183.885 215.126 184.157L212.074 201.844C212.03 202.081 211.921 202.3 211.759 202.478C211.597 202.656 211.388 202.785 211.157 202.852C210.926 202.918 210.681 202.919 210.449 202.854C210.217 202.789 210.008 202.661 209.845 202.484L190.149 180.905C190.011 180.737 189.92 180.535 189.885 180.32C189.849 180.105 189.871 179.885 189.948 179.681Z" fill="url(#paint26_linear_860_593)"/>
<g style="mix-blend-mode:multiply" opacity="0.47">
<path d="M212.076 201.844L215.146 184.139C215.194 183.867 215.329 183.617 215.53 183.427L216.772 182.257C217.026 182.027 217.177 181.705 217.195 181.363C217.212 181.02 217.093 180.685 216.863 180.43L198.227 158.815L199.012 180.613L208.952 201.442L209.847 202.429C210.007 202.606 210.211 202.735 210.439 202.803C210.667 202.871 210.91 202.875 211.14 202.815C211.37 202.755 211.579 202.632 211.744 202.461C211.909 202.29 212.024 202.076 212.076 201.844Z" fill="#2B5270"/>
</g>
<path style="mix-blend-mode:multiply" opacity="0.24" d="M216.754 182.276C217.008 182.045 217.16 181.723 217.177 181.381C217.194 181.038 217.075 180.703 216.846 180.448L215.018 178.365L214.306 178.238L198.958 180.631L215.092 184.103C215.14 183.83 215.275 183.581 215.475 183.39L216.754 182.276Z" fill="url(#paint27_linear_860_593)"/>
<path style="mix-blend-mode:color-dodge" opacity="0.32" d="M198.208 160.514L197.897 181.215L208.55 200.674C208.55 200.674 200.254 182.951 201.241 182.403C202.228 181.855 210.834 183.262 210.834 183.262C210.834 183.262 196.564 181.27 210.048 178.986C210.048 178.986 200.73 180.357 200.072 178.986C199.414 177.616 198.208 160.514 198.208 160.514Z" fill="url(#paint28_linear_860_593)"/>
<path style="mix-blend-mode:color-dodge" opacity="0.68" d="M189.947 179.68L197.292 165.958L196.013 159.344L189.947 179.68Z" fill="url(#paint29_linear_860_593)"/>
<path d="M217.082 208.677L220.225 191.1C220.26 190.892 220.355 190.699 220.497 190.543C220.64 190.388 220.825 190.277 221.029 190.223L226.51 188.707C226.694 188.656 226.888 188.653 227.073 188.699C227.258 188.744 227.428 188.837 227.568 188.967C227.707 189.097 227.811 189.261 227.869 189.442C227.927 189.624 227.937 189.817 227.899 190.004L223.039 213.958C222.998 214.16 222.902 214.347 222.762 214.498C222.621 214.649 222.441 214.758 222.242 214.813C222.044 214.868 221.833 214.867 221.635 214.81C221.437 214.752 221.259 214.641 221.12 214.488L217.722 210.706C217.467 210.439 217.277 210.117 217.166 209.766C217.055 209.414 217.027 209.042 217.082 208.677Z" fill="url(#paint30_linear_860_593)"/>
<path style="mix-blend-mode:multiply" opacity="0.24" d="M221.047 214.488C221.186 214.641 221.364 214.752 221.563 214.81C221.761 214.867 221.971 214.868 222.17 214.814C222.369 214.759 222.548 214.65 222.689 214.499C222.83 214.347 222.925 214.16 222.966 213.958L227.826 190.004C227.861 189.837 227.856 189.664 227.812 189.498C227.768 189.333 227.686 189.18 227.572 189.053C227.459 188.925 227.317 188.825 227.158 188.762C226.999 188.699 226.827 188.674 226.657 188.689L222.144 193.969L217.558 210.578V210.706L221.047 214.488Z" fill="url(#paint31_linear_860_593)"/>
<g style="mix-blend-mode:multiply" opacity="0.47">
<path d="M223.038 213.958L227.003 194.407L222.216 193.969L220.023 213.336L221.047 214.487C221.18 214.663 221.363 214.795 221.572 214.867C221.781 214.938 222.006 214.946 222.22 214.889C222.433 214.832 222.625 214.714 222.77 214.548C222.916 214.382 223.009 214.176 223.038 213.958Z" fill="#2B5270"/>
</g>
<path style="mix-blend-mode:color-dodge" opacity="0.32" d="M218.507 207.124L221.558 193.311L226.345 189.035C226.345 189.035 223.239 193.457 225.998 194.316C225.998 194.316 222.344 192.488 221.083 203.725C221.083 203.725 222.088 192.269 218.507 207.124Z" fill="url(#paint32_linear_860_593)"/>
<path style="mix-blend-mode:color-dodge" opacity="0.68" d="M221.029 190.223L221.577 193.293L226.657 188.67L221.029 190.223Z" fill="url(#paint33_linear_860_593)"/>
<path d="M307.544 131.115L300.235 121.34C299.677 120.626 298.926 120.087 298.072 119.786C297.217 119.485 296.294 119.435 295.412 119.641C296.983 118.91 296.965 114.653 296.965 114.653L295.138 102.868C295.063 102.372 294.825 101.916 294.462 101.571L264.752 74.1636C264.431 73.8709 264.031 73.6801 263.601 73.6155L258.01 72.7385C257.436 72.6491 256.85 72.7914 256.38 73.134C255.911 73.4766 255.597 73.9915 255.507 74.5656L250.208 114.233C250.167 114.567 250.206 114.907 250.32 115.224C250.434 115.542 250.621 115.828 250.866 116.06L279.771 144.106C279.896 144.234 280.007 144.375 280.1 144.527L283.115 149.423C283.115 149.423 285.6 150.3 287.043 145.239C287.165 144.369 287.348 143.508 287.592 142.663C287.453 143.53 287.27 144.39 287.043 145.239C286.514 148.546 286.166 154.375 289.199 159.253L290.022 160.587L290.131 160.788L300.601 182.549C300.842 183.037 301.255 183.419 301.761 183.622C302.267 183.824 302.83 183.833 303.341 183.646L312.696 180.192C313.163 180.022 313.556 179.697 313.812 179.271C314.068 178.846 314.171 178.345 314.103 177.853L307.964 132.066C307.91 131.717 307.765 131.39 307.544 131.115Z" fill="url(#paint34_linear_860_593)"/>
<g style="mix-blend-mode:multiply" opacity="0.47">
<path d="M303.433 183.755L312.788 180.302C313.254 180.131 313.648 179.806 313.904 179.381C314.16 178.955 314.263 178.455 314.195 177.963L308.056 132.175C308.014 131.802 307.868 131.447 307.635 131.152L300.327 121.377C299.769 120.663 299.018 120.124 298.163 119.823C297.309 119.522 296.386 119.471 295.503 119.678C297.075 118.947 297.056 114.69 297.056 114.69L295.229 102.905C295.155 102.409 294.917 101.952 294.553 101.607L264.844 74.2003C264.523 73.9076 264.122 73.7168 263.693 73.6521L258.102 72.7751C257.528 72.6858 256.941 72.828 256.472 73.1706C256.003 73.5132 255.689 74.0281 255.599 74.6022V74.7484L271.312 114.16L289.583 124.3L280.795 139.374L281.909 147.34L283.225 149.496C283.225 149.496 285.71 150.373 287.153 145.312C287.275 144.442 287.458 143.581 287.701 142.736C287.563 143.604 287.38 144.463 287.153 145.312C286.847 147.171 286.743 149.058 286.843 150.94L291.356 132.175L297.659 122.674L305.187 132.906L299.377 179.827L300.711 182.622C300.945 183.113 301.353 183.5 301.855 183.709C302.358 183.918 302.919 183.934 303.433 183.755Z" fill="#2B5270"/>
</g>
<path style="mix-blend-mode:multiply" opacity="0.14" d="M263.602 73.6334L260.313 73.1218L271.276 109.847L267.147 76.4472L264.699 74.1816C264.393 73.8983 264.012 73.7082 263.602 73.6334Z" fill="url(#paint35_linear_860_593)"/>
<path style="mix-blend-mode:multiply" opacity="0.14" d="M275.57 116.627L295.339 119.678C296.911 118.947 296.892 114.69 296.892 114.69L295.065 102.905C294.991 102.409 294.753 101.953 294.389 101.608L271.13 114.197L275.57 116.627Z" fill="url(#paint36_linear_860_593)"/>
<path style="mix-blend-mode:multiply" opacity="0.14" d="M299.265 179.864L300.599 182.659C300.84 183.147 301.253 183.529 301.759 183.732C302.265 183.934 302.828 183.942 303.339 183.755L312.694 180.302C313.16 180.132 313.554 179.806 313.81 179.381C314.066 178.956 314.169 178.455 314.101 177.963L307.962 132.175C307.94 131.992 307.891 131.814 307.816 131.646L305.075 132.943L299.265 179.864Z" fill="url(#paint37_linear_860_593)"/>
<path style="mix-blend-mode:multiply" opacity="0.14" d="M280.683 139.41L281.797 147.377L283.113 149.533C283.113 149.533 285.598 150.41 287.041 145.348C287.163 144.478 287.346 143.617 287.589 142.772C287.45 143.64 287.267 144.5 287.041 145.348C286.735 147.208 286.631 149.094 286.73 150.976L291.244 132.211L297.547 122.71H301.201L300.196 121.376C299.556 120.499 298.611 119.893 297.547 119.677L289.508 124.336L280.683 139.41Z" fill="url(#paint38_linear_860_593)"/>
<path style="mix-blend-mode:color-dodge" opacity="0.32" d="M251.56 115.365L269.137 113.081L255.689 75.2961L270.306 109.263L261.006 75.4789C261.006 75.4789 271.256 111.419 274.198 111.199C277.139 110.98 292.469 102.703 292.469 102.703C292.469 102.703 273.869 112.807 275.385 115.073C276.902 117.339 289.509 124.336 289.509 124.336C289.509 124.336 269.648 113.483 251.56 115.365Z" fill="url(#paint39_linear_860_593)"/>
<path style="mix-blend-mode:color-dodge" opacity="0.32" d="M307.816 131.645C304.564 133.016 297.548 122.711 297.548 122.711C297.548 122.711 302.353 130.75 303.029 132.23C303.467 133.125 299.137 132.943 295.574 132.65C298.552 133.089 302.079 133.929 302.992 135.537C303.504 136.432 300.38 170.253 300.38 170.253C302.18 157.262 304.663 144.375 307.816 131.645Z" fill="url(#paint40_linear_860_593)"/>
<path style="mix-blend-mode:color-dodge" opacity="0.32" d="M297.548 122.711L291.245 132.212L286.731 150.976C286.731 150.976 292.925 133.765 295.648 132.705C295.466 129.269 296.118 125.84 297.548 122.711Z" fill="url(#paint41_linear_860_593)"/>
<path d="M314.396 162.89L318.69 189.73C318.718 189.912 318.801 190.081 318.927 190.215C319.053 190.349 319.217 190.442 319.396 190.481C319.576 190.521 319.764 190.505 319.934 190.436C320.105 190.367 320.251 190.249 320.353 190.096L334.093 169.668C334.202 169.494 334.254 169.289 334.239 169.084L332.266 145.733C332.245 145.539 332.166 145.357 332.039 145.21C331.911 145.063 331.742 144.958 331.553 144.911L327.478 143.96C327.299 143.914 327.11 143.924 326.936 143.989C326.763 144.055 326.614 144.172 326.51 144.326L314.506 162.177C314.44 162.282 314.397 162.399 314.378 162.522C314.359 162.645 314.365 162.77 314.396 162.89Z" fill="url(#paint42_linear_860_593)"/>
<g style="mix-blend-mode:multiply" opacity="0.47">
<path d="M326.253 148.51L328.08 144.143L331.533 144.947C331.722 144.994 331.892 145.099 332.019 145.246C332.146 145.393 332.226 145.575 332.246 145.769L334.183 169.083C334.197 169.289 334.146 169.494 334.037 169.668L320.296 190.095C320.2 190.244 320.059 190.359 319.895 190.424L327.294 166.215L326.253 148.51Z" fill="#2B5270"/>
</g>
<path style="mix-blend-mode:multiply" opacity="0.14" d="M332.265 145.733L334.202 169.047C334.217 169.252 334.165 169.457 334.056 169.632L327.277 165.575L326.254 148.473L330.493 144.673L331.553 144.91C331.741 144.958 331.911 145.062 332.038 145.209C332.166 145.356 332.245 145.539 332.265 145.733Z" fill="url(#paint43_linear_860_593)"/>
<path style="mix-blend-mode:color-dodge" opacity="0.32" d="M318.396 167.549C318.396 167.549 324.973 165.996 325.978 163.401C326.983 160.807 326.252 148.51 326.252 148.51C326.252 148.51 327.33 165.32 334.054 169.668C334.054 169.668 328.573 167.202 323.566 178.475C323.53 178.475 329.267 164.881 318.396 167.549Z" fill="url(#paint44_linear_860_593)"/>
<path d="M332.867 139.119L337.599 162.287C337.608 162.359 337.608 162.433 337.599 162.506L336.667 186.259C336.657 186.457 336.712 186.653 336.824 186.817C336.935 186.981 337.097 187.105 337.285 187.169C337.473 187.233 337.676 187.234 337.865 187.172C338.053 187.11 338.216 186.988 338.33 186.825L360.712 155.216C360.79 155.114 360.84 154.995 360.858 154.868L365.883 128.941C365.909 128.795 365.901 128.645 365.86 128.503C365.819 128.36 365.745 128.229 365.645 128.119L358.885 121.322C358.79 121.228 358.675 121.156 358.549 121.111C358.422 121.067 358.287 121.052 358.154 121.066L346.661 122.236C346.541 122.245 346.423 122.279 346.316 122.335C346.21 122.392 346.115 122.47 346.04 122.565L333.067 138.424C332.988 138.52 332.93 138.631 332.895 138.751C332.861 138.87 332.851 138.995 332.867 139.119Z" fill="url(#paint45_linear_860_593)"/>
<g style="mix-blend-mode:multiply" opacity="0.47">
<path d="M346.679 122.236L358.172 121.066C358.305 121.052 358.44 121.067 358.566 121.111C358.693 121.156 358.808 121.228 358.902 121.322L365.663 128.119C365.763 128.229 365.836 128.36 365.877 128.503C365.919 128.645 365.926 128.795 365.9 128.941L360.876 154.868C360.857 154.995 360.807 155.114 360.73 155.216L340.777 183.39L349.237 149.387L338.384 161.154L347.757 145.44L344.779 124.063L346.058 122.51C346.138 122.425 346.234 122.357 346.341 122.31C346.447 122.263 346.562 122.238 346.679 122.236Z" fill="#2B5270"/>
</g>
<path style="mix-blend-mode:multiply" opacity="0.14" d="M365.9 128.941L360.876 154.868L349.237 149.387L338.384 161.154L347.757 145.44L358.245 121.066L359.049 121.395L365.736 128.119C365.823 128.235 365.883 128.369 365.912 128.512C365.94 128.654 365.936 128.801 365.9 128.941Z" fill="url(#paint46_linear_860_593)"/>
<path style="mix-blend-mode:color-dodge" opacity="0.32" d="M339.226 159.802C339.226 159.802 346.991 152.493 347.411 153.79C347.831 155.088 343.245 173.505 343.245 173.505C343.245 173.505 348.306 153.187 349.859 152.347C351.412 151.506 360.822 154.868 360.822 154.868C360.822 154.868 350.535 149.88 349.11 147.688C347.685 145.495 354.226 130.184 354.226 130.184L347.923 140.927L345.072 126.548C345.072 126.548 347.027 142.718 346.205 146.043C345.383 149.369 339.226 159.802 339.226 159.802Z" fill="url(#paint47_linear_860_593)"/>
<path d="M234.111 58.0301L224.427 39.2289C224.271 38.9208 224.055 38.6473 223.792 38.4244C223.528 38.2016 223.222 38.034 222.892 37.9316L192.763 27.992C192.393 27.8648 191.999 27.8272 191.612 27.8824L161.026 31.5366C160.663 31.5807 160.314 31.6993 159.999 31.8848C159.685 32.0703 159.412 32.3188 159.199 32.6146L157.134 35.4833L159.619 37.9316L155.964 37.2373L142.846 55.3807C142.445 55.9486 142.275 56.6474 142.371 57.3358L143.12 62.1229C143.199 62.658 143.442 63.1556 143.814 63.548L152.548 84.5052C153.151 85.1265 158.029 84.0119 158.833 83.8658L232.174 77.5987C234.001 77.3063 234.111 58.0301 234.111 58.0301Z" fill="url(#paint48_linear_860_593)"/>
<g style="mix-blend-mode:multiply" opacity="0.64">
<path d="M234.11 58.0301L224.426 39.2289C224.27 38.9209 224.054 38.6473 223.791 38.4245C223.527 38.2016 223.221 38.034 222.891 37.9317L194.699 28.6133L214.377 39.1924L212.44 50.8678L205.497 49.9177C205.497 49.9177 177.359 51.9458 172.7 54.2297C171.458 54.9143 170.062 55.2733 168.644 55.2733C167.225 55.2733 165.83 54.9143 164.588 54.2297L144.051 55.4721L142.443 56.1299C142.369 56.4978 142.369 56.8766 142.443 57.2445L155.781 65.631L164.551 58.8706L175.514 57.9571L188.633 62.9269L208.494 54.723L217.227 66.5994L232.118 77.5622C234 77.3064 234.11 58.0301 234.11 58.0301Z" fill="#2B5270"/>
</g>
<g style="mix-blend-mode:multiply" opacity="0.47">
<path d="M159.364 52.7863L167.678 47.4146L178.092 48.8397L203.142 47.4146L211.09 58.2129L206.395 73.9993C206.395 73.9993 204.421 79.6086 203.416 79.9375C202.411 80.2664 152.549 84.414 152.549 84.414L143.066 61.6845L142.372 57.2628V56.7695C142.351 56.2542 142.529 55.7506 142.869 55.3628C143.209 54.9751 143.685 54.733 144.199 54.6865L159.364 52.7863Z" fill="#2B5270"/>
</g>
<path d="M144.104 54.6863C144.104 54.6863 145.018 54.6863 153.368 62.9266C155.926 65.4481 162.705 60.1311 162.705 60.1311C163.07 59.9667 148.124 48.3461 144.104 54.6863Z" fill="#2D9AD8"/>
<path d="M177.36 57.062C177.36 57.062 185.984 61.9222 190.15 59.8758C194.316 57.8294 195.23 52.5672 200.474 48.4379C206.796 43.3402 191.941 48.0725 191.941 48.0725L177.36 57.062Z" fill="#2D9AD8"/>
<path style="mix-blend-mode:multiply" opacity="0.14" d="M142.645 55.5265L158.34 49.8076L167.347 44.3262L162.469 39.1919L159.546 37.8398L157.718 38.9361L149.058 50.3009L145.166 52.128L142.845 55.3438C142.773 55.3986 142.706 55.4597 142.645 55.5265Z" fill="url(#paint49_linear_860_593)"/>
<path style="mix-blend-mode:multiply" opacity="0.14" d="M208.511 54.7229L220.661 66.4897L232.136 77.5986C233.963 77.3063 234.109 58.0117 234.109 58.0117L233.195 56.1846L213.499 53.5901L208.511 54.7229Z" fill="url(#paint50_linear_860_593)"/>
<path style="mix-blend-mode:multiply" opacity="0.14" d="M212.951 52.7865L223.384 38.1694C223.23 38.0747 223.064 38.0009 222.891 37.9502L192.761 28.0105C192.392 27.8833 191.997 27.8457 191.61 27.9009V49.9179L212.951 52.7865Z" fill="url(#paint51_linear_860_593)"/>
<g style="mix-blend-mode:color-dodge" opacity="0.68">
<path d="M159.198 32.6696L157.133 35.5382L159.618 37.9317L155.964 37.2374L152.876 41.5129L157.718 39.028H161.628C161.628 39.028 156.841 32.3224 189.638 28.1931L161.025 31.6829C160.67 31.7159 160.325 31.8203 160.011 31.9898C159.697 32.1594 159.42 32.3906 159.198 32.6696Z" fill="#6C6F82"/>
</g>
<path style="mix-blend-mode:color-dodge" opacity="0.32" d="M189.932 28.613C191.759 28.613 191.613 38.2419 191.613 38.2419C191.796 34.88 192.6 29.4534 192.819 27.9917C192.433 27.8523 192.019 27.8085 191.613 27.8638L184.487 28.7226C187.064 28.6312 189.293 28.5764 189.932 28.613Z" fill="url(#paint52_linear_860_593)"/>
<path style="mix-blend-mode:color-dodge" opacity="0.32" d="M213.903 39.4481C214.379 39.8318 212.752 49.3512 211.839 49.808C210.043 49.925 208.24 49.7835 206.485 49.3877L176.447 48.3645L167.476 46.6836L161.995 50.5023L159.985 49.808L167.567 44.3266C165.195 45.8388 162.716 47.1762 160.149 48.328C157.931 47.6446 155.812 46.6741 153.846 45.4411C153.517 45.0209 157.865 38.9365 157.865 38.9365C153.151 45.4594 150.246 45.2584 150.246 45.2584L159.51 52.7862L167.823 47.4144L178.238 48.8396L176.246 49.808C176.246 49.808 199.816 50.685 206.23 51.087C212.643 51.4889 213.703 53.5353 213.703 53.5353L223.533 38.1326C223.533 38.1326 214.123 50.4292 213.611 50.5023C213.1 50.5754 214.05 45.2767 214.47 42.1888C214.89 39.101 216.608 39.2837 216.608 39.2837C214.452 38.8634 203.16 32.4867 198.446 29.8009L194.792 28.5767C199.542 31.3356 213.465 39.1375 213.903 39.4481Z" fill="url(#paint53_linear_860_593)"/>
<g style="mix-blend-mode:multiply" opacity="0.68">
<path d="M149.953 68.6826L151.78 83.8113L204.767 79.9195L209.792 63.0002L199.066 62.178L190.424 68.1527C190.016 68.4253 189.536 68.5708 189.045 68.5708C188.554 68.5708 188.074 68.4253 187.665 68.1527L180.43 63.5118L160.075 65.0649L156.202 69.9068C155.831 70.3704 155.307 70.686 154.724 70.7966C154.141 70.9072 153.537 70.8055 153.023 70.5097L149.953 68.6826Z" fill="#2B5270"/>
</g>
<g style="mix-blend-mode:multiply" opacity="0.82">
<path d="M156.659 84.4136C156.659 84.4136 183.482 61.0629 208.513 73.6701C233.545 86.2773 156.659 84.4136 156.659 84.4136Z" fill="#2B5270"/>
</g>
<path d="M137.746 78.8409L142.479 75.5521C143.065 75.1489 143.759 74.9323 144.47 74.9309H145.165C146.008 74.9428 146.822 75.2462 147.467 75.7896L153.697 81.271C154.113 81.6371 154.61 81.898 155.148 82.0315C155.685 82.1651 156.247 82.1675 156.785 82.0384L182.164 76.1368C182.71 75.9999 183.281 75.9999 183.827 76.1368L192.433 78.3476C193.307 78.5804 194.238 78.4624 195.027 78.0187L214.742 67.0559C215.498 66.6153 216.397 66.4906 217.245 66.7088L228.537 69.3764C228.816 69.4382 229.087 69.5365 229.341 69.6687L238.385 74.3827C239.205 74.808 239.824 75.5397 240.108 76.4189C240.392 77.2981 240.318 78.2538 239.901 79.0785L222.909 112.314C222.487 113.1 221.791 113.705 220.954 114.013L183.973 127.077C183.506 127.248 183.008 127.314 182.513 127.273C182.017 127.232 181.537 127.084 181.104 126.84L142.369 105.225C141.933 104.984 141.554 104.652 141.258 104.252C140.961 103.851 140.755 103.392 140.651 102.904L136.321 82.55C136.156 81.8602 136.204 81.1364 136.458 80.4742C136.712 79.8121 137.162 79.2426 137.746 78.8409Z" fill="url(#paint54_linear_860_593)"/>
<path style="mix-blend-mode:multiply" opacity="0.14" d="M142.024 104.878C142.128 104.974 142.245 105.054 142.372 105.116L181.107 126.731C181.888 127.159 182.804 127.27 183.665 127.041C175.79 125.105 147.634 98.3735 147.634 98.3735C145.39 100.189 143.49 102.392 142.024 104.878Z" fill="url(#paint55_linear_860_593)"/>
<g style="mix-blend-mode:multiply" opacity="0.14">
<path d="M238.385 74.2731L229.341 69.5591C229.087 69.4269 228.817 69.3286 228.537 69.2668L217.245 66.5992C216.398 66.381 215.498 66.5057 214.742 66.9463L212.915 67.933C216.387 67.933 218.853 80.1748 218.853 80.1748L216.259 83.829L222.544 112.844C222.676 112.662 222.798 112.473 222.909 112.278L239.902 79.0419C240.119 78.6301 240.253 78.179 240.294 77.715C240.336 77.2511 240.284 76.7835 240.143 76.3396C240.002 75.8956 239.774 75.4843 239.472 75.1295C239.17 74.7747 238.801 74.4836 238.385 74.2731Z" fill="#2B5270"/>
</g>
<g style="mix-blend-mode:color-dodge" opacity="0.68">
<path d="M144.47 74.9312C143.759 74.9326 143.064 75.1492 142.478 75.5524L137.746 78.8412C137.172 79.2391 136.729 79.7995 136.475 80.4506C136.221 81.1016 136.167 81.8137 136.321 82.4955L139.866 99.1224C138.989 92.161 138.477 79.8461 144.47 74.9312Z" fill="#6C6F82"/>
</g>
<path style="mix-blend-mode:multiply" opacity="0.14" d="M238.386 74.2731L229.341 69.5591C229.087 69.4269 228.817 69.3286 228.537 69.2668L217.246 66.5992C216.398 66.381 215.499 66.5057 214.743 66.9463L212.915 67.933C216.387 67.933 218.854 80.1748 218.854 80.1748L216.259 83.829C216.259 83.829 190.533 92.6906 189.236 92.9647C187.938 93.2388 172.444 87.7756 169.137 87.0996L154.648 94.0062L158.558 81.6547L156.731 82.0567C156.193 82.1857 155.631 82.1834 155.093 82.0498C154.556 81.9163 154.059 81.6554 153.643 81.2893L147.413 75.8079C147.138 75.5751 146.83 75.3842 146.499 75.2415L147.577 98.3913L171.33 91.7953L171.841 95.2303L219.749 114.306L220.863 113.922C221.701 113.613 222.396 113.009 222.818 112.223L239.811 78.9871C240.24 78.1717 240.331 77.2201 240.064 76.338C239.798 75.4559 239.195 74.7142 238.386 74.2731Z" fill="url(#paint56_linear_860_593)"/>
<path style="mix-blend-mode:multiply" opacity="0.14" d="M189.656 92.7459L202.647 88.4156L195.028 77.9462C194.239 78.3898 193.308 78.5078 192.433 78.275L183.828 76.0642H183.353L189.199 92.6363L189.656 92.7459Z" fill="url(#paint57_linear_860_593)"/>
<g style="mix-blend-mode:multiply" opacity="0.14">
<path d="M171.935 95.2119L171.423 91.7769L147.634 98.3545L165.412 114.287L161.721 100.09L171.935 95.2119Z" fill="#2B5270"/>
</g>
<path style="mix-blend-mode:multiply" opacity="0.14" d="M154.631 93.9331L158.541 81.5817L156.713 81.9837C156.175 82.1127 155.613 82.1104 155.076 81.9768C154.538 81.8432 154.041 81.5824 153.626 81.2163L147.395 75.7349C147.12 75.5021 146.812 75.3112 146.481 75.1685L147.56 98.3183L154.631 93.9331Z" fill="url(#paint58_linear_860_593)"/>
<g style="mix-blend-mode:multiply" opacity="0.14">
<path d="M193.696 98.2084L171.423 91.7769L147.634 98.3545L165.412 114.287L161.721 100.09L171.935 95.2119L193.696 103.872L211.565 94.3166L193.696 98.2084Z" fill="#2B5270"/>
</g>
<path style="mix-blend-mode:color-dodge" opacity="0.32" d="M146.556 75.2237C146.556 75.2237 147.652 96.1261 146.556 98.209C145.46 100.292 142.646 102.539 142.024 104.878C142.024 104.878 145.679 99.2688 147.89 99.89C150.1 100.511 165.412 114.288 165.412 114.288C165.412 114.288 149.479 100.054 149.735 99.0678C149.991 98.0811 171.003 92.3439 171.003 92.3439C171.003 92.3439 171.003 95.6876 161.721 100.109L158.542 99.0678C158.542 99.0678 161.557 99.5063 164.955 112.516C164.955 112.516 161.556 100.84 164.297 99.4515C167.038 98.0629 171.77 95.6693 174.675 96.8387C177.581 98.008 206.595 109.026 206.595 109.026L195.322 103.837L211.529 94.3172L194.08 103.033C194.08 103.033 173.122 96.4915 172.264 94.7557C171.405 93.02 172.428 92.7824 172.428 92.7824L193.678 98.2638L171.24 90.9553C171.24 90.9553 151.325 97.8436 151.507 96.9118C151.69 95.9799 169.103 87.1001 169.103 87.1001L189.201 93.696L203.106 88.5252C203.106 88.5252 215.274 84.5055 216.133 85.8028C216.992 87.1 220.938 105.444 220.938 105.444C220.938 105.444 216.298 86.4971 218.965 81.6917C220.376 79.2066 221.55 76.5945 222.473 73.8899C222.473 73.8899 219.824 81.6917 218.271 76.9777C217.7 74.9302 216.935 72.9418 215.987 71.0396C215.987 71.0396 220.244 80.3945 215.987 83.9939C211.73 87.5934 200.694 85.9672 195.742 79.0241C195.742 79.0241 201.023 87.027 199.945 88.5983C198.867 90.1696 190.681 93.0565 189.822 91.9237C188.964 90.7909 185.346 81.6917 185.346 81.6917C185.346 81.6917 189.749 92.6545 186.661 91.9237C183.574 91.1928 165.01 84.6152 165.01 84.6152L168.518 86.7163C168.518 86.7163 155.107 95.1212 155.143 93.6595C155.782 90.7194 156.6 87.8211 157.592 84.9806C157.592 84.9806 152.859 95.5049 149.735 97.0397C148.017 97.6609 146.556 75.2237 146.556 75.2237Z" fill="url(#paint59_linear_860_593)"/>
<path style="mix-blend-mode:multiply" opacity="0.24" d="M181.744 127.005L182.201 127.096H182.384C182.584 127.114 182.786 127.114 182.987 127.096C183.215 127.079 183.441 127.042 183.663 126.987H183.973L209.754 117.851L219.84 114.197L220.955 113.813C221.792 113.504 222.487 112.9 222.91 112.114L239.902 78.8781C240.318 78.0534 240.393 77.0977 240.109 76.2185C239.825 75.3394 239.206 74.6077 238.385 74.1824L229.341 69.4684C229.087 69.3361 228.817 69.2379 228.537 69.176L218.488 93.8423L200.801 110.287L165.41 114.142L145.731 106.833L181.105 126.566C181.303 126.733 181.517 126.88 181.744 127.005Z" fill="url(#paint60_linear_860_593)"/>
<path style="mix-blend-mode:screen" d="M206.814 49.0039C208.915 54.9056 203.16 62.3968 193.75 65.7222C184.34 69.0476 175.15 66.9829 173.049 61.0813C170.947 55.1797 176.794 47.6884 186.113 44.363C195.431 41.0376 204.768 43.1023 206.814 49.0039Z" fill="url(#paint61_radial_860_593)"/>
<path style="mix-blend-mode:screen" d="M170.528 62.3057C169.45 68.4814 160.643 72.0808 150.905 70.3633C141.166 68.6458 134.132 62.2326 135.228 56.0751C136.324 49.9177 145.094 46.3 154.851 48.0175C164.608 49.735 171.624 56.203 170.528 62.3057Z" fill="url(#paint62_radial_860_593)"/>
<path d="M140.818 54.7048L147.962 55.3626C148.391 55.4094 148.807 55.5397 149.187 55.7463L159.272 61.4104C159.943 61.7889 160.731 61.906 161.483 61.7393L165.886 60.7344C166.468 60.5979 166.999 60.2985 167.416 59.8714C167.833 59.4442 168.12 58.907 168.244 58.3226L168.627 56.3858C168.747 55.8176 168.703 55.227 168.499 54.6833C168.295 54.1395 167.94 53.6653 167.476 53.3162L156.806 45.1306C156.369 44.7919 156.029 44.3446 155.819 43.8334L155.143 42.1524C154.991 41.7749 154.765 41.4312 154.479 41.1412C154.193 40.8512 153.853 40.6206 153.477 40.4627C153.102 40.3048 152.699 40.2226 152.292 40.221C151.885 40.2193 151.482 40.2983 151.105 40.4532L140.544 44.7469C140.064 44.9611 139.644 45.2924 139.325 45.7106C139.006 46.1288 138.797 46.6205 138.717 47.1405L138.114 51.1602C138.05 51.5717 138.069 51.992 138.172 52.3957C138.274 52.7994 138.457 53.1782 138.71 53.5094C138.963 53.8405 139.28 54.1171 139.642 54.3226C140.004 54.528 140.404 54.6581 140.818 54.7048Z" fill="url(#paint63_linear_860_593)"/>
<g style="mix-blend-mode:multiply" opacity="0.47">
<path d="M138.113 51.1602C138.049 51.5772 138.071 52.003 138.178 52.4112C138.285 52.8195 138.474 53.2014 138.734 53.5336C138.995 53.8658 139.32 54.1411 139.691 54.3425C140.062 54.5439 140.47 54.6672 140.89 54.7048L148.034 55.3626C148.464 55.4093 148.879 55.5397 149.258 55.7463L159.344 61.4104C160.015 61.7889 160.803 61.906 161.555 61.7393L165.959 60.7343C166.54 60.5979 167.07 60.2985 167.488 59.8714C167.905 59.4442 168.192 58.907 168.315 58.3225L168.699 56.3858C168.819 55.8176 168.775 55.227 168.571 54.6832C168.367 54.1395 168.012 53.6653 167.548 53.3162C167.914 56.5502 158.906 55.9107 158.906 55.9107L151.78 50.1187C148.022 49.7125 144.289 49.1026 140.598 48.2916C140.211 48.0568 139.876 47.7464 139.613 47.3791C139.349 47.0118 139.162 46.595 139.063 46.1538C138.894 46.4677 138.776 46.8072 138.716 47.1587L138.113 51.1602Z" fill="#2B5270"/>
</g>
<g style="mix-blend-mode:color-dodge" opacity="0.68">
<path d="M151.176 40.4532L140.616 44.7469C139.954 45.0185 139.406 45.5086 139.062 46.1356C139.062 46.1356 149.587 41.6956 155.507 42.8833L155.214 42.1524C155.062 41.7749 154.836 41.4312 154.55 41.1412C154.265 40.8512 153.924 40.6206 153.549 40.4627C153.174 40.3048 152.771 40.2226 152.364 40.221C151.956 40.2193 151.553 40.2983 151.176 40.4532Z" fill="#6C6F82"/>
</g>
<path style="mix-blend-mode:multiply" opacity="0.14" d="M144.982 49.1869C148.143 49.6802 151.779 50.1188 151.779 50.1188L156.585 44.8201C156.291 44.5394 156.055 44.2043 155.89 43.8334L155.507 42.8833L144.982 49.1869Z" fill="url(#paint64_linear_860_593)"/>
<path style="mix-blend-mode:multiply" opacity="0.14" d="M158.521 60.9533L159.344 61.4101C160.015 61.7886 160.802 61.9057 161.554 61.739L165.958 60.734C166.539 60.5976 167.07 60.2982 167.487 59.8711C167.905 59.4439 168.192 58.9067 168.315 58.3222L168.699 56.3855C167.182 57.6096 158.905 55.9104 158.905 55.9104L158.521 60.9533Z" fill="url(#paint65_linear_860_593)"/>
<path style="mix-blend-mode:multiply" opacity="0.14" d="M140.816 54.7052L147.961 55.363C148.371 55.4035 148.769 55.5278 149.13 55.7284L151.779 50.1191C151.779 50.1191 148.125 49.6806 144.982 49.1873C140.725 53.7551 139.501 54.1388 139.501 54.157C139.891 54.4398 140.341 54.6276 140.816 54.7052Z" fill="url(#paint66_linear_860_593)"/>
<path style="mix-blend-mode:color-dodge" opacity="0.32" d="M138.99 46.1356C139.482 46.9163 140.178 47.5482 141.002 47.9635C141.826 48.3788 142.747 48.5617 143.668 48.4926C146.957 48.3099 155.434 42.8833 155.434 42.8833C155.434 42.8833 146.299 48.6936 146.609 49.0956C148.309 49.5724 150.089 49.6845 151.835 49.4244C153.509 48.0103 155.072 46.4711 156.512 44.8201C156.512 44.8201 152.054 49.8447 152.456 50.4659C154.523 52.3895 156.789 54.0862 159.217 55.5271C159.984 55.6367 166.416 56.0752 167.475 53.3162C167.475 53.3162 169.887 56.2031 159.765 56.0935L164.442 56.733C164.442 56.733 159.6 56.331 159.07 57.9937C158.767 58.9576 158.559 59.949 158.449 60.9537C158.449 60.9537 159.198 56.934 157.262 55.4723C155.325 54.0105 151.396 51.5439 151.396 51.5439L149.131 55.6915C149.131 55.6915 151.159 51.014 149.99 50.4659C148.322 49.8456 146.527 49.6448 144.764 49.8812C143.367 50.8482 142.059 51.9365 140.854 53.1335C140.854 53.1335 144.234 49.863 143.448 49.1504C142.956 49.2672 142.445 49.2806 141.947 49.1897C141.45 49.0987 140.976 48.9054 140.557 48.622C140.138 48.3386 139.782 47.9713 139.513 47.5433C139.243 47.1153 139.065 46.6359 138.99 46.1356Z" fill="url(#paint67_linear_860_593)"/>
<path d="M171.751 56.2029L172.848 58.2858C173.138 58.8366 173.589 59.2867 174.14 59.5769C174.691 59.8671 175.317 59.9839 175.935 59.9119L179.845 59.4734C180.283 59.4167 180.706 59.2739 181.088 59.0532L197.039 49.5155C197.351 49.3345 197.69 49.205 198.044 49.1318L202.63 48.2548C203.441 48.0957 204.155 47.6218 204.618 46.937C205.08 46.2521 205.252 45.412 205.096 44.6006L204.731 42.7734C204.619 42.1771 204.335 41.6269 203.912 41.1915C203.49 40.7561 202.948 40.4547 202.356 40.3251L188.451 37.292C187.995 37.1826 187.519 37.1826 187.063 37.292L180.375 38.8999C179.945 39.0086 179.542 39.2062 179.193 39.48C178.844 39.7538 178.556 40.0977 178.347 40.4895L171.733 53.2794C171.491 53.7293 171.366 54.2327 171.369 54.7435C171.372 55.2543 171.504 55.756 171.751 56.2029Z" fill="url(#paint68_linear_860_593)"/>
<g style="mix-blend-mode:multiply" opacity="0.47">
<path d="M171.75 56.2027L172.846 58.2857C173.137 58.8365 173.587 59.2866 174.138 59.5768C174.689 59.867 175.315 59.9838 175.934 59.9118L179.844 59.4733C180.282 59.4166 180.704 59.2738 181.086 59.053L197.037 49.5154C197.35 49.3344 197.689 49.2048 198.042 49.1317L202.628 48.2547C203.439 48.0955 204.154 47.6217 204.616 46.9368C205.078 46.252 205.251 45.4119 205.095 44.6004L204.73 42.7733C204.618 42.177 204.333 41.6268 203.911 41.1913C203.488 40.7559 202.947 40.4546 202.354 40.3249L201.77 40.197C203.231 43.0474 194.132 42.554 194.132 42.554C194.132 42.554 178.62 53.2062 176.025 53.8823C174.55 54.1534 173.033 54.091 171.585 53.6995C171.435 54.1048 171.372 54.5373 171.4 54.9687C171.428 55.4001 171.548 55.8206 171.75 56.2027Z" fill="#2B5270"/>
</g>
<path style="mix-blend-mode:multiply" opacity="0.14" d="M176.447 53.6453C179.185 52.2349 181.827 50.648 184.359 48.8947C184.359 48.8947 186.57 43.1758 188.141 40.0696C189.219 37.8954 190.187 37.5847 190.662 37.603L188.452 37.128C187.995 37.0185 187.519 37.0185 187.063 37.128C189.128 38.3339 176.447 53.6453 176.447 53.6453Z" fill="url(#paint69_linear_860_593)"/>
<path style="mix-blend-mode:multiply" opacity="0.14" d="M192.179 52.3295L184.359 48.8945C181.825 50.6228 179.183 52.1852 176.447 53.572L180.705 59.0534L181.088 58.8707L192.179 52.3295Z" fill="url(#paint70_linear_860_593)"/>
<path style="mix-blend-mode:multiply" opacity="0.14" d="M194.369 51.0141L197.036 49.4245C197.348 49.2435 197.688 49.1139 198.041 49.0408L199.868 48.6937L194.204 42.4631L194.369 51.0141Z" fill="url(#paint71_linear_860_593)"/>
<path style="mix-blend-mode:multiply" opacity="0.14" d="M204.108 47.4141C204.507 47.0584 204.808 46.6058 204.981 46.1001C205.153 45.5944 205.193 45.0526 205.095 44.5272L204.729 42.7C204.618 42.1037 204.333 41.5535 203.911 41.1181C203.488 40.6827 202.947 40.3813 202.354 40.2517L201.77 40.1238C203.56 41.4576 203.999 45.4956 204.108 47.4141Z" fill="url(#paint72_linear_860_593)"/>
<path style="mix-blend-mode:color-dodge" opacity="0.32" d="M171.587 53.6082C172.468 53.8591 173.398 53.8852 174.291 53.6841C175.185 53.483 176.014 53.0612 176.703 52.4571C179.969 48.8515 183.019 45.0567 185.839 41.0923L179.754 51.2512C181.378 50.5082 182.852 49.4741 184.103 48.1999C185.552 45.7904 186.828 43.2809 187.921 40.6904L185.363 47.9989L194.189 42.5175C194.189 42.5175 203.014 42.7916 201.643 40.197C201.643 40.197 206.047 42.7185 194.755 42.7916L199.323 48.273L194.426 43.4128V51.0685L193.531 43.6503C193.531 43.6503 185.473 48.3826 186.131 49.1317C188.057 50.3869 190.101 51.4517 192.234 52.3109C192.234 52.3109 185.071 49.1683 183.756 49.7712C182.44 50.3742 177.434 53.0052 178.018 54.6679C178.76 56.2531 179.679 57.7488 180.759 59.1261C180.759 59.1261 177.105 53.6447 175.278 53.9188C173.451 54.1929 173.14 54.4852 171.587 53.6082Z" fill="url(#paint73_linear_860_593)"/>
<path d="M175.624 192.745L168.224 175.917C168.036 175.477 167.77 175.074 167.439 174.729L135.683 141.494C135.048 140.834 134.213 140.402 133.307 140.267C132.402 140.131 131.477 140.299 130.677 140.744L129.617 141.347C129.016 141.68 128.34 141.855 127.653 141.855C126.966 141.855 126.29 141.68 125.688 141.347L115.365 135.866C114.697 135.518 114.138 134.993 113.748 134.349C113.358 133.704 113.153 132.965 113.154 132.212V120.719C113.155 119.9 112.914 119.099 112.46 118.417L99.2133 98.7021C98.7259 97.9868 98.027 97.4419 97.2144 97.1437C96.4018 96.8456 95.5164 96.8091 94.682 97.0394L89.2006 98.5559C88.5399 98.7367 87.8446 98.7494 87.1777 98.5931C86.5108 98.4367 85.8934 98.1162 85.3819 97.6606L65.5941 80.1567C65.151 79.7525 64.6189 79.4583 64.041 79.2979L52.4204 75.8264C51.5883 75.5618 50.6945 75.5618 49.8624 75.8264L24.0268 85.09C23.5126 85.2799 23.0411 85.5698 22.6397 85.943C22.2383 86.3162 21.9148 86.7653 21.688 87.2642L12.6985 105.243C12.4481 105.744 12.3027 106.291 12.2713 106.851C12.2399 107.41 12.3231 107.97 12.5159 108.496L13.4476 111.054C13.8135 112.058 13.774 113.165 13.3374 114.14C12.9008 115.116 12.1015 115.883 11.1089 116.279C10.563 116.499 10.0703 116.832 9.66376 117.258C9.25725 117.683 8.94632 118.19 8.75186 118.746L0.237466 142.937C0.0227989 143.539 -0.0477246 144.184 0.0316011 144.818C0.110927 145.453 0.337894 146.06 0.69425 146.591L21.3591 178.146C21.6927 178.661 22.1391 179.093 22.6647 179.41C23.1902 179.726 23.7811 179.919 24.3922 179.973L36.1772 181.161C36.6875 181.214 37.1834 181.363 37.639 181.599L84.0298 205.352C84.7904 205.739 85.6525 205.879 86.4965 205.754L124.154 200.272C124.306 200.264 124.458 200.264 124.61 200.272L171.988 198.683C172.682 198.67 173.361 198.483 173.964 198.138C174.566 197.793 175.072 197.302 175.434 196.711C175.796 196.119 176.004 195.445 176.037 194.752C176.07 194.059 175.928 193.368 175.624 192.745Z" fill="url(#paint74_linear_860_593)"/>
<path style="mix-blend-mode:multiply" opacity="0.14" d="M45.8048 116.499L39.0261 136.597L6.1377 145.55L41.2187 143.284L68.7902 164.406L67.3285 168.517L49.4408 168.042L36.1393 155.709L20.2249 158.779L33.289 159.747L49.0023 175.954L37.7289 181.636L84.1198 205.389C84.8803 205.775 85.7425 205.916 86.5865 205.791L124.244 200.309C124.396 200.3 124.548 200.3 124.7 200.309L172.078 198.72C172.754 198.699 173.415 198.513 174.002 198.178C174.589 197.842 175.085 197.368 175.446 196.796C175.807 196.224 176.021 195.572 176.071 194.897C176.121 194.223 176.005 193.547 175.732 192.928L173.43 187.702L171.895 189.2L113.116 185.802L139.244 167.677L125.779 141.585L115.455 136.104C114.787 135.756 114.228 135.231 113.838 134.586C113.448 133.942 113.243 133.203 113.244 132.45V124.629L98.6272 152.036L81.2147 146.244L75.039 134.587L89.1627 98.6841C88.502 98.8649 87.8066 98.8776 87.1397 98.7213C86.4728 98.5649 85.8556 98.2444 85.344 97.7888L65.5561 80.2849C65.1131 79.8807 64.5811 79.5865 64.0031 79.4261L52.3825 75.9546L46.9011 110.67L17.3563 109.19L12.6972 105.262C12.4467 105.763 12.3013 106.31 12.2699 106.869C12.2385 107.428 12.3218 107.988 12.5145 108.514L13.4462 111.072C13.8121 112.076 13.7726 113.183 13.3361 114.159C12.8995 115.134 12.1002 115.902 11.1076 116.298C10.4727 116.556 9.91335 116.971 9.48138 117.504L15.2917 114.946L45.8048 116.499Z" fill="url(#paint75_linear_860_593)"/>
<path style="mix-blend-mode:multiply" opacity="0.14" d="M45.8076 116.498L47.7444 116.754L40.7281 138.278L41.2215 143.266L68.793 164.388L67.3313 168.499L49.4436 168.024L36.1421 155.691L19.2046 159.071L33.2369 159.802L48.9502 176.008L37.6769 181.691L49.9735 187.976L72.6117 174.967L83.0263 189.237L84.0312 205.334C84.7918 205.72 85.6539 205.861 86.4979 205.736L124.155 200.254L170.345 191.996L86.4065 187.629L76.9785 171.313L96.0904 178.822L118.016 146.171L110.031 185.345C110.031 185.345 125.032 166.233 125.599 165.996C126.165 165.758 125.599 141.366 125.599 141.366L115.275 135.884C114.607 135.536 114.048 135.011 113.658 134.367C113.268 133.722 113.063 132.983 113.064 132.23V124.41L99.16 156.97H89.0924L72.6117 145.733L70.7845 137.273L81.9118 105.828L89.2204 98.7022C88.5596 98.8829 87.8642 98.8957 87.1973 98.7393C86.5304 98.583 85.9131 98.2625 85.4016 97.8069L65.6138 80.303L53.3171 112.113L47.0318 113.557L16.0801 112.113H13.7232C13.8163 113.004 13.6172 113.902 13.1557 114.67C12.6943 115.437 11.9956 116.035 11.1651 116.371C10.5303 116.629 9.97103 117.044 9.53906 117.576L15.3493 115.019L45.8076 116.498Z" fill="url(#paint76_linear_860_593)"/>
<g style="mix-blend-mode:multiply" opacity="0.47">
<path d="M81.8179 105.81L70.8734 124.3L56.0005 110.341L53.2781 112.095L46.9745 113.538L15.292 114.982L47.7054 116.681L68.6991 133.911L66.872 145.349L84.65 159.856L69.5944 170.38L49.971 169.467L49.4046 167.969L36.103 155.636L19.1655 159.016L33.1979 159.747L48.9113 175.953L49.971 172.007L70.3253 173.103L89.9121 160.222L100.619 157.682L113.135 124.519L99.2305 157.079H89.163L72.6275 145.714L70.6907 137.255L81.8179 105.81Z" fill="#2B5270"/>
</g>
<path style="mix-blend-mode:color-dodge" opacity="0.32" d="M17.3574 109.19C17.3574 109.19 44.7644 110.231 45.6414 109.19C46.5184 108.148 51.7075 80.2297 51.7075 80.2297C51.7075 80.2297 48.1812 109.738 49.04 110.231C49.8987 110.725 64.5706 82.8243 64.5706 82.8243C64.5706 82.8243 55.6907 107.125 56.7687 108.404C57.8467 109.683 70.8741 124.264 70.8741 124.264L55.9831 110.286L53.2607 112.113L46.9753 113.557L17.3574 109.19Z" fill="url(#paint77_linear_860_593)"/>
<path style="mix-blend-mode:color-dodge" opacity="0.32" d="M15.2941 115C15.2941 115 41.7876 116.827 42.7011 118.015C43.6147 119.202 40.0336 134.824 37.8593 135.318C35.685 135.811 6.04883 145.476 6.04883 145.476C6.04883 145.476 38.4622 137.364 38.8276 138.168C39.193 138.972 40.6548 142.169 35.0637 143.649C35.0637 143.649 46.0265 147.925 48.8586 150.227C51.6906 152.529 67.9704 165.374 67.002 166.909C66.0336 168.443 49.3519 168.005 49.3519 168.005L67.2395 168.48L68.7013 164.369L41.1298 143.247L40.6365 138.259L47.6344 116.699L45.8073 116.498L15.2941 115Z" fill="url(#paint78_linear_860_593)"/>
<path style="mix-blend-mode:color-dodge" opacity="0.32" d="M89.163 98.6841C89.163 98.6841 76.5557 132.906 76.4826 135.081C76.4096 137.255 80.8495 144.216 81.964 144.381C83.0786 144.545 94.4251 137.072 94.4251 137.072C94.4251 137.072 83.773 145.404 84.8692 146.007C85.9655 146.61 98.5362 152.055 98.5362 152.055L81.1236 146.263L72.6457 145.769C72.6457 145.769 79.3147 144.929 78.6935 143.595C78.0723 142.261 71.0195 136.433 71.0195 136.433C71.0195 136.433 79.2233 129.416 89.163 98.6841Z" fill="url(#paint79_linear_860_593)"/>
<path style="mix-blend-mode:color-dodge" opacity="0.32" d="M19.167 159.016C19.167 159.016 30.5318 160.35 30.5318 169.778C30.5318 169.778 31.5002 160.953 34.0399 162.89C36.5796 164.826 48.9128 175.954 48.9128 175.954L33.1994 159.747L19.167 159.016Z" fill="url(#paint80_linear_860_593)"/>
<g style="mix-blend-mode:multiply" opacity="0.47">
<path d="M78.1816 111.949L84.741 110.798L97.1655 109.19L106.886 136.25L105.223 143.047L115.729 149.716H117.374L125.778 147.651L139.135 167.494L146.443 187.593L126.82 189.584L84.0284 205.279C84.789 205.666 85.6511 205.806 86.4951 205.681L124.152 200.2C124.304 200.191 124.457 200.191 124.609 200.2L171.987 198.61C172.663 198.59 173.323 198.404 173.91 198.068C174.498 197.733 174.993 197.258 175.354 196.686C175.715 196.114 175.93 195.462 175.98 194.788C176.03 194.113 175.914 193.437 175.641 192.818L168.223 175.917C168.035 175.477 167.769 175.074 167.437 174.729L135.682 141.494C135.047 140.834 134.212 140.403 133.306 140.267C132.4 140.132 131.475 140.3 130.675 140.745L129.615 141.348C129.014 141.68 128.338 141.855 127.651 141.855C126.964 141.855 126.288 141.68 125.687 141.348L115.364 135.866C114.696 135.518 114.136 134.993 113.747 134.349C113.357 133.704 113.151 132.965 113.153 132.212V120.719C113.154 119.9 112.912 119.099 112.459 118.417L99.2119 98.7024C98.7245 97.9871 98.0256 97.4422 97.213 97.1441C96.4004 96.8459 95.515 96.8094 94.6806 97.0397L89.1992 98.5563C88.5385 98.737 87.8432 98.7497 87.1763 98.5934C86.5094 98.437 85.892 98.1165 85.3805 97.661L65.5927 80.157C65.1496 79.7528 64.6175 79.4586 64.0396 79.2983L57.4619 77.325L64.606 82.8064L78.1816 111.949Z" fill="#2B5270"/>
</g>
<path d="M296.762 184.449L290.897 167.018C290.732 166.568 290.658 166.09 290.678 165.612L291.756 119.659C291.777 118.742 292.102 117.858 292.681 117.147C293.26 116.436 294.06 115.937 294.953 115.731L296.141 115.457C296.811 115.303 297.432 114.984 297.946 114.527C298.46 114.07 298.851 113.491 299.083 112.844L303.066 101.881C303.322 101.175 303.381 100.412 303.237 99.6747C303.092 98.9373 302.748 98.2535 302.243 97.6969L294.496 89.2008C293.946 88.5921 293.584 87.8368 293.455 87.0265L289.965 63.5113C289.84 62.6569 289.987 61.785 290.383 61.0181C290.78 60.2511 291.407 59.6278 292.176 59.2358L297.274 56.6412C297.884 56.334 298.408 55.8787 298.797 55.317C299.187 54.7553 299.429 54.105 299.503 53.4255L302.317 27.1513C302.386 26.5575 302.579 25.9849 302.883 25.4703L309.15 15.0739C309.597 14.3231 310.277 13.7392 311.087 13.4112L336.411 2.85041C337.395 2.4483 338.497 2.4483 339.48 2.85041L358.245 10.1589C358.761 10.3465 359.233 10.6379 359.632 11.015C360.031 11.3921 360.349 11.8469 360.566 12.3515L361.607 14.8729C362.017 15.8613 362.795 16.6517 363.777 17.0778C364.758 17.5038 365.867 17.5322 366.869 17.1569C367.419 16.9501 368.008 16.8642 368.594 16.9052C369.181 16.9462 369.752 17.1131 370.268 17.3944L392.851 29.5266C393.397 29.8267 393.869 30.245 394.232 30.7507C394.596 31.2565 394.842 31.837 394.952 32.45L400.945 69.687C401.045 70.2954 401.006 70.9184 400.832 71.5098C400.658 72.1012 400.353 72.646 399.94 73.1037L392.029 81.9105C391.689 82.2904 391.422 82.7304 391.243 83.2078L372.972 131.992C372.671 132.795 372.128 133.484 371.419 133.966L339.791 155.252C339.662 155.339 339.539 155.437 339.426 155.544L303.431 186.276C302.919 186.736 302.3 187.06 301.63 187.218C300.961 187.377 300.262 187.364 299.598 187.183C298.934 187.001 298.327 186.655 297.831 186.178C297.336 185.7 296.968 185.106 296.762 184.449Z" fill="url(#paint81_linear_860_593)"/>
<path style="mix-blend-mode:multiply" opacity="0.14" d="M341.31 40.5806L359.837 50.8491L390.185 35.3002L362.778 57.2258L356.639 91.4114L360.476 93.4761L373.376 81.0699L374.892 62.9812L388.815 54.5582L379.807 64.0593L379.113 86.6426L391.282 83.2259L373.01 132.01C372.709 132.813 372.166 133.502 371.457 133.984L339.793 155.252C339.663 155.339 339.541 155.437 339.428 155.544L303.433 186.276C302.921 186.715 302.309 187.022 301.65 187.168C300.992 187.315 300.307 187.297 299.657 187.116C299.007 186.936 298.412 186.598 297.923 186.133C297.434 185.668 297.068 185.089 296.855 184.449L295.028 178.968L297.166 179.059L338.149 136.998L306.631 141.201L299.085 112.844L303.068 101.881C303.324 101.175 303.383 100.412 303.238 99.6745C303.094 98.9372 302.75 98.2534 302.245 97.6968L296.965 91.9048L326.309 102.356L335.262 86.332L331.9 73.6882L297.184 56.6594C297.795 56.3521 298.319 55.8968 298.708 55.3351C299.097 54.7734 299.34 54.1231 299.413 53.4436L302.227 27.1694C302.296 26.5757 302.489 26.003 302.794 25.4885L309.061 15.0921L336.468 37.0177L357.425 16.0239L358.211 9.97607C358.751 10.1795 359.241 10.4969 359.648 10.9068C360.055 11.3167 360.368 11.8094 360.568 12.3514L361.609 14.8728C362.019 15.8611 362.797 16.6516 363.779 17.0776C364.76 17.5037 365.869 17.532 366.871 17.1567C367.508 16.9274 368.192 16.8584 368.863 16.9557L362.852 18.9838L341.31 40.5806Z" fill="url(#paint82_linear_860_593)"/>
<path style="mix-blend-mode:multiply" opacity="0.14" d="M341.307 40.5812L340.047 42.0612L359.725 53.2432L362.74 57.2629L356.6 91.4486L360.438 93.5133L373.337 81.107L374.854 63.0184L389.653 54.1203L379.769 64.0964L379.074 86.6798L391.243 83.2631L386.383 96.1992L360.913 101.882L362.74 119.44L372.844 132.011C372.542 132.813 372 133.503 371.291 133.984L339.791 155.252L300.106 180.266L359.195 120.518L355.248 102.247L346.113 120.664L307.853 111.364L340.156 134.953C340.156 134.953 316.221 130.86 315.673 131.116C315.125 131.371 299.082 112.844 299.082 112.844L303.065 101.882C303.322 101.175 303.381 100.412 303.236 99.6751C303.091 98.9378 302.748 98.254 302.243 97.6974L296.963 91.9054L329.193 106.522L336.612 99.7438L341.179 80.1935L336.922 72.6291L307.505 56.8792L297.273 56.5686C297.884 56.2614 298.408 55.8061 298.797 55.2444C299.187 54.6827 299.429 54.0324 299.503 53.3529L302.316 27.0787L332.83 42.2987L338.457 39.1378L360.383 17.2122L362.21 15.6226C362.742 16.3464 363.495 16.8772 364.355 17.1344C365.216 17.3916 366.137 17.3611 366.979 17.0477C367.616 16.8184 368.3 16.7494 368.97 16.8467L362.959 18.8749L341.307 40.5812Z" fill="url(#paint83_linear_860_593)"/>
<g style="mix-blend-mode:multiply" opacity="0.47">
<path d="M307.505 56.989L328.061 63.2926L329.65 42.9383L332.848 42.4084L338.475 39.2475L362.868 18.9663L340.047 42.0613L336.155 68.9384L345.199 76.1556L341.837 98.8486L360.054 96.4916L373.94 82.5871L373.337 81.0889L374.872 63.0185L389.653 54.1021L379.787 64.0965L379.074 86.6616L375.658 84.4691L361.351 98.9948L338.183 102.667L328.572 108.003L296.963 91.9238L329.194 106.614L336.63 99.8353L341.198 80.2849L336.922 72.7389L307.505 56.989Z" fill="#2B5270"/>
</g>
<path style="mix-blend-mode:color-dodge" opacity="0.32" d="M357.461 16.116C357.461 16.116 337.874 35.374 336.558 35.1912C335.243 35.0085 312.568 17.8335 312.568 17.8335C312.568 17.8335 335.06 37.2559 334.768 38.1877C334.475 39.1196 304.803 28.376 304.803 28.376C304.803 28.376 327.733 40.3438 327.825 42.0613C327.916 43.7788 328.08 63.256 328.08 63.256L329.67 42.92L332.849 42.3719L338.477 39.2109L357.461 16.116Z" fill="url(#paint84_linear_860_593)"/>
<path style="mix-blend-mode:color-dodge" opacity="0.32" d="M362.851 18.9841C362.851 18.9841 344.58 38.169 344.58 39.7038C344.58 41.2386 357.881 50.3378 359.818 49.2232C361.755 48.1087 390.167 35.3004 390.167 35.3004C390.167 35.3004 360.75 51.16 361.061 52.0187C361.371 52.8775 362.449 56.1846 367.474 53.4622C367.474 53.4622 362.212 64.0595 361.7 67.6407C361.189 71.2219 357.79 91.7041 359.544 92.1974C361.298 92.6907 373.321 81.1067 373.321 81.1067L360.421 93.5129L356.584 91.4483L362.723 57.2626L359.709 53.2429L339.976 42.0608L341.236 40.5809L362.851 18.9841Z" fill="url(#paint85_linear_860_593)"/>
<path style="mix-blend-mode:color-dodge" opacity="0.32" d="M297.273 56.6777C297.273 56.6777 329.65 73.4874 331.148 74.9491C332.647 76.4108 334.127 84.6694 333.414 85.4916C332.702 86.3138 319.236 88.4333 319.236 88.4333C319.236 88.4333 332.72 87.4284 332.318 88.616C331.916 89.8037 326.307 102.283 326.307 102.283L335.26 86.259L341.179 80.2112C341.179 80.2112 335.698 84.0665 335.26 82.6778C334.821 81.2892 336.1 72.2084 336.1 72.2084C336.1 72.2084 325.356 72.6469 297.273 56.6777Z" fill="url(#paint86_linear_860_593)"/>
<path style="mix-blend-mode:color-dodge" opacity="0.32" d="M389.654 54.1199C389.654 54.1199 382.145 62.7622 388.503 69.7236C388.503 69.7236 381.834 63.8585 381.195 67.0012C380.555 70.1438 379.002 86.6794 379.002 86.6794L379.696 64.096L389.654 54.1199Z" fill="url(#paint87_linear_860_593)"/>
<g style="mix-blend-mode:multiply" opacity="0.47">
<path d="M290.897 167.019L296.762 184.45C296.974 185.09 297.341 185.668 297.829 186.134C298.318 186.599 298.913 186.936 299.563 187.117C300.213 187.298 300.898 187.315 301.556 187.169C302.215 187.022 302.827 186.716 303.339 186.277L339.425 155.545C339.539 155.437 339.661 155.34 339.791 155.252L371.382 134.021C372.091 133.54 372.633 132.85 372.935 132.048L391.206 83.2632C391.385 82.7858 391.652 82.3459 391.992 81.966L399.903 73.1592C400.316 72.7015 400.621 72.1567 400.795 71.5653C400.969 70.9739 401.008 70.3509 400.908 69.7425L394.952 32.4506C394.849 31.8279 394.606 31.2365 394.243 30.7207C393.879 30.2049 393.403 29.7782 392.851 29.4724L390.183 35.2461L359.725 53.1886L356.6 91.394L369.756 99.8902L361.789 109.848L356.838 109.556L336.648 132.212L315.672 131.116L306.701 141.275L297.84 165.448L291.061 149.004L290.677 165.63C290.66 166.103 290.734 166.575 290.897 167.019Z" fill="#2B5270"/>
</g>
<path style="mix-blend-mode:multiply" opacity="0.39" d="M185.088 28.1567C194.808 27.773 195.338 23.0042 195.338 23.0042C194.336 23.7747 193.142 24.2554 191.885 24.3939C190.629 24.5325 189.358 24.3235 188.212 23.7898C187.856 23.651 187.49 23.541 187.116 23.4609C189.985 26.5305 175.386 28.5404 185.088 28.1567Z" fill="url(#paint88_linear_860_593)"/>
<defs>
<linearGradient id="paint0_linear_860_593" x1="129.653" y1="114.562" x2="181.415" y2="166.324" gradientUnits="userSpaceOnUse">
<stop stop-color="#8EC3C8"/>
<stop offset="0.01" stop-color="#8DC2C7"/>
<stop offset="0.12" stop-color="#7CB1BC"/>
<stop offset="0.24" stop-color="#72A7B6"/>
<stop offset="0.39" stop-color="#6FA4B4"/>
<stop offset="1" stop-color="#5B75D8"/>
</linearGradient>
<linearGradient id="paint1_linear_860_593" x1="119.02" y1="125.195" x2="170.782" y2="176.958" gradientUnits="userSpaceOnUse">
<stop stop-color="#6C6F82"/>
<stop offset="0.23" stop-color="#636B80"/>
<stop offset="0.61" stop-color="#4B6079"/>
<stop offset="1" stop-color="#2B5270"/>
</linearGradient>
<linearGradient id="paint2_linear_860_593" x1="141.785" y1="102.448" x2="193.529" y2="154.192" gradientUnits="userSpaceOnUse">
<stop stop-color="#6C6F82"/>
<stop offset="0.23" stop-color="#636B80"/>
<stop offset="0.61" stop-color="#4B6079"/>
<stop offset="1" stop-color="#2B5270"/>
</linearGradient>
<linearGradient id="paint3_linear_860_593" x1="122.855" y1="121.377" x2="174.618" y2="173.121" gradientUnits="userSpaceOnUse">
<stop stop-color="#6C6F82"/>
<stop offset="0.23" stop-color="#636B80"/>
<stop offset="0.61" stop-color="#4B6079"/>
<stop offset="1" stop-color="#2B5270"/>
</linearGradient>
<linearGradient id="paint4_linear_860_593" x1="129.305" y1="114.909" x2="181.068" y2="166.672" gradientUnits="userSpaceOnUse">
<stop stop-color="#6C6F82"/>
<stop offset="0.23" stop-color="#636B80"/>
<stop offset="0.61" stop-color="#4B6079"/>
<stop offset="1" stop-color="#2B5270"/>
</linearGradient>
<linearGradient id="paint5_linear_860_593" x1="145.733" y1="98.5007" x2="197.495" y2="150.245" gradientUnits="userSpaceOnUse">
<stop stop-color="#6C6F82"/>
<stop offset="0.23" stop-color="#636B80"/>
<stop offset="0.61" stop-color="#4B6079"/>
<stop offset="1" stop-color="#2B5270"/>
</linearGradient>
<linearGradient id="paint6_linear_860_593" x1="143.337" y1="146.591" x2="173.649" y2="146.591" gradientUnits="userSpaceOnUse">
<stop stop-color="#98D8D7"/>
<stop offset="0.14" stop-color="#95D4D3"/>
<stop offset="0.28" stop-color="#8DC8C7"/>
<stop offset="0.41" stop-color="#7FB5B4"/>
<stop offset="0.55" stop-color="#6C9998"/>
<stop offset="0.68" stop-color="#537675"/>
<stop offset="0.81" stop-color="#344A4A"/>
<stop offset="0.95" stop-color="#111717"/>
<stop offset="1"/>
</linearGradient>
<linearGradient id="paint7_linear_860_593" x1="190.185" y1="43.1938" x2="284.392" y2="137.401" gradientUnits="userSpaceOnUse">
<stop stop-color="#8EC3C8"/>
<stop offset="0.01" stop-color="#8DC2C7"/>
<stop offset="0.12" stop-color="#7CB1BC"/>
<stop offset="0.24" stop-color="#72A7B6"/>
<stop offset="0.39" stop-color="#6FA4B4"/>
<stop offset="1" stop-color="#5B75D8"/>
</linearGradient>
<linearGradient id="paint8_linear_860_593" x1="217.832" y1="14.9825" x2="327.99" y2="125.14" gradientUnits="userSpaceOnUse">
<stop stop-color="#6C6F82"/>
<stop offset="0.23" stop-color="#636B80"/>
<stop offset="0.61" stop-color="#4B6079"/>
<stop offset="1" stop-color="#2B5270"/>
</linearGradient>
<linearGradient id="paint9_linear_860_593" x1="187.957" y1="45.4413" x2="282.146" y2="139.648" gradientUnits="userSpaceOnUse">
<stop stop-color="#6C6F82"/>
<stop offset="0.23" stop-color="#636B80"/>
<stop offset="0.61" stop-color="#4B6079"/>
<stop offset="1" stop-color="#2B5270"/>
</linearGradient>
<linearGradient id="paint10_linear_860_593" x1="236.485" y1="-3.0874" x2="330.673" y2="91.1195" gradientUnits="userSpaceOnUse">
<stop stop-color="#6C6F82"/>
<stop offset="0.23" stop-color="#636B80"/>
<stop offset="0.61" stop-color="#4B6079"/>
<stop offset="1" stop-color="#2B5270"/>
</linearGradient>
<linearGradient id="paint11_linear_860_593" x1="209.115" y1="24.2647" x2="303.322" y2="118.472" gradientUnits="userSpaceOnUse">
<stop stop-color="#6C6F82"/>
<stop offset="0.23" stop-color="#636B80"/>
<stop offset="0.61" stop-color="#4B6079"/>
<stop offset="1" stop-color="#2B5270"/>
</linearGradient>
<linearGradient id="paint12_linear_860_593" x1="187.958" y1="45.441" x2="282.147" y2="139.648" gradientUnits="userSpaceOnUse">
<stop stop-color="#6C6F82"/>
<stop offset="0.23" stop-color="#636B80"/>
<stop offset="0.61" stop-color="#4B6079"/>
<stop offset="1" stop-color="#2B5270"/>
</linearGradient>
<linearGradient id="paint13_linear_860_593" x1="166.27" y1="67.1293" x2="260.477" y2="161.318" gradientUnits="userSpaceOnUse">
<stop stop-color="#6C6F82"/>
<stop offset="0.23" stop-color="#636B80"/>
<stop offset="0.61" stop-color="#4B6079"/>
<stop offset="1" stop-color="#2B5270"/>
</linearGradient>
<linearGradient id="paint14_linear_860_593" x1="232.576" y1="0.822627" x2="326.783" y2="95.0115" gradientUnits="userSpaceOnUse">
<stop stop-color="#6C6F82"/>
<stop offset="0.23" stop-color="#636B80"/>
<stop offset="0.61" stop-color="#4B6079"/>
<stop offset="1" stop-color="#2B5270"/>
</linearGradient>
<linearGradient id="paint15_linear_860_593" x1="240.105" y1="-6.70505" x2="334.312" y2="87.4837" gradientUnits="userSpaceOnUse">
<stop stop-color="#6C6F82"/>
<stop offset="0.23" stop-color="#636B80"/>
<stop offset="0.61" stop-color="#4B6079"/>
<stop offset="1" stop-color="#2B5270"/>
</linearGradient>
<linearGradient id="paint16_linear_860_593" x1="215.785" y1="-19.6782" x2="416.259" y2="180.813" gradientUnits="userSpaceOnUse">
<stop stop-color="#6C6F82"/>
<stop offset="0.23" stop-color="#636B80"/>
<stop offset="0.61" stop-color="#4B6079"/>
<stop offset="1" stop-color="#2B5270"/>
</linearGradient>
<linearGradient id="paint17_linear_860_593" x1="189.894" y1="108.459" x2="248.819" y2="108.459" gradientUnits="userSpaceOnUse">
<stop stop-color="#6C6F82"/>
<stop offset="0.23" stop-color="#636B80"/>
<stop offset="0.61" stop-color="#4B6079"/>
<stop offset="1" stop-color="#2B5270"/>
</linearGradient>
<linearGradient id="paint18_linear_860_593" x1="224.884" y1="119.531" x2="235.828" y2="119.531" gradientUnits="userSpaceOnUse">
<stop stop-color="#6C6F82"/>
<stop offset="0.23" stop-color="#636B80"/>
<stop offset="0.61" stop-color="#4B6079"/>
<stop offset="1" stop-color="#2B5270"/>
</linearGradient>
<linearGradient id="paint19_linear_860_593" x1="224.884" y1="24.1732" x2="246.243" y2="24.1732" gradientUnits="userSpaceOnUse">
<stop stop-color="#6C6F82"/>
<stop offset="0.23" stop-color="#636B80"/>
<stop offset="0.61" stop-color="#4B6079"/>
<stop offset="1" stop-color="#2B5270"/>
</linearGradient>
<linearGradient id="paint20_linear_860_593" x1="206.193" y1="41.8962" x2="295.083" y2="41.8962" gradientUnits="userSpaceOnUse">
<stop stop-color="#2B5270"/>
<stop offset="0.39" stop-color="#4B6079"/>
<stop offset="0.77" stop-color="#636B80"/>
<stop offset="1" stop-color="#6C6F82"/>
</linearGradient>
<linearGradient id="paint21_linear_860_593" x1="230.037" y1="20.3177" x2="285.819" y2="20.3177" gradientUnits="userSpaceOnUse">
<stop stop-color="#2B5270"/>
<stop offset="0.39" stop-color="#4B6079"/>
<stop offset="0.77" stop-color="#636B80"/>
<stop offset="1" stop-color="#6C6F82"/>
</linearGradient>
<linearGradient id="paint22_linear_860_593" x1="230.037" y1="9.7756" x2="260.02" y2="9.7756" gradientUnits="userSpaceOnUse">
<stop stop-color="#98D8D7"/>
<stop offset="0.14" stop-color="#95D4D3"/>
<stop offset="0.28" stop-color="#8DC8C7"/>
<stop offset="0.41" stop-color="#7FB5B4"/>
<stop offset="0.55" stop-color="#6C9998"/>
<stop offset="0.68" stop-color="#537675"/>
<stop offset="0.81" stop-color="#344A4A"/>
<stop offset="0.95" stop-color="#111717"/>
<stop offset="1"/>
</linearGradient>
<linearGradient id="paint23_linear_860_593" x1="235.518" y1="27.5166" x2="270.507" y2="27.5166" gradientUnits="userSpaceOnUse">
<stop stop-color="#98D8D7"/>
<stop offset="0.14" stop-color="#95D4D3"/>
<stop offset="0.28" stop-color="#8DC8C7"/>
<stop offset="0.41" stop-color="#7FB5B4"/>
<stop offset="0.55" stop-color="#6C9998"/>
<stop offset="0.68" stop-color="#537675"/>
<stop offset="0.81" stop-color="#344A4A"/>
<stop offset="0.95" stop-color="#111717"/>
<stop offset="1"/>
</linearGradient>
<linearGradient id="paint24_linear_860_593" x1="222.196" y1="35.6476" x2="286.091" y2="35.6476" gradientUnits="userSpaceOnUse">
<stop stop-color="#98D8D7"/>
<stop offset="0.14" stop-color="#95D4D3"/>
<stop offset="0.28" stop-color="#8DC8C7"/>
<stop offset="0.41" stop-color="#7FB5B4"/>
<stop offset="0.55" stop-color="#6C9998"/>
<stop offset="0.68" stop-color="#537675"/>
<stop offset="0.81" stop-color="#344A4A"/>
<stop offset="0.95" stop-color="#111717"/>
<stop offset="1"/>
</linearGradient>
<linearGradient id="paint25_linear_860_593" x1="180.905" y1="87.2825" x2="290.222" y2="87.2825" gradientUnits="userSpaceOnUse">
<stop stop-color="#98D8D7"/>
<stop offset="0.14" stop-color="#95D4D3"/>
<stop offset="0.28" stop-color="#8DC8C7"/>
<stop offset="0.41" stop-color="#7FB5B4"/>
<stop offset="0.55" stop-color="#6C9998"/>
<stop offset="0.68" stop-color="#537675"/>
<stop offset="0.81" stop-color="#344A4A"/>
<stop offset="0.95" stop-color="#111717"/>
<stop offset="1"/>
</linearGradient>
<linearGradient id="paint26_linear_860_593" x1="189.235" y1="165.886" x2="218.78" y2="195.449" gradientUnits="userSpaceOnUse">
<stop stop-color="#8EC3C8"/>
<stop offset="0.01" stop-color="#8DC2C7"/>
<stop offset="0.12" stop-color="#7CB1BC"/>
<stop offset="0.24" stop-color="#72A7B6"/>
<stop offset="0.39" stop-color="#6FA4B4"/>
<stop offset="1" stop-color="#5B75D8"/>
</linearGradient>
<linearGradient id="paint27_linear_860_593" x1="191.321" y1="163.821" x2="220.865" y2="193.366" gradientUnits="userSpaceOnUse">
<stop stop-color="#6C6F82"/>
<stop offset="0.62" stop-color="#42434B"/>
<stop offset="1" stop-color="#2C2C2E"/>
</linearGradient>
<linearGradient id="paint28_linear_860_593" x1="197.897" y1="180.594" x2="210.852" y2="180.594" gradientUnits="userSpaceOnUse">
<stop stop-color="#98D8D7"/>
<stop offset="0.14" stop-color="#95D4D3"/>
<stop offset="0.28" stop-color="#8DC8C7"/>
<stop offset="0.41" stop-color="#7FB5B4"/>
<stop offset="0.55" stop-color="#6C9998"/>
<stop offset="0.68" stop-color="#537675"/>
<stop offset="0.81" stop-color="#344A4A"/>
<stop offset="0.95" stop-color="#111717"/>
<stop offset="1"/>
</linearGradient>
<linearGradient id="paint29_linear_860_593" x1="189.947" y1="169.503" x2="197.292" y2="169.503" gradientUnits="userSpaceOnUse">
<stop stop-color="#6C6F82"/>
<stop offset="0.62" stop-color="#42434B"/>
<stop offset="1" stop-color="#2C2C2E"/>
</linearGradient>
<linearGradient id="paint30_linear_860_593" x1="216.79" y1="194.243" x2="229.872" y2="207.325" gradientUnits="userSpaceOnUse">
<stop stop-color="#8EC3C8"/>
<stop offset="0.01" stop-color="#8DC2C7"/>
<stop offset="0.12" stop-color="#7CB1BC"/>
<stop offset="0.24" stop-color="#72A7B6"/>
<stop offset="0.39" stop-color="#6FA4B4"/>
<stop offset="1" stop-color="#5B75D8"/>
</linearGradient>
<linearGradient id="paint31_linear_860_593" x1="216.79" y1="194.243" x2="229.873" y2="207.326" gradientUnits="userSpaceOnUse">
<stop stop-color="#6C6F82"/>
<stop offset="0.62" stop-color="#42434B"/>
<stop offset="1" stop-color="#2C2C2E"/>
</linearGradient>
<linearGradient id="paint32_linear_860_593" x1="218.507" y1="198.079" x2="226.345" y2="198.079" gradientUnits="userSpaceOnUse">
<stop stop-color="#98D8D7"/>
<stop offset="0.14" stop-color="#95D4D3"/>
<stop offset="0.28" stop-color="#8DC8C7"/>
<stop offset="0.41" stop-color="#7FB5B4"/>
<stop offset="0.55" stop-color="#6C9998"/>
<stop offset="0.68" stop-color="#537675"/>
<stop offset="0.81" stop-color="#344A4A"/>
<stop offset="0.95" stop-color="#111717"/>
<stop offset="1"/>
</linearGradient>
<linearGradient id="paint33_linear_860_593" x1="221.029" y1="190.991" x2="226.657" y2="190.991" gradientUnits="userSpaceOnUse">
<stop stop-color="#6C6F82"/>
<stop offset="0.62" stop-color="#42434B"/>
<stop offset="1" stop-color="#2C2C2E"/>
</linearGradient>
<linearGradient id="paint34_linear_860_593" x1="239.683" y1="108.859" x2="327.704" y2="149.405" gradientUnits="userSpaceOnUse">
<stop stop-color="#8EC3C8"/>
<stop offset="0.01" stop-color="#8DC2C7"/>
<stop offset="0.12" stop-color="#7CB1BC"/>
<stop offset="0.24" stop-color="#72A7B6"/>
<stop offset="0.39" stop-color="#6FA4B4"/>
<stop offset="1" stop-color="#5B75D8"/>
</linearGradient>
<linearGradient id="paint35_linear_860_593" x1="251.06" y1="84.1705" x2="339.082" y2="124.716" gradientUnits="userSpaceOnUse">
<stop stop-color="#6C6F82"/>
<stop offset="0.23" stop-color="#636B80"/>
<stop offset="0.61" stop-color="#4B6079"/>
<stop offset="1" stop-color="#2B5270"/>
</linearGradient>
<linearGradient id="paint36_linear_860_593" x1="247.513" y1="91.8688" x2="335.517" y2="132.421" gradientUnits="userSpaceOnUse">
<stop stop-color="#6C6F82"/>
<stop offset="0.23" stop-color="#636B80"/>
<stop offset="0.61" stop-color="#4B6079"/>
<stop offset="1" stop-color="#2B5270"/>
</linearGradient>
<linearGradient id="paint37_linear_860_593" x1="232.51" y1="124.419" x2="320.515" y2="164.971" gradientUnits="userSpaceOnUse">
<stop stop-color="#6C6F82"/>
<stop offset="0.23" stop-color="#636B80"/>
<stop offset="0.61" stop-color="#4B6079"/>
<stop offset="1" stop-color="#2B5270"/>
</linearGradient>
<linearGradient id="paint38_linear_860_593" x1="238.765" y1="110.813" x2="326.794" y2="151.376" gradientUnits="userSpaceOnUse">
<stop stop-color="#6C6F82"/>
<stop offset="0.23" stop-color="#636B80"/>
<stop offset="0.61" stop-color="#4B6079"/>
<stop offset="1" stop-color="#2B5270"/>
</linearGradient>
<linearGradient id="paint39_linear_860_593" x1="249.071" y1="108.548" x2="289.147" y2="93.7554" gradientUnits="userSpaceOnUse">
<stop stop-color="#98D8D7"/>
<stop offset="0.14" stop-color="#95D4D3"/>
<stop offset="0.28" stop-color="#8DC8C7"/>
<stop offset="0.41" stop-color="#7FB5B4"/>
<stop offset="0.55" stop-color="#6C9998"/>
<stop offset="0.68" stop-color="#537675"/>
<stop offset="0.81" stop-color="#344A4A"/>
<stop offset="0.95" stop-color="#111717"/>
<stop offset="1"/>
</linearGradient>
<linearGradient id="paint40_linear_860_593" x1="292.586" y1="148.928" x2="311.63" y2="141.899" gradientUnits="userSpaceOnUse">
<stop stop-color="#6C6F82"/>
<stop offset="0.18" stop-color="#696C7E"/>
<stop offset="0.35" stop-color="#5F6272"/>
<stop offset="0.53" stop-color="#4F515F"/>
<stop offset="0.7" stop-color="#383943"/>
<stop offset="0.87" stop-color="#1B1B20"/>
<stop offset="1"/>
</linearGradient>
<linearGradient id="paint41_linear_860_593" x1="282.815" y1="140.343" x2="301.533" y2="133.434" gradientUnits="userSpaceOnUse">
<stop stop-color="#6C6F82"/>
<stop offset="0.18" stop-color="#696C7E"/>
<stop offset="0.35" stop-color="#5F6272"/>
<stop offset="0.53" stop-color="#4F515F"/>
<stop offset="0.7" stop-color="#383943"/>
<stop offset="0.87" stop-color="#1B1B20"/>
<stop offset="1"/>
</linearGradient>
<linearGradient id="paint42_linear_860_593" x1="315.129" y1="157.155" x2="335.015" y2="182.666" gradientUnits="userSpaceOnUse">
<stop stop-color="#8EC3C8"/>
<stop offset="0.01" stop-color="#8DC2C7"/>
<stop offset="0.12" stop-color="#7CB1BC"/>
<stop offset="0.24" stop-color="#72A7B6"/>
<stop offset="0.39" stop-color="#6FA4B4"/>
<stop offset="1" stop-color="#5B75D8"/>
</linearGradient>
<linearGradient id="paint43_linear_860_593" x1="313.638" y1="164.403" x2="335.088" y2="160.249" gradientUnits="userSpaceOnUse">
<stop stop-color="#6C6F82"/>
<stop offset="0.23" stop-color="#636B80"/>
<stop offset="0.61" stop-color="#4B6079"/>
<stop offset="1" stop-color="#2B5270"/>
</linearGradient>
<linearGradient id="paint44_linear_860_593" x1="319.525" y1="162.903" x2="334.69" y2="173.135" gradientUnits="userSpaceOnUse">
<stop stop-color="#98D8D7"/>
<stop offset="0.14" stop-color="#95D4D3"/>
<stop offset="0.28" stop-color="#8DC8C7"/>
<stop offset="0.41" stop-color="#7FB5B4"/>
<stop offset="0.55" stop-color="#6C9998"/>
<stop offset="0.68" stop-color="#537675"/>
<stop offset="0.81" stop-color="#344A4A"/>
<stop offset="0.95" stop-color="#111717"/>
<stop offset="1"/>
</linearGradient>
<linearGradient id="paint45_linear_860_593" x1="333.035" y1="136.73" x2="361.284" y2="173.003" gradientUnits="userSpaceOnUse">
<stop stop-color="#8EC3C8"/>
<stop offset="0.01" stop-color="#8DC2C7"/>
<stop offset="0.12" stop-color="#7CB1BC"/>
<stop offset="0.24" stop-color="#72A7B6"/>
<stop offset="0.39" stop-color="#6FA4B4"/>
<stop offset="1" stop-color="#5B75D8"/>
</linearGradient>
<linearGradient id="paint46_linear_860_593" x1="329.225" y1="148.46" x2="368.362" y2="140.858" gradientUnits="userSpaceOnUse">
<stop stop-color="#6C6F82"/>
<stop offset="0.23" stop-color="#636B80"/>
<stop offset="0.61" stop-color="#4B6079"/>
<stop offset="1" stop-color="#2B5270"/>
</linearGradient>
<linearGradient id="paint47_linear_860_593" x1="335.223" y1="145.754" x2="359.184" y2="161.92" gradientUnits="userSpaceOnUse">
<stop stop-color="#98D8D7"/>
<stop offset="0.14" stop-color="#95D4D3"/>
<stop offset="0.28" stop-color="#8DC8C7"/>
<stop offset="0.41" stop-color="#7FB5B4"/>
<stop offset="0.55" stop-color="#6C9998"/>
<stop offset="0.68" stop-color="#537675"/>
<stop offset="0.81" stop-color="#344A4A"/>
<stop offset="0.95" stop-color="#111717"/>
<stop offset="1"/>
</linearGradient>
<linearGradient id="paint48_linear_860_593" x1="172.336" y1="26.1831" x2="202.703" y2="91.3387" gradientUnits="userSpaceOnUse">
<stop stop-color="#9FD5D4"/>
<stop offset="0.13" stop-color="#8CC2C7"/>
<stop offset="0.29" stop-color="#7CB1BD"/>
<stop offset="0.48" stop-color="#72A7B6"/>
<stop offset="0.7" stop-color="#6FA4B4"/>
</linearGradient>
<linearGradient id="paint49_linear_860_593" x1="148.546" y1="43.2847" x2="199.998" y2="94.7369" gradientUnits="userSpaceOnUse">
<stop stop-color="#6C6F82"/>
<stop offset="0.23" stop-color="#636B80"/>
<stop offset="0.61" stop-color="#4B6079"/>
<stop offset="1" stop-color="#2B5270"/>
</linearGradient>
<linearGradient id="paint50_linear_860_593" x1="171.804" y1="6.43176" x2="237.599" y2="72.2269" gradientUnits="userSpaceOnUse">
<stop stop-color="#6C6F82"/>
<stop offset="0.23" stop-color="#636B80"/>
<stop offset="0.61" stop-color="#4B6079"/>
<stop offset="1" stop-color="#2B5270"/>
</linearGradient>
<linearGradient id="paint51_linear_860_593" x1="177.651" y1="14.1791" x2="229.103" y2="65.613" gradientUnits="userSpaceOnUse">
<stop stop-color="#6C6F82"/>
<stop offset="0.23" stop-color="#636B80"/>
<stop offset="0.61" stop-color="#4B6079"/>
<stop offset="1" stop-color="#2B5270"/>
</linearGradient>
<linearGradient id="paint52_linear_860_593" x1="175.461" y1="16.3711" x2="226.913" y2="67.8049" gradientUnits="userSpaceOnUse">
<stop stop-color="#98D8D7"/>
<stop offset="0.14" stop-color="#95D4D3"/>
<stop offset="0.28" stop-color="#8DC8C7"/>
<stop offset="0.41" stop-color="#7FB5B4"/>
<stop offset="0.55" stop-color="#6C9998"/>
<stop offset="0.68" stop-color="#537675"/>
<stop offset="0.81" stop-color="#344A4A"/>
<stop offset="0.95" stop-color="#111717"/>
<stop offset="1"/>
</linearGradient>
<linearGradient id="paint53_linear_860_593" x1="168.444" y1="23.3876" x2="219.896" y2="74.8398" gradientUnits="userSpaceOnUse">
<stop stop-color="#98D8D7"/>
<stop offset="0.14" stop-color="#95D4D3"/>
<stop offset="0.28" stop-color="#8DC8C7"/>
<stop offset="0.41" stop-color="#7FB5B4"/>
<stop offset="0.55" stop-color="#6C9998"/>
<stop offset="0.68" stop-color="#537675"/>
<stop offset="0.81" stop-color="#344A4A"/>
<stop offset="0.95" stop-color="#111717"/>
<stop offset="1"/>
</linearGradient>
<linearGradient id="paint54_linear_860_593" x1="209.242" y1="121.029" x2="171.457" y2="58.1395" gradientUnits="userSpaceOnUse">
<stop stop-color="#6FA4B4"/>
<stop offset="0.45" stop-color="#84B9C1"/>
<stop offset="1" stop-color="#A3D8D5"/>
</linearGradient>
<linearGradient id="paint55_linear_860_593" x1="142.024" y1="112.771" x2="183.665" y2="112.771" gradientUnits="userSpaceOnUse">
<stop stop-color="#6C6F82"/>
<stop offset="0.23" stop-color="#636B80"/>
<stop offset="0.61" stop-color="#4B6079"/>
<stop offset="1" stop-color="#2B5270"/>
</linearGradient>
<linearGradient id="paint56_linear_860_593" x1="146.554" y1="90.3884" x2="240.286" y2="90.3884" gradientUnits="userSpaceOnUse">
<stop stop-color="#6C6F82"/>
<stop offset="0.23" stop-color="#636B80"/>
<stop offset="0.61" stop-color="#4B6079"/>
<stop offset="1" stop-color="#2B5270"/>
</linearGradient>
<linearGradient id="paint57_linear_860_593" x1="183.353" y1="84.4142" x2="202.647" y2="84.4142" gradientUnits="userSpaceOnUse">
<stop stop-color="#6C6F82"/>
<stop offset="0.23" stop-color="#636B80"/>
<stop offset="0.61" stop-color="#4B6079"/>
<stop offset="1" stop-color="#2B5270"/>
</linearGradient>
<linearGradient id="paint58_linear_860_593" x1="146.555" y1="86.8073" x2="158.541" y2="86.8073" gradientUnits="userSpaceOnUse">
<stop stop-color="#6C6F82"/>
<stop offset="0.23" stop-color="#636B80"/>
<stop offset="0.61" stop-color="#4B6079"/>
<stop offset="1" stop-color="#2B5270"/>
</linearGradient>
<linearGradient id="paint59_linear_860_593" x1="142.024" y1="92.5997" x2="222.437" y2="92.5997" gradientUnits="userSpaceOnUse">
<stop stop-color="#98D8D7"/>
<stop offset="0.14" stop-color="#95D4D3"/>
<stop offset="0.28" stop-color="#8DC8C7"/>
<stop offset="0.41" stop-color="#7FB5B4"/>
<stop offset="0.55" stop-color="#6C9998"/>
<stop offset="0.68" stop-color="#537675"/>
<stop offset="0.81" stop-color="#344A4A"/>
<stop offset="0.95" stop-color="#111717"/>
<stop offset="1"/>
</linearGradient>
<linearGradient id="paint60_linear_860_593" x1="136.249" y1="98.2092" x2="1491.03" y2="98.2092" gradientUnits="userSpaceOnUse">
<stop stop-color="#6C6F82"/>
<stop offset="0.23" stop-color="#636B80"/>
<stop offset="0.61" stop-color="#4B6079"/>
<stop offset="1" stop-color="#2B5270"/>
</linearGradient>
<radialGradient id="paint61_radial_860_593" cx="0" cy="0" r="1" gradientUnits="userSpaceOnUse" gradientTransform="translate(186.298 52.3743) rotate(-19.8852) scale(17.917 11.3936)">
<stop stop-color="#74AD98"/>
<stop offset="0.06" stop-color="#679987"/>
<stop offset="0.26" stop-color="#426357"/>
<stop offset="0.44" stop-color="#263831"/>
<stop offset="0.6" stop-color="#111916"/>
<stop offset="0.74" stop-color="#040706"/>
<stop offset="0.84"/>
</radialGradient>
<radialGradient id="paint62_radial_860_593" cx="0" cy="0" r="1" gradientUnits="userSpaceOnUse" gradientTransform="translate(149 56.1938) rotate(2.91222) scale(15.2169 9.6334)">
<stop stop-color="#74AD98"/>
<stop offset="0.06" stop-color="#679987"/>
<stop offset="0.453125" stop-color="#426357" stop-opacity="0.29"/>
<stop offset="1" stop-color="#263831" stop-opacity="0"/>
</radialGradient>
<linearGradient id="paint63_linear_860_593" x1="144.973" y1="43.3221" x2="160.176" y2="66.3447" gradientUnits="userSpaceOnUse">
<stop stop-color="#9AD1D1"/>
<stop offset="0.14" stop-color="#7DBEC7"/>
<stop offset="0.32" stop-color="#60ABBD"/>
<stop offset="0.48" stop-color="#4E9FB6"/>
<stop offset="0.59" stop-color="#489BB4"/>
</linearGradient>
<linearGradient id="paint64_linear_860_593" x1="146.29" y1="42.4349" x2="161.511" y2="65.4611" gradientUnits="userSpaceOnUse">
<stop stop-color="#6C6F82"/>
<stop offset="0.23" stop-color="#636B80"/>
<stop offset="0.61" stop-color="#4B6079"/>
<stop offset="1" stop-color="#2B5270"/>
</linearGradient>
<linearGradient id="paint65_linear_860_593" x1="158.103" y1="59.6736" x2="167.594" y2="61.6103" gradientUnits="userSpaceOnUse">
<stop stop-color="#6C6F82"/>
<stop offset="0.23" stop-color="#636B80"/>
<stop offset="0.61" stop-color="#4B6079"/>
<stop offset="1" stop-color="#2B5270"/>
</linearGradient>
<linearGradient id="paint66_linear_860_593" x1="139.636" y1="52.9212" x2="150.702" y2="55.1795" gradientUnits="userSpaceOnUse">
<stop stop-color="#6C6F82"/>
<stop offset="0.23" stop-color="#636B80"/>
<stop offset="0.61" stop-color="#4B6079"/>
<stop offset="1" stop-color="#2B5270"/>
</linearGradient>
<linearGradient id="paint67_linear_860_593" x1="138.262" y1="49.9729" x2="167.395" y2="55.9185" gradientUnits="userSpaceOnUse">
<stop stop-color="#98D8D7"/>
<stop offset="0.14" stop-color="#95D4D3"/>
<stop offset="0.28" stop-color="#8DC8C7"/>
<stop offset="0.41" stop-color="#7FB5B4"/>
<stop offset="0.55" stop-color="#6C9998"/>
<stop offset="0.68" stop-color="#537675"/>
<stop offset="0.81" stop-color="#344A4A"/>
<stop offset="0.95" stop-color="#111717"/>
<stop offset="1"/>
</linearGradient>
<linearGradient id="paint68_linear_860_593" x1="174.577" y1="40.098" x2="195.552" y2="54.276" gradientUnits="userSpaceOnUse">
<stop stop-color="#9AD1D1"/>
<stop offset="0.14" stop-color="#7DBEC7"/>
<stop offset="0.32" stop-color="#60ABBD"/>
<stop offset="0.48" stop-color="#4E9FB6"/>
<stop offset="0.59" stop-color="#489BB4"/>
</linearGradient>
<linearGradient id="paint69_linear_860_593" x1="174.978" y1="39.4819" x2="195.971" y2="53.6565" gradientUnits="userSpaceOnUse">
<stop stop-color="#6C6F82"/>
<stop offset="0.23" stop-color="#636B80"/>
<stop offset="0.61" stop-color="#4B6079"/>
<stop offset="1" stop-color="#2B5270"/>
</linearGradient>
<linearGradient id="paint70_linear_860_593" x1="174.229" y1="53.0595" x2="189.592" y2="50.0809" gradientUnits="userSpaceOnUse">
<stop stop-color="#6C6F82"/>
<stop offset="0.23" stop-color="#636B80"/>
<stop offset="0.61" stop-color="#4B6079"/>
<stop offset="1" stop-color="#2B5270"/>
</linearGradient>
<linearGradient id="paint71_linear_860_593" x1="191.005" y1="44.7344" x2="196.664" y2="43.6374" gradientUnits="userSpaceOnUse">
<stop stop-color="#6C6F82"/>
<stop offset="0.23" stop-color="#636B80"/>
<stop offset="0.61" stop-color="#4B6079"/>
<stop offset="1" stop-color="#2B5270"/>
</linearGradient>
<linearGradient id="paint72_linear_860_593" x1="199.895" y1="41.7099" x2="202.277" y2="41.2482" gradientUnits="userSpaceOnUse">
<stop stop-color="#6C6F82"/>
<stop offset="0.23" stop-color="#636B80"/>
<stop offset="0.61" stop-color="#4B6079"/>
<stop offset="1" stop-color="#2B5270"/>
</linearGradient>
<linearGradient id="paint73_linear_860_593" x1="168.826" y1="50.298" x2="200.824" y2="44.0943" gradientUnits="userSpaceOnUse">
<stop stop-color="#98D8D7"/>
<stop offset="0.14" stop-color="#95D4D3"/>
<stop offset="0.28" stop-color="#8DC8C7"/>
<stop offset="0.41" stop-color="#7FB5B4"/>
<stop offset="0.55" stop-color="#6C9998"/>
<stop offset="0.68" stop-color="#537675"/>
<stop offset="0.81" stop-color="#344A4A"/>
<stop offset="0.95" stop-color="#111717"/>
<stop offset="1"/>
</linearGradient>
<linearGradient id="paint74_linear_860_593" x1="15.2382" y1="93.4765" x2="146.92" y2="225.176" gradientUnits="userSpaceOnUse">
<stop stop-color="#8EC3C8"/>
<stop offset="0.01" stop-color="#8DC2C7"/>
<stop offset="0.12" stop-color="#7CB1BC"/>
<stop offset="0.24" stop-color="#72A7B6"/>
<stop offset="0.39" stop-color="#6FA4B4"/>
<stop offset="1" stop-color="#5B75D8"/>
</linearGradient>
<linearGradient id="paint75_linear_860_593" x1="15.986" y1="92.746" x2="147.667" y2="224.428" gradientUnits="userSpaceOnUse">
<stop stop-color="#6C6F82"/>
<stop offset="0.23" stop-color="#636B80"/>
<stop offset="0.61" stop-color="#4B6079"/>
<stop offset="1" stop-color="#2B5270"/>
</linearGradient>
<linearGradient id="paint76_linear_860_593" x1="15.9888" y1="92.7458" x2="147.67" y2="224.427" gradientUnits="userSpaceOnUse">
<stop stop-color="#6C6F82"/>
<stop offset="0.23" stop-color="#636B80"/>
<stop offset="0.61" stop-color="#4B6079"/>
<stop offset="1" stop-color="#2B5270"/>
</linearGradient>
<linearGradient id="paint77_linear_860_593" x1="17.3574" y1="102.302" x2="70.8741" y2="102.302" gradientUnits="userSpaceOnUse">
<stop stop-color="#98D8D7"/>
<stop offset="0.14" stop-color="#95D4D3"/>
<stop offset="0.28" stop-color="#8DC8C7"/>
<stop offset="0.41" stop-color="#7FB5B4"/>
<stop offset="0.55" stop-color="#6C9998"/>
<stop offset="0.68" stop-color="#537675"/>
<stop offset="0.81" stop-color="#344A4A"/>
<stop offset="0.95" stop-color="#111717"/>
<stop offset="1"/>
</linearGradient>
<linearGradient id="paint78_linear_860_593" x1="6.10364" y1="141.731" x2="68.7561" y2="141.731" gradientUnits="userSpaceOnUse">
<stop stop-color="#98D8D7"/>
<stop offset="0.14" stop-color="#95D4D3"/>
<stop offset="0.28" stop-color="#8DC8C7"/>
<stop offset="0.41" stop-color="#7FB5B4"/>
<stop offset="0.55" stop-color="#6C9998"/>
<stop offset="0.68" stop-color="#537675"/>
<stop offset="0.81" stop-color="#344A4A"/>
<stop offset="0.95" stop-color="#111717"/>
<stop offset="1"/>
</linearGradient>
<linearGradient id="paint79_linear_860_593" x1="70.983" y1="125.342" x2="98.4996" y2="125.342" gradientUnits="userSpaceOnUse">
<stop stop-color="#98D8D7"/>
<stop offset="0.14" stop-color="#95D4D3"/>
<stop offset="0.28" stop-color="#8DC8C7"/>
<stop offset="0.41" stop-color="#7FB5B4"/>
<stop offset="0.55" stop-color="#6C9998"/>
<stop offset="0.68" stop-color="#537675"/>
<stop offset="0.81" stop-color="#344A4A"/>
<stop offset="0.95" stop-color="#111717"/>
<stop offset="1"/>
</linearGradient>
<linearGradient id="paint80_linear_860_593" x1="19.167" y1="167.494" x2="48.9128" y2="167.494" gradientUnits="userSpaceOnUse">
<stop stop-color="#98D8D7"/>
<stop offset="0.14" stop-color="#95D4D3"/>
<stop offset="0.28" stop-color="#8DC8C7"/>
<stop offset="0.41" stop-color="#7FB5B4"/>
<stop offset="0.55" stop-color="#6C9998"/>
<stop offset="0.68" stop-color="#537675"/>
<stop offset="0.81" stop-color="#344A4A"/>
<stop offset="0.95" stop-color="#111717"/>
<stop offset="1"/>
</linearGradient>
<linearGradient id="paint81_linear_860_593" x1="300.867" y1="14.7315" x2="365.219" y2="153.771" gradientUnits="userSpaceOnUse">
<stop stop-color="#8EC3C8"/>
<stop offset="0.01" stop-color="#8DC2C7"/>
<stop offset="0.12" stop-color="#7CB1BC"/>
<stop offset="0.24" stop-color="#72A7B6"/>
<stop offset="0.39" stop-color="#6FA4B4"/>
<stop offset="1" stop-color="#5B75D8"/>
</linearGradient>
<linearGradient id="paint82_linear_860_593" x1="344.949" y1="0.804226" x2="335.73" y2="186.501" gradientUnits="userSpaceOnUse">
<stop stop-color="#6C6F82"/>
<stop offset="0.23" stop-color="#636B80"/>
<stop offset="0.61" stop-color="#4B6079"/>
<stop offset="1" stop-color="#2B5270"/>
</linearGradient>
<linearGradient id="paint83_linear_860_593" x1="344.946" y1="0.804868" x2="335.727" y2="186.502" gradientUnits="userSpaceOnUse">
<stop stop-color="#6C6F82"/>
<stop offset="0.23" stop-color="#636B80"/>
<stop offset="0.61" stop-color="#4B6079"/>
<stop offset="1" stop-color="#2B5270"/>
</linearGradient>
<linearGradient id="paint84_linear_860_593" x1="350.336" y1="8.79446" x2="310.734" y2="44.6507" gradientUnits="userSpaceOnUse">
<stop stop-color="#98D8D7"/>
<stop offset="0.14" stop-color="#95D4D3"/>
<stop offset="0.28" stop-color="#8DC8C7"/>
<stop offset="0.41" stop-color="#7FB5B4"/>
<stop offset="0.55" stop-color="#6C9998"/>
<stop offset="0.68" stop-color="#537675"/>
<stop offset="0.81" stop-color="#344A4A"/>
<stop offset="0.95" stop-color="#111717"/>
<stop offset="1"/>
</linearGradient>
<linearGradient id="paint85_linear_860_593" x1="385.07" y1="30.4432" x2="338.72" y2="72.408" gradientUnits="userSpaceOnUse">
<stop stop-color="#98D8D7"/>
<stop offset="0.14" stop-color="#95D4D3"/>
<stop offset="0.28" stop-color="#8DC8C7"/>
<stop offset="0.41" stop-color="#7FB5B4"/>
<stop offset="0.55" stop-color="#6C9998"/>
<stop offset="0.68" stop-color="#537675"/>
<stop offset="0.81" stop-color="#344A4A"/>
<stop offset="0.95" stop-color="#111717"/>
<stop offset="1"/>
</linearGradient>
<linearGradient id="paint86_linear_860_593" x1="326.087" y1="61.799" x2="305.724" y2="80.2351" gradientUnits="userSpaceOnUse">
<stop stop-color="#98D8D7"/>
<stop offset="0.14" stop-color="#95D4D3"/>
<stop offset="0.28" stop-color="#8DC8C7"/>
<stop offset="0.41" stop-color="#7FB5B4"/>
<stop offset="0.55" stop-color="#6C9998"/>
<stop offset="0.68" stop-color="#537675"/>
<stop offset="0.81" stop-color="#344A4A"/>
<stop offset="0.95" stop-color="#111717"/>
<stop offset="1"/>
</linearGradient>
<linearGradient id="paint87_linear_860_593" x1="392.662" y1="58.2603" x2="370.65" y2="78.1901" gradientUnits="userSpaceOnUse">
<stop stop-color="#6C6F82"/>
<stop offset="0.18" stop-color="#696C7E"/>
<stop offset="0.35" stop-color="#5F6272"/>
<stop offset="0.53" stop-color="#4F515F"/>
<stop offset="0.7" stop-color="#383943"/>
<stop offset="0.87" stop-color="#1B1B20"/>
<stop offset="1"/>
</linearGradient>
<linearGradient id="paint88_linear_860_593" x1="184.193" y1="16.2072" x2="192.451" y2="33.9122" gradientUnits="userSpaceOnUse">
<stop stop-color="#6FA4B4"/>
<stop offset="0.14" stop-color="#84B1BF"/>
<stop offset="0.42" stop-color="#B9D3DB"/>
<stop offset="0.74" stop-color="white"/>
</linearGradient>
</defs>
</svg>
