 <svg width="1440" height="262" viewBox="0 0 1440 262" fill="none" xmlns="http://www.w3.org/2000/svg">
<path fill-rule="evenodd" clip-rule="evenodd" d="M0 13.9409L27 23.8002C53 33.6594 107 52.9298 160 65.926C213 78.4742 267 85.1964 320 82.0594C373 78.4742 427 65.926 480 75.3372C533 85.1964 587 117.463 640 110.741C693 104.467 747 59.2038 800 52.9298C853 46.2076 907 78.4742 960 88.3334C1013 98.1927 1067 85.1964 1120 62.3409C1173 39.9335 1227 7.66686 1280 1.3928C1333 -5.32942 1387 13.9409 1413 23.8002L1440 33.6594V262H1413C1387 262 1333 262 1280 262C1227 262 1173 262 1120 262C1067 262 1013 262 960 262C907 262 853 262 800 262C747 262 693 262 640 262C587 262 533 262 480 262C427 262 373 262 320 262C267 262 213 262 160 262C107 262 53 262 27 262H0V13.9409Z" fill="url(#paint0_linear_16_1666)" fill-opacity="0.1"/>
<defs>
<linearGradient id="paint0_linear_16_1666" x1="720" y1="0" x2="720" y2="262" gradientUnits="userSpaceOnUse">
<stop stop-color="#929DE3"/>
<stop offset="1" stop-color="#929DE3" stop-opacity="0"/>
</linearGradient>
</defs>
</svg>
