<svg width="32" height="32" viewBox="0 0 32 32" fill="none" xmlns="http://www.w3.org/2000/svg">
<path d="M13.3334 25.3333C13.0218 25.3339 12.7199 25.2254 12.48 25.0267C12.345 24.9147 12.2334 24.7773 12.1516 24.6221C12.0698 24.467 12.0194 24.2973 12.0033 24.1226C11.9872 23.948 12.0057 23.7719 12.0578 23.6044C12.1098 23.437 12.1944 23.2814 12.3067 23.1467L18.28 16L12.52 8.84C12.4093 8.70362 12.3266 8.54669 12.2767 8.37824C12.2267 8.20979 12.2106 8.03313 12.2292 7.85843C12.2478 7.68372 12.3007 7.51441 12.385 7.36023C12.4692 7.20605 12.5831 7.07003 12.72 6.96C12.858 6.83862 13.0195 6.74706 13.1946 6.69108C13.3696 6.63509 13.5543 6.61589 13.7371 6.63467C13.9199 6.65345 14.0968 6.70981 14.2568 6.80021C14.4167 6.89061 14.5563 7.01311 14.6667 7.16L21.1067 15.16C21.3028 15.3986 21.41 15.6978 21.41 16.0067C21.41 16.3155 21.3028 16.6148 21.1067 16.8533L14.44 24.8533C14.3063 25.0147 14.1364 25.1422 13.9441 25.2256C13.7518 25.309 13.5426 25.3459 13.3334 25.3333Z" fill="#212529"/>
</svg>
