<svg width="24" height="24" viewBox="0 0 24 24" fill="none" xmlns="http://www.w3.org/2000/svg">
<path d="M20.958 15.325C21.162 14.839 20.579 14.425 20.09 14.641C19.1126 15.07 18.0565 15.2907 16.989 15.289C12.804 15.289 9.412 11.965 9.412 7.864C9.41047 6.47934 9.80385 5.12297 10.546 3.954C10.83 3.506 10.489 2.886 9.969 3.018C5.96 4.041 3 7.613 3 11.862C3 16.909 7.175 21 12.326 21C16.226 21 19.566 18.655 20.958 15.325Z" fill="#212529"/>
<path d="M15.611 3.10298C15.081 2.74898 14.449 3.38098 14.802 3.91098L15.432 4.85598C15.6876 5.23914 15.824 5.6894 15.824 6.14998C15.824 6.61055 15.6876 7.06081 15.432 7.44398L14.802 8.38898C14.449 8.91898 15.082 9.55098 15.612 9.19698L16.556 8.56698C16.9392 8.31141 17.3894 8.17503 17.85 8.17503C18.3106 8.17503 18.7608 8.31141 19.144 8.56698L20.089 9.19698C20.619 9.55098 21.251 8.91898 20.897 8.38898L20.267 7.44398C20.0114 7.06081 19.8751 6.61055 19.8751 6.14998C19.8751 5.6894 20.0114 5.23914 20.267 4.85598L20.897 3.91098C21.251 3.38098 20.619 2.74898 20.088 3.10298L19.144 3.73298C18.7608 3.98854 18.3106 4.12493 17.85 4.12493C17.3894 4.12493 16.9392 3.98854 16.556 3.73298L15.611 3.10298V3.10298Z" fill="#212529"/>
</svg>
