<svg width="900" height="500" viewBox="0 0 900 500" fill="none" xmlns="http://www.w3.org/2000/svg">
<path opacity="0.33" d="M327.41 430.326C329.284 428.019 337.356 419.658 346.15 410.864C354.943 402.071 372.963 371.077 378.297 364.879C383.631 358.68 397.758 343.399 401.218 335.759C404.677 328.119 400.929 303.612 401.218 295.972C401.506 288.332 405.11 251.86 402.659 242.346C400.209 232.831 396.316 228.939 393.145 222.308C389.973 215.677 389.397 213.659 386.514 211.64C383.631 209.622 385.36 192.323 385.937 189.873C386.514 187.422 388.532 176.322 388.532 172.43C388.532 168.538 388.532 157.438 391.559 149.221C394.586 141.004 392.568 116.353 387.379 108.569C382.189 100.784 378.008 98.9101 371.81 98.4776C365.611 98.0452 358.836 104.1 357.106 107.848C355.376 111.596 353.069 115.056 350.475 145.617C346.871 153.834 339.951 161.041 336.924 170.988C333.897 180.935 325.824 206.018 323.95 216.398C322.076 226.777 311.408 240.904 315.733 233.264C320.058 225.768 319.625 207.316 327.698 182.809C335.771 158.303 334.762 159.888 334.762 158.591C334.762 157.293 339.519 152.825 341.104 142.157C344.132 137.256 350.042 112.893 339.086 105.83C338.942 100.784 335.627 97.3244 326.545 95.8828C317.463 94.4413 314.147 96.7478 312.129 102.37C308.813 103.235 303.768 115.488 302.903 125.579C300.452 127.021 288.632 138.986 286.325 143.454C284.019 147.923 277.532 170.412 276.234 176.178C274.937 181.944 266.576 217.983 264.269 221.299C261.963 224.614 260.954 226.921 262.828 219.857C264.702 212.794 273.351 170.267 277.099 162.627C280.847 154.987 281.28 148.644 291.659 133.796C302.038 118.948 300.597 111.74 298.723 106.983C296.848 102.226 295.407 98.1893 286.613 96.7478C277.82 95.3062 272.774 102.658 272.774 102.658C272.774 102.658 267.441 104.244 254.611 118.083C251.872 112.749 248.124 108.713 248.124 108.713C248.124 108.713 245.385 102.946 237.6 101.793C229.816 100.64 226.644 109.001 226.212 112.028C223.617 112.028 218.283 123.993 216.409 135.958C214.535 148.067 211.508 165.366 208.336 175.601C205.165 185.836 203.147 194.342 202.426 201.838C201.705 209.334 197.669 219.857 196.948 229.66C196.227 239.463 184.839 267.573 184.262 276.511C183.542 285.448 183.974 316.01 183.109 323.073C182.244 330.137 180.947 353.923 183.109 367.618C185.271 381.168 184.262 393.71 181.956 400.485C179.649 407.261 171 429.749 171 429.749H327.41V430.326Z" fill="#E0E1E2"/>
<path d="M327.41 430.326C329.284 428.019 337.356 419.658 346.15 410.864C354.943 402.071 372.963 371.077 378.297 364.879C383.631 358.68 397.758 343.399 401.218 335.759C404.677 328.119 400.929 303.612 401.218 295.972C401.506 288.332 405.11 251.86 402.659 242.346C400.209 232.831 396.316 228.939 393.145 222.308C389.973 215.677 389.397 213.659 386.514 211.64C383.631 209.622 385.36 192.323 385.937 189.873C386.514 187.422 388.532 176.322 388.532 172.43C388.532 168.538 388.532 157.438 391.559 149.221C394.586 141.004 392.568 116.353 387.379 108.569C382.189 100.784 378.008 98.9101 371.81 98.4776C365.611 98.0452 358.836 104.1 357.106 107.848C355.376 111.596 353.069 115.056 350.475 145.617C346.871 153.834 339.951 161.041 336.924 170.988C333.897 180.935 325.824 206.018 323.95 216.398C322.076 226.777 311.408 240.904 315.733 233.264C320.058 225.768 319.625 207.316 327.698 182.809C335.771 158.303 334.762 159.888 334.762 158.591C334.762 157.293 339.519 152.825 341.104 142.157C344.132 137.256 350.042 112.893 339.086 105.83C338.942 100.784 335.627 97.3244 326.545 95.8828C317.463 94.4413 314.147 96.7478 312.129 102.37C308.813 103.235 303.768 115.488 302.903 125.579C300.452 127.021 288.632 138.986 286.325 143.454C284.019 147.923 277.532 170.412 276.234 176.178C274.937 181.944 266.576 217.983 264.269 221.299C261.963 224.614 260.954 226.921 262.828 219.857C264.702 212.794 273.351 170.267 277.099 162.627C280.847 154.987 281.28 148.644 291.659 133.796C302.038 118.948 300.597 111.74 298.723 106.983C296.848 102.226 295.407 98.1893 286.613 96.7478C277.82 95.3062 272.774 102.658 272.774 102.658C272.774 102.658 267.441 104.244 254.611 118.083C251.872 112.749 248.124 108.713 248.124 108.713C248.124 108.713 245.385 102.946 237.6 101.793C229.816 100.64 226.644 109.001 226.212 112.028C223.617 112.028 218.283 123.993 216.409 135.958C214.535 148.067 211.508 165.366 208.336 175.601C205.165 185.836 203.147 194.342 202.426 201.838C201.705 209.334 197.669 219.857 196.948 229.66C196.227 239.463 184.839 267.573 184.262 276.511C183.542 285.448 183.974 316.01 183.109 323.073C182.244 330.137 180.947 353.923 183.109 367.618C185.271 381.168 184.262 393.71 181.956 400.485C179.649 407.261 171 429.749 171 429.749" stroke="#75819C" stroke-width="2" stroke-miterlimit="10"/>
<path d="M212.805 225.912C216.841 221.587 220.157 214.956 220.445 208.036C220.733 201.117 220.012 165.222 229.094 151.527C238.176 137.832 254.754 118.659 254.754 118.659" stroke="#75819C" stroke-width="2" stroke-miterlimit="10"/>
<path d="M373.827 309.956C371.809 306.207 369.358 303.757 369.358 300.874C369.358 297.991 370.944 264.979 372.674 253.158C374.26 241.337 382.332 207.172 385.071 200.108" stroke="#75819C" stroke-width="2" stroke-miterlimit="10"/>
<path opacity="0.33" d="M536.582 429.929C526.435 422.1 518.461 415.432 512.953 410.792C502.805 402.094 502.08 400.645 495.411 395.715C489.758 391.511 484.249 387.017 478.595 382.813C474.826 380.059 473.231 378.754 471.637 376.29C468.882 372.375 468.737 369.186 466.997 361.357C466.997 361.357 465.402 353.674 462.938 345.701C460.474 337.292 457.284 330.769 455.979 328.159C453.225 322.65 450.181 317.722 447.426 310.328C447.137 309.603 446.846 308.733 446.266 307.429C443.802 301.05 441.917 297.571 441.047 295.396C440.467 293.946 439.453 291.336 439.018 280.029C438.728 273.94 438.583 265.822 439.163 255.819C436.988 252.34 434.814 247.991 432.639 242.917C430.319 237.263 429.014 232.189 428 227.84C429.449 226.68 431.914 224.94 435.249 223.78C442.062 221.461 447.861 223.056 449.6 223.636C450.76 223.926 454.965 225.375 462.213 231.899C466.417 235.813 472.505 241.467 477.29 251.325C479.174 255.094 483.379 264.082 483.233 275.825C483.233 277.275 483.089 278.434 483.089 279.304C484.973 282.204 486.858 285.103 488.742 288.292C491.207 292.352 493.382 296.411 495.411 300.325C487.728 278.434 479.9 256.399 472.216 234.508C471.346 231.609 470.186 227.55 469.316 222.476C468.156 215.952 468.012 211.024 468.012 207.399C467.721 190.438 467.577 182.029 468.591 175.505C469.607 168.257 475.26 147.816 477.58 145.061C478.595 144.047 480.044 142.598 482.219 141.438C483.524 140.712 488.018 138.103 493.961 138.682C502.225 139.408 508.603 145.931 510.198 150.861C510.488 151.585 511.068 153.76 511.358 156.37C511.648 158.979 511.503 160.863 511.503 161.733C511.068 173.186 510.779 179.13 510.923 182.029C511.212 188.698 512.518 193.772 513.098 196.382C514.402 201.745 515.852 204.935 518.026 210.154C523.1 222.766 522.086 221.896 528.175 237.408C529.914 242.047 532.668 248.571 536.147 256.399C540.207 255.675 544.266 254.949 548.326 254.224C547.891 241.901 546.005 232.189 544.266 225.665C542.672 219.577 541.222 215.952 539.047 206.675C537.742 200.875 537.018 196.236 535.858 189.857C534.263 180.724 533.393 173.766 533.103 171.156C531.509 158.979 532.089 159.559 530.929 150.861C529.335 139.988 528.465 138.538 527.449 128.68C526.58 120.417 526.725 116.068 527.595 111.573C528.465 107.659 529.335 103.31 532.958 99.541C533.973 98.3812 537.163 95.3368 542.237 94.322C549.775 93.0173 555.574 97.6564 556.879 98.8161C561.082 102.151 562.677 106.354 564.272 110.414C564.707 111.573 565.867 114.763 567.026 123.171C567.607 127.375 568.186 133.174 568.331 140.133C569.781 143.032 571.81 147.236 573.985 152.31C578.914 163.763 581.668 172.751 584.568 182.174C586.017 187.103 589.352 198.556 592.542 213.487C594.281 221.461 595.44 228.275 596.166 233.638C596.745 233.349 597.326 233.059 597.905 232.769C596.891 225.375 595.875 217.692 595.006 210.008C594.136 202.325 593.846 194.496 592.107 182.464C591.817 180.289 591.526 178.55 591.382 177.39C589.497 172.751 587.612 167.677 585.728 162.168C583.988 156.659 582.538 151.296 581.233 146.366C578.189 140.277 575.725 134.914 573.985 130.565C570.361 122.012 569.781 119.692 569.491 117.517C569.056 114.328 568.186 106.645 572.97 100.556C573.84 99.3959 576.449 96.2066 580.654 95.1918C586.308 93.8871 591.091 97.2214 594.716 99.8308C601.675 104.615 605.009 110.703 607.763 115.633C609.647 119.112 612.112 124.331 613.707 131.145C615.157 133.029 616.607 135.203 618.056 137.378C619.94 140.277 621.535 143.032 622.84 145.642C620.956 139.843 620.231 134.914 620.086 131.579C619.796 127.956 619.506 124.621 620.521 120.417C621.101 117.517 621.97 114.038 624.724 110.849C625.884 109.544 628.929 106.065 633.858 105.63C639.802 105.05 644.151 109.109 644.731 109.689C646.615 112.443 649.08 116.358 651.4 121.577C652.849 125.056 653.719 127.665 654.879 131.435C656.184 135.494 657.633 141.147 659.083 148.106C662.417 161.589 664.882 172.896 666.621 181.305C669.81 196.671 671.405 204.354 671.84 210.443C672.13 213.487 673.435 229.58 674.45 239.292C674.594 240.452 674.885 243.352 675.61 246.976C676.479 251.325 677.349 254.369 677.784 255.675C677.784 255.675 687.062 305.834 688.512 312.647C690.252 320.476 692.716 331.929 694.456 346.426C696.196 360.922 695.615 365.271 698.37 377.739C699.819 384.408 701.269 388.902 701.559 390.062C702.573 393.106 705.619 402.674 711.997 413.982C714.317 418.186 717.506 423.405 721.71 429.204C660.098 429.494 598.34 429.783 536.582 429.929Z" fill="#E0E1E2"/>
<path d="M541.222 255.384C543.687 254.949 546.151 254.515 548.615 254.08C548.181 241.758 546.296 232.044 544.557 225.521C542.962 219.432 541.512 215.807 539.338 206.53C538.033 200.731 537.308 196.091 536.148 189.713C534.554 180.58 533.683 173.621 533.394 171.012C531.799 158.835 532.379 159.414 531.219 150.716C529.625 139.844 528.755 138.393 527.74 128.535C526.87 120.272 527.015 115.923 527.885 111.428C528.755 107.514 529.624 103.165 533.248 99.3964C534.264 98.2366 537.453 95.1922 542.527 94.1775C550.066 92.8728 555.864 97.5117 557.169 98.6715C561.373 102.006 562.968 106.21 564.562 110.269C564.997 111.428 566.157 114.618 567.317 123.026C567.897 127.23 568.476 133.03 568.622 139.988C570.071 142.888 572.101 147.091 574.276 152.165C579.204 163.618 581.959 172.607 584.858 182.03C586.308 186.958 589.643 198.411 592.832 213.343C594.571 221.317 595.731 228.13 596.455 233.494C597.036 233.204 597.616 232.914 598.195 232.624C597.181 225.231 596.166 217.547 595.296 209.863C594.427 202.181 594.136 194.352 592.397 182.319C592.106 180.145 591.817 178.405 591.672 177.246C589.787 172.607 587.903 167.533 586.018 162.023C584.278 156.514 582.829 151.151 581.524 146.221C578.48 140.133 576.015 134.769 574.276 130.42C570.651 121.867 570.071 119.547 569.781 117.372C569.346 114.183 568.476 106.5 573.261 100.411C574.131 99.2514 576.74 96.0621 580.944 95.0473C586.598 93.7426 591.382 97.0768 595.006 99.6863C601.965 104.47 605.299 110.559 608.053 115.488C609.938 118.967 612.403 124.186 613.997 131C615.447 132.884 616.897 135.059 618.346 137.234C620.231 140.133 621.825 142.888 623.13 145.497C621.246 139.698 620.521 134.769 620.376 131.435C620.086 127.811 619.796 124.476 620.811 120.272C621.39 117.372 622.26 113.893 625.015 110.704C626.175 109.4 629.22 105.92 634.148 105.485C640.092 104.905 644.441 108.965 645.021 109.544C646.906 112.299 649.371 116.213 651.69 121.432C653.139 124.911 654.009 127.521 655.169 131.29C656.474 135.349 657.923 141.003 659.373 147.961C662.707 161.444 665.172 172.751 666.911 181.16C670.101 196.526 671.695 204.21 672.13 210.298C672.42 213.343 673.725 229.435 674.739 239.147C674.885 240.307 675.174 243.207 675.9 246.831C676.769 251.18 677.639 254.225 678.074 255.53C678.074 255.53 687.353 305.689 688.802 312.503C690.542 320.331 693.006 331.784 694.746 346.281C696.485 360.778 695.906 365.127 698.66 377.594C700.109 384.263 701.56 388.757 701.85 389.917C702.864 392.961 705.909 402.529 712.288 413.838C714.607 418.041 717.797 423.261 722 429.059" stroke="#75819C" stroke-width="2" stroke-miterlimit="10"/>
<path d="M482.654 261.183C478.304 248.86 476.71 246.686 472.361 234.363C471.492 231.463 470.332 227.405 469.462 222.33C468.302 215.807 468.157 210.878 468.157 207.254C467.867 190.292 467.722 181.884 468.737 175.36C469.752 168.112 472.071 157.384 477.725 144.916C478.739 143.902 480.19 142.451 482.364 141.292C483.669 140.567 488.163 137.958 494.106 138.537C502.37 139.263 508.748 145.786 510.343 150.716C510.634 151.44 511.213 153.614 511.503 156.224C511.793 158.834 511.648 160.718 511.648 161.588C511.213 173.041 510.923 178.984 511.069 181.884C511.358 188.553 512.663 193.626 513.243 196.235C514.548 201.6 515.997 204.789 518.172 210.009C523.246 222.621 522.231 221.751 528.32 237.263C530.06 241.902 532.814 248.425 536.293 256.254C537.888 255.963 539.483 255.674 541.077 255.384" stroke="#F69AED" stroke-width="3" stroke-miterlimit="10" stroke-linecap="round"/>
<path d="M642.846 225.376C642.267 214.069 641.397 204.5 640.527 197.106C638.642 181.45 636.902 175.796 635.308 171.592C634.148 168.548 633.423 167.243 629.509 158.834C625.45 150.136 622.26 143.032 620.23 138.394" stroke="#75819C" stroke-width="2" stroke-miterlimit="10"/>
<g opacity="0.5">
<path d="M441.917 253.355C442.497 253.21 442.643 252.485 442.787 251.905C442.932 251.325 442.932 250.746 442.932 250.165C442.932 250.021 442.932 249.876 442.932 249.73L442.787 249.295L442.497 248.426L441.917 246.686C441.048 244.512 440.468 242.192 439.743 239.872C439.018 237.553 438.583 235.234 437.568 233.204C437.134 232.19 436.408 231.32 435.539 230.595C434.669 229.87 433.654 229.144 432.494 229.144C433.654 229 434.959 229.579 435.973 230.16C436.989 230.884 438.003 231.755 438.583 232.769C439.308 233.784 439.743 234.944 440.033 236.104C440.468 237.263 440.757 238.423 441.048 239.437C441.773 241.758 442.352 244.077 442.787 246.397C442.932 246.976 443.078 247.556 443.078 248.136C443.078 248.426 443.222 248.716 443.222 249.006C443.222 249.151 443.222 249.295 443.222 249.441V249.876C443.222 250.456 443.078 251.035 442.932 251.616C442.932 252.485 442.643 253.21 441.917 253.355Z" fill="#75819C"/>
</g>
<g opacity="0.5">
<path d="M479.32 150.57C479.03 151.874 478.885 153.179 479.175 154.339C479.32 154.484 479.466 154.484 479.901 154.484C480.19 154.484 480.48 154.339 480.77 154.339C481.35 154.194 481.929 154.049 482.655 153.759C485.119 152.889 487.729 152.309 490.338 151.729C492.948 151.294 495.557 151.005 498.166 150.859C498.746 150.859 499.326 150.714 499.326 150.424C499.471 149.845 499.471 149.119 499.616 148.54C499.761 147.235 499.906 145.93 499.761 144.626C500.196 145.93 500.196 147.235 500.341 148.54C500.341 149.265 500.341 149.845 500.341 150.57C500.341 150.714 500.341 150.714 500.341 150.859C500.196 151.149 500.196 151.149 500.051 151.294C499.906 151.44 499.616 151.584 499.471 151.729C499.036 151.874 498.746 151.874 498.311 152.019C495.702 152.309 493.092 152.744 490.627 153.179C488.018 153.614 485.554 154.049 482.945 154.628C482.364 154.774 481.64 154.919 480.915 154.919C480.625 154.919 480.19 154.919 479.901 154.919C479.755 154.919 479.61 154.919 479.32 154.919C479.03 154.919 478.885 154.628 478.885 154.484C478.595 153.179 478.885 151.874 479.32 150.57Z" fill="#75819C"/>
</g>
<path d="M536.582 429.93C526.435 422.101 518.461 415.432 512.953 410.794C502.805 402.095 502.08 400.646 495.411 395.716C489.758 391.513 484.249 387.018 478.595 382.814C474.826 380.06 473.231 378.755 471.637 376.29C468.882 372.376 468.737 369.187 466.997 361.359C466.997 361.359 465.402 353.676 462.938 345.702C460.474 337.294 457.284 330.769 455.979 328.16C453.225 322.652 450.181 317.722 447.426 310.329C447.137 309.604 446.846 308.734 446.266 307.429C443.802 301.051 441.917 297.571 441.047 295.397C440.467 293.948 439.453 291.338 439.018 280.031C438.728 273.941 438.583 265.823 439.163 255.82C436.988 252.341 434.814 247.992 432.639 242.918C430.319 237.264 429.014 232.19 428 227.841C429.449 226.681 431.914 224.941 435.249 223.782C442.062 221.462 447.861 223.057 449.6 223.636C450.76 223.927 454.965 225.376 462.213 231.901C466.417 235.815 472.505 241.468 477.29 251.326C479.174 255.096 483.379 264.083 483.233 275.826C483.233 277.276 483.089 278.436 483.089 279.306C484.973 282.205 486.858 285.104 488.742 288.294C491.207 292.353 493.382 296.412 495.411 300.326C491.932 290.613 485.118 272.782 481.784 263.069" stroke="#75819C" stroke-width="2" stroke-miterlimit="10"/>
</svg>
