<svg width="850" height="500" viewBox="0 0 850 500" fill="none" xmlns="http://www.w3.org/2000/svg">
<path opacity="0.33" d="M675.793 426.885C675.793 426.885 670.205 420.867 665.334 417.715C662.182 415.709 659.746 414.563 658.743 414.133C647.568 409.118 650.29 409.118 616.477 393.358C596.991 384.332 593.266 383.042 584.526 377.741C575.786 372.44 570.055 367.998 568.622 366.852C566.33 365.132 560.742 360.691 545.698 344.787C526.212 324.442 524.779 320.717 518.475 316.991C517.186 316.275 513.461 314.126 510.165 309.971C508.159 307.535 507.156 305.243 505.724 301.518C503.001 294.64 501.282 289.482 499.706 284.324C495.264 270.856 494.548 269.28 493.832 267.848C490.536 261.4 486.668 256.242 486.668 256.242C483.086 251.514 480.364 249.222 479.217 244.35C478.788 242.774 478.358 240.482 479.074 237.903C480.65 232.745 485.951 230.596 486.668 230.309C489.533 229.163 492.256 229.306 494.548 229.736C501.855 230.882 507.873 234.464 513.747 238.906C521.484 244.637 529.651 250.798 537.388 261.83C541.256 267.418 543.835 272.576 545.411 276.444C546.701 277.017 548.563 277.734 550.569 279.166C552.575 280.456 553.865 281.602 554.724 282.462C564.181 291.202 570.915 300.228 570.915 300.228C571.917 301.518 572.777 302.664 573.207 303.38C575.786 303.237 578.508 303.237 581.087 303.094C582.52 294.497 583.093 287.19 583.236 281.602C583.809 267.561 582.233 262.833 581.374 260.397C580.514 258.105 579.368 255.812 576.932 251.084C574.067 245.64 571.488 241.341 569.768 238.476C558.449 224.291 548.85 213.259 542.259 205.809C529.078 190.908 523.06 185.32 514.893 172.712C512.028 168.414 511.741 167.411 503.288 154.229C495.694 142.194 491.826 136.176 489.963 133.311C484.949 125.86 483.086 123.711 480.364 118.267C474.919 107.664 475.349 103.079 475.922 100.787C476.209 99.3542 477.212 94.4827 481.653 91.1874C487.814 86.4593 495.264 88.6084 496.124 88.895C499.706 90.0412 501.998 92.1903 503.718 93.9097C516.899 106.805 521.771 112.965 521.771 112.965C530.51 124.428 530.224 125.431 536.671 133.597C541.113 139.185 544.552 142.624 551.142 149.501C568.909 167.84 578.365 176.294 580.944 180.019C581.23 180.449 584.383 185.034 589.827 190.192C594.412 194.49 596.848 196.926 600.716 197.499C601.289 197.642 609.026 198.645 613.324 192.914C616.047 189.189 615.33 184.604 614.757 181.022C613.754 175.004 611.175 170.706 610.172 169.13C602.292 156.665 624.643 190.335 591.546 136.463C585.099 125.86 583.953 124.141 581.517 119.699C576.502 110.673 576.932 110.53 572.92 103.223C566.186 91.3307 558.02 79.1522 558.02 79.1522C555.297 74.9971 552.575 71.4152 551.142 65.6841C550.426 62.8186 549.423 58.9501 550.569 54.0787C550.999 52.3594 552.289 47.3447 557.017 43.9061C562.748 39.7511 569.339 41.1838 570.771 41.4704C571.774 41.7569 574.926 42.6166 580.801 47.9178C586.245 52.7892 588.824 56.801 593.839 63.1052C596.561 66.6871 599.283 69.8392 604.728 76.1433C617.336 90.7576 619.485 91.3307 625.216 99.6407C628.369 104.226 630.518 107.807 634.529 114.828C639.544 123.711 642.839 130.588 643.986 132.881C647.997 141.191 654.875 154.659 666.91 176.867C667.483 177.153 669.346 177.87 671.208 177.01C672.354 176.437 673.214 175.434 674.074 173.285C675.936 167.697 674.217 160.963 673.644 158.384C671.208 149.071 670.062 146.349 668.773 141.191C667.913 137.609 666.767 132.165 666.337 125.144C663.328 121.276 661.036 117.837 659.46 115.544C655.734 109.957 652.582 104.512 646.278 93.7664C645.562 92.4769 644.845 91.3307 644.416 90.6143C638.971 84.8832 634.1 79.7253 630.231 75.2837C626.936 71.5585 624.93 69.2661 623.354 65.5409C622.351 63.2484 620.345 57.8039 622.494 52.0728C622.924 50.7834 624.357 47.3447 628.082 45.1956C632.524 42.4733 637.252 43.4763 638.398 43.7628C639.974 44.0494 641.12 44.6225 642.983 45.4821C645.848 46.7716 647.997 48.2044 649.573 49.2073C650.72 49.6371 652.296 50.3535 654.158 51.2132C654.158 51.2132 658.313 53.2191 662.182 56.0846C671.495 62.8186 684.103 77.2895 684.103 77.2895C696.855 92.0471 704.305 103.366 706.311 106.518C706.311 106.518 711.326 112.536 713.905 118.983C714.478 120.559 715.051 122.135 715.051 122.135C715.911 125.001 716.197 127.293 716.197 128.153C716.197 128.153 716.34 129.299 719.922 144.63C720.782 153.799 721.642 162.969 722.501 172.139C722.645 172.282 723.648 172.855 724.65 172.569C725.94 172.139 726.227 170.276 726.37 169.416C729.808 149.071 730.095 136.749 730.095 136.749C730.238 131.735 730.382 129.012 730.238 124.571C730.095 120.989 729.952 117.55 729.379 113.539C728.805 109.813 728.089 107.521 722.215 90.0412C720.209 84.3101 719.922 83.3072 719.493 81.3013C718.776 77.5761 717.916 72.2749 719.779 66.2572C720.639 63.535 722.071 58.6636 726.943 55.2249C727.946 54.5086 733.677 50.4968 740.268 52.3594C741.271 52.646 745.139 53.9354 747.431 57.8039C748.864 60.0963 749.008 62.3888 749.008 63.6783C749.581 65.111 750.154 66.6871 750.87 68.2631C753.019 73.4211 755.312 77.003 755.742 77.8627C756.888 79.8685 759.61 85.0265 769.783 121.849C770.786 125.287 772.075 130.015 772.935 136.463C773.651 141.907 773.794 146.062 773.938 148.068C774.368 163.256 774.654 178.3 774.941 185.607C775.514 203.23 775.8 212.256 778.379 220.996C779.525 224.865 782.104 230.739 787.406 242.344C794.856 258.964 807.464 299.082 809.757 314.413C813.052 336.907 813.052 342.495 816.634 354.673C818.067 359.545 818.353 359.545 820.073 364.989C824.944 380.32 826.95 401.381 829.672 405.25C832.538 409.405 844 427.171 844 427.171L675.793 426.885Z" fill="#E0E1E2"/>
<path d="M675.793 426.885C673.644 424.306 670.205 420.867 665.334 417.715C662.182 415.709 659.746 414.563 658.743 414.133C647.568 409.118 650.29 409.118 616.477 393.358C596.991 384.332 593.266 383.042 584.526 377.741C575.786 372.44 570.055 367.998 568.622 366.852C566.33 365.132 560.742 360.691 545.698 344.787C526.212 324.442 524.779 320.717 518.475 316.991C517.186 316.275 513.461 314.126 510.165 309.971C508.159 307.535 507.156 305.243 505.724 301.518C503.001 294.64 501.282 289.482 499.706 284.324C495.264 270.856 494.548 269.28 493.832 267.848C490.536 261.4 486.668 256.242 486.668 256.242C483.086 251.514 480.364 249.222 479.217 244.35C478.788 242.774 478.358 240.482 479.074 237.903C480.65 232.745 485.951 230.596 486.668 230.309C489.533 229.163 492.256 229.306 494.548 229.736C501.855 230.882 507.873 234.464 513.747 238.906C521.484 244.637 529.651 250.798 537.388 261.83C541.256 267.418 543.835 272.576 545.411 276.444C546.701 277.017 548.563 277.734 550.569 279.166C552.575 280.456 553.865 281.602 554.724 282.462C564.181 291.202 570.915 300.228 570.915 300.228C571.917 301.518 572.777 302.664 573.207 303.38C575.786 303.237 578.508 303.237 581.087 303.094C582.52 294.497 583.093 287.19 583.236 281.602C583.809 267.561 582.233 262.833 581.374 260.397C580.514 258.105 579.368 255.812 576.932 251.084C574.067 245.64 571.488 241.341 569.768 238.476C558.449 224.291 548.85 213.259 542.259 205.809C529.078 190.908 523.06 185.32 514.893 172.712C512.028 168.414 511.741 167.411 503.288 154.229C495.694 142.194 491.826 136.176 489.963 133.311C484.949 125.86 483.086 123.711 480.364 118.267C474.919 107.664 475.349 103.079 475.922 100.787C476.209 99.3542 477.212 94.4827 481.653 91.1874C487.814 86.4593 495.264 88.6084 496.124 88.895C499.706 90.0412 501.998 92.1903 503.718 93.9097C516.899 106.805 521.771 112.965 521.771 112.965C530.51 124.428 530.224 125.431 536.671 133.597C541.113 139.185 544.552 142.624 551.142 149.501C568.909 167.84 578.365 176.294 580.944 180.019C581.23 180.449 584.383 185.034 589.827 190.192C594.412 194.49 596.848 196.926 600.716 197.499C601.289 197.642 609.026 198.645 613.324 192.914C616.047 189.189 615.33 184.604 614.757 181.022C613.754 175.004 611.175 170.706 610.172 169.13C610.172 169.13 583.953 124.141 581.517 119.699C576.502 110.673 576.932 110.53 572.92 103.223C566.186 91.3307 558.02 79.1522 558.02 79.1522C555.297 74.9971 552.575 71.4152 551.142 65.6841C550.426 62.8186 549.423 58.9501 550.569 54.0787C550.999 52.3594 552.289 47.3447 557.017 43.9061C562.748 39.7511 569.339 41.1838 570.771 41.4704C571.774 41.7569 574.926 42.6166 580.801 47.9178C586.245 52.7892 588.824 56.801 593.839 63.1052C596.561 66.6871 599.283 69.8392 604.728 76.1433C617.336 90.7576 619.485 91.3307 625.216 99.6407C628.369 104.226 630.518 107.807 634.529 114.828C639.544 123.711 642.839 130.588 643.986 132.881C647.997 141.191 654.875 154.659 666.91 176.867C667.483 177.153 669.346 177.87 671.208 177.01C672.354 176.437 673.214 175.434 674.074 173.285C675.936 167.697 674.217 160.963 673.644 158.384C671.208 149.071 670.062 146.349 668.773 141.191C667.913 137.609 666.767 132.165 666.337 125.144C663.328 121.276 661.036 117.837 659.46 115.544C655.734 109.957 652.582 104.512 646.278 93.7664C645.562 92.4769 644.845 91.3307 644.416 90.6143C638.971 84.8832 634.1 79.7253 630.231 75.2837C626.936 71.5585 624.93 69.2661 623.354 65.5409C622.351 63.2484 620.345 57.8039 622.494 52.0728C622.924 50.7834 624.357 47.3447 628.082 45.1956C632.524 42.4733 637.252 43.4763 638.398 43.7628C639.974 44.0494 641.12 44.6225 642.983 45.4821C645.848 46.7716 647.997 48.2044 649.573 49.2073C650.72 49.6371 652.296 50.3535 654.158 51.2132C654.158 51.2132 658.313 53.2191 662.182 56.0846C671.495 62.8186 684.103 77.2895 684.103 77.2895C696.855 92.0471 704.305 103.366 706.311 106.518C706.311 106.518 711.326 112.536 713.905 118.983C714.478 120.559 715.051 122.135 715.051 122.135C715.911 125.001 716.197 127.293 716.197 128.153C716.197 128.153 716.34 129.299 719.922 144.63C720.782 153.799 721.642 162.969 722.501 172.139C722.645 172.282 723.218 172.569 723.934 172.569" stroke="#808285" stroke-width="2" stroke-miterlimit="10"/>
<path d="M774.797 185.176C775.37 202.799 775.657 211.825 778.236 220.565C779.382 224.434 781.961 230.308 787.262 241.913C794.713 258.533 807.321 298.651 809.613 313.982C812.909 336.476 812.909 342.064 816.491 354.242C817.923 359.114 818.21 359.114 819.929 364.558C824.801 379.889 826.807 400.95 829.529 404.819C832.394 408.974 843.857 426.74 843.857 426.74" stroke="#808285" stroke-width="2" stroke-miterlimit="10"/>
<path d="M724.937 171.852C725.796 171.136 726.083 169.703 726.226 168.844C729.665 148.498 729.951 136.176 729.951 136.176C730.095 131.162 730.238 128.44 730.095 123.998C729.951 120.416 729.808 116.977 729.235 112.966C728.662 109.24 727.945 106.948 722.071 89.4683C720.065 83.7372 719.779 82.7343 719.349 80.7284C718.632 77.0032 717.773 71.702 719.635 65.6844C720.495 62.9621 721.928 58.0907 726.799 54.652C727.802 53.9357 733.533 49.9239 740.124 51.7865C741.127 52.0731 744.995 53.3625 747.288 57.231C748.147 58.6638 748.577 60.0966 748.72 61.2428C749.007 62.8188 749.294 64.3949 750.01 65.9709C750.297 66.544 750.44 67.1171 750.726 67.6902C752.876 72.8482 755.168 76.4301 755.598 77.2898C756.744 79.2956 759.466 84.4536 769.639 121.276C770.642 124.714 771.931 129.442 772.791 135.89C773.507 141.334 773.651 145.489 773.794 147.495C774.224 162.683 774.51 177.727 774.797 185.034" stroke="#2969D0" stroke-width="3" stroke-miterlimit="10" stroke-linecap="round"/>
<g opacity="0.5">
<path d="M496.554 264.265C497.7 263.119 498.989 261.973 499.992 260.683C500.995 259.394 501.855 257.961 501.998 256.385C502.428 253.233 501.282 250.081 500.279 246.785C499.562 243.633 497.986 240.624 495.407 238.905C494.118 238.046 492.542 237.329 490.966 237.043C489.39 236.756 487.67 236.613 485.951 236.756C487.527 236.326 489.247 236.183 490.966 236.326C492.685 236.469 494.404 237.043 495.981 237.902C497.557 238.762 498.846 240.051 499.706 241.627C500.709 243.06 501.282 244.78 501.568 246.499C501.998 248.075 502.571 249.651 502.858 251.37C503.144 253.09 503.288 254.809 502.858 256.671C502.428 258.391 501.425 259.967 500.279 261.113C499.276 262.259 497.843 263.262 496.554 264.265Z" fill="#AEB0B2"/>
</g>
<g opacity="0.5">
<path d="M730.954 56.8008C731.527 58.6634 732.387 60.526 733.103 62.2453C733.963 63.9646 734.823 65.6839 736.112 66.9734C736.399 67.26 736.829 67.5465 737.115 67.8331L737.688 68.1196L738.405 68.4062C739.264 68.836 740.267 69.1226 741.127 69.2659C741.987 69.5524 742.99 69.6957 743.992 69.6957C744.995 69.839 745.998 69.839 746.858 69.5524C745.998 70.1255 744.995 70.2688 743.992 70.4121C742.99 70.4121 741.987 70.4121 740.984 70.2688C739.981 70.1255 738.978 69.839 737.975 69.5524C737.688 69.4091 737.545 69.4091 737.258 69.2659L736.542 68.836C736.112 68.5495 735.682 68.2629 735.253 67.8331C733.677 66.2571 732.817 64.3944 732.101 62.5318C731.384 60.8125 730.954 58.8067 730.954 56.8008Z" fill="#AEB0B2"/>
</g>
<path opacity="0.33" d="M316.455 428.89C318.318 426.597 326.341 418.287 335.081 409.547C343.821 400.807 361.731 370.003 367.032 363.842C372.333 357.681 386.374 342.494 389.813 334.9C393.252 327.306 389.526 302.949 389.813 295.356C390.099 287.762 393.681 251.513 391.246 242.057C388.81 232.601 384.942 228.732 381.789 222.141C378.637 215.551 378.064 213.545 375.199 211.539C372.333 209.533 374.052 192.34 374.626 189.904C375.199 187.468 377.205 176.436 377.205 172.568C377.205 168.699 377.205 157.667 380.213 149.5C383.222 141.333 381.216 116.833 376.058 109.096C370.9 101.359 366.745 99.4965 360.584 99.0667C354.424 98.6368 347.69 104.654 345.97 108.38C344.251 112.105 341.959 115.543 339.38 145.918C335.798 154.085 328.92 161.249 325.911 171.135C322.903 181.021 314.879 205.951 313.017 216.267C311.154 226.583 300.552 240.624 304.85 233.03C309.148 225.58 308.718 207.241 316.742 182.884C324.765 158.526 323.762 160.103 323.762 158.813C323.762 157.524 328.49 153.082 330.067 142.48C333.075 137.608 338.95 113.394 328.061 106.374C327.917 101.359 324.622 97.9205 315.596 96.4877C306.569 95.0549 303.274 97.3474 301.268 102.935C297.973 103.795 292.958 115.973 292.098 126.003C289.663 127.435 277.914 139.327 275.621 143.769C273.329 148.211 266.882 170.562 265.592 176.293C264.303 182.024 255.992 217.843 253.7 221.138C251.408 224.434 250.405 226.726 252.267 219.706C254.13 212.685 262.726 170.418 266.452 162.825C270.177 155.231 270.607 148.927 280.923 134.169C291.239 119.412 289.806 112.248 287.943 107.52C286.081 102.792 284.648 98.7801 275.908 97.3473C267.168 95.9146 262.153 103.222 262.153 103.222C262.153 103.222 256.852 104.798 244.101 118.552C241.378 113.251 237.653 109.239 237.653 109.239C237.653 109.239 234.931 103.508 227.194 102.362C219.457 101.216 216.305 109.526 215.875 112.535C213.296 112.535 207.995 124.427 206.132 136.319C204.27 148.354 201.261 165.547 198.109 175.72C194.957 185.892 192.951 194.346 192.234 201.796C191.518 209.246 187.506 219.706 186.79 229.448C186.073 239.191 174.755 267.13 174.181 276.013C173.465 284.897 173.895 315.271 173.035 322.292C172.176 329.312 170.886 352.953 173.035 366.564C175.184 380.032 174.181 392.497 171.889 399.231C169.597 405.965 161 428.317 161 428.317H316.455V428.89Z" fill="#E0E1E2"/>
<path d="M316.455 428.89C318.318 426.597 326.341 418.287 335.081 409.547C343.821 400.807 361.731 370.003 367.032 363.842C372.333 357.681 386.374 342.494 389.813 334.9C393.252 327.306 389.526 302.949 389.813 295.356C390.099 287.762 393.681 251.513 391.246 242.057C388.81 232.601 384.942 228.732 381.789 222.141C378.637 215.551 378.064 213.545 375.199 211.539C372.333 209.533 374.052 192.34 374.626 189.904C375.199 187.468 377.205 176.436 377.205 172.568C377.205 168.699 377.205 157.667 380.213 149.5C383.222 141.333 381.216 116.833 376.058 109.096C370.9 101.359 366.745 99.4965 360.584 99.0667C354.424 98.6368 347.69 104.654 345.97 108.38C344.251 112.105 341.959 115.543 339.38 145.918C335.798 154.085 328.92 161.249 325.911 171.135C322.903 181.021 314.879 205.951 313.017 216.267C311.154 226.583 300.552 240.624 304.85 233.03C309.148 225.58 308.718 207.241 316.742 182.884C324.765 158.526 323.762 160.103 323.762 158.813C323.762 157.524 328.49 153.082 330.067 142.48C333.075 137.608 338.95 113.394 328.061 106.374C327.917 101.359 324.622 97.9205 315.596 96.4877C306.569 95.0549 303.274 97.3474 301.268 102.935C297.973 103.795 292.958 115.973 292.098 126.003C289.663 127.435 277.914 139.327 275.621 143.769C273.329 148.211 266.882 170.562 265.592 176.293C264.303 182.024 255.992 217.843 253.7 221.138C251.408 224.434 250.405 226.726 252.267 219.706C254.13 212.685 262.726 170.418 266.452 162.825C270.177 155.231 270.607 148.927 280.923 134.169C291.239 119.412 289.806 112.248 287.943 107.52C286.081 102.792 284.648 98.7801 275.908 97.3473C267.168 95.9146 262.153 103.222 262.153 103.222C262.153 103.222 256.852 104.798 244.101 118.552C241.378 113.251 237.653 109.239 237.653 109.239C237.653 109.239 234.931 103.508 227.194 102.362C219.457 101.216 216.305 109.526 215.875 112.535C213.296 112.535 207.995 124.427 206.132 136.319C204.27 148.354 201.261 165.547 198.109 175.72C194.957 185.892 192.951 194.346 192.234 201.796C191.518 209.246 187.506 219.706 186.79 229.448C186.073 239.191 174.755 267.13 174.181 276.013C173.465 284.897 173.895 315.271 173.035 322.292C172.176 329.312 170.886 352.953 173.035 366.564C175.184 380.032 174.181 392.497 171.889 399.231C169.597 405.965 161 428.317 161 428.317" stroke="#808285" stroke-width="2" stroke-miterlimit="10"/>
<path d="M202.55 225.724C206.562 221.426 209.857 214.835 210.144 207.958C210.43 201.08 209.714 165.404 218.741 151.793C227.767 138.182 244.244 119.126 244.244 119.126" stroke="#808285" stroke-width="2" stroke-miterlimit="10"/>
<path d="M362.59 309.254C360.585 305.529 358.149 303.093 358.149 300.228C358.149 297.362 359.725 264.552 361.444 252.803C363.02 241.054 371.044 207.098 373.766 200.077" stroke="#808285" stroke-width="2" stroke-miterlimit="10"/>
</svg>
