<svg width="850" height="500" viewBox="0 0 850 500" fill="none" xmlns="http://www.w3.org/2000/svg">
<path opacity="0.33" d="M522.709 421.723C521.165 418.354 518.779 412.318 515.41 407.967C511.901 403.616 508.392 400.247 505.445 398.002C505.445 398.002 500.392 393.37 490.988 384.106C486.075 379.334 486.636 379.614 475.969 368.666C461.793 354.209 462.494 355.332 457.582 349.998C451.687 343.542 450.143 341.296 444.809 336.103C437.931 329.506 435.685 327.4 435.685 327.4C431.615 323.611 430.773 323.189 429.369 321.224C426.141 316.873 424.878 312.522 424.316 310.276C423.334 306.206 423.614 304.802 423.193 298.346C423.053 297.363 422.632 291.468 421.509 285.011C420.386 278.976 418.983 270.835 415.333 262.975C414.772 261.571 413.508 259.045 412.526 255.255C411.824 252.167 411.543 249.5 411.403 247.675C410.14 245.851 409.578 244.166 409.157 243.184C408.877 242.201 408.877 241.921 408.034 237.148C407.613 234.201 407.613 234.341 407.473 233.499C407.333 232.517 406.912 229.85 406.912 227.744C406.771 225.077 407.192 223.112 407.613 220.586C408.736 213.427 409.438 207.252 409.578 203.743C409.719 200.935 409.859 198.549 409.859 196.725C408.456 191.952 407.192 188.022 406.21 185.355C404.806 181.285 403.824 178.758 403.262 174.969C402.981 172.442 402.981 170.477 402.981 168.933C403.543 168.512 404.104 168.091 404.946 167.67C405.508 167.389 406.069 167.108 406.49 166.968C407.473 166.266 408.736 165.564 410.561 164.863C414.351 163.459 417.719 163.88 419.123 164.021C424.597 164.582 428.527 167.389 431.334 169.495C437.931 174.267 441.3 180.022 443.826 184.232C446.634 189.145 448.178 193.216 449.581 197.426C450.985 201.497 452.108 205.427 452.809 209.638C453.511 214.27 453.511 216.656 453.231 218.34C452.95 221.147 452.248 223.253 451.546 224.797C452.248 225.639 453.231 226.762 454.353 228.446C455.757 230.692 456.178 231.955 458.564 238.412C460.249 243.044 460.249 243.044 461.371 245.991C462.354 248.658 463.056 250.904 463.617 252.728C463.617 248.939 463.477 243.605 463.337 237.429C463.196 230.832 462.915 223.955 462.354 216.656C461.793 210.48 461.371 207.532 458.564 189.426C457.862 184.373 456.599 176.232 455.055 165.845C454.775 164.722 454.494 163.038 454.494 161.073C454.353 157.564 455.196 154.757 455.897 152.371C458.003 145.633 460.67 139.317 462.073 136.089C462.073 134.264 462.354 131.738 463.056 128.93C463.337 127.807 463.617 126.123 464.459 124.298C465.161 122.333 466.565 119.526 468.951 116.579C469.512 115.315 470.355 113.771 471.477 112.087C472.881 110.122 474.846 107.315 478.495 105.209C483.548 102.402 488.461 102.823 490.286 103.104C492.672 103.385 494.637 103.946 496.041 104.508C495.058 98.1914 494.637 92.8577 494.497 88.9276C494.356 83.5939 494.216 79.5234 495.198 74.3301C495.9 70.821 496.602 67.0313 499.128 62.8205C500.672 60.1536 502.778 56.785 506.848 54.6796C510.919 52.7145 514.849 53.1356 516.253 53.276C522.99 54.1181 527.06 58.4693 528.464 60.0133C531.973 63.803 533.236 67.8735 533.938 69.9789C534.78 72.6457 535.061 74.8915 535.201 76.5758C535.763 78.962 536.324 81.6288 536.745 84.2957C537.447 88.7872 537.728 92.8577 537.868 96.6474C538.71 99.7353 539.552 102.683 540.395 105.771C541.658 110.403 542.921 115.035 544.184 119.667C545.869 125 547.553 130.615 549.097 136.51C549.939 139.738 550.641 142.966 551.343 146.054C553.167 154.055 554.29 160.371 554.992 164.722C555.413 167.249 556.115 172.021 557.519 178.478C558.08 180.864 558.501 182.688 558.922 184.092C559.203 180.162 559.484 174.548 559.624 167.53C559.764 161.213 559.764 157.985 559.484 154.616C558.922 148.721 558.361 141.563 554.852 133.562C553.588 130.895 552.746 129.492 550.22 123.597C548.957 120.509 547.693 116.579 547.413 113.631C546.991 110.543 547.834 107.736 549.378 106.052C550.079 105.209 550.36 99.3143 558.361 96.3667C564.115 94.2613 575.204 94.8227 588.258 114.052C588.959 115.175 589.1 116.298 589.38 117C589.942 117.842 590.784 118.965 591.767 120.368C594.433 124.158 596.258 126.825 598.223 129.773C600.609 133.703 602.434 136.791 603.978 141.422C604.82 144.23 605.241 146.335 605.662 149.283C606.224 152.792 606.785 157.704 606.785 163.74C606.645 170.898 606.504 178.057 606.224 185.355C606.083 189.707 605.943 194.058 605.662 198.269C606.504 185.075 607.347 171.881 608.189 158.687C608.61 154.055 608.61 148.721 607.768 142.686C607.487 140.44 607.066 138.475 606.645 136.51C605.803 135.106 604.539 132.86 603.136 130.194C599.346 122.474 597.521 117 597.662 111.666C597.802 105.911 600.188 102.683 600.609 102.121C600.89 101.56 601.171 101.139 601.451 100.718C601.732 100.016 602.153 99.0335 602.855 97.9107C603.136 97.6299 604.96 94.9631 608.048 94.1209C611.838 92.998 615.207 94.9631 617.593 96.2263C620.26 97.7703 622.084 99.7353 625.593 103.665C628.681 107.174 630.927 110.262 632.471 112.368C634.436 115.175 636.401 118.123 638.226 121.772C639.63 124.86 640.051 126.685 642.016 133.703C645.384 146.335 645.104 144.37 646.788 151.248C648.893 159.529 650.016 163.74 650.297 166.828C650.578 169.635 650.999 172.442 649.735 184.934C647.63 208.374 646.086 208.936 646.648 218.2C646.928 222.691 647.349 223.814 648.332 234.762C649.174 245.009 649.174 248.237 649.174 249.36C649.174 250.763 649.034 257.22 647.77 265.361C647.069 269.852 646.788 270.274 646.367 273.783C645.805 278.695 646.086 281.222 646.086 286.696C646.086 293.854 646.086 298.626 645.384 304.381C644.542 311.399 643.981 311.399 642.858 318.838C634.857 370.21 661.947 410.634 666.579 421.723C618.996 421.863 570.853 421.723 522.709 421.723Z" fill="#E0E1E2"/>
<g opacity="0.5">
<path d="M501.655 66.4697C501.936 67.733 502.497 68.9962 503.34 69.8384C503.761 70.2595 504.322 70.5402 504.884 70.6805C505.445 70.8209 506.006 70.8209 506.708 70.8209C509.375 70.9613 511.902 70.9613 514.568 70.9613C517.235 70.9613 519.902 70.8209 522.429 70.8209C523.692 70.8209 524.955 70.5402 525.938 69.8384C526.92 69.1366 527.622 68.0137 528.183 66.7505C527.903 68.0137 527.341 69.2769 526.359 70.3998C525.797 70.8209 525.236 71.242 524.534 71.5227C523.832 71.8034 523.13 71.9438 522.429 71.9438C519.762 72.0842 517.095 72.2245 514.428 72.3649C511.761 72.3649 509.094 72.2245 506.428 71.9438L505.445 71.8034C505.024 71.8034 504.743 71.6631 504.322 71.5227C503.62 71.242 503.059 70.8209 502.638 70.2595C501.936 69.2769 501.655 67.8733 501.655 66.4697Z" fill="#AEB0B2"/>
</g>
<path d="M522.709 421.724C521.165 418.355 518.779 412.32 515.41 407.968C511.901 403.617 508.392 400.249 505.445 398.003C505.445 398.003 500.392 393.371 490.988 384.107C486.075 379.335 486.636 379.616 475.969 368.667C461.793 354.21 462.494 355.333 457.582 349.999C451.687 343.543 450.143 341.297 444.809 336.104C437.931 329.507 435.685 327.401 435.685 327.401C431.615 323.612 430.773 323.191 429.369 321.226C426.141 316.874 424.878 312.523 424.316 310.277C423.334 306.207 423.614 304.803 423.193 298.347C423.053 297.364 422.632 291.469 421.509 285.012C420.386 278.977 418.983 270.836 415.333 262.976C414.772 261.572 413.508 259.046 412.526 255.256C411.824 252.168 411.543 249.501 411.403 247.677C410.14 245.852 409.578 244.168 409.157 243.185C408.877 242.202 408.877 241.922 408.034 237.15C407.613 234.202 407.613 234.342 407.473 233.5C407.333 232.518 406.912 229.851 406.912 227.745C406.771 225.078 407.192 223.113 407.613 220.587C408.736 213.429 409.438 207.253 409.578 203.744C409.719 200.936 409.859 198.55 409.859 196.726C408.456 191.953 407.192 188.023 406.21 185.356C404.806 181.286 403.824 178.759 403.262 174.97C402.981 172.443 402.981 170.478 402.981 168.934C403.543 168.513 404.104 168.092 404.946 167.671C405.508 167.39 406.069 167.11 406.49 166.969C407.473 166.267 408.736 165.566 410.561 164.864C414.351 163.46 417.719 163.881 419.123 164.022C424.597 164.583 428.527 167.39 431.334 169.496C437.931 174.268 441.3 180.023 443.826 184.234C446.634 189.146 448.178 193.217 449.581 197.427C450.985 201.498 452.108 205.428 452.809 209.639C453.511 214.271 453.511 216.657 453.231 218.341C452.95 221.148 452.248 223.254 451.546 224.798C452.248 225.64 453.231 226.763 454.353 228.447C455.757 230.693 456.178 231.956 458.564 238.413C460.249 243.045 460.249 243.045 461.371 245.992C462.354 248.659 463.056 250.905 463.617 252.73C463.617 248.94 463.477 243.606 463.337 237.43C463.196 230.833 462.915 223.956 462.354 216.657C461.793 210.481 461.371 207.533 458.564 189.427C457.862 184.374 456.599 176.233 455.055 165.846C454.775 164.723 454.494 163.039 454.494 161.074C454.353 157.565 455.196 154.758 455.897 152.372C458.003 145.634 460.67 139.318 462.073 136.09C462.073 134.265 462.354 131.739 463.056 128.931C463.337 127.809 463.617 126.124 464.459 124.3C465.161 122.334 466.565 119.527 468.951 116.58C469.512 115.316 470.355 113.772 471.477 112.088C472.881 110.123 474.846 107.316 478.495 105.21C483.548 102.403 488.461 102.824 490.286 103.105C492.672 103.386 494.637 103.947 496.041 104.509" stroke="#808285" stroke-width="2" stroke-miterlimit="10"/>
<path d="M559.203 183.953C559.483 180.023 559.764 174.408 559.904 167.39C560.045 161.074 560.045 157.846 559.764 154.477C559.203 148.582 558.641 141.423 555.132 133.423C553.869 130.756 553.027 129.352 550.5 123.457C549.237 120.369 547.974 116.439 547.693 113.492C547.272 110.404 548.114 107.596 549.658 105.912C550.36 105.07 550.641 99.1748 558.641 96.2272C564.396 94.1218 575.484 94.6833 588.538 113.913C589.24 115.036 589.38 116.158 589.661 116.86C590.222 117.702 591.064 118.825 592.047 120.229C594.714 124.019 596.538 126.685 598.504 129.633C600.89 133.563 602.714 136.651 604.258 141.283C605.1 144.09 605.522 146.196 605.943 149.143C606.504 152.652 607.066 157.565 607.066 163.6C606.925 170.759 606.785 177.917 606.504 185.216C606.364 189.567 606.223 193.918 605.943 198.129C606.785 184.935 608.61 171.18 609.452 157.986C609.873 153.354 609.732 149.985 608.89 144.09C608.61 141.844 607.487 138.335 607.066 136.37C606.223 134.967 604.96 132.721 603.557 130.054C599.767 122.334 597.942 116.86 598.082 111.527C598.223 105.772 600.609 102.543 601.03 101.982C601.311 101.421 601.591 100.999 601.872 100.578C602.153 99.8766 602.574 98.8941 603.276 97.7712C603.557 97.4905 605.381 94.8236 608.469 93.9815C612.259 92.8586 615.628 94.8236 618.014 96.0869C620.681 97.6308 622.505 99.5959 626.014 103.526C629.102 107.035 631.348 110.123 632.892 112.228C634.857 115.036 636.822 117.983 638.647 121.632C640.05 124.72 640.471 126.545 642.436 133.563C645.805 146.196 645.524 144.231 647.209 151.108C649.314 159.39 650.437 163.6 650.718 166.688C650.998 169.495 651.42 172.303 650.156 184.795C648.051 208.235 646.507 208.796 647.068 218.06C647.349 222.552 647.77 223.675 648.753 234.623C649.595 244.869 649.595 248.097 649.595 249.22C649.595 250.624 649.454 257.08 648.191 265.221C647.489 269.713 647.209 270.134 646.788 273.643C646.226 278.556 646.507 281.082 646.507 286.556C646.507 293.715 646.507 298.487 645.805 304.242C644.963 311.26 644.401 311.26 643.279 318.699C635.278 370.071 662.368 410.495 667 421.583" stroke="#808285" stroke-width="2" stroke-miterlimit="10"/>
<path d="M567.624 205.989C562.15 198.269 559.203 183.952 559.203 183.952C558.922 182.689 558.36 180.724 557.799 178.338C556.255 171.881 555.553 167.109 555.272 164.583C554.571 160.232 553.448 154.056 551.623 145.915C550.921 142.827 550.219 139.598 549.377 136.37C547.833 130.475 546.149 124.861 544.465 119.527C543.201 114.895 541.938 110.263 540.675 105.631C539.833 102.543 538.991 99.4553 538.148 96.5078C538.008 92.718 537.727 88.6476 537.026 84.156C536.604 81.3488 536.043 78.8223 535.482 76.4362C535.341 74.7519 535.06 72.5061 534.218 69.8392C533.517 67.5935 532.253 63.523 528.744 59.8736C527.341 58.3297 523.27 53.9785 516.533 53.1363C515.129 52.996 511.34 52.5749 507.129 54.5399C502.918 56.6453 500.953 60.014 499.409 62.6808C496.882 66.8917 496.181 70.541 495.479 74.1904C494.496 79.5241 494.637 83.4542 494.777 88.7879C494.917 92.718 495.198 98.0517 496.321 104.368V104.929C497.163 108.579 498.988 113.912 498.567 120.229C497.725 133.142 510.357 189.848 511.62 204.445C512.041 209.638 512.322 213.288 513.445 220.727" stroke="#2969D0" stroke-width="3" stroke-miterlimit="10" stroke-linecap="round"/>
<g opacity="0.5">
<path d="M413.228 196.585C414.351 196.023 415.333 194.901 415.895 193.778C416.035 193.497 416.176 193.216 416.176 192.936C416.316 192.655 416.176 192.374 416.176 192.093C416.176 191.392 416.176 190.83 416.035 190.128C415.755 187.461 415.474 184.935 415.053 182.268C414.632 179.601 414.211 177.075 413.649 174.408C413.509 174.127 413.509 173.706 413.368 173.425C413.228 173.145 413.228 173.004 412.947 172.583C412.667 172.022 412.246 171.601 411.684 171.18C410.702 170.337 409.579 169.636 408.315 169.074C409.579 169.355 410.982 169.776 412.105 170.618C412.667 171.039 413.228 171.46 413.649 172.022C413.93 172.303 414.07 172.724 414.211 173.004C414.351 173.285 414.491 173.706 414.491 173.987C415.333 176.654 415.755 179.18 416.176 181.847C416.597 184.514 416.877 187.181 416.877 189.848C416.877 190.549 416.877 191.251 416.877 191.953C416.877 192.234 416.877 192.655 416.737 193.076C416.597 193.497 416.456 193.778 416.176 194.058C415.755 194.62 415.193 195.041 414.772 195.462C414.491 196.164 413.93 196.585 413.228 196.585Z" fill="#AEB0B2"/>
</g>
<path opacity="0.33" d="M313.291 424.251C315.116 422.005 322.976 413.864 331.538 405.302C340.1 396.74 357.645 366.562 362.839 360.527C368.032 354.491 381.787 339.613 385.156 332.174C388.525 324.735 384.875 300.874 385.156 293.435C385.437 285.995 388.946 250.484 386.56 241.22C384.173 231.957 380.384 228.167 377.296 221.71C374.208 215.254 373.646 213.289 370.839 211.324C368.032 209.359 369.716 192.515 370.278 190.129C370.839 187.743 372.804 176.935 372.804 173.145C372.804 169.356 372.804 158.548 375.752 150.547C378.699 142.547 376.734 118.545 371.681 110.966C366.628 103.386 362.558 101.562 356.522 101.14C350.487 100.719 343.89 106.615 342.206 110.264C340.521 113.913 338.276 117.282 335.749 147.038C332.24 155.039 325.503 162.057 322.555 171.742C319.608 181.427 311.747 205.85 309.923 215.955C308.098 226.061 297.711 239.817 301.922 232.378C306.133 225.079 305.712 207.113 313.572 183.251C321.432 159.39 320.45 160.934 320.45 159.671C320.45 158.408 325.082 154.056 326.626 143.67C329.573 138.897 335.328 115.177 324.661 108.299C324.52 103.386 321.292 100.018 312.449 98.614C303.606 97.2104 300.378 99.4562 298.413 104.93C295.185 105.772 290.272 117.703 289.43 127.528C287.044 128.932 275.534 140.582 273.289 144.933C271.043 149.284 264.727 171.18 263.463 176.795C262.2 182.409 254.059 217.499 251.813 220.728C249.568 223.956 248.585 226.202 250.41 219.324C252.234 212.446 260.656 171.04 264.305 163.601C267.955 156.162 268.376 149.986 278.482 135.529C288.588 121.072 287.184 114.054 285.36 109.422C283.535 104.79 282.131 100.86 273.569 99.4561C265.007 98.0525 260.095 105.211 260.095 105.211C260.095 105.211 254.901 106.755 242.409 120.23C239.742 115.036 236.093 111.106 236.093 111.106C236.093 111.106 233.426 105.492 225.847 104.369C218.267 103.246 215.179 111.387 214.758 114.334C212.232 114.334 207.038 125.984 205.214 137.634C203.389 149.425 200.441 166.268 197.353 176.233C194.265 186.199 192.3 194.48 191.599 201.779C190.897 209.078 186.967 219.324 186.265 228.869C185.563 238.413 174.475 265.784 173.913 274.486C173.211 283.188 173.632 312.945 172.79 319.822C171.948 326.7 170.685 349.86 172.79 363.194C174.896 376.388 173.913 388.599 171.667 395.196C169.422 401.793 161 423.689 161 423.689H313.291V424.251Z" fill="#E0E1E2"/>
<path d="M313.291 424.251C315.116 422.005 322.976 413.864 331.538 405.302C340.1 396.74 357.645 366.562 362.839 360.527C368.032 354.491 381.787 339.613 385.156 332.174C388.525 324.735 384.875 300.874 385.156 293.435C385.437 285.995 388.946 250.484 386.56 241.22C384.173 231.957 380.384 228.167 377.296 221.71C374.208 215.254 373.646 213.289 370.839 211.324C368.032 209.359 369.716 192.515 370.278 190.129C370.839 187.743 372.804 176.935 372.804 173.145C372.804 169.356 372.804 158.548 375.752 150.547C378.699 142.547 376.734 118.545 371.681 110.966C366.628 103.386 362.558 101.562 356.522 101.14C350.487 100.719 343.89 106.615 342.206 110.264C340.521 113.913 338.276 117.282 335.749 147.038C332.24 155.039 325.503 162.057 322.555 171.742C319.608 181.427 311.747 205.85 309.923 215.955C308.098 226.061 297.711 239.817 301.922 232.378C306.133 225.079 305.712 207.113 313.572 183.251C321.432 159.39 320.45 160.934 320.45 159.671C320.45 158.408 325.082 154.056 326.626 143.67C329.573 138.897 335.328 115.177 324.661 108.299C324.52 103.386 321.292 100.018 312.449 98.614C303.606 97.2104 300.378 99.4562 298.413 104.93C295.185 105.772 290.272 117.703 289.43 127.528C287.044 128.932 275.534 140.582 273.289 144.933C271.043 149.284 264.727 171.18 263.463 176.795C262.2 182.409 254.059 217.499 251.813 220.728C249.568 223.956 248.585 226.202 250.41 219.324C252.234 212.446 260.656 171.04 264.305 163.601C267.955 156.162 268.376 149.986 278.482 135.529C288.588 121.072 287.184 114.054 285.36 109.422C283.535 104.79 282.131 100.86 273.569 99.4561C265.007 98.0525 260.095 105.211 260.095 105.211C260.095 105.211 254.901 106.755 242.409 120.23C239.742 115.036 236.093 111.106 236.093 111.106C236.093 111.106 233.426 105.492 225.847 104.369C218.267 103.246 215.179 111.387 214.758 114.334C212.232 114.334 207.038 125.984 205.214 137.634C203.389 149.425 200.441 166.268 197.353 176.233C194.265 186.199 192.3 194.48 191.599 201.779C190.897 209.078 186.967 219.324 186.265 228.869C185.563 238.413 174.475 265.784 173.913 274.486C173.211 283.188 173.632 312.945 172.79 319.822C171.948 326.7 170.685 349.86 172.79 363.194C174.896 376.388 173.913 388.599 171.667 395.196C169.422 401.793 161 423.689 161 423.689" stroke="#808285" stroke-width="2" stroke-miterlimit="10"/>
<path d="M201.704 225.219C205.634 221.009 208.862 214.552 209.143 207.815C209.424 201.077 208.722 166.128 217.565 152.793C226.408 139.459 242.549 120.791 242.549 120.791" stroke="#808285" stroke-width="2" stroke-miterlimit="10"/>
<path d="M358.488 307.05C356.523 303.4 354.137 301.014 354.137 298.207C354.137 295.4 355.681 263.257 357.365 251.747C358.909 240.238 366.769 206.972 369.436 200.095" stroke="#808285" stroke-width="2" stroke-miterlimit="10"/>
</svg>
