<svg width="900" height="500" viewBox="0 0 900 500" fill="none" xmlns="http://www.w3.org/2000/svg">
<path opacity="0.33" d="M350.977 429.161C356.313 422.383 372.176 398.876 377.224 391.088C382.271 383.301 393.664 356.765 398.423 350.708C403.182 344.651 408.951 337.008 406.355 319.125C403.904 301.243 401.74 295.042 403.183 269.516C404.625 243.99 400.154 238.942 394.241 226.684C393.087 219.329 391.213 217.31 388.473 215.147C388.905 210.099 391.501 190.053 393.087 179.814C394.818 169.575 391.357 172.748 393.087 150.971C394.818 129.195 388.905 113.764 385.156 109.293C384.579 104.967 380.397 100.063 372.753 98.4771C365.254 96.7465 358.332 103.669 358.332 106.697C355.88 107.563 348.093 118.234 351.986 153.134C343.478 173.469 338.142 194.38 336.988 201.446C335.69 208.513 329.921 240.384 327.614 239.086C325.307 237.788 334.536 207.359 337.276 188.467C340.016 169.575 342.901 156.451 344.631 147.51C346.362 138.569 346.506 109.293 336.7 105.688C334.392 98.3329 327.326 96.4581 320.836 96.0254C314.346 95.5928 308.866 100.784 308.722 103.813C305.838 104.823 302.809 118.811 304.107 138.28C297.617 145.203 288.82 167.123 279.014 215.291C279.014 215.291 282.186 168.421 288.243 149.241C294.445 130.06 298.915 122.561 295.31 111.889C297.041 106.842 292.281 103.092 285.792 101.073C279.302 99.0539 271.947 102.515 270.505 106.553C265.313 107.418 256.66 122.849 252.911 135.108C245.989 147.366 237.768 168.998 234.596 181.256C231.423 193.514 229.981 238.365 228.106 241.394C226.231 244.422 222.914 244.711 220.318 241.826C217.723 238.942 217.001 238.077 216.28 232.741C215.559 227.261 214.261 217.743 212.675 210.676C211.233 203.609 209.502 189.621 210.079 184.429C210.656 179.237 217.29 170.007 216.569 157.893C215.848 145.779 208.204 141.165 206.185 139.578C204.166 138.136 201.859 134.675 194.937 136.55C188.014 138.425 184.697 154.288 184.697 154.288C184.697 154.288 175.9 171.45 174.458 175.343C173.016 179.237 173.304 183.996 171.862 190.342C170.42 196.687 172.295 203.033 170.132 209.378C168.113 215.724 168.978 226.107 171.285 234.76C173.593 243.413 171.862 243.845 173.737 250.479C175.612 256.969 179.361 265.91 180.659 272.111C181.957 278.313 181.525 292.013 182.39 302.685C183.255 313.357 188.159 319.27 189.456 333.258C190.754 347.247 193.494 386.185 195.369 397.434C197.244 408.683 198.398 412.144 192.773 429.45H350.977V429.161Z" fill="#697695"/>
<path d="M350.977 429.161C356.313 422.383 372.176 398.876 377.224 391.088C382.271 383.301 393.664 356.765 398.423 350.708C403.182 344.651 408.951 337.008 406.355 319.125C403.904 301.243 401.74 295.042 403.183 269.516C404.625 243.99 400.154 238.942 394.241 226.684C393.087 219.329 391.213 217.31 388.473 215.147C388.905 210.099 391.501 190.053 393.087 179.814C394.818 169.575 391.357 172.748 393.087 150.971C394.818 129.195 388.905 113.764 385.156 109.293C384.579 104.967 380.397 100.063 372.753 98.4771C365.254 96.7465 358.332 103.669 358.332 106.697C355.88 107.563 348.093 118.234 351.986 153.134C343.478 173.469 338.142 194.38 336.988 201.446C335.69 208.513 329.921 240.384 327.614 239.086C325.307 237.788 334.536 207.359 337.276 188.467C340.016 169.575 342.901 156.451 344.631 147.51C346.362 138.569 346.506 109.293 336.7 105.688C334.392 98.3329 327.326 96.4581 320.836 96.0254C314.346 95.5928 308.866 100.784 308.722 103.813C305.838 104.823 302.809 118.811 304.107 138.28C297.617 145.203 288.82 167.123 279.014 215.291C279.014 215.291 282.186 168.421 288.243 149.241C294.445 130.06 298.915 122.561 295.31 111.889C297.041 106.842 292.281 103.092 285.792 101.073C279.302 99.0539 271.947 102.515 270.505 106.553C265.313 107.418 256.66 122.849 252.911 135.108C245.989 147.366 237.768 168.998 234.596 181.256C231.423 193.514 229.981 238.365 228.106 241.394C226.231 244.422 222.914 244.711 220.318 241.826C217.723 238.942 217.001 238.077 216.28 232.741C215.559 227.261 214.261 217.743 212.675 210.676C211.233 203.609 209.502 189.621 210.079 184.429C210.656 179.237 217.29 170.007 216.569 157.893C215.848 145.779 208.204 141.165 206.185 139.578C204.166 138.136 201.859 134.675 194.937 136.55C188.014 138.425 184.697 154.288 184.697 154.288C184.697 154.288 175.9 171.45 174.458 175.343C173.016 179.237 173.304 183.996 171.862 190.342C170.42 196.687 172.295 203.033 170.132 209.378C168.113 215.724 168.978 226.107 171.285 234.76C173.593 243.413 171.862 243.845 173.737 250.479C175.612 256.969 179.361 265.91 180.659 272.111C181.957 278.313 181.525 292.013 182.39 302.685C183.255 313.357 188.159 319.27 189.456 333.258C190.754 347.247 193.494 386.185 195.369 397.434C197.244 408.683 198.398 412.144 192.773 429.45" stroke="#445272" stroke-width="2" stroke-miterlimit="10"/>
<path d="M220.462 241.539C217.866 238.511 217.145 237.789 216.424 232.454C215.703 226.973 214.405 217.455 212.819 210.389C211.376 203.322 209.646 189.333 210.223 184.142C210.8 178.95 217.433 169.72 216.712 157.606C215.991 145.492 208.348 140.877 206.329 139.291C204.31 137.849 202.002 134.388 195.08 136.262C188.158 138.137 184.841 154.001 184.841 154.001C184.841 154.001 176.044 171.162 174.602 175.056C173.16 178.95 173.448 183.709 172.006 190.054C170.564 196.4 172.438 202.745 170.275 209.091C168.256 215.436 169.122 225.82 171.429 234.473C173.736 243.125 172.006 243.558 173.881 250.192C175.755 256.682 179.505 265.623 180.803 271.824" stroke="#BA6DCD" stroke-width="3" stroke-miterlimit="10" stroke-linecap="round"/>
<g opacity="0.5">
<path d="M188.159 155.298C189.89 154.865 191.765 154.865 193.495 154.433C195.226 154 196.668 153.279 197.966 152.125C199.264 151.116 200.562 149.818 201.715 148.376C202.292 147.655 202.869 146.933 203.446 146.357C204.023 145.636 204.455 144.914 205.176 144.193C204.888 145.059 204.455 145.924 204.023 146.789C203.59 147.655 203.157 148.376 202.581 149.241C201.571 150.827 200.273 152.269 198.831 153.423C197.389 154.577 195.514 155.442 193.639 155.586C191.765 155.875 190.034 155.298 188.159 155.298Z" fill="#B1BBD0"/>
</g>
<path d="M378.81 291.581C378.522 280.909 377.079 261.007 378.81 249.037C380.541 237.212 388.617 215.291 388.617 215.291" stroke="#445272" stroke-width="2" stroke-miterlimit="10"/>
<path d="M271.658 238.798C274.687 232.164 278.436 222.79 279.013 215.146" stroke="#445272" stroke-width="2" stroke-miterlimit="10"/>
<path opacity="0.33" d="M532.068 429.26C521.579 420.926 513.676 413.599 508.36 408.426C500.314 400.667 494.423 394.058 485.083 385.724C478.186 379.545 474.738 376.528 472.439 374.804C471.864 374.373 469.278 372.505 466.261 369.775C462.525 366.183 461.232 364.315 460.8 363.453C459.364 360.866 459.076 358.568 458.789 356.987C457.927 351.814 456.634 346.642 455.628 341.325C453.473 330.549 449.162 321.928 446.863 317.618C445.714 315.462 443.271 310.721 440.972 305.548C440.254 303.824 438.961 300.807 437.955 296.64C437.811 296.352 437.811 295.634 437.38 294.628C436.662 292.473 435.656 291.18 435.368 290.749C432.495 286.725 431.633 279.254 431.633 277.961C431.489 276.955 431.633 276.668 431.633 271.639C431.776 256.983 431.489 258.994 431.776 255.115C432.207 248.793 432.782 246.781 431.776 243.045C431.345 241.178 430.627 239.741 429.765 237.729C427.897 233.562 426.46 231.551 425.023 228.821C423.73 226.378 422.149 222.786 421 217.757C421.575 217.182 422.293 216.464 422.868 215.889C424.017 214.74 425.885 213.015 428.615 211.722C434.794 208.992 440.685 210.717 442.984 211.435C447.15 212.728 449.737 214.74 452.611 217.039C459.651 222.642 463.53 228.677 467.266 234.424C471.289 240.747 473.445 245.632 474.882 249.655C477.037 255.833 477.468 259.857 476.462 263.592C476.031 265.317 475.456 266.61 474.882 267.615C474.882 268.19 474.738 268.765 474.738 269.196C475.744 269.771 477.037 270.489 478.474 271.782C483.646 276.38 484.796 282.559 485.227 282.415C485.514 282.271 485.083 279.398 482.497 268.19C477.037 252.529 472.726 239.597 469.709 230.401C462.381 207.987 461.375 203.82 460.657 200.946C458.071 189.308 458.933 187.871 454.909 165.025C452.611 151.662 452.036 150.513 451.317 143.616C450.024 131.547 451.748 134.708 451.461 115.31C451.461 114.017 451.317 108.701 453.76 103.241C454.909 100.798 456.203 99.0739 457.783 97.9245C458.214 97.4934 459.795 96.4876 462.812 95.6255C464.249 95.1945 470.858 93.614 477.755 97.0624C482.066 99.2176 484.365 102.235 485.658 104.103C488.532 107.982 489.537 111.718 490.256 114.161C490.974 116.891 491.262 118.902 491.549 123.069C492.411 133.127 492.124 134.277 492.698 140.168C493.273 145.484 493.704 150.226 495.428 156.117C496.722 160.427 498.158 163.157 499.452 166.031C504.624 177.094 509.078 186.865 512.239 198.216C513.964 204.394 515.832 210.429 517.412 216.608C517.699 217.757 518.418 220.631 520.286 224.079C521.723 226.665 523.159 228.533 524.165 229.683C525.171 229.395 526.608 228.964 528.045 228.821C529.482 228.677 530.918 228.533 531.924 228.677C532.355 228.102 532.643 227.24 532.93 226.091C533.505 223.504 532.786 221.205 532.499 220.631C530.918 215.745 528.619 198.072 526.608 182.554C525.171 171.06 524.165 163.732 525.315 154.249C525.746 150.082 526.464 146.633 526.895 139.306C527.183 134.564 527.183 131.69 527.757 124.362C528.188 119.19 528.332 116.46 528.763 114.592C530.056 108.988 532.499 104.965 534.223 102.091C536.235 98.7866 537.24 97.0624 539.108 95.4818C543.132 92.1771 547.442 91.7461 549.023 91.6024C553.62 91.1713 556.925 92.4645 557.931 92.8955C559.943 93.7576 563.966 95.7692 566.696 100.223C568.276 102.953 568.707 105.252 569.138 108.27C569.569 111 569.426 112.58 569.282 120.483C568.995 129.966 568.995 130.828 569.138 131.834C569.426 134.995 569.857 137.581 571.006 143.041C572.156 148.789 572.587 149.651 573.305 153.818C574.167 158.272 574.455 160.858 575.029 166.606C575.748 173.071 576.754 179.393 577.472 185.859C579.053 198.791 579.771 203.676 580.346 207.987C581.926 219.194 582.645 224.941 582.932 224.798C583.507 224.798 582.932 214.452 582.07 202.67C581.783 198.36 581.495 181.549 581.352 178.819C580.92 174.077 579.484 160.14 579.196 154.68C578.909 150.8 578.621 147.064 578.047 142.754C577.185 136.719 576.179 135.857 574.311 126.087C573.593 122.782 573.161 120.052 573.736 116.603C574.167 113.73 575.029 111.574 575.748 109.994C575.891 108.988 576.179 107.264 577.328 105.683C579.053 103.241 581.639 102.379 583.219 101.948C588.823 100.223 594.139 102.235 596.007 103.097C598.737 104.534 602.329 106.833 605.49 110.569C608.508 114.161 609.801 117.466 610.663 119.621C611.956 122.926 612.675 125.799 612.962 127.954C614.686 132.552 616.123 136.432 617.129 139.162C621.439 151.375 622.445 155.254 622.876 156.979C623.307 158.559 624.026 161.72 624.888 167.611C626.756 180.399 626.899 190.601 627.187 196.348C627.474 203.963 628.049 214.74 629.629 228.102C630.06 228.102 630.348 228.102 630.779 227.959C628.48 193.474 626.899 170.916 626.756 165.025C626.756 164.019 626.612 160.283 625.894 155.398C625.463 151.95 624.888 149.363 624.6 148.645C623.738 145.197 623.164 143.76 622.302 140.455C621.87 138.731 620.721 134.708 619.859 130.11C618.997 124.937 618.278 120.77 619.428 116.172C619.715 115.167 620.29 113.011 621.727 110.569C622.589 109.132 623.451 108.126 624.169 107.551C625.031 105.683 626.037 104.678 626.756 104.103C630.348 101.086 635.664 101.66 639.113 103.241C640.262 103.816 640.98 104.39 642.13 105.252C644.573 107.12 646.728 109.563 649.027 113.442C652.188 118.615 653.768 123.213 654.199 124.362C656.929 132.265 658.079 138.587 659.803 147.783C661.958 159.709 663.108 165.743 663.539 169.336C664.976 178.675 666.125 186.147 666.987 195.917C667.993 207.987 667.993 218.475 667.993 219.625C667.993 229.108 667.562 232.413 668.424 239.741C668.711 242.183 668.855 242.327 671.154 254.397C673.309 265.891 674.315 271.639 674.603 274.656C675.321 282.128 674.459 282.415 675.177 291.754C675.608 298.076 676.183 300.807 677.045 307.129C678.195 315.606 678.482 321.641 679.057 332.273C680.063 348.653 679.2 348.653 680.063 363.884C680.781 377.821 681.212 384.718 682.936 392.908C684.948 402.104 687.965 411.443 689.977 417.622C691.557 422.363 692.994 426.386 694 429.116C639.831 428.973 585.949 429.116 532.068 429.26Z" fill="#697695"/>
<path d="M532.068 429.262C521.579 420.928 513.676 413.601 508.36 408.428C500.314 400.669 494.423 394.059 485.083 385.726C478.186 379.547 474.738 376.53 472.439 374.806C471.864 374.375 469.278 372.507 466.261 369.777C462.525 366.185 461.232 364.317 460.8 363.455C459.364 360.868 459.076 358.569 458.789 356.989C457.927 351.816 456.634 346.644 455.628 341.327C453.473 330.551 449.162 321.93 446.863 317.619C445.714 315.464 443.271 310.723 440.972 305.55C440.254 303.826 438.961 300.808 437.955 296.642C437.811 296.354 437.811 295.636 437.38 294.63C436.662 292.475 435.656 291.182 435.368 290.751C432.495 286.727 431.633 279.256 431.633 277.963C431.489 276.957 431.633 276.669 431.633 271.641C431.776 256.985 431.489 258.996 431.776 255.117C432.207 248.795 432.782 246.783 431.776 243.047C431.345 241.18 430.627 239.743 429.765 237.731C427.897 233.564 426.46 231.553 425.023 228.823C423.73 226.38 422.149 222.788 421 217.759C421.575 217.184 422.293 216.466 422.868 215.891C424.017 214.742 425.885 213.017 428.615 211.724C434.794 208.994 440.685 210.718 442.984 211.437C447.15 212.73 449.737 214.742 452.611 217.041C459.651 222.644 463.53 228.679 467.266 234.426C471.289 240.748 473.445 245.634 474.882 249.657C477.037 255.835 477.468 259.858 476.462 263.594C476.031 265.318 475.456 266.612 474.882 267.617C474.882 268.192 474.738 268.767 474.738 269.198C475.744 269.773 477.037 270.491 478.474 271.784C483.646 276.382 484.796 282.561 485.227 282.417C485.514 282.273 485.083 279.4 482.497 268.192C477.324 253.536 473.157 241.036 470.14 231.984" stroke="#445272" stroke-width="2" stroke-miterlimit="10"/>
<path d="M527.9 228.534C529.337 228.39 530.774 228.246 531.78 228.39C532.211 227.815 532.498 226.953 532.785 225.804C533.36 223.217 532.642 220.918 532.354 220.344C530.774 215.458 528.475 197.785 526.463 182.267C525.026 170.773 524.021 163.445 525.17 153.962C525.601 149.795 526.32 146.346 526.751 139.018C527.038 134.277 527.038 131.403 527.613 124.075C528.044 118.903 528.187 116.173 528.619 114.305C529.912 108.701 532.354 104.678 534.079 101.804C536.09 98.4995 537.096 96.7753 538.964 95.1947C542.987 91.89 547.297 91.459 548.878 91.3153C553.476 90.8842 556.781 92.1774 557.786 92.6084C559.798 93.4705 563.821 95.4821 566.551 99.9363C568.132 102.666 568.563 104.965 568.994 107.983C569.425 110.713 569.281 112.293 569.137 120.196C568.85 129.679 568.85 130.541 568.994 131.547C569.281 134.708 569.712 137.294 570.862 142.754C572.011 148.502 572.442 149.364 573.161 153.531C574.023 157.985 574.31 160.571 574.885 166.318C575.603 172.784 576.609 179.106 577.327 185.572C578.908 198.504 579.626 203.389 580.201 207.699C581.782 218.907 582.5 224.654 582.787 224.51C583.362 224.51 582.787 214.165 581.925 202.383C581.638 198.073 581.351 181.262 581.207 178.532C580.776 173.79 579.339 159.853 579.052 154.393C578.764 150.513 578.477 146.777 577.902 142.467C577.04 136.432 576.034 135.57 574.166 125.799C573.448 122.495 573.017 119.765 573.592 116.316C574.023 113.443 574.885 111.287 575.603 109.707C575.747 108.701 576.034 106.977 577.184 105.396C578.908 102.954 581.494 102.092 583.075 101.661C588.678 99.9363 593.995 101.948 595.863 102.81C598.593 104.247 602.185 106.546 605.346 110.282C608.363 113.874 609.656 117.178 610.518 119.334C611.812 122.638 612.53 125.512 612.817 127.667C614.542 132.265 615.978 136.145 616.984 138.875C621.295 151.088 622.301 154.967 622.732 156.692C623.163 158.272 623.881 161.433 624.743 167.324C626.611 180.112 626.755 190.314 627.042 196.061C627.33 203.676 627.904 214.453 629.485 227.815C629.916 227.815 630.203 227.815 630.634 227.672C628.335 193.187 626.755 170.629 626.611 164.738C626.611 163.732 626.467 159.996 625.749 155.111C625.318 151.663 624.743 149.076 624.456 148.358C623.594 144.909 623.019 143.473 622.157 140.168C621.726 138.444 620.576 134.421 619.714 129.823C618.852 124.65 618.134 120.483 619.283 115.885C619.571 114.879 620.145 112.724 621.582 110.282C622.444 108.845 623.306 107.839 624.025 107.264C624.887 105.396 625.893 104.391 626.611 103.816C630.203 100.798 635.52 101.373 638.968 102.954C640.117 103.528 640.836 104.103 641.985 104.965C644.428 106.833 646.583 109.276 648.882 113.155C652.043 118.328 653.624 122.926 654.055 124.075C656.785 131.978 657.934 138.3 659.658 147.496C661.814 159.422 662.963 165.456 663.394 169.048C664.831 178.388 665.981 185.859 666.843 195.63C667.848 207.699 667.848 218.188 667.848 219.338C667.848 228.821 667.417 232.126 668.28 239.454C668.567 241.896 668.711 242.04 671.01 254.109C673.165 265.604 674.171 271.352 674.458 274.369C675.176 281.84 674.314 282.128 675.033 291.467C675.464 297.789 676.038 300.519 676.901 306.841C678.05 315.319 678.337 321.354 678.912 331.986C679.918 348.366 679.056 348.366 679.918 363.597C680.636 377.534 681.067 384.431 682.792 392.621C684.803 401.817 687.821 411.156 689.832 417.335C691.413 422.076 692.849 426.099 693.855 428.829" stroke="#445272" stroke-width="2" stroke-miterlimit="10"/>
<path d="M469.853 231.695C469.709 231.12 469.565 230.689 469.278 230.114C461.95 207.699 460.944 203.533 460.226 200.659C457.64 189.02 458.502 187.584 454.478 164.738C452.18 151.375 451.605 150.226 450.886 143.329C449.593 131.259 451.317 134.421 451.03 115.023C451.03 113.73 450.886 108.414 453.329 102.954C454.478 100.511 455.772 98.7868 457.352 97.6374C457.783 97.2063 459.364 96.2005 462.381 95.3384C463.818 94.9074 470.427 93.3269 477.324 96.7753C481.635 98.9305 483.934 101.948 485.227 103.816C488.101 107.695 489.106 111.431 489.825 113.874C490.543 116.604 490.831 118.615 491.118 122.782C491.98 132.84 491.693 133.989 492.267 139.881C492.842 145.197 493.273 149.938 494.997 155.829C496.291 160.14 497.727 162.87 499.021 165.744C504.193 176.807 508.647 186.578 511.808 197.929C513.533 204.107 515.401 210.142 516.981 216.32C517.268 217.47 517.987 220.344 519.855 223.792C521.292 226.378 522.728 228.246 523.734 229.396C524.74 229.108 526.177 228.677 527.614 228.534" stroke="#BA6DCD" stroke-width="3" stroke-miterlimit="10" stroke-linecap="round"/>
<g opacity="0.5">
<path d="M455.053 113.3C455.627 114.306 456.202 115.312 456.921 116.174C457.639 117.036 458.501 117.898 459.363 118.185C459.794 118.329 460.225 118.329 460.8 118.185C461.375 118.042 461.95 118.042 462.524 117.898C463.674 117.611 464.68 117.467 465.829 117.036C470.14 115.743 474.306 113.731 477.755 110.858L477.611 111.145C477.611 111.001 477.611 110.427 477.611 109.995V108.702C477.611 107.84 477.611 106.978 477.467 106.116C477.467 105.254 477.324 104.392 477.324 103.53C477.18 102.668 477.18 101.805 476.893 100.943C477.324 101.662 477.467 102.524 477.755 103.386C477.899 104.248 478.186 105.11 478.186 105.972C478.33 106.834 478.473 107.697 478.473 108.559L478.617 109.852C478.617 110.283 478.761 110.57 478.617 111.289V111.432L478.473 111.576C475.025 114.881 470.571 117.036 466.116 118.185C464.967 118.473 463.817 118.76 462.668 118.904C462.093 118.904 461.519 119.048 460.944 119.048C460.656 119.048 460.369 119.048 459.938 119.048C459.507 119.048 459.22 118.904 458.932 118.76C457.783 118.185 456.921 117.18 456.346 116.174C455.915 115.455 455.484 114.306 455.053 113.3Z" fill="#B1BBD0"/>
</g>
<g opacity="0.5">
<path d="M435.226 242.183C436.95 240.459 438.1 238.016 437.812 235.717C437.668 234.568 437.381 233.419 436.95 232.269C436.519 231.12 436.088 229.97 435.657 228.821C434.795 226.522 433.789 224.223 432.64 222.067C432.352 221.493 432.065 220.918 431.777 220.487C431.49 220.056 431.059 219.625 430.628 219.194C429.766 218.475 428.616 217.901 427.323 217.613C428.616 217.613 429.766 217.901 430.915 218.619C431.49 218.906 432.065 219.337 432.496 219.912C432.927 220.487 433.214 221.062 433.502 221.493C434.795 223.648 435.801 225.947 436.806 228.246C437.669 230.545 438.674 232.987 438.818 235.574C438.818 236.867 438.387 238.304 437.812 239.31C437.094 240.603 436.232 241.609 435.226 242.183Z" fill="#B1BBD0"/>
</g>
</svg>
