<svg width="900" height="500" viewBox="0 0 900 500" fill="none" xmlns="http://www.w3.org/2000/svg">
<path opacity="0.33" d="M327.41 430.327C329.284 428.02 337.356 419.659 346.15 410.865C354.943 402.072 372.963 371.078 378.297 364.88C383.631 358.681 397.758 343.4 401.218 335.76C404.677 328.12 400.929 303.613 401.218 295.973C401.506 288.333 405.11 251.861 402.659 242.347C400.209 232.832 396.316 228.94 393.145 222.309C389.973 215.678 389.397 213.66 386.514 211.641C383.631 209.623 385.36 192.324 385.937 189.874C386.514 187.423 388.532 176.323 388.532 172.431C388.532 168.539 388.532 157.439 391.559 149.222C394.586 141.005 392.568 116.354 387.379 108.57C382.189 100.785 378.008 98.9111 371.81 98.4786C365.611 98.0461 358.836 104.101 357.106 107.849C355.376 111.597 353.069 115.057 350.475 145.618C346.871 153.835 339.951 161.042 336.924 170.989C333.897 180.936 325.824 206.019 323.95 216.398C322.076 226.778 311.408 240.905 315.733 233.265C320.058 225.769 319.625 207.317 327.698 182.81C335.771 158.303 334.762 159.889 334.762 158.592C334.762 157.294 339.519 152.826 341.104 142.158C344.132 137.257 350.042 112.894 339.086 105.831C338.942 100.785 335.627 97.3254 326.545 95.8838C317.463 94.4422 314.147 96.7487 312.129 102.371C308.813 103.236 303.768 115.489 302.903 125.58C300.452 127.022 288.632 138.987 286.325 143.455C284.019 147.924 277.532 170.413 276.234 176.179C274.937 181.945 266.576 217.984 264.269 221.3C261.963 224.615 260.954 226.922 262.828 219.858C264.702 212.795 273.351 170.268 277.099 162.628C280.847 154.988 281.28 148.645 291.659 133.797C302.038 118.949 300.597 111.741 298.723 106.984C296.848 102.227 295.407 98.1903 286.613 96.7487C277.82 95.3072 272.774 102.659 272.774 102.659C272.774 102.659 267.441 104.245 254.611 118.084C251.872 112.75 248.124 108.714 248.124 108.714C248.124 108.714 245.385 102.947 237.6 101.794C229.816 100.641 226.644 109.002 226.212 112.029C223.617 112.029 218.283 123.994 216.409 135.959C214.535 148.068 211.508 165.367 208.336 175.602C205.165 185.837 203.147 194.343 202.426 201.839C201.705 209.335 197.669 219.858 196.948 229.661C196.227 239.464 184.839 267.574 184.262 276.512C183.542 285.449 183.974 316.011 183.109 323.074C182.244 330.138 180.947 353.924 183.109 367.619C185.271 381.169 184.262 393.711 181.956 400.486C179.649 407.261 171 429.75 171 429.75H327.41V430.327Z" fill="#445272"/>
<path d="M327.41 430.327C329.284 428.02 337.356 419.659 346.15 410.865C354.943 402.072 372.963 371.078 378.297 364.88C383.631 358.681 397.758 343.4 401.218 335.76C404.677 328.12 400.929 303.613 401.218 295.973C401.506 288.333 405.11 251.861 402.659 242.347C400.209 232.832 396.316 228.94 393.145 222.309C389.973 215.678 389.397 213.66 386.514 211.641C383.631 209.623 385.36 192.324 385.937 189.874C386.514 187.423 388.532 176.323 388.532 172.431C388.532 168.539 388.532 157.439 391.559 149.222C394.586 141.005 392.568 116.354 387.379 108.57C382.189 100.785 378.008 98.9111 371.81 98.4786C365.611 98.0461 358.836 104.101 357.106 107.849C355.376 111.597 353.069 115.057 350.475 145.618C346.871 153.835 339.951 161.042 336.924 170.989C333.897 180.936 325.824 206.019 323.95 216.398C322.076 226.778 311.408 240.905 315.733 233.265C320.058 225.769 319.625 207.317 327.698 182.81C335.771 158.303 334.762 159.889 334.762 158.592C334.762 157.294 339.519 152.826 341.104 142.158C344.132 137.257 350.042 112.894 339.086 105.831C338.942 100.785 335.627 97.3254 326.545 95.8838C317.463 94.4422 314.147 96.7487 312.129 102.371C308.813 103.236 303.768 115.489 302.903 125.58C300.452 127.022 288.632 138.987 286.325 143.455C284.019 147.924 277.532 170.413 276.234 176.179C274.937 181.945 266.576 217.984 264.269 221.3C261.963 224.615 260.954 226.922 262.828 219.858C264.702 212.795 273.351 170.268 277.099 162.628C280.847 154.988 281.28 148.645 291.659 133.797C302.038 118.949 300.597 111.741 298.723 106.984C296.848 102.227 295.407 98.1903 286.613 96.7487C277.82 95.3072 272.774 102.659 272.774 102.659C272.774 102.659 267.441 104.245 254.611 118.084C251.872 112.75 248.124 108.714 248.124 108.714C248.124 108.714 245.385 102.947 237.6 101.794C229.816 100.641 226.644 109.002 226.212 112.029C223.617 112.029 218.283 123.994 216.409 135.959C214.535 148.068 211.508 165.367 208.336 175.602C205.165 185.837 203.147 194.343 202.426 201.839C201.705 209.335 197.669 219.858 196.948 229.661C196.227 239.464 184.839 267.574 184.262 276.512C183.542 285.449 183.974 316.011 183.109 323.074C182.244 330.138 180.947 353.924 183.109 367.619C185.271 381.169 184.262 393.711 181.956 400.486C179.649 407.261 171 429.75 171 429.75" stroke="#697695" stroke-width="2" stroke-miterlimit="10"/>
<path d="M212.805 225.912C216.841 221.588 220.157 214.957 220.445 208.037C220.733 201.118 220.012 165.223 229.094 151.528C238.176 137.833 254.754 118.66 254.754 118.66" stroke="#697695" stroke-width="2" stroke-miterlimit="10"/>
<path d="M373.826 309.957C371.808 306.208 369.357 303.758 369.357 300.875C369.357 297.992 370.943 264.98 372.673 253.159C374.259 241.338 382.331 207.173 385.07 200.109" stroke="#697695" stroke-width="2" stroke-miterlimit="10"/>
<path opacity="0.33" d="M553.332 430.997C540.601 411.901 530.184 399.748 522.517 388.753C512.968 375.01 508.194 368.065 504.722 362.278C499.659 353.888 498.357 350.56 493.582 344.918C490.544 341.301 487.796 338.697 484.468 333.199C482.877 330.451 480.851 327.123 479.549 322.349C478.537 318.443 478.826 316.128 478.826 309.329C478.826 307.882 478.971 296.598 478.247 286.76C478.103 283.577 477.524 279.816 476.656 272.293C475.499 262.021 474.631 257.826 474.052 249.724C473.763 245.673 473.618 242.491 473.473 240.465C473.184 238.729 472.894 236.704 473.039 234.244C473.328 230.483 474.341 227.589 475.643 224.407C477.235 220.501 479.694 215.437 482.877 209.506C483.166 208.493 483.745 207.046 484.758 205.599C485.481 204.297 486.349 203.285 487.072 202.561C486.928 196.63 487.072 189.975 487.94 182.452C488.519 177.244 489.387 172.614 490.4 168.274C490.978 168.13 491.702 168.13 492.425 168.13C493.148 168.13 493.872 168.13 494.45 168.274C495.753 167.985 497.633 167.551 499.659 167.695C504.433 167.985 507.76 170.155 509.207 171.312C508.339 169.576 506.892 166.104 506.748 161.764C506.748 160.317 506.748 157.134 508.194 153.807C511.956 145.127 522.661 142.957 524.253 142.667C530.618 141.365 535.826 142.957 537.852 143.68C542.192 145.271 545.085 147.731 546.677 149.178C546.532 147.297 546.532 145.561 546.388 143.68C545.23 142.233 543.494 140.063 542.047 137.315C540.601 134.566 535.682 125.162 537.852 113.733C538.575 109.682 539.588 104.329 544.217 100.568C545.085 99.8452 548.992 96.9514 554.489 96.9514C558.974 96.9514 562.012 98.9772 565.05 101.002C567.365 102.593 571.416 105.053 574.743 110.261C575.322 108.959 575.9 107.946 577.203 106.355C577.637 105.776 578.215 105.197 578.649 104.763C578.794 103.751 579.083 102.015 580.096 100.279C582.121 96.9514 585.593 95.9387 586.751 95.6494C592.682 93.9133 598.18 97.0961 600.495 98.5428C602.375 99.5552 605.269 101.725 607.873 105.342C610.766 107.223 613.949 109.682 616.987 112.431C618.289 113.588 619.447 114.746 620.604 115.903C621.472 114.601 622.485 112.865 623.931 111.274C625.233 109.827 626.391 108.814 627.548 107.946C627.982 107.078 628.85 105.632 630.586 104.329C631.02 104.04 633.48 102.304 636.807 102.593C640.279 102.883 642.449 105.053 644.041 106.5C645.921 108.236 646.934 109.972 647.368 110.695C653.155 120.388 652.142 117.35 655.614 124.005C657.929 128.49 658.074 129.213 664.584 143.391C668.056 150.914 667.911 150.48 668.924 152.939C672.252 160.462 674.711 167.117 676.592 172.759C678.762 175.652 680.353 178.112 681.511 180.137C682.957 182.741 683.825 184.188 684.404 186.503C684.693 187.515 685.127 189.975 685.851 194.749C686.285 197.353 686.285 197.208 686.285 198.076C687.008 202.417 687.731 205.599 688.021 206.757C689.178 211.676 689.033 214.135 691.348 229.615C692.506 237.138 693.084 240.321 694.097 244.082C694.82 246.831 695.254 248.133 696.412 251.894C698.871 259.851 700.318 264.625 701.331 268.387C702.922 275.042 703.067 280.25 703.211 287.049C703.356 292.692 703.067 298.044 700.607 319.022C698.871 333.055 698.148 339.999 696.99 347.811C695.688 357.36 694.676 362.712 694.242 371.537C693.952 375.733 693.952 379.494 693.952 386.873C693.952 403.944 694.676 409.875 695.11 412.913C695.688 416.675 696.556 421.304 698.582 426.802C699.16 428.393 699.739 429.695 700.173 430.708C651.708 430.563 602.52 430.853 553.332 430.997Z" fill="#445272"/>
<path d="M553.332 430.998C540.601 411.902 530.184 399.749 522.517 388.754C512.968 375.011 508.194 368.066 504.722 362.279C499.659 353.889 498.357 350.561 493.582 344.919C490.544 341.302 487.796 338.698 484.468 333.201C482.877 330.452 480.851 327.124 479.549 322.35C478.537 318.444 478.826 316.129 478.826 309.33C478.826 307.883 478.971 296.599 478.247 286.761C478.103 283.578 477.524 279.817 476.656 272.294C475.499 262.022 474.631 257.827 474.052 249.725C473.763 245.674 473.618 242.492 473.473 240.466C473.184 238.73 472.894 236.705 473.039 234.245C473.328 230.484 474.341 227.59 475.643 224.408C477.235 220.502 479.694 215.438 482.877 209.507C483.166 208.494 483.745 207.047 484.758 205.6C485.481 204.298 486.349 203.286 487.072 202.562C486.928 196.631 487.072 189.976 487.94 182.453C488.519 177.245 489.387 172.615 490.4 168.275C490.978 168.131 491.702 168.131 492.425 168.131C493.148 168.131 493.872 168.131 494.45 168.275C495.753 167.986 497.633 167.552 499.659 167.697C504.433 167.986 507.76 170.156 509.207 171.313" stroke="#697695" stroke-width="2" stroke-miterlimit="10"/>
<path d="M547.254 149.033C547.109 147.152 547.109 145.416 546.965 143.536C545.807 142.089 544.071 139.919 542.625 137.17C541.178 134.421 536.259 125.018 538.429 113.589C539.152 109.538 540.165 104.185 544.795 100.423C545.663 99.7002 549.569 96.8069 555.066 96.8069C559.551 96.8069 562.589 98.8323 565.627 100.857C567.942 102.449 571.993 104.908 575.32 110.116C575.899 108.814 576.478 107.802 577.78 106.21C578.214 105.632 578.792 105.053 579.226 104.619C579.371 103.606 579.66 101.87 580.673 100.134C582.698 96.8069 586.171 95.7942 587.328 95.5048C593.259 93.7688 598.757 96.9516 601.072 98.3983C602.952 99.4112 605.846 101.581 608.45 105.198C611.343 107.078 614.526 109.538 617.564 112.287C618.866 113.444 620.024 114.601 621.181 115.759C622.049 114.457 623.062 112.721 624.508 111.129C625.811 109.682 626.968 108.67 628.125 107.802C628.559 106.934 629.427 105.487 631.163 104.185C631.597 103.896 634.057 102.16 637.384 102.449C640.856 102.738 643.026 104.908 644.618 106.355C646.499 108.091 647.511 109.827 647.945 110.55C653.732 120.243 652.719 117.205 656.192 123.86C658.506 128.345 658.651 129.068 665.161 143.246C668.633 150.769 668.489 150.335 669.501 152.795C672.829 160.317 675.288 166.972 677.169 172.614C679.339 175.508 680.93 177.967 682.088 179.993C683.534 182.597 684.402 184.044 684.981 186.358C685.27 187.371 685.704 189.83 686.428 194.605C686.862 197.209 686.862 197.064 686.862 197.932C687.585 202.272 688.309 205.455 688.598 206.612C689.755 211.531 689.611 213.99 691.925 229.47C693.083 236.993 693.661 240.176 694.674 243.937C695.397 246.686 695.831 247.988 696.989 251.75C699.448 259.707 700.895 264.481 701.908 268.242C703.499 274.897 703.644 280.105 703.788 286.905C703.933 292.547 703.644 297.9 701.184 318.877C699.448 332.91 698.725 339.855 697.568 347.667C696.265 357.215 695.253 362.568 694.819 371.393C694.529 375.588 694.529 379.35 694.529 386.728C694.529 403.799 695.253 409.731 695.687 412.769C696.265 416.53 697.133 421.16 699.159 426.657C699.738 428.249 700.316 429.551 700.75 430.564" stroke="#697695" stroke-width="2" stroke-miterlimit="10"/>
<path d="M529.604 278.949C528.881 274.319 526.711 269.834 526.132 268.966C526.422 265.205 526.566 260.286 525.698 254.789C524.686 247.7 522.516 242.057 520.635 238.007C521.214 234.101 521.358 227.735 520.201 222.816" stroke="#697695" stroke-width="2" stroke-miterlimit="10"/>
<path d="M590.221 240.612C588.05 236.851 586.748 233.523 584.289 226C582.119 219.201 581.54 214.427 580.528 208.64C578.068 194.607 574.885 185.348 573.294 180.429C570.401 171.749 567.796 165.528 563.167 160.898C560.708 158.439 557.525 155.979 557.525 155.979C553.908 153.231 549.713 150.482 547.253 149.18C545.662 147.588 542.768 145.274 538.428 143.682C536.403 142.959 531.195 141.368 524.829 142.67C523.238 142.959 512.532 145.129 508.771 153.809C507.324 157.137 507.324 160.319 507.324 161.766C507.469 166.251 508.915 169.578 509.783 171.314L510.217 172.038C511.085 176.378 511.953 183.322 512.387 188.53C512.532 189.832 512.677 191.134 512.677 192.437C514.413 197.934 516.438 204.589 518.608 212.256C521.357 222.383 523.093 230.196 523.672 232.944C526.565 246.11 529.459 259.419 530.471 276.635C530.761 281.12 530.761 284.737 530.761 287.052C529.169 290.958 527.723 294.864 526.131 298.77" stroke="#BA6DCD" stroke-width="3" stroke-miterlimit="10" stroke-linecap="round"/>
<path d="M640.423 226.288C638.687 223.105 636.083 218.042 633.623 211.676C632.032 207.625 630.441 202.128 627.547 191.277C627.547 191.277 624.654 180.861 620.748 167.985C618.578 161.186 617.131 156.556 613.369 151.638C611.923 149.757 612.067 150.336 606.715 144.838C598.179 136.158 597.022 133.843 592.103 129.937C590.222 128.49 587.473 126.32 583.712 124.295C582.844 121.98 578.07 113.01 575.465 110.262" stroke="#697695" stroke-width="2" stroke-miterlimit="10"/>
<path d="M677.024 226.577C676.445 226.433 674.854 225.709 673.696 223.829C672.973 222.526 672.828 221.224 672.828 220.646C672.684 217.608 671.816 214.57 671.816 211.387C671.816 204.298 669.646 190.7 667.186 181.296C666.173 177.245 661.399 162.343 661.11 160.896C661.11 160.896 660.387 158.872 659.808 156.557C658.65 152.362 649.826 144.984 642.303 137.027C640.856 135.435 637.673 130.95 632.754 126.899C628.559 123.282 623.351 118.653 619.879 114.312" stroke="#697695" stroke-width="2" stroke-miterlimit="10"/>
<g opacity="0.5">
<path d="M498.212 171.746C499.225 172.614 499.514 174.061 499.804 175.363C499.948 176.665 500.093 177.967 500.093 179.269C500.238 181.873 499.948 184.622 499.659 187.226C499.225 189.83 498.646 192.434 497.634 194.893C497.2 196.195 496.331 197.497 495.319 198.221C494.161 199.089 492.859 199.378 491.557 199.667C492.715 199.089 493.872 198.51 494.74 197.642C495.608 196.774 496.187 195.617 496.476 194.459C497.2 192 497.778 189.54 498.068 186.936C498.502 184.332 498.646 181.873 498.791 179.269C498.791 177.967 498.936 176.665 498.936 175.363C499.08 174.061 499.08 172.759 498.212 171.746Z" fill="#B1BBD0"/>
</g>
</svg>
