<svg width="850" height="500" viewBox="0 0 850 500" fill="none" xmlns="http://www.w3.org/2000/svg">
<path opacity="0.33" d="M601.304 176.147C601.872 167.053 601.73 156.54 600.025 145.031C598.889 136.933 597.61 132.102 597.61 132.102C595.763 124.43 594.626 122.298 593.916 116.331C593.347 111.5 593.205 108.233 594.626 104.254C596.331 99.7078 599.457 96.8662 601.304 95.3033C601.588 94.8771 601.872 94.1667 602.583 93.4563C605.85 89.9043 612.67 90.1884 617.217 92.7459C618.922 93.7404 620.058 94.8771 620.911 95.8716C626.878 102.691 629.436 110.648 630.999 116.615C632.277 121.446 632.988 125.14 634.408 132.528C636.255 143.184 637.534 150.288 639.523 162.649C641.37 175.152 642.365 181.404 642.933 187.513C643.786 198.453 643.786 206.41 643.644 210.672C643.502 215.218 643.217 219.055 642.933 222.038C643.217 224.027 643.644 227.011 644.354 230.705C645.207 235.11 650.89 261.679 651.316 276.171C651.316 277.876 655.578 302.597 656.999 316.095C657.425 320.073 659.557 340.249 659.841 360.566C659.841 362.981 659.841 367.528 660.835 373.495C661.546 378.326 662.824 384.151 665.808 392.534C671.207 407.452 678.595 420.808 683 428.196C631.425 428.054 579.992 428.054 528.417 427.912C523.302 421.802 518.329 417.966 515.062 414.982C506.395 407.168 492.329 402.479 474.711 386.566C470.875 383.157 469.738 382.162 464.481 377.9C461.64 375.484 457.377 372.074 451.552 367.67C443.738 361.703 443.311 361.845 441.322 359.713C435.923 354.03 434.076 347.495 433.224 344.795C431.803 340.249 431.519 335.986 431.093 329.735C430.666 325.046 430.951 325.188 430.666 322.204C430.524 321.068 429.814 316.521 426.404 307.712C423.989 301.603 420.437 292.368 419.442 283.843C419.3 282.422 413.333 272.619 415.322 260.542C416.885 251.449 419.158 242.072 421.573 230.563C419.3 220.76 417.169 210.814 414.896 201.011C415.322 200.726 416.032 200.3 416.885 200.016C417.737 199.732 418.448 199.732 418.874 199.874C420.295 199.163 422.426 198.027 425.267 197.601C432.371 196.322 438.054 199.59 439.902 200.726C441.322 201.579 443.311 203 446.579 206.552C448.995 209.251 454.536 215.787 458.798 226.727C461.213 232.836 463.345 238.093 463.629 245.481C463.913 252.728 462.208 258.553 460.929 262.105C461.782 262.673 462.776 263.383 463.629 264.378C466.613 267.646 467.465 271.482 467.607 273.329C467.465 251.733 465.618 235.11 463.913 223.885C463.629 221.896 461.071 205.273 460.219 186.376C460.077 182.824 459.935 177.567 460.361 170.748C461.071 162.223 462.492 155.261 463.771 150.288C463.913 147.731 464.197 145.031 464.339 142.474C465.476 133.381 467.323 125.993 469.17 120.878C470.875 115.621 473.148 110.506 476.842 105.391C480.394 100.418 482.81 99.1395 484.088 98.5711C489.203 96.2979 494.176 97.7187 496.307 98.287C503.553 100.276 507.531 105.533 508.81 107.522C510.373 104.538 512.078 101.413 513.641 98.4291C514.209 96.8662 515.204 94.4508 517.619 92.1776C520.603 89.1939 524.013 88.3414 526.57 87.7731C532.679 86.3523 537.936 87.7731 540.352 88.3414C540.92 88.4835 541.346 88.6256 541.631 88.7676C541.062 86.7785 540.352 83.3686 540.778 79.1062C541.204 74.8438 542.767 71.576 543.762 69.8711C544.046 68.4503 544.756 66.3191 546.603 64.33C550.297 59.9255 555.696 59.4993 557.117 59.3572C564.647 58.7889 569.904 63.4775 571.183 64.472C574.309 67.1715 575.445 69.8711 578.003 75.2701C581.697 83.2265 582.834 90.0464 583.686 94.8771C584.396 98.8553 584.681 102.265 584.965 104.681C585.959 108.375 587.38 114.2 589.227 121.304C593.347 136.933 594.342 140.485 595.763 146.026C597.326 152.703 599.599 163.075 601.304 176.147Z" fill="#E0E1E2"/>
<g opacity="0.5">
<path d="M546.887 72.0027C548.876 74.9864 550.723 78.1122 552.428 81.0958C552.854 81.8062 553.422 82.3745 554.133 82.8008C554.843 83.227 555.554 83.3691 556.406 83.3691C558.111 83.3691 559.816 83.227 561.521 82.9429C563.226 82.6587 564.931 82.2325 566.636 81.8062C568.341 81.2379 570.046 80.9537 570.756 79.5329C571.04 78.8225 571.182 78.1122 571.04 77.1176C571.04 76.2651 570.898 75.4127 570.898 74.4181C570.756 72.7131 570.472 70.8661 570.188 69.1611C570.756 70.8661 571.182 72.5711 571.609 74.276C571.751 75.1285 571.893 75.981 572.035 76.9755C572.177 77.828 572.177 78.8225 571.751 79.8171C571.324 80.8117 570.614 81.5221 569.619 81.9483C568.767 82.3745 567.914 82.6587 567.062 82.9429C565.357 83.5112 563.51 83.9374 561.805 84.2216C559.958 84.5057 558.253 84.6478 556.406 84.5057C555.411 84.5057 554.417 84.2216 553.564 83.6533C552.712 83.0849 552.002 82.3746 551.575 81.5221C549.87 78.5384 548.308 75.2706 546.887 72.0027Z" fill="#AEB0B2"/>
</g>
<path d="M528.417 427.77C523.302 421.661 518.329 417.825 515.062 414.841C506.395 407.027 492.329 402.338 474.711 386.425C470.875 383.015 469.738 382.021 464.481 377.758C461.64 375.343 457.377 371.933 451.552 367.529C443.738 361.561 443.311 361.703 441.322 359.572C435.923 353.889 434.076 347.353 433.224 344.654C431.803 340.107 431.519 335.845 431.093 329.593C430.666 324.905 430.951 325.047 430.666 322.063C430.524 320.926 429.814 316.38 426.404 307.571C423.989 301.462 420.437 292.226 419.442 283.702C419.3 282.281 413.333 272.477 415.322 260.401C416.885 251.307 419.158 241.93 421.573 230.422C419.3 220.618 417.169 210.673 414.896 200.869C415.322 200.585 416.032 200.159 416.885 199.875C417.737 199.59 418.448 199.591 418.874 199.733C420.295 199.022 422.426 197.886 425.267 197.459C432.371 196.181 438.054 199.448 439.902 200.585C441.322 201.438 443.311 202.858 446.579 206.41C448.995 209.11 454.536 215.645 458.798 226.586C461.213 232.695 463.345 237.952 463.629 245.34C463.913 252.586 462.208 258.411 460.929 261.963C461.782 262.532 462.776 263.242 463.629 264.237C466.613 267.505 467.465 271.341 467.607 273.188C467.465 251.592 465.618 234.968 463.913 223.744C463.629 221.755 461.071 205.132 460.219 186.235C460.077 182.683 459.935 177.426 460.361 170.606C461.071 162.081 462.492 155.12 463.771 150.147C463.913 147.589 464.197 144.89 464.339 142.332C465.476 133.239 467.323 125.851 469.17 120.736C470.875 115.479 473.148 110.365 476.842 105.25C480.394 100.277 482.81 98.9982 484.088 98.4298C489.203 96.1566 494.176 97.5774 496.307 98.1457C503.553 100.135 507.531 105.392 508.81 107.381C510.373 104.397 512.078 101.271 513.641 98.2877C514.209 96.7249 515.204 94.3095 517.619 92.0363C520.603 89.0526 524.013 88.2001 526.57 87.6318C532.679 86.211 537.936 87.6318 540.352 88.2001C540.92 88.3422 541.346 88.4843 541.631 88.6263" stroke="#808285" stroke-width="2" stroke-miterlimit="10"/>
<path d="M601.303 176.146C601.872 167.053 601.73 156.539 600.025 145.031C598.888 136.932 597.609 132.101 597.609 132.101C595.762 124.429 594.626 122.298 593.915 116.33C593.347 111.5 593.205 108.232 594.626 104.254C596.331 99.7072 599.456 96.8656 601.303 95.3027C601.587 94.8765 601.872 94.1661 602.582 93.4557C605.85 89.9037 612.67 90.1878 617.216 92.7453C618.921 93.7398 620.058 94.8765 620.91 95.871C626.878 102.691 629.435 110.647 630.998 116.615C632.277 121.445 632.987 125.139 634.408 132.528C636.255 143.184 637.534 150.288 639.523 162.648C641.37 175.151 642.364 181.403 642.933 187.512C643.785 198.452 643.785 206.409 643.643 210.671C643.501 215.218 643.217 219.054 642.933 222.038C643.217 224.027 643.643 227.01 644.353 230.705C645.206 235.109 650.889 261.678 651.315 276.17C651.315 277.875 655.578 302.597 656.999 316.094C657.425 320.073 659.556 340.248 659.84 360.565C659.84 362.981 659.84 367.527 660.835 373.495C661.545 378.325 662.824 384.151 665.807 392.533C671.206 407.452 678.595 420.807 682.999 428.195" stroke="#808285" stroke-width="2" stroke-miterlimit="10"/>
<path d="M513.924 242.924C514.208 238.378 514.35 232.126 513.924 224.454C513.782 222.607 513.498 217.066 511.793 205.415C510.088 193.054 509.378 191.918 507.531 179.415C505.684 167.48 504.831 161.513 504.831 154.977C504.831 147.305 505.684 144.889 506.962 132.386C507.673 125.566 508.241 116.189 508.525 106.386" stroke="#808285" stroke-width="2" stroke-miterlimit="10"/>
<path d="M608.408 229.71C607.698 227.863 606.845 225.448 605.993 222.749C605.709 221.896 605.283 220.333 604.998 218.344C604.146 214.224 604.004 211.098 603.862 209.109C603.293 200.868 602.299 188.934 601.162 176.289C599.457 163.217 597.184 152.845 595.479 145.741C594.058 140.2 593.064 136.648 588.943 121.02C587.096 113.916 585.533 108.232 584.681 104.396C584.539 101.981 584.113 98.7131 583.402 94.5928C582.55 89.7621 581.271 82.9423 577.719 74.9858C575.304 69.5868 574.025 66.8873 570.899 64.1878C569.621 63.0511 564.364 58.3625 556.833 59.0729C555.413 59.215 550.014 59.6412 546.32 64.0457C544.615 66.0348 543.904 68.3081 543.478 69.5868C542.483 71.4338 540.921 74.5596 540.494 78.8219C540.068 83.0843 540.778 86.4942 541.347 88.4834L541.631 89.3358C545.183 98.1448 546.604 104.254 547.456 109.511C548.309 114.484 548.024 115.763 549.161 123.293C550.014 129.118 556.265 161.654 556.691 163.786C557.97 172.168 558.112 177.141 559.391 187.655C560.812 199.448 561.948 209.109 562.801 215.36" stroke="#2969D0" stroke-width="3" stroke-miterlimit="10" stroke-linecap="round"/>
<g opacity="0.5">
<path d="M425.125 228.574C426.12 227.011 426.688 225.164 426.688 223.317C426.688 222.464 426.546 221.47 426.404 220.617L425.978 217.776C425.409 214.082 424.983 210.246 424.557 206.551L424.699 206.694C423.704 204.989 422.284 203.568 420.437 202.573C422.426 203.142 424.273 204.42 425.551 206.125V206.267C426.404 209.961 426.972 213.798 427.398 217.492C427.54 219.339 427.825 221.186 427.683 223.317C427.398 225.306 426.404 227.153 425.125 228.574Z" fill="#AEB0B2"/>
</g>
<path opacity="0.33" d="M315.156 428.906C317.003 426.632 324.96 418.392 333.627 409.725C342.294 401.058 360.053 370.511 365.31 364.402C370.567 358.292 384.491 343.232 387.901 335.702C391.311 328.171 387.617 304.018 387.901 296.488C388.185 288.957 391.737 253.011 389.322 243.634C386.907 234.257 383.07 230.421 379.945 223.885C376.819 217.349 376.251 215.36 373.409 213.371C370.567 211.382 372.272 194.332 372.841 191.917C373.409 189.502 375.398 178.561 375.398 174.725C375.398 170.889 375.398 159.949 378.382 151.851C381.365 143.752 379.376 119.456 374.261 111.784C369.147 104.112 365.026 102.265 358.917 101.839C352.807 101.412 346.13 107.38 344.425 111.074C342.72 114.768 340.447 118.178 337.889 148.299C334.337 156.397 327.517 163.501 324.534 173.305C321.55 183.108 313.593 207.83 311.746 218.06C309.899 228.289 299.386 242.213 303.648 234.683C307.91 227.295 307.484 209.109 315.441 184.955C323.397 160.802 322.402 162.364 322.402 161.086C322.402 159.807 327.091 155.403 328.654 144.889C331.638 140.058 337.463 116.046 326.665 109.085C326.523 104.112 323.255 100.702 314.304 99.2811C305.353 97.8603 302.085 100.134 300.096 105.675C296.828 106.527 291.855 118.604 291.003 128.549C288.587 129.97 276.937 141.763 274.664 146.167C272.39 150.572 265.997 172.736 264.718 178.419C263.439 184.103 255.199 219.623 252.925 222.89C250.652 226.158 249.658 228.431 251.505 221.47C253.352 214.508 261.876 172.594 265.571 165.064C269.265 157.534 269.691 151.282 279.921 136.648C290.15 122.014 288.73 114.91 286.883 110.221C285.035 105.533 283.615 101.554 274.948 100.134C266.281 98.7128 261.308 105.959 261.308 105.959C261.308 105.959 256.051 107.522 243.406 121.161C240.707 115.904 237.013 111.926 237.013 111.926C237.013 111.926 234.313 106.243 226.641 105.106C218.968 103.97 215.843 112.21 215.416 115.194C212.859 115.194 207.602 126.987 205.755 138.779C203.908 150.714 200.924 167.763 197.799 177.851C194.673 187.939 192.684 196.321 191.973 203.71C191.263 211.098 187.285 221.47 186.574 231.131C185.864 240.792 174.64 268.498 174.071 277.307C173.361 286.116 173.787 316.237 172.935 323.199C172.082 330.16 170.803 353.604 172.935 367.101C175.066 380.457 174.071 392.817 171.798 399.495C169.525 406.173 161 428.337 161 428.337H315.156V428.906Z" fill="#E0E1E2"/>
<path d="M315.156 428.906C317.003 426.632 324.96 418.392 333.627 409.725C342.294 401.058 360.053 370.511 365.31 364.402C370.567 358.292 384.491 343.232 387.901 335.702C391.311 328.171 387.617 304.018 387.901 296.488C388.185 288.957 391.737 253.011 389.322 243.634C386.907 234.257 383.07 230.421 379.945 223.885C376.819 217.349 376.251 215.36 373.409 213.371C370.567 211.382 372.272 194.332 372.841 191.917C373.409 189.502 375.398 178.561 375.398 174.725C375.398 170.889 375.398 159.949 378.382 151.851C381.365 143.752 379.376 119.456 374.261 111.784C369.147 104.112 365.026 102.265 358.917 101.839C352.807 101.412 346.13 107.38 344.425 111.074C342.72 114.768 340.447 118.178 337.889 148.299C334.337 156.397 327.517 163.501 324.534 173.305C321.55 183.108 313.593 207.83 311.746 218.06C309.899 228.289 299.386 242.213 303.648 234.683C307.91 227.295 307.484 209.109 315.441 184.955C323.397 160.802 322.402 162.364 322.402 161.086C322.402 159.807 327.091 155.403 328.654 144.889C331.638 140.058 337.463 116.046 326.665 109.085C326.523 104.112 323.255 100.702 314.304 99.2811C305.353 97.8603 302.085 100.134 300.096 105.675C296.828 106.527 291.855 118.604 291.003 128.549C288.587 129.97 276.937 141.763 274.664 146.167C272.39 150.572 265.997 172.736 264.718 178.419C263.439 184.103 255.199 219.623 252.925 222.89C250.652 226.158 249.658 228.431 251.505 221.47C253.352 214.508 261.876 172.594 265.571 165.064C269.265 157.534 269.691 151.282 279.921 136.648C290.15 122.014 288.73 114.91 286.883 110.221C285.035 105.533 283.615 101.554 274.948 100.134C266.281 98.7128 261.308 105.959 261.308 105.959C261.308 105.959 256.051 107.522 243.406 121.161C240.707 115.904 237.013 111.926 237.013 111.926C237.013 111.926 234.313 106.243 226.641 105.106C218.968 103.97 215.843 112.21 215.416 115.194C212.859 115.194 207.602 126.987 205.755 138.779C203.908 150.714 200.924 167.763 197.799 177.851C194.673 187.939 192.684 196.321 191.973 203.71C191.263 211.098 187.285 221.47 186.574 231.131C185.864 240.792 174.64 268.498 174.071 277.307C173.361 286.116 173.787 316.237 172.935 323.199C172.082 330.16 170.803 353.604 172.935 367.101C175.066 380.457 174.071 392.817 171.798 399.495C169.525 406.173 161 428.337 161 428.337" stroke="#808285" stroke-width="2" stroke-miterlimit="10"/>
<path d="M202.203 227.438C206.181 223.175 209.449 216.64 209.733 209.82C210.017 203 209.307 167.622 218.258 154.125C227.209 140.627 243.548 121.73 243.548 121.73" stroke="#808285" stroke-width="2" stroke-miterlimit="10"/>
<path d="M360.906 310.27C358.917 306.575 356.502 304.16 356.502 301.319C356.502 298.477 358.065 265.941 359.77 254.29C361.333 242.64 369.289 208.967 371.989 202.005" stroke="#808285" stroke-width="2" stroke-miterlimit="10"/>
</svg>
