<svg width="900" height="500" viewBox="0 0 900 500" fill="none" xmlns="http://www.w3.org/2000/svg">
<path opacity="0.33" d="M512.283 419.258C501.388 408.582 492.069 399.592 484.471 392.287C473.432 381.611 467.841 376.273 466.407 375.009C458.952 368.828 453.934 366.018 448.343 358.573C446.336 356.045 443.469 352.252 441.462 346.493C439.598 341.435 439.311 337.783 438.594 328.793C437.734 318.819 437.304 313.762 436.874 309.267C435.584 297.046 434.724 290.162 432.143 281.172C430.853 276.958 429.849 274.289 428.989 269.091C428.272 264.877 427.412 259.82 428.559 253.779C429.132 250.83 429.706 249.987 431.283 244.649C433.003 238.889 434.15 234.113 434.867 231.023C434.007 228.494 433.003 224.982 432 220.628C431.139 217.256 430.566 214.868 430.136 211.778C429.706 208.687 429.276 204.192 429.419 198.714C430.566 198.433 431.569 198.011 432.716 197.73C433.863 197.309 435.727 196.606 438.021 196.185C439.885 195.904 446.193 194.78 451.354 198.011C452.501 198.714 452.787 199.275 455.511 202.366C462.679 210.654 462.536 209.811 464.113 212.059C468.988 218.661 470.564 225.263 471.425 229.056C472.715 234.535 472.715 238.889 472.858 243.806C472.858 248.582 472.572 252.515 472.285 255.465C471.855 256.449 471.425 257.572 470.851 258.556C471.281 259.398 471.711 260.241 472.141 261.084C473.002 262.208 473.862 263.472 474.722 264.877C477.589 269.794 478.163 274.57 478.306 277.66C478.306 281.593 479.166 284.262 479.883 285.948C480.457 287.212 481.03 288.055 484.614 293.253C486.048 295.219 487.195 296.905 488.055 298.169C488.485 295.641 489.058 291.848 489.489 287.353C489.919 282.717 490.062 277.098 489.202 263.472C488.772 256.589 488.485 250.97 487.625 242.682C485.904 226.668 484.471 221.189 483.037 210.654C481.03 194.921 480.17 185.649 481.604 173.99C481.89 171.181 482.607 167.107 483.181 160.224C483.897 151.795 483.754 149.407 484.327 142.524C485.188 130.864 485.618 124.965 487.912 118.081C490.205 110.777 492.643 103.332 499.667 100.101C504.112 97.9935 508.556 98.4149 509.273 98.5554C514.864 99.2578 518.448 102.489 519.452 103.472C522.606 106.422 523.896 109.653 524.613 111.9C526.046 115.974 526.476 119.767 526.046 127.353C525.473 136.343 524.613 137.888 524.039 144.771C523.179 154.324 524.039 161.769 524.613 166.124C525.616 174.131 526.476 174.692 529.057 187.757C530.204 193.656 530.921 198.573 532.354 208.406C533.358 215.43 534.648 224.561 535.938 235.518C537.515 235.518 539.092 235.377 540.669 235.377C539.809 229.899 538.519 222.173 537.085 212.621C534.792 197.59 533.645 190.004 533.071 180.592C532.211 167.809 531.781 159.943 533.645 151.795C534.075 150.109 534.935 146.457 535.508 141.26C536.225 135.36 535.652 134.798 536.225 129.179C537.085 120.048 539.379 114.289 539.953 112.743C541.53 108.81 542.533 106.281 545.114 103.753C546.404 102.348 549.988 98.9768 555.723 98.134C561.314 97.4316 565.615 99.6792 566.905 100.522C571.493 103.051 573.643 106.843 574.36 108.248C575.937 111.058 576.224 113.446 576.797 116.817C577.514 121.874 577.371 125.807 577.227 127.212C576.941 133.814 577.371 140.417 577.371 146.879C577.227 159.24 578.804 170.338 580.955 185.93C582.245 195.764 584.252 207.704 587.263 221.189C589.7 222.032 592.28 222.875 594.718 223.718C596.295 219.785 598.302 213.885 599.449 206.58C600.452 199.697 600.309 194.499 599.879 185.649C599.305 173.288 597.872 164.016 597.442 161.769C595.865 151.936 594.718 145.333 591.85 136.624C590.56 132.691 588.696 127.774 587.836 120.61C587.263 115.272 587.549 111.76 588.84 108.529C589.7 106.281 590.99 102.91 594.431 100.803C600.596 97.1506 608.337 101.084 609.054 101.505C612.208 103.191 613.785 105.439 617.082 109.793C620.953 114.991 623.247 119.627 623.964 121.172C625.828 124.965 626.401 126.931 630.989 142.243C634.573 154.043 636.437 159.943 637.01 161.347C637.727 162.893 639.017 165.843 640.021 170.057C641.024 174.131 641.168 177.221 641.168 179.047C641.598 191.83 641.741 198.292 641.598 202.787C641.311 211.216 640.594 222.594 638.874 236.642C639.734 236.782 640.881 237.063 642.314 237.063C643.748 237.063 645.468 236.923 647.189 236.22C649.483 235.377 651.06 234.113 653.353 231.865C658.371 226.949 661.238 222.173 661.525 221.751C663.962 217.818 667.977 212.34 674.285 205.878C676.292 201.523 678.586 196.887 681.166 192.111C684.033 186.773 687.044 181.857 689.911 177.361C689.911 175.957 689.911 173.85 690.055 171.181C690.341 163.174 690.341 159.24 690.915 156.431C691.632 153.2 693.065 145.895 699.23 140.979C701.094 139.433 706.398 135.079 713.566 136.062C719.874 136.905 723.602 141.4 724.462 142.664C724.605 146.457 724.605 150.39 724.749 154.324C724.892 161.066 724.892 167.809 724.749 174.412C724.462 176.238 724.175 178.064 723.889 179.89C720.878 193.516 713.423 215.149 708.405 226.949C705.538 233.692 700.664 244.227 694.929 253.499C693.209 256.168 691.918 258.275 691.918 258.275C686.614 266.141 684.32 268.108 681.309 273.024C678.299 277.941 676.722 282.296 676.148 284.122C672.994 293.815 675.432 296.624 671.991 305.334C671.417 306.879 670.27 309.407 669.554 313.2C668.98 316.431 668.98 318.819 668.98 320.364C668.98 331.181 669.697 336.659 669.697 344.807C669.697 346.633 669.554 349.162 669.267 354.219C668.693 363.63 668.407 368.407 667.69 373.885C666.543 382.454 665.683 382.173 665.109 388.775C664.679 393.411 664.249 398.047 665.396 403.947C666.113 407.599 667.546 413.218 671.704 419.68C618.229 419.399 565.328 419.258 512.283 419.258Z" fill="#445272"/>
<path d="M512.283 419.258C501.388 408.582 492.069 399.592 484.471 392.287C473.432 381.611 467.841 376.273 466.407 375.009C458.952 368.828 453.934 366.018 448.343 358.573C446.336 356.045 443.469 352.252 441.462 346.493C439.598 341.435 439.311 337.783 438.594 328.793C437.734 318.819 437.304 313.762 436.874 309.267C435.584 297.046 434.724 290.162 432.143 281.172C430.853 276.958 429.849 274.289 428.989 269.091C428.272 264.877 427.412 259.82 428.559 253.779C429.132 250.83 429.706 249.987 431.283 244.649C433.003 238.889 434.15 234.113 434.867 231.023C434.007 228.494 433.003 224.982 432 220.628C431.139 217.256 430.566 214.868 430.136 211.778C429.706 208.687 429.276 204.192 429.419 198.714C430.566 198.433 431.569 198.011 432.716 197.73C433.863 197.309 435.727 196.606 438.021 196.185C439.885 195.904 446.193 194.78 451.354 198.011C452.501 198.714 452.787 199.275 455.511 202.366C462.679 210.654 462.536 209.811 464.113 212.059C468.988 218.661 470.564 225.263 471.425 229.056C472.715 234.535 472.715 238.889 472.858 243.806C472.858 248.582 472.572 252.515 472.285 255.465C471.855 256.449 471.425 257.572 470.851 258.556C471.281 259.398 471.711 260.241 472.141 261.084C473.002 262.208 473.862 263.472 474.722 264.877C477.589 269.794 478.163 274.57 478.306 277.66C478.306 281.593 479.166 284.262 479.883 285.948C480.457 287.212 481.03 288.055 484.614 293.253C486.048 295.219 487.195 296.905 488.055 298.169C488.485 295.641 489.058 291.848 489.489 287.353C489.919 282.717 490.062 277.098 489.202 263.472C488.772 256.589 488.485 250.97 487.625 242.682C485.904 226.668 484.471 221.189 483.037 210.654C481.03 194.921 480.17 185.649 481.604 173.99C481.89 171.181 482.607 167.107 483.181 160.224C483.897 151.795 483.754 149.407 484.327 142.524C485.188 130.864 485.618 124.965 487.912 118.081C490.205 110.777 492.643 103.332 499.667 100.101C504.112 97.9935 508.556 98.4149 509.273 98.5554C514.864 99.2578 518.448 102.489 519.452 103.472C522.606 106.422 523.896 109.653 524.613 111.9C526.046 115.974 526.476 119.767 526.046 127.353C525.473 136.343 524.613 137.888 524.039 144.771C523.179 154.324 524.039 161.769 524.613 166.124C525.616 174.131 526.476 174.692 529.057 187.757C530.204 193.656 530.921 198.573 532.354 208.406C533.358 215.43 534.648 224.561 535.938 235.518C537.515 235.518 539.092 235.377 540.669 235.377C539.809 229.899 538.519 222.173 537.085 212.621C534.792 197.59 533.645 190.004 533.071 180.592C532.211 167.809 531.781 159.943 533.645 151.795C534.075 150.109 534.935 146.457 535.508 141.26C536.225 135.36 535.652 134.798 536.225 129.179C537.085 120.048 539.379 114.289 539.953 112.743C541.53 108.81 542.533 106.281 545.114 103.753C546.404 102.348 549.988 98.9768 555.723 98.134C561.314 97.4316 565.615 99.6792 566.905 100.522C571.493 103.051 573.643 106.843 574.36 108.248C575.937 111.058 576.224 113.446 576.797 116.817C577.514 121.874 577.371 125.807 577.227 127.212C576.941 133.814 577.371 140.417 577.371 146.879C577.227 159.24 578.804 170.338 580.955 185.93C582.245 195.764 584.252 207.704 587.263 221.189C589.7 222.032 592.28 222.875 594.718 223.718C596.295 219.785 598.302 213.885 599.449 206.58C600.452 199.697 600.309 194.499 599.879 185.649C599.305 173.288 597.872 164.016 597.442 161.769C595.865 151.936 594.718 145.333 591.85 136.624C590.56 132.691 588.696 127.774 587.836 120.61C587.263 115.272 587.549 111.76 588.84 108.529C589.7 106.281 590.99 102.91 594.431 100.803C600.596 97.1506 608.337 101.084 609.054 101.505C612.208 103.191 613.785 105.439 617.082 109.793C620.953 114.991 623.247 119.627 623.964 121.172C625.828 124.965 626.401 126.931 630.989 142.243C634.573 154.043 636.436 159.943 637.01 161.347C637.727 162.893 639.017 165.843 640.021 170.057C641.024 174.131 641.168 177.221 641.168 179.047C641.598 191.83 641.741 198.292 641.598 202.787C641.311 211.216 640.594 222.594 638.874 236.642C639.734 236.782 640.881 237.063 642.314 237.063" stroke="#697695" stroke-width="2" stroke-miterlimit="10"/>
<path d="M681.167 272.744C678.156 277.661 676.579 282.015 676.006 283.842C672.852 293.534 675.289 296.344 671.848 305.053C671.275 306.598 670.128 309.127 669.411 312.92C668.838 316.151 668.838 318.539 668.838 320.084C668.838 330.901 669.554 336.379 669.554 344.527C669.554 346.353 669.411 348.881 669.124 353.938C668.551 363.35 668.264 368.126 667.547 373.605C666.4 382.174 665.54 381.893 664.967 388.495C664.537 393.131 664.107 397.766 665.254 403.666C665.97 407.319 667.404 412.937 671.562 419.399" stroke="#697695" stroke-width="2" stroke-miterlimit="10"/>
<path d="M642.458 236.783C643.892 236.783 645.612 236.642 647.332 235.94C649.626 235.097 651.203 233.833 653.497 231.585C658.515 226.669 661.382 221.892 661.669 221.471C664.106 217.538 668.12 212.059 674.428 205.597C676.435 201.243 678.729 196.607 681.31 191.831C684.177 186.493 687.188 181.576 690.055 177.081C690.055 175.676 690.055 173.569 690.198 170.9C690.485 162.893 690.485 158.96 691.058 156.15C691.775 152.92 693.209 145.615 699.373 140.698C701.237 139.153 706.542 134.798 713.71 135.782C720.018 136.625 723.745 141.12 724.606 142.384C724.749 146.177 724.749 150.11 724.892 154.043C725.036 160.786 725.036 167.529 724.892 174.131C724.606 175.957 724.319 177.783 724.032 179.61C721.021 193.236 713.567 214.869 708.549 226.669C705.681 233.411 700.807 243.947 695.073 253.218C693.352 255.887 692.062 257.994 692.062 257.994C686.757 265.861 684.464 267.828 681.453 272.744" stroke="#BA6DCD" stroke-width="3" stroke-miterlimit="10" stroke-linecap="round"/>
<g opacity="0.5">
<path d="M708.119 141.119C708.119 143.507 708.119 146.036 708.119 148.424C708.262 150.812 708.405 153.2 708.835 155.588C708.979 156.15 709.122 156.712 709.266 157.274C709.409 157.836 709.552 158.257 709.982 158.678C710.699 159.521 711.703 160.083 712.706 160.645C714.857 161.769 717.151 162.471 719.588 162.752C717.151 163.033 714.57 162.612 712.133 161.628C710.986 161.207 709.839 160.505 708.835 159.521C708.405 159.1 707.975 158.257 707.832 157.695C707.689 157.133 707.545 156.431 707.402 155.869C706.972 153.481 706.828 150.952 706.972 148.564C707.115 145.895 707.545 143.367 708.119 141.119Z" fill="#B1BBD0"/>
</g>
<g opacity="0.5">
<path d="M439.024 228.214C440.027 227.371 440.601 226.388 440.887 225.264C441.174 224.14 441.174 223.016 441.174 221.893C441.174 220.769 441.031 219.505 440.887 218.381L440.6 214.869C440.457 212.481 440.314 210.093 439.74 207.845C439.454 206.721 439.167 205.598 438.593 204.474C438.163 203.491 437.447 202.507 436.156 201.945C437.447 202.086 438.45 203.069 439.167 204.052C439.884 205.176 440.314 206.3 440.744 207.424C441.461 209.812 441.747 212.2 441.891 214.588C442.034 216.976 442.321 219.364 442.178 221.893C442.178 223.157 441.891 224.421 441.461 225.545C441.031 226.669 440.17 227.652 439.024 228.214Z" fill="#B1BBD0"/>
</g>
<path opacity="0.33" d="M410.83 169.646C411.553 167.042 421.534 141.44 419.798 136.377C418.062 131.315 398.39 125.818 381.9 147.226C365.266 168.634 362.373 179.916 363.53 193.368C361.505 196.261 359.191 217.958 355.43 226.927C352.248 228.807 346.751 238.498 346.028 238.354C345.16 238.209 335.758 231.121 324.909 232.423C324.909 227.36 324.62 212.751 330.55 197.852C336.481 182.954 350.801 160.533 356.298 153.012C361.65 145.49 360.348 143.899 361.071 142.452C361.794 141.006 376.404 130.302 375.102 107.592C373.945 84.8828 353.694 88.6436 351.958 89.3668C350.367 90.0901 342.556 95.7313 335.179 108.026C329.827 105.857 319.991 109.617 307.985 126.686C296.124 143.754 280.936 170.948 280.069 171.671C279.056 172.394 270.956 172.539 269.509 168.923C268.063 165.451 268.352 157.64 272.258 145.49C278.333 134.931 284.697 119.743 286.144 113.668C289.76 112.944 301.621 107.303 304.514 104.121C308.275 104.555 322.739 101.807 329.249 90.3794C335.758 78.9522 326.5 73.7449 325.777 73.1663C324.909 72.5877 306.105 68.5376 301.91 67.8144C297.715 66.9465 290.483 67.2358 286.433 69.1162C281.949 69.1162 276.308 68.1037 265.459 73.311C261.843 75.0468 257.937 76.2039 254.177 77.2165C255.912 73.0217 272.547 40.7653 266.761 28.181C260.83 15.5967 252.585 13.1377 246.51 16.1753C242.894 17.911 237.542 23.1183 234.505 34.2562C229.442 39.0295 226.115 44.3815 224.09 48.7209C222.065 53.0603 219.172 63.3303 217.725 65.3554C216.279 67.3804 211.072 73.4556 208.757 78.5183C206.588 83.7256 204.563 92.1151 202.827 94.8634C198.777 94.4295 173.897 94.4295 167.967 96.3099C162.036 98.335 149.452 110.485 147.138 113.812C144.679 117.284 138.893 125.095 133.685 128.856C128.478 132.616 126.742 136.667 126.598 140.283C126.308 143.899 129.491 150.842 129.635 153.156C129.78 155.471 129.491 169.935 132.528 178.759C135.566 187.582 139.037 188.595 140.628 195.683C142.22 202.626 144.1 220.417 145.836 229.675C147.571 238.932 151.622 249.347 153.502 258.315C155.382 267.283 156.829 282.182 157.986 287.678C159.143 293.03 163.917 313.57 162.759 322.828C161.602 332.085 162.759 335.991 152.634 357.832C142.509 379.674 138.603 391.825 134.119 399.346C129.635 406.723 115.46 426.106 113.29 428.42H260.686C260.686 428.42 279.201 401.227 286.433 389.944C293.665 378.517 304.08 360.581 323.607 345.537C343.135 330.494 382.913 300.841 390.434 293.898C397.956 286.955 397.956 281.603 401.572 257.881C405.189 234.159 409.673 215.933 408.515 214.776C409.962 213.619 412.132 199.733 410.974 199.154C412.132 198.576 410.107 172.25 410.83 169.646ZM177.369 162.992C177.369 162.992 176.356 163.86 175.344 162.992C174.476 162.124 177.803 147.081 171.872 139.993C176.067 136.811 181.998 128.422 181.419 124.516C183.299 125.384 187.35 125.239 187.35 125.239C186.337 129.145 179.539 147.804 177.369 162.992Z" fill="#445272"/>
<path d="M255.043 75.0468C256.778 70.852 272.4 40.91 266.47 28.181C260.539 15.5967 252.294 13.1377 246.219 16.1753C242.603 17.911 237.396 23.1183 234.213 34.2562C229.151 39.0296 225.824 44.3815 223.799 48.7209C221.774 53.0603 218.881 63.3303 217.434 65.3554C216.132 67.3804 210.78 73.4556 208.466 78.5183C206.296 83.7256 202.535 91.6812 200.8 94.2849C197.907 98.7689 196.026 101.517 192.555 109.617C188.939 117.718 188.071 124.227 186.769 128.132C185.467 132.038 179.392 147.66 177.222 162.848C177.222 162.848 176.21 163.716 175.197 162.848C174.329 161.98 177.656 146.937 171.726 139.849C175.92 136.667 180.983 129.29 181.272 124.372C183.297 125.239 185.756 125.384 185.756 125.384" stroke="#697695" stroke-width="2" stroke-miterlimit="10"/>
<path d="M200.946 94.4302C196.895 93.9963 173.752 94.4303 167.677 96.4553C161.746 98.4804 149.307 110.631 146.847 114.102C144.388 117.574 138.603 125.385 133.395 129.146C128.188 132.906 126.597 136.957 126.308 140.573C126.018 144.189 129.201 151.132 129.345 153.446C129.49 155.761 129.201 170.225 132.238 179.049C135.276 187.872 138.747 188.885 140.338 195.973C141.929 203.06 143.81 220.707 145.546 229.965C147.281 239.222 151.332 249.637 153.212 258.605C155.092 267.573 156.539 282.472 157.696 287.969C158.853 293.465 163.627 313.86 162.469 323.118C161.312 332.375 162.469 336.136 152.344 358.123C142.219 379.964 138.313 392.115 133.829 399.636C129.345 407.013 115.17 426.396 113 428.71" stroke="#697695" stroke-width="2" stroke-miterlimit="10"/>
<path d="M255.045 75.0468C256.781 70.852 272.403 40.91 266.472 28.181C260.542 15.5967 252.297 13.1377 246.221 16.1753C242.605 17.911 237.398 23.1183 234.216 34.2562C229.153 39.0296 225.826 44.3815 223.801 48.7209C221.776 53.0603 218.883 63.3303 217.437 65.3554C216.135 67.3804 210.783 73.4556 208.468 78.5183C206.299 83.7256 202.538 91.6812 200.802 94.2849C197.909 98.7689 196.029 101.517 192.557 109.617C188.941 117.718 188.073 124.227 186.771 128.132C185.47 132.038 179.394 147.66 177.225 162.848" stroke="#BA6DCD" stroke-width="3" stroke-miterlimit="10" stroke-linecap="round"/>
<path d="M260.106 428.566C260.106 428.566 278.766 401.372 285.853 390.09C292.941 378.807 303.5 360.726 323.028 345.683C342.555 330.639 382.333 300.987 389.855 294.044C397.377 287.101 397.377 281.749 400.993 258.026C404.609 234.304 409.093 216.079 407.936 214.922C409.382 213.764 411.552 199.878 410.395 199.3C411.986 198.721 410.105 172.251 410.684 169.647C411.263 167.043 421.388 141.441 419.652 136.378C417.916 131.315 398.244 125.819 381.755 147.227C365.265 168.634 362.372 179.917 363.529 193.514C361.504 196.407 359.19 218.104 355.429 227.072C352.247 228.952 346.75 238.644 346.027 238.499C345.159 238.354 335.757 231.267 324.908 232.569C324.908 227.506 324.619 212.896 330.549 197.998C336.48 183.099 350.8 160.679 356.152 153.157C361.504 145.635 360.202 144.044 360.925 142.598C361.649 141.151 376.258 130.447 374.956 107.738C373.799 85.0281 353.404 88.789 351.813 89.5122C350.221 90.2354 342.41 95.8767 335.033 108.172C329.682 106.002 319.701 109.763 307.84 126.831C295.979 143.9 280.791 171.093 279.923 171.817C278.91 172.54 270.81 172.684 269.364 169.068C267.917 165.597 268.351 157.786 272.112 145.491C278.187 134.931 284.552 119.888 285.998 113.668C289.614 112.945 301.475 107.304 304.368 104.122C308.129 104.556 322.594 101.807 329.103 90.3801C335.612 78.9529 326.355 73.7456 325.631 73.167C324.764 72.5884 305.959 68.5383 301.765 67.8151C297.57 66.9472 290.337 67.2365 286.432 69.1169C281.948 69.1169 276.307 68.1044 265.458 73.3117C254.61 78.519 241.591 78.3743 233.925 86.1853C226.403 93.8516 218.014 133.051 216.567 140.139C215.265 147.227 212.662 175.867 200.945 185.269" stroke="#697695" stroke-width="2" stroke-miterlimit="10"/>
<g opacity="0.5">
<path d="M416.18 138.111C412.564 138.545 409.092 139.847 406.633 142.306C404.03 144.62 402.439 147.802 401.426 151.274C400.414 154.601 400.124 158.217 401.137 161.544C402.149 164.871 404.464 167.764 406.923 170.367C405.476 169.355 404.174 168.053 402.873 166.607C401.715 165.16 400.703 163.569 399.98 161.833C398.678 158.362 398.822 154.312 399.98 150.84C400.992 147.368 402.873 143.752 405.765 141.438C407.212 140.281 408.948 139.413 410.683 138.834C412.564 138.256 414.3 137.966 416.18 138.111Z" fill="#B1BBD0"/>
</g>
<path d="M181.562 124.517C181.707 120.901 181.851 115.549 179.537 110.197Z" fill="#445272"/>
<path d="M181.562 124.517C181.707 120.901 181.851 115.549 179.537 110.197" stroke="#697695" stroke-width="2" stroke-miterlimit="10"/>
<path d="M172.016 139.993C169.991 137.1 165.796 134.352 165.796 134.352Z" fill="#445272"/>
<path d="M172.016 139.993C169.991 137.1 165.796 134.352 165.796 134.352" stroke="#697695" stroke-width="2" stroke-miterlimit="10"/>
<path d="M286.144 113.813C286.722 108.606 286.144 103.109 286.144 103.109Z" fill="#445272"/>
<path d="M286.144 113.813C286.722 108.606 286.144 103.109 286.144 103.109" stroke="#697695" stroke-width="2" stroke-miterlimit="10"/>
<path d="M335.468 108.461C340.386 108.75 350.222 110.775 355.718 113.958Z" fill="#445272"/>
<path d="M335.468 108.461C340.386 108.75 350.222 110.775 355.718 113.958" stroke="#697695" stroke-width="2" stroke-miterlimit="10"/>
<path d="M304.514 104.266C306.973 101.952 311.312 95.009 311.601 93.5625Z" fill="#445272"/>
<path d="M304.514 104.266C306.973 101.952 311.312 95.009 311.601 93.5625" stroke="#697695" stroke-width="2" stroke-miterlimit="10"/>
<g opacity="0.5">
<path d="M260.251 26.0117C259.528 28.3261 258.515 30.6404 256.924 32.6655C255.478 34.6906 253.453 36.571 251.138 37.5835C250.56 37.8728 249.981 38.1621 249.258 38.3067C248.679 38.596 247.956 38.596 247.377 38.7407C246.799 38.8853 246.076 38.7407 245.497 38.8853C244.918 38.8853 244.195 38.8853 243.617 38.7407C242.315 38.596 241.158 38.4514 239.856 38.0175C239.277 37.8728 238.699 37.5835 238.12 37.1496C237.541 36.8603 236.963 36.2817 237.107 35.5584C237.107 36.137 237.831 36.571 238.265 36.7156C238.843 37.0049 239.422 37.1496 240 37.1496C241.158 37.2942 242.459 37.4389 243.617 37.4389C246.076 37.4389 248.39 37.1496 250.415 36.137C252.585 35.1245 254.32 33.5334 255.912 31.7976C257.647 30.2065 259.094 28.1814 260.251 26.0117Z" fill="#B1BBD0"/>
</g>
</svg>
