<svg width="900" height="500" viewBox="0 0 900 500" fill="none" xmlns="http://www.w3.org/2000/svg">
<path opacity="0.33" d="M694.391 428.438C687.6 414.134 682.831 400.841 680.953 371.365C679.075 341.888 682.687 339.577 680.953 316.314C679.219 293.051 677.485 298.108 679.219 280.624C680.809 263.141 671.272 240.456 671.128 231.931C670.983 223.406 671.706 194.219 669.105 180.493C666.504 166.766 660.435 157.952 656.101 134.4C651.766 110.848 635.294 95.5321 624.746 98.9999C614.198 102.468 612.465 113.449 613.765 117.495C609.141 108.392 606.107 103.046 603.217 99.5778C600.327 96.11 591.947 92.0643 591.947 92.0643C591.947 92.0643 578.943 89.319 573.886 101.023C569.695 101.89 569.695 110.993 569.84 113.449C568.828 107.958 566.95 100.156 565.361 97.6994C563.627 95.2431 560.303 91.3419 555.68 89.319C551.056 87.2961 539.208 88.0186 536.174 90.4749C533.139 92.9312 527.649 97.9884 528.082 102.901C528.516 107.958 530.105 112.437 530.394 125.297C530.683 138.157 534.873 165.321 535.74 172.112C536.607 178.903 548.311 241.468 548.311 241.468C548.311 241.468 547.877 242.479 547.155 241.757C546.577 241.034 532.85 164.743 527.938 153.473C529.816 141.48 530.972 107.525 523.169 100.011C519.846 92.4978 499.617 86.5737 491.959 103.479C484.301 120.24 486.758 150.294 485.313 161.853C483.868 173.413 485.457 199.132 486.902 206.79C485.891 198.987 483.29 191.763 478.811 187.284C474.332 182.804 466.963 178.325 461.761 176.447C457.571 175.002 452.225 176.88 449.913 179.192C449.19 179.915 448.179 180.637 447.167 180.782C446.011 181.07 445 181.937 445 181.937C445 184.394 446.878 196.675 453.669 208.813C451.936 211.414 454.247 222.25 452.369 229.908C450.491 237.422 448.323 242.624 451.647 251.293C450.346 253.605 452.08 259.962 454.97 262.274C453.236 267.62 455.403 274.411 461.183 288.571C468.407 306.344 464.795 325.995 469.852 336.109C474.91 346.223 480.978 349.691 487.625 360.094C494.127 370.498 519.557 403.008 529.96 411.244C540.364 419.48 544.698 428.294 544.698 428.294H694.391V428.438Z" fill="#445272"/>
<path d="M694.391 428.438C687.6 414.134 682.831 400.841 680.953 371.365C679.075 341.888 682.687 339.577 680.953 316.314C679.219 293.051 677.485 298.108 679.219 280.624C680.809 263.141 671.272 240.456 671.128 231.931C670.983 223.406 671.706 194.219 669.105 180.492C666.504 166.766 662.603 156.652 656.101 134.4C648.876 109.548 635.294 95.532 624.746 98.9998C614.198 102.468 612.465 113.449 613.765 117.495C609.141 108.392 606.107 103.046 603.217 99.5778C601.05 96.9769 595.126 92.4977 590.213 91.7753C586.601 91.1973 577.787 91.9198 573.886 100.878C570.129 102.179 569.695 110.848 569.84 113.304C568.828 107.814 566.95 100.011 565.361 97.5549C563.627 95.0986 560.303 91.1973 555.68 89.1745C551.056 87.1516 539.208 87.874 536.174 90.3304C533.139 92.7867 527.649 97.8439 528.082 102.757C528.516 107.814 530.105 112.293 530.394 125.153C530.683 138.012 534.873 165.177 535.74 171.968C536.607 178.759 548.311 241.323 548.311 241.323C548.311 241.323 547.877 242.334 547.155 241.612C546.577 240.89 532.85 164.599 527.938 153.328C529.816 141.336 530.972 107.38 523.169 99.8668C519.846 92.3532 499.617 86.4291 491.959 103.335C484.301 120.095 486.758 150.149 485.313 161.709C483.868 173.268 485.457 198.987 486.902 206.645C485.891 198.843 483.29 191.618 478.811 187.139C474.332 182.66 466.963 178.181 461.761 176.302C457.571 174.857 452.225 176.736 449.913 179.192C449.046 180.059 447.89 180.926 446.589 181.07C445.578 181.215 445 181.504 445 181.504C445 183.816 446.589 194.942 452.225 206.067C452.947 207.512 453.38 209.102 453.091 210.691C452.513 214.881 453.958 223.551 452.369 229.764C450.491 237.277 448.323 242.479 451.647 251.148C451.936 255.772 453.38 260.396 454.97 262.13C454.536 268.343 455.403 274.267 461.183 288.427C468.407 306.199 464.795 325.85 469.852 335.964C474.91 346.079 480.978 349.546 487.625 359.95C494.127 370.353 519.557 402.863 529.96 411.099C540.364 419.335 544.698 428.149 544.698 428.149" stroke="#697695" stroke-width="2" stroke-miterlimit="10"/>
<path d="M491.815 328.884C492.248 321.515 495.571 308.944 495.86 304.465C496.294 299.986 494.994 306.344 494.705 286.982C494.56 267.476 492.826 236.844 489.647 223.117C486.469 209.39 487.336 206.645 485.891 201.732" stroke="#697695" stroke-width="2" stroke-miterlimit="10"/>
<path d="M597.726 228.897C594.548 224.129 590.935 215.749 590.502 193.497C590.068 171.245 583.422 165.899 582.988 150.583C582.555 135.267 571.574 130.355 569.695 113.594" stroke="#697695" stroke-width="2" stroke-miterlimit="10"/>
<path d="M636.74 223.406C636.884 217.915 637.029 190.173 634.139 173.557C631.249 156.94 628.359 150.583 624.891 143.213C621.279 135.7 615.21 124.285 613.477 117.639" stroke="#697695" stroke-width="2" stroke-miterlimit="10"/>
<g opacity="0.5">
<path d="M453.092 182.805C454.392 183.094 455.548 183.816 456.704 184.683C457.715 185.695 458.438 186.85 458.871 188.151C459.594 190.752 460.316 193.208 460.75 195.953C461.183 198.554 461.617 201.299 461.328 204.045C461.328 204.767 461.039 205.49 460.894 206.068C460.605 206.79 460.172 207.368 459.594 207.802C458.438 208.813 456.993 208.957 455.693 208.524C456.993 208.669 458.293 208.235 459.16 207.224C460.027 206.357 460.172 205.056 460.172 203.756C460.172 201.155 459.738 198.554 459.305 196.098C458.871 193.497 458.293 190.896 457.716 188.44C457.282 186.128 455.548 183.961 453.092 182.805Z" fill="#B1BBD0"/>
</g>
<path opacity="0.33" d="M346.523 441.246C363.353 423.965 389.348 390.306 401.971 380.539C414.593 370.772 412.038 348.984 416.997 331.854C421.956 314.724 434.127 287.376 432.173 283.469C435.329 281.516 436.231 274.453 437.282 267.541C438.334 260.629 442.842 256.872 442.692 252.815C445.847 248.758 459.521 227.721 459.672 223.213C459.822 218.706 449.153 208.337 427.065 218.555C404.976 228.773 392.053 253.717 390.701 258.075C389.348 262.432 391.152 266.64 390.1 268.743C389.048 270.847 386.043 270.396 381.835 283.469C377.778 296.392 375.975 307.06 370.265 311.118C370.716 303.604 371.467 270.997 372.519 258.225C373.571 245.452 383.939 207.887 387.395 191.658C390.701 175.43 389.348 159.502 391.152 147.631C392.955 135.76 393.105 112.319 385.592 102.702C377.928 93.0854 366.959 93.2364 359.747 102.702C352.534 112.169 353.285 138.164 352.384 147.631C346.674 162.056 334.352 197.368 332.399 207.286C330.445 217.203 325.186 238.09 323.683 238.691C322.181 239.292 316.771 237.639 317.673 230.877C318.574 224.115 332.699 165.212 333.15 159.652C335.404 154.393 340.513 137.263 340.513 131.553C343.518 126.744 347.575 99.9984 339.01 97.5934C337.357 92.3344 334.352 89.6298 324.284 89.0287C314.217 88.5779 309.559 93.5364 309.258 97.4434C306.253 99.8474 304.6 102.552 304.299 104.956C304.299 102.402 299.641 95.1894 291.828 94.7384C284.014 94.2884 280.257 97.1434 276.35 101.65C271.692 103.454 265.531 108.863 257.117 121.786C248.702 134.708 246.298 140.719 242.541 145.377C237.733 149.434 229.769 157.098 226.613 163.859C223.458 170.621 214.592 194.062 212.639 196.617C210.685 199.171 207.981 199.923 205.576 210.441C203.172 220.96 199.866 224.866 198.364 233.582C196.861 242.447 196.711 245.603 196.41 253.116C196.11 260.479 194.156 272.65 183.938 289.329C173.721 306.009 181.835 332.154 175.373 360.103C168.912 388.052 177.327 408.488 162 441.246H346.523Z" fill="#445272"/>
<path d="M346.523 441.246C363.353 423.965 389.348 390.306 401.971 380.539C414.593 370.772 412.038 348.984 416.997 331.854C421.956 314.724 434.127 287.376 432.173 283.469C435.329 281.516 436.231 274.453 437.282 267.541C438.334 260.629 442.842 256.872 442.692 252.815C445.847 248.758 459.521 227.721 459.672 223.213C459.822 218.706 449.153 208.337 427.065 218.555C404.976 228.773 392.053 253.717 390.701 258.075C389.348 262.432 391.152 266.64 390.1 268.743C389.048 270.847 386.043 270.396 381.835 283.469C377.778 296.392 375.975 307.06 370.265 311.118C370.716 303.604 371.467 270.997 372.519 258.225C373.571 245.452 383.939 207.887 387.395 191.658C390.701 175.43 389.348 159.502 391.152 147.631C392.955 135.76 393.105 112.319 385.592 102.702C377.928 93.0854 366.959 93.2364 359.747 102.702C352.534 112.169 353.285 138.164 352.384 147.631C346.674 162.056 334.352 197.368 332.399 207.286C330.445 217.203 325.186 238.09 323.683 238.691C322.181 239.292 316.771 237.639 317.673 230.877C318.574 224.115 332.699 165.212 333.15 159.652C335.404 154.393 340.513 137.263 340.513 131.553C343.518 126.744 347.575 99.9984 339.01 97.5934C337.357 92.3344 334.352 89.6298 324.284 89.0287C314.217 88.5779 309.559 93.5364 309.258 97.4434C306.253 99.8474 304.6 102.552 304.299 104.956C304.299 102.402 299.641 95.1894 291.828 94.7384C284.014 94.2884 280.257 97.1434 276.35 101.65C271.692 103.454 265.531 108.863 257.117 121.786C248.702 134.708 246.298 140.719 242.541 145.377C237.733 149.434 229.769 157.098 226.613 163.859C223.458 170.621 214.592 194.062 212.639 196.617C210.685 199.171 207.981 199.923 205.576 210.441C203.172 220.96 199.866 224.866 198.364 233.582C196.861 242.447 196.711 245.603 196.41 253.116C196.11 260.479 194.156 272.65 183.938 289.329C173.721 306.009 181.835 332.154 175.373 360.103C168.912 388.052 177.327 408.488 162 441.246" stroke="#697695" stroke-width="2" stroke-miterlimit="10"/>
<path d="M241.339 146.43C236.53 150.487 229.618 157.249 226.613 164.011C223.458 170.773 214.592 194.214 212.639 196.769C210.685 199.323 207.98 200.074 205.576 210.593C203.172 221.111 199.866 225.018 198.364 233.733C196.861 242.599 196.711 245.754 196.41 253.268" stroke="#BA6DCD" stroke-width="3" stroke-miterlimit="10" stroke-linecap="round"/>
<path d="M212.939 250.863C216.245 248.008 218.199 244.402 218.199 236.738C218.199 228.925 221.054 203.68 222.106 195.266C223.157 186.851 225.111 177.685 226.613 174.98C227.966 172.125 241.339 150.487 244.645 142.523" stroke="#697695" stroke-width="2" stroke-miterlimit="10"/>
<path d="M251.857 250.41C258.018 245 264.329 233.43 270.79 192.859C277.251 152.288 283.713 152.588 287.019 145.526C290.324 138.464 293.63 129.899 299.34 123.888C299.34 117.126 299.791 110.515 304.149 105.105" stroke="#697695" stroke-width="2" stroke-miterlimit="10"/>
<g opacity="0.5">
<path d="M455.466 223.063C453.663 223.063 452.01 223.364 450.357 223.965C448.704 224.416 447.051 225.167 445.548 225.918C444.046 226.67 442.693 227.721 441.341 228.773C439.989 229.825 438.937 231.177 438.035 232.53C437.134 233.882 436.382 235.385 435.781 237.038C435.18 238.691 434.88 240.344 434.73 241.996C434.579 243.649 434.729 245.452 435.18 247.105C435.631 248.758 436.382 250.411 437.284 251.764C435.932 250.561 435.03 249.059 434.429 247.256C433.828 245.603 433.527 243.8 433.527 241.996C433.527 240.193 433.828 238.39 434.429 236.587C435.03 234.934 435.631 233.131 436.683 231.628C438.636 228.623 441.792 226.369 444.947 224.866C448.403 223.514 452.01 222.612 455.466 223.063Z" fill="#B1BBD0"/>
</g>
</svg>
