<svg width="900" height="500" viewBox="0 0 900 500" fill="none" xmlns="http://www.w3.org/2000/svg">
<path opacity="0.33" d="M327.41 430.326C329.284 428.019 337.356 419.658 346.15 410.864C354.943 402.071 372.963 371.077 378.297 364.879C383.631 358.68 397.758 343.399 401.218 335.759C404.677 328.119 400.929 303.612 401.218 295.972C401.506 288.332 405.11 251.86 402.659 242.346C400.209 232.831 396.316 228.939 393.145 222.308C389.973 215.677 389.397 213.659 386.514 211.64C383.631 209.622 385.36 192.323 385.937 189.873C386.514 187.422 388.532 176.322 388.532 172.43C388.532 168.538 388.532 157.438 391.559 149.221C394.586 141.004 392.568 116.353 387.379 108.569C382.189 100.784 378.008 98.9101 371.81 98.4776C365.611 98.0452 358.836 104.1 357.106 107.848C355.376 111.596 353.069 115.056 350.475 145.617C346.871 153.834 339.951 161.041 336.924 170.988C333.897 180.935 325.824 206.018 323.95 216.398C322.076 226.777 311.408 240.904 315.733 233.264C320.058 225.768 319.625 207.316 327.698 182.809C335.771 158.303 334.762 159.888 334.762 158.591C334.762 157.293 339.519 152.825 341.104 142.157C344.132 137.256 350.042 112.893 339.086 105.83C338.942 100.784 335.627 97.3244 326.545 95.8828C317.463 94.4413 314.147 96.7478 312.129 102.37C308.813 103.235 303.768 115.488 302.903 125.579C300.452 127.021 288.632 138.986 286.325 143.454C284.019 147.923 277.532 170.412 276.234 176.178C274.937 181.944 266.576 217.983 264.269 221.299C261.963 224.614 260.954 226.921 262.828 219.857C264.702 212.794 273.351 170.267 277.099 162.627C280.847 154.987 281.28 148.644 291.659 133.796C302.038 118.948 300.597 111.74 298.723 106.983C296.848 102.226 295.407 98.1893 286.613 96.7478C277.82 95.3062 272.774 102.658 272.774 102.658C272.774 102.658 267.441 104.244 254.611 118.083C251.872 112.749 248.124 108.713 248.124 108.713C248.124 108.713 245.385 102.946 237.6 101.793C229.816 100.64 226.644 109.001 226.212 112.028C223.617 112.028 218.283 123.993 216.409 135.958C214.535 148.067 211.508 165.366 208.336 175.601C205.165 185.836 203.147 194.342 202.426 201.838C201.705 209.334 197.669 219.857 196.948 229.66C196.227 239.463 184.839 267.573 184.262 276.511C183.542 285.448 183.974 316.01 183.109 323.073C182.244 330.137 180.947 353.923 183.109 367.618C185.271 381.168 184.262 393.71 181.956 400.485C179.649 407.261 171 429.749 171 429.749H327.41V430.326Z" fill="#445272"/>
<path d="M327.41 430.326C329.284 428.019 337.356 419.658 346.15 410.864C354.943 402.071 372.963 371.077 378.297 364.879C383.631 358.68 397.758 343.399 401.218 335.759C404.677 328.119 400.929 303.612 401.218 295.972C401.506 288.332 405.11 251.86 402.659 242.346C400.209 232.831 396.316 228.939 393.145 222.308C389.973 215.677 389.397 213.659 386.514 211.64C383.631 209.622 385.36 192.323 385.937 189.873C386.514 187.422 388.532 176.322 388.532 172.43C388.532 168.538 388.532 157.438 391.559 149.221C394.586 141.004 392.568 116.353 387.379 108.569C382.189 100.784 378.008 98.9101 371.81 98.4776C365.611 98.0452 358.836 104.1 357.106 107.848C355.376 111.596 353.069 115.056 350.475 145.617C346.871 153.834 339.951 161.041 336.924 170.988C333.897 180.935 325.824 206.018 323.95 216.398C322.076 226.777 311.408 240.904 315.733 233.264C320.058 225.768 319.625 207.316 327.698 182.809C335.771 158.303 334.762 159.888 334.762 158.591C334.762 157.293 339.519 152.825 341.104 142.157C344.132 137.256 350.042 112.893 339.086 105.83C338.942 100.784 335.627 97.3244 326.545 95.8828C317.463 94.4413 314.147 96.7478 312.129 102.37C308.813 103.235 303.768 115.488 302.903 125.579C300.452 127.021 288.632 138.986 286.325 143.454C284.019 147.923 277.532 170.412 276.234 176.178C274.937 181.944 266.576 217.983 264.269 221.299C261.963 224.614 260.954 226.921 262.828 219.857C264.702 212.794 273.351 170.267 277.099 162.627C280.847 154.987 281.28 148.644 291.659 133.796C302.038 118.948 300.597 111.74 298.723 106.983C296.848 102.226 295.407 98.1893 286.613 96.7478C277.82 95.3062 272.774 102.658 272.774 102.658C272.774 102.658 267.441 104.244 254.611 118.083C251.872 112.749 248.124 108.713 248.124 108.713C248.124 108.713 245.385 102.946 237.6 101.793C229.816 100.64 226.644 109.001 226.212 112.028C223.617 112.028 218.283 123.993 216.409 135.958C214.535 148.067 211.508 165.366 208.336 175.601C205.165 185.836 203.147 194.342 202.426 201.838C201.705 209.334 197.669 219.857 196.948 229.66C196.227 239.463 184.839 267.573 184.262 276.511C183.542 285.448 183.974 316.01 183.109 323.073C182.244 330.137 180.947 353.923 183.109 367.618C185.271 381.168 184.262 393.71 181.956 400.485C179.649 407.261 171 429.749 171 429.749" stroke="#697695" stroke-width="2" stroke-miterlimit="10"/>
<path d="M212.805 225.912C216.841 221.587 220.157 214.956 220.445 208.036C220.733 201.117 220.012 165.222 229.094 151.527C238.176 137.832 254.754 118.659 254.754 118.659" stroke="#697695" stroke-width="2" stroke-miterlimit="10"/>
<path d="M373.826 309.956C371.808 306.207 369.357 303.757 369.357 300.874C369.357 297.991 370.943 264.979 372.673 253.158C374.259 241.337 382.331 207.172 385.07 200.108" stroke="#697695" stroke-width="2" stroke-miterlimit="10"/>
<path opacity="0.33" d="M617.507 174.604C618.088 165.31 617.943 154.566 616.2 142.804C615.039 134.528 613.732 129.59 613.732 129.59C611.845 121.75 610.683 119.571 609.957 113.473C609.375 108.535 609.23 105.197 610.683 101.13C612.425 96.4839 615.62 93.5798 617.507 91.9825C617.798 91.5469 618.088 90.8209 618.815 90.0949C622.153 86.4648 629.123 86.7551 633.77 89.3689C635.513 90.3852 636.674 91.5469 637.546 92.5633C643.644 99.5327 646.258 107.665 647.855 113.763C649.162 118.7 649.888 122.475 651.339 130.026C653.227 140.916 654.534 148.176 656.567 160.809C658.455 173.587 659.471 179.977 660.052 186.22C660.924 197.401 660.924 205.533 660.778 209.888C660.633 214.534 660.342 218.456 660.052 221.504C660.342 223.537 660.779 226.587 661.504 230.362C662.376 234.864 668.184 262.017 668.619 276.828C668.619 278.57 672.975 303.835 674.427 317.63C674.863 321.695 677.041 342.315 677.332 363.079C677.332 365.547 677.332 370.194 678.348 376.292C679.074 381.229 680.38 387.182 683.43 395.75C688.948 410.996 696.498 424.646 701 432.196C648.291 432.051 595.727 432.051 543.017 431.906C537.79 425.661 532.708 421.741 529.369 418.691C520.511 410.706 506.136 405.913 488.13 389.65C484.21 386.167 483.048 385.15 477.675 380.794C474.772 378.325 470.415 374.84 464.462 370.339C456.476 364.241 456.04 364.386 454.007 362.207C448.489 356.399 446.602 349.72 445.731 346.961C444.279 342.315 443.989 337.958 443.553 331.57C443.117 326.778 443.408 326.923 443.117 323.873C442.972 322.712 442.246 318.065 438.761 309.062C436.293 302.819 432.663 293.381 431.646 284.668C431.501 283.216 425.403 273.198 427.435 260.855C429.033 251.562 431.356 241.979 433.824 230.217C431.501 220.198 429.323 210.033 427 200.015C427.435 199.724 428.161 199.288 429.033 198.998C429.903 198.708 430.63 198.708 431.065 198.853C432.518 198.126 434.696 196.965 437.599 196.53C444.859 195.223 450.667 198.563 452.556 199.724C454.007 200.595 456.04 202.048 459.38 205.678C461.849 208.436 467.512 215.116 471.867 226.296C474.336 232.54 476.514 237.912 476.805 245.463C477.095 252.869 475.352 258.822 474.045 262.452C474.917 263.033 475.933 263.759 476.805 264.775C479.854 268.115 480.725 272.036 480.87 273.923C480.725 251.852 478.837 234.864 477.095 223.392C476.805 221.359 474.19 204.371 473.32 185.058C473.175 181.428 473.029 176.055 473.465 169.086C474.19 160.374 475.643 153.259 476.95 148.176C477.095 145.563 477.385 142.804 477.53 140.191C478.692 130.898 480.58 123.347 482.468 118.12C484.21 112.747 486.533 107.52 490.308 102.292C493.938 97.2097 496.408 95.9031 497.714 95.3222C502.941 92.999 508.023 94.451 510.201 95.0318C517.607 97.0646 521.672 102.437 522.979 104.47C524.577 101.42 526.319 98.2266 527.917 95.1771C528.497 93.5798 529.514 91.1113 531.982 88.7881C535.032 85.7388 538.517 84.8675 541.13 84.2867C547.373 82.8347 552.746 84.2867 555.215 84.8675C555.795 85.0127 556.231 85.158 556.522 85.3031C555.941 83.2702 555.215 79.7854 555.65 75.4292C556.086 71.0731 557.683 67.7334 558.7 65.991C558.99 64.539 559.716 62.3609 561.603 60.3281C565.379 55.8267 570.896 55.3911 572.349 55.2459C580.044 54.6651 585.417 59.4568 586.724 60.4732C589.919 63.2321 591.08 65.991 593.694 71.5088C597.469 79.6401 598.631 86.61 599.502 91.5469C600.228 95.6126 600.519 99.0973 600.809 101.566C601.825 105.342 603.277 111.295 605.165 118.555C609.375 134.528 610.392 138.158 611.845 143.821C613.442 150.645 615.765 161.245 617.507 174.604Z" fill="#445272"/>
<g opacity="0.5">
<path d="M561.893 68.1697C563.925 71.219 565.813 74.4136 567.555 77.4628C567.991 78.1888 568.571 78.7696 569.298 79.2053C570.024 79.6408 570.75 79.7861 571.621 79.7861C573.363 79.7861 575.106 79.6409 576.848 79.3505C578.591 79.0601 580.333 78.6245 582.076 78.1888C583.818 77.608 585.561 77.3176 586.286 75.8655C586.577 75.1395 586.722 74.4136 586.577 73.3971C586.577 72.5258 586.432 71.6547 586.432 70.6382C586.286 68.8957 585.996 67.0081 585.706 65.2656C586.286 67.0081 586.722 68.7506 587.158 70.493C587.303 71.3643 587.448 72.2355 587.594 73.2519C587.739 74.1231 587.739 75.1395 587.303 76.156C586.867 77.1724 586.141 77.8985 585.124 78.334C584.254 78.7696 583.382 79.0601 582.511 79.3505C580.769 79.9313 578.881 80.3669 577.139 80.6573C575.251 80.9477 573.509 81.0929 571.621 80.9477C570.604 80.9477 569.588 80.6573 568.716 80.0765C567.846 79.4956 567.12 78.7697 566.684 77.8985C564.941 74.8491 563.345 71.5095 561.893 68.1697Z" fill="#B1BBD0"/>
</g>
<path d="M543.017 431.761C537.79 425.517 532.708 421.597 529.369 418.547C520.511 410.561 506.136 405.769 488.13 389.506C484.21 386.021 483.048 385.006 477.675 380.649C474.772 378.181 470.415 374.696 464.462 370.195C456.476 364.096 456.04 364.241 454.007 362.063C448.489 356.255 446.602 349.575 445.731 346.817C444.279 342.17 443.989 337.814 443.553 331.425C443.117 326.633 443.408 326.779 443.117 323.729C442.972 322.567 442.246 317.921 438.761 308.918C436.293 302.675 432.663 293.236 431.646 284.524C431.501 283.072 425.403 273.053 427.435 260.711C429.033 251.417 431.356 241.834 433.824 230.073C431.501 220.053 429.323 209.889 427 199.87C427.435 199.58 428.161 199.144 429.033 198.854C429.903 198.563 430.63 198.564 431.065 198.709C432.518 197.982 434.696 196.821 437.599 196.385C444.859 195.079 450.667 198.418 452.556 199.58C454.007 200.451 456.04 201.903 459.38 205.533C461.849 208.292 467.512 214.971 471.867 226.152C474.336 232.396 476.514 237.768 476.805 245.319C477.095 252.724 475.352 258.677 474.045 262.307C474.917 262.889 475.933 263.614 476.805 264.631C479.854 267.971 480.725 271.892 480.87 273.779C480.725 251.708 478.837 234.719 477.095 223.248C476.805 221.215 474.19 204.227 473.32 184.914C473.175 181.284 473.029 175.911 473.465 168.941C474.19 160.229 475.643 153.115 476.95 148.032C477.095 145.418 477.385 142.66 477.53 140.045C478.692 130.752 480.58 123.202 482.468 117.975C484.21 112.602 486.533 107.375 490.308 102.148C493.938 97.0656 496.408 95.7587 497.714 95.1778C502.941 92.8546 508.023 94.3066 510.201 94.8874C517.607 96.9205 521.672 102.293 522.979 104.326C524.577 101.276 526.319 98.0815 527.917 95.0326C528.497 93.4354 529.514 90.9669 531.982 88.6437C535.032 85.5944 538.517 84.7231 541.13 84.1423C547.373 82.6903 552.746 84.1423 555.215 84.7231C555.795 84.8683 556.231 85.0136 556.522 85.1587" stroke="#697695" stroke-width="2" stroke-miterlimit="10"/>
<path d="M617.506 174.603C618.088 165.31 617.943 154.565 616.2 142.804C615.038 134.526 613.731 129.589 613.731 129.589C611.844 121.748 610.683 119.571 609.956 113.471C609.376 108.535 609.23 105.195 610.683 101.13C612.425 96.483 615.619 93.5789 617.506 91.9816C617.797 91.5461 618.088 90.8201 618.814 90.094C622.153 86.4639 629.124 86.7543 633.769 89.368C635.512 90.3844 636.674 91.5461 637.545 92.5625C643.644 99.5324 646.257 107.663 647.855 113.763C649.162 118.699 649.887 122.474 651.34 130.026C653.227 140.916 654.534 148.176 656.567 160.808C658.455 173.586 659.47 179.975 660.052 186.219C660.923 197.399 660.923 205.531 660.778 209.887C660.633 214.534 660.342 218.454 660.052 221.504C660.342 223.537 660.778 226.585 661.503 230.362C662.375 234.862 668.183 262.016 668.618 276.826C668.618 278.569 672.975 303.835 674.427 317.628C674.863 321.695 677.041 342.314 677.331 363.077C677.331 365.547 677.331 370.193 678.348 376.292C679.073 381.228 680.38 387.182 683.429 395.748C688.947 410.996 696.498 424.644 700.999 432.195" stroke="#697695" stroke-width="2" stroke-miterlimit="10"/>
<path d="M528.205 242.849C528.495 238.203 528.64 231.814 528.205 223.973C528.06 222.085 527.77 216.423 526.027 204.515C524.285 191.883 523.559 190.722 521.671 177.944C519.784 165.746 518.912 159.648 518.912 152.968C518.912 145.127 519.784 142.658 521.09 129.88C521.817 122.91 522.397 113.327 522.687 103.309" stroke="#697695" stroke-width="2" stroke-miterlimit="10"/>
<path d="M624.767 229.345C624.041 227.457 623.169 224.989 622.299 222.231C622.008 221.359 621.573 219.762 621.282 217.729C620.411 213.518 620.266 210.324 620.121 208.291C619.539 199.869 618.524 187.672 617.362 174.749C615.619 161.39 613.296 150.79 611.554 143.529C610.101 137.867 609.085 134.236 604.874 118.265C602.986 111.005 601.389 105.196 600.518 101.275C600.373 98.8071 599.938 95.4673 599.211 91.2564C598.34 86.3194 597.033 79.3497 593.403 71.2182C590.935 65.7005 589.628 62.9416 586.433 60.1827C585.127 59.021 579.754 54.2293 572.058 54.9554C570.606 55.1006 565.089 55.5362 561.313 60.0375C559.571 62.0704 558.844 64.3936 558.409 65.7005C557.392 67.5881 555.796 70.7826 555.359 75.1387C554.924 79.4948 555.65 82.9797 556.231 85.0126L556.521 85.8838C560.151 94.8865 561.604 101.13 562.474 106.503C563.346 111.585 563.055 112.892 564.217 120.588C565.089 126.541 571.477 159.792 571.913 161.971C573.22 170.538 573.365 175.62 574.672 186.365C576.124 198.418 577.285 208.291 578.157 214.679" stroke="#BA6DCD" stroke-width="3" stroke-miterlimit="10" stroke-linecap="round"/>
<g opacity="0.5">
<path d="M437.453 228.184C438.47 226.587 439.051 224.699 439.051 222.812C439.051 221.94 438.905 220.924 438.76 220.052L438.325 217.149C437.743 213.373 437.308 209.453 436.873 205.677L437.018 205.823C436.001 204.08 434.55 202.628 432.662 201.611C434.695 202.193 436.582 203.499 437.889 205.241V205.387C438.76 209.162 439.341 213.083 439.776 216.858C439.921 218.746 440.213 220.634 440.067 222.812C439.776 224.844 438.76 226.732 437.453 228.184Z" fill="#B1BBD0"/>
</g>
</svg>
