<svg width="900" height="500" viewBox="0 0 900 500" fill="none" xmlns="http://www.w3.org/2000/svg">
<path opacity="0.33" d="M350.977 429.161C356.313 422.383 372.176 398.876 377.224 391.088C382.271 383.301 393.664 356.765 398.423 350.708C403.182 344.651 408.951 337.008 406.355 319.125C403.904 301.243 401.74 295.042 403.183 269.516C404.625 243.99 400.154 238.942 394.241 226.684C393.087 219.329 391.213 217.31 388.473 215.147C388.905 210.099 391.501 190.053 393.087 179.814C394.818 169.575 391.357 172.748 393.087 150.971C394.818 129.195 388.905 113.764 385.156 109.293C384.579 104.967 380.397 100.063 372.753 98.4771C365.254 96.7465 358.332 103.669 358.332 106.697C355.88 107.563 348.093 118.234 351.986 153.134C343.478 173.469 338.142 194.38 336.988 201.446C335.69 208.513 329.921 240.384 327.614 239.086C325.307 237.788 334.536 207.359 337.276 188.467C340.016 169.575 342.901 156.451 344.631 147.51C346.362 138.569 346.506 109.293 336.7 105.688C334.392 98.3329 327.326 96.4581 320.836 96.0254C314.346 95.5928 308.866 100.784 308.722 103.813C305.838 104.823 302.809 118.811 304.107 138.28C297.617 145.203 288.82 167.123 279.014 215.291C279.014 215.291 282.186 168.421 288.243 149.241C294.445 130.06 298.915 122.561 295.31 111.889C297.041 106.842 292.281 103.092 285.792 101.073C279.302 99.0539 271.947 102.515 270.505 106.553C265.313 107.418 256.66 122.849 252.911 135.108C245.989 147.366 237.768 168.998 234.596 181.256C231.423 193.514 229.981 238.365 228.106 241.394C226.231 244.422 222.914 244.711 220.318 241.826C217.723 238.942 217.001 238.077 216.28 232.741C215.559 227.261 214.261 217.743 212.675 210.676C211.233 203.609 209.502 189.621 210.079 184.429C210.656 179.237 217.29 170.007 216.569 157.893C215.848 145.779 208.204 141.165 206.185 139.578C204.166 138.136 201.859 134.675 194.937 136.55C188.014 138.425 184.697 154.288 184.697 154.288C184.697 154.288 175.9 171.45 174.458 175.343C173.016 179.237 173.304 183.996 171.862 190.342C170.42 196.687 172.295 203.033 170.132 209.378C168.113 215.724 168.978 226.107 171.285 234.76C173.593 243.413 171.862 243.845 173.737 250.479C175.612 256.969 179.361 265.91 180.659 272.111C181.957 278.313 181.525 292.013 182.39 302.685C183.255 313.357 188.159 319.27 189.456 333.258C190.754 347.247 193.494 386.185 195.369 397.434C197.244 408.683 198.398 412.144 192.773 429.45H350.977V429.161Z" fill="#697695"/>
<path d="M350.977 429.161C356.313 422.383 372.176 398.876 377.224 391.088C382.271 383.301 393.664 356.765 398.423 350.708C403.182 344.651 408.951 337.008 406.355 319.125C403.904 301.243 401.74 295.042 403.183 269.516C404.625 243.99 400.154 238.942 394.241 226.684C393.087 219.329 391.213 217.31 388.473 215.147C388.905 210.099 391.501 190.053 393.087 179.814C394.818 169.575 391.357 172.748 393.087 150.971C394.818 129.195 388.905 113.764 385.156 109.293C384.579 104.967 380.397 100.063 372.753 98.4771C365.254 96.7465 358.332 103.669 358.332 106.697C355.88 107.563 348.093 118.234 351.986 153.134C343.478 173.469 338.142 194.38 336.988 201.446C335.69 208.513 329.921 240.384 327.614 239.086C325.307 237.788 334.536 207.359 337.276 188.467C340.016 169.575 342.901 156.451 344.631 147.51C346.362 138.569 346.506 109.293 336.7 105.688C334.392 98.3329 327.326 96.4581 320.836 96.0254C314.346 95.5928 308.866 100.784 308.722 103.813C305.838 104.823 302.809 118.811 304.107 138.28C297.617 145.203 288.82 167.123 279.014 215.291C279.014 215.291 282.186 168.421 288.243 149.241C294.445 130.06 298.915 122.561 295.31 111.889C297.041 106.842 292.281 103.092 285.792 101.073C279.302 99.0539 271.947 102.515 270.505 106.553C265.313 107.418 256.66 122.849 252.911 135.108C245.989 147.366 237.768 168.998 234.596 181.256C231.423 193.514 229.981 238.365 228.106 241.394C226.231 244.422 222.914 244.711 220.318 241.826C217.723 238.942 217.001 238.077 216.28 232.741C215.559 227.261 214.261 217.743 212.675 210.676C211.233 203.609 209.502 189.621 210.079 184.429C210.656 179.237 217.29 170.007 216.569 157.893C215.848 145.779 208.204 141.165 206.185 139.578C204.166 138.136 201.859 134.675 194.937 136.55C188.014 138.425 184.697 154.288 184.697 154.288C184.697 154.288 175.9 171.45 174.458 175.343C173.016 179.237 173.304 183.996 171.862 190.342C170.42 196.687 172.295 203.033 170.132 209.378C168.113 215.724 168.978 226.107 171.285 234.76C173.593 243.413 171.862 243.845 173.737 250.479C175.612 256.969 179.361 265.91 180.659 272.111C181.957 278.313 181.525 292.013 182.39 302.685C183.255 313.357 188.159 319.27 189.456 333.258C190.754 347.247 193.494 386.185 195.369 397.434C197.244 408.683 198.398 412.144 192.773 429.45" stroke="#445272" stroke-width="2" stroke-miterlimit="10"/>
<path d="M220.462 241.539C217.866 238.511 217.145 237.789 216.424 232.454C215.703 226.973 214.405 217.455 212.819 210.389C211.376 203.322 209.646 189.333 210.223 184.142C210.8 178.95 217.433 169.72 216.712 157.606C215.991 145.492 208.348 140.877 206.329 139.291C204.31 137.849 202.002 134.388 195.08 136.262C188.158 138.137 184.841 154.001 184.841 154.001C184.841 154.001 176.044 171.162 174.602 175.056C173.16 178.95 173.448 183.709 172.006 190.054C170.564 196.4 172.438 202.745 170.275 209.091C168.256 215.436 169.122 225.82 171.429 234.473C173.736 243.125 172.006 243.558 173.881 250.192C175.755 256.682 179.505 265.623 180.803 271.824" stroke="#BA6DCD" stroke-width="3" stroke-miterlimit="10" stroke-linecap="round"/>
<g opacity="0.5">
<path d="M188.159 155.298C189.89 154.865 191.765 154.865 193.495 154.433C195.226 154 196.668 153.279 197.966 152.125C199.264 151.116 200.562 149.818 201.715 148.376C202.292 147.655 202.869 146.933 203.446 146.357C204.023 145.636 204.455 144.914 205.176 144.193C204.888 145.059 204.455 145.924 204.023 146.789C203.59 147.655 203.157 148.376 202.581 149.241C201.571 150.827 200.273 152.269 198.831 153.423C197.389 154.577 195.514 155.442 193.639 155.586C191.765 155.875 190.034 155.298 188.159 155.298Z" fill="#B1BBD0"/>
</g>
<path d="M378.81 291.581C378.522 280.909 377.079 261.007 378.81 249.037C380.541 237.212 388.617 215.291 388.617 215.291" stroke="#445272" stroke-width="2" stroke-miterlimit="10"/>
<path d="M271.658 238.798C274.687 232.164 278.436 222.79 279.013 215.146" stroke="#445272" stroke-width="2" stroke-miterlimit="10"/>
<path opacity="0.33" d="M544.081 429.764C538.866 421.797 534.521 417.162 531.624 414.265C530.32 412.961 525.685 408.471 521.194 404.56C515.69 399.78 512.069 395.579 489.907 365.306C485.127 358.788 482.519 353.863 476.87 347.489C473.973 344.158 471.366 341.55 469.628 339.957C468.759 338.798 467.6 337.205 466.586 334.887C464.558 330.397 464.558 326.341 464.558 323.589C464.413 313.45 464.413 308.235 464.268 306.931C463.399 295.343 459.343 284.624 458.474 282.596C457.605 280.424 456.591 277.816 455.577 273.905C454.418 269.125 454.274 264.925 454.274 262.317C452.535 258.117 451.522 254.496 450.797 251.599C450.218 248.702 449.494 245.08 449.638 240.445C449.638 239.141 450.073 236.389 450.942 230.885C452.391 221.759 452.535 220.601 452.68 218.718C452.825 216.255 452.825 212.634 452.246 208.144C450.508 203.798 448.914 198.873 447.466 193.514C446.452 189.603 445.583 185.692 444.858 182.215C445.583 182.071 446.452 182.071 447.176 181.926C447.755 181.346 448.624 180.477 449.928 179.753C454.708 177.001 460.213 178.594 463.254 179.463C472.814 182.215 478.174 189.458 479.043 190.617C483.099 196.266 484.113 202.06 484.837 205.681C485.851 211.185 488.169 225.96 488.603 229.147C489.907 237.548 491.935 248.702 491.935 248.702C490.921 228.712 486.575 209.882 484.547 189.168C484.402 182.795 484.402 170.193 484.692 158.75C484.692 156.432 484.837 151.218 485.272 140.933C485.851 125.145 485.996 120.364 487.444 113.557C490.052 101.679 493.238 98.4921 494.687 97.3333C500.046 92.6981 506.42 92.9878 507.289 92.9878C513.952 93.2775 518.297 97.1885 519.746 98.637C523.367 102.113 524.671 106.024 525.83 109.79C527.857 116.309 527.568 121.378 527.133 130.069C526.844 134.56 526.409 142.671 525.83 153.825C526.699 156.722 528.002 160.922 529.596 166.137C532.493 176.277 534.955 185.112 536.693 195.976C537.997 204.377 537.418 204.522 539.011 217.414C540.17 226.974 541.473 234.796 542.487 239.721C543.067 241.025 543.646 242.183 544.226 243.487C545.239 242.763 546.253 242.183 547.412 241.459C545.095 229.726 543.356 219.732 541.908 212.199C539.445 198.149 537.852 189.603 536.259 177.725C535.535 171.786 535.39 171.062 534.231 160.922C532.638 147.451 531.913 143.975 530.32 130.649C526.264 97.623 529.596 114.57 528.582 107.328C528.437 106.314 528.147 104.431 528.582 101.824C529.885 94.8709 535.969 90.9599 536.404 90.6702C542.922 86.4696 551.033 87.7732 556.393 90.8151C557.552 91.3945 562.911 94.5812 565.084 100.52C565.374 101.099 565.808 103.562 566.677 108.342C567.981 115.15 567.981 115.44 568.271 116.743C569.14 120.364 570.299 123.261 572.616 128.621C576.817 138.326 578.12 139.195 579.569 144.844C580.293 147.451 580.003 147.451 581.017 152.811C581.162 153.825 583.625 165.268 584.059 165.268C584.349 165.268 583.914 159.909 581.162 139.05C577.831 133.401 575.513 128.476 574.065 125C570.733 117.323 570.443 114.715 570.299 113.412C570.009 107.618 572.326 102.838 573.92 100.23C574.209 99.2164 574.789 97.623 576.092 96.1745C580.003 91.6842 586.811 92.5533 587.825 92.6981C592.316 93.2775 595.213 95.74 598.544 98.637C601.296 100.955 605.642 105.445 609.118 112.543C610.567 115.44 612.015 118.337 613.464 121.234L613.609 121.089C613.319 119.061 612.16 113.412 613.029 110.37C613.319 109.066 615.202 102.693 621.431 99.6509C628.528 96.3194 636.495 99.9406 640.406 103.996C640.985 104.576 641.71 105.735 643.158 107.763C645.91 111.963 648.083 116.019 650.111 120.22C651.849 123.841 654.167 129.2 656.629 137.167C659.671 146.727 658.657 146.148 662.133 158.17C665.175 168.889 666.913 172.221 668.217 180.767C668.797 184.533 669.086 187.43 669.521 190.762C670.245 198.149 670.245 201.915 670.535 212.055C670.824 222.918 670.969 228.278 671.549 232.478C672.563 241.314 674.156 247.108 675.17 251.019C677.198 259.71 679.081 272.891 677.777 291.287C678.067 294.619 678.501 299.544 678.936 305.628C679.226 310.263 680.095 325.327 680.095 349.662C680.095 367.479 679.66 372.548 680.674 384.716C681.543 395.29 682.557 400.215 682.992 402.243C685.744 414.555 690.379 423.97 694 430.343C643.882 429.909 594.054 429.764 544.081 429.764Z" fill="#697695"/>
<path d="M670.969 224.512C671.114 227.698 671.258 230.161 671.548 232.189C672.562 241.025 674.155 246.819 675.169 250.73C677.197 259.421 679.08 272.602 677.777 290.998C678.066 294.329 678.501 299.254 678.935 305.338C679.225 309.973 680.094 325.038 680.094 349.372C680.094 367.189 679.66 372.259 680.674 384.426C681.543 395 682.557 399.925 682.991 401.953C685.743 414.265 690.379 423.68 694 430.054" stroke="#445272" stroke-width="2" stroke-miterlimit="10"/>
<path d="M613.753 119.785C613.464 117.757 612.305 113.122 613.174 110.08C613.464 108.777 615.347 102.403 621.575 99.3614C628.673 96.0298 636.64 99.6511 640.551 103.707C641.13 104.286 641.854 105.445 643.303 107.473C646.055 111.674 648.228 115.729 650.256 119.93C651.994 123.551 654.311 128.911 656.774 136.878C659.816 146.438 658.802 145.858 662.278 157.881C665.32 168.6 667.058 171.931 668.362 180.477C668.941 184.243 669.231 187.14 669.666 190.472C670.39 197.859 670.39 201.625 670.679 211.765C670.824 217.124 670.969 221.18 671.114 224.512" stroke="#BA6DCD" stroke-width="3" stroke-miterlimit="10" stroke-linecap="round"/>
<path d="M490.631 329.529C490.341 326.197 490.341 321.127 491.934 315.333C492.369 313.74 492.948 312.292 493.528 310.843C494.976 307.367 495.266 303.745 494.831 300.124C494.687 299.4 494.687 298.531 494.542 297.662C493.673 281.583 493.673 257.393 491.934 247.254" stroke="#445272" stroke-width="2" stroke-miterlimit="10"/>
<path d="M597.095 227.408C592.17 217.414 590.577 209.447 589.853 203.942C589.563 201.48 589.128 195.831 588.983 193.224C588.259 183.663 588.259 182.07 587.825 178.594C587.245 175.262 586.231 170.337 584.059 164.398" stroke="#445272" stroke-width="2" stroke-miterlimit="10"/>
<path d="M635.915 221.759C636.494 209.447 636.06 199.018 635.336 191.196C634.756 183.664 634.177 175.842 631.714 165.557C631.135 163.095 629.542 156.577 626.645 148.175C624.327 141.512 618.533 130.214 613.318 120.799" stroke="#445272" stroke-width="2" stroke-miterlimit="10"/>
<g opacity="0.5">
<path d="M456.446 208.143C458.185 206.549 459.488 204.521 459.054 202.204C458.909 199.886 458.619 197.569 458.185 195.251C458.04 194.092 457.895 192.933 457.605 191.775C457.46 190.616 457.171 189.457 456.736 188.443C456.446 187.429 455.722 186.415 454.998 185.546C454.274 184.677 453.405 183.953 452.391 183.229C454.563 184.242 456.591 185.691 457.75 188.009C458.764 190.326 459.199 192.644 459.633 194.961C459.923 197.279 460.213 199.741 460.213 202.059C460.213 202.638 460.213 203.218 460.068 203.942C459.923 204.666 459.633 205.101 459.199 205.68C458.329 206.694 457.46 207.563 456.446 208.143Z" fill="#B1BBD0"/>
</g>
<g opacity="0.5">
<path d="M620.851 106.459C620.851 108.052 622.009 109.356 622.878 110.66C623.748 111.963 624.906 113.122 625.775 114.426C626.789 115.729 627.803 116.888 628.962 117.468C630.266 118.192 631.714 118.337 633.308 118.337C634.901 118.337 636.349 118.192 637.943 117.902C638.667 117.757 639.536 117.612 640.26 117.323C640.985 117.178 641.709 116.888 642.288 116.598C642.578 116.454 642.578 116.454 642.578 116.019C642.578 115.729 642.433 115.295 642.288 115.005C641.999 114.281 641.564 113.557 641.274 112.832C640.55 111.384 639.971 109.935 639.246 108.487C640.26 109.791 640.985 111.239 641.854 112.543C642.288 113.267 642.723 113.846 643.157 114.571C643.302 115.005 643.592 115.295 643.592 115.874C643.592 116.164 643.592 116.454 643.447 116.743C643.302 117.033 643.013 117.323 642.868 117.323C641.274 118.337 639.826 118.626 638.088 119.061C636.494 119.351 634.901 119.64 633.163 119.64C631.569 119.64 629.686 119.495 628.238 118.482C626.645 117.612 625.631 116.164 624.617 114.86C623.748 113.557 622.734 112.253 622.009 110.804C621.575 110.08 621.285 109.356 620.995 108.487C620.851 108.197 620.561 107.328 620.851 106.459Z" fill="#B1BBD0"/>
</g>
<path d="M544.081 429.764C538.866 421.797 534.521 417.162 531.624 414.265C530.32 412.961 525.685 408.471 521.194 404.56C515.69 399.78 512.069 395.579 489.907 365.306C485.127 358.788 482.519 353.863 476.87 347.489C473.973 344.158 471.366 341.55 469.628 339.957C468.759 338.798 467.6 337.205 466.586 334.887C464.558 330.397 464.558 326.341 464.558 323.589C464.413 313.45 464.413 308.235 464.268 306.931C463.399 295.343 459.343 284.624 458.474 282.596C457.605 280.424 456.591 277.816 455.577 273.905C454.418 269.125 454.274 264.925 454.274 262.317C452.535 258.117 451.522 254.496 450.797 251.599C450.218 248.702 449.494 245.08 449.638 240.445C449.638 239.141 450.073 236.389 450.942 230.885C452.391 221.759 452.535 220.601 452.68 218.718C452.825 216.255 452.825 212.634 452.246 208.144C450.508 203.798 448.914 198.873 447.466 193.514C446.452 189.603 445.583 185.692 444.858 182.215C445.583 182.071 446.452 182.071 447.176 181.926C447.755 181.346 448.624 180.477 449.928 179.753C454.708 177.001 460.213 178.594 463.254 179.463C472.814 182.215 478.174 189.458 479.043 190.617C483.099 196.266 484.113 202.06 484.837 205.681C485.851 211.185 488.169 225.96 488.603 229.147C489.907 237.548 491.935 248.702 491.935 248.702C490.921 228.712 486.575 209.882 484.547 189.168C484.402 182.795 484.402 170.193 484.692 158.75C484.692 156.432 484.837 151.218 485.272 140.933C485.851 125.145 485.996 120.364 487.444 113.557C490.052 101.679 493.238 98.4921 494.687 97.3333C500.046 92.6981 506.42 92.9878 507.289 92.9878C513.952 93.2775 518.297 97.1885 519.746 98.637C523.367 102.113 524.671 106.024 525.83 109.79C527.857 116.309 527.568 121.378 527.133 130.069C526.844 134.56 526.409 142.671 525.83 153.825C526.699 156.722 528.002 160.922 529.596 166.137C532.493 176.277 534.955 185.112 536.693 195.976C537.997 204.377 537.418 204.522 539.011 217.414C540.17 226.974 541.473 234.796 542.487 239.721C543.067 241.025 543.646 242.183 544.225 243.487C545.239 242.763 546.253 242.183 547.412 241.459C545.095 229.726 543.356 219.732 541.908 212.199C539.445 198.149 537.852 189.603 536.259 177.725C535.534 171.786 535.39 171.062 534.231 160.922C532.638 147.451 531.913 143.975 530.32 130.649C526.264 97.623 529.596 114.57 528.582 107.328C528.437 106.314 528.147 104.431 528.582 101.824C529.885 94.8709 535.969 90.9599 536.404 90.6702C542.922 86.4696 551.033 87.7732 556.393 90.8151C557.552 91.3945 562.911 94.5812 565.084 100.52C565.374 101.099 565.808 103.562 566.677 108.342C567.981 115.15 567.981 115.44 568.271 116.743C569.14 120.364 570.298 123.261 572.616 128.621C576.817 138.326 578.12 139.195 579.569 144.844C580.293 147.451 580.003 147.451 581.017 152.811C581.162 153.825 583.625 165.268 584.059 165.268C584.349 165.268 583.914 159.909 581.162 139.05C577.831 133.401 575.513 128.476 574.065 125C570.733 117.323 570.443 114.715 570.298 113.412C570.009 107.618 572.326 102.838 573.92 100.23C574.209 99.2164 574.789 97.623 576.092 96.1745C580.003 91.6842 586.811 92.5533 587.825 92.6981C592.316 93.2775 595.213 95.74 598.544 98.637C601.296 100.955 605.642 105.445 609.118 112.543C610.567 115.44 612.015 118.337 613.464 121.234L613.609 121.089" stroke="#445272" stroke-width="2" stroke-miterlimit="10"/>
</svg>
