<svg width="850" height="500" viewBox="0 0 850 500" fill="none" xmlns="http://www.w3.org/2000/svg">
<path opacity="0.33" d="M493.101 429.443C486.676 417.592 481.536 407.883 477.824 400.887C473.255 392.035 470.97 387.609 470.399 386.324C465.973 377.329 465.116 375.045 461.547 369.762C460.405 368.048 457.406 363.765 454.694 357.483C451.552 350.344 450.839 345.347 450.553 343.491C450.267 340.921 450.267 339.207 450.41 333.068C450.981 312.793 451.124 310.937 450.553 306.226C450.125 302.513 449.839 303.227 448.411 294.518C447.412 288.664 446.841 284.095 446.555 281.097C445.699 274.672 445.413 271.388 445.27 267.247C445.27 264.963 445.127 261.536 445.556 257.253C445.984 252.541 446.412 253.255 447.412 245.973C448.126 241.404 448.269 238.692 449.268 232.552C449.411 231.553 449.554 230.839 449.696 230.268C449.982 230.125 450.125 229.839 450.41 229.697C449.839 228.126 449.125 225.842 448.411 222.986C447.555 219.845 446.555 216.133 445.699 211.707C445.127 208.423 444.556 203.854 444.414 198.428L446.841 197.857C447.697 197.001 449.125 195.716 451.41 194.716C454.408 193.431 458.406 193.717 458.406 193.717C459.12 184.293 461.119 175.156 461.404 170.729C461.547 168.588 461.547 167.017 461.547 166.161C461.404 159.307 461.404 151.883 461.404 149.884C461.547 146.457 461.832 135.463 466.401 125.041C467.686 122.328 468.971 119.9 470.256 117.759C473.826 111.619 475.396 110.477 475.967 109.906C476.396 109.62 478.966 107.764 482.821 107.193C488.104 106.479 492.101 108.764 493.815 109.763C496.242 111.191 497.67 112.762 499.097 114.332C500.525 115.903 502.239 117.759 503.524 120.9C504.38 122.899 504.666 124.612 504.809 125.897C505.094 124.041 505.665 121.043 507.664 117.902C509.092 115.617 510.662 113.904 511.947 112.904C512.233 111.762 512.947 109.906 514.232 108.193C517.516 104.052 522.37 103.195 524.226 102.91C525.369 102.767 533.507 101.482 538.932 106.908C540.075 108.05 540.789 109.049 541.217 109.763C542.074 110.763 543.359 112.19 544.644 114.189C545.5 115.617 547.356 118.473 548.499 121.899C549.641 125.612 549.07 127.182 549.355 131.037C549.926 136.748 552.211 140.603 553.21 142.745C559.778 156.737 569.059 218.988 570.772 218.703C571.058 218.703 571.2 217.561 568.773 180.153C567.631 163.733 567.488 162.02 566.774 158.736C564.632 149.598 561.634 144.03 560.492 132.608C560.206 129.895 559.921 125.469 561.634 120.186C562.491 117.473 563.633 114.047 566.774 111.334C567.202 110.905 572.057 107.05 578.482 107.907C582.337 108.478 584.621 110.477 588.191 113.475C589.761 114.903 593.188 118.044 597.186 124.469C599.47 128.182 600.47 130.466 603.754 137.748C610.893 153.596 610.179 151.597 612.035 156.166C615.461 164.733 617.318 169.159 618.603 175.584C619.459 179.867 619.602 184.436 619.888 193.431C620.316 205.567 620.03 210.993 620.316 224.128C620.459 230.411 620.601 235.551 620.744 238.549C621.601 237.549 622.743 236.122 623.743 233.98C625.17 230.839 625.313 228.126 625.313 227.412C625.599 224.128 627.169 216.989 632.595 200.57C633.309 194.716 633.451 189.719 633.594 186.149C633.737 179.724 633.309 173.442 633.166 169.302C632.738 162.02 632.595 162.306 632.738 160.164C633.023 156.452 633.594 149.598 638.591 144.601C640.305 142.888 642.161 141.746 643.731 141.032C644.731 140.603 645.73 139.889 646.444 139.176C647.444 138.319 655.154 136.891 656.153 137.319C661.721 139.176 664.006 144.744 664.434 146.029C665.148 148.742 665.719 151.312 666.433 154.024C668.004 157.308 669.717 161.592 670.859 166.589C672.287 172.586 672.573 177.868 672.573 181.866C673.001 186.292 673.572 192.86 674.143 200.856C674.714 208.994 675 212.992 675 215.847C675 226.841 673.429 235.265 671.859 242.975C669.574 254.112 668.575 253.969 666.719 265.106C665.148 274.243 664.72 280.811 664.577 283.524C664.291 289.806 663.292 312.222 663.006 315.792C662.721 320.361 663.435 323.216 663.863 329.498C664.291 335.923 664.577 334.924 665.862 347.06C666.29 350.915 667.147 360.196 667.575 371.618C668.432 391.607 667.29 397.032 668.718 407.883C669.717 415.451 671.145 424.303 671.145 424.303C671.43 426.587 671.859 428.443 672.001 429.586C612.035 429.443 552.639 429.443 493.101 429.443Z" fill="#E0E1E2"/>
<path d="M493.101 429.443C486.676 417.592 481.536 407.883 477.824 400.887C473.255 392.035 470.97 387.609 470.399 386.324C465.973 377.329 465.116 375.045 461.547 369.762C460.405 368.048 457.406 363.765 454.694 357.483C451.552 350.344 450.839 345.347 450.553 343.491C450.267 340.921 450.267 339.207 450.41 333.068C450.981 312.793 451.124 310.937 450.553 306.226C450.125 302.513 449.839 303.227 448.411 294.518C447.412 288.664 446.841 284.095 446.555 281.097C445.699 274.672 445.413 271.388 445.27 267.247C445.27 264.963 445.127 261.536 445.556 257.253C445.984 252.541 446.412 253.255 447.412 245.973C448.126 241.404 448.269 238.692 449.268 232.552C449.411 231.553 449.554 230.839 449.696 230.268C449.982 230.125 449.125 225.699 448.411 222.986C447.555 219.845 446.555 216.133 445.699 211.707C445.127 208.423 444.556 203.854 444.414 198.428L446.841 197.857C447.697 197.001 449.125 195.716 451.41 194.716C454.408 193.431 458.406 193.717 458.406 193.717C459.12 184.293 461.119 175.156 461.404 170.729C461.547 168.588 461.547 167.017 461.547 166.161C461.404 159.307 461.404 151.883 461.404 149.884C461.547 146.457 461.832 135.463 466.401 125.041C467.686 122.328 468.971 119.9 470.256 117.759C473.826 111.619 475.396 110.477 475.967 109.906C476.396 109.62 478.966 107.764 482.821 107.193C488.104 106.479 492.101 108.764 493.815 109.763C496.242 111.191 497.67 112.762 499.097 114.332C500.525 115.903 502.239 117.759 503.524 120.9C504.38 122.899 504.666 124.612 504.809 125.897C505.094 124.041 505.665 121.043 507.664 117.902C509.092 115.617 510.662 113.904 511.947 112.904C512.233 111.762 512.947 109.906 514.232 108.193C517.516 104.052 522.37 103.195 524.226 102.91C525.369 102.767 533.507 101.482 538.932 106.908C540.075 108.05 540.789 109.049 541.217 109.763C542.074 110.763 543.359 112.19 544.644 114.189C545.5 115.617 547.356 118.473 548.499 121.899C549.641 125.612 549.07 127.182 549.355 131.037C549.926 136.748 552.211 140.603 553.21 142.745C559.778 156.737 569.059 218.988 570.772 218.703C571.058 218.703 571.2 217.561 568.773 180.153C567.631 163.733 567.488 162.02 566.774 158.736C564.632 149.598 561.634 144.03 560.492 132.608C560.206 129.895 559.921 125.469 561.634 120.186C562.491 117.473 563.633 114.047 566.774 111.334C567.202 110.905 572.057 107.05 578.482 107.907C582.337 108.478 584.621 110.477 588.191 113.475C589.761 114.903 593.188 118.044 597.186 124.469C599.47 128.182 600.47 130.466 603.754 137.748C610.893 153.596 610.179 151.597 612.035 156.166C615.461 164.733 617.318 169.159 618.603 175.584C619.459 179.867 619.602 184.436 619.888 193.431C620.316 205.567 620.03 210.993 620.316 224.128C620.459 230.411 620.601 235.551 620.744 238.549" stroke="#808285" stroke-width="2" stroke-miterlimit="10"/>
<path d="M666.434 264.963C664.863 274.101 664.435 280.668 664.292 283.381C664.006 289.663 663.007 312.08 662.721 315.649C662.436 320.218 663.15 323.073 663.578 329.356C664.006 335.781 664.292 334.781 665.577 346.917C666.005 350.772 666.862 360.053 667.29 371.475C668.147 391.464 667.005 396.89 668.432 407.741C669.432 415.308 670.86 424.16 670.86 424.16C671.145 426.445 671.574 428.301 671.716 429.443" stroke="#808285" stroke-width="2" stroke-miterlimit="10"/>
<path d="M622.6 237.121C623.171 236.264 623.885 235.122 624.456 233.837C625.741 230.696 625.884 227.983 626.027 227.269C626.312 223.985 627.74 216.846 633.023 200.427C633.737 194.573 633.88 189.576 634.022 186.006C634.165 179.581 633.88 173.299 633.594 169.158C633.166 161.877 633.023 162.162 633.166 160.021C633.451 156.308 633.88 149.455 638.877 144.458C640.59 142.745 642.303 141.602 643.874 140.888C644.873 140.46 645.73 139.746 646.587 139.032C647.443 138.176 652.583 137.033 656.01 137.176C661.293 139.032 663.577 144.601 664.148 145.886C664.72 148.598 665.433 151.168 666.005 153.881C667.575 157.165 669.146 161.448 670.288 166.446C671.716 172.442 672.001 177.725 672.001 181.723C672.43 186.149 672.858 192.717 673.429 200.712C674 208.851 674.286 212.848 674.286 215.704C674.286 226.698 672.715 235.122 671.287 242.832C669.146 253.969 668.146 253.826 666.29 264.962" stroke="#2969D0" stroke-width="3" stroke-miterlimit="10" stroke-linecap="round"/>
<path d="M518.23 239.12C518.373 235.551 518.23 230.125 517.088 223.557C516.088 217.418 514.66 213.706 512.519 206.567C511.519 203.14 508.807 193.86 507.093 185.436C505.237 176.441 504.952 169.016 504.381 154.025C504.095 148.313 503.952 132.751 503.952 123.185" stroke="#808285" stroke-width="2" stroke-miterlimit="10"/>
<path d="M466.83 291.52C466.972 281.383 466.83 271.246 466.687 260.823C466.687 258.11 466.544 255.54 466.544 252.827C465.687 247.259 464.974 242.69 464.402 239.549C461.832 224.843 459.976 219.417 458.977 209.137C458.406 203.712 458.549 196.287 458.549 193.432" stroke="#808285" stroke-width="2" stroke-miterlimit="10"/>
<g opacity="0.5">
<path d="M646.587 143.744C646.873 145.886 647.586 148.027 648.157 150.026C648.443 151.026 648.871 152.025 649.3 153.025C649.728 154.024 650.156 155.024 650.728 155.737C651.87 157.308 654.011 157.879 656.01 158.45C658.009 158.879 660.151 158.736 662.293 158.022C660.579 159.307 658.152 160.021 655.868 159.592C654.725 159.45 653.726 159.164 652.584 158.736C651.441 158.307 650.442 157.594 649.728 156.594C649.014 155.595 648.586 154.595 648.3 153.453C647.872 152.454 647.586 151.311 647.444 150.312C646.73 148.17 646.444 146.029 646.587 143.744Z" fill="#AEB0B2"/>
</g>
<g opacity="0.5">
<path d="M452.838 225.412C453.837 224.698 454.409 223.699 454.551 222.699C454.551 222.414 454.694 222.128 454.694 221.842C454.694 221.7 454.694 221.271 454.694 220.986L454.551 219.272C454.266 216.988 454.123 214.704 453.837 212.419C453.552 210.135 453.266 207.85 452.838 205.709C452.552 204.566 452.41 203.567 451.981 202.425C451.839 201.854 451.553 201.425 451.267 200.854C450.982 200.426 450.554 199.997 449.982 199.712C450.554 199.712 451.125 200.14 451.553 200.569C451.981 200.997 452.267 201.568 452.552 201.996C453.124 202.996 453.552 204.138 453.837 205.28C454.551 207.565 454.98 209.849 455.265 212.134C455.551 214.418 455.694 216.702 455.694 219.13C455.694 219.701 455.694 220.272 455.694 220.843C455.694 221.129 455.694 221.414 455.551 221.842C455.408 222.128 455.408 222.414 455.265 222.699C454.694 223.984 453.837 225.126 452.838 225.412Z" fill="#AEB0B2"/>
</g>
<path opacity="0.33" d="M315.914 432.014C317.77 429.73 325.766 421.449 334.475 412.739C343.185 404.03 361.032 373.332 366.315 367.193C371.597 361.053 385.59 345.919 389.016 338.352C392.443 330.785 388.731 306.512 389.016 298.945C389.302 291.378 392.871 255.255 390.444 245.832C388.017 236.408 384.162 232.553 381.021 225.986C377.88 219.418 377.308 217.419 374.453 215.42C371.597 213.421 373.311 196.288 373.882 193.861C374.453 191.433 376.452 180.439 376.452 176.584C376.452 172.729 376.452 161.736 379.45 153.597C382.448 145.459 380.45 121.044 375.31 113.334C370.17 105.624 366.029 103.768 359.89 103.339C353.75 102.911 347.04 108.908 345.326 112.62C343.613 116.332 341.328 119.759 338.758 150.028C335.189 158.166 328.336 165.305 325.337 175.157C322.339 185.008 314.343 209.852 312.487 220.132C310.631 230.412 300.066 244.404 304.349 236.837C308.632 229.412 308.204 211.137 316.2 186.864C324.195 162.592 323.196 164.163 323.196 162.878C323.196 161.593 327.907 157.167 329.478 146.601C332.476 141.747 338.33 117.617 327.479 110.621C327.336 105.624 324.052 102.197 315.057 100.769C306.062 99.3417 302.778 101.626 300.78 107.194C297.496 108.051 292.498 120.187 291.642 130.182C289.215 131.609 277.507 143.46 275.222 147.886C272.938 152.312 266.513 174.586 265.228 180.297C263.943 186.008 255.662 221.702 253.377 224.986C251.093 228.27 250.093 230.555 251.949 223.558C253.806 216.562 262.372 174.443 266.084 166.876C269.797 159.308 270.225 153.026 280.505 138.32C290.785 123.614 289.357 116.475 287.501 111.763C285.645 107.052 284.217 103.054 275.508 101.626C266.798 100.198 261.801 107.48 261.801 107.48C261.801 107.48 256.518 109.051 243.811 122.757C241.098 117.474 237.386 113.477 237.386 113.477C237.386 113.477 234.673 107.766 226.963 106.623C219.253 105.481 216.112 113.762 215.684 116.761C213.114 116.761 207.831 128.611 205.975 140.462C204.119 152.455 201.121 169.588 197.979 179.726C194.838 189.863 192.839 198.287 192.126 205.711C191.412 213.136 187.414 223.558 186.7 233.267C185.986 242.976 174.707 270.818 174.136 279.67C173.422 288.522 173.85 318.791 172.993 325.787C172.137 332.783 170.852 356.342 172.993 369.906C175.135 383.327 174.136 395.748 171.851 402.459C169.567 409.17 161 431.443 161 431.443H315.914V432.014Z" fill="#E0E1E2"/>
<path d="M315.914 432.014C317.77 429.73 325.766 421.449 334.475 412.739C343.185 404.03 361.032 373.332 366.315 367.193C371.597 361.053 385.59 345.919 389.016 338.352C392.443 330.785 388.731 306.512 389.016 298.945C389.302 291.378 392.871 255.255 390.444 245.832C388.017 236.408 384.162 232.553 381.021 225.986C377.88 219.418 377.308 217.419 374.453 215.42C371.597 213.421 373.311 196.288 373.882 193.861C374.453 191.433 376.452 180.439 376.452 176.584C376.452 172.729 376.452 161.736 379.45 153.597C382.448 145.459 380.45 121.044 375.31 113.334C370.17 105.624 366.029 103.768 359.89 103.339C353.75 102.911 347.04 108.908 345.326 112.62C343.613 116.332 341.328 119.759 338.758 150.028C335.189 158.166 328.336 165.305 325.337 175.157C322.339 185.008 314.343 209.852 312.487 220.132C310.631 230.412 300.066 244.404 304.349 236.837C308.632 229.412 308.204 211.137 316.2 186.864C324.195 162.592 323.196 164.163 323.196 162.878C323.196 161.593 327.907 157.167 329.478 146.601C332.476 141.747 338.33 117.617 327.479 110.621C327.336 105.624 324.052 102.197 315.057 100.769C306.062 99.3417 302.778 101.626 300.78 107.194C297.496 108.051 292.498 120.187 291.642 130.182C289.215 131.609 277.507 143.46 275.222 147.886C272.938 152.312 266.513 174.586 265.228 180.297C263.943 186.008 255.662 221.702 253.377 224.986C251.093 228.27 250.093 230.555 251.949 223.558C253.806 216.562 262.372 174.443 266.084 166.876C269.797 159.308 270.225 153.026 280.505 138.32C290.785 123.614 289.357 116.475 287.501 111.763C285.645 107.052 284.217 103.054 275.508 101.626C266.798 100.198 261.801 107.48 261.801 107.48C261.801 107.48 256.518 109.051 243.811 122.757C241.098 117.474 237.386 113.477 237.386 113.477C237.386 113.477 234.673 107.766 226.963 106.623C219.253 105.481 216.112 113.762 215.684 116.761C213.114 116.761 207.831 128.611 205.975 140.462C204.119 152.455 201.121 169.588 197.979 179.726C194.838 189.863 192.839 198.287 192.126 205.711C191.412 213.136 187.414 223.558 186.7 233.267C185.986 242.976 174.707 270.818 174.136 279.67C173.422 288.522 173.85 318.791 172.993 325.787C172.137 332.783 170.852 356.342 172.993 369.906C175.135 383.327 174.136 395.748 171.851 402.459C169.567 409.17 161 431.443 161 431.443" stroke="#808285" stroke-width="2" stroke-miterlimit="10"/>
<path d="M202.406 229.556C206.404 225.272 209.687 218.705 209.973 211.851C210.259 204.998 209.545 169.446 218.54 155.882C227.535 142.319 243.954 123.329 243.954 123.329" stroke="#808285" stroke-width="2" stroke-miterlimit="10"/>
<path d="M361.888 312.796C359.89 309.084 357.462 306.656 357.462 303.801C357.462 300.945 359.033 268.249 360.746 256.541C362.317 244.834 370.312 210.995 373.025 203.999" stroke="#808285" stroke-width="2" stroke-miterlimit="10"/>
</svg>
