<svg width="850" height="500" viewBox="0 0 850 500" fill="none" xmlns="http://www.w3.org/2000/svg">
<path opacity="0.33" d="M690.344 451.174C683.279 436.292 678.318 422.463 676.364 391.798C674.41 361.132 678.168 358.727 676.364 334.525C674.56 310.324 672.756 315.585 674.56 297.396C676.214 279.207 666.293 255.607 666.142 246.738C665.992 237.869 666.743 207.504 664.038 193.224C661.332 178.943 655.018 169.774 650.509 145.271C645.999 120.769 628.863 104.835 617.889 108.443C606.916 112.05 605.112 123.475 606.465 127.684C601.655 118.214 598.498 112.652 595.491 109.044C592.485 105.436 583.766 101.227 583.766 101.227C583.766 101.227 570.238 98.3713 564.976 110.547C560.617 111.449 560.617 120.919 560.767 123.475C559.715 117.763 557.761 109.645 556.107 107.09C554.304 104.534 550.846 100.476 546.036 98.3713C541.226 96.2668 528.899 97.0184 525.743 99.5738C522.586 102.129 516.874 107.391 517.325 112.501C517.776 117.763 519.429 122.423 519.73 135.801C520.03 149.18 524.39 177.44 525.292 184.505C526.194 191.57 538.37 256.659 538.37 256.659C538.37 256.659 537.919 257.711 537.167 256.96C536.566 256.208 522.285 176.839 517.174 165.114C519.128 152.637 520.331 117.312 512.214 109.495C508.756 101.678 487.711 95.5152 479.744 113.103C471.777 130.54 474.333 161.807 472.83 173.832C471.326 185.858 472.98 212.615 474.483 220.582C473.431 212.465 470.725 204.949 466.065 200.289C461.405 195.629 453.739 190.969 448.327 189.015C443.968 187.512 438.406 189.466 436.001 191.871C435.249 192.622 434.197 193.374 433.145 193.524C431.942 193.825 430.89 194.727 430.89 194.727C430.89 197.282 432.844 210.06 439.909 222.687C438.106 225.392 440.511 236.666 438.556 244.633C436.602 252.45 434.347 257.862 437.805 266.881C436.452 269.286 438.256 275.9 441.262 278.305C439.458 283.867 441.713 290.932 447.726 305.664C455.242 324.153 451.484 344.597 456.745 355.119C462.007 365.642 468.32 369.249 475.235 380.073C481.999 390.896 508.456 424.718 519.279 433.286C530.102 441.854 534.612 451.024 534.612 451.024H690.344V451.174Z" fill="#E0E1E2"/>
<path d="M690.344 451.175C683.279 436.293 678.318 422.464 676.364 391.798C674.41 361.133 678.168 358.728 676.364 334.526C674.56 310.325 672.756 315.586 674.56 297.397C676.214 279.208 666.293 255.608 666.142 246.739C665.992 237.87 666.743 207.505 664.038 193.225C661.332 178.944 657.273 168.422 650.509 145.272C642.993 119.417 628.863 104.836 617.889 108.444C606.916 112.051 605.112 123.476 606.465 127.685C601.655 118.215 598.498 112.653 595.491 109.045C593.237 106.339 587.073 101.679 581.963 100.928C578.205 100.326 569.035 101.078 564.976 110.398C561.068 111.751 560.617 120.77 560.767 123.325C559.715 117.613 557.761 109.496 556.107 106.94C554.304 104.385 550.846 100.326 546.036 98.2219C541.226 96.1174 528.899 96.869 525.743 99.4244C522.586 101.98 516.874 107.241 517.325 112.352C517.776 117.613 519.429 122.273 519.73 135.652C520.03 149.03 524.39 177.291 525.292 184.356C526.194 191.421 538.37 256.51 538.37 256.51C538.37 256.51 537.919 257.562 537.167 256.81C536.566 256.059 522.285 176.689 517.174 164.964C519.128 152.488 520.331 117.162 512.214 109.346C508.756 101.529 487.711 95.3658 479.744 112.953C471.777 130.391 474.333 161.657 472.83 173.683C471.326 185.709 472.98 212.466 474.483 220.433C473.431 212.315 470.725 204.799 466.065 200.139C461.405 195.479 453.739 190.819 448.327 188.865C443.968 187.362 438.406 189.316 436.001 191.872C435.099 192.774 433.897 193.676 432.544 193.826C431.491 193.976 430.89 194.277 430.89 194.277C430.89 196.682 432.544 208.257 438.406 219.831C439.158 221.335 439.609 222.988 439.308 224.642C438.707 229.001 440.21 238.02 438.556 244.484C436.602 252.301 434.347 257.712 437.805 266.732C438.106 271.542 439.609 276.352 441.262 278.156C440.811 284.62 441.713 290.783 447.726 305.514C455.242 324.004 451.484 344.447 456.745 354.97C462.007 365.492 468.32 369.1 475.235 379.923C481.999 390.746 508.456 424.568 519.279 433.137C530.102 441.705 534.612 450.875 534.612 450.875" stroke="#808285" stroke-width="2" stroke-miterlimit="10"/>
<path d="M479.593 347.604C480.044 339.937 483.502 326.859 483.802 322.199C484.253 317.539 482.9 324.154 482.6 304.011C482.449 283.717 480.646 251.849 477.339 237.569C474.031 223.288 474.933 220.432 473.43 215.321" stroke="#808285" stroke-width="2" stroke-miterlimit="10"/>
<path d="M589.778 243.581C586.471 238.62 582.713 229.902 582.262 206.752C581.811 183.603 574.897 178.041 574.446 162.107C573.995 146.173 562.57 141.062 560.616 123.625" stroke="#808285" stroke-width="2" stroke-miterlimit="10"/>
<path d="M630.365 237.87C630.516 232.158 630.666 203.296 627.659 186.009C624.653 168.722 621.647 162.108 618.039 154.442C614.281 146.625 607.967 134.75 606.164 127.835" stroke="#808285" stroke-width="2" stroke-miterlimit="10"/>
<g opacity="0.5">
<path d="M439.307 195.631C440.66 195.932 441.863 196.683 443.065 197.585C444.117 198.637 444.869 199.84 445.32 201.193C446.072 203.899 446.823 206.454 447.274 209.31C447.725 212.016 448.176 214.872 447.875 217.728C447.875 218.48 447.575 219.231 447.424 219.833C447.124 220.584 446.673 221.185 446.072 221.636C444.869 222.689 443.366 222.839 442.013 222.388C443.366 222.538 444.719 222.087 445.621 221.035C446.523 220.133 446.673 218.78 446.673 217.427C446.673 214.722 446.222 212.016 445.771 209.46C445.32 206.755 444.719 204.049 444.117 201.493C443.666 199.088 441.863 196.833 439.307 195.631Z" fill="#AEB0B2"/>
</g>
<path opacity="0.33" d="M272.451 452.829C275.608 449.672 282.673 440.352 302.215 423.817C321.756 407.281 329.272 392.55 354.226 368.348C379.179 344.147 363.245 341.441 377.525 303.71C391.806 265.98 388.499 259.666 385.192 250.046C381.885 240.425 381.133 237.87 381.133 237.87C381.133 237.87 386.545 212.315 384.59 203.897C382.636 195.479 362.794 198.486 350.167 217.727C337.54 236.968 332.88 257.862 340.095 265.378C336.337 268.385 325.815 289.279 324.312 299.802C327.168 289.43 327.318 263.725 337.69 238.621C348.062 213.518 358.284 186.159 362.944 171.729C367.604 157.448 379.329 144.07 372.114 113.855C370.31 107.993 361.591 105.437 356.931 105.587C352.271 105.888 345.657 110.247 342.801 115.208C339.043 118.515 334.533 128.737 331.076 141.514C327.619 154.141 311.835 171.127 308.378 177.591C304.92 184.055 285.228 224.04 282.372 234.112C279.516 244.183 277.863 225.243 288.986 198.937C299.96 172.631 300.26 173.683 301.613 172.48C302.966 171.278 318.9 160.455 325.364 138.658C331.677 116.861 327.769 114.757 325.665 112.202C323.56 109.646 321.456 104.235 309.731 103.784C298.006 103.333 296.653 112.051 295.3 113.705C293.947 115.358 288.084 119.567 284.176 127.234C280.268 134.9 286.281 121.822 284.928 117.162C283.575 112.502 282.072 104.836 271.549 102.731C261.027 100.627 258.772 108.894 250.204 113.404C241.635 118.064 238.178 120.018 238.178 120.018C238.178 120.018 235.472 116.561 231.864 113.705C228.407 110.999 221.492 102.882 212.774 112.652C204.055 122.423 189.925 147.377 185.866 156.997C181.808 166.467 173.69 181.65 171.736 184.205C169.782 186.61 166.775 190.218 164.972 196.381C163.017 202.695 163.919 205.851 160.312 213.969C156.854 222.086 156.253 235.465 153.848 244.183C151.443 252.902 143.025 271.842 141.371 279.509C139.718 287.175 139.718 325.206 138.665 331.369C137.613 337.683 136.711 394.053 129.195 411.039C121.679 428.026 108 452.979 108 452.979H272.451V452.829Z" fill="#E0E1E2"/>
<path d="M272.451 452.829C275.608 449.672 282.673 440.352 302.215 423.817C321.756 407.281 329.272 392.55 354.226 368.348C379.179 344.147 363.245 341.441 377.525 303.71C391.806 265.98 388.499 259.666 385.192 250.046C381.885 240.425 381.133 237.87 381.133 237.87C381.133 237.87 386.545 212.315 384.59 203.897C382.636 195.479 362.794 198.486 350.167 217.727C337.54 236.968 332.88 257.862 340.095 265.378C336.337 268.385 325.815 289.279 324.312 299.802C327.168 289.43 327.318 263.725 337.69 238.621C348.062 213.518 358.284 186.159 362.944 171.729C367.604 157.448 379.329 144.07 372.114 113.855C370.31 107.993 361.591 105.437 356.931 105.587C352.271 105.888 345.657 110.247 342.801 115.208C339.043 118.515 334.533 128.737 331.076 141.514C327.619 154.141 311.835 171.127 308.378 177.591C304.92 184.055 285.228 224.04 282.372 234.112C279.516 244.183 277.863 225.243 288.986 198.937C299.96 172.631 300.26 173.683 301.613 172.48C302.966 171.278 318.9 160.455 325.364 138.658C331.677 116.861 327.769 114.757 325.665 112.202C323.56 109.646 321.456 104.235 309.731 103.784C298.006 103.333 296.653 112.051 295.3 113.705C293.947 115.358 288.084 119.567 284.176 127.234C280.268 134.9 286.281 121.822 284.928 117.162C283.575 112.502 282.072 104.836 271.549 102.731C261.027 100.627 258.772 108.894 250.204 113.404C241.635 118.064 236.374 121.371 236.374 121.371C236.374 121.371 235.622 117.162 231.864 113.705C228.557 110.698 221.492 102.882 212.774 112.652C204.055 122.423 189.925 147.377 185.866 156.997C181.808 166.467 173.69 181.65 171.736 184.205C169.782 186.61 166.775 190.218 164.972 196.381C163.017 202.695 163.919 205.851 160.312 213.969C156.854 222.086 156.253 235.465 153.848 244.183C151.443 252.902 143.025 271.842 141.371 279.509C139.718 287.175 139.718 325.206 138.665 331.369C137.613 337.683 136.711 394.053 129.195 411.039C121.679 428.026 108 452.979 108 452.979" stroke="#808285" stroke-width="2" stroke-miterlimit="10"/>
<path d="M235.021 118.214C234.269 117.011 233.067 115.057 231.864 113.854C229.008 110.698 221.492 103.031 212.773 112.802C204.055 122.573 189.925 147.526 185.866 157.147C181.807 166.617 173.69 181.799 171.736 184.355C169.782 186.76 166.775 190.368 164.971 196.531C163.017 202.844 163.919 206.001 160.311 214.118C156.854 222.236 156.253 235.614 153.848 244.333" stroke="#2969D0" stroke-width="3" stroke-miterlimit="10" stroke-linecap="round"/>
<path d="M175.043 240.125C180.004 232.459 180.004 231.707 181.658 225.393C183.311 219.08 188.723 181.049 189.625 177.291C190.526 173.533 189.023 156.246 202.101 149.03C215.179 141.815 215.179 136.704 220.891 132.645C226.604 128.587 232.917 124.378 238.329 120.019" stroke="#808285" stroke-width="2" stroke-miterlimit="10"/>
<path d="M214.427 235.916C217.734 233.661 221.041 229.903 223.446 225.243C225.851 220.583 245.844 155.945 252.157 148.429C258.471 140.913 282.672 128.888 287.783 127.986C292.744 127.084 300.41 127.986 300.41 127.986" stroke="#808285" stroke-width="2" stroke-miterlimit="10"/>
<g opacity="0.5">
<path d="M380.38 203.898C379.028 204.65 377.675 205.402 376.472 206.454C375.27 207.506 374.217 208.558 373.466 209.911C372.714 211.264 372.113 212.617 371.812 214.12C371.511 215.623 371.512 217.127 371.512 218.63C371.512 221.787 371.812 224.793 372.413 227.95C372.714 229.453 373.165 230.956 373.766 232.459C374.368 233.812 375.119 235.315 376.622 236.067C375.119 235.616 373.917 234.113 373.165 232.76C372.413 231.407 371.812 229.754 371.361 228.25C370.459 225.094 370.159 221.937 370.008 218.78C370.008 218.029 370.008 217.127 370.008 216.375C370.008 215.473 370.159 214.722 370.309 213.82C370.76 212.166 371.361 210.663 372.413 209.31C374.518 206.604 377.374 204.65 380.38 203.898Z" fill="#AEB0B2"/>
</g>
<g opacity="0.5">
<path d="M227.806 114.607C229.009 115.359 229.61 116.862 230.061 118.215C230.362 119.568 230.212 121.222 229.31 122.574C227.656 124.829 225.702 127.084 223.146 128.587C221.794 129.339 220.441 129.79 218.787 129.79C217.134 129.79 215.781 129.189 214.578 128.437C213.376 127.685 212.173 126.783 211.271 125.581C210.82 124.98 210.369 124.378 210.069 123.777C209.768 123.176 209.317 122.424 209.768 121.673C209.467 122.424 210.069 123.025 210.369 123.476C210.82 124.078 211.271 124.529 211.722 124.98C212.774 125.881 213.827 126.633 215.029 127.234C216.232 127.836 217.585 128.287 218.787 128.136C219.99 128.136 221.192 127.685 222.395 127.084C224.65 125.731 226.604 123.777 228.408 121.673C229.159 120.771 229.46 119.418 229.31 118.065C229.159 117.013 228.708 115.66 227.806 114.607Z" fill="#AEB0B2"/>
</g>
</svg>
