<svg width="850" height="500" viewBox="0 0 850 500" fill="none" xmlns="http://www.w3.org/2000/svg">
<path opacity="0.33" d="M530.135 440.937C528.531 437.291 525.76 431.75 521.531 425.625C515.844 417.458 512.927 416.292 504.761 407.105C501.407 403.313 496.011 396.022 485.074 381.439C479.97 374.585 477.199 370.793 472.387 364.814C467.866 359.273 465.533 356.356 464.22 354.898C459.7 349.794 458.387 348.919 456.929 346.002C454.887 342.21 454.596 338.856 454.012 333.752C453.137 325.294 454.741 323.253 454.012 315.378C453.721 311.878 452.991 309.253 451.679 303.857C449.346 294.524 447.596 291.608 445.263 282.42C444.096 278.046 443.513 274.546 443.075 272.212C442.638 271.046 442.054 269.296 441.325 267.108C439.867 262.296 438.992 258.359 438.846 256.754C438.117 252.671 438.846 248.005 440.304 238.526C441.325 231.963 442.346 227.734 441.763 221.026C441.617 219.714 441.471 218.547 441.471 217.818C440.304 215.339 439.138 212.568 438.117 209.506C435.638 202.068 434.471 195.36 434.034 189.819C435.054 189.527 435.929 189.381 436.95 189.09C437.971 188.069 439.721 186.902 442.054 186.027C446.721 184.423 450.95 185.881 454.304 187.048C457.221 188.069 465.533 191.569 470.491 199.881C472.095 202.506 472.824 205.277 474.574 210.818C476.033 215.631 476.908 219.714 477.491 222.485C476.616 204.547 476.178 189.819 476.178 178.882C476.178 173.486 476.178 169.111 476.178 160.361C476.178 158.903 476.324 146.507 477.199 130.466C477.637 122.154 478.22 117.196 481.137 111.654C482.595 108.883 484.636 105.238 489.011 103.05C495.136 99.842 501.407 102.029 502.719 102.613C508.844 104.946 511.761 109.904 513.219 112.529C515.99 117.196 516.427 121.716 517.011 125.654C517.448 129.737 517.302 132.945 517.156 134.695C516.719 141.549 516.281 149.861 515.844 160.799C516.719 164.007 518.031 168.382 519.344 173.632C520.802 179.319 522.552 185.735 524.302 194.048C525.031 197.839 526.344 203.818 527.51 211.547C529.406 224.234 528.969 227.297 530.719 236.776C532.031 243.776 533.635 249.317 534.656 252.671C535.968 251.942 537.135 251.213 538.448 250.484C537.573 246.401 536.406 240.276 535.093 232.693C532.76 219.714 531.156 209.943 528.239 192.298C526.198 179.902 525.177 173.632 524.448 168.382C522.698 155.549 521.823 147.237 520.948 138.049C518.469 113.404 520.511 123.32 519.636 117.05C519.344 115.3 518.906 112.821 519.636 109.613C519.927 108.3 521.531 101.592 527.51 98.5295C530.135 97.217 532.469 97.0712 534.364 97.0712C536.406 96.9254 544.864 96.4879 550.989 102.175C554.051 104.946 559.009 116.758 559.884 125.07C559.884 124.633 560.614 124.633 560.614 124.633C560.759 122.737 560.468 113.55 564.551 108.446C565.134 107.717 565.426 106.258 566.447 105.092C570.238 100.571 577.676 100.571 582.634 102.029C584.238 102.613 587.009 103.634 589.634 106.258C590.946 107.571 592.404 108.883 593.717 110.487C597.8 115.154 603.05 123.612 605.237 127.695C605.237 127.695 606.696 117.05 609.612 113.987C610.633 112.821 612.821 109.904 616.758 108.592C617.195 108.446 622.154 106.988 626.674 109.613C628.424 110.633 629.445 111.8 630.612 113.404C636.007 120.404 638.487 125.216 638.487 125.216C642.424 133.82 645.341 141.258 647.528 147.382C653.944 165.903 656.715 180.631 657.59 185.735C658.611 191.423 659.194 196.527 659.486 199.589C660.215 204.985 660.944 211.839 661.382 220.589C661.673 225.839 661.819 232.547 661.673 240.422C661.819 241.151 661.965 242.317 662.257 243.63C663.423 250.192 664.59 254.713 665.319 257.921C666.194 261.421 667.652 267.546 668.382 273.962C669.111 280.67 669.548 303.274 670.715 318.586C671.444 329.232 671.59 337.252 671.736 342.794C672.319 369.043 670.132 372.835 671.59 391.647C672.611 403.459 674.215 411.771 674.798 414.688C676.985 425.333 679.902 434.083 682.235 440.499C631.195 440.645 580.738 440.791 530.135 440.937Z" fill="#E0E1E2"/>
<path d="M586.28 237.65C583.655 231.671 581.321 213.297 580.155 198.86C579.572 191.568 579.28 187.922 578.405 183.256C577.092 176.402 573.447 160.069 572.572 156.715C572.28 155.548 571.259 151.465 569.363 146.361C567.759 141.84 562.072 130.611 559.301 123.903" stroke="#808285" stroke-width="2" stroke-miterlimit="10"/>
<path d="M586.717 238.38C583.072 231.817 581.322 226.276 580.593 222.484C579.134 215.63 580.009 213.297 578.843 198.86C578.259 191.569 577.968 187.923 577.093 183.256C575.78 176.402 572.134 160.069 571.259 156.715C570.968 155.549 569.947 151.465 568.051 146.361C566.447 141.841 561.781 132.508 559.447 124.633" stroke="#808285" stroke-width="2" stroke-miterlimit="10"/>
<path d="M627.112 231.963C627.404 220.589 626.966 210.964 626.529 203.672C625.8 191.86 625.216 184.131 622.883 173.777C620.987 165.757 618.8 159.778 616.612 154.09C612.675 143.882 606.988 131.633 602.613 123.758" stroke="#808285" stroke-width="2" stroke-miterlimit="10"/>
<path d="M681.798 440.499C679.319 434.083 676.548 425.333 674.361 414.688C673.778 411.771 672.173 403.459 671.153 391.647C669.549 372.835 671.736 369.043 671.298 342.794C671.153 337.252 671.007 329.232 670.278 318.586C669.257 303.274 668.819 280.67 667.944 273.962C667.215 267.546 665.611 261.421 664.882 257.921C664.153 254.713 662.986 250.338 661.82 243.63C661.528 242.317 661.382 241.151 661.236 240.422C661.382 232.547 661.236 225.839 660.945 220.589C660.507 211.839 659.632 204.985 659.049 199.589C658.611 196.527 658.028 191.423 657.153 185.735C656.278 180.486 653.653 165.757 647.091 147.382C644.903 141.258 641.987 133.82 638.049 125.216C638.049 125.216 635.57 120.404 630.175 113.404C629.008 111.946 627.987 110.633 626.237 109.613C621.716 106.988 616.758 108.446 616.321 108.592C612.383 109.758 610.196 112.821 609.175 113.987C606.259 117.196 604.8 127.695 604.8 127.695C602.613 123.612 597.363 115.008 593.28 110.487C591.821 108.883 590.509 107.571 589.197 106.258C586.426 103.634 583.801 102.467 582.197 102.029C577.384 100.425 569.947 100.425 566.01 105.092C564.989 106.258 564.697 107.717 564.114 108.446C560.031 113.55 560.468 122.737 560.176 124.633C560.176 124.633 559.302 124.633 559.447 125.07C558.427 116.758 553.614 105.092 550.552 102.175C544.281 96.4879 535.969 96.9254 533.927 97.0712C532.031 97.217 529.698 97.217 527.073 98.5295C521.094 101.592 519.49 108.154 519.198 109.613C518.469 112.821 518.907 115.3 519.198 117.05C520.219 123.32 518.032 113.55 520.511 138.049C521.386 147.237 522.261 155.549 524.011 168.382C524.74 173.632 525.761 179.902 527.802 192.298C530.719 209.943 532.177 219.714 534.656 232.693C535.969 240.276 537.281 246.401 538.01 250.484C536.698 251.213 535.531 251.942 534.219 252.671C533.198 249.171 531.594 243.63 530.281 236.776C528.531 227.151 528.969 224.234 527.073 211.547C525.907 203.818 524.594 197.839 523.865 194.048C522.115 185.735 520.365 179.319 518.907 173.632C517.448 168.382 516.282 163.861 515.407 160.799C515.844 149.861 516.282 141.549 516.719 134.695C516.865 132.945 517.011 129.883 516.573 125.654C516.136 121.862 515.553 117.341 512.782 112.529C511.324 109.904 508.407 104.946 502.282 102.613C500.97 102.175 494.699 99.9878 488.574 103.05C484.199 105.238 482.158 109.029 480.699 111.654C477.783 117.196 477.345 122.154 476.762 130.466C475.887 146.507 475.741 158.903 475.741 160.361C475.741 169.111 475.741 173.486 475.741 178.882C475.887 189.819 476.179 204.693 477.054 222.485" stroke="#808285" stroke-width="2" stroke-miterlimit="10"/>
<path d="M469.762 361.896C470.491 362.771 471.22 363.792 472.241 364.813C477.053 370.792 479.824 374.584 484.928 381.438C495.865 396.021 501.261 403.312 504.615 407.104C512.781 416.291 515.698 417.457 521.385 425.624C525.614 431.749 528.385 437.144 529.989 440.936" stroke="#808285" stroke-width="2" stroke-miterlimit="10"/>
<path d="M481.282 330.691C481.72 323.982 483.762 318.441 484.928 315.233C483.032 302.546 483.032 276.005 482.887 272.067C482.595 261.859 477.053 222.777 477.053 222.777C476.47 219.86 475.595 215.923 474.137 211.111C472.387 205.569 471.658 202.944 470.054 200.173C465.095 191.715 456.929 188.361 453.866 187.34C450.512 186.174 446.283 184.715 441.617 186.32C439.284 187.194 434.617 189.819 433.596 190.111C434.034 195.653 435.2 202.507 437.679 209.798C438.7 212.86 439.867 215.631 441.034 218.11C441.179 218.839 441.325 220.006 441.325 221.319C441.763 228.027 440.888 232.256 439.867 238.818C438.409 248.297 437.679 252.964 438.409 257.047C438.7 258.651 439.429 262.588 440.888 267.401C441.471 269.588 442.2 271.192 442.638 272.505C443.075 274.692 443.658 278.338 444.825 282.713C447.158 291.754 448.908 294.671 451.242 304.15C452.554 309.545 453.283 312.17 453.575 315.67C454.304 323.545 452.7 325.587 453.575 334.045C454.012 339.149 454.45 342.503 456.491 346.294L458.387 348.773C459.845 351.544 466.554 358.398 469.616 362.044" stroke="#2969D0" stroke-width="3" stroke-miterlimit="10" stroke-linecap="round"/>
<g opacity="0.5">
<path d="M445.555 218.546C446.867 218.255 447.888 217.38 448.326 216.213C448.617 215.63 448.763 215.046 448.909 214.463C448.909 213.88 448.763 213.296 448.763 212.567C448.326 209.942 447.742 207.463 447.159 204.838C446.576 202.213 445.992 199.734 445.263 197.255C444.972 196.088 444.097 195.213 443.076 194.338C442.055 193.464 441.034 192.734 439.722 192.297C441.034 192.443 442.347 193.026 443.513 193.755C444.097 194.193 444.68 194.484 445.117 195.068C445.409 195.359 445.555 195.651 445.846 195.943C445.992 196.234 446.138 196.672 446.284 196.963C447.305 199.443 447.888 202.067 448.471 204.692C449.055 207.317 449.492 209.942 449.784 212.567C449.784 213.296 449.93 213.88 449.784 214.755C449.638 215.484 449.346 216.067 448.909 216.65C448.326 217.671 447.013 218.692 445.555 218.546Z" fill="#AEB0B2"/>
</g>
<path opacity="0.33" d="M317.225 443.563C319.121 441.229 327.287 432.771 336.183 423.876C345.078 414.98 363.307 383.627 368.703 377.356C374.098 371.085 388.39 355.627 391.89 347.898C395.389 340.169 391.598 315.378 391.89 307.65C392.181 299.921 395.827 263.026 393.348 253.401C390.869 243.776 386.931 239.839 383.723 233.131C380.515 226.423 379.932 224.381 377.015 222.339C374.098 220.298 375.848 202.798 376.432 200.319C377.015 197.84 379.057 186.611 379.057 182.674C379.057 178.736 379.057 167.507 382.119 159.195C385.181 150.883 383.14 125.946 377.89 118.071C372.64 110.196 368.411 108.301 362.14 107.863C355.87 107.426 349.016 113.551 347.266 117.342C345.516 121.134 343.183 124.634 340.558 155.549C336.912 163.862 329.912 171.153 326.85 181.215C323.787 191.278 315.621 216.652 313.725 227.152C311.829 237.651 301.038 251.943 305.413 244.214C309.788 236.631 309.35 217.964 317.517 193.173C325.683 168.382 324.662 169.987 324.662 168.674C324.662 167.362 329.475 162.841 331.079 152.05C334.141 147.091 340.12 122.446 329.037 115.301C328.891 110.196 325.537 106.697 316.35 105.238C307.163 103.78 303.809 106.113 301.767 111.801C298.413 112.676 293.309 125.071 292.434 135.279C289.955 136.737 277.997 148.841 275.664 153.362C273.33 157.883 266.768 180.632 265.455 186.465C264.143 192.298 255.685 228.756 253.352 232.11C251.018 235.464 249.998 237.797 251.893 230.652C253.789 223.506 262.539 180.486 266.33 172.757C270.122 165.028 270.56 158.612 281.059 143.591C291.559 128.571 290.101 121.28 288.205 116.467C286.309 111.655 284.851 107.572 275.955 106.113C267.06 104.655 261.956 112.092 261.956 112.092C261.956 112.092 256.56 113.696 243.581 127.696C240.81 122.3 237.019 118.217 237.019 118.217C237.019 118.217 234.248 112.384 226.373 111.217C218.498 110.051 215.29 118.509 214.853 121.571C212.228 121.571 206.832 133.675 204.936 145.779C203.04 158.029 199.978 175.528 196.77 185.882C193.562 196.236 191.52 204.84 190.791 212.423C190.062 220.006 185.978 230.652 185.249 240.568C184.52 250.484 173 278.921 172.416 287.963C171.687 297.004 172.125 327.92 171.25 335.065C170.375 342.211 169.062 366.273 171.25 380.127C173.437 393.835 172.416 406.522 170.083 413.376C167.75 420.23 159 442.979 159 442.979H317.225V443.563Z" fill="#E0E1E2"/>
<path d="M317.225 443.563C319.121 441.229 327.287 432.771 336.183 423.876C345.078 414.98 363.307 383.627 368.703 377.356C374.098 371.085 388.39 355.627 391.89 347.898C395.389 340.169 391.598 315.378 391.89 307.65C392.181 299.921 395.827 263.026 393.348 253.401C390.869 243.776 386.931 239.839 383.723 233.131C380.515 226.423 379.932 224.381 377.015 222.339C374.098 220.298 375.848 202.798 376.432 200.319C377.015 197.84 379.057 186.611 379.057 182.674C379.057 178.736 379.057 167.507 382.119 159.195C385.181 150.883 383.14 125.946 377.89 118.071C372.64 110.196 368.411 108.301 362.14 107.863C355.87 107.426 349.016 113.551 347.266 117.342C345.516 121.134 343.183 124.634 340.558 155.549C336.912 163.862 329.912 171.153 326.85 181.215C323.787 191.278 315.621 216.652 313.725 227.152C311.829 237.651 301.038 251.943 305.413 244.214C309.788 236.631 309.35 217.964 317.517 193.173C325.683 168.382 324.662 169.987 324.662 168.674C324.662 167.362 329.475 162.841 331.079 152.05C334.141 147.091 340.12 122.446 329.037 115.301C328.891 110.196 325.537 106.697 316.35 105.238C307.163 103.78 303.809 106.113 301.767 111.801C298.413 112.676 293.309 125.071 292.434 135.279C289.955 136.737 277.997 148.841 275.664 153.362C273.33 157.883 266.768 180.632 265.455 186.465C264.143 192.298 255.685 228.756 253.352 232.11C251.018 235.464 249.998 237.797 251.893 230.652C253.789 223.506 262.539 180.486 266.33 172.757C270.122 165.028 270.56 158.612 281.059 143.591C291.559 128.571 290.101 121.28 288.205 116.467C286.309 111.655 284.851 107.572 275.955 106.113C267.06 104.655 261.956 112.092 261.956 112.092C261.956 112.092 256.56 113.696 243.581 127.696C240.81 122.3 237.019 118.217 237.019 118.217C237.019 118.217 234.248 112.384 226.373 111.217C218.498 110.051 215.29 118.509 214.853 121.571C212.228 121.571 206.832 133.675 204.936 145.779C203.04 158.029 199.978 175.528 196.77 185.882C193.562 196.236 191.52 204.84 190.791 212.423C190.062 220.006 185.978 230.652 185.249 240.568C184.52 250.484 173 278.921 172.416 287.963C171.687 297.004 172.125 327.92 171.25 335.065C170.375 342.211 169.062 366.273 171.25 380.127C173.437 393.835 172.416 406.522 170.083 413.376C167.75 420.23 159 442.979 159 442.979" stroke="#808285" stroke-width="2" stroke-miterlimit="10"/>
<path d="M201.291 236.777C205.374 232.402 208.728 225.694 209.019 218.695C209.311 211.695 208.582 175.383 217.769 161.529C226.956 147.676 243.727 128.28 243.727 128.28" stroke="#808285" stroke-width="2" stroke-miterlimit="10"/>
<path d="M364.182 321.796C362.14 318.004 359.661 315.525 359.661 312.609C359.661 309.692 361.265 276.297 363.015 264.339C364.619 252.381 372.786 217.819 375.557 210.674" stroke="#808285" stroke-width="2" stroke-miterlimit="10"/>
</svg>
