<svg width="900" height="500" viewBox="0 0 900 500" fill="none" xmlns="http://www.w3.org/2000/svg">
<path opacity="0.33" d="M327.41 430.327C329.284 428.02 337.356 419.659 346.15 410.865C354.943 402.072 372.963 371.078 378.297 364.88C383.631 358.681 397.758 343.4 401.218 335.76C404.677 328.12 400.929 303.613 401.218 295.973C401.506 288.333 405.11 251.861 402.659 242.347C400.209 232.832 396.316 228.94 393.145 222.309C389.973 215.678 389.397 213.66 386.514 211.641C383.631 209.623 385.36 192.324 385.937 189.874C386.514 187.423 388.532 176.323 388.532 172.431C388.532 168.539 388.532 157.439 391.559 149.222C394.586 141.005 392.568 116.354 387.379 108.57C382.189 100.785 378.008 98.9111 371.81 98.4786C365.611 98.0461 358.836 104.101 357.106 107.849C355.376 111.597 353.069 115.057 350.475 145.618C346.871 153.835 339.951 161.042 336.924 170.989C333.897 180.936 325.824 206.019 323.95 216.398C322.076 226.778 311.408 240.905 315.733 233.265C320.058 225.769 319.625 207.317 327.698 182.81C335.771 158.303 334.762 159.889 334.762 158.592C334.762 157.294 339.519 152.826 341.104 142.158C344.132 137.257 350.042 112.894 339.086 105.831C338.942 100.785 335.627 97.3254 326.545 95.8838C317.463 94.4422 314.147 96.7487 312.129 102.371C308.813 103.236 303.768 115.489 302.903 125.58C300.452 127.022 288.632 138.987 286.325 143.455C284.019 147.924 277.532 170.413 276.234 176.179C274.937 181.945 266.576 217.984 264.269 221.3C261.963 224.615 260.954 226.922 262.828 219.858C264.702 212.795 273.351 170.268 277.099 162.628C280.847 154.988 281.28 148.645 291.659 133.797C302.038 118.949 300.597 111.741 298.723 106.984C296.848 102.227 295.407 98.1903 286.613 96.7487C277.82 95.3072 272.774 102.659 272.774 102.659C272.774 102.659 267.441 104.245 254.611 118.084C251.872 112.75 248.124 108.714 248.124 108.714C248.124 108.714 245.385 102.947 237.6 101.794C229.816 100.641 226.644 109.002 226.212 112.029C223.617 112.029 218.283 123.994 216.409 135.959C214.535 148.068 211.508 165.367 208.336 175.602C205.165 185.837 203.147 194.343 202.426 201.839C201.705 209.335 197.669 219.858 196.948 229.661C196.227 239.464 184.839 267.574 184.262 276.512C183.542 285.449 183.974 316.011 183.109 323.074C182.244 330.138 180.947 353.924 183.109 367.619C185.271 381.169 184.262 393.711 181.956 400.486C179.649 407.261 171 429.75 171 429.75H327.41V430.327Z" fill="#E0E1E2"/>
<path d="M327.41 430.327C329.284 428.02 337.356 419.659 346.15 410.865C354.943 402.072 372.963 371.078 378.297 364.88C383.631 358.681 397.758 343.4 401.218 335.76C404.677 328.12 400.929 303.613 401.218 295.973C401.506 288.333 405.11 251.861 402.659 242.347C400.209 232.832 396.316 228.94 393.145 222.309C389.973 215.678 389.397 213.66 386.514 211.641C383.631 209.623 385.36 192.324 385.937 189.874C386.514 187.423 388.532 176.323 388.532 172.431C388.532 168.539 388.532 157.439 391.559 149.222C394.586 141.005 392.568 116.354 387.379 108.57C382.189 100.785 378.008 98.9111 371.81 98.4786C365.611 98.0461 358.836 104.101 357.106 107.849C355.376 111.597 353.069 115.057 350.475 145.618C346.871 153.835 339.951 161.042 336.924 170.989C333.897 180.936 325.824 206.019 323.95 216.398C322.076 226.778 311.408 240.905 315.733 233.265C320.058 225.769 319.625 207.317 327.698 182.81C335.771 158.303 334.762 159.889 334.762 158.592C334.762 157.294 339.519 152.826 341.104 142.158C344.132 137.257 350.042 112.894 339.086 105.831C338.942 100.785 335.627 97.3254 326.545 95.8838C317.463 94.4422 314.147 96.7487 312.129 102.371C308.813 103.236 303.768 115.489 302.903 125.58C300.452 127.022 288.632 138.987 286.325 143.455C284.019 147.924 277.532 170.413 276.234 176.179C274.937 181.945 266.576 217.984 264.269 221.3C261.963 224.615 260.954 226.922 262.828 219.858C264.702 212.795 273.351 170.268 277.099 162.628C280.847 154.988 281.28 148.645 291.659 133.797C302.038 118.949 300.597 111.741 298.723 106.984C296.848 102.227 295.407 98.1903 286.613 96.7487C277.82 95.3072 272.774 102.659 272.774 102.659C272.774 102.659 267.441 104.245 254.611 118.084C251.872 112.75 248.124 108.714 248.124 108.714C248.124 108.714 245.385 102.947 237.6 101.794C229.816 100.641 226.644 109.002 226.212 112.029C223.617 112.029 218.283 123.994 216.409 135.959C214.535 148.068 211.508 165.367 208.336 175.602C205.165 185.837 203.147 194.343 202.426 201.839C201.705 209.335 197.669 219.858 196.948 229.661C196.227 239.464 184.839 267.574 184.262 276.512C183.542 285.449 183.974 316.011 183.109 323.074C182.244 330.138 180.947 353.924 183.109 367.619C185.271 381.169 184.262 393.711 181.956 400.486C179.649 407.261 171 429.75 171 429.75" stroke="#75819C" stroke-width="2" stroke-miterlimit="10"/>
<path d="M212.805 225.912C216.841 221.588 220.157 214.957 220.445 208.037C220.733 201.118 220.012 165.223 229.094 151.528C238.176 137.833 254.754 118.66 254.754 118.66" stroke="#75819C" stroke-width="2" stroke-miterlimit="10"/>
<path d="M373.827 309.957C371.809 306.208 369.358 303.758 369.358 300.875C369.358 297.992 370.944 264.98 372.674 253.159C374.26 241.338 382.332 207.173 385.071 200.109" stroke="#75819C" stroke-width="2" stroke-miterlimit="10"/>
<path opacity="0.33" d="M510.687 426.766C504.262 414.915 499.122 405.206 495.41 398.21C490.841 389.358 488.556 384.932 487.985 383.647C483.559 374.652 482.702 372.368 479.133 367.085C477.991 365.371 474.992 361.088 472.28 354.806C469.138 347.667 468.425 342.67 468.139 340.814C467.853 338.244 467.853 336.53 467.996 330.391C468.567 310.116 468.71 308.26 468.139 303.549C467.711 299.836 467.425 300.55 465.997 291.841C464.998 285.987 464.427 281.418 464.141 278.42C463.285 271.995 462.999 268.711 462.856 264.57C462.856 262.286 462.713 258.859 463.142 254.576C463.57 249.864 463.998 250.578 464.998 243.296C465.712 238.727 465.855 236.015 466.854 229.875C466.997 228.876 467.14 228.162 467.282 227.591C467.568 227.448 467.711 227.162 467.996 227.02C467.425 225.449 466.711 223.165 465.997 220.309C465.141 217.168 464.141 213.456 463.285 209.03C462.713 205.746 462.142 201.177 462 195.751L464.427 195.18C465.283 194.324 466.711 193.039 468.996 192.039C471.994 190.754 475.992 191.04 475.992 191.04C476.706 181.616 478.705 172.479 478.99 168.052C479.133 165.911 479.133 164.34 479.133 163.484C478.99 156.63 478.99 149.206 478.99 147.207C479.133 143.78 479.418 132.786 483.987 122.364C485.272 119.651 486.557 117.223 487.842 115.082C491.412 108.942 492.982 107.8 493.553 107.229C493.982 106.943 496.552 105.087 500.407 104.516C505.69 103.802 509.687 106.087 511.401 107.086C513.828 108.514 515.256 110.085 516.683 111.655C518.111 113.226 519.825 115.082 521.11 118.223C521.966 120.222 522.252 121.935 522.395 123.22C522.68 121.364 523.251 118.366 525.25 115.225C526.678 112.94 528.248 111.227 529.533 110.227C529.819 109.085 530.533 107.229 531.818 105.516C535.102 101.375 539.956 100.518 541.812 100.233C542.955 100.09 551.093 98.8053 556.518 104.231C557.661 105.373 558.375 106.372 558.803 107.086C559.66 108.086 560.945 109.513 562.23 111.512C563.086 112.94 564.942 115.796 566.085 119.222C567.227 122.935 566.656 124.505 566.941 128.36C567.512 134.071 569.797 137.926 570.796 140.068C577.364 154.06 586.645 216.311 588.358 216.026C588.644 216.026 588.786 214.884 586.359 177.476C585.217 161.056 585.074 159.343 584.36 156.059C582.218 146.921 579.22 141.353 578.078 129.931C577.792 127.218 577.507 122.792 579.22 117.509C580.077 114.796 581.219 111.37 584.36 108.657C584.788 108.228 589.643 104.373 596.068 105.23C599.923 105.801 602.207 107.8 605.777 110.798C607.347 112.226 610.774 115.367 614.772 121.792C617.056 125.505 618.056 127.789 621.34 135.071C628.479 150.919 627.765 148.92 629.621 153.489C633.047 162.056 634.904 166.482 636.189 172.907C637.045 177.19 637.188 181.759 637.474 190.754C637.902 202.89 637.616 208.316 637.902 221.451C638.045 227.734 638.187 232.874 638.33 235.872C639.187 234.872 640.329 233.445 641.329 231.303C642.756 228.162 642.899 225.449 642.899 224.735C643.185 221.451 644.755 214.312 650.181 197.893C650.895 192.039 651.037 187.042 651.18 183.472C651.323 177.047 650.895 170.765 650.752 166.625C650.324 159.343 650.181 159.629 650.324 157.487C650.609 153.775 651.18 146.921 656.177 141.924C657.891 140.211 659.747 139.069 661.317 138.355C662.317 137.926 663.316 137.212 664.03 136.499C665.03 135.642 672.74 134.214 673.739 134.642C679.307 136.499 681.592 142.067 682.02 143.352C682.734 146.065 683.305 148.635 684.019 151.347C685.59 154.631 687.303 158.915 688.445 163.912C689.873 169.909 690.159 175.191 690.159 179.189C690.587 183.615 691.158 190.183 691.729 198.179C692.3 206.317 692.586 210.315 692.586 213.17C692.586 224.164 691.015 232.588 689.445 240.298C687.16 251.435 686.161 251.292 684.305 262.429C682.734 271.566 682.306 278.134 682.163 280.847C681.877 287.129 680.878 309.545 680.592 313.115C680.307 317.684 681.021 320.539 681.449 326.821C681.877 333.246 682.163 332.247 683.448 344.383C683.876 348.238 684.733 357.519 685.161 368.941C686.018 388.93 684.876 394.355 686.304 405.206C687.303 412.774 688.731 421.626 688.731 421.626C689.016 423.91 689.445 425.766 689.587 426.909C629.621 426.766 570.225 426.766 510.687 426.766Z" fill="#E0E1E2"/>
<path d="M510.687 426.766C504.262 414.915 499.122 405.206 495.41 398.21C490.841 389.358 488.556 384.932 487.985 383.647C483.559 374.652 482.702 372.368 479.133 367.085C477.991 365.371 474.992 361.088 472.28 354.806C469.138 347.667 468.425 342.67 468.139 340.814C467.853 338.244 467.853 336.53 467.996 330.391C468.567 310.116 468.71 308.26 468.139 303.549C467.711 299.836 467.425 300.55 465.997 291.841C464.998 285.987 464.427 281.418 464.141 278.42C463.285 271.995 462.999 268.711 462.856 264.57C462.856 262.286 462.713 258.859 463.142 254.576C463.57 249.864 463.998 250.578 464.998 243.296C465.712 238.727 465.855 236.015 466.854 229.875C466.997 228.876 467.14 228.162 467.282 227.591C467.568 227.448 466.711 223.022 465.997 220.309C465.141 217.168 464.141 213.456 463.285 209.03C462.713 205.746 462.142 201.177 462 195.751L464.427 195.18C465.283 194.324 466.711 193.039 468.996 192.039C471.994 190.754 475.992 191.04 475.992 191.04C476.706 181.616 478.705 172.479 478.99 168.052C479.133 165.911 479.133 164.34 479.133 163.484C478.99 156.63 478.99 149.206 478.99 147.207C479.133 143.78 479.418 132.786 483.987 122.364C485.272 119.651 486.557 117.223 487.842 115.082C491.412 108.942 492.982 107.8 493.553 107.229C493.982 106.943 496.552 105.087 500.407 104.516C505.69 103.802 509.687 106.087 511.401 107.086C513.828 108.514 515.256 110.085 516.683 111.655C518.111 113.226 519.825 115.082 521.11 118.223C521.966 120.222 522.252 121.935 522.395 123.22C522.68 121.364 523.251 118.366 525.25 115.225C526.678 112.94 528.248 111.227 529.533 110.227C529.819 109.085 530.533 107.229 531.818 105.516C535.102 101.375 539.956 100.518 541.812 100.233C542.955 100.09 551.093 98.8053 556.518 104.231C557.661 105.373 558.375 106.372 558.803 107.086C559.66 108.086 560.945 109.513 562.23 111.512C563.086 112.94 564.942 115.796 566.085 119.222C567.227 122.935 566.656 124.505 566.941 128.36C567.512 134.071 569.797 137.926 570.796 140.068C577.364 154.06 586.645 216.311 588.358 216.026C588.644 216.026 588.786 214.884 586.359 177.476C585.217 161.056 585.074 159.343 584.36 156.059C582.218 146.921 579.22 141.353 578.078 129.931C577.792 127.218 577.507 122.792 579.22 117.509C580.077 114.796 581.219 111.37 584.36 108.657C584.788 108.228 589.643 104.373 596.068 105.23C599.923 105.801 602.207 107.8 605.777 110.798C607.347 112.226 610.774 115.367 614.772 121.792C617.056 125.505 618.056 127.789 621.34 135.071C628.479 150.919 627.765 148.92 629.621 153.489C633.047 162.056 634.904 166.482 636.189 172.907C637.045 177.19 637.188 181.759 637.474 190.754C637.902 202.89 637.616 208.316 637.902 221.451C638.045 227.734 638.187 232.874 638.33 235.872" stroke="#75819C" stroke-width="2" stroke-miterlimit="10"/>
<path d="M684.02 262.285C682.449 271.423 682.021 277.99 681.878 280.703C681.592 286.985 680.593 309.402 680.307 312.971C680.022 317.54 680.736 320.395 681.164 326.678C681.592 333.103 681.878 332.103 683.163 344.239C683.591 348.094 684.448 357.375 684.876 368.797C685.733 388.786 684.591 394.212 686.018 405.063C687.018 412.63 688.446 421.482 688.446 421.482C688.731 423.767 689.16 425.623 689.302 426.765" stroke="#75819C" stroke-width="2" stroke-miterlimit="10"/>
<path d="M640.186 234.446C640.757 233.589 641.471 232.447 642.042 231.162C643.327 228.021 643.47 225.307 643.613 224.593C643.898 221.309 645.326 214.17 650.609 197.751C651.323 191.897 651.466 186.9 651.608 183.33C651.751 176.905 651.466 170.624 651.18 166.483C650.752 159.202 650.609 159.486 650.752 157.345C651.037 153.632 651.466 146.779 656.463 141.782C658.176 140.069 659.889 138.926 661.46 138.212C662.459 137.784 663.316 137.07 664.173 136.356C665.029 135.5 670.169 134.357 673.596 134.5C678.879 136.356 681.163 141.925 681.734 143.21C682.306 145.922 683.019 148.492 683.591 151.205C685.161 154.489 686.732 158.772 687.874 163.77C689.302 169.766 689.587 175.05 689.587 179.048C690.016 183.474 690.444 190.042 691.015 198.037C691.586 206.176 691.872 210.172 691.872 213.028C691.872 224.022 690.301 232.447 688.873 240.157C686.732 251.294 685.732 251.151 683.876 262.287" stroke="#F69AED" stroke-width="3" stroke-miterlimit="10" stroke-linecap="round"/>
<path d="M535.816 236.443C535.959 232.874 535.816 227.448 534.674 220.88C533.674 214.741 532.246 211.029 530.105 203.89C529.105 200.463 526.393 191.183 524.679 182.759C522.823 173.764 522.538 166.339 521.967 151.348C521.681 145.636 521.538 130.074 521.538 120.508" stroke="#75819C" stroke-width="2" stroke-miterlimit="10"/>
<path d="M484.416 288.842C484.558 278.705 484.416 268.568 484.273 258.145C484.273 255.432 484.13 252.862 484.13 250.149C483.273 244.581 482.56 240.012 481.988 236.871C479.418 222.165 477.562 216.739 476.563 206.459C475.992 201.034 476.135 193.609 476.135 190.754" stroke="#75819C" stroke-width="2" stroke-miterlimit="10"/>
<g opacity="0.5">
<path d="M664.172 141.066C664.458 143.208 665.171 145.349 665.742 147.348C666.028 148.348 666.456 149.347 666.885 150.347C667.313 151.346 667.742 152.346 668.314 153.059C669.456 154.63 671.597 155.201 673.596 155.772C675.595 156.201 677.737 156.058 679.879 155.344C678.165 156.629 675.737 157.343 673.453 156.914C672.31 156.772 671.311 156.486 670.169 156.058C669.026 155.629 668.028 154.916 667.314 153.916C666.6 152.917 666.171 151.917 665.885 150.775C665.457 149.776 665.171 148.633 665.029 147.634C664.315 145.492 664.029 143.351 664.172 141.066Z" fill="#75819C"/>
</g>
<g opacity="0.5">
<path d="M470.424 222.735C471.423 222.021 471.995 221.022 472.137 220.022C472.137 219.737 472.28 219.451 472.28 219.165C472.28 219.023 472.28 218.594 472.28 218.309L472.137 216.595C471.852 214.311 471.709 212.027 471.423 209.742C471.138 207.458 470.852 205.173 470.424 203.032C470.138 201.889 469.996 200.89 469.567 199.748C469.425 199.177 469.139 198.748 468.853 198.177C468.568 197.749 468.14 197.32 467.568 197.035C468.14 197.035 468.711 197.463 469.139 197.892C469.567 198.32 469.853 198.891 470.138 199.319C470.71 200.319 471.138 201.461 471.423 202.603C472.137 204.888 472.566 207.172 472.851 209.457C473.137 211.741 473.28 214.025 473.28 216.453C473.28 217.024 473.28 217.595 473.28 218.166C473.28 218.452 473.28 218.737 473.137 219.165C472.994 219.451 472.994 219.737 472.851 220.022C472.28 221.307 471.423 222.449 470.424 222.735Z" fill="#75819C"/>
</g>
</svg>
