<svg width="900" height="500" viewBox="0 0 900 500" fill="none" xmlns="http://www.w3.org/2000/svg">
<path opacity="0.33" d="M350.977 429.161C356.313 422.383 372.176 398.876 377.224 391.088C382.271 383.301 393.664 356.765 398.423 350.708C403.182 344.651 408.951 337.008 406.355 319.125C403.904 301.243 401.74 295.042 403.183 269.516C404.625 243.99 400.154 238.942 394.241 226.684C393.087 219.329 391.213 217.31 388.473 215.147C388.905 210.099 391.501 190.053 393.087 179.814C394.818 169.575 391.357 172.748 393.087 150.971C394.818 129.195 388.905 113.764 385.156 109.293C384.579 104.967 380.397 100.063 372.753 98.4771C365.254 96.7465 358.332 103.669 358.332 106.697C355.88 107.563 348.093 118.234 351.986 153.134C343.478 173.469 338.142 194.38 336.988 201.446C335.69 208.513 329.921 240.384 327.614 239.086C325.307 237.788 334.536 207.359 337.276 188.467C340.016 169.575 342.901 156.451 344.631 147.51C346.362 138.569 346.506 109.293 336.7 105.688C334.392 98.3329 327.326 96.4581 320.836 96.0254C314.346 95.5928 308.866 100.784 308.722 103.813C305.838 104.823 302.809 118.811 304.107 138.28C297.617 145.203 288.82 167.123 279.014 215.291C279.014 215.291 282.186 168.421 288.243 149.241C294.445 130.06 298.915 122.561 295.31 111.889C297.041 106.842 292.281 103.092 285.792 101.073C279.302 99.0539 271.947 102.515 270.505 106.553C265.313 107.418 256.66 122.849 252.911 135.108C245.989 147.366 237.768 168.998 234.596 181.256C231.423 193.514 229.981 238.365 228.106 241.394C226.231 244.422 222.914 244.711 220.318 241.826C217.723 238.942 217.001 238.077 216.28 232.741C215.559 227.261 214.261 217.743 212.675 210.676C211.233 203.609 209.502 189.621 210.079 184.429C210.656 179.237 217.29 170.007 216.569 157.893C215.848 145.779 208.204 141.165 206.185 139.578C204.166 138.136 201.859 134.675 194.937 136.55C188.014 138.425 184.697 154.288 184.697 154.288C184.697 154.288 175.9 171.45 174.458 175.343C173.016 179.237 173.304 183.996 171.862 190.342C170.42 196.687 172.295 203.033 170.132 209.378C168.113 215.724 168.978 226.107 171.285 234.76C173.593 243.413 171.862 243.845 173.737 250.479C175.612 256.969 179.361 265.91 180.659 272.111C181.957 278.313 181.525 292.013 182.39 302.685C183.255 313.357 188.159 319.27 189.456 333.258C190.754 347.247 193.494 386.185 195.369 397.434C197.244 408.683 198.398 412.144 192.773 429.45H350.977V429.161Z" fill="#697695"/>
<path d="M350.977 429.161C356.313 422.383 372.176 398.876 377.224 391.088C382.271 383.301 393.664 356.765 398.423 350.708C403.182 344.651 408.951 337.008 406.355 319.125C403.904 301.243 401.74 295.042 403.183 269.516C404.625 243.99 400.154 238.942 394.241 226.684C393.087 219.329 391.213 217.31 388.473 215.147C388.905 210.099 391.501 190.053 393.087 179.814C394.818 169.575 391.357 172.748 393.087 150.971C394.818 129.195 388.905 113.764 385.156 109.293C384.579 104.967 380.397 100.063 372.753 98.4771C365.254 96.7465 358.332 103.669 358.332 106.697C355.88 107.563 348.093 118.234 351.986 153.134C343.478 173.469 338.142 194.38 336.988 201.446C335.69 208.513 329.921 240.384 327.614 239.086C325.307 237.788 334.536 207.359 337.276 188.467C340.016 169.575 342.901 156.451 344.631 147.51C346.362 138.569 346.506 109.293 336.7 105.688C334.392 98.3329 327.326 96.4581 320.836 96.0254C314.346 95.5928 308.866 100.784 308.722 103.813C305.838 104.823 302.809 118.811 304.107 138.28C297.617 145.203 288.82 167.123 279.014 215.291C279.014 215.291 282.186 168.421 288.243 149.241C294.445 130.06 298.915 122.561 295.31 111.889C297.041 106.842 292.281 103.092 285.792 101.073C279.302 99.0539 271.947 102.515 270.505 106.553C265.313 107.418 256.66 122.849 252.911 135.108C245.989 147.366 237.768 168.998 234.596 181.256C231.423 193.514 229.981 238.365 228.106 241.394C226.231 244.422 222.914 244.711 220.318 241.826C217.723 238.942 217.001 238.077 216.28 232.741C215.559 227.261 214.261 217.743 212.675 210.676C211.233 203.609 209.502 189.621 210.079 184.429C210.656 179.237 217.29 170.007 216.569 157.893C215.848 145.779 208.204 141.165 206.185 139.578C204.166 138.136 201.859 134.675 194.937 136.55C188.014 138.425 184.697 154.288 184.697 154.288C184.697 154.288 175.9 171.45 174.458 175.343C173.016 179.237 173.304 183.996 171.862 190.342C170.42 196.687 172.295 203.033 170.132 209.378C168.113 215.724 168.978 226.107 171.285 234.76C173.593 243.413 171.862 243.845 173.737 250.479C175.612 256.969 179.361 265.91 180.659 272.111C181.957 278.313 181.525 292.013 182.39 302.685C183.255 313.357 188.159 319.27 189.456 333.258C190.754 347.247 193.494 386.185 195.369 397.434C197.244 408.683 198.398 412.144 192.773 429.45" stroke="#445272" stroke-width="2" stroke-miterlimit="10"/>
<path d="M220.462 241.539C217.866 238.511 217.145 237.789 216.424 232.454C215.703 226.973 214.405 217.455 212.819 210.389C211.376 203.322 209.646 189.333 210.223 184.142C210.8 178.95 217.433 169.72 216.712 157.606C215.991 145.492 208.348 140.877 206.329 139.291C204.31 137.849 202.002 134.388 195.08 136.262C188.158 138.137 184.841 154.001 184.841 154.001C184.841 154.001 176.044 171.162 174.602 175.056C173.16 178.95 173.448 183.709 172.006 190.054C170.564 196.4 172.438 202.745 170.275 209.091C168.256 215.436 169.122 225.82 171.429 234.473C173.736 243.125 172.006 243.558 173.881 250.192C175.755 256.682 179.505 265.623 180.803 271.824" stroke="#BA6DCD" stroke-width="3" stroke-miterlimit="10" stroke-linecap="round"/>
<g opacity="0.5">
<path d="M188.159 155.298C189.89 154.865 191.765 154.865 193.495 154.433C195.226 154 196.668 153.279 197.966 152.125C199.264 151.116 200.562 149.818 201.715 148.376C202.292 147.655 202.869 146.933 203.446 146.357C204.023 145.636 204.455 144.914 205.176 144.193C204.888 145.059 204.455 145.924 204.023 146.789C203.59 147.655 203.157 148.376 202.581 149.241C201.571 150.827 200.273 152.269 198.831 153.423C197.389 154.577 195.514 155.442 193.639 155.586C191.765 155.875 190.034 155.298 188.159 155.298Z" fill="#B1BBD0"/>
</g>
<path d="M378.81 291.581C378.522 280.909 377.079 261.007 378.81 249.037C380.541 237.212 388.617 215.291 388.617 215.291" stroke="#445272" stroke-width="2" stroke-miterlimit="10"/>
<path d="M271.658 238.798C274.687 232.164 278.436 222.79 279.013 215.146" stroke="#445272" stroke-width="2" stroke-miterlimit="10"/>
<path opacity="0.33" d="M747.723 402.543C746.894 401.023 745.651 398.812 741.643 392.318C734.596 381.125 734.596 381.677 732.661 378.223C730.45 374.492 725.338 365.234 722.85 353.488C722.436 351.692 721.469 346.302 719.672 338.702C718.843 334.833 718.428 333.451 717.876 331.793C716.494 327.924 715.527 326.68 713.316 321.429C712.072 318.389 711.243 316.04 710.828 314.935C709.999 312.309 708.756 308.578 707.512 303.327C705.992 296.556 705.439 291.444 704.61 284.949C703.643 276.934 703.919 275.553 702.814 267.4C701.985 261.043 701.432 258.28 701.156 257.174C699.774 250.956 697.701 245.152 697.701 245.152C696.734 242.389 696.043 240.454 695.49 237.276C695.076 234.512 695.076 232.439 695.076 231.748C695.076 228.432 694.523 222.352 693.417 209.915C692.865 203.974 691.621 190.984 690.377 182.97C690.239 182.141 689.963 180.068 689.686 177.028C689.41 173.573 689.548 170.671 689.686 169.013C689.963 165.144 690.377 163.9 691.345 157.682C691.345 157.682 692.035 153.122 692.588 149.253C691.897 138.751 694.523 122.031 685.817 113.463C684.021 111.667 682.224 110.423 680.981 109.733C679.599 107.66 670.064 97.5724 666.748 95.776C662.188 93.4269 657.766 92.8742 655.141 92.4596C652.239 92.0451 652.101 92.4596 649.337 91.9069C643.671 90.8014 639.526 88.5905 632.064 89.5577C632.064 89.5577 631.097 86.1032 629.991 83.8922C628.609 80.714 626.951 76.9831 623.358 73.8048C619.351 70.2121 615.067 68.9684 613.409 68.5539C606.638 66.7575 601.111 68.5539 597.38 69.6593C594.478 70.4884 591.576 71.4557 588.536 73.8048C587.016 75.0485 586.049 76.154 582.042 81.2667C580.66 83.0631 578.725 85.4123 576.514 88.3141C575.547 88.7287 574.58 89.1432 573.474 89.5577C571.263 90.6632 569.329 91.9069 567.809 93.0123C564.769 86.1032 561.729 80.8522 559.518 77.5358C556.616 73.1139 549.292 63.1647 543.488 55.4265C542.936 54.5974 541.83 53.2155 540.725 51.0046C538.928 47.4118 539.067 45.3391 537.961 41.6081C536.856 37.6008 535.197 34.9753 532.986 31.1062C531.466 28.3425 529.808 25.717 527.045 22.677C524.972 20.3279 523.866 19.2224 522.208 18.3933C516.543 15.4914 510.324 17.9788 509.495 18.2551C504.935 20.0515 502.724 23.5061 501.066 25.8552C497.473 31.1062 496.782 36.219 496.368 39.6735C495.677 45.7536 496.644 50.0373 498.302 56.9465C499.546 62.7502 501.342 67.7248 504.935 77.674C506.179 81.2668 507.284 84.1686 508.113 86.2414C503.968 85.965 495.124 86.1032 486.419 91.3541C482.964 93.4269 476.746 97.0197 473.706 104.205C471.08 110.562 472.324 116.365 474.397 125.485C476.469 135.02 480.339 144.002 483.655 152.017C484.346 153.537 485.866 157.406 487.386 162.795C488.215 165.835 488.768 168.46 489.044 170.119C488.215 169.98 486.28 169.98 484.208 170.81C483.655 171.086 481.72 171.915 480.339 173.85C479.509 175.231 479.095 176.613 479.095 180.344C479.095 184.628 479.371 187.668 479.648 191.399C479.786 193.333 479.924 195.544 480.062 198.308C479.509 200.243 478.542 203.283 477.16 206.875C475.917 210.054 475.226 211.159 474.258 213.37C473.706 214.614 471.218 220.556 470.389 226.912C469.837 230.919 470.251 234.236 471.08 240.869C472.048 248.054 473.291 253.996 474.535 259.109C476.055 265.742 476.608 266.709 477.299 270.993C477.437 272.236 478.128 274.723 478.404 283.153C478.819 293.24 478.819 300.287 481.306 305.538C482.688 308.44 484.484 310.237 486.004 311.895C495.124 321.568 497.611 323.779 497.611 323.779C504.106 329.582 510.463 335.662 516.819 341.466C531.19 354.593 538.376 361.226 541.968 363.99C545.285 366.615 550.95 370.761 557.859 377.394C561.59 380.987 564.63 384.441 567.118 387.205C569.329 389.692 573.612 394.667 578.863 401.299C582.18 405.583 585.911 410.558 589.918 416.223L754.633 415.671C753.113 413.321 750.902 408.347 747.723 402.543ZM646.988 142.482C646.573 144.693 645.606 148.009 643.533 151.602C642.428 148.286 641.46 144.417 640.769 140.271C639.526 133.638 638.559 127.696 638.559 122.722C639.249 122.584 641.599 122.584 643.257 123.413C645.329 124.518 646.159 126.315 646.435 127.005C646.988 128.249 646.988 129.355 647.126 130.045C647.264 136.816 647.402 140.271 646.988 142.482Z" fill="#697695"/>
<path d="M568.638 93.1497C570.158 92.0443 571.678 91.2152 573.889 90.1097C574.994 89.557 575.961 89.1424 576.929 88.866C579.14 85.9642 581.074 83.6151 582.456 81.8187C586.463 76.7059 587.292 75.6004 588.951 74.3568C591.991 71.8695 594.893 71.0404 597.794 70.2113C601.525 69.1058 607.053 67.4476 613.824 69.1058C615.482 69.5204 619.766 70.764 623.773 74.3568C627.366 77.535 629.024 81.2659 630.406 84.4442C631.373 86.6551 630.958 90.2479 632.478 90.1097C639.94 89.1424 644.086 91.3533 649.751 92.4588C652.515 93.0115 652.653 92.597 655.555 93.0115C658.181 93.2879 662.602 93.8406 667.162 96.3279C670.479 98.1243 680.014 108.212 681.395 110.284C682.639 111.114 684.435 112.357 686.232 114.015C694.937 122.583 692.312 139.303 693.003 149.805C692.588 153.812 691.759 158.234 691.759 158.234C690.792 164.452 690.377 165.696 690.101 169.565C689.963 171.223 689.825 173.987 690.101 177.58C690.239 180.482 690.654 182.693 690.792 183.522C692.035 191.536 693.279 204.387 693.832 210.467C694.937 222.766 695.49 228.984 695.49 232.3C695.49 232.991 695.49 235.064 695.905 237.828C696.457 241.006 697.148 242.941 698.116 245.704C698.116 245.704 700.05 251.508 701.57 257.726C701.847 258.832 702.399 261.595 703.228 267.952C704.334 276.105 704.196 277.486 705.025 285.501C705.716 291.996 706.407 297.108 707.927 303.879C709.17 309.13 710.276 312.861 711.243 315.487C711.658 316.592 712.487 318.941 713.73 321.981C715.941 327.232 716.908 328.476 718.29 332.345C718.843 334.003 719.258 335.385 720.087 339.254C721.745 346.854 722.85 352.105 723.265 354.04C725.752 365.786 730.865 374.906 733.076 378.775C735.149 382.229 735.01 381.677 742.058 392.87C746.065 399.364 747.309 401.575 748.138 403.095C751.316 408.899 753.527 413.873 754.909 417.328" stroke="#445272" stroke-width="2" stroke-miterlimit="10"/>
<path d="M639.111 122.859C639.802 122.721 641.46 122.583 643.119 123.55C645.191 124.656 646.021 126.452 646.297 127.143C646.85 128.387 646.85 129.492 646.988 130.183C647.264 136.954 647.402 140.409 646.988 142.62C646.573 144.831 645.606 148.147 643.533 151.74C642.428 148.423 641.46 144.554 640.77 140.409C639.526 133.776 639.111 127.834 639.111 122.859Z" stroke="#445272" stroke-width="2" stroke-miterlimit="10"/>
<path d="M632.202 89.9727C633.308 93.5654 634.689 99.6455 635.104 101.995C635.657 104.62 635.795 106.416 636.624 113.602C636.762 115.398 638.697 122.86 638.835 124.519" stroke="#445272" stroke-width="2" stroke-miterlimit="10"/>
<path d="M585.496 108.074C585.634 113.325 585.634 119.958 585.772 125.209" stroke="#445272" stroke-width="2" stroke-miterlimit="10"/>
<path d="M612.58 148.701C608.158 146.628 604.703 144.555 602.216 142.897C598.347 140.272 593.787 137.231 589.365 131.981C586.601 128.664 584.529 125.486 583.561 123.966C582.594 122.308 581.627 120.649 579.969 117.471C577.619 113.049 575.823 109.733 573.612 105.035C572.507 102.686 570.158 96.882 568.638 93.151C565.598 86.2418 562.005 81.4054 559.794 78.089C556.892 73.6671 549.568 63.7179 543.765 55.9797C543.212 55.1506 542.106 53.7687 541.001 51.5578C539.204 47.965 539.343 45.8923 538.237 42.2995C537.132 38.2922 535.474 35.6667 533.263 31.7976C531.743 29.0339 530.084 26.4084 527.321 23.3684C525.248 21.0193 524.142 19.9138 522.346 19.0847C516.681 16.1829 510.462 18.6702 509.633 18.9465C505.073 20.7429 502.862 24.1975 501.204 26.5466C497.611 31.7976 496.92 36.9104 496.506 40.3649C495.815 46.445 496.782 50.7287 498.44 57.6379C499.822 63.4416 501.48 68.4162 505.073 78.3654C506.317 81.9582 507.146 84.1691 507.837 86.1036" stroke="#BA6DCD" stroke-width="3" stroke-miterlimit="10" stroke-linecap="round"/>
<path d="M496.783 242.526C497.059 235.064 497.059 228.846 497.059 224.009C496.921 218.344 496.783 210.744 495.677 200.933C495.263 197.616 494.71 193.194 493.605 187.529C492.361 181.034 490.426 175.507 489.183 171.361" stroke="#445272" stroke-width="2" stroke-miterlimit="10"/>
<path d="M589.78 417.328C585.911 411.663 582.18 406.688 578.726 402.404C573.613 395.771 569.191 390.797 566.98 388.448C564.493 385.684 561.453 382.229 557.722 378.637C550.813 371.866 545.147 367.72 541.831 365.233C538.238 362.469 531.052 355.836 516.681 342.709C510.187 336.905 503.968 330.687 497.474 325.022C497.474 325.022 494.986 322.811 485.866 313.138C484.208 311.48 482.55 309.683 481.168 306.781C478.681 301.53 478.681 294.483 478.266 284.396C477.99 275.966 477.437 273.479 477.161 272.235C476.47 267.952 475.917 266.846 474.397 260.352C473.154 255.239 471.91 249.297 470.943 242.112C470.113 235.479 469.699 232.162 470.252 228.155C471.081 221.66 473.568 215.857 474.121 214.613C475.088 212.264 475.779 211.297 477.023 208.118C478.404 204.526 479.372 201.486 479.925 199.551C479.786 196.926 479.648 194.576 479.51 192.642C479.234 188.773 478.957 185.871 478.957 181.587C478.957 177.856 479.234 176.336 480.201 175.093C481.445 173.158 483.379 172.191 484.07 172.053C486.143 171.085 488.077 171.223 489.045 171.362C488.768 169.703 488.216 167.078 487.386 164.038C485.866 158.649 484.208 154.78 483.655 153.26C480.339 145.383 476.47 136.263 474.397 126.728C472.324 117.47 472.324 110.285 474.95 103.928C477.99 96.7426 483.103 94.3935 486.557 92.4589C495.401 87.3461 504.107 87.2079 508.252 87.3461L508.805 87.4843C510.463 87.7606 512.812 88.4516 515.299 89.9716C518.616 91.9062 521.38 94.808 524.972 100.888C527.874 106.139 529.671 110.699 531.743 116.917C535.06 126.728 535.889 130.736 538.376 139.165C539.758 143.587 541.969 150.22 545.009 158.372" stroke="#445272" stroke-width="2" stroke-miterlimit="10"/>
<g opacity="0.5">
<path d="M482.55 197.34C483.655 196.097 484.623 194.715 485.175 193.333C485.728 191.951 485.866 190.293 486.143 188.635C486.281 187.115 486.281 185.318 486.419 183.66L486.695 178.686C486.972 180.344 487.11 182.002 487.248 183.66C487.386 185.318 487.386 186.977 487.386 188.773C487.248 190.431 487.11 192.228 486.281 193.886C485.452 195.406 484.07 196.649 482.55 197.34Z" fill="#B1BBD0"/>
</g>
<g opacity="0.5">
<path d="M503.141 31.105C504.661 32.625 506.319 34.145 508.115 35.2505C508.392 35.3887 508.53 35.5268 508.806 35.5268C509.083 35.5268 509.221 35.5268 509.497 35.5268C510.05 35.5268 510.464 35.3887 511.017 35.2505C511.57 35.1123 511.984 34.9741 512.537 34.6977C512.813 34.5596 512.952 34.4214 513.228 34.4214C513.504 34.2832 513.781 34.145 514.057 34.0068C516.268 33.1777 518.479 32.9014 520.69 32.7632C522.901 32.625 525.112 32.4868 527.323 32.4868L526.77 32.625C527.046 32.3486 527.185 32.0723 527.323 31.7959C527.323 31.5195 527.323 30.9668 527.185 30.5522C526.908 29.7231 526.632 28.894 526.217 28.0649C525.803 27.2358 525.388 26.4067 524.835 25.5776C524.283 24.7485 523.73 24.0576 523.177 23.2285C523.868 23.9194 524.559 24.6103 525.112 25.3013C525.665 25.9922 526.355 26.8213 526.77 27.6504C527.185 28.4795 527.737 29.3086 528.014 30.2759C528.152 30.8286 528.29 31.2432 528.29 31.7959C528.29 32.4868 527.875 33.0395 527.461 33.3159L527.323 33.4541H527.046C524.835 33.5923 522.763 33.7305 520.552 33.8686C518.479 34.145 516.268 34.2832 514.333 34.9741C514.057 35.1123 513.919 35.1123 513.643 35.2505C513.366 35.3887 513.09 35.5268 512.813 35.5268C512.261 35.8032 511.708 35.9414 511.155 35.9414C510.603 36.0796 510.05 36.0796 509.497 36.0796C509.221 36.0796 508.806 36.0796 508.53 35.9414C508.253 35.8032 507.977 35.665 507.701 35.5268C506.733 34.8359 505.904 34.145 505.213 33.3159C504.522 32.7632 503.832 31.9341 503.141 31.105Z" fill="#B1BBD0"/>
</g>
</svg>
