<svg width="850" height="500" viewBox="0 0 850 500" fill="none" xmlns="http://www.w3.org/2000/svg">
<path opacity="0.33" d="M514.13 419.235C504.286 411.641 496.551 405.172 491.207 400.671C481.363 392.233 480.66 390.827 474.19 386.045C468.706 381.967 463.362 377.607 457.877 373.529C454.221 370.857 452.674 369.591 451.127 367.201C448.455 363.403 448.314 360.31 446.626 352.715C446.626 352.715 445.079 345.262 442.689 337.527C440.298 329.37 437.204 323.042 435.938 320.51C433.266 315.166 430.313 310.385 427.641 303.212C427.36 302.509 427.078 301.665 426.516 300.4C424.125 294.212 422.297 290.837 421.453 288.727C420.89 287.321 419.906 284.789 419.484 273.82C419.203 267.913 419.062 260.038 419.625 250.334C417.515 246.959 415.406 242.74 413.296 237.818C411.046 232.333 409.78 227.411 408.796 223.192C410.202 222.067 412.593 220.379 415.828 219.254C422.437 217.004 428.063 218.551 429.75 219.114C430.875 219.395 434.954 220.801 441.985 227.13C446.064 230.927 451.97 236.412 456.611 245.975C458.439 249.631 462.518 258.35 462.377 269.742C462.377 271.148 462.237 272.273 462.237 273.117C464.065 275.93 465.893 278.742 467.721 281.836C470.112 285.774 472.222 289.712 474.19 293.509C466.737 272.273 459.143 250.897 451.689 229.661C450.845 226.848 449.72 222.911 448.876 217.989C447.751 211.66 447.611 206.879 447.611 203.363C447.329 186.909 447.189 178.752 448.173 172.423C449.158 165.392 454.642 145.562 456.893 142.89C457.877 141.906 459.283 140.5 461.393 139.375C462.659 138.671 467.018 136.14 472.784 136.702C480.8 137.406 486.988 143.734 488.535 148.516C488.816 149.219 489.379 151.328 489.66 153.86C489.941 156.391 489.801 158.219 489.801 159.063C489.379 170.173 489.098 175.939 489.238 178.752C489.519 185.221 490.785 190.143 491.348 192.675C492.613 197.878 494.02 200.972 496.129 206.035C501.051 218.27 500.067 217.426 505.974 232.474C507.661 236.974 510.333 243.303 513.708 250.897C517.646 250.194 521.584 249.49 525.522 248.787C525.1 236.833 523.271 227.411 521.584 221.082C520.037 215.176 518.631 211.66 516.521 202.66C515.255 197.034 514.552 192.534 513.427 186.346C511.88 177.486 511.036 170.736 510.755 168.204C509.208 156.391 509.771 156.954 508.646 148.516C507.099 137.968 506.255 136.562 505.27 126.999C504.427 118.983 504.567 114.764 505.411 110.404C506.255 106.607 507.099 102.388 510.614 98.7315C511.599 97.6064 514.693 94.6531 519.615 93.6687C526.928 92.403 532.553 96.9033 533.819 98.0283C537.897 101.263 539.444 105.341 540.991 109.279C541.413 110.404 542.538 113.498 543.663 121.655C544.226 125.733 544.788 131.358 544.929 138.109C546.335 140.921 548.304 145 550.414 149.922C555.195 161.032 557.867 169.751 560.68 178.892C562.086 183.674 565.321 194.784 568.415 209.269C570.102 217.004 571.227 223.614 571.931 228.817C572.493 228.536 573.056 228.255 573.618 227.974C572.634 220.801 571.649 213.348 570.806 205.894C569.962 198.441 569.68 190.846 567.993 179.174C567.712 177.064 567.43 175.377 567.29 174.252C565.461 169.751 563.633 164.829 561.805 159.485C560.117 154.141 558.711 148.938 557.445 144.156C554.492 138.249 552.101 133.046 550.414 128.827C546.898 120.53 546.335 118.28 546.054 116.17C545.632 113.076 544.788 105.623 549.429 99.7159C550.273 98.5908 552.804 95.4969 556.883 94.5125C562.368 93.2468 567.008 96.4813 570.524 99.0127C577.275 103.654 580.509 109.56 583.181 114.342C585.009 117.717 587.4 122.78 588.947 129.39C590.354 131.218 591.76 133.327 593.166 135.437C594.994 138.249 596.541 140.921 597.807 143.453C595.979 137.828 595.276 133.046 595.135 129.811C594.854 126.296 594.573 123.061 595.557 118.983C596.12 116.17 596.963 112.795 599.635 109.701C600.76 108.435 603.714 105.06 608.495 104.638C614.261 104.076 618.48 108.013 619.043 108.576C620.871 111.248 623.262 115.045 625.512 120.108C626.918 123.483 627.762 126.014 628.887 129.671C630.153 133.609 631.559 139.093 632.966 145.844C636.2 158.923 638.591 169.892 640.278 178.049C643.372 192.956 644.919 200.409 645.341 206.316C645.622 209.269 646.888 224.88 647.873 234.302C648.013 235.427 648.295 238.24 648.998 241.756C649.841 245.975 650.685 248.928 651.107 250.194C651.107 250.194 660.108 298.853 661.514 305.462C663.202 313.057 665.592 324.167 667.28 338.23C668.968 352.293 668.405 356.512 671.077 368.607C672.483 375.076 673.89 379.436 674.171 380.561C675.155 383.514 678.109 392.796 684.297 403.765C686.547 407.844 689.641 412.906 693.719 418.532C633.95 418.813 574.04 419.094 514.13 419.235Z" fill="#E0E1E2"/>
<path d="M518.63 249.912C521.021 249.49 523.412 249.069 525.802 248.647C525.381 236.693 523.552 227.27 521.865 220.942C520.318 215.035 518.911 211.519 516.802 202.519C515.536 196.894 514.833 192.393 513.708 186.205C512.161 177.346 511.317 170.595 511.036 168.064C509.489 156.251 510.052 156.813 508.926 148.375C507.38 137.828 506.536 136.421 505.551 126.858C504.707 118.842 504.848 114.623 505.692 110.263C506.536 106.466 507.379 102.247 510.895 98.5909C511.88 97.4658 514.974 94.5125 519.896 93.5281C527.209 92.2624 532.834 96.7626 534.1 97.8877C538.178 101.122 539.725 105.201 541.272 109.138C541.694 110.263 542.819 113.357 543.944 121.514C544.507 125.592 545.069 131.218 545.21 137.968C546.616 140.781 548.585 144.859 550.695 149.781C555.476 160.891 558.148 169.611 560.961 178.752C562.367 183.533 565.602 194.643 568.696 209.129C570.383 216.864 571.508 223.473 572.211 228.677C572.774 228.395 573.337 228.114 573.899 227.833C572.915 220.661 571.93 213.207 571.086 205.753C570.243 198.3 569.961 190.706 568.274 179.033C567.992 176.924 567.711 175.236 567.571 174.111C565.742 169.611 563.914 164.689 562.086 159.344C560.398 154 558.992 148.797 557.726 144.015C554.773 138.109 552.382 132.905 550.695 128.686C547.179 120.389 546.616 118.139 546.335 116.029C545.913 112.935 545.069 105.482 549.71 99.5753C550.554 98.4502 553.085 95.3563 557.164 94.3719C562.648 93.1062 567.289 96.3407 570.805 98.8721C577.556 103.513 580.79 109.42 583.462 114.201C585.29 117.576 587.681 122.639 589.228 129.249C590.634 131.077 592.041 133.187 593.447 135.296C595.275 138.109 596.822 140.781 598.088 143.312C596.26 137.687 595.557 132.905 595.416 129.671C595.135 126.155 594.853 122.92 595.838 118.842C596.4 116.029 597.244 112.654 599.916 109.56C601.041 108.295 603.995 104.919 608.776 104.497C614.542 103.935 618.761 107.873 619.324 108.435C621.152 111.107 623.543 114.904 625.793 119.967C627.199 123.342 628.043 125.874 629.168 129.53C630.434 133.468 631.84 138.953 633.246 145.703C636.481 158.782 638.872 169.751 640.559 177.908C643.653 192.815 645.2 200.269 645.622 206.175C645.903 209.129 647.169 224.739 648.153 234.161C648.294 235.286 648.575 238.099 649.279 241.615C650.122 245.834 650.966 248.787 651.388 250.053C651.388 250.053 660.389 298.712 661.795 305.322C663.483 312.916 665.873 324.026 667.561 338.089C669.248 352.153 668.686 356.372 671.358 368.466C672.764 374.935 674.171 379.295 674.452 380.42C675.436 383.373 678.39 392.655 684.578 403.625C686.828 407.703 689.922 412.766 694 418.391" stroke="#808285" stroke-width="2" stroke-miterlimit="10"/>
<path d="M461.814 255.537C457.595 243.583 456.048 241.474 451.829 229.52C450.986 226.707 449.861 222.77 449.017 217.847C447.892 211.519 447.751 206.737 447.751 203.222C447.47 186.767 447.329 178.611 448.314 172.282C449.298 165.251 451.548 154.844 457.033 142.749C458.017 141.765 459.424 140.358 461.533 139.233C462.799 138.53 467.159 135.999 472.924 136.561C480.941 137.265 487.128 143.593 488.675 148.375C488.957 149.078 489.519 151.187 489.8 153.719C490.082 156.25 489.941 158.078 489.941 158.922C489.519 170.032 489.238 175.798 489.379 178.611C489.66 185.08 490.926 190.002 491.488 192.533C492.754 197.737 494.16 200.831 496.27 205.894C501.192 218.129 500.207 217.285 506.114 232.333C507.802 236.833 510.474 243.161 513.849 250.756C515.396 250.474 516.943 250.193 518.49 249.912" stroke="#2969D0" stroke-width="3" stroke-miterlimit="10" stroke-linecap="round"/>
<path d="M617.214 220.801C616.652 209.832 615.808 200.55 614.964 193.377C613.136 178.189 611.448 172.704 609.901 168.626C608.776 165.673 608.073 164.407 604.276 156.25C600.338 147.812 597.244 140.921 595.275 136.421" stroke="#808285" stroke-width="2" stroke-miterlimit="10"/>
<g opacity="0.5">
<path d="M422.297 247.943C422.86 247.803 423.001 247.099 423.141 246.537C423.282 245.974 423.282 245.412 423.282 244.849C423.282 244.709 423.282 244.568 423.282 244.427L423.141 244.005L422.86 243.162L422.297 241.474C421.454 239.365 420.891 237.114 420.188 234.864C419.485 232.614 419.063 230.364 418.078 228.395C417.657 227.411 416.953 226.567 416.11 225.864C415.266 225.161 414.281 224.457 413.156 224.457C414.281 224.317 415.547 224.879 416.531 225.442C417.516 226.145 418.5 226.989 419.063 227.973C419.766 228.958 420.188 230.083 420.469 231.208C420.891 232.333 421.172 233.458 421.454 234.442C422.157 236.693 422.719 238.943 423.141 241.193C423.282 241.755 423.423 242.318 423.423 242.88C423.423 243.162 423.563 243.443 423.563 243.724C423.563 243.865 423.563 244.005 423.563 244.146V244.568C423.563 245.131 423.423 245.693 423.282 246.256C423.282 247.099 423.001 247.803 422.297 247.943Z" fill="#AEB0B2"/>
</g>
<g opacity="0.5">
<path d="M458.58 148.234C458.299 149.499 458.158 150.765 458.439 151.89C458.58 152.031 458.721 152.031 459.143 152.031C459.424 152.031 459.705 151.89 459.986 151.89C460.549 151.75 461.111 151.609 461.815 151.328C464.205 150.484 466.737 149.921 469.268 149.359C471.8 148.937 474.331 148.656 476.862 148.515C477.425 148.515 477.987 148.374 477.987 148.093C478.128 147.531 478.128 146.827 478.269 146.265C478.409 144.999 478.55 143.733 478.409 142.468C478.831 143.733 478.831 144.999 478.972 146.265C478.972 146.968 478.972 147.531 478.972 148.234C478.972 148.374 478.972 148.374 478.972 148.515C478.831 148.796 478.831 148.796 478.691 148.937C478.55 149.078 478.269 149.218 478.128 149.359C477.706 149.499 477.425 149.499 477.003 149.64C474.472 149.921 471.94 150.343 469.549 150.765C467.018 151.187 464.627 151.609 462.096 152.171C461.533 152.312 460.83 152.453 460.127 152.453C459.846 152.453 459.424 152.453 459.143 152.453C459.002 152.453 458.861 152.453 458.58 152.453C458.299 152.453 458.158 152.171 458.158 152.031C457.877 150.765 458.158 149.499 458.58 148.234Z" fill="#AEB0B2"/>
</g>
<path d="M514.13 419.236C504.286 411.641 496.551 405.172 491.207 400.672C481.363 392.234 480.66 390.828 474.19 386.046C468.706 381.968 463.362 377.608 457.877 373.53C454.221 370.858 452.674 369.592 451.127 367.201C448.455 363.404 448.314 360.31 446.626 352.716C446.626 352.716 445.079 345.263 442.689 337.528C440.298 329.371 437.204 323.042 435.938 320.511C433.266 315.167 430.313 310.385 427.641 303.213C427.36 302.51 427.078 301.666 426.516 300.4C424.125 294.213 422.297 290.837 421.453 288.728C420.89 287.322 419.906 284.79 419.484 273.821C419.203 267.914 419.062 260.039 419.625 250.335C417.515 246.96 415.406 242.741 413.296 237.819C411.046 232.334 409.78 227.412 408.796 223.193C410.202 222.068 412.593 220.38 415.828 219.255C422.437 217.005 428.063 218.552 429.75 219.114C430.875 219.396 434.954 220.802 441.985 227.131C446.064 230.928 451.97 236.412 456.611 245.975C458.439 249.632 462.518 258.351 462.377 269.742C462.377 271.149 462.237 272.274 462.237 273.118C464.065 275.93 465.893 278.743 467.721 281.837C470.112 285.775 472.222 289.712 474.19 293.509C470.815 284.087 464.205 266.789 460.971 257.367" stroke="#808285" stroke-width="2" stroke-miterlimit="10"/>
<path opacity="0.33" d="M313.587 421.486C315.415 419.236 323.291 411.079 331.87 402.5C340.448 393.922 358.027 363.685 363.231 357.638C368.434 351.591 382.216 336.684 385.591 329.23C388.967 321.777 385.31 297.869 385.591 290.415C385.873 282.962 389.389 247.382 386.998 238.1C384.607 228.818 380.81 225.021 377.716 218.552C374.622 212.083 374.06 210.114 371.247 208.145C368.434 206.176 370.122 189.3 370.684 186.909C371.247 184.519 373.216 173.69 373.216 169.893C373.216 166.096 373.216 155.267 376.169 147.251C379.122 139.235 377.153 115.186 372.091 107.592C367.028 99.9979 362.949 98.1696 356.902 97.7477C350.855 97.3258 344.245 103.232 342.558 106.889C340.87 110.545 338.62 113.921 336.089 143.735C332.573 151.751 325.822 158.783 322.869 168.486C319.916 178.19 312.04 202.66 310.212 212.786C308.384 222.911 297.977 236.693 302.196 229.24C306.415 221.927 305.993 203.926 313.868 180.018C321.744 156.111 320.759 157.658 320.759 156.392C320.759 155.126 325.4 150.766 326.947 140.36C329.901 135.578 335.667 111.811 324.978 104.92C324.838 99.9979 321.603 96.6227 312.743 95.2163C303.883 93.81 300.649 96.0601 298.68 101.545C295.445 102.389 290.523 114.342 289.68 124.187C287.289 125.593 275.757 137.266 273.507 141.625C271.257 145.985 264.928 167.924 263.662 173.549C262.397 179.174 254.24 214.333 251.99 217.567C249.74 220.802 248.755 223.052 250.583 216.161C252.412 209.27 260.85 167.783 264.506 160.33C268.163 152.876 268.585 146.688 278.71 132.203C288.836 117.718 287.429 110.686 285.601 106.045C283.773 101.404 282.367 97.4665 273.788 96.0601C265.209 94.6538 260.287 101.826 260.287 101.826C260.287 101.826 255.084 103.373 242.567 116.874C239.895 111.67 236.239 107.733 236.239 107.733C236.239 107.733 233.567 102.107 225.973 100.982C218.378 99.8572 215.284 108.014 214.863 110.967C212.331 110.967 207.128 122.64 205.3 134.312C203.471 146.126 200.518 163.002 197.424 172.987C194.33 182.972 192.361 191.269 191.658 198.582C190.955 205.895 187.017 216.161 186.314 225.724C185.611 235.287 174.501 262.711 173.938 271.43C173.235 280.149 173.657 309.963 172.813 316.855C171.969 323.746 170.704 346.95 172.813 360.31C174.923 373.53 173.938 385.765 171.688 392.375C169.438 398.984 161 420.923 161 420.923H313.587V421.486Z" fill="#E0E1E2"/>
<path d="M313.587 421.486C315.415 419.236 323.291 411.079 331.87 402.5C340.448 393.922 358.027 363.685 363.231 357.638C368.434 351.591 382.216 336.684 385.591 329.23C388.967 321.777 385.31 297.869 385.591 290.415C385.873 282.962 389.389 247.382 386.998 238.1C384.607 228.818 380.81 225.021 377.716 218.552C374.622 212.083 374.06 210.114 371.247 208.145C368.434 206.176 370.122 189.3 370.684 186.909C371.247 184.519 373.216 173.69 373.216 169.893C373.216 166.096 373.216 155.267 376.169 147.251C379.122 139.235 377.153 115.186 372.091 107.592C367.028 99.9979 362.949 98.1696 356.902 97.7477C350.855 97.3258 344.245 103.232 342.558 106.889C340.87 110.545 338.62 113.921 336.089 143.735C332.573 151.751 325.822 158.783 322.869 168.486C319.916 178.19 312.04 202.66 310.212 212.786C308.384 222.911 297.977 236.693 302.196 229.24C306.415 221.927 305.993 203.926 313.868 180.018C321.744 156.111 320.759 157.658 320.759 156.392C320.759 155.126 325.4 150.766 326.947 140.36C329.901 135.578 335.667 111.811 324.978 104.92C324.838 99.9979 321.603 96.6227 312.743 95.2163C303.883 93.81 300.649 96.0601 298.68 101.545C295.445 102.389 290.523 114.342 289.68 124.187C287.289 125.593 275.757 137.266 273.507 141.625C271.257 145.985 264.928 167.924 263.662 173.549C262.397 179.174 254.24 214.333 251.99 217.567C249.74 220.802 248.755 223.052 250.583 216.161C252.412 209.27 260.85 167.783 264.506 160.33C268.163 152.876 268.585 146.688 278.71 132.203C288.836 117.718 287.429 110.686 285.601 106.045C283.773 101.404 282.367 97.4665 273.788 96.0601C265.209 94.6538 260.287 101.826 260.287 101.826C260.287 101.826 255.084 103.373 242.567 116.874C239.895 111.67 236.239 107.733 236.239 107.733C236.239 107.733 233.567 102.107 225.973 100.982C218.378 99.8572 215.284 108.014 214.863 110.967C212.331 110.967 207.128 122.64 205.3 134.312C203.471 146.126 200.518 163.002 197.424 172.987C194.33 182.972 192.361 191.269 191.658 198.582C190.955 205.895 187.017 216.161 186.314 225.724C185.611 235.287 174.501 262.711 173.938 271.43C173.235 280.149 173.657 309.963 172.813 316.855C171.969 323.746 170.704 346.95 172.813 360.31C174.923 373.53 173.938 385.765 171.688 392.375C169.438 398.984 161 420.923 161 420.923" stroke="#808285" stroke-width="2" stroke-miterlimit="10"/>
<path d="M201.784 222.068C205.722 217.849 208.956 211.38 209.238 204.629C209.519 197.879 208.816 162.861 217.676 149.501C226.536 136.141 242.708 117.437 242.708 117.437" stroke="#808285" stroke-width="2" stroke-miterlimit="10"/>
<path d="M358.871 304.057C356.902 300.401 354.512 298.01 354.512 295.197C354.512 292.385 356.059 260.18 357.746 248.648C359.293 237.116 367.169 203.786 369.841 196.895" stroke="#808285" stroke-width="2" stroke-miterlimit="10"/>
</svg>
