<svg width="900" height="500" viewBox="0 0 900 500" fill="none" xmlns="http://www.w3.org/2000/svg">
<path opacity="0.33" d="M350.977 429.161C356.313 422.383 372.176 398.876 377.224 391.088C382.271 383.301 393.664 356.765 398.423 350.708C403.182 344.651 408.951 337.008 406.355 319.125C403.904 301.243 401.74 295.042 403.183 269.516C404.625 243.99 400.154 238.942 394.241 226.684C393.087 219.329 391.213 217.31 388.473 215.147C388.905 210.099 391.501 190.053 393.087 179.814C394.818 169.575 391.357 172.748 393.087 150.971C394.818 129.195 388.905 113.764 385.156 109.293C384.579 104.967 380.397 100.063 372.753 98.4771C365.254 96.7465 358.332 103.669 358.332 106.697C355.88 107.563 348.093 118.234 351.986 153.134C343.478 173.469 338.142 194.38 336.988 201.446C335.69 208.513 329.921 240.384 327.614 239.086C325.307 237.788 334.536 207.359 337.276 188.467C340.016 169.575 342.901 156.451 344.631 147.51C346.362 138.569 346.506 109.293 336.7 105.688C334.392 98.3329 327.326 96.4581 320.836 96.0254C314.346 95.5928 308.866 100.784 308.722 103.813C305.838 104.823 302.809 118.811 304.107 138.28C297.617 145.203 288.82 167.123 279.014 215.291C279.014 215.291 282.186 168.421 288.243 149.241C294.445 130.06 298.915 122.561 295.31 111.889C297.041 106.842 292.281 103.092 285.792 101.073C279.302 99.0539 271.947 102.515 270.505 106.553C265.313 107.418 256.66 122.849 252.911 135.108C245.989 147.366 237.768 168.998 234.596 181.256C231.423 193.514 229.981 238.365 228.106 241.394C226.231 244.422 222.914 244.711 220.318 241.826C217.723 238.942 217.001 238.077 216.28 232.741C215.559 227.261 214.261 217.743 212.675 210.676C211.233 203.609 209.502 189.621 210.079 184.429C210.656 179.237 217.29 170.007 216.569 157.893C215.848 145.779 208.204 141.165 206.185 139.578C204.166 138.136 201.859 134.675 194.937 136.55C188.014 138.425 184.697 154.288 184.697 154.288C184.697 154.288 175.9 171.45 174.458 175.343C173.016 179.237 173.304 183.996 171.862 190.342C170.42 196.687 172.295 203.033 170.132 209.378C168.113 215.724 168.978 226.107 171.285 234.76C173.593 243.413 171.862 243.845 173.737 250.479C175.612 256.969 179.361 265.91 180.659 272.111C181.957 278.313 181.525 292.013 182.39 302.685C183.255 313.357 188.159 319.27 189.456 333.258C190.754 347.247 193.494 386.185 195.369 397.434C197.244 408.683 198.398 412.144 192.773 429.45H350.977V429.161Z" fill="#697695"/>
<path d="M350.977 429.161C356.313 422.383 372.176 398.876 377.224 391.088C382.271 383.301 393.664 356.765 398.423 350.708C403.182 344.651 408.951 337.008 406.355 319.125C403.904 301.243 401.74 295.042 403.183 269.516C404.625 243.99 400.154 238.942 394.241 226.684C393.087 219.329 391.213 217.31 388.473 215.147C388.905 210.099 391.501 190.053 393.087 179.814C394.818 169.575 391.357 172.748 393.087 150.971C394.818 129.195 388.905 113.764 385.156 109.293C384.579 104.967 380.397 100.063 372.753 98.4771C365.254 96.7465 358.332 103.669 358.332 106.697C355.88 107.563 348.093 118.234 351.986 153.134C343.478 173.469 338.142 194.38 336.988 201.446C335.69 208.513 329.921 240.384 327.614 239.086C325.307 237.788 334.536 207.359 337.276 188.467C340.016 169.575 342.901 156.451 344.631 147.51C346.362 138.569 346.506 109.293 336.7 105.688C334.392 98.3329 327.326 96.4581 320.836 96.0254C314.346 95.5928 308.866 100.784 308.722 103.813C305.838 104.823 302.809 118.811 304.107 138.28C297.617 145.203 288.82 167.123 279.014 215.291C279.014 215.291 282.186 168.421 288.243 149.241C294.445 130.06 298.915 122.561 295.31 111.889C297.041 106.842 292.281 103.092 285.792 101.073C279.302 99.0539 271.947 102.515 270.505 106.553C265.313 107.418 256.66 122.849 252.911 135.108C245.989 147.366 237.768 168.998 234.596 181.256C231.423 193.514 229.981 238.365 228.106 241.394C226.231 244.422 222.914 244.711 220.318 241.826C217.723 238.942 217.001 238.077 216.28 232.741C215.559 227.261 214.261 217.743 212.675 210.676C211.233 203.609 209.502 189.621 210.079 184.429C210.656 179.237 217.29 170.007 216.569 157.893C215.848 145.779 208.204 141.165 206.185 139.578C204.166 138.136 201.859 134.675 194.937 136.55C188.014 138.425 184.697 154.288 184.697 154.288C184.697 154.288 175.9 171.45 174.458 175.343C173.016 179.237 173.304 183.996 171.862 190.342C170.42 196.687 172.295 203.033 170.132 209.378C168.113 215.724 168.978 226.107 171.285 234.76C173.593 243.413 171.862 243.845 173.737 250.479C175.612 256.969 179.361 265.91 180.659 272.111C181.957 278.313 181.525 292.013 182.39 302.685C183.255 313.357 188.159 319.27 189.456 333.258C190.754 347.247 193.494 386.185 195.369 397.434C197.244 408.683 198.398 412.144 192.773 429.45" stroke="#445272" stroke-width="2" stroke-miterlimit="10"/>
<path d="M220.462 241.539C217.866 238.511 217.145 237.789 216.424 232.454C215.703 226.973 214.405 217.455 212.819 210.389C211.376 203.322 209.646 189.333 210.223 184.142C210.8 178.95 217.433 169.72 216.712 157.606C215.991 145.492 208.348 140.877 206.329 139.291C204.31 137.849 202.002 134.388 195.08 136.262C188.158 138.137 184.841 154.001 184.841 154.001C184.841 154.001 176.044 171.162 174.602 175.056C173.16 178.95 173.448 183.709 172.006 190.054C170.564 196.4 172.438 202.745 170.275 209.091C168.256 215.436 169.122 225.82 171.429 234.473C173.736 243.125 172.006 243.558 173.881 250.192C175.755 256.682 179.505 265.623 180.803 271.824" stroke="#BA6DCD" stroke-width="3" stroke-miterlimit="10" stroke-linecap="round"/>
<g opacity="0.5">
<path d="M188.159 155.298C189.89 154.865 191.765 154.865 193.495 154.433C195.226 154 196.668 153.279 197.966 152.125C199.264 151.116 200.562 149.818 201.715 148.376C202.292 147.655 202.869 146.933 203.446 146.357C204.023 145.636 204.455 144.914 205.176 144.193C204.888 145.059 204.455 145.924 204.023 146.789C203.59 147.655 203.157 148.376 202.581 149.241C201.571 150.827 200.273 152.269 198.831 153.423C197.389 154.577 195.514 155.442 193.639 155.586C191.765 155.875 190.034 155.298 188.159 155.298Z" fill="#B1BBD0"/>
</g>
<path d="M378.81 291.581C378.522 280.909 377.079 261.007 378.81 249.037C380.541 237.212 388.617 215.291 388.617 215.291" stroke="#445272" stroke-width="2" stroke-miterlimit="10"/>
<path d="M271.658 238.798C274.687 232.164 278.436 222.79 279.013 215.146" stroke="#445272" stroke-width="2" stroke-miterlimit="10"/>
<path opacity="0.33" d="M513.67 404.952C511.487 400.859 508.077 394.857 503.848 387.763C495.799 374.258 496.754 376.441 494.162 371.939C488.978 362.799 487.75 359.525 483.522 354.341C482.157 352.704 482.703 353.659 475.337 346.293C467.424 338.517 466.197 336.88 465.378 335.789C463.878 333.879 462.923 332.242 458.83 323.92C455.42 316.963 453.646 313.553 451.873 309.597C444.234 293.09 443.552 288.589 437.413 276.584C436.867 275.493 434.275 271.4 431.41 265.398C431.274 264.988 430.728 264.17 430.183 262.806C429.501 261.032 429.364 259.395 429.228 258.44C428.682 251.347 429.501 242.207 429.501 242.207C430.183 234.431 430.728 228.702 430.455 221.471C430.455 220.517 430.319 218.47 429.91 214.514C429.228 205.784 428.819 197.053 428.136 188.322C428 187.504 427.864 185.73 428.273 183.548C428.409 182.866 428.955 179.864 430.865 176.318C431.82 174.817 432.638 173.589 434.548 171.679C436.458 169.497 439.323 166.632 442.869 163.494C443.552 162.267 444.643 160.63 446.143 158.993C447.371 157.765 448.462 156.674 449.554 155.991C450.099 154.082 450.645 152.581 451.191 151.353C452.282 148.898 453.51 147.261 454.056 146.715C454.465 146.033 454.874 145.624 455.283 145.215C454.328 141.258 452.964 135.665 451.6 128.981C450.236 121.751 448.599 113.429 447.917 102.789C447.508 96.7866 447.917 98.8329 447.508 82.0536C447.235 73.0501 446.962 68.2755 446.962 59.4084C446.962 51.2234 447.098 46.5853 448.463 40.7193C449.554 36.354 450.918 32.8072 452.964 29.3967C455.01 26.1227 456.648 23.3944 460.194 21.7574C464.287 19.7112 469.198 19.8476 472.881 21.7574C474.791 22.7123 476.019 23.9401 477.929 25.8499C481.066 28.9875 482.703 32.1251 482.976 32.6707C484.34 35.3991 484.886 37.8546 485.431 39.7644C485.977 42.2199 486.25 44.2662 486.386 47.1309C486.659 52.3148 486.659 54.6338 486.659 61.3182C486.796 69.7761 487.068 71.5495 487.205 72.6408C487.751 76.1877 488.705 78.6432 489.797 81.9172C491.707 87.6467 492.798 89.0108 494.981 94.8768C496.618 99.2421 497.573 102.789 498.118 104.699C499.21 108.655 500.983 115.203 501.938 122.842C502.211 124.752 502.484 128.572 503.711 133.619C503.984 134.983 504.257 135.938 504.53 136.757C506.167 136.757 507.804 136.62 509.441 136.62C510.259 135.393 511.351 133.619 512.169 131.3C512.988 128.981 513.26 126.798 513.26 125.298C514.488 118.204 515.443 110.428 515.989 101.834C516.398 95.6953 516.398 89.9658 516.262 84.5091C515.989 81.7808 515.852 77.9611 516.534 73.3229C516.944 71.2767 517.489 68.1391 519.126 64.7287C520.081 62.8188 523.082 56.6801 530.313 52.8604C538.361 48.4951 546.273 49.9957 548.729 50.5413C550.229 50.8142 557.05 52.4512 563.053 58.3171C566.054 61.3183 567.827 64.3194 568.918 66.3657C569.055 67.1842 569.328 68.0027 569.464 68.8212C569.601 74.5507 569.737 80.4166 569.737 86.1461C572.329 83.6906 574.784 81.7808 576.694 80.553C579.286 78.7796 581.06 77.6883 583.651 76.8698C585.971 76.1877 587.88 76.1877 590.199 76.3241C593.337 76.3241 597.975 76.4605 603.432 78.7796C605.887 79.8709 608.752 81.0987 611.208 84.0999C612.845 86.0097 613.663 87.9195 614.209 89.2837C614.891 88.3288 615.846 86.9646 617.346 85.7368C618.983 84.2363 621.575 81.9172 625.259 81.6443C628.942 81.3715 631.67 83.2813 632.761 83.9634C636.718 86.8282 638.355 91.1935 639.446 94.1947C639.855 95.1496 639.992 95.9681 640.128 96.5138C641.083 97.4687 642.447 98.8328 643.811 100.606C645.175 102.38 646.13 104.153 646.949 106.063C647.904 108.109 649.95 113.293 651.451 122.024C651.86 124.752 652.405 128.435 652.678 132.801C653.36 134.574 653.906 136.893 654.315 139.758C654.588 142.623 654.452 144.942 654.315 146.852C652.405 158.993 650.359 166.223 648.859 170.724C647.358 174.953 646.676 177 645.312 181.229C643.675 186.412 643.266 188.049 642.993 189.414C642.038 193.779 642.038 196.78 641.901 199.918C641.765 203.601 641.356 212.059 639.037 220.926C637.536 226.792 636.172 228.838 635.353 235.25C635.081 237.432 634.944 239.342 634.808 243.025C634.398 250.528 634.671 253.666 634.535 259.532C634.535 261.987 634.398 267.444 633.58 273.856C632.489 282.995 631.397 284.769 630.17 294.045C629.76 297.046 629.215 302.23 629.078 308.232C628.805 321.192 630.442 331.014 630.988 333.47C632.761 342.746 635.353 349.703 640.674 361.708C645.585 373.03 652.405 387.627 661 404.679C612.026 404.816 562.78 404.816 513.67 404.952Z" fill="#697695"/>
<g opacity="0.5">
<path d="M455.556 31.033C455.693 32.5336 455.829 34.0342 456.102 35.5348C456.238 36.2169 456.375 37.0354 456.648 37.7175C456.784 37.9903 456.92 38.3995 457.193 38.6724C457.33 38.8088 457.466 38.9452 457.466 38.9452C457.603 39.0816 457.739 39.0816 457.875 39.218C459.103 39.7637 460.604 39.9001 462.104 40.0365C463.605 40.173 465.105 40.173 466.606 40.173C468.107 40.173 469.607 39.9001 470.971 39.6273C472.472 39.3545 473.836 38.9452 474.927 38.1267C475.473 37.7175 476.019 37.1718 476.292 36.6261C476.564 35.944 476.701 35.262 476.701 34.5799C476.837 33.0793 476.701 31.5787 476.837 30.0781C477.11 31.5787 477.247 33.0793 477.383 34.5799C477.383 35.3984 477.383 36.2169 477.11 37.0354C476.837 37.8539 476.292 38.536 475.61 39.0816C474.245 40.173 472.745 40.5822 471.244 40.9915C469.744 41.4007 468.107 41.5371 466.606 41.5371C465.105 41.5371 463.468 41.5371 461.968 41.4007C460.467 41.1279 458.83 40.9915 457.33 40.173C456.92 40.0365 456.511 39.6273 456.375 39.218C456.102 38.8088 455.966 38.3995 455.829 38.1267C455.556 37.3082 455.42 36.6261 455.42 35.8076C455.42 34.1706 455.42 32.67 455.556 31.033Z" fill="#B1BBD0"/>
</g>
<path d="M513.67 404.952C511.487 400.86 508.077 394.857 503.848 387.764C495.799 374.259 496.754 376.441 494.162 371.939C488.978 362.8 487.75 359.526 483.522 354.342C482.157 352.705 482.703 353.66 475.337 346.293C467.424 338.517 466.197 336.88 465.378 335.789C463.878 333.879 462.923 332.242 458.83 323.921C455.42 316.963 453.646 313.553 451.873 309.597C444.234 293.091 443.552 288.589 437.413 276.584C436.867 275.493 434.275 271.4 431.41 265.398C431.274 264.989 430.728 264.17 430.183 262.806C429.501 261.033 429.364 259.396 429.228 258.441C428.682 251.347 429.501 242.207 429.501 242.207C430.183 234.431 430.728 228.702 430.455 221.472C430.455 220.517 430.319 218.471 429.91 214.515C429.228 205.784 428.819 197.053 428.136 188.323C428 187.504 427.864 185.731 428.273 183.548C428.409 182.866 428.955 179.865 430.865 176.318C431.82 174.817 432.638 173.59 434.548 171.68C436.458 169.497 439.323 166.632 442.869 163.495C443.552 162.267 444.643 160.63 446.143 158.993C447.371 157.765 448.462 156.674 449.554 155.992C450.099 154.082 450.645 152.581 451.191 151.354C452.282 148.898 453.51 147.261 454.056 146.715C454.465 146.033 454.874 145.624 455.283 145.215" stroke="#445272" stroke-width="2" stroke-miterlimit="10"/>
<path d="M506.713 136.483C507.668 136.483 508.486 136.347 509.441 136.347C510.26 135.119 511.351 133.345 512.17 131.026C512.988 128.707 513.261 126.525 513.261 125.024C514.489 117.93 515.444 110.155 515.989 101.56C516.399 95.4216 516.398 89.6921 516.262 84.2354C515.989 81.5071 515.853 77.6874 516.535 73.0493C516.944 71.003 517.49 67.8654 519.127 64.455C520.082 62.5452 523.083 56.4064 530.313 52.5868C538.362 48.2214 546.274 49.722 548.729 50.2677C550.23 50.5405 557.051 52.1775 563.053 58.0434C566.054 61.0446 567.828 64.0458 568.919 66.092C569.055 66.9105 569.328 67.729 569.465 68.5475C569.601 74.277 569.737 80.1429 569.737 85.8724C572.329 83.4169 574.785 81.5071 576.695 80.2794C579.287 78.5059 581.06 77.4146 583.652 76.5961C585.971 75.914 587.881 75.914 590.2 76.0504C593.338 76.0504 597.976 76.1868 603.432 78.5059C605.888 79.5973 608.753 80.825 611.208 83.8262C612.845 85.736 613.664 87.6458 614.209 89.01C614.891 88.0551 615.846 86.6909 617.347 85.4632C618.984 83.9626 621.576 81.6435 625.259 81.3707C628.942 81.0979 631.671 83.0077 632.762 83.6898C636.718 86.5545 638.355 90.9199 639.446 93.921C639.856 94.8759 639.992 95.6944 640.128 96.2401C641.083 97.195 642.448 98.5592 643.812 100.333C645.176 102.106 646.131 103.879 646.949 105.789C647.904 107.836 649.95 113.019 651.451 121.75C651.86 124.478 652.406 128.162 652.679 132.527C653.361 134.3 653.907 136.619 654.316 139.484C654.589 142.349 654.452 144.668 654.316 146.578C652.406 158.719 650.36 165.949 648.859 170.451C647.359 174.68 646.676 176.726 645.312 180.955C643.675 186.139 643.266 187.776 642.993 189.14C642.038 193.505 642.038 196.506 641.902 199.644C641.765 203.327 641.356 211.785 639.037 220.652C637.537 226.518 636.172 228.564 635.354 234.976C635.081 237.159 634.945 239.068 634.808 242.752C634.399 250.255 634.672 253.392 634.535 259.258C634.535 261.714 634.399 267.17 633.58 273.582C632.489 282.722 631.398 284.495 630.17 293.771C629.761 296.773 629.215 301.957 629.079 307.959C628.806 320.918 630.443 330.74 630.989 333.196C632.762 342.472 635.354 349.429 640.674 361.434C645.585 372.757 652.406 387.353 661 404.405" stroke="#445272" stroke-width="2" stroke-miterlimit="10"/>
<path d="M449.009 225.153C450.509 222.834 452.692 219.423 454.329 214.785C455.148 212.603 456.102 209.192 456.921 201.007C457.467 196.096 457.603 192.959 457.739 185.046C458.012 176.861 458.149 172.087 458.285 168.949" stroke="#445272" stroke-width="2" stroke-miterlimit="10"/>
<path d="M458.284 168.95C458.421 164.858 458.284 163.63 458.148 161.857C457.875 157.628 456.647 151.216 455.147 144.941C454.192 140.985 452.828 135.392 451.463 128.708C450.099 121.477 448.462 113.156 447.78 102.516C447.371 96.5132 447.78 98.5594 447.371 81.7802C447.098 72.7766 446.825 68.0021 446.825 59.135C446.825 50.95 446.962 46.3118 448.326 40.4459C449.417 36.0806 450.781 32.5337 452.828 29.1233C454.874 25.8493 456.511 23.121 460.058 21.484C464.15 19.4377 469.061 19.5741 472.744 21.484C474.654 22.4389 475.882 23.6666 477.792 25.5765C480.929 28.7141 482.566 31.8516 482.839 32.3973C484.203 35.1256 484.749 37.5812 485.295 39.491C485.84 41.9465 486.113 43.9927 486.25 46.8575C486.522 52.0413 486.522 54.3604 486.522 61.0448C486.659 69.5027 486.932 71.2761 487.068 72.3674C487.614 75.9142 488.569 78.3697 489.66 81.6437C491.57 87.3732 492.661 88.7374 494.844 94.6033C496.481 98.9687 497.436 102.516 497.981 104.425C499.073 108.381 500.846 114.929 501.801 122.569C502.074 124.479 502.347 128.298 503.575 133.346C503.847 134.71 504.12 135.665 504.393 136.483C505.212 136.483 505.894 136.483 506.712 136.347" stroke="#BA6DCD" stroke-width="3" stroke-miterlimit="10" stroke-linecap="round"/>
<path d="M568.646 143.032C564.963 137.166 566.054 128.299 566.327 124.206C567.282 111.383 568.373 98.2873 569.874 86.0098" stroke="#445272" stroke-width="2" stroke-miterlimit="10"/>
<path d="M607.252 160.493C612.163 136.074 615.301 117.521 616.392 109.746C616.665 107.154 617.21 102.788 616.528 97.3318C615.983 93.5121 615.164 91.3295 614.346 89.2832" stroke="#445272" stroke-width="2" stroke-miterlimit="10"/>
<path d="M615.573 115.477C616.255 120.388 616.392 125.708 616.528 129.255C616.528 129.664 611.89 139.895 610.799 143.033" stroke="#445272" stroke-width="2" stroke-miterlimit="10"/>
</svg>
