<svg width="900" height="500" viewBox="0 0 900 500" fill="none" xmlns="http://www.w3.org/2000/svg">
<path opacity="0.33" d="M350.977 429.161C356.313 422.383 372.176 398.876 377.224 391.088C382.271 383.301 393.664 356.765 398.423 350.708C403.182 344.651 408.951 337.008 406.355 319.125C403.904 301.243 401.74 295.042 403.183 269.516C404.625 243.99 400.154 238.942 394.241 226.684C393.087 219.329 391.213 217.31 388.473 215.147C388.905 210.099 391.501 190.053 393.087 179.814C394.818 169.575 391.357 172.748 393.087 150.971C394.818 129.195 388.905 113.764 385.156 109.293C384.579 104.967 380.397 100.063 372.753 98.4771C365.254 96.7465 358.332 103.669 358.332 106.697C355.88 107.563 348.093 118.234 351.986 153.134C343.478 173.469 338.142 194.38 336.988 201.446C335.69 208.513 329.921 240.384 327.614 239.086C325.307 237.788 334.536 207.359 337.276 188.467C340.016 169.575 342.901 156.451 344.631 147.51C346.362 138.569 346.506 109.293 336.7 105.688C334.392 98.3329 327.326 96.4581 320.836 96.0254C314.346 95.5928 308.866 100.784 308.722 103.813C305.838 104.823 302.809 118.811 304.107 138.28C297.617 145.203 288.82 167.123 279.014 215.291C279.014 215.291 282.186 168.421 288.243 149.241C294.445 130.06 298.915 122.561 295.31 111.889C297.041 106.842 292.281 103.092 285.792 101.073C279.302 99.0539 271.947 102.515 270.505 106.553C265.313 107.418 256.66 122.849 252.911 135.108C245.989 147.366 237.768 168.998 234.596 181.256C231.423 193.514 229.981 238.365 228.106 241.394C226.231 244.422 222.914 244.711 220.318 241.826C217.723 238.942 217.001 238.077 216.28 232.741C215.559 227.261 214.261 217.743 212.675 210.676C211.233 203.609 209.502 189.621 210.079 184.429C210.656 179.237 217.29 170.007 216.569 157.893C215.848 145.779 208.204 141.165 206.185 139.578C204.166 138.136 201.859 134.675 194.937 136.55C188.014 138.425 184.697 154.288 184.697 154.288C184.697 154.288 175.9 171.45 174.458 175.343C173.016 179.237 173.304 183.996 171.862 190.342C170.42 196.687 172.295 203.033 170.132 209.378C168.113 215.724 168.978 226.107 171.285 234.76C173.593 243.413 171.862 243.845 173.737 250.479C175.612 256.969 179.361 265.91 180.659 272.111C181.957 278.313 181.525 292.013 182.39 302.685C183.255 313.357 188.159 319.27 189.456 333.258C190.754 347.247 193.494 386.185 195.369 397.434C197.244 408.683 198.398 412.144 192.773 429.45H350.977V429.161Z" fill="#E0E1E2"/>
<path d="M350.977 429.161C356.313 422.383 372.176 398.876 377.224 391.088C382.271 383.301 393.664 356.765 398.423 350.708C403.182 344.651 408.951 337.008 406.355 319.125C403.904 301.243 401.74 295.042 403.183 269.516C404.625 243.99 400.154 238.942 394.241 226.684C393.087 219.329 391.213 217.31 388.473 215.147C388.905 210.099 391.501 190.053 393.087 179.814C394.818 169.575 391.357 172.748 393.087 150.971C394.818 129.195 388.905 113.764 385.156 109.293C384.579 104.967 380.397 100.063 372.753 98.4771C365.254 96.7465 358.332 103.669 358.332 106.697C355.88 107.563 348.093 118.234 351.986 153.134C343.478 173.469 338.142 194.38 336.988 201.446C335.69 208.513 329.921 240.384 327.614 239.086C325.307 237.788 334.536 207.359 337.276 188.467C340.016 169.575 342.901 156.451 344.631 147.51C346.362 138.569 346.506 109.293 336.7 105.688C334.392 98.3329 327.326 96.4581 320.836 96.0254C314.346 95.5928 308.866 100.784 308.722 103.813C305.838 104.823 302.809 118.811 304.107 138.28C297.617 145.203 288.82 167.123 279.014 215.291C279.014 215.291 282.186 168.421 288.243 149.241C294.445 130.06 298.915 122.561 295.31 111.889C297.041 106.842 292.281 103.092 285.792 101.073C279.302 99.0539 271.947 102.515 270.505 106.553C265.313 107.418 256.66 122.849 252.911 135.108C245.989 147.366 237.768 168.998 234.596 181.256C231.423 193.514 229.981 238.365 228.106 241.394C226.231 244.422 222.914 244.711 220.318 241.826C217.723 238.942 217.001 238.077 216.28 232.741C215.559 227.261 214.261 217.743 212.675 210.676C211.233 203.609 209.502 189.621 210.079 184.429C210.656 179.237 217.29 170.007 216.569 157.893C215.848 145.779 208.204 141.165 206.185 139.578C204.166 138.136 201.859 134.675 194.937 136.55C188.014 138.425 184.697 154.288 184.697 154.288C184.697 154.288 175.9 171.45 174.458 175.343C173.016 179.237 173.304 183.996 171.862 190.342C170.42 196.687 172.295 203.033 170.132 209.378C168.113 215.724 168.978 226.107 171.285 234.76C173.593 243.413 171.862 243.845 173.737 250.479C175.612 256.969 179.361 265.91 180.659 272.111C181.957 278.313 181.525 292.013 182.39 302.685C183.255 313.357 188.159 319.27 189.456 333.258C190.754 347.247 193.494 386.185 195.369 397.434C197.244 408.683 198.398 412.144 192.773 429.45" stroke="#75819C" stroke-width="2" stroke-miterlimit="10"/>
<path d="M220.462 241.539C217.866 238.511 217.145 237.789 216.424 232.454C215.703 226.973 214.405 217.455 212.819 210.389C211.376 203.322 209.646 189.333 210.223 184.142C210.8 178.95 217.433 169.72 216.712 157.606C215.991 145.492 208.348 140.877 206.329 139.291C204.31 137.849 202.002 134.388 195.08 136.262C188.158 138.137 184.841 154.001 184.841 154.001C184.841 154.001 176.044 171.162 174.602 175.056C173.16 178.95 173.448 183.709 172.006 190.054C170.564 196.4 172.438 202.745 170.275 209.091C168.256 215.436 169.122 225.82 171.429 234.473C173.736 243.125 172.006 243.558 173.881 250.192C175.755 256.682 179.505 265.623 180.803 271.824" stroke="#F69AED" stroke-width="3" stroke-miterlimit="10" stroke-linecap="round"/>
<g opacity="0.5">
<path d="M188.159 155.298C189.89 154.865 191.765 154.865 193.495 154.433C195.226 154 196.668 153.279 197.966 152.125C199.264 151.116 200.562 149.818 201.715 148.376C202.292 147.655 202.869 146.933 203.446 146.357C204.023 145.636 204.455 144.914 205.176 144.193C204.888 145.059 204.455 145.924 204.023 146.789C203.59 147.655 203.157 148.376 202.581 149.241C201.571 150.827 200.273 152.269 198.831 153.423C197.389 154.577 195.514 155.442 193.639 155.586C191.765 155.875 190.034 155.298 188.159 155.298Z" fill="#75819C"/>
</g>
<path d="M378.81 291.581C378.522 280.909 377.079 261.007 378.81 249.037C380.541 237.212 388.617 215.291 388.617 215.291" stroke="#75819C" stroke-width="2" stroke-miterlimit="10"/>
<path d="M271.658 238.798C274.687 232.164 278.436 222.79 279.013 215.146" stroke="#75819C" stroke-width="2" stroke-miterlimit="10"/>
<path opacity="0.33" d="M557.235 429.275C555.785 426.087 553.321 421.304 549.553 416.376C545.494 411.158 541.871 408.259 538.827 405.505C534.914 401.881 530.42 396.084 521.724 384.488C498.098 353.036 499.693 351.732 493.025 346.369C490.996 344.774 486.503 341.441 483.169 335.498C480.705 331.005 479.546 326.657 478.821 323.178C477.517 317.67 477.951 316.076 477.082 310.133C476.937 308.684 475.632 300.857 472.589 292.016C469.545 283.609 467.661 282.449 464.907 274.188C463.022 268.825 462.008 264.187 461.573 261.143C460.559 259.549 459.254 257.375 458.384 254.621C457.95 253.316 457.805 252.157 457.66 250.997C456.935 249.403 455.92 247.084 455.486 244.185C454.906 240.851 455.196 237.952 455.486 236.068L455.341 212.588C453.891 208.094 452.587 204.471 451.572 202.007C448.818 194.905 446.934 191.136 445.195 184.614C444.615 182.295 444.18 180.266 444.035 179.106C444.905 178.671 445.919 178.236 446.789 177.657C448.528 176.207 451.282 174.323 455.051 173.453C461.863 172.004 467.371 174.903 471.719 177.222C473.893 178.381 483.459 183.744 491.141 195.919C496.069 203.746 498.243 211.138 501.867 223.748C503.026 227.806 503.896 231.285 504.476 233.604C506.505 235.778 509.114 238.967 511.433 243.315C513.897 247.953 512.737 245.924 515.636 255.2C509.549 233.604 501.577 213.747 494.62 193.165C493.75 187.223 492.591 179.396 490.996 170.12C490.706 168.525 490.416 166.641 489.982 164.177C487.663 150.263 486.358 144.61 485.633 140.407C484.764 135.189 483.894 124.898 486.213 113.593C486.793 111.129 487.518 108.23 489.837 105.476C490.272 104.896 495.055 99.3883 502.157 99.5332C506.215 99.6781 508.824 101.562 513.607 104.896C515.926 106.49 518.1 108.085 519.985 110.694C522.593 114.172 523.173 117.796 523.753 120.26C523.753 120.26 526.217 132 529.551 142.436C531.725 149.538 534.334 154.756 536.363 158.669C539.697 165.337 541.146 167.076 544.625 173.598C547.234 178.526 548.683 181.715 553.901 194.035C558.829 205.63 562.887 215.342 565.931 222.589C566.946 222.154 568.395 221.284 569.7 219.545C571.874 216.791 571.874 213.602 571.874 211.573C572.164 193.745 573.758 192.296 571.874 186.208C571.439 184.759 570.569 182.295 569.555 178.236C568.83 175.338 568.25 172.874 567.96 171.279C564.771 169.25 562.307 167.366 560.423 165.916C553.321 160.409 552.017 157.945 551.437 156.785C550.857 155.336 550.277 153.451 550.277 149.973C550.277 144.03 550.132 134.174 557.235 126.347C562.307 120.84 568.395 118.955 573.033 117.651C579.121 115.912 584.339 115.767 587.817 115.912C587.382 114.027 586.948 111.129 587.237 107.795C587.382 106.201 587.672 104.026 588.687 101.707C591.151 96.3445 596.224 94.1704 596.804 94.0254C603.181 91.4165 609.124 94.1704 611.298 95.3299C614.197 96.6344 616.226 98.5186 617.675 99.968C618.4 100.693 619.27 101.273 620.284 101.707C622.458 102.577 626.227 104.026 627.531 104.751C628.691 103.447 630.43 101.852 632.024 100.548C632.459 100.113 632.894 99.8231 633.329 99.5332C633.619 98.5186 634.199 96.1995 636.228 94.3153C639.996 90.9816 645.214 92.1412 646.084 92.4311C650.867 93.5906 653.331 97.3591 653.911 98.2287C654.925 99.968 656.085 101.852 657.099 103.592C658.984 106.635 661.592 110.984 664.346 116.346C665.216 118.086 666.81 121.274 669.274 127.072C673.188 136.058 673.333 137.653 676.666 145.48C681.305 156.785 682.464 157.22 686.233 167.076C687.537 170.41 689.131 174.903 690.871 180.845C691.595 183.309 692.755 187.948 694.784 199.833C697.393 214.762 696.668 214.182 698.263 221.864C699.567 227.806 699.857 227.372 704.06 242.301C707.249 253.896 708.988 259.694 709.568 264.477C710.583 271.579 710.438 277.087 710.293 285.058C710.148 294.045 709.568 295.639 709.133 306.22C708.843 314.916 709.133 315.351 708.988 326.222C708.843 341.731 707.829 353.761 707.684 356.66C706.524 371.589 705.8 370.284 705.22 381.734C705.22 381.734 704.64 394.054 706.09 409.563C706.379 411.737 706.669 414.636 707.539 418.26C708.843 423.333 710.728 427.246 712.032 430C660.433 429.42 608.834 429.275 557.235 429.275Z" fill="#E0E1E2"/>
<path d="M557.235 429.276C555.785 426.087 553.321 421.304 549.553 416.376C545.494 411.158 541.871 408.26 538.827 405.506C534.914 401.882 530.42 396.085 521.724 384.489C498.098 353.037 499.693 351.732 493.025 346.37C490.996 344.775 486.503 341.442 483.169 335.499C480.705 331.006 479.546 326.657 478.821 323.179C477.517 317.671 477.951 316.077 477.082 310.134C476.937 308.685 475.632 300.858 472.589 292.016C469.545 283.61 467.661 282.45 464.907 274.189C463.022 268.826 462.008 264.188 461.573 261.144C460.559 259.55 459.254 257.375 458.384 254.622C457.95 253.317 457.805 252.158 457.66 250.998C456.935 249.404 455.92 247.085 455.486 244.186C454.906 240.852 455.196 237.953 455.486 236.069L455.341 212.588C453.891 208.095 452.587 204.472 451.572 202.008C448.818 194.906 446.934 191.137 445.195 184.615C444.615 182.296 444.18 180.267 444.035 179.107C444.905 178.672 445.919 178.237 446.789 177.658C448.528 176.208 451.282 174.324 455.051 173.454C461.863 172.005 467.371 174.904 471.719 177.223C473.893 178.382 483.459 183.745 491.141 195.92C496.069 203.747 498.243 211.139 501.867 223.749C503.026 227.807 503.896 231.286 504.476 233.605C506.505 235.779 509.114 238.968 511.433 243.316C513.897 247.954 512.737 245.925 515.636 255.201C509.549 233.605 501.577 213.748 494.62 193.166C493.75 187.224 492.591 179.397 490.996 170.121C490.706 168.526 490.416 166.642 489.982 164.178C487.663 150.264 486.358 144.611 485.633 140.408C484.764 135.19 483.894 124.899 486.213 113.593C486.793 111.129 487.518 108.231 489.837 105.477C490.272 104.897 495.055 99.3891 502.157 99.5341C506.215 99.679 508.824 101.563 513.607 104.897C515.926 106.491 518.1 108.086 519.985 110.695C522.593 114.173 523.173 117.797 523.753 120.261C523.753 120.261 526.217 132.001 529.551 142.437C531.725 149.539 534.334 154.757 536.363 158.67C539.697 165.338 541.146 167.077 544.625 173.599C547.234 178.527 548.683 181.716 553.901 194.036C558.829 205.631 562.887 215.342 565.931 222.589C566.656 222.3 567.67 221.72 568.54 220.85" stroke="#75819C" stroke-width="2" stroke-miterlimit="10"/>
<path d="M587.527 115.912C587.092 114.027 586.657 111.129 586.947 107.795C587.092 106.201 587.382 104.026 588.397 101.707C590.861 96.3445 595.934 94.1704 596.514 94.0254C602.891 91.4165 608.834 94.1704 611.008 95.3299C613.907 96.6344 615.936 98.5186 617.385 99.968C618.11 100.693 618.979 101.273 619.994 101.707C622.168 102.577 625.937 104.026 627.241 104.751C628.401 103.447 630.14 101.852 631.734 100.548C632.169 100.113 632.604 99.8231 633.039 99.5332C633.329 98.5186 633.908 96.1995 635.938 94.3153C639.706 90.9816 644.924 92.1412 645.794 92.4311C650.577 93.5906 653.041 97.3591 653.621 98.2287C654.635 99.968 655.795 101.852 656.809 103.592C658.693 106.635 661.302 110.984 664.056 116.346C664.926 118.086 666.52 121.274 668.984 127.072C672.898 136.058 673.043 137.653 676.376 145.48C681.014 156.785 682.174 157.22 685.942 167.076C687.247 170.41 688.841 174.903 690.581 180.845C691.305 183.309 692.465 187.948 694.494 199.833C697.103 214.762 696.378 214.182 697.973 221.864C699.277 227.806 699.567 227.372 703.77 242.301C706.959 253.896 708.698 259.694 709.278 264.477C710.293 271.579 710.148 277.087 710.003 285.058C709.858 294.045 709.278 295.639 708.843 306.22C708.553 314.916 708.843 315.351 708.698 326.222C708.553 341.731 707.539 353.761 707.394 356.66C706.234 371.589 705.51 370.284 704.93 381.734C704.93 381.734 704.35 394.054 705.799 409.563C706.089 411.737 706.379 414.636 707.249 418.26C708.553 423.333 710.438 427.246 711.742 430" stroke="#75819C" stroke-width="2" stroke-miterlimit="10"/>
<path d="M515.057 308.25C516.361 304.336 517.81 300.423 519.405 296.364C520.129 294.625 520.709 292.886 521.434 291.291C520.854 287.088 520.129 282.74 519.405 278.392C518.1 270.855 516.216 261.144 514.767 253.896" stroke="#75819C" stroke-width="2" stroke-miterlimit="10"/>
<path d="M637.243 214.762C635.648 206.79 634.054 198.238 632.75 189.397C632.025 184.469 630.865 176.642 629.706 161.423C628.546 148.379 624.923 135.914 622.169 131.275C620.285 128.087 617.386 126.637 613.617 124.898C602.892 119.97 593.181 116.781 587.673 115.912C584.194 115.767 578.831 115.767 572.889 117.651C568.396 118.955 562.163 120.84 557.09 126.347C549.988 134.174 549.408 142.581 549.408 148.379C549.408 151.857 550.568 155.336 551.147 156.785C551.727 158.09 552.887 160.409 560.134 165.916C562.018 167.366 564.482 169.25 567.671 171.279C567.961 172.874 568.54 175.338 569.265 178.236C570.28 182.295 571.149 184.759 571.584 186.208C573.468 192.296 571.874 193.745 571.584 211.573C571.584 213.602 571.584 216.791 569.41 219.545C569.12 219.98 568.685 220.414 568.251 220.704" stroke="#F69AED" stroke-width="3" stroke-miterlimit="10" stroke-linecap="round"/>
<path d="M557.091 148.379C557.96 152.002 559.41 154.177 560.569 155.626C562.019 157.365 563.178 157.945 564.483 160.409C565.352 162.003 565.787 163.743 565.932 164.467C566.367 165.917 567.382 170.41 567.527 171.425" stroke="#F69AED" stroke-width="3" stroke-miterlimit="10" stroke-linecap="round"/>
<path d="M676.666 216.211C676.377 194.035 674.927 182.005 673.623 175.192C673.333 174.033 671.883 166.496 669.709 155.335C669.274 153.451 668.985 151.712 668.695 150.118C668.26 147.943 667.39 145.914 666.231 144.175C662.607 138.957 655.215 129.101 652.171 125.767C648.838 122.144 643.62 117.361 636.228 112.723C634.488 111.128 629.85 106.2 627.531 104.461" stroke="#75819C" stroke-width="2" stroke-miterlimit="10"/>
<g opacity="0.5">
<path d="M459.109 207.805C460.848 205.631 462.153 203.167 461.863 200.558C461.718 199.398 461.138 198.094 460.703 196.789L459.399 192.876C458.529 190.267 457.66 187.658 456.645 185.194C456.21 183.889 455.775 182.585 455.051 181.425C454.471 180.266 453.456 179.251 452.007 179.251C453.456 178.816 454.906 179.831 455.63 180.99C456.5 182.15 456.935 183.454 457.66 184.759C458.819 187.223 459.834 189.832 460.703 192.441L462.008 196.354C462.298 197.659 462.877 198.963 463.022 200.413C463.167 201.862 462.588 203.456 461.863 204.616C461.138 205.92 460.124 206.935 459.109 207.805Z" fill="#75819C"/>
</g>
</svg>
