<svg width="850" height="500" viewBox="0 0 850 500" fill="none" xmlns="http://www.w3.org/2000/svg">
<path opacity="0.33" d="M691 458.417C683.731 443.105 678.627 428.875 676.616 397.323C674.605 365.77 678.472 363.296 676.616 338.394C674.76 313.492 672.904 318.906 674.76 300.191C676.461 281.476 666.253 257.193 666.099 248.068C665.944 238.942 666.717 207.699 663.933 193.005C661.149 178.312 654.653 168.877 650.013 143.666C645.373 118.455 627.741 102.06 616.45 105.772C605.159 109.484 603.303 121.239 604.695 125.57C599.746 115.826 596.498 110.103 593.404 106.391C590.311 102.679 581.34 98.3482 581.34 98.3482C581.34 98.3482 567.42 95.4095 562.006 107.938C557.521 108.866 557.521 118.61 557.676 121.239C556.593 115.362 554.582 107.01 552.881 104.38C551.025 101.751 547.468 97.5749 542.518 95.4095C537.569 93.2442 524.886 94.0175 521.638 96.6469C518.39 99.2762 512.512 104.69 512.976 109.948C513.441 115.362 515.142 120.157 515.451 133.922C515.76 147.688 520.246 176.765 521.174 184.035C522.102 191.304 534.63 258.276 534.63 258.276C534.63 258.276 534.166 259.358 533.393 258.585C532.774 257.812 518.081 176.147 512.822 164.082C514.833 151.245 516.07 114.898 507.718 106.855C504.16 98.8122 482.507 92.4708 474.309 110.567C466.112 128.509 468.741 160.68 467.195 173.053C465.648 185.427 467.349 212.958 468.896 221.155C467.813 212.803 465.029 205.07 460.234 200.275C455.44 195.48 447.552 190.685 441.984 188.675C437.498 187.128 431.775 189.139 429.301 191.613C428.527 192.387 427.445 193.16 426.362 193.315C425.125 193.624 424.042 194.552 424.042 194.552C424.042 197.182 426.053 210.328 433.322 223.321C431.466 226.105 433.941 237.705 431.93 245.902C429.919 253.945 427.599 259.513 431.157 268.793C429.765 271.268 431.621 278.073 434.714 280.548C432.858 286.271 435.178 293.54 441.365 308.698C449.098 327.722 445.232 348.757 450.645 359.584C456.058 370.41 462.554 374.123 469.669 385.259C476.629 396.395 503.851 431.195 514.987 440.011C526.123 448.827 530.763 458.262 530.763 458.262H691V458.417Z" fill="#E0E1E2"/>
<path d="M691 458.418C683.731 443.106 678.627 428.877 676.616 397.324C674.605 365.772 678.472 363.297 676.616 338.395C674.76 313.494 672.904 318.907 674.76 300.192C676.461 281.477 666.253 257.194 666.099 248.069C665.944 238.943 666.717 207.7 663.933 193.007C661.149 178.313 656.973 167.487 650.013 143.668C642.279 117.065 627.741 102.062 616.45 105.774C605.159 109.486 603.303 121.241 604.695 125.571C599.746 115.827 596.498 110.104 593.404 106.392C591.084 103.608 584.743 98.8136 579.484 98.0403C575.617 97.4216 566.182 98.1949 562.006 107.784C557.985 109.176 557.521 118.457 557.676 121.086C556.593 115.208 554.582 106.856 552.881 104.227C551.025 101.598 547.468 97.4216 542.518 95.2562C537.569 93.0909 524.886 93.8642 521.638 96.4936C518.39 99.1229 512.512 104.536 512.976 109.795C513.441 115.208 515.142 120.003 515.451 133.769C515.76 147.534 520.246 176.612 521.174 183.881C522.102 191.151 534.63 258.122 534.63 258.122C534.63 258.122 534.166 259.205 533.393 258.432C532.774 257.658 518.081 175.993 512.822 163.929C514.833 151.092 516.07 114.744 507.718 106.702C504.16 98.6589 482.507 92.3175 474.309 110.414C466.112 128.355 468.741 160.526 467.195 172.9C465.648 185.273 467.349 212.804 468.896 221.002C467.813 212.65 465.029 204.916 460.234 200.122C455.44 195.327 447.552 190.532 441.984 188.521C437.498 186.975 431.775 188.985 429.301 191.615C428.373 192.543 427.135 193.471 425.743 193.626C424.661 193.78 424.042 194.09 424.042 194.09C424.042 196.564 425.743 208.474 431.775 220.383C432.549 221.93 433.013 223.631 432.703 225.333C432.085 229.818 433.631 239.098 431.93 245.749C429.919 253.792 427.599 259.36 431.157 268.64C431.466 273.589 433.013 278.539 434.714 280.395C434.25 287.045 435.178 293.387 441.365 308.544C449.098 327.569 445.232 348.604 450.645 359.43C456.058 370.257 462.554 373.969 469.669 385.105C476.629 396.242 503.851 431.042 514.987 439.858C526.123 448.674 530.763 458.109 530.763 458.109" stroke="#808285" stroke-width="2" stroke-miterlimit="10"/>
<path d="M474.154 351.852C474.618 343.964 478.176 330.507 478.485 325.713C478.949 320.918 477.557 327.723 477.248 306.998C477.093 286.117 475.237 253.328 471.834 238.634C468.432 223.941 469.36 221.002 467.813 215.743" stroke="#808285" stroke-width="2" stroke-miterlimit="10"/>
<path d="M587.526 244.821C584.124 239.717 580.257 230.746 579.793 206.927C579.329 183.108 572.214 177.386 571.75 160.991C571.286 144.596 559.531 139.337 557.521 121.396" stroke="#808285" stroke-width="2" stroke-miterlimit="10"/>
<path d="M629.287 238.943C629.442 233.066 629.597 203.369 626.503 185.582C623.41 167.795 620.317 160.99 616.605 153.102C612.738 145.059 606.242 132.84 604.386 125.726" stroke="#808285" stroke-width="2" stroke-miterlimit="10"/>
<g opacity="0.5">
<path d="M432.704 195.481C434.096 195.791 435.333 196.564 436.57 197.492C437.653 198.575 438.426 199.812 438.89 201.204C439.664 203.988 440.437 206.618 440.901 209.556C441.365 212.34 441.829 215.279 441.52 218.218C441.52 218.991 441.21 219.764 441.056 220.383C440.746 221.156 440.282 221.775 439.664 222.239C438.426 223.322 436.88 223.476 435.488 223.012C436.88 223.167 438.272 222.703 439.2 221.62C440.128 220.692 440.282 219.3 440.282 217.908C440.282 215.124 439.818 212.34 439.354 209.711C438.89 206.927 438.272 204.143 437.653 201.514C437.189 199.039 435.333 196.719 432.704 195.481Z" fill="#AEB0B2"/>
</g>
<path opacity="0.33" d="M152.753 111.031C148.731 112.268 130.635 128.818 125.84 136.087C121.046 143.357 118.107 139.954 115.168 148.615C112.23 157.277 113.776 180.786 115.168 191.149C116.56 201.512 121.974 210.019 121.974 222.702C121.974 235.384 119.499 241.881 123.52 257.811C127.387 273.742 132.027 281.321 136.048 310.708C139.915 340.095 144.401 352.778 141.926 361.439C139.451 370.101 125.686 416.811 122.592 421.915C119.499 427.019 104.032 456.561 98 463.985H267.053C272.93 455.633 295.357 415.573 302.472 405.829C309.587 396.24 325.518 379.69 331.395 372.576C337.272 365.461 353.513 335.61 365.268 319.834C377.022 304.057 386.766 290.911 388.004 282.249C389.241 273.588 386.612 269.102 388.932 250.078C391.252 231.054 391.561 222.392 392.799 214.814C394.036 207.235 396.356 207.08 396.511 198.419C396.665 189.912 393.572 184.344 395.583 169.805C395.583 169.805 395.583 167.794 395.119 166.248C394.655 164.701 404.089 146.759 403.007 135.932C401.924 125.106 383.364 126.652 374.238 132.994C365.113 139.335 357.689 146.45 351.502 158.978C345.315 171.506 345.161 182.024 345.625 191.304C345.934 200.584 343.15 200.275 340.521 218.99C337.891 237.704 335.88 238.323 335.88 238.323C335.88 238.323 332.478 235.384 330.622 222.392C328.766 209.4 328.302 184.189 328.302 177.074C328.302 169.96 328.611 154.802 330.622 139.954C332.632 125.106 334.952 115.826 334.952 103.607C334.952 91.2332 338.2 53.6487 335.88 42.8219C333.56 31.9951 329.075 20.7043 317.939 15.6002C306.957 10.4962 296.904 19.467 294.429 33.5418C291.955 47.6167 294.12 57.2061 292.728 64.0116C291.955 67.7236 290.717 73.7557 288.242 82.1078C285.922 75.3024 276.178 62.4649 257.927 59.5262C239.677 56.5874 240.141 59.9902 226.53 60.6088C212.919 61.3822 210.599 68.3423 206.113 76.385C205.031 78.3957 204.257 81.3344 203.639 85.0465C200.081 86.7478 197.297 87.2118 186.78 86.5932C176.262 85.9745 178.582 89.2225 171.622 89.8412C164.817 90.3052 159.403 93.5533 155.846 101.751C154.763 104.689 153.526 107.628 152.753 111.031Z" fill="#E0E1E2"/>
<path d="M266.898 463.831C272.775 455.479 295.202 415.42 302.317 405.676C309.432 396.087 325.363 379.537 331.24 372.422C337.118 365.308 353.358 335.456 365.113 319.68C376.868 303.904 386.612 290.757 387.849 282.096C389.086 273.434 386.457 268.949 388.777 249.925C391.097 230.9 391.406 222.239 392.644 214.66C393.881 207.081 396.201 206.927 396.356 198.265C396.51 189.759 393.417 184.19 395.428 169.652C395.428 169.652 395.428 167.641 394.964 166.094C394.5 164.548 403.935 146.606 402.852 135.779C401.769 124.952 383.209 126.499 374.083 132.84C364.958 139.182 357.534 146.297 351.347 158.825C345.16 171.353 345.006 181.87 345.47 191.151C345.779 200.431 342.995 200.121 340.366 218.836C337.736 237.551 335.726 238.17 335.726 238.17C335.726 238.17 332.323 235.231 330.467 222.239C328.611 209.247 328.147 184.036 328.147 176.921C328.147 169.806 328.456 154.649 330.467 139.801C332.478 124.952 334.798 115.672 334.798 103.453C334.798 91.0799 338.046 53.4954 335.726 42.6686C333.406 31.8418 328.92 20.551 317.784 15.4469C306.803 10.3429 296.749 19.3136 294.274 33.3885C291.8 47.4633 293.965 57.0528 292.573 63.8582C291.8 67.5703 290.562 73.6023 288.088 81.9545C285.768 75.149 276.024 62.3115 257.773 59.3728C239.522 56.4341 239.986 59.8368 226.375 60.4555C212.764 61.2289 210.444 68.1889 205.959 76.2317C204.876 78.2424 204.103 81.1811 203.484 84.8932C199.927 86.5945 197.142 87.0585 186.625 86.4399C176.108 85.8212 178.428 89.0692 171.467 89.6879C164.662 90.1519 159.249 93.4 155.691 101.597C154.299 104.691 153.217 107.629 152.289 111.032" stroke="#808285" stroke-width="2" stroke-miterlimit="10"/>
<path d="M152.753 111.032C148.731 112.27 130.635 128.819 125.84 136.089C121.046 143.358 118.107 139.955 115.168 148.617C112.23 157.278 113.776 180.788 115.168 191.151C116.56 201.513 121.974 210.02 121.974 222.703C121.974 235.386 119.499 241.882 123.52 257.813C127.387 273.744 132.027 281.322 136.048 310.709C139.915 340.097 144.401 352.779 141.926 361.441C139.451 370.102 125.686 416.812 122.592 421.916C119.499 427.02 104.032 456.562 98 463.986" stroke="#808285" stroke-width="2" stroke-miterlimit="10"/>
<path d="M268.754 149.545C266.589 143.204 262.103 125.417 262.413 113.353C265.661 108.867 276.333 120.313 276.333 120.313L268.754 149.545Z" stroke="#808285" stroke-width="2" stroke-miterlimit="10"/>
<path d="M287.469 78.7064C283.293 72.5197 276.488 62.3115 258.082 59.3728C239.676 56.4341 240.295 59.8368 226.684 60.4555C213.073 61.2288 210.753 68.1889 206.268 76.2317C201.783 84.2745 202.247 111.341 202.247 120.312C202.247 129.283 207.041 159.289 192.502 171.044" stroke="#808285" stroke-width="2" stroke-miterlimit="10"/>
<path d="M202.247 85.8223C198.689 86.5956 197.452 87.2143 186.935 86.441C176.417 85.8223 178.737 89.0703 171.777 89.689C164.972 90.153 159.558 93.4011 156.001 101.598C152.443 109.796 150.123 116.601 151.206 136.708C152.134 156.815 156.001 174.138 154.609 183.573C153.062 193.008 148.731 201.05 146.102 203.061" stroke="#808285" stroke-width="2" stroke-miterlimit="10"/>
<g opacity="0.5">
<path d="M397.129 132.532C393.572 132.996 390.014 134.079 387.694 136.863C386.611 138.1 385.683 139.647 384.91 141.194C384.137 142.74 383.363 144.442 382.899 145.988C381.817 149.236 381.971 152.948 383.209 156.197C383.827 157.898 384.755 159.29 385.838 160.682C386.921 162.074 388.313 163.311 389.86 164.085C386.302 163.002 383.673 159.909 382.126 156.661C381.353 154.959 380.889 153.103 380.734 151.247C380.579 149.391 380.889 147.535 381.353 145.679C381.971 143.823 382.745 142.276 383.518 140.575C384.446 139.028 385.374 137.327 386.766 136.09C388.158 134.852 389.705 133.77 391.561 133.151C393.417 132.687 395.273 132.532 397.129 132.532Z" fill="#AEB0B2"/>
</g>
<path d="M262.413 164.084C268.135 160.527 272.775 127.737 280.509 106.083C288.242 84.5845 291.49 70.6643 292.882 63.8589C294.274 57.0535 291.954 47.6187 294.584 33.3892C297.213 19.1597 306.957 10.6529 318.093 15.6023C329.075 20.7064 333.715 31.8425 336.035 42.824C338.355 53.6508 335.107 91.3899 335.107 103.609C335.107 115.982 332.478 125.108 330.776 139.956C329.693 150.164 328.301 168.26 328.456 177.076" stroke="#2969D0" stroke-width="3" stroke-miterlimit="10" stroke-linecap="round"/>
<g opacity="0.5">
<path d="M299.688 32.4601C300.152 33.6974 301.234 34.4708 302.317 34.7801C303.4 35.2441 304.637 35.5535 305.874 35.7081C307.112 35.8628 308.349 35.8628 309.586 35.8628C310.824 35.8628 312.061 35.7081 313.144 35.3988C315.464 34.7801 317.474 33.5428 319.176 31.6867C320.877 29.9854 322.114 27.82 323.352 25.5C322.733 27.9747 321.805 30.4494 320.104 32.4601C318.402 34.4708 316.082 36.0175 313.608 36.7908C310.978 37.5642 308.349 37.4095 305.72 36.7908C304.482 36.4815 303.245 36.0175 302.008 35.3988C300.77 34.7801 299.842 33.6974 299.688 32.4601Z" fill="#AEB0B2"/>
</g>
<path d="M262.413 114.744C260.402 99.4316 261.175 92.4715 262.413 81.1807" stroke="#808285" stroke-width="2" stroke-miterlimit="10"/>
</svg>
