<svg width="850" height="500" viewBox="0 0 850 500" fill="none" xmlns="http://www.w3.org/2000/svg">
<path opacity="0.33" d="M690 453.409C682.852 438.352 677.833 424.36 675.856 393.334C673.879 362.308 677.681 359.874 675.856 335.388C674.031 310.902 672.206 316.225 674.031 297.823C675.704 279.42 665.666 255.542 665.514 246.569C665.362 237.596 666.122 206.874 663.385 192.425C660.647 177.977 654.259 168.7 649.697 143.909C645.134 119.119 627.796 102.998 616.694 106.648C605.591 110.298 603.766 121.857 605.135 126.115C600.268 116.534 597.074 110.906 594.033 107.256C590.991 103.606 582.17 99.3476 582.17 99.3476C582.17 99.3476 568.482 96.4579 563.159 108.777C558.748 109.69 558.748 119.271 558.9 121.857C557.836 116.077 555.858 107.864 554.185 105.279C552.36 102.693 548.862 98.5871 543.996 96.4579C539.129 94.3287 526.657 95.0891 523.464 97.6746C520.27 100.26 514.49 105.583 514.947 110.754C515.403 116.077 517.076 120.792 517.38 134.328C517.684 147.864 522.095 176.456 523.007 183.604C523.92 190.752 536.239 256.607 536.239 256.607C536.239 256.607 535.783 257.671 535.022 256.911C534.414 256.15 519.966 175.848 514.795 163.985C516.772 151.362 517.988 115.621 509.776 107.712C506.278 99.8038 484.985 93.5682 476.925 111.363C468.864 129.005 471.45 160.639 469.929 172.806C468.408 184.973 470.081 212.045 471.602 220.105C470.537 211.893 467.799 204.288 463.085 199.574C458.37 194.859 450.613 190.144 445.138 188.167C440.728 186.646 435.1 188.623 432.667 191.057C431.907 191.817 430.842 192.578 429.777 192.73C428.561 193.034 427.496 193.946 427.496 193.946C427.496 196.532 429.473 209.459 436.621 222.235C434.796 224.972 437.23 236.379 435.253 244.44C433.275 252.348 430.994 257.823 434.492 266.949C433.123 269.382 434.948 276.074 437.99 278.507C436.165 284.135 438.446 291.283 444.53 306.187C452.134 324.894 448.332 345.578 453.655 356.224C458.978 366.87 465.366 370.521 472.362 381.471C479.206 392.421 505.974 426.641 516.924 435.31C527.874 443.979 532.437 453.257 532.437 453.257H690V453.409Z" fill="#E0E1E2"/>
<path d="M690 453.409C682.852 438.353 677.833 424.361 675.856 393.335C673.879 362.309 677.681 359.875 675.856 335.389C674.031 310.903 672.206 316.226 674.031 297.823C675.704 279.421 665.666 255.543 665.514 246.57C665.362 237.596 666.122 206.875 663.385 192.426C660.647 177.978 656.541 167.332 649.697 143.91C642.092 117.751 627.796 102.998 616.694 106.649C605.591 110.299 603.766 121.857 605.135 126.116C600.268 116.534 597.074 110.907 594.033 107.257C591.751 104.519 585.516 99.8046 580.345 99.0441C576.542 98.4358 567.265 99.1962 563.159 108.626C559.204 109.994 558.748 119.12 558.9 121.705C557.836 115.926 555.858 107.713 554.185 105.128C552.36 102.542 548.862 98.4358 543.996 96.3065C539.129 94.1773 526.657 94.9377 523.464 97.5232C520.27 100.109 514.49 105.432 514.947 110.603C515.403 115.926 517.076 120.641 517.38 134.176C517.684 147.712 522.095 176.305 523.007 183.453C523.92 190.601 536.239 256.455 536.239 256.455C536.239 256.455 535.783 257.52 535.022 256.759C534.414 255.999 519.966 175.696 514.795 163.834C516.772 151.21 517.988 115.47 509.776 107.561C506.278 99.6525 484.985 93.4169 476.925 111.211C468.864 128.853 471.45 160.488 469.929 172.655C468.408 184.822 470.081 211.893 471.602 219.954C470.537 211.741 467.799 204.137 463.085 199.422C458.37 194.708 450.613 189.993 445.138 188.016C440.728 186.495 435.1 188.472 432.667 191.057C431.755 191.97 430.538 192.882 429.169 193.035C428.104 193.187 427.496 193.491 427.496 193.491C427.496 195.924 429.169 207.635 435.1 219.346C435.861 220.867 436.317 222.54 436.013 224.213C435.405 228.623 436.926 237.748 435.253 244.288C433.275 252.197 430.994 257.672 434.492 266.797C434.796 271.664 436.317 276.531 437.99 278.356C437.534 284.896 438.446 291.131 444.53 306.036C452.134 324.743 448.332 345.427 453.655 356.073C458.978 366.719 465.366 370.369 472.362 381.32C479.206 392.27 505.974 426.49 516.924 435.159C527.874 443.828 532.437 453.105 532.437 453.105" stroke="#808285" stroke-width="2" stroke-miterlimit="10"/>
<path d="M476.772 348.62C477.228 340.863 480.726 327.632 481.03 322.917C481.487 318.202 480.118 324.894 479.814 304.514C479.662 283.982 477.837 251.74 474.491 237.291C471.145 222.843 472.057 219.953 470.536 214.782" stroke="#808285" stroke-width="2" stroke-miterlimit="10"/>
<path d="M588.252 243.374C584.906 238.355 581.104 229.534 580.648 206.113C580.192 182.691 573.196 177.064 572.739 160.942C572.283 144.821 560.724 139.65 558.747 122.008" stroke="#808285" stroke-width="2" stroke-miterlimit="10"/>
<path d="M629.317 237.596C629.469 231.817 629.621 202.616 626.579 185.126C623.538 167.636 620.496 160.944 616.846 153.187C613.044 145.279 606.656 133.264 604.831 126.268" stroke="#808285" stroke-width="2" stroke-miterlimit="10"/>
<g opacity="0.5">
<path d="M436.013 194.859C437.382 195.164 438.599 195.924 439.815 196.837C440.88 197.901 441.64 199.118 442.097 200.487C442.857 203.224 443.617 205.81 444.074 208.699C444.53 211.437 444.986 214.327 444.682 217.216C444.682 217.977 444.378 218.737 444.226 219.346C443.922 220.106 443.465 220.714 442.857 221.171C441.64 222.235 440.119 222.387 438.751 221.931C440.119 222.083 441.488 221.627 442.401 220.562C443.313 219.65 443.465 218.281 443.465 216.912C443.465 214.175 443.009 211.437 442.553 208.851C442.097 206.114 441.488 203.376 440.88 200.791C440.424 198.357 438.599 196.076 436.013 194.859Z" fill="#AEB0B2"/>
</g>
<path opacity="0.33" d="M277.362 458.602C281.468 452.671 310.973 402.938 318.121 393.66C325.269 384.383 337.893 374.649 341.999 369.022C346.105 363.243 363.291 339.669 370.287 329.479C377.283 319.289 395.23 297.541 398.119 288.415C401.009 279.29 399.64 263.473 400.705 258.454C401.77 253.587 406.18 226.211 407.701 220.736C409.222 215.261 411.351 205.832 412.872 200.965C414.393 196.098 409.678 181.193 412.872 172.981C416.066 164.768 426.104 148.19 423.974 139.673C421.845 131.156 402.378 128.875 388.842 142.715C375.306 156.555 367.702 169.939 365.573 178.608C363.443 187.277 365.42 191.535 364.964 193.056C364.508 194.577 362.227 195.033 361.162 198.531C360.097 202.029 355.231 229.101 353.71 231.534C352.341 234.12 349.299 236.401 348.235 239.139C347.17 241.876 346.866 195.337 349.603 183.323C352.493 171.308 368.614 127.202 371.048 118.533C373.481 109.864 373.785 98.7616 377.131 88.1154C380.477 77.4693 386.865 40.816 376.067 27.4323C365.268 14.0485 351.58 21.9571 348.082 28.649C344.584 35.3408 341.543 40.816 340.326 50.2455C339.261 59.6749 338.957 68.9523 336.22 76.4046C333.482 83.857 319.794 105.606 317.969 110.624C316.144 115.643 299.414 153.665 297.893 154.882C296.373 156.099 291.81 154.122 289.681 148.19C287.703 142.259 285.422 118.229 285.422 118.229C285.422 118.229 286.791 117.012 286.943 115.491C287.095 114.122 294.243 119.902 305.954 111.841C317.817 103.78 314.775 92.9822 311.429 87.6591C308.083 82.3361 305.194 73.667 301.848 70.3211C298.502 66.9752 289.833 60.5875 276.753 59.9791C263.826 59.3708 243.902 63.3251 238.427 69.2565C232.952 75.1879 229.758 85.0737 229.454 87.355C226.564 87.2029 224.587 87.9633 219.416 87.507C214.245 87.0508 209.834 85.8341 203.903 86.5945C197.972 87.355 196.451 89.18 191.584 89.0279C186.717 88.8758 179.113 95.5677 176.071 107.735C170.596 108.495 167.098 112.297 162.079 115.948C157.06 119.598 150.368 125.985 145.501 131.004C140.634 136.023 135.92 135.263 132.726 146.517C129.532 157.772 131.661 179.216 132.726 184.387C133.79 189.558 140.938 209.178 140.026 217.694C139.113 226.211 137.593 241.876 140.482 255.108C143.372 268.34 148.087 288.111 148.847 296.324C149.608 304.537 155.691 337.236 154.17 351.684C152.649 366.132 143.828 389.402 140.482 397.919C137.136 406.436 119.798 443.393 109 458.754H277.362V458.602Z" fill="#E0E1E2"/>
<path d="M277.362 458.602C281.468 452.671 310.973 402.938 318.121 393.66C325.269 384.383 337.893 374.649 341.999 369.022C346.105 363.243 363.291 339.669 370.287 329.479C377.283 319.289 395.23 297.541 398.119 288.415C401.009 279.29 399.64 263.473 400.705 258.454C401.77 253.587 406.18 226.211 407.701 220.736C409.222 215.261 411.351 205.832 412.872 200.965C414.393 196.098 409.678 181.193 412.872 172.981C416.066 164.768 426.104 148.19 423.974 139.673C421.845 131.156 402.378 128.875 388.842 142.715C375.306 156.555 367.702 169.939 365.573 178.608C363.443 187.277 365.42 191.535 364.964 193.056C364.508 194.577 362.227 195.033 361.162 198.531C360.097 202.029 355.231 229.101 353.71 231.534C352.341 234.12 349.299 236.401 348.235 239.139C347.17 241.876 346.866 195.337 349.603 183.323C352.493 171.308 368.614 127.202 371.048 118.533C373.481 109.864 373.785 98.7616 377.131 88.1154C380.477 77.4693 386.865 40.816 376.067 27.4323C365.268 14.0485 351.58 21.9571 348.082 28.649C344.584 35.3408 341.543 40.816 340.326 50.2455C339.261 59.6749 338.957 68.9523 336.22 76.4046C333.482 83.857 319.794 105.606 317.969 110.624C316.144 115.643 299.414 153.665 297.893 154.882C296.373 156.099 291.81 154.122 289.681 148.19C287.703 142.259 285.422 118.229 285.422 118.229C285.422 118.229 286.791 117.012 286.943 115.491C287.095 114.122 294.243 119.902 305.954 111.841C317.817 103.78 314.775 92.9822 311.429 87.6591C308.083 82.3361 305.194 73.667 301.848 70.3211C298.502 66.9752 289.833 60.5875 276.753 59.9791C263.826 59.3708 243.902 63.3251 238.427 69.2565C232.952 75.1879 229.758 85.0737 229.454 87.355C226.564 87.2029 224.587 87.9633 219.416 87.507C214.245 87.0508 209.834 85.8341 203.903 86.5945C197.972 87.355 196.451 89.18 191.584 89.0279C186.717 88.8758 179.113 95.5677 176.071 107.735C170.596 108.495 167.098 112.297 162.079 115.948C157.06 119.598 150.368 125.985 145.501 131.004C140.634 136.023 135.92 135.263 132.726 146.517C129.532 157.772 131.661 179.216 132.726 184.387C133.79 189.558 140.938 209.178 140.026 217.694C139.113 226.211 137.593 241.876 140.482 255.108C143.372 268.34 148.087 288.111 148.847 296.324C149.608 304.537 155.691 337.236 154.17 351.684C152.649 366.132 143.828 389.402 140.482 397.919C137.136 406.436 119.798 443.393 109 458.754" stroke="#808285" stroke-width="2" stroke-miterlimit="10"/>
<path d="M350.06 183.171C352.949 171.156 369.071 127.051 371.504 118.382C373.937 109.713 374.242 98.6102 377.588 87.964C380.933 77.3179 387.321 40.6647 376.523 27.2809C365.725 13.8972 352.037 21.8057 348.539 28.4976C345.041 35.1895 341.999 40.6647 340.782 50.0941C339.718 59.5236 339.413 68.801 336.676 76.2533C333.938 83.7056 320.25 105.454 318.425 110.473C316.6 115.492 299.87 153.514 298.35 154.731" stroke="#2969D0" stroke-width="3" stroke-miterlimit="10" stroke-linecap="round"/>
<path d="M173.332 186.365C176.222 181.042 176.222 147.583 175.462 136.328C174.853 125.074 176.526 107.432 176.526 107.432" stroke="#808285" stroke-width="2" stroke-miterlimit="10"/>
<path d="M216.982 168.115C221.697 163.4 227.628 157.165 226.412 136.024C225.195 114.884 230.062 87.2041 230.062 87.2041" stroke="#808285" stroke-width="2" stroke-miterlimit="10"/>
<g opacity="0.5">
<path d="M420.933 139.826C419.26 138.761 417.282 138.305 415.305 138.153C413.328 138.001 411.351 138.457 409.83 139.37C406.484 141.195 405.268 145.149 404.051 148.951C403.442 150.776 403.138 152.753 402.834 154.73C402.53 156.708 402.53 158.685 402.682 160.51C402.682 160.966 402.834 161.422 402.986 161.726C403.138 162.031 403.595 162.487 403.899 162.943L405.724 165.377C406.941 167.05 408.157 168.57 409.222 170.243C407.853 168.875 406.484 167.354 405.115 165.833L403.138 163.552C402.834 163.095 402.53 162.943 402.074 162.335C401.769 161.726 401.617 161.27 401.465 160.662C400.857 156.555 401.465 152.449 402.53 148.495C403.138 146.518 403.747 144.693 404.811 142.715C405.724 140.89 407.397 139.217 409.222 138.305C411.199 137.392 413.328 137.088 415.305 137.392C416.37 137.544 417.282 137.849 418.195 138.153C419.26 138.609 420.172 139.065 420.933 139.826Z" fill="#AEB0B2"/>
</g>
<g opacity="0.5">
<path d="M375.609 32.757C375.609 34.43 375.305 36.255 374.545 37.7759C373.784 39.2968 372.568 40.6656 371.047 41.7302C370.286 42.1865 369.526 42.6427 368.613 42.9469C367.701 43.099 366.788 43.2511 366.028 43.4032C364.355 43.5553 362.53 43.7073 360.857 43.7073C359.184 43.7073 357.359 43.5553 355.686 43.4032C354.773 43.2511 354.013 43.099 353.1 42.9469C352.188 42.6427 351.427 42.4906 350.515 41.7302C349.755 40.9698 349.45 40.0572 349.298 39.1447C349.146 38.2322 349.146 37.3196 349.298 36.5592C349.602 34.8862 350.059 33.2133 350.667 31.6924C350.363 33.3654 350.059 35.0383 349.907 36.7113C349.907 38.3843 350.059 40.2093 351.123 40.9698C352.188 41.7302 354.013 42.0344 355.686 42.1865C357.359 42.3386 359.032 42.4906 360.705 42.4906C362.378 42.4906 364.051 42.4906 365.724 42.3385C366.484 42.3385 367.397 42.1865 368.157 42.0344C368.918 41.8823 369.678 41.5781 370.286 41.1219C373.176 39.1447 375.153 36.1029 375.609 32.757Z" fill="#AEB0B2"/>
</g>
<path d="M285.878 117.926C284.053 112.147 285.878 82.1855 285.878 82.1855" stroke="#808285" stroke-width="2" stroke-miterlimit="10"/>
</svg>
