<svg width="900" height="500" viewBox="0 0 900 500" fill="none" xmlns="http://www.w3.org/2000/svg">
<path opacity="0.33" d="M327.41 430.327C329.284 428.02 337.356 419.659 346.15 410.865C354.943 402.072 372.963 371.078 378.297 364.88C383.631 358.681 397.758 343.4 401.218 335.76C404.677 328.12 400.929 303.613 401.218 295.973C401.506 288.333 405.11 251.861 402.659 242.347C400.209 232.832 396.316 228.94 393.145 222.309C389.973 215.678 389.397 213.66 386.514 211.641C383.631 209.623 385.36 192.324 385.937 189.874C386.514 187.423 388.532 176.323 388.532 172.431C388.532 168.539 388.532 157.439 391.559 149.222C394.586 141.005 392.568 116.354 387.379 108.57C382.189 100.785 378.008 98.9111 371.81 98.4786C365.611 98.0461 358.836 104.101 357.106 107.849C355.376 111.597 353.069 115.057 350.475 145.618C346.871 153.835 339.951 161.042 336.924 170.989C333.897 180.936 325.824 206.019 323.95 216.398C322.076 226.778 311.408 240.905 315.733 233.265C320.058 225.769 319.625 207.317 327.698 182.81C335.771 158.303 334.762 159.889 334.762 158.592C334.762 157.294 339.519 152.826 341.104 142.158C344.132 137.257 350.042 112.894 339.086 105.831C338.942 100.785 335.627 97.3254 326.545 95.8838C317.463 94.4422 314.147 96.7487 312.129 102.371C308.813 103.236 303.768 115.489 302.903 125.58C300.452 127.022 288.632 138.987 286.325 143.455C284.019 147.924 277.532 170.413 276.234 176.179C274.937 181.945 266.576 217.984 264.269 221.3C261.963 224.615 260.954 226.922 262.828 219.858C264.702 212.795 273.351 170.268 277.099 162.628C280.847 154.988 281.28 148.645 291.659 133.797C302.038 118.949 300.597 111.741 298.723 106.984C296.848 102.227 295.407 98.1903 286.613 96.7487C277.82 95.3072 272.774 102.659 272.774 102.659C272.774 102.659 267.441 104.245 254.611 118.084C251.872 112.75 248.124 108.714 248.124 108.714C248.124 108.714 245.385 102.947 237.6 101.794C229.816 100.641 226.644 109.002 226.212 112.029C223.617 112.029 218.283 123.994 216.409 135.959C214.535 148.068 211.508 165.367 208.336 175.602C205.165 185.837 203.147 194.343 202.426 201.839C201.705 209.335 197.669 219.858 196.948 229.661C196.227 239.464 184.839 267.574 184.262 276.512C183.542 285.449 183.974 316.011 183.109 323.074C182.244 330.138 180.947 353.924 183.109 367.619C185.271 381.169 184.262 393.711 181.956 400.486C179.649 407.261 171 429.75 171 429.75H327.41V430.327Z" fill="#E0E1E2"/>
<path d="M327.41 430.327C329.284 428.02 337.356 419.659 346.15 410.865C354.943 402.072 372.963 371.078 378.297 364.88C383.631 358.681 397.758 343.4 401.218 335.76C404.677 328.12 400.929 303.613 401.218 295.973C401.506 288.333 405.11 251.861 402.659 242.347C400.209 232.832 396.316 228.94 393.145 222.309C389.973 215.678 389.397 213.66 386.514 211.641C383.631 209.623 385.36 192.324 385.937 189.874C386.514 187.423 388.532 176.323 388.532 172.431C388.532 168.539 388.532 157.439 391.559 149.222C394.586 141.005 392.568 116.354 387.379 108.57C382.189 100.785 378.008 98.9111 371.81 98.4786C365.611 98.0461 358.836 104.101 357.106 107.849C355.376 111.597 353.069 115.057 350.475 145.618C346.871 153.835 339.951 161.042 336.924 170.989C333.897 180.936 325.824 206.019 323.95 216.398C322.076 226.778 311.408 240.905 315.733 233.265C320.058 225.769 319.625 207.317 327.698 182.81C335.771 158.303 334.762 159.889 334.762 158.592C334.762 157.294 339.519 152.826 341.104 142.158C344.132 137.257 350.042 112.894 339.086 105.831C338.942 100.785 335.627 97.3254 326.545 95.8838C317.463 94.4422 314.147 96.7487 312.129 102.371C308.813 103.236 303.768 115.489 302.903 125.58C300.452 127.022 288.632 138.987 286.325 143.455C284.019 147.924 277.532 170.413 276.234 176.179C274.937 181.945 266.576 217.984 264.269 221.3C261.963 224.615 260.954 226.922 262.828 219.858C264.702 212.795 273.351 170.268 277.099 162.628C280.847 154.988 281.28 148.645 291.659 133.797C302.038 118.949 300.597 111.741 298.723 106.984C296.848 102.227 295.407 98.1903 286.613 96.7487C277.82 95.3072 272.774 102.659 272.774 102.659C272.774 102.659 267.441 104.245 254.611 118.084C251.872 112.75 248.124 108.714 248.124 108.714C248.124 108.714 245.385 102.947 237.6 101.794C229.816 100.641 226.644 109.002 226.212 112.029C223.617 112.029 218.283 123.994 216.409 135.959C214.535 148.068 211.508 165.367 208.336 175.602C205.165 185.837 203.147 194.343 202.426 201.839C201.705 209.335 197.669 219.858 196.948 229.661C196.227 239.464 184.839 267.574 184.262 276.512C183.542 285.449 183.974 316.011 183.109 323.074C182.244 330.138 180.947 353.924 183.109 367.619C185.271 381.169 184.262 393.711 181.956 400.486C179.649 407.261 171 429.75 171 429.75" stroke="#75819C" stroke-width="2" stroke-miterlimit="10"/>
<path d="M212.805 225.912C216.842 221.588 220.157 214.957 220.445 208.037C220.734 201.118 220.013 165.223 229.095 151.528C238.177 137.833 254.755 118.66 254.755 118.66" stroke="#75819C" stroke-width="2" stroke-miterlimit="10"/>
<path d="M373.827 309.957C371.809 306.208 369.358 303.758 369.358 300.875C369.358 297.992 370.944 264.98 372.674 253.159C374.26 241.338 382.332 207.173 385.071 200.109" stroke="#75819C" stroke-width="2" stroke-miterlimit="10"/>
<path opacity="0.33" d="M641.408 427.938C631.941 408.102 630.588 404.045 629.386 398.635C626.981 387.815 627.282 378.649 627.432 374.441C627.733 366.326 631.189 344.537 632.391 323.498C633.744 297.351 634.495 284.277 634.645 278.266C635.397 258.731 635.697 248.963 635.547 240.848C635.397 231.08 635.697 221.162 635.547 211.395C635.547 209.742 635.547 208.539 635.697 207.037C636.298 200.274 638.703 197.119 642.159 186.75C643.361 183.143 643.662 181.641 643.812 180.889C644.714 176.682 644.714 173.075 644.563 170.671C645.465 167.665 646.818 163.307 648.32 157.897C649.673 153.239 650.274 150.534 650.875 148.13C651.777 143.621 652.378 137.009 651.025 128.294C651.326 126.19 651.777 122.884 650.875 118.977C650.424 116.572 649.673 114.919 648.921 113.266C646.968 108.758 646.066 106.504 643.812 104.701C637.951 100.042 630.889 102.296 630.288 102.597C627.883 103.348 626.531 104.55 624.427 106.504C622.624 108.007 617.364 112.665 614.96 120.329C614.058 123.034 614.359 123.635 613.757 129.796C613.307 133.854 611.654 147.529 607.145 158.198C605.793 161.504 604.441 163.608 604.14 164.209C602.487 167.064 601.135 168.567 599.031 171.121C597.528 173.075 595.574 175.93 593.32 179.537C594.072 168.867 595.875 160.452 597.528 154.742C599.181 148.881 600.834 144.824 606.995 125.589C609.85 116.572 610.451 114.619 610.602 111.313C610.602 108.608 610.752 97.3373 601.886 89.3728C594.072 82.31 582.951 81.1078 575.588 83.963C571.38 85.616 567.624 88.7717 567.473 88.922C564.768 91.3264 562.965 93.7308 561.763 95.534C561.162 92.0778 559.96 86.9685 557.105 81.2581C555.001 77.0504 549.591 66.5313 537.87 61.1215C530.957 57.9657 524.946 58.116 512.924 58.4166C506.763 58.5668 504.058 59.3182 501.654 60.3701C495.042 63.6761 491.736 70.1379 490.984 71.7909C490.083 73.7444 489.482 75.5477 489.181 76.7499C487.829 86.2171 486.777 96.2854 486.025 106.955C485.274 118.376 484.973 129.195 485.124 139.264C485.875 143.471 485.274 146.627 484.823 148.28C484.072 150.534 483.471 152.788 481.367 153.69C479.864 154.291 477.911 153.99 476.558 152.938C475.356 152.037 475.055 150.534 474.905 150.233C474.905 150.233 474.304 147.829 466.189 119.728C465.588 117.324 465.889 119.578 455.971 94.4821C454.768 91.3264 453.416 87.7198 452.214 82.6105C451.763 80.657 451.312 78.1023 450.711 68.9357C449.96 56.7635 449.96 50.3018 448.006 42.187C447.706 40.6843 447.105 38.5805 445.902 36.0258C445.452 34.9739 443.197 30.0149 439.441 26.4084C435.083 22.351 426.367 17.9931 418.553 20.9985C410.889 24.004 408.334 32.8701 406.982 37.9794C405.629 42.7881 405.93 48.6488 406.38 60.5204C406.681 66.5313 406.982 71.9411 408.034 79.1542C409.536 88.3209 410.288 87.8701 411.189 94.7827C412.391 104.55 410.738 106.053 411.64 117.023C412.091 121.531 412.241 119.578 414.345 133.403C416.449 146.777 416.299 148.58 417.801 155.493C418.853 160.152 419.304 161.354 420.807 167.515C422.009 173.075 422.911 177.583 423.361 180.739C423.211 182.692 423.061 185.397 422.911 188.854C422.76 195.466 422.911 202.679 423.812 213.348C425.465 231.08 426.818 231.231 426.818 240.397C426.818 248.212 425.766 250.917 424.714 259.332C423.662 268.649 422.76 292.993 429.673 315.835C431.476 321.695 431.927 325.001 434.782 336.272C436.435 342.433 436.285 343.034 438.539 352.05C441.394 363.621 442.897 369.783 445.452 376.695C447.706 382.856 448.307 382.706 454.919 396.381C456.271 399.086 462.282 411.408 468.293 425.684C470.998 432.146 474.755 441.162 478.662 451.982C536.667 451.832 594.523 451.832 652.528 451.681C648.32 442.515 644.413 434.25 641.408 427.938ZM552.446 128.744C549.741 136.408 548.539 139.414 546.285 142.72C544.482 145.425 542.678 147.529 541.476 148.881C539.372 141.668 539.372 130.097 540.124 118.225C541.626 118.225 545.684 117.925 548.088 117.324C551.094 116.572 555.151 114.619 557.856 112.064C555.752 119.427 553.348 126.039 552.446 128.744Z" fill="#E0E1E2"/>
<path d="M479.261 452.284C475.204 441.314 471.597 432.448 468.892 425.986C462.731 411.71 456.87 399.388 455.518 396.683C448.906 383.008 448.305 383.158 446.051 376.997C443.496 370.085 441.993 363.923 439.138 352.202C436.884 343.186 437.034 342.735 435.381 336.423C432.376 325.153 432.075 321.847 430.272 315.986C423.209 293.145 424.111 268.8 425.313 259.484C426.365 251.068 427.417 248.363 427.417 240.549C427.417 231.382 426.064 231.232 424.411 213.5C423.359 202.831 423.209 195.617 423.51 189.005C423.66 185.699 423.81 182.844 423.961 180.891" stroke="#75819C" stroke-width="2" stroke-miterlimit="10"/>
<path d="M481.366 153.541C483.47 152.639 484.221 150.385 484.822 148.131C485.273 146.478 486.025 143.322 485.123 139.115C484.973 129.046 485.273 118.227 486.025 106.806C486.776 96.1364 487.828 85.9179 489.18 76.6009C489.481 75.3987 490.082 73.5955 490.984 71.6419C491.885 69.9889 495.041 63.5272 501.653 60.2211C504.057 59.019 506.612 58.2676 512.924 58.1173C524.945 57.8168 530.956 57.6665 537.869 60.8222C549.59 66.2321 554.85 76.7512 556.954 80.9588C559.809 86.6692 561.011 91.7785 561.612 95.2348C562.814 93.4315 564.618 91.0272 567.322 88.6228C567.473 88.4725 571.23 85.3168 575.437 83.6638C582.951 80.8086 593.921 82.0108 601.735 89.0736C610.601 97.0381 610.451 108.309 610.451 111.013C610.451 114.319 609.85 116.273 606.995 125.289C600.833 144.374 599.18 148.432 597.527 154.442C595.874 160.153 594.071 168.568 593.32 179.238C595.574 175.631 597.527 172.776 599.03 170.822C600.984 168.117 602.336 166.765 604.139 163.91C604.59 163.309 605.792 161.054 607.145 157.899C611.653 147.229 613.306 133.554 613.757 129.497C614.358 123.336 614.208 122.735 614.959 120.03C617.363 112.366 622.623 107.707 624.426 106.205C626.68 104.251 628.033 103.049 630.287 102.298C630.888 102.147 637.951 99.743 643.812 104.401C646.066 106.205 646.967 108.459 648.921 112.967C649.672 114.62 650.273 116.273 650.874 118.677C651.626 122.585 651.325 125.891 651.025 127.994C652.527 136.71 651.776 143.472 650.874 147.83C650.424 150.385 649.672 152.94 648.32 157.598C646.817 162.858 645.465 167.366 644.563 170.371C644.713 172.776 644.713 176.382 643.812 180.59C643.661 181.341 643.361 182.994 642.158 186.451C638.852 196.819 636.448 199.975 635.697 206.738C635.546 208.391 635.546 209.442 635.546 211.095C635.697 220.863 635.396 230.781 635.546 240.549C635.697 248.664 635.396 258.431 634.645 277.967C634.495 283.978 633.743 297.052 632.391 323.199C631.339 344.388 627.883 366.027 627.432 374.142C627.281 378.349 626.981 387.516 629.385 398.336C630.587 403.746 632.09 407.803 641.407 427.639C644.413 433.951 648.32 442.065 652.978 451.683" stroke="#75819C" stroke-width="2" stroke-miterlimit="10"/>
<path d="M423.661 180.89C423.21 177.885 422.308 173.227 421.106 167.666C419.754 161.355 419.303 160.303 418.101 155.645C416.448 148.582 416.598 146.929 414.644 133.554C412.54 119.579 412.39 121.683 411.939 117.175C411.038 106.054 412.691 104.702 411.488 94.9342C410.587 88.0216 409.685 88.4725 408.333 79.3058C407.131 72.0927 406.98 66.6828 406.68 60.6719C406.079 48.8003 405.928 42.9397 407.281 38.1309C408.784 33.0217 411.188 24.1555 418.852 21.1501C426.666 17.9943 435.382 22.3522 439.74 26.5599C443.497 30.1665 445.751 34.9752 446.202 36.1774C447.254 38.5818 447.855 40.6856 448.305 42.3386C450.259 50.4533 450.259 56.9151 451.01 69.0872C451.611 78.2539 452.062 80.6583 452.513 82.7621C453.565 87.8714 455.068 91.4779 456.27 94.6337C466.038 119.88 465.737 117.475 466.488 119.88C474.603 147.83 475.204 150.385 475.204 150.385C475.355 150.836 475.655 152.188 476.857 153.09C478.06 154.142 480.163 154.442 481.666 153.841" stroke="#F69AED" stroke-width="3" stroke-miterlimit="10" stroke-linecap="round"/>
<path d="M561.913 95.3835C561.312 100.192 559.809 106.353 558.006 112.214C555.902 119.577 553.347 126.19 552.446 128.894C549.741 136.558 548.539 139.564 546.285 143.02C544.481 145.725 542.678 147.829 541.476 149.181C539.222 141.968 539.372 130.397 540.123 118.526C541.025 105.001 542.678 91.3261 542.828 83.8125" stroke="#75819C" stroke-width="2" stroke-miterlimit="10"/>
<path d="M540.272 118.226C541.775 118.226 545.833 117.925 548.237 117.324C551.242 116.573 555.3 114.619 558.005 112.064" stroke="#75819C" stroke-width="2" stroke-miterlimit="10"/>
<path d="M595.273 190.808C594.521 189.606 592.718 184.347 593.62 178.035" stroke="#75819C" stroke-width="2" stroke-miterlimit="10"/>
<g opacity="0.5">
<path d="M411.941 36.1747C412.241 38.1282 412.392 39.9315 412.842 41.8851C412.993 42.7867 413.293 43.6883 413.744 44.59C414.195 45.3414 414.646 46.0927 415.397 46.5435C416.9 47.2949 418.853 47.2949 420.506 46.8441C422.31 46.3933 424.113 45.6419 425.766 45.0408C427.569 44.2894 429.222 43.3878 430.725 42.4862C431.476 42.0354 432.228 41.4342 432.678 40.8332C433.129 40.2321 433.58 39.3304 433.73 38.4288C434.181 36.6255 433.881 34.8222 433.58 32.8687C433.28 31.0654 432.678 29.1118 432.077 27.3086C432.979 28.9616 433.73 30.7649 434.331 32.7184C434.782 34.5217 435.233 36.6255 434.933 38.5791C434.782 39.631 434.482 40.6829 433.73 41.4343C433.129 42.3359 432.228 42.937 431.476 43.5381C429.823 44.59 428.17 45.4916 426.367 46.3933C424.564 47.1446 422.76 47.896 420.807 48.3468C418.853 48.7976 416.599 48.7976 414.796 47.5954C413.894 46.9944 413.293 45.9424 412.993 45.0408C412.692 44.1392 412.392 43.0873 412.241 42.1856C411.941 40.0818 411.791 38.1282 411.941 36.1747Z" fill="#75819C"/>
</g>
</svg>
