<svg width="850" height="500" viewBox="0 0 850 500" fill="none" xmlns="http://www.w3.org/2000/svg">
<path opacity="0.33" d="M690.347 451.769C683.09 436.484 677.995 422.28 675.988 390.784C673.981 359.288 677.841 356.818 675.988 331.96C674.135 307.103 672.283 312.507 674.135 293.825C675.834 275.144 665.644 250.904 665.489 241.795C665.335 232.686 666.107 201.498 663.328 186.831C660.549 172.164 654.064 162.746 649.433 137.58C644.801 112.414 627.2 96.0481 615.929 99.7536C604.659 103.459 602.806 115.193 604.196 119.516C599.255 109.789 596.013 104.077 592.925 100.371C589.837 96.6657 580.882 92.3427 580.882 92.3427C580.882 92.3427 566.987 89.4092 561.583 101.915C557.106 102.841 557.106 112.568 557.26 115.193C556.179 109.326 554.172 100.989 552.474 98.364C550.621 95.7393 547.07 91.5708 542.13 89.4093C537.189 87.2478 524.529 88.0197 521.287 90.6444C518.044 93.2691 512.177 98.6728 512.641 103.922C513.104 109.326 514.802 114.112 515.111 127.853C515.42 141.594 519.897 170.62 520.823 177.876C521.75 185.133 534.256 251.985 534.256 251.985C534.256 251.985 533.792 253.066 533.02 252.294C532.403 251.522 517.736 170.002 512.486 157.96C514.493 145.145 515.728 108.863 507.391 100.834C503.84 92.8059 482.225 86.4758 474.042 104.54C465.86 122.449 468.484 154.563 466.94 166.914C465.396 179.266 467.095 206.748 468.639 214.931C467.558 206.593 464.779 198.874 459.993 194.088C455.206 189.301 447.332 184.515 441.774 182.508C437.297 180.964 431.584 182.971 429.114 185.442C428.342 186.214 427.261 186.985 426.181 187.14C424.945 187.449 423.865 188.375 423.865 188.375C423.865 191 425.872 204.123 433.128 217.092C431.276 219.871 433.746 231.451 431.739 239.633C429.732 247.662 427.416 253.22 430.967 262.484C429.577 264.954 431.43 271.747 434.518 274.217C432.665 279.93 434.981 287.186 441.157 302.317C448.876 321.307 445.017 342.305 450.42 353.112C455.824 363.92 462.309 367.625 469.411 378.741C476.358 389.858 503.531 424.596 514.648 433.396C525.764 442.197 530.396 451.615 530.396 451.615H690.347V451.769Z" fill="#E0E1E2"/>
<path d="M690.346 451.769C683.09 436.484 677.995 422.28 675.988 390.784C673.981 359.288 677.841 356.818 675.988 331.96C674.135 307.103 672.282 312.507 674.135 293.825C675.834 275.144 665.644 250.904 665.489 241.795C665.335 232.686 666.107 201.499 663.328 186.831C660.549 172.164 656.38 161.356 649.432 137.58C641.713 111.024 627.2 96.0482 615.929 99.7537C604.658 103.459 602.806 115.193 604.195 119.516C599.255 109.789 596.012 104.077 592.925 100.371C590.609 97.5922 584.279 92.806 579.029 92.034C575.169 91.4165 565.751 92.1884 561.583 101.761C557.569 103.15 557.105 112.414 557.26 115.039C556.179 109.172 554.172 100.834 552.474 98.2097C550.621 95.5851 547.07 91.4164 542.129 89.2549C537.189 87.0934 524.529 87.8654 521.286 90.4901C518.044 93.1148 512.177 98.5185 512.64 103.768C513.104 109.172 514.802 113.958 515.111 127.699C515.419 141.44 519.897 170.466 520.823 177.722C521.75 184.978 534.255 251.831 534.255 251.831C534.255 251.831 533.792 252.911 533.02 252.139C532.403 251.367 517.735 169.848 512.486 157.805C514.493 144.991 515.728 108.708 507.391 100.68C503.84 92.6516 482.225 86.3215 474.042 104.385C465.859 122.295 468.484 154.409 466.94 166.76C465.396 179.112 467.094 206.593 468.638 214.776C467.558 206.439 464.779 198.719 459.992 193.933C455.206 189.147 447.332 184.361 441.774 182.354C437.297 180.81 431.584 182.817 429.114 185.442C428.187 186.368 426.952 187.294 425.563 187.449C424.482 187.603 423.865 187.912 423.865 187.912C423.865 190.382 425.563 202.27 431.584 214.159C432.356 215.703 432.819 217.401 432.51 219.099C431.893 223.577 433.437 232.84 431.738 239.479C429.731 247.508 427.415 253.066 430.967 262.329C431.275 267.27 432.819 272.21 434.518 274.063C434.054 280.702 434.981 287.032 441.156 302.163C448.876 321.153 445.016 342.15 450.42 352.958C455.824 363.765 462.308 367.471 469.41 378.587C476.358 389.703 503.531 424.442 514.647 433.242C525.764 442.042 530.396 451.46 530.396 451.46" stroke="#808285" stroke-width="2" stroke-miterlimit="10"/>
<path d="M473.888 345.393C474.351 337.519 477.902 324.087 478.211 319.301C478.674 314.514 477.284 321.308 476.976 300.619C476.821 279.776 474.968 247.045 471.572 232.377C468.175 217.71 469.102 214.777 467.558 209.527" stroke="#808285" stroke-width="2" stroke-miterlimit="10"/>
<path d="M587.057 238.553C583.661 233.458 579.801 224.503 579.338 200.727C578.875 176.95 571.773 171.238 571.309 154.872C570.846 138.507 559.112 133.257 557.105 115.348" stroke="#808285" stroke-width="2" stroke-miterlimit="10"/>
<path d="M628.744 232.685C628.898 226.819 629.053 197.175 625.965 179.42C622.877 161.665 619.789 154.871 616.084 146.997C612.224 138.969 605.739 126.772 603.886 119.67" stroke="#808285" stroke-width="2" stroke-miterlimit="10"/>
<g opacity="0.5">
<path d="M432.51 189.303C433.9 189.612 435.135 190.383 436.37 191.31C437.451 192.391 438.223 193.626 438.686 195.015C439.458 197.794 440.23 200.419 440.693 203.352C441.157 206.132 441.62 209.065 441.311 211.998C441.311 212.77 441.002 213.542 440.848 214.16C440.539 214.932 440.076 215.55 439.458 216.013C438.223 217.093 436.679 217.248 435.29 216.785C436.679 216.939 438.069 216.476 438.995 215.395C439.921 214.469 440.076 213.079 440.076 211.69C440.076 208.911 439.613 206.132 439.149 203.507C438.686 200.728 438.069 197.949 437.451 195.324C436.988 192.854 435.135 190.538 432.51 189.303Z" fill="#AEB0B2"/>
</g>
<path opacity="0.33" d="M279.043 454.394C284.447 451.769 298.651 438.491 307.606 429.073C316.561 419.81 347.748 395.57 351.454 388.931C355.005 382.292 363.187 352.495 372.76 331.497C378.935 317.911 384.648 305.096 384.339 303.398C386.655 302.163 388.662 292.281 390.669 283.635C392.676 274.989 407.807 248.125 409.814 240.869C409.814 233.149 393.14 229.907 388.508 231.296C388.508 231.296 399.315 213.85 408.27 204.432C417.225 195.168 424.173 176.332 427.569 169.539C430.966 162.746 429.268 145.917 418.614 141.285C407.961 136.653 393.912 148.233 388.508 155.644C383.104 163.055 376.62 174.017 373.84 177.568C371.061 181.273 332.463 219.099 322.736 229.752C312.855 240.56 303.746 250.132 292.63 252.448C281.514 254.61 270.089 244.728 273.64 220.334C281.514 202.579 285.373 191.154 285.991 186.059C290.314 184.361 304.364 172.473 308.224 161.974C315.634 153.328 326.596 130.169 318.722 117.046C316.098 103.15 299.269 105.466 294.483 108.863C289.696 112.259 285.373 116.737 282.749 124.148C278.117 129.088 275.338 136.499 275.029 138.506C273.176 138.197 262.06 142.984 256.039 147.307C250.017 151.784 244.151 155.181 242.915 155.953C241.68 156.725 270.089 133.566 271.941 120.597C273.794 107.628 268.081 96.9745 258.046 97.7465C248.01 98.5185 238.592 109.172 236.122 110.252C233.652 111.333 226.859 115.193 224.079 118.435C221.455 115.502 219.602 115.656 217.904 113.031C216.205 110.407 210.493 107.164 205.552 111.179C200.612 115.193 199.068 119.979 196.289 122.295C193.51 124.456 176.99 141.594 172.204 151.63C167.417 161.665 160.933 179.42 157.999 183.589C155.066 187.758 151.36 193.779 148.427 209.218C145.494 224.657 141.325 222.65 140.862 248.588C140.399 274.526 131.135 277.923 129.591 293.517C128.202 308.956 130.672 318.219 127.893 331.806C125.114 345.393 123.261 356.663 123.57 364.074C123.879 371.485 124.651 390.012 115.696 411.318C106.432 432.779 97.0142 449.608 93 454.394H279.043Z" fill="#E0E1E2"/>
<path d="M279.043 454.394C284.447 451.769 298.651 438.491 307.606 429.073C316.561 419.81 347.748 395.57 351.454 388.931C355.005 382.292 363.187 352.495 372.76 331.497C378.935 317.911 384.648 305.096 384.339 303.398C386.655 302.163 388.662 292.281 390.669 283.635C392.676 274.989 407.807 248.125 409.814 240.869C409.814 233.149 393.14 229.907 388.508 231.296C388.508 231.296 399.315 213.85 408.27 204.432C417.225 195.168 424.173 176.332 427.569 169.539C430.966 162.746 429.268 145.917 418.614 141.285C407.961 136.653 393.912 148.233 388.508 155.644C383.104 163.055 376.62 174.017 373.84 177.568C371.061 181.273 332.463 219.099 322.736 229.752C312.855 240.56 303.746 250.132 292.63 252.448C281.514 254.61 270.089 244.728 273.64 220.334C281.514 202.579 285.373 191.154 285.991 186.059C290.314 184.361 304.364 172.473 308.224 161.974C315.634 153.328 326.596 130.169 318.722 117.046C316.098 103.15 299.269 105.466 294.483 108.863C289.696 112.259 285.373 116.737 282.749 124.148C278.117 129.088 275.338 136.499 275.029 138.506C273.176 138.197 262.06 142.984 256.039 147.307C250.017 151.784 244.151 155.181 242.915 155.953C241.68 156.725 270.089 133.566 271.941 120.597C273.794 107.628 268.081 96.9745 258.046 97.7465C248.01 98.5185 238.592 109.172 236.122 110.252C233.652 111.333 226.859 115.193 224.079 118.435C221.455 115.502 219.602 115.656 217.904 113.031C216.205 110.407 210.493 107.164 205.552 111.179C200.612 115.193 199.068 119.979 196.289 122.295C193.51 124.456 176.99 141.594 172.204 151.63C167.417 161.665 160.933 179.42 157.999 183.589C155.066 187.758 151.36 193.779 148.427 209.218C145.494 224.657 141.325 222.65 140.862 248.588C140.399 274.526 131.135 277.923 129.591 293.517C128.202 308.956 130.672 318.219 127.893 331.806C125.114 345.393 123.261 356.663 123.57 364.074C123.879 371.485 124.651 390.012 115.696 411.318C106.432 432.779 97.0142 449.608 93 454.394" stroke="#808285" stroke-width="2" stroke-miterlimit="10"/>
<path d="M156.147 264.8C157.999 249.824 164.484 181.273 167.417 173.708C170.351 166.143 181.622 160.739 186.562 155.026C191.503 149.16 196.752 142.829 202.31 139.433C207.868 135.882 217.441 126.155 223.925 118.744" stroke="#808285" stroke-width="2" stroke-miterlimit="10"/>
<path d="M202.001 255.999C208.64 248.742 211.574 238.861 213.427 227.745C215.125 216.628 222.227 190.073 225.624 180.809C229.175 171.546 231.49 161.51 242.761 156.106" stroke="#808285" stroke-width="2" stroke-miterlimit="10"/>
<path d="M312.547 381.674C316.561 372.411 319.495 365.309 319.032 355.736C318.414 346.164 316.716 338.29 317.333 332.732C317.951 327.174 328.141 306.176 330.457 302.162" stroke="#808285" stroke-width="2" stroke-miterlimit="10"/>
<path d="M330.302 302.163C332.618 298.148 337.867 290.274 351.299 276.225C364.731 262.175 388.662 231.296 388.662 231.296C388.662 231.296 399.47 213.85 408.424 204.432C417.379 195.169 424.327 176.333 427.723 169.539C431.12 162.746 429.422 145.917 418.769 141.285C408.116 136.654 394.066 148.233 388.662 155.644C383.258 163.055 376.774 174.017 373.995 177.568C371.216 181.273 332.618 219.099 322.891 229.752C313.01 240.56 303.9 250.132 292.784 252.448" stroke="#2969D0" stroke-width="3" stroke-miterlimit="10" stroke-linecap="round"/>
<g opacity="0.5">
<path d="M402.403 236.237C398.08 237.318 393.603 238.399 390.052 241.023C386.501 243.494 383.722 247.199 382.023 251.213C381.097 253.221 380.479 255.382 380.325 257.544C380.016 259.705 380.479 261.867 381.406 263.719C382.332 265.726 383.876 267.27 385.574 268.505C387.427 269.895 389.434 270.821 391.596 271.439C387.273 270.667 382.641 268.351 380.325 264.182C379.09 262.175 378.627 259.705 378.781 257.235C378.935 254.919 379.553 252.603 380.479 250.441C382.178 246.118 385.266 242.259 389.28 239.943C391.287 238.708 393.448 237.781 395.61 237.318C397.926 236.7 400.087 236.392 402.403 236.237Z" fill="#AEB0B2"/>
</g>
<g opacity="0.5">
<path d="M424.482 158.885C422.629 161.51 419.541 163.054 416.453 163.826C413.211 164.598 409.814 164.135 406.881 162.899C405.337 162.282 403.947 161.356 402.712 160.275C401.477 159.194 400.551 157.65 400.087 155.952C399.779 154.253 399.933 152.555 400.551 151.011C401.168 149.467 402.095 148.232 403.33 147.151C402.249 148.387 401.631 149.776 401.168 151.166C400.705 152.555 400.705 154.099 401.168 155.489C401.631 156.878 402.403 158.113 403.484 159.04C404.565 159.966 405.954 160.738 407.344 161.356C410.123 162.591 413.057 163.054 416.144 162.591C417.688 162.282 419.078 161.973 420.467 161.356C422.011 160.892 423.401 159.966 424.482 158.885Z" fill="#AEB0B2"/>
</g>
</svg>
