<svg width="850" height="500" viewBox="0 0 850 500" fill="none" xmlns="http://www.w3.org/2000/svg">
<path opacity="0.33" d="M688 443.26C681.029 428.577 676.134 414.931 674.206 384.674C672.278 354.417 675.986 352.044 674.206 328.164C672.426 304.285 670.647 309.476 672.426 291.529C674.058 273.583 664.269 250.296 664.121 241.546C663.972 232.795 664.714 202.834 662.044 188.744C659.374 174.653 653.145 165.606 648.695 141.43C644.246 117.253 627.337 101.532 616.51 105.091C605.683 108.651 603.903 119.923 605.238 124.076C600.491 114.732 597.377 109.244 594.41 105.685C591.444 102.125 582.841 97.9719 582.841 97.9719C582.841 97.9719 569.492 95.1538 564.301 107.168C560 108.058 560 117.402 560.148 119.923C559.11 114.287 557.182 106.278 555.55 103.756C553.771 101.235 550.359 97.2303 545.613 95.1538C540.867 93.0774 528.704 93.8189 525.59 96.3404C522.475 98.8618 516.839 104.053 517.284 109.096C517.729 114.287 519.36 118.885 519.657 132.085C519.954 145.286 524.255 173.17 525.145 180.141C526.035 187.112 538.049 251.335 538.049 251.335C538.049 251.335 537.604 252.373 536.862 251.631C536.269 250.89 522.178 172.577 517.136 161.008C519.064 148.697 520.25 113.842 512.241 106.129C508.83 98.4169 488.065 92.3357 480.204 109.689C472.343 126.894 474.864 157.745 473.381 169.61C471.898 181.476 473.53 207.877 475.013 215.738C473.975 207.729 471.305 200.313 466.707 195.715C462.109 191.117 454.545 186.519 449.205 184.591C444.904 183.107 439.416 185.036 437.043 187.409C436.301 188.15 435.263 188.892 434.225 189.04C433.038 189.337 432 190.227 432 190.227C432 192.748 433.928 205.355 440.899 217.814C439.119 220.484 441.492 231.608 439.564 239.469C437.636 247.182 435.411 252.521 438.823 261.42C437.488 263.794 439.268 270.32 442.234 272.693C440.454 278.18 442.679 285.152 448.612 299.687C456.028 317.93 452.32 338.102 457.511 348.484C462.702 358.866 468.932 362.426 475.754 373.105C482.429 383.784 508.533 417.156 519.212 425.61C529.891 434.065 534.341 443.112 534.341 443.112H688V443.26Z" fill="#E0E1E2"/>
<path d="M688 443.262C681.029 428.579 676.134 414.933 674.206 384.676C672.278 354.419 675.986 352.046 674.206 328.166C672.426 304.287 670.647 309.478 672.426 291.531C674.058 273.584 664.269 250.298 664.121 241.547C663.972 232.796 664.714 202.836 662.044 188.745C659.374 174.655 655.37 164.273 648.695 141.431C641.279 115.92 627.337 101.533 616.51 105.093C605.683 108.653 603.903 119.925 605.238 124.078C600.491 114.734 597.377 109.246 594.41 105.686C592.185 103.017 586.104 98.4187 581.061 97.6771C577.353 97.0838 568.306 97.8254 564.301 107.021C560.445 108.356 560 117.255 560.148 119.777C559.11 114.141 557.182 106.131 555.55 103.61C553.771 101.088 550.359 97.0838 545.613 95.0073C540.867 92.9309 528.704 93.6725 525.59 96.1939C522.475 98.7153 516.839 103.907 517.284 108.949C517.729 114.141 519.36 118.739 519.657 131.939C519.954 145.139 524.255 173.024 525.145 179.995C526.035 186.966 538.049 251.188 538.049 251.188C538.049 251.188 537.604 252.226 536.862 251.485C536.269 250.743 522.178 172.43 517.136 160.861C519.064 148.551 520.25 113.696 512.241 105.983C508.83 98.2704 488.065 92.1893 480.204 109.543C472.343 126.748 474.864 157.598 473.381 169.464C471.898 181.329 473.53 207.73 475.013 215.591C473.975 207.582 471.305 200.166 466.707 195.568C462.109 190.97 454.545 186.372 449.205 184.444C444.904 182.961 439.416 184.889 437.043 187.411C436.153 188.301 434.966 189.19 433.631 189.339C432.593 189.487 432 189.784 432 189.784C432 192.157 433.632 203.577 439.416 214.998C440.158 216.481 440.603 218.113 440.306 219.744C439.713 224.046 441.196 232.945 439.564 239.323C437.636 247.035 435.411 252.375 438.823 261.274C439.119 266.02 440.603 270.766 442.234 272.546C441.789 278.924 442.679 285.005 448.612 299.54C456.028 317.784 452.32 337.955 457.511 348.338C462.702 358.72 468.932 362.28 475.754 372.959C482.429 383.638 508.533 417.01 519.212 425.464C529.891 433.918 534.341 442.966 534.341 442.966" stroke="#808285" stroke-width="2" stroke-miterlimit="10"/>
<path d="M480.056 341.069C480.501 333.505 483.912 320.601 484.209 316.003C484.654 311.405 483.319 317.931 483.022 298.057C482.874 278.033 481.094 246.59 477.831 232.499C474.568 218.409 475.458 215.591 473.975 210.548" stroke="#808285" stroke-width="2" stroke-miterlimit="10"/>
<path d="M588.774 238.433C585.511 233.539 581.803 224.936 581.358 202.095C580.913 179.254 574.09 173.766 573.645 158.044C573.2 142.322 561.928 137.279 560 120.074" stroke="#808285" stroke-width="2" stroke-miterlimit="10"/>
<path d="M628.821 232.796C628.969 227.16 629.118 198.682 626.151 181.625C623.185 164.569 620.218 158.043 616.659 150.478C612.951 142.766 606.721 131.048 604.941 124.226" stroke="#808285" stroke-width="2" stroke-miterlimit="10"/>
<g opacity="0.5">
<path d="M440.307 191.12C441.642 191.417 442.829 192.158 444.015 193.048C445.053 194.087 445.795 195.273 446.24 196.608C446.982 199.278 447.723 201.799 448.168 204.617C448.613 207.287 449.058 210.105 448.761 212.923C448.761 213.665 448.465 214.406 448.316 215C448.02 215.741 447.575 216.334 446.982 216.779C445.795 217.818 444.312 217.966 442.977 217.521C444.312 217.669 445.647 217.224 446.537 216.186C447.426 215.296 447.575 213.961 447.575 212.626C447.575 209.957 447.13 207.287 446.685 204.766C446.24 202.096 445.647 199.426 445.053 196.905C444.608 194.531 442.829 192.307 440.307 191.12Z" fill="#AEB0B2"/>
</g>
<path opacity="0.33" d="M400.597 185.536C401.331 182.749 411.472 155.344 409.708 149.924C407.945 144.505 387.958 138.622 371.204 161.537C354.303 184.452 351.364 196.529 352.54 210.929C350.482 214.025 348.131 237.25 344.31 246.85C341.077 248.863 335.492 259.237 334.757 259.082C333.876 258.927 324.323 251.34 313.301 252.734C313.301 247.315 313.007 231.676 319.032 215.729C325.058 199.781 339.607 175.782 345.192 167.73C350.629 159.679 349.307 157.976 350.042 156.427C350.776 154.879 365.619 143.421 364.297 119.113C363.121 94.8038 342.546 98.8295 340.783 99.6037C339.166 100.378 331.23 106.416 323.735 119.577C318.298 117.255 308.304 121.28 296.106 139.551C284.055 157.821 268.624 186.93 267.743 187.704C266.714 188.478 258.484 188.633 257.014 184.762C255.545 181.046 255.839 172.685 259.807 159.679C265.979 148.376 272.445 132.119 273.915 125.616C277.589 124.841 289.64 118.803 292.579 115.397C296.4 115.861 311.096 112.919 317.71 100.688C324.323 88.4557 314.917 82.8817 314.183 82.2623C313.301 81.643 294.196 77.3077 289.934 76.5335C285.672 75.6045 278.324 75.9142 274.209 77.927C269.653 77.927 263.922 76.8432 252.899 82.4172C249.225 84.2752 245.257 85.5138 241.436 86.5977C243.2 82.1075 260.101 47.5797 254.222 34.1092C248.197 20.6387 239.82 18.0065 233.647 21.258C229.973 23.116 224.536 28.69 221.449 40.6122C216.306 45.7217 212.926 51.4505 210.868 56.0955C208.811 60.7405 205.871 71.7337 204.402 73.9013C202.932 76.069 197.641 82.572 195.29 87.9912C193.086 93.5652 191.028 102.545 189.265 105.487C185.15 105.023 159.872 105.023 153.847 107.036C147.821 109.203 135.036 122.209 132.684 125.77C130.186 129.486 124.307 137.847 119.017 141.873C113.726 145.899 111.962 150.234 111.815 154.105C111.522 157.976 114.755 165.408 114.902 167.885C115.049 170.362 114.755 185.846 117.841 195.291C120.927 204.735 124.454 205.819 126.071 213.406C127.687 220.838 129.598 239.883 131.361 249.792C133.125 259.701 137.24 270.849 139.15 280.449C141.061 290.049 142.531 305.996 143.706 311.88C144.882 317.609 149.732 339.595 148.556 349.505C147.38 359.414 148.556 363.594 138.269 386.974C127.981 410.354 124.013 423.36 119.457 431.411C114.902 439.308 100.499 460.056 98.2949 462.533H248.05C248.05 462.533 266.861 433.424 274.209 421.347C281.557 409.115 292.138 389.916 311.978 373.813C331.818 357.711 372.233 325.97 379.875 318.538C387.517 311.106 387.517 305.377 391.191 279.984C394.865 254.592 399.421 235.083 398.245 233.844C399.715 232.605 401.919 217.741 400.744 217.122C401.919 216.503 399.862 188.323 400.597 185.536ZM163.399 178.414C163.399 178.414 162.371 179.343 161.342 178.414C160.46 177.485 163.84 161.382 157.815 153.795C162.077 150.389 168.102 141.409 167.514 137.228C169.425 138.157 173.54 138.002 173.54 138.002C172.511 142.183 165.604 162.156 163.399 178.414Z" fill="#E0E1E2"/>
<path d="M242.318 84.2752C244.081 79.785 259.953 47.7345 253.928 34.1092C247.902 20.6387 239.526 18.0065 233.353 21.258C229.679 23.116 224.388 28.69 221.155 40.6122C216.012 45.7217 212.631 51.4505 210.574 56.0955C208.516 60.7405 205.577 71.7337 204.108 73.9013C202.785 76.069 197.347 82.572 194.996 87.9912C192.792 93.5652 188.97 102.081 187.207 104.868C184.268 109.668 182.357 112.61 178.83 121.28C175.156 129.951 174.274 136.918 172.952 141.099C171.629 145.279 165.456 162.001 163.252 178.259C163.252 178.259 162.223 179.188 161.195 178.259C160.313 177.33 163.693 161.227 157.667 153.64C161.929 150.234 167.073 142.338 167.367 137.073C169.424 138.002 171.923 138.157 171.923 138.157" stroke="#808285" stroke-width="2" stroke-miterlimit="10"/>
<path d="M187.353 105.022C183.238 104.558 159.724 105.022 153.552 107.19C147.526 109.357 134.888 122.363 132.389 126.079C129.891 129.795 124.012 138.156 118.722 142.182C113.431 146.208 111.814 150.543 111.521 154.414C111.227 158.285 114.46 165.717 114.607 168.194C114.754 170.671 114.46 186.155 117.546 195.6C120.632 205.044 124.159 206.128 125.776 213.715C127.392 221.302 129.303 240.192 131.067 250.101C132.83 260.01 136.945 271.158 138.856 280.758C140.766 290.358 142.236 306.305 143.411 312.189C144.587 318.073 149.437 339.904 148.261 349.813C147.085 359.723 148.261 363.749 137.974 387.283C127.686 410.663 123.718 423.669 119.163 431.72C114.607 439.617 100.204 460.364 98 462.842" stroke="#808285" stroke-width="2" stroke-miterlimit="10"/>
<path d="M242.317 84.2752C244.08 79.785 259.952 47.7345 253.927 34.1092C247.901 20.6387 239.524 18.0065 233.352 21.258C229.678 23.116 224.387 28.69 221.154 40.6122C216.01 45.7217 212.63 51.4505 210.573 56.0955C208.515 60.7405 205.576 71.7337 204.107 73.9013C202.784 76.069 197.346 82.572 194.995 87.9912C192.79 93.5651 188.969 102.081 187.206 104.868C184.267 109.668 182.356 112.61 178.829 121.28C175.155 129.951 174.273 136.918 172.951 141.099C171.628 145.279 165.455 162.001 163.251 178.259" stroke="#2969D0" stroke-width="3" stroke-miterlimit="10" stroke-linecap="round"/>
<path d="M247.461 462.688C247.461 462.688 266.419 433.579 273.62 421.502C280.821 409.425 291.549 390.071 311.389 373.968C331.229 357.866 371.644 326.125 379.286 318.693C386.928 311.261 386.928 305.532 390.602 280.139C394.276 254.747 398.832 235.238 397.656 233.999C399.126 232.76 401.33 217.896 400.155 217.277C401.771 216.658 399.861 188.323 400.448 185.536C401.036 182.749 411.324 155.344 409.56 149.925C407.797 144.505 387.81 138.622 371.056 161.537C354.302 184.452 351.363 196.529 352.539 211.084C350.481 214.18 348.13 237.405 344.309 247.005C341.076 249.018 335.491 259.392 334.756 259.237C333.875 259.082 324.322 251.495 313.3 252.889C313.3 247.469 313.006 231.831 319.031 215.884C325.057 199.936 339.606 175.937 345.044 167.885C350.481 159.834 349.159 158.131 349.893 156.582C350.628 155.034 365.471 143.576 364.149 119.268C362.973 94.9587 342.251 98.9844 340.635 99.7585C339.018 100.533 331.082 106.571 323.587 119.732C318.15 117.41 308.009 121.435 295.958 139.706C283.907 157.976 268.476 187.085 267.595 187.859C266.566 188.633 258.336 188.788 256.866 184.917C255.397 181.201 255.838 172.84 259.659 159.679C265.831 148.376 272.297 132.274 273.767 125.616C277.441 124.842 289.492 118.803 292.431 115.397C296.252 115.861 310.948 112.919 317.562 100.688C324.175 88.4557 314.769 82.8817 314.035 82.2624C313.153 81.643 294.048 77.3077 289.786 76.5335C285.524 75.6045 278.176 75.9142 274.208 77.927C269.652 77.927 263.92 76.8432 252.898 82.4172C241.876 87.9912 228.649 87.8364 220.86 96.1974C213.218 104.404 204.695 146.363 203.225 153.95C201.902 161.537 199.257 192.194 187.353 202.258" stroke="#808285" stroke-width="2" stroke-miterlimit="10"/>
<g opacity="0.5">
<path d="M406.033 151.783C402.359 152.247 398.832 153.641 396.334 156.273C393.688 158.75 392.072 162.156 391.043 165.872C390.014 169.434 389.72 173.304 390.749 176.866C391.778 180.427 394.129 183.523 396.628 186.31C395.158 185.227 393.835 183.833 392.513 182.285C391.337 180.736 390.308 179.033 389.573 177.175C388.251 173.459 388.398 169.124 389.573 165.408C390.602 161.692 392.513 157.821 395.452 155.344C396.922 154.105 398.685 153.176 400.449 152.557C402.359 151.937 404.123 151.628 406.033 151.783Z" fill="#AEB0B2"/>
</g>
<path d="M167.66 137.228C167.807 133.357 167.954 127.628 165.603 121.899" stroke="#808285" stroke-width="2" stroke-miterlimit="10"/>
<path d="M157.961 153.796C155.903 150.7 151.641 147.758 151.641 147.758" stroke="#808285" stroke-width="2" stroke-miterlimit="10"/>
<path d="M273.914 125.769C274.502 120.195 273.914 114.312 273.914 114.312" stroke="#808285" stroke-width="2" stroke-miterlimit="10"/>
<path d="M324.028 120.042C329.025 120.352 339.018 122.519 344.603 125.926" stroke="#808285" stroke-width="2" stroke-miterlimit="10"/>
<path d="M292.578 115.551C295.076 113.074 299.485 105.642 299.779 104.094" stroke="#808285" stroke-width="2" stroke-miterlimit="10"/>
<g opacity="0.5">
<path d="M247.608 31.7861C246.873 34.2635 245.845 36.7408 244.228 38.9085C242.758 41.0761 240.701 43.089 238.35 44.1728C237.762 44.4825 237.174 44.7921 236.439 44.947C235.851 45.2566 235.116 45.2566 234.528 45.4115C233.941 45.5663 233.206 45.4115 232.618 45.5663C232.03 45.5663 231.295 45.5663 230.707 45.4115C229.385 45.2566 228.209 45.1018 226.886 44.6373C226.299 44.4825 225.711 44.1728 225.123 43.7083C224.535 43.3986 223.947 42.7793 224.094 42.0051C224.094 42.6245 224.829 43.089 225.27 43.2438C225.858 43.5535 226.446 43.7083 227.033 43.7083C228.209 43.8631 229.532 44.018 230.707 44.018C233.206 44.018 235.557 43.7083 237.615 42.6245C239.819 41.5406 241.583 39.8375 243.199 37.9795C244.963 36.2763 246.432 34.1086 247.608 31.7861Z" fill="#AEB0B2"/>
</g>
</svg>
