<svg width="850" height="500" viewBox="0 0 850 500" fill="none" xmlns="http://www.w3.org/2000/svg">
<path opacity="0.33" d="M500.953 423.693C499.549 420.886 497.163 416.675 493.514 411.903C488.461 405.306 485.092 403.06 479.057 396.744C473.302 390.568 469.653 385.655 465.161 379.339C461.933 374.848 461.512 373.725 451.125 356.601C438.352 335.406 432.036 324.879 430.352 322.774C429.509 321.791 427.404 319.405 425.72 315.615C423.895 311.404 423.614 307.755 423.193 302.983C422.632 294.982 422.351 290.912 422.211 286.42C421.93 280.244 420.947 275.051 419.263 264.384C418.281 258.067 417.158 252.453 415.754 242.066C415.614 241.505 415.614 240.663 415.473 239.54C414.912 236.171 414.21 235.89 414.07 233.785C413.929 232.101 414.491 231.82 414.21 229.995C414.07 228.592 413.789 227.75 413.649 227.188C412.947 224.662 414.07 222.275 414.912 220.17C416.456 216.521 423.334 206.134 434.001 192.94C432.597 189.431 430.773 184.518 428.808 178.623C426.281 171.044 422.912 160.938 420.246 148.305C418 137.357 418.982 137.638 416.175 124.023C414.491 115.742 413.789 114.198 412.526 106.618C410.42 94.4068 410.561 88.652 410.701 85.0026C411.262 77.1424 412.806 73.072 413.508 71.528C415.052 68.019 417.158 63.3871 421.93 61.1413C425.72 59.457 429.369 60.0184 431.334 60.4395C438.492 61.7028 442.844 66.475 444.528 68.2997C449.16 73.2124 450.704 78.6864 451.686 81.9147C452.388 84.1605 452.809 86.4063 453.371 89.2135C454.353 93.705 454.494 95.6701 454.915 98.4773C456.318 106.478 458.845 112.513 460.248 115.882C461.091 117.987 462.494 120.654 465.301 125.988C471.197 137.217 471.197 136.655 473.723 141.849C477.372 149.147 479.899 155.183 483.127 163.324C483.408 163.885 486.075 170.763 487.057 173.149C488.742 177.5 489.584 179.465 491.689 180.729C491.97 180.869 495.198 182.553 497.725 180.729C498.848 180.027 499.128 178.764 499.97 176.518C500.813 174.132 501.093 172.167 501.093 171.886C501.795 166.412 501.514 159.394 501.374 157.71C501.936 147.744 501.374 140.024 500.813 134.69C500.111 128.374 500.532 121.918 499.128 115.742C498.848 114.619 498.286 111.952 498.848 108.724C499.549 105.215 501.234 102.688 502.216 101.425C507.269 94.5472 515.691 91.5996 517.516 90.8978C518.217 90.6171 533.657 85.8448 547.834 94.2665C549.518 95.249 550.641 97.214 551.623 96.9333C558.22 94.9683 567.063 98.0562 575.765 101.846C581.239 104.372 586.573 107.18 591.065 109.285C592.328 109.285 599.486 110.689 605.522 116.303C603.978 114.899 605.101 111.25 605.802 107.601C606.364 104.513 607.487 102.267 607.627 101.706C610.013 96.793 613.663 93.705 616.049 92.161C616.751 91.3189 617.873 90.0556 619.558 89.0731C620.681 88.3713 623.207 86.8273 626.155 87.2484C628.681 87.5291 630.225 89.0731 632.05 90.7574C635.278 93.8454 636.541 97.4948 637.103 99.1791C637.664 100.723 637.945 101.986 638.085 102.969C639.068 104.372 640.331 106.337 641.594 108.724C645.103 115.18 646.788 120.514 647.349 122.619C648.753 127.392 649.174 131.041 650.156 138.62C651.139 146.34 650.437 146.06 651.279 150.972C652.402 157.008 653.525 158.411 653.946 163.745C654.227 167.254 654.087 169.64 653.806 173.29C653.665 175.956 653.244 179.044 651.279 189.992C650.016 196.73 649.455 200.098 648.472 204.169C647.069 210.204 645.665 215.398 644.542 219.328C644.402 221.574 644.261 224.802 644.121 228.732C643.419 244.172 642.998 251.892 642.717 254.839C641.173 270.7 639.068 271.823 639.349 283.332C639.489 287.964 639.77 288.105 640.191 296.246C640.612 306.352 640.472 314.071 640.331 317.3C639.91 331.476 638.647 333.16 638.787 345.512C638.787 352.39 639.208 357.583 639.349 358.987C640.191 369.514 642.016 377.234 643.7 385.094C645.665 393.937 646.647 398.288 648.753 404.043C651.981 412.745 655.771 419.482 658.578 423.974C606.504 423.553 553.729 423.553 500.953 423.693Z" fill="#E0E1E2"/>
<g opacity="0.5">
<path d="M416.456 74.1942C416.877 75.5978 417.439 77.0014 418.14 78.2647C418.561 78.8261 418.983 79.5279 419.404 79.8087C419.684 79.949 419.965 80.0894 420.246 80.0894C420.526 80.0894 420.948 80.0894 421.228 80.0894C424.176 79.6683 427.123 79.2472 429.931 78.5454C432.878 77.984 435.685 77.2822 438.352 76.0189C438.914 75.7382 439.616 75.3171 439.896 74.896C440.037 74.6153 440.037 74.475 440.037 74.0539L440.177 72.931C440.317 71.5274 440.177 69.9834 439.896 68.4395C440.458 69.8431 440.738 71.387 440.879 72.931V74.0539C440.879 74.3346 440.879 74.896 440.738 75.3171C440.317 76.1593 439.616 76.5804 438.914 77.0015C436.247 78.5454 433.159 79.2472 430.211 79.949C427.264 80.5105 424.316 80.9315 421.228 81.0719C420.807 81.0719 420.527 81.0719 420.105 81.0719C419.684 81.0719 419.263 80.7912 418.842 80.5105C418.14 79.949 417.86 79.2472 417.439 78.5454C417.017 77.2822 416.737 75.7382 416.456 74.1942Z" fill="#AEB0B2"/>
</g>
<path d="M500.953 423.692C499.549 420.885 497.163 416.674 493.514 411.902C488.461 405.305 485.092 403.059 479.057 396.743C473.302 390.567 469.652 385.655 465.161 379.338C461.932 374.847 461.511 373.724 451.125 356.6C438.352 335.406 432.036 324.879 430.351 322.773C429.509 321.791 427.404 319.404 425.719 315.615C423.895 311.404 423.614 307.755 423.193 302.982C422.631 294.982 422.351 290.911 422.21 286.42C421.93 280.244 420.947 275.05 419.263 264.383C418.28 258.067 417.157 252.452 415.754 242.066C415.613 241.504 415.613 240.662 415.473 239.539C414.912 236.171 414.21 235.89 414.069 233.784C413.929 232.1 414.491 231.819 414.21 229.995C414.069 228.591 413.789 227.749 413.648 227.187C412.947 224.661 414.069 222.275 414.912 220.169C416.456 216.52 423.333 206.133 434.001 192.939" stroke="#808285" stroke-width="2" stroke-miterlimit="10"/>
<path d="M495.9 181.29C496.602 181.149 497.444 181.009 498.146 180.448C499.269 179.746 499.55 178.483 500.392 176.237C501.234 173.851 501.515 171.886 501.515 171.605C502.217 166.131 501.936 159.113 501.796 157.428C502.357 147.463 501.796 139.743 501.234 134.409C500.532 128.093 500.953 121.636 499.55 115.461C499.269 114.338 498.708 111.671 499.269 108.443C499.971 104.934 501.655 102.407 502.638 101.144C507.691 94.2661 516.112 91.1782 517.937 90.6167C540.254 84.3005 552.045 96.6523 552.045 96.6523C558.221 94.8276 566.361 95.9505 575.485 101.565C575.625 101.705 575.906 101.705 576.046 101.846C582.924 103.39 588.258 106.337 590.644 108.162C591.346 108.723 592.047 109.004 592.89 109.285C595.556 109.846 601.171 111.671 605.943 116.162C604.399 114.759 605.522 111.109 606.224 107.46C606.785 104.372 607.908 102.126 608.049 101.565C610.435 96.6523 614.084 93.5643 616.47 92.0204C617.172 91.1782 618.295 89.9149 619.979 88.9324C621.102 88.2306 623.488 86.6866 626.436 87.1077C626.997 87.1077 627.699 87.3885 628.261 87.6692C634.717 91.0378 636.823 96.7926 637.524 99.1788C638.086 100.723 638.367 101.986 638.507 102.968C639.489 104.372 640.753 106.337 642.016 108.723C645.525 115.18 647.209 120.514 647.771 122.619C649.174 127.391 649.595 131.041 650.578 138.62C651.56 146.34 650.859 146.059 651.701 150.972C652.824 157.007 653.947 158.411 654.368 163.745C654.648 167.254 654.508 169.64 654.227 173.289C654.087 175.956 653.666 179.044 651.701 189.992C650.438 196.729 649.876 200.098 648.894 204.169C647.49 210.204 646.086 215.397 644.963 219.328C644.823 221.573 644.683 224.802 644.542 228.732C643.841 244.171 643.42 251.891 643.139 254.839C641.595 270.7 639.489 271.822 639.77 283.332C639.911 287.964 640.191 288.104 640.612 296.245C641.033 306.351 640.893 314.071 640.753 317.299C640.332 331.476 639.068 333.16 639.209 345.512C639.209 352.39 639.63 357.583 639.77 358.986C640.612 369.514 642.437 377.233 644.121 385.094C646.086 393.936 647.069 398.287 649.174 404.042C652.403 412.745 656.192 419.482 659 423.974" stroke="#808285" stroke-width="2" stroke-miterlimit="10"/>
<path d="M611.417 131.743C611.277 133.006 611.137 134.41 610.856 136.796C609.873 146.2 609.452 152.797 609.172 156.026C608.75 161.5 607.908 169.36 606.224 179.606C607.066 173.851 607.207 166.833 610.154 159.675C610.575 158.552 611.137 157.57 611.558 156.447C611.417 153.78 611.277 150.551 611.558 147.183C611.838 143.253 612.54 139.744 613.242 136.796C610.575 129.357 607.908 122.058 605.382 114.619" stroke="#808285" stroke-width="2" stroke-miterlimit="10"/>
<path d="M566.08 188.589C565.378 186.624 564.396 184.238 562.992 181.711C562.009 179.887 560.887 178.343 559.764 176.939C559.343 167.254 559.343 159.394 559.343 153.78C559.343 142.41 558.22 131.041 559.343 119.812C559.623 117.567 560.044 113.496 558.641 108.443C557.237 103.109 554.43 99.3197 552.465 96.9336" stroke="#808285" stroke-width="2" stroke-miterlimit="10"/>
<path d="M441.861 296.386C442.282 292.877 442.984 290.07 443.826 287.824C446.493 280.244 449.02 275.191 451.125 271.402C452.248 269.437 451.406 267.191 451.265 263.261C450.985 258.629 450.423 256.664 449.16 248.383C448.037 241.505 447.476 238.136 447.195 235.61C446.634 228.171 447.756 228.03 447.195 222.275C446.914 220.03 446.493 217.924 446.072 216.1" stroke="#808285" stroke-width="2" stroke-miterlimit="10"/>
<path d="M445.932 216.1C444.949 212.169 443.545 209.082 442.563 206.836C440.458 202.204 430.773 184.518 428.808 178.623C426.281 171.044 422.912 160.938 420.246 148.305C418 137.357 418.982 137.638 416.175 124.023C414.491 115.742 413.789 114.198 412.526 106.618C410.42 94.4068 410.561 88.652 410.701 85.0026C411.262 77.1424 412.806 73.072 413.508 71.528C415.052 68.019 417.158 63.3871 421.93 61.1413C425.72 59.457 429.369 60.0184 431.334 60.4395C438.492 61.7028 442.844 66.475 444.528 68.2997C449.16 73.2124 450.704 78.6864 451.686 81.9147C452.388 84.1605 452.809 86.4063 453.371 89.2135C454.353 93.705 454.494 95.6701 454.915 98.4773C456.318 106.478 458.845 112.513 460.248 115.882C461.091 117.987 462.494 120.654 465.301 125.988C471.197 137.217 471.197 136.655 473.723 141.849C477.372 149.147 479.899 155.183 483.127 163.324C483.408 163.885 486.075 170.763 487.057 173.149C488.742 177.5 489.584 179.465 491.689 180.729C491.97 180.869 493.654 181.711 495.479 181.571" stroke="#2969D0" stroke-width="3" stroke-miterlimit="10" stroke-linecap="round"/>
<path opacity="0.33" d="M313.291 425.939C315.116 423.694 322.976 415.553 331.538 406.991C340.1 398.429 357.645 368.251 362.839 362.216C368.032 356.18 381.787 341.302 385.156 333.863C388.525 326.424 384.875 302.562 385.156 295.123C385.437 287.684 388.946 252.173 386.56 242.909C384.174 233.645 380.384 229.855 377.296 223.399C374.208 216.942 373.647 214.977 370.839 213.012C368.032 211.047 369.716 194.204 370.278 191.818C370.839 189.432 372.804 178.624 372.804 174.834C372.804 171.044 372.804 160.236 375.752 152.236C378.7 144.235 376.734 120.234 371.681 112.654C366.628 105.075 362.558 103.25 356.522 102.829C350.487 102.408 343.89 108.303 342.206 111.952C340.521 115.602 338.276 118.97 335.749 148.727C332.24 156.727 325.503 163.745 322.555 173.43C319.608 183.115 311.747 207.538 309.923 217.644C308.098 227.75 297.711 241.505 301.922 234.066C306.133 226.767 305.712 208.801 313.572 184.94C321.432 161.079 320.45 162.623 320.45 161.359C320.45 160.096 325.082 155.745 326.626 145.358C329.573 140.586 335.328 116.865 324.661 109.987C324.52 105.075 321.292 101.706 312.449 100.302C303.607 98.8989 300.378 101.145 298.413 106.619C295.185 107.461 290.272 119.392 289.43 129.217C287.044 130.62 275.534 142.27 273.289 146.622C271.043 150.973 264.727 172.869 263.463 178.483C262.2 184.098 254.059 219.188 251.813 222.416C249.568 225.645 248.585 227.89 250.41 221.013C252.234 214.135 260.656 172.729 264.306 165.289C267.955 157.85 268.376 151.674 278.482 137.217C288.588 122.76 287.184 115.742 285.36 111.11C283.535 106.478 282.131 102.548 273.569 101.145C265.007 99.741 260.095 106.899 260.095 106.899C260.095 106.899 254.901 108.443 242.409 121.918C239.742 116.725 236.093 112.795 236.093 112.795C236.093 112.795 233.426 107.18 225.847 106.057C218.267 104.934 215.179 113.075 214.758 116.023C212.232 116.023 207.038 127.673 205.214 139.323C203.389 151.113 200.441 167.956 197.353 177.922C194.265 187.888 192.3 196.169 191.599 203.468C190.897 210.766 186.967 221.013 186.265 230.557C185.563 240.102 174.475 267.472 173.913 276.174C173.211 284.877 173.632 314.633 172.79 321.511C171.948 328.389 170.685 351.548 172.79 364.882C174.896 378.076 173.913 390.288 171.667 396.885C169.422 403.482 161 425.378 161 425.378H313.291V425.939Z" fill="#E0E1E2"/>
<path d="M313.291 425.939C315.116 423.694 322.976 415.553 331.538 406.991C340.1 398.429 357.645 368.251 362.839 362.216C368.032 356.18 381.787 341.302 385.156 333.863C388.525 326.424 384.875 302.562 385.156 295.123C385.437 287.684 388.946 252.173 386.56 242.909C384.174 233.645 380.384 229.855 377.296 223.399C374.208 216.942 373.647 214.977 370.839 213.012C368.032 211.047 369.716 194.204 370.278 191.818C370.839 189.432 372.804 178.624 372.804 174.834C372.804 171.044 372.804 160.236 375.752 152.236C378.7 144.235 376.734 120.234 371.681 112.654C366.628 105.075 362.558 103.25 356.522 102.829C350.487 102.408 343.89 108.303 342.206 111.952C340.521 115.602 338.276 118.97 335.749 148.727C332.24 156.727 325.503 163.745 322.555 173.43C319.608 183.115 311.747 207.538 309.923 217.644C308.098 227.75 297.711 241.505 301.922 234.066C306.133 226.767 305.712 208.801 313.572 184.94C321.432 161.079 320.45 162.623 320.45 161.359C320.45 160.096 325.082 155.745 326.626 145.358C329.573 140.586 335.328 116.865 324.661 109.987C324.52 105.075 321.292 101.706 312.449 100.302C303.607 98.8989 300.378 101.145 298.413 106.619C295.185 107.461 290.272 119.392 289.43 129.217C287.044 130.62 275.534 142.27 273.289 146.622C271.043 150.973 264.727 172.869 263.463 178.483C262.2 184.098 254.059 219.188 251.813 222.416C249.568 225.645 248.585 227.89 250.41 221.013C252.234 214.135 260.656 172.729 264.306 165.289C267.955 157.85 268.376 151.674 278.482 137.217C288.588 122.76 287.184 115.742 285.36 111.11C283.535 106.478 282.131 102.548 273.569 101.145C265.007 99.741 260.095 106.899 260.095 106.899C260.095 106.899 254.901 108.443 242.409 121.918C239.742 116.725 236.093 112.795 236.093 112.795C236.093 112.795 233.426 107.18 225.847 106.057C218.267 104.934 215.179 113.075 214.758 116.023C212.232 116.023 207.038 127.673 205.214 139.323C203.389 151.113 200.441 167.956 197.353 177.922C194.265 187.888 192.3 196.169 191.599 203.468C190.897 210.766 186.967 221.013 186.265 230.557C185.563 240.102 174.475 267.472 173.913 276.174C173.211 284.877 173.632 314.633 172.79 321.511C171.948 328.389 170.685 351.548 172.79 364.882C174.896 378.076 173.913 390.288 171.667 396.885C169.422 403.482 161 425.378 161 425.378" stroke="#808285" stroke-width="2" stroke-miterlimit="10"/>
<path d="M201.705 226.908C205.635 222.697 208.863 216.24 209.144 209.503C209.424 202.766 208.723 167.816 217.565 154.482C226.408 141.147 242.55 122.479 242.55 122.479" stroke="#808285" stroke-width="2" stroke-miterlimit="10"/>
<path d="M358.488 308.738C356.523 305.089 354.137 302.703 354.137 299.895C354.137 297.088 355.681 264.946 357.365 253.436C358.909 241.926 366.769 208.661 369.436 201.783" stroke="#808285" stroke-width="2" stroke-miterlimit="10"/>
</svg>
