<svg width="900" height="500" viewBox="0 0 900 500" fill="none" xmlns="http://www.w3.org/2000/svg">
<path opacity="0.33" d="M512.283 419.258C501.388 408.582 492.069 399.592 484.471 392.287C473.432 381.611 467.841 376.273 466.407 375.009C458.952 368.828 453.934 366.018 448.343 358.573C446.336 356.045 443.469 352.252 441.462 346.493C439.598 341.435 439.311 337.783 438.594 328.793C437.734 318.819 437.304 313.762 436.874 309.267C435.584 297.046 434.724 290.162 432.143 281.172C430.853 276.958 429.849 274.289 428.989 269.091C428.272 264.877 427.412 259.82 428.559 253.779C429.132 250.83 429.706 249.987 431.283 244.649C433.003 238.889 434.15 234.113 434.867 231.023C434.007 228.494 433.003 224.982 432 220.628C431.139 217.256 430.566 214.868 430.136 211.778C429.706 208.687 429.276 204.192 429.419 198.714C430.566 198.433 431.569 198.011 432.716 197.73C433.863 197.309 435.727 196.606 438.021 196.185C439.885 195.904 446.193 194.78 451.354 198.011C452.501 198.714 452.787 199.275 455.511 202.366C462.679 210.654 462.536 209.811 464.113 212.059C468.988 218.661 470.564 225.263 471.425 229.056C472.715 234.535 472.715 238.889 472.858 243.806C472.858 248.582 472.572 252.515 472.285 255.465C471.855 256.449 471.425 257.572 470.851 258.556C471.281 259.398 471.711 260.241 472.141 261.084C473.002 262.208 473.862 263.472 474.722 264.877C477.589 269.794 478.163 274.57 478.306 277.66C478.306 281.593 479.166 284.262 479.883 285.948C480.457 287.212 481.03 288.055 484.614 293.253C486.048 295.219 487.195 296.905 488.055 298.169C488.485 295.641 489.058 291.848 489.489 287.353C489.919 282.717 490.062 277.098 489.202 263.472C488.772 256.589 488.485 250.97 487.625 242.682C485.904 226.668 484.471 221.189 483.037 210.654C481.03 194.921 480.17 185.649 481.604 173.99C481.89 171.181 482.607 167.107 483.181 160.224C483.897 151.795 483.754 149.407 484.327 142.524C485.188 130.864 485.618 124.965 487.912 118.081C490.205 110.777 492.643 103.332 499.667 100.101C504.112 97.9935 508.556 98.4149 509.273 98.5554C514.864 99.2578 518.448 102.489 519.452 103.472C522.606 106.422 523.896 109.653 524.613 111.9C526.046 115.974 526.476 119.767 526.046 127.353C525.473 136.343 524.613 137.888 524.039 144.771C523.179 154.324 524.039 161.769 524.613 166.124C525.616 174.131 526.476 174.692 529.057 187.757C530.204 193.656 530.921 198.573 532.354 208.406C533.358 215.43 534.648 224.561 535.938 235.518C537.515 235.518 539.092 235.377 540.669 235.377C539.809 229.899 538.519 222.173 537.085 212.621C534.792 197.59 533.645 190.004 533.071 180.592C532.211 167.809 531.781 159.943 533.645 151.795C534.075 150.109 534.935 146.457 535.508 141.26C536.225 135.36 535.652 134.798 536.225 129.179C537.085 120.048 539.379 114.289 539.953 112.743C541.53 108.81 542.533 106.281 545.114 103.753C546.404 102.348 549.988 98.9768 555.723 98.134C561.314 97.4316 565.615 99.6792 566.905 100.522C571.493 103.051 573.643 106.843 574.36 108.248C575.937 111.058 576.224 113.446 576.797 116.817C577.514 121.874 577.371 125.807 577.227 127.212C576.941 133.814 577.371 140.417 577.371 146.879C577.227 159.24 578.804 170.338 580.955 185.93C582.245 195.764 584.252 207.704 587.263 221.189C589.7 222.032 592.28 222.875 594.718 223.718C596.295 219.785 598.302 213.885 599.449 206.58C600.452 199.697 600.309 194.499 599.879 185.649C599.305 173.288 597.872 164.016 597.442 161.769C595.865 151.936 594.718 145.333 591.85 136.624C590.56 132.691 588.696 127.774 587.836 120.61C587.263 115.272 587.549 111.76 588.84 108.529C589.7 106.281 590.99 102.91 594.431 100.803C600.596 97.1506 608.337 101.084 609.054 101.505C612.208 103.191 613.785 105.439 617.082 109.793C620.953 114.991 623.247 119.627 623.964 121.172C625.828 124.965 626.401 126.931 630.989 142.243C634.573 154.043 636.437 159.943 637.01 161.347C637.727 162.893 639.017 165.843 640.021 170.057C641.024 174.131 641.168 177.221 641.168 179.047C641.598 191.83 641.741 198.292 641.598 202.787C641.311 211.216 640.594 222.594 638.874 236.642C639.734 236.782 640.881 237.063 642.314 237.063C643.748 237.063 645.468 236.923 647.189 236.22C649.483 235.377 651.06 234.113 653.353 231.865C658.371 226.949 661.238 222.173 661.525 221.751C663.962 217.818 667.977 212.34 674.285 205.878C676.292 201.523 678.586 196.887 681.166 192.111C684.033 186.773 687.044 181.857 689.911 177.361C689.911 175.957 689.911 173.85 690.055 171.181C690.341 163.174 690.341 159.24 690.915 156.431C691.632 153.2 693.065 145.895 699.23 140.979C701.094 139.433 706.398 135.079 713.566 136.062C719.874 136.905 723.602 141.4 724.462 142.664C724.605 146.457 724.605 150.39 724.749 154.324C724.892 161.066 724.892 167.809 724.749 174.412C724.462 176.238 724.175 178.064 723.889 179.89C720.878 193.516 713.423 215.149 708.405 226.949C705.538 233.692 700.664 244.227 694.929 253.499C693.209 256.168 691.918 258.275 691.918 258.275C686.614 266.141 684.32 268.108 681.309 273.024C678.299 277.941 676.722 282.296 676.148 284.122C672.994 293.815 675.432 296.624 671.991 305.334C671.417 306.879 670.27 309.407 669.554 313.2C668.98 316.431 668.98 318.819 668.98 320.364C668.98 331.181 669.697 336.659 669.697 344.807C669.697 346.633 669.554 349.162 669.267 354.219C668.693 363.63 668.407 368.407 667.69 373.885C666.543 382.454 665.683 382.173 665.109 388.775C664.679 393.411 664.249 398.047 665.396 403.947C666.113 407.599 667.546 413.218 671.704 419.68C618.229 419.399 565.328 419.258 512.283 419.258Z" fill="#445272"/>
<path d="M512.283 419.258C501.388 408.582 492.069 399.592 484.471 392.287C473.432 381.611 467.841 376.273 466.407 375.009C458.952 368.828 453.934 366.018 448.343 358.573C446.336 356.045 443.469 352.252 441.462 346.493C439.598 341.435 439.311 337.783 438.594 328.793C437.734 318.819 437.304 313.762 436.874 309.267C435.584 297.046 434.724 290.162 432.143 281.172C430.853 276.958 429.849 274.289 428.989 269.091C428.272 264.877 427.412 259.82 428.559 253.779C429.132 250.83 429.706 249.987 431.283 244.649C433.003 238.889 434.15 234.113 434.867 231.023C434.007 228.494 433.003 224.982 432 220.628C431.139 217.256 430.566 214.868 430.136 211.778C429.706 208.687 429.276 204.192 429.419 198.714C430.566 198.433 431.569 198.011 432.716 197.73C433.863 197.309 435.727 196.606 438.021 196.185C439.885 195.904 446.193 194.78 451.354 198.011C452.501 198.714 452.787 199.275 455.511 202.366C462.679 210.654 462.536 209.811 464.113 212.059C468.988 218.661 470.564 225.263 471.425 229.056C472.715 234.535 472.715 238.889 472.858 243.806C472.858 248.582 472.572 252.515 472.285 255.465C471.855 256.449 471.425 257.572 470.851 258.556C471.281 259.398 471.711 260.241 472.141 261.084C473.002 262.208 473.862 263.472 474.722 264.877C477.589 269.794 478.163 274.57 478.306 277.66C478.306 281.593 479.166 284.262 479.883 285.948C480.457 287.212 481.03 288.055 484.614 293.253C486.048 295.219 487.195 296.905 488.055 298.169C488.485 295.641 489.058 291.848 489.489 287.353C489.919 282.717 490.062 277.098 489.202 263.472C488.772 256.589 488.485 250.97 487.625 242.682C485.904 226.668 484.471 221.189 483.037 210.654C481.03 194.921 480.17 185.649 481.604 173.99C481.89 171.181 482.607 167.107 483.181 160.224C483.897 151.795 483.754 149.407 484.327 142.524C485.188 130.864 485.618 124.965 487.912 118.081C490.205 110.777 492.643 103.332 499.667 100.101C504.112 97.9935 508.556 98.4149 509.273 98.5554C514.864 99.2578 518.448 102.489 519.452 103.472C522.606 106.422 523.896 109.653 524.613 111.9C526.046 115.974 526.476 119.767 526.046 127.353C525.473 136.343 524.613 137.888 524.039 144.771C523.179 154.324 524.039 161.769 524.613 166.124C525.616 174.131 526.476 174.692 529.057 187.757C530.204 193.656 530.921 198.573 532.354 208.406C533.358 215.43 534.648 224.561 535.938 235.518C537.515 235.518 539.092 235.377 540.669 235.377C539.809 229.899 538.519 222.173 537.085 212.621C534.792 197.59 533.645 190.004 533.071 180.592C532.211 167.809 531.781 159.943 533.645 151.795C534.075 150.109 534.935 146.457 535.508 141.26C536.225 135.36 535.652 134.798 536.225 129.179C537.085 120.048 539.379 114.289 539.953 112.743C541.53 108.81 542.533 106.281 545.114 103.753C546.404 102.348 549.988 98.9768 555.723 98.134C561.314 97.4316 565.615 99.6792 566.905 100.522C571.493 103.051 573.643 106.843 574.36 108.248C575.937 111.058 576.224 113.446 576.797 116.817C577.514 121.874 577.371 125.807 577.227 127.212C576.941 133.814 577.371 140.417 577.371 146.879C577.227 159.24 578.804 170.338 580.955 185.93C582.245 195.764 584.252 207.704 587.263 221.189C589.7 222.032 592.28 222.875 594.718 223.718C596.295 219.785 598.302 213.885 599.449 206.58C600.452 199.697 600.309 194.499 599.879 185.649C599.305 173.288 597.872 164.016 597.442 161.769C595.865 151.936 594.718 145.333 591.85 136.624C590.56 132.691 588.696 127.774 587.836 120.61C587.263 115.272 587.549 111.76 588.84 108.529C589.7 106.281 590.99 102.91 594.431 100.803C600.596 97.1506 608.337 101.084 609.054 101.505C612.208 103.191 613.785 105.439 617.082 109.793C620.953 114.991 623.247 119.627 623.964 121.172C625.828 124.965 626.401 126.931 630.989 142.243C634.573 154.043 636.436 159.943 637.01 161.347C637.727 162.893 639.017 165.843 640.021 170.057C641.024 174.131 641.168 177.221 641.168 179.047C641.598 191.83 641.741 198.292 641.598 202.787C641.311 211.216 640.594 222.594 638.874 236.642C639.734 236.782 640.881 237.063 642.314 237.063" stroke="#697695" stroke-width="2" stroke-miterlimit="10"/>
<path d="M681.167 272.744C678.156 277.661 676.579 282.015 676.006 283.842C672.852 293.534 675.289 296.344 671.848 305.053C671.275 306.598 670.128 309.127 669.411 312.92C668.838 316.151 668.838 318.539 668.838 320.084C668.838 330.901 669.554 336.379 669.554 344.527C669.554 346.353 669.411 348.881 669.124 353.938C668.551 363.35 668.264 368.126 667.547 373.605C666.4 382.174 665.54 381.893 664.967 388.495C664.537 393.131 664.107 397.766 665.254 403.666C665.97 407.319 667.404 412.937 671.562 419.399" stroke="#697695" stroke-width="2" stroke-miterlimit="10"/>
<path d="M642.459 236.783C643.893 236.783 645.613 236.642 647.333 235.94C649.627 235.097 651.204 233.833 653.498 231.585C658.516 226.669 661.383 221.892 661.67 221.471C664.107 217.538 668.121 212.059 674.429 205.597C676.436 201.243 678.73 196.607 681.311 191.831C684.178 186.493 687.188 181.576 690.056 177.081C690.056 175.676 690.056 173.569 690.199 170.9C690.486 162.893 690.486 158.96 691.059 156.15C691.776 152.92 693.21 145.615 699.374 140.698C701.238 139.153 706.543 134.798 713.711 135.782C720.019 136.625 723.746 141.12 724.606 142.384C724.75 146.177 724.75 150.11 724.893 154.043C725.037 160.786 725.037 167.529 724.893 174.131C724.607 175.957 724.32 177.783 724.033 179.61C721.022 193.236 713.567 214.869 708.55 226.669C705.682 233.411 700.808 243.947 695.074 253.218C693.353 255.887 692.063 257.994 692.063 257.994C686.758 265.861 684.465 267.828 681.454 272.744" stroke="#BA6DCD" stroke-width="3" stroke-miterlimit="10" stroke-linecap="round"/>
<g opacity="0.5">
<path d="M708.119 141.119C708.119 143.507 708.119 146.036 708.119 148.424C708.262 150.812 708.405 153.2 708.835 155.588C708.979 156.15 709.122 156.712 709.266 157.274C709.409 157.836 709.552 158.257 709.982 158.678C710.699 159.521 711.703 160.083 712.706 160.645C714.857 161.769 717.151 162.471 719.588 162.752C717.151 163.033 714.57 162.612 712.133 161.628C710.986 161.207 709.839 160.505 708.835 159.521C708.405 159.1 707.975 158.257 707.832 157.695C707.689 157.133 707.545 156.431 707.402 155.869C706.972 153.481 706.828 150.952 706.972 148.564C707.115 145.895 707.545 143.367 708.119 141.119Z" fill="#B1BBD0"/>
</g>
<g opacity="0.5">
<path d="M439.024 228.214C440.027 227.371 440.601 226.388 440.887 225.264C441.174 224.14 441.174 223.016 441.174 221.893C441.174 220.769 441.031 219.505 440.887 218.381L440.6 214.869C440.457 212.481 440.314 210.093 439.74 207.845C439.454 206.721 439.167 205.598 438.593 204.474C438.163 203.491 437.447 202.507 436.156 201.945C437.447 202.086 438.45 203.069 439.167 204.052C439.884 205.176 440.314 206.3 440.744 207.424C441.461 209.812 441.747 212.2 441.891 214.588C442.034 216.976 442.321 219.364 442.178 221.893C442.178 223.157 441.891 224.421 441.461 225.545C441.031 226.669 440.17 227.652 439.024 228.214Z" fill="#B1BBD0"/>
</g>
<path opacity="0.33" d="M291.148 420C297.815 413.611 298.787 410.277 315.177 396.943C331.567 383.61 347.817 360.692 362.124 346.386C376.43 332.08 379.208 328.191 380.735 311.94C382.124 295.689 391.569 268.605 395.875 256.104C400.181 243.604 390.736 220.964 390.736 220.964C390.736 220.964 396.014 206.796 394.903 188.879C386.43 181.656 367.818 187.073 356.568 213.324C345.317 239.576 353.234 246.381 353.234 246.381C353.234 246.381 347.956 251.937 344.067 261.104C340.178 270.271 339.067 279.577 339.067 279.577C339.067 279.577 345.178 233.186 357.401 207.213C369.624 181.379 371.846 165.545 378.513 152.072C385.041 138.599 388.652 114.292 382.541 107.487C381.43 101.236 368.929 92.4859 358.234 104.709C347.54 116.931 346.428 132.488 342.817 139.016C339.067 145.405 327.122 160.961 323.511 167.211C320.038 173.462 301.982 213.324 300.038 217.214C298.093 221.103 298.093 216.241 298.649 214.158C299.065 212.074 308.371 176.934 317.538 162.489C328.65 150.266 331.011 150.544 338.789 134.71C346.567 118.737 344.623 109.153 340.317 104.986C338.095 99.9863 323.511 89.2914 312.538 104.986C307.816 106.237 302.538 118.876 302.538 118.876L299.482 120.126C299.482 120.126 302.399 115.404 302.121 108.32C301.843 101.236 295.315 96.6528 288.509 96.7917C281.564 96.9306 271.842 104.986 271.842 104.986C271.842 104.986 262.536 108.32 257.397 113.737C255.036 107.348 247.674 101.792 244.202 100.959C240.729 100.125 235.59 107.487 234.757 109.57C233.924 111.653 222.395 124.015 215.034 139.988C207.672 155.961 201.422 168.184 198.366 173.184C195.311 178.184 193.366 179.017 191.144 192.768C188.922 206.658 185.866 201.102 184.477 217.63C183.088 234.159 168.365 252.493 169.337 273.744C170.31 294.995 166.837 305.551 166.837 314.44C166.837 323.329 166.56 350.553 161.42 372.498C156.281 394.443 139.197 419.722 139.197 419.722H291.148V420Z" fill="#445272"/>
<path d="M291.148 420C297.815 413.611 298.787 410.277 315.177 396.943C331.567 383.61 347.817 360.692 362.124 346.386C376.43 332.08 379.208 328.191 380.735 311.94C382.124 295.689 391.569 268.605 395.875 256.104C400.181 243.604 390.736 220.964 390.736 220.964C390.736 220.964 396.014 206.796 394.903 188.879C386.43 181.656 367.818 187.073 356.568 213.324C345.317 239.576 353.234 246.381 353.234 246.381C353.234 246.381 347.956 251.937 344.067 261.104C340.178 270.271 339.067 279.577 339.067 279.577C339.067 279.577 345.178 233.186 357.401 207.213C369.624 181.379 371.846 165.545 378.513 152.072C385.041 138.599 388.652 114.292 382.541 107.487C381.43 101.236 368.929 92.4859 358.234 104.709C347.54 116.931 346.428 132.488 342.817 139.016C339.067 145.405 327.122 160.961 323.511 167.211C320.038 173.462 301.982 213.324 300.038 217.214C298.093 221.103 298.093 216.241 298.649 214.158C299.065 212.074 308.371 176.934 317.538 162.489C328.65 150.266 331.011 150.544 338.789 134.71C346.567 118.737 344.623 109.153 340.317 104.986C338.095 99.9863 323.511 89.2914 312.538 104.986C307.816 106.237 302.538 118.876 302.538 118.876L299.482 120.126C299.482 120.126 302.399 115.404 302.121 108.32C301.843 101.236 295.315 96.6528 288.509 96.7917C281.564 96.9306 271.842 104.986 271.842 104.986C271.842 104.986 262.536 108.32 257.397 113.737C256.425 111.515 255.591 108.042 252.119 105.264C249.758 102.486 246.007 101.375 244.202 100.959C240.729 100.125 235.59 107.487 234.757 109.57C233.924 111.653 222.395 124.015 215.034 139.988C207.672 155.961 201.422 168.184 198.366 173.184C195.311 178.184 193.366 179.017 191.144 192.768C188.922 206.658 185.866 201.102 184.477 217.63C183.088 234.159 168.365 252.493 169.337 273.744C170.31 294.995 166.837 305.551 166.837 314.44C166.837 323.329 166.56 350.553 161.42 372.498C156.281 394.443 139.197 419.722 139.197 419.722" stroke="#697695" stroke-width="2" stroke-miterlimit="10"/>
<path d="M298.51 218.324C298.788 213.324 308.371 176.934 317.538 162.628C328.65 150.405 331.011 150.683 338.789 134.849C346.567 118.876 344.623 109.292 340.317 105.125C338.095 100.125 323.511 89.43 312.538 105.125C307.816 106.375 302.538 119.015 302.538 119.015" stroke="#BA6DCD" stroke-width="3" stroke-miterlimit="10" stroke-linecap="round"/>
<path d="M201.006 223.741C205.589 217.352 207.951 209.991 209.478 196.657C211.006 183.184 213.784 155.544 216.84 148.877C219.896 142.21 228.368 138.182 232.118 135.126C235.73 132.071 240.73 124.57 246.147 122.348C251.425 120.126 258.647 112.348 258.647 112.348" stroke="#697695" stroke-width="2" stroke-miterlimit="10"/>
<path d="M237.396 219.573C243.369 215.129 249.619 198.045 257.536 173.46C265.453 148.876 270.592 136.931 279.759 133.597C288.926 130.264 294.204 119.152 316.15 120.541" stroke="#BA6DCD" stroke-width="3" stroke-miterlimit="10" stroke-linecap="round"/>
<g opacity="0.5">
<path d="M312.398 109.431C313.51 109.986 314.76 110.125 316.01 110.403C317.26 110.542 318.51 110.82 319.621 110.959C322.121 111.236 324.482 111.514 326.982 111.653C329.483 111.792 331.983 111.931 334.344 111.792C335.455 111.653 336.705 111.236 337.538 110.542C338.511 109.848 339.066 108.736 339.205 107.486C339.344 108.736 338.927 110.125 337.955 111.098C336.983 112.07 335.733 112.625 334.483 112.903C331.844 113.32 329.344 113.32 326.843 113.181C324.343 113.042 321.843 112.625 319.343 112.209C318.093 111.931 316.843 111.653 315.732 111.375C315.176 111.236 314.482 110.959 313.926 110.681C313.371 110.264 312.815 109.986 312.398 109.431Z" fill="#B1BBD0"/>
</g>
<g opacity="0.5">
<path d="M391.013 190.129C388.652 191.935 386.291 193.462 384.763 195.962C383.235 198.324 382.541 201.102 382.263 203.879C381.985 206.657 382.263 209.435 382.957 212.213C383.374 213.602 383.93 214.852 384.624 216.102C385.319 217.352 386.152 218.463 387.124 219.575C384.763 217.908 382.957 215.269 381.846 212.491C381.291 211.102 381.013 209.574 380.735 208.185C380.596 206.657 380.596 205.13 380.735 203.741C381.013 200.824 381.846 197.768 383.791 195.407C384.763 194.157 385.874 193.185 386.985 192.351C388.374 191.518 389.763 190.823 391.013 190.129Z" fill="#B1BBD0"/>
</g>
</svg>
