<svg width="900" height="500" viewBox="0 0 900 500" fill="none" xmlns="http://www.w3.org/2000/svg">
<path opacity="0.33" d="M694.391 428.437C687.6 414.133 682.831 400.84 680.953 371.364C679.075 341.888 682.687 339.576 680.953 316.313C679.219 293.05 677.485 298.107 679.219 280.624C680.809 263.14 671.272 240.455 671.128 231.93C670.983 223.405 671.706 194.218 669.105 180.492C666.504 166.765 660.435 157.951 656.101 134.399C651.766 110.847 635.294 95.5311 624.746 98.9989C614.198 102.467 612.465 113.448 613.765 117.494C609.141 108.391 606.107 103.045 603.217 99.5768C600.327 96.1091 591.947 92.0633 591.947 92.0633C591.947 92.0633 578.943 89.318 573.886 101.022C569.695 101.889 569.695 110.992 569.84 113.448C568.828 107.957 566.95 100.155 565.361 97.6985C563.627 95.2421 560.303 91.3409 555.68 89.318C551.056 87.2952 539.208 88.0176 536.174 90.4739C533.139 92.9303 527.649 97.9874 528.082 102.9C528.516 107.957 530.105 112.437 530.394 125.296C530.683 138.156 534.873 165.32 535.74 172.111C536.607 178.902 548.311 241.467 548.311 241.467C548.311 241.467 547.877 242.478 547.155 241.756C546.577 241.033 532.85 164.742 527.938 153.472C529.816 141.479 530.972 107.524 523.169 100.01C519.846 92.4968 499.617 86.5727 491.959 103.478C484.301 120.239 486.758 150.293 485.313 161.852C483.868 173.412 485.457 199.131 486.902 206.789C485.891 198.986 483.29 191.762 478.811 187.283C474.332 182.803 466.963 178.324 461.761 176.446C457.571 175.001 452.225 176.879 449.913 179.191C449.19 179.914 448.179 180.636 447.167 180.781C446.011 181.07 445 181.936 445 181.936C445 184.393 446.878 196.675 453.669 208.812C451.936 211.413 454.247 222.249 452.369 229.907C450.491 237.421 448.323 242.623 451.647 251.292C450.346 253.604 452.08 259.961 454.97 262.273C453.236 267.619 455.403 274.41 461.183 288.571C468.407 306.343 464.795 325.994 469.852 336.108C474.91 346.222 480.978 349.69 487.625 360.093C494.127 370.497 519.557 403.007 529.96 411.243C540.364 419.479 544.698 428.293 544.698 428.293H694.391V428.437Z" fill="#E0E1E2"/>
<path d="M694.391 428.438C687.6 414.134 682.831 400.841 680.953 371.365C679.075 341.888 682.687 339.577 680.953 316.314C679.219 293.051 677.485 298.108 679.219 280.624C680.809 263.141 671.272 240.456 671.128 231.931C670.983 223.406 671.706 194.219 669.105 180.492C666.504 166.766 662.603 156.652 656.101 134.4C648.876 109.548 635.294 95.532 624.746 98.9998C614.198 102.468 612.465 113.449 613.765 117.495C609.141 108.392 606.107 103.046 603.217 99.5778C601.05 96.9769 595.126 92.4977 590.213 91.7753C586.601 91.1973 577.787 91.9198 573.886 100.878C570.129 102.179 569.695 110.848 569.84 113.304C568.828 107.814 566.95 100.011 565.361 97.5549C563.627 95.0986 560.303 91.1973 555.68 89.1745C551.056 87.1516 539.208 87.874 536.174 90.3304C533.139 92.7867 527.649 97.8439 528.082 102.757C528.516 107.814 530.105 112.293 530.394 125.153C530.683 138.012 534.873 165.177 535.74 171.968C536.607 178.759 548.311 241.323 548.311 241.323C548.311 241.323 547.877 242.334 547.155 241.612C546.577 240.89 532.85 164.599 527.938 153.328C529.816 141.336 530.972 107.38 523.169 99.8668C519.846 92.3532 499.617 86.4291 491.959 103.335C484.301 120.095 486.758 150.149 485.313 161.709C483.868 173.268 485.457 198.987 486.902 206.645C485.891 198.843 483.29 191.618 478.811 187.139C474.332 182.66 466.963 178.181 461.761 176.302C457.571 174.857 452.225 176.736 449.913 179.192C449.046 180.059 447.89 180.926 446.589 181.07C445.578 181.215 445 181.504 445 181.504C445 183.816 446.589 194.942 452.225 206.067C452.947 207.512 453.38 209.102 453.091 210.691C452.513 214.881 453.958 223.551 452.369 229.764C450.491 237.277 448.323 242.479 451.647 251.148C451.936 255.772 453.38 260.396 454.97 262.13C454.536 268.343 455.403 274.267 461.183 288.427C468.407 306.199 464.795 325.85 469.852 335.964C474.91 346.079 480.978 349.546 487.625 359.95C494.127 370.353 519.557 402.863 529.96 411.099C540.364 419.335 544.698 428.149 544.698 428.149" stroke="#75819C" stroke-width="2" stroke-miterlimit="10"/>
<path d="M491.815 328.884C492.248 321.515 495.571 308.944 495.86 304.465C496.294 299.986 494.994 306.344 494.705 286.982C494.56 267.476 492.826 236.844 489.647 223.117C486.469 209.39 487.336 206.645 485.891 201.732" stroke="#75819C" stroke-width="2" stroke-miterlimit="10"/>
<path d="M597.726 228.897C594.548 224.129 590.935 215.749 590.502 193.497C590.068 171.245 583.422 165.899 582.988 150.583C582.555 135.267 571.574 130.355 569.695 113.594" stroke="#75819C" stroke-width="2" stroke-miterlimit="10"/>
<path d="M636.739 223.407C636.883 217.916 637.028 190.174 634.138 173.557C631.248 156.941 628.358 150.583 624.89 143.214C621.278 135.701 615.209 124.286 613.476 117.64" stroke="#75819C" stroke-width="2" stroke-miterlimit="10"/>
<g opacity="0.5">
<path d="M453.092 182.806C454.392 183.095 455.548 183.817 456.704 184.684C457.715 185.695 458.438 186.851 458.871 188.152C459.594 190.753 460.316 193.209 460.75 195.954C461.183 198.555 461.617 201.3 461.328 204.046C461.328 204.768 461.039 205.491 460.894 206.069C460.605 206.791 460.172 207.369 459.594 207.803C458.438 208.814 456.993 208.958 455.693 208.525C456.993 208.669 458.293 208.236 459.16 207.225C460.027 206.358 460.172 205.057 460.172 203.757C460.172 201.156 459.738 198.555 459.305 196.099C458.871 193.498 458.293 190.897 457.716 188.441C457.282 186.129 455.548 183.962 453.092 182.806Z" fill="#75819C"/>
</g>
<path opacity="0.33" d="M300.043 451.687C305.447 449.062 319.651 435.784 328.606 426.366C337.561 417.103 368.748 392.863 372.454 386.224C376.005 379.585 384.187 349.788 393.76 328.79C399.935 315.204 405.648 302.389 405.339 300.691C407.655 299.456 409.662 289.574 411.669 280.928C413.676 272.282 428.807 245.418 430.814 238.162C430.814 230.442 414.14 227.2 409.508 228.589C409.508 228.589 420.315 211.143 429.27 201.725C438.225 192.461 445.173 173.625 448.569 166.832C451.966 160.039 450.268 143.21 439.614 138.578C428.961 133.946 414.912 145.526 409.508 152.937C404.104 160.348 397.62 171.31 394.84 174.861C392.061 178.566 353.463 216.392 343.736 227.045C333.855 237.853 324.746 247.425 313.63 249.741C302.514 251.903 291.089 242.021 294.64 217.627C302.514 199.872 306.373 188.447 306.991 183.352C311.314 181.654 325.364 169.766 329.224 159.267C336.634 150.621 347.596 127.462 339.722 114.339C337.098 100.443 320.269 102.759 315.483 106.156C310.696 109.552 306.373 114.03 303.749 121.441C299.117 126.381 296.338 133.792 296.029 135.799C294.176 135.49 283.06 140.277 277.039 144.6C271.017 149.077 265.151 152.474 263.915 153.246C262.68 154.018 291.089 130.859 292.941 117.89C294.794 104.921 289.081 94.2675 279.046 95.0395C269.01 95.8115 259.592 106.465 257.122 107.545C254.652 108.626 247.859 112.486 245.079 115.728C242.455 112.795 240.602 112.949 238.904 110.324C237.205 107.7 231.493 104.457 226.552 108.472C221.612 112.486 220.068 117.272 217.289 119.588C214.51 121.749 197.99 138.887 193.204 148.923C188.417 158.958 181.933 176.713 178.999 180.882C176.066 185.051 172.36 191.072 169.427 206.511C166.494 221.95 162.325 219.943 161.862 245.881C161.399 271.819 152.135 275.216 150.591 290.81C149.202 306.249 151.672 315.512 148.893 329.099C146.114 342.686 144.261 353.956 144.57 361.367C144.879 368.778 145.651 387.305 136.696 408.611C127.432 430.072 118.014 446.901 114 451.687H300.043Z" fill="#E0E1E2"/>
<path d="M300.043 451.687C305.447 449.062 319.651 435.784 328.606 426.366C337.561 417.103 368.748 392.863 372.454 386.224C376.005 379.585 384.187 349.788 393.76 328.79C399.935 315.204 405.648 302.389 405.339 300.691C407.655 299.456 409.662 289.574 411.669 280.928C413.676 272.282 428.807 245.418 430.814 238.162C430.814 230.442 414.14 227.2 409.508 228.589C409.508 228.589 420.315 211.143 429.27 201.725C438.225 192.461 445.173 173.625 448.569 166.832C451.966 160.039 450.268 143.21 439.614 138.578C428.961 133.946 414.912 145.526 409.508 152.937C404.104 160.348 397.62 171.31 394.84 174.861C392.061 178.566 353.463 216.392 343.736 227.045C333.855 237.853 324.746 247.425 313.63 249.741C302.514 251.903 291.089 242.021 294.64 217.627C302.514 199.872 306.373 188.447 306.991 183.352C311.314 181.654 325.364 169.766 329.224 159.267C336.634 150.621 347.596 127.462 339.722 114.339C337.098 100.443 320.269 102.759 315.483 106.156C310.696 109.552 306.373 114.03 303.749 121.441C299.117 126.381 296.338 133.792 296.029 135.799C294.176 135.49 283.06 140.277 277.039 144.6C271.017 149.077 265.151 152.474 263.915 153.246C262.68 154.018 291.089 130.859 292.941 117.89C294.794 104.921 289.081 94.2675 279.046 95.0395C269.01 95.8115 259.592 106.465 257.122 107.545C254.652 108.626 247.859 112.486 245.079 115.728C242.455 112.795 240.602 112.949 238.904 110.324C237.205 107.7 231.493 104.457 226.552 108.472C221.612 112.486 220.068 117.272 217.289 119.588C214.51 121.749 197.99 138.887 193.204 148.923C188.417 158.958 181.933 176.713 178.999 180.882C176.066 185.051 172.36 191.072 169.427 206.511C166.494 221.95 162.325 219.943 161.862 245.881C161.399 271.819 152.135 275.216 150.591 290.81C149.202 306.249 151.672 315.512 148.893 329.099C146.114 342.686 144.261 353.956 144.57 361.367C144.879 368.778 145.651 387.305 136.696 408.611C127.432 430.072 118.014 446.901 114 451.687" stroke="#75819C" stroke-width="2" stroke-miterlimit="10"/>
<path d="M177.147 262.093C178.999 247.117 185.484 178.566 188.417 171.001C191.351 163.436 202.622 158.032 207.562 152.319C212.503 146.453 217.752 140.122 223.31 136.726C228.868 133.175 238.441 123.448 244.925 116.037" stroke="#75819C" stroke-width="2" stroke-miterlimit="10"/>
<path d="M223.001 253.292C229.64 246.035 232.574 236.154 234.427 225.038C236.125 213.921 243.227 187.366 246.624 178.102C250.175 168.839 252.49 158.803 263.761 153.399" stroke="#75819C" stroke-width="2" stroke-miterlimit="10"/>
<path d="M333.547 378.967C337.561 369.704 340.495 362.602 340.032 353.029C339.414 343.457 337.716 335.583 338.333 330.025C338.951 324.467 349.141 303.469 351.457 299.455" stroke="#75819C" stroke-width="2" stroke-miterlimit="10"/>
<path d="M351.302 299.456C353.618 295.441 358.867 287.567 372.299 273.518C385.731 259.468 409.662 228.589 409.662 228.589C409.662 228.589 420.47 211.143 429.424 201.725C438.379 192.462 445.327 173.626 448.723 166.832C452.12 160.039 450.422 143.21 439.769 138.578C429.116 133.947 415.066 145.526 409.662 152.937C404.258 160.348 397.774 171.31 394.995 174.861C392.216 178.566 353.618 216.392 343.891 227.045C334.01 237.853 324.9 247.425 313.784 249.741" stroke="#F69AED" stroke-width="3" stroke-miterlimit="10" stroke-linecap="round"/>
<g opacity="0.5">
<path d="M423.403 233.53C419.08 234.611 414.603 235.692 411.052 238.316C407.501 240.787 404.722 244.492 403.023 248.506C402.097 250.514 401.479 252.675 401.325 254.837C401.016 256.998 401.479 259.16 402.406 261.012C403.332 263.019 404.876 264.563 406.574 265.798C408.427 267.188 410.434 268.114 412.596 268.732C408.273 267.96 403.641 265.644 401.325 261.475C400.09 259.468 399.627 256.998 399.781 254.528C399.935 252.212 400.553 249.896 401.479 247.734C403.178 243.411 406.266 239.552 410.28 237.236C412.287 236.001 414.448 235.074 416.61 234.611C418.926 233.993 421.087 233.685 423.403 233.53Z" fill="#75819C"/>
</g>
<g opacity="0.5">
<path d="M445.482 156.178C443.629 158.803 440.541 160.347 437.453 161.119C434.211 161.891 430.814 161.428 427.881 160.192C426.337 159.575 424.947 158.649 423.712 157.568C422.477 156.487 421.551 154.943 421.087 153.245C420.779 151.546 420.933 149.848 421.551 148.304C422.168 146.76 423.095 145.525 424.33 144.444C423.249 145.68 422.631 147.069 422.168 148.459C421.705 149.848 421.705 151.392 422.168 152.782C422.631 154.171 423.403 155.406 424.484 156.333C425.565 157.259 426.954 158.031 428.344 158.649C431.123 159.884 434.057 160.347 437.144 159.884C438.688 159.575 440.078 159.266 441.467 158.649C443.011 158.185 444.401 157.259 445.482 156.178Z" fill="#75819C"/>
</g>
</svg>
