<svg width="850" height="500" viewBox="0 0 850 500" fill="none" xmlns="http://www.w3.org/2000/svg">
<path opacity="0.33" d="M537.512 432.048C524.781 412.952 514.364 400.799 506.697 389.804C497.148 376.061 492.374 369.116 488.902 363.329C483.839 354.939 482.537 351.611 477.762 345.969C474.724 342.352 471.976 339.748 468.648 334.25C467.057 331.502 465.031 328.174 463.729 323.4C462.717 319.494 463.006 317.179 463.006 310.38C463.006 308.933 463.151 297.649 462.427 287.811C462.283 284.628 461.704 280.867 460.836 273.344C459.679 263.072 458.811 258.877 458.232 250.775C457.943 246.724 457.798 243.542 457.653 241.516C457.364 239.78 457.074 237.755 457.219 235.295C457.508 231.534 458.521 228.64 459.823 225.458C461.415 221.552 463.874 216.488 467.057 210.557C467.346 209.544 467.925 208.097 468.938 206.65C469.661 205.348 470.529 204.336 471.252 203.612C471.108 197.681 471.252 191.026 472.12 183.503C472.699 178.295 473.567 173.665 474.58 169.325C475.158 169.181 475.882 169.181 476.605 169.181C477.328 169.181 478.052 169.181 478.63 169.325C479.933 169.036 481.813 168.602 483.839 168.746C488.613 169.036 491.94 171.206 493.387 172.363C492.519 170.627 491.072 167.155 490.928 162.815C490.928 161.368 490.928 158.185 492.374 154.858C496.136 146.178 506.841 144.008 508.433 143.718C514.798 142.416 520.006 144.008 522.032 144.731C526.372 146.322 529.265 148.782 530.857 150.229C530.712 148.348 530.712 146.612 530.568 144.731C529.41 143.284 527.674 141.114 526.227 138.366C524.781 135.617 519.862 126.213 522.032 114.784C522.755 110.733 523.768 105.38 528.397 101.619C529.265 100.896 533.172 98.0022 538.669 98.0022C543.154 98.0022 546.192 100.028 549.23 102.053C551.545 103.644 555.596 106.104 558.923 111.312C559.502 110.01 560.08 108.997 561.383 107.406C561.817 106.827 562.395 106.248 562.829 105.814C562.974 104.802 563.263 103.066 564.276 101.33C566.301 98.0022 569.773 96.9895 570.931 96.7002C576.862 94.9641 582.36 98.1469 584.675 99.5936C586.555 100.606 589.449 102.776 592.053 106.393C594.946 108.274 598.129 110.733 601.167 113.482C602.469 114.639 603.627 115.797 604.784 116.954C605.652 115.652 606.665 113.916 608.111 112.325C609.413 110.878 610.571 109.865 611.728 108.997C612.162 108.129 613.03 106.683 614.766 105.38C615.2 105.091 617.66 103.355 620.987 103.644C624.459 103.934 626.629 106.104 628.221 107.551C630.101 109.287 631.114 111.023 631.548 111.746C637.335 121.439 636.322 118.401 639.794 125.056C642.109 129.541 642.254 130.264 648.764 144.442C652.236 151.965 652.091 151.531 653.104 153.99C656.432 161.513 658.891 168.168 660.772 173.81C662.942 176.703 664.533 179.163 665.691 181.188C667.137 183.792 668.005 185.239 668.584 187.554C668.873 188.566 669.307 191.026 670.031 195.8C670.465 198.404 670.465 198.259 670.465 199.127C671.188 203.468 671.911 206.65 672.201 207.808C673.358 212.727 673.213 215.186 675.528 230.666C676.686 238.189 677.264 241.372 678.277 245.133C679 247.882 679.434 249.184 680.592 252.945C683.051 260.902 684.498 265.676 685.511 269.438C687.102 276.093 687.247 281.301 687.391 288.1C687.536 293.743 687.247 299.095 684.787 320.073C683.051 334.106 682.328 341.05 681.17 348.862C679.868 358.411 678.856 363.763 678.422 372.588C678.132 376.784 678.132 380.545 678.132 387.924C678.132 404.995 678.856 410.926 679.29 413.964C679.868 417.726 680.736 422.355 682.762 427.853C683.34 429.444 683.919 430.746 684.353 431.759C635.888 431.614 586.7 431.904 537.512 432.048Z" fill="#E0E1E2"/>
<path d="M537.512 432.048C524.781 412.952 514.364 400.799 506.697 389.804C497.148 376.061 492.374 369.116 488.902 363.329C483.839 354.939 482.537 351.611 477.762 345.969C474.724 342.352 471.976 339.748 468.648 334.251C467.057 331.502 465.031 328.174 463.729 323.4C462.717 319.494 463.006 317.179 463.006 310.38C463.006 308.933 463.151 297.649 462.427 287.811C462.283 284.628 461.704 280.867 460.836 273.344C459.679 263.072 458.811 258.877 458.232 250.775C457.943 246.724 457.798 243.542 457.653 241.516C457.364 239.78 457.074 237.755 457.219 235.295C457.508 231.534 458.521 228.64 459.823 225.458C461.415 221.552 463.874 216.488 467.057 210.557C467.346 209.544 467.925 208.097 468.938 206.65C469.661 205.348 470.529 204.336 471.252 203.612C471.108 197.681 471.252 191.026 472.12 183.503C472.699 178.295 473.567 173.665 474.58 169.325C475.158 169.181 475.882 169.181 476.605 169.181C477.328 169.181 478.052 169.181 478.63 169.325C479.933 169.036 481.813 168.602 483.839 168.747C488.613 169.036 491.94 171.206 493.387 172.363" stroke="#808285" stroke-width="2" stroke-miterlimit="10"/>
<path d="M531.435 150.084C531.29 148.203 531.29 146.467 531.146 144.587C529.988 143.14 528.252 140.97 526.806 138.221C525.359 135.472 520.44 126.069 522.61 114.64C523.333 110.589 524.346 105.236 528.976 101.474C529.844 100.751 533.75 97.8577 539.247 97.8577C543.732 97.8577 546.77 99.8831 549.808 101.908C552.123 103.5 556.174 105.959 559.501 111.167C560.08 109.865 560.659 108.853 561.961 107.261C562.395 106.683 562.973 106.104 563.407 105.67C563.552 104.657 563.841 102.921 564.854 101.185C566.879 97.8577 570.352 96.845 571.509 96.5556C577.44 94.8196 582.938 98.0024 585.253 99.4491C587.133 100.462 590.027 102.632 592.631 106.249C595.524 108.129 598.707 110.589 601.745 113.338C603.047 114.495 604.205 115.652 605.362 116.81C606.23 115.508 607.243 113.772 608.689 112.18C609.992 110.733 611.149 109.721 612.306 108.853C612.74 107.985 613.608 106.538 615.344 105.236C615.778 104.947 618.238 103.211 621.565 103.5C625.037 103.789 627.207 105.959 628.799 107.406C630.68 109.142 631.692 110.878 632.126 111.601C637.913 121.294 636.9 118.256 640.373 124.911C642.687 129.396 642.832 130.119 649.342 144.297C652.814 151.82 652.67 151.386 653.682 153.846C657.01 161.368 659.469 168.023 661.35 173.665C663.52 176.559 665.111 179.018 666.269 181.044C667.715 183.648 668.583 185.095 669.162 187.409C669.451 188.422 669.885 190.881 670.609 195.656C671.043 198.26 671.043 198.115 671.043 198.983C671.766 203.323 672.49 206.506 672.779 207.663C673.936 212.582 673.792 215.041 676.106 230.521C677.264 238.044 677.842 241.227 678.855 244.988C679.578 247.737 680.012 249.039 681.17 252.801C683.629 260.758 685.076 265.532 686.089 269.293C687.68 275.948 687.825 281.156 687.969 287.956C688.114 293.598 687.825 298.951 685.365 319.928C683.629 333.961 682.906 340.906 681.749 348.718C680.446 358.266 679.434 363.619 679 372.444C678.71 376.639 678.71 380.401 678.71 387.779C678.71 404.85 679.434 410.782 679.868 413.82C680.446 417.581 681.314 422.211 683.34 427.708C683.919 429.3 684.497 430.602 684.931 431.615" stroke="#808285" stroke-width="2" stroke-miterlimit="10"/>
<path d="M513.785 280C513.062 275.37 510.892 270.885 510.313 270.017C510.603 266.256 510.747 261.337 509.879 255.84C508.867 248.751 506.697 243.108 504.816 239.058C505.395 235.152 505.539 228.786 504.382 223.867" stroke="#808285" stroke-width="2" stroke-miterlimit="10"/>
<path d="M574.403 241.663C572.232 237.902 570.93 234.574 568.471 227.051C566.301 220.252 565.722 215.478 564.71 209.691C562.25 195.658 559.067 186.399 557.476 181.48C554.583 172.8 551.978 166.579 547.349 161.949C544.89 159.49 541.707 157.03 541.707 157.03C538.09 154.282 533.895 151.533 531.435 150.231C529.844 148.639 526.95 146.325 522.61 144.733C520.585 144.01 515.377 142.419 509.011 143.721C507.42 144.01 496.714 146.18 492.953 154.86C491.506 158.188 491.506 161.37 491.506 162.817C491.651 167.302 493.097 170.629 493.965 172.365L494.399 173.089C495.267 177.429 496.135 184.373 496.569 189.581C496.714 190.883 496.859 192.185 496.859 193.488C498.595 198.985 500.62 205.64 502.79 213.307C505.539 223.434 507.275 231.247 507.854 233.995C510.747 247.161 513.641 260.47 514.653 277.686C514.943 282.171 514.943 285.788 514.943 288.103C513.351 292.009 511.905 295.915 510.313 299.821" stroke="#2969D0" stroke-width="3" stroke-miterlimit="10" stroke-linecap="round"/>
<path d="M624.604 227.338C622.868 224.155 620.264 219.092 617.804 212.726C616.213 208.675 614.622 203.178 611.728 192.327C611.728 192.327 608.835 181.911 604.929 169.035C602.759 162.236 601.312 157.606 597.55 152.688C596.104 150.807 596.248 151.386 590.896 145.888C582.36 137.208 581.203 134.893 576.284 130.987C574.403 129.54 571.654 127.37 567.893 125.345C567.025 123.03 562.251 114.06 559.646 111.312" stroke="#808285" stroke-width="2" stroke-miterlimit="10"/>
<path d="M661.206 227.627C660.627 227.483 659.036 226.759 657.878 224.879C657.155 223.576 657.01 222.274 657.01 221.696C656.866 218.658 655.998 215.62 655.998 212.437C655.998 205.348 653.828 191.749 651.368 182.345C650.355 178.294 645.581 163.393 645.292 161.946C645.292 161.946 644.569 159.921 643.99 157.606C642.832 153.411 634.008 146.033 626.485 138.076C625.038 136.484 621.855 132 616.936 127.949C612.741 124.332 607.533 119.702 604.061 115.362" stroke="#808285" stroke-width="2" stroke-miterlimit="10"/>
<g opacity="0.5">
<path d="M482.392 172.797C483.405 173.665 483.694 175.112 483.984 176.414C484.128 177.716 484.273 179.018 484.273 180.32C484.418 182.924 484.128 185.673 483.839 188.277C483.405 190.881 482.826 193.485 481.814 195.944C481.38 197.246 480.511 198.548 479.499 199.272C478.341 200.14 477.039 200.429 475.737 200.718C476.895 200.14 478.052 199.561 478.92 198.693C479.788 197.825 480.367 196.668 480.656 195.51C481.38 193.051 481.958 190.591 482.248 187.987C482.682 185.383 482.826 182.924 482.971 180.32C482.971 179.018 483.116 177.716 483.116 176.414C483.26 175.112 483.26 173.81 482.392 172.797Z" fill="#AEB0B2"/>
</g>
<path opacity="0.33" d="M311.968 434.507C313.849 432.192 321.951 423.802 330.776 414.977C339.601 406.152 357.685 375.047 363.037 368.826C368.39 362.606 382.568 347.27 386.04 339.603C389.512 331.935 385.751 307.341 386.04 299.673C386.329 292.006 389.946 255.404 387.487 245.856C385.027 236.307 381.121 232.401 377.939 225.746C374.756 219.092 374.177 217.066 371.284 215.041C368.39 213.015 370.126 195.655 370.705 193.195C371.284 190.736 373.309 179.596 373.309 175.69C373.309 171.784 373.309 160.644 376.347 152.398C379.385 144.152 377.36 119.413 372.152 111.601C366.944 103.788 362.748 101.908 356.527 101.474C350.306 101.04 343.507 107.116 341.771 110.877C340.035 114.639 337.72 118.111 335.116 148.781C331.499 157.028 324.555 164.261 321.517 174.243C318.479 184.226 310.377 209.399 308.496 219.815C306.616 230.231 295.91 244.409 300.25 236.741C304.59 229.219 304.156 210.701 312.258 186.106C320.359 161.512 319.347 163.104 319.347 161.802C319.347 160.5 324.121 156.015 325.712 145.309C328.75 140.39 334.682 115.941 323.687 108.852C323.542 103.788 320.215 100.316 311.1 98.8697C301.986 97.423 298.659 99.7377 296.633 105.38C293.306 106.248 288.242 118.545 287.374 128.672C284.915 130.119 273.052 142.126 270.737 146.611C268.422 151.096 261.912 173.665 260.61 179.452C259.308 185.238 250.917 221.406 248.602 224.734C246.288 228.061 245.275 230.376 247.156 223.287C249.036 216.198 257.717 173.52 261.478 165.852C265.24 158.185 265.674 151.819 276.09 136.918C286.506 122.017 285.06 114.784 283.179 110.009C281.298 105.235 279.851 101.184 271.026 99.7377C262.201 98.291 257.138 105.669 257.138 105.669C257.138 105.669 251.785 107.261 238.909 121.149C236.161 115.796 232.399 111.745 232.399 111.745C232.399 111.745 229.65 105.959 221.838 104.801C214.026 103.644 210.843 112.035 210.409 115.073C207.805 115.073 202.452 127.081 200.571 139.088C198.691 151.241 195.653 168.601 192.47 178.873C189.287 189.145 187.262 197.68 186.538 205.203C185.815 212.726 181.764 223.287 181.041 233.125C180.317 242.962 168.888 271.173 168.31 280.143C167.586 289.112 168.02 319.783 167.152 326.872C166.284 333.961 164.982 357.831 167.152 371.575C169.322 385.174 168.31 397.761 165.995 404.56C163.68 411.36 155 433.929 155 433.929H311.968V434.507Z" fill="#E0E1E2"/>
<path d="M311.968 434.507C313.849 432.192 321.951 423.802 330.776 414.977C339.601 406.152 357.685 375.047 363.037 368.826C368.39 362.606 382.568 347.27 386.04 339.603C389.512 331.935 385.751 307.341 386.04 299.673C386.329 292.006 389.946 255.404 387.487 245.856C385.027 236.307 381.121 232.401 377.939 225.746C374.756 219.092 374.177 217.066 371.284 215.041C368.39 213.015 370.126 195.655 370.705 193.195C371.284 190.736 373.309 179.596 373.309 175.69C373.309 171.784 373.309 160.644 376.347 152.398C379.385 144.152 377.36 119.413 372.152 111.601C366.944 103.788 362.748 101.908 356.527 101.474C350.306 101.04 343.507 107.116 341.771 110.877C340.035 114.639 337.72 118.111 335.116 148.781C331.499 157.028 324.555 164.261 321.517 174.243C318.479 184.226 310.377 209.399 308.496 219.815C306.616 230.231 295.91 244.409 300.25 236.741C304.59 229.219 304.156 210.701 312.258 186.106C320.359 161.512 319.347 163.104 319.347 161.802C319.347 160.5 324.121 156.015 325.712 145.309C328.75 140.39 334.682 115.941 323.687 108.852C323.542 103.788 320.215 100.316 311.1 98.8697C301.986 97.423 298.659 99.7377 296.633 105.38C293.306 106.248 288.242 118.545 287.374 128.672C284.915 130.119 273.052 142.126 270.737 146.611C268.422 151.096 261.912 173.665 260.61 179.452C259.308 185.238 250.917 221.406 248.602 224.734C246.288 228.061 245.275 230.376 247.156 223.287C249.036 216.198 257.717 173.52 261.478 165.852C265.24 158.185 265.674 151.819 276.09 136.918C286.506 122.017 285.06 114.784 283.179 110.009C281.298 105.235 279.851 101.184 271.026 99.7377C262.201 98.291 257.138 105.669 257.138 105.669C257.138 105.669 251.785 107.261 238.909 121.149C236.161 115.796 232.399 111.745 232.399 111.745C232.399 111.745 229.65 105.959 221.838 104.801C214.026 103.644 210.843 112.035 210.409 115.073C207.805 115.073 202.452 127.081 200.571 139.088C198.691 151.241 195.653 168.601 192.47 178.873C189.287 189.145 187.262 197.68 186.538 205.203C185.815 212.726 181.764 223.287 181.041 233.125C180.317 242.962 168.888 271.173 168.31 280.143C167.586 289.112 168.02 319.783 167.152 326.872C166.284 333.961 164.982 357.831 167.152 371.575C169.322 385.174 168.31 397.761 165.995 404.56C163.68 411.36 155 433.929 155 433.929" stroke="#808285" stroke-width="2" stroke-miterlimit="10"/>
<path d="M196.954 229.363C201.005 225.023 204.332 218.368 204.622 211.424C204.911 204.48 204.188 168.456 213.302 154.713C222.416 140.969 239.053 121.728 239.053 121.728" stroke="#808285" stroke-width="2" stroke-miterlimit="10"/>
<path d="M358.553 313.707C356.528 309.946 354.068 307.486 354.068 304.593C354.068 301.7 355.66 268.57 357.396 256.707C358.987 244.844 367.089 210.557 369.838 203.468" stroke="#808285" stroke-width="2" stroke-miterlimit="10"/>
</svg>
