<svg width="900" height="500" viewBox="0 0 900 500" fill="none" xmlns="http://www.w3.org/2000/svg">
<path opacity="0.33" d="M694.391 428.437C687.6 414.133 682.831 400.84 680.953 371.364C679.075 341.888 682.687 339.576 680.953 316.313C679.219 293.05 677.485 298.107 679.219 280.624C680.809 263.14 671.272 240.455 671.128 231.93C670.983 223.405 671.706 194.218 669.105 180.492C666.504 166.765 660.435 157.951 656.101 134.399C651.766 110.847 635.294 95.5311 624.746 98.9989C614.198 102.467 612.465 113.448 613.765 117.494C609.141 108.391 606.107 103.045 603.217 99.5768C600.327 96.1091 591.947 92.0633 591.947 92.0633C591.947 92.0633 578.943 89.318 573.886 101.022C569.695 101.889 569.695 110.992 569.84 113.448C568.828 107.957 566.95 100.155 565.361 97.6985C563.627 95.2421 560.303 91.3409 555.68 89.318C551.056 87.2952 539.208 88.0176 536.174 90.4739C533.139 92.9303 527.649 97.9874 528.082 102.9C528.516 107.957 530.105 112.437 530.394 125.296C530.683 138.156 534.873 165.32 535.74 172.111C536.607 178.902 548.311 241.467 548.311 241.467C548.311 241.467 547.877 242.478 547.155 241.756C546.577 241.033 532.85 164.742 527.938 153.472C529.816 141.479 530.972 107.524 523.169 100.01C519.846 92.4968 499.617 86.5727 491.959 103.478C484.301 120.239 486.758 150.293 485.313 161.852C483.868 173.412 485.457 199.131 486.902 206.789C485.891 198.986 483.29 191.762 478.811 187.283C474.332 182.803 466.963 178.324 461.761 176.446C457.571 175.001 452.225 176.879 449.913 179.191C449.19 179.914 448.179 180.636 447.167 180.781C446.011 181.07 445 181.936 445 181.936C445 184.393 446.878 196.675 453.669 208.812C451.936 211.413 454.247 222.249 452.369 229.907C450.491 237.421 448.323 242.623 451.647 251.292C450.346 253.604 452.08 259.961 454.97 262.273C453.236 267.619 455.403 274.41 461.183 288.571C468.407 306.343 464.795 325.994 469.852 336.108C474.91 346.222 480.978 349.69 487.625 360.093C494.127 370.497 519.557 403.007 529.96 411.243C540.364 419.479 544.698 428.293 544.698 428.293H694.391V428.437Z" fill="#445272"/>
<path d="M694.391 428.438C687.6 414.134 682.831 400.841 680.953 371.365C679.075 341.888 682.687 339.577 680.953 316.314C679.219 293.051 677.485 298.108 679.219 280.624C680.809 263.141 671.272 240.456 671.128 231.931C670.983 223.406 671.706 194.219 669.105 180.492C666.504 166.766 662.603 156.652 656.101 134.4C648.876 109.548 635.294 95.532 624.746 98.9998C614.198 102.468 612.465 113.449 613.765 117.495C609.141 108.392 606.107 103.046 603.217 99.5778C601.05 96.9769 595.126 92.4977 590.213 91.7753C586.601 91.1973 577.787 91.9198 573.886 100.878C570.129 102.179 569.695 110.848 569.84 113.304C568.828 107.814 566.95 100.011 565.361 97.5549C563.627 95.0986 560.303 91.1973 555.68 89.1745C551.056 87.1516 539.208 87.874 536.174 90.3304C533.139 92.7867 527.649 97.8439 528.082 102.757C528.516 107.814 530.105 112.293 530.394 125.153C530.683 138.012 534.873 165.177 535.74 171.968C536.607 178.759 548.311 241.323 548.311 241.323C548.311 241.323 547.877 242.334 547.155 241.612C546.577 240.89 532.85 164.599 527.938 153.328C529.816 141.336 530.972 107.38 523.169 99.8668C519.846 92.3532 499.617 86.4291 491.959 103.335C484.301 120.095 486.758 150.149 485.313 161.709C483.868 173.268 485.457 198.987 486.902 206.645C485.891 198.843 483.29 191.618 478.811 187.139C474.332 182.66 466.963 178.181 461.761 176.302C457.571 174.857 452.225 176.736 449.913 179.192C449.046 180.059 447.89 180.926 446.589 181.07C445.578 181.215 445 181.504 445 181.504C445 183.816 446.589 194.942 452.225 206.067C452.947 207.512 453.38 209.102 453.091 210.691C452.513 214.881 453.958 223.551 452.369 229.764C450.491 237.277 448.323 242.479 451.647 251.148C451.936 255.772 453.38 260.396 454.97 262.13C454.536 268.343 455.403 274.267 461.183 288.427C468.407 306.199 464.795 325.85 469.852 335.964C474.91 346.079 480.978 349.546 487.625 359.95C494.127 370.353 519.557 402.863 529.96 411.099C540.364 419.335 544.698 428.149 544.698 428.149" stroke="#697695" stroke-width="2" stroke-miterlimit="10"/>
<path d="M491.815 328.884C492.248 321.515 495.571 308.944 495.86 304.465C496.294 299.986 494.994 306.344 494.705 286.982C494.56 267.476 492.826 236.844 489.647 223.117C486.469 209.39 487.336 206.645 485.891 201.732" stroke="#697695" stroke-width="2" stroke-miterlimit="10"/>
<path d="M597.726 228.897C594.548 224.129 590.935 215.749 590.502 193.497C590.068 171.245 583.422 165.899 582.988 150.583C582.555 135.267 571.574 130.355 569.695 113.594" stroke="#697695" stroke-width="2" stroke-miterlimit="10"/>
<path d="M636.739 223.407C636.883 217.916 637.028 190.174 634.138 173.557C631.248 156.941 628.358 150.583 624.89 143.214C621.278 135.701 615.209 124.286 613.476 117.64" stroke="#697695" stroke-width="2" stroke-miterlimit="10"/>
<g opacity="0.5">
<path d="M453.092 182.806C454.392 183.095 455.548 183.817 456.704 184.684C457.715 185.695 458.438 186.851 458.871 188.152C459.594 190.753 460.316 193.209 460.75 195.954C461.183 198.555 461.617 201.3 461.328 204.046C461.328 204.768 461.039 205.491 460.894 206.069C460.605 206.791 460.172 207.369 459.594 207.803C458.438 208.814 456.993 208.958 455.693 208.525C456.993 208.669 458.293 208.236 459.16 207.225C460.027 206.358 460.172 205.057 460.172 203.757C460.172 201.156 459.738 198.555 459.305 196.099C458.871 193.498 458.293 190.897 457.716 188.441C457.282 186.129 455.548 183.962 453.092 182.806Z" fill="#B1BBD0"/>
</g>
<path opacity="0.33" d="M182.131 199.1C196.26 195.218 207.285 180.002 211.787 172.083C216.29 164.009 219.396 148.637 221.88 139.476C224.364 130.47 230.575 116.185 232.594 110.906C234.612 105.627 233.37 104.851 234.767 100.503C235.233 98.9501 238.494 93.2056 242.531 86.3737C239.736 88.7027 231.662 91.8082 226.538 90.8765C221.414 89.9449 208.682 93.3611 199.987 98.7951C191.137 104.23 180.889 100.658 174.523 110.13C168.157 119.446 165.827 139.787 165.362 141.495C159.151 143.824 146.419 143.824 141.605 152.363C136.637 161.059 138.5 161.99 136.326 166.648C134.152 171.306 131.202 178.915 131.047 185.747C130.892 192.578 131.513 220.838 129.805 226.427C128.097 232.017 122.818 246.457 122.197 254.066C121.575 261.674 121.886 293.349 120.489 302.044C119.091 310.739 116.762 356.544 116.451 362.599C116.141 368.655 109.775 388.53 104.34 405.144C98.906 421.757 84 453.743 84 453.743H264.269C279.33 431.229 313.024 404.678 333.83 386.511C354.636 368.344 374.2 351.575 379.169 343.501C384.137 335.427 385.535 313.534 390.969 299.87C396.404 286.362 397.18 277.201 401.062 267.885C404.944 258.568 408.67 246.613 409.136 242.265C409.602 237.762 412.241 235.278 413.794 232.483C415.347 229.688 431.184 209.503 430.563 200.342C429.942 191.336 418.763 187.61 409.291 189.628C399.82 191.647 389.727 197.392 379.479 207.174C369.232 216.956 361.934 232.172 361.934 238.228C361.934 244.283 357.12 245.836 351.375 263.382C345.63 280.927 345.63 280.927 339.575 285.12C333.675 289.312 334.14 291.951 330.569 281.548C326.998 271.145 326.377 258.103 326.066 253.755C325.756 249.407 329.017 250.494 330.569 240.402C332.122 230.309 332.898 220.217 339.264 202.826C345.475 185.436 352.307 178.294 360.847 163.388C369.387 148.482 374.511 135.439 376.063 133.11C377.616 130.781 393.454 118.049 389.572 105.627C385.69 93.2056 363.797 86.8395 354.636 93.2056C345.475 99.5721 351.997 100.658 334.606 111.527C317.216 122.396 291.131 177.051 288.025 179.691C284.92 182.331 276.38 181.71 276.69 174.257C277.001 166.648 287.715 134.197 289.733 122.862C291.752 111.372 289.578 105.161 296.41 92.8951C303.242 80.6287 302 71.0019 303.397 64.17C304.794 57.3382 306.502 46.6245 306.037 34.6687C305.571 22.7129 300.292 17.5889 298.739 16.0362C297.186 14.4835 291.907 6.4095 279.02 9.2043C266.132 11.9992 266.753 29.5448 266.443 31.8738C266.132 34.0476 263.803 35.2898 262.25 40.2584C260.698 45.2271 261.94 51.7484 260.853 55.3196C259.766 58.8909 236.631 96.6211 235.078 100.969C233.525 105.317 234.923 106.248 232.904 111.372C230.886 116.496 224.675 130.781 222.191 139.942C219.706 148.948 216.601 164.475 212.098 172.549C207.285 180.002 196.26 195.218 182.131 199.1Z" fill="#445272"/>
<path d="M264.113 453.588C279.174 431.074 312.868 404.522 333.674 386.356C354.48 368.189 374.044 351.42 379.013 343.346C383.982 335.272 385.379 313.379 390.814 299.715C396.248 286.206 397.024 277.046 400.906 267.729C404.788 258.413 408.514 246.457 408.98 242.11C409.446 237.607 412.086 235.123 413.638 232.328C415.191 229.533 431.029 209.348 430.408 200.187C429.786 191.181 418.607 187.455 409.136 189.473C399.664 191.492 389.571 197.237 379.324 207.019C369.076 216.801 361.778 232.017 361.778 238.073C361.778 244.128 356.965 245.681 351.22 263.226C345.475 280.772 345.475 280.772 339.419 284.964C333.519 289.157 333.985 291.796 330.414 281.393C326.842 270.99 326.221 257.947 325.911 253.6C325.6 249.252 328.861 250.339 330.414 240.246C331.966 230.154 332.743 220.061 339.109 202.671C345.319 185.281 352.151 178.138 360.691 163.232C369.231 148.326 374.355 135.284 375.908 132.955C377.46 130.626 393.298 117.893 389.416 105.472C385.534 93.0503 363.641 86.6842 354.48 93.0503C345.319 99.4161 351.841 100.503 334.451 111.372C317.06 122.241 290.975 176.896 287.869 179.536C284.764 182.175 276.224 181.554 276.535 174.101C276.845 166.493 287.559 134.042 289.577 122.707C291.596 111.217 289.422 105.006 296.254 92.7398C303.086 80.4734 301.844 70.8467 303.241 64.0148C304.639 57.1829 306.347 46.4692 305.881 34.5134C305.415 22.5576 300.136 17.4337 298.583 15.881C297.03 14.3283 291.751 6.25416 278.864 9.04906C265.976 11.8439 266.597 29.3895 266.287 31.7185C265.976 33.8923 263.647 35.1345 262.095 40.1031C260.542 45.0718 261.784 51.5931 260.697 55.1644C259.61 58.7356 236.475 96.4661 234.922 100.814C233.37 105.161 234.767 106.093 232.748 111.217C230.73 116.341 224.519 130.626 222.035 139.787C219.551 148.792 216.445 164.319 211.942 172.393C207.439 180.467 196.415 195.529 182.286 199.41" stroke="#697695" stroke-width="2" stroke-miterlimit="10"/>
<path d="M182.131 199.099C196.26 195.217 207.285 180.001 211.787 172.082C216.29 164.008 219.396 148.636 221.88 139.475C224.364 130.47 230.575 116.185 232.594 110.906C234.612 105.626 233.37 104.85 234.767 100.503C235.233 98.95 238.494 93.2049 242.531 86.373C239.736 88.702 231.662 91.8074 226.538 90.8758C221.414 89.9442 208.682 93.36 199.987 98.795C191.137 104.229 180.889 100.658 174.523 110.129C168.157 119.446 165.827 139.786 165.362 141.494C159.151 143.823 146.419 143.823 141.605 152.363C136.637 161.058 138.5 161.99 136.326 166.648C134.152 171.306 131.202 178.914 131.047 185.746C130.892 192.578 131.513 220.837 129.805 226.427C128.097 232.017 122.818 246.457 122.197 254.065C121.575 261.673 121.886 293.348 120.489 302.043C119.091 310.739 116.762 356.543 116.451 362.599C116.141 368.654 109.775 388.529 104.34 405.143C98.906 421.757 84 453.743 84 453.743" stroke="#697695" stroke-width="2" stroke-miterlimit="10"/>
<path d="M239.737 88.3916C236.942 90.7207 231.663 91.8076 226.539 90.876C221.415 89.9443 208.683 93.3601 199.988 98.7951C191.137 104.229 180.89 100.658 174.524 110.129C168.157 119.446 165.828 139.786 165.363 141.494C164.897 143.202 162.568 181.243 160.083 190.559C157.599 199.876 156.512 210.434 144.712 218.819" stroke="#697695" stroke-width="2" stroke-miterlimit="10"/>
<g opacity="0.5">
<path d="M427.148 197.391C425.44 196.149 423.732 194.907 421.714 194.286C420.782 193.975 419.695 193.975 418.763 193.975C417.832 194.131 416.9 194.441 415.968 195.062C414.261 196.149 413.018 197.702 411.776 199.41C410.534 201.118 409.602 202.981 408.826 204.844C408.05 206.708 407.584 208.726 407.429 210.9C407.273 211.987 407.273 212.918 407.118 214.005C407.118 215.092 406.963 216.024 407.118 216.955C407.429 218.819 408.671 220.682 410.068 222.235C410.689 223.166 411.31 223.943 411.931 224.874C412.553 225.806 412.863 226.893 413.018 227.98C412.553 225.806 411 224.408 409.602 222.856C408.205 221.303 406.652 219.595 406.031 217.266C405.721 216.179 405.721 214.937 405.876 213.85C405.876 212.763 405.876 211.676 406.031 210.589C406.186 208.416 406.652 206.242 407.584 204.223C408.36 202.205 409.602 200.342 410.845 198.478C412.087 196.77 413.639 195.062 415.658 193.975C416.745 193.51 417.832 193.044 418.919 193.044C420.006 193.044 421.248 193.199 422.179 193.51C424.043 194.441 425.751 195.839 427.148 197.391Z" fill="#B1BBD0"/>
</g>
<path d="M211.787 171.927C216.29 163.853 219.396 148.482 221.88 139.321C224.364 130.315 230.575 116.03 232.594 110.751C234.612 105.472 233.37 104.695 234.767 100.348C236.32 96 259.455 58.2696 260.542 54.6984C261.629 51.1272 260.387 44.606 261.94 39.6373C263.492 34.6687 265.821 33.5817 266.132 31.2526C266.442 29.0788 265.821 11.5333 278.709 8.58325C291.596 5.78835 297.031 13.8623 298.428 15.415C299.981 16.9677 305.26 22.0917 305.726 34.0475C306.192 46.0033 304.328 56.717 303.086 63.5489C301.689 70.3808 302.931 79.8522 296.099 92.2738C289.267 104.54 291.441 110.906 289.422 122.241C287.404 133.731 276.69 166.027 276.38 173.635" stroke="#BA6DCD" stroke-width="3" stroke-miterlimit="10" stroke-linecap="round"/>
<g opacity="0.5">
<path d="M270.324 33.5798C272.964 33.8903 275.603 33.4245 278.088 32.8034C280.572 32.1823 283.056 31.2507 285.385 30.0085C286.007 29.698 286.472 29.3875 287.093 29.0769C287.559 28.7664 287.87 28.3006 288.18 27.8348C288.801 26.9031 289.267 25.661 289.578 24.4188C290.199 21.9345 290.665 19.2949 290.975 16.6553C291.286 19.2949 291.13 21.9345 290.665 24.7293C290.354 26.1268 290.044 27.3689 289.267 28.6111C288.957 29.2322 288.336 29.8533 287.714 30.3191C287.093 30.6296 286.472 31.0954 286.007 31.406C283.522 32.6481 281.038 33.5798 278.398 34.0456C275.603 34.5114 272.809 34.5114 270.324 33.5798Z" fill="#B1BBD0"/>
</g>
</svg>
