<svg width="850" height="500" viewBox="0 0 850 500" fill="none" xmlns="http://www.w3.org/2000/svg">
<path opacity="0.33" d="M689.584 450.83C682.518 435.947 677.557 422.116 675.603 391.449C673.648 360.781 677.407 358.376 675.603 334.172C673.799 309.969 671.995 315.23 673.799 297.04C675.452 278.85 665.531 255.248 665.38 246.378C665.23 237.509 665.982 207.141 663.276 192.86C660.57 178.578 654.256 169.408 649.746 144.904C645.236 120.4 628.098 104.465 617.124 108.073C606.149 111.68 604.345 123.106 605.698 127.315C600.888 117.844 597.731 112.282 594.724 108.674C591.717 105.066 582.998 100.857 582.998 100.857C582.998 100.857 569.468 98.0003 564.207 110.177C559.847 111.079 559.847 120.55 559.997 123.106C558.945 117.393 556.991 109.275 555.337 106.72C553.533 104.164 550.075 100.105 545.265 98.0003C540.454 95.8956 528.127 96.6473 524.97 99.2029C521.813 101.759 516.1 107.02 516.551 112.131C517.002 117.393 518.656 122.053 518.957 135.433C519.257 148.813 523.617 177.075 524.519 184.141C525.421 191.206 537.598 256.3 537.598 256.3C537.598 256.3 537.147 257.352 536.395 256.601C535.794 255.849 521.512 176.474 516.401 164.748C518.355 152.27 519.558 116.942 511.44 109.125C507.982 101.308 486.936 95.1439 478.968 112.733C471.001 130.171 473.556 161.44 472.053 173.467C470.55 185.494 472.203 212.253 473.707 220.22C472.654 212.102 469.948 204.586 465.288 199.925C460.628 195.265 452.961 190.605 447.549 188.651C443.189 187.147 437.627 189.102 435.222 191.507C434.47 192.259 433.418 193.01 432.365 193.161C431.163 193.461 430.11 194.363 430.11 194.363C430.11 196.919 432.065 209.697 439.13 222.325C437.326 225.031 439.732 236.306 437.777 244.273C435.823 252.091 433.568 257.503 437.026 266.523C435.673 268.928 437.477 275.543 440.483 277.948C438.679 283.51 440.934 290.576 446.948 305.308C454.464 323.799 450.706 344.244 455.967 354.768C461.229 365.291 467.543 368.899 474.458 379.723C481.223 390.547 507.682 424.371 518.506 432.94C529.33 441.509 533.84 450.68 533.84 450.68H689.584V450.83Z" fill="#E0E1E2"/>
<path d="M689.584 450.831C682.518 435.948 677.557 422.117 675.603 391.45C673.648 360.782 677.407 358.377 675.603 334.173C673.799 309.97 671.995 315.231 673.799 297.041C675.452 278.851 665.531 255.249 665.38 246.379C665.23 237.509 665.982 207.142 663.276 192.861C660.57 178.579 656.511 168.056 649.746 144.905C642.229 119.048 628.098 104.465 617.124 108.073C606.149 111.681 604.345 123.107 605.698 127.316C600.888 117.845 597.731 112.283 594.724 108.675C592.469 105.969 586.305 101.308 581.194 100.557C577.436 99.9555 568.266 100.707 564.207 110.028C560.298 111.381 559.847 120.401 559.997 122.956C558.945 117.244 556.991 109.126 555.337 106.57C553.533 104.014 550.075 99.9555 545.265 97.8508C540.454 95.7462 528.127 96.4979 524.97 99.0535C521.813 101.609 516.1 106.871 516.551 111.982C517.002 117.244 518.656 121.904 518.957 135.284C519.257 148.663 523.617 176.926 524.519 183.991C525.421 191.057 537.598 256.151 537.598 256.151C537.598 256.151 537.147 257.203 536.395 256.451C535.794 255.7 521.512 176.324 516.401 164.598C518.355 152.121 519.558 116.793 511.44 108.975C507.982 101.158 486.936 94.9945 478.968 112.583C471.001 130.022 473.556 161.291 472.053 173.318C470.55 185.344 472.203 212.103 473.707 220.071C472.654 211.953 469.948 204.436 465.288 199.776C460.628 195.116 452.961 190.455 447.549 188.501C443.189 186.998 437.627 188.952 435.222 191.508C434.32 192.41 433.117 193.312 431.764 193.462C430.712 193.612 430.11 193.913 430.11 193.913C430.11 196.318 431.764 207.894 437.627 219.47C438.379 220.973 438.83 222.627 438.529 224.28C437.928 228.64 439.431 237.66 437.777 244.124C435.823 251.941 433.568 257.353 437.026 266.373C437.326 271.184 438.83 275.994 440.483 277.798C440.032 284.263 440.934 290.426 446.948 305.159C454.464 323.65 450.706 344.095 455.967 354.618C461.229 365.141 467.543 368.749 474.458 379.573C481.223 390.397 507.682 424.222 518.506 432.791C529.33 441.36 533.84 450.53 533.84 450.53" stroke="#808285" stroke-width="2" stroke-miterlimit="10"/>
<path d="M478.817 347.252C479.268 339.585 482.726 326.506 483.027 321.846C483.478 317.186 482.125 323.8 481.824 303.656C481.674 283.361 479.87 251.491 476.562 237.209C473.255 222.928 474.157 220.071 472.654 214.96" stroke="#808285" stroke-width="2" stroke-miterlimit="10"/>
<path d="M589.011 243.222C585.704 238.261 581.946 229.542 581.495 206.391C581.044 183.239 574.128 177.677 573.677 161.742C573.226 145.807 561.801 140.695 559.847 123.257" stroke="#808285" stroke-width="2" stroke-miterlimit="10"/>
<path d="M629.601 237.51C629.751 231.797 629.902 202.934 626.895 185.645C623.888 168.357 620.882 161.743 617.274 154.076C613.515 146.258 607.201 134.382 605.397 127.467" stroke="#808285" stroke-width="2" stroke-miterlimit="10"/>
<g opacity="0.5">
<path d="M438.529 195.268C439.882 195.568 441.085 196.32 442.288 197.222C443.34 198.274 444.092 199.477 444.543 200.83C445.294 203.536 446.046 206.091 446.497 208.948C446.948 211.654 447.399 214.51 447.098 217.366C447.098 218.118 446.798 218.87 446.647 219.471C446.347 220.223 445.896 220.824 445.294 221.275C444.092 222.327 442.588 222.478 441.235 222.027C442.588 222.177 443.941 221.726 444.843 220.674C445.745 219.772 445.896 218.419 445.896 217.066C445.896 214.36 445.445 211.654 444.994 209.098C444.543 206.392 443.941 203.686 443.34 201.131C442.889 198.725 441.085 196.47 438.529 195.268Z" fill="#AEB0B2"/>
</g>
<path opacity="0.33" d="M369.226 159.638C357.349 158.886 347.728 161.742 332.845 170.462C317.962 179.181 312.4 190.456 311.648 196.77C299.622 207.143 292.255 229.843 291.353 234.653C287.746 235.104 283.085 243.373 281.883 243.673C280.68 244.124 280.981 241.719 280.981 238.111C280.981 234.503 278.124 233.902 277.523 230.895C276.922 227.888 279.477 223.529 280.079 218.869C280.68 214.208 278.124 209.999 278.124 207.894C278.124 205.79 279.928 202.933 289.7 190.907C299.471 178.88 308.491 176.776 315.256 172.416C322.021 168.207 329.237 160.239 344.27 153.474C359.304 146.709 369.376 136.486 371.03 121.453C372.683 106.27 361.559 103.113 353.591 102.812C345.774 102.361 332.094 113.636 332.094 113.636C329.839 113.937 327.433 114.538 326.832 114.538C325.028 114.538 324.727 113.035 321.119 112.133V111.982C320.518 103.113 309.093 93.4915 307.589 92.1385C306.086 90.7855 305.334 82.6675 300.073 76.6543C297.517 59.8171 279.026 48.6925 266.398 49.5945C261.588 50.0455 254.672 53.8038 247.607 58.7647L247.456 58.6144C244.6 53.2024 238.587 51.6991 233.325 49.5945C228.064 47.4898 222.802 38.4699 204.01 39.8229C185.219 41.1759 182.663 52.1501 172.741 64.6277C170.937 66.8827 169.434 69.1377 168.081 71.2423L168.532 68.5363C168.532 68.5363 168.983 50.9475 165.676 37.8686C162.368 24.94 151.996 22.234 151.996 22.234C151.996 22.234 150.041 18.626 142.224 20.5804C134.256 22.5347 135.459 38.7706 134.858 47.7905C134.256 56.9607 135.76 63.5754 135.76 66.131C135.76 68.6867 133.956 70.7913 132.903 73.798C131.851 76.8046 132.302 81.6152 131.851 83.5695C131.55 85.5239 129.596 87.3278 128.844 90.0338C128.093 92.7398 128.093 96.1974 127.341 99.8054C126.74 103.413 123.282 106.57 120.726 113.636C118.171 120.702 118.171 129.571 116.066 136.787C113.962 144.003 105.393 157.533 102.386 164.298C99.3793 171.213 95.3203 183.54 93.817 191.358C92.3137 199.175 75.1758 233 71.2672 242.922C67.3585 252.844 56.6849 283.812 53.2273 294.786C49.7696 305.761 24.2132 357.024 13.6899 381.378L145.381 452.034C148.839 438.353 170.035 406.483 194.69 380.325C219.344 354.318 242.345 347.854 259.032 339.435C275.719 331.016 314.354 319.14 324.577 306.362C334.799 293.584 337.956 268.177 343.97 243.373C349.983 218.568 355.996 206.692 359.003 202.783C362.01 198.874 361.258 199.927 362.01 196.319C365.016 194.515 381.102 179.632 383.507 172.566C383.206 168.207 381.102 160.389 369.226 159.638ZM254.372 136.787V135.434C254.372 135.434 256.176 122.806 266.248 119.649C268.052 119.048 269.856 118.447 271.51 117.695C276.771 115.741 286.693 124.009 286.693 124.009C278.124 128.669 273.163 130.924 259.934 135.284C257.98 136.035 256.176 136.486 254.372 136.787Z" fill="#E0E1E2"/>
<path d="M126.139 137.087C131.4 129.42 147.486 112.433 153.95 101.308C160.414 90.0333 162.519 77.4054 172.591 65.0781C182.513 52.7509 185.219 41.6263 203.86 40.2733C222.652 38.9203 227.763 47.9403 233.175 50.0449C238.437 52.1496 244.45 53.8032 247.306 59.0649" stroke="#808285" stroke-width="2" stroke-miterlimit="10"/>
<path d="M187.624 110.479C193.036 107.623 210.926 94.3934 218.592 84.9225C226.41 75.4516 253.47 51.0978 266.097 50.0454C278.725 48.9931 297.216 60.268 299.772 77.1052C305.184 83.1185 305.785 91.0861 307.288 92.5895C308.792 93.9424 320.217 103.564 320.818 112.433C320.818 112.433 313.302 108.374 286.543 124.159C286.543 124.159 276.621 115.891 271.359 117.845" stroke="#808285" stroke-width="2" stroke-miterlimit="10"/>
<g opacity="0.5">
<path d="M379.749 164.899C378.847 165.2 377.945 165.801 377.194 166.403C376.442 167.004 375.54 167.605 374.788 168.056C373.285 169.259 371.631 170.462 370.278 171.815C368.775 173.017 367.422 174.37 366.069 175.874C364.716 177.377 363.513 178.88 362.762 180.684C362.912 178.58 363.964 176.776 365.167 175.122C366.37 173.468 367.873 171.965 369.376 170.762C370.88 169.409 372.533 168.207 374.337 167.154C375.841 166.102 377.645 165.05 379.749 164.899Z" fill="#AEB0B2"/>
</g>
<g opacity="0.5">
<path d="M361.107 185.495C361.107 187.6 361.107 189.704 361.107 191.659C361.107 192.711 361.107 193.763 361.107 194.665C361.107 195.718 361.258 196.62 361.558 197.672C360.656 196.92 360.205 195.868 359.905 194.816C359.604 193.763 359.604 192.711 359.454 191.659C359.604 189.554 359.905 187.299 361.107 185.495Z" fill="#AEB0B2"/>
</g>
<path d="M254.372 135.434C254.372 135.434 256.176 122.807 266.248 119.65C276.32 116.493 284.137 110.78 288.647 104.917" stroke="#808285" stroke-width="2" stroke-miterlimit="10"/>
<path d="M234.979 135.434C234.979 135.434 246.704 139.793 259.934 135.434C273.163 131.074 278.124 128.819 286.693 124.159C295.262 119.348 308.641 111.681 316.609 112.132C324.727 112.583 324.276 115.139 326.681 115.139C329.086 115.139 342.165 110.028 355.395 124.309" stroke="#808285" stroke-width="2" stroke-miterlimit="10"/>
<path d="M13.5396 381.979C24.0628 357.625 49.6193 306.362 53.0769 295.388C56.5346 284.414 67.0578 253.596 71.1168 243.523C75.0254 233.601 92.1633 199.777 93.6666 191.959C95.1699 184.142 99.0785 171.664 102.236 164.9C105.392 158.135 113.811 144.454 115.916 137.389C118.02 130.173 117.87 121.303 120.576 114.238C123.132 107.172 126.589 104.015 127.191 100.407C127.792 96.7991 127.942 93.3414 128.694 90.6354C129.446 87.9295 131.25 86.1255 131.701 84.1712C132.001 82.2168 131.701 77.4062 132.753 74.3996C133.805 71.3929 135.609 69.138 135.609 66.7326C135.609 64.3273 134.106 57.5624 134.707 48.5424C135.309 39.3722 134.106 23.2866 142.074 21.3323C150.041 19.378 151.845 22.986 151.845 22.986C151.845 22.986 162.218 25.5416 165.525 38.6205C168.833 51.5491 168.382 69.1379 168.382 69.1379" stroke="#808285" stroke-width="2" stroke-miterlimit="10"/>
<path d="M331.943 113.335C331.943 113.335 345.774 102.812 353.591 103.263C361.408 103.714 372.683 106.871 371.03 121.904C369.376 136.938 359.304 147.31 344.271 153.925C329.237 160.69 322.021 168.658 315.257 172.867C308.492 177.076 299.472 179.331 289.7 191.358C279.928 203.384 278.124 206.241 278.124 208.345C278.124 210.45 280.68 214.509 280.079 219.32C279.477 224.13 276.922 228.339 277.523 231.346C278.124 234.353 280.981 234.954 280.981 238.562C280.981 242.17 280.68 244.425 281.883 244.124C283.085 243.673 287.746 235.555 291.354 235.104C292.256 230.294 299.622 207.594 311.649 197.221C312.25 190.756 317.963 179.632 332.695 170.913C347.428 162.193 357.199 159.337 369.075 160.089C380.952 160.84 383.056 168.658 383.056 173.468C380.651 180.684 364.565 195.417 361.559 197.221C360.807 200.979 361.709 199.776 358.552 203.685C355.546 207.594 349.532 219.47 343.519 244.275C337.506 269.079 334.349 294.335 324.126 307.264C313.904 320.042 275.268 331.918 258.581 340.487C241.894 349.056 218.894 355.37 194.239 381.378C169.585 407.385 148.538 439.406 144.93 453.086" stroke="#808285" stroke-width="2" stroke-miterlimit="10"/>
<path d="M102.235 164.9C105.392 158.135 113.811 144.454 115.916 137.389C118.02 130.173 117.87 121.303 120.576 114.238C123.132 107.172 126.589 104.015 127.19 100.407C127.792 96.7991 127.942 93.3414 128.694 90.6354C129.445 87.9295 131.249 86.1255 131.7 84.1712C132.001 82.2168 131.7 77.4062 132.753 74.3996C133.805 71.3929 135.609 69.138 135.609 66.7326C135.609 64.3273 134.106 57.5624 134.707 48.5424C135.308 39.3722 134.106 23.2866 142.073 21.3323C150.041 19.378 151.845 22.986 151.845 22.986C151.845 22.986 162.218 25.5416 165.525 38.6205C168.833 51.5491 168.382 69.1379 168.382 69.1379" stroke="#2969D0" stroke-width="3" stroke-miterlimit="10" stroke-linecap="round"/>
<path d="M299.922 77.1064C299.922 77.1064 299.622 87.0284 297.066 93.4927" stroke="#808285" stroke-width="2" stroke-miterlimit="10"/>
<g opacity="0.5">
<path d="M150.492 27.3457C151.093 29.1497 151.394 30.9537 151.394 33.0583C151.394 34.1107 151.244 35.0126 150.793 36.065C150.342 36.967 149.74 37.869 148.989 38.6206C147.335 39.9736 145.531 40.7253 143.577 41.0259C142.524 41.1763 141.622 41.0259 140.57 40.7253C139.668 40.4246 138.766 39.8233 138.465 38.7709C139.067 39.5226 139.969 39.8233 140.871 39.9736C141.773 40.1239 142.675 39.9736 143.426 39.8233C145.08 39.3723 146.734 38.6206 148.087 37.5683C149.44 36.516 150.041 34.8623 150.342 33.0583C150.492 31.104 150.492 29.1497 150.492 27.3457Z" fill="#AEB0B2"/>
</g>
</svg>
