<svg width="900" height="500" viewBox="0 0 900 500" fill="none" xmlns="http://www.w3.org/2000/svg">
<path opacity="0.33" d="M350.977 429.161C356.313 422.383 372.176 398.876 377.224 391.088C382.271 383.301 393.664 356.765 398.423 350.708C403.182 344.651 408.951 337.008 406.355 319.125C403.904 301.243 401.74 295.042 403.183 269.516C404.625 243.99 400.154 238.942 394.241 226.684C393.087 219.329 391.213 217.31 388.473 215.147C388.905 210.099 391.501 190.053 393.087 179.814C394.818 169.575 391.357 172.748 393.087 150.971C394.818 129.195 388.905 113.764 385.156 109.293C384.579 104.967 380.397 100.063 372.753 98.4771C365.254 96.7465 358.332 103.669 358.332 106.697C355.88 107.563 348.093 118.234 351.986 153.134C343.478 173.469 338.142 194.38 336.988 201.446C335.69 208.513 329.921 240.384 327.614 239.086C325.307 237.788 334.536 207.359 337.276 188.467C340.016 169.575 342.901 156.451 344.631 147.51C346.362 138.569 346.506 109.293 336.7 105.688C334.392 98.3329 327.326 96.4581 320.836 96.0254C314.346 95.5928 308.866 100.784 308.722 103.813C305.838 104.823 302.809 118.811 304.107 138.28C297.617 145.203 288.82 167.123 279.014 215.291C279.014 215.291 282.186 168.421 288.243 149.241C294.445 130.06 298.915 122.561 295.31 111.889C297.041 106.842 292.281 103.092 285.792 101.073C279.302 99.0539 271.947 102.515 270.505 106.553C265.313 107.418 256.66 122.849 252.911 135.108C245.989 147.366 237.768 168.998 234.596 181.256C231.423 193.514 229.981 238.365 228.106 241.394C226.231 244.422 222.914 244.711 220.318 241.826C217.723 238.942 217.001 238.077 216.28 232.741C215.559 227.261 214.261 217.743 212.675 210.676C211.233 203.609 209.502 189.621 210.079 184.429C210.656 179.237 217.29 170.007 216.569 157.893C215.848 145.779 208.204 141.165 206.185 139.578C204.166 138.136 201.859 134.675 194.937 136.55C188.014 138.425 184.697 154.288 184.697 154.288C184.697 154.288 175.9 171.45 174.458 175.343C173.016 179.237 173.304 183.996 171.862 190.342C170.42 196.687 172.295 203.033 170.132 209.378C168.113 215.724 168.978 226.107 171.285 234.76C173.593 243.413 171.862 243.845 173.737 250.479C175.612 256.969 179.361 265.91 180.659 272.111C181.957 278.313 181.525 292.013 182.39 302.685C183.255 313.357 188.159 319.27 189.456 333.258C190.754 347.247 193.494 386.185 195.369 397.434C197.244 408.683 198.398 412.144 192.773 429.45H350.977V429.161Z" fill="#445272"/>
<path d="M350.977 429.161C356.313 422.383 372.176 398.876 377.224 391.088C382.271 383.301 393.664 356.765 398.423 350.708C403.182 344.651 408.951 337.008 406.355 319.125C403.904 301.243 401.74 295.042 403.183 269.516C404.625 243.99 400.154 238.942 394.241 226.684C393.087 219.329 391.213 217.31 388.473 215.147C388.905 210.099 391.501 190.053 393.087 179.814C394.818 169.575 391.357 172.748 393.087 150.971C394.818 129.195 388.905 113.764 385.156 109.293C384.579 104.967 380.397 100.063 372.753 98.4771C365.254 96.7465 358.332 103.669 358.332 106.697C355.88 107.563 348.093 118.234 351.986 153.134C343.478 173.469 338.142 194.38 336.988 201.446C335.69 208.513 329.921 240.384 327.614 239.086C325.307 237.788 334.536 207.359 337.276 188.467C340.016 169.575 342.901 156.451 344.631 147.51C346.362 138.569 346.506 109.293 336.7 105.688C334.392 98.3329 327.326 96.4581 320.836 96.0254C314.346 95.5928 308.866 100.784 308.722 103.813C305.838 104.823 302.809 118.811 304.107 138.28C297.617 145.203 288.82 167.123 279.014 215.291C279.014 215.291 282.186 168.421 288.243 149.241C294.445 130.06 298.915 122.561 295.31 111.889C297.041 106.842 292.281 103.092 285.792 101.073C279.302 99.0539 271.947 102.515 270.505 106.553C265.313 107.418 256.66 122.849 252.911 135.108C245.989 147.366 237.768 168.998 234.596 181.256C231.423 193.514 229.981 238.365 228.106 241.394C226.231 244.422 222.914 244.711 220.318 241.826C217.723 238.942 217.001 238.077 216.28 232.741C215.559 227.261 214.261 217.743 212.675 210.676C211.233 203.609 209.502 189.621 210.079 184.429C210.656 179.237 217.29 170.007 216.569 157.893C215.848 145.779 208.204 141.165 206.185 139.578C204.166 138.136 201.859 134.675 194.937 136.55C188.014 138.425 184.697 154.288 184.697 154.288C184.697 154.288 175.9 171.45 174.458 175.343C173.016 179.237 173.304 183.996 171.862 190.342C170.42 196.687 172.295 203.033 170.132 209.378C168.113 215.724 168.978 226.107 171.285 234.76C173.593 243.413 171.862 243.845 173.737 250.479C175.612 256.969 179.361 265.91 180.659 272.111C181.957 278.313 181.525 292.013 182.39 302.685C183.255 313.357 188.159 319.27 189.456 333.258C190.754 347.247 193.494 386.185 195.369 397.434C197.244 408.683 198.398 412.144 192.773 429.45" stroke="#697695" stroke-width="2" stroke-miterlimit="10"/>
<path d="M220.463 241.539C217.867 238.511 217.146 237.789 216.425 232.454C215.704 226.973 214.406 217.455 212.82 210.389C211.377 203.322 209.647 189.333 210.224 184.142C210.801 178.95 217.434 169.72 216.713 157.606C215.992 145.492 208.349 140.877 206.33 139.291C204.311 137.849 202.003 134.388 195.081 136.262C188.159 138.137 184.842 154.001 184.842 154.001C184.842 154.001 176.045 171.162 174.603 175.056C173.161 178.95 173.449 183.709 172.007 190.054C170.565 196.4 172.439 202.745 170.276 209.091C168.257 215.436 169.123 225.82 171.43 234.473C173.737 243.125 172.007 243.558 173.882 250.192C175.756 256.682 179.506 265.623 180.804 271.824" stroke="#BA6DCD" stroke-width="3" stroke-miterlimit="10" stroke-linecap="round"/>
<g opacity="0.5">
<path d="M188.16 155.298C189.891 154.865 191.766 154.865 193.496 154.433C195.227 154 196.669 153.279 197.967 152.125C199.265 151.116 200.563 149.818 201.716 148.376C202.293 147.655 202.87 146.933 203.447 146.357C204.024 145.636 204.456 144.914 205.177 144.193C204.889 145.059 204.456 145.924 204.024 146.789C203.591 147.655 203.158 148.376 202.582 149.241C201.572 150.827 200.274 152.269 198.832 153.423C197.39 154.577 195.515 155.442 193.64 155.586C191.766 155.875 190.035 155.298 188.16 155.298Z" fill="#B1BBD0"/>
</g>
<path d="M378.81 291.581C378.522 280.909 377.079 261.007 378.81 249.037C380.541 237.212 388.617 215.291 388.617 215.291" stroke="#697695" stroke-width="2" stroke-miterlimit="10"/>
<path d="M271.658 238.798C274.687 232.164 278.436 222.79 279.013 215.146Z" fill="#445272"/>
<path d="M271.658 238.798C274.687 232.164 278.436 222.79 279.013 215.146" stroke="#697695" stroke-width="2" stroke-miterlimit="10"/>
<path opacity="0.33" d="M545.255 429.668C535.082 417.346 525.912 410.325 519.178 406.027C515.882 403.878 510.294 400.582 502.987 394.565C497.112 389.693 498.115 389.693 491.668 384.248C483.071 376.941 479.346 375.508 471.895 368.057C468.886 365.049 467.31 363.472 465.734 361.18C462.438 356.165 461.579 351.723 460.146 343.843C456.277 323.067 456.994 323.784 455.561 319.485C452.695 310.172 451.119 310.458 449.543 302.578C448.54 297.277 448.54 293.838 446.391 287.533C444.528 282.089 443.955 282.948 442.952 278.937C440.373 269.623 442.379 260.597 442.952 258.161C443.669 254.865 444.385 253.433 444.528 249.994C444.672 246.985 444.242 245.409 444.528 241.97C444.815 239.391 445.388 237.385 445.818 235.952C443.669 230.364 441.663 224.06 439.943 217.039C439.227 214.174 438.797 211.308 438.367 208.729C439.8 207.439 442.379 205.72 445.818 204.717C453.125 202.711 459.573 205.863 462.582 207.439C463.728 208.012 468.313 210.305 472.755 215.463C484.217 228.502 487.083 249.707 487.656 254.722C487.513 256.298 487.369 258.447 486.51 260.74C485.937 262.603 485.22 264.035 484.504 265.325C485.507 266.185 486.939 267.474 488.086 269.48C489.948 272.346 490.522 275.068 490.665 275.784C491.381 278.937 493.387 284.954 498.832 296.847C497.256 276.787 495.68 256.728 494.104 236.525C493.101 230.078 491.238 219.045 488.945 205.004C486.223 187.523 485.22 180.932 485.65 171.476C485.937 166.604 486.223 167.464 487.083 156.431C488.372 140.814 487.799 139.237 488.945 130.354C491.095 113.877 494.533 108.575 496.539 106.14C500.981 100.552 505.279 99.4053 506.426 99.2621C511.011 98.2591 514.736 99.6919 516.026 100.122C522.616 102.701 525.482 108.575 526.342 110.295C527.775 113.16 528.204 115.883 528.491 117.459C529.064 120.898 528.921 123.62 528.921 125.053C528.061 140.814 528.921 135.512 528.061 146.831C527.631 151.56 527.488 154.139 528.061 158.151C528.634 161.303 529.351 163.452 530.067 165.458C533.219 174.198 535.369 181.505 535.655 182.795C536.228 184.801 537.088 191.678 538.951 205.147C540.097 213.887 540.527 217.182 541.53 222.77C542.389 227.785 543.392 231.94 544.109 234.806C544.395 234.663 544.682 234.663 544.968 234.519C544.395 229.648 543.392 222.197 542.103 212.884C540.383 199.416 540.383 198.413 539.667 194.687C537.804 184.514 536.228 181.792 534.509 171.906C533.506 165.745 533.076 160.873 532.933 158.151C532.216 149.84 533.363 146.688 532.503 137.088C532.216 134.223 531.93 131.787 531.5 128.635C530.21 118.462 529.207 115.31 530.21 110.008C530.927 106.713 531.93 104.42 532.36 103.704C533.649 101.125 536.371 95.5367 542.819 93.101C549.553 90.5219 555.714 93.2442 556.288 93.5308C560.443 95.5367 562.449 98.6889 564.455 101.984C566.604 105.423 569.899 112.014 570.472 121.9C572.335 125.626 575.057 131.357 577.493 138.664C578.926 143.106 580.216 147.548 583.224 163.309C585.374 174.055 585.803 177.35 587.38 185.947C588.526 192.252 590.388 201.565 592.968 213.027C592.968 213.027 593.684 213.744 594.4 213.457C595.117 213.314 595.833 212.311 595.547 211.308C598.699 194.401 597.409 182.508 595.403 174.628C594.544 171.046 592.538 164.312 590.818 153.852C589.815 147.691 589.242 142.533 588.956 139.094C585.66 133.936 583.368 129.351 581.935 125.912C580.072 121.614 578.783 118.605 578.21 114.163C577.636 110.295 577.207 106.14 579.356 101.984C579.929 100.838 581.505 97.9725 584.657 96.3964C589.815 93.8174 595.403 96.2531 598.126 97.3994C598.842 97.686 601.135 98.6889 605.433 102.271C608.299 104.563 612.167 108.145 616.179 113.16C620.191 119.035 622.627 124.193 624.203 127.775C625.779 131.644 626.209 133.793 628.071 138.378C630.937 145.399 632.37 146.545 634.376 151.416C635.092 152.992 636.382 156.718 637.958 166.604C639.247 175.058 639.964 182.652 640.394 191.965C640.68 199.416 640.967 209.159 640.823 220.621C641.683 220.478 642.829 220.191 644.119 219.475C646.268 218.185 647.271 216.179 648.561 212.311C650.137 207.869 650.853 204.717 651.856 200.562C652.286 198.986 651.856 200.562 654.005 192.538C658.16 177.35 658.59 175.201 659.02 172.909C659.737 168.18 660.023 164.455 660.023 162.879C660.31 157.434 659.88 153.279 659.593 148.551C659.02 141.817 658.59 141.673 658.017 135.942C657.014 125.912 656.584 120.898 658.447 116.026C659.163 114.163 661.742 107.143 668.763 104.277C669.623 103.99 677.647 100.695 682.948 105.28C684.811 106.856 685.527 108.575 686.244 110.151C691.975 124.336 693.408 135.082 693.408 135.082C693.837 138.664 694.124 141.673 694.984 151.703C696.417 170.759 697.133 180.502 696.846 187.523C696.417 196.407 696.273 201.708 694.411 209.015C693.264 213.457 691.402 218.759 688.106 230.651C687.676 232.084 686.96 234.949 686.244 238.818C685.527 242.83 685.241 245.982 685.097 247.845C684.381 256.871 684.667 262.029 684.381 271.199C683.951 282.805 683.235 282.375 683.378 289.396C683.665 296.56 684.524 299.856 685.527 306.876C685.957 309.599 685.957 310.602 687.39 337.539C688.393 356.022 688.823 365.192 688.823 367.628C688.966 373.789 688.823 376.225 689.252 380.81C689.396 382.815 690.255 390.266 693.981 402.302C696.13 409.179 699.282 418.349 704.44 428.809C651.57 429.382 598.412 429.525 545.255 429.668Z" fill="#445272"/>
<path d="M688.391 231.223C687.962 232.655 687.245 235.521 686.529 239.39C685.812 243.402 685.526 246.554 685.383 248.416C684.666 257.443 684.953 262.601 684.666 271.771C684.236 283.377 683.52 282.947 683.663 289.968C683.95 297.132 684.809 300.427 685.812 307.448C686.242 310.171 686.242 311.174 687.675 338.11C688.678 356.594 689.108 365.764 689.108 368.199C689.251 374.361 689.108 376.796 689.538 381.381C689.681 383.387 690.541 390.838 694.266 402.873C696.415 409.751 699.567 418.921 704.726 429.38" stroke="#697695" stroke-width="2" stroke-miterlimit="10"/>
<path d="M545.255 429.668C535.082 417.346 525.912 410.325 519.178 406.027C515.882 403.878 510.294 400.582 502.987 394.565C497.112 389.693 498.115 389.693 491.668 384.248C483.071 376.941 479.346 375.508 471.895 368.057C468.886 365.049 467.31 363.472 465.734 361.18C462.438 356.165 461.579 351.723 460.146 343.843C456.277 323.067 456.994 323.784 455.561 319.485C452.695 310.172 451.119 310.458 449.543 302.578C448.54 297.277 448.54 293.838 446.391 287.533C444.528 282.089 443.955 282.948 442.952 278.937C440.373 269.623 442.379 260.597 442.952 258.161C443.669 254.865 444.385 253.433 444.528 249.994C444.672 246.985 444.242 245.409 444.528 241.97C444.815 239.391 445.388 237.385 445.818 235.952C443.669 230.364 441.663 224.06 439.943 217.039C439.227 214.174 438.797 211.308 438.367 208.729C439.8 207.439 442.379 205.72 445.818 204.717C453.125 202.711 459.573 205.863 462.582 207.439C463.728 208.012 468.313 210.305 472.755 215.463C484.217 228.502 487.083 249.707 487.656 254.722C487.513 256.298 487.369 258.447 486.51 260.74C485.937 262.603 485.22 264.035 484.504 265.325C485.507 266.185 486.939 267.474 488.086 269.48C489.948 272.346 490.522 275.068 490.665 275.784C491.381 278.937 493.387 284.954 498.832 296.847C497.256 276.787 495.68 256.728 494.104 236.525C493.101 230.078 491.238 219.045 488.945 205.004C486.223 187.523 485.22 180.932 485.65 171.476C485.937 166.604 486.223 167.464 487.083 156.431C488.372 140.814 487.799 139.237 488.945 130.354C491.095 113.877 494.533 108.575 496.539 106.14C500.981 100.552 505.279 99.4053 506.426 99.2621C511.011 98.2591 514.736 99.6919 516.026 100.122C522.616 102.701 525.482 108.575 526.342 110.295C527.775 113.16 528.204 115.883 528.491 117.459C529.064 120.898 528.921 123.62 528.921 125.053C528.061 140.814 528.921 135.512 528.061 146.831C527.631 151.56 527.488 154.139 528.061 158.151C528.634 161.303 529.351 163.452 530.067 165.458C533.219 174.198 535.369 181.505 535.655 182.795C536.228 184.801 537.088 191.678 538.951 205.147C540.097 213.887 540.527 217.182 541.53 222.77C542.389 227.785 543.392 231.94 544.109 234.806C544.395 234.663 544.682 234.663 544.968 234.519C544.395 229.648 543.392 222.197 542.103 212.884C540.383 199.416 540.383 198.413 539.667 194.687C537.804 184.514 536.228 181.792 534.509 171.906C533.506 165.745 533.076 160.873 532.933 158.151C532.216 149.84 533.363 146.688 532.503 137.088C532.216 134.223 531.93 131.787 531.5 128.635C530.21 118.462 529.207 115.31 530.21 110.008C530.927 106.713 531.93 104.42 532.36 103.704C533.649 101.125 536.371 95.5367 542.819 93.101C549.553 90.5219 555.714 93.2442 556.288 93.5308C560.443 95.5367 562.449 98.6889 564.455 101.984C566.604 105.423 569.899 112.014 570.472 121.9C572.335 125.626 575.057 131.357 577.493 138.664C578.926 143.106 580.216 147.548 583.224 163.309C585.374 174.055 585.803 177.35 587.38 185.947C588.526 192.252 590.388 201.565 592.968 213.027C592.968 213.027 593.684 213.744 594.4 213.457C595.117 213.314 595.833 212.311 595.547 211.308C598.699 194.401 597.409 182.508 595.403 174.628C594.544 171.046 592.538 164.312 590.818 153.852C589.815 147.691 589.242 142.533 588.956 139.094C585.66 133.936 583.368 129.351 581.935 125.912C580.072 121.614 578.783 118.605 578.21 114.163C577.636 110.295 577.207 106.14 579.356 101.984C579.929 100.838 581.505 97.9725 584.657 96.3964C589.815 93.8174 595.403 96.2531 598.126 97.3994C598.842 97.686 601.135 98.6889 605.433 102.271C608.299 104.563 612.167 108.145 616.179 113.16C620.191 119.035 622.627 124.193 624.203 127.775C625.779 131.644 626.209 133.793 628.071 138.378C630.937 145.399 632.37 146.545 634.376 151.416C635.092 152.992 636.382 156.718 637.958 166.604C639.247 175.058 639.964 182.652 640.394 191.965C640.68 199.416 640.967 209.159 640.823 220.621" stroke="#697695" stroke-width="2" stroke-miterlimit="10"/>
<path d="M642.686 220.622C643.259 220.478 643.832 220.192 644.405 219.762C646.554 218.472 647.557 216.466 648.847 212.598C650.423 208.156 651.139 205.004 652.142 200.849C652.572 199.273 652.142 200.849 654.291 192.825C658.446 177.637 658.876 175.488 659.306 173.196C660.023 168.467 660.309 164.742 660.309 163.166C660.596 157.721 660.166 153.566 659.879 148.838C659.306 142.104 658.876 141.96 658.303 136.229C657.3 126.199 656.87 121.184 658.733 116.313C659.449 114.45 662.028 107.429 669.049 104.564C669.909 104.277 677.933 100.982 683.234 105.567C685.097 107.143 685.813 108.862 686.53 110.438C692.261 124.623 693.694 135.369 693.694 135.369C694.123 138.951 694.41 141.96 695.27 151.99C696.703 171.046 697.419 180.789 697.132 187.81C696.703 196.694 696.559 201.995 694.697 209.302C693.55 213.744 691.688 219.045 688.392 230.938" stroke="#BA6DCD" stroke-width="3" stroke-miterlimit="10" stroke-linecap="round"/>
<g opacity="0.5">
<path d="M448.97 234.091C449.83 233.661 450.546 232.945 450.833 232.085C451.119 231.369 450.976 230.222 450.976 229.363C450.833 227.5 450.69 225.637 450.546 223.631C450.403 221.769 450.116 219.906 449.83 218.043C449.687 217.04 449.543 216.181 449.257 215.321L448.684 212.599L448.827 212.742C448.397 212.026 447.824 211.452 447.251 210.879C446.678 210.306 445.961 209.876 445.102 209.59C446.821 209.876 448.397 210.879 449.543 212.169V212.312C450.116 214.175 450.833 216.038 451.119 217.9C451.549 219.763 451.836 221.769 451.979 223.631C452.122 225.494 452.122 227.5 451.979 229.506C451.979 229.936 451.836 230.509 451.836 230.939C451.693 231.369 451.693 231.942 451.406 232.372C450.833 233.231 449.973 233.804 448.97 234.091Z" fill="#B1BBD0"/>
</g>
<g opacity="0.5">
<path d="M669.194 110.15C669.481 112.729 670.054 115.165 670.627 117.601C670.913 118.747 671.2 120.037 671.63 121.183C671.773 121.756 672.06 122.329 672.203 122.902C672.49 123.476 672.776 124.049 673.063 124.335C673.493 124.765 673.922 125.195 674.352 125.338C674.639 125.481 675.355 125.625 675.928 125.625C677.075 125.768 678.364 125.768 679.654 125.768C682.089 125.768 684.668 125.625 687.104 124.908C684.812 126.055 682.233 126.628 679.654 126.771C678.364 126.914 677.075 126.914 675.785 126.771C675.498 126.771 675.069 126.771 674.782 126.628L674.209 126.484C673.922 126.484 673.779 126.341 673.636 126.198C672.919 125.911 672.49 125.481 671.916 124.908C671.343 124.192 671.057 123.619 670.77 123.046C670.484 122.473 670.34 121.756 670.197 121.183C669.911 119.894 669.624 118.747 669.337 117.458C669.194 115.165 669.051 112.586 669.194 110.15Z" fill="#B1BBD0"/>
</g>
</svg>
