<svg width="900" height="500" viewBox="0 0 900 500" fill="none" xmlns="http://www.w3.org/2000/svg">
<path opacity="0.33" d="M694.391 428.438C687.6 414.134 682.831 400.841 680.953 371.365C679.075 341.888 682.687 339.577 680.953 316.314C679.219 293.051 677.485 298.108 679.219 280.624C680.809 263.141 671.272 240.456 671.128 231.931C670.983 223.406 671.706 194.219 669.105 180.493C666.504 166.766 660.435 157.952 656.101 134.4C651.766 110.848 635.294 95.5321 624.746 98.9999C614.198 102.468 612.465 113.449 613.765 117.495C609.141 108.392 606.107 103.046 603.217 99.5778C600.327 96.11 591.947 92.0643 591.947 92.0643C591.947 92.0643 578.943 89.319 573.886 101.023C569.695 101.89 569.695 110.993 569.84 113.449C568.828 107.958 566.95 100.156 565.361 97.6994C563.627 95.2431 560.303 91.3419 555.68 89.319C551.056 87.2961 539.208 88.0186 536.174 90.4749C533.139 92.9312 527.649 97.9884 528.082 102.901C528.516 107.958 530.105 112.437 530.394 125.297C530.683 138.157 534.873 165.321 535.74 172.112C536.607 178.903 548.311 241.468 548.311 241.468C548.311 241.468 547.877 242.479 547.155 241.757C546.577 241.034 532.85 164.743 527.938 153.473C529.816 141.48 530.972 107.525 523.169 100.011C519.846 92.4978 499.617 86.5737 491.959 103.479C484.301 120.24 486.758 150.294 485.313 161.853C483.868 173.413 485.457 199.132 486.902 206.79C485.891 198.987 483.29 191.763 478.811 187.284C474.332 182.804 466.963 178.325 461.761 176.447C457.571 175.002 452.225 176.88 449.913 179.192C449.19 179.915 448.179 180.637 447.167 180.782C446.011 181.07 445 181.937 445 181.937C445 184.394 446.878 196.675 453.669 208.813C451.936 211.414 454.247 222.25 452.369 229.908C450.491 237.422 448.323 242.624 451.647 251.293C450.346 253.605 452.08 259.962 454.97 262.274C453.236 267.62 455.403 274.411 461.183 288.571C468.407 306.344 464.795 325.995 469.852 336.109C474.91 346.223 480.978 349.691 487.625 360.094C494.127 370.498 519.557 403.008 529.96 411.244C540.364 419.48 544.698 428.294 544.698 428.294H694.391V428.438Z" fill="#E0E1E2"/>
<path d="M694.391 428.438C687.6 414.134 682.831 400.841 680.953 371.365C679.075 341.888 682.687 339.577 680.953 316.314C679.219 293.051 677.485 298.108 679.219 280.624C680.809 263.141 671.272 240.456 671.128 231.931C670.983 223.406 671.706 194.219 669.105 180.492C666.504 166.766 662.603 156.652 656.101 134.4C648.876 109.548 635.294 95.532 624.746 98.9998C614.198 102.468 612.465 113.449 613.765 117.495C609.141 108.392 606.107 103.046 603.217 99.5778C601.05 96.9769 595.126 92.4977 590.213 91.7753C586.601 91.1973 577.787 91.9198 573.886 100.878C570.129 102.179 569.695 110.848 569.84 113.304C568.828 107.814 566.95 100.011 565.361 97.5549C563.627 95.0986 560.303 91.1973 555.68 89.1745C551.056 87.1516 539.208 87.874 536.174 90.3304C533.139 92.7867 527.649 97.8439 528.082 102.757C528.516 107.814 530.105 112.293 530.394 125.153C530.683 138.012 534.873 165.177 535.74 171.968C536.607 178.759 548.311 241.323 548.311 241.323C548.311 241.323 547.877 242.334 547.155 241.612C546.577 240.89 532.85 164.599 527.938 153.328C529.816 141.336 530.972 107.38 523.169 99.8668C519.846 92.3532 499.617 86.4291 491.959 103.335C484.301 120.095 486.758 150.149 485.313 161.709C483.868 173.268 485.457 198.987 486.902 206.645C485.891 198.843 483.29 191.618 478.811 187.139C474.332 182.66 466.963 178.181 461.761 176.302C457.571 174.857 452.225 176.736 449.913 179.192C449.046 180.059 447.89 180.926 446.589 181.07C445.578 181.215 445 181.504 445 181.504C445 183.816 446.589 194.942 452.225 206.067C452.947 207.512 453.38 209.102 453.091 210.691C452.513 214.881 453.958 223.551 452.369 229.764C450.491 237.277 448.323 242.479 451.647 251.148C451.936 255.772 453.38 260.396 454.97 262.13C454.536 268.343 455.403 274.267 461.183 288.427C468.407 306.199 464.795 325.85 469.852 335.964C474.91 346.079 480.978 349.546 487.625 359.95C494.127 370.353 519.557 402.863 529.96 411.099C540.364 419.335 544.698 428.149 544.698 428.149" stroke="#75819C" stroke-width="2" stroke-miterlimit="10"/>
<path d="M491.815 328.884C492.248 321.515 495.571 308.944 495.86 304.465C496.294 299.986 494.994 306.344 494.705 286.982C494.56 267.476 492.826 236.844 489.647 223.117C486.469 209.39 487.336 206.645 485.891 201.732" stroke="#75819C" stroke-width="2" stroke-miterlimit="10"/>
<path d="M597.726 228.897C594.548 224.129 590.935 215.749 590.502 193.497C590.068 171.245 583.422 165.899 582.988 150.583C582.555 135.267 571.574 130.355 569.695 113.594" stroke="#75819C" stroke-width="2" stroke-miterlimit="10"/>
<path d="M636.739 223.406C636.883 217.915 637.028 190.173 634.138 173.557C631.248 156.94 628.358 150.583 624.89 143.213C621.278 135.7 615.209 124.285 613.476 117.639" stroke="#75819C" stroke-width="2" stroke-miterlimit="10"/>
<g opacity="0.5">
<path d="M453.092 182.805C454.392 183.094 455.548 183.816 456.704 184.683C457.715 185.695 458.438 186.85 458.871 188.151C459.594 190.752 460.316 193.208 460.75 195.953C461.183 198.554 461.617 201.299 461.328 204.045C461.328 204.767 461.039 205.49 460.894 206.068C460.605 206.79 460.172 207.368 459.594 207.802C458.438 208.813 456.993 208.957 455.693 208.524C456.993 208.669 458.293 208.235 459.16 207.224C460.027 206.357 460.172 205.056 460.172 203.756C460.172 201.155 459.738 198.554 459.305 196.098C458.871 193.497 458.293 190.896 457.716 188.44C457.282 186.128 455.548 183.961 453.092 182.805Z" fill="#75819C"/>
</g>
<path opacity="0.33" d="M172.753 111.03C168.731 112.267 150.635 128.817 145.84 136.086C141.046 143.356 138.107 139.953 135.168 148.614C132.23 157.276 133.776 180.785 135.168 191.148C136.56 201.511 141.974 210.018 141.974 222.701C141.974 235.383 139.499 241.88 143.52 257.81C147.387 273.741 152.027 281.32 156.048 310.707C159.915 340.094 164.401 352.777 161.926 361.438C159.451 370.1 145.686 416.81 142.592 421.914C139.499 427.018 124.032 456.56 118 463.984H287.053C292.93 455.632 315.357 415.572 322.472 405.828C329.587 396.239 345.518 379.689 351.395 372.575C357.272 365.46 373.513 335.609 385.268 319.833C397.022 304.056 406.766 290.91 408.004 282.248C409.241 273.587 406.612 269.101 408.932 250.077C411.252 231.053 411.561 222.391 412.799 214.813C414.036 207.234 416.356 207.079 416.511 198.418C416.665 189.911 413.572 184.343 415.583 169.804C415.583 169.804 415.583 167.793 415.119 166.247C414.655 164.7 424.089 146.758 423.007 135.931C421.924 125.105 403.364 126.651 394.238 132.993C385.113 139.334 377.689 146.449 371.502 158.977C365.315 171.505 365.161 182.023 365.625 191.303C365.934 200.583 363.15 200.274 360.521 218.989C357.891 237.703 355.88 238.322 355.88 238.322C355.88 238.322 352.478 235.383 350.622 222.391C348.766 209.399 348.302 184.188 348.302 177.073C348.302 169.959 348.611 154.801 350.622 139.953C352.632 125.105 354.952 115.825 354.952 103.606C354.952 91.2322 358.2 53.6477 355.88 42.8209C353.56 31.9941 349.075 20.7033 337.939 15.5992C326.957 10.4952 316.904 19.466 314.429 33.5408C311.955 47.6157 314.12 57.2051 312.728 64.0106C311.955 67.7226 310.717 73.7547 308.242 82.1068C305.922 75.3014 296.178 62.4639 277.927 59.5252C259.677 56.5864 260.141 59.9892 246.53 60.6078C232.919 61.3812 230.599 68.3413 226.113 76.384C225.031 78.3947 224.257 81.3334 223.639 85.0455C220.081 86.7468 217.297 87.2108 206.78 86.5922C196.262 85.9735 198.582 89.2215 191.622 89.8402C184.817 90.3042 179.403 93.5523 175.846 101.75C174.763 104.688 173.526 107.627 172.753 111.03Z" fill="#E0E1E2"/>
<path d="M286.898 463.831C292.775 455.479 315.202 415.42 322.317 405.676C329.432 396.087 345.363 379.537 351.24 372.422C357.118 365.308 373.358 335.456 385.113 319.68C396.868 303.904 406.612 290.757 407.849 282.096C409.086 273.434 406.457 268.949 408.777 249.925C411.097 230.9 411.406 222.239 412.644 214.66C413.881 207.081 416.201 206.927 416.356 198.265C416.51 189.759 413.417 184.19 415.428 169.652C415.428 169.652 415.428 167.641 414.964 166.094C414.5 164.548 423.935 146.606 422.852 135.779C421.769 124.952 403.209 126.499 394.083 132.84C384.958 139.182 377.534 146.297 371.347 158.825C365.16 171.353 365.006 181.87 365.47 191.151C365.779 200.431 362.995 200.121 360.366 218.836C357.736 237.551 355.726 238.17 355.726 238.17C355.726 238.17 352.323 235.231 350.467 222.239C348.611 209.247 348.147 184.036 348.147 176.921C348.147 169.806 348.456 154.649 350.467 139.801C352.478 124.952 354.798 115.672 354.798 103.453C354.798 91.0799 358.046 53.4954 355.726 42.6686C353.406 31.8418 348.92 20.551 337.784 15.4469C326.803 10.3429 316.749 19.3136 314.274 33.3885C311.8 47.4633 313.965 57.0528 312.573 63.8582C311.8 67.5703 310.562 73.6023 308.088 81.9545C305.768 75.149 296.024 62.3115 277.773 59.3728C259.522 56.4341 259.986 59.8368 246.375 60.4555C232.764 61.2289 230.444 68.1889 225.959 76.2317C224.876 78.2424 224.103 81.1811 223.484 84.8932C219.927 86.5945 217.142 87.0585 206.625 86.4399C196.108 85.8212 198.428 89.0692 191.467 89.6879C184.662 90.1519 179.249 93.4 175.691 101.597C174.299 104.691 173.217 107.629 172.289 111.032" stroke="#75819C" stroke-width="2" stroke-miterlimit="10"/>
<path d="M172.753 111.031C168.731 112.269 150.635 128.818 145.84 136.088C141.046 143.357 138.107 139.954 135.168 148.616C132.23 157.277 133.776 180.787 135.168 191.15C136.56 201.512 141.974 210.019 141.974 222.702C141.974 235.385 139.499 241.881 143.52 257.812C147.387 273.743 152.027 281.321 156.048 310.708C159.915 340.096 164.401 352.778 161.926 361.44C159.451 370.101 145.686 416.811 142.592 421.915C139.499 427.019 124.032 456.561 118 463.985" stroke="#75819C" stroke-width="2" stroke-miterlimit="10"/>
<path d="M288.754 149.545C286.589 143.204 282.103 125.417 282.413 113.353C285.661 108.867 296.333 120.313 296.333 120.313L288.754 149.545Z" stroke="#75819C" stroke-width="2" stroke-miterlimit="10"/>
<path d="M307.469 78.7064C303.293 72.5197 296.488 62.3115 278.082 59.3728C259.676 56.4341 260.295 59.8368 246.684 60.4555C233.073 61.2288 230.753 68.1889 226.268 76.2317C221.783 84.2745 222.247 111.341 222.247 120.312C222.247 129.283 227.041 159.289 212.502 171.044" stroke="#75819C" stroke-width="2" stroke-miterlimit="10"/>
<path d="M222.247 85.8223C218.689 86.5956 217.452 87.2143 206.935 86.441C196.417 85.8223 198.737 89.0703 191.777 89.689C184.972 90.153 179.558 93.4011 176.001 101.598C172.443 109.796 170.123 116.601 171.206 136.708C172.134 156.815 176.001 174.138 174.609 183.573C173.062 193.008 168.731 201.05 166.102 203.061" stroke="#75819C" stroke-width="2" stroke-miterlimit="10"/>
<g opacity="0.5">
<path d="M417.129 132.531C413.572 132.995 410.014 134.078 407.694 136.862C406.611 138.099 405.683 139.646 404.91 141.193C404.137 142.739 403.363 144.441 402.899 145.987C401.817 149.235 401.971 152.947 403.209 156.196C403.827 157.897 404.755 159.289 405.838 160.681C406.921 162.073 408.313 163.31 409.86 164.084C406.302 163.001 403.673 159.908 402.126 156.66C401.353 154.958 400.889 153.102 400.734 151.246C400.579 149.39 400.889 147.534 401.353 145.678C401.971 143.822 402.745 142.275 403.518 140.574C404.446 139.027 405.374 137.326 406.766 136.089C408.158 134.851 409.705 133.769 411.561 133.15C413.417 132.686 415.273 132.531 417.129 132.531Z" fill="#75819C"/>
</g>
<path d="M282.413 164.083C288.135 160.526 292.775 127.736 300.509 106.082C308.242 84.5835 311.49 70.6633 312.882 63.8579C314.274 57.0525 311.954 47.6177 314.584 33.3882C317.213 19.1587 326.957 10.6519 338.093 15.6013C349.075 20.7054 353.715 31.8415 356.035 42.823C358.355 53.6498 355.107 91.3889 355.107 103.608C355.107 115.981 352.478 125.107 350.776 139.955C349.693 150.163 348.301 168.259 348.456 177.075" stroke="#F69AED" stroke-width="3" stroke-miterlimit="10" stroke-linecap="round"/>
<g opacity="0.5">
<path d="M319.688 32.4601C320.151 33.6974 321.233 34.4708 322.316 34.7801C323.399 35.2441 324.637 35.5535 325.874 35.7081C327.112 35.8628 328.349 35.8628 329.586 35.8628C330.824 35.8628 332.061 35.7081 333.144 35.3988C335.464 34.7801 337.474 33.5428 339.176 31.6867C340.877 29.9854 342.114 27.82 343.352 25.5C342.733 27.9747 341.805 30.4494 340.104 32.4601C338.402 34.4708 336.082 36.0175 333.608 36.7908C330.978 37.5642 328.349 37.4095 325.72 36.7908C324.482 36.4815 323.245 36.0175 322.008 35.3988C320.77 34.7801 319.841 33.6974 319.688 32.4601Z" fill="#75819C"/>
</g>
<path d="M282.413 114.743C280.402 99.4306 281.175 92.4705 282.413 81.1797" stroke="#75819C" stroke-width="2" stroke-miterlimit="10"/>
</svg>
