<svg width="900" height="500" viewBox="0 0 900 500" fill="none" xmlns="http://www.w3.org/2000/svg">
<path opacity="0.33" d="M350.977 429.161C356.313 422.383 372.176 398.876 377.224 391.088C382.271 383.301 393.664 356.765 398.423 350.708C403.182 344.651 408.951 337.008 406.355 319.125C403.904 301.243 401.74 295.042 403.183 269.516C404.625 243.99 400.154 238.942 394.241 226.684C393.087 219.329 391.213 217.31 388.473 215.147C388.905 210.099 391.501 190.053 393.087 179.814C394.818 169.575 391.357 172.748 393.087 150.971C394.818 129.195 388.905 113.764 385.156 109.293C384.579 104.967 380.397 100.063 372.753 98.4771C365.254 96.7465 358.332 103.669 358.332 106.697C355.88 107.563 348.093 118.234 351.986 153.134C343.478 173.469 338.142 194.38 336.988 201.446C335.69 208.513 329.921 240.384 327.614 239.086C325.307 237.788 334.536 207.359 337.276 188.467C340.016 169.575 342.901 156.451 344.631 147.51C346.362 138.569 346.506 109.293 336.7 105.688C334.392 98.3329 327.326 96.4581 320.836 96.0254C314.346 95.5928 308.866 100.784 308.722 103.813C305.838 104.823 302.809 118.811 304.107 138.28C297.617 145.203 288.82 167.123 279.014 215.291C279.014 215.291 282.186 168.421 288.243 149.241C294.445 130.06 298.915 122.561 295.31 111.889C297.041 106.842 292.281 103.092 285.792 101.073C279.302 99.0539 271.947 102.515 270.505 106.553C265.313 107.418 256.66 122.849 252.911 135.108C245.989 147.366 237.768 168.998 234.596 181.256C231.423 193.514 229.981 238.365 228.106 241.394C226.231 244.422 222.914 244.711 220.318 241.826C217.723 238.942 217.001 238.077 216.28 232.741C215.559 227.261 214.261 217.743 212.675 210.676C211.233 203.609 209.502 189.621 210.079 184.429C210.656 179.237 217.29 170.007 216.569 157.893C215.848 145.779 208.204 141.165 206.185 139.578C204.166 138.136 201.859 134.675 194.937 136.55C188.014 138.425 184.697 154.288 184.697 154.288C184.697 154.288 175.9 171.45 174.458 175.343C173.016 179.237 173.304 183.996 171.862 190.342C170.42 196.687 172.295 203.033 170.132 209.378C168.113 215.724 168.978 226.107 171.285 234.76C173.593 243.413 171.862 243.845 173.737 250.479C175.612 256.969 179.361 265.91 180.659 272.111C181.957 278.313 181.525 292.013 182.39 302.685C183.255 313.357 188.159 319.27 189.456 333.258C190.754 347.247 193.494 386.185 195.369 397.434C197.244 408.683 198.398 412.144 192.773 429.45H350.977V429.161Z" fill="#E0E1E2"/>
<path d="M350.977 429.161C356.313 422.383 372.176 398.876 377.224 391.088C382.271 383.301 393.664 356.765 398.423 350.708C403.182 344.651 408.951 337.008 406.355 319.125C403.904 301.243 401.74 295.042 403.183 269.516C404.625 243.99 400.154 238.942 394.241 226.684C393.087 219.329 391.213 217.31 388.473 215.147C388.905 210.099 391.501 190.053 393.087 179.814C394.818 169.575 391.357 172.748 393.087 150.971C394.818 129.195 388.905 113.764 385.156 109.293C384.579 104.967 380.397 100.063 372.753 98.4771C365.254 96.7465 358.332 103.669 358.332 106.697C355.88 107.563 348.093 118.234 351.986 153.134C343.478 173.469 338.142 194.38 336.988 201.446C335.69 208.513 329.921 240.384 327.614 239.086C325.307 237.788 334.536 207.359 337.276 188.467C340.016 169.575 342.901 156.451 344.631 147.51C346.362 138.569 346.506 109.293 336.7 105.688C334.392 98.3329 327.326 96.4581 320.836 96.0254C314.346 95.5928 308.866 100.784 308.722 103.813C305.838 104.823 302.809 118.811 304.107 138.28C297.617 145.203 288.82 167.123 279.014 215.291C279.014 215.291 282.186 168.421 288.243 149.241C294.445 130.06 298.915 122.561 295.31 111.889C297.041 106.842 292.281 103.092 285.792 101.073C279.302 99.0539 271.947 102.515 270.505 106.553C265.313 107.418 256.66 122.849 252.911 135.108C245.989 147.366 237.768 168.998 234.596 181.256C231.423 193.514 229.981 238.365 228.106 241.394C226.231 244.422 222.914 244.711 220.318 241.826C217.723 238.942 217.001 238.077 216.28 232.741C215.559 227.261 214.261 217.743 212.675 210.676C211.233 203.609 209.502 189.621 210.079 184.429C210.656 179.237 217.29 170.007 216.569 157.893C215.848 145.779 208.204 141.165 206.185 139.578C204.166 138.136 201.859 134.675 194.937 136.55C188.014 138.425 184.697 154.288 184.697 154.288C184.697 154.288 175.9 171.45 174.458 175.343C173.016 179.237 173.304 183.996 171.862 190.342C170.42 196.687 172.295 203.033 170.132 209.378C168.113 215.724 168.978 226.107 171.285 234.76C173.593 243.413 171.862 243.845 173.737 250.479C175.612 256.969 179.361 265.91 180.659 272.111C181.957 278.313 181.525 292.013 182.39 302.685C183.255 313.357 188.159 319.27 189.456 333.258C190.754 347.247 193.494 386.185 195.369 397.434C197.244 408.683 198.398 412.144 192.773 429.45" stroke="#75819C" stroke-width="2" stroke-miterlimit="10"/>
<path d="M220.462 241.539C217.866 238.511 217.145 237.789 216.424 232.454C215.703 226.973 214.405 217.455 212.819 210.389C211.376 203.322 209.646 189.333 210.223 184.142C210.8 178.95 217.433 169.72 216.712 157.606C215.991 145.492 208.348 140.877 206.329 139.291C204.31 137.849 202.002 134.388 195.08 136.262C188.158 138.137 184.841 154.001 184.841 154.001C184.841 154.001 176.044 171.162 174.602 175.056C173.16 178.95 173.448 183.709 172.006 190.054C170.564 196.4 172.438 202.745 170.275 209.091C168.256 215.436 169.122 225.82 171.429 234.473C173.736 243.125 172.006 243.558 173.881 250.192C175.755 256.682 179.505 265.623 180.803 271.824" stroke="#F69AED" stroke-width="3" stroke-miterlimit="10" stroke-linecap="round"/>
<g opacity="0.5">
<path d="M188.159 155.298C189.89 154.865 191.765 154.865 193.495 154.433C195.226 154 196.668 153.279 197.966 152.125C199.264 151.116 200.562 149.818 201.715 148.376C202.292 147.655 202.869 146.933 203.446 146.357C204.023 145.636 204.455 144.914 205.176 144.193C204.888 145.059 204.455 145.924 204.023 146.789C203.59 147.655 203.157 148.376 202.581 149.241C201.571 150.827 200.273 152.269 198.831 153.423C197.389 154.577 195.514 155.442 193.639 155.586C191.765 155.875 190.034 155.298 188.159 155.298Z" fill="#75819C"/>
</g>
<path d="M378.81 291.581C378.522 280.909 377.079 261.007 378.81 249.037C380.541 237.212 388.617 215.291 388.617 215.291" stroke="#75819C" stroke-width="2" stroke-miterlimit="10"/>
<path d="M271.658 238.798C274.687 232.164 278.436 222.79 279.013 215.146" stroke="#75819C" stroke-width="2" stroke-miterlimit="10"/>
<path opacity="0.33" d="M543.956 429.93C540.078 422.03 535.769 417.291 532.322 414.418C530.167 412.551 528.587 411.689 525.427 408.673C521.693 405.226 519.539 402.497 516.379 398.762C508.91 389.714 509.341 390.863 505.032 385.548C498.138 377.074 497.276 374.92 484.349 357.11C479.322 350.215 477.455 347.917 475.013 345.188C472.572 342.603 471.71 342.028 470.13 339.73C469.555 338.725 466.683 334.416 465.534 327.665C465.246 325.655 465.246 323.5 465.246 319.048C465.246 312.728 465.677 310.861 465.246 306.408C464.959 304.11 464.672 302.53 464.097 299.945C462.805 293.912 461.799 291.758 458.352 280.842C456.916 276.246 456.341 273.948 455.767 270.788C455.192 267.915 455.049 265.474 454.905 263.75C454.474 262.17 453.756 259.872 453.038 256.999C451.602 251.685 450.883 248.956 450.74 246.227C450.453 243.355 450.883 240.769 451.602 235.599C452.032 232.439 452.751 228.848 453.612 224.683C453.612 219.943 453.612 215.347 453.612 210.607C452.176 207.591 450.596 204 449.303 199.835C447.293 193.659 446.431 188.057 446 183.461C446.862 183.174 447.867 182.886 448.729 182.599C452.032 181.306 458.496 179.296 464.959 181.594C467.832 182.599 470.273 184.323 472.141 185.759C473.864 186.908 477.168 189.35 479.897 193.084C482.195 196.244 483.631 199.404 485.067 204.575C487.653 213.48 486.647 214.916 489.376 228.992C490.238 233.301 490.813 236.317 492.536 245.653C493.398 249.962 493.542 251.254 493.542 251.254C493.685 251.254 492.249 241.2 485.786 194.664C485.498 190.212 485.211 185.615 484.924 181.163C485.929 171.109 486.216 163.209 486.36 157.751C486.504 152.58 486.504 144.824 486.504 144.537C486.504 135.919 486.36 136.207 486.504 132.76C486.647 127.014 486.935 121.556 488.371 114.662C489.664 109.204 490.382 105.757 493.398 102.023C494.547 100.443 496.989 97.7138 501.01 96.1339C505.606 94.4103 509.628 95.4158 511.352 95.8466C516.81 97.1393 520.113 100.443 521.406 102.023C523.704 104.608 524.709 107.193 525.427 108.773C526.864 112.508 527.151 115.811 527.295 118.684C527.725 127.445 527.438 134.627 527.295 139.654C527.151 142.67 527.007 147.41 526.864 153.442C527.725 156.459 529.018 160.911 530.598 166.225C534.045 178.578 536.2 186.621 537.636 196.819C538.929 205.867 538.067 205.293 539.647 216.065C540.509 222.241 541.801 229.279 542.95 235.742C543.668 239.333 544.099 242.349 544.53 244.36C545.392 243.786 546.254 243.067 547.116 242.493C544.099 229.997 541.945 219.368 540.652 211.756C538.067 198.111 536.631 187.052 534.476 172.114C533.614 166.369 532.896 159.618 531.316 148.559C530.167 140.946 529.88 139.51 529.162 133.909C528.444 127.876 528.875 130.461 527.582 112.077C527.151 107.05 527.007 105.47 527.725 102.885C528.013 101.735 529.736 95.2721 535.625 91.825C538.354 90.2451 540.796 90.1014 543.381 89.8142C546.254 89.5269 551.281 88.9524 556.595 91.825C557.888 92.5432 561.909 94.6976 564.495 99.1501C565.644 101.161 565.931 102.885 566.649 105.757C567.655 109.922 567.224 111.933 568.516 116.529C568.947 118.253 569.378 119.546 569.665 120.551C569.378 118.109 569.235 114.231 570.24 109.922C571.245 105.613 572.538 100.012 577.278 96.8521C581.156 94.2667 585.321 94.554 586.757 94.6976C593.077 95.1285 597.242 98.8629 600.115 101.448C606.147 107.624 612.467 119.546 613.473 121.844C613.76 118.684 613.903 116.242 614.478 114.375C615.196 112.364 615.771 110.353 617.494 108.055C618.356 106.906 619.505 105.183 621.803 103.89C622.521 103.459 626.112 101.448 630.565 102.31C633.437 102.885 635.161 104.177 636.884 105.613C640.331 108.199 642.055 111.071 643.779 113.8C645.215 116.242 645.933 117.822 647.8 121.844C651.965 131.18 652.253 131.611 653.258 133.909C656.849 142.383 659.147 151.862 661.158 159.475C664.461 172.258 666.185 181.019 666.185 181.019C667.19 188.488 667.621 196.819 668.483 213.767C669.057 225.545 669.057 229.279 670.206 236.748C672.074 248.094 673.797 248.956 675.377 259.872C676.239 265.617 676.095 267.485 676.813 284.002C677.388 297.647 677.675 298.365 678.106 306.983C678.824 322.064 678.681 327.665 679.255 364.722C679.542 384.543 679.686 390.001 681.41 398.188C684.139 411.258 689.022 422.174 689.884 423.898C691.033 426.339 692.038 428.35 692.756 429.786C643.204 429.93 593.508 429.93 543.956 429.93Z" fill="#E0E1E2"/>
<path d="M543.956 429.931C540.078 422.031 535.769 417.291 532.322 414.419C530.167 412.551 528.587 411.69 525.427 408.673C521.693 405.226 519.539 402.497 516.379 398.763C508.91 389.714 509.341 390.863 505.032 385.549C498.138 377.075 497.276 374.92 484.349 357.11C479.322 350.216 477.455 347.918 475.013 345.189C472.572 342.604 471.71 342.029 470.13 339.731C469.555 338.726 466.683 334.417 465.534 327.666C465.246 325.655 465.246 323.501 465.246 319.048C465.246 312.729 465.677 310.861 465.246 306.409C464.959 304.111 464.672 302.531 464.097 299.945C462.805 293.913 461.799 291.759 458.352 280.843C456.916 276.247 456.341 273.948 455.767 270.789C455.192 267.916 455.049 265.474 454.905 263.751C454.474 262.171 453.756 259.873 453.038 257C451.602 251.686 450.883 248.957 450.74 246.228C450.453 243.355 450.883 240.77 451.602 235.599C452.032 232.439 452.751 228.849 453.612 224.683C453.612 219.944 453.612 215.347 453.612 210.608C452.176 207.591 450.596 204.001 449.303 199.835C447.293 193.659 446.431 188.058 446 183.462C446.862 183.174 447.867 182.887 448.729 182.6C452.032 181.307 458.496 179.296 464.959 181.594C467.832 182.6 470.273 184.323 472.141 185.76C473.864 186.909 477.168 189.35 479.897 193.085C482.195 196.245 483.631 199.404 485.067 204.575C487.653 213.48 486.647 214.916 489.376 228.992C490.238 233.301 490.813 236.317 492.536 245.653C493.398 249.962 493.542 251.255 493.542 251.255C493.685 251.255 492.249 241.201 485.786 194.665C485.498 190.212 485.211 185.616 484.924 181.163C485.929 171.109 486.216 163.21 486.36 157.752C486.504 152.581 486.504 144.825 486.504 144.538C486.504 135.92 486.36 136.207 486.504 132.76C486.647 127.015 486.935 121.557 488.371 114.663C489.664 109.205 490.382 105.758 493.398 102.023C494.547 100.443 496.989 97.7144 501.01 96.1345C505.606 94.4109 509.628 95.4163 511.352 95.8472C516.81 97.1399 520.113 100.443 521.406 102.023C523.704 104.609 524.709 107.194 525.427 108.774C526.864 112.508 527.151 115.812 527.295 118.684C527.725 127.446 527.438 134.627 527.295 139.654C527.151 142.671 527.007 147.41 526.864 153.443C527.725 156.459 529.018 160.912 530.598 166.226C534.045 178.578 536.2 186.621 537.636 196.819C538.929 205.868 538.067 205.293 539.647 216.066C540.509 222.242 541.801 229.279 542.95 235.743C543.668 239.334 544.099 242.35 544.53 244.361C545.105 243.93 545.679 243.499 546.254 243.068" stroke="#75819C" stroke-width="2" stroke-miterlimit="10"/>
<path d="M569.809 120.838C569.522 118.397 569.378 114.519 570.384 110.21C571.389 105.901 572.682 100.299 577.422 97.1393C581.3 94.554 585.465 94.8412 586.901 94.9849C593.221 95.4158 597.386 99.1501 600.259 101.735C606.291 107.912 612.611 119.833 613.616 122.131C613.904 118.971 614.047 116.529 614.622 114.662C615.34 112.651 615.914 110.641 617.638 108.342C618.5 107.193 619.649 105.47 621.947 104.177C622.665 103.746 626.256 101.735 630.708 102.597C633.581 103.172 635.305 104.464 637.028 105.901C640.475 108.486 642.199 111.359 643.922 114.088C645.359 116.529 646.077 118.109 647.944 122.131C652.109 131.467 652.396 131.898 653.402 134.196C656.993 142.67 659.291 152.15 661.302 159.762C664.605 172.545 666.329 181.307 666.329 181.307C667.334 188.775 667.765 197.106 668.627 214.054C669.201 225.832 669.201 229.566 670.35 237.035C672.217 248.382 673.941 249.244 675.521 260.159C676.383 265.905 676.239 267.772 676.957 284.289C677.532 297.934 677.819 298.652 678.25 307.27C678.968 322.351 678.824 327.953 679.399 365.009C679.686 384.83 679.83 390.288 681.553 398.475C684.282 411.545 689.166 422.461 690.028 424.185C691.177 426.627 692.182 428.637 692.9 430.074" stroke="#75819C" stroke-width="2" stroke-miterlimit="10"/>
<path d="M636.309 224.109C636.596 213.193 635.447 200.697 635.016 194.09C634.155 181.307 632.862 174.557 630.133 163.784C628.266 156.603 626.255 151.432 623.239 143.676C619.504 134.197 615.77 126.297 613.041 120.695" stroke="#75819C" stroke-width="2" stroke-miterlimit="10"/>
<path d="M491.531 330.681C491.819 326.947 492.249 322.782 493.255 318.185C494.26 313.733 495.409 309.855 496.558 306.551C495.984 301.524 495.553 296.354 495.122 291.039C494.117 278.256 493.542 263.031 493.542 251.541" stroke="#75819C" stroke-width="2" stroke-miterlimit="10"/>
<path d="M546.541 243.498C546.828 243.211 547.115 243.067 547.403 242.78C544.386 230.284 542.232 219.656 540.939 212.043C538.354 198.398 536.918 187.339 534.763 172.401C533.901 166.656 533.183 159.905 531.603 148.846C530.454 141.234 530.167 139.797 529.449 134.196C528.731 128.163 529.162 130.749 527.869 112.364C527.438 107.337 527.294 105.757 528.012 103.172C528.3 102.023 530.023 95.5592 535.912 92.1121C538.641 90.5322 541.083 90.3885 543.668 90.1013C546.541 89.814 551.568 89.2395 556.882 92.1121C558.175 92.8302 562.196 94.9847 564.782 99.4372C565.931 101.448 566.218 103.172 566.936 106.044C567.942 110.209 567.511 112.22 568.803 116.816C569.234 118.54 569.665 119.833 569.952 120.838C574.405 130.605 579.432 137.499 580.868 144.25C583.741 157.607 586.039 167.231 588.768 178.146C589.917 182.599 589.63 219.368 597.817 231.002" stroke="#F69AED" stroke-width="3" stroke-miterlimit="10" stroke-linecap="round"/>
<g opacity="0.5">
<path d="M535.05 98.0011C534.332 99.1501 534.045 100.443 533.757 101.592C533.757 101.879 533.757 102.166 533.757 102.454C533.757 102.597 533.757 102.741 533.757 102.741C533.901 102.884 533.614 102.741 533.757 102.741C534.332 102.741 535.05 102.454 535.625 102.31C538.21 101.735 540.795 101.161 543.381 100.874C545.966 100.586 548.695 100.443 551.28 100.443C554.009 100.443 556.595 100.73 559.18 101.017L558.893 101.161C558.749 101.448 558.893 101.305 558.749 101.161C558.749 101.017 558.749 100.874 558.605 100.874C558.605 100.586 558.462 100.443 558.318 100.156C558.175 99.7246 557.887 99.1501 557.744 98.7192C557.313 97.7138 556.738 96.852 556.02 95.9902C556.882 96.7084 557.6 97.5702 558.175 98.4319C558.462 98.8628 558.749 99.2937 559.036 99.8682C559.18 100.156 559.324 100.443 559.324 100.586C559.324 100.73 559.467 100.874 559.467 101.017C559.467 101.161 559.611 101.305 559.324 101.735L559.18 101.879H558.893C556.307 101.735 553.578 101.735 550.993 101.879C548.408 101.879 545.822 102.166 543.237 102.31C540.652 102.597 538.066 102.884 535.481 103.315C534.763 103.459 534.188 103.603 533.47 103.603H533.327C533.327 103.603 533.183 103.603 533.039 103.459C532.896 103.315 532.752 103.172 532.752 103.028C532.608 102.741 532.608 102.597 532.608 102.454C532.608 102.023 532.752 101.735 532.752 101.448C533.614 100.299 534.188 98.8628 535.05 98.0011Z" fill="#75819C"/>
</g>
<g opacity="0.5">
<path d="M457.204 210.464C458.065 209.602 459.071 208.74 459.645 207.735C460.22 206.729 460.364 205.436 460.364 204.287C460.22 201.846 459.933 199.404 459.502 196.962C459.071 194.521 458.353 192.223 457.491 189.924C456.629 187.77 454.762 186.046 452.464 185.041C454.906 185.472 457.347 186.908 458.64 189.35C459.789 191.648 460.507 194.09 460.938 196.531C461.369 198.973 461.656 201.558 461.513 204.144C461.369 205.436 461.082 206.729 460.22 207.878C459.214 209.171 458.209 209.889 457.204 210.464Z" fill="#75819C"/>
</g>
</svg>
