<svg width="850" height="500" viewBox="0 0 850 500" fill="none" xmlns="http://www.w3.org/2000/svg">
<path opacity="0.33" d="M584.042 422.049C581.355 418.796 574.707 409.319 555.895 394.185C547.975 387.82 543.731 386.123 539.771 384.143C534.679 381.597 530.436 380.465 525.202 378.344C499.884 368.443 502.713 367.452 482.77 359.815C479.092 358.4 474.425 356.703 468.909 352.743C462.261 348.075 459.008 344.115 458.018 342.7C455.613 339.447 454.34 336.618 452.926 333.506C450.946 329.263 450.521 327 447.975 319.079C446.278 314.129 445.429 311.583 444.864 310.169C442.318 304.087 440.337 301.116 437.792 296.449C435.811 292.771 433.265 287.255 431.002 279.9C430.012 278.486 428.739 276.506 427.608 273.96C426.618 271.838 425.062 268.726 424.213 264.342C423.789 262.078 423.789 260.805 423.647 255.289C423.506 239.589 423.506 234.639 423.93 227.708C423.93 227.284 423.93 226.859 423.93 226.718C422.516 224.455 421.101 222.05 419.828 219.222C416.292 211.725 414.312 204.795 413.181 198.995C414.454 197.722 416.434 196.025 419.404 194.611C424.92 192.065 430.295 192.772 432.982 193.338C434.538 193.762 437.509 194.469 442.318 197.864C444.298 199.278 452.219 204.936 459.008 216.11C462.827 222.192 464.383 226.859 466.646 233.649C467.636 236.478 468.484 239.731 468.201 243.974C468.06 246.237 467.494 247.934 467.07 249.207C466.929 249.349 466.928 249.632 466.787 249.773C468.06 250.763 469.333 252.036 470.606 253.451C473.01 256.138 473.435 257.411 476.405 261.937C479.941 267.312 480.648 267.453 482.204 270.706C483.477 273.394 484.184 275.798 484.609 277.354C485.316 277.637 486.447 278.061 487.438 279.051C488.569 280.042 489.135 281.032 489.559 281.739C490.125 278.627 490.408 274.525 490.125 269.716C489.842 265.756 488.993 263.776 487.579 256.987C487.155 255.289 486.589 252.036 485.316 245.388C480.79 221.343 481.073 221.909 479.658 215.544C478.244 209.321 476.547 201.259 473.152 191.075C470.323 182.305 468.909 177.921 466.646 167.595C464.524 157.694 467.353 145.389 467.919 143.55C468.343 141.994 468.909 140.721 469.333 139.731C468.767 133.508 469.333 128.275 469.899 124.597C470.606 120.495 471.313 115.969 474.142 110.736C475.556 108.048 477.112 105.927 478.244 104.512C478.527 103.522 479.092 102.249 479.8 100.976C482.629 96.5917 487.013 95.0358 488.286 94.6115C489.276 94.3286 496.49 91.9241 502.572 96.1674C503.986 97.1574 504.835 98.1475 505.542 98.8547C506.391 99.1376 507.664 99.8448 508.795 100.976C509.361 101.542 509.927 102.249 510.21 102.674C510.775 101.259 511.624 99.8448 512.756 98.4304C513.038 98.1475 513.18 97.8647 513.463 97.5818C514.17 95.8845 515.443 93.0556 518.272 90.6511C525.344 84.1448 534.82 85.8421 535.386 85.9836C539.205 86.6908 542.034 88.5295 543.873 89.9439C544.58 90.0854 545.287 90.5097 546.136 90.934C546.56 91.2169 546.984 91.4998 547.409 91.6412C547.692 90.6511 548.116 89.2367 549.248 87.6809C549.248 87.6809 551.086 84.9935 554.622 83.1547C559.714 80.6088 569.049 80.6088 578.102 83.8619C587.72 87.2565 593.519 93.0556 595.923 95.6016C599.318 98.9962 601.581 102.391 602.995 104.937C603.985 105.927 604.976 106.917 605.966 108.19C609.219 112.15 610.775 115.969 612.189 119.788C616.715 132.376 618.13 140.721 618.13 140.721C619.544 148.925 621.241 160.099 621.949 173.96C622.514 173.112 623.504 171.697 624.353 169.717C626.192 165.474 626.192 163.776 626.333 162.221C627.182 152.32 628.738 144.54 629.586 133.791C629.728 128.699 629.869 107.483 629.021 102.249C628.455 99.1376 628.313 99.9863 626.899 93.3385C625.202 85.8421 624.919 82.0232 624.636 79.4772C624.495 76.6484 624.353 74.8097 624.636 72.2637C624.919 70.2835 625.343 66.8889 627.323 63.3529C628.313 61.6556 631.425 56.1394 637.79 54.5835C638.922 54.3006 642.599 53.452 646.277 55.2907C647.691 55.9979 649.247 57.1294 651.793 60.9484C655.187 65.8988 656.885 70.425 657.592 72.4051C659.006 76.507 660.986 81.8818 661.977 89.2367C663.108 97.016 664.098 113.989 664.664 117.101C666.078 125.163 667.21 127.85 668.2 134.357C668.341 135.347 669.756 152.744 668.341 167.454C667.634 175.092 667.351 174.526 666.786 181.174C666.22 187.822 665.795 192.631 666.22 198.43C666.644 205.077 667.634 207.058 668.766 213.988C669.614 219.222 670.463 226.859 670.039 236.336C670.746 238.316 671.736 241.145 672.726 244.54C675.131 252.46 677.111 258.542 678.242 266.322C679.232 272.404 678.667 272.687 680.223 285.133C680.647 288.387 681.071 291.074 681.213 292.771C682.768 303.804 684.607 312.997 685.88 318.797C686.587 322.05 687.719 327.283 689.416 333.648C690.972 339.588 692.952 347.509 695.781 355.713C699.6 367.17 703.702 375.232 707.804 383.577C710.208 388.386 716.007 399.56 724.777 413.138C727.181 416.957 729.444 420.069 731 422.332C681.495 422.049 632.84 422.049 584.042 422.049Z" fill="#E0E1E2"/>
<path d="M529.163 205.786C528.739 201.826 528.032 195.885 526.476 188.813C525.203 182.731 524.354 181.175 520.252 167.738C515.443 151.897 513.039 142.986 512.332 140.44C511.766 138.036 510.351 134.358 509.503 129.125C509.361 127.993 508.937 125.164 508.937 118.092C508.937 114.273 509.078 109.04 509.503 102.958" stroke="#808285" stroke-width="2" stroke-miterlimit="10"/>
<path d="M575.556 173.819C575.131 171.273 573.293 156.281 570.747 143.551C570.747 143.551 568.059 134.64 565.655 127.992C563.109 121.203 564.382 125.022 559.431 115.404C556.461 109.463 552.359 105.362 551.369 104.372C550.096 100.128 548.823 96.0265 547.55 91.7832C547.409 91.7832 547.267 91.9247 546.984 91.9247C548.399 96.1679 549.955 100.128 551.369 104.23C551.652 104.513 560.704 120.637 562.26 125.729C562.401 126.295 563.533 130.114 565.655 137.752C568.059 146.097 568.766 148.784 570.039 153.593C571.312 157.554 573.575 167.172 575.556 173.819Z" stroke="#808285" stroke-width="2" stroke-miterlimit="10"/>
<g opacity="0.5">
<path d="M427.042 224.173C427.749 223.183 428.315 221.91 428.457 220.779C428.598 219.647 428.457 218.374 428.315 217.243C427.891 214.838 427.325 212.434 426.476 210.17C426.052 209.039 425.628 207.907 425.062 206.776C424.638 205.644 424.072 204.371 423.648 203.381C422.658 201.26 420.253 200.128 417.707 199.987C418.98 199.845 420.253 199.987 421.526 200.411C422.799 200.835 423.93 201.684 424.638 202.957C425.911 205.22 426.901 207.483 427.891 209.888C428.739 212.292 429.305 214.838 429.588 217.384C429.73 218.657 429.73 219.93 429.305 221.203C428.598 222.334 427.891 223.325 427.042 224.173Z" fill="#AEB0B2"/>
</g>
<path d="M584.042 422.051C581.355 418.797 574.707 409.321 555.895 394.187C547.975 387.822 543.731 386.124 539.771 384.144C534.679 381.598 530.436 380.467 525.202 378.345C499.884 368.444 502.713 367.454 482.77 359.816C479.092 358.402 474.425 356.704 468.909 352.744C462.261 348.077 459.008 344.116 458.018 342.702C455.613 339.449 454.34 336.62 452.926 333.508C450.946 329.265 450.521 327.002 447.975 319.081C446.278 314.131 445.429 311.585 444.864 310.17C442.318 304.088 440.337 301.118 437.792 296.45C435.811 292.773 433.265 287.257 431.002 279.902C430.012 278.487 428.739 276.507 427.608 273.961C426.618 271.84 425.062 268.728 424.213 264.343C423.789 262.08 423.789 260.807 423.647 255.291C423.506 239.591 423.506 234.64 423.93 227.71C423.93 227.285 423.93 226.861 423.93 226.72C422.516 224.457 421.101 222.052 419.828 219.223C416.292 211.727 414.312 204.796 413.181 198.997C414.454 197.724 416.434 196.027 419.404 194.612C424.92 192.066 430.295 192.774 432.982 193.339C434.538 193.764 437.509 194.471 442.318 197.865C444.298 199.28 452.219 204.938 459.008 216.111C462.827 222.193 464.383 226.861 466.646 233.65C467.636 236.479 468.484 239.732 468.201 243.975C468.06 246.239 467.494 247.936 467.07 249.209C466.929 249.35 466.928 249.633 466.787 249.775C468.06 250.765 469.333 252.038 470.606 253.452C473.01 256.139 473.435 257.412 476.405 261.939C479.941 267.313 480.648 267.455 482.204 270.708C483.477 273.395 484.184 275.8 484.609 277.356C485.316 277.639 486.447 278.063 487.438 279.053C488.569 280.043 489.135 281.033 489.559 281.74C490.125 278.629 490.408 274.527 490.125 269.718C489.842 265.758 488.993 263.777 487.579 256.988C487.155 255.291 486.589 252.038 485.316 245.39C480.79 221.345 481.073 221.911 479.658 215.546C478.244 209.322 476.547 201.26 473.152 191.076C470.323 182.307 468.909 177.922 466.646 167.597C464.524 157.696 467.353 145.391 467.919 143.552C468.343 141.996 468.909 140.723 469.333 139.733C468.767 133.51 469.333 128.276 469.899 124.599C470.606 120.497 471.313 115.971 474.142 110.737C475.556 108.05 477.112 105.928 478.244 104.514C478.527 103.524 479.092 102.251 479.8 100.978C482.629 96.5933 487.013 95.0374 488.286 94.6131C489.276 94.3302 496.49 91.9257 502.572 96.1689C503.986 97.159 504.835 98.1491 505.542 98.8563C506.391 99.1392 507.664 99.8464 508.795 100.978C509.361 101.544 509.927 102.251 510.21 102.675C510.775 101.261 511.624 99.8464 512.756 98.432C513.038 98.1491 513.18 97.8662 513.463 97.5834C514.17 95.8861 515.443 93.0572 518.272 90.6527C525.344 84.1464 534.82 85.8437 535.386 85.9851C539.205 86.6924 542.034 88.5311 543.873 89.9455C544.58 90.087 545.287 90.5113 546.136 90.9356C546.56 91.2185 546.984 91.5014 547.409 91.6428C547.692 90.6527 548.116 89.2383 549.248 87.6824C549.248 87.6824 551.086 84.9951 554.622 83.1563C559.714 80.6104 569.049 80.6104 578.102 83.8635C587.72 87.2581 593.519 93.0572 595.923 95.6032C599.318 98.9978 601.581 102.392 602.995 104.938C603.985 105.928 604.976 106.919 605.966 108.191C609.219 112.152 610.775 115.971 612.189 119.79C616.715 132.378 618.13 140.723 618.13 140.723C619.544 148.927 621.241 160.101 621.949 173.962" stroke="#808285" stroke-width="2" stroke-miterlimit="10"/>
<path d="M665.513 196.874C665.513 197.44 665.513 197.44 665.513 198.006C665.937 204.653 666.927 206.634 668.059 213.564C668.907 218.797 669.756 226.435 669.332 235.912C670.039 237.892 671.029 240.721 672.019 244.116C674.424 252.036 676.404 258.118 677.535 265.898C678.525 271.98 677.96 272.262 679.515 284.709C679.94 287.962 680.364 290.65 680.506 292.347C682.061 303.38 683.9 312.573 685.173 318.372C685.88 321.626 687.012 326.859 688.709 333.224C690.265 339.164 692.245 347.085 695.074 355.289C698.893 366.746 702.995 374.808 707.097 383.153C709.501 387.962 715.3 399.136 724.07 412.714C726.474 416.533 728.737 419.645 730.293 421.908" stroke="#808285" stroke-width="2" stroke-miterlimit="10"/>
<path d="M622.514 171.839C624.353 167.596 625.484 163.777 625.626 162.08C626.475 152.179 628.03 144.4 628.879 133.65C629.02 128.558 629.162 107.342 628.313 102.109C627.748 98.997 627.606 99.8456 626.192 93.1979C624.494 85.7015 624.211 81.8826 623.929 79.3366C623.787 76.5078 623.646 74.669 623.929 72.1231C624.211 70.1429 624.636 66.7483 626.616 63.2123C627.606 61.515 630.718 55.9987 637.083 54.4429C638.214 54.16 641.892 53.3113 645.569 55.1501C646.984 55.8573 648.539 56.9888 651.085 60.8078C654.48 65.7582 656.177 70.2844 656.884 72.2645C658.299 76.3663 660.279 81.7411 661.269 89.0961C662.401 96.8754 663.391 113.848 663.957 116.96C665.371 125.022 666.503 127.71 667.493 134.216C667.634 135.206 669.048 152.603 667.634 167.313C666.927 174.951 666.644 174.385 666.078 181.033C665.654 186.832 665.23 191.358 665.371 196.309" stroke="#2969D0" stroke-width="3" stroke-miterlimit="10" stroke-linecap="round"/>
<g opacity="0.5">
<path d="M632.981 60.5254C633.547 62.9299 634.112 65.3344 635.103 67.456C635.385 68.0218 635.668 68.4461 635.951 69.0119C636.234 69.5777 636.517 70.1434 636.8 70.4263C637.507 71.1335 638.497 71.6993 639.629 72.1236C641.892 72.9723 644.296 73.3966 646.559 73.6795C647.691 73.8209 648.964 73.8209 650.237 73.8209C651.368 73.8209 652.783 73.6795 653.349 72.8308C653.349 72.6894 653.349 72.4065 653.349 72.2651C653.349 71.9822 653.207 71.8407 653.207 71.5578C653.066 71.1335 652.924 70.7092 652.783 70.2849C653.066 70.7092 653.207 71.1335 653.349 71.5578C653.49 71.8407 653.49 71.9822 653.631 72.2651C653.631 72.5479 653.773 72.6894 653.773 72.9723C653.49 73.6795 652.783 73.9623 652.217 74.2452C651.51 74.5281 650.944 74.5281 650.378 74.6696C649.105 74.811 647.832 74.811 646.559 74.811C644.013 74.6695 641.609 74.2452 639.204 73.2551C638.073 72.6894 636.8 72.265 635.81 71.1335C635.385 70.5677 635.103 70.002 634.82 69.4362C634.537 68.8705 634.254 68.3047 634.112 67.7389C633.122 65.4758 632.981 62.9299 632.981 60.5254Z" fill="#AEB0B2"/>
</g>
<path opacity="0.33" d="M313.464 425.161C315.303 422.898 323.224 414.695 331.852 406.067C340.48 397.439 358.16 367.029 363.393 360.947C368.626 354.865 382.488 339.872 385.882 332.375C389.277 324.879 385.599 300.834 385.882 293.338C386.165 285.841 389.701 250.056 387.297 240.721C384.892 231.386 381.073 227.567 377.962 221.061C374.85 214.555 374.284 212.574 371.455 210.594C368.626 208.614 370.324 191.641 370.89 189.237C371.455 186.832 373.435 175.941 373.435 172.122C373.435 168.303 373.435 157.412 376.406 149.35C379.376 141.288 377.396 117.101 372.304 109.463C367.212 101.826 363.11 99.9868 357.028 99.5625C350.946 99.1382 344.299 105.079 342.601 108.756C340.904 112.434 338.641 115.828 336.095 145.814C332.559 153.876 325.77 160.948 322.799 170.708C319.829 180.467 311.908 205.078 310.07 215.262C308.231 225.446 297.764 239.307 302.007 231.81C306.251 224.455 305.826 206.351 313.747 182.306C321.668 158.261 320.678 159.817 320.678 158.544C320.678 157.271 325.345 152.886 326.901 142.419C329.871 137.61 335.671 113.707 324.921 106.776C324.78 101.826 321.526 98.431 312.616 97.0165C303.705 95.6021 300.452 97.8652 298.471 103.381C295.218 104.23 290.268 116.253 289.419 126.154C287.015 127.568 275.416 139.308 273.153 143.692C270.89 148.077 264.525 170.142 263.252 175.8C261.979 181.457 253.776 216.818 251.513 220.071C249.25 223.324 248.26 225.587 250.098 218.656C251.937 211.726 260.424 170 264.101 162.504C267.779 155.008 268.203 148.784 278.387 134.216C288.57 119.647 287.156 112.575 285.317 107.908C283.479 103.24 282.064 99.2796 273.436 97.8652C264.808 96.4508 259.858 103.664 259.858 103.664C259.858 103.664 254.624 105.22 242.036 118.799C239.349 113.565 235.671 109.605 235.671 109.605C235.671 109.605 232.984 103.947 225.346 102.816C217.708 101.684 214.596 109.888 214.172 112.858C211.626 112.858 206.393 124.598 204.554 136.337C202.715 148.218 199.745 165.191 196.633 175.234C193.522 185.276 191.541 193.621 190.834 200.976C190.127 208.331 186.167 218.656 185.46 228.274C184.752 237.892 173.578 265.474 173.013 274.243C172.305 283.012 172.73 312.998 171.881 319.929C171.032 326.859 169.759 350.197 171.881 363.634C174.003 376.93 173.013 389.235 170.75 395.883C168.486 402.531 160 424.595 160 424.595H313.464V425.161Z" fill="#E0E1E2"/>
<path d="M313.464 425.161C315.303 422.898 323.224 414.695 331.852 406.067C340.48 397.439 358.16 367.029 363.393 360.947C368.626 354.865 382.488 339.872 385.882 332.375C389.277 324.879 385.599 300.834 385.882 293.338C386.165 285.841 389.701 250.056 387.297 240.721C384.892 231.386 381.073 227.567 377.962 221.061C374.85 214.555 374.284 212.574 371.455 210.594C368.626 208.614 370.324 191.641 370.89 189.237C371.455 186.832 373.435 175.941 373.435 172.122C373.435 168.303 373.435 157.412 376.406 149.35C379.376 141.288 377.396 117.101 372.304 109.463C367.212 101.826 363.11 99.9868 357.028 99.5625C350.946 99.1382 344.299 105.079 342.601 108.756C340.904 112.434 338.641 115.828 336.095 145.814C332.559 153.876 325.77 160.948 322.799 170.708C319.829 180.467 311.908 205.078 310.07 215.262C308.231 225.446 297.764 239.307 302.007 231.81C306.251 224.455 305.826 206.351 313.747 182.306C321.668 158.261 320.678 159.817 320.678 158.544C320.678 157.271 325.345 152.886 326.901 142.419C329.871 137.61 335.671 113.707 324.921 106.776C324.78 101.826 321.526 98.431 312.616 97.0165C303.705 95.6021 300.452 97.8652 298.471 103.381C295.218 104.23 290.268 116.253 289.419 126.154C287.015 127.568 275.416 139.308 273.153 143.692C270.89 148.077 264.525 170.142 263.252 175.8C261.979 181.457 253.776 216.818 251.513 220.071C249.25 223.324 248.26 225.587 250.098 218.656C251.937 211.726 260.424 170 264.101 162.504C267.779 155.008 268.203 148.784 278.387 134.216C288.57 119.647 287.156 112.575 285.317 107.908C283.479 103.24 282.064 99.2796 273.436 97.8652C264.808 96.4508 259.858 103.664 259.858 103.664C259.858 103.664 254.624 105.22 242.036 118.799C239.349 113.565 235.671 109.605 235.671 109.605C235.671 109.605 232.984 103.947 225.346 102.816C217.708 101.684 214.596 109.888 214.172 112.858C211.626 112.858 206.393 124.598 204.554 136.337C202.715 148.218 199.745 165.191 196.633 175.234C193.522 185.276 191.541 193.621 190.834 200.976C190.127 208.331 186.167 218.656 185.46 228.274C184.752 237.892 173.578 265.474 173.013 274.243C172.305 283.012 172.73 312.998 171.881 319.929C171.032 326.859 169.759 350.197 171.881 363.634C174.003 376.93 173.013 389.235 170.75 395.883C168.486 402.531 160 424.595 160 424.595" stroke="#808285" stroke-width="2" stroke-miterlimit="10"/>
<path d="M201.018 224.597C204.978 220.354 208.232 213.847 208.514 207.058C208.797 200.269 208.09 165.05 217.001 151.613C225.912 138.176 242.178 119.364 242.178 119.364" stroke="#808285" stroke-width="2" stroke-miterlimit="10"/>
<path d="M359.009 307.058C357.028 303.38 354.624 300.976 354.624 298.147C354.624 295.318 356.18 262.928 357.877 251.33C359.433 239.732 367.354 206.21 370.041 199.279" stroke="#808285" stroke-width="2" stroke-miterlimit="10"/>
</svg>
