<svg width="850" height="500" viewBox="0 0 850 500" fill="none" xmlns="http://www.w3.org/2000/svg">
<path opacity="0.33" d="M531.315 440.065C529.108 436.387 526.166 432.268 522.488 428.001C519.104 424.176 515.72 420.939 512.777 418.438C512.777 418.438 506.157 412.112 498.948 404.02C493.799 398.282 490.415 393.427 483.647 383.864C470.406 365.179 471.877 364.738 466.433 359.736C464.374 357.823 460.401 354.439 456.576 348.848C453.339 344.141 452.162 340.61 451.721 338.256C451.574 337.373 451.28 336.049 451.133 330.311C450.985 322.219 451.28 320.306 451.133 316.187C450.985 311.479 450.103 308.242 448.631 302.504C446.277 293.089 444.512 290.882 442.599 282.496C441.569 277.641 441.128 273.521 440.834 271.02C440.245 270.137 439.363 269.107 438.774 267.636C437.597 264.694 437.744 262.193 437.891 260.721C437.156 259.397 436.273 257.337 435.685 254.836C434.802 250.864 435.39 248.216 436.862 240.565C439.068 229.09 439.51 226.589 439.51 222.91C439.51 219.379 439.068 216.584 438.627 214.819C437.156 211.876 435.685 208.492 434.508 204.667C432.595 198.635 431.712 193.191 431.418 188.778C432.154 188.483 432.889 188.189 433.625 187.895C434.655 186.865 437.597 185.541 440.245 184.805C444.953 183.481 448.779 184.805 452.457 186.571C453.487 187.012 457.9 189.955 462.902 195.693C464.374 197.311 467.905 201.872 470.112 208.492C471.73 213.2 472.024 217.467 472.318 219.821C472.613 223.352 472.318 224.087 472.76 227.324C473.201 232.032 474.378 235.269 475.114 237.77C478.056 247.921 478.203 256.16 478.35 256.16C478.498 256.16 476.879 242.772 471.289 197.458C471.289 192.456 471.289 184.658 471.436 175.095C471.73 163.914 472.024 163.914 472.318 152.585C472.613 142.434 472.466 136.843 473.348 126.839C473.937 119.924 474.525 115.657 476.732 110.802C478.498 107.124 480.557 102.857 485.265 100.209C490.856 97.2666 497.477 97.8551 502.185 100.503C506.157 102.71 508.364 105.8 509.541 107.712C512.483 112.126 513.072 116.54 513.66 120.954C514.249 125.073 514.102 128.015 513.807 134.195C513.513 142.728 512.63 147.142 512.63 157.587C512.63 158.176 512.63 158.617 512.63 158.912C513.219 160.677 514.102 163.325 514.984 166.268C516.014 169.652 516.897 173.183 518.221 178.479C520.134 186.277 521.164 190.102 521.899 193.78C523.37 200.989 523.223 203.343 524.842 216.29C525.724 223.352 526.166 226.883 526.754 230.119C528.225 239.094 530.138 246.45 531.609 251.452C532.786 250.57 534.11 249.687 535.287 248.951C532.786 236.152 530.579 222.91 528.373 209.522C526.019 195.251 524.547 184.805 523.223 175.242C516.014 125.073 519.398 135.813 517.338 125.662C517.338 125.367 516.161 119.335 516.603 111.39C517.044 104.476 518.368 102.122 518.957 101.092C522.193 95.7954 527.931 94.0299 529.255 93.7356C530.138 93.4414 537.789 91.3816 544.703 95.7954C548.381 98.1493 550.147 101.092 551.912 104.329C553.825 107.565 556.62 113.744 557.062 122.719C556.915 110.066 561.77 99.7677 569.273 96.9723C570.891 96.3839 573.834 95.6482 577.218 96.2367C582.808 96.9723 586.339 100.503 589.576 103.593C593.254 107.271 595.314 110.802 597.815 115.216C599.728 118.6 601.052 121.542 602.082 123.602C602.229 121.101 602.964 116.834 605.76 112.567C607.378 110.214 609.291 107.271 613.41 105.8C613.704 105.653 619.001 103.887 624.15 106.535C624.739 106.83 626.21 107.712 628.711 110.361C630.771 112.567 633.272 115.804 637.244 123.896C638.863 126.986 640.187 129.781 641.805 133.9C644.159 139.933 645.189 144.052 646.513 149.496C651.662 169.21 653.869 171.858 656.076 184.952C656.665 188.631 657.106 191.72 657.253 193.927C657.842 199.076 658.724 206.58 658.872 215.848C659.019 220.851 658.872 233.209 659.46 238.653C659.607 240.271 659.901 241.889 659.901 241.889C660.343 244.832 661.078 247.039 661.226 247.774C661.814 249.834 662.55 253.218 664.021 259.839C664.756 263.222 665.933 268.519 666.522 274.551C667.258 281.613 666.375 281.319 666.816 292.941C666.963 297.061 667.258 300.592 667.846 307.948C668.287 313.98 668.435 315.157 668.729 319.129C669.317 327.368 669.464 333.695 669.612 338.108C669.759 346.347 669.759 352.674 669.464 365.326C669.317 377.538 669.023 380.186 669.317 386.954C669.612 394.604 670.347 399.901 670.789 402.843C671.524 408.434 672.113 412.112 673.584 417.114C675.349 422.999 677.409 428.001 680.499 435.063C681.529 437.27 682.411 439.183 683 440.507C632.389 440.36 581.779 440.212 531.315 440.065Z" fill="#E0E1E2"/>
<path d="M531.315 440.065C529.108 436.387 526.166 432.268 522.488 428.001C519.104 424.176 515.72 420.939 512.777 418.438C512.777 418.438 506.157 412.112 498.948 404.02C493.799 398.282 490.415 393.427 483.647 383.864C470.406 365.179 471.877 364.738 466.433 359.736C464.374 357.823 460.401 354.439 456.576 348.849C453.339 344.141 452.162 340.61 451.721 338.256C451.574 337.373 451.28 336.049 451.133 330.311C450.985 322.219 451.28 320.306 451.133 316.187C450.985 311.479 450.103 308.242 448.631 302.504C446.277 293.089 444.512 290.882 442.599 282.496C441.569 277.641 441.128 273.521 440.834 271.02C440.245 270.137 439.363 269.107 438.774 267.636C437.597 264.694 437.744 262.193 437.891 260.721C437.156 259.397 436.273 257.337 435.685 254.836C434.802 250.864 435.39 248.216 436.862 240.565C439.068 229.09 439.51 226.589 439.51 222.91C439.51 219.379 439.068 216.584 438.627 214.819C437.156 211.876 435.685 208.492 434.508 204.667C432.595 198.635 431.712 193.191 431.418 188.778C432.154 188.483 432.889 188.189 433.625 187.895C434.655 186.865 437.597 185.541 440.245 184.805C444.953 183.481 448.779 184.805 452.457 186.571C453.487 187.012 457.9 189.955 462.902 195.693C464.374 197.311 467.905 201.872 470.112 208.492C471.73 213.2 472.024 217.467 472.318 219.821C472.613 223.352 472.318 224.087 472.76 227.324C473.201 232.032 474.378 235.269 475.114 237.77C478.056 247.921 478.203 256.16 478.35 256.16C478.498 256.16 476.879 242.772 471.289 197.458C471.289 192.456 471.289 184.658 471.436 175.095C471.73 163.914 472.024 163.914 472.318 152.585C472.613 142.434 472.466 136.843 473.348 126.839C473.937 119.924 474.525 115.657 476.732 110.802C478.498 107.124 480.557 102.857 485.265 100.209C490.856 97.2666 497.477 97.8551 502.185 100.503C506.157 102.71 508.364 105.8 509.541 107.712C512.483 112.126 513.072 116.54 513.66 120.954C514.249 125.073 514.102 128.016 513.807 134.195C513.513 142.728 512.63 147.142 512.63 157.587C512.63 158.176 512.63 158.617 512.63 158.912C513.219 160.677 514.102 163.325 514.984 166.268C516.014 169.652 516.897 173.183 518.221 178.479C520.134 186.277 521.164 190.102 521.899 193.78C523.37 200.989 523.223 203.343 524.842 216.29C525.724 223.352 526.166 226.883 526.754 230.12C528.225 239.094 530.138 246.45 531.609 251.452C532.786 250.57 534.11 249.687 535.287 248.951C532.786 236.152 530.579 222.91 528.373 209.522C526.019 195.251 524.547 184.805 523.223 175.242C516.014 125.073 519.398 135.813 517.338 125.662C517.338 125.367 516.161 119.335 516.603 111.39C517.044 104.476 518.368 102.122 518.957 101.092C522.193 95.7954 527.931 94.0299 529.255 93.7356C530.138 93.4414 537.789 91.3816 544.703 95.7954C548.381 98.1493 550.147 101.092 551.912 104.329C553.825 107.565 556.915 113.009 557.65 121.983" stroke="#808285" stroke-width="2" stroke-miterlimit="10"/>
<path d="M602.082 123.601C602.229 121.1 602.964 116.834 605.76 112.567C607.378 110.213 609.291 107.27 613.41 105.799C613.704 105.652 619.001 103.887 624.15 106.535C624.739 106.829 626.21 107.712 628.711 110.36C630.771 112.567 633.272 115.804 637.244 123.895C638.863 126.985 640.187 129.78 641.805 133.9C644.159 139.932 645.189 144.051 646.513 149.495C651.662 169.21 653.869 171.858 656.076 184.952C656.664 188.63 657.106 191.72 657.253 193.926C657.842 199.076 658.724 206.579 658.871 215.848C659.018 220.85 658.871 233.209 659.46 238.652C659.607 240.271 659.901 241.889 659.901 241.889C660.343 244.831 661.078 247.038 661.225 247.774C661.814 249.834 662.549 253.217 664.021 259.838C664.756 263.222 665.933 268.518 666.522 274.55C667.257 281.612 666.375 281.318 666.816 292.941C666.963 297.06 667.257 300.591 667.846 307.948C668.287 313.98 668.434 315.157 668.729 319.129C669.317 327.368 669.464 333.694 669.611 338.108C669.759 346.347 669.759 352.673 669.464 365.326C669.317 377.537 669.023 380.185 669.317 386.953C669.611 394.603 670.347 399.9 670.788 402.842C671.524 408.433 672.112 412.111 673.584 417.113C675.349 422.998 677.409 428.001 680.499 435.063C681.528 437.269 682.411 439.182 683 440.506" stroke="#808285" stroke-width="2" stroke-miterlimit="10"/>
<path d="M585.016 235.71C583.25 232.326 580.308 224.676 579.425 219.526C577.806 209.228 578.395 209.669 577.659 200.253C576.777 188.483 575.305 181.716 574.864 179.95C573.834 174.654 573.687 175.536 572.657 170.093C571.48 164.208 570.745 158.764 568.979 150.525C568.538 148.76 568.538 146.847 567.361 144.787C565.742 142.139 561.181 133.753 559.71 127.868C554.561 108.595 563.094 99.4733 569.273 97.2664C570.892 96.6779 573.834 95.9423 577.218 96.5308C582.809 97.2664 586.34 100.797 589.576 103.887C593.255 107.565 595.314 111.096 597.815 115.51C599.728 118.894 601.052 121.836 602.082 123.896L602.376 124.631C610.615 142.139 616.647 156.999 619.148 168.033C621.355 177.89 622.238 186.571 622.826 192.014C624.298 206.432 626.063 220.851 625.769 229.825" stroke="#2969D0" stroke-width="3" stroke-miterlimit="10" stroke-linecap="round"/>
<path d="M476.438 337.814C476.438 334.578 476.732 330.605 477.468 326.044C478.351 321.042 479.822 316.776 481.146 313.539C480.852 306.624 480.557 299.709 480.116 292.794C479.528 280.289 478.792 267.93 477.909 255.866" stroke="#808285" stroke-width="2" stroke-miterlimit="10"/>
<g opacity="0.5">
<path d="M442.158 214.965C443.335 214.377 444.365 213.641 444.954 212.611C445.542 211.582 445.689 210.405 445.689 209.081C445.689 206.579 445.248 204.078 444.512 201.724C443.777 199.37 442.894 196.869 442.011 194.515C441.57 193.338 441.128 192.161 440.246 191.279C439.363 190.396 438.186 189.954 436.862 189.66C438.186 189.66 439.51 189.954 440.687 190.837C441.864 191.573 442.6 193.044 443.041 194.221C444.071 196.575 445.101 198.929 445.836 201.43C446.278 202.754 446.572 203.931 446.719 205.255C446.866 206.579 446.866 207.904 446.719 209.228C446.572 210.552 446.278 212.023 445.395 213.053C444.807 214.083 443.482 214.671 442.158 214.965Z" fill="#AEB0B2"/>
</g>
<g opacity="0.5">
<path d="M562.947 108.301C563.682 109.478 564.565 110.508 565.595 111.391C566.036 111.832 566.625 112.274 567.066 112.568C567.508 112.715 568.243 112.862 568.832 113.009C571.48 113.157 574.128 112.862 576.629 112.421C579.13 111.832 581.779 111.244 583.985 109.92C586.781 108.743 584.868 105.8 583.25 103.888C584.427 104.623 585.457 105.653 586.045 106.83C586.339 107.419 586.634 108.301 586.192 109.184C585.751 109.92 585.162 110.361 584.721 110.95C582.367 112.568 579.572 113.451 576.924 113.892C574.275 114.333 571.48 114.628 568.685 114.186C567.949 114.039 567.36 113.892 566.625 113.598C565.889 113.157 565.448 112.715 565.007 112.127C564.271 110.655 563.388 109.478 562.947 108.301Z" fill="#AEB0B2"/>
</g>
<path opacity="0.33" d="M310.629 443.302C312.542 440.948 320.781 432.415 329.756 423.44C338.73 414.466 357.121 382.834 362.564 376.508C368.008 370.181 382.426 354.586 385.957 346.789C389.488 338.991 385.663 313.98 385.957 306.182C386.251 298.385 389.929 261.163 387.428 251.452C384.927 241.742 380.955 237.77 377.718 231.002C374.481 224.234 373.893 222.175 370.95 220.115C368.008 218.055 369.773 200.4 370.362 197.899C370.95 195.398 373.01 184.07 373.01 180.097C373.01 176.125 373.01 164.796 376.1 156.41C379.189 148.024 377.129 122.866 371.833 114.921C366.537 106.977 362.27 105.064 355.944 104.623C349.617 104.181 342.702 110.361 340.937 114.186C339.172 118.011 336.818 121.542 334.169 152.732C330.491 161.118 323.429 168.474 320.34 178.626C317.25 188.778 309.011 214.377 307.098 224.97C305.186 235.563 294.299 249.981 298.712 242.184C303.126 234.533 302.685 215.701 310.924 190.69C319.163 165.679 318.133 167.297 318.133 165.973C318.133 164.649 322.988 160.088 324.606 149.201C327.696 144.199 333.728 119.335 322.546 112.126C322.399 106.977 319.016 103.446 309.747 101.974C300.478 100.503 297.094 102.857 295.034 108.595C291.65 109.478 286.501 121.983 285.618 132.282C283.117 133.753 271.053 145.965 268.699 150.525C266.345 155.086 259.725 178.038 258.4 183.922C257.076 189.807 248.543 226.588 246.189 229.972C243.835 233.356 242.805 235.71 244.718 228.501C246.631 221.292 255.458 177.89 259.283 170.093C263.108 162.295 263.55 155.822 274.143 140.668C284.736 125.514 283.264 118.158 281.352 113.303C279.439 108.448 277.968 104.328 268.993 102.857C260.019 101.386 254.869 108.889 254.869 108.889C254.869 108.889 249.426 110.508 236.332 124.632C233.537 119.188 229.711 115.068 229.711 115.068C229.711 115.068 226.916 109.184 218.971 108.007C211.027 106.83 207.79 115.363 207.348 118.452C204.7 118.452 199.257 130.664 197.344 142.875C195.431 155.233 192.342 172.888 189.105 183.334C185.868 193.78 183.809 202.46 183.073 210.111C182.337 217.761 178.218 228.501 177.482 238.505C176.747 248.51 165.124 277.199 164.535 286.321C163.8 295.442 164.241 326.633 163.358 333.842C162.476 341.051 161.152 365.326 163.358 379.303C165.565 393.133 164.535 405.932 162.181 412.847C159.827 419.762 151 442.713 151 442.713H310.629V443.302Z" fill="#E0E1E2"/>
<path d="M310.629 443.302C312.542 440.948 320.781 432.415 329.756 423.44C338.73 414.466 357.121 382.834 362.564 376.508C368.008 370.181 382.426 354.586 385.957 346.789C389.488 338.991 385.663 313.98 385.957 306.182C386.251 298.385 389.929 261.163 387.428 251.452C384.927 241.742 380.955 237.77 377.718 231.002C374.481 224.234 373.893 222.175 370.95 220.115C368.008 218.055 369.773 200.4 370.362 197.899C370.95 195.398 373.01 184.07 373.01 180.097C373.01 176.125 373.01 164.796 376.1 156.41C379.189 148.024 377.129 122.866 371.833 114.921C366.537 106.977 362.27 105.064 355.944 104.623C349.617 104.181 342.702 110.361 340.937 114.186C339.172 118.011 336.818 121.542 334.169 152.732C330.491 161.118 323.429 168.474 320.34 178.626C317.25 188.778 309.011 214.377 307.098 224.97C305.186 235.563 294.299 249.981 298.712 242.184C303.126 234.533 302.685 215.701 310.924 190.69C319.163 165.679 318.133 167.297 318.133 165.973C318.133 164.649 322.988 160.088 324.606 149.201C327.696 144.199 333.728 119.335 322.546 112.126C322.399 106.977 319.016 103.446 309.747 101.974C300.478 100.503 297.094 102.857 295.034 108.595C291.65 109.478 286.501 121.983 285.618 132.282C283.117 133.753 271.053 145.965 268.699 150.525C266.345 155.086 259.725 178.038 258.4 183.922C257.076 189.807 248.543 226.588 246.189 229.972C243.835 233.356 242.805 235.71 244.718 228.501C246.631 221.292 255.458 177.89 259.283 170.093C263.108 162.295 263.55 155.822 274.143 140.668C284.736 125.514 283.264 118.158 281.352 113.303C279.439 108.448 277.968 104.328 268.993 102.857C260.019 101.386 254.869 108.889 254.869 108.889C254.869 108.889 249.426 110.508 236.332 124.632C233.537 119.188 229.711 115.068 229.711 115.068C229.711 115.068 226.916 109.184 218.971 108.007C211.027 106.83 207.79 115.363 207.348 118.452C204.7 118.452 199.257 130.664 197.344 142.875C195.431 155.233 192.342 172.888 189.105 183.334C185.868 193.78 183.809 202.46 183.073 210.111C182.337 217.761 178.218 228.501 177.482 238.505C176.747 248.51 165.124 277.199 164.535 286.321C163.8 295.442 164.241 326.633 163.358 333.842C162.476 341.051 161.152 365.326 163.358 379.303C165.565 393.133 164.535 405.932 162.181 412.847C159.827 419.762 151 442.713 151 442.713" stroke="#808285" stroke-width="2" stroke-miterlimit="10"/>
<path d="M193.666 234.681C197.785 230.267 201.169 223.499 201.464 216.438C201.758 209.376 201.022 172.742 210.291 158.765C219.56 144.788 236.479 125.221 236.479 125.221" stroke="#808285" stroke-width="2" stroke-miterlimit="10"/>
<path d="M358.003 320.454C355.943 316.629 353.442 314.128 353.442 311.185C353.442 308.243 355.061 274.551 356.826 262.487C358.445 250.423 366.684 215.555 369.479 208.346" stroke="#808285" stroke-width="2" stroke-miterlimit="10"/>
</svg>
