<svg width="850" height="500" viewBox="0 0 850 500" fill="none" xmlns="http://www.w3.org/2000/svg">
<path opacity="0.33" d="M732.856 431.938C682.483 432.082 631.967 432.082 581.594 432.226Z" fill="#E0E1E2"/>
<path opacity="0.33" d="M581.594 432.228C579.435 429.205 575.981 424.744 571.519 419.994C561.301 409.344 551.946 403.587 537.985 395.527C521.29 385.741 506.178 379.12 502.868 377.681C502.58 377.537 489.915 371.924 474.227 363.576C467.607 360.122 463.001 357.388 458.828 352.207C455.23 347.601 453.934 343.715 451.2 335.368C443.572 312.916 445.011 314.931 441.845 308.886C439.254 303.849 435.944 298.667 432.778 289.456C432.346 288.161 432.346 286.578 431.338 284.563C430.331 282.548 429.324 281.828 428.46 279.814C427.597 278.086 427.453 276.503 427.309 275.352C426.877 274.632 426.013 273.337 425.438 271.754C424.142 268.732 423.998 266.141 423.855 264.414C423.567 260.096 423.279 248.295 423.423 232.463C421.264 228.289 419.393 224.835 418.098 222.532C415.075 217.063 412.773 213.465 411.045 207.708C410.758 206.845 410.614 206.125 410.47 205.55C411.333 205.406 412.197 205.118 413.06 204.974C413.924 204.11 415.363 202.959 417.378 201.951C421.84 199.649 426.013 199.793 427.597 199.793C433.353 199.937 437.527 202.527 440.693 204.398C442.277 205.262 447.89 208.86 454.51 217.783C459.403 224.259 464.009 229.872 466.024 238.796C467.175 244.121 467.031 248.582 466.6 251.605C466.456 252.468 466.456 253.188 466.312 254.051C468.471 255.779 471.061 258.369 473.364 261.823C477.25 267.58 478.689 273.049 479.409 276.503C480.272 277.079 481.28 278.086 482.287 279.526C483.726 281.541 484.014 283.556 484.158 284.707C485.166 285.139 487.037 286.002 488.62 287.729C490.635 289.744 491.498 292.047 491.786 293.198C493.081 290.896 494.521 287.585 495.672 283.412C496.391 280.389 497.399 275.496 496.535 266.429C496.104 261.679 495.384 257.362 490.491 239.947C488.332 232.319 487.324 228.577 486.029 224.116C482.143 211.594 479.409 202.383 474.371 191.157C469.91 181.083 468.471 179.931 467.031 173.743C466.312 170.576 464.729 162.805 466.6 153.737C467.175 150.571 468.039 148.412 469.046 142.511C469.19 141.36 469.19 141.936 470.342 133.876C471.061 128.695 471.349 126.68 471.925 123.945C472.213 122.506 472.5 120.779 473.076 118.476C474.515 112.432 475.235 109.553 476.962 106.675C477.969 104.948 480.56 100.63 485.741 98.4712C490.779 96.4562 495.816 97.6076 497.399 98.4712C498.55 99.1908 499.702 100.054 499.702 100.054C500.277 100.486 500.709 101.062 501.141 101.35C501.573 101.494 502.436 101.781 503.3 102.213C507.761 104.66 509.345 109.697 510.064 112.144C510.64 113.871 510.784 115.31 511.072 116.893C512.079 123.802 511.072 129.127 510.64 131.142C510.352 132.437 509.92 134.164 509.201 136.323C509.057 137.186 509.057 138.769 509.345 140.784C509.92 144.67 511.359 147.261 511.791 148.124C512.511 149.42 515.965 158.919 522.873 177.916C524.744 183.242 526.327 187.703 529.494 193.748C530.645 196.051 531.653 197.922 532.372 199.073C533.667 198.929 535.107 198.785 536.546 198.785C538.129 198.641 539.712 198.641 541.151 198.641C540.432 190.15 539.424 183.098 538.561 177.629C536.834 167.122 534.675 158.631 532.516 150.571C530.789 143.951 529.35 138.626 529.35 138.626C526.759 129.271 526.615 129.702 525.896 126.536C525.464 124.233 525.176 122.074 524.025 119.196C523.161 117.037 522.729 116.749 521.722 114.303C520.858 112 519.851 109.697 519.419 106.531C519.275 104.66 518.843 100.918 520.714 97.0319C521.434 95.4488 522.441 94.1535 523.017 93.4339C523.305 92.5703 523.737 91.1311 524.888 89.8358C526.615 87.3891 528.918 86.3817 530.069 85.806C532.372 84.6546 534.387 84.5107 535.97 84.3667C537.553 84.2228 542.591 83.7911 545.901 86.2377C547.34 87.2452 548.635 88.8283 548.635 88.8283C549.067 89.404 549.355 89.8358 549.787 90.4115C550.65 90.8433 551.946 91.4189 553.097 92.4264C554.68 93.7217 555.688 95.1609 556.263 96.1684C558.134 97.3198 560.581 99.0468 563.315 101.35C565.906 103.508 569.36 106.387 572.239 110.273C575.117 114.303 576.412 118.045 577.708 122.362C579.579 128.551 582.025 138.05 584.184 150.283C585.767 158.487 587.207 166.69 588.79 174.894C589.222 174.894 589.653 174.75 590.229 174.75C590.949 173.599 591.812 171.728 592.532 169.281C593.251 166.834 593.251 164.819 593.251 163.092C593.251 155.608 591.668 143.951 591.524 142.511C590.661 137.186 589.653 132.005 588.79 126.68C587.063 123.945 585.336 120.779 583.609 117.181C581.738 113.007 580.298 109.121 579.291 105.667C575.261 102.357 572.527 99.0468 570.656 96.6002C568.209 93.146 566.338 90.6993 565.33 86.8134C564.755 84.3667 563.459 79.3295 566.05 74.58C566.482 73.7165 568.928 69.6866 573.678 68.3913C576.844 67.5278 579.579 68.2474 582.313 68.967C586.199 70.1184 588.934 71.8455 590.517 73.1408C591.956 73.5726 593.827 74.2922 595.986 75.4436C603.47 79.1855 607.788 84.0789 611.098 87.8209C614.552 91.7068 619.445 98.1833 623.331 107.25C624.914 109.265 632.254 125.385 633.262 130.71C635.277 141.936 635.996 152.154 635.996 167.986C635.996 172.591 635.852 176.333 635.852 178.924C636.86 177.341 638.443 175.326 639.307 172.447C640.458 168.274 645.063 150.715 650.389 140.065C651.108 138.769 651.252 136.467 651.828 133.876C654.562 122.65 655.858 116.893 656.577 110.848C656.865 108.402 657.009 106.099 657.297 101.494C658.016 91.4189 657.585 90.9872 658.016 87.533C658.448 83.7911 659.456 76.3071 664.781 69.5427C666.94 66.8082 670.97 61.627 677.59 60.7634C678.597 60.6195 684.354 59.756 688.528 63.498C690.831 65.5129 691.694 68.1035 692.702 73.2847C695.436 87.677 693.853 99.3347 693.709 100.342C692.702 107.25 691.838 107.538 690.831 115.31C689.967 122.074 689.679 127.831 689.823 131.573C689.536 144.382 688.24 155.033 686.945 163.092C686.801 164.388 685.794 170.432 683.923 178.492C681.476 189.43 678.885 198.353 676.583 205.118C676.439 206.269 676.151 207.996 676.007 210.011C675.575 214.761 675.575 218.071 675.719 221.669C675.863 227.858 676.007 235.485 675.575 243.401C675.431 245.992 675.287 248.007 675.287 249.446C675.863 251.029 676.726 253.476 677.59 256.354C679.173 261.391 680.037 265.277 680.468 267.58C683.635 282.404 685.794 295.213 685.794 295.213C688.384 310.325 689.679 317.809 689.823 323.422C689.823 326.732 689.823 330.043 690.399 335.512C690.543 336.807 691.119 342.996 693.134 351.055C693.853 353.934 695.005 358.827 697.163 365.016C698.89 369.765 700.761 374.658 710.548 393.8C719.615 411.647 722.35 416.108 724.365 419.418C727.819 424.887 730.841 429.205 733 432.228" fill="#E0E1E2"/>
<path d="M676.438 204.829C676.294 205.98 676.006 207.708 675.862 209.722C675.43 214.472 675.43 217.782 675.574 221.38C675.718 227.569 675.862 235.197 675.43 243.113C675.286 245.703 675.143 247.718 675.143 249.157C675.718 250.74 676.582 253.187 677.445 256.066C679.028 261.103 679.892 264.989 680.324 267.291C683.49 282.115 685.649 294.925 685.649 294.925C688.24 310.036 689.535 317.52 689.679 323.133C689.679 326.444 689.679 329.754 690.254 335.223C690.398 336.518 690.974 342.707 692.989 350.767C693.709 353.645 694.86 358.538 697.019 364.727C698.746 369.476 700.617 374.37 710.404 393.512C719.471 411.358 722.205 415.82 724.22 419.13C727.674 424.599 730.697 428.916 732.855 431.939" stroke="#808285" stroke-width="2" stroke-miterlimit="10"/>
<path d="M635.708 178.348C636.715 176.765 638.299 174.75 639.162 171.871C640.314 167.697 644.919 150.139 650.244 139.489C650.964 138.193 651.108 135.891 651.683 133.3C654.418 122.074 655.713 116.317 656.433 110.272C656.721 107.826 656.865 105.523 657.153 100.917C657.872 90.8428 657.44 90.411 657.872 86.9569C658.304 83.2149 659.311 75.7309 664.636 68.9665C666.795 66.232 670.825 61.0508 677.446 60.1873C678.453 60.0434 684.21 59.1798 688.384 62.9218C690.686 64.9367 691.55 67.5273 692.557 72.7085C695.292 87.1008 693.709 98.7585 693.565 99.766C692.557 106.674 691.694 106.962 690.686 114.734C689.823 121.498 689.535 127.255 689.679 130.997C689.391 143.806 688.096 154.457 686.801 162.516C686.657 163.812 685.649 169.856 683.778 177.916C681.331 188.854 678.741 197.777 676.438 204.542" stroke="#2969D0" stroke-width="3" stroke-miterlimit="10" stroke-linecap="round"/>
<path d="M581.593 432.227C579.434 429.205 575.98 424.743 571.519 419.994C561.3 409.344 551.945 403.587 537.985 395.527C521.29 385.74 506.178 379.12 502.868 377.681C502.58 377.537 489.915 371.924 474.227 363.576C467.607 360.122 463.001 357.388 458.827 352.206C455.229 347.601 453.934 343.715 451.199 335.367C443.572 312.916 445.011 314.93 441.844 308.886C439.254 303.848 435.944 298.667 432.777 289.456C432.346 288.161 432.346 286.578 431.338 284.563C430.331 282.548 429.323 281.828 428.46 279.813C427.596 278.086 427.452 276.503 427.308 275.352C426.877 274.632 426.013 273.337 425.437 271.754C424.142 268.731 423.998 266.141 423.854 264.414C423.566 260.096 423.278 248.294 423.422 232.463C421.264 228.289 419.393 224.835 418.097 222.532C415.075 217.063 412.772 213.465 411.045 207.708C410.757 206.845 410.613 205.693 410.613 205.693C411.477 205.261 412.34 205.118 413.204 204.83C414.067 203.966 415.507 202.815 417.522 201.807C421.983 199.505 426.157 199.648 427.74 199.648C433.497 199.792 437.671 202.383 440.837 204.254C442.42 205.118 448.033 208.716 454.654 217.639C459.547 224.115 464.152 229.728 466.167 238.651C467.319 243.977 467.175 248.438 466.743 251.461C466.599 252.324 466.599 253.044 466.455 253.907C468.614 255.634 471.205 258.225 473.507 261.679C477.393 267.436 478.833 272.905 479.552 276.359C480.416 276.935 481.423 277.942 482.431 279.382C483.87 281.396 484.158 283.411 484.302 284.563C485.309 284.995 487.18 285.858 488.763 287.585C490.778 289.6 491.642 291.903 491.93 293.054C493.225 290.751 494.664 287.441 495.815 283.267C496.535 280.245 497.543 275.352 496.679 266.285C496.247 261.535 495.528 257.217 490.634 239.803C488.475 232.175 487.468 228.433 486.173 223.971C482.287 211.45 479.552 202.239 474.515 191.013C470.053 180.939 468.614 179.787 467.175 173.598C466.455 170.432 464.872 162.66 466.743 153.593C467.319 150.427 468.182 148.268 469.19 142.367C469.334 141.216 469.334 141.792 470.485 133.732C471.205 128.551 471.493 126.536 472.068 123.801C472.356 122.362 472.644 120.635 473.22 118.332C474.659 112.287 475.378 109.409 477.106 106.531C478.113 104.803 480.704 100.486 485.885 98.327C490.922 96.3121 495.959 97.4635 497.542 98.327C498.694 99.0466 499.845 99.9101 499.845 99.9101C500.421 100.342 500.853 100.918 501.284 101.205C501.716 101.349 502.58 101.637 503.443 102.069C507.905 104.516 509.488 109.553 510.208 112C510.783 113.727 510.927 115.166 511.215 116.749C512.223 123.657 511.215 128.982 510.783 130.997C510.496 132.293 510.064 134.02 509.344 136.179C509.2 137.042 509.2 138.625 509.488 140.64C510.064 144.526 511.503 147.117 511.935 147.98C512.654 149.276 516.109 158.774 523.017 177.772C524.888 183.097 526.471 187.559 529.637 193.604C530.789 195.906 531.796 197.777 532.516 198.929C533.811 198.785 535.25 198.641 536.689 198.641C538.273 198.497 539.856 198.497 541.295 198.497C540.575 190.006 539.568 182.953 538.704 177.484C536.977 166.978 534.818 158.487 532.66 150.427C530.933 143.807 529.493 138.481 529.493 138.481C526.903 129.126 526.759 129.558 526.039 126.392C525.607 124.089 525.32 121.93 524.168 119.052C523.305 116.893 522.873 116.605 521.865 114.158C521.002 111.856 519.994 109.553 519.563 106.387C519.419 104.516 518.987 100.774 520.858 96.8878C521.578 95.3046 522.585 94.0093 523.161 93.2897C523.449 92.4262 523.88 90.9869 525.032 89.6916C526.759 87.245 529.062 86.2375 530.213 85.6618C532.516 84.5104 534.531 84.3665 536.114 84.2226C537.697 84.0787 542.734 83.6469 546.044 86.0936C547.484 87.101 548.779 88.6842 548.779 88.6842C549.211 89.2599 549.499 89.6916 549.93 90.2673C550.794 90.6991 552.089 91.2748 553.241 92.2822C554.824 93.5775 555.831 95.0168 556.407 96.0242C558.278 97.1756 560.724 98.9027 563.459 101.205C566.05 103.364 569.504 106.243 572.382 110.129C575.261 114.158 576.556 117.9 577.851 122.218C579.722 128.407 582.169 137.906 584.328 150.139C585.911 158.343 587.35 166.546 588.933 174.75C589.365 174.75 589.797 174.606 590.373 174.606C591.092 173.455 591.956 171.584 592.675 169.137C593.395 166.69 593.395 164.675 593.395 162.948C593.395 155.464 591.812 143.807 591.668 142.367C590.804 137.042 589.797 131.861 588.933 126.536C587.206 123.801 585.479 120.635 583.752 117.037C581.881 112.863 580.442 108.977 579.434 105.523C575.405 102.213 572.67 98.9027 570.799 96.456C568.352 93.0019 566.481 90.5552 565.474 86.6693C564.898 84.2226 563.603 79.1853 566.194 74.4358C566.625 73.5723 569.072 69.5425 573.821 68.2472C576.988 67.3836 579.722 68.1033 582.457 68.8229C586.343 69.9742 589.077 71.7013 590.66 72.9966C592.1 73.4284 593.971 74.148 596.129 75.2994C603.613 79.0414 607.931 83.9347 611.241 87.6767C614.695 91.5626 619.589 98.0392 623.475 107.106C625.058 109.121 632.398 125.24 633.405 130.566C635.42 141.792 636.14 152.01 636.14 167.842C636.14 172.447 634.989 177.772 634.845 180.363" stroke="#808285" stroke-width="2" stroke-miterlimit="10"/>
<g opacity="0.5">
<path d="M417.666 206.845C419.393 206.845 421.12 207.708 422.128 209.147C423.135 210.587 423.999 212.026 424.718 213.465C425.438 214.904 426.157 216.488 426.733 218.071C427.021 218.934 427.309 219.654 427.597 220.517C427.741 220.949 427.885 221.381 428.028 221.669L428.172 222.244L428.316 222.532C428.316 222.676 428.316 222.676 428.46 222.964V222.82C428.604 223.54 428.892 224.403 429.036 225.267C429.18 226.13 429.18 226.994 429.036 227.857C428.604 229.584 427.597 231.024 426.157 231.887C427.309 230.736 428.028 229.297 428.172 227.713C428.316 226.274 427.741 224.691 427.309 223.252V223.108C427.309 223.252 427.309 223.108 427.309 222.964L427.165 222.676L427.021 222.101L426.589 220.949C426.301 220.23 426.014 219.366 425.726 218.646C425.15 217.063 424.43 215.624 423.855 214.041C423.135 212.602 422.415 211.018 421.696 209.579C421.264 208.86 420.832 208.284 420.257 207.852C419.249 207.42 418.53 207.133 417.666 206.845Z" fill="#AEB0B2"/>
</g>
<g opacity="0.5">
<path d="M674.135 66.376C673.559 68.8227 673.415 71.1254 673.271 73.5721C673.271 74.7235 673.271 76.0188 673.271 77.1702C673.271 77.7459 673.415 78.3215 673.415 78.8972C673.415 79.4729 673.703 80.0486 673.847 80.1925C673.847 80.1925 674.135 80.3365 674.423 80.4804L675.286 80.9121L677.013 81.6318C678.165 82.2074 679.316 82.6392 680.324 83.2149C682.483 84.3663 684.641 85.6616 686.512 87.2447H685.793C686.512 86.813 687.088 85.9494 687.52 84.942C687.952 84.0784 688.383 83.071 688.671 82.0635C688.959 81.0561 689.247 80.0486 689.535 78.8972C689.823 77.8898 689.967 76.7384 690.254 75.7309C689.967 77.8898 689.823 80.0486 689.391 82.2075C689.103 83.2149 688.959 84.3663 688.527 85.3737C688.096 86.3812 687.52 87.5326 686.512 88.2522L686.225 88.54L685.793 88.2522C683.922 86.813 681.763 85.5177 679.748 84.5102C678.741 83.9345 677.589 83.3588 676.582 82.9271L674.855 82.2075L673.991 81.7757C673.703 81.6318 673.415 81.6318 672.984 81.2C672.408 80.4804 672.264 79.7608 672.264 79.1851C672.12 78.6094 672.12 77.8898 672.12 77.3141C672.12 76.0188 672.264 74.8674 672.408 73.5721C672.552 72.2768 672.696 71.1254 672.984 69.974C673.415 68.6787 673.703 67.5274 674.135 66.376Z" fill="#AEB0B2"/>
</g>
<path opacity="0.33" d="M310.156 434.53C312.027 432.228 320.087 423.88 328.866 415.101C337.645 406.322 355.635 375.378 360.961 369.19C366.286 363.001 380.39 347.745 383.844 340.117C387.298 332.489 383.556 308.023 383.844 300.395C384.132 292.767 387.73 256.354 385.284 246.855C382.837 237.357 378.951 233.471 375.785 226.85C372.618 220.23 372.043 218.215 369.164 216.2C366.286 214.185 368.013 196.914 368.589 194.468C369.164 192.021 371.179 180.939 371.179 177.053C371.179 173.167 371.179 162.085 374.201 153.882C377.224 145.678 375.209 121.067 370.028 113.295C364.847 105.524 360.673 103.653 354.484 103.221C348.295 102.789 341.531 108.834 339.804 112.576C338.077 116.318 335.774 119.772 333.184 150.283C329.586 158.487 322.677 165.683 319.655 175.614C316.632 185.544 308.573 210.587 306.702 220.949C304.831 231.312 294.181 245.416 298.498 237.788C302.816 230.304 302.384 211.882 310.444 187.415C318.503 162.949 317.496 164.532 317.496 163.236C317.496 161.941 322.245 157.48 323.829 146.829C326.851 141.936 332.752 117.613 321.814 110.561C321.67 105.524 318.36 102.069 309.292 100.63C300.225 99.191 296.915 101.494 294.9 107.107C291.59 107.97 286.553 120.204 285.689 130.278C283.242 131.717 271.441 143.663 269.138 148.125C266.835 152.586 260.359 175.038 259.063 180.795C257.768 186.552 249.421 222.533 247.118 225.843C244.815 229.153 243.808 231.456 245.679 224.404C247.55 217.351 256.185 174.894 259.927 167.266C263.669 159.638 264.101 153.306 274.463 138.482C284.826 123.658 283.386 116.462 281.515 111.712C279.644 106.963 278.205 102.933 269.426 101.494C260.647 100.054 255.609 107.395 255.609 107.395C255.609 107.395 250.284 108.978 237.475 122.794C234.741 117.469 230.999 113.439 230.999 113.439C230.999 113.439 228.264 107.682 220.492 106.531C212.72 105.38 209.554 113.727 209.122 116.75C206.532 116.75 201.207 128.695 199.336 140.641C197.465 152.73 194.442 170.001 191.276 180.219C188.11 190.438 186.095 198.929 185.375 206.413C184.655 213.897 180.626 224.404 179.906 234.19C179.186 243.977 167.817 272.042 167.241 280.965C166.521 289.888 166.953 320.4 166.089 327.452C165.226 334.504 163.931 358.252 166.089 371.924C168.248 385.453 167.241 397.974 164.938 404.738C162.635 411.503 154 433.955 154 433.955H310.156V434.53Z" fill="#E0E1E2"/>
<path d="M310.156 434.53C312.027 432.228 320.087 423.88 328.866 415.101C337.645 406.322 355.635 375.378 360.961 369.19C366.286 363.001 380.39 347.745 383.844 340.117C387.298 332.489 383.556 308.023 383.844 300.395C384.132 292.767 387.73 256.354 385.284 246.855C382.837 237.357 378.951 233.471 375.785 226.85C372.618 220.23 372.043 218.215 369.164 216.2C366.286 214.185 368.013 196.914 368.589 194.468C369.164 192.021 371.179 180.939 371.179 177.053C371.179 173.167 371.179 162.085 374.201 153.882C377.224 145.678 375.209 121.067 370.028 113.295C364.847 105.524 360.673 103.653 354.484 103.221C348.295 102.789 341.531 108.834 339.804 112.576C338.077 116.318 335.774 119.772 333.184 150.283C329.586 158.487 322.677 165.683 319.655 175.614C316.632 185.544 308.573 210.587 306.702 220.949C304.831 231.312 294.181 245.416 298.498 237.788C302.816 230.304 302.384 211.882 310.444 187.415C318.503 162.949 317.496 164.532 317.496 163.236C317.496 161.941 322.245 157.48 323.829 146.829C326.851 141.936 332.752 117.613 321.814 110.561C321.67 105.524 318.36 102.069 309.292 100.63C300.225 99.191 296.915 101.494 294.9 107.107C291.59 107.97 286.553 120.204 285.689 130.278C283.242 131.717 271.441 143.663 269.138 148.125C266.835 152.586 260.359 175.038 259.063 180.795C257.768 186.552 249.421 222.533 247.118 225.843C244.815 229.153 243.808 231.456 245.679 224.404C247.55 217.351 256.185 174.894 259.927 167.266C263.669 159.638 264.101 153.306 274.463 138.482C284.826 123.658 283.386 116.462 281.515 111.712C279.644 106.963 278.205 102.933 269.426 101.494C260.647 100.054 255.609 107.395 255.609 107.395C255.609 107.395 250.284 108.978 237.475 122.794C234.741 117.469 230.999 113.439 230.999 113.439C230.999 113.439 228.264 107.682 220.492 106.531C212.72 105.38 209.554 113.727 209.122 116.75C206.532 116.75 201.207 128.695 199.336 140.641C197.465 152.73 194.442 170.001 191.276 180.219C188.11 190.438 186.095 198.929 185.375 206.413C184.655 213.897 180.626 224.404 179.906 234.19C179.186 243.977 167.817 272.042 167.241 280.965C166.521 289.888 166.953 320.4 166.089 327.452C165.226 334.504 163.931 358.252 166.089 371.924C168.248 385.453 167.241 397.974 164.938 404.738C162.635 411.503 154 433.955 154 433.955" stroke="#808285" stroke-width="2" stroke-miterlimit="10"/>
<path d="M195.737 230.449C199.767 226.131 203.077 219.51 203.365 212.602C203.653 205.694 202.933 169.857 212.001 156.184C221.068 142.512 237.619 123.37 237.619 123.37" stroke="#808285" stroke-width="2" stroke-miterlimit="10"/>
<path d="M356.499 314.356C354.484 310.614 352.037 308.167 352.037 305.288C352.037 302.41 353.62 269.452 355.347 257.65C356.93 245.848 364.99 211.739 367.725 204.687" stroke="#808285" stroke-width="2" stroke-miterlimit="10"/>
</svg>
