<svg width="850" height="500" viewBox="0 0 850 500" fill="none" xmlns="http://www.w3.org/2000/svg">
<path opacity="0.33" d="M691 456.221C683.702 440.849 678.578 426.564 676.56 394.889C674.541 363.214 678.423 360.729 676.56 335.731C674.697 310.732 672.833 316.167 674.697 297.379C676.404 278.591 666.157 254.214 666.001 245.053C665.846 235.892 666.622 204.527 663.828 189.777C661.033 175.026 654.511 165.555 649.853 140.245C645.195 114.936 627.494 98.4778 616.16 102.204C604.825 105.931 602.962 117.731 604.359 122.079C599.39 112.297 596.13 106.552 593.024 102.825C589.919 99.0988 580.913 94.7513 580.913 94.7513C580.913 94.7513 566.939 91.8011 561.504 104.378C557.002 105.31 557.002 115.092 557.157 117.731C556.07 111.831 554.052 103.446 552.344 100.807C550.48 98.1672 546.909 93.9749 541.94 91.8012C536.972 89.6274 524.24 90.4037 520.979 93.0433C517.718 95.6829 511.818 101.117 512.284 106.397C512.75 111.831 514.458 116.644 514.768 130.463C515.079 144.283 519.582 173.473 520.513 180.771C521.445 188.069 534.022 255.301 534.022 255.301C534.022 255.301 533.556 256.388 532.779 255.611C532.158 254.835 517.408 172.852 512.129 160.741C514.147 147.854 515.389 111.365 507.005 103.291C503.433 95.2171 481.696 88.851 473.466 107.018C465.237 125.029 467.877 157.325 466.324 169.747C464.771 182.168 466.479 209.807 468.032 218.036C466.945 209.651 464.15 201.888 459.337 197.074C454.523 192.261 446.604 187.448 441.015 185.429C436.512 183.876 430.767 185.895 428.283 188.379C427.506 189.156 426.419 189.932 425.332 190.087C424.09 190.398 423.003 191.329 423.003 191.329C423.003 193.969 425.022 207.167 432.32 220.21C430.456 223.005 432.941 234.65 430.922 242.879C428.904 250.953 426.575 256.543 430.146 265.859C428.748 268.343 430.612 275.175 433.717 277.66C431.854 283.405 434.183 290.702 440.394 305.919C448.157 325.017 444.275 346.134 449.71 357.003C455.144 367.872 461.666 371.598 468.808 382.778C475.795 393.957 503.123 428.893 514.302 437.743C525.482 446.594 530.14 456.065 530.14 456.065H691V456.221Z" fill="#E0E1E2"/>
<path d="M691 456.222C683.702 440.85 678.578 426.565 676.56 394.89C674.541 363.215 678.423 360.73 676.56 335.732C674.697 310.733 672.833 316.168 674.697 297.38C676.404 278.592 666.157 254.215 666.001 245.054C665.846 235.893 666.622 204.528 663.828 189.778C661.033 175.027 656.84 164.158 649.853 140.246C642.09 113.54 627.494 98.4787 616.16 102.205C604.825 105.932 602.962 117.732 604.359 122.08C599.39 112.298 596.13 106.553 593.024 102.826C590.695 100.031 584.329 95.2181 579.05 94.4417C575.168 93.8206 565.697 94.597 561.504 104.224C557.467 105.621 557.002 114.937 557.157 117.577C556.07 111.677 554.052 103.292 552.344 100.653C550.48 98.0129 546.909 93.8206 541.94 91.6468C536.972 89.4731 524.24 90.2494 520.979 92.889C517.718 95.5286 511.818 100.963 512.284 106.242C512.75 111.677 514.458 116.49 514.768 130.309C515.079 144.128 519.582 173.319 520.513 180.617C521.445 187.914 534.022 255.146 534.022 255.146C534.022 255.146 533.556 256.233 532.779 255.457C532.158 254.681 517.408 172.698 512.129 160.587C514.147 147.699 515.389 111.211 507.005 103.137C503.433 95.0628 481.696 88.6967 473.466 106.863C465.237 124.875 467.877 157.171 466.324 169.593C464.771 182.014 466.479 209.652 468.032 217.882C466.945 209.497 464.15 201.734 459.337 196.92C454.523 192.107 446.604 187.293 441.015 185.275C436.512 183.722 430.767 185.741 428.283 188.38C427.351 189.312 426.109 190.244 424.711 190.399C423.624 190.554 423.003 190.865 423.003 190.865C423.003 193.349 424.711 205.305 430.767 217.261C431.543 218.813 432.009 220.521 431.699 222.229C431.077 226.732 432.63 236.048 430.922 242.725C428.904 250.799 426.575 256.389 430.146 265.705C430.456 270.674 432.009 275.642 433.717 277.505C433.251 284.182 434.183 290.548 440.394 305.765C448.157 324.863 444.275 345.98 449.71 356.849C455.144 367.717 461.666 371.444 468.808 382.623C475.795 393.803 503.123 428.739 514.302 437.589C525.482 446.44 530.14 455.911 530.14 455.911" stroke="#808285" stroke-width="2" stroke-miterlimit="10"/>
<path d="M473.311 349.24C473.776 341.322 477.348 327.813 477.658 323C478.124 318.186 476.727 325.018 476.416 304.212C476.261 283.251 474.398 250.333 470.982 235.583C467.566 220.832 468.497 217.882 466.945 212.603" stroke="#808285" stroke-width="2" stroke-miterlimit="10"/>
<path d="M587.123 241.792C583.707 236.669 579.825 227.663 579.36 203.751C578.894 179.84 571.751 174.095 571.286 157.636C570.82 141.177 559.019 135.898 557.001 117.887" stroke="#808285" stroke-width="2" stroke-miterlimit="10"/>
<path d="M629.047 235.893C629.202 229.993 629.357 200.181 626.252 182.325C623.147 164.469 620.041 157.637 616.315 149.718C612.433 141.644 605.912 129.378 604.048 122.235" stroke="#808285" stroke-width="2" stroke-miterlimit="10"/>
<g opacity="0.5">
<path d="M431.698 192.264C433.096 192.574 434.338 193.351 435.58 194.282C436.667 195.369 437.443 196.611 437.909 198.009C438.686 200.804 439.462 203.443 439.928 206.393C440.394 209.188 440.859 212.138 440.549 215.088C440.549 215.865 440.238 216.641 440.083 217.262C439.773 218.039 439.307 218.66 438.686 219.125C437.443 220.212 435.891 220.368 434.493 219.902C435.891 220.057 437.288 219.591 438.22 218.504C439.151 217.573 439.307 216.175 439.307 214.778C439.307 211.983 438.841 209.188 438.375 206.549C437.909 203.754 437.288 200.959 436.667 198.319C436.201 195.835 434.338 193.506 431.698 192.264Z" fill="#AEB0B2"/>
</g>
<path opacity="0.33" d="M160.131 205.77C174.26 201.888 185.285 186.672 189.787 178.753C194.29 170.679 197.396 155.307 199.88 146.146C202.364 137.14 208.575 122.855 210.594 117.576C212.612 112.297 211.37 111.521 212.767 107.173C213.233 105.62 216.494 99.8755 220.531 93.0436C217.736 95.3726 209.662 98.4781 204.538 97.5464C199.414 96.6148 186.682 100.031 177.987 105.465C169.137 110.9 158.889 107.328 152.523 116.8C146.157 126.116 143.827 146.457 143.362 148.165C137.151 150.494 124.419 150.494 119.605 159.033C114.637 167.729 116.5 168.66 114.326 173.318C112.152 177.976 109.202 185.585 109.047 192.417C108.892 199.248 109.513 227.508 107.805 233.097C106.097 238.687 100.818 253.127 100.197 260.736C99.5754 268.344 99.886 300.019 98.4885 308.714C97.0911 317.409 94.762 363.214 94.4515 369.269C94.141 375.325 87.7749 395.2 82.3404 411.814C76.906 428.427 62 460.413 62 460.413H242.269C257.33 437.899 291.024 411.348 311.83 393.181C332.636 375.014 352.2 358.245 357.169 350.171C362.137 342.097 363.535 320.204 368.969 306.54C374.404 293.032 375.18 283.871 379.062 274.555C382.944 265.238 386.67 253.283 387.136 248.935C387.602 244.432 390.241 241.948 391.794 239.153C393.347 236.358 409.184 216.173 408.563 207.012C407.942 198.006 396.763 194.28 387.291 196.298C377.82 198.317 367.727 204.062 357.479 213.844C347.232 223.626 339.934 238.842 339.934 244.898C339.934 250.953 335.12 252.506 329.375 270.052C323.63 287.597 323.63 287.597 317.575 291.79C311.675 295.982 312.14 298.621 308.569 288.218C304.998 277.815 304.377 264.773 304.066 260.425C303.756 256.077 307.017 257.164 308.569 247.072C310.122 236.979 310.898 226.887 317.264 209.496C323.475 192.106 330.307 184.964 338.847 170.058C347.387 155.152 352.511 142.109 354.063 139.78C355.616 137.451 371.454 124.719 367.572 112.297C363.69 99.8755 341.797 93.5094 332.636 99.8755C323.475 106.242 329.997 107.328 312.606 118.197C295.216 129.066 269.131 183.721 266.025 186.361C262.92 189.001 254.38 188.38 254.69 180.927C255.001 173.318 265.715 140.867 267.733 129.532C269.752 118.042 267.578 111.831 274.41 99.565C281.242 87.2986 280 77.6718 281.397 70.8399C282.794 64.0081 284.502 53.2944 284.037 41.3386C283.571 29.3828 278.292 24.2588 276.739 22.7061C275.186 21.1534 269.907 13.0794 257.02 15.8742C244.132 18.6691 244.753 36.2147 244.443 38.5437C244.132 40.7175 241.803 41.9597 240.25 46.9283C238.698 51.897 239.94 58.4183 238.853 61.9895C237.766 65.5608 214.631 103.291 213.078 107.639C211.525 111.987 212.923 112.918 210.904 118.042C208.886 123.166 202.675 137.451 200.191 146.612C197.706 155.618 194.601 171.145 190.098 179.219C185.285 186.672 174.26 201.888 160.131 205.77Z" fill="#E0E1E2"/>
<path d="M242.113 460.258C257.174 437.744 290.868 411.192 311.674 393.026C332.48 374.859 352.044 358.09 357.013 350.016C361.982 341.942 363.379 320.049 368.814 306.385C374.248 292.876 375.024 283.716 378.906 274.399C382.788 265.083 386.514 253.127 386.98 248.78C387.446 244.277 390.086 241.793 391.638 238.998C393.191 236.203 409.029 216.018 408.408 206.857C407.786 197.851 396.607 194.125 387.136 196.143C377.664 198.162 367.571 203.907 357.324 213.689C347.076 223.471 339.778 238.687 339.778 244.743C339.778 250.798 334.965 252.351 329.22 269.896C323.475 287.442 323.475 287.442 317.419 291.634C311.519 295.827 311.985 298.466 308.414 288.063C304.842 277.66 304.221 264.617 303.911 260.27C303.6 255.922 306.861 257.009 308.414 246.916C309.966 236.824 310.743 226.731 317.109 209.341C323.319 191.951 330.151 184.808 338.691 169.902C347.231 154.996 352.355 141.954 353.908 139.625C355.46 137.296 371.298 124.563 367.416 112.142C363.534 99.7202 341.641 93.3541 332.48 99.7202C323.319 106.086 329.841 107.173 312.451 118.042C295.06 128.911 268.975 183.566 265.869 186.206C262.764 188.845 254.224 188.224 254.535 180.771C254.845 173.163 265.559 140.712 267.577 129.377C269.596 117.887 267.422 111.676 274.254 99.4097C281.086 87.1433 279.844 77.5166 281.241 70.6847C282.639 63.8528 284.347 53.1391 283.881 41.1833C283.415 29.2275 278.136 24.1036 276.583 22.5509C275.03 20.9982 269.751 12.9241 256.864 15.719C243.976 18.5138 244.597 36.0594 244.287 38.3884C243.976 40.5622 241.647 41.8044 240.095 46.773C238.542 51.7417 239.784 58.263 238.697 61.8343C237.61 65.4055 214.475 103.136 212.922 107.484C211.37 111.831 212.767 112.763 210.748 117.887C208.73 123.011 202.519 137.296 200.035 146.457C197.551 155.462 194.445 170.989 189.942 179.063C185.439 187.137 174.415 202.199 160.286 206.08" stroke="#808285" stroke-width="2" stroke-miterlimit="10"/>
<path d="M160.131 205.769C174.26 201.887 185.285 186.671 189.787 178.752C194.29 170.678 197.396 155.306 199.88 146.145C202.364 137.14 208.575 122.855 210.594 117.576C212.612 112.296 211.37 111.52 212.767 107.173C213.233 105.62 216.494 99.8749 220.531 93.043C217.736 95.372 209.662 98.4774 204.538 97.5458C199.414 96.6142 186.682 100.03 177.987 105.465C169.137 110.899 158.889 107.328 152.523 116.799C146.157 126.116 143.827 146.456 143.362 148.164C137.151 150.493 124.419 150.493 119.605 159.033C114.637 167.728 116.5 168.66 114.326 173.318C112.152 177.976 109.202 185.584 109.047 192.416C108.892 199.248 109.513 227.507 107.805 233.097C106.097 238.687 100.818 253.127 100.197 260.735C99.5754 268.343 99.886 300.018 98.4885 308.713C97.0911 317.409 94.762 363.213 94.4515 369.269C94.141 375.324 87.7749 395.199 82.3404 411.813C76.906 428.427 62 460.413 62 460.413" stroke="#808285" stroke-width="2" stroke-miterlimit="10"/>
<path d="M217.737 95.0615C214.942 97.3906 209.663 98.4775 204.539 97.5459C199.415 96.6142 186.683 100.03 177.988 105.465C169.137 110.899 158.89 107.328 152.524 116.799C146.157 126.116 143.828 146.456 143.363 148.164C142.897 149.872 140.568 187.913 138.083 197.229C135.599 206.546 134.512 217.104 122.712 225.489" stroke="#808285" stroke-width="2" stroke-miterlimit="10"/>
<g opacity="0.5">
<path d="M405.148 204.061C403.44 202.819 401.732 201.577 399.714 200.956C398.782 200.645 397.695 200.645 396.763 200.645C395.832 200.801 394.9 201.111 393.968 201.732C392.261 202.819 391.018 204.372 389.776 206.08C388.534 207.788 387.602 209.651 386.826 211.514C386.05 213.378 385.584 215.396 385.429 217.57C385.273 218.657 385.273 219.588 385.118 220.675C385.118 221.762 384.963 222.694 385.118 223.625C385.429 225.489 386.671 227.352 388.068 228.905C388.689 229.836 389.31 230.613 389.931 231.544C390.553 232.476 390.863 233.563 391.018 234.65C390.553 232.476 389 231.078 387.602 229.526C386.205 227.973 384.652 226.265 384.031 223.936C383.721 222.849 383.721 221.607 383.876 220.52C383.876 219.433 383.876 218.346 384.031 217.259C384.186 215.086 384.652 212.912 385.584 210.893C386.36 208.875 387.602 207.012 388.845 205.148C390.087 203.44 391.639 201.732 393.658 200.645C394.745 200.18 395.832 199.714 396.919 199.714C398.006 199.714 399.248 199.869 400.179 200.18C402.043 201.111 403.751 202.509 405.148 204.061Z" fill="#AEB0B2"/>
</g>
<path d="M189.787 178.597C194.29 170.523 197.396 155.152 199.88 145.991C202.364 136.985 208.575 122.7 210.594 117.421C212.612 112.142 211.37 111.365 212.767 107.018C214.32 102.67 237.455 64.9396 238.542 61.3684C239.629 57.7972 238.387 51.2759 239.94 46.3072C241.492 41.3386 243.821 40.2517 244.132 37.9226C244.442 35.7488 243.821 18.2033 256.709 15.2532C269.596 12.4583 275.031 20.5323 276.428 22.085C277.981 23.6377 283.26 28.7617 283.726 40.7175C284.192 52.6733 282.328 63.3869 281.086 70.2188C279.689 77.0507 280.931 86.5222 274.099 98.9438C267.267 111.21 269.441 117.576 267.422 128.911C265.404 140.401 254.69 172.697 254.38 180.305" stroke="#2969D0" stroke-width="3" stroke-miterlimit="10" stroke-linecap="round"/>
<g opacity="0.5">
<path d="M248.324 40.2497C250.964 40.5602 253.603 40.0944 256.088 39.4733C258.572 38.8522 261.056 37.9206 263.385 36.6784C264.007 36.3679 264.472 36.0574 265.093 35.7468C265.559 35.4363 265.87 34.9705 266.18 34.5047C266.801 33.573 267.267 32.3309 267.578 31.0887C268.199 28.6044 268.665 25.9648 268.975 23.3252C269.286 25.9648 269.13 28.6044 268.665 31.3992C268.354 32.7967 268.044 34.0388 267.267 35.281C266.957 35.9021 266.336 36.5232 265.714 36.989C265.093 37.2995 264.472 37.7653 264.007 38.0759C261.522 39.318 259.038 40.2497 256.398 40.7155C253.603 41.1813 250.809 41.1813 248.324 40.2497Z" fill="#AEB0B2"/>
</g>
</svg>
