<svg width="850" height="500" viewBox="0 0 850 500" fill="none" xmlns="http://www.w3.org/2000/svg">
<path opacity="0.33" d="M534.23 440.106C530.253 432.003 525.833 427.141 522.298 424.195C520.088 422.28 518.467 421.396 515.226 418.302C511.396 414.767 509.186 411.968 505.945 408.137C498.285 398.856 498.726 400.035 494.307 394.584C487.236 385.892 486.352 383.682 473.093 365.415C467.937 358.343 466.022 355.986 463.517 353.187C461.013 350.536 460.129 349.946 458.508 347.589C457.919 346.558 454.973 342.138 453.794 335.214C453.5 333.152 453.5 330.942 453.5 326.375C453.5 319.893 453.941 317.978 453.5 313.411C453.205 311.054 452.91 309.434 452.321 306.782C450.995 300.594 449.964 298.385 446.428 287.188C444.955 282.474 444.366 280.117 443.776 276.876C443.187 273.93 443.04 271.425 442.893 269.657C442.451 268.037 441.714 265.68 440.977 262.733C439.504 257.283 438.768 254.484 438.62 251.685C438.326 248.738 438.768 246.086 439.504 240.783C439.946 237.542 440.683 233.859 441.567 229.587C441.567 224.725 441.567 220.011 441.567 215.149C440.093 212.056 438.473 208.373 437.147 204.1C435.085 197.766 434.201 192.02 433.759 187.306C434.643 187.011 435.674 186.717 436.558 186.422C439.946 185.096 446.576 183.034 453.205 185.391C456.151 186.422 458.656 188.19 460.571 189.663C462.339 190.842 465.727 193.346 468.526 197.177C470.883 200.418 472.356 203.659 473.83 208.962C476.481 218.096 475.45 219.569 478.249 234.006C479.133 238.426 479.722 241.52 481.49 251.095C482.374 255.515 482.521 256.841 482.521 256.841C482.669 256.841 481.196 246.528 474.566 198.797C474.272 194.23 473.977 189.516 473.682 184.949C474.713 174.637 475.008 166.534 475.155 160.936C475.303 155.633 475.303 147.677 475.303 147.383C475.303 138.544 475.155 138.838 475.303 135.303C475.45 129.41 475.745 123.812 477.218 116.74C478.544 111.142 479.28 107.607 482.374 103.776C483.553 102.156 486.057 99.3567 490.182 97.7362C494.896 95.9683 499.021 96.9996 500.789 97.4415C506.387 98.7674 509.775 102.156 511.101 103.776C513.458 106.428 514.49 109.08 515.226 110.7C516.699 114.531 516.994 117.919 517.141 120.865C517.583 129.852 517.289 137.218 517.141 142.374C516.994 145.468 516.847 150.329 516.699 156.516C517.583 159.61 518.909 164.177 520.53 169.628C524.065 182.297 526.275 190.547 527.748 201.007C529.074 210.288 528.19 209.699 529.811 220.748C530.695 227.082 532.021 234.301 533.199 240.93C533.936 244.613 534.378 247.707 534.82 249.769C535.704 249.18 536.587 248.444 537.471 247.854C534.378 235.037 532.168 224.136 530.842 216.328C528.19 202.333 526.717 190.989 524.507 175.668C523.623 169.775 522.887 162.851 521.266 151.508C520.088 143.7 519.793 142.227 519.056 136.481C518.32 130.294 518.762 132.945 517.436 114.089C516.994 108.932 516.847 107.312 517.583 104.66C517.878 103.482 519.646 96.8523 525.686 93.3166C528.485 91.6961 530.989 91.5488 533.641 91.2541C536.587 90.9595 541.744 90.3702 547.194 93.3166C548.52 94.0532 552.645 96.263 555.297 100.83C556.476 102.892 556.77 104.66 557.507 107.607C558.538 111.879 558.096 113.941 559.422 118.655C559.864 120.423 560.306 121.749 560.6 122.78C560.306 120.276 560.159 116.298 561.19 111.879C562.221 107.459 563.547 101.714 568.408 98.4728C572.386 95.821 576.658 96.1157 578.131 96.263C584.613 96.7049 588.886 100.535 591.832 103.187C598.019 109.522 604.502 121.749 605.533 124.106C605.827 120.865 605.975 118.361 606.564 116.446C607.301 114.383 607.89 112.321 609.658 109.964C610.542 108.785 611.72 107.017 614.077 105.691C614.814 105.249 618.497 103.187 623.064 104.071C626.01 104.66 627.778 105.986 629.546 107.459C633.081 110.111 634.849 113.057 636.617 115.856C638.09 118.361 638.827 119.981 640.742 124.106C645.014 133.682 645.309 134.124 646.34 136.481C650.023 145.173 652.38 154.896 654.443 162.704C657.831 175.815 659.599 184.802 659.599 184.802C660.63 192.462 661.072 201.007 661.956 218.39C662.545 230.471 662.545 234.301 663.724 241.961C665.639 253.6 667.407 254.484 669.027 265.68C669.911 271.573 669.764 273.488 670.5 290.429C671.09 304.425 671.384 305.161 671.826 314C672.563 329.469 672.416 335.214 673.005 373.223C673.3 393.553 673.447 399.151 675.215 407.548C678.014 420.954 683.023 432.15 683.906 433.918C685.085 436.423 686.116 438.485 686.853 439.958C636.028 440.106 585.055 440.106 534.23 440.106Z" fill="#E0E1E2"/>
<path d="M534.23 440.106C530.253 432.003 525.833 427.142 522.298 424.196C520.088 422.28 518.467 421.396 515.226 418.303C511.396 414.767 509.186 411.968 505.945 408.138C498.285 398.857 498.726 400.035 494.307 394.584C487.236 385.893 486.352 383.683 473.093 365.415C467.937 358.344 466.022 355.987 463.517 353.188C461.013 350.536 460.129 349.947 458.508 347.59C457.919 346.558 454.973 342.139 453.794 335.215C453.5 333.152 453.5 330.943 453.5 326.376C453.5 319.894 453.941 317.979 453.5 313.412C453.205 311.055 452.91 309.434 452.321 306.782C450.995 300.595 449.964 298.385 446.428 287.189C444.955 282.475 444.366 280.118 443.776 276.877C443.187 273.93 443.04 271.426 442.893 269.658C442.451 268.037 441.714 265.68 440.977 262.734C439.504 257.283 438.768 254.484 438.62 251.685C438.326 248.739 438.768 246.087 439.504 240.783C439.946 237.542 440.683 233.859 441.567 229.587C441.567 224.726 441.567 220.011 441.567 215.15C440.093 212.056 438.473 208.373 437.147 204.101C435.085 197.766 434.201 192.021 433.759 187.307C434.643 187.012 435.674 186.717 436.558 186.423C439.946 185.097 446.576 183.034 453.205 185.391C456.151 186.423 458.656 188.19 460.571 189.664C462.339 190.842 465.727 193.347 468.526 197.177C470.883 200.418 472.356 203.659 473.83 208.962C476.481 218.096 475.45 219.569 478.249 234.007C479.133 238.426 479.722 241.52 481.49 251.096C482.374 255.515 482.521 256.841 482.521 256.841C482.669 256.841 481.196 246.529 474.566 198.797C474.272 194.231 473.977 189.516 473.682 184.949C474.713 174.637 475.008 166.535 475.155 160.936C475.303 155.633 475.303 147.678 475.303 147.383C475.303 138.544 475.155 138.839 475.303 135.303C475.45 129.41 475.745 123.812 477.218 116.741C478.544 111.143 479.28 107.607 482.374 103.777C483.553 102.156 486.057 99.3571 490.182 97.7366C494.896 95.9688 499.021 97 500.789 97.442C506.387 98.7678 509.775 102.156 511.101 103.777C513.458 106.428 514.49 109.08 515.226 110.701C516.699 114.531 516.994 117.919 517.141 120.866C517.583 129.852 517.289 137.218 517.141 142.374C516.994 145.468 516.847 150.329 516.699 156.517C517.583 159.611 518.909 164.177 520.53 169.628C524.065 182.298 526.275 190.548 527.748 201.007C529.074 210.288 528.19 209.699 529.811 220.748C530.695 227.083 532.021 234.301 533.199 240.931C533.936 244.614 534.378 247.707 534.82 249.77C535.409 249.328 535.998 248.886 536.587 248.444" stroke="#808285" stroke-width="2" stroke-miterlimit="10"/>
<path d="M560.748 123.075C560.454 120.57 560.306 116.593 561.338 112.173C562.369 107.754 563.695 102.008 568.556 98.7672C572.534 96.1155 576.806 96.4101 578.279 96.5575C584.761 96.9994 589.034 100.83 591.98 103.481C598.167 109.816 604.649 122.044 605.681 124.401C605.975 121.16 606.123 118.655 606.712 116.74C607.448 114.678 608.038 112.615 609.806 110.258C610.689 109.08 611.868 107.312 614.225 105.986C614.962 105.544 618.645 103.481 623.212 104.365C626.158 104.955 627.926 106.281 629.694 107.754C633.229 110.405 634.997 113.352 636.765 116.151C638.238 118.655 638.975 120.276 640.89 124.401C645.162 133.976 645.457 134.418 646.488 136.776C650.171 145.467 652.528 155.19 654.59 162.998C657.979 176.11 659.747 185.096 659.747 185.096C660.778 192.757 661.22 201.301 662.104 218.685C662.693 230.765 662.693 234.595 663.872 242.256C665.787 253.894 667.555 254.778 669.175 265.974C670.059 271.867 669.912 273.782 670.648 290.724C671.238 304.719 671.532 305.456 671.974 314.295C672.711 329.763 672.563 335.509 673.153 373.517C673.447 393.847 673.595 399.445 675.362 407.843C678.162 421.249 683.17 432.445 684.054 434.213C685.233 436.717 686.264 438.78 687.001 440.253" stroke="#808285" stroke-width="2" stroke-miterlimit="10"/>
<path d="M628.957 228.998C629.251 217.802 628.073 204.985 627.631 198.209C626.747 185.097 625.421 178.173 622.622 167.124C620.707 159.758 618.644 154.455 615.55 146.5C611.72 136.777 607.89 128.674 605.091 122.929" stroke="#808285" stroke-width="2" stroke-miterlimit="10"/>
<path d="M480.459 338.308C480.754 334.477 481.196 330.205 482.227 325.491C483.258 320.924 484.437 316.946 485.615 313.558C485.026 308.402 484.584 303.098 484.142 297.647C483.111 284.536 482.521 268.92 482.521 257.135" stroke="#808285" stroke-width="2" stroke-miterlimit="10"/>
<path d="M536.882 248.886C537.177 248.591 537.471 248.444 537.766 248.149C534.672 235.332 532.463 224.431 531.137 216.623C528.485 202.628 527.012 191.284 524.802 175.963C523.918 170.07 523.181 163.146 521.561 151.803C520.382 143.995 520.088 142.521 519.351 136.776C518.615 130.589 519.056 133.24 517.731 114.384C517.289 109.227 517.141 107.607 517.878 104.955C518.173 103.777 519.94 97.1472 525.98 93.6115C528.78 91.991 531.284 91.8437 533.936 91.5491C536.882 91.2544 542.038 90.6651 547.489 93.6115C548.815 94.3481 552.94 96.5579 555.592 101.125C556.77 103.187 557.065 104.955 557.801 107.901C558.833 112.174 558.391 114.236 559.717 118.95C560.158 120.718 560.6 122.044 560.895 123.075C565.462 133.093 570.618 140.164 572.091 147.088C575.038 160.789 577.395 170.659 580.194 181.856C581.372 186.422 581.078 224.136 589.475 236.069" stroke="#2969D0" stroke-width="3" stroke-miterlimit="10" stroke-linecap="round"/>
<g opacity="0.5">
<path d="M525.096 99.6504C524.36 100.829 524.065 102.155 523.77 103.333C523.77 103.628 523.77 103.923 523.77 104.217C523.77 104.365 523.77 104.512 523.77 104.512C523.918 104.659 523.623 104.512 523.77 104.512C524.36 104.512 525.096 104.217 525.686 104.07C528.337 103.481 530.989 102.891 533.641 102.597C536.292 102.302 539.092 102.155 541.743 102.155C544.542 102.155 547.194 102.449 549.846 102.744L549.551 102.891C549.404 103.186 549.551 103.039 549.404 102.891C549.404 102.744 549.404 102.597 549.257 102.597C549.257 102.302 549.109 102.155 548.962 101.86C548.815 101.418 548.52 100.829 548.373 100.387C547.931 99.3557 547.341 98.4718 546.605 97.5879C547.489 98.3245 548.225 99.2084 548.815 100.092C549.109 100.534 549.404 100.976 549.699 101.565C549.846 101.86 549.993 102.155 549.993 102.302C549.993 102.449 550.14 102.597 550.14 102.744C550.14 102.891 550.288 103.039 549.993 103.481L549.846 103.628H549.551C546.899 103.481 544.1 103.481 541.449 103.628C538.797 103.628 536.145 103.923 533.493 104.07C530.842 104.365 528.19 104.659 525.538 105.101C524.802 105.248 524.212 105.396 523.476 105.396H523.328C523.328 105.396 523.181 105.396 523.034 105.248C522.886 105.101 522.739 104.954 522.739 104.807C522.592 104.512 522.592 104.365 522.592 104.217C522.592 103.775 522.739 103.481 522.739 103.186C523.623 102.007 524.212 100.534 525.096 99.6504Z" fill="#AEB0B2"/>
</g>
<g opacity="0.5">
<path d="M445.25 215.001C446.134 214.117 447.165 213.233 447.755 212.202C448.344 211.171 448.491 209.845 448.491 208.667C448.344 206.162 448.049 203.658 447.607 201.153C447.165 198.649 446.429 196.292 445.545 193.935C444.661 191.725 442.746 189.957 440.389 188.926C442.893 189.368 445.398 190.841 446.723 193.345C447.902 195.702 448.639 198.207 449.08 200.711C449.522 203.216 449.817 205.867 449.67 208.519C449.522 209.845 449.228 211.171 448.344 212.35C447.313 213.675 446.281 214.412 445.25 215.001Z" fill="#AEB0B2"/>
</g>
<path opacity="0.33" d="M313.841 442.904C315.756 440.547 324.006 432.002 332.993 423.016C341.979 414.029 360.394 382.356 365.845 376.021C371.296 369.686 385.733 354.07 389.268 346.262C392.804 338.454 388.974 313.41 389.268 305.602C389.563 297.794 393.246 260.523 390.742 250.8C388.237 241.077 384.26 237.099 381.019 230.322C377.778 223.546 377.188 221.483 374.242 219.421C371.296 217.358 373.063 199.68 373.653 197.175C374.242 194.671 376.304 183.327 376.304 179.35C376.304 175.372 376.304 164.029 379.398 155.632C382.492 147.234 380.429 122.043 375.126 114.088C369.822 106.132 365.55 104.217 359.215 103.775C352.881 103.333 345.957 109.521 344.189 113.351C342.421 117.181 340.064 120.717 337.412 151.949C333.729 160.346 326.658 167.712 323.564 177.877C320.471 188.042 312.221 213.675 310.305 224.282C308.39 234.889 297.489 249.326 301.908 241.518C306.328 233.858 305.886 215.001 314.136 189.957C322.386 164.913 321.354 166.533 321.354 165.207C321.354 163.881 326.216 159.314 327.836 148.413C330.93 143.404 336.97 118.507 325.774 111.288C325.627 106.132 322.238 102.597 312.957 101.123C303.676 99.6503 300.288 102.007 298.225 107.753C294.837 108.637 289.681 121.159 288.797 131.471C286.293 132.944 274.212 145.172 271.855 149.739C269.498 154.306 262.869 177.287 261.543 183.18C260.217 189.073 251.673 225.903 249.315 229.291C246.958 232.679 245.927 235.036 247.842 227.818C249.757 220.599 258.597 177.14 262.427 169.332C266.257 161.524 266.699 155.042 277.306 139.868C287.913 124.694 286.44 117.329 284.525 112.467C282.61 107.606 281.136 103.481 272.15 102.007C263.163 100.534 258.007 108.047 258.007 108.047C258.007 108.047 252.556 109.668 239.445 123.811C236.646 118.36 232.816 114.235 232.816 114.235C232.816 114.235 230.017 108.342 222.061 107.164C214.106 105.985 210.865 114.529 210.423 117.623C207.771 117.623 202.321 129.851 200.406 142.078C198.49 154.453 195.397 172.131 192.156 182.591C188.915 193.051 186.852 201.742 186.116 209.403C185.379 217.064 181.254 227.818 180.517 237.836C179.781 247.853 168.143 276.58 167.553 285.714C166.817 294.848 167.259 326.08 166.375 333.298C165.491 340.517 164.165 364.825 166.375 378.82C168.585 392.668 167.553 405.485 165.196 412.409C162.839 419.333 154 442.314 154 442.314H313.841V442.904Z" fill="#E0E1E2"/>
<path d="M313.841 442.904C315.756 440.547 324.006 432.002 332.993 423.016C341.979 414.029 360.394 382.356 365.845 376.021C371.296 369.686 385.733 354.07 389.268 346.262C392.804 338.454 388.974 313.41 389.268 305.602C389.563 297.794 393.246 260.523 390.742 250.8C388.237 241.077 384.26 237.099 381.019 230.322C377.778 223.546 377.188 221.483 374.242 219.421C371.296 217.358 373.063 199.68 373.653 197.175C374.242 194.671 376.304 183.327 376.304 179.35C376.304 175.372 376.304 164.029 379.398 155.632C382.492 147.234 380.429 122.043 375.126 114.088C369.822 106.132 365.55 104.217 359.215 103.775C352.881 103.333 345.957 109.521 344.189 113.351C342.421 117.181 340.064 120.717 337.412 151.949C333.729 160.346 326.658 167.712 323.564 177.877C320.471 188.042 312.221 213.675 310.305 224.282C308.39 234.889 297.489 249.326 301.908 241.518C306.328 233.858 305.886 215.001 314.136 189.957C322.386 164.913 321.354 166.533 321.354 165.207C321.354 163.881 326.216 159.314 327.836 148.413C330.93 143.404 336.97 118.507 325.774 111.288C325.627 106.132 322.238 102.597 312.957 101.123C303.676 99.6503 300.288 102.007 298.225 107.753C294.837 108.637 289.681 121.159 288.797 131.471C286.293 132.944 274.212 145.172 271.855 149.739C269.498 154.306 262.869 177.287 261.543 183.18C260.217 189.073 251.673 225.903 249.315 229.291C246.958 232.679 245.927 235.036 247.842 227.818C249.757 220.599 258.597 177.14 262.427 169.332C266.257 161.524 266.699 155.042 277.306 139.868C287.913 124.694 286.44 117.329 284.525 112.467C282.61 107.606 281.136 103.481 272.15 102.007C263.163 100.534 258.007 108.047 258.007 108.047C258.007 108.047 252.556 109.668 239.445 123.811C236.646 118.36 232.816 114.235 232.816 114.235C232.816 114.235 230.017 108.342 222.061 107.164C214.106 105.985 210.865 114.529 210.423 117.623C207.771 117.623 202.321 129.851 200.406 142.078C198.49 154.453 195.397 172.131 192.156 182.591C188.915 193.051 186.852 201.742 186.116 209.403C185.379 217.064 181.254 227.818 180.517 237.836C179.781 247.853 168.143 276.58 167.553 285.714C166.817 294.848 167.259 326.08 166.375 333.298C165.491 340.517 164.165 364.825 166.375 378.82C168.585 392.668 167.553 405.485 165.196 412.409C162.839 419.333 154 442.314 154 442.314" stroke="#808285" stroke-width="2" stroke-miterlimit="10"/>
<path d="M196.723 234.006C200.848 229.586 204.236 222.809 204.531 215.738C204.825 208.667 204.089 171.984 213.37 157.989C222.651 143.994 239.592 124.4 239.592 124.4" stroke="#808285" stroke-width="2" stroke-miterlimit="10"/>
<path d="M361.278 319.892C359.215 316.062 356.711 313.557 356.711 310.611C356.711 307.664 358.331 273.928 360.099 261.848C361.72 249.768 369.97 214.853 372.769 207.635" stroke="#808285" stroke-width="2" stroke-miterlimit="10"/>
</svg>
