<svg width="850" height="500" viewBox="0 0 850 500" fill="none" xmlns="http://www.w3.org/2000/svg">
<path opacity="0.33" d="M690 452.137C682.877 437.135 677.877 423.193 675.907 392.279C673.937 361.365 677.725 358.941 675.907 334.543C674.088 310.145 672.27 315.449 674.088 297.113C675.755 278.776 665.754 254.985 665.602 246.044C665.45 237.103 666.208 206.492 663.48 192.096C660.753 177.7 654.388 168.456 649.842 143.755C645.296 119.054 628.02 102.991 616.958 106.628C605.896 110.265 604.077 121.782 605.441 126.025C600.592 116.478 597.409 110.871 594.379 107.234C591.348 103.597 582.559 99.3542 582.559 99.3542C582.559 99.3542 568.92 96.4749 563.616 108.75C559.222 109.659 559.222 119.206 559.373 121.782C558.312 116.023 556.342 107.84 554.675 105.264C552.857 102.688 549.372 98.5965 544.522 96.4749C539.673 94.3534 527.247 95.1111 524.064 97.6872C520.882 100.263 515.124 105.567 515.578 110.72C516.033 116.023 517.7 120.721 518.003 134.208C518.306 147.695 522.701 176.184 523.61 183.307C524.519 190.429 536.794 256.046 536.794 256.046C536.794 256.046 536.339 257.106 535.581 256.349C534.975 255.591 520.579 175.578 515.427 163.758C517.397 151.181 518.609 115.569 510.426 107.689C506.941 99.8088 485.725 93.5957 477.694 111.326C469.662 128.904 472.238 160.424 470.723 172.548C469.207 184.671 470.874 211.645 472.39 219.676C471.329 211.493 468.601 203.916 463.903 199.218C459.206 194.521 451.477 189.823 446.022 187.853C441.627 186.338 436.02 188.308 433.596 190.732C432.838 191.49 431.777 192.248 430.716 192.399C429.504 192.702 428.443 193.611 428.443 193.611C428.443 196.188 430.413 209.068 437.536 221.798C435.717 224.525 438.142 235.891 436.172 243.922C434.202 251.802 431.929 257.258 435.414 266.35C434.05 268.775 435.869 275.443 438.9 277.867C437.081 283.474 439.354 290.596 445.416 305.447C452.993 324.087 449.204 344.696 454.508 355.304C459.812 365.911 466.177 369.548 473.147 380.459C479.967 391.37 506.638 425.466 517.548 434.104C528.459 442.742 533.005 451.986 533.005 451.986H690V452.137Z" fill="#E0E1E2"/>
<path d="M690 452.137C682.877 437.135 677.877 423.193 675.907 392.279C673.937 361.365 677.725 358.941 675.907 334.543C674.088 310.145 672.27 315.449 674.088 297.113C675.755 278.777 665.754 254.985 665.602 246.044C665.45 237.103 666.208 206.492 663.48 192.096C660.753 177.7 656.661 167.092 649.842 143.755C642.265 117.691 628.02 102.991 616.958 106.628C605.896 110.265 604.077 121.782 605.441 126.025C600.592 116.478 597.409 110.871 594.379 107.234C592.106 104.507 585.892 99.809 580.74 99.0513C576.952 98.4451 567.708 99.2028 563.616 108.598C559.676 109.962 559.222 119.054 559.373 121.631C558.312 115.872 556.342 107.689 554.675 105.113C552.857 102.537 549.372 98.4451 544.522 96.3235C539.673 94.202 527.247 94.9597 524.064 97.5359C520.882 100.112 515.124 105.416 515.578 110.568C516.033 115.872 517.7 120.57 518.003 134.057C518.306 147.544 522.701 176.033 523.61 183.155C524.519 190.278 536.794 255.894 536.794 255.894C536.794 255.894 536.339 256.955 535.581 256.197C534.975 255.44 520.579 175.427 515.427 163.607C517.397 151.029 518.609 115.417 510.426 107.537C506.941 99.6574 485.725 93.4443 477.694 111.174C469.662 128.753 472.238 160.273 470.723 172.396C469.207 184.519 470.874 211.493 472.39 219.525C471.329 211.342 468.601 203.765 463.903 199.067C459.206 194.369 451.477 189.672 446.022 187.702C441.627 186.186 436.02 188.156 433.596 190.732C432.686 191.642 431.474 192.551 430.11 192.702C429.049 192.854 428.443 193.157 428.443 193.157C428.443 195.582 430.11 207.25 436.02 218.919C436.778 220.434 437.233 222.101 436.93 223.768C436.323 228.163 437.839 237.255 436.172 243.771C434.202 251.651 431.929 257.107 435.414 266.199C435.717 271.048 437.233 275.897 438.9 277.716C438.445 284.232 439.354 290.445 445.416 305.296C452.993 323.935 449.204 344.545 454.508 355.152C459.812 365.76 466.177 369.397 473.147 380.308C479.967 391.219 506.638 425.315 517.548 433.953C528.459 442.59 533.005 451.834 533.005 451.834" stroke="#808285" stroke-width="2" stroke-miterlimit="10"/>
<path d="M477.542 347.727C477.997 339.999 481.482 326.815 481.785 322.117C482.24 317.42 480.876 324.087 480.573 303.781C480.421 283.323 478.603 251.197 475.269 236.801C471.935 222.405 472.844 219.525 471.329 214.373" stroke="#808285" stroke-width="2" stroke-miterlimit="10"/>
<path d="M588.62 242.862C585.286 237.861 581.498 229.072 581.043 205.735C580.589 182.398 573.618 176.791 573.163 160.728C572.709 144.664 561.192 139.512 559.222 121.934" stroke="#808285" stroke-width="2" stroke-miterlimit="10"/>
<path d="M629.536 237.103C629.688 231.345 629.84 202.249 626.809 184.822C623.778 167.395 620.747 160.728 617.11 152.999C613.322 145.119 606.957 133.148 605.139 126.177" stroke="#808285" stroke-width="2" stroke-miterlimit="10"/>
<g opacity="0.5">
<path d="M436.93 194.521C438.294 194.825 439.506 195.582 440.718 196.491C441.779 197.552 442.537 198.765 442.991 200.128C443.749 202.856 444.507 205.432 444.961 208.312C445.416 211.039 445.871 213.918 445.567 216.798C445.567 217.555 445.264 218.313 445.113 218.919C444.81 219.677 444.355 220.283 443.749 220.738C442.537 221.799 441.021 221.95 439.657 221.495C441.021 221.647 442.385 221.192 443.294 220.132C444.204 219.222 444.355 217.859 444.355 216.495C444.355 213.767 443.901 211.039 443.446 208.463C442.991 205.735 442.385 203.008 441.779 200.431C441.324 198.007 439.506 195.734 436.93 194.521Z" fill="#AEB0B2"/>
</g>
<path opacity="0.33" d="M278.723 455.924C285.694 447.438 287.209 440.013 295.241 436.831C303.272 433.648 314.335 423.495 320.245 416.676C326.155 409.705 355.856 374.7 363.736 367.88C371.616 361.061 377.072 353.029 378.587 348.786C380.254 344.543 380.709 331.208 382.83 321.206C384.952 311.053 385.558 306.355 390.104 293.02C394.65 279.684 399.5 267.41 396.317 265.44C398.136 263.773 397.681 255.287 397.378 252.862C397.075 250.286 396.469 232.707 397.075 231.495C397.681 230.283 401.621 222.706 403.44 216.493C405.258 210.128 406.016 199.217 404.955 197.55C403.894 195.732 386.013 187.094 368.434 210.734C351.007 234.374 347.825 250.134 350.098 258.924C344.188 262.864 345.855 272.108 342.066 279.381C338.278 286.655 338.732 293.171 338.732 293.171C338.732 293.171 332.065 297.718 329.64 304.537C327.064 311.356 330.852 279.078 333.429 265.591C336.005 252.104 339.036 243.315 345.855 229.374C352.523 215.583 359.796 193.156 361.16 185.579C362.524 178.002 361.16 169.97 368.434 154.665C375.708 139.359 375.405 118.144 369.495 108.445C363.585 98.5953 351.159 97.9891 345.097 104.96C339.036 111.931 335.399 115.871 330.852 130.873C326.306 145.875 326.155 148.906 314.638 169.364C303.121 189.822 287.815 233.314 286.3 235.132C284.785 236.95 280.238 237.102 279.026 234.829C277.814 232.556 276.905 224.676 279.026 217.402C281.148 210.128 285.845 198.763 288.725 181.942C291.604 165.121 292.21 160.12 298.878 146.33C305.545 132.54 305.394 121.781 306.606 118.598C307.819 115.568 319.639 86.0175 307.819 72.2275C307.97 66.7721 289.179 62.0743 283.421 67.6813C277.814 73.2882 274.783 82.9867 273.874 85.866C272.965 88.7452 269.176 96.9283 267.358 106.778C260.538 106.324 251.446 113.143 249.173 115.568C244.93 114.81 239.02 115.719 236.444 117.992C233.867 120.114 230.534 121.478 229.927 121.932C229.321 122.387 227.351 117.235 224.472 115.871C221.744 114.355 216.895 113.598 210.833 119.508C204.772 125.418 203.711 128.752 195.831 135.268C187.951 141.784 171.888 170.273 168.099 182.093C164.159 194.065 162.947 183.912 156.734 210.28C150.521 236.799 152.794 250.286 148.551 260.591C144.308 270.895 139.459 283.928 139.307 300.445C139.155 316.963 141.126 345.907 140.974 363.334C140.822 380.761 145.066 390.46 133.094 419.707C121.122 449.105 114 456.076 114 456.076H278.723V455.924Z" fill="#E0E1E2"/>
<path d="M278.723 455.924C285.694 447.438 287.209 440.013 295.241 436.831C303.272 433.648 314.335 423.495 320.245 416.676C326.155 409.705 355.856 374.7 363.736 367.88C371.616 361.061 377.072 353.029 378.587 348.786C380.254 344.543 380.709 331.208 382.83 321.206C384.952 311.053 385.558 306.355 390.104 293.02C394.65 279.684 399.5 267.41 396.317 265.44C398.136 263.773 397.681 255.287 397.378 252.862C397.075 250.286 396.469 232.707 397.075 231.495C397.681 230.283 401.621 222.706 403.44 216.493C405.258 210.128 406.016 199.217 404.955 197.55C403.894 195.732 386.013 187.094 368.434 210.734C351.007 234.374 347.825 250.134 350.098 258.924C344.188 262.864 345.855 272.108 342.066 279.381C338.278 286.655 338.732 293.171 338.732 293.171C338.732 293.171 332.065 297.718 329.64 304.537C327.064 311.356 330.852 279.078 333.429 265.591C336.005 252.104 339.036 243.315 345.855 229.374C352.523 215.583 359.796 193.156 361.16 185.579C362.524 178.002 361.16 169.97 368.434 154.665C375.708 139.359 375.405 118.144 369.495 108.445C363.585 98.5953 351.159 97.9891 345.097 104.96C339.036 111.931 335.399 115.871 330.852 130.873C326.306 145.875 326.155 148.906 314.638 169.364C303.121 189.822 287.815 233.314 286.3 235.132C284.785 236.95 280.238 237.102 279.026 234.829C277.814 232.556 276.905 224.676 279.026 217.402C281.148 210.128 285.845 198.763 288.725 181.942C291.604 165.121 292.21 160.12 298.878 146.33C305.545 132.54 305.394 121.781 306.606 118.598C307.819 115.568 319.639 86.0175 307.819 72.2275C307.97 66.7721 289.179 62.0743 283.421 67.6813C277.814 73.2882 274.783 82.9867 273.874 85.866C272.965 88.7452 269.176 96.9283 267.358 106.778C260.538 106.324 251.446 113.143 249.173 115.568C244.93 114.81 239.02 115.719 236.444 117.992C233.867 120.114 230.534 121.478 229.927 121.932C229.321 122.387 227.351 117.235 224.472 115.871C221.744 114.355 216.895 113.598 210.833 119.508C204.772 125.418 203.711 128.752 195.831 135.268C187.951 141.784 171.888 170.273 168.099 182.093C164.159 194.065 162.947 183.912 156.734 210.28C150.521 236.799 152.794 250.286 148.551 260.591C144.308 270.895 139.459 283.928 139.307 300.445C139.155 316.963 141.126 345.907 140.974 363.334C140.822 380.761 145.066 390.46 133.094 419.707C121.122 449.105 114 456.076 114 456.076" stroke="#808285" stroke-width="2" stroke-miterlimit="10"/>
<path d="M169.766 237.556C175.221 228.464 175.221 223.312 175.221 218.008C175.221 212.704 175.221 201.49 177.494 194.671C179.767 187.851 179.464 181.941 180.828 175.88C182.192 169.97 183.101 165.424 195.073 154.361C207.044 143.299 207.347 134.964 229.624 121.629" stroke="#808285" stroke-width="2" stroke-miterlimit="10"/>
<path d="M208.408 248.771C215.227 241.648 219.774 226.04 224.926 207.249C230.078 188.458 234.018 168.91 237.352 163C237.352 159.969 240.686 149.209 250.081 135.571C259.628 121.932 266.902 106.627 266.902 106.627C268.872 96.6254 272.509 88.4423 273.418 85.7146C274.328 82.8354 277.358 73.1369 282.965 67.5299C288.572 61.923 307.515 66.6207 307.363 72.0761C319.183 85.8662 307.363 115.416 306.151 118.447C304.939 121.478 305.242 132.237 298.422 146.179C291.755 159.969 290.997 164.97 288.269 181.79C285.39 198.611 280.692 209.977 278.571 217.251C276.449 224.524 277.358 232.404 278.571 234.678" stroke="#2969D0" stroke-width="3" stroke-miterlimit="10" stroke-linecap="round"/>
<g opacity="0.5">
<path d="M401.621 199.369C399.954 199.672 398.439 200.43 397.227 201.339C395.863 202.248 394.802 203.461 393.741 204.673C391.62 207.098 389.953 209.977 388.589 212.856C387.831 214.371 387.377 215.887 386.922 217.402C386.619 218.918 386.619 220.433 386.922 222.1C387.225 223.615 387.983 225.131 388.892 226.495C389.801 227.858 390.862 229.071 392.074 230.132C389.195 228.465 386.77 225.737 385.861 222.403C385.407 220.736 385.255 218.918 385.558 217.251C385.861 215.584 386.467 213.917 387.225 212.402C388.589 209.371 390.559 206.491 392.832 204.067C394.044 202.855 395.408 201.794 396.772 200.885C398.287 199.975 399.954 199.369 401.621 199.369Z" fill="#AEB0B2"/>
</g>
<g opacity="0.5">
<path d="M305.09 74.501C304.484 77.2287 303.423 79.9564 301.908 82.381C300.393 84.8056 298.271 86.9272 295.695 88.4426C294.483 89.2003 292.816 89.6549 291.452 89.8064C289.936 89.9579 288.573 89.8064 287.057 89.6549C284.178 89.3518 281.45 88.4426 278.874 87.3818C281.602 87.8364 284.481 88.291 287.209 88.4426C289.936 88.5941 292.816 88.5941 294.937 87.0787C297.362 85.7148 299.332 83.8964 300.999 81.6233C302.514 79.6533 303.878 77.0771 305.09 74.501Z" fill="#AEB0B2"/>
</g>
</svg>
