<svg width="900" height="500" viewBox="0 0 900 500" fill="none" xmlns="http://www.w3.org/2000/svg">
<path opacity="0.33" d="M694.391 428.438C687.6 414.134 682.831 400.841 680.953 371.365C679.075 341.888 682.687 339.577 680.953 316.314C679.219 293.051 677.485 298.108 679.219 280.624C680.809 263.141 671.272 240.456 671.128 231.931C670.983 223.406 671.706 194.219 669.105 180.493C666.504 166.766 660.435 157.952 656.101 134.4C651.766 110.848 635.294 95.5321 624.746 98.9999C614.198 102.468 612.465 113.449 613.765 117.495C609.141 108.392 606.107 103.046 603.217 99.5778C600.327 96.11 591.947 92.0643 591.947 92.0643C591.947 92.0643 578.943 89.319 573.886 101.023C569.695 101.89 569.695 110.993 569.84 113.449C568.828 107.958 566.95 100.156 565.361 97.6994C563.627 95.2431 560.303 91.3419 555.68 89.319C551.056 87.2961 539.208 88.0186 536.174 90.4749C533.139 92.9312 527.649 97.9884 528.082 102.901C528.516 107.958 530.105 112.437 530.394 125.297C530.683 138.157 534.873 165.321 535.74 172.112C536.607 178.903 548.311 241.468 548.311 241.468C548.311 241.468 547.877 242.479 547.155 241.757C546.577 241.034 532.85 164.743 527.938 153.473C529.816 141.48 530.972 107.525 523.169 100.011C519.846 92.4978 499.617 86.5737 491.959 103.479C484.301 120.24 486.758 150.294 485.313 161.853C483.868 173.413 485.457 199.132 486.902 206.79C485.891 198.987 483.29 191.763 478.811 187.284C474.332 182.804 466.963 178.325 461.761 176.447C457.571 175.002 452.225 176.88 449.913 179.192C449.19 179.915 448.179 180.637 447.167 180.782C446.011 181.07 445 181.937 445 181.937C445 184.394 446.878 196.675 453.669 208.813C451.936 211.414 454.247 222.25 452.369 229.908C450.491 237.422 448.323 242.624 451.647 251.293C450.346 253.605 452.08 259.962 454.97 262.274C453.236 267.62 455.403 274.411 461.183 288.571C468.407 306.344 464.795 325.995 469.852 336.109C474.91 346.223 480.978 349.691 487.625 360.094C494.127 370.498 519.557 403.008 529.96 411.244C540.364 419.48 544.698 428.294 544.698 428.294H694.391V428.438Z" fill="#E0E1E2"/>
<path d="M694.391 428.438C687.6 414.134 682.831 400.841 680.953 371.365C679.075 341.888 682.687 339.577 680.953 316.314C679.219 293.051 677.485 298.108 679.219 280.624C680.809 263.141 671.272 240.456 671.128 231.931C670.983 223.406 671.706 194.219 669.105 180.492C666.504 166.766 662.603 156.652 656.101 134.4C648.876 109.548 635.294 95.532 624.746 98.9998C614.198 102.468 612.465 113.449 613.765 117.495C609.141 108.392 606.107 103.046 603.217 99.5778C601.05 96.9769 595.126 92.4977 590.213 91.7753C586.601 91.1973 577.787 91.9198 573.886 100.878C570.129 102.179 569.695 110.848 569.84 113.304C568.828 107.814 566.95 100.011 565.361 97.5549C563.627 95.0986 560.303 91.1973 555.68 89.1745C551.056 87.1516 539.208 87.874 536.174 90.3304C533.139 92.7867 527.649 97.8439 528.082 102.757C528.516 107.814 530.105 112.293 530.394 125.153C530.683 138.012 534.873 165.177 535.74 171.968C536.607 178.759 548.311 241.323 548.311 241.323C548.311 241.323 547.877 242.334 547.155 241.612C546.577 240.89 532.85 164.599 527.938 153.328C529.816 141.336 530.972 107.38 523.169 99.8668C519.846 92.3532 499.617 86.4291 491.959 103.335C484.301 120.095 486.758 150.149 485.313 161.709C483.868 173.268 485.457 198.987 486.902 206.645C485.891 198.843 483.29 191.618 478.811 187.139C474.332 182.66 466.963 178.181 461.761 176.302C457.571 174.857 452.225 176.736 449.913 179.192C449.046 180.059 447.89 180.926 446.589 181.07C445.578 181.215 445 181.504 445 181.504C445 183.816 446.589 194.942 452.225 206.067C452.947 207.512 453.38 209.102 453.091 210.691C452.513 214.881 453.958 223.551 452.369 229.764C450.491 237.277 448.323 242.479 451.647 251.148C451.936 255.772 453.38 260.396 454.97 262.13C454.536 268.343 455.403 274.267 461.183 288.427C468.407 306.199 464.795 325.85 469.852 335.964C474.91 346.079 480.978 349.546 487.625 359.95C494.127 370.353 519.557 402.863 529.96 411.099C540.364 419.335 544.698 428.149 544.698 428.149" stroke="#75819C" stroke-width="2" stroke-miterlimit="10"/>
<path d="M491.815 328.884C492.248 321.515 495.571 308.944 495.86 304.465C496.294 299.986 494.994 306.344 494.705 286.982C494.56 267.476 492.826 236.844 489.647 223.117C486.469 209.39 487.336 206.645 485.891 201.732" stroke="#75819C" stroke-width="2" stroke-miterlimit="10"/>
<path d="M597.726 228.897C594.548 224.129 590.935 215.749 590.502 193.497C590.068 171.245 583.422 165.899 582.988 150.583C582.555 135.267 571.574 130.355 569.695 113.594" stroke="#75819C" stroke-width="2" stroke-miterlimit="10"/>
<path d="M636.739 223.406C636.883 217.915 637.028 190.173 634.138 173.557C631.248 156.94 628.358 150.583 624.89 143.213C621.278 135.7 615.209 124.285 613.476 117.639" stroke="#75819C" stroke-width="2" stroke-miterlimit="10"/>
<g opacity="0.5">
<path d="M453.092 182.805C454.392 183.094 455.548 183.816 456.704 184.683C457.715 185.695 458.438 186.85 458.871 188.151C459.594 190.752 460.316 193.208 460.75 195.953C461.183 198.554 461.617 201.299 461.328 204.045C461.328 204.767 461.039 205.49 460.894 206.068C460.605 206.79 460.172 207.368 459.594 207.802C458.438 208.813 456.993 208.957 455.693 208.524C456.993 208.669 458.293 208.235 459.16 207.224C460.027 206.357 460.172 205.056 460.172 203.756C460.172 201.155 459.738 198.554 459.305 196.098C458.871 193.497 458.293 190.896 457.716 188.44C457.282 186.128 455.548 183.961 453.092 182.805Z" fill="#75819C"/>
</g>
<path opacity="0.33" d="M288.362 457.603C292.468 451.672 321.973 401.939 329.121 392.661C336.269 383.384 348.893 373.65 352.999 368.023C357.105 362.244 374.291 338.67 381.287 328.48C388.283 318.29 406.23 296.542 409.119 287.416C412.009 278.291 410.64 262.474 411.705 257.455C412.77 252.588 417.18 225.212 418.701 219.737C420.222 214.262 422.351 204.833 423.872 199.966C425.393 195.099 420.678 180.194 423.872 171.982C427.066 163.769 437.104 147.191 434.974 138.674C432.845 130.157 413.378 127.876 399.842 141.716C386.306 155.556 378.702 168.94 376.573 177.609C374.443 186.278 376.42 190.536 375.964 192.057C375.508 193.578 373.227 194.034 372.162 197.532C371.097 201.03 366.231 228.102 364.71 230.535C363.341 233.121 360.299 235.402 359.235 238.14C358.17 240.877 357.866 194.338 360.603 182.324C363.493 170.309 379.614 126.203 382.048 117.534C384.481 108.865 384.785 97.7626 388.131 87.1164C391.477 76.4703 397.865 39.817 387.067 26.4333C376.268 13.0495 362.58 20.9581 359.082 27.65C355.584 34.3418 352.543 39.817 351.326 49.2465C350.261 58.6759 349.957 67.9533 347.22 75.4056C344.482 82.858 330.794 104.607 328.969 109.625C327.144 114.644 310.414 152.666 308.893 153.883C307.373 155.1 302.81 153.123 300.681 147.191C298.703 141.26 296.422 117.23 296.422 117.23C296.422 117.23 297.791 116.013 297.943 114.492C298.095 113.123 305.243 118.903 316.954 110.842C328.817 102.781 325.775 91.9832 322.429 86.6601C319.083 81.3371 316.194 72.668 312.848 69.3221C309.502 65.9762 300.833 59.5885 287.753 58.9801C274.826 58.3718 254.902 62.3261 249.427 68.2575C243.952 74.1889 240.758 84.0747 240.454 86.356C237.564 86.2039 235.587 86.9643 230.416 86.508C225.245 86.0518 220.834 84.8351 214.903 85.5955C208.972 86.356 207.451 88.181 202.584 88.0289C197.717 87.8768 190.113 94.5687 187.071 106.736C181.596 107.496 178.098 111.298 173.079 114.949C168.06 118.599 161.368 124.986 156.501 130.005C151.634 135.024 146.92 134.264 143.726 145.518C140.532 156.773 142.661 178.217 143.726 183.388C144.79 188.559 151.938 208.179 151.026 216.695C150.113 225.212 148.593 240.877 151.482 254.109C154.372 267.341 159.087 287.112 159.847 295.325C160.608 303.538 166.691 336.237 165.17 350.685C163.649 365.133 154.828 388.403 151.482 396.92C148.136 405.437 130.798 442.394 120 457.755H288.362V457.603Z" fill="#E0E1E2"/>
<path d="M288.362 457.603C292.468 451.672 321.973 401.939 329.121 392.661C336.269 383.384 348.893 373.65 352.999 368.023C357.105 362.244 374.291 338.67 381.287 328.48C388.283 318.29 406.23 296.542 409.119 287.416C412.009 278.291 410.64 262.474 411.705 257.455C412.77 252.588 417.18 225.212 418.701 219.737C420.222 214.262 422.351 204.833 423.872 199.966C425.393 195.099 420.678 180.194 423.872 171.982C427.066 163.769 437.104 147.191 434.974 138.674C432.845 130.157 413.378 127.876 399.842 141.716C386.306 155.556 378.702 168.94 376.573 177.609C374.443 186.278 376.42 190.536 375.964 192.057C375.508 193.578 373.227 194.034 372.162 197.532C371.097 201.03 366.231 228.102 364.71 230.535C363.341 233.121 360.299 235.402 359.235 238.14C358.17 240.877 357.866 194.338 360.603 182.324C363.493 170.309 379.614 126.203 382.048 117.534C384.481 108.865 384.785 97.7626 388.131 87.1164C391.477 76.4703 397.865 39.817 387.067 26.4333C376.268 13.0495 362.58 20.9581 359.082 27.65C355.584 34.3418 352.543 39.817 351.326 49.2465C350.261 58.6759 349.957 67.9533 347.22 75.4056C344.482 82.858 330.794 104.607 328.969 109.625C327.144 114.644 310.414 152.666 308.893 153.883C307.373 155.1 302.81 153.123 300.681 147.191C298.703 141.26 296.422 117.23 296.422 117.23C296.422 117.23 297.791 116.013 297.943 114.492C298.095 113.123 305.243 118.903 316.954 110.842C328.817 102.781 325.775 91.9832 322.429 86.6601C319.083 81.3371 316.194 72.668 312.848 69.3221C309.502 65.9762 300.833 59.5885 287.753 58.9801C274.826 58.3718 254.902 62.3261 249.427 68.2575C243.952 74.1889 240.758 84.0747 240.454 86.356C237.564 86.2039 235.587 86.9643 230.416 86.508C225.245 86.0518 220.834 84.8351 214.903 85.5955C208.972 86.356 207.451 88.181 202.584 88.0289C197.717 87.8768 190.113 94.5687 187.071 106.736C181.596 107.496 178.098 111.298 173.079 114.949C168.06 118.599 161.368 124.986 156.501 130.005C151.634 135.024 146.92 134.264 143.726 145.518C140.532 156.773 142.661 178.217 143.726 183.388C144.79 188.559 151.938 208.179 151.026 216.695C150.113 225.212 148.593 240.877 151.482 254.109C154.372 267.341 159.087 287.112 159.847 295.325C160.608 303.538 166.691 336.237 165.17 350.685C163.649 365.133 154.828 388.403 151.482 396.92C148.136 405.437 130.798 442.394 120 457.755" stroke="#75819C" stroke-width="2" stroke-miterlimit="10"/>
<path d="M361.06 182.171C363.949 170.156 380.071 126.051 382.504 117.382C384.937 108.713 385.242 97.6102 388.588 86.964C391.933 76.3179 398.321 39.6647 387.523 26.2809C376.725 12.8972 363.037 20.8057 359.539 27.4976C356.041 34.1895 352.999 39.6647 351.782 49.0941C350.718 58.5236 350.413 67.801 347.676 75.2533C344.938 82.7056 331.25 104.454 329.425 109.473C327.6 114.492 310.87 152.514 309.35 153.731" stroke="#F69AED" stroke-width="3" stroke-miterlimit="10" stroke-linecap="round"/>
<path d="M184.332 185.365C187.222 180.042 187.222 146.583 186.462 135.328C185.853 124.074 187.526 106.432 187.526 106.432" stroke="#75819C" stroke-width="2" stroke-miterlimit="10"/>
<path d="M227.982 167.114C232.697 162.399 238.628 156.164 237.412 135.023C236.195 113.883 241.062 86.2031 241.062 86.2031" stroke="#75819C" stroke-width="2" stroke-miterlimit="10"/>
<g opacity="0.5">
<path d="M431.933 138.825C430.26 137.76 428.282 137.304 426.305 137.152C424.328 137 422.351 137.456 420.83 138.369C417.484 140.194 416.268 144.148 415.051 147.95C414.442 149.775 414.138 151.752 413.834 153.729C413.53 155.707 413.53 157.684 413.682 159.509C413.682 159.965 413.834 160.421 413.986 160.725C414.138 161.03 414.595 161.486 414.899 161.942L416.724 164.376C417.941 166.049 419.157 167.569 420.222 169.242C418.853 167.874 417.484 166.353 416.115 164.832L414.138 162.551C413.834 162.094 413.53 161.942 413.074 161.334C412.769 160.725 412.617 160.269 412.465 159.661C411.857 155.554 412.465 151.448 413.53 147.494C414.138 145.517 414.747 143.692 415.811 141.714C416.724 139.889 418.397 138.216 420.222 137.304C422.199 136.391 424.328 136.087 426.305 136.391C427.37 136.543 428.282 136.848 429.195 137.152C430.26 137.608 431.172 138.064 431.933 138.825Z" fill="#75819C"/>
</g>
<g opacity="0.5">
<path d="M386.609 31.756C386.609 33.429 386.305 35.254 385.545 36.7749C384.784 38.2958 383.568 39.6646 382.047 40.7292C381.286 41.1855 380.526 41.6417 379.613 41.9459C378.701 42.098 377.788 42.2501 377.028 42.4022C375.355 42.5543 373.53 42.7063 371.857 42.7063C370.184 42.7063 368.359 42.5543 366.686 42.4022C365.773 42.2501 365.013 42.098 364.1 41.9459C363.188 41.6417 362.427 41.4896 361.515 40.7292C360.755 39.9688 360.45 39.0562 360.298 38.1437C360.146 37.2312 360.146 36.3186 360.298 35.5582C360.602 33.8852 361.059 32.2123 361.667 30.6914C361.363 32.3644 361.059 34.0373 360.907 35.7103C360.907 37.3833 361.059 39.2083 362.123 39.9688C363.188 40.7292 365.013 41.0334 366.686 41.1855C368.359 41.3376 370.032 41.4896 371.705 41.4896C373.378 41.4896 375.051 41.4896 376.724 41.3375C377.484 41.3375 378.397 41.1855 379.157 41.0334C379.918 40.8813 380.678 40.5771 381.286 40.1209C384.176 38.1437 386.153 35.1019 386.609 31.756Z" fill="#75819C"/>
</g>
<path d="M296.878 116.926C295.053 111.147 296.878 81.1855 296.878 81.1855" stroke="#75819C" stroke-width="2" stroke-miterlimit="10"/>
</svg>
