<svg width="900" height="500" viewBox="0 0 900 500" fill="none" xmlns="http://www.w3.org/2000/svg">
<path opacity="0.33" d="M327.41 430.326C329.284 428.019 337.356 419.658 346.15 410.864C354.943 402.071 372.963 371.077 378.297 364.879C383.631 358.68 397.758 343.399 401.218 335.759C404.677 328.119 400.929 303.612 401.218 295.972C401.506 288.332 405.11 251.86 402.659 242.346C400.209 232.831 396.316 228.939 393.145 222.308C389.973 215.677 389.397 213.659 386.514 211.64C383.631 209.622 385.36 192.323 385.937 189.873C386.514 187.422 388.532 176.322 388.532 172.43C388.532 168.538 388.532 157.438 391.559 149.221C394.586 141.004 392.568 116.353 387.379 108.569C382.189 100.784 378.008 98.9101 371.81 98.4776C365.611 98.0452 358.836 104.1 357.106 107.848C355.376 111.596 353.069 115.056 350.475 145.617C346.871 153.834 339.951 161.041 336.924 170.988C333.897 180.935 325.824 206.018 323.95 216.398C322.076 226.777 311.408 240.904 315.733 233.264C320.058 225.768 319.625 207.316 327.698 182.809C335.771 158.303 334.762 159.888 334.762 158.591C334.762 157.293 339.519 152.825 341.104 142.157C344.132 137.256 350.042 112.893 339.086 105.83C338.942 100.784 335.627 97.3244 326.545 95.8828C317.463 94.4413 314.147 96.7478 312.129 102.37C308.813 103.235 303.768 115.488 302.903 125.579C300.452 127.021 288.632 138.986 286.325 143.454C284.019 147.923 277.532 170.412 276.234 176.178C274.937 181.944 266.576 217.983 264.269 221.299C261.963 224.614 260.954 226.921 262.828 219.857C264.702 212.794 273.351 170.267 277.099 162.627C280.847 154.987 281.28 148.644 291.659 133.796C302.038 118.948 300.597 111.74 298.723 106.983C296.848 102.226 295.407 98.1893 286.613 96.7478C277.82 95.3062 272.774 102.658 272.774 102.658C272.774 102.658 267.441 104.244 254.611 118.083C251.872 112.749 248.124 108.713 248.124 108.713C248.124 108.713 245.385 102.946 237.6 101.793C229.816 100.64 226.644 109.001 226.212 112.028C223.617 112.028 218.283 123.993 216.409 135.958C214.535 148.067 211.508 165.366 208.336 175.601C205.165 185.836 203.147 194.342 202.426 201.838C201.705 209.334 197.669 219.857 196.948 229.66C196.227 239.463 184.839 267.573 184.262 276.511C183.542 285.448 183.974 316.01 183.109 323.073C182.244 330.137 180.947 353.923 183.109 367.618C185.271 381.168 184.262 393.71 181.956 400.485C179.649 407.261 171 429.749 171 429.749H327.41V430.326Z" fill="#E0E1E2"/>
<path d="M327.41 430.326C329.284 428.019 337.356 419.658 346.15 410.864C354.943 402.071 372.963 371.077 378.297 364.879C383.631 358.68 397.758 343.399 401.218 335.759C404.677 328.119 400.929 303.612 401.218 295.972C401.506 288.332 405.11 251.86 402.659 242.346C400.209 232.831 396.316 228.939 393.145 222.308C389.973 215.677 389.397 213.659 386.514 211.64C383.631 209.622 385.36 192.323 385.937 189.873C386.514 187.422 388.532 176.322 388.532 172.43C388.532 168.538 388.532 157.438 391.559 149.221C394.586 141.004 392.568 116.353 387.379 108.569C382.189 100.784 378.008 98.9101 371.81 98.4776C365.611 98.0452 358.836 104.1 357.106 107.848C355.376 111.596 353.069 115.056 350.475 145.617C346.871 153.834 339.951 161.041 336.924 170.988C333.897 180.935 325.824 206.018 323.95 216.398C322.076 226.777 311.408 240.904 315.733 233.264C320.058 225.768 319.625 207.316 327.698 182.809C335.771 158.303 334.762 159.888 334.762 158.591C334.762 157.293 339.519 152.825 341.104 142.157C344.132 137.256 350.042 112.893 339.086 105.83C338.942 100.784 335.627 97.3244 326.545 95.8828C317.463 94.4413 314.147 96.7478 312.129 102.37C308.813 103.235 303.768 115.488 302.903 125.579C300.452 127.021 288.632 138.986 286.325 143.454C284.019 147.923 277.532 170.412 276.234 176.178C274.937 181.944 266.576 217.983 264.269 221.299C261.963 224.614 260.954 226.921 262.828 219.857C264.702 212.794 273.351 170.267 277.099 162.627C280.847 154.987 281.28 148.644 291.659 133.796C302.038 118.948 300.597 111.74 298.723 106.983C296.848 102.226 295.407 98.1893 286.613 96.7478C277.82 95.3062 272.774 102.658 272.774 102.658C272.774 102.658 267.441 104.244 254.611 118.083C251.872 112.749 248.124 108.713 248.124 108.713C248.124 108.713 245.385 102.946 237.6 101.793C229.816 100.64 226.644 109.001 226.212 112.028C223.617 112.028 218.283 123.993 216.409 135.958C214.535 148.067 211.508 165.366 208.336 175.601C205.165 185.836 203.147 194.342 202.426 201.838C201.705 209.334 197.669 219.857 196.948 229.66C196.227 239.463 184.839 267.573 184.262 276.511C183.542 285.448 183.974 316.01 183.109 323.073C182.244 330.137 180.947 353.923 183.109 367.618C185.271 381.168 184.262 393.71 181.956 400.485C179.649 407.261 171 429.749 171 429.749" stroke="#75819C" stroke-width="2" stroke-miterlimit="10"/>
<path d="M212.805 225.912C216.841 221.587 220.157 214.956 220.445 208.036C220.733 201.117 220.012 165.222 229.094 151.527C238.176 137.832 254.754 118.659 254.754 118.659" stroke="#75819C" stroke-width="2" stroke-miterlimit="10"/>
<path d="M373.827 309.956C371.809 306.207 369.358 303.757 369.358 300.874C369.358 297.991 370.944 264.979 372.674 253.158C374.26 241.337 382.332 207.172 385.071 200.108" stroke="#75819C" stroke-width="2" stroke-miterlimit="10"/>
<path opacity="0.33" d="M530.592 426.554C528.369 422.942 524.619 417.108 519.479 410.579C513.228 402.8 510.589 400.994 504.06 393.215C497.809 385.713 493.78 379.462 489.613 372.933C481.695 360.57 482.806 360.015 475.166 348.624C471.832 343.623 469.748 340.845 463.081 330.982C458.219 323.62 456.274 320.425 454.607 315.702C454.051 314.035 453.079 310.979 451.968 301.533C451.134 294.17 451.69 287.225 450.44 280.001C450.023 277.64 449.606 275.834 449.328 274.862C448.495 271.805 447.8 270.277 446.967 268.055C446.272 266.11 444.189 260.693 443.494 254.025C443.216 252.08 443.077 249.58 443.216 246.801C442.383 245.273 441.549 243.745 440.855 242.217C440.438 240.689 440.16 238.883 440.021 236.8C439.882 233.049 440.438 229.854 441.133 227.77C443.633 223.603 445.994 219.297 448.495 215.129C451.829 209.99 455.163 204.989 458.497 199.849C458.774 198.599 459.191 196.654 459.608 194.293C460.997 186.513 461.275 184.291 462.247 180.401C463.497 175.678 463.914 173.317 465.303 171.233C467.526 168.038 470.582 166.371 472.666 165.677C472.388 162.898 472.11 158.453 471.693 153.036C470.165 132.616 470.582 133.171 469.61 122.336C469.61 122.197 468.637 111.64 467.804 98.0265C467.526 93.8591 467.387 90.803 468.082 86.6357C468.776 83.1629 469.887 76.634 475.166 70.9386C477.25 68.5771 480.584 65.1043 486.001 64.2708C491.141 63.5763 495.308 65.7989 496.836 66.7712C498.781 68.0215 499.892 69.2717 501.004 70.5219C501.837 71.3553 504.893 74.8281 507.255 81.0792C508.783 84.9687 509.199 88.0248 509.616 91.2198C510.589 97.6097 509.894 99.2767 510.866 108.445C511.144 111.362 511.283 112.89 511.7 114.974C512.672 120.391 514.2 124.281 516.423 129.56C519.757 137.616 521.007 140.534 522.118 143.451C525.174 150.952 526.564 156.37 529.342 166.649C531.148 173.317 533.092 181.79 534.898 191.792C535.732 191.653 536.426 191.375 537.26 191.236C537.676 189.431 538.093 187.486 538.51 185.68C538.232 178.595 538.232 171.094 538.788 163.454C538.788 162.482 538.927 161.648 539.066 160.676C538.51 158.87 538.093 157.342 537.815 156.231C536.426 150.813 536.704 143.729 536.565 142.478C536.287 140.95 535.315 140.256 534.481 139.006C533.787 138.033 533.092 136.505 533.092 134.144C531.981 132.893 530.731 131.226 529.62 129.004C529.481 128.865 527.814 125.392 527.397 122.058C526.425 114.557 532.12 107.75 533.092 106.639C533.509 105.805 534.204 104.555 535.315 103.444C539.621 98.9988 545.733 98.9988 547.4 98.9988C551.151 98.9988 554.068 100.11 556.013 101.082C558.791 101.221 561.708 101.499 564.764 101.777C569.487 102.194 574.071 102.888 578.239 103.583C580.184 103.166 583.379 102.749 587.129 103.583C593.519 104.972 597.409 109.001 598.798 110.529C600.604 111.223 606.716 114.696 607.688 115.39C609.772 115.946 611.994 116.641 614.356 117.613C618.523 119.28 621.857 121.364 624.358 123.308C625.747 123.725 627.136 124.003 628.525 124.42C628.525 122.753 628.386 120.252 628.525 117.196C628.664 113.862 628.664 112.196 628.942 110.945C630.192 105.944 633.387 102.888 634.498 101.916C636.026 100.527 637.554 99.8323 638.527 99.2767C638.943 98.5821 639.638 97.6097 640.749 96.7763C643.527 94.8315 646.861 95.526 647.973 95.665C652.696 96.6373 655.196 100.388 655.752 101.36C656.724 102.749 656.724 103.305 658.391 107.611C659.502 110.39 660.475 112.751 661.169 114.14C664.225 118.863 666.17 123.031 667.42 126.226C668.948 130.254 671.449 141.089 672.838 147.896C675.477 160.259 678.95 174.845 678.533 186.375C678.117 195.959 676.589 203.739 673.81 217.074C672.977 221.103 672.004 225.409 671.588 231.521C671.171 236.8 671.449 240.689 671.449 242.634C671.727 251.663 671.032 259.72 669.504 275.695C668.115 290.281 667.143 292.92 666.726 304.311C666.448 311.118 666.865 310.284 666.587 316.257C666.031 330.565 664.086 333.482 663.253 346.679C662.558 356.264 662.975 363.626 663.253 368.21C663.531 372.656 663.948 381.407 665.892 390.575C667.559 399.049 671.31 412.107 680.478 427.109C630.609 426.554 580.6 426.554 530.592 426.554Z" fill="#E0E1E2"/>
<g opacity="0.5">
<path d="M462.248 199.433C463.776 198.738 465.165 197.905 466.415 196.933C467.527 195.96 468.36 194.571 469.193 193.182C470.721 190.404 471.416 187.209 472.527 184.014C472.527 185.681 472.388 187.348 472.111 189.015C471.833 190.681 471.277 192.348 470.444 193.876C469.61 195.404 468.638 196.932 467.11 197.905C465.582 198.738 463.915 199.294 462.248 199.433Z" fill="#75819C"/>
</g>
<path d="M530.592 426.554C528.369 422.942 524.619 417.108 519.479 410.579C513.228 402.8 510.589 400.994 504.06 393.215C497.809 385.714 493.78 379.462 489.613 372.934C481.695 360.57 482.806 360.015 475.166 348.624C471.832 343.623 469.748 340.845 463.081 330.982C458.219 323.62 456.274 320.425 454.607 315.702C454.051 314.035 453.079 310.979 451.968 301.533C451.134 294.17 451.69 287.225 450.44 280.001C450.023 277.64 449.606 275.834 449.328 274.862C448.495 271.806 447.8 270.278 446.967 268.055C446.272 266.11 444.189 260.693 443.494 254.025C443.216 252.08 443.077 249.58 443.216 246.801C442.383 245.273 441.549 243.745 440.855 242.217C440.438 240.689 440.16 238.883 440.021 236.8C439.882 233.049 440.438 229.854 441.133 227.77C443.633 223.603 445.994 219.297 448.495 215.129C451.829 209.99 455.163 204.989 458.497 199.849C458.774 198.599 459.191 196.654 459.608 194.293C460.997 186.514 461.275 184.291 462.247 180.401C463.497 175.678 463.914 173.317 465.303 171.233C467.526 168.038 470.582 166.371 472.666 165.677" stroke="#75819C" stroke-width="2" stroke-miterlimit="10"/>
<path d="M536.148 191.098C536.565 190.959 536.982 190.959 537.399 190.82C537.815 189.014 538.232 187.07 538.649 185.264C538.371 178.179 538.371 170.678 538.927 163.038C538.927 162.065 539.066 161.232 539.204 160.26C538.649 158.454 538.232 156.926 537.954 155.814C536.565 150.397 536.843 143.312 536.704 142.062C536.426 140.534 535.454 139.839 534.62 138.589C533.926 137.617 533.231 136.089 533.231 133.727C532.12 132.477 530.87 130.81 529.758 128.588C529.62 128.449 527.953 124.976 527.536 121.642C526.563 114.141 532.259 107.334 533.231 106.223C533.648 105.389 534.343 104.139 535.454 103.028C539.76 98.5825 545.872 98.5825 547.539 98.5825C551.29 98.5825 554.207 99.6938 556.152 100.666C558.93 100.805 561.847 101.083 564.903 101.361C569.626 101.778 574.21 102.472 578.378 103.167C580.322 102.75 583.517 102.333 587.268 103.167C593.658 104.556 597.548 108.584 598.937 110.112C600.743 110.807 606.855 114.28 607.827 114.974C609.911 115.53 612.133 116.224 614.495 117.197C618.662 118.864 621.996 120.947 624.497 122.892C625.886 123.309 627.275 123.587 628.664 124.003C628.664 122.337 628.525 119.836 628.664 116.78C628.803 113.446 628.803 111.779 629.081 110.529C630.331 105.528 633.526 102.472 634.637 101.5C636.165 100.111 637.693 99.416 638.666 98.8604C639.082 98.1658 639.777 97.1934 640.888 96.3599C643.666 94.4152 647 95.1097 648.112 95.2486C652.835 96.221 655.335 99.9717 655.891 100.944C656.863 102.333 656.863 102.889 658.53 107.195C659.641 109.973 660.614 112.335 661.308 113.724C664.364 118.447 666.309 122.614 667.559 125.809C669.087 129.838 671.588 140.673 672.977 147.48C675.616 159.843 679.089 174.429 678.672 185.958C678.256 195.543 676.727 203.322 673.949 216.658C673.116 220.686 672.143 224.993 671.727 231.105C671.31 236.383 671.588 240.273 671.588 242.218C671.866 251.247 671.171 259.304 669.643 275.279C668.254 289.865 667.281 292.504 666.865 303.895C666.587 310.701 667.004 309.868 666.726 315.841C666.17 330.149 664.225 333.066 663.392 346.263C662.697 355.848 663.114 363.21 663.392 367.794C663.67 372.239 664.086 380.991 666.031 390.159C667.698 398.633 671.449 411.69 680.617 426.693" stroke="#75819C" stroke-width="2" stroke-miterlimit="10"/>
<path d="M479.055 285.003C481.139 280.974 483.917 274.862 485.307 267.083C486.279 261.943 486.279 257.915 486.418 252.914C486.418 247.219 486.279 239.44 484.89 230.271C484.473 223.881 484.195 217.492 483.778 211.102" stroke="#75819C" stroke-width="2" stroke-miterlimit="10"/>
<path d="M483.917 211.101C482.25 205.406 480.445 199.433 478.917 193.181C476.833 185.263 474.194 172.9 472.666 165.538C472.388 162.76 472.11 158.315 471.693 152.897C470.165 132.477 470.582 133.033 469.609 122.197C469.609 122.058 468.637 111.501 467.804 97.8878C467.526 93.7204 467.387 90.6644 468.081 86.497C468.776 83.0242 469.887 76.4953 475.166 70.7999C477.25 68.4384 480.584 64.9656 486.001 64.1321C491.141 63.4376 495.308 65.6602 496.836 66.6326C498.781 67.8828 499.892 69.133 501.004 70.3832C501.837 71.2167 504.893 74.6895 507.255 80.9405C508.783 84.83 509.199 87.8861 509.616 91.0811C510.589 97.4711 509.894 99.138 510.866 108.306C511.144 111.223 511.283 112.751 511.7 114.835C512.672 120.253 514.2 124.142 516.423 129.421C519.757 137.478 521.007 140.395 522.118 143.312C525.174 150.813 526.563 156.231 529.342 166.51C531.148 173.178 533.092 181.652 534.898 191.653C535.315 191.515 535.593 191.515 536.009 191.376" stroke="#F69AED" stroke-width="3" stroke-miterlimit="10" stroke-linecap="round"/>
<path d="M578.101 103.167C579.768 103.862 582.963 105.667 585.325 107.473C586.992 108.723 589.492 110.668 591.715 114.002C594.493 118.308 595.049 122.754 595.465 126.087C595.743 128.171 595.743 129.838 595.743 131.088C595.882 150.397 596.021 169.845 596.16 189.154C596.299 190.265 596.577 191.654 597.132 193.043C598.383 196.933 600.327 199.989 601.994 201.933" stroke="#75819C" stroke-width="2" stroke-miterlimit="10"/>
<path d="M641.305 218.463C640.61 217.768 639.916 216.796 639.221 215.407C637.971 212.629 638.249 209.85 638.388 208.739C638.388 208.739 641.721 179.706 642.694 164.843C642.972 161.37 642.833 157.203 642.694 148.868C642.555 144.006 642.416 140.533 641.027 136.366C640.193 134.143 639.221 131.365 636.582 128.587C633.942 125.809 630.608 124.697 628.803 124.142" stroke="#75819C" stroke-width="2" stroke-miterlimit="10"/>
<g opacity="0.5">
<path d="M476.416 74.9675C476.833 77.329 477.249 79.6905 477.944 81.7742C478.361 82.7466 479.194 83.3022 480.305 83.58C481.417 83.719 482.528 83.7189 483.778 83.7189C488.501 83.58 493.224 83.1633 497.947 82.8855H497.808C498.503 82.7466 498.92 82.052 499.197 81.2185C499.475 80.385 499.614 79.5516 499.614 78.7181C499.614 77.8846 499.614 76.9122 499.614 76.0788C499.475 75.2453 499.475 74.2729 499.336 73.4395C499.614 74.2729 499.892 75.2453 500.031 76.0788C500.17 76.9122 500.309 77.8846 500.448 78.857C500.448 79.8294 500.448 80.6629 500.17 81.6353C499.892 82.6076 499.475 83.58 498.364 84.1357H498.225C495.863 84.4135 493.502 84.6913 491.141 84.8302C488.779 84.9692 486.417 85.1081 484.056 85.1081C482.806 85.1081 481.694 85.1081 480.444 84.6913C479.889 84.5524 479.194 84.2746 478.638 83.8579C478.083 83.4411 477.666 82.7466 477.527 82.1909C477.249 80.9407 477.11 79.8294 476.971 78.5792C476.416 77.329 476.416 76.2177 476.416 74.9675Z" fill="#75819C"/>
</g>
</svg>
