<svg width="900" height="500" viewBox="0 0 900 500" fill="none" xmlns="http://www.w3.org/2000/svg">
<path opacity="0.33" d="M694.391 428.438C687.6 414.134 682.831 400.841 680.953 371.365C679.075 341.888 682.687 339.577 680.953 316.314C679.219 293.051 677.485 298.108 679.219 280.624C680.809 263.141 671.272 240.456 671.128 231.931C670.983 223.406 671.706 194.219 669.105 180.493C666.504 166.766 660.435 157.952 656.101 134.4C651.766 110.848 635.294 95.5321 624.746 98.9999C614.198 102.468 612.465 113.449 613.765 117.495C609.141 108.392 606.107 103.046 603.217 99.5778C600.327 96.11 591.947 92.0643 591.947 92.0643C591.947 92.0643 578.943 89.319 573.886 101.023C569.695 101.89 569.695 110.993 569.84 113.449C568.828 107.958 566.95 100.156 565.361 97.6994C563.627 95.2431 560.303 91.3419 555.68 89.319C551.056 87.2961 539.208 88.0186 536.174 90.4749C533.139 92.9312 527.649 97.9884 528.082 102.901C528.516 107.958 530.105 112.437 530.394 125.297C530.683 138.157 534.873 165.321 535.74 172.112C536.607 178.903 548.311 241.468 548.311 241.468C548.311 241.468 547.877 242.479 547.155 241.757C546.577 241.034 532.85 164.743 527.938 153.473C529.816 141.48 530.972 107.525 523.169 100.011C519.846 92.4978 499.617 86.5737 491.959 103.479C484.301 120.24 486.758 150.294 485.313 161.853C483.868 173.413 485.457 199.132 486.902 206.79C485.891 198.987 483.29 191.763 478.811 187.284C474.332 182.804 466.963 178.325 461.761 176.447C457.571 175.002 452.225 176.88 449.913 179.192C449.19 179.915 448.179 180.637 447.167 180.782C446.011 181.07 445 181.937 445 181.937C445 184.394 446.878 196.675 453.669 208.813C451.936 211.414 454.247 222.25 452.369 229.908C450.491 237.422 448.323 242.624 451.647 251.293C450.346 253.605 452.08 259.962 454.97 262.274C453.236 267.62 455.403 274.411 461.183 288.571C468.407 306.344 464.795 325.995 469.852 336.109C474.91 346.223 480.978 349.691 487.625 360.094C494.127 370.498 519.557 403.008 529.96 411.244C540.364 419.48 544.698 428.294 544.698 428.294H694.391V428.438Z" fill="#445272"/>
<path d="M694.391 428.438C687.6 414.134 682.831 400.841 680.953 371.365C679.075 341.888 682.687 339.577 680.953 316.314C679.219 293.051 677.485 298.108 679.219 280.624C680.809 263.141 671.272 240.456 671.128 231.931C670.983 223.406 671.706 194.219 669.105 180.492C666.504 166.766 662.603 156.652 656.101 134.4C648.876 109.548 635.294 95.532 624.746 98.9998C614.198 102.468 612.465 113.449 613.765 117.495C609.141 108.392 606.107 103.046 603.217 99.5778C601.05 96.9769 595.126 92.4977 590.213 91.7753C586.601 91.1973 577.787 91.9198 573.886 100.878C570.129 102.179 569.695 110.848 569.84 113.304C568.828 107.814 566.95 100.011 565.361 97.5549C563.627 95.0986 560.303 91.1973 555.68 89.1745C551.056 87.1516 539.208 87.874 536.174 90.3304C533.139 92.7867 527.649 97.8439 528.082 102.757C528.516 107.814 530.105 112.293 530.394 125.153C530.683 138.012 534.873 165.177 535.74 171.968C536.607 178.759 548.311 241.323 548.311 241.323C548.311 241.323 547.877 242.334 547.155 241.612C546.577 240.89 532.85 164.599 527.938 153.328C529.816 141.336 530.972 107.38 523.169 99.8668C519.846 92.3532 499.617 86.4291 491.959 103.335C484.301 120.095 486.758 150.149 485.313 161.709C483.868 173.268 485.457 198.987 486.902 206.645C485.891 198.843 483.29 191.618 478.811 187.139C474.332 182.66 466.963 178.181 461.761 176.302C457.571 174.857 452.225 176.736 449.913 179.192C449.046 180.059 447.89 180.926 446.589 181.07C445.578 181.215 445 181.504 445 181.504C445 183.816 446.589 194.942 452.225 206.067C452.947 207.512 453.38 209.102 453.091 210.691C452.513 214.881 453.958 223.551 452.369 229.764C450.491 237.277 448.323 242.479 451.647 251.148C451.936 255.772 453.38 260.396 454.97 262.13C454.536 268.343 455.403 274.267 461.183 288.427C468.407 306.199 464.795 325.85 469.852 335.964C474.91 346.079 480.978 349.546 487.625 359.95C494.127 370.353 519.557 402.863 529.96 411.099C540.364 419.335 544.698 428.149 544.698 428.149" stroke="#697695" stroke-width="2" stroke-miterlimit="10"/>
<path d="M491.815 328.884C492.248 321.515 495.571 308.944 495.86 304.465C496.294 299.986 494.994 306.344 494.705 286.982C494.56 267.476 492.826 236.844 489.647 223.117C486.469 209.39 487.336 206.645 485.891 201.732" stroke="#697695" stroke-width="2" stroke-miterlimit="10"/>
<path d="M597.726 228.897C594.548 224.129 590.935 215.749 590.502 193.497C590.068 171.245 583.422 165.899 582.988 150.583C582.555 135.267 571.574 130.355 569.695 113.594" stroke="#697695" stroke-width="2" stroke-miterlimit="10"/>
<path d="M636.74 223.406C636.884 217.915 637.029 190.173 634.139 173.557C631.249 156.94 628.359 150.583 624.891 143.213C621.279 135.7 615.21 124.285 613.477 117.639" stroke="#697695" stroke-width="2" stroke-miterlimit="10"/>
<g opacity="0.5">
<path d="M453.092 182.805C454.392 183.094 455.548 183.816 456.704 184.683C457.715 185.695 458.438 186.85 458.871 188.151C459.594 190.752 460.316 193.208 460.75 195.953C461.183 198.554 461.617 201.299 461.328 204.045C461.328 204.767 461.039 205.49 460.894 206.068C460.605 206.79 460.172 207.368 459.594 207.802C458.438 208.813 456.993 208.957 455.693 208.524C456.993 208.669 458.293 208.235 459.16 207.224C460.027 206.357 460.172 205.056 460.172 203.756C460.172 201.155 459.738 198.554 459.305 196.098C458.871 193.497 458.293 190.896 457.716 188.44C457.282 186.128 455.548 183.961 453.092 182.805Z" fill="#B1BBD0"/>
</g>
<path opacity="0.33" d="M419.717 214.755C420.48 210.022 428.877 191.091 426.893 181.93C423.534 177.045 400.632 174.449 386.128 199.641C371.777 224.832 371.777 231.092 374.22 243.764C371.166 244.222 362.006 269.413 360.174 275.367C357.12 277.047 353.303 286.207 351.929 286.665C350.555 287.123 347.196 283.001 348.265 261.321C349.334 239.641 351.471 233.076 351.624 227.427C351.776 221.778 358.494 192.312 362.616 177.045C366.739 161.777 367.655 141.319 371.166 127.883C374.678 114.6 376.51 86.9663 371.166 71.8514C365.823 56.7366 351.318 58.5687 348.723 59.7901C345.975 61.0115 340.326 65.7444 336.967 75.363C333.608 84.8288 332.539 94.6 331.623 106.661C329.486 101.928 325.822 101.012 325.822 101.012C325.822 101.012 322.463 91.2412 310.707 92.9206C298.951 94.6 295.439 102.692 295.439 102.692C295.439 102.692 293.913 103.303 292.996 104.219C292.691 104.524 292.08 104.677 291.622 104.371C288.569 102.539 280.019 100.554 274.217 102.692C267.805 105.135 263.836 109.562 263.836 109.562C263.836 109.562 258.034 109.104 252.538 111.547C247.194 114.142 245.056 116.585 245.056 116.585C245.056 116.585 242.919 112.768 240.782 110.936C241.545 108.493 235.896 103.303 229.331 107.119C222.919 110.936 218.033 115.211 215.59 116.433C212.995 117.654 196.658 123.303 193.147 126.662C189.635 130.173 182.612 140.708 177.879 146.51C173.146 152.159 173.757 157.35 166.276 167.579C158.795 177.808 160.322 196.282 158.642 203.305C157.116 210.48 161.848 235.672 157.116 247.123C152.383 258.726 156.658 290.482 157.116 303.46C157.726 316.59 163.833 359.339 158.49 383.767C153.146 408.195 122 456.593 122 456.593H285.21C293.76 445.906 301.699 428.653 314.524 419.493C327.348 410.18 347.654 389.416 356.815 379.797C365.975 370.179 381.395 354.148 390.098 347.583C398.953 341.018 400.022 327.735 403.533 308.193C407.045 288.65 420.022 256.13 420.022 253.077C420.022 250.023 418.495 251.397 418.495 249.718C418.495 248.191 420.938 247.428 420.938 244.374C421.091 241.932 418.954 219.641 419.717 214.755ZM302.615 187.274C299.714 192.923 298.187 193.076 298.187 193.076C297.882 188.19 298.34 181.014 298.187 178.571C299.714 176.281 306.279 157.044 306.279 153.227C309.18 152.311 320.173 142.845 322.31 138.112C321.089 140.861 305.363 181.93 302.615 187.274Z" fill="#445272"/>
<path d="M285.361 457.203C293.911 446.516 301.85 429.264 314.675 420.103C327.5 410.79 347.806 390.026 356.966 380.408C366.127 370.789 381.547 354.758 390.249 348.193C399.104 341.628 400.173 328.345 403.685 308.803C407.196 289.261 420.174 256.741 420.174 253.687C420.174 250.634 418.647 252.008 418.647 250.328C418.647 248.802 421.09 248.038 421.09 244.985C421.09 241.931 418.952 219.641 419.868 214.908C420.784 210.175 429.029 191.243 427.044 182.083C423.685 177.197 400.784 174.602 386.28 199.793C371.928 224.984 371.928 231.244 374.371 243.916C371.317 244.374 362.157 269.565 360.325 275.52C357.271 277.199 353.454 286.36 352.08 286.818C350.706 287.276 347.347 283.154 348.416 261.474C349.485 239.794 351.622 233.229 351.775 227.58C351.928 221.931 358.645 192.465 362.768 177.197C366.89 161.929 367.806 141.471 371.317 128.036C374.829 114.753 376.661 87.1186 371.317 72.0038C365.974 56.8889 351.47 58.721 348.874 59.9424C346.126 61.1638 340.477 65.8968 337.118 75.5153C333.759 84.9812 332.691 94.7524 331.775 106.814C329.637 102.081 325.973 101.165 325.973 101.165C325.973 101.165 322.614 91.3935 310.858 93.0729C299.102 94.7524 295.591 102.844 295.591 102.844C295.591 102.844 294.064 103.455 293.148 104.371C292.842 104.676 292.232 104.829 291.774 104.524C288.72 102.691 280.17 100.707 274.369 102.844C267.956 105.287 263.987 109.715 263.987 109.715C263.987 109.715 258.185 109.257 252.689 111.699C247.345 114.295 245.208 116.738 245.208 116.738C245.208 116.738 243.07 112.921 240.933 111.089C241.696 108.646 236.047 103.455 229.482 107.272C223.07 111.089 218.184 115.364 215.741 116.585C213.146 117.806 196.81 123.455 193.298 126.814C189.787 130.326 182.764 140.86 178.031 146.662C173.298 152.311 173.908 157.502 166.427 167.731C158.946 177.96 160.473 196.434 158.794 203.457C157.267 210.633 162 235.824 157.267 247.275C152.534 258.878 156.809 290.635 157.267 303.612C157.878 316.742 163.985 359.491 158.641 383.919C153.297 408.347 122.152 456.745 122.152 456.745M302.614 187.274C299.713 192.923 299.255 193.075 299.255 193.075C298.949 188.19 298.339 181.014 298.186 178.571C299.713 176.281 306.278 157.044 306.278 153.227C309.179 152.311 320.171 142.845 322.309 138.112C321.087 140.86 305.362 181.93 302.614 187.274Z" stroke="#697695" stroke-width="2" stroke-miterlimit="10"/>
<path d="M191.469 200.709C191.469 191.548 193.454 154.295 200.019 143.15C204.904 134.906 218.035 134.142 219.409 131.547C220.783 128.951 233.913 121.928 245.058 117.195" stroke="#697695" stroke-width="2" stroke-miterlimit="10"/>
<path d="M218.186 230.785C221.545 227.884 231.316 219.487 233.453 214.296C235.591 208.953 243.377 165.44 245.057 151.547C246.736 137.653 254.064 118.264 272.386 118.874C276.202 115.821 283.225 113.073 286.584 113.073C287.958 110.63 291.928 103.759 295.592 102.996" stroke="#697695" stroke-width="2" stroke-miterlimit="10"/>
<path d="M299.256 193.227C298.951 188.341 298.339 181.166 298.188 178.723C299.714 176.433 306.28 157.196 306.28 153.379C309.18 152.463 320.326 142.997 322.31 138.111C322.31 138.111 305.669 181.624 302.768 187.273C299.715 192.922 299.256 193.227 299.256 193.227Z" stroke="#697695" stroke-width="2" stroke-miterlimit="10"/>
<path d="M284.6 233.689C288.875 229.872 291.012 228.956 293.302 225.139C296.356 219.948 298.646 193.688 302.616 187.276C306.585 180.863 312.692 159.489 321.7 139.183C330.708 118.877 331.318 110.785 331.624 106.816C332.54 94.7544 333.609 84.9832 336.967 75.5174C340.326 66.0515 345.975 61.3186 348.723 59.9445C351.472 58.7231 365.823 56.7383 371.167 72.0058C376.51 87.2734 374.678 114.755 371.167 128.038C367.655 141.32 366.739 161.932 362.617 177.199C358.495 192.467 351.777 221.78 351.624 227.582" stroke="#BA6DCD" stroke-width="3" stroke-miterlimit="10" stroke-linecap="round"/>
<g opacity="0.5">
<path d="M364.602 68.1875C364.45 71.8517 363.839 75.6686 362.312 79.0274C361.549 80.7069 360.48 82.3863 358.953 83.7604C358.495 84.0657 358.19 84.3711 357.732 84.5238C357.274 84.6764 356.816 84.9818 356.358 85.1344C355.442 85.4398 354.526 85.5925 353.61 85.8978C349.945 86.5085 345.976 86.6612 342.312 85.1344C341.396 84.6764 340.48 84.2184 339.869 83.3023C339.411 82.3863 339.258 81.3176 339.258 80.4015C339.258 78.4167 339.716 76.5846 340.327 74.9052C340.021 76.7373 339.716 78.5694 340.021 80.4015C340.174 81.3176 340.327 82.0809 340.785 82.8443C341.243 83.455 342.006 83.913 342.77 84.2184C346.128 85.2871 349.793 85.1345 353.304 84.5238C354.22 84.3711 354.984 84.2184 355.9 83.913C356.358 83.7604 356.663 83.6077 357.121 83.455C357.426 83.3023 357.884 82.997 358.19 82.8443C359.564 81.7756 360.48 80.4015 361.396 78.7221C362.312 77.1953 362.923 75.3632 363.381 73.6838C363.839 71.699 364.297 70.0196 364.602 68.1875Z" fill="#B1BBD0"/>
</g>
<g opacity="0.5">
<path d="M420.023 182.543C417.275 184.222 414.679 186.36 412.694 188.955C410.709 191.551 409.335 194.452 408.419 197.505C407.961 199.032 407.656 200.559 407.656 202.085C407.656 203.612 407.961 205.139 408.572 206.666C409.183 208.04 410.099 209.414 411.168 210.635C412.236 211.857 413.61 212.773 414.984 213.689C411.931 212.467 409.183 210.33 407.503 207.276C406.74 205.75 406.282 204.07 406.129 202.238C406.129 200.559 406.435 198.727 406.893 197.2C407.809 193.994 409.335 190.94 411.626 188.345C412.694 187.123 414.068 185.902 415.442 184.986C416.969 183.917 418.343 183.154 420.023 182.543Z" fill="#B1BBD0"/>
</g>
</svg>
