<svg width="850" height="500" viewBox="0 0 850 500" fill="none" xmlns="http://www.w3.org/2000/svg">
<path opacity="0.33" d="M725.822 400.119C724.994 398.601 723.752 396.392 719.749 389.905C712.709 378.724 712.709 379.277 710.777 375.826C708.568 372.099 703.461 362.851 700.976 351.118C700.562 349.324 699.596 343.941 697.802 336.349C696.974 332.484 696.559 331.104 696.007 329.447C694.627 325.582 693.661 324.34 691.452 319.095C690.21 316.058 689.382 313.712 688.968 312.607C688.14 309.985 686.897 306.258 685.655 301.013C684.137 294.249 683.584 289.142 682.756 282.655C681.79 274.649 682.066 273.268 680.962 265.125C680.134 258.775 679.582 256.014 679.306 254.91C677.925 248.699 675.855 242.901 675.855 242.901C674.889 240.141 674.198 238.208 673.646 235.034C673.232 232.273 673.232 230.203 673.232 229.512C673.232 226.2 672.68 220.126 671.576 207.703C671.024 201.768 669.781 188.793 668.539 180.787C668.401 179.959 668.125 177.889 667.849 174.852C667.573 171.401 667.711 168.502 667.849 166.846C668.125 162.981 668.539 161.739 669.505 155.528C669.505 155.528 670.195 150.972 670.748 147.108C670.057 136.617 672.68 119.915 663.984 111.357C662.19 109.563 660.395 108.321 659.153 107.631C657.773 105.56 648.248 95.4838 644.936 93.6894C640.381 91.3429 635.964 90.7908 633.341 90.3767C630.442 89.9626 630.304 90.3766 627.544 89.8245C621.884 88.7203 617.743 86.5118 610.29 87.478C610.29 87.478 609.324 84.0272 608.219 81.8187C606.839 78.644 605.183 74.9171 601.594 71.7424C597.591 68.1536 593.312 66.9113 591.656 66.4972C584.892 64.7028 579.371 66.4972 575.644 67.6015C572.745 68.4296 569.847 69.3959 566.81 71.7424C565.291 72.9847 564.325 74.0889 560.322 79.1961C558.942 80.9905 557.01 83.3371 554.801 86.2357C553.835 86.6498 552.869 87.0639 551.764 87.478C549.556 88.5822 547.623 89.8245 546.105 90.9288C543.068 84.0272 540.032 78.782 537.823 75.4693C534.925 71.0522 527.609 61.114 521.812 53.3842C521.259 52.556 520.155 51.1757 519.051 48.9672C517.257 45.3784 517.395 43.3079 516.29 39.5811C515.186 35.5781 513.53 32.9556 511.321 29.0907C509.803 26.33 508.146 23.7074 505.386 20.6708C503.315 18.3242 502.211 17.22 500.555 16.3918C494.895 13.4931 488.684 15.9777 487.856 16.2537C483.301 18.0481 481.092 21.4989 479.436 23.8455C475.847 29.0907 475.157 34.1978 474.743 37.6486C474.053 43.722 475.019 48.001 476.675 54.9026C477.918 60.6999 479.712 65.669 483.301 75.6073C484.543 79.1961 485.647 82.0948 486.475 84.1652C482.335 83.8892 473.501 84.0272 464.805 89.2724C461.354 91.3429 455.142 94.9317 452.106 102.109C449.483 108.459 450.725 114.256 452.796 123.366C454.866 132.89 458.731 141.862 462.044 149.868C462.734 151.387 464.252 155.251 465.771 160.635C466.599 163.671 467.151 166.294 467.427 167.95C466.599 167.812 464.667 167.812 462.596 168.641C462.044 168.917 460.111 169.745 458.731 171.677C457.903 173.058 457.489 174.438 457.489 178.165C457.489 182.444 457.765 185.48 458.041 189.207C458.179 191.14 458.317 193.348 458.455 196.109C457.903 198.041 456.937 201.078 455.556 204.667C454.314 207.841 453.624 208.946 452.658 211.154C452.106 212.397 449.621 218.332 448.793 224.681C448.241 228.684 448.655 231.997 449.483 238.622C450.449 245.8 451.692 251.735 452.934 256.843C454.452 263.468 455.004 264.434 455.694 268.713C455.833 269.956 456.523 272.44 456.799 280.86C457.213 290.936 457.213 297.976 459.697 303.221C461.078 306.12 462.872 307.914 464.39 309.571C473.501 319.233 475.985 321.441 475.985 321.441C482.473 327.239 488.822 333.312 495.171 339.109C509.527 352.222 516.704 358.848 520.293 361.609C523.606 364.231 529.265 368.372 536.167 374.998C539.894 378.586 542.93 382.037 545.415 384.798C547.623 387.282 551.902 392.251 557.148 398.877C560.46 403.156 564.187 408.125 568.19 413.784L732.724 413.232C731.205 410.886 728.997 405.917 725.822 400.119ZM625.197 140.344C624.783 142.553 623.817 145.865 621.746 149.454C620.642 146.141 619.676 142.276 618.986 138.136C617.743 131.51 616.777 125.575 616.777 120.606C617.467 120.468 619.814 120.468 621.47 121.296C623.541 122.4 624.369 124.194 624.645 124.885C625.197 126.127 625.197 127.231 625.335 127.921C625.473 134.685 625.611 138.136 625.197 140.344Z" fill="#E0E1E2"/>
<path d="M546.934 91.0669C548.452 89.9626 549.97 89.1344 552.179 88.0302C553.283 87.478 554.249 87.0639 555.215 86.7879C557.424 83.8892 559.356 81.5427 560.737 79.7483C564.74 74.6411 565.568 73.5369 567.224 72.2946C570.261 69.81 573.16 68.9818 576.058 68.1536C579.785 67.0494 585.306 65.393 592.07 67.0494C593.726 67.4635 598.005 68.7057 602.008 72.2946C605.597 75.4693 607.253 79.1961 608.634 82.3709C609.6 84.5794 609.186 88.1682 610.704 88.0302C618.158 87.064 622.299 89.2725 627.958 90.3767C630.719 90.9288 630.857 90.5147 633.755 90.9288C636.378 91.2049 640.795 91.757 645.35 94.2416C648.663 96.036 658.187 106.112 659.567 108.183C660.81 109.011 662.604 110.253 664.398 111.91C673.094 120.468 670.472 137.169 671.162 147.66C670.748 151.663 669.92 156.08 669.92 156.08C668.953 162.291 668.539 163.533 668.263 167.398C668.125 169.055 667.987 171.815 668.263 175.404C668.401 178.303 668.815 180.511 668.953 181.339C670.196 189.345 671.438 202.182 671.99 208.256C673.094 220.54 673.647 226.752 673.647 230.065C673.647 230.755 673.647 232.825 674.061 235.586C674.613 238.761 675.303 240.693 676.269 243.454C676.269 243.454 678.202 249.251 679.72 255.462C679.996 256.567 680.548 259.327 681.376 265.677C682.481 273.821 682.342 275.201 683.171 283.207C683.861 289.694 684.551 294.801 686.069 301.565C687.312 306.81 688.416 310.537 689.382 313.16C689.796 314.264 690.624 316.61 691.867 319.647C694.075 324.892 695.041 326.134 696.422 329.999C696.974 331.656 697.388 333.036 698.216 336.901C699.872 344.493 700.977 349.738 701.391 351.67C703.875 363.403 708.983 372.513 711.191 376.378C713.262 379.829 713.123 379.277 720.163 390.457C724.166 396.945 725.408 399.153 726.237 400.672C729.411 406.469 731.62 411.438 733 414.889" stroke="#808285" stroke-width="2" stroke-miterlimit="10"/>
<path d="M617.329 120.743C618.019 120.605 619.676 120.467 621.332 121.433C623.403 122.538 624.231 124.332 624.507 125.022C625.059 126.264 625.059 127.369 625.197 128.059C625.473 134.822 625.611 138.273 625.197 140.482C624.783 142.69 623.817 146.003 621.746 149.592C620.642 146.279 619.676 142.414 618.985 138.273C617.743 131.648 617.329 125.712 617.329 120.743Z" stroke="#808285" stroke-width="2" stroke-miterlimit="10"/>
<path d="M610.428 87.8926C611.532 91.4814 612.912 97.5548 613.326 99.9013C613.879 102.524 614.017 104.318 614.845 111.496C614.983 113.29 616.915 120.744 617.053 122.4" stroke="#808285" stroke-width="2" stroke-miterlimit="10"/>
<path d="M563.773 105.974C563.911 111.219 563.911 117.844 564.049 123.09" stroke="#808285" stroke-width="2" stroke-miterlimit="10"/>
<path d="M590.828 146.556C586.411 144.485 582.96 142.415 580.475 140.758C576.61 138.136 572.055 135.099 567.638 129.854C564.878 126.541 562.807 123.366 561.841 121.848C560.875 120.192 559.908 118.535 558.252 115.361C555.906 110.944 554.111 107.631 551.903 102.938C550.798 100.591 548.452 94.7939 546.934 91.0671C543.897 84.1655 540.308 79.3344 538.099 76.0216C535.201 71.6046 527.885 61.6664 522.088 53.9366C521.536 53.1084 520.431 51.7281 519.327 49.5196C517.533 45.9308 517.671 43.8603 516.567 40.2715C515.462 36.2686 513.806 33.646 511.597 29.7811C510.079 27.0205 508.423 24.3979 505.662 21.3612C503.592 19.0146 502.487 17.9104 500.693 17.0822C495.034 14.1835 488.822 16.6681 487.994 16.9442C483.439 18.7386 481.231 22.1894 479.574 24.5359C475.985 29.7811 475.295 34.8883 474.881 38.339C474.191 44.4124 475.157 48.6914 476.814 55.593C478.194 61.3903 479.85 66.3595 483.439 76.2977C484.681 79.8865 485.509 82.095 486.2 84.0275" stroke="#2969D0" stroke-width="3" stroke-miterlimit="10" stroke-linecap="round"/>
<path d="M475.157 240.279C475.433 232.825 475.433 226.613 475.433 221.782C475.295 216.123 475.157 208.531 474.053 198.731C473.639 195.418 473.087 191.001 471.982 185.342C470.74 178.855 468.808 173.333 467.565 169.192" stroke="#808285" stroke-width="2" stroke-miterlimit="10"/>
<path d="M568.052 414.888C564.187 409.229 560.46 404.26 557.009 399.981C551.902 393.355 547.485 388.386 545.277 386.04C542.792 383.279 539.755 379.828 536.029 376.239C529.127 369.476 523.468 365.335 520.155 362.85C516.566 360.09 509.389 353.464 495.033 340.351C488.546 334.554 482.334 328.342 475.847 322.683C475.847 322.683 473.362 320.475 464.252 310.812C462.596 309.156 460.94 307.362 459.559 304.463C457.075 299.218 457.075 292.178 456.661 282.102C456.384 273.682 455.832 271.197 455.556 269.955C454.866 265.676 454.314 264.572 452.796 258.084C451.553 252.977 450.311 247.042 449.345 239.864C448.517 233.239 448.103 229.926 448.655 225.923C449.483 219.436 451.967 213.638 452.52 212.396C453.486 210.049 454.176 209.083 455.418 205.908C456.799 202.32 457.765 199.283 458.317 197.351C458.179 194.728 458.041 192.381 457.903 190.449C457.627 186.584 457.351 183.685 457.351 179.406C457.351 175.68 457.627 174.161 458.593 172.919C459.835 170.986 461.768 170.02 462.458 169.882C464.528 168.916 466.461 169.054 467.427 169.192C467.151 167.536 466.599 164.913 465.771 161.876C464.252 156.493 462.596 152.628 462.044 151.11C458.731 143.242 454.866 134.132 452.796 124.608C450.725 115.36 450.725 108.182 453.348 101.833C456.384 94.6551 461.492 92.3085 464.942 90.3761C473.776 85.2689 482.472 85.1309 486.613 85.2689L487.166 85.4069C488.822 85.683 491.168 86.3732 493.653 87.8915C496.966 89.824 499.726 92.7226 503.315 98.796C506.214 104.041 508.008 108.596 510.079 114.808C513.391 124.608 514.22 128.611 516.704 137.031C518.085 141.448 520.293 148.073 523.33 156.217" stroke="#808285" stroke-width="2" stroke-miterlimit="10"/>
<g opacity="0.5">
<path d="M460.939 195.143C462.043 193.901 463.009 192.52 463.562 191.14C464.114 189.76 464.252 188.103 464.528 186.447C464.666 184.929 464.666 183.134 464.804 181.478L465.08 176.509C465.356 178.165 465.494 179.822 465.632 181.478C465.77 183.134 465.77 184.791 465.77 186.585C465.632 188.241 465.494 190.036 464.666 191.692C463.838 193.211 462.457 194.453 460.939 195.143Z" fill="#AEB0B2"/>
</g>
<g opacity="0.5">
<path d="M481.505 29.0914C483.024 30.6098 484.68 32.1281 486.475 33.2324C486.751 33.3704 486.889 33.5084 487.165 33.5084C487.441 33.5084 487.579 33.5084 487.855 33.5084C488.407 33.5084 488.821 33.3704 489.373 33.2324C489.925 33.0943 490.339 32.9563 490.892 32.6803C491.168 32.5422 491.306 32.4042 491.582 32.4042C491.858 32.2662 492.134 32.1281 492.41 31.9901C494.618 31.1619 496.827 30.8858 499.035 30.7478C501.244 30.6098 503.452 30.4717 505.661 30.4717L505.109 30.6098C505.385 30.3337 505.523 30.0577 505.661 29.7816C505.661 29.5055 505.661 28.9534 505.523 28.5393C505.247 27.7111 504.971 26.8829 504.557 26.0547C504.143 25.2265 503.728 24.3984 503.176 23.5702C502.624 22.742 502.072 22.0518 501.52 21.2236C502.21 21.9138 502.9 22.6039 503.452 23.2941C504.004 23.9843 504.695 24.8125 505.109 25.6406C505.523 26.4688 506.075 27.297 506.351 28.2632C506.489 28.8154 506.627 29.2295 506.627 29.7816C506.627 30.4717 506.213 31.0239 505.799 31.2999L505.661 31.438H505.385C503.176 31.576 501.106 31.714 498.897 31.8521C496.827 32.1281 494.618 32.2662 492.686 32.9563C492.41 33.0943 492.272 33.0943 491.996 33.2324C491.72 33.3704 491.444 33.5084 491.168 33.5084C490.615 33.7845 490.063 33.9225 489.511 33.9225C488.959 34.0606 488.407 34.0606 487.855 34.0606C487.579 34.0606 487.165 34.0606 486.889 33.9225C486.613 33.7845 486.336 33.6465 486.06 33.5084C485.094 32.8183 484.266 32.1281 483.576 31.2999C482.886 30.7478 482.196 29.9196 481.505 29.0914Z" fill="#AEB0B2"/>
</g>
<path opacity="0.33" d="M314.764 417.925C316.559 415.717 324.288 407.711 332.708 399.291C341.128 390.871 358.382 361.194 363.489 355.259C368.596 349.324 382.124 334.692 385.436 327.377C388.749 320.061 385.16 296.596 385.436 289.28C385.712 281.964 389.163 247.042 386.817 237.932C384.47 228.822 380.743 225.095 377.707 218.746C374.67 212.396 374.118 210.464 371.357 208.531C368.596 206.599 370.253 190.035 370.805 187.689C371.357 185.342 373.29 174.714 373.29 170.987C373.29 167.26 373.29 156.632 376.188 148.764C379.087 140.896 377.154 117.293 372.185 109.839C367.216 102.385 363.213 100.591 357.278 100.177C351.343 99.7626 344.855 105.56 343.199 109.149C341.542 112.738 339.334 116.05 336.849 145.313C333.398 153.181 326.773 160.082 323.874 169.607C320.976 179.131 313.246 203.148 311.451 213.086C309.657 223.025 299.443 236.552 303.584 229.236C307.725 222.059 307.31 204.391 315.04 180.925C322.77 157.46 321.804 158.978 321.804 157.736C321.804 156.494 326.359 152.215 327.877 142C330.776 137.307 336.435 113.98 325.945 107.216C325.807 102.385 322.632 99.0725 313.936 97.6922C305.24 96.3119 302.065 98.5204 300.133 103.904C296.958 104.732 292.127 116.464 291.299 126.127C288.952 127.507 277.634 138.964 275.425 143.243C273.217 147.522 267.005 169.054 265.763 174.576C264.521 180.097 256.515 214.605 254.306 217.78C252.098 220.954 251.132 223.163 252.926 216.399C254.72 209.636 263.002 168.916 266.591 161.601C270.18 154.285 270.594 148.212 280.532 133.994C290.471 119.777 289.09 112.876 287.296 108.321C285.501 103.766 284.121 99.9007 275.701 98.5204C267.281 97.14 262.45 104.18 262.45 104.18C262.45 104.18 257.343 105.698 245.058 118.949C242.436 113.842 238.847 109.977 238.847 109.977C238.847 109.977 236.224 104.456 228.771 103.351C221.317 102.247 218.28 110.253 217.866 113.152C215.381 113.152 210.274 124.608 208.48 136.065C206.686 147.66 203.787 164.223 200.75 174.024C197.713 183.824 195.781 191.968 195.091 199.145C194.401 206.323 190.536 216.399 189.846 225.785C189.156 235.172 178.251 262.088 177.699 270.646C177.009 279.204 177.423 308.466 176.595 315.23C175.766 321.993 174.524 344.769 176.595 357.882C178.665 370.857 177.699 382.865 175.49 389.353C173.282 395.84 165 417.373 165 417.373H314.764V417.925Z" fill="#E0E1E2"/>
<path d="M314.764 417.925C316.559 415.717 324.288 407.711 332.708 399.291C341.128 390.871 358.382 361.194 363.489 355.259C368.596 349.324 382.124 334.692 385.436 327.377C388.749 320.061 385.16 296.596 385.436 289.28C385.712 281.964 389.163 247.042 386.817 237.932C384.47 228.822 380.743 225.095 377.707 218.746C374.67 212.396 374.118 210.464 371.357 208.531C368.596 206.599 370.253 190.035 370.805 187.689C371.357 185.342 373.29 174.714 373.29 170.987C373.29 167.26 373.29 156.632 376.188 148.764C379.087 140.896 377.154 117.293 372.185 109.839C367.216 102.385 363.213 100.591 357.278 100.177C351.343 99.7626 344.855 105.56 343.199 109.149C341.542 112.738 339.334 116.05 336.849 145.313C333.398 153.181 326.773 160.082 323.874 169.607C320.976 179.131 313.246 203.148 311.451 213.086C309.657 223.025 299.443 236.552 303.584 229.236C307.725 222.059 307.31 204.391 315.04 180.925C322.77 157.46 321.804 158.978 321.804 157.736C321.804 156.494 326.359 152.215 327.877 142C330.776 137.307 336.435 113.98 325.945 107.216C325.807 102.385 322.632 99.0725 313.936 97.6922C305.24 96.3119 302.065 98.5204 300.133 103.904C296.958 104.732 292.127 116.464 291.299 126.127C288.952 127.507 277.634 138.964 275.425 143.243C273.217 147.522 267.005 169.054 265.763 174.576C264.521 180.097 256.515 214.605 254.306 217.78C252.098 220.954 251.132 223.163 252.926 216.399C254.72 209.636 263.002 168.916 266.591 161.601C270.18 154.285 270.594 148.212 280.532 133.994C290.471 119.777 289.09 112.876 287.296 108.321C285.501 103.766 284.121 99.9007 275.701 98.5204C267.281 97.14 262.45 104.18 262.45 104.18C262.45 104.18 257.343 105.698 245.058 118.949C242.436 113.842 238.847 109.977 238.847 109.977C238.847 109.977 236.224 104.456 228.771 103.351C221.317 102.247 218.28 110.253 217.866 113.152C215.381 113.152 210.274 124.608 208.48 136.065C206.686 147.66 203.787 164.223 200.75 174.024C197.713 183.824 195.781 191.968 195.091 199.145C194.401 206.323 190.536 216.399 189.846 225.785C189.156 235.172 178.251 262.088 177.699 270.646C177.009 279.204 177.423 308.466 176.595 315.23C175.766 321.993 174.524 344.769 176.595 357.882C178.665 370.857 177.699 382.865 175.49 389.353C173.282 395.84 165 417.373 165 417.373" stroke="#808285" stroke-width="2" stroke-miterlimit="10"/>
<path d="M205.029 222.196C208.894 218.055 212.069 211.706 212.345 205.081C212.621 198.455 211.931 164.085 220.627 150.972C229.323 137.859 245.196 119.501 245.196 119.501" stroke="#808285" stroke-width="2" stroke-miterlimit="10"/>
<path d="M359.211 302.668C357.278 299.079 354.932 296.733 354.932 293.972C354.932 291.212 356.45 259.602 358.106 248.284C359.625 236.965 367.354 204.252 369.977 197.488" stroke="#808285" stroke-width="2" stroke-miterlimit="10"/>
</svg>
