<svg width="850" height="500" viewBox="0 0 850 500" fill="none" xmlns="http://www.w3.org/2000/svg">
<path opacity="0.33" d="M690 452.313C682.855 437.264 677.839 423.279 675.863 392.268C673.886 361.257 677.687 358.825 675.863 334.351C674.038 309.877 672.214 315.197 674.038 296.804C675.711 278.41 665.678 254.544 665.526 245.575C665.374 236.607 666.134 205.9 663.397 191.459C660.661 177.017 654.277 167.745 649.716 142.966C645.156 118.188 627.826 102.075 616.729 105.723C605.632 109.372 603.808 120.925 605.176 125.181C600.312 115.604 597.12 109.98 594.079 106.331C591.039 102.683 582.222 98.4266 582.222 98.4266C582.222 98.4266 568.541 95.5383 563.221 107.851C558.812 108.763 558.812 118.34 558.964 120.925C557.9 115.148 555.924 106.939 554.252 104.355C552.428 101.771 548.932 97.6665 544.067 95.5383C539.203 93.4102 526.738 94.1702 523.545 96.7544C520.353 99.3387 514.577 104.659 515.033 109.828C515.489 115.148 517.161 119.86 517.465 133.39C517.769 146.919 522.177 175.497 523.089 182.642C524.001 189.787 536.314 255.608 536.314 255.608C536.314 255.608 535.858 256.672 535.098 255.912C534.49 255.152 520.049 174.889 514.881 163.032C516.857 150.415 518.073 114.692 509.864 106.787C506.368 98.8826 485.086 92.6501 477.029 110.436C468.973 128.069 471.557 159.688 470.037 171.849C468.517 184.01 470.189 211.068 471.709 219.125C470.645 210.916 467.908 203.316 463.196 198.603C458.484 193.891 450.731 189.178 445.258 187.202C440.85 185.682 435.226 187.658 432.793 190.091C432.033 190.851 430.969 191.611 429.905 191.763C428.689 192.067 427.625 192.979 427.625 192.979C427.625 195.563 429.601 208.484 436.746 221.253C434.922 223.99 437.354 235.39 435.378 243.447C433.401 251.352 431.121 256.824 434.618 265.945C433.249 268.377 435.074 275.066 438.114 277.498C436.29 283.123 438.57 290.267 444.65 305.165C452.251 323.862 448.451 344.536 453.771 355.177C459.092 365.818 465.476 369.466 472.469 380.411C479.309 391.356 506.064 425.559 517.009 434.224C527.954 442.889 532.514 452.161 532.514 452.161H690V452.313Z" fill="#E0E1E2"/>
<path d="M690 452.313C682.855 437.264 677.839 423.279 675.863 392.268C673.886 361.257 677.687 358.825 675.863 334.351C674.038 309.877 672.214 315.197 674.038 296.804C675.711 278.41 665.678 254.544 665.526 245.575C665.374 236.606 666.134 205.9 663.397 191.458C660.661 177.017 656.557 166.376 649.716 142.966C642.116 116.82 627.826 102.075 616.729 105.723C605.632 109.371 603.808 120.924 605.176 125.181C600.312 115.604 597.12 109.979 594.079 106.331C591.799 103.595 585.567 98.8823 580.398 98.1222C576.598 97.5142 567.325 98.2743 563.221 107.699C559.268 109.067 558.812 118.188 558.964 120.772C557.9 114.996 555.924 106.787 554.252 104.203C552.428 101.619 548.932 97.5142 544.067 95.386C539.203 93.2578 526.738 94.0179 523.545 96.6021C520.353 99.1863 514.577 104.507 515.033 109.675C515.489 114.996 517.161 119.708 517.465 133.237C517.769 146.766 522.177 175.345 523.089 182.49C524.001 189.634 536.314 255.456 536.314 255.456C536.314 255.456 535.858 256.52 535.098 255.76C534.49 255 520.049 174.737 514.881 162.88C516.857 150.263 518.073 114.54 509.864 106.635C506.368 98.7303 485.086 92.4978 477.029 110.283C468.973 127.917 471.557 159.536 470.037 171.697C468.517 183.858 470.189 210.916 471.709 218.973C470.645 210.764 467.908 203.163 463.196 198.451C458.484 193.739 450.731 189.026 445.258 187.05C440.85 185.53 435.226 187.506 432.793 190.09C431.881 191.002 430.665 191.914 429.297 192.066C428.233 192.218 427.625 192.522 427.625 192.522C427.625 194.955 429.297 206.66 435.226 218.365C435.986 219.885 436.442 221.557 436.138 223.229C435.53 227.638 437.05 236.758 435.378 243.295C433.401 251.2 431.121 256.672 434.618 265.793C434.922 270.657 436.442 275.522 438.114 277.346C437.658 283.882 438.57 290.115 444.65 305.012C452.251 323.71 448.451 344.384 453.771 355.025C459.092 365.665 465.476 369.314 472.469 380.259C479.309 391.204 506.064 425.407 517.009 434.071C527.954 442.736 532.514 452.009 532.514 452.009" stroke="#808285" stroke-width="2" stroke-miterlimit="10"/>
<path d="M476.876 347.575C477.332 339.823 480.828 326.598 481.132 321.885C481.588 317.173 480.22 323.861 479.916 303.492C479.764 282.97 477.94 250.743 474.596 236.302C471.252 221.86 472.164 218.972 470.644 213.804" stroke="#808285" stroke-width="2" stroke-miterlimit="10"/>
<path d="M588.302 242.383C584.958 237.366 581.157 228.55 580.701 205.139C580.245 181.729 573.253 176.105 572.797 159.992C572.341 143.878 560.788 138.71 558.812 121.076" stroke="#808285" stroke-width="2" stroke-miterlimit="10"/>
<path d="M629.346 236.606C629.498 230.829 629.65 201.643 626.61 184.161C623.57 166.68 620.529 159.991 616.881 152.238C613.081 144.334 606.696 132.325 604.872 125.332" stroke="#808285" stroke-width="2" stroke-miterlimit="10"/>
<g opacity="0.5">
<path d="M436.138 193.892C437.506 194.196 438.722 194.956 439.938 195.868C441.002 196.932 441.762 198.148 442.218 199.516C442.978 202.252 443.738 204.837 444.194 207.725C444.65 210.461 445.106 213.349 444.802 216.238C444.802 216.998 444.498 217.758 444.346 218.366C444.042 219.126 443.586 219.734 442.978 220.19C441.762 221.254 440.242 221.406 438.874 220.95C440.242 221.102 441.61 220.646 442.522 219.582C443.434 218.67 443.586 217.302 443.586 215.934C443.586 213.197 443.13 210.461 442.674 207.877C442.218 205.141 441.61 202.404 441.002 199.82C440.546 197.388 438.722 195.108 436.138 193.892Z" fill="#AEB0B2"/>
</g>
<path opacity="0.33" d="M216.782 456.114C222.863 448.665 242.169 419.935 260.106 406.405C278.044 392.876 332.312 353.505 340.217 344.84C348.122 336.327 349.794 327.663 354.506 312.309C359.219 296.956 377.004 256.216 378.828 250.44C380.653 244.663 380.196 230.374 382.173 223.533V221.101C382.173 221.101 394.942 190.851 393.726 187.05C392.662 183.25 379.74 180.514 369.404 183.706C359.067 186.746 345.994 202.556 341.129 210.46C336.265 218.365 329.272 230.526 331.856 240.863C328.816 241.167 327.144 243.599 326.688 245.575C326.232 247.552 315.743 272.178 315.743 272.178C315.743 272.178 311.487 273.546 308.598 276.434C305.71 279.322 304.494 283.275 304.494 283.275C304.494 283.275 300.39 280.69 299.63 278.562C298.869 276.434 303.43 256.52 309.054 243.599C314.679 230.83 327.296 205.748 330.032 201.035C332.92 196.323 346.45 170.633 348.578 164.4C350.706 158.168 364.083 146.159 366.211 136.582C368.339 127.005 372.596 119.404 367.883 109.22C363.171 99.0346 353.594 98.5786 346.298 100.859C339.001 103.291 327.296 118.492 321.823 129.589C316.351 140.686 304.494 140.23 288.533 165.008C272.571 189.787 263.146 203.924 262.082 207.724C261.17 211.524 261.626 215.021 259.194 218.669C256.762 219.733 256.762 201.34 260.714 192.675C264.666 184.01 279.412 162.728 280.324 158.776C282.3 157.864 295.069 154.975 301.758 143.27C305.102 137.494 309.054 139.926 313.767 131.565C318.479 123.205 318.935 117.428 315.743 112.564C314.679 107.395 308.902 101.163 296.741 103.595C284.58 106.027 281.54 108.763 281.084 109.067C279.564 108.307 276.98 101.923 269.227 100.707C261.322 99.3386 252.505 103.595 248.705 105.875C244.145 105.723 233.96 106.331 228.791 110.132C222.407 109.524 211.614 110.132 204.773 114.084C207.662 108.763 214.198 92.8021 211.614 80.337C209.182 67.8719 195.5 63.6155 192.612 63.4635C189.724 63.3115 184.708 73.9524 181.363 79.881C177.867 85.8095 160.081 116.668 152.177 131.261C144.272 145.855 136.975 168.049 134.543 174.129C132.111 180.21 130.743 199.211 130.135 206.66C129.527 214.109 119.038 240.407 116.91 249.224C114.781 258.04 114.629 287.987 110.069 318.846C105.509 349.704 110.069 336.023 105.357 355.785C100.644 375.547 96.6919 387.252 79.3624 411.574C62.0329 435.896 58.9926 446.233 52 455.962H216.782V456.114Z" fill="#E0E1E2"/>
<path d="M216.782 456.114C222.863 448.665 242.169 419.935 260.106 406.405C278.044 392.876 332.312 353.505 340.217 344.84C348.122 336.327 349.794 327.663 354.506 312.309C359.219 296.956 377.004 256.216 378.828 250.44C380.653 244.663 380.196 230.374 382.173 223.533V221.101C382.173 221.101 394.942 190.851 393.726 187.05C392.662 183.25 379.74 180.514 369.404 183.706C359.067 186.746 345.994 202.556 341.129 210.46C336.265 218.365 329.272 230.526 331.856 240.863C328.816 241.167 327.144 243.599 326.688 245.575C326.232 247.552 315.743 272.178 315.743 272.178C315.743 272.178 311.487 273.546 308.598 276.434C305.71 279.322 304.494 283.275 304.494 283.275C304.494 283.275 300.39 280.69 299.63 278.562C298.869 276.434 303.43 256.52 309.054 243.599C314.679 230.83 327.296 205.748 330.032 201.035C332.92 196.323 346.45 170.633 348.578 164.4C350.706 158.168 364.083 146.159 366.211 136.582C368.339 127.005 372.596 119.404 367.883 109.22C363.171 99.0346 353.594 98.5786 346.298 100.859C339.001 103.291 327.296 118.492 321.823 129.589C316.351 140.686 304.494 140.23 288.533 165.008C272.571 189.787 263.146 203.924 262.082 207.724C261.17 211.524 261.626 215.021 259.194 218.669C256.762 219.733 256.762 201.34 260.714 192.675C264.666 184.01 279.412 162.728 280.324 158.776C282.3 157.864 295.069 154.975 301.758 143.27C305.102 137.494 309.054 139.926 313.767 131.565C318.479 123.205 318.935 117.428 315.743 112.564C314.679 107.395 308.902 101.163 296.741 103.595C284.58 106.027 281.54 108.763 281.084 109.067C279.564 108.307 276.98 101.923 269.227 100.707C261.322 99.3386 252.505 103.595 248.705 105.875C244.145 105.723 233.96 106.331 228.791 110.132C222.407 109.524 211.614 110.132 204.773 114.084C207.662 108.763 214.198 92.8021 211.614 80.337C209.182 67.8719 195.5 63.6155 192.612 63.4635C189.724 63.3115 184.708 73.9524 181.363 79.881C177.867 85.8095 160.081 116.668 152.177 131.261C144.272 145.855 136.975 168.049 134.543 174.129C132.111 180.21 130.743 199.211 130.135 206.66C129.527 214.109 119.038 240.407 116.91 249.224C114.781 258.04 114.629 287.987 110.069 318.846C105.509 349.704 110.069 336.023 105.357 355.785C100.644 375.547 96.6919 387.252 79.3624 411.574C62.0329 435.896 58.9926 446.233 52 455.962" stroke="#808285" stroke-width="2" stroke-miterlimit="10"/>
<path d="M204.925 114.084C207.813 108.763 214.349 92.8021 211.765 80.337C209.333 67.8719 195.652 63.6155 192.764 63.4635C189.875 63.3115 184.859 73.9524 181.515 79.881C178.018 85.8095 160.233 116.668 152.328 131.261C144.423 145.855 137.127 168.049 134.695 174.129C132.262 180.21 130.894 199.211 130.286 206.66" stroke="#2969D0" stroke-width="3" stroke-miterlimit="10" stroke-linecap="round"/>
<path d="M159.93 185.683C160.69 176.41 169.05 132.326 176.955 126.246C184.86 120.165 195.197 121.686 197.933 120.165C200.517 118.645 204.926 113.021 210.246 111.805" stroke="#808285" stroke-width="2" stroke-miterlimit="10"/>
<path d="M240.952 114.692C237.304 112.868 233.656 110.436 228.943 110.132" stroke="#808285" stroke-width="2" stroke-miterlimit="10"/>
<path d="M188.659 211.525C194.74 210.46 198.996 204.228 206.141 185.682C213.285 167.137 227.271 128.677 236.087 123.053C244.904 117.428 256.001 120.165 259.193 119.405C262.386 118.644 266.946 115.148 276.219 115.756C285.492 116.364 296.285 123.205 296.285 123.205" stroke="#808285" stroke-width="2" stroke-miterlimit="10"/>
<path d="M281.236 109.218C281.236 109.218 277.132 111.65 273.483 115.754" stroke="#808285" stroke-width="2" stroke-miterlimit="10"/>
<g opacity="0.5">
<path d="M389.924 188.112C388.1 187.96 386.428 188.416 384.907 189.328C383.387 190.24 382.019 191.305 380.955 192.673C379.739 194.041 378.675 195.257 377.611 196.777C377.003 197.537 376.699 198.297 376.091 198.905C375.635 199.665 375.179 200.425 374.875 201.185C373.354 204.378 372.594 207.722 372.442 211.218C372.442 212.89 372.594 214.715 373.202 216.387C373.658 218.059 374.723 219.579 376.547 220.187C374.723 220.035 373.354 218.363 372.594 216.691C371.834 215.019 371.53 213.194 371.378 211.37C371.226 209.546 371.53 207.722 371.834 205.898C372.29 204.074 372.746 202.402 373.507 200.729C373.963 199.817 374.419 199.057 374.875 198.297C375.331 197.537 375.939 196.777 376.395 196.017C377.459 194.649 378.675 193.129 380.043 191.913C381.411 190.697 382.931 189.48 384.603 188.72C386.124 187.808 388.1 187.656 389.924 188.112Z" fill="#AEB0B2"/>
</g>
<g opacity="0.5">
<path d="M197.477 68.6299C200.061 69.846 202.037 72.2782 202.494 75.3185C202.798 76.8386 202.646 78.3587 202.037 79.7268C201.429 81.095 200.517 82.3111 199.605 83.3752C197.477 85.5034 194.893 86.8715 192.157 87.6315C189.42 88.3916 186.532 88.5436 183.796 87.9356C186.532 87.9356 189.268 87.3275 191.853 86.5674C194.437 85.6554 196.717 84.2872 198.541 82.3111C200.365 80.4869 201.581 78.0547 201.429 75.4705C201.125 72.8862 199.757 70.302 197.477 68.6299Z" fill="#AEB0B2"/>
</g>
</svg>
