<svg width="850" height="500" viewBox="0 0 850 500" fill="none" xmlns="http://www.w3.org/2000/svg">
<path opacity="0.33" d="M563.768 416.65C562.085 413.706 559.421 409.359 555.215 405.013C549.888 399.265 546.102 397.442 539.933 392.816C531.381 386.507 525.913 380.899 517.361 372.206C508.248 362.813 509.089 362.252 501.378 354.962C492.546 346.69 486.797 341.783 486.797 341.783C481.47 337.296 479.507 335.894 477.123 332.529C475.301 330.006 473.759 327.062 471.235 318.93C468.431 309.677 468.852 308.135 466.328 298.741C463.945 289.628 463.524 290.75 459.739 277.571C457.916 271.122 457.355 268.458 455.533 262.569C452.869 254.438 451.887 253.596 451.046 249.811C449.364 242.521 451.046 235.23 452.588 230.183C453.85 225.977 454.691 225.416 455.252 221.771C456.093 216.583 456.514 215.882 457.075 214.48C457.495 213.639 458.196 212.377 459.318 211.116C458.196 206.769 457.355 201.582 456.935 195.694C456.374 188.543 456.794 182.234 457.495 177.187C458.617 177.187 459.598 177.047 460.72 177.047C462.543 176.486 464.926 175.785 468.01 175.785C474.179 175.785 478.666 178.449 480.628 179.711C480.769 177.047 480.769 173.121 480.208 168.354C479.367 161.344 477.965 156.858 476.563 151.53C474.46 143.539 473.338 137.65 472.637 130.5C472.076 124.472 471.656 120.546 472.357 116.06C472.917 111.994 473.478 108.348 476.282 104.703C477.264 103.441 480.628 99.5158 486.377 98.3942C494.789 96.7118 501.098 102.32 502.36 103.441C504.883 105.685 506.005 107.788 508.108 111.713C511.473 118.163 512.734 123.771 513.576 127.696C514.277 130.64 514.837 134.846 515.118 140.034C515.538 142.838 516.239 147.044 518.202 151.811C519.044 154.054 520.165 156.297 524.091 163.167C527.315 168.915 529.699 173.962 530.68 175.505C536.288 184.898 539.653 192.89 543.999 203.124C545.962 207.751 548.486 212.658 551.009 219.808C551.57 219.528 552.271 219.247 552.832 218.967C552.832 216.583 552.692 212.938 551.57 208.872C550.308 203.545 548.345 199.9 547.504 198.217C544.981 193.31 541.476 185.739 536.989 173.402C533.624 164.008 531.101 156.437 529.418 151.25C527.456 144.941 526.194 140.735 523.53 132.603C521.707 126.995 520.165 124.331 518.763 118.864C517.361 112.414 517.221 108.208 518.903 104.142C519.604 102.46 520.446 101.198 521.006 100.357C521.147 98.955 521.707 96.5716 523.39 94.1882C526.334 89.9822 530.961 88.8606 532.503 88.44C539.513 86.7576 545.121 90.4028 545.962 90.9636C547.644 92.0852 548.766 93.347 549.467 94.1882C550.729 95.1696 552.551 96.7118 554.374 99.0952C555.916 101.198 556.757 103.021 557.739 104.984C559.421 108.489 559.141 109.47 560.263 112.134C561.244 114.237 562.366 115.919 564.749 118.443C567.833 121.808 571.058 125.173 574.423 128.818C577.507 127.416 580.171 126.855 581.994 126.575C585.218 126.014 587.181 126.294 596.575 126.575C598.818 126.715 600.64 126.715 601.762 126.715C602.603 126.575 603.585 126.294 604.426 126.154C605.968 125.733 607.37 125.313 608.772 124.892C607.791 122.228 606.529 117.882 607.09 112.414C607.23 110.451 607.65 106.806 610.034 102.74C611.015 101.058 611.997 99.7962 612.698 98.955C612.978 98.254 613.539 97.1324 614.66 96.0108C616.062 94.749 617.605 94.4686 618.726 94.1882C621.67 93.6274 624.054 94.1882 625.596 94.6088C626.718 96.0108 628.54 98.254 630.924 100.778C635.971 106.526 637.934 108.068 640.598 111.713C642.14 113.816 644.383 116.901 646.486 121.247C649.711 125.733 652.935 130.36 656.16 134.846C658.683 139.613 661.628 144.801 665.273 150.128C667.516 153.493 669.899 156.578 672.143 159.382C673.264 162.746 674.807 167.373 676.489 172.841C679.573 182.515 681.116 187.281 681.676 190.927C682.518 196.254 682.237 198.077 683.639 205.508C684.06 207.33 684.48 209.714 685.462 213.639C688.126 224.715 689.808 227.94 691.631 235.37C694.014 244.624 694.855 252.054 695.136 254.578C695.696 259.625 695.556 265.513 695.556 277.29C695.556 283.74 695.416 287.665 695.416 292.572C695.276 301.826 695.276 308.415 695.276 321.594C695.276 338.278 695.276 347.952 695.977 359.869C696.257 365.336 696.818 371.786 699.201 379.777C700.183 383.002 701.304 386.086 704.389 392.676C707.333 398.985 711.399 407.397 717.147 417.491C666.114 417.07 614.941 416.93 563.768 416.65Z" fill="#E0E1E2"/>
<path d="M608.913 124.471C607.931 121.807 606.669 117.461 607.23 111.993C607.37 110.03 607.791 106.385 610.174 102.319C611.156 100.637 612.137 99.3753 612.838 98.534C613.119 97.833 613.679 96.7114 614.801 95.5898C616.203 94.328 617.745 94.0476 618.867 93.7672C621.811 93.2064 624.194 93.7672 625.737 94.1878C626.858 95.5898 628.681 97.833 631.064 100.357C636.111 106.105 638.074 107.647 640.738 111.292C642.28 113.395 644.524 116.48 646.627 120.826C649.851 125.312 653.076 129.939 656.3 134.425C658.824 139.192 661.768 144.38 665.413 149.707C667.657 153.072 670.04 156.157 672.283 158.961C673.405 162.325 674.947 166.952 676.629 172.42C679.714 182.094 681.256 186.861 681.817 190.506C682.658 195.833 682.378 197.656 683.78 205.087C684.2 206.909 684.621 209.293 685.602 213.218C688.266 224.294 689.949 227.519 691.771 234.949C694.155 244.203 694.996 251.633 695.276 254.157C695.837 259.204 695.697 265.093 695.697 276.869C695.697 283.319 695.557 287.244 695.557 292.151C695.416 301.405 695.416 307.994 695.416 321.173C695.416 337.857 695.416 347.531 696.117 359.448C696.398 364.915 696.959 371.365 699.342 379.356C700.323 382.581 701.445 385.665 704.529 392.255C707.474 398.564 711.539 406.976 717.288 417.07" stroke="#808285" stroke-width="2" stroke-miterlimit="10"/>
<path d="M594.332 166.812C594.893 167.093 596.856 166.953 597.416 167.233C598.258 169.617 598.678 173.122 599.66 175.785C601.062 179.431 602.043 181.534 603.585 184.618C603.445 185.88 602.884 187.983 602.884 189.245" stroke="#2969D0" stroke-width="3" stroke-miterlimit="10" stroke-linecap="round"/>
<path d="M661.067 216.163C660.086 214.901 658.824 212.658 657.983 209.854C657.282 207.33 657.282 205.508 657.282 204.667C657.142 196.395 655.88 188.123 655.459 179.851C654.898 168.775 654.478 164.849 653.637 159.662C652.936 155.877 652.375 153.353 651.954 151.39C649.711 143.118 647.047 138.211 645.505 135.828C643.122 131.902 641.439 130.5 640.037 129.659C639.196 129.098 637.794 128.397 633.868 127.556C628.961 126.575 614.661 124.472 609.053 124.472C607.651 124.892 606.249 125.313 604.707 125.733C603.725 126.014 602.884 126.154 602.043 126.294C600.921 126.294 599.099 126.154 596.855 126.154C587.462 125.874 585.499 125.593 582.274 126.154C580.452 126.434 578.91 126.575 575.825 127.977" stroke="#2969D0" stroke-width="3" stroke-miterlimit="10" stroke-linecap="round"/>
<path d="M508.669 298.321C510.912 292.432 511.192 287.525 511.192 284.441C511.192 279.534 510.211 275.188 509.089 269.86C508.388 266.636 508.108 266.355 507.126 261.869C505.865 256.261 505.584 254.018 505.023 251.214C503.762 245.746 502.219 241.96 499.836 236.913C494.929 225.977 490.162 214.761 489.181 212.238C486.236 205.087 482.591 194.572 480.488 180.412" stroke="#808285" stroke-width="2" stroke-miterlimit="10"/>
<path d="M617.745 210.835C615.222 209.012 611.717 206.068 608.352 201.721C607.23 200.319 605.267 197.515 601.903 190.085C600.22 186.299 598.958 183.075 594.752 170.877C591.808 162.325 590.967 159.942 588.864 154.193C588.023 152.09 586.06 146.623 582.835 140.314C581.714 137.93 580.031 134.986 577.367 131.621C576.246 130.219 575.264 129.238 574.563 128.396" stroke="#808285" stroke-width="2" stroke-miterlimit="10"/>
<path d="M563.768 416.65C562.085 413.706 559.421 409.359 555.215 405.013C549.888 399.265 546.102 397.442 539.933 392.816C531.381 386.507 525.913 380.899 517.361 372.206C508.248 362.813 509.089 362.252 501.378 354.962C492.546 346.69 486.797 341.783 486.797 341.783C481.47 337.296 479.507 335.894 477.123 332.529C475.301 330.006 473.759 327.062 471.235 318.93C468.431 309.677 468.852 308.135 466.328 298.741C463.945 289.628 463.524 290.75 459.739 277.571C457.916 271.122 457.355 268.458 455.533 262.569C452.869 254.438 451.887 253.596 451.046 249.811C449.364 242.521 451.046 235.23 452.588 230.183C453.85 225.977 454.691 225.416 455.252 221.771C456.093 216.583 456.514 215.882 457.075 214.48C457.495 213.639 458.196 212.377 459.318 211.116C458.196 206.769 457.355 201.582 456.935 195.694C456.374 188.543 456.794 182.234 457.495 177.187C458.617 177.187 459.598 177.047 460.72 177.047C462.543 176.486 464.926 175.785 468.01 175.785C474.179 175.785 478.666 178.449 480.628 179.711C480.769 177.047 480.769 173.121 480.208 168.354C479.367 161.344 477.965 156.858 476.563 151.53C474.46 143.539 473.338 137.65 472.637 130.5C472.076 124.472 471.656 120.546 472.357 116.06C472.917 111.994 473.478 108.348 476.282 104.703C477.264 103.441 480.628 99.5158 486.377 98.3942C494.789 96.7118 501.098 102.32 502.36 103.441C504.883 105.685 506.005 107.788 508.108 111.713C511.473 118.163 512.734 123.771 513.576 127.696C514.277 130.64 514.837 134.846 515.118 140.034C515.538 142.838 516.239 147.044 518.202 151.811C519.044 154.054 520.165 156.297 524.091 163.167C527.315 168.915 529.699 173.962 530.68 175.505C536.288 184.898 539.653 192.89 543.999 203.124C545.962 207.751 548.486 212.658 551.009 219.808C551.57 219.528 552.271 219.247 552.832 218.967C552.832 216.583 552.692 212.938 551.57 208.872C550.308 203.545 548.345 199.9 547.504 198.217C544.981 193.31 541.476 185.739 536.989 173.402C533.624 164.008 531.101 156.437 529.418 151.25C527.456 144.941 526.194 140.735 523.53 132.603C521.707 126.995 520.165 124.331 518.763 118.864C517.361 112.414 517.221 108.208 518.903 104.142C519.604 102.46 520.446 101.198 521.006 100.357C521.147 98.955 521.707 96.5716 523.39 94.1882C526.334 89.9822 530.961 88.8606 532.503 88.44C539.513 86.7576 545.121 90.4028 545.962 90.9636C547.644 92.0852 548.766 93.347 549.467 94.1882C550.729 95.1696 552.551 96.7118 554.374 99.0952C555.916 101.198 556.757 103.021 557.739 104.984C559.421 108.489 559.141 109.47 560.263 112.134C561.244 114.237 562.366 115.919 564.749 118.443C567.833 121.808 571.058 125.173 574.423 128.818" stroke="#808285" stroke-width="2" stroke-miterlimit="10"/>
<g opacity="0.5">
<path d="M462.963 209.014C464.225 208.874 465.066 207.612 465.346 206.49C465.486 205.228 465.627 203.967 465.767 202.705C465.907 200.181 466.047 197.657 466.047 195.134L466.187 187.423C466.187 186.161 466.328 184.899 466.328 183.637C466.328 182.376 466.328 181.114 465.627 179.992C466.608 180.974 466.748 182.376 467.029 183.637L467.309 187.423C467.449 189.946 467.589 192.61 467.449 195.134C467.449 197.657 467.309 200.321 466.888 202.845C466.748 204.107 466.468 205.369 466.047 206.63C465.767 207.331 465.346 207.892 464.926 208.313C464.225 208.874 463.524 209.154 462.963 209.014Z" fill="#AEB0B2"/>
</g>
<path opacity="0.33" d="M319.118 419.315C320.94 417.072 328.792 408.94 337.344 400.388C345.896 391.835 363.421 361.692 368.609 355.664C373.796 349.635 387.536 334.774 390.901 327.343C394.265 319.912 390.62 296.078 390.901 288.648C391.181 281.217 394.686 245.746 392.303 236.493C389.919 227.24 386.134 223.454 383.049 217.005C379.965 210.556 379.404 208.593 376.6 206.63C373.796 204.667 375.479 187.843 376.039 185.46C376.6 183.077 378.563 172.281 378.563 168.496C378.563 164.71 378.563 153.915 381.507 145.923C384.451 137.932 382.489 113.958 377.441 106.387C372.394 98.8159 368.328 96.9933 362.3 96.5727C356.271 96.1521 349.682 102.04 347.999 105.686C346.317 109.331 344.074 112.696 341.55 142.418C338.045 150.41 331.315 157.42 328.371 167.094C325.427 176.767 317.576 201.162 315.753 211.257C313.93 221.351 303.556 235.091 307.762 227.66C311.968 220.37 311.547 202.424 319.398 178.59C327.249 154.756 326.268 156.298 326.268 155.036C326.268 153.775 330.895 149.428 332.437 139.053C335.381 134.287 341.129 110.593 330.474 103.723C330.334 98.8159 327.109 95.4511 318.277 94.0491C309.444 92.6471 306.219 94.8903 304.257 100.358C301.032 101.199 296.125 113.116 295.284 122.93C292.9 124.332 281.404 135.969 279.161 140.315C276.917 144.662 270.608 166.533 269.347 172.141C268.085 177.749 259.953 212.799 257.71 216.024C255.467 219.248 254.485 221.492 256.308 214.622C258.13 207.752 266.543 166.393 270.188 158.962C273.833 151.531 274.254 145.363 284.348 130.922C294.442 116.481 293.04 109.471 291.218 104.845C289.395 100.218 287.993 96.2923 279.441 94.8903C270.889 93.4883 265.982 100.638 265.982 100.638C265.982 100.638 260.794 102.181 248.316 115.64C245.653 110.453 242.007 106.527 242.007 106.527C242.007 106.527 239.344 100.919 231.773 99.7973C224.202 98.6757 221.117 106.807 220.697 109.752C218.173 109.752 212.986 121.388 211.163 133.025C209.341 144.802 206.396 161.626 203.312 171.58C200.228 181.534 198.265 189.806 197.564 197.097C196.863 204.387 192.937 214.622 192.236 224.155C191.535 233.689 180.459 261.028 179.898 269.721C179.197 278.413 179.618 308.136 178.777 315.005C177.936 321.875 176.674 345.008 178.777 358.327C180.88 371.506 179.898 383.704 177.655 390.293C175.412 396.883 167 418.754 167 418.754H319.118V419.315Z" fill="#E0E1E2"/>
<path d="M319.118 419.315C320.94 417.072 328.792 408.94 337.344 400.388C345.896 391.835 363.421 361.692 368.609 355.664C373.796 349.635 387.536 334.774 390.901 327.343C394.265 319.912 390.62 296.078 390.901 288.648C391.181 281.217 394.686 245.746 392.303 236.493C389.919 227.24 386.134 223.454 383.049 217.005C379.965 210.556 379.404 208.593 376.6 206.63C373.796 204.667 375.479 187.843 376.039 185.46C376.6 183.077 378.563 172.281 378.563 168.496C378.563 164.71 378.563 153.915 381.507 145.923C384.451 137.932 382.489 113.958 377.441 106.387C372.394 98.8159 368.328 96.9933 362.3 96.5727C356.271 96.1521 349.682 102.04 347.999 105.686C346.317 109.331 344.074 112.696 341.55 142.418C338.045 150.41 331.315 157.42 328.371 167.094C325.427 176.767 317.576 201.162 315.753 211.257C313.93 221.351 303.556 235.091 307.762 227.66C311.968 220.37 311.547 202.424 319.398 178.59C327.249 154.756 326.268 156.298 326.268 155.036C326.268 153.775 330.895 149.428 332.437 139.053C335.381 134.287 341.129 110.593 330.474 103.723C330.334 98.8159 327.109 95.4511 318.277 94.0491C309.444 92.6471 306.219 94.8903 304.257 100.358C301.032 101.199 296.125 113.116 295.284 122.93C292.9 124.332 281.404 135.969 279.161 140.315C276.917 144.662 270.608 166.533 269.347 172.141C268.085 177.749 259.953 212.799 257.71 216.024C255.467 219.248 254.485 221.492 256.308 214.622C258.13 207.752 266.543 166.393 270.188 158.962C273.833 151.531 274.254 145.363 284.348 130.922C294.442 116.481 293.04 109.471 291.218 104.845C289.395 100.218 287.993 96.2923 279.441 94.8903C270.889 93.4883 265.982 100.638 265.982 100.638C265.982 100.638 260.794 102.181 248.316 115.64C245.653 110.453 242.007 106.527 242.007 106.527C242.007 106.527 239.344 100.919 231.773 99.7973C224.202 98.6757 221.117 106.807 220.697 109.752C218.173 109.752 212.986 121.388 211.163 133.025C209.341 144.802 206.396 161.626 203.312 171.58C200.228 181.534 198.265 189.806 197.564 197.097C196.863 204.387 192.937 214.622 192.236 224.155C191.535 233.689 180.459 261.028 179.898 269.721C179.197 278.413 179.618 308.136 178.777 315.005C177.936 321.875 176.674 345.008 178.777 358.327C180.88 371.506 179.898 383.704 177.655 390.293C175.412 396.883 167 418.754 167 418.754" stroke="#808285" stroke-width="2" stroke-miterlimit="10"/>
<path d="M207.658 220.511C211.584 216.305 214.808 209.855 215.089 203.126C215.369 196.396 214.668 161.486 223.501 148.167C232.334 134.848 248.457 116.201 248.457 116.201" stroke="#808285" stroke-width="2" stroke-miterlimit="10"/>
<path d="M364.262 302.247C362.299 298.602 359.916 296.218 359.916 293.414C359.916 290.61 361.458 258.504 363.141 247.008C364.683 235.511 372.534 202.284 375.198 195.414" stroke="#808285" stroke-width="2" stroke-miterlimit="10"/>
</svg>
