<svg width="850" height="500" viewBox="0 0 850 500" fill="none" xmlns="http://www.w3.org/2000/svg">
<path opacity="0.33" d="M539.714 421.305C538.307 418.209 535.915 413.566 532.256 408.781C528.316 403.716 524.798 400.901 521.843 398.228C518.044 394.71 513.682 389.081 505.239 377.824C482.302 347.288 483.85 346.022 477.377 340.815C475.407 339.267 471.045 336.031 467.808 330.261C465.416 325.899 464.29 321.678 463.587 318.3C462.32 312.953 462.742 311.405 461.898 305.636C461.757 304.229 460.491 296.63 457.536 288.046C454.581 279.885 452.751 278.759 450.078 270.738C448.248 265.531 447.263 261.029 446.841 258.073C445.856 256.526 444.59 254.415 443.745 251.741C443.323 250.475 443.183 249.349 443.042 248.223C442.338 246.675 441.353 244.424 440.931 241.61C440.368 238.373 440.65 235.559 440.931 233.729L440.79 210.933C439.383 206.571 438.117 203.053 437.132 200.661C434.458 193.766 432.629 190.107 430.94 183.775C430.377 181.523 429.955 179.553 429.814 178.428C430.659 178.005 431.644 177.583 432.488 177.02C434.177 175.613 436.85 173.784 440.509 172.94C447.123 171.532 452.47 174.347 456.691 176.598C458.802 177.724 468.089 182.931 475.547 194.751C480.332 202.35 482.443 209.526 485.961 221.768C487.086 225.709 487.931 229.086 488.493 231.337C490.463 233.448 492.996 236.544 495.248 240.765C497.64 245.268 496.514 243.298 499.329 252.304C493.419 231.337 485.679 212.059 478.925 192.077C478.08 186.308 476.955 178.709 475.407 169.703C475.125 168.155 474.844 166.326 474.422 163.934C472.17 150.425 470.904 144.937 470.2 140.856C469.356 135.79 468.512 125.799 470.763 114.824C471.326 112.431 472.03 109.617 474.281 106.943C474.703 106.381 479.347 101.033 486.242 101.174C490.182 101.315 492.715 103.144 497.359 106.381C499.61 107.928 501.721 109.476 503.55 112.009C506.083 115.386 506.646 118.904 507.209 121.297C507.209 121.297 509.601 132.695 512.837 142.826C514.948 149.721 517.481 154.787 519.451 158.587C522.688 165.059 524.095 166.748 527.472 173.08C530.005 177.865 531.412 180.961 536.478 192.921C541.262 204.179 545.202 213.607 548.157 220.643C549.142 220.221 550.55 219.376 551.816 217.688C553.927 215.014 553.927 211.918 553.927 209.948C554.208 192.64 555.756 191.233 553.927 185.323C553.505 183.916 552.66 181.523 551.675 177.583C550.972 174.769 550.409 172.377 550.127 170.829C547.032 168.859 544.64 167.03 542.81 165.622C535.915 160.275 534.649 157.883 534.086 156.757C533.523 155.35 532.96 153.521 532.96 150.143C532.96 144.374 532.819 134.805 539.714 127.207C544.64 121.859 550.55 120.03 555.053 118.764C560.963 117.075 566.029 116.934 569.406 117.075C568.984 115.246 568.561 112.431 568.843 109.195C568.984 107.647 569.265 105.536 570.25 103.285C572.642 98.0782 577.567 95.9675 578.13 95.8267C584.322 93.2938 590.091 95.9674 592.202 97.0932C595.016 98.3596 596.986 100.189 598.393 101.596C599.097 102.3 599.941 102.863 600.926 103.285C603.037 104.129 606.696 105.536 607.962 106.24C609.088 104.973 610.777 103.425 612.324 102.159C612.747 101.737 613.169 101.455 613.591 101.174C613.872 100.189 614.435 97.9375 616.405 96.1082C620.064 92.8717 625.13 93.9974 625.974 94.2788C630.618 95.4046 633.01 99.0632 633.573 99.9075C634.558 101.596 635.683 103.425 636.668 105.114C638.498 108.069 641.031 112.291 643.704 117.497C644.549 119.186 646.096 122.282 648.489 127.91C652.288 136.635 652.429 138.183 655.665 145.781C660.168 156.757 661.294 157.179 664.953 166.748C666.219 169.985 667.767 174.347 669.455 180.116C670.159 182.508 671.285 187.011 673.255 198.55C675.788 213.044 675.084 212.481 676.632 219.939C677.899 225.709 678.18 225.286 682.261 239.78C685.357 251.038 687.045 256.666 687.608 261.31C688.593 268.205 688.452 273.552 688.312 281.292C688.171 290.016 687.608 291.564 687.186 301.836C686.904 310.279 687.186 310.702 687.045 321.255C686.904 336.312 685.919 347.992 685.779 350.806C684.653 365.3 683.949 364.033 683.387 375.15C683.387 375.15 682.824 387.111 684.231 402.168C684.512 404.278 684.794 407.093 685.638 410.611C686.904 415.536 688.734 419.335 690 422.009C639.905 421.446 589.81 421.305 539.714 421.305Z" fill="#E0E1E2"/>
<path d="M539.714 421.305C538.307 418.209 535.915 413.565 532.256 408.781C528.316 403.715 524.798 400.901 521.843 398.227C518.044 394.709 513.682 389.081 505.239 377.823C482.302 347.288 483.85 346.021 477.377 340.815C475.407 339.267 471.045 336.03 467.808 330.261C465.416 325.899 464.29 321.677 463.587 318.3C462.32 312.953 462.742 311.405 461.898 305.635C461.757 304.228 460.491 296.63 457.536 288.046C454.581 279.884 452.751 278.759 450.078 270.738C448.248 265.531 447.263 261.028 446.841 258.073C445.856 256.525 444.59 254.414 443.745 251.741C443.323 250.474 443.183 249.349 443.042 248.223C442.338 246.675 441.353 244.424 440.931 241.609C440.368 238.373 440.65 235.558 440.931 233.729L440.79 210.933C439.383 206.571 438.117 203.053 437.132 200.661C434.458 193.765 432.629 190.107 430.94 183.775C430.377 181.523 429.955 179.553 429.814 178.427C430.659 178.005 431.644 177.583 432.488 177.02C434.177 175.613 436.85 173.784 440.509 172.939C447.123 171.532 452.47 174.346 456.691 176.598C458.802 177.724 468.089 182.93 475.547 194.75C480.332 202.349 482.443 209.526 485.961 221.768C487.086 225.708 487.931 229.085 488.493 231.337C490.464 233.448 492.996 236.543 495.248 240.765C497.64 245.268 496.514 243.298 499.329 252.304C493.419 231.337 485.679 212.059 478.925 192.077C478.08 186.307 476.955 178.709 475.407 169.703C475.125 168.155 474.844 166.326 474.422 163.933C472.17 150.425 470.904 144.937 470.2 140.856C469.356 135.79 468.512 125.799 470.763 114.823C471.326 112.431 472.03 109.617 474.281 106.943C474.703 106.38 479.347 101.033 486.242 101.174C490.182 101.314 492.715 103.144 497.359 106.38C499.61 107.928 501.721 109.476 503.55 112.009C506.083 115.386 506.646 118.904 507.209 121.296C507.209 121.296 509.601 132.694 512.838 142.826C514.948 149.721 517.481 154.787 519.451 158.586C522.688 165.059 524.095 166.748 527.472 173.08C530.005 177.864 531.412 180.96 536.478 192.921C541.262 204.178 545.202 213.607 548.157 220.642C548.861 220.361 549.846 219.798 550.69 218.954" stroke="#808285" stroke-width="2" stroke-miterlimit="10"/>
<path d="M569.124 117.075C568.702 115.246 568.279 112.431 568.561 109.195C568.702 107.647 568.983 105.536 569.968 103.285C572.36 98.0782 577.285 95.9675 577.848 95.8267C584.04 93.2938 589.809 95.9674 591.92 97.0932C594.734 98.3596 596.704 100.189 598.111 101.596C598.815 102.3 599.659 102.863 600.644 103.285C602.755 104.129 606.414 105.536 607.68 106.24C608.806 104.973 610.495 103.425 612.042 102.159C612.465 101.737 612.887 101.455 613.309 101.174C613.59 100.189 614.153 97.9375 616.123 96.1082C619.782 92.8717 624.848 93.9974 625.692 94.2788C630.336 95.4046 632.728 99.0632 633.291 99.9075C634.276 101.596 635.401 103.425 636.386 105.114C638.216 108.069 640.749 112.291 643.422 117.497C644.267 119.186 645.815 122.282 648.207 127.91C652.006 136.635 652.147 138.183 655.383 145.781C659.886 156.757 661.012 157.179 664.671 166.748C665.937 169.985 667.485 174.347 669.174 180.116C669.877 182.508 671.003 187.011 672.973 198.55C675.506 213.044 674.802 212.481 676.35 219.939C677.617 225.709 677.898 225.286 681.979 239.78C685.075 251.038 686.763 256.666 687.326 261.31C688.311 268.205 688.17 273.552 688.03 281.292C687.889 290.016 687.326 291.564 686.904 301.836C686.622 310.279 686.904 310.702 686.763 321.255C686.622 336.312 685.637 347.992 685.497 350.806C684.371 365.3 683.667 364.033 683.104 375.15C683.104 375.15 682.542 387.111 683.949 402.168C684.23 404.278 684.512 407.093 685.356 410.611C686.622 415.536 688.452 419.335 689.718 422.009" stroke="#808285" stroke-width="2" stroke-miterlimit="10"/>
<path d="M498.765 303.806C500.032 300.007 501.439 296.207 502.987 292.267C503.69 290.579 504.253 288.89 504.957 287.342C504.394 283.261 503.69 279.04 502.987 274.818C501.72 267.501 499.891 258.073 498.484 251.037" stroke="#808285" stroke-width="2" stroke-miterlimit="10"/>
<path d="M617.391 213.045C615.843 205.306 614.295 197.003 613.028 188.419C612.325 183.635 611.199 176.036 610.073 161.261C608.948 148.597 605.43 136.495 602.756 131.992C600.927 128.896 598.112 127.489 594.454 125.8C584.041 121.016 574.613 117.92 569.265 117.076C565.888 116.935 560.682 116.935 554.912 118.765C550.55 120.031 544.499 121.86 539.574 127.208C532.679 134.806 532.116 142.968 532.116 148.597C532.116 151.974 533.242 155.351 533.805 156.758C534.368 158.025 535.493 160.276 542.529 165.623C544.359 167.03 546.751 168.86 549.847 170.83C550.128 172.378 550.691 174.77 551.394 177.584C552.379 181.524 553.224 183.917 553.646 185.324C555.475 191.234 553.927 192.641 553.646 209.949C553.646 211.919 553.646 215.015 551.535 217.689C551.254 218.111 550.832 218.533 550.409 218.814" stroke="#2969D0" stroke-width="3" stroke-miterlimit="10" stroke-linecap="round"/>
<path d="M539.574 148.596C540.418 152.114 541.825 154.224 542.951 155.632C544.358 157.32 545.484 157.883 546.75 160.275C547.595 161.823 548.017 163.512 548.157 164.215C548.58 165.622 549.565 169.985 549.705 170.97" stroke="#2969D0" stroke-width="3" stroke-miterlimit="10" stroke-linecap="round"/>
<path d="M655.665 214.452C655.384 192.922 653.977 181.243 652.71 174.629C652.429 173.503 651.022 166.186 648.911 155.351C648.489 153.521 648.207 151.833 647.926 150.285C647.504 148.174 646.66 146.204 645.534 144.515C642.016 139.45 634.839 129.881 631.884 126.644C628.648 123.126 623.582 118.483 616.405 113.98C614.717 112.432 610.214 107.648 607.962 105.959" stroke="#808285" stroke-width="2" stroke-miterlimit="10"/>
<g opacity="0.5">
<path d="M444.449 206.291C446.138 204.18 447.404 201.788 447.123 199.255C446.982 198.129 446.419 196.863 445.997 195.596L444.731 191.797C443.886 189.264 443.042 186.731 442.057 184.339C441.635 183.072 441.213 181.806 440.509 180.68C439.946 179.555 438.961 178.569 437.554 178.569C438.961 178.147 440.369 179.132 441.072 180.258C441.916 181.384 442.339 182.65 443.042 183.917C444.168 186.309 445.153 188.842 445.997 191.375L447.264 195.174C447.545 196.441 448.108 197.707 448.249 199.114C448.389 200.521 447.827 202.069 447.123 203.195C446.419 204.461 445.434 205.446 444.449 206.291Z" fill="#AEB0B2"/>
</g>
<path opacity="0.33" d="M316.678 424.121C318.507 421.869 326.387 413.707 334.971 405.124C343.555 396.54 361.145 366.286 366.351 360.235C371.558 354.184 385.348 339.268 388.725 331.81C392.102 324.352 388.444 300.43 388.725 292.972C389.006 285.514 392.524 249.913 390.132 240.626C387.74 231.338 383.941 227.539 380.845 221.066C377.749 214.593 377.186 212.623 374.372 210.653C371.558 208.683 373.246 191.797 373.809 189.405C374.372 187.012 376.342 176.177 376.342 172.378C376.342 168.578 376.342 157.743 379.297 149.722C382.252 141.701 380.282 117.639 375.216 110.04C370.15 102.441 366.07 100.612 360.019 100.19C353.968 99.7678 347.354 105.678 345.666 109.337C343.977 112.995 341.726 116.372 339.193 146.204C335.675 154.225 328.92 161.261 325.965 170.971C323.01 180.68 315.13 205.165 313.301 215.296C311.471 225.428 301.058 239.218 305.28 231.76C309.501 224.443 309.079 206.431 316.959 182.509C324.84 158.587 323.855 160.135 323.855 158.869C323.855 157.602 328.498 153.24 330.046 142.827C333.001 138.043 338.771 114.262 328.076 107.366C327.935 102.441 324.699 99.0642 315.834 97.657C306.968 96.2498 303.732 98.5013 301.762 103.989C298.525 104.834 293.6 116.795 292.756 126.645C290.364 128.052 278.825 139.731 276.574 144.094C274.322 148.456 267.99 170.408 266.723 176.036C265.457 181.665 257.295 216.844 255.044 220.081C252.792 223.317 251.807 225.569 253.637 218.674C255.466 211.779 263.909 170.267 267.568 162.809C271.226 155.351 271.649 149.159 281.78 134.666C291.912 120.172 290.505 113.136 288.675 108.492C286.846 103.849 285.439 99.9085 276.855 98.5013C268.271 97.0941 263.346 104.271 263.346 104.271C263.346 104.271 258.14 105.819 245.616 119.327C242.942 114.121 239.284 110.181 239.284 110.181C239.284 110.181 236.61 104.552 229.011 103.426C221.413 102.301 218.317 110.462 217.895 113.417C215.362 113.417 210.155 125.097 208.326 136.776C206.497 148.597 203.541 165.483 200.446 175.474C197.35 185.464 195.38 193.767 194.676 201.084C193.973 208.401 190.033 218.674 189.329 228.242C188.625 237.811 177.509 265.251 176.946 273.975C176.242 282.7 176.665 312.532 175.82 319.427C174.976 326.322 173.709 349.541 175.82 362.909C177.931 376.136 176.946 388.378 174.694 394.992C172.443 401.606 164 423.558 164 423.558H316.678V424.121Z" fill="#E0E1E2"/>
<path d="M316.678 424.121C318.507 421.869 326.387 413.707 334.971 405.124C343.555 396.54 361.145 366.286 366.351 360.235C371.558 354.184 385.348 339.268 388.725 331.81C392.102 324.352 388.444 300.43 388.725 292.972C389.006 285.514 392.524 249.913 390.132 240.626C387.74 231.338 383.941 227.539 380.845 221.066C377.749 214.593 377.186 212.623 374.372 210.653C371.558 208.683 373.246 191.797 373.809 189.405C374.372 187.012 376.342 176.177 376.342 172.378C376.342 168.578 376.342 157.743 379.297 149.722C382.252 141.701 380.282 117.639 375.216 110.04C370.15 102.441 366.07 100.612 360.019 100.19C353.968 99.7678 347.354 105.678 345.666 109.337C343.977 112.995 341.726 116.372 339.193 146.204C335.675 154.225 328.92 161.261 325.965 170.971C323.01 180.68 315.13 205.165 313.301 215.296C311.471 225.428 301.058 239.218 305.28 231.76C309.501 224.443 309.079 206.431 316.959 182.509C324.84 158.587 323.855 160.135 323.855 158.869C323.855 157.602 328.498 153.24 330.046 142.827C333.001 138.043 338.771 114.262 328.076 107.366C327.935 102.441 324.699 99.0642 315.834 97.657C306.968 96.2498 303.732 98.5013 301.762 103.989C298.525 104.834 293.6 116.795 292.756 126.645C290.364 128.052 278.825 139.731 276.574 144.094C274.322 148.456 267.99 170.408 266.723 176.036C265.457 181.665 257.295 216.844 255.044 220.081C252.792 223.317 251.807 225.569 253.637 218.674C255.466 211.779 263.909 170.267 267.568 162.809C271.226 155.351 271.649 149.159 281.78 134.666C291.912 120.172 290.505 113.136 288.675 108.492C286.846 103.849 285.439 99.9085 276.855 98.5013C268.271 97.0941 263.346 104.271 263.346 104.271C263.346 104.271 258.14 105.819 245.616 119.327C242.942 114.121 239.284 110.181 239.284 110.181C239.284 110.181 236.61 104.552 229.011 103.426C221.413 102.301 218.317 110.462 217.895 113.417C215.362 113.417 210.155 125.097 208.326 136.776C206.497 148.597 203.541 165.483 200.446 175.474C197.35 185.464 195.38 193.767 194.676 201.084C193.973 208.401 190.033 218.674 189.329 228.242C188.625 237.811 177.509 265.251 176.946 273.975C176.242 282.7 176.665 312.532 175.82 319.427C174.976 326.322 173.709 349.541 175.82 362.909C177.931 376.136 176.946 388.378 174.694 394.992C172.443 401.606 164 423.558 164 423.558" stroke="#808285" stroke-width="2" stroke-miterlimit="10"/>
<path d="M204.808 224.585C208.748 220.364 211.984 213.891 212.266 207.136C212.547 200.382 211.843 165.343 220.709 151.975C229.574 138.607 245.756 119.892 245.756 119.892" stroke="#808285" stroke-width="2" stroke-miterlimit="10"/>
<path d="M361.989 306.622C360.019 302.963 357.627 300.571 357.627 297.757C357.627 294.942 359.175 262.718 360.863 251.179C362.411 239.641 370.291 206.291 372.965 199.396" stroke="#808285" stroke-width="2" stroke-miterlimit="10"/>
</svg>
