<svg width="900" height="500" viewBox="0 0 900 500" fill="none" xmlns="http://www.w3.org/2000/svg">
<path opacity="0.33" d="M327.41 430.326C329.284 428.019 337.356 419.658 346.15 410.864C354.943 402.071 372.963 371.077 378.297 364.879C383.631 358.68 397.758 343.399 401.218 335.759C404.677 328.119 400.929 303.612 401.218 295.972C401.506 288.332 405.11 251.86 402.659 242.346C400.209 232.831 396.316 228.939 393.145 222.308C389.973 215.677 389.397 213.659 386.514 211.64C383.631 209.622 385.36 192.323 385.937 189.873C386.514 187.422 388.532 176.322 388.532 172.43C388.532 168.538 388.532 157.438 391.559 149.221C394.586 141.004 392.568 116.353 387.379 108.569C382.189 100.784 378.008 98.9101 371.81 98.4776C365.611 98.0452 358.836 104.1 357.106 107.848C355.376 111.596 353.069 115.056 350.475 145.617C346.871 153.834 339.951 161.041 336.924 170.988C333.897 180.935 325.824 206.018 323.95 216.398C322.076 226.777 311.408 240.904 315.733 233.264C320.058 225.768 319.625 207.316 327.698 182.809C335.771 158.303 334.762 159.888 334.762 158.591C334.762 157.293 339.519 152.825 341.104 142.157C344.132 137.256 350.042 112.893 339.086 105.83C338.942 100.784 335.627 97.3244 326.545 95.8828C317.463 94.4413 314.147 96.7478 312.129 102.37C308.813 103.235 303.768 115.488 302.903 125.579C300.452 127.021 288.632 138.986 286.325 143.454C284.019 147.923 277.532 170.412 276.234 176.178C274.937 181.944 266.576 217.983 264.269 221.299C261.963 224.614 260.954 226.921 262.828 219.857C264.702 212.794 273.351 170.267 277.099 162.627C280.847 154.987 281.28 148.644 291.659 133.796C302.038 118.948 300.597 111.74 298.723 106.983C296.848 102.226 295.407 98.1893 286.613 96.7478C277.82 95.3062 272.774 102.658 272.774 102.658C272.774 102.658 267.441 104.244 254.611 118.083C251.872 112.749 248.124 108.713 248.124 108.713C248.124 108.713 245.385 102.946 237.6 101.793C229.816 100.64 226.644 109.001 226.212 112.028C223.617 112.028 218.283 123.993 216.409 135.958C214.535 148.067 211.508 165.366 208.336 175.601C205.165 185.836 203.147 194.342 202.426 201.838C201.705 209.334 197.669 219.857 196.948 229.66C196.227 239.463 184.839 267.573 184.262 276.511C183.542 285.448 183.974 316.01 183.109 323.073C182.244 330.137 180.947 353.923 183.109 367.618C185.271 381.168 184.262 393.71 181.956 400.485C179.649 407.261 171 429.749 171 429.749H327.41V430.326Z" fill="#E0E1E2"/>
<path d="M327.41 430.326C329.284 428.019 337.356 419.658 346.15 410.864C354.943 402.071 372.963 371.077 378.297 364.879C383.631 358.68 397.758 343.399 401.218 335.759C404.677 328.119 400.929 303.612 401.218 295.972C401.506 288.332 405.11 251.86 402.659 242.346C400.209 232.831 396.316 228.939 393.145 222.308C389.973 215.677 389.397 213.659 386.514 211.64C383.631 209.622 385.36 192.323 385.937 189.873C386.514 187.422 388.532 176.322 388.532 172.43C388.532 168.538 388.532 157.438 391.559 149.221C394.586 141.004 392.568 116.353 387.379 108.569C382.189 100.784 378.008 98.9101 371.81 98.4776C365.611 98.0452 358.836 104.1 357.106 107.848C355.376 111.596 353.069 115.056 350.475 145.617C346.871 153.834 339.951 161.041 336.924 170.988C333.897 180.935 325.824 206.018 323.95 216.398C322.076 226.777 311.408 240.904 315.733 233.264C320.058 225.768 319.625 207.316 327.698 182.809C335.771 158.303 334.762 159.888 334.762 158.591C334.762 157.293 339.519 152.825 341.104 142.157C344.132 137.256 350.042 112.893 339.086 105.83C338.942 100.784 335.627 97.3244 326.545 95.8828C317.463 94.4413 314.147 96.7478 312.129 102.37C308.813 103.235 303.768 115.488 302.903 125.579C300.452 127.021 288.632 138.986 286.325 143.454C284.019 147.923 277.532 170.412 276.234 176.178C274.937 181.944 266.576 217.983 264.269 221.299C261.963 224.614 260.954 226.921 262.828 219.857C264.702 212.794 273.351 170.267 277.099 162.627C280.847 154.987 281.28 148.644 291.659 133.796C302.038 118.948 300.597 111.74 298.723 106.983C296.848 102.226 295.407 98.1893 286.613 96.7478C277.82 95.3062 272.774 102.658 272.774 102.658C272.774 102.658 267.441 104.244 254.611 118.083C251.872 112.749 248.124 108.713 248.124 108.713C248.124 108.713 245.385 102.946 237.6 101.793C229.816 100.64 226.644 109.001 226.212 112.028C223.617 112.028 218.283 123.993 216.409 135.958C214.535 148.067 211.508 165.366 208.336 175.601C205.165 185.836 203.147 194.342 202.426 201.838C201.705 209.334 197.669 219.857 196.948 229.66C196.227 239.463 184.839 267.573 184.262 276.511C183.542 285.448 183.974 316.01 183.109 323.073C182.244 330.137 180.947 353.923 183.109 367.618C185.271 381.168 184.262 393.71 181.956 400.485C179.649 407.261 171 429.749 171 429.749" stroke="#75819C" stroke-width="2" stroke-miterlimit="10"/>
<path d="M212.805 225.912C216.841 221.587 220.157 214.956 220.445 208.036C220.733 201.117 220.012 165.222 229.094 151.527C238.176 137.832 254.754 118.659 254.754 118.659" stroke="#75819C" stroke-width="2" stroke-miterlimit="10"/>
<path d="M373.827 309.956C371.809 306.207 369.358 303.757 369.358 300.874C369.358 297.991 370.944 264.979 372.674 253.158C374.26 241.337 382.332 207.172 385.071 200.108" stroke="#75819C" stroke-width="2" stroke-miterlimit="10"/>
<path opacity="0.33" d="M527.689 434.966C517.047 426.511 509.029 419.076 503.635 413.828C495.471 405.956 489.494 399.25 480.018 390.795C473.021 384.526 469.522 381.465 467.189 379.715C466.606 379.278 463.982 377.383 460.921 374.613C457.13 370.968 455.818 369.073 455.381 368.199C453.923 365.575 453.632 363.242 453.34 361.638C452.465 356.39 451.153 351.142 450.133 345.748C447.946 334.815 443.573 326.068 441.24 321.694C440.074 319.508 437.596 314.697 435.263 309.449C434.534 307.699 433.222 304.638 432.202 300.41C432.056 300.119 432.056 299.39 431.619 298.369C430.89 296.183 429.869 294.871 429.578 294.433C426.662 290.351 425.787 282.771 425.787 281.459C425.642 280.438 425.787 280.147 425.787 275.044C425.933 260.174 425.642 262.215 425.933 258.279C426.371 251.865 426.954 249.824 425.933 246.034C425.496 244.139 424.767 242.681 423.892 240.64C421.997 236.412 420.539 234.371 419.081 231.601C417.769 229.123 416.166 225.479 415 220.376C415.583 219.793 416.312 219.064 416.895 218.481C418.061 217.315 419.956 215.565 422.726 214.253C428.995 211.483 434.972 213.233 437.304 213.962C441.532 215.274 444.156 217.315 447.072 219.647C454.215 225.333 458.151 231.456 461.941 237.287C466.023 243.701 468.21 248.658 469.668 252.74C471.854 259.008 472.292 263.09 471.271 266.88C470.834 268.63 470.251 269.942 469.668 270.962C469.668 271.545 469.522 272.129 469.522 272.566C470.542 273.149 471.854 273.878 473.312 275.19C478.56 279.855 479.727 286.124 480.164 285.978C480.455 285.832 480.018 282.916 477.394 271.545C471.854 255.655 467.481 242.535 464.42 233.205C456.985 210.463 455.964 206.235 455.235 203.32C452.611 191.511 453.486 190.054 449.404 166.874C447.072 153.317 446.488 152.15 445.76 145.153C444.447 132.907 446.197 136.114 445.905 116.434C445.905 115.122 445.76 109.728 448.238 104.188C449.404 101.71 450.716 99.961 452.32 98.7944C452.757 98.357 454.361 97.3366 457.422 96.4619C458.88 96.0246 465.586 94.421 472.583 97.9197C476.957 100.106 479.289 103.168 480.601 105.063C483.517 108.999 484.537 112.789 485.266 115.268C485.995 118.038 486.287 120.078 486.578 124.306C487.453 134.511 487.161 135.677 487.745 141.654C488.328 147.048 488.765 151.859 490.514 157.836C491.826 162.209 493.284 164.979 494.596 167.895C499.844 179.12 504.364 189.033 507.571 200.55C509.32 206.818 511.215 212.941 512.819 219.21C513.111 220.376 513.839 223.292 515.735 226.791C517.192 229.415 518.65 231.31 519.671 232.476C520.691 232.184 522.149 231.747 523.607 231.601C525.065 231.456 526.522 231.31 527.543 231.456C527.98 230.872 528.272 229.998 528.563 228.831C529.147 226.207 528.418 223.875 528.126 223.292C526.522 218.335 524.19 200.404 522.149 184.66C520.691 172.997 519.671 165.562 520.837 155.941C521.274 151.713 522.003 148.214 522.441 140.779C522.732 135.969 522.732 133.053 523.315 125.618C523.753 120.37 523.898 117.6 524.336 115.705C525.648 110.02 528.126 105.938 529.875 103.022C531.916 99.669 532.937 97.9197 534.832 96.3161C538.914 92.9631 543.287 92.5258 544.891 92.38C549.556 91.9427 552.909 93.2547 553.929 93.692C555.97 94.5667 560.052 96.6077 562.822 101.127C564.426 103.897 564.863 106.229 565.3 109.291C565.738 112.061 565.592 113.664 565.446 121.682C565.155 131.304 565.155 132.178 565.3 133.199C565.592 136.406 566.029 139.03 567.195 144.57C568.362 150.401 568.799 151.276 569.528 155.503C570.403 160.023 570.694 162.647 571.277 168.478C572.006 175.038 573.027 181.453 573.756 188.013C575.359 201.133 576.088 206.09 576.671 210.463C578.275 221.834 579.004 227.665 579.295 227.519C579.878 227.519 579.295 217.023 578.421 205.069C578.129 200.696 577.838 183.639 577.692 180.869C577.254 176.059 575.797 161.918 575.505 156.378C575.213 152.442 574.922 148.652 574.339 144.278C573.464 138.155 572.444 137.281 570.548 127.368C569.82 124.015 569.382 121.245 569.965 117.746C570.403 114.83 571.277 112.644 572.006 111.04C572.152 110.02 572.444 108.27 573.61 106.667C575.359 104.188 577.983 103.314 579.587 102.876C585.272 101.127 590.666 103.168 592.561 104.043C595.331 105.5 598.976 107.833 602.183 111.623C605.244 115.268 606.557 118.621 607.431 120.807C608.743 124.16 609.472 127.076 609.764 129.263C611.513 133.928 612.971 137.864 613.991 140.634C618.365 153.025 619.385 156.961 619.823 158.711C620.26 160.314 620.989 163.521 621.864 169.498C623.759 182.473 623.905 192.823 624.196 198.655C624.488 206.381 625.071 217.315 626.674 230.872C627.112 230.872 627.403 230.872 627.841 230.727C625.508 195.739 623.904 172.851 623.759 166.874C623.759 165.854 623.613 162.064 622.884 157.107C622.447 153.608 621.864 150.984 621.572 150.255C620.697 146.757 620.114 145.299 619.24 141.946C618.802 140.196 617.636 136.114 616.761 131.449C615.887 126.201 615.158 121.974 616.324 117.309C616.615 116.288 617.199 114.101 618.656 111.623C619.531 110.165 620.406 109.145 621.135 108.562C622.009 106.667 623.03 105.646 623.759 105.063C627.403 102.002 632.797 102.585 636.296 104.188C637.462 104.771 638.191 105.355 639.357 106.229C641.836 108.124 644.022 110.603 646.355 114.539C649.562 119.787 651.166 124.452 651.603 125.618C654.373 133.636 655.539 140.051 657.288 149.381C659.475 161.48 660.641 167.603 661.079 171.248C662.537 180.724 663.703 188.304 664.578 198.217C665.598 210.463 665.598 221.105 665.598 222.271C665.598 231.893 665.161 235.246 666.035 242.681C666.327 245.159 666.473 245.305 668.805 257.55C670.992 269.213 672.012 275.044 672.304 278.106C673.033 285.686 672.158 285.978 672.887 295.454C673.324 301.868 673.908 304.638 674.782 311.052C675.948 319.653 676.24 325.776 676.823 336.564C677.844 353.183 676.969 353.183 677.844 368.636C678.573 382.777 679.01 389.774 680.759 398.084C682.8 407.414 685.862 416.89 687.903 423.158C689.506 427.969 690.964 432.051 691.984 434.821C637.025 434.675 582.357 434.821 527.689 434.966Z" fill="#E0E1E2"/>
<path d="M527.689 434.966C517.047 426.511 509.029 419.076 503.635 413.828C495.471 405.956 489.494 399.25 480.018 390.794C473.021 384.526 469.522 381.464 467.189 379.715C466.606 379.277 463.982 377.382 460.921 374.612C457.13 370.968 455.818 369.073 455.381 368.198C453.923 365.574 453.632 363.242 453.34 361.638C452.465 356.39 451.153 351.142 450.133 345.748C447.946 334.814 443.573 326.067 441.24 321.694C440.074 319.507 437.596 314.696 435.263 309.448C434.534 307.699 433.222 304.637 432.202 300.41C432.056 300.118 432.056 299.389 431.619 298.369C430.89 296.182 429.869 294.87 429.578 294.433C426.662 290.351 425.787 282.77 425.787 281.458C425.642 280.438 425.787 280.146 425.787 275.044C425.933 260.174 425.642 262.215 425.933 258.279C426.371 251.864 426.954 249.824 425.933 246.033C425.496 244.138 424.767 242.68 423.892 240.639C421.997 236.412 420.539 234.371 419.081 231.601C417.769 229.123 416.166 225.478 415 220.376C415.583 219.793 416.312 219.064 416.895 218.481C418.061 217.314 419.956 215.565 422.726 214.253C428.995 211.483 434.972 213.232 437.304 213.961C441.532 215.273 444.156 217.314 447.072 219.647C454.215 225.332 458.151 231.455 461.941 237.286C466.023 243.701 468.21 248.657 469.668 252.739C471.854 259.008 472.292 263.09 471.271 266.88C470.834 268.629 470.251 269.941 469.668 270.962C469.668 271.545 469.522 272.128 469.522 272.565C470.542 273.149 471.854 273.877 473.312 275.189C478.56 279.855 479.727 286.123 480.164 285.977C480.455 285.832 480.018 282.916 477.394 271.545C472.146 256.675 467.918 243.992 464.857 234.808" stroke="#75819C" stroke-width="2" stroke-miterlimit="10"/>
<path d="M523.462 231.309C524.919 231.164 526.377 231.018 527.398 231.164C527.835 230.58 528.127 229.706 528.418 228.539C529.001 225.915 528.272 223.583 527.981 223C526.377 218.043 524.045 200.112 522.004 184.368C520.546 172.705 519.525 165.27 520.692 155.649C521.129 151.421 521.858 147.922 522.295 140.487C522.587 135.677 522.587 132.761 523.17 125.326C523.607 120.078 523.753 117.308 524.19 115.413C525.502 109.728 527.981 105.646 529.73 102.73C531.771 99.377 532.792 97.6277 534.687 96.0241C538.769 92.6711 543.142 92.2338 544.746 92.088C549.411 91.6507 552.764 92.9627 553.784 93.4C555.825 94.2747 559.907 96.3157 562.677 100.835C564.28 103.605 564.718 105.937 565.155 108.999C565.592 111.769 565.447 113.372 565.301 121.39C565.009 131.012 565.009 131.886 565.155 132.907C565.447 136.114 565.884 138.738 567.05 144.278C568.216 150.109 568.654 150.984 569.383 155.211C570.257 159.731 570.549 162.355 571.132 168.186C571.861 174.746 572.881 181.16 573.61 187.721C575.214 200.841 575.943 205.798 576.526 210.171C578.13 221.542 578.858 227.373 579.15 227.227C579.733 227.227 579.15 216.731 578.275 204.777C577.984 200.404 577.692 183.347 577.546 180.577C577.109 175.767 575.651 161.626 575.36 156.086C575.068 152.15 574.777 148.36 574.193 143.986C573.319 137.863 572.298 136.989 570.403 127.076C569.674 123.723 569.237 120.953 569.82 117.454C570.257 114.538 571.132 112.352 571.861 110.748C572.007 109.728 572.298 107.978 573.465 106.375C575.214 103.896 577.838 103.022 579.442 102.584C585.127 100.835 590.521 102.876 592.416 103.751C595.186 105.208 598.831 107.541 602.038 111.331C605.099 114.976 606.411 118.329 607.286 120.515C608.598 123.868 609.327 126.784 609.618 128.971C611.368 133.636 612.826 137.572 613.846 140.342C618.219 152.733 619.24 156.669 619.677 158.419C620.115 160.022 620.844 163.229 621.718 169.206C623.613 182.181 623.759 192.531 624.051 198.363C624.342 206.089 624.925 217.023 626.529 230.58C626.966 230.58 627.258 230.58 627.695 230.435C625.363 195.447 623.759 172.559 623.613 166.582C623.613 165.562 623.468 161.772 622.739 156.815C622.301 153.316 621.718 150.692 621.427 149.963C620.552 146.465 619.969 145.007 619.094 141.654C618.657 139.904 617.491 135.822 616.616 131.157C615.741 125.909 615.012 121.682 616.179 117.017C616.47 115.996 617.053 113.809 618.511 111.331C619.386 109.873 620.26 108.853 620.989 108.27C621.864 106.375 622.885 105.354 623.613 104.771C627.258 101.71 632.652 102.293 636.151 103.896C637.317 104.479 638.046 105.063 639.212 105.937C641.69 107.832 643.877 110.311 646.21 114.247C649.417 119.495 651.02 124.16 651.458 125.326C654.227 133.344 655.394 139.759 657.143 149.089C659.33 161.188 660.496 167.311 660.933 170.956C662.391 180.432 663.558 188.012 664.432 197.925C665.453 210.171 665.453 220.813 665.453 221.979C665.453 231.601 665.015 234.954 665.89 242.389C666.182 244.867 666.327 245.013 668.66 257.258C670.847 268.921 671.867 274.752 672.159 277.814C672.888 285.394 672.013 285.686 672.742 295.162C673.179 301.576 673.762 304.346 674.637 310.76C675.803 319.361 676.095 325.484 676.678 336.272C677.698 352.891 676.824 352.891 677.698 368.344C678.427 382.485 678.865 389.482 680.614 397.792C682.655 407.122 685.716 416.598 687.757 422.866C689.361 427.677 690.819 431.759 691.839 434.529" stroke="#75819C" stroke-width="2" stroke-miterlimit="10"/>
<path d="M464.565 234.517C464.419 233.934 464.273 233.497 463.982 232.914C456.547 210.172 455.527 205.944 454.798 203.028C452.174 191.22 453.048 189.762 448.966 166.583C446.634 153.025 446.051 151.859 445.322 144.861C444.01 132.616 445.759 135.823 445.468 116.143C445.468 114.831 445.322 109.437 447.8 103.897C448.966 101.419 450.278 99.669 451.882 98.503C452.319 98.0656 453.923 97.0452 456.984 96.1705C458.442 95.7331 465.148 94.1295 472.146 97.6283C476.519 99.815 478.852 102.876 480.164 104.772C483.079 108.708 484.1 112.498 484.829 114.976C485.558 117.746 485.849 119.787 486.141 124.015C487.015 134.219 486.724 135.386 487.307 141.363C487.89 146.757 488.327 151.567 490.077 157.544C491.389 161.918 492.847 164.688 494.159 167.603C499.407 178.829 503.926 188.742 507.133 200.258C508.883 206.527 510.778 212.65 512.381 218.918C512.673 220.085 513.402 223 515.297 226.499C516.755 229.123 518.213 231.018 519.233 232.185C520.254 231.893 521.711 231.456 523.169 231.31" stroke="#F69AED" stroke-width="3" stroke-miterlimit="10" stroke-linecap="round"/>
<g opacity="0.5">
<path d="M449.551 114.394C450.135 115.414 450.718 116.435 451.447 117.309C452.175 118.184 453.05 119.059 453.925 119.35C454.362 119.496 454.8 119.496 455.383 119.35C455.966 119.204 456.549 119.204 457.132 119.059C458.298 118.767 459.319 118.621 460.485 118.184C464.858 116.872 469.086 114.831 472.585 111.915L472.439 112.207C472.439 112.061 472.439 111.478 472.439 111.041V109.729C472.439 108.854 472.439 107.979 472.293 107.105C472.293 106.23 472.148 105.355 472.148 104.481C472.002 103.606 472.002 102.731 471.71 101.856C472.148 102.585 472.293 103.46 472.585 104.335C472.731 105.209 473.022 106.084 473.022 106.959C473.168 107.833 473.314 108.708 473.314 109.583L473.46 110.895C473.46 111.332 473.605 111.624 473.46 112.353V112.498L473.314 112.644C469.815 115.997 465.296 118.184 460.777 119.35C459.61 119.642 458.444 119.933 457.278 120.079C456.695 120.079 456.112 120.225 455.528 120.225C455.237 120.225 454.945 120.225 454.508 120.225C454.071 120.225 453.779 120.079 453.488 119.933C452.321 119.35 451.447 118.33 450.863 117.309C450.426 116.58 449.989 115.414 449.551 114.394Z" fill="#75819C"/>
</g>
<g opacity="0.5">
<path d="M429.433 245.159C431.182 243.41 432.348 240.931 432.057 238.599C431.911 237.433 431.619 236.266 431.182 235.1C430.745 233.934 430.307 232.768 429.87 231.601C428.995 229.269 427.975 226.936 426.809 224.75C426.517 224.167 426.225 223.583 425.934 223.146C425.642 222.709 425.205 222.271 424.768 221.834C423.893 221.105 422.727 220.522 421.415 220.23C422.727 220.23 423.893 220.522 425.059 221.251C425.642 221.542 426.225 221.98 426.663 222.563C427.1 223.146 427.392 223.729 427.683 224.167C428.995 226.353 430.016 228.686 431.036 231.018C431.911 233.351 432.931 235.829 433.077 238.453C433.077 239.765 432.64 241.223 432.057 242.243C431.328 243.556 430.453 244.576 429.433 245.159Z" fill="#75819C"/>
</g>
</svg>
