<svg width="900" height="500" viewBox="0 0 900 500" fill="none" xmlns="http://www.w3.org/2000/svg">
<path opacity="0.33" d="M350.977 429.161C356.313 422.383 372.176 398.876 377.224 391.088C382.271 383.301 393.664 356.765 398.423 350.708C403.182 344.651 408.951 337.008 406.355 319.125C403.904 301.243 401.74 295.042 403.183 269.516C404.625 243.99 400.154 238.942 394.241 226.684C393.087 219.329 391.213 217.31 388.473 215.147C388.905 210.099 391.501 190.053 393.087 179.814C394.818 169.575 391.357 172.748 393.087 150.971C394.818 129.195 388.905 113.764 385.156 109.293C384.579 104.967 380.397 100.063 372.753 98.4771C365.254 96.7465 358.332 103.669 358.332 106.697C355.88 107.563 348.093 118.234 351.986 153.134C343.478 173.469 338.142 194.38 336.988 201.446C335.69 208.513 329.921 240.384 327.614 239.086C325.307 237.788 334.536 207.359 337.276 188.467C340.016 169.575 342.901 156.451 344.631 147.51C346.362 138.569 346.506 109.293 336.7 105.688C334.392 98.3329 327.326 96.4581 320.836 96.0254C314.346 95.5928 308.866 100.784 308.722 103.813C305.838 104.823 302.809 118.811 304.107 138.28C297.617 145.203 288.82 167.123 279.014 215.291C279.014 215.291 282.186 168.421 288.243 149.241C294.445 130.06 298.915 122.561 295.31 111.889C297.041 106.842 292.281 103.092 285.792 101.073C279.302 99.0539 271.947 102.515 270.505 106.553C265.313 107.418 256.66 122.849 252.911 135.108C245.989 147.366 237.768 168.998 234.596 181.256C231.423 193.514 229.981 238.365 228.106 241.394C226.231 244.422 222.914 244.711 220.318 241.826C217.723 238.942 217.001 238.077 216.28 232.741C215.559 227.261 214.261 217.743 212.675 210.676C211.233 203.609 209.502 189.621 210.079 184.429C210.656 179.237 217.29 170.007 216.569 157.893C215.848 145.779 208.204 141.165 206.185 139.578C204.166 138.136 201.859 134.675 194.937 136.55C188.014 138.425 184.697 154.288 184.697 154.288C184.697 154.288 175.9 171.45 174.458 175.343C173.016 179.237 173.304 183.996 171.862 190.342C170.42 196.687 172.295 203.033 170.132 209.378C168.113 215.724 168.978 226.107 171.285 234.76C173.593 243.413 171.862 243.845 173.737 250.479C175.612 256.969 179.361 265.91 180.659 272.111C181.957 278.313 181.525 292.013 182.39 302.685C183.255 313.357 188.159 319.27 189.456 333.258C190.754 347.247 193.494 386.185 195.369 397.434C197.244 408.683 198.398 412.144 192.773 429.45H350.977V429.161Z" fill="#445272"/>
<path d="M350.977 429.161C356.313 422.383 372.176 398.876 377.224 391.088C382.271 383.301 393.664 356.765 398.423 350.708C403.182 344.651 408.951 337.008 406.355 319.125C403.904 301.243 401.74 295.042 403.183 269.516C404.625 243.99 400.154 238.942 394.241 226.684C393.087 219.329 391.213 217.31 388.473 215.147C388.905 210.099 391.501 190.053 393.087 179.814C394.818 169.575 391.357 172.748 393.087 150.971C394.818 129.195 388.905 113.764 385.156 109.293C384.579 104.967 380.397 100.063 372.753 98.4771C365.254 96.7465 358.332 103.669 358.332 106.697C355.88 107.563 348.093 118.234 351.986 153.134C343.478 173.469 338.142 194.38 336.988 201.446C335.69 208.513 329.921 240.384 327.614 239.086C325.307 237.788 334.536 207.359 337.276 188.467C340.016 169.575 342.901 156.451 344.631 147.51C346.362 138.569 346.506 109.293 336.7 105.688C334.392 98.3329 327.326 96.4581 320.836 96.0254C314.346 95.5928 308.866 100.784 308.722 103.813C305.838 104.823 302.809 118.811 304.107 138.28C297.617 145.203 288.82 167.123 279.014 215.291C279.014 215.291 282.186 168.421 288.243 149.241C294.445 130.06 298.915 122.561 295.31 111.889C297.041 106.842 292.281 103.092 285.792 101.073C279.302 99.0539 271.947 102.515 270.505 106.553C265.313 107.418 256.66 122.849 252.911 135.108C245.989 147.366 237.768 168.998 234.596 181.256C231.423 193.514 229.981 238.365 228.106 241.394C226.231 244.422 222.914 244.711 220.318 241.826C217.723 238.942 217.001 238.077 216.28 232.741C215.559 227.261 214.261 217.743 212.675 210.676C211.233 203.609 209.502 189.621 210.079 184.429C210.656 179.237 217.29 170.007 216.569 157.893C215.848 145.779 208.204 141.165 206.185 139.578C204.166 138.136 201.859 134.675 194.937 136.55C188.014 138.425 184.697 154.288 184.697 154.288C184.697 154.288 175.9 171.45 174.458 175.343C173.016 179.237 173.304 183.996 171.862 190.342C170.42 196.687 172.295 203.033 170.132 209.378C168.113 215.724 168.978 226.107 171.285 234.76C173.593 243.413 171.862 243.845 173.737 250.479C175.612 256.969 179.361 265.91 180.659 272.111C181.957 278.313 181.525 292.013 182.39 302.685C183.255 313.357 188.159 319.27 189.456 333.258C190.754 347.247 193.494 386.185 195.369 397.434C197.244 408.683 198.398 412.144 192.773 429.45" stroke="#697695" stroke-width="2" stroke-miterlimit="10"/>
<path d="M220.463 241.539C217.867 238.511 217.146 237.789 216.425 232.454C215.704 226.973 214.406 217.455 212.82 210.389C211.377 203.322 209.647 189.333 210.224 184.142C210.801 178.95 217.434 169.72 216.713 157.606C215.992 145.492 208.349 140.877 206.33 139.291C204.311 137.849 202.003 134.388 195.081 136.262C188.159 138.137 184.842 154.001 184.842 154.001C184.842 154.001 176.045 171.162 174.603 175.056C173.161 178.95 173.449 183.709 172.007 190.054C170.565 196.4 172.439 202.745 170.276 209.091C168.257 215.436 169.123 225.82 171.43 234.473C173.737 243.125 172.007 243.558 173.882 250.192C175.756 256.682 179.506 265.623 180.804 271.824" stroke="#BA6DCD" stroke-width="3" stroke-miterlimit="10" stroke-linecap="round"/>
<g opacity="0.5">
<path d="M188.16 155.298C189.891 154.865 191.766 154.865 193.496 154.433C195.227 154 196.669 153.279 197.967 152.125C199.265 151.116 200.563 149.818 201.716 148.376C202.293 147.655 202.87 146.933 203.447 146.357C204.024 145.636 204.456 144.914 205.177 144.193C204.889 145.059 204.456 145.924 204.024 146.789C203.591 147.655 203.158 148.376 202.582 149.241C201.572 150.827 200.274 152.269 198.832 153.423C197.39 154.577 195.515 155.442 193.64 155.586C191.766 155.875 190.035 155.298 188.16 155.298Z" fill="#B1BBD0"/>
</g>
<path d="M378.81 291.581C378.522 280.909 377.079 261.007 378.81 249.037C380.541 237.212 388.617 215.291 388.617 215.291" stroke="#697695" stroke-width="2" stroke-miterlimit="10"/>
<path d="M271.658 238.798C274.687 232.164 278.436 222.79 279.013 215.146Z" fill="#445272"/>
<path d="M271.658 238.798C274.687 232.164 278.436 222.79 279.013 215.146" stroke="#697695" stroke-width="2" stroke-miterlimit="10"/>
<path opacity="0.33" d="M616.594 431.093C611.871 421.933 607.721 414.348 604.429 408.766C595.413 393.167 591.119 387.442 588.257 384.15C582.532 377.424 577.523 373.416 574.374 370.983C572.8 369.838 571.941 369.266 566.217 365.545C546.467 352.808 542.889 351.519 539.024 349.373C538.309 348.943 533.013 346.224 528.004 343.362C520.705 339.355 520.849 339.068 512.405 334.345C506.823 331.197 503.961 329.479 500.526 327.762C495.087 325.043 493.37 324.47 489.077 321.894C484.497 319.175 482.207 317.887 480.06 315.311C477.055 311.876 475.767 308.298 474.765 305.722C472.904 300.57 472.618 296.419 472.475 295.131C471.902 287.975 468.611 280.82 465.748 268.368C465.462 266.937 465.319 266.078 464.89 264.79C463.458 260.068 462.027 259.066 460.024 254.343C458.306 250.336 457.591 246.615 457.018 244.468C456.446 241.749 456.446 241.176 455.873 238.457C454.871 234.593 454.013 232.589 453.297 230.728C452.868 229.584 452.009 226.435 452.152 217.848C452.438 205.826 454.585 192.802 455.444 188.652C454.728 186.076 454.013 183.5 453.297 180.924C451.294 173.911 449.147 167.041 447 160.458C448.002 159.599 449.719 158.597 451.723 157.452C454.585 156.021 458.449 154.018 463.458 154.304C468.038 154.59 471.473 156.594 473.477 158.025C472.904 156.021 472.189 153.445 471.616 150.297C471.473 149.152 470.901 146.003 470.757 142.854C470.614 138.99 470.471 133.266 473.477 127.541C474.479 125.537 476.912 121.816 481.921 118.668C482.207 116.664 482.922 113.945 484.497 110.796C485.499 108.793 487.216 105.501 490.794 102.495C492.368 101.207 495.374 98.7743 499.81 97.9156C504.533 97.0569 508.54 98.2019 510.687 98.9175C511.832 99.2037 512.691 99.6331 513.263 99.9193C513.263 97.7725 513.693 93.9084 516.269 90.1873C517.557 88.3268 518.845 87.325 520.705 85.8938C523.282 83.8902 526.144 82.0296 531.01 79.7398C537.45 76.7343 540.599 75.3031 543.604 75.0169C544.606 74.8738 550.188 74.5875 556.199 78.0223C560.206 80.3122 562.639 83.3177 563.927 85.0351C555.483 67.5748 549.329 55.4098 545.751 49.2558C545.465 48.6833 543.318 44.9623 541.887 39.5238C540.456 34.0853 541.028 31.223 541.314 29.9349C541.887 27.2157 543.032 25.2121 543.89 24.0671C543.89 23.3515 543.89 21.7773 544.606 20.203C545.608 18.0562 547.039 17.0544 547.611 16.625C549.472 15.337 551.189 15.1939 553.336 14.9076C555.769 14.6214 559.49 14.3352 563.497 16.1957C564.786 16.7681 566.074 17.9131 568.936 20.3461C572.228 23.0653 573.802 24.4965 575.519 26.5001C576.664 27.9313 578.382 30.3643 579.67 33.7991C580.815 34.944 582.389 36.5183 583.677 38.6651C585.251 41.2412 585.967 43.6742 586.396 45.2485C588.114 48.5402 590.26 52.1181 592.693 55.8392C595.27 59.8465 597.416 62.5657 598.275 63.5675C601.424 67.7179 605.86 74.4444 611.299 85.1782C610.154 79.1673 609.009 73.0132 608.007 67.0023C606.146 61.707 604.858 57.1272 603.857 53.5493C601.853 46.3934 600.851 41.3843 600.565 39.6669C599.277 33.2266 598.704 29.7918 598.991 26.5001C599.277 23.0653 599.706 17.9131 603.713 14.0489C606.146 11.6159 609.009 10.7572 610.583 10.3279C612.587 9.75541 616.594 8.46735 620.744 10.0416C624.322 11.3297 626.326 14.0489 629.331 18.4856C631.764 21.9204 633.052 24.7827 634.627 28.2175C635.342 29.9349 636.344 32.0817 639.493 41.6706C641.21 46.8228 642.212 49.542 642.498 50.4007C644.645 57.9859 644.502 60.7052 646.792 69.4353C647.507 71.8683 647.364 71.5821 648.795 76.1618C652.087 87.325 654.234 96.3414 656.81 106.932C657.955 111.798 658.527 114.088 658.814 115.519C660.674 124.249 660.96 128.972 663.107 141.996C663.25 142.854 663.25 145.287 664.109 148.15C664.825 150.583 665.826 152.3 666.256 153.159C666.828 154.304 668.402 158.025 671.408 165.324C674.413 172.623 675.845 176.201 676.703 178.634C679.422 187.221 680.997 196.523 681.283 198.813C681.569 200.96 682.142 204.109 683.43 208.116C684.575 211.265 685.577 213.125 686.578 215.129C688.439 218.993 689.441 222.428 691.587 229.154C693.019 234.02 695.595 242.035 697.741 253.055C699.888 263.359 699.459 265.506 702.321 278.243C703.037 281.821 703.752 284.827 704.468 287.975C706.472 296.706 707.617 301.572 709.191 307.01C711.624 315.883 714.2 322.467 718.493 334.059C719.066 335.633 720.497 339.641 722.644 344.793C726.651 355.241 729.8 362.54 735.524 375.42C740.963 388.014 743.682 394.311 747.833 403.042C749.121 405.904 750.695 409.053 753.557 415.35C756.706 422.076 759.282 427.515 760.856 431.236C712.912 431.093 664.824 431.093 616.594 431.093Z" fill="#445272"/>
<path d="M611.443 84.8911C610.298 78.8802 609.153 72.7261 608.151 66.7152C606.291 61.4199 605.003 56.8401 604.001 53.2622C601.997 46.1063 600.995 41.0972 600.709 39.3798C599.421 32.9395 598.849 29.5047 599.135 26.213C599.421 22.7782 599.85 17.626 603.858 13.7618C606.291 11.3288 609.153 10.4701 610.727 10.0408C612.731 9.4683 616.738 8.18024 620.889 9.75453C624.466 11.0426 626.47 13.7618 629.476 18.1985C631.909 21.6333 633.197 24.4956 634.771 27.9304C635.487 29.6478 636.488 31.7946 639.637 41.3834C641.354 46.5357 642.356 49.2549 642.642 50.1136C644.789 57.6988 644.646 60.418 646.936 69.1482C647.651 71.5812 647.508 71.295 648.94 75.8747C652.231 87.0379 654.378 96.0543 656.954 106.645C658.099 111.511 658.672 113.801 658.958 115.232C660.818 123.962 661.105 128.685 663.251 141.709C663.394 142.567 663.394 145 664.253 147.863C664.969 150.296 665.971 152.013 666.4 152.872C666.972 154.017 668.547 157.738 671.552 165.037C674.558 172.336 675.989 175.914 676.847 178.347C679.567 186.934 681.141 196.236 681.427 198.526C681.713 200.673 682.286 203.822 683.574 207.829C684.719 210.977 685.721 212.838 686.722 214.842C688.583 218.706 689.585 222.141 691.732 228.867C693.163 233.733 695.739 241.748 697.886 252.768C700.032 263.072 699.603 265.219 702.465 277.956C703.181 281.534 703.897 284.54 704.612 287.688C706.616 296.418 707.761 301.284 709.335 306.723C711.768 315.596 714.344 322.18 718.638 333.772C719.21 335.346 720.641 339.354 722.788 344.506C726.795 354.953 729.944 362.252 735.669 375.133C741.107 387.727 743.826 394.024 747.977 402.755C749.265 405.617 750.839 408.765 753.701 415.063C756.85 421.789 759.426 427.228 761 430.949" stroke="#697695" stroke-width="2" stroke-miterlimit="10"/>
<path d="M542.317 179.921C537.737 168.471 533.73 158.453 530.438 150.152C527.289 142.281 524.57 134.266 521.135 126.538C520.706 125.536 515.554 112.655 514.266 99.918" stroke="#697695" stroke-width="2" stroke-miterlimit="10"/>
<path d="M502.816 246.184C500.24 238.599 498.809 232.159 498.093 227.722C497.091 221.997 496.805 218.133 494.801 210.691C494.086 208.115 493.37 205.109 491.939 201.245C490.222 196.379 489.22 195.234 486.787 189.367C485.069 185.359 484.067 182.354 482.493 177.774C479.774 170.046 479.345 167.899 477.198 163.749C475.624 160.6 474.049 158.31 472.904 156.879" stroke="#697695" stroke-width="2" stroke-miterlimit="10"/>
<path d="M632.767 147.004C630.048 139.276 627.901 132.692 626.184 127.683C625.182 124.678 624.037 121.1 622.606 116.377C619.743 107.217 619.171 104.784 617.74 100.205C614.305 89.0416 601.567 67.574 598.419 63.4236C597.56 62.2787 595.413 59.5594 592.837 55.6953C590.404 51.9742 588.114 48.5394 586.54 45.1046C584.68 41.2404 583.535 37.3763 579.814 33.6552C578.526 30.2204 576.951 27.9305 575.663 26.3562C574.089 24.3526 572.372 22.9214 569.08 20.2022C566.218 17.9123 564.786 16.6242 563.641 16.0518C559.634 14.1913 555.913 14.4775 553.48 14.7637C551.333 14.9068 545.036 17.483 543.891 23.9232C543.605 25.3544 541.888 27.0718 541.315 29.791C541.029 31.0791 540.6 33.9414 541.888 39.3799C543.319 44.8184 545.466 48.5394 545.752 49.1119C549.33 55.2659 553.194 63.5667 561.638 81.027" stroke="#BA6DCD" stroke-width="3" stroke-miterlimit="10" stroke-linecap="round"/>
<path d="M586.396 146.288C584.106 136.556 581.53 127.825 578.954 120.383C576.95 114.659 573.658 105.499 568.506 94.4792C566.359 89.8994 563.783 81.7417 556.341 77.8775C550.33 74.729 544.749 74.8721 543.747 74.8721C540.741 75.1583 537.593 76.5895 531.152 79.5949C526.286 81.8848 523.424 83.7453 520.848 85.749C518.987 87.1802 517.699 88.3251 516.411 90.0425C513.835 93.6204 514.265 97.7709 514.121 99.9176C513.549 99.6314 511.975 99.0589 510.83 98.7727C508.683 98.2002 504.676 96.9121 499.953 97.7709C495.516 98.6296 492.511 101.063 490.936 102.351C487.359 105.356 485.641 108.648 484.639 110.651C483.065 113.8 482.349 116.519 482.063 118.523C477.054 121.671 474.764 125.536 473.619 127.396C470.614 133.121 470.757 138.702 470.9 142.71C471.043 145.858 471.616 149.15 471.759 150.152C472.331 153.3 473.047 156.02 473.619 157.88C471.616 156.449 468.181 154.445 463.601 154.159C458.592 153.873 454.585 155.876 451.865 157.308C449.719 158.309 448.144 159.454 447.143 160.313C449.289 166.896 451.436 173.623 453.44 180.779C454.155 183.355 454.871 185.931 455.586 188.507C454.871 192.658 452.581 205.681 452.295 217.703C452.152 226.433 453.153 229.582 453.44 230.584C454.012 232.444 455.014 234.591 456.016 238.312C456.731 241.031 456.588 241.604 457.161 244.323C457.59 246.47 458.449 250.191 460.166 254.198C462.17 258.921 463.744 259.923 465.032 264.646C465.462 266.077 465.462 266.792 465.891 268.224C468.896 280.818 472.045 287.831 472.617 294.986C472.761 296.275 473.047 300.425 474.907 305.577C475.909 308.153 477.197 311.731 480.203 315.166C482.493 317.742 484.782 319.03 489.219 321.749C493.513 324.326 495.23 324.898 500.668 327.617C504.103 329.335 506.823 330.909 512.547 334.201C520.991 338.923 520.848 339.21 528.147 343.217C533.156 346.079 538.451 348.799 539.167 349.228C543.174 351.375 546.609 352.663 566.359 365.4C571.941 368.978 572.8 369.551 574.517 370.839C577.809 373.272 582.675 377.279 588.399 384.005C591.262 387.297 595.698 393.022 604.572 408.622C607.72 414.203 612.014 421.788 616.737 430.948" stroke="#697695" stroke-width="2" stroke-miterlimit="10"/>
<g opacity="0.5">
<path d="M453.012 160.457C453.87 160.743 454.729 161.173 455.588 161.459V161.602C456.59 163.462 457.591 165.466 458.307 167.47C459.166 169.473 459.881 171.477 460.311 173.624C460.74 175.771 460.883 178.06 460.597 180.207C460.311 182.354 459.452 184.501 458.307 186.218C459.023 184.215 459.452 182.068 459.595 180.064C459.738 177.917 459.452 175.914 459.023 173.91C458.593 171.906 457.878 169.903 457.162 167.899C456.447 165.896 455.731 163.892 455.158 161.888L455.302 162.031C454.443 161.602 453.727 161.03 453.012 160.457Z" fill="#B1BBD0"/>
</g>
<g opacity="0.5">
<path d="M546.896 27.3579C548.328 29.5047 549.759 31.5083 551.476 33.3688C552.335 34.2275 553.194 35.2294 554.052 36.0881C554.482 36.3743 555.054 36.6605 555.484 36.6605C555.484 36.6605 555.77 36.6605 556.056 36.5174L556.915 36.0881C559.205 34.9431 561.638 33.9413 564.071 33.2257C566.504 32.5101 569.08 32.0808 571.656 31.9377H571.37C571.513 31.7945 571.513 31.7946 571.513 31.6514C571.513 31.5083 571.513 31.2221 571.513 30.9358C571.37 30.3634 571.083 29.7909 570.797 29.3616C570.225 28.3597 569.509 27.2148 568.793 26.213C567.219 24.2093 565.645 22.2057 563.927 20.4883C564.929 21.2039 565.931 22.0626 566.79 22.9213C567.648 23.78 568.65 24.6387 569.366 25.6405C570.225 26.6423 570.94 27.6442 571.656 28.646C571.942 29.2184 572.371 29.7909 572.514 30.5065C572.658 30.7927 572.658 31.2221 572.658 31.6514C572.658 32.0808 572.228 32.6532 571.799 32.7964H571.656H571.513C569.08 33.0826 566.504 33.512 564.214 34.2275C561.781 34.9431 559.491 35.9449 557.201 36.9468L556.342 37.3761C556.056 37.5192 555.627 37.6624 555.054 37.6624C554.339 37.5192 553.623 37.233 553.051 36.6605C552.049 35.6587 551.333 34.6569 550.474 33.6551C549.186 31.9377 547.898 29.6478 546.896 27.3579Z" fill="#B1BBD0"/>
</g>
</svg>
