<svg width="850" height="500" viewBox="0 0 850 500" fill="none" xmlns="http://www.w3.org/2000/svg">
<path opacity="0.33" d="M691 441.202C683.893 426.361 678.904 412.569 676.938 381.988C674.973 351.407 678.753 349.009 676.938 324.873C675.124 300.738 673.309 305.985 675.124 287.846C676.787 269.708 666.808 246.172 666.656 237.328C666.505 228.483 667.261 198.202 664.54 183.96C661.818 169.719 655.467 160.575 650.931 136.14C646.395 111.705 629.158 95.8149 618.121 99.4127C607.083 103.01 605.269 114.403 606.629 118.601C601.791 109.157 598.616 103.61 595.592 100.012C592.568 96.4145 583.798 92.2171 583.798 92.2171C583.798 92.2171 570.19 89.3689 564.898 101.511C560.513 102.411 560.513 111.855 560.664 114.403C559.606 108.707 557.64 100.612 555.977 98.0635C554.162 95.5151 550.685 91.4676 545.846 89.3689C541.008 87.2702 528.609 88.0197 525.434 90.5681C522.259 93.1166 516.513 98.3633 516.967 103.46C517.42 108.707 519.084 113.354 519.386 126.696C519.688 140.038 524.073 168.22 524.98 175.266C525.888 182.311 538.135 247.221 538.135 247.221C538.135 247.221 537.681 248.271 536.925 247.521C536.321 246.772 521.956 167.621 516.816 155.928C518.781 143.485 519.991 108.257 511.826 100.462C508.348 92.6668 487.18 86.5206 479.166 104.06C471.153 121.449 473.723 152.63 472.211 164.622C470.699 176.615 472.362 203.299 473.874 211.244C472.816 203.149 470.094 195.653 465.407 191.006C460.72 186.359 453.008 181.712 447.565 179.763C443.18 178.264 437.586 180.213 435.167 182.611C434.411 183.361 433.352 184.11 432.294 184.26C431.084 184.56 430.026 185.46 430.026 185.46C430.026 188.008 431.992 200.75 439.098 213.342C437.284 216.041 439.703 227.284 437.737 235.229C435.772 243.024 433.503 248.421 436.981 257.415C435.62 259.814 437.435 266.41 440.459 268.808C438.644 274.355 440.912 281.4 446.96 296.091C454.521 314.53 450.74 334.917 456.033 345.411C461.325 355.904 467.675 359.502 474.63 370.295C481.434 381.089 508.046 414.818 518.932 423.363C529.819 431.907 534.355 441.052 534.355 441.052H691V441.202Z" fill="#E0E1E2"/>
<path d="M691 441.201C683.893 426.36 678.904 412.569 676.938 381.988C674.973 351.407 678.753 349.008 676.938 324.873C675.124 300.738 673.309 305.985 675.124 287.846C676.787 269.707 666.808 246.172 666.656 237.327C666.505 228.483 667.261 198.201 664.54 183.96C661.818 169.719 657.736 159.225 650.931 136.14C643.371 110.355 629.158 95.8144 618.121 99.4122C607.083 103.01 605.269 114.403 606.629 118.6C601.791 109.156 598.616 103.61 595.592 100.012C593.324 97.3135 587.124 92.6664 581.984 91.9168C578.203 91.3172 568.98 92.0667 564.898 101.361C560.966 102.71 560.513 111.705 560.664 114.253C559.606 108.557 557.64 100.462 555.977 97.9131C554.162 95.3647 550.685 91.3172 545.846 89.2185C541.008 87.1198 528.609 87.8693 525.434 90.4178C522.259 92.9662 516.513 98.2129 516.967 103.31C517.42 108.557 519.084 113.204 519.386 126.545C519.688 139.887 524.073 168.07 524.98 175.115C525.888 182.161 538.135 247.071 538.135 247.071C538.135 247.071 537.681 248.12 536.925 247.371C536.321 246.621 521.956 167.47 516.816 155.777C518.781 143.335 519.991 108.107 511.826 100.312C508.348 92.5164 487.18 86.3703 479.166 103.909C471.153 121.299 473.723 152.479 472.211 164.472C470.699 176.465 472.362 203.148 473.874 211.093C472.816 202.998 470.094 195.503 465.407 190.856C460.72 186.209 453.008 181.561 447.565 179.613C443.18 178.114 437.586 180.062 435.167 182.611C434.26 183.51 433.05 184.41 431.689 184.56C430.631 184.71 430.026 185.009 430.026 185.009C430.026 187.408 431.689 198.951 437.586 210.494C438.342 211.993 438.796 213.642 438.493 215.291C437.888 219.638 439.4 228.632 437.737 235.078C435.772 242.874 433.503 248.27 436.981 257.265C437.284 262.062 438.796 266.859 440.459 268.658C440.005 275.104 440.912 281.25 446.96 295.941C454.521 314.379 450.74 334.767 456.033 345.26C461.325 355.754 467.675 359.352 474.63 370.145C481.434 380.938 508.046 414.668 518.932 423.212C529.819 431.757 534.355 440.901 534.355 440.901" stroke="#808285" stroke-width="2" stroke-miterlimit="10"/>
<path d="M479.015 337.916C479.469 330.27 482.946 317.228 483.249 312.581C483.702 307.934 482.342 314.53 482.039 294.442C481.888 274.205 480.074 242.425 476.747 228.183C473.421 213.942 474.328 211.094 472.816 205.997" stroke="#808285" stroke-width="2" stroke-miterlimit="10"/>
<path d="M589.845 234.18C586.519 229.233 582.739 220.538 582.285 197.453C581.832 174.367 574.876 168.82 574.423 152.93C573.969 137.04 562.478 131.943 560.512 114.554" stroke="#808285" stroke-width="2" stroke-miterlimit="10"/>
<path d="M630.67 228.482C630.821 222.786 630.973 194.004 627.949 176.764C624.924 159.525 621.9 152.929 618.272 145.284C614.492 137.488 608.141 125.646 606.327 118.75" stroke="#808285" stroke-width="2" stroke-miterlimit="10"/>
<g opacity="0.5">
<path d="M438.494 186.358C439.855 186.658 441.065 187.408 442.274 188.307C443.333 189.357 444.089 190.556 444.542 191.905C445.298 194.603 446.054 197.152 446.508 200C446.961 202.698 447.415 205.547 447.113 208.395C447.113 209.144 446.81 209.894 446.659 210.493C446.357 211.243 445.903 211.843 445.298 212.292C444.089 213.342 442.577 213.492 441.216 213.042C442.577 213.192 443.937 212.742 444.845 211.693C445.752 210.793 445.903 209.444 445.903 208.095C445.903 205.397 445.449 202.698 444.996 200.15C444.542 197.452 443.937 194.753 443.333 192.205C442.879 189.806 441.065 187.558 438.494 186.358Z" fill="#AEB0B2"/>
</g>
<path opacity="0.33" d="M271.415 443C278.672 436.104 279.731 432.506 297.573 418.115C315.414 403.724 333.105 378.989 348.679 363.549C364.252 348.108 367.276 343.911 368.94 326.372C370.452 308.833 380.733 279.601 385.421 266.109C390.108 252.617 379.826 228.182 379.826 228.182C379.826 228.182 385.572 212.892 384.362 193.554C375.139 185.759 354.878 191.605 342.631 219.937C330.383 248.27 339.002 255.615 339.002 255.615C339.002 255.615 333.256 261.612 329.022 271.506C324.789 281.4 323.579 291.443 323.579 291.443C323.579 291.443 330.232 241.374 343.538 213.342C356.844 185.459 359.263 168.369 366.52 153.828C373.627 139.287 377.558 113.053 370.905 105.708C369.696 98.9622 356.088 89.518 344.445 102.71C332.802 115.902 331.593 132.691 327.662 139.737C323.579 146.633 310.576 163.422 306.645 170.168C302.865 176.914 283.208 219.937 281.092 224.135C278.975 228.332 278.975 223.086 279.579 220.837C280.033 218.588 290.164 180.662 300.143 165.071C312.239 151.88 314.81 152.179 323.277 135.09C331.744 117.851 329.627 107.507 324.94 103.01C322.521 97.613 306.645 86.0701 294.7 103.01C289.559 104.359 283.813 118 283.813 118L280.487 119.35C280.487 119.35 283.662 114.253 283.36 106.607C283.057 98.9622 275.951 94.0153 268.542 94.1652C260.982 94.3151 250.398 103.01 250.398 103.01C250.398 103.01 240.267 106.607 234.673 112.454C232.102 105.558 224.088 99.5618 220.308 98.6624C216.528 97.7629 210.934 105.708 210.027 107.957C209.12 110.205 196.57 123.547 188.556 140.786C180.542 158.026 173.738 171.218 170.412 176.614C167.085 182.011 164.969 182.91 162.549 197.751C160.13 212.742 156.804 206.746 155.292 224.585C153.78 242.424 137.752 262.211 138.811 285.147C139.869 308.083 136.089 319.476 136.089 329.07C136.089 338.664 135.787 368.046 130.192 391.731C124.598 415.417 106 442.7 106 442.7H271.415V443Z" fill="#E0E1E2"/>
<path d="M271.415 443C278.672 436.104 279.731 432.506 297.573 418.115C315.414 403.724 333.105 378.989 348.679 363.549C364.252 348.108 367.276 343.911 368.94 326.372C370.452 308.833 380.733 279.601 385.421 266.109C390.108 252.617 379.826 228.182 379.826 228.182C379.826 228.182 385.572 212.892 384.362 193.554C375.139 185.759 354.878 191.605 342.631 219.937C330.383 248.27 339.002 255.615 339.002 255.615C339.002 255.615 333.256 261.612 329.022 271.506C324.789 281.4 323.579 291.443 323.579 291.443C323.579 291.443 330.232 241.374 343.538 213.342C356.844 185.459 359.263 168.369 366.52 153.828C373.627 139.287 377.558 113.053 370.905 105.708C369.696 98.9622 356.088 89.518 344.445 102.71C332.802 115.902 331.593 132.691 327.662 139.737C323.579 146.633 310.576 163.422 306.645 170.168C302.865 176.914 283.208 219.937 281.092 224.135C278.975 228.332 278.975 223.086 279.579 220.837C280.033 218.588 290.164 180.662 300.143 165.071C312.239 151.88 314.81 152.179 323.277 135.09C331.744 117.851 329.627 107.507 324.94 103.01C322.521 97.613 306.645 86.0701 294.7 103.01C289.559 104.359 283.813 118 283.813 118L280.487 119.35C280.487 119.35 283.662 114.253 283.36 106.607C283.057 98.9622 275.951 94.0153 268.542 94.1652C260.982 94.3151 250.398 103.01 250.398 103.01C250.398 103.01 240.267 106.607 234.673 112.454C233.614 110.055 232.707 106.308 228.927 103.31C226.357 100.311 222.274 99.1121 220.308 98.6624C216.528 97.7629 210.934 105.708 210.027 107.957C209.12 110.205 196.57 123.547 188.556 140.786C180.542 158.026 173.738 171.218 170.412 176.614C167.085 182.011 164.969 182.91 162.549 197.751C160.13 212.742 156.804 206.746 155.292 224.585C153.78 242.424 137.752 262.211 138.811 285.147C139.869 308.083 136.089 319.476 136.089 329.07C136.089 338.664 135.787 368.046 130.192 391.731C124.598 415.417 106 442.7 106 442.7" stroke="#808285" stroke-width="2" stroke-miterlimit="10"/>
<path d="M279.429 225.334C279.731 219.937 290.164 180.661 300.143 165.221C312.239 152.029 314.81 152.329 323.277 135.239C331.744 118 329.628 107.656 324.94 103.159C322.521 97.7624 306.645 86.2196 294.7 103.159C289.559 104.508 283.814 118.15 283.814 118.15" stroke="#2969D0" stroke-width="3" stroke-miterlimit="10" stroke-linecap="round"/>
<path d="M173.284 231.181C178.274 224.285 180.844 216.34 182.507 201.949C184.171 187.408 187.195 157.576 190.521 150.381C193.848 143.185 203.071 138.838 207.153 135.54C211.085 132.242 216.528 124.147 222.425 121.748C228.17 119.35 236.033 110.955 236.033 110.955" stroke="#808285" stroke-width="2" stroke-miterlimit="10"/>
<path d="M212.899 226.682C219.401 221.885 226.205 203.446 234.824 176.913C243.442 150.379 249.037 137.487 259.016 133.889C268.995 130.291 274.741 118.299 298.631 119.798" stroke="#2969D0" stroke-width="3" stroke-miterlimit="10" stroke-linecap="round"/>
<g opacity="0.5">
<path d="M294.549 107.806C295.759 108.405 297.12 108.555 298.481 108.855C299.841 109.005 301.202 109.305 302.412 109.455C305.133 109.755 307.704 110.054 310.425 110.204C313.147 110.354 315.869 110.504 318.439 110.354C319.649 110.204 321.01 109.755 321.917 109.005C322.975 108.255 323.58 107.056 323.731 105.707C323.882 107.056 323.429 108.555 322.37 109.605C321.312 110.654 319.951 111.254 318.59 111.553C315.718 112.003 312.996 112.003 310.274 111.853C307.553 111.703 304.831 111.254 302.109 110.804C300.749 110.504 299.388 110.204 298.178 109.904C297.573 109.755 296.817 109.455 296.213 109.155C295.608 108.705 295.003 108.405 294.549 107.806Z" fill="#AEB0B2"/>
</g>
<g opacity="0.5">
<path d="M380.129 194.902C377.558 196.851 374.988 198.5 373.324 201.198C371.661 203.747 370.905 206.745 370.603 209.743C370.3 212.741 370.603 215.739 371.359 218.738C371.812 220.237 372.417 221.586 373.173 222.935C373.929 224.284 374.836 225.483 375.895 226.683C373.324 224.884 371.359 222.036 370.149 219.037C369.544 217.538 369.242 215.889 368.94 214.39C368.788 212.741 368.788 211.092 368.94 209.593C369.242 206.445 370.149 203.147 372.266 200.599C373.324 199.25 374.534 198.2 375.744 197.301C377.256 196.401 378.768 195.652 380.129 194.902Z" fill="#AEB0B2"/>
</g>
</svg>
