<svg width="850" height="500" viewBox="0 0 850 500" fill="none" xmlns="http://www.w3.org/2000/svg">
<path opacity="0.33" d="M530.935 426.661C520.853 414.449 511.764 407.491 505.09 403.23C501.824 401.1 496.286 397.834 489.043 391.87C483.221 387.042 484.215 387.042 477.825 381.646C469.305 374.403 465.612 372.983 458.228 365.599C455.246 362.617 453.684 361.055 452.122 358.783C448.856 353.813 448.004 349.41 446.584 341.6C442.75 321.009 443.46 321.719 442.04 317.459C439.2 308.229 437.637 308.513 436.075 300.703C435.081 295.448 435.081 292.04 432.951 285.792C431.105 280.396 430.537 281.248 429.543 277.272C426.987 268.041 428.975 259.095 429.543 256.681C430.253 253.415 430.963 251.995 431.105 248.587C431.247 245.605 430.821 244.043 431.105 240.635C431.389 238.078 431.957 236.09 432.383 234.67C430.253 229.132 428.265 222.884 426.561 215.926C425.851 213.086 425.425 210.245 424.999 207.689C426.419 206.411 428.975 204.707 432.383 203.713C439.626 201.725 446.016 204.849 448.998 206.411C450.134 206.979 454.678 209.251 459.08 214.364C470.441 227.286 473.281 248.303 473.849 253.273C473.707 254.835 473.565 256.965 472.713 259.237C472.145 261.083 471.435 262.503 470.725 263.781C471.719 264.633 473.139 265.911 474.275 267.899C476.121 270.74 476.689 273.438 476.831 274.148C477.541 277.272 479.529 283.236 484.925 295.022C483.363 275.142 481.801 255.261 480.239 235.238C479.245 228.848 477.399 217.914 475.127 203.997C472.429 186.673 471.435 180.14 471.861 170.768C472.145 165.94 472.429 166.792 473.281 155.857C474.559 140.379 473.991 138.817 475.127 130.012C477.257 113.682 480.665 108.428 482.653 106.014C487.055 100.475 491.315 99.3394 492.451 99.1974C496.996 98.2033 500.688 99.6234 501.966 100.049C508.498 102.606 511.338 108.428 512.19 110.132C513.61 112.972 514.036 115.67 514.32 117.232C514.888 120.64 514.746 123.338 514.746 124.758C513.894 140.379 514.746 135.125 513.894 146.343C513.468 151.029 513.326 153.585 513.894 157.562C514.462 160.686 515.172 162.816 515.882 164.804C519.006 173.466 521.137 180.708 521.421 181.986C521.989 183.974 522.841 190.791 524.687 204.139C525.823 212.802 526.249 216.068 527.243 221.606C528.095 226.576 529.089 230.694 529.799 233.534C530.083 233.392 530.367 233.392 530.651 233.25C530.083 228.422 529.089 221.038 527.811 211.807C526.107 198.459 526.107 197.465 525.397 193.773C523.551 183.69 521.989 180.992 520.284 171.194C519.29 165.088 518.864 160.26 518.722 157.562C518.012 149.325 519.148 146.201 518.296 136.687C518.012 133.847 517.728 131.433 517.302 128.308C516.024 118.226 515.03 115.102 516.024 109.848C516.734 106.582 517.728 104.31 518.154 103.6C519.432 101.043 522.131 95.5052 528.521 93.0912C535.195 90.5351 541.301 93.2332 541.869 93.5172C545.987 95.5052 547.975 98.6294 549.964 101.895C552.094 105.304 555.36 111.836 555.928 121.634C557.774 125.326 560.472 131.007 562.886 138.249C564.306 142.651 565.584 147.053 568.566 162.674C570.696 173.324 571.122 176.59 572.684 185.111C573.82 191.359 575.666 200.589 578.223 211.949C578.223 211.949 578.933 212.66 579.643 212.375C580.353 212.233 581.063 211.239 580.779 210.245C583.903 193.489 582.625 181.702 580.637 173.892C579.785 170.342 577.797 163.668 576.093 153.301C575.098 147.195 574.53 142.083 574.246 138.675C570.98 133.563 568.708 129.018 567.288 125.61C565.442 121.35 564.164 118.368 563.596 113.966C563.028 110.132 562.602 106.014 564.732 101.895C565.3 100.759 566.862 97.9193 569.986 96.3573C575.098 93.8012 580.637 96.2153 583.335 97.3513C584.045 97.6353 586.317 98.6294 590.577 102.179C593.417 104.452 597.251 108.002 601.227 112.972C605.204 118.794 607.618 123.906 609.18 127.456C610.742 131.291 611.168 133.421 613.014 137.965C615.854 144.923 617.274 146.059 619.262 150.887C619.972 152.449 621.25 156.141 622.812 165.94C624.09 174.318 624.8 181.844 625.226 191.075C625.51 198.459 625.794 208.115 625.652 219.476C626.504 219.334 627.64 219.05 628.918 218.34C631.049 217.062 632.043 215.074 633.321 211.239C634.883 206.837 635.593 203.713 636.587 199.595C637.013 198.033 636.587 199.595 638.717 191.643C642.835 176.59 643.261 174.46 643.687 172.188C644.397 167.502 644.681 163.81 644.681 162.248C644.965 156.851 644.539 152.733 644.255 148.047C643.687 141.373 643.261 141.231 642.693 135.551C641.699 125.61 641.273 120.64 643.119 115.812C643.829 113.966 646.385 107.008 653.343 104.168C654.195 103.884 662.148 100.617 667.402 105.162C669.248 106.724 669.958 108.428 670.668 109.99C676.348 124.048 677.768 134.699 677.768 134.699C678.194 138.249 678.478 141.231 679.33 151.171C680.75 170.058 681.46 179.714 681.176 186.673C680.75 195.477 680.608 200.731 678.762 207.973C677.626 212.376 675.78 217.63 672.514 229.416C672.088 230.836 671.378 233.676 670.668 237.51C669.958 241.487 669.674 244.611 669.532 246.457C668.822 255.403 669.106 260.515 668.822 269.604C668.396 281.106 667.686 280.68 667.828 287.638C668.112 294.738 668.964 298.005 669.958 304.963C670.384 307.661 670.384 308.655 671.804 335.352C672.798 353.671 673.224 362.759 673.224 365.173C673.366 371.279 673.224 373.693 673.65 378.238C673.792 380.226 674.644 387.61 678.336 399.538C680.466 406.355 683.59 415.443 688.703 425.809C636.303 426.377 583.619 426.519 530.935 426.661Z" fill="#E0E1E2"/>
<path d="M672.797 229.984C672.371 231.404 671.661 234.245 670.951 238.079C670.241 242.055 669.957 245.179 669.815 247.025C669.105 255.971 669.389 261.083 669.105 270.172C668.679 281.674 667.969 281.248 668.111 288.206C668.395 295.307 669.247 298.573 670.241 305.531C670.667 308.229 670.667 309.223 672.087 335.92C673.081 354.239 673.507 363.327 673.507 365.741C673.649 371.848 673.507 374.262 673.933 378.806C674.075 380.794 674.928 388.178 678.62 400.107C680.75 406.923 683.874 416.011 688.986 426.378" stroke="#808285" stroke-width="2" stroke-miterlimit="10"/>
<path d="M530.935 426.661C520.853 414.449 511.764 407.491 505.09 403.23C501.824 401.1 496.286 397.834 489.043 391.87C483.221 387.042 484.215 387.042 477.825 381.646C469.305 374.403 465.612 372.983 458.228 365.599C455.246 362.617 453.684 361.055 452.122 358.783C448.856 353.813 448.004 349.41 446.584 341.6C442.75 321.009 443.46 321.719 442.04 317.459C439.2 308.229 437.637 308.513 436.075 300.703C435.081 295.448 435.081 292.04 432.951 285.792C431.105 280.396 430.537 281.248 429.543 277.272C426.987 268.041 428.975 259.095 429.543 256.681C430.253 253.415 430.963 251.995 431.105 248.587C431.247 245.605 430.821 244.043 431.105 240.635C431.389 238.078 431.957 236.09 432.383 234.67C430.253 229.132 428.265 222.884 426.561 215.926C425.851 213.086 425.425 210.245 424.999 207.689C426.419 206.411 428.975 204.707 432.383 203.713C439.626 201.725 446.016 204.849 448.998 206.411C450.134 206.979 454.678 209.251 459.08 214.364C470.441 227.286 473.281 248.303 473.849 253.273C473.707 254.835 473.565 256.965 472.713 259.237C472.145 261.083 471.435 262.503 470.725 263.781C471.719 264.633 473.139 265.911 474.275 267.899C476.121 270.74 476.689 273.438 476.831 274.148C477.541 277.272 479.529 283.236 484.925 295.022C483.363 275.142 481.801 255.261 480.239 235.238C479.245 228.848 477.399 217.914 475.127 203.997C472.429 186.673 471.435 180.14 471.861 170.768C472.145 165.94 472.429 166.792 473.281 155.857C474.559 140.379 473.991 138.817 475.127 130.012C477.257 113.682 480.665 108.428 482.653 106.014C487.055 100.475 491.315 99.3394 492.451 99.1974C496.996 98.2033 500.688 99.6234 501.966 100.049C508.498 102.606 511.338 108.428 512.19 110.132C513.61 112.972 514.036 115.67 514.32 117.232C514.888 120.64 514.746 123.338 514.746 124.758C513.894 140.379 514.746 135.125 513.894 146.343C513.468 151.029 513.326 153.585 513.894 157.562C514.462 160.686 515.172 162.816 515.882 164.804C519.006 173.466 521.137 180.708 521.421 181.986C521.989 183.974 522.841 190.791 524.687 204.139C525.823 212.802 526.249 216.068 527.243 221.606C528.095 226.576 529.089 230.694 529.799 233.534C530.083 233.392 530.367 233.392 530.651 233.25C530.083 228.422 529.089 221.038 527.811 211.807C526.107 198.459 526.107 197.465 525.397 193.773C523.551 183.69 521.989 180.992 520.285 171.194C519.29 165.088 518.864 160.26 518.722 157.562C518.012 149.325 519.148 146.201 518.296 136.687C518.012 133.847 517.728 131.433 517.302 128.308C516.024 118.226 515.03 115.102 516.024 109.848C516.734 106.582 517.728 104.31 518.154 103.6C519.432 101.043 522.131 95.5052 528.521 93.0912C535.195 90.5351 541.301 93.2332 541.869 93.5172C545.987 95.5052 547.976 98.6294 549.964 101.895C552.094 105.304 555.36 111.836 555.928 121.634C557.774 125.326 560.472 131.007 562.886 138.249C564.306 142.651 565.584 147.053 568.566 162.674C570.696 173.324 571.122 176.59 572.684 185.111C573.82 191.359 575.666 200.589 578.223 211.949C578.223 211.949 578.933 212.66 579.643 212.375C580.353 212.233 581.063 211.239 580.779 210.245C583.903 193.489 582.625 181.702 580.637 173.892C579.785 170.342 577.797 163.668 576.093 153.301C575.098 147.195 574.53 142.083 574.246 138.675C570.98 133.563 568.708 129.018 567.288 125.61C565.442 121.35 564.164 118.368 563.596 113.966C563.028 110.132 562.602 106.014 564.732 101.895C565.3 100.759 566.862 97.9193 569.986 96.3573C575.098 93.8012 580.637 96.2153 583.335 97.3513C584.045 97.6353 586.317 98.6294 590.577 102.179C593.417 104.452 597.251 108.002 601.227 112.972C605.204 118.794 607.618 123.906 609.18 127.456C610.742 131.291 611.168 133.421 613.014 137.965C615.854 144.923 617.274 146.059 619.262 150.887C619.972 152.449 621.25 156.141 622.812 165.94C624.09 174.318 624.8 181.844 625.226 191.075C625.51 198.459 625.794 208.115 625.652 219.476" stroke="#808285" stroke-width="2" stroke-miterlimit="10"/>
<path d="M627.498 219.476C628.066 219.334 628.634 219.05 629.202 218.624C631.332 217.346 632.326 215.358 633.604 211.524C635.166 207.121 635.876 203.997 636.87 199.879C637.296 198.317 636.87 199.879 639 191.927C643.119 176.874 643.545 174.744 643.971 172.472C644.681 167.786 644.965 164.094 644.965 162.532C645.249 157.136 644.823 153.017 644.539 148.331C643.971 141.657 643.545 141.515 642.977 135.835C641.983 125.894 641.557 120.924 643.403 116.096C644.113 114.25 646.669 107.292 653.627 104.452C654.479 104.168 662.431 100.902 667.685 105.446C669.532 107.008 670.242 108.712 670.952 110.274C676.632 124.332 678.052 134.983 678.052 134.983C678.478 138.533 678.762 141.515 679.614 151.455C681.034 170.342 681.744 179.998 681.46 186.957C681.034 195.761 680.892 201.015 679.046 208.257C677.91 212.66 676.064 217.914 672.798 229.7" stroke="#2969D0" stroke-width="3" stroke-miterlimit="10" stroke-linecap="round"/>
<g opacity="0.5">
<path d="M435.508 232.823C436.36 232.397 437.07 231.687 437.354 230.835C437.638 230.125 437.496 228.989 437.496 228.137C437.354 226.291 437.212 224.445 437.07 222.457C436.928 220.61 436.644 218.764 436.36 216.918C436.218 215.924 436.076 215.072 435.792 214.22L435.224 211.522L435.366 211.664C434.94 210.954 434.372 210.386 433.804 209.818C433.236 209.25 432.526 208.824 431.674 208.54C433.378 208.824 434.94 209.818 436.076 211.096V211.238C436.644 213.084 437.354 214.93 437.638 216.776C438.064 218.622 438.348 220.61 438.49 222.457C438.632 224.303 438.632 226.291 438.49 228.279C438.49 228.705 438.348 229.273 438.348 229.699C438.206 230.125 438.206 230.693 437.922 231.119C437.354 231.971 436.502 232.539 435.508 232.823Z" fill="#AEB0B2"/>
</g>
<g opacity="0.5">
<path d="M653.77 109.99C654.054 112.546 654.622 114.96 655.19 117.374C655.474 118.511 655.758 119.789 656.184 120.925C656.326 121.493 656.61 122.061 656.752 122.629C657.036 123.197 657.32 123.765 657.604 124.049C658.03 124.475 658.456 124.901 658.882 125.043C659.166 125.185 659.876 125.327 660.444 125.327C661.58 125.469 662.858 125.469 664.136 125.469C666.55 125.469 669.106 125.327 671.52 124.617C669.248 125.753 666.692 126.321 664.136 126.463C662.858 126.605 661.58 126.605 660.302 126.463C660.018 126.463 659.592 126.463 659.308 126.321L658.74 126.179C658.456 126.179 658.314 126.037 658.172 125.895C657.462 125.611 657.036 125.185 656.468 124.617C655.9 123.907 655.616 123.339 655.332 122.771C655.048 122.203 654.906 121.493 654.764 120.925C654.48 119.647 654.196 118.511 653.912 117.232C653.77 114.96 653.628 112.404 653.77 109.99Z" fill="#AEB0B2"/>
</g>
<path opacity="0.33" d="M317.076 429.502C318.922 427.23 326.874 418.994 335.536 410.332C344.199 401.669 361.949 371.138 367.203 365.032C372.458 358.926 386.374 343.873 389.782 336.347C393.19 328.821 389.498 304.68 389.782 297.154C390.066 289.627 393.616 253.7 391.202 244.328C388.788 234.955 384.954 231.121 381.83 224.589C378.706 218.057 378.138 216.069 375.298 214.081C372.458 212.092 374.162 195.052 374.73 192.638C375.298 190.224 377.286 179.289 377.286 175.455C377.286 171.621 377.286 160.687 380.268 152.592C383.25 144.498 381.262 120.215 376.15 112.547C371.038 104.879 366.919 103.032 360.813 102.606C354.707 102.18 348.033 108.145 346.329 111.837C344.625 115.529 342.353 118.937 339.796 149.042C336.246 157.136 329.43 164.237 326.448 174.035C323.466 183.833 315.514 208.542 313.667 218.767C311.821 228.991 301.313 242.908 305.573 235.381C309.833 227.997 309.407 209.82 317.36 185.68C325.312 161.539 324.318 163.101 324.318 161.823C324.318 160.545 329.004 156.142 330.566 145.634C333.548 140.806 339.37 116.807 328.578 109.849C328.436 104.879 325.17 101.47 316.224 100.05C307.277 98.6304 304.011 100.902 302.023 106.441C298.757 107.293 293.787 119.363 292.935 129.303C290.521 130.724 278.876 142.51 276.604 146.912C274.332 151.314 267.942 173.467 266.664 179.147C265.386 184.827 257.149 220.329 254.877 223.595C252.605 226.861 251.611 229.133 253.457 222.175C255.303 215.217 263.824 173.325 267.516 165.799C271.208 158.273 271.634 152.024 281.858 137.398C292.083 122.771 290.663 115.671 288.817 110.985C286.971 106.299 285.55 102.322 276.888 100.902C268.226 99.4824 263.256 106.725 263.256 106.725C263.256 106.725 258.001 108.287 245.363 121.919C242.665 116.665 238.973 112.689 238.973 112.689C238.973 112.689 236.275 107.009 228.606 105.873C220.938 104.737 217.814 112.973 217.388 115.955C214.832 115.955 209.578 127.741 207.732 139.528C205.886 151.456 202.903 168.497 199.779 178.579C196.655 188.662 194.667 197.04 193.957 204.424C193.247 211.808 189.271 222.175 188.561 231.831C187.851 241.488 176.633 269.179 176.064 277.983C175.354 286.787 175.78 316.892 174.928 323.851C174.076 330.809 172.798 354.24 174.928 367.73C177.059 381.079 176.064 393.433 173.792 400.107C171.52 406.782 163 428.934 163 428.934H317.076V429.502Z" fill="#E0E1E2"/>
<path d="M317.076 429.502C318.922 427.23 326.874 418.994 335.536 410.332C344.199 401.669 361.949 371.138 367.203 365.032C372.458 358.926 386.374 343.873 389.782 336.347C393.19 328.821 389.498 304.68 389.782 297.154C390.066 289.627 393.616 253.7 391.202 244.328C388.788 234.955 384.954 231.121 381.83 224.589C378.706 218.057 378.138 216.069 375.298 214.081C372.458 212.092 374.162 195.052 374.73 192.638C375.298 190.224 377.286 179.289 377.286 175.455C377.286 171.621 377.286 160.687 380.268 152.592C383.25 144.498 381.262 120.215 376.15 112.547C371.038 104.879 366.919 103.032 360.813 102.606C354.707 102.18 348.033 108.145 346.329 111.837C344.625 115.529 342.353 118.937 339.796 149.042C336.246 157.136 329.43 164.237 326.448 174.035C323.466 183.833 315.514 208.542 313.667 218.767C311.821 228.991 301.313 242.908 305.573 235.381C309.833 227.997 309.407 209.82 317.36 185.68C325.312 161.539 324.318 163.101 324.318 161.823C324.318 160.545 329.004 156.142 330.566 145.634C333.548 140.806 339.37 116.807 328.578 109.849C328.436 104.879 325.17 101.47 316.224 100.05C307.277 98.6304 304.011 100.902 302.023 106.441C298.757 107.293 293.787 119.363 292.935 129.303C290.521 130.724 278.876 142.51 276.604 146.912C274.332 151.314 267.942 173.467 266.664 179.147C265.386 184.827 257.149 220.329 254.877 223.595C252.605 226.861 251.611 229.133 253.457 222.175C255.303 215.217 263.824 173.325 267.516 165.799C271.208 158.273 271.634 152.024 281.858 137.398C292.083 122.771 290.663 115.671 288.817 110.985C286.971 106.299 285.55 102.322 276.888 100.902C268.226 99.4824 263.256 106.725 263.256 106.725C263.256 106.725 258.001 108.287 245.363 121.919C242.665 116.665 238.973 112.689 238.973 112.689C238.973 112.689 236.275 107.009 228.606 105.873C220.938 104.737 217.814 112.973 217.388 115.955C214.832 115.955 209.578 127.741 207.732 139.528C205.886 151.456 202.903 168.497 199.779 178.579C196.655 188.662 194.667 197.04 193.957 204.424C193.247 211.808 189.271 222.175 188.561 231.831C187.851 241.488 176.633 269.179 176.064 277.983C175.354 286.787 175.78 316.892 174.928 323.851C174.076 330.809 172.798 354.24 174.928 367.73C177.059 381.079 176.064 393.433 173.792 400.107C171.52 406.782 163 428.934 163 428.934" stroke="#808285" stroke-width="2" stroke-miterlimit="10"/>
<path d="M204.182 228.139C208.158 223.879 211.424 217.347 211.708 210.531C211.992 203.714 211.282 168.355 220.228 154.864C229.175 141.374 245.505 122.487 245.505 122.487" stroke="#808285" stroke-width="2" stroke-miterlimit="10"/>
<path d="M362.802 310.929C360.813 307.237 358.399 304.822 358.399 301.982C358.399 299.142 359.961 266.623 361.666 254.979C363.228 243.334 371.18 209.679 373.878 202.721" stroke="#808285" stroke-width="2" stroke-miterlimit="10"/>
</svg>
