<svg width="900" height="500" viewBox="0 0 900 500" fill="none" xmlns="http://www.w3.org/2000/svg">
<path opacity="0.33" d="M327.41 430.327C329.284 428.02 337.356 419.659 346.15 410.865C354.943 402.072 372.963 371.078 378.297 364.88C383.631 358.681 397.758 343.4 401.218 335.76C404.677 328.12 400.929 303.613 401.218 295.973C401.506 288.333 405.11 251.861 402.659 242.347C400.209 232.832 396.316 228.94 393.145 222.309C389.973 215.678 389.397 213.66 386.514 211.641C383.631 209.623 385.36 192.324 385.937 189.874C386.514 187.423 388.532 176.323 388.532 172.431C388.532 168.539 388.532 157.439 391.559 149.222C394.586 141.005 392.568 116.354 387.379 108.57C382.189 100.785 378.008 98.9111 371.81 98.4786C365.611 98.0461 358.836 104.101 357.106 107.849C355.376 111.597 353.069 115.057 350.475 145.618C346.871 153.835 339.951 161.042 336.924 170.989C333.897 180.936 325.824 206.019 323.95 216.398C322.076 226.778 311.408 240.905 315.733 233.265C320.058 225.769 319.625 207.317 327.698 182.81C335.771 158.303 334.762 159.889 334.762 158.592C334.762 157.294 339.519 152.826 341.104 142.158C344.132 137.257 350.042 112.894 339.086 105.831C338.942 100.785 335.627 97.3254 326.545 95.8838C317.463 94.4422 314.147 96.7487 312.129 102.371C308.813 103.236 303.768 115.489 302.903 125.58C300.452 127.022 288.632 138.987 286.325 143.455C284.019 147.924 277.532 170.413 276.234 176.179C274.937 181.945 266.576 217.984 264.269 221.3C261.963 224.615 260.954 226.922 262.828 219.858C264.702 212.795 273.351 170.268 277.099 162.628C280.847 154.988 281.28 148.645 291.659 133.797C302.038 118.949 300.597 111.741 298.723 106.984C296.848 102.227 295.407 98.1903 286.613 96.7487C277.82 95.3072 272.774 102.659 272.774 102.659C272.774 102.659 267.441 104.245 254.611 118.084C251.872 112.75 248.124 108.714 248.124 108.714C248.124 108.714 245.385 102.947 237.6 101.794C229.816 100.641 226.644 109.002 226.212 112.029C223.617 112.029 218.283 123.994 216.409 135.959C214.535 148.068 211.508 165.367 208.336 175.602C205.165 185.837 203.147 194.343 202.426 201.839C201.705 209.335 197.669 219.858 196.948 229.661C196.227 239.464 184.839 267.574 184.262 276.512C183.542 285.449 183.974 316.011 183.109 323.074C182.244 330.138 180.947 353.924 183.109 367.619C185.271 381.169 184.262 393.711 181.956 400.486C179.649 407.261 171 429.75 171 429.75H327.41V430.327Z" fill="#E0E1E2"/>
<path d="M327.41 430.327C329.284 428.02 337.356 419.659 346.15 410.865C354.943 402.072 372.963 371.078 378.297 364.88C383.631 358.681 397.758 343.4 401.218 335.76C404.677 328.12 400.929 303.613 401.218 295.973C401.506 288.333 405.11 251.861 402.659 242.347C400.209 232.832 396.316 228.94 393.145 222.309C389.973 215.678 389.397 213.66 386.514 211.641C383.631 209.623 385.36 192.324 385.937 189.874C386.514 187.423 388.532 176.323 388.532 172.431C388.532 168.539 388.532 157.439 391.559 149.222C394.586 141.005 392.568 116.354 387.379 108.57C382.189 100.785 378.008 98.9111 371.81 98.4786C365.611 98.0461 358.836 104.101 357.106 107.849C355.376 111.597 353.069 115.057 350.475 145.618C346.871 153.835 339.951 161.042 336.924 170.989C333.897 180.936 325.824 206.019 323.95 216.398C322.076 226.778 311.408 240.905 315.733 233.265C320.058 225.769 319.625 207.317 327.698 182.81C335.771 158.303 334.762 159.889 334.762 158.592C334.762 157.294 339.519 152.826 341.104 142.158C344.132 137.257 350.042 112.894 339.086 105.831C338.942 100.785 335.627 97.3254 326.545 95.8838C317.463 94.4422 314.147 96.7487 312.129 102.371C308.813 103.236 303.768 115.489 302.903 125.58C300.452 127.022 288.632 138.987 286.325 143.455C284.019 147.924 277.532 170.413 276.234 176.179C274.937 181.945 266.576 217.984 264.269 221.3C261.963 224.615 260.954 226.922 262.828 219.858C264.702 212.795 273.351 170.268 277.099 162.628C280.847 154.988 281.28 148.645 291.659 133.797C302.038 118.949 300.597 111.741 298.723 106.984C296.848 102.227 295.407 98.1903 286.613 96.7487C277.82 95.3072 272.774 102.659 272.774 102.659C272.774 102.659 267.441 104.245 254.611 118.084C251.872 112.75 248.124 108.714 248.124 108.714C248.124 108.714 245.385 102.947 237.6 101.794C229.816 100.641 226.644 109.002 226.212 112.029C223.617 112.029 218.283 123.994 216.409 135.959C214.535 148.068 211.508 165.367 208.336 175.602C205.165 185.837 203.147 194.343 202.426 201.839C201.705 209.335 197.669 219.858 196.948 229.661C196.227 239.464 184.839 267.574 184.262 276.512C183.542 285.449 183.974 316.011 183.109 323.074C182.244 330.138 180.947 353.924 183.109 367.619C185.271 381.169 184.262 393.711 181.956 400.486C179.649 407.261 171 429.75 171 429.75" stroke="#75819C" stroke-width="2" stroke-miterlimit="10"/>
<path d="M212.805 225.912C216.841 221.588 220.157 214.957 220.445 208.037C220.733 201.118 220.012 165.223 229.094 151.528C238.176 137.833 254.754 118.66 254.754 118.66" stroke="#75819C" stroke-width="2" stroke-miterlimit="10"/>
<path d="M373.827 309.957C371.809 306.208 369.358 303.758 369.358 300.875C369.358 297.992 370.944 264.98 372.674 253.159C374.26 241.338 382.332 207.173 385.071 200.109" stroke="#75819C" stroke-width="2" stroke-miterlimit="10"/>
<path opacity="0.33" d="M543.884 430.107C539.97 422.132 535.62 417.347 532.14 414.448C529.965 412.563 528.37 411.693 525.18 408.648C521.411 405.169 519.236 402.414 516.046 398.643C508.507 389.509 508.941 390.669 504.592 385.304C497.632 376.75 496.762 374.575 483.713 356.596C478.638 349.636 476.753 347.316 474.288 344.561C471.824 341.952 470.953 341.372 469.358 339.052C468.778 338.037 465.879 333.687 464.719 326.872C464.429 324.843 464.429 322.668 464.429 318.173C464.429 311.793 464.863 309.908 464.429 305.414C464.139 303.094 463.849 301.499 463.269 298.889C461.964 292.799 460.949 290.625 457.469 279.605C456.019 274.965 455.439 272.646 454.859 269.456C454.279 266.556 454.134 264.091 453.99 262.351C453.555 260.756 452.829 258.437 452.104 255.536C450.654 250.172 449.93 247.417 449.784 244.663C449.495 241.762 449.93 239.152 450.654 233.933C451.089 230.743 451.815 227.118 452.685 222.914C452.685 218.128 452.685 213.489 452.685 208.704C451.234 205.66 449.64 202.035 448.334 197.829C446.305 191.595 445.435 185.94 445 181.3C445.87 181.01 446.885 180.721 447.755 180.43C451.089 179.125 457.615 177.096 464.139 179.416C467.038 180.43 469.504 182.171 471.389 183.62C473.129 184.781 476.463 187.245 479.218 191.016C481.538 194.205 482.987 197.395 484.438 202.614C487.047 211.604 486.032 213.054 488.787 227.263C489.657 231.613 490.237 234.658 491.977 244.082C492.847 248.432 492.992 249.737 492.992 249.737C493.137 249.737 491.688 239.587 485.162 192.61C484.873 188.115 484.583 183.476 484.292 178.981C485.307 168.832 485.597 160.857 485.742 155.347C485.888 150.128 485.888 142.297 485.888 142.008C485.888 133.309 485.742 133.598 485.888 130.119C486.032 124.319 486.323 118.809 487.773 111.849C489.078 106.339 489.802 102.86 492.847 99.0898C494.007 97.4954 496.472 94.7403 500.532 93.1454C505.171 91.4055 509.231 92.4205 510.971 92.8554C516.481 94.1603 519.815 97.4954 521.12 99.0898C523.44 101.7 524.456 104.31 525.18 105.904C526.63 109.675 526.92 113.009 527.065 115.909C527.5 124.754 527.211 132.004 527.065 137.078C526.92 140.123 526.776 144.908 526.63 150.997C527.5 154.042 528.805 158.537 530.4 163.902C533.88 176.371 536.055 184.49 537.504 194.785C538.809 203.919 537.939 203.34 539.535 214.214C540.405 220.448 541.71 227.553 542.869 234.077C543.595 237.702 544.03 240.747 544.465 242.777C545.335 242.197 546.204 241.473 547.074 240.892C544.03 228.278 541.855 217.549 540.55 209.864C537.939 196.09 536.49 184.925 534.315 169.846C533.445 164.046 532.72 157.232 531.125 146.068C529.965 138.383 529.675 136.933 528.95 131.278C528.225 125.189 528.66 127.798 527.355 109.24C526.92 104.164 526.776 102.57 527.5 99.9599C527.79 98.8005 529.53 92.2755 535.475 88.7956C538.23 87.2007 540.694 87.0558 543.304 86.7657C546.204 86.4758 551.279 85.8958 556.643 88.7956C557.948 89.5206 562.008 91.6955 564.618 96.1904C565.779 98.2198 566.068 99.9599 566.793 102.86C567.808 107.065 567.373 109.094 568.678 113.734C569.113 115.474 569.548 116.779 569.837 117.794C569.548 115.329 569.403 111.414 570.418 107.065C571.433 102.715 572.738 97.0604 577.522 93.8704C581.437 91.2605 585.642 91.5505 587.092 91.6955C593.471 92.1304 597.677 95.9 600.576 98.5101C606.665 104.745 613.046 116.779 614.061 119.099C614.35 115.909 614.496 113.444 615.076 111.56C615.801 109.529 616.381 107.5 618.121 105.18C618.991 104.02 620.15 102.28 622.47 100.975C623.195 100.54 626.82 98.5101 631.315 99.3802C634.214 99.9599 635.954 101.265 637.695 102.715C641.174 105.325 642.914 108.224 644.654 110.979C646.104 113.444 646.829 115.039 648.714 119.099C652.918 128.523 653.209 128.958 654.223 131.278C657.848 139.833 660.168 149.402 662.198 157.087C665.533 169.991 667.273 178.836 667.273 178.836C668.288 186.375 668.723 194.785 669.593 211.893C670.172 223.784 670.172 227.553 671.333 235.092C673.217 246.547 674.957 247.417 676.552 258.437C677.422 264.236 677.277 266.121 678.002 282.795C678.582 296.57 678.872 297.294 679.307 305.993C680.032 321.218 679.887 326.872 680.467 364.281C680.757 384.29 680.902 389.799 682.642 398.064C685.397 411.258 690.327 422.277 691.196 424.017C692.356 426.483 693.371 428.512 694.096 429.962C644.074 430.107 593.906 430.107 543.884 430.107Z" fill="#E0E1E2"/>
<path d="M543.884 430.107C539.97 422.132 535.62 417.348 532.14 414.449C529.965 412.563 528.37 411.693 525.18 408.649C521.411 405.169 519.236 402.414 516.046 398.644C508.507 389.51 508.941 390.669 504.592 385.304C497.632 376.751 496.762 374.576 483.713 356.596C478.638 349.637 476.753 347.317 474.288 344.562C471.824 341.952 470.953 341.372 469.358 339.053C468.778 338.037 465.879 333.688 464.719 326.873C464.429 324.843 464.429 322.669 464.429 318.174C464.429 311.794 464.863 309.909 464.429 305.414C464.139 303.095 463.849 301.499 463.269 298.889C461.964 292.8 460.949 290.625 457.469 279.606C456.019 274.966 455.439 272.646 454.859 269.457C454.279 266.556 454.134 264.092 453.99 262.352C453.555 260.756 452.829 258.436 452.104 255.537C450.654 250.172 449.93 247.417 449.784 244.662C449.495 241.763 449.93 239.153 450.654 233.933C451.089 230.743 451.815 227.118 452.685 222.913C452.685 218.129 452.685 213.489 452.685 208.704C451.234 205.659 449.64 202.035 448.334 197.83C446.305 191.595 445.435 185.941 445 181.301C445.87 181.011 446.885 180.721 447.755 180.431C451.089 179.126 457.615 177.096 464.139 179.416C467.038 180.431 469.504 182.17 471.389 183.621C473.129 184.78 476.463 187.246 479.218 191.015C481.538 194.205 482.987 197.395 484.438 202.614C487.047 211.604 486.032 213.054 488.787 227.264C489.657 231.613 490.237 234.658 491.977 244.083C492.847 248.432 492.992 249.737 492.992 249.737C493.137 249.737 491.688 239.588 485.162 192.61C484.873 188.116 484.583 183.475 484.292 178.981C485.307 168.831 485.597 160.857 485.742 155.347C485.888 150.128 485.888 142.298 485.888 142.008C485.888 133.308 485.742 133.599 485.888 130.119C486.032 124.319 486.323 118.809 487.773 111.85C489.078 106.34 489.802 102.86 492.847 99.0906C494.007 97.4952 496.472 94.7405 500.532 93.1456C505.171 91.4058 509.231 92.4207 510.971 92.8557C516.481 94.1606 519.815 97.4952 521.12 99.0906C523.44 101.7 524.456 104.31 525.18 105.905C526.63 109.675 526.92 113.009 527.065 115.91C527.5 124.754 527.211 132.003 527.065 137.078C526.92 140.123 526.776 144.907 526.63 150.998C527.5 154.043 528.805 158.537 530.4 163.902C533.88 176.371 536.055 184.491 537.504 194.785C538.809 203.919 537.939 203.34 539.535 214.214C540.405 220.449 541.71 227.553 542.869 234.078C543.595 237.703 544.03 240.747 544.465 242.778C545.044 242.343 545.624 241.908 546.204 241.473" stroke="#75819C" stroke-width="2" stroke-miterlimit="10"/>
<path d="M569.983 118.084C569.693 115.619 569.548 111.705 570.564 107.355C571.578 103.005 572.883 97.3502 577.668 94.1605C581.583 91.5507 585.787 91.8407 587.237 91.9858C593.617 92.4207 597.822 96.1908 600.722 98.7999C606.811 105.035 613.19 117.07 614.206 119.389C614.496 116.2 614.641 113.734 615.221 111.849C615.945 109.82 616.526 107.79 618.266 105.47C619.135 104.31 620.295 102.57 622.615 101.265C623.34 100.83 626.965 98.7999 631.46 99.6699C634.36 100.251 636.1 101.556 637.84 103.005C641.319 105.615 643.059 108.515 644.799 111.27C646.249 113.734 646.974 115.33 648.859 119.389C653.064 128.813 653.354 129.248 654.369 131.569C657.993 140.123 660.313 149.692 662.343 157.377C665.678 170.282 667.418 179.126 667.418 179.126C668.433 186.666 668.868 195.075 669.738 212.184C670.318 224.073 670.318 227.843 671.478 235.383C673.363 246.837 675.103 247.707 676.697 258.726C677.567 264.526 677.423 266.411 678.147 283.085C678.728 296.859 679.017 297.585 679.452 306.284C680.177 321.508 680.032 327.163 680.612 364.571C680.902 384.579 681.047 390.089 682.786 398.354C685.542 411.549 690.471 422.568 691.341 424.308C692.502 426.772 693.516 428.803 694.242 430.252" stroke="#75819C" stroke-width="2" stroke-miterlimit="10"/>
<path d="M637.115 222.333C637.404 211.314 636.245 198.699 635.81 192.03C634.94 179.125 633.635 172.311 630.88 161.436C628.995 154.187 626.965 148.967 623.92 141.138C620.15 131.569 616.381 123.594 613.626 117.939" stroke="#75819C" stroke-width="2" stroke-miterlimit="10"/>
<path d="M490.962 329.916C491.252 326.146 491.687 321.941 492.702 317.302C493.717 312.807 494.877 308.892 496.036 305.557C495.457 300.483 495.022 295.262 494.587 289.897C493.572 276.994 492.991 261.624 492.991 250.025" stroke="#75819C" stroke-width="2" stroke-miterlimit="10"/>
<path d="M546.495 241.907C546.785 241.616 547.074 241.472 547.365 241.181C544.319 228.567 542.145 217.838 540.84 210.153C538.23 196.379 536.78 185.214 534.605 170.135C533.735 164.335 533.01 157.521 531.415 146.357C530.255 138.672 529.966 137.222 529.24 131.567C528.516 125.478 528.95 128.087 527.646 109.529C527.211 104.454 527.065 102.859 527.791 100.249C528.081 99.0896 529.82 92.5645 535.765 89.0847C538.52 87.4898 540.985 87.3448 543.595 87.0549C546.494 86.7648 551.569 86.1848 556.934 89.0847C558.239 89.8096 562.299 91.9845 564.909 96.4795C566.068 98.5089 566.359 100.249 567.083 103.148C568.099 107.354 567.664 109.383 568.969 114.023C569.403 115.763 569.838 117.068 570.128 118.083C574.623 127.943 579.698 134.902 581.147 141.717C584.048 155.201 586.368 164.915 589.122 175.935C590.282 180.429 589.992 217.548 598.257 229.292" stroke="#F69AED" stroke-width="3" stroke-miterlimit="10" stroke-linecap="round"/>
<g opacity="0.5">
<path d="M534.894 95.0299C534.17 96.1899 533.879 97.495 533.589 98.6544C533.589 98.9447 533.589 99.235 533.589 99.5244C533.589 99.6701 533.589 99.8147 533.589 99.8147C533.735 99.9594 533.444 99.8147 533.589 99.8147C534.17 99.8147 534.894 99.5244 535.475 99.3797C538.084 98.8 540.694 98.2193 543.304 97.93C545.913 97.6396 548.669 97.495 551.278 97.495C554.033 97.495 556.643 97.7843 559.253 98.0747L558.963 98.2193C558.818 98.5097 558.963 98.365 558.818 98.2193C558.818 98.0747 558.818 97.93 558.674 97.93C558.674 97.6396 558.528 97.495 558.383 97.2046C558.238 96.7696 557.948 96.1899 557.803 95.7549C557.368 94.7399 556.788 93.8699 556.063 93C556.933 93.725 557.658 94.5949 558.239 95.4646C558.528 95.8996 558.818 96.3346 559.109 96.9143C559.253 97.2046 559.398 97.495 559.398 97.6396C559.398 97.7843 559.543 97.93 559.543 98.0747C559.543 98.2193 559.688 98.365 559.398 98.8L559.253 98.9447H558.963C556.353 98.8 553.598 98.8 550.989 98.9447C548.379 98.9447 545.769 99.235 543.159 99.3797C540.549 99.6701 537.939 99.9594 535.329 100.394C534.605 100.539 534.024 100.685 533.3 100.685H533.154C533.154 100.685 533.009 100.685 532.865 100.539C532.719 100.394 532.574 100.25 532.574 100.105C532.43 99.8147 532.43 99.6701 532.43 99.5244C532.43 99.0894 532.574 98.8 532.574 98.5097C533.444 97.3493 534.024 95.8996 534.894 95.0299Z" fill="#75819C"/>
</g>
<g opacity="0.5">
<path d="M456.309 208.558C457.179 207.688 458.193 206.818 458.774 205.803C459.354 204.788 459.498 203.483 459.498 202.324C459.354 199.858 459.063 197.394 458.628 194.928C458.193 192.464 457.469 190.144 456.599 187.824C455.729 185.649 453.844 183.909 451.524 182.895C453.989 183.33 456.454 184.779 457.758 187.244C458.919 189.564 459.644 192.029 460.078 194.493C460.513 196.959 460.804 199.568 460.659 202.178C460.513 203.483 460.224 204.788 459.354 205.949C458.339 207.253 457.323 207.978 456.309 208.558Z" fill="#75819C"/>
</g>
</svg>
