<svg width="900" height="500" viewBox="0 0 900 500" fill="none" xmlns="http://www.w3.org/2000/svg">
<path opacity="0.33" d="M327.41 430.327C329.284 428.02 337.356 419.659 346.15 410.865C354.943 402.072 372.963 371.078 378.297 364.88C383.631 358.681 397.758 343.4 401.218 335.76C404.677 328.12 400.929 303.613 401.218 295.973C401.506 288.333 405.11 251.861 402.659 242.347C400.209 232.832 396.316 228.94 393.145 222.309C389.973 215.678 389.397 213.66 386.514 211.641C383.631 209.623 385.36 192.324 385.937 189.874C386.514 187.423 388.532 176.323 388.532 172.431C388.532 168.539 388.532 157.439 391.559 149.222C394.586 141.005 392.568 116.354 387.379 108.57C382.189 100.785 378.008 98.9111 371.81 98.4786C365.611 98.0461 358.836 104.101 357.106 107.849C355.376 111.597 353.069 115.057 350.475 145.618C346.871 153.835 339.951 161.042 336.924 170.989C333.897 180.936 325.824 206.019 323.95 216.398C322.076 226.778 311.408 240.905 315.733 233.265C320.058 225.769 319.625 207.317 327.698 182.81C335.771 158.303 334.762 159.889 334.762 158.592C334.762 157.294 339.519 152.826 341.104 142.158C344.132 137.257 350.042 112.894 339.086 105.831C338.942 100.785 335.627 97.3254 326.545 95.8838C317.463 94.4422 314.147 96.7487 312.129 102.371C308.813 103.236 303.768 115.489 302.903 125.58C300.452 127.022 288.632 138.987 286.325 143.455C284.019 147.924 277.532 170.413 276.234 176.179C274.937 181.945 266.576 217.984 264.269 221.3C261.963 224.615 260.954 226.922 262.828 219.858C264.702 212.795 273.351 170.268 277.099 162.628C280.847 154.988 281.28 148.645 291.659 133.797C302.038 118.949 300.597 111.741 298.723 106.984C296.848 102.227 295.407 98.1903 286.613 96.7487C277.82 95.3072 272.774 102.659 272.774 102.659C272.774 102.659 267.441 104.245 254.611 118.084C251.872 112.75 248.124 108.714 248.124 108.714C248.124 108.714 245.385 102.947 237.6 101.794C229.816 100.641 226.644 109.002 226.212 112.029C223.617 112.029 218.283 123.994 216.409 135.959C214.535 148.068 211.508 165.367 208.336 175.602C205.165 185.837 203.147 194.343 202.426 201.839C201.705 209.335 197.669 219.858 196.948 229.661C196.227 239.464 184.839 267.574 184.262 276.512C183.542 285.449 183.974 316.011 183.109 323.074C182.244 330.138 180.947 353.924 183.109 367.619C185.271 381.169 184.262 393.711 181.956 400.486C179.649 407.261 171 429.75 171 429.75H327.41V430.327Z" fill="#445272"/>
<path d="M327.41 430.327C329.284 428.02 337.356 419.659 346.15 410.865C354.943 402.072 372.963 371.078 378.297 364.88C383.631 358.681 397.758 343.4 401.218 335.76C404.677 328.12 400.929 303.613 401.218 295.973C401.506 288.333 405.11 251.861 402.659 242.347C400.209 232.832 396.316 228.94 393.145 222.309C389.973 215.678 389.397 213.66 386.514 211.641C383.631 209.623 385.36 192.324 385.937 189.874C386.514 187.423 388.532 176.323 388.532 172.431C388.532 168.539 388.532 157.439 391.559 149.222C394.586 141.005 392.568 116.354 387.379 108.57C382.189 100.785 378.008 98.9111 371.81 98.4786C365.611 98.0461 358.836 104.101 357.106 107.849C355.376 111.597 353.069 115.057 350.475 145.618C346.871 153.835 339.951 161.042 336.924 170.989C333.897 180.936 325.824 206.019 323.95 216.398C322.076 226.778 311.408 240.905 315.733 233.265C320.058 225.769 319.625 207.317 327.698 182.81C335.771 158.303 334.762 159.889 334.762 158.592C334.762 157.294 339.519 152.826 341.104 142.158C344.132 137.257 350.042 112.894 339.086 105.831C338.942 100.785 335.627 97.3254 326.545 95.8838C317.463 94.4422 314.147 96.7487 312.129 102.371C308.813 103.236 303.768 115.489 302.903 125.58C300.452 127.022 288.632 138.987 286.325 143.455C284.019 147.924 277.532 170.413 276.234 176.179C274.937 181.945 266.576 217.984 264.269 221.3C261.963 224.615 260.954 226.922 262.828 219.858C264.702 212.795 273.351 170.268 277.099 162.628C280.847 154.988 281.28 148.645 291.659 133.797C302.038 118.949 300.597 111.741 298.723 106.984C296.848 102.227 295.407 98.1903 286.613 96.7487C277.82 95.3072 272.774 102.659 272.774 102.659C272.774 102.659 267.441 104.245 254.611 118.084C251.872 112.75 248.124 108.714 248.124 108.714C248.124 108.714 245.385 102.947 237.6 101.794C229.816 100.641 226.644 109.002 226.212 112.029C223.617 112.029 218.283 123.994 216.409 135.959C214.535 148.068 211.508 165.367 208.336 175.602C205.165 185.837 203.147 194.343 202.426 201.839C201.705 209.335 197.669 219.858 196.948 229.661C196.227 239.464 184.839 267.574 184.262 276.512C183.542 285.449 183.974 316.011 183.109 323.074C182.244 330.138 180.947 353.924 183.109 367.619C185.271 381.169 184.262 393.711 181.956 400.486C179.649 407.261 171 429.75 171 429.75" stroke="#697695" stroke-width="2" stroke-miterlimit="10"/>
<path d="M212.805 225.912C216.841 221.588 220.157 214.957 220.445 208.037C220.733 201.118 220.012 165.223 229.094 151.528C238.176 137.833 254.754 118.66 254.754 118.66" stroke="#697695" stroke-width="2" stroke-miterlimit="10"/>
<path d="M373.827 309.957C371.809 306.208 369.358 303.758 369.358 300.875C369.358 297.992 370.944 264.98 372.674 253.159C374.26 241.338 382.332 207.173 385.071 200.109" stroke="#697695" stroke-width="2" stroke-miterlimit="10"/>
<path opacity="0.33" d="M614.179 420.614C609.607 411.747 605.589 404.404 602.402 399.001C593.674 383.899 589.517 378.358 586.746 375.171C581.204 368.659 576.355 364.78 573.307 362.425C571.783 361.316 570.952 360.762 565.41 357.16C546.29 344.829 542.827 343.582 539.086 341.504C538.393 341.088 533.267 338.456 528.418 335.685C521.352 331.806 521.49 331.528 513.316 326.956C507.913 323.908 505.142 322.246 501.817 320.583C496.552 317.951 494.889 317.397 490.733 314.903C486.299 312.27 484.083 311.023 482.004 308.53C479.095 305.204 477.848 301.741 476.878 299.247C475.077 294.259 474.8 290.241 474.661 288.994C474.107 282.067 470.921 275.14 468.15 263.086C467.872 261.701 467.734 260.869 467.318 259.622C465.933 255.05 464.547 254.08 462.608 249.508C460.945 245.629 460.252 242.027 459.698 239.949C459.144 237.316 459.144 236.762 458.59 234.13C457.62 230.389 456.789 228.449 456.096 226.648C455.68 225.54 454.849 222.492 454.988 214.179C455.265 202.541 457.343 189.933 458.174 185.915C457.481 183.421 456.789 180.927 456.096 178.433C454.156 171.645 452.078 164.994 450 158.621C450.97 157.79 452.632 156.82 454.572 155.712C457.343 154.326 461.084 152.387 465.933 152.664C470.366 152.941 473.691 154.88 475.631 156.266C475.077 154.326 474.384 151.832 473.83 148.784C473.691 147.676 473.137 144.628 472.999 141.58C472.86 137.839 472.722 132.297 475.631 126.755C476.601 124.816 478.956 121.213 483.805 118.165C484.083 116.226 484.775 113.593 486.299 110.545C487.269 108.606 488.932 105.419 492.395 102.509C493.919 101.262 496.829 98.9072 501.124 98.0759C505.696 97.2447 509.575 98.353 511.653 99.0458C512.762 99.3229 513.593 99.7385 514.147 100.016C514.147 97.9374 514.563 94.1966 517.057 90.5944C518.304 88.7933 519.551 87.8234 521.352 86.438C523.846 84.4983 526.617 82.6972 531.327 80.4804C537.562 77.5709 540.61 76.1854 543.519 75.9083C544.489 75.7698 549.893 75.4927 555.712 78.8178C559.591 81.0346 561.946 83.9441 563.193 85.6067C555.019 68.7039 549.061 56.9273 545.598 50.9698C545.321 50.4156 543.242 46.8134 541.857 41.5486C540.471 36.2838 541.026 33.5128 541.303 32.2659C541.857 29.6335 542.965 27.6938 543.797 26.5854C543.797 25.8927 543.797 24.3687 544.489 22.8447C545.459 20.7664 546.845 19.7966 547.399 19.381C549.2 18.134 550.862 17.9955 552.941 17.7184C555.296 17.4413 558.898 17.1642 562.778 18.9653C564.024 19.5195 565.271 20.6279 568.042 22.9832C571.229 25.6156 572.753 27.0011 574.416 28.9407C575.524 30.3262 577.186 32.6815 578.433 36.0067C579.542 37.115 581.066 38.6391 582.313 40.7173C583.837 43.2111 584.53 45.5664 584.945 47.0905C586.608 50.2771 588.686 53.7407 591.041 57.343C593.535 61.2223 595.613 63.8547 596.445 64.8245C599.493 68.8424 603.788 75.3542 609.052 85.7452C607.944 79.9262 606.836 73.9687 605.866 68.1497C604.065 63.0234 602.818 58.5899 601.848 55.1262C599.908 48.1988 598.938 43.3497 598.661 41.6871C597.414 35.4525 596.86 32.1273 597.137 28.9407C597.414 25.6156 597.83 20.6279 601.709 16.8871C604.065 14.5318 606.836 13.7005 608.36 13.2849C610.299 12.7307 614.179 11.4838 618.197 13.0078C621.66 14.2547 623.6 16.8871 626.509 21.1821C628.865 24.5072 630.112 27.2782 631.636 30.6033C632.328 32.2659 633.298 34.3441 636.346 43.6268C638.009 48.6145 638.979 51.2469 639.256 52.0782C641.334 59.4212 641.195 62.0536 643.412 70.505C644.105 72.8603 643.966 72.5832 645.352 77.0167C648.538 87.8234 650.617 96.5519 653.111 106.804C654.219 111.515 654.773 113.732 655.05 115.117C656.851 123.569 657.128 128.141 659.207 140.749C659.345 141.58 659.345 143.935 660.176 146.706C660.869 149.061 661.839 150.724 662.255 151.555C662.809 152.664 664.333 156.266 667.242 163.332C670.152 170.398 671.537 173.861 672.369 176.217C675.001 184.53 676.525 193.535 676.802 195.752C677.079 197.83 677.633 200.878 678.88 204.758C679.989 207.806 680.959 209.607 681.928 211.546C683.73 215.287 684.699 218.612 686.778 225.124C688.163 229.835 690.657 237.593 692.735 248.261C694.813 258.237 694.398 260.315 697.169 272.646C697.861 276.109 698.554 279.019 699.247 282.067C701.187 290.518 702.295 295.229 703.819 300.494C706.174 309.084 708.668 315.457 712.824 326.679C713.379 328.203 714.764 332.083 716.842 337.07C720.722 347.184 723.77 354.25 729.312 366.72C734.576 378.912 737.209 385.008 741.227 393.459C742.474 396.23 743.998 399.278 746.769 405.374C749.817 411.886 752.31 417.151 753.835 420.753C707.421 420.615 660.869 420.614 614.179 420.614Z" fill="#445272"/>
<path d="M609.191 85.4679C608.083 79.6489 606.975 73.6913 606.005 67.8723C604.204 62.7461 602.957 58.3126 601.987 54.8489C600.047 47.9215 599.077 43.0723 598.8 41.4098C597.553 35.1751 596.999 31.85 597.276 28.6634C597.553 25.3383 597.969 20.3506 601.848 16.6098C604.204 14.2545 606.975 13.4232 608.499 13.0075C610.438 12.4533 614.318 11.2064 618.336 12.7304C621.799 13.9774 623.739 16.6098 626.648 20.9047C629.004 24.2299 630.251 27.0008 631.775 30.326C632.467 31.9885 633.437 34.0668 636.485 43.3494C638.148 48.3371 639.118 50.9696 639.395 51.8008C641.473 59.1439 641.334 61.7763 643.551 70.2277C644.244 72.583 644.105 72.3059 645.491 76.7394C648.677 87.5461 650.756 96.2746 653.25 106.527C654.358 111.238 654.912 113.454 655.189 114.84C656.99 123.291 657.267 127.863 659.346 140.471C659.484 141.303 659.484 143.658 660.315 146.429C661.008 148.784 661.978 150.447 662.394 151.278C662.948 152.386 664.472 155.989 667.381 163.054C670.291 170.12 671.676 173.584 672.508 175.939C675.14 184.252 676.664 193.258 676.941 195.475C677.218 197.553 677.772 200.601 679.019 204.48C680.128 207.528 681.098 209.329 682.067 211.269C683.868 215.01 684.838 218.335 686.917 224.847C688.302 229.557 690.796 237.316 692.874 247.984C694.952 257.959 694.537 260.038 697.308 272.368C698 275.832 698.693 278.742 699.386 281.79C701.325 290.241 702.434 294.952 703.958 300.216C706.313 308.806 708.807 315.18 712.963 326.402C713.518 327.926 714.903 331.805 716.981 336.793C720.861 346.907 723.909 353.973 729.451 366.442C734.715 378.634 737.348 384.73 741.366 393.182C742.613 395.953 744.137 399.001 746.908 405.097C749.956 411.609 752.45 416.873 753.974 420.476" stroke="#697695" stroke-width="2" stroke-miterlimit="10"/>
<path d="M542.271 177.464C537.838 166.38 533.959 156.682 530.772 148.646C527.724 141.026 525.091 133.267 521.766 125.785C521.351 124.816 516.363 112.346 515.116 100.016" stroke="#697695" stroke-width="2" stroke-miterlimit="10"/>
<path d="M504.032 241.61C501.539 234.267 500.153 228.032 499.46 223.737C498.491 218.195 498.213 214.455 496.274 207.25C495.581 204.756 494.888 201.847 493.503 198.106C491.84 193.395 490.87 192.287 488.515 186.607C486.853 182.727 485.883 179.818 484.359 175.384C481.726 167.903 481.311 165.824 479.232 161.807C477.708 158.758 476.184 156.542 475.076 155.156" stroke="#697695" stroke-width="2" stroke-miterlimit="10"/>
<path d="M629.835 145.595C627.202 138.114 625.124 131.74 623.461 126.891C622.492 123.982 621.383 120.518 619.998 115.946C617.227 107.079 616.673 104.724 615.287 100.29C611.962 89.4836 599.631 68.7015 596.583 64.6836C595.752 63.5752 593.674 60.9428 591.18 57.202C588.825 53.5998 586.608 50.2747 585.084 46.9495C583.283 43.2087 582.174 39.4679 578.572 35.8657C577.325 32.5406 575.801 30.3238 574.554 28.7998C573.03 26.8601 571.368 25.4746 568.181 22.8422C565.41 20.6255 564.025 19.3786 562.916 18.8244C559.037 17.0232 555.435 17.3003 553.079 17.5774C551.001 17.716 544.905 20.2098 543.797 26.4445C543.52 27.83 541.857 29.4925 541.303 32.1249C541.026 33.3719 540.61 36.1428 541.857 41.4076C543.242 46.6724 545.321 50.2746 545.598 50.8288C549.061 56.7864 552.802 64.8221 560.977 81.7249" stroke="#BA6DCD" stroke-width="3" stroke-miterlimit="10" stroke-linecap="round"/>
<path d="M584.945 144.906C582.729 135.484 580.235 127.033 577.741 119.829C575.801 114.287 572.615 105.42 567.627 94.7515C565.549 90.318 563.055 82.4208 555.85 78.68C550.031 75.632 544.628 75.7705 543.658 75.7705C540.749 76.0476 537.701 77.4331 531.466 80.3426C526.755 82.5593 523.984 84.3604 521.49 86.3001C519.689 87.6856 518.442 88.794 517.196 90.4565C514.702 93.9202 515.117 97.9381 514.979 100.016C514.425 99.7392 512.901 99.185 511.792 98.9079C509.714 98.3538 505.835 97.1068 501.263 97.9381C496.968 98.7694 494.058 101.125 492.534 102.372C489.07 105.281 487.408 108.468 486.438 110.407C484.914 113.455 484.221 116.088 483.944 118.028C479.095 121.076 476.878 124.816 475.77 126.617C472.86 132.159 472.999 137.563 473.137 141.442C473.276 144.49 473.83 147.677 473.969 148.646C474.523 151.695 475.216 154.327 475.77 156.128C473.83 154.743 470.505 152.803 466.071 152.526C461.222 152.249 457.343 154.188 454.711 155.574C452.632 156.544 451.108 157.652 450.139 158.483C452.217 164.857 454.295 171.368 456.235 178.296C456.927 180.79 457.62 183.283 458.313 185.777C457.62 189.795 455.403 202.403 455.126 214.041C454.988 222.492 455.958 225.54 456.235 226.51C456.789 228.311 457.759 230.39 458.728 233.992C459.421 236.624 459.283 237.178 459.837 239.811C460.252 241.889 461.084 245.491 462.746 249.371C464.686 253.943 466.21 254.912 467.457 259.485C467.873 260.87 467.873 261.563 468.288 262.948C471.198 275.14 474.246 281.929 474.8 288.857C474.939 290.103 475.216 294.121 477.017 299.109C477.987 301.603 479.234 305.067 482.143 308.392C484.36 310.886 486.577 312.133 490.871 314.765C495.028 317.259 496.69 317.813 501.955 320.445C505.28 322.108 507.913 323.632 513.455 326.819C521.629 331.391 521.49 331.668 528.556 335.547C533.406 338.318 538.532 340.95 539.225 341.366C543.104 343.444 546.429 344.691 565.549 357.022C570.952 360.486 571.783 361.04 573.446 362.287C576.632 364.642 581.343 368.521 586.885 375.033C589.656 378.22 593.951 383.762 602.541 398.863C605.589 404.267 609.745 411.61 614.317 420.477" stroke="#697695" stroke-width="2" stroke-miterlimit="10"/>
<g opacity="0.5">
<path d="M455.818 158.621C456.649 158.898 457.48 159.314 458.312 159.591V159.729C459.281 161.531 460.251 163.47 460.944 165.41C461.775 167.35 462.468 169.289 462.884 171.367C463.299 173.446 463.438 175.662 463.161 177.741C462.884 179.819 462.052 181.897 460.944 183.56C461.637 181.62 462.052 179.542 462.191 177.602C462.329 175.524 462.052 173.584 461.637 171.645C461.221 169.705 460.528 167.765 459.836 165.826C459.143 163.886 458.45 161.946 457.896 160.007L458.034 160.145C457.203 159.729 456.51 159.175 455.818 158.621Z" fill="#B1BBD0"/>
</g>
<g opacity="0.5">
<path d="M546.706 29.7714C548.091 31.8496 549.477 33.7892 551.139 35.5904C551.971 36.4217 552.802 37.3915 553.633 38.2228C554.049 38.4999 554.603 38.777 555.019 38.777C555.019 38.777 555.296 38.777 555.573 38.6384L556.404 38.2228C558.621 37.1144 560.976 36.1446 563.332 35.4518C565.687 34.7591 568.181 34.3434 570.675 34.2049H570.398C570.536 34.0663 570.536 34.0663 570.536 33.9278C570.536 33.7893 570.536 33.5122 570.536 33.2351C570.398 32.6809 570.12 32.1267 569.843 31.711C569.289 30.7412 568.596 29.6328 567.904 28.663C566.38 26.7233 564.856 24.7837 563.193 23.1211C564.163 23.8138 565.133 24.6451 565.964 25.4764C566.795 26.3077 567.765 27.139 568.458 28.1088C569.289 29.0786 569.982 30.0485 570.675 31.0183C570.952 31.5725 571.367 32.1267 571.506 32.8194C571.644 33.0965 571.644 33.5122 571.644 33.9278C571.644 34.3434 571.229 34.8976 570.813 35.0362H570.675H570.536C568.181 35.3133 565.687 35.7289 563.47 36.4216C561.115 37.1144 558.898 38.0842 556.681 39.0541L555.85 39.4697C555.573 39.6082 555.157 39.7468 554.603 39.7468C553.91 39.6082 553.218 39.3312 552.663 38.777C551.694 37.8071 551.001 36.8373 550.17 35.8675C548.923 34.2049 547.676 31.9881 546.706 29.7714Z" fill="#B1BBD0"/>
</g>
</svg>
