<svg width="900" height="500" viewBox="0 0 900 500" fill="none" xmlns="http://www.w3.org/2000/svg">
<path opacity="0.33" d="M694.391 428.438C687.6 414.134 682.831 400.841 680.953 371.365C679.075 341.888 682.687 339.577 680.953 316.314C679.219 293.051 677.485 298.108 679.219 280.624C680.809 263.141 671.272 240.456 671.128 231.931C670.983 223.406 671.706 194.219 669.105 180.493C666.504 166.766 660.435 157.952 656.101 134.4C651.766 110.848 635.294 95.5321 624.746 98.9999C614.198 102.468 612.465 113.449 613.765 117.495C609.141 108.392 606.107 103.046 603.217 99.5778C600.327 96.11 591.947 92.0643 591.947 92.0643C591.947 92.0643 578.943 89.319 573.886 101.023C569.695 101.89 569.695 110.993 569.84 113.449C568.828 107.958 566.95 100.156 565.361 97.6994C563.627 95.2431 560.303 91.3419 555.68 89.319C551.056 87.2961 539.208 88.0186 536.174 90.4749C533.139 92.9312 527.649 97.9884 528.082 102.901C528.516 107.958 530.105 112.437 530.394 125.297C530.683 138.157 534.873 165.321 535.74 172.112C536.607 178.903 548.311 241.468 548.311 241.468C548.311 241.468 547.877 242.479 547.155 241.757C546.577 241.034 532.85 164.743 527.938 153.473C529.816 141.48 530.972 107.525 523.169 100.011C519.846 92.4978 499.617 86.5737 491.959 103.479C484.301 120.24 486.758 150.294 485.313 161.853C483.868 173.413 485.457 199.132 486.902 206.79C485.891 198.987 483.29 191.763 478.811 187.284C474.332 182.804 466.963 178.325 461.761 176.447C457.571 175.002 452.225 176.88 449.913 179.192C449.19 179.915 448.179 180.637 447.167 180.782C446.011 181.07 445 181.937 445 181.937C445 184.394 446.878 196.675 453.669 208.813C451.936 211.414 454.247 222.25 452.369 229.908C450.491 237.422 448.323 242.624 451.647 251.293C450.346 253.605 452.08 259.962 454.97 262.274C453.236 267.62 455.403 274.411 461.183 288.571C468.407 306.344 464.795 325.995 469.852 336.109C474.91 346.223 480.978 349.691 487.625 360.094C494.127 370.498 519.557 403.008 529.96 411.244C540.364 419.48 544.698 428.294 544.698 428.294H694.391V428.438Z" fill="#E0E1E2"/>
<path d="M694.391 428.438C687.6 414.134 682.831 400.841 680.953 371.365C679.075 341.888 682.687 339.577 680.953 316.314C679.219 293.051 677.485 298.108 679.219 280.624C680.809 263.141 671.272 240.456 671.128 231.931C670.983 223.406 671.706 194.219 669.105 180.492C666.504 166.766 662.603 156.652 656.101 134.4C648.876 109.548 635.294 95.532 624.746 98.9998C614.198 102.468 612.465 113.449 613.765 117.495C609.141 108.392 606.107 103.046 603.217 99.5778C601.05 96.9769 595.126 92.4977 590.213 91.7753C586.601 91.1973 577.787 91.9198 573.886 100.878C570.129 102.179 569.695 110.848 569.84 113.304C568.828 107.814 566.95 100.011 565.361 97.5549C563.627 95.0986 560.303 91.1973 555.68 89.1745C551.056 87.1516 539.208 87.874 536.174 90.3304C533.139 92.7867 527.649 97.8439 528.082 102.757C528.516 107.814 530.105 112.293 530.394 125.153C530.683 138.012 534.873 165.177 535.74 171.968C536.607 178.759 548.311 241.323 548.311 241.323C548.311 241.323 547.877 242.334 547.155 241.612C546.577 240.89 532.85 164.599 527.938 153.328C529.816 141.336 530.972 107.38 523.169 99.8668C519.846 92.3532 499.617 86.4291 491.959 103.335C484.301 120.095 486.758 150.149 485.313 161.709C483.868 173.268 485.457 198.987 486.902 206.645C485.891 198.843 483.29 191.618 478.811 187.139C474.332 182.66 466.963 178.181 461.761 176.302C457.571 174.857 452.225 176.736 449.913 179.192C449.046 180.059 447.89 180.926 446.589 181.07C445.578 181.215 445 181.504 445 181.504C445 183.816 446.589 194.942 452.225 206.067C452.947 207.512 453.38 209.102 453.091 210.691C452.513 214.881 453.958 223.551 452.369 229.764C450.491 237.277 448.323 242.479 451.647 251.148C451.936 255.772 453.38 260.396 454.97 262.13C454.536 268.343 455.403 274.267 461.183 288.427C468.407 306.199 464.795 325.85 469.852 335.964C474.91 346.079 480.978 349.546 487.625 359.95C494.127 370.353 519.557 402.863 529.96 411.099C540.364 419.335 544.698 428.149 544.698 428.149" stroke="#75819C" stroke-width="2" stroke-miterlimit="10"/>
<path d="M491.815 328.884C492.248 321.515 495.571 308.944 495.86 304.465C496.294 299.986 494.994 306.344 494.705 286.982C494.56 267.476 492.826 236.844 489.647 223.117C486.469 209.39 487.336 206.645 485.891 201.732" stroke="#75819C" stroke-width="2" stroke-miterlimit="10"/>
<path d="M597.726 228.897C594.548 224.129 590.935 215.749 590.502 193.497C590.068 171.245 583.422 165.899 582.988 150.583C582.555 135.267 571.574 130.355 569.695 113.594" stroke="#75819C" stroke-width="2" stroke-miterlimit="10"/>
<path d="M636.739 223.406C636.883 217.915 637.028 190.173 634.138 173.557C631.248 156.94 628.358 150.583 624.89 143.213C621.278 135.7 615.209 124.285 613.476 117.639" stroke="#75819C" stroke-width="2" stroke-miterlimit="10"/>
<g opacity="0.5">
<path d="M453.092 182.805C454.392 183.094 455.548 183.816 456.704 184.683C457.715 185.695 458.438 186.85 458.871 188.151C459.594 190.752 460.316 193.208 460.75 195.953C461.183 198.554 461.617 201.299 461.328 204.045C461.328 204.767 461.039 205.49 460.894 206.068C460.605 206.79 460.172 207.368 459.594 207.802C458.438 208.813 456.993 208.957 455.693 208.524C456.993 208.669 458.293 208.235 459.16 207.224C460.027 206.357 460.172 205.056 460.172 203.756C460.172 201.155 459.738 198.554 459.305 196.098C458.871 193.497 458.293 190.896 457.716 188.44C457.282 186.128 455.548 183.961 453.092 182.805Z" fill="#75819C"/>
</g>
<path opacity="0.33" d="M289.415 439.867C296.672 432.971 297.731 429.373 315.573 414.982C333.414 400.591 351.105 375.856 366.679 360.416C382.252 344.975 385.276 340.778 386.94 323.239C388.452 305.7 398.733 276.468 403.421 262.976C408.108 249.484 397.826 225.049 397.826 225.049C397.826 225.049 403.572 209.759 402.362 190.421C393.139 182.626 372.878 188.472 360.631 216.804C348.383 245.137 357.002 252.482 357.002 252.482C357.002 252.482 351.256 258.479 347.022 268.373C342.789 278.267 341.579 288.31 341.579 288.31C341.579 288.31 348.232 238.241 361.538 210.209C374.844 182.326 377.263 165.236 384.52 150.695C391.627 136.154 395.558 109.92 388.905 102.575C387.696 95.8293 374.088 86.3851 362.445 99.5771C350.802 112.769 349.593 129.558 345.662 136.604C341.579 143.5 328.576 160.289 324.645 167.035C320.865 173.781 301.208 216.804 299.092 221.002C296.975 225.199 296.975 219.953 297.579 217.704C298.033 215.455 308.164 177.529 318.143 161.938C330.239 148.747 332.81 149.046 341.277 131.957C349.744 114.718 347.627 104.374 342.94 99.8771C340.521 94.4801 324.645 82.9372 312.7 99.8771C307.559 101.226 301.813 114.867 301.813 114.867L298.487 116.217C298.487 116.217 301.662 111.12 301.36 103.474C301.057 95.8293 293.951 90.8824 286.542 91.0323C278.982 91.1822 268.398 99.8771 268.398 99.8771C268.398 99.8771 258.267 103.474 252.673 109.321C250.102 102.425 242.088 96.4289 238.308 95.5295C234.528 94.63 228.934 102.575 228.027 104.824C227.12 107.072 214.57 120.414 206.556 137.653C198.542 154.893 191.738 168.085 188.412 173.481C185.085 178.878 182.969 179.777 180.549 194.618C178.13 209.609 174.804 203.613 173.292 221.452C171.78 239.291 155.752 259.078 156.811 282.014C157.869 304.95 154.089 316.343 154.089 325.937C154.089 335.531 153.787 364.913 148.192 388.598C142.598 412.284 124 439.567 124 439.567H289.415V439.867Z" fill="#E0E1E2"/>
<path d="M289.415 439.867C296.672 432.971 297.731 429.373 315.573 414.982C333.414 400.591 351.105 375.856 366.679 360.416C382.252 344.975 385.276 340.778 386.94 323.239C388.452 305.7 398.733 276.468 403.421 262.976C408.108 249.484 397.826 225.049 397.826 225.049C397.826 225.049 403.572 209.759 402.362 190.421C393.139 182.626 372.878 188.472 360.631 216.804C348.383 245.137 357.002 252.482 357.002 252.482C357.002 252.482 351.256 258.479 347.022 268.373C342.789 278.267 341.579 288.31 341.579 288.31C341.579 288.31 348.232 238.241 361.538 210.209C374.844 182.326 377.263 165.236 384.52 150.695C391.627 136.154 395.558 109.92 388.905 102.575C387.696 95.8293 374.088 86.3851 362.445 99.5771C350.802 112.769 349.593 129.558 345.662 136.604C341.579 143.5 328.576 160.289 324.645 167.035C320.865 173.781 301.208 216.804 299.092 221.002C296.975 225.199 296.975 219.953 297.579 217.704C298.033 215.455 308.164 177.529 318.143 161.938C330.239 148.747 332.81 149.046 341.277 131.957C349.744 114.718 347.627 104.374 342.94 99.8771C340.521 94.4801 324.645 82.9372 312.7 99.8771C307.559 101.226 301.813 114.867 301.813 114.867L298.487 116.217C298.487 116.217 301.662 111.12 301.36 103.474C301.057 95.8293 293.951 90.8824 286.542 91.0323C278.982 91.1822 268.398 99.8771 268.398 99.8771C268.398 99.8771 258.267 103.474 252.673 109.321C251.614 106.922 250.707 103.175 246.927 100.177C244.357 97.1781 240.274 95.9792 238.308 95.5295C234.528 94.63 228.934 102.575 228.027 104.824C227.12 107.072 214.57 120.414 206.556 137.653C198.542 154.893 191.738 168.085 188.412 173.481C185.085 178.878 182.969 179.777 180.549 194.618C178.13 209.609 174.804 203.613 173.292 221.452C171.78 239.291 155.752 259.078 156.811 282.014C157.869 304.95 154.089 316.343 154.089 325.937C154.089 335.531 153.787 364.913 148.192 388.598C142.598 412.284 124 439.567 124 439.567" stroke="#75819C" stroke-width="2" stroke-miterlimit="10"/>
<path d="M297.429 222.2C297.731 216.803 308.164 177.527 318.143 162.087C330.239 148.895 332.81 149.195 341.277 132.105C349.744 114.866 347.628 104.522 342.94 100.025C340.521 94.6286 324.645 83.0858 312.7 100.025C307.559 101.374 301.814 115.016 301.814 115.016" stroke="#F69AED" stroke-width="3" stroke-miterlimit="10" stroke-linecap="round"/>
<path d="M191.284 228.048C196.274 221.152 198.844 213.207 200.507 198.816C202.171 184.275 205.195 154.443 208.521 147.248C211.848 140.052 221.071 135.705 225.153 132.407C229.085 129.109 234.528 121.014 240.425 118.615C246.17 116.217 254.033 107.822 254.033 107.822" stroke="#75819C" stroke-width="2" stroke-miterlimit="10"/>
<path d="M230.899 223.548C237.401 218.751 244.205 200.312 252.824 173.779C261.442 147.245 267.037 134.353 277.016 130.755C286.995 127.157 292.741 115.165 316.631 116.664" stroke="#F69AED" stroke-width="3" stroke-miterlimit="10" stroke-linecap="round"/>
<g opacity="0.5">
<path d="M312.549 104.673C313.759 105.272 315.12 105.422 316.481 105.722C317.841 105.872 319.202 106.172 320.412 106.322C323.133 106.622 325.704 106.921 328.425 107.071C331.147 107.221 333.869 107.371 336.439 107.221C337.649 107.071 339.01 106.622 339.917 105.872C340.975 105.122 341.58 103.923 341.731 102.574C341.882 103.923 341.429 105.422 340.37 106.472C339.312 107.521 337.951 108.121 336.59 108.42C333.718 108.87 330.996 108.87 328.274 108.72C325.553 108.57 322.831 108.121 320.109 107.671C318.749 107.371 317.388 107.071 316.178 106.771C315.573 106.622 314.817 106.322 314.213 106.022C313.608 105.572 313.003 105.272 312.549 104.673Z" fill="#75819C"/>
</g>
<g opacity="0.5">
<path d="M398.129 191.77C395.558 193.719 392.988 195.368 391.324 198.066C389.661 200.615 388.905 203.613 388.603 206.611C388.3 209.609 388.603 212.607 389.359 215.606C389.812 217.105 390.417 218.454 391.173 219.803C391.929 221.152 392.836 222.351 393.895 223.551C391.324 221.752 389.359 218.904 388.149 215.905C387.544 214.406 387.242 212.757 386.94 211.258C386.788 209.609 386.788 207.96 386.94 206.461C387.242 203.313 388.149 200.015 390.266 197.467C391.324 196.118 392.534 195.068 393.744 194.169C395.256 193.269 396.768 192.52 398.129 191.77Z" fill="#75819C"/>
</g>
</svg>
