<svg width="850" height="500" viewBox="0 0 850 500" fill="none" xmlns="http://www.w3.org/2000/svg">
<path opacity="0.33" d="M593.206 416.614C588.634 407.747 584.616 400.404 581.429 395.001C572.701 379.899 568.544 374.358 565.773 371.171C560.231 364.659 555.382 360.78 552.334 358.425C550.81 357.316 549.979 356.762 544.437 353.16C525.317 340.829 521.854 339.582 518.113 337.504C517.42 337.088 512.294 334.456 507.445 331.685C500.379 327.806 500.517 327.528 492.343 322.956C486.94 319.908 484.169 318.246 480.844 316.583C475.579 313.951 473.916 313.397 469.76 310.903C465.326 308.27 463.11 307.023 461.031 304.53C458.122 301.204 456.875 297.741 455.905 295.247C454.104 290.259 453.827 286.241 453.688 284.994C453.134 278.067 449.948 271.14 447.177 259.086C446.899 257.701 446.761 256.869 446.345 255.622C444.96 251.05 443.574 250.08 441.635 245.508C439.972 241.629 439.279 238.027 438.725 235.949C438.171 233.316 438.171 232.762 437.617 230.13C436.647 226.389 435.816 224.449 435.123 222.648C434.707 221.54 433.876 218.492 434.015 210.179C434.292 198.541 436.37 185.933 437.201 181.915C436.508 179.421 435.816 176.927 435.123 174.433C433.183 167.645 431.105 160.994 429.027 154.621C429.997 153.79 431.659 152.82 433.599 151.712C436.37 150.326 440.111 148.387 444.96 148.664C449.393 148.941 452.718 150.88 454.658 152.266C454.104 150.326 453.411 147.832 452.857 144.784C452.718 143.676 452.164 140.628 452.026 137.58C451.887 133.839 451.749 128.297 454.658 122.755C455.628 120.816 457.983 117.213 462.832 114.165C463.11 112.226 463.802 109.593 465.326 106.545C466.296 104.606 467.959 101.419 471.422 98.5095C472.946 97.2625 475.856 94.9072 480.151 94.0759C484.723 93.2447 488.602 94.353 490.68 95.0458C491.789 95.3229 492.62 95.7385 493.174 96.0156C493.174 93.9374 493.59 90.1966 496.084 86.5944C497.331 84.7933 498.578 83.8234 500.379 82.438C502.873 80.4983 505.644 78.6972 510.354 76.4804C516.589 73.5709 519.637 72.1854 522.546 71.9083C523.516 71.7698 528.92 71.4927 534.739 74.8178C538.618 77.0346 540.973 79.9441 542.22 81.6067C534.046 64.7039 528.088 52.9273 524.625 46.9698C524.348 46.4156 522.269 42.8134 520.884 37.5486C519.498 32.2838 520.053 29.5128 520.33 28.2659C520.884 25.6335 521.992 23.6938 522.824 22.5854C522.824 21.8927 522.824 20.3687 523.516 18.8447C524.486 16.7664 525.872 15.7966 526.426 15.381C528.227 14.134 529.889 13.9955 531.968 13.7184C534.323 13.4413 537.925 13.1642 541.805 14.9653C543.051 15.5195 544.298 16.6279 547.069 18.9832C550.256 21.6156 551.78 23.0011 553.443 24.9407C554.551 26.3262 556.213 28.6815 557.46 32.0067C558.569 33.115 560.093 34.6391 561.34 36.7173C562.864 39.2111 563.557 41.5664 563.972 43.0905C565.635 46.2771 567.713 49.7407 570.068 53.343C572.562 57.2223 574.64 59.8547 575.472 60.8245C578.52 64.8424 582.815 71.3542 588.079 81.7452C586.971 75.9262 585.863 69.9687 584.893 64.1497C583.092 59.0234 581.845 54.5899 580.875 51.1262C578.935 44.1988 577.965 39.3497 577.688 37.6871C576.441 31.4525 575.887 28.1273 576.164 24.9407C576.441 21.6156 576.857 16.6279 580.736 12.8871C583.092 10.5318 585.863 9.70052 587.387 9.28488C589.326 8.73069 593.206 7.48376 597.224 9.00779C600.687 10.2547 602.627 12.8871 605.536 17.1821C607.892 20.5072 609.139 23.2782 610.663 26.6033C611.355 28.2659 612.325 30.3441 615.373 39.6268C617.036 44.6145 618.006 47.2469 618.283 48.0782C620.361 55.4212 620.222 58.0536 622.439 66.505C623.132 68.8603 622.993 68.5832 624.379 73.0167C627.565 83.8234 629.644 92.5519 632.138 102.804C633.246 107.515 633.8 109.732 634.077 111.117C635.878 119.569 636.155 124.141 638.234 136.749C638.372 137.58 638.372 139.935 639.203 142.706C639.896 145.061 640.866 146.724 641.282 147.555C641.836 148.664 643.36 152.266 646.269 159.332C649.179 166.398 650.564 169.861 651.396 172.217C654.028 180.53 655.552 189.535 655.829 191.752C656.106 193.83 656.66 196.878 657.907 200.758C659.016 203.806 659.986 205.607 660.955 207.546C662.757 211.287 663.726 214.612 665.805 221.124C667.19 225.835 669.684 233.593 671.762 244.261C673.84 254.237 673.425 256.315 676.196 268.646C676.888 272.109 677.581 275.019 678.274 278.067C680.214 286.518 681.322 291.229 682.846 296.494C685.201 305.084 687.695 311.457 691.851 322.679C692.406 324.203 693.791 328.083 695.869 333.07C699.749 343.184 702.797 350.25 708.339 362.72C713.603 374.912 716.236 381.008 720.254 389.459C721.501 392.23 723.025 395.278 725.796 401.374C728.844 407.886 731.337 413.151 732.862 416.753C686.448 416.615 639.896 416.614 593.206 416.614Z" fill="#E0E1E2"/>
<path d="M588.218 81.4679C587.11 75.6489 586.002 69.6913 585.032 63.8723C583.231 58.7461 581.984 54.3126 581.014 50.8489C579.074 43.9215 578.104 39.0723 577.827 37.4098C576.58 31.1751 576.026 27.85 576.303 24.6634C576.58 21.3383 576.996 16.3506 580.875 12.6098C583.231 10.2545 586.002 9.42318 587.526 9.00754C589.465 8.45335 593.345 7.20642 597.363 8.73044C600.826 9.97737 602.766 12.6098 605.675 16.9047C608.031 20.2299 609.278 23.0008 610.802 26.326C611.494 27.9885 612.464 30.0668 615.512 39.3494C617.175 44.3371 618.145 46.9696 618.422 47.8008C620.5 55.1439 620.361 57.7763 622.578 66.2277C623.271 68.583 623.132 68.3059 624.518 72.7394C627.704 83.5461 629.783 92.2746 632.277 102.527C633.385 107.238 633.939 109.454 634.216 110.84C636.017 119.291 636.294 123.863 638.373 136.471C638.511 137.303 638.511 139.658 639.342 142.429C640.035 144.784 641.005 146.447 641.421 147.278C641.975 148.386 643.499 151.989 646.408 159.054C649.318 166.12 650.703 169.584 651.535 171.939C654.167 180.252 655.691 189.258 655.968 191.475C656.245 193.553 656.799 196.601 658.046 200.48C659.155 203.528 660.125 205.329 661.094 207.269C662.895 211.01 663.865 214.335 665.944 220.847C667.329 225.557 669.823 233.316 671.901 243.984C673.979 253.959 673.564 256.038 676.335 268.368C677.027 271.832 677.72 274.742 678.413 277.79C680.352 286.241 681.461 290.952 682.985 296.216C685.34 304.806 687.834 311.18 691.99 322.402C692.545 323.926 693.93 327.805 696.008 332.793C699.888 342.907 702.936 349.973 708.478 362.442C713.742 374.634 716.375 380.73 720.393 389.182C721.64 391.953 723.164 395.001 725.935 401.097C728.983 407.609 731.477 412.873 733.001 416.476" stroke="#808285" stroke-width="2" stroke-miterlimit="10"/>
<path d="M521.299 173.465C516.866 162.381 512.987 152.683 509.8 144.647C506.752 137.027 504.119 129.268 500.794 121.786C500.379 120.817 495.391 108.347 494.144 96.0166" stroke="#808285" stroke-width="2" stroke-miterlimit="10"/>
<path d="M483.06 237.611C480.567 230.268 479.181 224.033 478.488 219.738C477.519 214.196 477.241 210.456 475.302 203.251C474.609 200.757 473.916 197.848 472.531 194.107C470.868 189.396 469.898 188.288 467.543 182.608C465.881 178.728 464.911 175.819 463.387 171.385C460.754 163.904 460.339 161.825 458.26 157.808C456.736 154.759 455.212 152.543 454.104 151.157" stroke="#808285" stroke-width="2" stroke-miterlimit="10"/>
<path d="M608.862 141.596C606.229 134.115 604.151 127.741 602.488 122.892C601.519 119.983 600.41 116.519 599.025 111.947C596.254 103.08 595.7 100.725 594.314 96.2912C590.989 85.4845 578.658 64.7024 575.61 60.6845C574.779 59.5761 572.701 56.9437 570.207 53.2029C567.852 49.6007 565.635 46.2756 564.111 42.9504C562.31 39.2096 561.201 35.4688 557.599 31.8666C556.352 28.5415 554.828 26.3247 553.581 24.8007C552.057 22.861 550.395 21.4755 547.208 18.8431C544.437 16.6264 543.052 15.3795 541.943 14.8253C538.064 13.0241 534.462 13.3012 532.106 13.5783C530.028 13.7169 523.932 16.2107 522.824 22.4454C522.547 23.8309 520.884 25.4934 520.33 28.1258C520.053 29.3728 519.637 32.1437 520.884 37.4085C522.269 42.6733 524.348 46.2755 524.625 46.8297C528.088 52.7873 531.829 60.823 540.004 77.7258" stroke="#2969D0" stroke-width="3" stroke-miterlimit="10" stroke-linecap="round"/>
<path d="M563.972 140.905C561.756 131.483 559.262 123.032 556.768 115.828C554.828 110.286 551.642 101.419 546.654 90.7505C544.576 86.317 542.082 78.4198 534.877 74.679C529.058 71.631 523.655 71.7695 522.685 71.7695C519.776 72.0466 516.728 73.4321 510.493 76.3416C505.782 78.5583 503.011 80.3594 500.517 82.2991C498.716 83.6846 497.469 84.793 496.223 86.4555C493.729 89.9192 494.144 93.9371 494.006 96.0153C493.452 95.7382 491.928 95.184 490.819 94.9069C488.741 94.3528 484.862 93.1058 480.29 93.9371C475.995 94.7684 473.085 97.1237 471.561 98.3706C468.097 101.28 466.435 104.467 465.465 106.406C463.941 109.454 463.248 112.087 462.971 114.027C458.122 117.075 455.905 120.815 454.797 122.616C451.887 128.158 452.026 133.562 452.164 137.441C452.303 140.489 452.857 143.676 452.996 144.645C453.55 147.694 454.243 150.326 454.797 152.127C452.857 150.742 449.532 148.802 445.098 148.525C440.249 148.248 436.37 150.187 433.738 151.573C431.659 152.543 430.135 153.651 429.166 154.482C431.244 160.856 433.322 167.367 435.262 174.295C435.954 176.789 436.647 179.282 437.34 181.776C436.647 185.794 434.43 198.402 434.153 210.04C434.015 218.491 434.985 221.539 435.262 222.509C435.816 224.31 436.786 226.389 437.755 229.991C438.448 232.623 438.31 233.177 438.864 235.81C439.279 237.888 440.111 241.49 441.773 245.37C443.713 249.942 445.237 250.911 446.484 255.484C446.9 256.869 446.9 257.562 447.315 258.947C450.225 271.139 453.273 277.928 453.827 284.856C453.966 286.102 454.243 290.12 456.044 295.108C457.014 297.602 458.261 301.066 461.17 304.391C463.387 306.885 465.604 308.132 469.898 310.764C474.055 313.258 475.717 313.812 480.982 316.444C484.307 318.107 486.94 319.631 492.482 322.818C500.656 327.39 500.517 327.667 507.583 331.546C512.433 334.317 517.559 336.949 518.252 337.365C522.131 339.443 525.456 340.69 544.576 353.021C549.979 356.485 550.81 357.039 552.473 358.286C555.659 360.641 560.37 364.52 565.912 371.032C568.683 374.219 572.978 379.761 581.568 394.862C584.616 400.266 588.772 407.609 593.344 416.476" stroke="#808285" stroke-width="2" stroke-miterlimit="10"/>
<g opacity="0.5">
<path d="M434.846 154.621C435.677 154.898 436.508 155.314 437.34 155.591V155.729C438.309 157.531 439.279 159.47 439.972 161.41C440.803 163.35 441.496 165.289 441.912 167.367C442.327 169.446 442.466 171.662 442.189 173.741C441.912 175.819 441.08 177.897 439.972 179.56C440.665 177.62 441.08 175.542 441.219 173.602C441.357 171.524 441.08 169.584 440.665 167.645C440.249 165.705 439.556 163.765 438.864 161.826C438.171 159.886 437.478 157.946 436.924 156.007L437.062 156.145C436.231 155.729 435.538 155.175 434.846 154.621Z" fill="#AEB0B2"/>
</g>
<g opacity="0.5">
<path d="M525.733 25.7714C527.118 27.8496 528.504 29.7892 530.166 31.5904C530.998 32.4217 531.829 33.3915 532.66 34.2228C533.076 34.4999 533.63 34.777 534.046 34.777C534.046 34.777 534.323 34.777 534.6 34.6384L535.431 34.2228C537.648 33.1144 540.003 32.1446 542.359 31.4518C544.714 30.7591 547.208 30.3434 549.702 30.2049H549.425C549.563 30.0663 549.563 30.0663 549.563 29.9278C549.563 29.7893 549.563 29.5122 549.563 29.2351C549.425 28.6809 549.147 28.1267 548.87 27.711C548.316 26.7412 547.623 25.6328 546.931 24.663C545.407 22.7233 543.883 20.7837 542.22 19.1211C543.19 19.8138 544.16 20.6451 544.991 21.4764C545.822 22.3077 546.792 23.139 547.485 24.1088C548.316 25.0786 549.009 26.0485 549.702 27.0183C549.979 27.5725 550.394 28.1267 550.533 28.8194C550.671 29.0965 550.671 29.5122 550.671 29.9278C550.671 30.3434 550.256 30.8976 549.84 31.0362H549.702H549.563C547.208 31.3133 544.714 31.7289 542.497 32.4216C540.142 33.1144 537.925 34.0842 535.708 35.0541L534.877 35.4697C534.6 35.6082 534.184 35.7468 533.63 35.7468C532.937 35.6082 532.245 35.3312 531.69 34.777C530.721 33.8071 530.028 32.8373 529.197 31.8675C527.95 30.2049 526.703 27.9881 525.733 25.7714Z" fill="#AEB0B2"/>
</g>
<path opacity="0.33" d="M314.324 418.831C316.125 416.614 323.884 408.578 332.335 400.127C340.787 391.676 358.105 361.888 363.231 355.93C368.358 349.973 381.935 335.287 385.26 327.944C388.585 320.601 384.983 297.048 385.26 289.705C385.537 282.362 389.001 247.309 386.646 238.165C384.29 229.021 380.55 225.28 377.502 218.907C374.454 212.534 373.899 210.594 371.128 208.654C368.358 206.715 370.02 190.089 370.574 187.734C371.128 185.378 373.068 174.71 373.068 170.969C373.068 167.229 373.068 156.56 375.978 148.663C378.887 140.766 376.947 117.074 371.96 109.593C366.972 102.111 362.954 100.31 356.997 99.8945C351.039 99.4789 344.527 105.298 342.865 108.9C341.202 112.502 338.985 115.828 336.492 145.2C333.028 153.097 326.378 160.024 323.468 169.584C320.559 179.144 312.8 203.251 310.999 213.226C309.198 223.202 298.945 236.779 303.102 229.436C307.258 222.232 306.842 204.498 314.601 180.945C322.36 157.392 321.39 158.916 321.39 157.669C321.39 156.422 325.962 152.127 327.486 141.874C330.396 137.164 336.076 113.749 325.546 106.96C325.408 102.111 322.221 98.7862 313.493 97.4007C304.764 96.0152 301.578 98.232 299.638 103.635C296.451 104.467 291.602 116.243 290.771 125.941C288.416 127.327 277.055 138.826 274.838 143.121C272.621 147.416 266.387 169.03 265.14 174.572C263.893 180.114 255.857 214.75 253.64 217.937C251.423 221.124 250.454 223.34 252.255 216.552C254.056 209.763 262.369 168.891 265.971 161.548C269.573 154.205 269.989 148.109 279.964 133.839C289.94 119.568 288.554 112.641 286.753 108.069C284.952 103.497 283.566 99.6175 275.115 98.232C266.664 96.8465 261.815 103.912 261.815 103.912C261.815 103.912 256.688 105.436 244.358 118.737C241.725 113.611 238.123 109.731 238.123 109.731C238.123 109.731 235.491 104.19 228.009 103.081C220.527 101.973 217.479 110.009 217.064 112.918C214.57 112.918 209.444 124.417 207.642 135.917C205.841 147.555 202.932 164.181 199.884 174.017C196.836 183.854 194.896 192.029 194.203 199.233C193.511 206.438 189.631 216.552 188.939 225.973C188.246 235.394 177.301 262.411 176.746 271.001C176.054 279.591 176.469 308.963 175.638 315.752C174.807 322.54 173.56 345.401 175.638 358.563C177.716 371.586 176.746 383.64 174.53 390.152C172.313 396.663 164 418.277 164 418.277H314.324V418.831Z" fill="#E0E1E2"/>
<path d="M314.324 418.831C316.125 416.614 323.884 408.578 332.335 400.127C340.787 391.676 358.105 361.888 363.231 355.93C368.358 349.973 381.935 335.287 385.26 327.944C388.585 320.601 384.983 297.048 385.26 289.705C385.537 282.362 389.001 247.309 386.646 238.165C384.29 229.021 380.55 225.28 377.502 218.907C374.454 212.534 373.899 210.594 371.128 208.654C368.358 206.715 370.02 190.089 370.574 187.734C371.128 185.378 373.068 174.71 373.068 170.969C373.068 167.229 373.068 156.56 375.978 148.663C378.887 140.766 376.947 117.074 371.96 109.593C366.972 102.111 362.954 100.31 356.997 99.8945C351.039 99.4789 344.527 105.298 342.865 108.9C341.202 112.502 338.985 115.828 336.492 145.2C333.028 153.097 326.378 160.024 323.468 169.584C320.559 179.144 312.8 203.251 310.999 213.226C309.198 223.202 298.945 236.779 303.102 229.436C307.258 222.232 306.842 204.498 314.601 180.945C322.36 157.392 321.39 158.916 321.39 157.669C321.39 156.422 325.962 152.127 327.486 141.874C330.396 137.164 336.076 113.749 325.546 106.96C325.408 102.111 322.221 98.7862 313.493 97.4007C304.764 96.0152 301.578 98.232 299.638 103.635C296.451 104.467 291.602 116.243 290.771 125.941C288.416 127.327 277.055 138.826 274.838 143.121C272.621 147.416 266.387 169.03 265.14 174.572C263.893 180.114 255.857 214.75 253.64 217.937C251.423 221.124 250.454 223.34 252.255 216.552C254.056 209.763 262.369 168.891 265.971 161.548C269.573 154.205 269.989 148.109 279.964 133.839C289.94 119.568 288.554 112.641 286.753 108.069C284.952 103.497 283.566 99.6175 275.115 98.232C266.664 96.8465 261.815 103.912 261.815 103.912C261.815 103.912 256.688 105.436 244.358 118.737C241.725 113.611 238.123 109.731 238.123 109.731C238.123 109.731 235.491 104.19 228.009 103.081C220.527 101.973 217.479 110.009 217.064 112.918C214.57 112.918 209.444 124.417 207.642 135.917C205.841 147.555 202.932 164.181 199.884 174.017C196.836 183.854 194.896 192.029 194.203 199.233C193.511 206.438 189.631 216.552 188.939 225.973C188.246 235.394 177.301 262.411 176.746 271.001C176.054 279.591 176.469 308.963 175.638 315.752C174.807 322.54 173.56 345.401 175.638 358.563C177.716 371.586 176.746 383.64 174.53 390.152C172.313 396.663 164 418.277 164 418.277" stroke="#808285" stroke-width="2" stroke-miterlimit="10"/>
<path d="M204.179 222.37C208.059 218.214 211.245 211.841 211.522 205.19C211.799 198.54 211.107 164.042 219.835 150.88C228.564 137.718 244.497 119.291 244.497 119.291" stroke="#808285" stroke-width="2" stroke-miterlimit="10"/>
<path d="M358.936 303.144C356.996 299.542 354.641 297.187 354.641 294.416C354.641 291.645 356.165 259.918 357.828 248.557C359.352 237.196 367.11 204.36 369.743 197.571" stroke="#808285" stroke-width="2" stroke-miterlimit="10"/>
</svg>
