<svg width="900" height="500" viewBox="0 0 900 500" fill="none" xmlns="http://www.w3.org/2000/svg">
<path opacity="0.33" d="M512.283 419.258C501.388 408.582 492.069 399.592 484.471 392.287C473.432 381.611 467.841 376.273 466.407 375.009C458.952 368.828 453.934 366.018 448.343 358.573C446.336 356.045 443.469 352.252 441.462 346.493C439.598 341.435 439.311 337.783 438.594 328.793C437.734 318.819 437.304 313.762 436.874 309.267C435.584 297.046 434.724 290.162 432.143 281.172C430.853 276.958 429.849 274.289 428.989 269.091C428.272 264.877 427.412 259.82 428.559 253.779C429.132 250.83 429.706 249.987 431.283 244.649C433.003 238.889 434.15 234.113 434.867 231.023C434.007 228.494 433.003 224.982 432 220.628C431.139 217.256 430.566 214.868 430.136 211.778C429.706 208.687 429.276 204.192 429.419 198.714C430.566 198.433 431.569 198.011 432.716 197.73C433.863 197.309 435.727 196.606 438.021 196.185C439.885 195.904 446.193 194.78 451.354 198.011C452.501 198.714 452.787 199.275 455.511 202.366C462.679 210.654 462.536 209.811 464.113 212.059C468.988 218.661 470.564 225.263 471.425 229.056C472.715 234.535 472.715 238.889 472.858 243.806C472.858 248.582 472.572 252.515 472.285 255.465C471.855 256.449 471.425 257.572 470.851 258.556C471.281 259.398 471.711 260.241 472.141 261.084C473.002 262.208 473.862 263.472 474.722 264.877C477.589 269.794 478.163 274.57 478.306 277.66C478.306 281.593 479.166 284.262 479.883 285.948C480.457 287.212 481.03 288.055 484.614 293.253C486.048 295.219 487.195 296.905 488.055 298.169C488.485 295.641 489.058 291.848 489.489 287.353C489.919 282.717 490.062 277.098 489.202 263.472C488.772 256.589 488.485 250.97 487.625 242.682C485.904 226.668 484.471 221.189 483.037 210.654C481.03 194.921 480.17 185.649 481.604 173.99C481.89 171.181 482.607 167.107 483.181 160.224C483.897 151.795 483.754 149.407 484.327 142.524C485.188 130.864 485.618 124.965 487.912 118.081C490.205 110.777 492.643 103.332 499.667 100.101C504.112 97.9935 508.556 98.4149 509.273 98.5554C514.864 99.2578 518.448 102.489 519.452 103.472C522.606 106.422 523.896 109.653 524.613 111.9C526.046 115.974 526.476 119.767 526.046 127.353C525.473 136.343 524.613 137.888 524.039 144.771C523.179 154.324 524.039 161.769 524.613 166.124C525.616 174.131 526.476 174.692 529.057 187.757C530.204 193.656 530.921 198.573 532.354 208.406C533.358 215.43 534.648 224.561 535.938 235.518C537.515 235.518 539.092 235.377 540.669 235.377C539.809 229.899 538.519 222.173 537.085 212.621C534.792 197.59 533.645 190.004 533.071 180.592C532.211 167.809 531.781 159.943 533.645 151.795C534.075 150.109 534.935 146.457 535.508 141.26C536.225 135.36 535.652 134.798 536.225 129.179C537.085 120.048 539.379 114.289 539.953 112.743C541.53 108.81 542.533 106.281 545.114 103.753C546.404 102.348 549.988 98.9768 555.723 98.134C561.314 97.4316 565.615 99.6792 566.905 100.522C571.493 103.051 573.643 106.843 574.36 108.248C575.937 111.058 576.224 113.446 576.797 116.817C577.514 121.874 577.371 125.807 577.227 127.212C576.941 133.814 577.371 140.417 577.371 146.879C577.227 159.24 578.804 170.338 580.955 185.93C582.245 195.764 584.252 207.704 587.263 221.189C589.7 222.032 592.28 222.875 594.718 223.718C596.295 219.785 598.302 213.885 599.449 206.58C600.452 199.697 600.309 194.499 599.879 185.649C599.305 173.288 597.872 164.016 597.442 161.769C595.865 151.936 594.718 145.333 591.85 136.624C590.56 132.691 588.696 127.774 587.836 120.61C587.263 115.272 587.549 111.76 588.84 108.529C589.7 106.281 590.99 102.91 594.431 100.803C600.596 97.1506 608.337 101.084 609.054 101.505C612.208 103.191 613.785 105.439 617.082 109.793C620.953 114.991 623.247 119.627 623.964 121.172C625.828 124.965 626.401 126.931 630.989 142.243C634.573 154.043 636.437 159.943 637.01 161.347C637.727 162.893 639.017 165.843 640.021 170.057C641.024 174.131 641.168 177.221 641.168 179.047C641.598 191.83 641.741 198.292 641.598 202.787C641.311 211.216 640.594 222.594 638.874 236.642C639.734 236.782 640.881 237.063 642.314 237.063C643.748 237.063 645.468 236.923 647.189 236.22C649.483 235.377 651.06 234.113 653.353 231.865C658.371 226.949 661.238 222.173 661.525 221.751C663.962 217.818 667.977 212.34 674.285 205.878C676.292 201.523 678.586 196.887 681.166 192.111C684.033 186.773 687.044 181.857 689.911 177.361C689.911 175.957 689.911 173.85 690.055 171.181C690.341 163.174 690.341 159.24 690.915 156.431C691.632 153.2 693.065 145.895 699.23 140.979C701.094 139.433 706.398 135.079 713.566 136.062C719.874 136.905 723.602 141.4 724.462 142.664C724.605 146.457 724.605 150.39 724.749 154.324C724.892 161.066 724.892 167.809 724.749 174.412C724.462 176.238 724.175 178.064 723.889 179.89C720.878 193.516 713.423 215.149 708.405 226.949C705.538 233.692 700.664 244.227 694.929 253.499C693.209 256.168 691.918 258.275 691.918 258.275C686.614 266.141 684.32 268.108 681.309 273.024C678.299 277.941 676.722 282.296 676.148 284.122C672.994 293.815 675.432 296.624 671.991 305.334C671.417 306.879 670.27 309.407 669.554 313.2C668.98 316.431 668.98 318.819 668.98 320.364C668.98 331.181 669.697 336.659 669.697 344.807C669.697 346.633 669.554 349.162 669.267 354.219C668.693 363.63 668.407 368.407 667.69 373.885C666.543 382.454 665.683 382.173 665.109 388.775C664.679 393.411 664.249 398.047 665.396 403.947C666.113 407.599 667.546 413.218 671.704 419.68C618.229 419.399 565.328 419.258 512.283 419.258Z" fill="#697695"/>
<path d="M512.283 419.258C501.388 408.582 492.069 399.592 484.471 392.287C473.432 381.611 467.841 376.273 466.407 375.009C458.952 368.828 453.934 366.018 448.343 358.573C446.336 356.045 443.469 352.252 441.462 346.493C439.598 341.435 439.311 337.783 438.594 328.793C437.734 318.819 437.304 313.762 436.874 309.267C435.584 297.046 434.724 290.162 432.143 281.172C430.853 276.958 429.849 274.289 428.989 269.091C428.272 264.877 427.412 259.82 428.559 253.779C429.132 250.83 429.706 249.987 431.283 244.649C433.003 238.889 434.15 234.113 434.867 231.023C434.007 228.494 433.003 224.982 432 220.628C431.139 217.256 430.566 214.868 430.136 211.778C429.706 208.687 429.276 204.192 429.419 198.714C430.566 198.433 431.569 198.011 432.716 197.73C433.863 197.309 435.727 196.606 438.021 196.185C439.885 195.904 446.193 194.78 451.354 198.011C452.501 198.714 452.787 199.275 455.511 202.366C462.679 210.654 462.536 209.811 464.113 212.059C468.988 218.661 470.564 225.263 471.425 229.056C472.715 234.535 472.715 238.889 472.858 243.806C472.858 248.582 472.572 252.515 472.285 255.465C471.855 256.449 471.425 257.572 470.851 258.556C471.281 259.398 471.711 260.241 472.141 261.084C473.002 262.208 473.862 263.472 474.722 264.877C477.589 269.794 478.163 274.57 478.306 277.66C478.306 281.593 479.166 284.262 479.883 285.948C480.457 287.212 481.03 288.055 484.614 293.253C486.048 295.219 487.195 296.905 488.055 298.169C488.485 295.641 489.058 291.848 489.489 287.353C489.919 282.717 490.062 277.098 489.202 263.472C488.772 256.589 488.485 250.97 487.625 242.682C485.904 226.668 484.471 221.189 483.037 210.654C481.03 194.921 480.17 185.649 481.604 173.99C481.89 171.181 482.607 167.107 483.181 160.224C483.897 151.795 483.754 149.407 484.327 142.524C485.188 130.864 485.618 124.965 487.912 118.081C490.205 110.777 492.643 103.332 499.667 100.101C504.112 97.9935 508.556 98.4149 509.273 98.5554C514.864 99.2578 518.448 102.489 519.452 103.472C522.606 106.422 523.896 109.653 524.613 111.9C526.046 115.974 526.476 119.767 526.046 127.353C525.473 136.343 524.613 137.888 524.039 144.771C523.179 154.324 524.039 161.769 524.613 166.124C525.616 174.131 526.476 174.692 529.057 187.757C530.204 193.656 530.921 198.573 532.354 208.406C533.358 215.43 534.648 224.561 535.938 235.518C537.515 235.518 539.092 235.377 540.669 235.377C539.809 229.899 538.519 222.173 537.085 212.621C534.792 197.59 533.645 190.004 533.071 180.592C532.211 167.809 531.781 159.943 533.645 151.795C534.075 150.109 534.935 146.457 535.508 141.26C536.225 135.36 535.652 134.798 536.225 129.179C537.085 120.048 539.379 114.289 539.953 112.743C541.53 108.81 542.533 106.281 545.114 103.753C546.404 102.348 549.988 98.9768 555.723 98.134C561.314 97.4316 565.615 99.6792 566.905 100.522C571.493 103.051 573.643 106.843 574.36 108.248C575.937 111.058 576.224 113.446 576.797 116.817C577.514 121.874 577.371 125.807 577.227 127.212C576.941 133.814 577.371 140.417 577.371 146.879C577.227 159.24 578.804 170.338 580.955 185.93C582.245 195.764 584.252 207.704 587.263 221.189C589.7 222.032 592.28 222.875 594.718 223.718C596.295 219.785 598.302 213.885 599.449 206.58C600.452 199.697 600.309 194.499 599.879 185.649C599.305 173.288 597.872 164.016 597.442 161.769C595.865 151.936 594.718 145.333 591.85 136.624C590.56 132.691 588.696 127.774 587.836 120.61C587.263 115.272 587.549 111.76 588.84 108.529C589.7 106.281 590.99 102.91 594.431 100.803C600.596 97.1506 608.337 101.084 609.054 101.505C612.208 103.191 613.785 105.439 617.082 109.793C620.953 114.991 623.247 119.627 623.964 121.172C625.828 124.965 626.401 126.931 630.989 142.243C634.573 154.043 636.436 159.943 637.01 161.347C637.727 162.893 639.017 165.843 640.021 170.057C641.024 174.131 641.168 177.221 641.168 179.047C641.598 191.83 641.741 198.292 641.598 202.787C641.311 211.216 640.594 222.594 638.874 236.642C639.734 236.782 640.881 237.063 642.314 237.063" stroke="#445272" stroke-width="2" stroke-miterlimit="10"/>
<path d="M681.167 272.744C678.156 277.661 676.579 282.015 676.006 283.842C672.852 293.534 675.289 296.344 671.848 305.053C671.275 306.598 670.128 309.127 669.411 312.92C668.838 316.151 668.838 318.539 668.838 320.084C668.838 330.901 669.554 336.379 669.554 344.527C669.554 346.353 669.411 348.881 669.124 353.938C668.551 363.35 668.264 368.126 667.547 373.605C666.4 382.174 665.54 381.893 664.967 388.495C664.537 393.131 664.107 397.766 665.254 403.666C665.97 407.319 667.404 412.937 671.562 419.399" stroke="#445272" stroke-width="2" stroke-miterlimit="10"/>
<path d="M642.458 236.783C643.892 236.783 645.612 236.642 647.332 235.94C649.626 235.097 651.203 233.833 653.497 231.585C658.515 226.669 661.382 221.892 661.669 221.471C664.106 217.538 668.12 212.059 674.428 205.597C676.435 201.243 678.729 196.607 681.31 191.831C684.177 186.493 687.188 181.576 690.055 177.081C690.055 175.676 690.055 173.569 690.198 170.9C690.485 162.893 690.485 158.96 691.058 156.15C691.775 152.92 693.209 145.615 699.373 140.698C701.237 139.153 706.542 134.798 713.71 135.782C720.018 136.625 723.745 141.12 724.606 142.384C724.749 146.177 724.749 150.11 724.892 154.043C725.036 160.786 725.036 167.529 724.892 174.131C724.606 175.957 724.319 177.783 724.032 179.61C721.021 193.236 713.567 214.869 708.549 226.669C705.681 233.411 700.807 243.947 695.073 253.218C693.352 255.887 692.062 257.994 692.062 257.994C686.757 265.861 684.464 267.828 681.453 272.744" stroke="#BA6DCD" stroke-width="3" stroke-miterlimit="10" stroke-linecap="round"/>
<g opacity="0.5">
<path d="M708.119 141.119C708.119 143.507 708.119 146.036 708.119 148.424C708.262 150.812 708.405 153.2 708.835 155.588C708.979 156.15 709.122 156.712 709.266 157.274C709.409 157.836 709.552 158.257 709.982 158.678C710.699 159.521 711.703 160.083 712.706 160.645C714.857 161.769 717.151 162.471 719.588 162.752C717.151 163.033 714.57 162.612 712.133 161.628C710.986 161.207 709.839 160.505 708.835 159.521C708.405 159.1 707.975 158.257 707.832 157.695C707.689 157.133 707.545 156.431 707.402 155.869C706.972 153.481 706.828 150.952 706.972 148.564C707.115 145.895 707.545 143.367 708.119 141.119Z" fill="#B1BBD0"/>
</g>
<g opacity="0.5">
<path d="M439.024 228.214C440.027 227.371 440.601 226.388 440.887 225.264C441.174 224.14 441.174 223.016 441.174 221.893C441.174 220.769 441.031 219.505 440.887 218.381L440.6 214.869C440.457 212.481 440.314 210.093 439.74 207.845C439.454 206.721 439.167 205.598 438.593 204.474C438.163 203.491 437.447 202.507 436.156 201.945C437.447 202.086 438.45 203.069 439.167 204.052C439.884 205.176 440.314 206.3 440.744 207.424C441.461 209.812 441.747 212.2 441.891 214.588C442.034 216.976 442.321 219.364 442.178 221.893C442.178 223.157 441.891 224.421 441.461 225.545C441.031 226.669 440.17 227.652 439.024 228.214Z" fill="#B1BBD0"/>
</g>
<path opacity="0.33" d="M289.285 407.873C295.252 400.55 301.084 393.769 310.171 386.717C319.257 379.664 325.631 373.968 331.327 368.137C337.023 362.305 352.213 345.488 364.961 335.724C377.709 325.823 382.185 319.72 385.575 315.109C389.508 309.684 387.338 293.681 395.611 275.779C404.02 257.878 403.07 252.995 403.07 252.995C403.07 252.995 408.36 247.57 408.902 241.061C409.445 234.551 409.038 217.327 413.242 213.259L410.394 210.411C410.394 210.411 421.515 190.746 422.735 178.947C418.396 173.657 398.459 172.301 382.727 192.102C367.131 211.902 367.538 221.396 368.623 229.262C364.554 231.974 362.52 239.162 359.672 245.672C356.824 252.182 354.654 257.742 354.79 259.098C353.433 259.234 346.652 266.422 344.483 271.982C342.313 277.543 345.432 244.722 348.958 229.533C352.484 214.479 366.724 181.659 369.165 174.2C371.607 166.741 372.827 156.705 374.183 150.466C375.404 144.228 381.371 135.141 382.049 130.259C382.727 125.241 383.541 105.847 378.523 101.508C373.505 97.1677 370.115 96.3539 361.842 96.3539C353.569 96.3539 343.398 117.375 343.94 127.953C341.228 131.208 333.633 142.872 331.056 147.89C328.479 152.908 310.713 190.067 306.373 205.257C305.424 207.156 298.779 206.884 298.372 205.257C297.965 203.629 305.153 175.692 308.408 166.876C311.662 158.061 316.138 150.195 316.409 145.72C318.172 145.313 327.123 136.904 328.615 130.123C331.327 127.818 344.347 112.764 337.702 102.457C337.023 97.5745 326.174 95.5402 320.613 96.4896C315.189 97.4389 312.341 100.694 312.341 100.694C312.341 100.694 308.543 100.694 305.56 103.949C302.576 107.204 301.084 109.645 298.372 110.323C295.659 111.001 278.029 123.071 274.231 127.682C270.434 132.158 273.146 124.292 273.146 124.292C273.146 124.292 276.672 110.187 279.656 103.271C282.64 96.3539 286.98 84.0125 286.98 78.1808C286.98 72.3492 284.538 68.6874 283.453 67.8737C282.911 66.3819 281.284 59.8721 270.841 58.5159C260.534 57.2953 258.228 68.8231 256.194 71.8067C254.159 74.7903 244.395 86.5893 242.225 99.3376C238.156 101.101 219.576 122.8 213.067 132.158C206.557 141.515 201.132 153.586 198.555 157.519C195.843 161.316 191.91 167.555 186.892 182.066C181.874 196.577 181.196 210.275 178.212 217.598C175.364 224.922 166.956 246.35 166.006 254.623C165.057 262.896 167.091 332.876 165.057 340.063C163.023 347.251 162.345 350.371 162.209 353.897C162.073 357.287 134.542 407.602 134 408.28H289.285V407.873Z" fill="#697695"/>
<path d="M134.406 407.874C134.949 407.196 162.344 357.016 162.615 353.49C162.751 350.099 163.429 346.98 165.463 339.657C167.498 332.333 165.463 262.353 166.413 254.216C167.362 245.943 175.77 224.515 178.618 217.192C181.466 209.868 182.28 196.306 187.298 181.659C192.316 167.148 196.249 160.909 198.961 157.112C201.674 153.315 206.963 141.244 213.473 131.751C219.983 122.393 238.563 100.694 242.631 98.9309C244.665 86.1826 254.566 74.3837 256.6 71.4C258.634 68.4164 260.804 56.753 271.247 58.1092C281.554 59.3298 283.317 65.9752 283.86 67.467C285.08 68.2807 287.386 72.0781 287.386 77.7742C287.386 83.6058 283.046 95.8116 280.062 102.864" stroke="#445272" stroke-width="2" stroke-miterlimit="10"/>
<path d="M236.528 210.953C239.376 208.647 243.445 205.121 245.344 202.544C247.242 199.968 253.752 186.406 254.837 177.048C255.922 167.69 259.313 156.027 263.381 146.805C267.45 137.582 271.518 131.479 274.638 127.275C277.621 123.071 296.066 110.594 298.778 109.916C301.49 109.238 302.982 106.797 305.966 103.542C308.949 100.287 312.747 100.287 312.747 100.287C312.747 100.287 315.595 97.0319 321.02 96.0826C326.445 95.1332 337.294 97.1675 338.108 102.05C344.753 112.357 331.734 127.411 329.021 129.716C327.529 136.497 318.579 144.906 316.815 145.313C316.544 149.788 312.069 157.519 308.814 166.469C305.559 175.285 298.371 203.223 298.778 204.85C299.185 206.477 305.83 206.749 306.78 204.85C311.119 189.796 328.886 152.365 331.462 147.483C334.039 142.6 341.634 130.801 344.346 127.546C343.804 116.968 353.84 95.9469 362.248 95.9469C370.521 95.9469 374.047 96.7607 378.93 101.101C383.947 105.44 382.998 124.834 382.456 129.852C381.778 134.87 375.81 143.821 374.59 150.059C373.369 156.298 372.149 166.334 369.572 173.793C367.131 181.252 352.89 214.072 349.364 229.126C345.838 244.18 342.719 277.136 344.889 271.575C347.059 266.015 353.84 258.827 355.196 258.691C355.06 257.335 357.095 251.639 360.078 245.265C363.062 238.891 364.961 231.567 369.029 228.855C367.944 220.989 367.402 211.495 383.134 191.695C398.73 171.894 418.666 173.115 423.142 178.54C421.921 190.339 410.8 210.004 410.8 210.004L413.648 212.852C409.444 216.92 409.715 234.144 409.308 240.654C408.766 247.163 403.477 252.588 403.477 252.588C403.477 252.588 404.29 257.471 396.018 275.372C387.609 293.274 389.915 309.413 385.982 314.702C382.591 319.313 378.116 325.416 365.367 335.317C352.619 345.217 337.43 361.898 331.734 367.73C326.038 373.561 319.528 379.258 310.577 386.31C301.49 393.362 295.659 400.143 289.691 407.467" stroke="#445272" stroke-width="2" stroke-miterlimit="10"/>
<g opacity="0.5">
<path d="M419.075 180.166C416.769 181.793 414.735 183.557 412.836 185.591C411.073 187.625 409.446 189.795 408.361 192.236C407.276 194.677 406.733 197.254 406.326 199.967C406.191 201.323 406.055 202.679 406.055 204.035C406.055 204.713 406.191 205.391 406.326 206.069C406.462 206.748 406.733 207.426 407.411 207.561C406.733 207.426 406.191 206.748 405.92 206.205C405.648 205.527 405.513 204.849 405.377 204.171C405.106 202.815 405.106 201.323 405.241 199.967C405.377 197.254 405.92 194.271 407.005 191.694C408.225 189.117 409.853 186.676 411.887 184.777C414.057 182.743 416.498 181.251 419.075 180.166Z" fill="#B1BBD0"/>
</g>
<path d="M200.86 207.563C202.488 204.986 205.2 202.138 207.234 201.189C207.234 197.663 208.726 181.795 212.931 169.454C217.135 157.112 223.78 141.516 226.493 135.277C229.069 129.039 237.613 111.273 239.512 107.746C241.411 104.356 240.055 103.271 242.903 99.2024C244.937 86.4541 254.837 74.6551 256.871 71.6715C258.906 68.6879 261.076 57.0245 271.518 58.3807C281.826 59.6013 283.589 66.2467 284.131 67.7385C285.352 68.5522 287.657 72.3496 287.657 78.0456C287.657 83.8773 283.317 96.0831 280.334 103.135C277.35 110.052 273.824 124.157 273.824 124.157" stroke="#BA6DCD" stroke-width="3" stroke-miterlimit="10" stroke-linecap="round"/>
<g opacity="0.5">
<path d="M281.825 71.1289C280.604 73.7057 279.248 76.1468 277.621 78.3168C277.214 78.8592 276.807 79.4017 276.265 79.9442C275.722 80.4867 275.315 81.0292 274.502 81.436C274.23 81.7073 273.552 81.8429 273.281 81.8429C272.874 81.8429 272.603 81.8429 272.196 81.8429C271.518 81.8429 270.84 81.7073 270.026 81.7073C267.314 81.436 264.466 81.0292 261.753 80.7579C261.482 80.7579 261.075 80.7579 260.804 80.7579C260.668 80.7579 260.397 80.7579 260.397 80.7579H260.261C260.126 80.7579 259.99 80.7579 259.855 80.7579C259.176 80.6223 259.041 80.0798 258.905 79.8086C258.77 79.4017 258.77 79.1305 258.634 78.7236C258.498 77.2318 258.498 75.8756 258.77 74.5194C258.905 75.8756 259.041 77.3674 259.312 78.588C259.448 78.8593 259.448 79.2661 259.583 79.5374C259.719 79.8086 259.855 79.9442 259.99 79.9442C259.99 79.9442 259.99 79.9442 260.126 79.9442H260.397C260.668 79.9442 260.804 79.9442 260.94 79.9442C261.346 79.9442 261.618 79.9442 262.025 79.9442C264.873 79.9442 267.585 80.3511 270.297 80.6223C270.975 80.7579 271.654 80.7579 272.332 80.7579C272.603 80.7579 273.01 80.7579 273.281 80.7579C273.417 80.7579 273.552 80.7579 273.688 80.7579C273.823 80.7579 273.823 80.7579 273.959 80.6223C274.908 80.0798 275.858 78.9949 276.807 77.9099C278.435 75.74 280.198 73.4344 281.825 71.1289Z" fill="#B1BBD0"/>
</g>
</svg>
