<svg width="850" height="500" viewBox="0 0 850 500" fill="none" xmlns="http://www.w3.org/2000/svg">
<path opacity="0.33" d="M690 453.777C682.824 438.662 677.786 424.616 675.801 393.47C673.816 362.324 677.633 359.881 675.801 335.301C673.969 310.72 672.137 316.064 673.969 297.59C675.648 279.116 665.572 255.146 665.419 246.138C665.266 237.131 666.03 206.29 663.282 191.786C660.533 177.282 654.121 167.969 649.541 143.083C644.961 118.197 627.556 102.013 616.41 105.677C605.265 109.341 603.433 120.945 604.807 125.22C599.921 115.601 596.715 109.952 593.662 106.288C590.608 102.624 581.753 98.3488 581.753 98.3488C581.753 98.3488 568.012 95.448 562.669 107.815C558.241 108.731 558.241 118.349 558.394 120.945C557.325 115.143 555.34 106.899 553.661 104.303C551.829 101.708 548.317 97.5855 543.432 95.448C538.546 93.3106 526.027 94.0739 522.82 96.6694C519.614 99.2649 513.813 104.609 514.271 109.799C514.729 115.143 516.408 119.876 516.713 133.464C517.019 147.052 521.446 175.755 522.362 182.931C523.278 190.107 535.645 256.215 535.645 256.215C535.645 256.215 535.187 257.284 534.424 256.52C533.813 255.757 519.309 175.144 514.118 163.236C516.103 150.564 517.324 114.685 509.08 106.746C505.568 98.8069 484.194 92.5472 476.102 110.41C468.01 128.12 470.606 159.877 469.079 172.091C467.552 184.305 469.231 211.481 470.758 219.573C469.689 211.328 466.941 203.695 462.208 198.962C457.475 194.229 449.689 189.496 444.193 187.511C439.765 185.984 434.116 187.969 431.673 190.412C430.91 191.175 429.841 191.939 428.773 192.091C427.551 192.397 426.482 193.313 426.482 193.313C426.482 195.908 428.467 208.886 435.643 221.71C433.811 224.459 436.254 235.909 434.269 244.001C432.284 251.94 429.994 257.436 433.505 266.597C432.131 269.04 433.963 275.757 437.017 278.2C435.185 283.849 437.475 291.025 443.582 305.987C451.216 324.766 447.399 345.53 452.743 356.217C458.086 366.904 464.499 370.569 471.522 381.561C478.392 392.554 505.263 426.906 516.255 435.608C527.248 444.311 531.828 453.624 531.828 453.624H690V453.777Z" fill="#E0E1E2"/>
<path d="M690 453.776C682.824 438.661 677.786 424.615 675.801 393.469C673.816 362.324 677.633 359.881 675.801 335.3C673.969 310.719 672.137 316.063 673.969 297.589C675.648 279.116 665.572 255.146 665.419 246.138C665.266 237.13 666.03 206.29 663.282 191.785C660.533 177.281 656.411 166.594 649.541 143.082C641.907 116.822 627.556 102.012 616.41 105.677C605.265 109.341 603.433 120.944 604.807 125.219C599.921 115.601 596.715 109.952 593.662 106.287C591.372 103.539 585.112 98.8062 579.921 98.0429C576.104 97.4322 566.791 98.1955 562.669 107.661C558.699 109.035 558.241 118.196 558.394 120.791C557.325 114.99 555.34 106.745 553.661 104.15C551.829 101.554 548.317 97.4322 543.432 95.2947C538.546 93.1572 526.027 93.9206 522.82 96.5161C519.614 99.1116 513.813 104.455 514.271 109.646C514.729 114.99 516.408 119.723 516.713 133.311C517.019 146.899 521.446 175.602 522.362 182.778C523.278 189.953 535.645 256.062 535.645 256.062C535.645 256.062 535.187 257.13 534.424 256.367C533.813 255.604 519.309 174.991 514.118 163.082C516.103 150.41 517.324 114.532 509.08 106.593C505.568 98.6535 484.194 92.3939 476.102 110.257C468.01 127.967 470.606 159.724 469.079 171.938C467.552 184.152 469.231 211.328 470.758 219.42C469.689 211.175 466.941 203.541 462.208 198.808C457.475 194.076 449.689 189.343 444.193 187.358C439.765 185.831 434.116 187.816 431.673 190.411C430.757 191.327 429.536 192.243 428.162 192.396C427.093 192.549 426.482 192.854 426.482 192.854C426.482 195.297 428.162 207.053 434.116 218.809C434.88 220.336 435.338 222.015 435.032 223.695C434.421 228.122 435.948 237.283 434.269 243.848C432.284 251.787 429.994 257.283 433.505 266.444C433.811 271.329 435.338 276.215 437.017 278.047C436.559 284.612 437.475 290.872 443.582 305.834C451.216 324.613 447.399 345.377 452.743 356.064C458.086 366.751 464.499 370.415 471.522 381.408C478.392 392.401 505.263 426.753 516.255 435.455C527.248 444.157 531.828 453.471 531.828 453.471" stroke="#808285" stroke-width="2" stroke-miterlimit="10"/>
<path d="M475.948 348.583C476.406 340.796 479.918 327.514 480.223 322.781C480.681 318.048 479.307 324.765 479.002 304.307C478.849 283.696 477.017 251.329 473.658 236.824C470.299 222.32 471.215 219.419 469.688 214.229" stroke="#808285" stroke-width="2" stroke-miterlimit="10"/>
<path d="M587.86 242.931C584.501 237.893 580.684 229.038 580.226 205.526C579.768 182.014 572.745 176.365 572.287 160.182C571.829 143.998 560.226 138.807 558.241 121.097" stroke="#808285" stroke-width="2" stroke-miterlimit="10"/>
<path d="M629.083 237.13C629.235 231.329 629.388 202.015 626.335 184.457C623.281 166.9 620.228 160.182 616.563 152.396C612.746 144.456 606.334 132.395 604.502 125.372" stroke="#808285" stroke-width="2" stroke-miterlimit="10"/>
<g opacity="0.5">
<path d="M435.032 194.228C436.406 194.533 437.628 195.296 438.849 196.212C439.918 197.281 440.681 198.502 441.139 199.877C441.903 202.625 442.666 205.22 443.124 208.121C443.582 210.869 444.04 213.77 443.735 216.671C443.735 217.434 443.429 218.198 443.277 218.808C442.971 219.572 442.513 220.182 441.903 220.64C440.681 221.709 439.154 221.862 437.78 221.404C439.154 221.556 440.529 221.098 441.445 220.03C442.361 219.114 442.513 217.74 442.513 216.365C442.513 213.617 442.055 210.869 441.597 208.274C441.139 205.525 440.529 202.777 439.918 200.182C439.46 197.739 437.628 195.449 435.032 194.228Z" fill="#AEB0B2"/>
</g>
<path opacity="0.33" d="M405.872 215.755C406.635 211.022 415.032 192.091 413.048 182.93C409.689 178.045 386.787 175.449 372.283 200.641C357.932 225.832 357.932 232.092 360.375 244.764C357.321 245.222 348.161 270.413 346.329 276.367C343.275 278.047 339.458 287.207 338.084 287.665C336.71 288.123 333.351 284.001 334.42 262.321C335.489 240.641 337.626 234.076 337.779 228.427C337.931 222.778 344.649 193.312 348.771 178.045C352.894 162.777 353.81 142.319 357.321 128.883C360.833 115.6 362.665 87.9663 357.321 72.8514C351.978 57.7366 337.473 59.5687 334.878 60.7901C332.13 62.0115 326.481 66.7444 323.122 76.363C319.763 85.8288 318.694 95.6 317.778 107.661C315.641 102.928 311.977 102.012 311.977 102.012C311.977 102.012 308.618 92.2412 296.862 93.9206C285.106 95.6 281.594 103.692 281.594 103.692C281.594 103.692 280.068 104.303 279.151 105.219C278.846 105.524 278.235 105.677 277.777 105.371C274.724 103.539 266.174 101.554 260.372 103.692C253.96 106.135 249.991 110.562 249.991 110.562C249.991 110.562 244.189 110.104 238.693 112.547C233.349 115.142 231.211 117.585 231.211 117.585C231.211 117.585 229.074 113.768 226.937 111.936C227.7 109.493 222.051 104.303 215.486 108.119C209.074 111.936 204.188 116.211 201.745 117.433C199.15 118.654 182.813 124.303 179.302 127.662C175.79 131.173 168.767 141.708 164.034 147.51C159.301 153.159 159.912 158.35 152.431 168.579C144.95 178.808 146.477 197.282 144.797 204.305C143.271 211.48 148.003 236.672 143.271 248.123C138.538 259.726 142.813 291.482 143.271 304.46C143.881 317.59 149.988 360.339 144.645 384.767C139.301 409.195 108.155 457.593 108.155 457.593H271.365C279.915 446.906 287.854 429.653 300.679 420.493C313.503 411.18 333.809 390.416 342.97 380.797C352.13 371.179 367.55 355.148 376.253 348.583C385.108 342.018 386.177 328.735 389.688 309.193C393.2 289.65 406.177 257.13 406.177 254.077C406.177 251.023 404.65 252.397 404.65 250.718C404.65 249.191 407.093 248.428 407.093 245.374C407.246 242.932 405.109 220.641 405.872 215.755ZM288.77 188.274C285.869 193.923 284.342 194.076 284.342 194.076C284.037 189.19 284.495 182.014 284.342 179.571C285.869 177.281 292.434 158.044 292.434 154.227C295.335 153.311 306.328 143.845 308.465 139.112C307.244 141.861 291.518 182.93 288.77 188.274Z" fill="#E0E1E2"/>
<path d="M271.518 458.204C280.068 447.517 288.007 430.265 300.832 421.104C313.657 411.791 333.963 391.027 343.123 381.409C352.284 371.79 367.704 355.759 376.406 349.194C385.261 342.629 386.33 329.346 389.842 309.804C393.353 290.262 406.331 257.742 406.331 254.688C406.331 251.635 404.804 253.009 404.804 251.329C404.804 249.803 407.247 249.039 407.247 245.986C407.247 242.932 405.109 220.642 406.025 215.909C406.941 211.176 415.186 192.244 413.201 183.084C409.842 178.198 386.941 175.603 372.437 200.794C358.085 225.985 358.085 232.245 360.528 244.917C357.474 245.375 348.314 270.566 346.482 276.521C343.428 278.2 339.611 287.361 338.237 287.819C336.863 288.277 333.504 284.155 334.573 262.475C335.642 240.795 337.779 234.23 337.932 228.581C338.085 222.932 344.802 193.466 348.925 178.198C353.047 162.93 353.963 142.472 357.474 129.037C360.986 115.754 362.818 88.1196 357.474 73.0048C352.131 57.8899 337.627 59.722 335.031 60.9434C332.283 62.1648 326.634 66.8978 323.275 76.5163C319.916 85.9822 318.848 95.7534 317.932 107.815C315.794 103.082 312.13 102.166 312.13 102.166C312.13 102.166 308.771 92.3945 297.015 94.0739C285.259 95.7534 281.748 103.845 281.748 103.845C281.748 103.845 280.221 104.456 279.305 105.372C278.999 105.677 278.389 105.83 277.931 105.525C274.877 103.692 266.327 101.708 260.526 103.845C254.113 106.288 250.144 110.716 250.144 110.716C250.144 110.716 244.342 110.258 238.846 112.7C233.502 115.296 231.365 117.739 231.365 117.739C231.365 117.739 229.227 113.922 227.09 112.09C227.853 109.647 222.204 104.456 215.639 108.273C209.227 112.09 204.341 116.365 201.898 117.586C199.303 118.807 182.967 124.456 179.455 127.815C175.944 131.327 168.921 141.861 164.188 147.663C159.455 153.312 160.065 158.503 152.584 168.732C145.103 178.961 146.63 197.435 144.951 204.458C143.424 211.634 148.157 236.825 143.424 248.276C138.691 259.879 142.966 291.636 143.424 304.613C144.035 317.743 150.142 360.492 144.798 384.92C139.454 409.348 108.309 457.746 108.309 457.746M288.771 188.275C285.87 193.924 285.412 194.076 285.412 194.076C285.106 189.191 284.496 182.015 284.343 179.572C285.87 177.282 292.435 158.045 292.435 154.228C295.336 153.312 306.328 143.846 308.466 139.113C307.244 141.861 291.519 182.931 288.771 188.275Z" stroke="#808285" stroke-width="2" stroke-miterlimit="10"/>
<path d="M177.623 201.71C177.623 192.549 179.608 155.296 186.173 144.151C191.058 135.907 204.189 135.143 205.563 132.548C206.937 129.952 220.067 122.929 231.212 118.196" stroke="#808285" stroke-width="2" stroke-miterlimit="10"/>
<path d="M204.341 231.786C207.7 228.885 217.471 220.488 219.608 215.297C221.746 209.954 229.532 166.441 231.212 152.548C232.891 138.654 240.219 119.265 258.541 119.875C262.357 116.822 269.38 114.074 272.739 114.074C274.113 111.631 278.083 104.76 281.747 103.997" stroke="#808285" stroke-width="2" stroke-miterlimit="10"/>
<path d="M285.411 194.227C285.106 189.341 284.495 182.166 284.343 179.723C285.87 177.433 292.435 158.196 292.435 154.379C295.335 153.463 306.481 143.997 308.465 139.111C308.465 139.111 291.824 182.624 288.923 188.273C285.87 193.922 285.411 194.227 285.411 194.227Z" stroke="#808285" stroke-width="2" stroke-miterlimit="10"/>
<path d="M270.755 234.688C275.03 230.871 277.167 229.955 279.457 226.138C282.511 220.947 284.801 194.687 288.771 188.275C292.74 181.862 298.847 160.488 307.855 140.182C316.863 119.876 317.473 111.784 317.779 107.815C318.695 95.7534 319.764 85.9822 323.122 76.5164C326.481 67.0505 332.13 62.3176 334.878 60.9435C337.627 59.7221 351.978 57.7373 357.322 73.0048C362.665 88.2724 360.833 115.754 357.322 129.037C353.81 142.319 352.894 162.931 348.772 178.198C344.65 193.466 337.932 222.779 337.779 228.581" stroke="#2969D0" stroke-width="3" stroke-miterlimit="10" stroke-linecap="round"/>
<g opacity="0.5">
<path d="M350.756 69.1875C350.604 72.8517 349.993 76.6686 348.466 80.0274C347.703 81.7069 346.634 83.3863 345.107 84.7604C344.649 85.0657 344.344 85.3711 343.886 85.5238C343.428 85.6764 342.97 85.9818 342.512 86.1344C341.596 86.4398 340.68 86.5925 339.764 86.8978C336.099 87.5085 332.13 87.6612 328.466 86.1344C327.55 85.6764 326.634 85.2184 326.023 84.3023C325.565 83.3863 325.412 82.3176 325.412 81.4015C325.412 79.4167 325.87 77.5846 326.481 75.9052C326.175 77.7373 325.87 79.5694 326.175 81.4015C326.328 82.3176 326.481 83.0809 326.939 83.8443C327.397 84.455 328.16 84.913 328.924 85.2184C332.282 86.2871 335.947 86.1345 339.458 85.5238C340.374 85.3711 341.138 85.2184 342.054 84.913C342.512 84.7604 342.817 84.6077 343.275 84.455C343.58 84.3023 344.038 83.997 344.344 83.8443C345.718 82.7756 346.634 81.4015 347.55 79.7221C348.466 78.1953 349.077 76.3632 349.535 74.6838C349.993 72.699 350.451 71.0196 350.756 69.1875Z" fill="#AEB0B2"/>
</g>
<g opacity="0.5">
<path d="M406.177 183.542C403.429 185.221 400.833 187.359 398.848 189.954C396.863 192.55 395.489 195.451 394.573 198.504C394.115 200.031 393.81 201.558 393.81 203.084C393.81 204.611 394.115 206.138 394.726 207.665C395.337 209.039 396.253 210.413 397.322 211.634C398.39 212.856 399.764 213.772 401.138 214.688C398.085 213.466 395.337 211.329 393.657 208.275C392.894 206.749 392.436 205.069 392.283 203.237C392.283 201.558 392.589 199.726 393.047 198.199C393.963 194.993 395.489 191.939 397.78 189.344C398.848 188.122 400.222 186.901 401.596 185.985C403.123 184.916 404.497 184.153 406.177 183.542Z" fill="#AEB0B2"/>
</g>
</svg>
