<svg width="900" height="500" viewBox="0 0 900 500" fill="none" xmlns="http://www.w3.org/2000/svg">
<path opacity="0.33" d="M694.391 428.437C687.6 414.133 682.831 400.84 680.953 371.364C679.075 341.888 682.687 339.576 680.953 316.313C679.219 293.05 677.485 298.107 679.219 280.624C680.809 263.14 671.272 240.455 671.128 231.93C670.983 223.405 671.706 194.218 669.105 180.492C666.504 166.765 660.435 157.951 656.101 134.399C651.766 110.847 635.294 95.5311 624.746 98.9989C614.198 102.467 612.465 113.448 613.765 117.494C609.141 108.391 606.107 103.045 603.217 99.5768C600.327 96.1091 591.947 92.0633 591.947 92.0633C591.947 92.0633 578.943 89.318 573.886 101.022C569.695 101.889 569.695 110.992 569.84 113.448C568.828 107.957 566.95 100.155 565.361 97.6985C563.627 95.2421 560.303 91.3409 555.68 89.318C551.056 87.2952 539.208 88.0176 536.174 90.4739C533.139 92.9303 527.649 97.9874 528.082 102.9C528.516 107.957 530.105 112.437 530.394 125.296C530.683 138.156 534.873 165.32 535.74 172.111C536.607 178.902 548.311 241.467 548.311 241.467C548.311 241.467 547.877 242.478 547.155 241.756C546.577 241.033 532.85 164.742 527.938 153.472C529.816 141.479 530.972 107.524 523.169 100.01C519.846 92.4968 499.617 86.5727 491.959 103.478C484.301 120.239 486.758 150.293 485.313 161.852C483.868 173.412 485.457 199.131 486.902 206.789C485.891 198.986 483.29 191.762 478.811 187.283C474.332 182.803 466.963 178.324 461.761 176.446C457.571 175.001 452.225 176.879 449.913 179.191C449.19 179.914 448.179 180.636 447.167 180.781C446.011 181.07 445 181.936 445 181.936C445 184.393 446.878 196.675 453.669 208.812C451.936 211.413 454.247 222.249 452.369 229.907C450.491 237.421 448.323 242.623 451.647 251.292C450.346 253.604 452.08 259.961 454.97 262.273C453.236 267.619 455.403 274.41 461.183 288.571C468.407 306.343 464.795 325.994 469.852 336.108C474.91 346.222 480.978 349.69 487.625 360.093C494.127 370.497 519.557 403.007 529.96 411.243C540.364 419.479 544.698 428.293 544.698 428.293H694.391V428.437Z" fill="#445272"/>
<path d="M694.391 428.438C687.6 414.134 682.831 400.841 680.953 371.365C679.075 341.888 682.687 339.577 680.953 316.314C679.219 293.051 677.485 298.108 679.219 280.624C680.809 263.141 671.272 240.456 671.128 231.931C670.983 223.406 671.706 194.219 669.105 180.492C666.504 166.766 662.603 156.652 656.101 134.4C648.876 109.548 635.294 95.532 624.746 98.9998C614.198 102.468 612.465 113.449 613.765 117.495C609.141 108.392 606.107 103.046 603.217 99.5778C601.05 96.9769 595.126 92.4977 590.213 91.7753C586.601 91.1973 577.787 91.9198 573.886 100.878C570.129 102.179 569.695 110.848 569.84 113.304C568.828 107.814 566.95 100.011 565.361 97.5549C563.627 95.0986 560.303 91.1973 555.68 89.1745C551.056 87.1516 539.208 87.874 536.174 90.3304C533.139 92.7867 527.649 97.8439 528.082 102.757C528.516 107.814 530.105 112.293 530.394 125.153C530.683 138.012 534.873 165.177 535.74 171.968C536.607 178.759 548.311 241.323 548.311 241.323C548.311 241.323 547.877 242.334 547.155 241.612C546.577 240.89 532.85 164.599 527.938 153.328C529.816 141.336 530.972 107.38 523.169 99.8668C519.846 92.3532 499.617 86.4291 491.959 103.335C484.301 120.095 486.758 150.149 485.313 161.709C483.868 173.268 485.457 198.987 486.902 206.645C485.891 198.843 483.29 191.618 478.811 187.139C474.332 182.66 466.963 178.181 461.761 176.302C457.571 174.857 452.225 176.736 449.913 179.192C449.046 180.059 447.89 180.926 446.589 181.07C445.578 181.215 445 181.504 445 181.504C445 183.816 446.589 194.942 452.225 206.067C452.947 207.512 453.38 209.102 453.091 210.691C452.513 214.881 453.958 223.551 452.369 229.764C450.491 237.277 448.323 242.479 451.647 251.148C451.936 255.772 453.38 260.396 454.97 262.13C454.536 268.343 455.403 274.267 461.183 288.427C468.407 306.199 464.795 325.85 469.852 335.964C474.91 346.079 480.978 349.546 487.625 359.95C494.127 370.353 519.557 402.863 529.96 411.099C540.364 419.335 544.698 428.149 544.698 428.149" stroke="#697695" stroke-width="2" stroke-miterlimit="10"/>
<path d="M491.815 328.884C492.248 321.515 495.571 308.944 495.86 304.465C496.294 299.986 494.994 306.344 494.705 286.982C494.56 267.476 492.826 236.844 489.647 223.117C486.469 209.39 487.336 206.645 485.891 201.732" stroke="#697695" stroke-width="2" stroke-miterlimit="10"/>
<path d="M597.726 228.897C594.548 224.129 590.935 215.749 590.502 193.497C590.068 171.245 583.422 165.899 582.988 150.583C582.555 135.267 571.574 130.355 569.695 113.594" stroke="#697695" stroke-width="2" stroke-miterlimit="10"/>
<path d="M636.739 223.407C636.883 217.916 637.028 190.174 634.138 173.557C631.248 156.941 628.358 150.583 624.89 143.214C621.278 135.701 615.209 124.286 613.476 117.64" stroke="#697695" stroke-width="2" stroke-miterlimit="10"/>
<g opacity="0.5">
<path d="M453.092 182.806C454.392 183.095 455.548 183.817 456.704 184.684C457.715 185.695 458.438 186.851 458.871 188.152C459.594 190.753 460.316 193.209 460.75 195.954C461.183 198.555 461.617 201.3 461.328 204.046C461.328 204.768 461.039 205.491 460.894 206.069C460.605 206.791 460.172 207.369 459.594 207.803C458.438 208.814 456.993 208.958 455.693 208.525C456.993 208.669 458.293 208.236 459.16 207.225C460.027 206.358 460.172 205.057 460.172 203.757C460.172 201.156 459.738 198.555 459.305 196.099C458.871 193.498 458.293 190.897 457.716 188.441C457.282 186.129 455.548 183.962 453.092 182.806Z" fill="#B1BBD0"/>
</g>
<path opacity="0.33" d="M412.906 176.725C413.634 174.103 423.684 148.322 421.937 143.224C420.189 138.126 400.379 132.591 383.775 154.148C367.024 175.705 364.111 187.066 365.276 200.612C363.237 203.525 360.907 225.374 357.12 234.405C353.915 236.298 348.38 246.057 347.652 245.911C346.778 245.766 337.31 238.629 326.386 239.939C326.386 234.842 326.095 220.13 332.067 205.128C338.039 190.125 352.459 167.548 357.993 159.974C363.383 152.4 362.072 150.798 362.8 149.341C363.528 147.885 378.24 137.106 376.929 114.238C375.764 91.3702 355.372 95.1572 353.624 95.8855C352.022 96.6138 344.156 102.294 336.728 114.675C331.338 112.49 321.434 116.277 309.344 133.465C297.4 150.652 282.107 178.036 281.233 178.764C280.213 179.492 272.056 179.638 270.6 175.996C269.143 172.501 269.434 164.635 273.367 152.4C279.485 141.767 285.894 126.473 287.35 120.356C290.992 119.627 302.935 113.947 305.849 110.742C309.636 111.179 324.201 108.412 330.756 96.9051C337.31 85.3983 327.988 80.1546 327.26 79.572C326.386 78.9894 307.451 74.911 303.227 74.1827C299.003 73.3088 291.72 73.6001 287.642 75.4936C283.126 75.4936 277.446 74.474 266.521 79.7177C262.88 81.4655 258.947 82.6308 255.16 83.6504C256.908 79.4263 273.659 46.945 267.832 34.2729C261.86 21.6008 253.558 19.1247 247.44 22.1835C243.799 23.9313 238.41 29.175 235.351 40.3905C230.253 45.1971 226.903 50.5864 224.864 54.9561C222.824 59.3258 219.911 69.6674 218.455 71.7066C216.998 73.7458 211.755 79.8633 209.424 84.9613C207.239 90.2049 205.2 98.653 203.452 101.42C199.374 100.983 174.321 100.983 168.349 102.877C162.377 104.916 149.705 117.151 147.375 120.501C144.898 123.997 139.072 131.863 133.829 135.65C128.585 139.437 126.837 143.515 126.691 147.156C126.4 150.798 129.605 157.789 129.75 160.12C129.896 162.45 129.605 177.016 132.663 185.901C135.722 194.786 139.218 195.806 140.82 202.943C142.422 209.934 144.316 227.85 146.064 237.172C147.812 246.494 151.89 256.981 153.783 266.012C155.677 275.043 157.134 290.045 158.299 295.58C159.464 300.969 164.271 321.653 163.105 330.975C161.94 340.297 163.105 344.229 152.91 366.223C142.714 388.218 138.781 400.453 134.266 408.027C129.75 415.455 115.476 434.973 113.291 437.304H261.715C261.715 437.304 280.359 409.92 287.642 398.559C294.924 387.052 305.412 368.991 325.075 353.843C344.739 338.694 384.794 308.835 392.368 301.843C399.942 294.852 399.942 289.463 403.584 265.575C407.225 241.687 411.741 223.335 410.575 222.169C412.032 221.004 414.217 207.021 413.052 206.439C414.217 205.856 412.178 179.347 412.906 176.725ZM177.817 170.025C177.817 170.025 176.797 170.898 175.778 170.025C174.904 169.151 178.254 154.002 172.282 146.865C176.506 143.661 182.478 135.213 181.895 131.28C183.789 132.154 187.867 132.008 187.867 132.008C186.847 135.941 180.002 154.731 177.817 170.025Z" fill="#445272"/>
<path d="M256.034 81.4655C257.782 77.2415 273.512 47.0907 267.541 34.2729C261.569 21.6008 253.266 19.1247 247.149 22.1835C243.507 23.9313 238.264 29.175 235.059 40.3905C229.961 45.1971 226.611 50.5864 224.572 54.9561C222.533 59.3258 219.62 69.6674 218.163 71.7066C216.852 73.7458 211.463 79.8633 209.132 84.9613C206.948 90.2049 203.161 98.216 201.413 100.838C198.5 105.353 196.606 108.121 193.11 116.277C189.469 124.434 188.595 130.989 187.284 134.921C185.973 138.854 179.856 154.585 177.671 169.879C177.671 169.879 176.651 170.753 175.632 169.879C174.758 169.005 178.108 153.857 172.136 146.72C176.36 143.515 181.458 136.087 181.749 131.134C183.788 132.008 186.264 132.154 186.264 132.154" stroke="#697695" stroke-width="2" stroke-miterlimit="10"/>
<path d="M201.559 100.983C197.481 100.546 174.176 100.983 168.058 103.022C162.086 105.061 149.56 117.297 147.084 120.792C144.607 124.288 138.781 132.153 133.538 135.941C128.294 139.728 126.692 143.806 126.4 147.447C126.109 151.089 129.314 158.08 129.459 160.411C129.605 162.741 129.314 177.307 132.372 186.192C135.431 195.077 138.927 196.097 140.529 203.234C142.131 210.371 144.025 228.141 145.773 237.463C147.521 246.785 151.599 257.272 153.492 266.303C155.386 275.334 156.843 290.336 158.008 295.871C159.173 301.406 163.98 321.944 162.814 331.266C161.649 340.588 162.814 344.375 152.618 366.514C142.423 388.508 138.49 400.744 133.974 408.318C129.459 415.746 115.185 435.264 113 437.595" stroke="#697695" stroke-width="2" stroke-miterlimit="10"/>
<path d="M256.036 81.4655C257.784 77.2415 273.515 47.0907 267.543 34.2729C261.571 21.6008 253.268 19.1247 247.151 22.1835C243.509 23.9313 238.266 29.175 235.061 40.3905C229.963 45.1971 226.613 50.5864 224.574 54.9561C222.535 59.3258 219.622 69.6674 218.165 71.7066C216.854 73.7458 211.465 79.8633 209.135 84.9613C206.95 90.2049 203.163 98.216 201.415 100.838C198.502 105.353 196.608 108.121 193.112 116.277C189.471 124.434 188.597 130.989 187.286 134.921C185.975 138.854 179.858 154.585 177.673 169.879" stroke="#BA6DCD" stroke-width="3" stroke-miterlimit="10" stroke-linecap="round"/>
<path d="M261.131 437.448C261.131 437.448 279.921 410.065 287.058 398.704C294.195 387.342 304.828 369.135 324.491 353.987C344.155 338.839 384.211 308.979 391.785 301.988C399.359 294.996 399.359 289.607 403 265.72C406.642 241.832 411.157 223.479 409.992 222.314C411.448 221.149 413.633 207.166 412.468 206.583C414.07 206.001 412.176 179.345 412.759 176.724C413.342 174.102 423.538 148.321 421.79 143.223C420.042 138.125 400.233 132.59 383.628 154.147C367.023 175.704 364.11 187.065 365.275 200.757C363.236 203.67 360.906 225.518 357.118 234.549C353.914 236.443 348.379 246.202 347.651 246.056C346.777 245.91 337.309 238.773 326.385 240.084C326.385 234.986 326.094 220.275 332.066 205.272C338.037 190.27 352.457 167.693 357.847 160.119C363.236 152.545 361.925 150.942 362.653 149.486C363.382 148.029 378.093 137.251 376.782 114.383C375.617 91.5147 355.079 95.3018 353.477 96.0301C351.875 96.7583 344.009 102.439 336.581 114.82C331.192 112.635 321.141 116.422 309.198 133.609C297.254 150.797 281.96 178.18 281.086 178.908C280.066 179.637 271.91 179.782 270.453 176.141C268.996 172.645 269.433 164.78 273.22 152.399C279.338 141.766 285.747 126.618 287.203 120.355C290.845 119.626 302.789 113.946 305.702 110.741C309.489 111.178 324.054 108.411 330.609 96.904C337.164 85.3972 327.842 80.1535 327.113 79.5709C326.239 78.9883 307.304 74.9099 303.08 74.1816C298.856 73.3077 291.573 73.599 287.64 75.4925C283.125 75.4925 277.445 74.4729 266.52 79.7166C255.596 84.9602 242.487 84.8145 234.767 92.68C227.193 100.4 218.745 139.873 217.288 147.01C215.978 154.147 213.356 182.987 201.558 192.454" stroke="#697695" stroke-width="2" stroke-miterlimit="10"/>
<g opacity="0.5">
<path d="M418.295 144.973C414.653 145.41 411.157 146.721 408.681 149.197C406.06 151.527 404.457 154.732 403.438 158.227C402.418 161.577 402.127 165.219 403.146 168.569C404.166 171.919 406.496 174.832 408.973 177.454C407.516 176.434 406.205 175.123 404.894 173.667C403.729 172.21 402.709 170.608 401.981 168.86C400.67 165.365 400.816 161.286 401.981 157.79C403.001 154.295 404.894 150.653 407.807 148.323C409.264 147.157 411.012 146.284 412.76 145.701C414.653 145.118 416.401 144.827 418.295 144.973Z" fill="#B1BBD0"/>
</g>
<path d="M182.041 131.28C182.187 127.639 182.332 122.25 180.002 116.86" stroke="#697695" stroke-width="2" stroke-miterlimit="10"/>
<path d="M172.427 146.865C170.388 143.952 166.164 141.185 166.164 141.185" stroke="#697695" stroke-width="2" stroke-miterlimit="10"/>
<path d="M287.352 120.5C287.934 115.257 287.352 109.722 287.352 109.722" stroke="#697695" stroke-width="2" stroke-miterlimit="10"/>
<path d="M337.019 115.112C341.971 115.404 351.875 117.443 357.41 120.647" stroke="#697695" stroke-width="2" stroke-miterlimit="10"/>
<path d="M305.85 110.887C308.326 108.556 312.695 101.565 312.987 100.108" stroke="#697695" stroke-width="2" stroke-miterlimit="10"/>
<g opacity="0.5">
<path d="M261.278 32.0879C260.55 34.4184 259.53 36.7489 257.928 38.7881C256.471 40.8273 254.432 42.7208 252.102 43.7404C251.519 44.0317 250.936 44.323 250.208 44.4687C249.625 44.76 248.897 44.76 248.314 44.9056C247.732 45.0513 247.004 44.9056 246.421 45.0513C245.838 45.0513 245.11 45.0513 244.527 44.9056C243.216 44.76 242.051 44.6143 240.74 44.1774C240.158 44.0317 239.575 43.7404 238.992 43.3034C238.41 43.0121 237.827 42.4295 237.973 41.7012C237.973 42.2838 238.701 42.7208 239.138 42.8665C239.721 43.1578 240.303 43.3034 240.886 43.3034C242.051 43.4491 243.362 43.5947 244.527 43.5947C247.004 43.5947 249.334 43.3034 251.373 42.2838C253.558 41.2642 255.306 39.662 256.908 37.9141C258.656 36.3119 260.113 34.2727 261.278 32.0879Z" fill="#B1BBD0"/>
</g>
</svg>
