<svg width="850" height="500" viewBox="0 0 850 500" fill="none" xmlns="http://www.w3.org/2000/svg">
<path opacity="0.33" d="M688 443.531C680.967 428.719 676.03 414.953 674.085 384.43C672.14 353.907 675.88 351.513 674.085 327.424C672.289 303.334 670.494 308.571 672.289 290.467C673.935 272.362 664.06 248.872 663.91 240.044C663.761 231.216 664.509 200.992 661.816 186.778C659.122 172.564 652.838 163.437 648.35 139.048C643.861 114.659 626.804 98.7994 615.881 102.39C604.959 105.981 603.163 117.353 604.51 121.542C599.722 112.116 596.58 106.58 593.587 102.989C590.595 99.3979 581.917 95.2084 581.917 95.2084C581.917 95.2084 568.451 92.3656 563.214 104.485C558.875 105.383 558.875 114.809 559.024 117.353C557.977 111.667 556.032 103.587 554.386 101.044C552.591 98.5001 549.149 94.4603 544.361 92.3656C539.573 90.2709 527.304 91.019 524.162 93.5626C521.02 96.1062 515.335 101.343 515.783 106.43C516.232 111.667 517.878 116.305 518.177 129.622C518.477 142.938 522.816 171.067 523.713 178.1C524.611 185.132 536.731 249.919 536.731 249.919C536.731 249.919 536.282 250.966 535.534 250.218C534.935 249.47 520.721 170.469 515.634 158.798C517.579 146.38 518.776 111.218 510.696 103.438C507.255 95.6573 486.308 89.5227 478.378 107.029C470.448 124.385 472.991 155.507 471.495 167.476C469.999 179.446 471.645 206.079 473.141 214.009C472.093 205.93 469.4 198.448 464.762 193.81C460.124 189.172 452.493 184.534 447.106 182.588C442.767 181.092 437.231 183.037 434.837 185.431C434.089 186.179 433.042 186.927 431.994 187.077C430.797 187.376 429.75 188.274 429.75 188.274C429.75 190.818 431.695 203.536 438.727 216.104C436.932 218.797 439.326 230.019 437.381 237.949C435.436 245.729 433.191 251.116 436.633 260.093C435.286 262.487 437.082 269.071 440.074 271.465C438.279 277.001 440.523 284.033 446.508 298.696C453.989 317.1 450.248 337.448 455.485 347.922C460.722 358.396 467.006 361.987 473.889 372.76C480.622 383.532 506.956 417.198 517.728 425.726C528.501 434.255 532.99 443.382 532.99 443.382H688V443.531Z" fill="#E0E1E2"/>
<path d="M688 443.532C680.967 428.719 676.03 414.954 674.085 384.43C672.14 353.907 675.88 351.513 674.085 327.424C672.289 303.335 670.494 308.571 672.289 290.467C673.935 272.363 664.06 248.872 663.91 240.044C663.761 231.216 664.509 200.992 661.816 186.778C659.122 172.564 655.083 162.09 648.35 139.048C640.868 113.313 626.804 98.7996 615.881 102.391C604.959 105.982 603.163 117.353 604.51 121.542C599.722 112.116 596.58 106.58 593.587 102.989C591.343 100.296 585.209 95.6575 580.121 94.9094C576.381 94.3109 567.254 95.059 563.214 104.336C559.324 105.682 558.875 114.66 559.024 117.203C557.977 111.518 556.032 103.438 554.386 100.894C552.591 98.3507 549.149 94.3109 544.361 92.2162C539.573 90.1215 527.304 90.8696 524.162 93.4132C521.02 95.9568 515.335 101.194 515.783 106.281C516.232 111.518 517.878 116.156 518.177 129.472C518.477 142.789 522.816 170.918 523.713 177.95C524.611 184.983 536.731 249.769 536.731 249.769C536.731 249.769 536.282 250.817 535.534 250.069C534.935 249.321 520.721 170.32 515.634 158.649C517.579 146.23 518.776 111.069 510.696 103.288C507.255 95.5079 486.308 89.3733 478.378 106.879C470.448 124.236 472.991 155.357 471.495 167.327C469.999 179.297 471.645 205.93 473.141 213.86C472.093 205.78 469.4 198.299 464.762 193.661C460.124 189.022 452.493 184.384 447.106 182.439C442.767 180.943 437.231 182.888 434.837 185.431C433.939 186.329 432.742 187.227 431.396 187.377C430.348 187.526 429.75 187.825 429.75 187.825C429.75 190.219 431.396 201.74 437.231 213.261C437.979 214.758 438.428 216.403 438.129 218.049C437.53 222.388 439.027 231.366 437.381 237.8C435.436 245.58 433.191 250.966 436.633 259.944C436.932 264.732 438.428 269.52 440.074 271.315C439.625 277.749 440.523 283.884 446.508 298.547C453.989 316.95 450.248 337.299 455.485 347.773C460.722 358.246 467.006 361.837 473.889 372.61C480.622 383.383 506.956 417.048 517.728 425.577C528.501 434.105 532.99 443.232 532.99 443.232" stroke="#808285" stroke-width="2" stroke-miterlimit="10"/>
<path d="M478.227 340.441C478.676 332.81 482.118 319.793 482.417 315.155C482.866 310.516 481.519 317.1 481.22 297.05C481.07 276.851 479.275 245.131 475.983 230.917C472.691 216.702 473.589 213.86 472.093 208.772" stroke="#808285" stroke-width="2" stroke-miterlimit="10"/>
<path d="M587.902 236.902C584.61 231.965 580.87 223.287 580.421 200.245C579.972 177.203 573.089 171.667 572.64 155.806C572.191 139.946 560.82 134.859 558.875 117.503" stroke="#808285" stroke-width="2" stroke-miterlimit="10"/>
<path d="M628.3 231.216C628.45 225.53 628.6 196.802 625.607 179.596C622.615 162.389 619.622 155.806 616.031 148.175C612.291 140.394 606.006 128.574 604.211 121.691" stroke="#808285" stroke-width="2" stroke-miterlimit="10"/>
<g opacity="0.5">
<path d="M438.129 189.173C439.476 189.472 440.673 190.22 441.869 191.118C442.917 192.165 443.665 193.362 444.114 194.709C444.862 197.402 445.61 199.946 446.059 202.789C446.508 205.482 446.957 208.325 446.657 211.167C446.657 211.916 446.358 212.664 446.209 213.262C445.909 214.01 445.46 214.609 444.862 215.058C443.665 216.105 442.169 216.255 440.822 215.806C442.169 215.955 443.515 215.507 444.413 214.459C445.311 213.561 445.46 212.215 445.46 210.868C445.46 208.175 445.012 205.482 444.563 202.938C444.114 200.245 443.515 197.552 442.917 195.008C442.468 192.614 440.673 190.37 438.129 189.173Z" fill="#AEB0B2"/>
</g>
<path opacity="0.33" d="M406.558 196.652C401.771 191.564 386.359 197.4 385.761 197.549C386.06 196.801 394.289 173.31 400.274 163.136C406.409 152.812 417.331 131.266 411.945 110.02C406.558 88.7733 388.304 98.9477 381.871 106.578C375.437 114.209 367.357 138.747 363.018 145.481C358.679 152.214 341.472 174.807 332.046 188.572C322.62 202.337 310.201 224.93 306.76 227.324C303.169 229.718 293.294 229.27 291.349 222.537C289.403 215.803 288.955 206.676 292.994 194.407C297.034 182.288 300.775 169.271 300.476 167.924C300.176 166.577 310.201 164.483 317.533 145.481C327.109 133.062 328.455 111.815 322.021 109.721C321.722 104.933 306.161 91.3169 292.994 109.122C291.049 111.067 287.907 115.855 287.907 115.855C287.907 115.855 287.009 107.327 283.119 102.838C279.229 98.3492 263.519 97.7507 258.88 107.327C252.297 108.374 240.926 118.698 239.579 120.643C237.933 116.005 233.145 112.863 230.602 110.918C228.656 106.429 222.671 104.633 219.978 105.681C217.285 106.728 211.45 115.257 209.654 119.147C205.914 121.84 194.093 137.401 186.762 151.615C179.43 165.829 175.839 178.547 173.595 181.39C171.351 184.233 167.161 189.47 163.421 217C159.68 244.531 162.074 255.603 156.538 271.314C151.002 287.024 153.546 307.822 153.994 325.477C154.443 342.983 155.341 370.514 152.947 385.775C150.703 401.037 141.276 433.056 132.149 445.625H293.593C300.326 438.443 317.233 422.433 323.518 416.747C329.802 410.912 353.891 377.696 364.963 367.521C376.035 357.347 382.768 349.716 384.713 325.028C386.659 300.341 394.888 294.206 397.731 279.693C402.07 269.518 402.519 258.296 401.022 246.027C399.526 233.758 402.219 232.561 400.424 231.364C401.621 226.726 408.803 210.417 406.558 196.652ZM352.844 263.833C352.245 268.172 349.552 275.503 348.505 278.196C347.457 280.89 342.969 284.78 344.764 290.316L339.976 293.608C339.976 287.024 346.56 254.706 354.041 255.753C361.372 256.95 353.442 259.493 352.844 263.833Z" fill="#E0E1E2"/>
<path d="M293.444 445.774C300.177 438.592 317.084 422.583 323.368 416.897C329.652 411.062 353.742 377.845 364.814 367.671C375.886 357.496 382.619 349.866 384.564 325.178C386.509 300.49 394.738 294.355 397.581 279.842C401.92 269.668 402.22 258.446 400.873 246.177C399.377 233.908 402.07 232.711 400.275 231.514C401.621 226.726 408.803 210.566 406.409 196.801C401.472 191.714 385.611 197.699 385.611 197.699C385.611 197.699 393.99 173.609 400.125 163.285C406.259 152.961 417.182 131.416 411.796 110.169C406.409 88.9227 388.155 99.0971 381.721 106.728C375.287 114.209 367.208 138.747 362.869 145.63C358.53 152.513 341.323 174.956 331.897 188.721C322.47 202.487 310.052 225.08 306.61 227.623C303.169 230.017 293.144 229.569 291.199 222.836C289.254 216.103 288.805 206.975 292.845 194.856C296.885 182.737 300.625 169.719 300.326 168.373C300.027 167.026 310.052 164.931 317.383 145.929C326.959 133.51 328.306 112.264 321.872 110.169C321.573 105.381 306.012 91.7656 292.845 109.571C290.9 111.516 287.758 116.154 287.758 116.154C287.758 116.154 286.86 107.775 282.97 103.137C279.08 98.6482 263.369 98.0497 258.731 107.626C252.147 108.673 240.776 118.997 239.43 120.942C237.784 116.304 232.996 113.162 230.452 111.217C228.507 106.728 222.522 104.932 219.829 105.98C217.136 107.027 211.45 115.556 209.505 119.446C205.764 122.139 193.944 137.7 186.612 151.914C179.281 166.128 175.69 178.846 173.446 181.689C171.201 184.532 167.012 189.769 163.271 217.299C159.381 244.83 161.925 255.902 156.389 271.613C150.853 287.323 153.396 308.121 153.845 325.776C154.294 343.282 155.192 370.813 152.798 386.075C150.553 401.336 141.127 433.355 132 445.924" stroke="#808285" stroke-width="2" stroke-miterlimit="10"/>
<path d="M183.172 241.09C185.267 224.482 188.109 177.201 193.047 164.334C197.985 151.466 205.167 153.561 215.939 141.441C226.712 129.322 230.752 133.81 239.58 120.644" stroke="#808285" stroke-width="2" stroke-miterlimit="10"/>
<path d="M227.759 232.562C231.799 221.34 238.681 184.233 241.075 172.114C243.469 159.994 249.305 144.284 261.424 139.496C270.252 132.314 277.583 128.723 280.725 127.526C282.072 123.786 287.907 115.855 287.907 115.855" stroke="#808285" stroke-width="2" stroke-miterlimit="10"/>
<g opacity="0.5">
<path d="M401.92 197.549C400.574 198.596 399.227 199.644 397.88 200.841C396.683 202.038 395.486 203.235 394.589 204.731C392.644 207.424 391.147 210.566 390.399 213.858C389.651 217.149 389.651 220.591 390.698 223.733C391.746 226.875 393.841 229.718 396.833 231.513C395.187 230.915 393.841 229.867 392.494 228.521C391.297 227.174 390.25 225.678 389.651 224.032C388.903 222.386 388.604 220.591 388.454 218.795C388.454 217 388.454 215.204 388.903 213.409C389.651 209.968 391.297 206.676 393.541 203.983C395.935 201.289 398.778 199.045 401.92 197.549Z" fill="#AEB0B2"/>
</g>
<g opacity="0.5">
<path d="M409.401 113.911C408.204 117.053 406.109 120.046 403.267 122.141C401.77 123.188 400.124 123.936 398.329 124.235C396.534 124.535 394.738 124.385 392.943 123.936C389.501 122.889 386.359 120.794 384.863 117.502C384.115 115.856 383.816 114.061 383.965 112.265C384.115 110.47 384.863 108.824 385.761 107.478C384.414 110.62 384.264 114.211 385.91 116.904C387.556 119.747 390.399 121.542 393.391 122.44C396.533 123.487 399.825 122.889 402.518 121.243C403.865 120.345 405.212 119.298 406.259 118.101C407.456 116.754 408.503 115.408 409.401 113.911Z" fill="#AEB0B2"/>
</g>
<path d="M339.826 293.757C339.826 285.677 346.41 254.855 353.891 255.902C361.372 256.949 353.292 259.493 352.843 263.832C352.245 268.321 349.552 275.503 348.504 278.196C347.457 280.889 343.866 284.181 344.764 290.315L339.826 293.757Z" stroke="#808285" stroke-width="2" stroke-miterlimit="10"/>
<path d="M349.851 258.596C355.088 251.115 381.422 208.921 385.611 197.549C389.801 186.178 393.99 173.46 400.125 163.136C406.259 152.812 417.182 131.266 411.796 110.02C406.409 88.7733 388.155 98.9477 381.721 106.578C375.287 114.06 367.208 138.598 362.869 145.481C358.53 152.363 341.323 174.807 331.897 188.572C322.47 202.337 310.052 224.93 306.61 227.474" stroke="#2969D0" stroke-width="3" stroke-miterlimit="10" stroke-linecap="round"/>
</svg>
