<svg width="900" height="500" viewBox="0 0 900 500" fill="none" xmlns="http://www.w3.org/2000/svg">
<path opacity="0.33" d="M350.977 429.161C356.313 422.383 372.176 398.876 377.224 391.088C382.271 383.301 393.664 356.765 398.423 350.708C403.182 344.651 408.951 337.008 406.355 319.125C403.904 301.243 401.74 295.042 403.183 269.516C404.625 243.99 400.154 238.942 394.241 226.684C393.087 219.329 391.213 217.31 388.473 215.147C388.905 210.099 391.501 190.053 393.087 179.814C394.818 169.575 391.357 172.748 393.087 150.971C394.818 129.195 388.905 113.764 385.156 109.293C384.579 104.967 380.397 100.063 372.753 98.4771C365.254 96.7465 358.332 103.669 358.332 106.697C355.88 107.563 348.093 118.234 351.986 153.134C343.478 173.469 338.142 194.38 336.988 201.446C335.69 208.513 329.921 240.384 327.614 239.086C325.307 237.788 334.536 207.359 337.276 188.467C340.016 169.575 342.901 156.451 344.631 147.51C346.362 138.569 346.506 109.293 336.7 105.688C334.392 98.3329 327.326 96.4581 320.836 96.0254C314.346 95.5928 308.866 100.784 308.722 103.813C305.838 104.823 302.809 118.811 304.107 138.28C297.617 145.203 288.82 167.123 279.014 215.291C279.014 215.291 282.186 168.421 288.243 149.241C294.445 130.06 298.915 122.561 295.31 111.889C297.041 106.842 292.281 103.092 285.792 101.073C279.302 99.0539 271.947 102.515 270.505 106.553C265.313 107.418 256.66 122.849 252.911 135.108C245.989 147.366 237.768 168.998 234.596 181.256C231.423 193.514 229.981 238.365 228.106 241.394C226.231 244.422 222.914 244.711 220.318 241.826C217.723 238.942 217.001 238.077 216.28 232.741C215.559 227.261 214.261 217.743 212.675 210.676C211.233 203.609 209.502 189.621 210.079 184.429C210.656 179.237 217.29 170.007 216.569 157.893C215.848 145.779 208.204 141.165 206.185 139.578C204.166 138.136 201.859 134.675 194.937 136.55C188.014 138.425 184.697 154.288 184.697 154.288C184.697 154.288 175.9 171.45 174.458 175.343C173.016 179.237 173.304 183.996 171.862 190.342C170.42 196.687 172.295 203.033 170.132 209.378C168.113 215.724 168.978 226.107 171.285 234.76C173.593 243.413 171.862 243.845 173.737 250.479C175.612 256.969 179.361 265.91 180.659 272.111C181.957 278.313 181.525 292.013 182.39 302.685C183.255 313.357 188.159 319.27 189.456 333.258C190.754 347.247 193.494 386.185 195.369 397.434C197.244 408.683 198.398 412.144 192.773 429.45H350.977V429.161Z" fill="#E0E1E2"/>
<path d="M350.977 429.161C356.313 422.383 372.176 398.876 377.224 391.088C382.271 383.301 393.664 356.765 398.423 350.708C403.182 344.651 408.951 337.008 406.355 319.125C403.904 301.243 401.74 295.042 403.183 269.516C404.625 243.99 400.154 238.942 394.241 226.684C393.087 219.329 391.213 217.31 388.473 215.147C388.905 210.099 391.501 190.053 393.087 179.814C394.818 169.575 391.357 172.748 393.087 150.971C394.818 129.195 388.905 113.764 385.156 109.293C384.579 104.967 380.397 100.063 372.753 98.4771C365.254 96.7465 358.332 103.669 358.332 106.697C355.88 107.563 348.093 118.234 351.986 153.134C343.478 173.469 338.142 194.38 336.988 201.446C335.69 208.513 329.921 240.384 327.614 239.086C325.307 237.788 334.536 207.359 337.276 188.467C340.016 169.575 342.901 156.451 344.631 147.51C346.362 138.569 346.506 109.293 336.7 105.688C334.392 98.3329 327.326 96.4581 320.836 96.0254C314.346 95.5928 308.866 100.784 308.722 103.813C305.838 104.823 302.809 118.811 304.107 138.28C297.617 145.203 288.82 167.123 279.014 215.291C279.014 215.291 282.186 168.421 288.243 149.241C294.445 130.06 298.915 122.561 295.31 111.889C297.041 106.842 292.281 103.092 285.792 101.073C279.302 99.0539 271.947 102.515 270.505 106.553C265.313 107.418 256.66 122.849 252.911 135.108C245.989 147.366 237.768 168.998 234.596 181.256C231.423 193.514 229.981 238.365 228.106 241.394C226.231 244.422 222.914 244.711 220.318 241.826C217.723 238.942 217.001 238.077 216.28 232.741C215.559 227.261 214.261 217.743 212.675 210.676C211.233 203.609 209.502 189.621 210.079 184.429C210.656 179.237 217.29 170.007 216.569 157.893C215.848 145.779 208.204 141.165 206.185 139.578C204.166 138.136 201.859 134.675 194.937 136.55C188.014 138.425 184.697 154.288 184.697 154.288C184.697 154.288 175.9 171.45 174.458 175.343C173.016 179.237 173.304 183.996 171.862 190.342C170.42 196.687 172.295 203.033 170.132 209.378C168.113 215.724 168.978 226.107 171.285 234.76C173.593 243.413 171.862 243.845 173.737 250.479C175.612 256.969 179.361 265.91 180.659 272.111C181.957 278.313 181.525 292.013 182.39 302.685C183.255 313.357 188.159 319.27 189.456 333.258C190.754 347.247 193.494 386.185 195.369 397.434C197.244 408.683 198.398 412.144 192.773 429.45" stroke="#75819C" stroke-width="2" stroke-miterlimit="10"/>
<path d="M220.462 241.539C217.866 238.511 217.145 237.789 216.424 232.454C215.703 226.973 214.405 217.455 212.819 210.389C211.376 203.322 209.646 189.333 210.223 184.142C210.8 178.95 217.433 169.72 216.712 157.606C215.991 145.492 208.348 140.877 206.329 139.291C204.31 137.849 202.002 134.388 195.08 136.262C188.158 138.137 184.841 154.001 184.841 154.001C184.841 154.001 176.044 171.162 174.602 175.056C173.16 178.95 173.448 183.709 172.006 190.054C170.564 196.4 172.438 202.745 170.275 209.091C168.256 215.436 169.122 225.82 171.429 234.473C173.736 243.125 172.006 243.558 173.881 250.192C175.755 256.682 179.505 265.623 180.803 271.824" stroke="#F69AED" stroke-width="3" stroke-miterlimit="10" stroke-linecap="round"/>
<g opacity="0.5">
<path d="M188.159 155.298C189.89 154.865 191.765 154.865 193.495 154.433C195.226 154 196.668 153.279 197.966 152.125C199.264 151.116 200.562 149.818 201.715 148.376C202.292 147.655 202.869 146.933 203.446 146.357C204.023 145.636 204.455 144.914 205.176 144.193C204.888 145.059 204.455 145.924 204.023 146.789C203.59 147.655 203.157 148.376 202.581 149.241C201.571 150.827 200.273 152.269 198.831 153.423C197.389 154.577 195.514 155.442 193.639 155.586C191.765 155.875 190.034 155.298 188.159 155.298Z" fill="#75819C"/>
</g>
<path d="M378.81 291.581C378.522 280.909 377.079 261.007 378.81 249.037C380.541 237.212 388.617 215.291 388.617 215.291" stroke="#75819C" stroke-width="2" stroke-miterlimit="10"/>
<path d="M271.658 238.798C274.687 232.164 278.436 222.79 279.013 215.146" stroke="#75819C" stroke-width="2" stroke-miterlimit="10"/>
<path opacity="0.33" d="M539.392 430.596C537.801 427.124 535.342 420.904 531.87 416.419C528.254 411.935 524.637 408.463 521.6 406.149C521.6 406.149 516.392 401.375 506.7 391.828C501.637 386.909 502.216 387.199 491.222 375.915C476.611 361.016 477.335 362.173 472.272 356.676C466.196 350.022 464.605 347.707 459.108 342.355C452.02 335.556 449.705 333.386 449.705 333.386C445.51 329.481 444.642 329.047 443.196 327.021C439.868 322.537 438.567 318.053 437.988 315.738C436.975 311.543 437.265 310.096 436.831 303.442C436.686 302.43 436.252 296.354 435.095 289.7C433.937 283.48 432.491 275.089 428.73 266.989C428.151 265.542 426.849 262.938 425.837 259.033C425.113 255.85 424.824 253.102 424.679 251.221C423.378 249.341 422.799 247.605 422.365 246.592C422.076 245.579 422.076 245.29 421.208 240.372C420.774 237.334 420.774 237.479 420.629 236.611C420.484 235.598 420.05 232.85 420.05 230.68C419.906 227.931 420.34 225.906 420.774 223.302C421.931 215.925 422.654 209.56 422.799 205.943C422.944 203.05 423.088 200.591 423.088 198.711C421.642 193.792 420.34 189.742 419.327 186.993C417.881 182.798 416.868 180.194 416.289 176.289C416 173.685 416 171.66 416 170.068C416.579 169.634 417.157 169.2 418.025 168.766C418.604 168.477 419.182 168.188 419.616 168.043C420.629 167.32 421.931 166.597 423.811 165.873C427.717 164.427 431.189 164.861 432.636 165.005C438.277 165.584 442.328 168.477 445.221 170.647C452.02 175.565 455.491 181.496 458.095 185.836C460.988 190.899 462.58 195.094 464.026 199.434C465.473 203.629 466.63 207.679 467.353 212.019C468.077 216.793 468.077 219.252 467.787 220.988C467.498 223.881 466.775 226.051 466.051 227.642C466.775 228.51 467.787 229.667 468.945 231.403C470.391 233.718 470.825 235.019 473.284 241.674C475.02 246.447 475.02 246.447 476.177 249.485C477.19 252.234 477.913 254.548 478.492 256.429C478.492 252.523 478.347 247.026 478.203 240.661C478.058 233.862 477.769 226.774 477.19 219.252C476.611 212.887 476.177 209.849 473.284 191.188C472.561 185.981 471.259 177.591 469.668 166.886C469.378 165.729 469.089 163.993 469.089 161.968C468.945 158.351 469.812 155.458 470.536 152.999C472.706 146.055 475.454 139.546 476.901 136.219C476.901 134.338 477.19 131.734 477.913 128.841C478.203 127.684 478.492 125.948 479.36 124.067C480.083 122.042 481.53 119.149 483.989 116.111C484.567 114.809 485.435 113.218 486.593 111.482C488.039 109.457 490.064 106.564 493.826 104.394C499.033 101.501 504.096 101.935 505.977 102.224C508.436 102.514 510.461 103.092 511.908 103.671C510.895 97.1612 510.461 91.6643 510.316 87.6139C510.172 82.1169 510.027 77.9218 511.04 72.5695C511.763 68.9531 512.486 65.0474 515.09 60.7076C516.681 57.9592 518.851 54.4874 523.046 52.3175C527.241 50.2923 531.292 50.7263 532.738 50.871C539.682 51.7389 543.877 56.2233 545.323 57.8145C548.94 61.7202 550.242 65.9153 550.965 68.0851C551.833 70.8336 552.122 73.1481 552.267 74.884C552.846 77.3432 553.424 80.0917 553.858 82.8402C554.581 87.4692 554.871 91.6643 555.015 95.57C555.883 98.7525 556.751 101.79 557.619 104.973C558.921 109.746 560.223 114.52 561.525 119.294C563.261 124.791 564.997 130.577 566.588 136.653C567.456 139.98 568.179 143.307 568.903 146.489C570.783 154.735 571.94 161.244 572.664 165.729C573.098 168.333 573.821 173.251 575.267 179.905C575.846 182.364 576.28 184.245 576.714 185.691C577.003 181.641 577.293 175.855 577.437 168.622C577.582 162.112 577.582 158.785 577.293 155.313C576.714 149.238 576.135 141.86 572.519 133.615C571.217 130.866 570.349 129.42 567.745 123.344C566.443 120.162 565.141 116.111 564.852 113.074C564.418 109.891 565.286 106.998 566.877 105.262C567.601 104.394 567.89 98.3185 576.135 95.2807C582.066 93.1108 593.494 93.6895 606.947 113.507C607.671 114.665 607.815 115.822 608.105 116.545C608.683 117.413 609.551 118.57 610.564 120.017C613.312 123.923 615.193 126.671 617.218 129.709C619.677 133.759 621.558 136.942 623.149 141.716C624.017 144.609 624.451 146.779 624.885 149.816C625.463 153.433 626.042 158.496 626.042 164.716C625.897 172.094 625.753 179.471 625.463 186.993C625.319 191.478 625.174 195.962 624.885 200.302C625.753 186.704 626.621 173.106 627.489 159.508C627.923 154.735 627.923 149.238 627.055 143.018C626.765 140.703 626.331 138.678 625.897 136.653C625.03 135.206 623.728 132.892 622.281 130.143C618.375 122.187 616.495 116.545 616.639 111.048C616.784 105.117 619.243 101.79 619.677 101.212C619.966 100.633 620.256 100.199 620.545 99.7651C620.834 99.0418 621.268 98.0292 621.992 96.8719C622.281 96.5826 624.162 93.8341 627.344 92.9662C631.25 91.8089 634.722 93.8341 637.181 95.136C639.929 96.7273 641.81 98.7525 645.426 102.803C648.609 106.419 650.923 109.602 652.514 111.772C654.54 114.665 656.565 117.703 658.445 121.464C659.892 124.646 660.326 126.527 662.351 133.759C665.823 146.779 665.534 144.753 667.269 151.842C669.439 160.376 670.597 164.716 670.886 167.899C671.175 170.792 671.609 173.685 670.307 186.559C668.137 210.717 666.546 211.296 667.125 220.843C667.414 225.472 667.848 226.629 668.861 237.913C669.729 248.473 669.729 251.8 669.729 252.957C669.729 254.403 669.584 261.058 668.282 269.448C667.559 274.077 667.269 274.511 666.835 278.127C666.257 283.19 666.546 285.794 666.546 291.436C666.546 298.813 666.546 303.732 665.823 309.663C664.955 316.895 664.376 316.895 663.219 324.562C654.974 377.507 682.892 419.168 687.666 430.596C638.627 430.74 589.01 430.596 539.392 430.596Z" fill="#E0E1E2"/>
<g opacity="0.5">
<path d="M517.693 64.4688C517.983 65.7707 518.561 67.0726 519.429 67.9405C519.863 68.3745 520.442 68.6638 521.02 68.8085C521.599 68.9531 522.178 68.9531 522.901 68.9531C525.65 69.0978 528.253 69.0978 531.002 69.0978C533.75 69.0978 536.499 68.9531 539.103 68.9531C540.405 68.9531 541.706 68.6638 542.719 67.9405C543.732 67.2172 544.455 66.06 545.034 64.7581C544.744 66.06 544.166 67.3619 543.153 68.5192C542.574 68.9531 541.996 69.3871 541.272 69.6764C540.549 69.9657 539.826 70.1104 539.103 70.1104C536.354 70.255 533.606 70.3997 530.857 70.5443C528.109 70.5443 525.36 70.3997 522.612 70.1104L521.599 69.9657C521.165 69.9657 520.876 69.8211 520.442 69.6764C519.719 69.3871 519.14 68.9531 518.706 68.3745C517.983 67.3619 517.693 65.9153 517.693 64.4688Z" fill="#75819C"/>
</g>
<path d="M539.392 430.596C537.801 427.124 535.342 420.904 531.87 416.42C528.254 411.935 524.637 408.464 521.6 406.149C521.6 406.149 516.392 401.375 506.7 391.828C501.637 386.91 502.216 387.199 491.222 375.916C476.611 361.016 477.335 362.173 472.272 356.676C466.196 350.022 464.605 347.708 459.108 342.355C452.02 335.556 449.705 333.387 449.705 333.387C445.51 329.481 444.642 329.047 443.196 327.022C439.868 322.537 438.567 318.053 437.988 315.738C436.975 311.543 437.265 310.097 436.831 303.443C436.686 302.43 436.252 296.354 435.095 289.7C433.937 283.48 432.491 275.09 428.73 266.989C428.151 265.542 426.849 262.939 425.837 259.033C425.113 255.85 424.824 253.102 424.679 251.221C423.378 249.341 422.799 247.605 422.365 246.592C422.076 245.58 422.076 245.29 421.208 240.372C420.774 237.334 420.774 237.479 420.629 236.611C420.484 235.598 420.05 232.85 420.05 230.68C419.906 227.932 420.34 225.906 420.774 223.303C421.931 215.925 422.654 209.56 422.799 205.944C422.944 203.051 423.088 200.591 423.088 198.711C421.642 193.793 420.34 189.742 419.327 186.994C417.881 182.799 416.868 180.195 416.289 176.289C416 173.685 416 171.66 416 170.069C416.579 169.635 417.157 169.201 418.025 168.767C418.604 168.478 419.182 168.188 419.616 168.044C420.629 167.32 421.931 166.597 423.811 165.874C427.717 164.427 431.189 164.861 432.636 165.006C438.277 165.584 442.328 168.478 445.221 170.647C452.02 175.566 455.491 181.497 458.095 185.836C460.988 190.899 462.58 195.094 464.026 199.434C465.473 203.629 466.63 207.68 467.353 212.019C468.077 216.793 468.077 219.252 467.787 220.988C467.498 223.881 466.775 226.051 466.051 227.642C466.775 228.51 467.787 229.667 468.945 231.403C470.391 233.718 470.825 235.02 473.284 241.674C475.02 246.448 475.02 246.448 476.177 249.486C477.19 252.234 477.913 254.548 478.492 256.429C478.492 252.523 478.347 247.026 478.203 240.661C478.058 233.863 477.769 226.774 477.19 219.252C476.611 212.887 476.177 209.849 473.284 191.189C472.561 185.981 471.259 177.591 469.668 166.886C469.378 165.729 469.089 163.993 469.089 161.968C468.945 158.352 469.812 155.458 470.536 152.999C472.706 146.056 475.454 139.546 476.901 136.219C476.901 134.338 477.19 131.735 477.913 128.841C478.203 127.684 478.492 125.948 479.36 124.068C480.083 122.043 481.53 119.149 483.989 116.112C484.567 114.81 485.435 113.219 486.593 111.483C488.039 109.457 490.064 106.564 493.826 104.394C499.033 101.501 504.096 101.935 505.977 102.225C508.436 102.514 510.461 103.093 511.908 103.671" stroke="#75819C" stroke-width="2" stroke-miterlimit="10"/>
<path d="M577.004 185.546C577.294 181.496 577.583 175.709 577.728 168.476C577.872 161.967 577.872 158.64 577.583 155.168C577.004 149.092 576.426 141.715 572.809 133.469C571.507 130.721 570.64 129.274 568.036 123.199C566.734 120.016 565.432 115.966 565.143 112.928C564.709 109.746 565.577 106.853 567.168 105.117C567.891 104.249 568.18 98.1731 576.426 95.1353C582.357 92.9654 593.785 93.5441 607.238 113.362C607.961 114.519 608.106 115.677 608.395 116.4C608.974 117.268 609.842 118.425 610.854 119.872C613.603 123.777 615.483 126.526 617.508 129.564C619.968 133.614 621.848 136.797 623.439 141.57C624.307 144.463 624.741 146.633 625.175 149.671C625.754 153.287 626.333 158.35 626.333 164.571C626.188 171.948 626.043 179.326 625.754 186.848C625.609 191.332 625.465 195.817 625.175 200.156C626.043 186.559 627.924 172.382 628.792 158.784C629.226 154.011 629.081 150.539 628.213 144.463C627.924 142.149 626.766 138.532 626.333 136.507C625.465 135.061 624.163 132.746 622.716 129.998C618.81 122.042 616.93 116.4 617.074 110.903C617.219 104.972 619.678 101.645 620.112 101.066C620.402 100.488 620.691 100.054 620.98 99.6197C621.27 98.8964 621.704 97.8838 622.427 96.7265C622.716 96.4372 624.597 93.6887 627.779 92.8208C631.685 91.6635 635.157 93.6887 637.616 94.9906C640.364 96.5819 642.245 98.6071 645.861 102.657C649.044 106.274 651.358 109.456 652.949 111.626C654.975 114.519 657 117.557 658.88 121.318C660.327 124.501 660.761 126.381 662.786 133.614C666.258 146.633 665.969 144.608 667.704 151.696C669.874 160.231 671.032 164.571 671.321 167.753C671.61 170.646 672.044 173.539 670.742 186.414C668.572 210.572 666.981 211.15 667.56 220.698C667.849 225.327 668.283 226.484 669.296 237.767C670.164 248.327 670.164 251.654 670.164 252.812C670.164 254.258 670.019 260.912 668.717 269.302C667.994 273.931 667.704 274.365 667.271 277.982C666.692 283.045 666.981 285.649 666.981 291.29C666.981 298.668 666.981 303.586 666.258 309.517C665.39 316.75 664.811 316.75 663.654 324.417C655.409 377.361 683.327 419.023 688.101 430.451" stroke="#75819C" stroke-width="2" stroke-miterlimit="10"/>
<path d="M585.682 208.258C580.041 200.302 577.003 185.547 577.003 185.547C576.714 184.245 576.135 182.22 575.556 179.761C573.965 173.106 573.242 168.188 572.952 165.584C572.229 161.1 571.072 154.735 569.191 146.345C568.468 143.162 567.745 139.835 566.877 136.508C565.286 130.432 563.55 124.646 561.814 119.149C560.512 114.376 559.21 109.602 557.908 104.828C557.04 101.646 556.172 98.4633 555.304 95.4255C555.16 91.5197 554.87 87.3247 554.147 82.6957C553.713 79.8025 553.134 77.1987 552.556 74.7395C552.411 73.0036 552.122 70.6891 551.254 67.9406C550.531 65.6261 549.229 61.4311 545.612 57.67C544.166 56.0787 539.971 51.5944 533.027 50.7264C531.58 50.5818 527.675 50.1478 523.335 52.173C518.995 54.3429 516.97 57.8146 515.379 60.5631C512.775 64.9028 512.052 68.6639 511.329 72.425C510.316 77.922 510.461 81.9724 510.605 87.4693C510.75 91.5197 511.039 97.0167 512.196 103.526V104.105C513.064 107.866 514.945 113.363 514.511 119.873C513.643 133.181 526.662 191.622 527.964 206.667C528.398 212.019 528.687 215.78 529.845 223.447" stroke="#F69AED" stroke-width="3" stroke-miterlimit="10" stroke-linecap="round"/>
<g opacity="0.5">
<path d="M426.56 198.566C427.717 197.987 428.73 196.83 429.309 195.673C429.453 195.383 429.598 195.094 429.598 194.805C429.743 194.515 429.598 194.226 429.598 193.937C429.598 193.213 429.598 192.635 429.453 191.911C429.164 189.163 428.875 186.559 428.441 183.811C428.007 181.062 427.573 178.458 426.994 175.71C426.849 175.421 426.849 174.987 426.705 174.697C426.56 174.408 426.56 174.263 426.271 173.829C425.981 173.251 425.548 172.817 424.969 172.383C423.956 171.515 422.799 170.792 421.497 170.213C422.799 170.502 424.246 170.936 425.403 171.804C425.981 172.238 426.56 172.672 426.994 173.251C427.283 173.54 427.428 173.974 427.573 174.263C427.717 174.553 427.862 174.987 427.862 175.276C428.73 178.024 429.164 180.628 429.598 183.377C430.032 186.125 430.321 188.874 430.321 191.622C430.321 192.345 430.321 193.069 430.321 193.792C430.321 194.081 430.321 194.515 430.176 194.949C430.032 195.383 429.887 195.673 429.598 195.962C429.164 196.54 428.585 196.974 428.151 197.408C427.862 198.132 427.283 198.566 426.56 198.566Z" fill="#75819C"/>
</g>
</svg>
