<svg width="900" height="500" viewBox="0 0 900 500" fill="none" xmlns="http://www.w3.org/2000/svg">
<path opacity="0.33" d="M350.977 429.161C356.313 422.383 372.176 398.876 377.224 391.088C382.271 383.301 393.664 356.765 398.423 350.708C403.182 344.651 408.951 337.008 406.355 319.125C403.904 301.243 401.74 295.042 403.183 269.516C404.625 243.99 400.154 238.942 394.241 226.684C393.087 219.329 391.213 217.31 388.473 215.147C388.905 210.099 391.501 190.053 393.087 179.814C394.818 169.575 391.357 172.748 393.087 150.971C394.818 129.195 388.905 113.764 385.156 109.293C384.579 104.967 380.397 100.063 372.753 98.4771C365.254 96.7465 358.332 103.669 358.332 106.697C355.88 107.563 348.093 118.234 351.986 153.134C343.478 173.469 338.142 194.38 336.988 201.446C335.69 208.513 329.921 240.384 327.614 239.086C325.307 237.788 334.536 207.359 337.276 188.467C340.016 169.575 342.901 156.451 344.631 147.51C346.362 138.569 346.506 109.293 336.7 105.688C334.392 98.3329 327.326 96.4581 320.836 96.0254C314.346 95.5928 308.866 100.784 308.722 103.813C305.838 104.823 302.809 118.811 304.107 138.28C297.617 145.203 288.82 167.123 279.014 215.291C279.014 215.291 282.186 168.421 288.243 149.241C294.445 130.06 298.915 122.561 295.31 111.889C297.041 106.842 292.281 103.092 285.792 101.073C279.302 99.0539 271.947 102.515 270.505 106.553C265.313 107.418 256.66 122.849 252.911 135.108C245.989 147.366 237.768 168.998 234.596 181.256C231.423 193.514 229.981 238.365 228.106 241.394C226.231 244.422 222.914 244.711 220.318 241.826C217.723 238.942 217.001 238.077 216.28 232.741C215.559 227.261 214.261 217.743 212.675 210.676C211.233 203.609 209.502 189.621 210.079 184.429C210.656 179.237 217.29 170.007 216.569 157.893C215.848 145.779 208.204 141.165 206.185 139.578C204.166 138.136 201.859 134.675 194.937 136.55C188.014 138.425 184.697 154.288 184.697 154.288C184.697 154.288 175.9 171.45 174.458 175.343C173.016 179.237 173.304 183.996 171.862 190.342C170.42 196.687 172.295 203.033 170.132 209.378C168.113 215.724 168.978 226.107 171.285 234.76C173.593 243.413 171.862 243.845 173.737 250.479C175.612 256.969 179.361 265.91 180.659 272.111C181.957 278.313 181.525 292.013 182.39 302.685C183.255 313.357 188.159 319.27 189.456 333.258C190.754 347.247 193.494 386.185 195.369 397.434C197.244 408.683 198.398 412.144 192.773 429.45H350.977V429.161Z" fill="#697695"/>
<path d="M350.977 429.161C356.313 422.383 372.176 398.876 377.224 391.088C382.271 383.301 393.664 356.765 398.423 350.708C403.182 344.651 408.951 337.008 406.355 319.125C403.904 301.243 401.74 295.042 403.183 269.516C404.625 243.99 400.154 238.942 394.241 226.684C393.087 219.329 391.213 217.31 388.473 215.147C388.905 210.099 391.501 190.053 393.087 179.814C394.818 169.575 391.357 172.748 393.087 150.971C394.818 129.195 388.905 113.764 385.156 109.293C384.579 104.967 380.397 100.063 372.753 98.4771C365.254 96.7465 358.332 103.669 358.332 106.697C355.88 107.563 348.093 118.234 351.986 153.134C343.478 173.469 338.142 194.38 336.988 201.446C335.69 208.513 329.921 240.384 327.614 239.086C325.307 237.788 334.536 207.359 337.276 188.467C340.016 169.575 342.901 156.451 344.631 147.51C346.362 138.569 346.506 109.293 336.7 105.688C334.392 98.3329 327.326 96.4581 320.836 96.0254C314.346 95.5928 308.866 100.784 308.722 103.813C305.838 104.823 302.809 118.811 304.107 138.28C297.617 145.203 288.82 167.123 279.014 215.291C279.014 215.291 282.186 168.421 288.243 149.241C294.445 130.06 298.915 122.561 295.31 111.889C297.041 106.842 292.281 103.092 285.792 101.073C279.302 99.0539 271.947 102.515 270.505 106.553C265.313 107.418 256.66 122.849 252.911 135.108C245.989 147.366 237.768 168.998 234.596 181.256C231.423 193.514 229.981 238.365 228.106 241.394C226.231 244.422 222.914 244.711 220.318 241.826C217.723 238.942 217.001 238.077 216.28 232.741C215.559 227.261 214.261 217.743 212.675 210.676C211.233 203.609 209.502 189.621 210.079 184.429C210.656 179.237 217.29 170.007 216.569 157.893C215.848 145.779 208.204 141.165 206.185 139.578C204.166 138.136 201.859 134.675 194.937 136.55C188.014 138.425 184.697 154.288 184.697 154.288C184.697 154.288 175.9 171.45 174.458 175.343C173.016 179.237 173.304 183.996 171.862 190.342C170.42 196.687 172.295 203.033 170.132 209.378C168.113 215.724 168.978 226.107 171.285 234.76C173.593 243.413 171.862 243.845 173.737 250.479C175.612 256.969 179.361 265.91 180.659 272.111C181.957 278.313 181.525 292.013 182.39 302.685C183.255 313.357 188.159 319.27 189.456 333.258C190.754 347.247 193.494 386.185 195.369 397.434C197.244 408.683 198.398 412.144 192.773 429.45" stroke="#445272" stroke-width="2" stroke-miterlimit="10"/>
<path d="M220.462 241.539C217.866 238.511 217.145 237.789 216.424 232.454C215.703 226.973 214.405 217.455 212.819 210.389C211.376 203.322 209.646 189.333 210.223 184.142C210.8 178.95 217.433 169.72 216.712 157.606C215.991 145.492 208.348 140.877 206.329 139.291C204.31 137.849 202.002 134.388 195.08 136.262C188.158 138.137 184.841 154.001 184.841 154.001C184.841 154.001 176.044 171.162 174.602 175.056C173.16 178.95 173.448 183.709 172.006 190.054C170.564 196.4 172.438 202.745 170.275 209.091C168.256 215.436 169.122 225.82 171.429 234.473C173.736 243.125 172.006 243.558 173.881 250.192C175.755 256.682 179.505 265.623 180.803 271.824" stroke="#BA6DCD" stroke-width="3" stroke-miterlimit="10" stroke-linecap="round"/>
<g opacity="0.5">
<path d="M188.159 155.298C189.89 154.865 191.765 154.865 193.495 154.433C195.226 154 196.668 153.279 197.966 152.125C199.264 151.116 200.562 149.818 201.715 148.376C202.292 147.655 202.869 146.933 203.446 146.357C204.023 145.636 204.455 144.914 205.176 144.193C204.888 145.059 204.455 145.924 204.023 146.789C203.59 147.655 203.157 148.376 202.581 149.241C201.571 150.827 200.273 152.269 198.831 153.423C197.389 154.577 195.514 155.442 193.639 155.586C191.765 155.875 190.034 155.298 188.159 155.298Z" fill="#B1BBD0"/>
</g>
<path d="M378.81 291.581C378.522 280.909 377.079 261.007 378.81 249.037C380.541 237.212 388.617 215.291 388.617 215.291" stroke="#445272" stroke-width="2" stroke-miterlimit="10"/>
<path d="M271.658 238.798C274.687 232.164 278.436 222.79 279.013 215.146" stroke="#445272" stroke-width="2" stroke-miterlimit="10"/>
<path opacity="0.33" d="M673.042 428.999C667.476 419.437 661.768 411.731 656.773 405.594C654.204 402.455 646.212 393.036 634.082 382.618C629.943 379.05 625.377 375.34 618.669 371.201C612.247 367.205 606.682 364.779 603.114 363.209C598.262 361.211 552.024 343.515 542.747 340.09C533.757 336.808 528.191 335.381 522.482 329.958C519.2 326.818 517.059 323.393 516.346 322.252C513.634 317.97 512.778 314.688 510.923 308.694C510.923 308.694 508.925 302.558 505.643 293.995C500.077 279.438 496.795 275.443 493.798 266.737C493.512 265.881 492.799 263.598 491.229 260.743C489.516 257.461 487.947 255.748 486.948 254.179C483.951 250.04 482.952 246.044 481.239 239.337C479.099 230.774 480.668 230.489 478.528 225.351C476.387 220.356 473.39 216.789 471.678 214.791C468.681 211.223 465.256 208.226 463.971 207.084C459.833 203.374 457.121 201.804 456.265 198.236C456.122 197.38 455.837 195.953 456.122 194.24C457.121 188.104 464.399 184.821 466.683 183.822C473.533 180.826 479.955 181.682 483.094 182.11C490.515 183.252 495.51 186.391 500.79 189.674C500.79 189.674 511.066 196.096 520.199 208.511C522.054 210.937 523.339 213.221 524.338 215.647C525.337 218.073 525.765 220.356 526.05 221.783C528.904 225.066 531.188 227.92 532.9 230.061C542.034 241.763 544.46 247.757 545.602 251.324C545.602 251.467 545.602 252.323 546.172 253.037C546.743 253.893 547.457 254.179 548.17 254.607C548.884 255.035 550.026 255.606 551.31 256.605C551.881 252.609 551.881 249.327 551.881 247.186C551.595 241.906 550.596 240.621 550.168 234.199C549.883 229.49 550.311 229.204 549.883 226.35C549.312 223.068 548.17 221.07 546.172 216.931C539.037 202.946 538.894 202.66 537.752 200.948C537.182 200.091 536.04 198.379 530.189 191.814C523.481 184.251 516.774 174.689 514.776 171.407C512.35 167.696 509.781 165.556 509.068 164.557C501.932 153.853 498.222 143.15 495.653 133.874C493.512 126.167 493.94 112.753 495.51 107.044C497.508 99.6234 506.071 97.6254 506.784 97.4827C512.778 96.1983 517.63 98.339 519.628 99.3379C520.77 99.9088 526.336 102.62 529.618 108.471C529.618 108.471 529.618 108.471 531.759 113.609C534.042 119.032 535.041 121.458 536.325 124.312C536.896 125.454 537.324 126.453 537.467 127.024C538.609 127.452 540.179 128.165 542.177 129.164C546.886 131.59 549.74 134.017 554.021 137.584C559.302 142.008 563.583 145.719 567.293 148.573C571.432 151.855 574.857 154.424 577.141 155.994C576.57 151.427 575.713 147.717 575 144.863C573.858 140.581 572.431 134.873 568.863 128.451C566.865 124.74 564.867 122.029 563.298 120.031C562.441 120.031 561.3 120.031 559.873 119.888C559.016 119.746 554.878 119.46 551.881 118.747C550.311 118.318 543.461 116.463 539.75 110.184C539.18 109.042 537.467 105.903 537.61 101.621C538.038 95.0566 542.605 91.2035 543.604 90.4899C543.889 89.7763 544.174 88.7774 544.46 87.493C544.745 85.9232 544.745 84.7815 544.745 84.3534C544.745 81.4991 545.602 77.5032 546.172 75.3626C547.742 69.9396 551.595 66.5146 553.022 65.3729C554.878 63.8031 557.161 62.6614 561.585 60.378C566.009 58.0946 568.292 56.953 571.004 56.5248C572.574 56.2394 576.142 55.6686 580.566 56.8102C584.419 57.9519 586.988 59.9499 589.842 62.5187C592.696 64.9447 594.551 67.2281 595.836 68.7979C597.834 67.0854 599.689 65.6583 600.973 64.5166C605.254 61.2343 613.96 56.6675 615.958 55.3831C621.952 51.8154 627.517 50.9591 628.944 50.8164C631.941 50.3883 639.505 49.532 645.356 53.5279C646.64 54.3842 651.778 59.6645 653.491 63.3749C658.343 73.9355 665.478 89.9191 667.476 96.9119C669.76 105.474 670.473 112.61 670.616 112.61C670.759 112.61 669.189 105.474 669.76 96.341C669.902 93.3441 670.33 90.918 670.616 89.0628C670.188 87.493 669.617 85.0669 669.046 81.9273C667.762 74.9345 668.047 72.0803 666.477 67.3708C665.478 64.5166 665.336 65.2302 663.195 60.0926C661.054 54.955 659.77 51.9581 659.056 48.2476C658.485 45.108 657.629 39.9704 659.77 33.9766C661.625 28.9817 664.907 25.9848 667.048 23.9869C669.046 22.1316 670.473 20.8472 672.756 20.2764C676.752 19.2774 680.32 21.2754 681.034 21.7035C683.888 23.2733 685.172 25.414 687.028 28.5536C688.455 30.9797 690.31 34.6901 691.594 39.685C692.165 40.9694 693.021 42.8246 694.02 45.108C696.018 49.9602 697.16 52.3862 697.873 55.5259C698.302 57.0957 698.73 59.2363 698.872 62.0905C700.157 64.0885 701.727 66.8 703.011 69.9396C704.438 73.6501 705.152 76.9324 705.58 79.5012C706.436 80.7856 707.292 82.07 708.006 83.6398C709.861 87.0648 711.146 90.3472 712.002 93.2014C712.287 96.4837 714 110.897 714.285 112.467C714.999 117.605 715.141 121.03 715.712 136.443C715.998 143.578 716.14 147.289 717.425 150.999C718.852 154.852 721.278 160.275 721.706 161.988C721.992 162.987 722.134 164.414 722.562 167.125C722.991 169.98 724.988 178.114 725.702 179.541C729.698 188.96 732.409 198.807 736.12 208.226C739.688 217.074 746.68 236.625 761.95 284.005C763.378 287.002 765.518 291.283 768.087 296.564C771.94 304.841 773.938 308.979 775.936 314.117C779.932 324.249 778.219 323.679 782.073 333.811C784.499 340.09 785.355 341.232 791.634 355.36C792.776 358.072 793.775 361.925 796.486 366.634C798.627 370.63 800.768 373.056 801.909 374.626C806.476 380.62 811.043 390.753 820.034 410.732C821.461 414.014 822.602 416.583 823.316 418.153C823.459 421.578 823.601 425.003 823.601 428.428L673.042 428.999Z" fill="#697695"/>
<path d="M670.33 111.898C670.33 111.898 669.616 105.761 669.616 96.4853C669.616 93.4884 670.187 91.0623 670.472 89.2071C670.33 88.6362 670.187 87.9227 669.902 87.0664" stroke="#BA6DCD" stroke-width="3" stroke-miterlimit="10" stroke-linecap="round"/>
<path d="M717.425 151.285C718.852 155.138 721.278 160.561 721.706 162.274C721.992 163.273 722.134 164.7 722.562 167.411C722.991 170.266 724.988 178.4 725.702 179.827C729.698 189.246 732.409 199.093 736.12 208.512C739.688 217.36 746.68 236.911 761.95 284.291C763.378 287.288 765.518 291.569 768.087 296.85C771.94 305.127 773.938 309.266 775.936 314.403C779.932 324.536 778.219 323.965 782.073 334.097C784.499 340.376 785.355 341.518 791.634 355.646C792.776 358.358 793.775 362.211 796.486 366.921C798.627 370.916 800.768 373.342 801.909 374.912C806.476 380.906 811.043 391.039 820.034 411.018C821.461 414.3 822.602 416.869 823.316 418.439C823.459 421.864 823.601 425.289 823.601 428.714" stroke="#445272" stroke-width="2" stroke-miterlimit="10"/>
<path d="M673.042 429C667.476 419.438 661.768 411.732 656.773 405.595C654.204 402.456 646.212 393.037 634.082 382.619C629.943 379.051 625.377 375.341 618.669 371.202C612.247 367.206 606.682 364.78 603.114 363.21C598.262 361.213 552.024 343.516 542.747 340.091C533.757 336.809 528.191 335.382 522.482 329.959C519.2 326.819 517.059 323.394 516.346 322.253C513.634 317.971 512.778 314.689 510.923 308.695C510.923 308.695 508.925 302.559 505.643 293.996C500.077 279.439 496.795 275.444 493.798 266.738C493.512 265.882 492.799 263.599 491.229 260.744C489.516 257.462 487.947 255.75 486.948 254.18C483.951 250.041 482.952 246.045 481.239 239.338C479.099 230.775 480.668 230.49 478.528 225.352C476.387 220.357 473.39 216.79 471.678 214.792C468.681 211.224 465.256 208.227 463.971 207.085C459.833 203.375 457.121 201.805 456.265 198.237C456.122 197.381 455.837 195.954 456.122 194.241C457.121 188.105 464.399 184.822 466.683 183.823C473.533 180.827 479.955 181.683 483.094 182.111C490.515 183.253 495.51 186.392 500.79 189.675C500.79 189.675 511.066 196.097 520.199 208.512C522.054 210.938 523.339 213.222 524.338 215.648C525.337 218.074 525.765 220.357 526.05 221.784C528.904 225.067 531.188 227.921 532.9 230.062C542.034 241.764 544.46 247.758 545.602 251.326C545.602 251.468 545.602 252.324 546.172 253.038C546.743 253.894 547.457 254.18 548.17 254.608C548.884 255.036 550.026 255.607 551.31 256.606C551.881 252.61 551.881 249.328 551.881 247.187C551.595 241.907 550.596 240.622 550.168 234.2C549.883 229.491 550.311 229.205 549.883 226.351C549.312 223.069 548.17 221.071 546.172 216.932C539.037 202.947 538.894 202.661 537.752 200.949C537.182 200.092 536.468 198.095 530.189 191.815C523.481 185.108 518.201 177.544 514.776 171.408C514.063 170.123 509.781 165.557 509.068 164.558C501.932 153.854 498.222 143.151 495.653 133.875C493.512 126.169 493.94 112.754 495.51 107.045C497.508 99.6244 506.071 97.6264 506.784 97.4837C512.778 96.1993 517.63 98.34 519.628 99.339C520.77 99.9098 526.336 102.621 529.618 108.472C529.618 108.472 529.618 108.472 531.759 113.61C534.042 119.033 535.041 121.459 536.325 124.313C536.896 125.455 537.324 126.454 537.467 127.025C538.609 127.453 540.179 128.166 542.177 129.165C546.886 131.591 549.74 134.018 554.021 137.585C559.302 142.009 563.583 145.72 567.293 148.574C571.432 151.856 574.857 154.425 577.141 155.995C576.57 151.428 575.713 147.718 575 144.864C573.858 140.582 572.431 134.874 568.863 128.452C566.865 124.741 564.867 122.03 563.298 120.032C562.441 120.032 561.3 120.032 559.873 119.889C559.016 119.747 554.878 119.461 551.881 118.748C550.311 118.319 543.461 116.464 539.75 110.185C539.18 109.043 537.467 105.904 537.61 101.622C538.038 95.0576 542.605 91.2045 543.604 90.4909C543.889 89.7774 544.174 88.7784 544.46 87.494C544.745 85.9242 544.745 84.7825 544.745 84.3544C544.745 81.5002 545.602 77.5043 546.172 75.3636C547.742 69.9406 551.595 66.5156 553.022 65.3739C554.878 63.8041 557.161 62.6624 561.585 60.379C566.009 58.0957 568.292 56.954 571.004 56.5258C572.574 56.2404 576.142 55.6696 580.566 56.8113C584.419 57.9529 586.988 59.9509 589.842 62.5197C592.696 64.9458 594.551 67.2291 595.836 68.7989C597.834 67.0864 599.689 65.6593 600.973 64.5176C605.254 61.2353 613.96 56.6686 615.958 55.3842C621.952 51.8164 627.517 50.9601 628.944 50.8174C631.941 50.3893 639.505 49.533 645.356 53.5289C646.64 54.3852 651.778 59.6655 653.491 63.3759C658.343 73.9365 664.622 89.3492 666.477 96.342C668.761 104.905 669.331 113.895 669.331 113.895" stroke="#445272" stroke-width="2" stroke-miterlimit="10"/>
<path d="M630.085 123.599C627.659 120.174 624.377 115.321 620.666 109.328C618.526 105.903 615.671 101.336 612.104 95.0566C607.394 86.494 606.395 83.7825 602.399 77.9314C599.973 74.3636 597.69 71.6521 596.263 69.7969" stroke="#445272" stroke-width="2" stroke-miterlimit="10"/>
<path d="M549.312 99.1953C551.596 102.192 553.879 105.332 556.02 108.9C558.446 112.753 560.729 116.321 562.585 119.888" stroke="#445272" stroke-width="2" stroke-miterlimit="10"/>
<path d="M617.386 79.0742C618.242 84.2118 618.956 89.4921 619.669 94.9151C620.383 100.481 620.953 105.333 621.524 110.756" stroke="#445272" stroke-width="2" stroke-miterlimit="10"/>
<path d="M670.045 87.2073C669.759 85.7802 669.331 84.2104 669.046 82.2124C667.762 75.2196 668.047 72.3654 666.477 67.656C665.478 64.8018 665.335 65.5153 663.195 60.3777C661.054 55.2402 659.77 52.2432 659.056 48.5328C658.485 45.3932 657.629 40.2556 659.77 34.2617C661.625 29.2669 664.907 26.27 667.048 24.272C669.046 22.4168 670.473 21.1324 672.756 20.5615C676.752 19.5626 680.32 21.5605 681.034 21.9887C683.888 23.5585 685.172 25.6991 687.027 28.8388C688.455 31.2648 690.31 34.9753 691.594 39.9702C692.165 41.2545 693.021 43.1098 694.02 45.3932C696.018 50.2453 697.16 52.6714 697.873 55.811C698.302 57.3808 698.73 59.5215 698.872 62.3757C700.157 64.3736 701.727 67.0851 703.011 70.2248C704.438 73.9352 705.152 77.2176 705.58 79.7864C706.436 81.0708 707.292 82.3551 708.006 83.925C709.861 87.35 711.146 90.6323 712.002 93.4865C712.287 96.7689 714 111.183 714.285 112.752C714.999 117.89 715.141 121.315 715.712 136.728C715.998 143.863 716.14 147.574 717.425 151.284" stroke="#BA6DCD" stroke-width="3" stroke-miterlimit="10" stroke-linecap="round"/>
<g opacity="0.5">
<path d="M466.396 188.674C470.25 190.386 473.817 193.098 476.529 196.38C477.956 197.95 479.24 199.663 480.382 201.66C480.953 202.659 481.381 203.658 481.666 204.8C481.952 205.942 481.952 207.083 481.809 208.082V208.368L481.666 208.511C480.382 209.367 479.383 210.509 478.384 211.793C477.385 213.077 476.672 214.362 475.958 215.789C476.243 214.219 476.957 212.649 477.671 211.365C478.527 209.938 479.526 208.653 480.81 207.654L480.525 208.082C480.525 207.083 480.382 206.084 480.239 205.086C479.954 204.087 479.526 203.23 479.098 202.374C478.099 200.662 476.814 198.949 475.53 197.379C472.818 194.097 469.822 191.1 466.396 188.674Z" fill="#B1BBD0"/>
</g>
<g opacity="0.5">
<path d="M669.474 27.8398C670.044 28.9815 670.473 29.9805 671.043 31.1222C671.614 32.1212 672.185 33.2628 672.756 34.2618C673.898 36.4025 675.182 38.4004 676.466 40.2557L676.181 39.9702C678.036 40.8265 680.034 41.2546 682.175 41.54C684.316 41.6828 686.456 41.8255 688.454 41.3973C687.455 41.8255 686.456 42.1109 685.314 42.3963C684.173 42.539 683.174 42.6817 682.032 42.6817C679.892 42.6817 677.608 42.3963 675.467 41.3973L675.325 41.2546L675.182 41.1119C672.471 37.116 670.473 32.5493 669.474 27.8398Z" fill="#B1BBD0"/>
</g>
</svg>
