<svg width="900" height="500" viewBox="0 0 900 500" fill="none" xmlns="http://www.w3.org/2000/svg">
<path opacity="0.33" d="M327.41 430.327C329.284 428.02 337.356 419.659 346.15 410.865C354.943 402.072 372.963 371.078 378.297 364.88C383.631 358.681 397.758 343.4 401.218 335.76C404.677 328.12 400.929 303.613 401.218 295.973C401.506 288.333 405.11 251.861 402.659 242.347C400.209 232.832 396.316 228.94 393.145 222.309C389.973 215.678 389.397 213.66 386.514 211.641C383.631 209.623 385.36 192.324 385.937 189.874C386.514 187.423 388.532 176.323 388.532 172.431C388.532 168.539 388.532 157.439 391.559 149.222C394.586 141.005 392.568 116.354 387.379 108.57C382.189 100.785 378.008 98.9111 371.81 98.4786C365.611 98.0461 358.836 104.101 357.106 107.849C355.376 111.597 353.069 115.057 350.475 145.618C346.871 153.835 339.951 161.042 336.924 170.989C333.897 180.936 325.824 206.019 323.95 216.398C322.076 226.778 311.408 240.905 315.733 233.265C320.058 225.769 319.625 207.317 327.698 182.81C335.771 158.303 334.762 159.889 334.762 158.592C334.762 157.294 339.519 152.826 341.104 142.158C344.132 137.257 350.042 112.894 339.086 105.831C338.942 100.785 335.627 97.3254 326.545 95.8838C317.463 94.4422 314.147 96.7487 312.129 102.371C308.813 103.236 303.768 115.489 302.903 125.58C300.452 127.022 288.632 138.987 286.325 143.455C284.019 147.924 277.532 170.413 276.234 176.179C274.937 181.945 266.576 217.984 264.269 221.3C261.963 224.615 260.954 226.922 262.828 219.858C264.702 212.795 273.351 170.268 277.099 162.628C280.847 154.988 281.28 148.645 291.659 133.797C302.038 118.949 300.597 111.741 298.723 106.984C296.848 102.227 295.407 98.1903 286.613 96.7487C277.82 95.3072 272.774 102.659 272.774 102.659C272.774 102.659 267.441 104.245 254.611 118.084C251.872 112.75 248.124 108.714 248.124 108.714C248.124 108.714 245.385 102.947 237.6 101.794C229.816 100.641 226.644 109.002 226.212 112.029C223.617 112.029 218.283 123.994 216.409 135.959C214.535 148.068 211.508 165.367 208.336 175.602C205.165 185.837 203.147 194.343 202.426 201.839C201.705 209.335 197.669 219.858 196.948 229.661C196.227 239.464 184.839 267.574 184.262 276.512C183.542 285.449 183.974 316.011 183.109 323.074C182.244 330.138 180.947 353.924 183.109 367.619C185.271 381.169 184.262 393.711 181.956 400.486C179.649 407.261 171 429.75 171 429.75H327.41V430.327Z" fill="#445272"/>
<path d="M327.41 430.327C329.284 428.02 337.356 419.659 346.15 410.865C354.943 402.072 372.963 371.078 378.297 364.88C383.631 358.681 397.758 343.4 401.218 335.76C404.677 328.12 400.929 303.613 401.218 295.973C401.506 288.333 405.11 251.861 402.659 242.347C400.209 232.832 396.316 228.94 393.145 222.309C389.973 215.678 389.397 213.66 386.514 211.641C383.631 209.623 385.36 192.324 385.937 189.874C386.514 187.423 388.532 176.323 388.532 172.431C388.532 168.539 388.532 157.439 391.559 149.222C394.586 141.005 392.568 116.354 387.379 108.57C382.189 100.785 378.008 98.9111 371.81 98.4786C365.611 98.0461 358.836 104.101 357.106 107.849C355.376 111.597 353.069 115.057 350.475 145.618C346.871 153.835 339.951 161.042 336.924 170.989C333.897 180.936 325.824 206.019 323.95 216.398C322.076 226.778 311.408 240.905 315.733 233.265C320.058 225.769 319.625 207.317 327.698 182.81C335.771 158.303 334.762 159.889 334.762 158.592C334.762 157.294 339.519 152.826 341.104 142.158C344.132 137.257 350.042 112.894 339.086 105.831C338.942 100.785 335.627 97.3254 326.545 95.8838C317.463 94.4422 314.147 96.7487 312.129 102.371C308.813 103.236 303.768 115.489 302.903 125.58C300.452 127.022 288.632 138.987 286.325 143.455C284.019 147.924 277.532 170.413 276.234 176.179C274.937 181.945 266.576 217.984 264.269 221.3C261.963 224.615 260.954 226.922 262.828 219.858C264.702 212.795 273.351 170.268 277.099 162.628C280.847 154.988 281.28 148.645 291.659 133.797C302.038 118.949 300.597 111.741 298.723 106.984C296.848 102.227 295.407 98.1903 286.613 96.7487C277.82 95.3072 272.774 102.659 272.774 102.659C272.774 102.659 267.441 104.245 254.611 118.084C251.872 112.75 248.124 108.714 248.124 108.714C248.124 108.714 245.385 102.947 237.6 101.794C229.816 100.641 226.644 109.002 226.212 112.029C223.617 112.029 218.283 123.994 216.409 135.959C214.535 148.068 211.508 165.367 208.336 175.602C205.165 185.837 203.147 194.343 202.426 201.839C201.705 209.335 197.669 219.858 196.948 229.661C196.227 239.464 184.839 267.574 184.262 276.512C183.542 285.449 183.974 316.011 183.109 323.074C182.244 330.138 180.947 353.924 183.109 367.619C185.271 381.169 184.262 393.711 181.956 400.486C179.649 407.261 171 429.75 171 429.75" stroke="#697695" stroke-width="2" stroke-miterlimit="10"/>
<path d="M212.805 225.912C216.841 221.588 220.157 214.957 220.445 208.037C220.733 201.118 220.012 165.223 229.094 151.528C238.176 137.833 254.754 118.66 254.754 118.66" stroke="#697695" stroke-width="2" stroke-miterlimit="10"/>
<path d="M373.826 309.957C371.808 306.208 369.357 303.758 369.357 300.875C369.357 297.992 370.943 264.98 372.673 253.159C374.259 241.338 382.331 207.173 385.07 200.109" stroke="#697695" stroke-width="2" stroke-miterlimit="10"/>
<path opacity="0.33" d="M748.387 429.938C698.014 430.081 647.498 430.082 597.125 430.226L748.387 429.938Z" fill="#445272"/>
<path opacity="0.33" d="M597.124 430.228C594.965 427.205 591.511 422.744 587.049 417.994C576.831 407.344 567.476 401.587 553.515 393.527C536.82 383.741 521.708 377.12 518.398 375.681C518.11 375.537 505.445 369.924 489.757 361.576C483.137 358.122 478.531 355.388 474.358 350.207C470.76 345.601 469.464 341.715 466.73 333.368C459.102 310.916 460.541 312.931 457.375 306.886C454.784 301.849 451.474 296.667 448.308 287.456C447.876 286.161 447.876 284.578 446.868 282.563C445.861 280.548 444.854 279.828 443.99 277.814C443.127 276.086 442.983 274.503 442.839 273.352C442.407 272.632 441.543 271.337 440.968 269.754C439.672 266.732 439.528 264.141 439.385 262.414C439.097 258.096 438.809 246.295 438.953 230.463C436.794 226.289 434.923 222.835 433.628 220.532C430.605 215.063 428.303 211.465 426.575 205.708C426.288 204.845 426.144 204.125 426 203.55C426.863 203.406 427.727 203.118 428.59 202.974C429.454 202.11 430.893 200.959 432.908 199.951C437.37 197.649 441.543 197.793 443.127 197.793C448.883 197.937 453.057 200.527 456.223 202.398C457.807 203.262 463.42 206.86 470.04 215.783C474.933 222.259 479.539 227.872 481.554 236.796C482.705 242.121 482.561 246.582 482.13 249.605C481.986 250.468 481.986 251.188 481.842 252.051C484.001 253.779 486.591 256.369 488.894 259.823C492.78 265.58 494.219 271.049 494.939 274.503C495.802 275.079 496.81 276.086 497.817 277.526C499.256 279.541 499.544 281.556 499.688 282.707C500.696 283.139 502.567 284.002 504.15 285.729C506.165 287.744 507.028 290.047 507.316 291.198C508.611 288.896 510.051 285.585 511.202 281.412C511.921 278.389 512.929 273.496 512.065 264.429C511.634 259.679 510.914 255.362 506.021 237.947C503.862 230.319 502.854 226.577 501.559 222.116C497.673 209.594 494.939 200.383 489.901 189.157C485.44 179.083 484.001 177.931 482.561 171.743C481.842 168.576 480.259 160.805 482.13 151.737C482.705 148.571 483.569 146.412 484.576 140.511C484.72 139.36 484.72 139.936 485.872 131.876C486.591 126.695 486.879 124.68 487.455 121.945C487.743 120.506 488.03 118.779 488.606 116.476C490.045 110.432 490.765 107.553 492.492 104.675C493.499 102.948 496.09 98.63 501.271 96.4712C506.309 94.4562 511.346 95.6076 512.929 96.4712C514.08 97.1908 515.232 98.054 515.232 98.054C515.807 98.486 516.239 99.062 516.671 99.35C517.103 99.494 517.966 99.781 518.83 100.213C523.291 102.66 524.875 107.697 525.594 110.144C526.17 111.871 526.314 113.31 526.602 114.893C527.609 121.802 526.602 127.127 526.17 129.142C525.882 130.437 525.45 132.164 524.731 134.323C524.587 135.186 524.587 136.769 524.875 138.784C525.45 142.67 526.889 145.261 527.321 146.124C528.041 147.42 531.495 156.919 538.403 175.916C540.274 181.242 541.857 185.703 545.024 191.748C546.175 194.051 547.183 195.922 547.902 197.073C549.197 196.929 550.637 196.785 552.076 196.785C553.659 196.641 555.242 196.641 556.681 196.641C555.962 188.15 554.954 181.098 554.091 175.629C552.364 165.122 550.205 156.631 548.046 148.571C546.319 141.951 544.88 136.626 544.88 136.626C542.289 127.271 542.145 127.702 541.426 124.536C540.994 122.233 540.706 120.074 539.555 117.196C538.691 115.037 538.259 114.749 537.252 112.303C536.388 110 535.381 107.697 534.949 104.531C534.805 102.66 534.373 98.918 536.244 95.0319C536.964 93.4488 537.971 92.1535 538.547 91.4339C538.835 90.5703 539.267 89.1311 540.418 87.8358C542.145 85.3891 544.448 84.3817 545.599 83.806C547.902 82.6546 549.917 82.5107 551.5 82.3667C553.083 82.2228 558.121 81.7911 561.431 84.2377C562.87 85.2452 564.165 86.8283 564.165 86.8283C564.597 87.404 564.885 87.8358 565.317 88.4115C566.18 88.8433 567.476 89.4189 568.627 90.4264C570.21 91.7217 571.218 93.1609 571.793 94.1684C573.664 95.3198 576.111 97.0468 578.845 99.35C581.436 101.508 584.89 104.387 587.769 108.273C590.647 112.303 591.942 116.045 593.238 120.362C595.109 126.551 597.555 136.05 599.714 148.283C601.297 156.487 602.737 164.69 604.32 172.894C604.752 172.894 605.183 172.75 605.759 172.75C606.479 171.599 607.342 169.728 608.062 167.281C608.781 164.834 608.781 162.819 608.781 161.092C608.781 153.608 607.198 141.951 607.054 140.511C606.191 135.186 605.183 130.005 604.32 124.68C602.593 121.945 600.866 118.779 599.139 115.181C597.268 111.007 595.828 107.121 594.821 103.667C590.791 100.357 588.057 97.0468 586.186 94.6002C583.739 91.146 581.868 88.6993 580.86 84.8134C580.285 82.3667 578.989 77.3295 581.58 72.58C582.012 71.7165 584.458 67.6866 589.208 66.3913C592.374 65.5278 595.109 66.2474 597.843 66.967C601.729 68.1184 604.464 69.8455 606.047 71.1408C607.486 71.5726 609.357 72.2922 611.516 73.4436C619 77.1855 623.318 82.0789 626.628 85.8209C630.082 89.7068 634.975 96.1833 638.861 105.25C640.444 107.265 647.784 123.385 648.792 128.71C650.807 139.936 651.526 150.154 651.526 165.986C651.526 170.591 651.382 174.333 651.382 176.924C652.39 175.341 653.973 173.326 654.837 170.447C655.988 166.274 660.593 148.715 665.919 138.065C666.638 136.769 666.782 134.467 667.358 131.876C670.092 120.65 671.388 114.893 672.107 108.848C672.395 106.402 672.539 104.099 672.827 99.494C673.546 89.4189 673.115 88.9872 673.546 85.533C673.978 81.7911 674.986 74.3071 680.311 67.5427C682.47 64.8082 686.5 59.627 693.12 58.7634C694.127 58.6195 699.884 57.756 704.058 61.498C706.361 63.5129 707.224 66.1035 708.232 71.2847C710.966 85.677 709.383 97.3347 709.239 98.342C708.232 105.25 707.368 105.538 706.361 113.31C705.497 120.074 705.209 125.831 705.353 129.573C705.066 142.382 703.77 153.033 702.475 161.092C702.331 162.388 701.324 168.432 699.453 176.492C697.006 187.43 694.415 196.353 692.113 203.118C691.969 204.269 691.681 205.996 691.537 208.011C691.105 212.761 691.105 216.071 691.249 219.669C691.393 225.858 691.537 233.485 691.105 241.401C690.961 243.992 690.817 246.007 690.817 247.446C691.393 249.029 692.256 251.476 693.12 254.354C694.703 259.391 695.567 263.277 695.998 265.58C699.165 280.404 701.324 293.213 701.324 293.213C703.914 308.325 705.209 315.809 705.353 321.422C705.353 324.732 705.353 328.043 705.929 333.512C706.073 334.807 706.649 340.996 708.664 349.055C709.383 351.934 710.535 356.827 712.693 363.016C714.42 367.765 716.291 372.658 726.078 391.8C735.145 409.647 737.88 414.108 739.895 417.418C743.349 422.887 746.371 427.205 748.53 430.228" fill="#445272"/>
<path d="M691.967 202.828C691.823 203.979 691.535 205.707 691.391 207.721C690.959 212.471 690.959 215.781 691.103 219.379C691.247 225.568 691.391 233.196 690.959 241.112C690.815 243.702 690.672 245.717 690.672 247.156C691.247 248.739 692.111 251.186 692.974 254.065C694.557 259.102 695.421 262.988 695.853 265.29C699.019 280.114 701.178 292.924 701.178 292.924C703.769 308.035 705.064 315.519 705.208 321.132C705.208 324.443 705.208 327.753 705.783 333.222C705.927 334.517 706.503 340.706 708.518 348.766C709.238 351.644 710.389 356.537 712.548 362.726C714.275 367.475 716.146 372.369 725.933 391.511C735 409.357 737.734 413.819 739.749 417.129C743.203 422.598 746.226 426.915 748.384 429.938" stroke="#697695" stroke-width="2" stroke-miterlimit="10"/>
<path d="M651.238 176.348C652.245 174.765 653.829 172.75 654.692 169.871C655.844 165.697 660.449 148.139 665.774 137.489C666.494 136.193 666.638 133.891 667.213 131.3C669.948 120.074 671.243 114.317 671.963 108.272C672.251 105.826 672.395 103.523 672.683 98.917C673.402 88.8428 672.97 88.411 673.402 84.9569C673.834 81.2149 674.841 73.7309 680.166 66.9665C682.325 64.232 686.355 59.0508 692.976 58.1873C693.983 58.0434 699.74 57.1798 703.914 60.9218C706.216 62.9367 707.08 65.5273 708.087 70.7085C710.822 85.1008 709.239 96.7585 709.095 97.766C708.087 104.674 707.224 104.962 706.216 112.734C705.353 119.498 705.065 125.255 705.209 128.997C704.921 141.806 703.626 152.457 702.331 160.516C702.187 161.812 701.179 167.856 699.308 175.916C696.861 186.854 694.271 195.777 691.968 202.542" stroke="#BA6DCD" stroke-width="3" stroke-miterlimit="10" stroke-linecap="round"/>
<path d="M597.125 430.226C594.966 427.204 591.512 422.742 587.051 417.993C576.832 407.343 567.477 401.586 553.517 393.526C536.822 383.739 521.71 377.119 518.4 375.68C518.112 375.536 505.447 369.923 489.759 361.575C483.139 358.121 478.533 355.387 474.359 350.205C470.761 345.6 469.466 341.714 466.731 333.366C459.104 310.915 460.543 312.929 457.376 306.885C454.786 301.847 451.476 296.666 448.309 287.455C447.878 286.16 447.878 284.577 446.87 282.562C445.863 280.547 444.855 279.827 443.992 277.812C443.128 276.085 442.984 274.502 442.84 273.351C442.409 272.631 441.545 271.336 440.969 269.753C439.674 266.73 439.53 264.14 439.386 262.413C439.098 258.095 438.81 246.293 438.954 230.462C436.796 226.288 434.925 222.834 433.629 220.531C430.607 215.062 428.304 211.464 426.577 205.707C426.289 204.844 426.145 203.692 426.145 203.692C427.009 203.26 427.872 203.117 428.736 202.829C429.599 201.965 431.039 200.814 433.054 199.806C437.515 197.504 441.689 197.647 443.272 197.647C449.029 197.791 453.203 200.382 456.369 202.253C457.952 203.117 463.565 206.715 470.186 215.638C475.079 222.114 479.684 227.727 481.699 236.65C482.851 241.976 482.707 246.437 482.275 249.46C482.131 250.323 482.131 251.043 481.987 251.906C484.146 253.633 486.737 256.224 489.039 259.678C492.925 265.435 494.365 270.904 495.084 274.358C495.948 274.934 496.955 275.941 497.963 277.381C499.402 279.395 499.69 281.41 499.834 282.562C500.841 282.994 502.712 283.857 504.295 285.584C506.31 287.599 507.174 289.902 507.462 291.053C508.757 288.75 510.196 285.44 511.347 281.266C512.067 278.244 513.075 273.351 512.211 264.284C511.779 259.534 511.06 255.216 506.166 237.802C504.007 230.174 503 226.432 501.705 221.97C497.819 209.449 495.084 200.238 490.047 189.012C485.585 178.938 484.146 177.786 482.707 171.597C481.987 168.431 480.404 160.659 482.275 151.592C482.851 148.426 483.714 146.267 484.722 140.366C484.866 139.215 484.866 139.791 486.017 131.731C486.737 126.55 487.025 124.535 487.6 121.8C487.888 120.361 488.176 118.634 488.752 116.331C490.191 110.286 490.91 107.408 492.638 104.53C493.645 102.802 496.236 98.485 501.417 96.326C506.454 94.3111 511.491 95.4625 513.074 96.326C514.226 97.0456 515.377 97.9091 515.377 97.9091C515.953 98.341 516.385 98.917 516.816 99.204C517.248 99.348 518.112 99.636 518.975 100.068C523.437 102.515 525.02 107.552 525.74 109.999C526.315 111.726 526.459 113.165 526.747 114.748C527.755 121.656 526.747 126.981 526.315 128.996C526.028 130.292 525.596 132.019 524.876 134.178C524.732 135.041 524.732 136.624 525.02 138.639C525.596 142.525 527.035 145.116 527.467 145.979C528.186 147.275 531.641 156.773 538.549 175.771C540.42 181.096 542.003 185.558 545.169 191.603C546.321 193.905 547.328 195.776 548.048 196.928C549.343 196.784 550.782 196.64 552.221 196.64C553.805 196.496 555.388 196.496 556.827 196.496C556.107 188.005 555.1 180.952 554.236 175.483C552.509 164.977 550.349 156.486 548.191 148.426C546.464 141.806 545.025 136.48 545.025 136.48C542.435 127.125 542.291 127.557 541.571 124.391C541.139 122.088 540.852 119.929 539.7 117.051C538.837 114.892 538.405 114.604 537.397 112.157C536.534 109.855 535.526 107.552 535.095 104.386C534.951 102.515 534.518 98.773 536.389 94.8868C537.109 93.3036 538.117 92.0083 538.693 91.2887C538.981 90.4252 539.412 88.9859 540.564 87.6906C542.291 85.244 544.594 84.2365 545.745 83.6608C548.048 82.5094 550.063 82.3655 551.646 82.2216C553.229 82.0777 558.266 81.6459 561.576 84.0926C563.016 85.1 564.311 86.6832 564.311 86.6832C564.743 87.2589 565.031 87.6906 565.462 88.2663C566.326 88.6981 567.621 89.2738 568.773 90.2812C570.356 91.5765 571.363 93.0158 571.939 94.0232C573.81 95.1746 576.256 96.9017 578.991 99.204C581.582 101.363 585.036 104.242 587.914 108.128C590.793 112.157 592.088 115.899 593.383 120.217C595.254 126.406 597.701 135.905 599.86 148.138C601.443 156.342 602.882 164.545 604.465 172.749C604.897 172.749 605.329 172.605 605.905 172.605C606.624 171.454 607.488 169.583 608.207 167.136C608.927 164.689 608.927 162.674 608.927 160.947C608.927 153.463 607.344 141.806 607.2 140.366C606.336 135.041 605.329 129.86 604.465 124.535C602.738 121.8 601.011 118.634 599.284 115.036C597.413 110.862 595.974 106.976 594.966 103.522C590.937 100.212 588.202 96.9017 586.331 94.455C583.884 91.0009 582.013 88.5542 581.006 84.6683C580.43 82.2216 579.134 77.1843 581.725 72.4348C582.156 71.5713 584.604 67.5415 589.353 66.2462C592.52 65.3826 595.253 66.1023 597.988 66.8219C601.874 67.9732 604.608 69.7003 606.191 70.9956C607.631 71.4274 609.503 72.147 611.661 73.2984C619.145 77.0404 623.463 81.9337 626.773 85.6757C630.227 89.5616 635.121 96.0382 639.007 105.105C640.59 107.12 647.93 123.239 648.937 128.565C650.952 139.791 651.672 150.009 651.672 165.841C651.672 170.446 650.52 175.771 650.376 178.362" stroke="#697695" stroke-width="2" stroke-miterlimit="10"/>
<g opacity="0.5">
<path d="M433.195 204.844C434.922 204.844 436.649 205.707 437.657 207.146C438.664 208.586 439.528 210.025 440.247 211.464C440.967 212.903 441.686 214.487 442.262 216.07C442.55 216.933 442.838 217.653 443.126 218.516C443.27 218.948 443.414 219.38 443.557 219.668L443.701 220.243L443.845 220.531C443.845 220.675 443.845 220.675 443.989 220.963V220.819C444.133 221.539 444.421 222.402 444.565 223.266C444.709 224.129 444.709 224.993 444.565 225.856C444.133 227.583 443.126 229.023 441.686 229.886C442.838 228.735 443.557 227.296 443.701 225.712C443.845 224.273 443.27 222.69 442.838 221.251V221.107C442.838 221.251 442.838 221.107 442.838 220.963L442.694 220.675L442.55 220.1L442.118 218.948C441.83 218.229 441.543 217.365 441.255 216.645C440.679 215.062 439.959 213.623 439.384 212.04C438.664 210.601 437.944 209.017 437.225 207.578C436.793 206.859 436.361 206.283 435.786 205.851C434.778 205.419 434.059 205.132 433.195 204.844Z" fill="#B1BBD0"/>
</g>
<g opacity="0.5">
<path d="M689.665 64.375C689.089 66.8217 688.945 69.1244 688.801 71.5711C688.801 72.7225 688.801 74.0178 688.801 75.1692C688.801 75.7449 688.945 76.3205 688.945 76.8962C688.945 77.4719 689.233 78.0476 689.377 78.1915C689.377 78.1915 689.665 78.3355 689.953 78.4794L690.816 78.9111L692.543 79.6308C693.695 80.2064 694.846 80.6382 695.854 81.2139C698.013 82.3653 700.171 83.6606 702.042 85.2437H701.323C702.042 84.812 702.618 83.9484 703.05 82.941C703.482 82.0774 703.913 81.07 704.201 80.0625C704.489 79.0551 704.777 78.0476 705.065 76.8962C705.353 75.8888 705.497 74.7374 705.784 73.7299C705.497 75.8888 705.353 78.0476 704.921 80.2065C704.633 81.2139 704.489 82.3653 704.057 83.3727C703.626 84.3802 703.05 85.5316 702.042 86.2512L701.755 86.539L701.323 86.2512C699.452 84.812 697.293 83.5167 695.278 82.5092C694.271 81.9335 693.119 81.3578 692.112 80.9261L690.385 80.2065L689.521 79.7747C689.233 79.6308 688.945 79.6308 688.514 79.199C687.938 78.4794 687.794 77.7598 687.794 77.1841C687.65 76.6084 687.65 75.8888 687.65 75.3131C687.65 74.0178 687.794 72.8664 687.938 71.5711C688.082 70.2758 688.226 69.1244 688.514 67.973C688.945 66.6777 689.233 65.5264 689.665 64.375Z" fill="#B1BBD0"/>
</g>
</svg>
