<svg width="900" height="500" viewBox="0 0 900 500" fill="none" xmlns="http://www.w3.org/2000/svg">
<path opacity="0.33" d="M350.977 429.161C356.313 422.383 372.176 398.876 377.224 391.088C382.271 383.301 393.664 356.765 398.423 350.708C403.182 344.651 408.951 337.008 406.355 319.125C403.904 301.243 401.74 295.042 403.183 269.516C404.625 243.99 400.154 238.942 394.241 226.684C393.087 219.329 391.213 217.31 388.473 215.147C388.905 210.099 391.501 190.053 393.087 179.814C394.818 169.575 391.357 172.748 393.087 150.971C394.818 129.195 388.905 113.764 385.156 109.293C384.579 104.967 380.397 100.063 372.753 98.4771C365.254 96.7465 358.332 103.669 358.332 106.697C355.88 107.563 348.093 118.234 351.986 153.134C343.478 173.469 338.142 194.38 336.988 201.446C335.69 208.513 329.921 240.384 327.614 239.086C325.307 237.788 334.536 207.359 337.276 188.467C340.016 169.575 342.901 156.451 344.631 147.51C346.362 138.569 346.506 109.293 336.7 105.688C334.392 98.3329 327.326 96.4581 320.836 96.0254C314.346 95.5928 308.866 100.784 308.722 103.813C305.838 104.823 302.809 118.811 304.107 138.28C297.617 145.203 288.82 167.123 279.014 215.291C279.014 215.291 282.186 168.421 288.243 149.241C294.445 130.06 298.915 122.561 295.31 111.889C297.041 106.842 292.281 103.092 285.792 101.073C279.302 99.0539 271.947 102.515 270.505 106.553C265.313 107.418 256.66 122.849 252.911 135.108C245.989 147.366 237.768 168.998 234.596 181.256C231.423 193.514 229.981 238.365 228.106 241.394C226.231 244.422 222.914 244.711 220.318 241.826C217.723 238.942 217.001 238.077 216.28 232.741C215.559 227.261 214.261 217.743 212.675 210.676C211.233 203.609 209.502 189.621 210.079 184.429C210.656 179.237 217.29 170.007 216.569 157.893C215.848 145.779 208.204 141.165 206.185 139.578C204.166 138.136 201.859 134.675 194.937 136.55C188.014 138.425 184.697 154.288 184.697 154.288C184.697 154.288 175.9 171.45 174.458 175.343C173.016 179.237 173.304 183.996 171.862 190.342C170.42 196.687 172.295 203.033 170.132 209.378C168.113 215.724 168.978 226.107 171.285 234.76C173.593 243.413 171.862 243.845 173.737 250.479C175.612 256.969 179.361 265.91 180.659 272.111C181.957 278.313 181.525 292.013 182.39 302.685C183.255 313.357 188.159 319.27 189.456 333.258C190.754 347.247 193.494 386.185 195.369 397.434C197.244 408.683 198.398 412.144 192.773 429.45H350.977V429.161Z" fill="#697695"/>
<path d="M350.977 429.161C356.313 422.383 372.176 398.876 377.224 391.088C382.271 383.301 393.664 356.765 398.423 350.708C403.182 344.651 408.951 337.008 406.355 319.125C403.904 301.243 401.74 295.042 403.183 269.516C404.625 243.99 400.154 238.942 394.241 226.684C393.087 219.329 391.213 217.31 388.473 215.147C388.905 210.099 391.501 190.053 393.087 179.814C394.818 169.575 391.357 172.748 393.087 150.971C394.818 129.195 388.905 113.764 385.156 109.293C384.579 104.967 380.397 100.063 372.753 98.4771C365.254 96.7465 358.332 103.669 358.332 106.697C355.88 107.563 348.093 118.234 351.986 153.134C343.478 173.469 338.142 194.38 336.988 201.446C335.69 208.513 329.921 240.384 327.614 239.086C325.307 237.788 334.536 207.359 337.276 188.467C340.016 169.575 342.901 156.451 344.631 147.51C346.362 138.569 346.506 109.293 336.7 105.688C334.392 98.3329 327.326 96.4581 320.836 96.0254C314.346 95.5928 308.866 100.784 308.722 103.813C305.838 104.823 302.809 118.811 304.107 138.28C297.617 145.203 288.82 167.123 279.014 215.291C279.014 215.291 282.186 168.421 288.243 149.241C294.445 130.06 298.915 122.561 295.31 111.889C297.041 106.842 292.281 103.092 285.792 101.073C279.302 99.0539 271.947 102.515 270.505 106.553C265.313 107.418 256.66 122.849 252.911 135.108C245.989 147.366 237.768 168.998 234.596 181.256C231.423 193.514 229.981 238.365 228.106 241.394C226.231 244.422 222.914 244.711 220.318 241.826C217.723 238.942 217.001 238.077 216.28 232.741C215.559 227.261 214.261 217.743 212.675 210.676C211.233 203.609 209.502 189.621 210.079 184.429C210.656 179.237 217.29 170.007 216.569 157.893C215.848 145.779 208.204 141.165 206.185 139.578C204.166 138.136 201.859 134.675 194.937 136.55C188.014 138.425 184.697 154.288 184.697 154.288C184.697 154.288 175.9 171.45 174.458 175.343C173.016 179.237 173.304 183.996 171.862 190.342C170.42 196.687 172.295 203.033 170.132 209.378C168.113 215.724 168.978 226.107 171.285 234.76C173.593 243.413 171.862 243.845 173.737 250.479C175.612 256.969 179.361 265.91 180.659 272.111C181.957 278.313 181.525 292.013 182.39 302.685C183.255 313.357 188.159 319.27 189.456 333.258C190.754 347.247 193.494 386.185 195.369 397.434C197.244 408.683 198.398 412.144 192.773 429.45" stroke="#445272" stroke-width="2" stroke-miterlimit="10"/>
<path d="M220.462 241.539C217.866 238.511 217.145 237.789 216.424 232.454C215.703 226.973 214.405 217.455 212.819 210.389C211.376 203.322 209.646 189.333 210.223 184.142C210.8 178.95 217.433 169.72 216.712 157.606C215.991 145.492 208.348 140.877 206.329 139.291C204.31 137.849 202.002 134.388 195.08 136.262C188.158 138.137 184.841 154.001 184.841 154.001C184.841 154.001 176.044 171.162 174.602 175.056C173.16 178.95 173.448 183.709 172.006 190.054C170.564 196.4 172.438 202.745 170.275 209.091C168.256 215.436 169.122 225.82 171.429 234.473C173.736 243.125 172.006 243.558 173.881 250.192C175.755 256.682 179.505 265.623 180.803 271.824" stroke="#BA6DCD" stroke-width="3" stroke-miterlimit="10" stroke-linecap="round"/>
<g opacity="0.5">
<path d="M188.159 155.298C189.89 154.865 191.765 154.865 193.495 154.433C195.226 154 196.668 153.279 197.966 152.125C199.264 151.116 200.562 149.818 201.715 148.376C202.292 147.655 202.869 146.933 203.446 146.357C204.023 145.636 204.455 144.914 205.176 144.193C204.888 145.059 204.455 145.924 204.023 146.789C203.59 147.655 203.157 148.376 202.581 149.241C201.571 150.827 200.273 152.269 198.831 153.423C197.389 154.577 195.514 155.442 193.639 155.586C191.765 155.875 190.034 155.298 188.159 155.298Z" fill="#B1BBD0"/>
</g>
<path d="M378.81 291.581C378.522 280.909 377.079 261.007 378.81 249.037C380.541 237.212 388.617 215.291 388.617 215.291" stroke="#445272" stroke-width="2" stroke-miterlimit="10"/>
<path d="M271.658 238.798C274.687 232.164 278.436 222.79 279.013 215.146" stroke="#445272" stroke-width="2" stroke-miterlimit="10"/>
<path opacity="0.33" d="M672.165 430.948C669.576 426.345 663.966 415.989 656.918 405.057C653.466 399.591 649.439 393.837 643.541 387.796C643.397 387.652 643.11 387.364 642.966 387.221C637.356 381.611 632.465 378.302 626.712 374.563C622.684 371.83 611.033 364.35 593.772 357.445C588.45 355.288 582.696 353.418 571.045 349.678C560.113 346.226 557.524 345.651 550.044 343.205C550.044 343.205 544.579 340.904 524.297 333.424C521.708 332.417 516.673 323.787 514.228 319.184C511.639 314.149 510.92 311.129 508.474 304.368C505.166 294.875 502.002 287.826 499.269 281.497C497.399 277.326 493.946 270.134 487.186 256.038C485.46 252.442 483.734 248.702 482.152 243.236C481.001 239.064 480.425 235.612 479.562 230.578C478.699 225.399 478.124 220.94 477.836 217.632C477.261 216.625 476.398 215.043 475.247 213.173C471.507 207.132 468.918 204.686 465.754 199.94C464.171 197.782 462.158 194.33 460 190.015C461.151 188.288 463.164 185.843 466.329 183.829C473.665 179.083 481.576 180.09 484.309 180.521C491.07 181.384 495.385 184.261 501.57 188.432C509.194 193.467 513.797 198.789 515.379 200.515C518.831 204.543 522.571 209.145 524.585 216.194C525.591 219.79 525.879 222.81 526.023 224.968C529.619 228.708 531.92 232.16 533.503 234.749C538.537 243.236 539.832 251.003 540.263 254.024C540.982 259.777 540.982 262.942 540.982 262.942C540.982 262.942 541.126 250.715 535.66 237.77C534.797 235.9 533.503 232.735 531.633 228.564C521.132 205.549 506.317 186.275 505.022 184.405C503.728 182.535 498.981 176.206 494.09 167.575C493.515 166.569 490.782 161.678 488.337 154.917C486.323 149.164 486.179 146.718 486.179 145.424C486.179 142.691 486.898 138.232 486.898 138.232C486.754 136.65 486.467 134.492 486.179 131.903C485.891 128.019 485.46 123.416 485.604 118.094C485.748 113.204 485.748 110.758 486.323 108.888C486.898 107.162 489.487 99.5386 497.111 96.3741C503.296 93.9288 508.762 95.9426 510.92 96.6618C517.968 99.1071 521.708 104.573 523.002 106.443C526.311 111.477 527.174 116.656 527.461 119.389C527.749 121.115 527.749 122.409 527.749 123.416C529.475 124.998 531.92 127.444 534.653 130.752C536.667 133.197 537.674 134.636 542.133 140.677C545.729 145.712 547.599 148.157 549.325 150.458C551.483 153.335 554.504 157.363 558.531 162.253C559.106 161.534 559.682 160.815 560.257 160.096C559.682 157.938 558.819 154.917 557.38 151.178C555.079 145.136 552.346 140.821 548.462 134.636C547.024 132.334 545.01 129.026 542.421 125.43C541.558 123.992 540.695 122.409 539.688 120.971C538.249 120.252 536.236 118.957 534.222 117.087C531.345 114.354 529.907 111.621 529.475 110.902C528.324 108.601 527.893 106.155 526.886 101.265C526.742 100.402 526.167 97.2372 525.591 92.7781C525.016 88.319 524.872 86.1614 525.016 84.5792C525.304 82.9969 526.023 78.9693 529.044 75.3733C530.051 74.0788 531.201 73.3595 533.503 71.7773C535.517 70.3389 536.667 69.6197 540.263 67.6059C546.88 63.7222 546.305 63.866 546.88 63.5784C551.914 61.5646 556.661 62.4276 558.531 62.8592C563.853 63.866 567.305 66.599 570.47 69.0443C574.066 71.7773 576.511 74.6541 577.95 76.6679C578.237 75.2295 578.813 73.3595 579.676 71.0581C580.683 68.6128 581.689 66.3113 583.559 64.0099C585.429 61.8523 587.299 60.9892 590.608 59.2631C593.628 57.8247 597.943 55.6671 603.985 55.2356C606.43 55.0918 608.732 54.9479 611.752 55.811C615.636 56.9617 618.081 59.1193 619.52 60.4139C621.102 61.9961 623.403 64.4414 625.992 67.7498C630.02 72.928 632.321 77.3871 633.616 79.8324C637.644 87.5998 643.685 103.566 650.877 124.567C651.021 125.142 640.664 97.6687 633.328 74.0788C633.185 73.3596 632.753 70.9143 631.602 67.7498C630.452 64.5853 629.013 62.4276 628.294 61.2769C628.294 61.2769 624.266 54.6602 621.821 46.6051C620.239 41.4269 618.8 36.5363 620.239 30.6388C621.677 24.8852 625.129 21.0014 626.712 19.2754C628.725 17.1177 630.164 15.5355 632.753 14.6724C637.931 13.0902 642.966 16.8301 643.829 17.4054C644.979 18.2685 645.843 19.4192 647.569 21.433C650.589 25.1728 652.459 28.3373 653.322 29.7757C655.192 33.0841 656.631 36.1047 659.795 43.2968C661.521 47.1805 662.816 50.4888 664.686 54.9479C671.878 72.2088 671.734 72.4965 673.46 75.3733C674.755 77.5309 676.193 79.8324 677.919 83.86C679.07 86.5929 679.214 87.456 680.652 91.7712C682.81 98.1002 683.529 98.8194 684.967 103.278C686.693 108.313 686.837 110.327 687.988 115.361C690.002 123.56 692.447 129.314 695.324 135.787C699.495 145.568 699.639 143.41 704.53 154.342C708.27 162.829 711.29 171.171 713.016 175.774C714.311 179.227 715.318 182.103 715.893 184.261C717.331 186.275 719.345 189.295 721.647 192.891C726.537 200.659 730.709 208.714 735.168 218.783C737.901 224.968 738.332 226.55 745.668 246.4C751.278 261.504 754.442 269.99 758.039 279.34C761.635 288.402 764.367 294.875 769.258 306.813C774.293 318.752 777.025 325.225 792.273 361.329C792.416 361.761 795.869 369.96 796.156 370.391C799.465 375.426 801.91 379.885 803.78 383.049C808.095 390.529 810.684 395.276 813.417 401.892C815 405.776 815 406.495 816.726 411.53C819.602 419.585 822.479 425.914 824.349 429.941C773.717 430.661 722.941 430.804 672.165 430.948Z" fill="#697695"/>
<path d="M695.611 136.219C699.783 146 699.927 143.842 704.817 154.774C708.557 163.261 711.578 171.604 713.304 176.207C714.598 179.659 715.605 182.536 716.181 184.693C717.619 186.707 719.633 189.728 721.934 193.324C726.825 201.091 730.996 209.146 735.455 219.215C738.188 225.4 738.62 226.982 745.956 246.832C751.565 261.936 754.73 270.422 758.326 279.772C761.922 288.834 764.655 295.307 769.546 307.246C774.58 319.184 777.313 325.657 792.56 361.761C792.704 362.193 796.156 370.392 796.444 370.823C799.752 375.858 802.198 380.317 804.067 383.481C808.383 390.961 810.972 395.708 813.705 402.325C815.287 406.208 815.287 406.927 817.013 411.962C819.89 420.017 822.767 426.346 824.637 430.374" stroke="#445272" stroke-width="2" stroke-miterlimit="10"/>
<path d="M636.492 84.4354C636.349 83.7162 632.896 71.3459 631.746 68.1814L630.163 64.7292C629.444 63.4346 628.869 62.4278 628.437 61.7086C628.437 61.7086 624.41 55.0919 621.965 47.0368C620.382 41.8585 618.944 36.9679 620.382 31.0704C621.821 25.3168 625.273 21.4331 626.855 19.707C628.869 17.5494 630.307 15.9671 632.896 15.1041C638.075 13.5218 643.109 17.2617 643.972 17.8371C645.123 18.7001 645.986 19.8508 647.712 21.8646C650.733 25.6045 652.603 28.769 653.466 30.2074C655.336 33.5157 656.774 36.5364 659.939 43.7284C661.665 47.6121 662.959 50.9205 664.829 55.3795C672.021 72.6405 671.877 72.9281 673.603 75.805C674.898 77.9626 676.336 80.264 678.063 84.2916C679.213 87.0246 679.357 87.8876 680.795 92.2028C682.953 98.5318 683.672 99.2511 685.111 103.71C686.837 108.745 686.981 110.758 688.131 115.793C690.145 123.992 692.59 129.745 695.467 136.218" stroke="#BA6DCD" stroke-width="3" stroke-miterlimit="10" stroke-linecap="round"/>
<path d="M672.165 430.948C669.576 426.345 663.966 415.988 656.918 405.056C653.466 399.59 649.439 393.837 643.541 387.795C643.397 387.652 643.11 387.364 642.966 387.22C637.356 381.61 632.465 378.302 626.712 374.562C622.684 371.829 611.033 364.349 593.772 357.445C588.45 355.287 582.696 353.417 571.045 349.678C560.113 346.225 557.524 345.65 550.044 343.205C550.044 343.205 544.579 340.903 524.297 333.424C521.708 332.417 516.673 323.786 514.228 319.183C511.639 314.149 510.92 311.128 508.474 304.368C505.166 294.874 502.002 287.826 499.269 281.497C497.399 277.326 495.241 272.867 488.48 258.77C486.754 255.174 483.302 247.119 481.72 241.653C480.569 237.482 480.425 235.756 479.562 230.721C478.699 225.543 478.124 221.084 477.836 217.775C477.261 216.769 476.398 215.186 475.247 213.316C471.507 207.275 468.918 204.83 465.754 200.083C464.171 197.925 462.158 194.473 460 190.158C461.151 188.432 463.164 185.987 466.329 183.973C473.665 179.226 481.576 180.233 484.309 180.664C491.07 181.527 495.385 184.404 501.57 188.576C509.194 193.61 513.797 198.932 515.379 200.658C518.831 204.686 521.995 209.001 524.009 216.049C525.016 219.645 525.304 223.098 525.448 225.255C529.044 228.995 531.92 232.447 533.503 235.036C538.537 243.523 539.832 251.29 540.263 254.311C540.982 260.065 540.551 263.948 540.551 263.948C540.551 263.948 541.126 251.003 535.66 238.057C534.797 236.187 533.503 233.023 531.633 228.851C521.132 205.837 506.317 186.562 505.022 184.692C503.728 182.822 498.981 176.493 494.09 167.863C493.515 166.856 490.782 161.965 488.337 155.205C486.323 149.451 486.179 147.006 486.179 145.711C486.179 142.978 486.898 138.519 486.898 138.519C486.754 136.937 486.467 134.779 486.179 132.19C485.891 128.306 485.46 123.703 485.604 118.381C485.748 113.491 485.748 111.045 486.323 109.175C486.898 107.449 489.487 99.8258 497.111 96.6613C503.296 94.216 508.762 96.2298 510.92 96.949C517.968 99.3943 521.708 104.86 523.002 106.73C526.311 111.765 527.174 116.943 527.461 119.676C527.749 121.402 527.749 122.697 527.749 123.703C529.475 125.286 531.92 127.731 534.653 131.039C536.667 133.485 537.674 134.923 542.133 140.964C545.729 145.999 547.599 148.444 549.325 150.746C551.483 153.622 554.504 157.65 558.531 162.54C559.106 161.821 559.682 161.102 560.257 160.383C559.682 158.225 558.819 155.205 557.38 151.465C555.079 145.423 552.346 141.108 548.462 134.923C547.024 132.622 545.01 129.313 542.421 125.717C541.558 124.279 540.695 122.697 539.688 121.258C538.249 120.539 536.236 119.244 534.222 117.374C531.345 114.641 529.907 111.908 529.475 111.189C528.324 108.888 527.893 106.443 526.886 101.552C526.742 100.689 526.167 97.5244 525.591 93.0653C525.016 88.6062 524.872 86.4486 525.016 84.8664C525.304 83.2841 526.023 79.2566 529.044 75.6605C530.051 74.366 531.201 73.6468 533.503 72.0645C535.517 70.6261 536.667 69.9069 540.263 67.8931C546.88 64.0094 546.305 64.1533 546.88 63.8656C551.914 61.8518 556.661 62.7148 558.531 63.1464C563.853 64.1533 567.305 66.8862 570.47 69.3315C574.066 72.0645 576.511 74.9413 577.95 76.9551C578.237 75.5167 578.813 73.6468 579.676 71.3453C580.683 68.9 581.689 66.5985 583.559 64.2971C585.429 62.1395 587.299 61.2764 590.608 59.5503C593.628 58.1119 597.943 55.9543 603.985 55.5228C606.43 55.379 608.732 55.2351 611.752 56.0982C615.636 57.2489 618.081 59.4065 619.52 60.7011C621.102 62.2833 623.403 64.7286 625.992 68.037C630.02 73.2152 632.321 77.6743 633.616 80.1196C637.644 87.887 643.685 103.853 650.877 124.854" stroke="#445272" stroke-width="2" stroke-miterlimit="10"/>
<path d="M609.882 130.75C602.834 119.243 595.642 107.448 588.594 95.6531C585.142 89.8995 581.546 82.8513 578.237 77.0977" stroke="#445272" stroke-width="2" stroke-miterlimit="10"/>
<g opacity="0.5">
<path d="M627.574 25.4599C628.581 26.7544 629.588 28.1929 630.595 29.4874L633.472 33.515C633.759 33.8027 633.903 34.0903 634.335 34.2342C634.622 34.378 634.91 34.5219 635.342 34.6657C636.061 34.9534 636.924 35.0972 637.643 35.0972C639.225 35.3849 640.951 35.3849 642.534 35.3849C642.965 35.3849 643.397 35.3849 643.684 35.2411C644.116 35.2411 644.404 35.0972 644.835 34.9534C645.554 34.6657 646.274 34.378 646.993 33.9465C647.568 33.515 648.143 33.0834 648.431 32.3642C648.719 31.7889 648.575 31.0697 648.287 30.3505C647.712 28.7682 646.993 27.3298 646.13 25.8914C645.267 24.453 644.404 23.0146 643.541 21.5762C645.842 24.0215 647.856 26.7545 649.294 29.919C649.726 30.6382 650.013 31.7889 649.582 32.7958C649.294 33.8027 648.575 34.5219 647.712 35.0972C646.993 35.6726 646.13 35.9603 645.267 36.2479C644.835 36.3918 644.404 36.5356 643.972 36.6795C643.541 36.6795 643.109 36.8233 642.678 36.8233C640.951 36.8233 639.225 36.8233 637.499 36.5356C636.636 36.3918 635.773 36.248 634.91 35.8164C634.479 35.6726 634.047 35.5287 633.616 35.0972C633.184 34.8095 632.896 34.378 632.609 34.0903C630.883 31.3574 629.3 28.4805 627.574 25.4599Z" fill="#B1BBD0"/>
</g>
<g opacity="0.5">
<path d="M469.063 186.994C472.084 190.446 474.673 194.186 477.262 198.07C477.838 199.077 478.557 200.084 478.989 201.091C479.42 202.241 479.852 203.392 479.852 204.543C479.995 206.988 479.276 209.289 477.982 211.159C478.845 209.002 479.132 206.7 478.845 204.543C478.557 202.385 477.406 200.515 476.112 198.645C473.523 195.049 471.221 191.166 469.063 186.994Z" fill="#B1BBD0"/>
</g>
</svg>
