<svg width="900" height="500" viewBox="0 0 900 500" fill="none" xmlns="http://www.w3.org/2000/svg">
<path opacity="0.33" d="M694.391 428.438C687.6 414.134 682.831 400.841 680.953 371.365C679.075 341.888 682.687 339.577 680.953 316.314C679.219 293.051 677.485 298.108 679.219 280.624C680.809 263.141 671.272 240.456 671.128 231.931C670.983 223.406 671.706 194.219 669.105 180.493C666.504 166.766 660.435 157.952 656.101 134.4C651.766 110.848 635.294 95.5321 624.746 98.9999C614.198 102.468 612.465 113.449 613.765 117.495C609.141 108.392 606.107 103.046 603.217 99.5778C600.327 96.11 591.947 92.0643 591.947 92.0643C591.947 92.0643 578.943 89.319 573.886 101.023C569.695 101.89 569.695 110.993 569.84 113.449C568.828 107.958 566.95 100.156 565.361 97.6994C563.627 95.2431 560.303 91.3419 555.68 89.319C551.056 87.2961 539.208 88.0186 536.174 90.4749C533.139 92.9312 527.649 97.9884 528.082 102.901C528.516 107.958 530.105 112.437 530.394 125.297C530.683 138.157 534.873 165.321 535.74 172.112C536.607 178.903 548.311 241.468 548.311 241.468C548.311 241.468 547.877 242.479 547.155 241.757C546.577 241.034 532.85 164.743 527.938 153.473C529.816 141.48 530.972 107.525 523.169 100.011C519.846 92.4978 499.617 86.5737 491.959 103.479C484.301 120.24 486.758 150.294 485.313 161.853C483.868 173.413 485.457 199.132 486.902 206.79C485.891 198.987 483.29 191.763 478.811 187.284C474.332 182.804 466.963 178.325 461.761 176.447C457.571 175.002 452.225 176.88 449.913 179.192C449.19 179.915 448.179 180.637 447.167 180.782C446.011 181.07 445 181.937 445 181.937C445 184.394 446.878 196.675 453.669 208.813C451.936 211.414 454.247 222.25 452.369 229.908C450.491 237.422 448.323 242.624 451.647 251.293C450.346 253.605 452.08 259.962 454.97 262.274C453.236 267.62 455.403 274.411 461.183 288.571C468.407 306.344 464.795 325.995 469.852 336.109C474.91 346.223 480.978 349.691 487.625 360.094C494.127 370.498 519.557 403.008 529.96 411.244C540.364 419.48 544.698 428.294 544.698 428.294H694.391V428.438Z" fill="#445272"/>
<path d="M694.391 428.438C687.6 414.134 682.831 400.841 680.953 371.365C679.075 341.888 682.687 339.577 680.953 316.314C679.219 293.051 677.485 298.108 679.219 280.624C680.809 263.141 671.272 240.456 671.128 231.931C670.983 223.406 671.706 194.219 669.105 180.492C666.504 166.766 662.603 156.652 656.101 134.4C648.876 109.548 635.294 95.532 624.746 98.9998C614.198 102.468 612.465 113.449 613.765 117.495C609.141 108.392 606.107 103.046 603.217 99.5778C601.05 96.9769 595.126 92.4977 590.213 91.7753C586.601 91.1973 577.787 91.9198 573.886 100.878C570.129 102.179 569.695 110.848 569.84 113.304C568.828 107.814 566.95 100.011 565.361 97.5549C563.627 95.0986 560.303 91.1973 555.68 89.1745C551.056 87.1516 539.208 87.874 536.174 90.3304C533.139 92.7867 527.649 97.8439 528.082 102.757C528.516 107.814 530.105 112.293 530.394 125.153C530.683 138.012 534.873 165.177 535.74 171.968C536.607 178.759 548.311 241.323 548.311 241.323C548.311 241.323 547.877 242.334 547.155 241.612C546.577 240.89 532.85 164.599 527.938 153.328C529.816 141.336 530.972 107.38 523.169 99.8668C519.846 92.3532 499.617 86.4291 491.959 103.335C484.301 120.095 486.758 150.149 485.313 161.709C483.868 173.268 485.457 198.987 486.902 206.645C485.891 198.843 483.29 191.618 478.811 187.139C474.332 182.66 466.963 178.181 461.761 176.302C457.571 174.857 452.225 176.736 449.913 179.192C449.046 180.059 447.89 180.926 446.589 181.07C445.578 181.215 445 181.504 445 181.504C445 183.816 446.589 194.942 452.225 206.067C452.947 207.512 453.38 209.102 453.091 210.691C452.513 214.881 453.958 223.551 452.369 229.764C450.491 237.277 448.323 242.479 451.647 251.148C451.936 255.772 453.38 260.396 454.97 262.13C454.536 268.343 455.403 274.267 461.183 288.427C468.407 306.199 464.795 325.85 469.852 335.964C474.91 346.079 480.978 349.546 487.625 359.95C494.127 370.353 519.557 402.863 529.96 411.099C540.364 419.335 544.698 428.149 544.698 428.149" stroke="#697695" stroke-width="2" stroke-miterlimit="10"/>
<path d="M491.815 328.884C492.248 321.515 495.571 308.944 495.86 304.465C496.294 299.986 494.994 306.344 494.705 286.982C494.56 267.476 492.826 236.844 489.647 223.117C486.469 209.39 487.336 206.645 485.891 201.732" stroke="#697695" stroke-width="2" stroke-miterlimit="10"/>
<path d="M597.726 228.897C594.548 224.129 590.935 215.749 590.502 193.497C590.068 171.245 583.422 165.899 582.988 150.583C582.555 135.267 571.574 130.355 569.695 113.594" stroke="#697695" stroke-width="2" stroke-miterlimit="10"/>
<path d="M636.74 223.406C636.884 217.915 637.029 190.173 634.139 173.557C631.249 156.94 628.359 150.583 624.891 143.213C621.279 135.7 615.21 124.285 613.477 117.639" stroke="#697695" stroke-width="2" stroke-miterlimit="10"/>
<g opacity="0.5">
<path d="M453.092 182.805C454.392 183.094 455.548 183.816 456.704 184.683C457.715 185.695 458.438 186.85 458.871 188.151C459.594 190.752 460.316 193.208 460.75 195.953C461.183 198.554 461.617 201.299 461.328 204.045C461.328 204.767 461.039 205.49 460.894 206.068C460.605 206.79 460.172 207.368 459.594 207.802C458.438 208.813 456.993 208.957 455.693 208.524C456.993 208.669 458.293 208.235 459.16 207.224C460.027 206.357 460.172 205.056 460.172 203.756C460.172 201.155 459.738 198.554 459.305 196.098C458.871 193.497 458.293 190.896 457.716 188.44C457.282 186.128 455.548 183.961 453.092 182.805Z" fill="#B1BBD0"/>
</g>
<path opacity="0.33" d="M334.485 444.929C339.535 435.273 348.003 416.704 356.767 409.573C365.532 402.442 400.739 355.797 410.84 346.587C420.943 337.377 426.885 329.355 427.181 316.282C427.479 303.209 427.181 305.586 428.37 289.542C429.558 273.499 430.598 255.82 430.301 251.513C431.341 248.542 432.084 237.549 430.301 236.36C431.341 235.023 431.49 229.527 428.37 222.1C425.25 214.672 426.587 209.473 425.25 205.164C425.993 200.559 429.855 179.316 427.181 170.551C419.011 162.975 396.877 171.146 388.112 198.034C379.348 224.922 382.616 236.36 385.884 239.332C382.764 241.411 382.021 254.187 381.13 260.574C380.239 266.963 379.199 272.608 379.941 274.093C377.416 274.538 373.999 284.195 373.999 287.314C373.999 290.433 369.691 282.709 358.401 282.709C358.995 271.716 357.807 251.661 372.366 215.414C386.923 179.168 382.913 170.106 385.438 163.124C387.963 156.291 394.054 140.841 392.568 122.866C391.083 104.891 383.209 96.7205 374.445 96.1263C365.681 95.5321 358.995 106.97 357.807 111.575C356.471 116.033 354.242 137.275 351.865 143.515C349.489 149.754 334.781 180.801 330.027 189.566C325.274 198.331 313.39 231.459 311.162 232.795C309.082 234.132 302.1 226.854 309.082 207.096C315.915 187.338 318.886 173.523 319.629 169.66C323.937 167.283 333.593 154.954 338.198 142.029C342.952 129.254 349.785 110.387 339.09 100.732C328.394 91.0755 317.104 98.3549 313.687 103.554C310.271 108.753 303.437 126.877 303.437 126.877C303.437 126.877 293.632 130.145 285.61 139.652C279.668 140.098 275.212 145.892 275.212 145.892C275.212 145.892 270.755 143.366 262.139 145C262.139 139.504 258.722 107.119 239.262 108.753C234.508 105.485 227.526 110.536 226.783 118.706C226.041 126.728 227.526 153.319 227.674 156.587C223.664 156.884 211.631 161.341 208.66 174.711C205.689 188.081 208.66 234.429 207.768 247.947C206.877 261.466 194.696 273.201 193.656 292.365C192.617 311.528 196.033 364.71 197.369 375.704C198.707 386.696 198.261 420.863 184 444.632H334.485V444.929Z" fill="#445272"/>
<path d="M334.485 444.929C339.535 435.273 348.003 416.704 356.767 409.573C365.532 402.442 400.739 355.797 410.84 346.587C420.943 337.377 426.885 329.355 427.181 316.282C427.479 303.209 427.181 305.586 428.37 289.542C429.558 273.499 430.598 255.82 430.301 251.513C431.341 248.542 432.084 237.549 430.301 236.36C431.341 235.023 431.49 229.527 428.37 222.1C425.25 214.672 426.587 209.473 425.25 205.164C425.993 200.559 429.855 179.316 427.181 170.551C419.011 162.975 396.877 171.146 388.112 198.034C379.348 224.922 382.616 236.36 385.884 239.332C382.764 241.411 382.021 254.187 381.13 260.574C380.239 266.963 379.199 272.608 379.941 274.093C377.416 274.538 373.999 284.195 373.999 287.314C373.999 290.433 369.691 282.709 358.401 282.709C358.995 271.716 357.807 251.661 372.366 215.414C386.923 179.168 382.913 170.106 385.438 163.124C387.963 156.291 394.054 140.841 392.568 122.866C391.083 104.891 383.209 96.7205 374.445 96.1263C365.681 95.5321 358.995 106.97 357.807 111.575C356.471 116.033 354.242 137.275 351.865 143.515C349.489 149.754 334.781 180.801 330.027 189.566C325.274 198.331 313.39 231.459 311.162 232.795C309.082 234.132 302.1 226.854 309.082 207.096C315.915 187.338 318.886 173.523 319.629 169.66C323.937 167.283 333.593 154.954 338.198 142.029C342.952 129.254 349.785 110.387 339.09 100.732C328.394 91.0755 317.104 98.3549 313.687 103.554C310.271 108.753 303.437 126.877 303.437 126.877C303.437 126.877 293.632 130.145 285.61 139.652C279.668 140.098 275.805 145.297 275.805 145.297C275.805 145.297 270.755 143.366 262.139 145C262.139 139.504 258.722 107.119 239.262 108.753C234.508 105.485 227.526 110.536 226.783 118.706C226.041 126.728 227.526 153.319 227.674 156.587C223.664 156.884 211.631 161.341 208.66 174.711C205.689 188.081 208.66 234.429 207.768 247.947C206.877 261.466 194.696 273.201 193.656 292.365C192.617 311.528 196.033 364.71 197.369 375.704C198.707 386.696 198.261 420.863 184 444.632" stroke="#697695" stroke-width="2" stroke-miterlimit="10"/>
<path d="M274.023 145.149C274.023 145.149 275.805 143.961 261.842 145.297C247.878 146.634 245.946 153.765 239.41 154.36C225.892 155.548 211.184 161.638 208.362 175.008C205.391 188.378 208.362 234.726 207.471 248.245" stroke="#BA6DCD" stroke-width="3" stroke-miterlimit="10" stroke-linecap="round"/>
<path d="M237.48 241.857C242.679 236.36 247.878 233.092 252.187 209.323C256.495 185.555 265.854 165.5 267.191 160.301C268.528 155.102 273.727 145.743 278.629 142.623" stroke="#697695" stroke-width="2" stroke-miterlimit="10"/>
<g opacity="0.5">
<path d="M423.915 172.334C420.349 173.671 417.081 176.048 415.298 179.316C413.516 182.584 412.625 186.298 412.327 190.012C412.179 190.903 412.179 191.943 412.179 192.834V194.171C412.179 194.617 412.327 195.062 412.327 195.508C412.476 197.291 412.921 199.222 413.813 200.707C415.447 203.976 419.161 205.907 423.024 206.056C421.092 206.353 419.161 205.907 417.23 205.165C415.447 204.421 413.813 202.935 412.773 201.153C411.733 199.371 411.139 197.439 410.842 195.508C410.842 195.062 410.693 194.469 410.693 194.023V192.537C410.693 191.497 410.693 190.606 410.842 189.566C410.99 187.635 411.436 185.703 411.881 183.772C412.476 181.842 413.219 180.058 414.407 178.425C415.595 176.79 416.933 175.305 418.567 174.265C420.201 173.374 421.984 172.631 423.915 172.334Z" fill="#B1BBD0"/>
</g>
</svg>
