<svg width="850" height="500" viewBox="0 0 850 500" fill="none" xmlns="http://www.w3.org/2000/svg">
<path opacity="0.33" d="M690.814 448.078C683.655 432.997 678.628 418.983 676.647 387.908C674.667 356.832 678.475 354.395 676.647 329.87C674.819 305.345 672.991 310.676 674.819 292.244C676.495 273.812 666.441 249.897 666.289 240.909C666.137 231.922 666.898 201.151 664.156 186.68C661.414 172.208 655.017 162.916 650.447 138.086C645.877 113.257 628.511 97.1097 617.391 100.766C606.271 104.422 604.443 115.999 605.814 120.264C600.939 110.667 597.741 105.031 594.694 101.375C591.647 97.719 582.812 93.4537 582.812 93.4537C582.812 93.4537 569.102 90.5595 563.771 102.898C559.353 103.812 559.353 113.409 559.506 115.999C558.439 110.21 556.459 101.984 554.783 99.3946C552.955 96.805 549.452 92.6921 544.577 90.5595C539.703 88.4269 527.212 89.1885 524.013 91.7781C520.814 94.3677 515.025 99.6993 515.482 104.878C515.939 110.21 517.615 114.932 517.92 128.49C518.224 142.047 522.642 170.685 523.556 177.845C524.47 185.004 536.809 250.963 536.809 250.963C536.809 250.963 536.351 252.029 535.59 251.268C534.981 250.506 520.509 170.076 515.33 158.194C517.31 145.551 518.529 109.753 510.303 101.832C506.799 93.9107 485.473 87.6652 477.4 105.488C469.326 123.158 471.916 154.843 470.393 167.029C468.869 179.216 470.545 206.33 472.068 214.404C471.002 206.178 468.26 198.561 463.538 193.839C458.816 189.117 451.047 184.395 445.563 182.414C441.145 180.891 435.509 182.871 433.072 185.309C432.31 186.07 431.244 186.832 430.178 186.984C428.959 187.289 427.893 188.203 427.893 188.203C427.893 190.793 429.873 203.741 437.032 216.536C435.204 219.278 437.642 230.703 435.661 238.777C433.681 246.698 431.396 252.182 434.9 261.321C433.529 263.759 435.357 270.461 438.403 272.898C436.575 278.535 438.86 285.694 444.954 300.623C452.57 319.359 448.762 340.076 454.093 350.739C459.425 361.402 465.823 365.058 472.83 376.026C479.685 386.994 506.495 421.268 517.463 429.951C528.43 438.633 533 447.926 533 447.926H690.814V448.078Z" fill="#E0E1E2"/>
<path d="M690.814 448.078C683.655 432.997 678.628 418.983 676.647 387.908C674.667 356.832 678.475 354.395 676.647 329.87C674.819 305.345 672.991 310.676 674.819 292.244C676.495 273.812 666.441 249.897 666.289 240.909C666.137 231.922 666.898 201.151 664.156 186.68C661.414 172.208 657.301 161.545 650.447 138.086C642.83 111.886 628.511 97.1097 617.391 100.766C606.271 104.421 604.443 115.999 605.814 120.264C600.939 110.667 597.741 105.031 594.694 101.375C592.409 98.6329 586.163 93.9107 580.984 93.1491C577.176 92.5398 567.884 93.3014 563.771 102.746C559.81 104.117 559.353 113.257 559.506 115.846C558.439 110.058 556.459 101.832 554.783 99.2423C552.955 96.6527 549.452 92.5397 544.577 90.4071C539.703 88.2745 527.212 89.0362 524.013 91.6258C520.814 94.2154 515.025 99.5469 515.482 104.726C515.939 110.058 517.615 114.78 517.92 128.337C518.224 141.895 522.642 170.533 523.556 177.692C524.47 184.852 536.809 250.811 536.809 250.811C536.809 250.811 536.351 251.877 535.59 251.115C534.981 250.354 520.509 169.923 515.33 158.042C517.31 145.398 518.529 109.601 510.303 101.68C506.799 93.7584 485.473 87.5129 477.4 105.335C469.326 123.006 471.916 154.69 470.393 166.877C468.869 179.063 470.545 206.178 472.068 214.251C471.002 206.026 468.26 198.409 463.538 193.687C458.816 188.965 451.047 184.242 445.563 182.262C441.145 180.739 435.509 182.719 433.072 185.309C432.158 186.223 430.939 187.137 429.568 187.289C428.502 187.441 427.893 187.746 427.893 187.746C427.893 190.183 429.568 201.913 435.509 213.642C436.271 215.165 436.728 216.841 436.423 218.517C435.814 222.934 437.337 232.074 435.661 238.624C433.681 246.545 431.396 252.029 434.9 261.169C435.204 266.044 436.728 270.918 438.403 272.746C437.946 279.296 438.86 285.542 444.954 300.47C452.57 319.207 448.762 339.924 454.093 350.587C459.425 361.25 465.823 364.906 472.83 375.874C479.685 386.841 506.495 421.116 517.463 429.798C528.43 438.481 533 447.773 533 447.773" stroke="#808285" stroke-width="2" stroke-miterlimit="10"/>
<path d="M477.247 343.123C477.704 335.354 481.208 322.101 481.513 317.379C481.97 312.657 480.599 319.359 480.294 298.947C480.142 278.382 478.314 246.088 474.963 231.617C471.611 217.146 472.525 214.251 471.002 209.072" stroke="#808285" stroke-width="2" stroke-miterlimit="10"/>
<path d="M588.906 237.711C585.554 232.684 581.746 223.849 581.289 200.39C580.832 176.931 573.825 171.295 573.368 155.148C572.911 139.001 561.334 133.822 559.354 116.151" stroke="#808285" stroke-width="2" stroke-miterlimit="10"/>
<path d="M630.034 231.922C630.186 226.133 630.339 196.886 627.292 179.368C624.245 161.85 621.199 155.147 617.543 147.378C613.735 139.457 607.337 127.423 605.509 120.416" stroke="#808285" stroke-width="2" stroke-miterlimit="10"/>
<g opacity="0.5">
<path d="M436.423 189.117C437.794 189.422 439.012 190.184 440.231 191.097C441.297 192.164 442.059 193.382 442.516 194.753C443.278 197.495 444.039 200.085 444.496 202.979C444.953 205.721 445.41 208.615 445.106 211.51C445.106 212.271 444.801 213.033 444.649 213.642C444.344 214.404 443.887 215.013 443.278 215.47C442.059 216.537 440.536 216.689 439.165 216.232C440.536 216.384 441.907 215.927 442.821 214.861C443.735 213.947 443.887 212.576 443.887 211.205C443.887 208.463 443.43 205.721 442.973 203.132C442.516 200.39 441.907 197.648 441.297 195.058C440.84 192.621 439.012 190.336 436.423 189.117Z" fill="#AEB0B2"/>
</g>
<path opacity="0.33" d="M291.403 452.343C297.497 445.793 311.206 426.142 319.889 420.811C328.572 415.479 344.262 399.637 354.468 385.47C364.674 371.304 384.172 356.223 391.332 342.209C398.491 328.194 394.074 307.63 400.167 280.21C406.26 252.791 407.022 247.459 398.339 237.558C389.656 227.656 380.059 220.192 373.205 209.377C376.251 199.475 385.086 173.275 387.219 162.916C389.199 152.558 389.199 139 391.332 131.689C393.465 124.377 395.902 119.807 396.664 112.19C397.273 104.726 399.405 76.0881 392.246 64.2064C385.086 52.3246 373.052 50.4967 363.151 62.2261C353.402 73.9555 353.097 97.8713 352.335 109.296C351.726 120.721 338.93 140.676 331.923 157.432C324.916 174.189 318.975 193.23 317.604 196.276C316.081 199.323 311.359 193.992 314.71 178.911C317.909 163.83 315.624 158.042 315.624 158.042C315.624 158.042 321.108 150.425 320.651 143.418C323.24 141.133 329.638 128.49 329.638 120.111C329.638 111.733 325.525 105.64 322.479 104.574C322.174 101.527 321.565 99.0899 309.531 97.4143C297.497 95.7387 295.212 103.355 295.212 103.355C295.212 103.355 285.158 101.984 277.846 104.269C273.124 102.746 263.527 101.223 256.063 108.077C251.798 106.554 245.704 111.733 245.704 111.733C245.704 111.733 238.088 110.819 231.995 114.628C229.558 111.581 220.875 106.249 215.086 108.382C209.298 110.515 207.47 113.257 205.489 114.475C203.509 115.694 187.362 118.588 184.62 120.873C181.878 123.158 161.466 157.889 159.638 163.83C157.81 169.771 160.552 212.271 160.857 219.888C161.161 227.504 158.115 252.182 158.419 264.368C158.724 276.402 160.095 295.291 158.419 320.73C156.591 346.169 161.314 368.409 157.353 382.271C153.393 396.133 148.823 413.194 131 452.8H291.403V452.343Z" fill="#E0E1E2"/>
<path d="M291.403 452.343C297.497 445.793 311.206 426.142 319.889 420.811C328.572 415.479 344.262 399.637 354.468 385.47C364.674 371.304 384.172 356.223 391.332 342.209C398.491 328.194 394.074 307.63 400.167 280.21C406.26 252.791 407.022 247.459 398.339 237.558C389.656 227.656 380.059 220.192 373.205 209.377C376.251 199.475 385.086 173.275 387.219 162.916C389.199 152.558 389.199 139 391.332 131.689C393.465 124.377 395.902 119.807 396.664 112.19C397.273 104.726 399.405 76.0881 392.246 64.2064C385.086 52.3246 373.052 50.4967 363.151 62.2261C353.402 73.9555 353.097 97.8713 352.335 109.296C351.726 120.721 338.93 140.676 331.923 157.432C324.916 174.189 318.975 193.23 317.604 196.276C316.081 199.323 311.359 193.992 314.71 178.911C317.909 163.83 315.624 158.042 315.624 158.042C315.624 158.042 321.108 150.425 320.651 143.418C323.24 141.133 329.638 128.49 329.638 120.111C329.638 111.733 325.525 105.64 322.479 104.574C322.174 101.527 321.565 99.0899 309.531 97.4143C297.497 95.7387 295.212 103.355 295.212 103.355C295.212 103.355 285.158 101.984 277.846 104.269C273.124 102.746 263.527 101.223 256.063 108.077C251.798 106.554 245.704 111.733 245.704 111.733C245.704 111.733 238.088 110.819 231.995 114.628C229.558 111.581 220.875 106.249 215.086 108.382C209.298 110.515 207.47 113.257 205.489 114.475C203.509 115.694 187.362 118.588 184.62 120.873C181.878 123.158 161.466 157.889 159.638 163.83C157.81 169.771 160.552 212.271 160.857 219.888C161.161 227.504 158.115 252.182 158.419 264.368C158.724 276.402 160.095 295.291 158.419 320.73C156.591 346.169 161.314 368.409 157.353 382.271C153.393 396.133 148.823 413.194 131 452.8" stroke="#808285" stroke-width="2" stroke-miterlimit="10"/>
<path d="M198.025 216.233C200.463 209.073 203.357 202.066 202.748 188.357C202.138 174.495 205.642 143.724 207.165 138.392C208.688 132.908 213.563 117.828 232.147 114.324" stroke="#808285" stroke-width="2" stroke-miterlimit="10"/>
<path d="M242.657 208.005C248.141 203.588 251.035 199.322 252.406 193.991C253.93 188.812 258.5 146.159 261.241 133.364C263.983 120.568 266.421 108.534 277.845 103.964" stroke="#808285" stroke-width="2" stroke-miterlimit="10"/>
<path d="M367.111 301.536C365.131 296.357 363.912 292.701 361.018 288.893C361.018 283.409 361.322 248.221 365.892 231.312C370.462 214.404 385.086 173.122 387.219 162.612C389.199 152.253 389.199 138.696 391.331 131.384C393.464 124.072 395.901 119.502 396.663 111.886C397.272 104.421 399.405 75.7834 392.245 63.9017C385.086 52.0199 373.052 50.192 363.15 61.9214C353.401 73.6508 353.097 97.5666 352.335 108.991C351.726 120.416 338.93 140.371 331.923 157.128C324.916 173.884 318.975 192.925 317.604 195.972C314.862 203.588 311.054 208.92 309.073 210.595" stroke="#2969D0" stroke-width="3" stroke-miterlimit="10" stroke-linecap="round"/>
<g opacity="0.5">
<path d="M390.113 68.6237C389.656 72.4319 387.981 75.9355 385.848 79.1344C385.239 79.8961 384.629 80.6577 383.868 81.2671C383.715 81.4194 383.411 81.5717 383.258 81.7241C383.106 81.8764 382.801 82.0287 382.497 82.181C382.04 82.4857 381.278 82.4857 380.821 82.4857C378.841 82.4857 377.013 82.181 375.185 81.8764C373.357 81.4194 371.529 80.9624 369.701 80.2008C368.787 79.7438 367.873 79.2868 367.111 78.6775C366.654 78.3728 366.35 77.9158 366.045 77.4588L365.74 76.6972C365.74 76.3925 365.588 76.2402 365.588 75.9355C364.979 71.9749 366.045 68.319 367.111 64.6631C366.807 66.491 366.502 68.319 366.35 70.147C366.197 71.9749 366.197 73.8029 366.654 75.4785L366.807 76.0878L367.111 76.6972C367.264 77.0018 367.568 77.3065 367.873 77.6111C368.482 78.0681 369.396 78.5251 370.158 78.8298C371.834 79.4391 373.662 79.8961 375.337 80.3531C377.165 80.6577 378.993 80.9624 380.821 81.1147C382.344 81.267 383.715 79.7438 384.782 78.5251C386 77.1541 386.914 75.4785 387.828 73.9552C388.895 72.1273 389.504 70.4516 390.113 68.6237Z" fill="#AEB0B2"/>
</g>
</svg>
