<svg width="900" height="500" viewBox="0 0 900 500" fill="none" xmlns="http://www.w3.org/2000/svg">
<path opacity="0.33" d="M694.391 428.437C687.6 414.133 682.831 400.84 680.953 371.364C679.075 341.888 682.687 339.576 680.953 316.313C679.219 293.05 677.485 298.107 679.219 280.624C680.809 263.14 671.272 240.455 671.128 231.93C670.983 223.405 671.706 194.218 669.105 180.492C666.504 166.765 660.435 157.951 656.101 134.399C651.766 110.847 635.294 95.5311 624.746 98.9989C614.198 102.467 612.465 113.448 613.765 117.494C609.141 108.391 606.107 103.045 603.217 99.5768C600.327 96.1091 591.947 92.0633 591.947 92.0633C591.947 92.0633 578.943 89.318 573.886 101.022C569.695 101.889 569.695 110.992 569.84 113.448C568.828 107.957 566.95 100.155 565.361 97.6985C563.627 95.2421 560.303 91.3409 555.68 89.318C551.056 87.2952 539.208 88.0176 536.174 90.4739C533.139 92.9303 527.649 97.9874 528.082 102.9C528.516 107.957 530.105 112.437 530.394 125.296C530.683 138.156 534.873 165.32 535.74 172.111C536.607 178.902 548.311 241.467 548.311 241.467C548.311 241.467 547.877 242.478 547.155 241.756C546.577 241.033 532.85 164.742 527.938 153.472C529.816 141.479 530.972 107.524 523.169 100.01C519.846 92.4968 499.617 86.5727 491.959 103.478C484.301 120.239 486.758 150.293 485.313 161.852C483.868 173.412 485.457 199.131 486.902 206.789C485.891 198.986 483.29 191.762 478.811 187.283C474.332 182.803 466.963 178.324 461.761 176.446C457.571 175.001 452.225 176.879 449.913 179.191C449.19 179.914 448.179 180.636 447.167 180.781C446.011 181.07 445 181.936 445 181.936C445 184.393 446.878 196.675 453.669 208.812C451.936 211.413 454.247 222.249 452.369 229.907C450.491 237.421 448.323 242.623 451.647 251.292C450.346 253.604 452.08 259.961 454.97 262.273C453.236 267.619 455.403 274.41 461.183 288.571C468.407 306.343 464.795 325.994 469.852 336.108C474.91 346.222 480.978 349.69 487.625 360.093C494.127 370.497 519.557 403.007 529.96 411.243C540.364 419.479 544.698 428.293 544.698 428.293H694.391V428.437Z" fill="#445272"/>
<path d="M694.391 428.438C687.6 414.134 682.831 400.841 680.953 371.365C679.075 341.888 682.687 339.577 680.953 316.314C679.219 293.051 677.485 298.108 679.219 280.624C680.809 263.141 671.272 240.456 671.128 231.931C670.983 223.406 671.706 194.219 669.105 180.492C666.504 166.766 662.603 156.652 656.101 134.4C648.876 109.548 635.294 95.532 624.746 98.9998C614.198 102.468 612.465 113.449 613.765 117.495C609.141 108.392 606.107 103.046 603.217 99.5778C601.05 96.9769 595.126 92.4977 590.213 91.7753C586.601 91.1973 577.787 91.9198 573.886 100.878C570.129 102.179 569.695 110.848 569.84 113.304C568.828 107.814 566.95 100.011 565.361 97.5549C563.627 95.0986 560.303 91.1973 555.68 89.1745C551.056 87.1516 539.208 87.874 536.174 90.3304C533.139 92.7867 527.649 97.8439 528.082 102.757C528.516 107.814 530.105 112.293 530.394 125.153C530.683 138.012 534.873 165.177 535.74 171.968C536.607 178.759 548.311 241.323 548.311 241.323C548.311 241.323 547.877 242.334 547.155 241.612C546.577 240.89 532.85 164.599 527.938 153.328C529.816 141.336 530.972 107.38 523.169 99.8668C519.846 92.3532 499.617 86.4291 491.959 103.335C484.301 120.095 486.758 150.149 485.313 161.709C483.868 173.268 485.457 198.987 486.902 206.645C485.891 198.843 483.29 191.618 478.811 187.139C474.332 182.66 466.963 178.181 461.761 176.302C457.571 174.857 452.225 176.736 449.913 179.192C449.046 180.059 447.89 180.926 446.589 181.07C445.578 181.215 445 181.504 445 181.504C445 183.816 446.589 194.942 452.225 206.067C452.947 207.512 453.38 209.102 453.091 210.691C452.513 214.881 453.958 223.551 452.369 229.764C450.491 237.277 448.323 242.479 451.647 251.148C451.936 255.772 453.38 260.396 454.97 262.13C454.536 268.343 455.403 274.267 461.183 288.427C468.407 306.199 464.795 325.85 469.852 335.964C474.91 346.079 480.978 349.546 487.625 359.95C494.127 370.353 519.557 402.863 529.96 411.099C540.364 419.335 544.698 428.149 544.698 428.149" stroke="#697695" stroke-width="2" stroke-miterlimit="10"/>
<path d="M491.815 328.884C492.248 321.515 495.571 308.944 495.86 304.465C496.294 299.986 494.994 306.344 494.705 286.982C494.56 267.476 492.826 236.844 489.647 223.117C486.469 209.39 487.336 206.645 485.891 201.732" stroke="#697695" stroke-width="2" stroke-miterlimit="10"/>
<path d="M597.726 228.897C594.548 224.129 590.935 215.749 590.502 193.497C590.068 171.245 583.422 165.899 582.988 150.583C582.555 135.267 571.574 130.355 569.695 113.594" stroke="#697695" stroke-width="2" stroke-miterlimit="10"/>
<path d="M636.74 223.407C636.884 217.916 637.029 190.174 634.139 173.557C631.249 156.941 628.359 150.583 624.891 143.214C621.279 135.701 615.21 124.286 613.477 117.64" stroke="#697695" stroke-width="2" stroke-miterlimit="10"/>
<g opacity="0.5">
<path d="M453.092 182.806C454.392 183.095 455.548 183.817 456.704 184.684C457.715 185.695 458.438 186.851 458.871 188.152C459.594 190.753 460.316 193.209 460.75 195.954C461.183 198.555 461.617 201.3 461.328 204.046C461.328 204.768 461.039 205.491 460.894 206.069C460.605 206.791 460.172 207.369 459.594 207.803C458.438 208.814 456.993 208.958 455.693 208.525C456.993 208.669 458.293 208.236 459.16 207.225C460.027 206.358 460.172 205.057 460.172 203.757C460.172 201.156 459.738 198.555 459.305 196.099C458.871 193.498 458.293 190.897 457.716 188.441C457.282 186.129 455.548 183.962 453.092 182.806Z" fill="#B1BBD0"/>
</g>
<path opacity="0.33" d="M288.888 438.735C292.921 435.001 297.701 428.278 308.457 420.959C319.213 413.639 348.343 377.189 370.601 355.827C392.86 334.465 378.818 333.867 394.503 289.35C410.188 244.833 403.018 245.431 397.043 224.816C397.043 224.816 401.674 206.74 400.927 191.055C388.826 182.839 371.199 193.296 360.294 217.944C349.389 242.593 357.605 253.647 357.605 253.647C357.605 253.647 351.181 257.979 346.7 274.561C342.218 291.143 341.621 290.844 341.173 287.408C340.575 284.122 343.413 263.208 345.505 254.394C347.746 245.58 352.974 224.816 361.788 206.442C370.601 187.918 375.531 172.531 377.772 163.269C380.013 154.007 388.528 145.642 390.47 123.682C392.412 101.723 387.482 102.171 387.482 102.171C387.482 102.171 377.324 83.199 359.995 102.171C344.907 123.383 356.111 128.313 333.106 156.099C310.1 183.884 303.079 218.542 298.15 221.828C293.22 225.115 302.482 194.043 307.71 180.299C312.939 166.556 317.271 159.684 317.271 159.684C317.271 159.684 334.6 150.572 341.173 127.865C347.746 105.009 341.173 102.021 341.173 102.021C341.173 102.021 340.276 93.8052 327.728 92.6102C315.18 91.4152 313.387 102.171 313.387 102.171C313.387 102.171 310.1 101.573 302.631 114.57L299.345 116.213C299.345 116.213 302.332 110.387 301.586 103.515C300.689 96.6432 295.61 92.4612 289.187 91.1162C282.912 89.7722 268.273 100.527 268.273 100.527C268.273 100.527 259.459 102.47 254.529 109.042C254.529 109.042 254.529 107.997 248.255 102.47C244.072 96.1952 237.201 95.5982 233.914 98.8842C230.628 102.171 228.686 107.399 228.686 107.399C228.686 107.399 217.631 118.603 206.726 142.355C195.671 165.958 189.397 173.726 186.708 179.253C184.019 184.781 180.733 195.686 177.148 204.798C173.562 213.911 177.745 225.413 165.645 254.544C153.545 283.674 159.819 293.085 157.429 322.514C154.889 351.943 155.487 376.442 148.914 395.115C142.341 413.788 128 439.034 128 439.034H288.888V438.735Z" fill="#445272"/>
<path d="M288.888 438.735C292.921 435.001 297.701 428.278 308.457 420.959C319.213 413.639 348.343 377.189 370.601 355.827C392.86 334.465 378.818 333.867 394.503 289.35C410.188 244.833 403.018 245.431 397.043 224.816C397.043 224.816 401.674 206.74 400.927 191.055C388.826 182.839 371.199 193.296 360.294 217.944C349.389 242.593 357.605 253.647 357.605 253.647C357.605 253.647 351.181 257.979 346.7 274.561C342.218 291.143 341.621 290.844 341.173 287.408C340.575 284.122 343.413 263.208 345.505 254.394C347.746 245.58 352.974 224.816 361.788 206.442C370.601 187.918 375.531 172.531 377.772 163.269C380.013 154.007 388.528 145.642 390.47 123.682C392.412 101.723 387.482 102.171 387.482 102.171C387.482 102.171 377.324 83.199 359.995 102.171C344.907 123.383 356.111 128.313 333.106 156.099C310.1 183.884 303.079 218.542 298.15 221.828C293.22 225.115 302.482 194.043 307.71 180.299C312.939 166.556 317.271 159.684 317.271 159.684C317.271 159.684 334.6 150.572 341.173 127.865C347.746 105.009 341.173 102.021 341.173 102.021C341.173 102.021 340.276 93.8052 327.728 92.6102C315.18 91.4152 313.387 102.171 313.387 102.171C313.387 102.171 310.1 101.573 302.631 114.57L299.345 116.213C299.345 116.213 302.332 110.387 301.586 103.515C300.689 96.6432 295.61 92.4612 289.187 91.1162C282.912 89.7722 268.273 100.527 268.273 100.527C268.273 100.527 259.459 102.47 254.529 109.042C254.529 109.042 254.529 107.997 248.255 102.47C244.072 96.1952 237.201 95.5982 233.914 98.8842C230.628 102.171 228.686 107.399 228.686 107.399C228.686 107.399 217.631 118.603 206.726 142.355C195.671 165.958 189.397 173.726 186.708 179.253C184.019 184.781 180.733 195.686 177.148 204.798C173.562 213.911 177.745 225.413 165.645 254.544C153.545 283.674 159.819 293.085 157.429 322.514C154.889 351.943 155.487 376.442 148.914 395.115C142.341 413.788 128 439.034 128 439.034" stroke="#697695" stroke-width="2" stroke-miterlimit="10"/>
<path d="M345.207 254.394C347.447 245.58 352.676 224.815 361.49 206.441C370.303 187.917 375.233 172.531 377.474 163.269C379.715 154.007 388.23 145.641 390.172 123.682C392.114 101.722 387.184 102.17 387.184 102.17C387.184 102.17 377.026 83.1984 359.697 102.17C344.609 123.383 355.813 128.313 332.808 156.098C309.802 183.884 302.781 218.541 297.852 221.828" stroke="#BA6DCD" stroke-width="3" stroke-miterlimit="10" stroke-linecap="round"/>
<path d="M192.684 228.402C198.061 219.588 200.601 209.28 203.141 188.366C205.68 167.452 206.875 148.779 212.701 142.057C218.527 135.335 226.893 131.6 233.914 123.683C240.935 115.765 250.346 115.616 254.23 109.043" stroke="#697695" stroke-width="2" stroke-miterlimit="10"/>
<path d="M231.824 223.77C238.248 217.346 244.522 206.59 252.439 177.162C260.357 147.583 269.32 134.437 275.743 131.45C282.167 128.462 295.164 117.258 305.471 116.063C315.779 114.868 318.766 117.258 318.766 117.258" stroke="#697695" stroke-width="2" stroke-miterlimit="10"/>
<g opacity="0.5">
<path d="M360.443 106.504C360.742 107.699 361.788 108.595 362.684 109.193C363.73 109.79 364.925 110.238 365.971 110.687C368.361 111.434 370.751 111.882 373.141 111.882C375.531 111.882 378.071 111.583 380.461 110.836C381.656 110.537 382.702 109.94 383.747 109.342C384.793 108.745 385.54 107.699 385.988 106.504C385.839 107.848 385.092 109.043 384.196 109.94C383.15 110.836 382.104 111.434 380.909 112.031C378.519 113.077 375.83 113.525 373.29 113.525C370.602 113.525 368.062 112.927 365.672 111.882C364.477 111.434 363.282 110.687 362.236 109.94C361.34 109.043 360.443 107.848 360.443 106.504Z" fill="#B1BBD0"/>
</g>
<g opacity="0.5">
<path d="M395.849 192.101C393.309 193.744 391.069 196.134 389.575 198.673C387.932 201.213 387.035 204.201 386.886 207.039C386.736 208.533 386.886 210.027 387.035 211.521C387.185 213.014 387.483 214.508 387.932 216.002C388.38 217.496 388.977 218.84 389.724 220.185C390.471 221.529 391.367 222.724 392.562 223.77C389.724 222.276 387.932 219.438 386.736 216.45C385.541 213.463 385.093 210.325 385.243 207.039C385.392 205.396 385.691 203.902 386.288 202.259C386.886 200.765 387.633 199.271 388.529 198.076C390.471 195.387 393.011 193.296 395.849 192.101Z" fill="#B1BBD0"/>
</g>
</svg>
