<svg width="900" height="500" viewBox="0 0 900 500" fill="none" xmlns="http://www.w3.org/2000/svg">
<path opacity="0.33" d="M512.283 419.258C501.388 408.582 492.069 399.592 484.471 392.287C473.432 381.611 467.841 376.273 466.407 375.009C458.952 368.828 453.934 366.018 448.343 358.573C446.336 356.045 443.469 352.252 441.462 346.493C439.598 341.435 439.311 337.783 438.594 328.793C437.734 318.819 437.304 313.762 436.874 309.267C435.584 297.046 434.724 290.162 432.143 281.172C430.853 276.958 429.849 274.289 428.989 269.091C428.272 264.877 427.412 259.82 428.559 253.779C429.132 250.83 429.706 249.987 431.283 244.649C433.003 238.889 434.15 234.113 434.867 231.023C434.007 228.494 433.003 224.982 432 220.628C431.139 217.256 430.566 214.868 430.136 211.778C429.706 208.687 429.276 204.192 429.419 198.714C430.566 198.433 431.569 198.011 432.716 197.73C433.863 197.309 435.727 196.606 438.021 196.185C439.885 195.904 446.193 194.78 451.354 198.011C452.501 198.714 452.787 199.275 455.511 202.366C462.679 210.654 462.536 209.811 464.113 212.059C468.988 218.661 470.564 225.263 471.425 229.056C472.715 234.535 472.715 238.889 472.858 243.806C472.858 248.582 472.572 252.515 472.285 255.465C471.855 256.449 471.425 257.572 470.851 258.556C471.281 259.398 471.711 260.241 472.141 261.084C473.002 262.208 473.862 263.472 474.722 264.877C477.589 269.794 478.163 274.57 478.306 277.66C478.306 281.593 479.166 284.262 479.883 285.948C480.457 287.212 481.03 288.055 484.614 293.253C486.048 295.219 487.195 296.905 488.055 298.169C488.485 295.641 489.058 291.848 489.489 287.353C489.919 282.717 490.062 277.098 489.202 263.472C488.772 256.589 488.485 250.97 487.625 242.682C485.904 226.668 484.471 221.189 483.037 210.654C481.03 194.921 480.17 185.649 481.604 173.99C481.89 171.181 482.607 167.107 483.181 160.224C483.897 151.795 483.754 149.407 484.327 142.524C485.188 130.864 485.618 124.965 487.912 118.081C490.205 110.777 492.643 103.332 499.667 100.101C504.112 97.9935 508.556 98.4149 509.273 98.5554C514.864 99.2578 518.448 102.489 519.452 103.472C522.606 106.422 523.896 109.653 524.613 111.9C526.046 115.974 526.476 119.767 526.046 127.353C525.473 136.343 524.613 137.888 524.039 144.771C523.179 154.324 524.039 161.769 524.613 166.124C525.616 174.131 526.476 174.692 529.057 187.757C530.204 193.656 530.921 198.573 532.354 208.406C533.358 215.43 534.648 224.561 535.938 235.518C537.515 235.518 539.092 235.377 540.669 235.377C539.809 229.899 538.519 222.173 537.085 212.621C534.792 197.59 533.645 190.004 533.071 180.592C532.211 167.809 531.781 159.943 533.645 151.795C534.075 150.109 534.935 146.457 535.508 141.26C536.225 135.36 535.652 134.798 536.225 129.179C537.085 120.048 539.379 114.289 539.953 112.743C541.53 108.81 542.533 106.281 545.114 103.753C546.404 102.348 549.988 98.9768 555.723 98.134C561.314 97.4316 565.615 99.6792 566.905 100.522C571.493 103.051 573.643 106.843 574.36 108.248C575.937 111.058 576.224 113.446 576.797 116.817C577.514 121.874 577.371 125.807 577.227 127.212C576.941 133.814 577.371 140.417 577.371 146.879C577.227 159.24 578.804 170.338 580.955 185.93C582.245 195.764 584.252 207.704 587.263 221.189C589.7 222.032 592.28 222.875 594.718 223.718C596.295 219.785 598.302 213.885 599.449 206.58C600.452 199.697 600.309 194.499 599.879 185.649C599.305 173.288 597.872 164.016 597.442 161.769C595.865 151.936 594.718 145.333 591.85 136.624C590.56 132.691 588.696 127.774 587.836 120.61C587.263 115.272 587.549 111.76 588.84 108.529C589.7 106.281 590.99 102.91 594.431 100.803C600.596 97.1506 608.337 101.084 609.054 101.505C612.208 103.191 613.785 105.439 617.082 109.793C620.953 114.991 623.247 119.627 623.964 121.172C625.828 124.965 626.401 126.931 630.989 142.243C634.573 154.043 636.437 159.943 637.01 161.347C637.727 162.893 639.017 165.843 640.021 170.057C641.024 174.131 641.168 177.221 641.168 179.047C641.598 191.83 641.741 198.292 641.598 202.787C641.311 211.216 640.594 222.594 638.874 236.642C639.734 236.782 640.881 237.063 642.314 237.063C643.748 237.063 645.468 236.923 647.189 236.22C649.483 235.377 651.06 234.113 653.353 231.865C658.371 226.949 661.238 222.173 661.525 221.751C663.962 217.818 667.977 212.34 674.285 205.878C676.292 201.523 678.586 196.887 681.166 192.111C684.033 186.773 687.044 181.857 689.911 177.361C689.911 175.957 689.911 173.85 690.055 171.181C690.341 163.174 690.341 159.24 690.915 156.431C691.632 153.2 693.065 145.895 699.23 140.979C701.094 139.433 706.398 135.079 713.566 136.062C719.874 136.905 723.602 141.4 724.462 142.664C724.605 146.457 724.605 150.39 724.749 154.324C724.892 161.066 724.892 167.809 724.749 174.412C724.462 176.238 724.175 178.064 723.889 179.89C720.878 193.516 713.423 215.149 708.405 226.949C705.538 233.692 700.664 244.227 694.929 253.499C693.209 256.168 691.918 258.275 691.918 258.275C686.614 266.141 684.32 268.108 681.309 273.024C678.299 277.941 676.722 282.296 676.148 284.122C672.994 293.815 675.432 296.624 671.991 305.334C671.417 306.879 670.27 309.407 669.554 313.2C668.98 316.431 668.98 318.819 668.98 320.364C668.98 331.181 669.697 336.659 669.697 344.807C669.697 346.633 669.554 349.162 669.267 354.219C668.693 363.63 668.407 368.407 667.69 373.885C666.543 382.454 665.683 382.173 665.109 388.775C664.679 393.411 664.249 398.047 665.396 403.947C666.113 407.599 667.546 413.218 671.704 419.68C618.229 419.399 565.328 419.258 512.283 419.258Z" fill="#E0E1E2"/>
<path d="M512.283 419.258C501.388 408.582 492.069 399.592 484.471 392.287C473.432 381.611 467.841 376.273 466.407 375.009C458.952 368.828 453.934 366.018 448.343 358.573C446.336 356.045 443.469 352.252 441.462 346.493C439.598 341.435 439.311 337.783 438.594 328.793C437.734 318.819 437.304 313.762 436.874 309.267C435.584 297.046 434.724 290.162 432.143 281.172C430.853 276.958 429.849 274.289 428.989 269.091C428.272 264.877 427.412 259.82 428.559 253.779C429.132 250.83 429.706 249.987 431.283 244.649C433.003 238.889 434.15 234.113 434.867 231.023C434.007 228.494 433.003 224.982 432 220.628C431.139 217.256 430.566 214.868 430.136 211.778C429.706 208.687 429.276 204.192 429.419 198.714C430.566 198.433 431.569 198.011 432.716 197.73C433.863 197.309 435.727 196.606 438.021 196.185C439.885 195.904 446.193 194.78 451.354 198.011C452.501 198.714 452.787 199.275 455.511 202.366C462.679 210.654 462.536 209.811 464.113 212.059C468.988 218.661 470.564 225.263 471.425 229.056C472.715 234.535 472.715 238.889 472.858 243.806C472.858 248.582 472.572 252.515 472.285 255.465C471.855 256.449 471.425 257.572 470.851 258.556C471.281 259.398 471.711 260.241 472.141 261.084C473.002 262.208 473.862 263.472 474.722 264.877C477.589 269.794 478.163 274.57 478.306 277.66C478.306 281.593 479.166 284.262 479.883 285.948C480.457 287.212 481.03 288.055 484.614 293.253C486.048 295.219 487.195 296.905 488.055 298.169C488.485 295.641 489.058 291.848 489.489 287.353C489.919 282.717 490.062 277.098 489.202 263.472C488.772 256.589 488.485 250.97 487.625 242.682C485.904 226.668 484.471 221.189 483.037 210.654C481.03 194.921 480.17 185.649 481.604 173.99C481.89 171.181 482.607 167.107 483.181 160.224C483.897 151.795 483.754 149.407 484.327 142.524C485.188 130.864 485.618 124.965 487.912 118.081C490.205 110.777 492.643 103.332 499.667 100.101C504.112 97.9935 508.556 98.4149 509.273 98.5554C514.864 99.2578 518.448 102.489 519.452 103.472C522.606 106.422 523.896 109.653 524.613 111.9C526.046 115.974 526.476 119.767 526.046 127.353C525.473 136.343 524.613 137.888 524.039 144.771C523.179 154.324 524.039 161.769 524.613 166.124C525.616 174.131 526.476 174.692 529.057 187.757C530.204 193.656 530.921 198.573 532.354 208.406C533.358 215.43 534.648 224.561 535.938 235.518C537.515 235.518 539.092 235.377 540.669 235.377C539.809 229.899 538.519 222.173 537.085 212.621C534.792 197.59 533.645 190.004 533.071 180.592C532.211 167.809 531.781 159.943 533.645 151.795C534.075 150.109 534.935 146.457 535.508 141.26C536.225 135.36 535.652 134.798 536.225 129.179C537.085 120.048 539.379 114.289 539.953 112.743C541.53 108.81 542.533 106.281 545.114 103.753C546.404 102.348 549.988 98.9768 555.723 98.134C561.314 97.4316 565.615 99.6792 566.905 100.522C571.493 103.051 573.643 106.843 574.36 108.248C575.937 111.058 576.224 113.446 576.797 116.817C577.514 121.874 577.371 125.807 577.227 127.212C576.941 133.814 577.371 140.417 577.371 146.879C577.227 159.24 578.804 170.338 580.955 185.93C582.245 195.764 584.252 207.704 587.263 221.189C589.7 222.032 592.28 222.875 594.718 223.718C596.295 219.785 598.302 213.885 599.449 206.58C600.452 199.697 600.309 194.499 599.879 185.649C599.305 173.288 597.872 164.016 597.442 161.769C595.865 151.936 594.718 145.333 591.85 136.624C590.56 132.691 588.696 127.774 587.836 120.61C587.263 115.272 587.549 111.76 588.84 108.529C589.7 106.281 590.99 102.91 594.431 100.803C600.596 97.1506 608.337 101.084 609.054 101.505C612.208 103.191 613.785 105.439 617.082 109.793C620.953 114.991 623.247 119.627 623.964 121.172C625.828 124.965 626.401 126.931 630.989 142.243C634.573 154.043 636.436 159.943 637.01 161.347C637.727 162.893 639.017 165.843 640.021 170.057C641.024 174.131 641.168 177.221 641.168 179.047C641.598 191.83 641.741 198.292 641.598 202.787C641.311 211.216 640.594 222.594 638.874 236.642C639.734 236.782 640.881 237.063 642.314 237.063" stroke="#75819C" stroke-width="2" stroke-miterlimit="10"/>
<path d="M681.167 272.744C678.156 277.661 676.579 282.015 676.006 283.842C672.852 293.534 675.289 296.344 671.848 305.053C671.275 306.598 670.128 309.127 669.411 312.92C668.838 316.151 668.838 318.539 668.838 320.084C668.838 330.901 669.554 336.379 669.554 344.527C669.554 346.353 669.411 348.881 669.124 353.938C668.551 363.35 668.264 368.126 667.547 373.605C666.4 382.174 665.54 381.893 664.967 388.495C664.537 393.131 664.107 397.766 665.254 403.666C665.97 407.319 667.404 412.937 671.562 419.399" stroke="#75819C" stroke-width="2" stroke-miterlimit="10"/>
<path d="M642.458 236.783C643.892 236.783 645.612 236.642 647.332 235.94C649.626 235.097 651.203 233.833 653.497 231.585C658.515 226.669 661.382 221.892 661.669 221.471C664.106 217.538 668.12 212.059 674.428 205.597C676.435 201.243 678.729 196.607 681.31 191.831C684.177 186.493 687.188 181.576 690.055 177.081C690.055 175.676 690.055 173.569 690.198 170.9C690.485 162.893 690.485 158.96 691.058 156.15C691.775 152.92 693.209 145.615 699.373 140.698C701.237 139.153 706.542 134.798 713.71 135.782C720.018 136.625 723.745 141.12 724.606 142.384C724.749 146.177 724.749 150.11 724.892 154.043C725.036 160.786 725.036 167.529 724.892 174.131C724.606 175.957 724.319 177.783 724.032 179.61C721.021 193.236 713.567 214.869 708.549 226.669C705.681 233.411 700.807 243.947 695.073 253.218C693.352 255.887 692.062 257.994 692.062 257.994C686.757 265.861 684.464 267.828 681.453 272.744" stroke="#F69AED" stroke-width="3" stroke-miterlimit="10" stroke-linecap="round"/>
<g opacity="0.5">
<path d="M708.119 141.119C708.119 143.507 708.119 146.036 708.119 148.424C708.262 150.812 708.405 153.2 708.835 155.588C708.979 156.15 709.122 156.712 709.266 157.274C709.409 157.836 709.552 158.257 709.982 158.678C710.699 159.521 711.703 160.083 712.706 160.645C714.857 161.769 717.151 162.471 719.588 162.752C717.151 163.033 714.57 162.612 712.133 161.628C710.986 161.207 709.839 160.505 708.835 159.521C708.405 159.1 707.975 158.257 707.832 157.695C707.689 157.133 707.545 156.431 707.402 155.869C706.972 153.481 706.828 150.952 706.972 148.564C707.115 145.895 707.545 143.367 708.119 141.119Z" fill="#75819C"/>
</g>
<g opacity="0.5">
<path d="M439.024 228.214C440.027 227.371 440.601 226.388 440.887 225.264C441.174 224.14 441.174 223.016 441.174 221.893C441.174 220.769 441.031 219.505 440.887 218.381L440.6 214.869C440.457 212.481 440.314 210.093 439.74 207.845C439.454 206.721 439.167 205.598 438.593 204.474C438.163 203.491 437.447 202.507 436.156 201.945C437.447 202.086 438.45 203.069 439.167 204.052C439.884 205.176 440.314 206.3 440.744 207.424C441.461 209.812 441.747 212.2 441.891 214.588C442.034 216.976 442.321 219.364 442.178 221.893C442.178 223.157 441.891 224.421 441.461 225.545C441.031 226.669 440.17 227.652 439.024 228.214Z" fill="#75819C"/>
</g>
<path opacity="0.33" d="M289.742 428.752C293.662 423.089 321.832 375.607 328.657 366.75C335.482 357.892 347.534 348.599 351.454 343.226C355.375 337.709 371.783 315.202 378.462 305.473C385.142 295.744 402.276 274.98 405.035 266.268C407.794 257.555 406.487 242.454 407.503 237.662C408.52 233.016 412.731 206.879 414.183 201.651C415.635 196.424 417.668 187.421 419.12 182.775C420.572 178.128 416.07 163.898 419.12 156.057C422.169 148.216 431.752 132.389 429.72 124.257C427.687 116.126 409.1 113.948 396.177 127.161C383.254 140.375 375.994 153.153 373.961 161.43C371.928 169.706 373.816 173.772 373.38 175.224C372.944 176.676 370.766 177.112 369.75 180.452C368.733 183.791 364.087 209.638 362.635 211.961C361.328 214.43 358.424 216.608 357.407 219.221C356.391 221.835 356.101 177.402 358.714 165.931C361.473 154.46 376.865 112.35 379.188 104.074C381.511 95.797 381.802 85.1971 384.996 75.0327C388.191 64.8684 394.29 29.874 383.98 17.0959C373.67 4.31789 360.602 11.8685 357.262 18.2576C353.923 24.6466 351.018 29.874 349.857 38.8767C348.84 47.8794 348.55 56.7369 345.936 63.8519C343.323 70.967 330.254 91.7313 328.512 96.5231C326.769 101.315 310.797 137.616 309.345 138.778C307.893 139.939 303.536 138.052 301.504 132.389C299.616 126.726 297.438 103.783 297.438 103.783C297.438 103.783 298.745 102.622 298.89 101.17C299.035 99.8628 305.86 105.381 317.04 97.6847C328.366 89.9888 325.462 79.6793 322.268 74.5971C319.073 69.5149 316.314 61.2382 313.12 58.0437C309.925 54.8492 301.649 48.7506 289.161 48.1698C276.819 47.589 257.797 51.3643 252.569 57.0273C247.342 62.6903 244.293 72.1286 244.002 74.3067C241.243 74.1615 239.356 74.8875 234.419 74.4519C229.482 74.0163 225.271 72.8546 219.608 73.5807C213.945 74.3067 212.493 76.0491 207.846 75.9039C203.2 75.7587 195.94 82.1478 193.035 93.7642C187.808 94.4902 184.468 98.1203 179.677 101.605C174.885 105.09 168.496 111.189 163.849 115.981C159.203 120.772 154.701 120.046 151.652 130.791C148.603 141.537 150.636 162.011 151.652 166.947C152.668 171.884 159.493 190.616 158.622 198.747C157.751 206.879 156.299 221.835 159.057 234.468C161.816 247.101 166.318 265.977 167.044 273.818C167.77 281.659 173.578 312.879 172.126 326.673C170.674 340.467 162.252 362.684 159.057 370.815C155.863 378.947 139.31 414.232 129 428.897H289.742V428.752Z" fill="#E0E1E2"/>
<path d="M289.742 428.752C293.662 423.089 321.832 375.607 328.657 366.75C335.482 357.892 347.534 348.599 351.454 343.226C355.375 337.709 371.783 315.202 378.462 305.473C385.142 295.744 402.276 274.98 405.035 266.268C407.794 257.555 406.487 242.454 407.503 237.662C408.52 233.016 412.731 206.879 414.183 201.651C415.635 196.424 417.668 187.421 419.12 182.775C420.572 178.128 416.07 163.898 419.12 156.057C422.169 148.216 431.752 132.389 429.72 124.257C427.687 116.126 409.1 113.948 396.177 127.161C383.254 140.375 375.994 153.153 373.961 161.43C371.928 169.706 373.816 173.772 373.38 175.224C372.944 176.676 370.766 177.112 369.75 180.452C368.733 183.791 364.087 209.638 362.635 211.961C361.328 214.43 358.424 216.608 357.407 219.221C356.391 221.835 356.101 177.402 358.714 165.931C361.473 154.46 376.865 112.35 379.188 104.074C381.511 95.797 381.802 85.1971 384.996 75.0327C388.191 64.8684 394.29 29.874 383.98 17.0959C373.67 4.31789 360.602 11.8685 357.262 18.2576C353.923 24.6466 351.018 29.874 349.857 38.8767C348.84 47.8794 348.55 56.7369 345.936 63.8519C343.323 70.967 330.254 91.7313 328.512 96.5231C326.769 101.315 310.797 137.616 309.345 138.778C307.893 139.939 303.536 138.052 301.504 132.389C299.616 126.726 297.438 103.783 297.438 103.783C297.438 103.783 298.745 102.622 298.89 101.17C299.035 99.8628 305.86 105.381 317.04 97.6847C328.366 89.9888 325.462 79.6793 322.268 74.5971C319.073 69.5149 316.314 61.2382 313.12 58.0437C309.925 54.8492 301.649 48.7506 289.161 48.1698C276.819 47.589 257.797 51.3643 252.569 57.0273C247.342 62.6903 244.293 72.1286 244.002 74.3067C241.243 74.1615 239.356 74.8875 234.419 74.4519C229.482 74.0163 225.271 72.8546 219.608 73.5807C213.945 74.3067 212.493 76.0491 207.846 75.9039C203.2 75.7587 195.94 82.1478 193.035 93.7642C187.808 94.4902 184.468 98.1203 179.677 101.605C174.885 105.09 168.496 111.189 163.849 115.981C159.203 120.772 154.701 120.046 151.652 130.791C148.603 141.537 150.636 162.011 151.652 166.947C152.668 171.884 159.493 190.616 158.622 198.747C157.751 206.879 156.299 221.835 159.057 234.468C161.816 247.101 166.318 265.977 167.044 273.818C167.77 281.659 173.578 312.879 172.126 326.673C170.674 340.467 162.252 362.684 159.057 370.815C155.863 378.947 139.31 414.232 129 428.897" stroke="#75819C" stroke-width="2" stroke-miterlimit="10"/>
<path d="M359.15 165.787C361.909 154.315 377.301 112.206 379.624 103.929C381.947 95.6525 382.238 85.0525 385.432 74.8882C388.627 64.7238 394.725 29.7294 384.416 16.9514C374.106 4.17335 361.038 11.724 357.698 18.113C354.358 24.502 351.454 29.7294 350.292 38.7321C349.276 47.7348 348.986 56.5923 346.372 63.7074C343.758 70.8224 330.69 91.5868 328.947 96.3785C327.205 101.17 311.232 137.472 309.78 138.633" stroke="#F69AED" stroke-width="3" stroke-miterlimit="10" stroke-linecap="round"/>
<path d="M190.422 168.836C193.181 163.754 193.181 131.809 192.455 121.064C191.874 110.318 193.471 93.4746 193.471 93.4746" stroke="#75819C" stroke-width="2" stroke-miterlimit="10"/>
<path d="M232.096 151.411C236.597 146.91 242.26 140.956 241.098 120.773C239.937 100.589 244.583 74.1621 244.583 74.1621" stroke="#75819C" stroke-width="2" stroke-miterlimit="10"/>
<g opacity="0.5">
<path d="M426.815 124.403C425.218 123.386 423.33 122.951 421.442 122.806C419.555 122.66 417.667 123.096 416.215 123.967C413.021 125.71 411.859 129.485 410.697 133.115C410.116 134.858 409.826 136.745 409.536 138.633C409.245 140.521 409.245 142.408 409.39 144.151C409.39 144.586 409.536 145.022 409.681 145.312C409.826 145.603 410.262 146.038 410.552 146.474L412.295 148.797C413.456 150.395 414.618 151.847 415.634 153.444C414.327 152.137 413.021 150.685 411.714 149.233L409.826 147.055C409.536 146.619 409.245 146.474 408.81 145.893C408.519 145.312 408.374 144.877 408.229 144.296C407.648 140.375 408.229 136.455 409.245 132.68C409.826 130.792 410.407 129.049 411.423 127.162C412.295 125.419 413.892 123.822 415.634 122.951C417.522 122.08 419.555 121.789 421.442 122.08C422.459 122.225 423.33 122.515 424.201 122.806C425.218 123.241 426.089 123.677 426.815 124.403Z" fill="#75819C"/>
</g>
<g opacity="0.5">
<path d="M383.545 22.1786C383.545 23.7758 383.254 25.5183 382.528 26.9703C381.802 28.4224 380.641 29.7292 379.189 30.7456C378.463 31.1813 377.737 31.6169 376.865 31.9073C375.994 32.0525 375.123 32.1977 374.397 32.3429C372.8 32.4881 371.057 32.6333 369.46 32.6333C367.863 32.6333 366.12 32.4881 364.523 32.3429C363.652 32.1977 362.926 32.0525 362.054 31.9073C361.183 31.6169 360.457 31.4717 359.586 30.7456C358.86 30.0196 358.57 29.1484 358.424 28.2772C358.279 27.4059 358.279 26.5347 358.424 25.8087C358.715 24.2114 359.15 22.6142 359.731 21.1621C359.441 22.7594 359.15 24.3566 359.005 25.9539C359.005 27.5511 359.15 29.2936 360.167 30.0196C361.183 30.7456 362.926 31.0361 364.523 31.1813C366.12 31.3265 367.717 31.4717 369.315 31.4717C370.912 31.4717 372.509 31.4717 374.106 31.3265C374.832 31.3265 375.704 31.1813 376.43 31.0361C377.156 30.8908 377.882 30.6004 378.463 30.1648C381.222 28.2772 383.109 25.3731 383.545 22.1786Z" fill="#75819C"/>
</g>
<path d="M297.874 103.494C296.132 97.9765 297.874 69.3711 297.874 69.3711" stroke="#75819C" stroke-width="2" stroke-miterlimit="10"/>
</svg>
