<svg width="850" height="500" viewBox="0 0 850 500" fill="none" xmlns="http://www.w3.org/2000/svg">
<path opacity="0.33" d="M689.178 450.969C682.157 436.18 677.228 422.437 675.286 391.962C673.344 361.488 677.078 359.098 675.286 335.047C673.493 310.996 671.7 316.224 673.493 298.149C675.136 280.073 665.277 256.619 665.127 247.806C664.978 238.992 665.725 208.816 663.036 194.625C660.347 180.433 654.073 171.321 649.591 146.971C645.11 122.621 628.08 106.786 617.175 110.371C606.27 113.957 604.477 125.31 605.822 129.493C601.041 120.082 597.904 114.554 594.917 110.969C591.929 107.384 583.264 103.201 583.264 103.201C583.264 103.201 569.82 100.363 564.591 112.463C560.259 113.359 560.259 122.77 560.409 125.31C559.363 119.633 557.421 111.567 555.778 109.027C553.985 106.487 550.549 102.454 545.769 100.363C540.988 98.2713 528.739 99.0182 525.602 101.558C522.465 104.097 516.788 109.326 517.236 114.405C517.684 119.633 519.328 124.264 519.626 137.56C519.925 150.855 524.257 178.939 525.154 185.96C526.05 192.981 538.15 257.665 538.15 257.665C538.15 257.665 537.702 258.711 536.955 257.964C536.358 257.217 522.166 178.342 517.087 166.69C519.029 154.291 520.224 119.185 512.157 111.417C508.721 103.649 487.807 97.5244 479.89 115.002C471.973 132.331 474.512 163.403 473.018 175.354C471.524 187.305 473.168 213.895 474.662 221.813C473.616 213.746 470.927 206.277 466.296 201.646C461.665 197.015 454.046 192.384 448.668 190.442C444.336 188.948 438.809 190.89 436.419 193.28C435.672 194.027 434.626 194.774 433.581 194.923C432.386 195.222 431.34 196.119 431.34 196.119C431.34 198.658 433.282 211.356 440.303 223.904C438.51 226.593 440.9 237.797 438.958 245.714C437.016 253.482 434.776 258.86 438.212 267.823C436.867 270.214 438.66 276.786 441.647 279.177C439.855 284.704 442.096 291.725 448.071 306.365C455.54 324.739 451.806 345.055 457.034 355.512C462.263 365.969 468.537 369.555 475.408 380.31C482.131 391.066 508.423 424.678 519.178 433.193C529.934 441.708 534.416 450.82 534.416 450.82H689.178V450.969Z" fill="#E0E1E2"/>
<path d="M689.178 450.97C682.157 436.181 677.228 422.438 675.286 391.963C673.344 361.489 677.078 359.099 675.286 335.048C673.493 310.997 671.7 316.225 673.493 298.15C675.136 280.074 665.277 256.62 665.127 247.807C664.978 238.993 665.725 208.817 663.036 194.626C660.347 180.434 656.314 169.977 649.591 146.972C642.122 121.278 628.08 106.787 617.175 110.372C606.27 113.958 604.477 125.311 605.822 129.494C601.041 120.082 597.904 114.555 594.917 110.97C592.676 108.281 586.551 103.65 581.472 102.903C577.737 102.306 568.625 103.053 564.591 112.314C560.707 113.659 560.259 122.622 560.409 125.162C559.363 119.485 557.421 111.418 555.778 108.879C553.985 106.339 550.549 102.306 545.769 100.214C540.988 98.1229 528.739 98.8698 525.602 101.409C522.465 103.949 516.788 109.177 517.236 114.256C517.684 119.485 519.328 124.116 519.626 137.411C519.925 150.706 524.257 178.791 525.154 185.812C526.05 192.833 538.15 257.517 538.15 257.517C538.15 257.517 537.702 258.562 536.955 257.816C536.358 257.069 522.166 178.193 517.087 166.541C519.029 154.142 520.224 119.037 512.157 111.269C508.721 103.501 487.807 97.3759 479.89 114.854C471.973 132.183 474.512 163.255 473.018 175.206C471.524 187.156 473.168 213.747 474.662 221.664C473.616 213.598 470.927 206.128 466.296 201.497C461.665 196.866 454.046 192.235 448.668 190.293C444.336 188.8 438.809 190.742 436.419 193.281C435.523 194.177 434.328 195.074 432.983 195.223C431.937 195.373 431.34 195.671 431.34 195.671C431.34 198.061 432.983 209.564 438.809 221.067C439.556 222.561 440.004 224.204 439.705 225.847C439.108 230.179 440.602 239.142 438.958 245.566C437.016 253.334 434.776 258.712 438.212 267.675C438.51 272.455 440.004 277.236 441.647 279.028C441.199 285.452 442.096 291.577 448.071 306.216C455.54 324.591 451.806 344.907 457.034 355.364C462.263 365.821 468.537 369.406 475.408 380.162C482.131 390.918 508.423 424.529 519.178 433.044C529.934 441.559 534.416 450.672 534.416 450.672" stroke="#808285" stroke-width="2" stroke-miterlimit="10"/>
<path d="M479.74 348.045C480.188 340.426 483.624 327.43 483.923 322.799C484.371 318.168 483.027 324.741 482.728 304.723C482.578 284.556 480.786 252.887 477.499 238.695C474.213 224.503 475.109 221.665 473.615 216.586" stroke="#808285" stroke-width="2" stroke-miterlimit="10"/>
<path d="M589.239 244.67C585.953 239.741 582.218 231.076 581.77 208.071C581.322 185.066 574.45 179.538 574.002 163.704C573.554 147.869 562.201 142.79 560.259 125.461" stroke="#808285" stroke-width="2" stroke-miterlimit="10"/>
<path d="M629.574 238.992C629.724 233.316 629.873 204.634 626.886 187.455C623.898 170.275 620.91 163.702 617.325 156.084C613.59 148.316 607.316 136.514 605.523 129.643" stroke="#808285" stroke-width="2" stroke-miterlimit="10"/>
<g opacity="0.5">
<path d="M439.706 197.017C441.051 197.315 442.246 198.062 443.441 198.959C444.486 200.004 445.233 201.199 445.681 202.544C446.428 205.233 447.175 207.772 447.623 210.611C448.072 213.3 448.52 216.138 448.221 218.976C448.221 219.723 447.922 220.47 447.773 221.068C447.474 221.815 447.026 222.412 446.428 222.86C445.233 223.906 443.739 224.055 442.395 223.607C443.739 223.757 445.084 223.308 445.98 222.263C446.877 221.366 447.026 220.022 447.026 218.677C447.026 215.989 446.578 213.3 446.13 210.76C445.681 208.071 445.084 205.382 444.486 202.843C444.038 200.452 442.246 198.212 439.706 197.017Z" fill="#AEB0B2"/>
</g>
<path opacity="0.33" d="M273.888 452.613C277.921 448.879 282.701 442.156 293.457 434.837C304.213 427.517 333.343 391.067 355.601 369.705C377.86 348.343 363.818 347.745 379.503 303.228C395.188 258.711 388.018 259.309 382.043 238.694C382.043 238.694 386.674 220.618 385.927 204.933C373.826 196.717 356.199 207.174 345.294 231.822C334.389 256.471 342.605 267.525 342.605 267.525C342.605 267.525 336.181 271.857 331.7 288.439C327.218 305.021 326.621 304.722 326.173 301.286C325.575 298 328.413 277.086 330.505 268.272C332.746 259.458 337.974 238.694 346.788 220.32C355.601 201.796 360.531 186.409 362.772 177.147C365.013 167.885 373.528 159.52 375.47 137.56C377.412 115.601 372.482 116.049 372.482 116.049C372.482 116.049 362.324 97.0768 344.995 116.049C329.907 137.261 341.111 142.191 318.106 169.977C295.1 197.762 288.079 232.42 283.15 235.706C278.22 238.993 287.482 207.921 292.71 194.177C297.939 180.434 302.271 173.562 302.271 173.562C302.271 173.562 319.6 164.45 326.173 141.743C332.746 118.887 326.173 115.899 326.173 115.899C326.173 115.899 325.276 107.683 312.728 106.488C300.18 105.293 298.387 116.049 298.387 116.049C298.387 116.049 295.1 115.451 287.631 128.448L284.345 130.091C284.345 130.091 287.332 124.265 286.586 117.393C285.689 110.521 280.61 106.339 274.187 104.994C267.912 103.65 253.273 114.405 253.273 114.405C253.273 114.405 244.459 116.348 239.529 122.92C239.529 122.92 239.529 121.875 233.255 116.348C229.072 110.073 222.201 109.476 218.914 112.762C215.628 116.049 213.686 121.277 213.686 121.277C213.686 121.277 202.631 132.481 191.726 156.233C180.671 179.836 174.397 187.604 171.708 193.131C169.019 198.659 165.733 209.564 162.148 218.676C158.562 227.789 162.745 239.291 150.645 268.422C138.545 297.552 144.819 306.963 142.429 336.392C139.889 365.821 140.487 390.32 133.914 408.993C127.341 427.666 113 452.912 113 452.912H273.888V452.613Z" fill="#E0E1E2"/>
<path d="M273.888 452.613C277.921 448.879 282.701 442.156 293.457 434.837C304.213 427.517 333.343 391.067 355.601 369.705C377.86 348.343 363.818 347.745 379.503 303.228C395.188 258.711 388.018 259.309 382.043 238.694C382.043 238.694 386.674 220.618 385.927 204.933C373.826 196.717 356.199 207.174 345.294 231.822C334.389 256.471 342.605 267.525 342.605 267.525C342.605 267.525 336.181 271.857 331.7 288.439C327.218 305.021 326.621 304.722 326.173 301.286C325.575 298 328.413 277.086 330.505 268.272C332.746 259.458 337.974 238.694 346.788 220.32C355.601 201.796 360.531 186.409 362.772 177.147C365.013 167.885 373.528 159.52 375.47 137.56C377.412 115.601 372.482 116.049 372.482 116.049C372.482 116.049 362.324 97.0768 344.995 116.049C329.907 137.261 341.111 142.191 318.106 169.977C295.1 197.762 288.079 232.42 283.15 235.706C278.22 238.993 287.482 207.921 292.71 194.177C297.939 180.434 302.271 173.562 302.271 173.562C302.271 173.562 319.6 164.45 326.173 141.743C332.746 118.887 326.173 115.899 326.173 115.899C326.173 115.899 325.276 107.683 312.728 106.488C300.18 105.293 298.387 116.049 298.387 116.049C298.387 116.049 295.1 115.451 287.631 128.448L284.345 130.091C284.345 130.091 287.332 124.265 286.586 117.393C285.689 110.521 280.61 106.339 274.187 104.994C267.912 103.65 253.273 114.405 253.273 114.405C253.273 114.405 244.459 116.348 239.529 122.92C239.529 122.92 239.529 121.875 233.255 116.348C229.072 110.073 222.201 109.476 218.914 112.762C215.628 116.049 213.686 121.277 213.686 121.277C213.686 121.277 202.631 132.481 191.726 156.233C180.671 179.836 174.397 187.604 171.708 193.131C169.019 198.659 165.733 209.564 162.148 218.676C158.562 227.789 162.745 239.291 150.645 268.422C138.545 297.552 144.819 306.963 142.429 336.392C139.889 365.821 140.487 390.32 133.914 408.993C127.341 427.666 113 452.912 113 452.912" stroke="#808285" stroke-width="2" stroke-miterlimit="10"/>
<path d="M330.207 268.272C332.447 259.458 337.676 238.693 346.49 220.319C355.303 201.795 360.233 186.409 362.474 177.147C364.715 167.885 373.23 159.519 375.172 137.56C377.114 115.6 372.184 116.048 372.184 116.048C372.184 116.048 362.026 97.0763 344.697 116.048C329.609 137.261 340.813 142.191 317.808 169.976C294.802 197.762 287.781 232.419 282.852 235.706" stroke="#2969D0" stroke-width="3" stroke-miterlimit="10" stroke-linecap="round"/>
<path d="M177.684 242.28C183.061 233.466 185.601 223.158 188.141 202.244C190.68 181.33 191.875 162.657 197.701 155.935C203.527 149.213 211.893 145.478 218.914 137.561C225.935 129.643 235.346 129.494 239.23 122.921" stroke="#808285" stroke-width="2" stroke-miterlimit="10"/>
<path d="M216.823 237.648C223.247 231.224 229.521 220.468 237.438 191.04C245.356 161.461 254.319 148.315 260.742 145.328C267.166 142.34 280.163 131.136 290.47 129.941C300.778 128.746 303.765 131.136 303.765 131.136" stroke="#808285" stroke-width="2" stroke-miterlimit="10"/>
<g opacity="0.5">
<path d="M345.443 120.382C345.742 121.577 346.788 122.473 347.684 123.071C348.73 123.668 349.925 124.116 350.971 124.565C353.361 125.312 355.751 125.76 358.141 125.76C360.531 125.76 363.071 125.461 365.461 124.714C366.656 124.415 367.702 123.818 368.747 123.22C369.793 122.623 370.54 121.577 370.988 120.382C370.839 121.726 370.092 122.921 369.196 123.818C368.15 124.714 367.104 125.312 365.909 125.909C363.519 126.955 360.83 127.403 358.29 127.403C355.602 127.403 353.062 126.805 350.672 125.76C349.477 125.312 348.282 124.565 347.236 123.818C346.34 122.921 345.443 121.726 345.443 120.382Z" fill="#AEB0B2"/>
</g>
<g opacity="0.5">
<path d="M380.848 205.979C378.308 207.622 376.068 210.012 374.574 212.551C372.931 215.091 372.034 218.079 371.885 220.917C371.735 222.411 371.885 223.905 372.034 225.399C372.184 226.892 372.482 228.386 372.931 229.88C373.379 231.374 373.976 232.718 374.723 234.063C375.47 235.407 376.366 236.602 377.561 237.648C374.723 236.154 372.931 233.316 371.735 230.328C370.54 227.341 370.092 224.203 370.242 220.917C370.391 219.274 370.69 217.78 371.287 216.137C371.885 214.643 372.632 213.149 373.528 211.954C375.47 209.265 378.01 207.174 380.848 205.979Z" fill="#AEB0B2"/>
</g>
</svg>
