<svg width="900" height="500" viewBox="0 0 900 500" fill="none" xmlns="http://www.w3.org/2000/svg">
<path opacity="0.33" d="M350.977 429.161C356.313 422.383 372.176 398.876 377.224 391.088C382.271 383.301 393.664 356.765 398.423 350.708C403.182 344.651 408.951 337.008 406.355 319.125C403.904 301.243 401.74 295.042 403.183 269.516C404.625 243.99 400.154 238.942 394.241 226.684C393.087 219.329 391.213 217.31 388.473 215.147C388.905 210.099 391.501 190.053 393.087 179.814C394.818 169.575 391.357 172.748 393.087 150.971C394.818 129.195 388.905 113.764 385.156 109.293C384.579 104.967 380.397 100.063 372.753 98.4771C365.254 96.7465 358.332 103.669 358.332 106.697C355.88 107.563 348.093 118.234 351.986 153.134C343.478 173.469 338.142 194.38 336.988 201.446C335.69 208.513 329.921 240.384 327.614 239.086C325.307 237.788 334.536 207.359 337.276 188.467C340.016 169.575 342.901 156.451 344.631 147.51C346.362 138.569 346.506 109.293 336.7 105.688C334.392 98.3329 327.326 96.4581 320.836 96.0254C314.346 95.5928 308.866 100.784 308.722 103.813C305.838 104.823 302.809 118.811 304.107 138.28C297.617 145.203 288.82 167.123 279.014 215.291C279.014 215.291 282.186 168.421 288.243 149.241C294.445 130.06 298.915 122.561 295.31 111.889C297.041 106.842 292.281 103.092 285.792 101.073C279.302 99.0539 271.947 102.515 270.505 106.553C265.313 107.418 256.66 122.849 252.911 135.108C245.989 147.366 237.768 168.998 234.596 181.256C231.423 193.514 229.981 238.365 228.106 241.394C226.231 244.422 222.914 244.711 220.318 241.826C217.723 238.942 217.001 238.077 216.28 232.741C215.559 227.261 214.261 217.743 212.675 210.676C211.233 203.609 209.502 189.621 210.079 184.429C210.656 179.237 217.29 170.007 216.569 157.893C215.848 145.779 208.204 141.165 206.185 139.578C204.166 138.136 201.859 134.675 194.937 136.55C188.014 138.425 184.697 154.288 184.697 154.288C184.697 154.288 175.9 171.45 174.458 175.343C173.016 179.237 173.304 183.996 171.862 190.342C170.42 196.687 172.295 203.033 170.132 209.378C168.113 215.724 168.978 226.107 171.285 234.76C173.593 243.413 171.862 243.845 173.737 250.479C175.612 256.969 179.361 265.91 180.659 272.111C181.957 278.313 181.525 292.013 182.39 302.685C183.255 313.357 188.159 319.27 189.456 333.258C190.754 347.247 193.494 386.185 195.369 397.434C197.244 408.683 198.398 412.144 192.773 429.45H350.977V429.161Z" fill="#E0E1E2"/>
<path d="M350.977 429.161C356.313 422.383 372.176 398.876 377.224 391.088C382.271 383.301 393.664 356.765 398.423 350.708C403.182 344.651 408.951 337.008 406.355 319.125C403.904 301.243 401.74 295.042 403.183 269.516C404.625 243.99 400.154 238.942 394.241 226.684C393.087 219.329 391.213 217.31 388.473 215.147C388.905 210.099 391.501 190.053 393.087 179.814C394.818 169.575 391.357 172.748 393.087 150.971C394.818 129.195 388.905 113.764 385.156 109.293C384.579 104.967 380.397 100.063 372.753 98.4771C365.254 96.7465 358.332 103.669 358.332 106.697C355.88 107.563 348.093 118.234 351.986 153.134C343.478 173.469 338.142 194.38 336.988 201.446C335.69 208.513 329.921 240.384 327.614 239.086C325.307 237.788 334.536 207.359 337.276 188.467C340.016 169.575 342.901 156.451 344.631 147.51C346.362 138.569 346.506 109.293 336.7 105.688C334.392 98.3329 327.326 96.4581 320.836 96.0254C314.346 95.5928 308.866 100.784 308.722 103.813C305.838 104.823 302.809 118.811 304.107 138.28C297.617 145.203 288.82 167.123 279.014 215.291C279.014 215.291 282.186 168.421 288.243 149.241C294.445 130.06 298.915 122.561 295.31 111.889C297.041 106.842 292.281 103.092 285.792 101.073C279.302 99.0539 271.947 102.515 270.505 106.553C265.313 107.418 256.66 122.849 252.911 135.108C245.989 147.366 237.768 168.998 234.596 181.256C231.423 193.514 229.981 238.365 228.106 241.394C226.231 244.422 222.914 244.711 220.318 241.826C217.723 238.942 217.001 238.077 216.28 232.741C215.559 227.261 214.261 217.743 212.675 210.676C211.233 203.609 209.502 189.621 210.079 184.429C210.656 179.237 217.29 170.007 216.569 157.893C215.848 145.779 208.204 141.165 206.185 139.578C204.166 138.136 201.859 134.675 194.937 136.55C188.014 138.425 184.697 154.288 184.697 154.288C184.697 154.288 175.9 171.45 174.458 175.343C173.016 179.237 173.304 183.996 171.862 190.342C170.42 196.687 172.295 203.033 170.132 209.378C168.113 215.724 168.978 226.107 171.285 234.76C173.593 243.413 171.862 243.845 173.737 250.479C175.612 256.969 179.361 265.91 180.659 272.111C181.957 278.313 181.525 292.013 182.39 302.685C183.255 313.357 188.159 319.27 189.456 333.258C190.754 347.247 193.494 386.185 195.369 397.434C197.244 408.683 198.398 412.144 192.773 429.45" stroke="#75819C" stroke-width="2" stroke-miterlimit="10"/>
<path d="M220.462 241.539C217.866 238.511 217.145 237.789 216.424 232.454C215.703 226.973 214.405 217.455 212.819 210.389C211.376 203.322 209.646 189.333 210.223 184.142C210.8 178.95 217.433 169.72 216.712 157.606C215.991 145.492 208.348 140.877 206.329 139.291C204.31 137.849 202.002 134.388 195.08 136.262C188.158 138.137 184.841 154.001 184.841 154.001C184.841 154.001 176.044 171.162 174.602 175.056C173.16 178.95 173.448 183.709 172.006 190.054C170.564 196.4 172.438 202.745 170.275 209.091C168.256 215.436 169.122 225.82 171.429 234.473C173.736 243.125 172.006 243.558 173.881 250.192C175.755 256.682 179.505 265.623 180.803 271.824" stroke="#F69AED" stroke-width="3" stroke-miterlimit="10" stroke-linecap="round"/>
<g opacity="0.5">
<path d="M188.159 155.298C189.89 154.865 191.765 154.865 193.495 154.433C195.226 154 196.668 153.279 197.966 152.125C199.264 151.116 200.562 149.818 201.715 148.376C202.292 147.655 202.869 146.933 203.446 146.357C204.023 145.636 204.455 144.914 205.176 144.193C204.888 145.059 204.455 145.924 204.023 146.789C203.59 147.655 203.157 148.376 202.581 149.241C201.571 150.827 200.273 152.269 198.831 153.423C197.389 154.577 195.514 155.442 193.639 155.586C191.765 155.875 190.034 155.298 188.159 155.298Z" fill="#75819C"/>
</g>
<path d="M378.81 291.581C378.522 280.909 377.079 261.007 378.81 249.037C380.541 237.212 388.617 215.291 388.617 215.291" stroke="#75819C" stroke-width="2" stroke-miterlimit="10"/>
<path d="M271.658 238.798C274.687 232.164 278.436 222.79 279.013 215.146" stroke="#75819C" stroke-width="2" stroke-miterlimit="10"/>
<path opacity="0.33" d="M598.722 428.595C596.053 425.364 589.449 415.951 570.763 400.917C562.895 394.595 558.68 392.909 554.746 390.942C549.688 388.413 545.473 387.289 540.275 385.181C515.126 375.347 517.935 374.363 498.125 366.776C494.472 365.371 489.836 363.685 484.356 359.751C477.753 355.115 474.521 351.181 473.538 349.776C471.15 346.544 469.885 343.734 468.48 340.643C466.513 336.429 466.092 334.181 463.563 326.313C461.877 321.395 461.034 318.866 460.472 317.461C457.943 311.42 455.976 308.469 453.447 303.833C451.48 300.18 448.951 294.7 446.703 287.395C445.719 285.99 444.455 284.023 443.331 281.494C442.347 279.386 440.802 276.295 439.959 271.94C439.537 269.692 439.537 268.427 439.397 262.948C439.256 247.353 439.256 242.435 439.678 235.551C439.678 235.129 439.678 234.708 439.678 234.567C438.273 232.319 436.868 229.931 435.603 227.121C432.091 219.674 430.124 212.79 429 207.029C430.264 205.765 432.231 204.079 435.182 202.674C440.661 200.145 446 200.848 448.67 201.41C450.215 201.831 453.166 202.534 457.943 205.905C459.91 207.31 467.778 212.93 474.521 224.03C478.315 230.071 479.86 234.708 482.108 241.452C483.092 244.262 483.935 247.493 483.654 251.708C483.513 253.956 482.951 255.642 482.53 256.906C482.389 257.047 482.389 257.328 482.249 257.468C483.513 258.452 484.778 259.716 486.042 261.121C488.431 263.791 488.852 265.055 491.803 269.551C495.315 274.89 496.018 275.031 497.563 278.262C498.828 280.932 499.53 283.32 499.952 284.866C500.654 285.147 501.778 285.568 502.762 286.552C503.886 287.535 504.448 288.519 504.869 289.221C505.431 286.13 505.712 282.056 505.431 277.279C505.15 273.345 504.307 271.378 502.902 264.634C502.481 262.948 501.919 259.716 500.654 253.113C496.158 229.228 496.439 229.79 495.034 223.468C493.629 217.286 491.943 209.277 488.571 199.162C485.761 190.451 484.356 186.095 482.108 175.839C480.001 166.004 482.811 153.781 483.373 151.954C483.794 150.409 484.356 149.144 484.778 148.161C484.216 141.979 484.778 136.78 485.34 133.127C486.042 129.053 486.745 124.557 489.555 119.358C490.96 116.689 492.505 114.581 493.629 113.176C493.91 112.193 494.472 110.929 495.175 109.664C497.985 105.309 502.34 103.763 503.605 103.342C504.588 103.061 511.754 100.672 517.795 104.887C519.2 105.871 520.043 106.854 520.745 107.557C521.588 107.838 522.853 108.54 523.977 109.664C524.539 110.226 525.101 110.929 525.382 111.35C525.944 109.945 526.787 108.54 527.911 107.135C528.192 106.854 528.332 106.573 528.613 106.292C529.316 104.606 530.58 101.796 533.39 99.4077C540.415 92.9447 549.829 94.6307 550.391 94.7712C554.184 95.4737 556.994 97.3002 558.821 98.7052C559.523 98.8457 560.226 99.2672 561.069 99.6887C561.49 99.9696 561.912 100.251 562.333 100.391C562.614 99.4077 563.035 98.0027 564.159 96.4572C564.159 96.4572 565.986 93.7877 569.498 91.9612C574.556 89.4323 583.829 89.4323 592.821 92.6637C602.375 96.0357 608.135 101.796 610.524 104.325C613.896 107.697 616.144 111.069 617.549 113.598C618.532 114.581 619.516 115.565 620.499 116.829C623.731 120.763 625.276 124.557 626.681 128.35C631.177 140.855 632.582 149.144 632.582 149.144C633.987 157.293 635.673 168.392 636.376 182.161C636.938 181.318 637.921 179.913 638.764 177.946C640.591 173.731 640.591 172.045 640.731 170.5C641.574 160.665 643.12 152.938 643.963 142.26C644.103 137.202 644.244 116.127 643.401 110.929C642.839 107.838 642.698 108.681 641.293 102.077C639.607 94.6307 639.326 90.8372 639.045 88.3083C638.905 85.4983 638.764 83.6718 639.045 81.1429C639.326 79.1759 639.748 75.8039 641.715 72.2915C642.698 70.6055 645.789 65.126 652.112 63.5805C653.236 63.2995 656.888 62.4566 660.541 64.283C661.946 64.9855 663.492 66.1095 666.021 69.903C669.393 74.8204 671.079 79.3164 671.781 81.2833C673.186 85.3578 675.153 90.6968 676.137 98.0027C677.261 105.73 678.244 122.59 678.806 125.681C680.211 133.689 681.335 136.359 682.319 142.822C682.459 143.805 683.864 161.086 682.459 175.698C681.757 183.285 681.476 182.723 680.914 189.327C680.352 195.93 679.93 200.707 680.352 206.467C680.773 213.071 681.757 215.038 682.881 221.922C683.724 227.121 684.567 234.708 684.145 244.121C684.848 246.088 685.831 248.898 686.815 252.27C689.203 260.138 691.17 266.179 692.294 273.907C693.278 279.948 692.716 280.229 694.261 292.593C694.683 295.824 695.104 298.494 695.245 300.18C696.79 311.139 698.617 320.271 699.881 326.032C700.583 329.263 701.707 334.462 703.393 340.784C704.939 346.685 706.906 354.553 709.716 362.702C713.509 374.082 717.584 382.091 721.658 390.38C724.047 395.157 729.807 406.256 738.518 419.744C740.907 423.538 743.155 426.629 744.7 428.877C695.526 428.596 647.194 428.595 598.722 428.595Z" fill="#E0E1E2"/>
<path d="M544.209 213.773C543.788 209.839 543.085 203.938 541.54 196.913C540.276 190.872 539.432 189.327 535.358 175.979C530.581 160.243 528.193 151.392 527.49 148.863C526.928 146.474 525.523 142.822 524.68 137.623C524.54 136.499 524.118 133.689 524.118 126.664C524.118 122.871 524.259 117.672 524.68 111.631" stroke="#75819C" stroke-width="2" stroke-miterlimit="10"/>
<path d="M590.292 182.02C589.87 179.491 588.044 164.599 585.515 151.954C585.515 151.954 582.845 143.102 580.457 136.499C577.928 129.755 579.192 133.548 574.275 123.995C571.325 118.094 567.25 114.019 566.267 113.036C565.002 108.821 563.738 104.746 562.473 100.531C562.333 100.531 562.192 100.672 561.911 100.672C563.316 104.887 564.862 108.821 566.267 112.895C566.548 113.176 575.539 129.193 577.085 134.251C577.225 134.813 578.349 138.606 580.457 146.193C582.845 154.483 583.548 157.152 584.812 161.929C586.077 165.863 588.325 175.417 590.292 182.02Z" stroke="#75819C" stroke-width="2" stroke-miterlimit="10"/>
<g opacity="0.5">
<path d="M442.769 232.039C443.471 231.055 444.033 229.791 444.174 228.667C444.314 227.543 444.174 226.278 444.033 225.154C443.612 222.766 443.05 220.378 442.207 218.13C441.786 217.006 441.364 215.882 440.802 214.758C440.381 213.634 439.819 212.369 439.397 211.386C438.414 209.278 436.025 208.154 433.496 208.014C434.761 207.873 436.025 208.014 437.29 208.435C438.554 208.857 439.678 209.7 440.381 210.964C441.645 213.212 442.629 215.46 443.612 217.849C444.455 220.237 445.017 222.766 445.298 225.295C445.438 226.559 445.438 227.824 445.017 229.088C444.314 230.212 443.612 231.196 442.769 232.039Z" fill="#75819C"/>
</g>
<path d="M598.722 428.596C596.053 425.364 589.449 415.951 570.763 400.918C562.895 394.595 558.68 392.909 554.746 390.942C549.688 388.413 545.473 387.289 540.275 385.182C515.126 375.347 517.935 374.363 498.125 366.776C494.472 365.371 489.836 363.685 484.356 359.752C477.753 355.115 474.521 351.181 473.538 349.776C471.15 346.545 469.885 343.735 468.48 340.644C466.513 336.429 466.092 334.181 463.563 326.313C461.877 321.395 461.034 318.866 460.472 317.461C457.943 311.42 455.976 308.47 453.447 303.833C451.48 300.18 448.951 294.701 446.703 287.395C445.719 285.99 444.455 284.023 443.331 281.494C442.347 279.386 440.802 276.295 439.959 271.94C439.537 269.692 439.537 268.428 439.397 262.948C439.256 247.353 439.256 242.435 439.678 235.551C439.678 235.129 439.678 234.708 439.678 234.567C438.273 232.319 436.868 229.931 435.603 227.121C432.091 219.675 430.124 212.79 429 207.03C430.264 205.765 432.231 204.079 435.182 202.674C440.661 200.145 446 200.848 448.67 201.41C450.215 201.831 453.166 202.534 457.943 205.906C459.91 207.311 467.778 212.931 474.521 224.03C478.315 230.071 479.86 234.708 482.108 241.452C483.092 244.262 483.935 247.493 483.654 251.708C483.513 253.956 482.951 255.642 482.53 256.907C482.389 257.047 482.389 257.328 482.249 257.469C483.513 258.452 484.778 259.717 486.042 261.122C488.431 263.791 488.852 265.056 491.803 269.552C495.315 274.89 496.018 275.031 497.563 278.262C498.828 280.932 499.53 283.32 499.952 284.866C500.654 285.147 501.778 285.568 502.762 286.552C503.886 287.535 504.448 288.519 504.869 289.221C505.431 286.13 505.712 282.056 505.431 277.279C505.15 273.345 504.307 271.378 502.902 264.634C502.481 262.948 501.919 259.717 500.654 253.113C496.158 229.228 496.439 229.79 495.034 223.468C493.629 217.286 491.943 209.278 488.571 199.162C485.761 190.451 484.356 186.095 482.108 175.839C480.001 166.004 482.811 153.781 483.373 151.954C483.794 150.409 484.356 149.144 484.778 148.161C484.216 141.979 484.778 136.781 485.34 133.128C486.042 129.053 486.745 124.557 489.555 119.359C490.96 116.689 492.505 114.582 493.629 113.177C493.91 112.193 494.472 110.929 495.175 109.664C497.985 105.309 502.34 103.763 503.605 103.342C504.588 103.061 511.754 100.672 517.795 104.887C519.2 105.871 520.043 106.854 520.745 107.557C521.588 107.838 522.853 108.54 523.977 109.664C524.539 110.226 525.101 110.929 525.382 111.35C525.944 109.945 526.787 108.54 527.911 107.135C528.192 106.854 528.332 106.573 528.613 106.292C529.316 104.606 530.58 101.796 533.39 99.4079C540.415 92.945 549.829 94.631 550.391 94.7715C554.184 95.474 556.994 97.3004 558.821 98.7054C559.523 98.8459 560.226 99.2674 561.069 99.6889C561.49 99.9699 561.912 100.251 562.333 100.391C562.614 99.4079 563.035 98.0029 564.159 96.4574C564.159 96.4574 565.986 93.788 569.498 91.9615C574.556 89.4325 583.829 89.4325 592.821 92.664C602.375 96.036 608.135 101.796 610.524 104.325C613.896 107.697 616.144 111.069 617.549 113.598C618.532 114.582 619.516 115.565 620.499 116.83C623.731 120.764 625.276 124.557 626.681 128.351C631.177 140.855 632.582 149.144 632.582 149.144C633.987 157.293 635.673 168.393 636.376 182.161" stroke="#75819C" stroke-width="2" stroke-miterlimit="10"/>
<path d="M679.649 204.922C679.649 205.484 679.649 205.484 679.649 206.046C680.071 212.649 681.054 214.616 682.178 221.501C683.021 226.699 683.864 234.286 683.443 243.699C684.145 245.666 685.129 248.476 686.112 251.848C688.501 259.716 690.468 265.758 691.592 273.485C692.575 279.527 692.013 279.808 693.559 292.171C693.98 295.403 694.402 298.072 694.542 299.758C696.088 310.717 697.914 319.85 699.179 325.61C699.881 328.842 701.005 334.04 702.691 340.362C704.237 346.263 706.204 354.131 709.014 362.28C712.807 373.661 716.881 381.669 720.956 389.958C723.344 394.735 729.105 405.835 737.816 419.322C740.204 423.116 742.452 426.207 743.998 428.455" stroke="#75819C" stroke-width="2" stroke-miterlimit="10"/>
<path d="M636.938 180.054C638.764 175.839 639.888 172.045 640.028 170.359C640.871 160.524 642.417 152.797 643.26 142.119C643.4 137.061 643.541 115.986 642.698 110.788C642.136 107.697 641.995 108.54 640.59 101.936C638.904 94.4901 638.623 90.6966 638.342 88.1677C638.202 85.3577 638.061 83.5312 638.342 81.0022C638.623 79.0352 639.045 75.6633 641.012 72.1508C641.995 70.4648 645.086 64.9854 651.409 63.4399C652.533 63.1589 656.186 62.3159 659.839 64.1424C661.244 64.8449 662.789 65.9689 665.318 69.7624C668.69 74.6798 670.376 79.1758 671.079 81.1427C672.484 85.2172 674.451 90.5561 675.434 97.862C676.558 105.589 677.542 122.449 678.104 125.54C679.509 133.549 680.633 136.218 681.616 142.681C681.756 143.665 683.161 160.946 681.756 175.558C681.054 183.145 680.773 182.583 680.211 189.186C679.79 194.946 679.368 199.442 679.509 204.36" stroke="#F69AED" stroke-width="3" stroke-miterlimit="10" stroke-linecap="round"/>
<g opacity="0.5">
<path d="M647.335 69.4824C647.897 71.8709 648.459 74.2594 649.442 76.3668C649.723 76.9288 650.004 77.3503 650.285 77.9123C650.566 78.4743 650.847 79.0363 651.128 79.3173C651.831 80.0198 652.814 80.5818 653.938 81.0033C656.186 81.8463 658.575 82.2678 660.823 82.5488C661.947 82.6893 663.211 82.6893 664.476 82.6893C665.6 82.6893 667.005 82.5488 667.567 81.7058C667.567 81.5653 667.567 81.2843 667.567 81.1438C667.567 80.8628 667.426 80.7223 667.426 80.4413C667.286 80.0198 667.145 79.5983 667.005 79.1768C667.286 79.5983 667.426 80.0198 667.567 80.4413C667.707 80.7223 667.707 80.8628 667.848 81.1438C667.848 81.4248 667.988 81.5653 667.988 81.8463C667.707 82.5488 667.005 82.8298 666.443 83.1108C665.74 83.3918 665.178 83.3918 664.616 83.5323C663.352 83.6728 662.087 83.6728 660.823 83.6728C658.294 83.5323 655.905 83.1108 653.517 82.1273C652.393 81.5653 651.128 81.1438 650.145 80.0198C649.723 79.4578 649.442 78.8958 649.161 78.3338C648.88 77.7718 648.599 77.2098 648.459 76.6478C647.475 74.3999 647.335 71.8709 647.335 69.4824Z" fill="#75819C"/>
</g>
</svg>
