<svg width="850" height="500" viewBox="0 0 850 500" fill="none" xmlns="http://www.w3.org/2000/svg">
<path opacity="0.33" d="M500.116 414.239C497.88 410.048 494.388 403.9 490.057 396.636C481.814 382.805 482.792 385.04 480.137 380.43C474.828 371.069 473.571 367.716 469.24 362.407C467.843 360.731 468.402 361.709 460.858 354.164C452.755 346.201 451.497 344.525 450.659 343.407C449.122 341.451 448.144 339.774 443.953 331.252C440.46 324.127 438.644 320.634 436.828 316.583C429.004 299.678 428.306 295.068 422.019 282.774C421.46 281.656 418.805 277.465 415.872 271.318C415.732 270.898 415.173 270.06 414.614 268.663C413.916 266.847 413.776 265.17 413.636 264.192C413.077 256.928 413.916 247.567 413.916 247.567C414.614 239.604 415.173 233.736 414.894 226.332C414.894 225.354 414.754 223.258 414.335 219.206C413.636 210.265 413.217 201.324 412.519 192.383C412.379 191.544 412.239 189.728 412.658 187.493C412.798 186.794 413.357 183.721 415.313 180.088C416.291 178.551 417.129 177.294 419.085 175.338C421.041 173.103 423.975 170.169 427.607 166.956C428.306 165.698 429.423 164.022 430.96 162.345C432.217 161.088 433.335 159.97 434.453 159.272C435.012 157.316 435.57 155.779 436.129 154.522C437.247 152.007 438.504 150.33 439.063 149.772C439.482 149.073 439.901 148.654 440.321 148.235C439.343 144.183 437.945 138.455 436.548 131.61C435.151 124.205 433.475 115.683 432.776 104.786C432.357 98.6385 432.776 100.734 432.357 83.55C432.078 74.3293 431.798 69.4395 431.798 60.3585C431.798 51.976 431.938 47.2259 433.335 41.2185C434.453 36.7478 435.85 33.1154 437.945 29.6227C440.041 26.2697 441.718 23.4756 445.35 21.7991C449.541 19.7035 454.571 19.8432 458.343 21.7991C460.299 22.777 461.556 24.0344 463.512 25.9903C466.725 29.2036 468.402 32.4169 468.681 32.9757C470.078 35.7699 470.637 38.2846 471.196 40.2405C471.755 42.7553 472.034 44.8509 472.174 47.7848C472.453 53.0937 472.453 55.4687 472.453 62.3144C472.593 70.9763 472.872 72.7925 473.012 73.9101C473.571 77.5426 474.549 80.0573 475.667 83.4103C477.623 89.278 478.74 90.6751 480.976 96.6826C482.652 101.153 483.63 104.786 484.189 106.742C485.306 110.793 487.123 117.499 488.101 125.323C488.38 127.279 488.659 131.19 489.917 136.36C490.196 137.757 490.476 138.735 490.755 139.573C492.432 139.573 494.108 139.433 495.785 139.433C496.623 138.176 497.74 136.36 498.579 133.985C499.417 131.61 499.696 129.374 499.696 127.837C500.954 120.573 501.932 112.609 502.491 103.808C502.91 97.5208 502.91 91.6531 502.77 86.0647C502.491 83.2706 502.351 79.3588 503.049 74.6087C503.469 72.5131 504.027 69.2998 505.704 65.8071C506.682 63.8512 509.755 57.5643 517.16 53.6525C525.403 49.1818 533.506 50.7186 536.02 51.2775C537.557 51.5569 544.543 53.2334 550.69 59.2408C553.763 62.3144 555.58 65.388 556.697 67.4836C556.837 68.3218 557.116 69.1601 557.256 69.9983C557.396 75.8661 557.536 81.8735 557.536 87.7413C560.19 85.2265 562.705 83.2706 564.661 82.0132C567.315 80.197 569.131 79.0794 571.786 78.2411C574.161 77.5426 576.117 77.5426 578.492 77.6823C581.705 77.6823 586.455 77.822 592.043 80.197C594.558 81.3147 597.492 82.5721 600.007 85.6456C601.683 87.6015 602.521 89.5574 603.08 90.9545C603.779 89.9766 604.757 88.5795 606.294 87.3221C607.97 85.7853 610.625 83.4103 614.397 83.1309C618.169 82.8515 620.963 84.8074 622.081 85.5059C626.132 88.4398 627.809 92.9104 628.926 95.984C629.345 96.962 629.485 97.8002 629.625 98.359C630.603 99.337 632 100.734 633.397 102.55C634.794 104.366 635.772 106.183 636.61 108.139C637.588 110.234 639.684 115.543 641.221 124.484C641.64 127.279 642.199 131.051 642.478 135.521C643.176 137.338 643.735 139.713 644.154 142.646C644.434 145.58 644.294 147.955 644.154 149.911C642.199 162.345 640.103 169.75 638.566 174.36C637.029 178.691 636.331 180.787 634.934 185.118C633.257 190.427 632.838 192.103 632.559 193.5C631.581 197.971 631.581 201.044 631.441 204.258C631.301 208.03 630.882 216.692 628.507 225.773C626.97 231.78 625.573 233.876 624.735 240.442C624.456 242.677 624.316 244.633 624.176 248.405C623.757 256.089 624.037 259.303 623.897 265.31C623.897 267.825 623.757 273.413 622.919 279.979C621.801 289.34 620.684 291.156 619.426 300.656C619.007 303.73 618.448 309.039 618.308 315.186C618.029 328.458 619.706 338.517 620.264 341.032C622.081 350.532 624.735 357.657 630.184 369.951C635.213 381.547 642.199 396.496 651 413.959C600.845 414.099 550.41 414.099 500.116 414.239Z" fill="#E0E1E2"/>
<g opacity="0.5">
<path d="M440.6 31.2992C440.74 32.836 440.88 34.3728 441.159 35.9096C441.299 36.6081 441.438 37.4464 441.718 38.1449C441.858 38.4244 441.997 38.8435 442.277 39.1229C442.416 39.2626 442.556 39.4023 442.556 39.4023C442.696 39.542 442.835 39.542 442.975 39.6817C444.233 40.2406 445.769 40.3803 447.306 40.52C448.843 40.6597 450.38 40.6597 451.916 40.6597C453.453 40.6597 454.99 40.3803 456.387 40.1008C457.924 39.8214 459.321 39.4023 460.439 38.5641C460.998 38.1449 461.556 37.5861 461.836 37.0273C462.115 36.3287 462.255 35.6302 462.255 34.9317C462.395 33.3949 462.255 31.8581 462.395 30.3213C462.674 31.8581 462.814 33.3949 462.953 34.9317C462.953 35.7699 462.953 36.6081 462.674 37.4464C462.395 38.2846 461.836 38.9832 461.137 39.542C459.74 40.6597 458.203 41.0788 456.667 41.4979C455.13 41.9171 453.453 42.0568 451.916 42.0568C450.38 42.0568 448.703 42.0568 447.166 41.9171C445.63 41.6376 443.953 41.4979 442.416 40.6597C441.997 40.52 441.578 40.1008 441.438 39.6817C441.159 39.2626 441.019 38.8435 440.88 38.5641C440.6 37.7258 440.46 37.0273 440.46 36.189C440.46 34.5125 440.46 32.9757 440.6 31.2992Z" fill="#AEB0B2"/>
</g>
<path d="M500.116 414.239C497.88 410.048 494.388 403.901 490.057 396.636C481.814 382.805 482.792 385.04 480.137 380.43C474.828 371.07 473.571 367.717 469.24 362.408C467.843 360.731 468.402 361.709 460.858 354.165C452.755 346.202 451.497 344.525 450.659 343.407C449.122 341.452 448.144 339.775 443.953 331.253C440.46 324.128 438.644 320.635 436.828 316.583C429.004 299.679 428.306 295.068 422.019 282.774C421.46 281.657 418.805 277.465 415.872 271.318C415.732 270.899 415.173 270.061 414.614 268.664C413.916 266.847 413.776 265.171 413.636 264.193C413.077 256.928 413.916 247.568 413.916 247.568C414.614 239.604 415.173 233.737 414.894 226.332C414.894 225.354 414.754 223.259 414.335 219.207C413.636 210.266 413.217 201.324 412.519 192.383C412.379 191.545 412.239 189.729 412.658 187.493C412.798 186.795 413.357 183.721 415.313 180.089C416.291 178.552 417.129 177.295 419.085 175.339C421.041 173.103 423.975 170.17 427.607 166.956C428.306 165.699 429.423 164.022 430.96 162.346C432.217 161.088 433.335 159.971 434.453 159.272C435.012 157.316 435.57 155.78 436.129 154.522C437.247 152.007 438.504 150.331 439.063 149.772C439.482 149.074 439.901 148.654 440.321 148.235" stroke="#808285" stroke-width="2" stroke-miterlimit="10"/>
<path d="M492.991 139.293C493.969 139.293 494.807 139.153 495.785 139.153C496.623 137.896 497.741 136.08 498.579 133.704C499.417 131.329 499.697 129.094 499.697 127.557C500.954 120.293 501.932 112.329 502.491 103.528C502.91 97.2407 502.91 91.373 502.77 85.7846C502.491 82.9905 502.351 79.0787 503.05 74.3286C503.469 72.233 504.028 69.0197 505.704 65.527C506.682 63.5711 509.756 57.2842 517.16 53.3724C525.403 48.9017 533.506 50.4385 536.021 50.9974C537.558 51.2768 544.543 52.9533 550.69 58.9607C553.764 62.0343 555.58 65.1078 556.698 67.2035C556.837 68.0417 557.117 68.88 557.256 69.7182C557.396 75.5859 557.536 81.5934 557.536 87.4611C560.19 84.9464 562.705 82.9905 564.661 81.7331C567.315 79.9169 569.132 78.7992 571.786 77.961C574.161 77.2625 576.117 77.2624 578.492 77.4022C581.705 77.4022 586.455 77.5419 592.044 79.9169C594.558 81.0346 597.492 82.2919 600.007 85.3655C601.684 87.3214 602.522 89.2773 603.081 90.6744C603.779 89.6965 604.757 88.2994 606.294 87.042C607.97 85.5052 610.625 83.1302 614.397 82.8508C618.169 82.5714 620.963 84.5273 622.081 85.2258C626.132 88.1597 627.809 92.6303 628.927 95.7039C629.346 96.6819 629.485 97.5201 629.625 98.0789C630.603 99.0569 632 100.454 633.397 102.27C634.794 104.086 635.772 105.903 636.611 107.858C637.589 109.954 639.684 115.263 641.221 124.204C641.64 126.998 642.199 130.771 642.478 135.241C643.177 137.057 643.736 139.433 644.155 142.366C644.434 145.3 644.294 147.675 644.155 149.631C642.199 162.065 640.103 169.47 638.566 174.08C637.03 178.411 636.331 180.507 634.934 184.838C633.258 190.147 632.838 191.823 632.559 193.22C631.581 197.691 631.581 200.764 631.441 203.978C631.302 207.75 630.883 216.412 628.507 225.493C626.971 231.5 625.574 233.596 624.735 240.162C624.456 242.397 624.316 244.353 624.177 248.125C623.757 255.809 624.037 259.023 623.897 265.03C623.897 267.545 623.757 273.133 622.919 279.699C621.801 289.06 620.684 290.876 619.426 300.376C619.007 303.45 618.449 308.759 618.309 314.906C618.029 328.178 619.706 338.237 620.265 340.752C622.081 350.252 624.735 357.377 630.184 369.671C635.213 381.267 642.199 396.216 651 413.679" stroke="#808285" stroke-width="2" stroke-miterlimit="10"/>
<path d="M433.894 230.104C435.43 227.729 437.666 224.236 439.342 219.486C440.18 217.25 441.158 213.758 441.997 205.375C442.555 200.346 442.695 197.133 442.835 189.029C443.114 180.647 443.254 175.757 443.394 172.544" stroke="#808285" stroke-width="2" stroke-miterlimit="10"/>
<path d="M443.394 172.544C443.533 168.353 443.394 167.096 443.254 165.279C442.975 160.948 441.717 154.382 440.18 147.956C439.202 143.904 437.805 138.176 436.408 131.33C435.011 123.926 433.335 115.404 432.636 104.506C432.217 98.3592 432.636 100.455 432.217 83.2707C431.938 74.05 431.658 69.1602 431.658 60.0792C431.658 51.6967 431.798 46.9466 433.195 40.9392C434.313 36.4685 435.71 32.8361 437.805 29.3434C439.901 25.9904 441.577 23.1963 445.21 21.5198C449.401 19.4242 454.431 19.5639 458.203 21.5198C460.159 22.4977 461.416 23.7551 463.372 25.711C466.585 28.9243 468.262 32.1376 468.541 32.6964C469.938 35.4906 470.497 38.0053 471.056 39.9612C471.615 42.476 471.894 44.5716 472.034 47.5055C472.313 52.8144 472.313 55.1894 472.313 62.0351C472.453 70.697 472.732 72.5132 472.872 73.6309C473.431 77.2633 474.409 79.778 475.527 83.131C477.482 88.9987 478.6 90.3958 480.835 96.4033C482.512 100.874 483.49 104.506 484.049 106.462C485.166 110.514 486.983 117.22 487.961 125.043C488.24 126.999 488.519 130.911 489.777 136.08C490.056 137.477 490.336 138.455 490.615 139.294C491.453 139.294 492.152 139.294 492.99 139.154" stroke="#2969D0" stroke-width="3" stroke-miterlimit="10" stroke-linecap="round"/>
<path d="M556.418 146C552.645 139.992 553.763 130.911 554.043 126.72C555.02 113.587 556.138 100.175 557.675 87.6016" stroke="#808285" stroke-width="2" stroke-miterlimit="10"/>
<path d="M595.955 163.883C600.985 138.875 604.198 119.875 605.316 111.911C605.595 109.257 606.154 104.786 605.455 99.1979C604.896 95.286 604.058 93.0507 603.22 90.9551" stroke="#808285" stroke-width="2" stroke-miterlimit="10"/>
<path d="M604.477 117.779C605.176 122.809 605.315 128.257 605.455 131.89C605.455 132.309 600.705 142.787 599.587 146" stroke="#808285" stroke-width="2" stroke-miterlimit="10"/>
<path opacity="0.33" d="M314.583 416.056C316.399 413.821 324.223 405.718 332.745 397.195C341.267 388.673 358.731 358.636 363.9 352.629C369.069 346.621 382.761 331.812 386.114 324.407C389.467 317.003 385.834 293.253 386.114 285.848C386.393 278.444 389.886 243.097 387.511 233.877C385.136 224.656 381.364 220.884 378.29 214.457C375.216 208.031 374.658 206.075 371.863 204.119C369.069 202.163 370.746 185.398 371.305 183.023C371.863 180.648 373.819 169.89 373.819 166.118C373.819 162.346 373.819 151.589 376.753 143.625C379.687 135.662 377.731 111.772 372.702 104.228C367.672 96.6834 363.621 94.8672 357.613 94.4481C351.606 94.029 345.04 99.8967 343.363 103.529C341.687 107.162 339.451 110.515 336.936 140.133C333.444 148.096 326.738 155.081 323.804 164.721C320.87 174.361 313.046 198.67 311.23 208.729C309.414 218.788 299.076 232.48 303.267 225.075C307.458 217.81 307.039 199.928 314.863 176.177C322.686 152.427 321.708 153.964 321.708 152.706C321.708 151.449 326.319 147.118 327.855 136.78C330.789 132.03 336.517 108.419 325.9 101.573C325.76 96.6834 322.547 93.3305 313.745 91.9334C304.943 90.5363 301.73 92.7716 299.774 98.2202C296.561 99.0585 291.671 110.934 290.833 120.713C288.458 122.11 277.002 133.706 274.766 138.037C272.531 142.368 266.244 164.162 264.987 169.751C263.729 175.339 255.626 210.266 253.391 213.479C251.156 216.693 250.178 218.928 251.994 212.082C253.81 205.237 262.193 164.023 265.825 156.618C269.457 149.214 269.877 143.066 279.936 128.677C289.995 114.287 288.597 107.301 286.781 102.691C284.965 98.0805 283.568 94.1687 275.046 92.7716C266.524 91.3745 261.634 98.4997 261.634 98.4997C261.634 98.4997 256.465 100.036 244.031 113.448C241.376 108.279 237.744 104.367 237.744 104.367C237.744 104.367 235.089 98.7791 227.545 97.6614C220.001 96.5437 216.927 104.647 216.508 107.581C213.993 107.581 208.824 119.176 207.008 130.772C205.192 142.508 202.258 159.273 199.184 169.192C196.111 179.111 194.155 187.354 193.456 194.619C192.758 201.884 188.846 212.082 188.147 221.582C187.449 231.083 176.412 258.326 175.853 266.987C175.155 275.649 175.574 305.267 174.735 312.113C173.897 318.959 172.64 342.011 174.735 355.283C176.831 368.416 175.853 380.57 173.618 387.136C171.382 393.703 163 415.497 163 415.497H314.583V416.056Z" fill="#E0E1E2"/>
<path d="M314.583 416.056C316.399 413.821 324.223 405.718 332.745 397.195C341.267 388.673 358.731 358.636 363.9 352.629C369.069 346.621 382.761 331.812 386.114 324.407C389.467 317.003 385.834 293.253 386.114 285.848C386.393 278.444 389.886 243.097 387.511 233.877C385.136 224.656 381.364 220.884 378.29 214.457C375.216 208.031 374.658 206.075 371.863 204.119C369.069 202.163 370.746 185.398 371.305 183.023C371.863 180.648 373.819 169.89 373.819 166.118C373.819 162.346 373.819 151.589 376.753 143.625C379.687 135.662 377.731 111.772 372.702 104.228C367.672 96.6834 363.621 94.8672 357.613 94.4481C351.606 94.029 345.04 99.8967 343.363 103.529C341.687 107.162 339.451 110.515 336.936 140.133C333.444 148.096 326.738 155.081 323.804 164.721C320.87 174.361 313.046 198.67 311.23 208.729C309.414 218.788 299.076 232.48 303.267 225.075C307.458 217.81 307.039 199.928 314.863 176.177C322.686 152.427 321.708 153.964 321.708 152.706C321.708 151.449 326.319 147.118 327.855 136.78C330.789 132.03 336.517 108.419 325.9 101.573C325.76 96.6834 322.547 93.3305 313.745 91.9334C304.943 90.5363 301.73 92.7716 299.774 98.2202C296.561 99.0585 291.671 110.934 290.833 120.713C288.458 122.11 277.002 133.706 274.766 138.037C272.531 142.368 266.244 164.162 264.987 169.751C263.729 175.339 255.626 210.266 253.391 213.479C251.156 216.693 250.178 218.928 251.994 212.082C253.81 205.237 262.193 164.023 265.825 156.618C269.457 149.214 269.877 143.066 279.936 128.677C289.995 114.287 288.597 107.301 286.781 102.691C284.965 98.0805 283.568 94.1687 275.046 92.7716C266.524 91.3745 261.634 98.4997 261.634 98.4997C261.634 98.4997 256.465 100.036 244.031 113.448C241.376 108.279 237.744 104.367 237.744 104.367C237.744 104.367 235.089 98.7791 227.545 97.6614C220.001 96.5437 216.927 104.647 216.508 107.581C213.993 107.581 208.824 119.176 207.008 130.772C205.192 142.508 202.258 159.273 199.184 169.192C196.111 179.111 194.155 187.354 193.456 194.619C192.758 201.884 188.846 212.082 188.147 221.582C187.449 231.083 176.412 258.326 175.853 266.987C175.155 275.649 175.574 305.267 174.735 312.113C173.897 318.959 172.64 342.011 174.735 355.283C176.831 368.416 175.853 380.57 173.618 387.136C171.382 393.703 163 415.497 163 415.497" stroke="#808285" stroke-width="2" stroke-miterlimit="10"/>
<path d="M203.515 217.951C207.427 213.759 210.64 207.333 210.92 200.627C211.199 193.921 210.501 159.133 219.302 145.861C228.104 132.589 244.17 114.008 244.17 114.008" stroke="#808285" stroke-width="2" stroke-miterlimit="10"/>
<path d="M359.569 299.4C357.613 295.767 355.238 293.392 355.238 290.598C355.238 287.804 356.775 255.811 358.452 244.355C359.988 232.899 367.812 199.788 370.466 192.942" stroke="#808285" stroke-width="2" stroke-miterlimit="10"/>
</svg>
