<svg width="900" height="500" viewBox="0 0 900 500" fill="none" xmlns="http://www.w3.org/2000/svg">
<path opacity="0.33" d="M350.977 429.161C356.313 422.383 372.176 398.876 377.224 391.088C382.271 383.301 393.664 356.765 398.423 350.708C403.182 344.651 408.951 337.008 406.355 319.125C403.904 301.243 401.74 295.042 403.183 269.516C404.625 243.99 400.154 238.942 394.241 226.684C393.087 219.329 391.213 217.31 388.473 215.147C388.905 210.099 391.501 190.053 393.087 179.814C394.818 169.575 391.357 172.748 393.087 150.971C394.818 129.195 388.905 113.764 385.156 109.293C384.579 104.967 380.397 100.063 372.753 98.4771C365.254 96.7465 358.332 103.669 358.332 106.697C355.88 107.563 348.093 118.234 351.986 153.134C343.478 173.469 338.142 194.38 336.988 201.446C335.69 208.513 329.921 240.384 327.614 239.086C325.307 237.788 334.536 207.359 337.276 188.467C340.016 169.575 342.901 156.451 344.631 147.51C346.362 138.569 346.506 109.293 336.7 105.688C334.392 98.3329 327.326 96.4581 320.836 96.0254C314.346 95.5928 308.866 100.784 308.722 103.813C305.838 104.823 302.809 118.811 304.107 138.28C297.617 145.203 288.82 167.123 279.014 215.291C279.014 215.291 282.186 168.421 288.243 149.241C294.445 130.06 298.915 122.561 295.31 111.889C297.041 106.842 292.281 103.092 285.792 101.073C279.302 99.0539 271.947 102.515 270.505 106.553C265.313 107.418 256.66 122.849 252.911 135.108C245.989 147.366 237.768 168.998 234.596 181.256C231.423 193.514 229.981 238.365 228.106 241.394C226.231 244.422 222.914 244.711 220.318 241.826C217.723 238.942 217.001 238.077 216.28 232.741C215.559 227.261 214.261 217.743 212.675 210.676C211.233 203.609 209.502 189.621 210.079 184.429C210.656 179.237 217.29 170.007 216.569 157.893C215.848 145.779 208.204 141.165 206.185 139.578C204.166 138.136 201.859 134.675 194.937 136.55C188.014 138.425 184.697 154.288 184.697 154.288C184.697 154.288 175.9 171.45 174.458 175.343C173.016 179.237 173.304 183.996 171.862 190.342C170.42 196.687 172.295 203.033 170.132 209.378C168.113 215.724 168.978 226.107 171.285 234.76C173.593 243.413 171.862 243.845 173.737 250.479C175.612 256.969 179.361 265.91 180.659 272.111C181.957 278.313 181.525 292.013 182.39 302.685C183.255 313.357 188.159 319.27 189.456 333.258C190.754 347.247 193.494 386.185 195.369 397.434C197.244 408.683 198.398 412.144 192.773 429.45H350.977V429.161Z" fill="#697695"/>
<path d="M350.977 429.161C356.313 422.383 372.176 398.876 377.224 391.088C382.271 383.301 393.664 356.765 398.423 350.708C403.182 344.651 408.951 337.008 406.355 319.125C403.904 301.243 401.74 295.042 403.183 269.516C404.625 243.99 400.154 238.942 394.241 226.684C393.087 219.329 391.213 217.31 388.473 215.147C388.905 210.099 391.501 190.053 393.087 179.814C394.818 169.575 391.357 172.748 393.087 150.971C394.818 129.195 388.905 113.764 385.156 109.293C384.579 104.967 380.397 100.063 372.753 98.4771C365.254 96.7465 358.332 103.669 358.332 106.697C355.88 107.563 348.093 118.234 351.986 153.134C343.478 173.469 338.142 194.38 336.988 201.446C335.69 208.513 329.921 240.384 327.614 239.086C325.307 237.788 334.536 207.359 337.276 188.467C340.016 169.575 342.901 156.451 344.631 147.51C346.362 138.569 346.506 109.293 336.7 105.688C334.392 98.3329 327.326 96.4581 320.836 96.0254C314.346 95.5928 308.866 100.784 308.722 103.813C305.838 104.823 302.809 118.811 304.107 138.28C297.617 145.203 288.82 167.123 279.014 215.291C279.014 215.291 282.186 168.421 288.243 149.241C294.445 130.06 298.915 122.561 295.31 111.889C297.041 106.842 292.281 103.092 285.792 101.073C279.302 99.0539 271.947 102.515 270.505 106.553C265.313 107.418 256.66 122.849 252.911 135.108C245.989 147.366 237.768 168.998 234.596 181.256C231.423 193.514 229.981 238.365 228.106 241.394C226.231 244.422 222.914 244.711 220.318 241.826C217.723 238.942 217.001 238.077 216.28 232.741C215.559 227.261 214.261 217.743 212.675 210.676C211.233 203.609 209.502 189.621 210.079 184.429C210.656 179.237 217.29 170.007 216.569 157.893C215.848 145.779 208.204 141.165 206.185 139.578C204.166 138.136 201.859 134.675 194.937 136.55C188.014 138.425 184.697 154.288 184.697 154.288C184.697 154.288 175.9 171.45 174.458 175.343C173.016 179.237 173.304 183.996 171.862 190.342C170.42 196.687 172.295 203.033 170.132 209.378C168.113 215.724 168.978 226.107 171.285 234.76C173.593 243.413 171.862 243.845 173.737 250.479C175.612 256.969 179.361 265.91 180.659 272.111C181.957 278.313 181.525 292.013 182.39 302.685C183.255 313.357 188.159 319.27 189.456 333.258C190.754 347.247 193.494 386.185 195.369 397.434C197.244 408.683 198.398 412.144 192.773 429.45" stroke="#445272" stroke-width="2" stroke-miterlimit="10"/>
<path d="M220.462 241.539C217.866 238.511 217.145 237.789 216.424 232.454C215.703 226.973 214.405 217.455 212.819 210.389C211.376 203.322 209.646 189.333 210.223 184.142C210.8 178.95 217.433 169.72 216.712 157.606C215.991 145.492 208.348 140.877 206.329 139.291C204.31 137.849 202.002 134.388 195.08 136.262C188.158 138.137 184.841 154.001 184.841 154.001C184.841 154.001 176.044 171.162 174.602 175.056C173.16 178.95 173.448 183.709 172.006 190.054C170.564 196.4 172.438 202.745 170.275 209.091C168.256 215.436 169.122 225.82 171.429 234.473C173.736 243.125 172.006 243.558 173.881 250.192C175.755 256.682 179.505 265.623 180.803 271.824" stroke="#BA6DCD" stroke-width="3" stroke-miterlimit="10" stroke-linecap="round"/>
<g opacity="0.5">
<path d="M188.159 155.298C189.89 154.865 191.765 154.865 193.495 154.433C195.226 154 196.668 153.279 197.966 152.125C199.264 151.116 200.562 149.818 201.715 148.376C202.292 147.655 202.869 146.933 203.446 146.357C204.023 145.636 204.455 144.914 205.176 144.193C204.888 145.059 204.455 145.924 204.023 146.789C203.59 147.655 203.157 148.376 202.581 149.241C201.571 150.827 200.273 152.269 198.831 153.423C197.389 154.577 195.514 155.442 193.639 155.586C191.765 155.875 190.034 155.298 188.159 155.298Z" fill="#B1BBD0"/>
</g>
<path d="M378.81 291.581C378.522 280.909 377.079 261.007 378.81 249.037C380.541 237.212 388.617 215.291 388.617 215.291" stroke="#445272" stroke-width="2" stroke-miterlimit="10"/>
<path d="M271.658 238.798C274.687 232.164 278.436 222.79 279.013 215.146" stroke="#445272" stroke-width="2" stroke-miterlimit="10"/>
<path opacity="0.33" d="M509.514 430.312C502.98 418.261 497.752 408.387 493.977 401.272C489.331 392.27 487.007 387.768 486.427 386.462C481.925 377.314 481.054 374.991 477.424 369.618C476.263 367.876 473.213 363.52 470.454 357.131C467.26 349.871 466.534 344.789 466.244 342.901C465.953 340.288 465.953 338.545 466.098 332.302C466.679 311.683 466.824 309.795 466.244 305.004C465.808 301.228 465.518 301.954 464.066 293.097C463.049 287.144 462.468 282.497 462.178 279.448C461.307 272.914 461.016 269.575 460.871 265.364C460.871 263.041 460.726 259.556 461.162 255.2C461.597 250.408 462.033 251.134 463.049 243.729C463.775 239.082 463.92 236.323 464.937 230.08C465.082 229.063 465.227 228.337 465.372 227.757C465.663 227.611 465.808 227.321 466.098 227.176C465.518 225.579 464.792 223.255 464.066 220.351C463.194 217.157 462.178 213.382 461.307 208.88C460.726 205.541 460.145 200.894 460 195.377L462.468 194.796C463.34 193.925 464.792 192.618 467.115 191.602C470.164 190.295 474.23 190.585 474.23 190.585C474.956 181.002 476.989 171.709 477.279 167.208C477.424 165.03 477.424 163.432 477.424 162.561C477.279 155.592 477.279 148.041 477.279 146.008C477.424 142.524 477.715 131.343 482.361 120.743C483.668 117.985 484.975 115.516 486.281 113.338C489.911 107.094 491.509 105.933 492.089 105.352C492.525 105.062 495.139 103.174 499.059 102.593C504.432 101.867 508.497 104.19 510.24 105.207C512.708 106.659 514.16 108.256 515.612 109.853C517.064 111.45 518.806 113.338 520.113 116.532C520.985 118.565 521.275 120.308 521.42 121.615C521.711 119.727 522.291 116.678 524.324 113.483C525.776 111.16 527.373 109.418 528.68 108.401C528.971 107.24 529.697 105.352 531.003 103.61C534.343 99.3987 539.28 98.5275 541.167 98.2371C542.329 98.0919 550.606 96.7851 556.123 102.303C557.285 103.464 558.011 104.481 558.446 105.207C559.318 106.223 560.624 107.675 561.931 109.708C562.802 111.16 564.69 114.064 565.852 117.549C567.013 121.324 566.433 122.921 566.723 126.842C567.304 132.65 569.627 136.57 570.643 138.748C577.323 152.978 586.761 216.286 588.503 215.995C588.794 215.995 588.939 214.834 586.47 176.791C585.309 160.093 585.163 158.35 584.437 155.011C582.259 145.718 579.21 140.055 578.049 128.439C577.758 125.68 577.468 121.179 579.21 115.806C580.081 113.048 581.243 109.563 584.437 106.804C584.873 106.368 589.81 102.448 596.344 103.319C600.264 103.9 602.588 105.933 606.218 108.982C607.815 110.434 611.3 113.628 615.365 120.163C617.689 123.938 618.705 126.261 622.045 133.666C629.305 149.784 628.579 147.751 630.466 152.397C633.951 161.109 635.839 165.611 637.146 172.145C638.017 176.501 638.162 181.147 638.452 190.295C638.888 202.637 638.598 208.154 638.888 221.513C639.033 227.902 639.178 233.129 639.324 236.178C640.195 235.162 641.356 233.71 642.373 231.532C643.825 228.337 643.97 225.579 643.97 224.853C644.26 221.513 645.858 214.253 651.375 197.555C652.101 191.602 652.246 186.519 652.392 182.889C652.537 176.355 652.101 169.967 651.956 165.756C651.52 158.35 651.375 158.641 651.52 156.463C651.811 152.688 652.392 145.718 657.474 140.636C659.216 138.893 661.104 137.732 662.701 137.006C663.717 136.57 664.734 135.844 665.46 135.118C666.476 134.247 674.317 132.795 675.333 133.231C680.996 135.118 683.32 140.781 683.755 142.088C684.481 144.847 685.062 147.46 685.788 150.219C687.385 153.559 689.128 157.915 690.289 162.997C691.741 169.095 692.032 174.468 692.032 178.533C692.467 183.035 693.048 189.714 693.629 197.845C694.21 206.122 694.5 210.187 694.5 213.091C694.5 224.272 692.903 232.839 691.306 240.68C688.982 252.005 687.966 251.86 686.078 263.186C684.481 272.479 684.045 279.158 683.9 281.917C683.61 288.306 682.594 311.102 682.303 314.732C682.013 319.379 682.739 322.283 683.174 328.671C683.61 335.206 683.9 334.189 685.207 346.531C685.643 350.452 686.514 359.89 686.95 371.506C687.821 391.834 686.659 397.352 688.111 408.387C689.128 416.083 690.58 425.085 690.58 425.085C690.87 427.408 691.306 429.296 691.451 430.458C630.466 430.312 570.063 430.312 509.514 430.312Z" fill="#697695"/>
<path d="M509.514 430.312C502.98 418.261 497.752 408.387 493.977 401.272C489.331 392.27 487.007 387.768 486.427 386.462C481.925 377.314 481.054 374.991 477.424 369.618C476.263 367.876 473.213 363.52 470.454 357.131C467.26 349.871 466.534 344.789 466.244 342.901C465.953 340.288 465.953 338.545 466.098 332.302C466.679 311.683 466.824 309.795 466.244 305.004C465.808 301.228 465.518 301.954 464.066 293.097C463.049 287.144 462.468 282.497 462.178 279.448C461.307 272.914 461.016 269.575 460.871 265.364C460.871 263.041 460.726 259.556 461.162 255.2C461.597 250.408 462.033 251.134 463.049 243.729C463.775 239.082 463.92 236.323 464.937 230.08C465.082 229.063 465.227 228.337 465.372 227.757C465.663 227.611 464.792 223.11 464.066 220.351C463.194 217.157 462.178 213.382 461.307 208.88C460.726 205.541 460.145 200.894 460 195.377L462.468 194.796C463.34 193.925 464.792 192.618 467.115 191.602C470.164 190.295 474.23 190.585 474.23 190.585C474.956 181.002 476.989 171.709 477.279 167.208C477.424 165.03 477.424 163.432 477.424 162.561C477.279 155.592 477.279 148.041 477.279 146.008C477.424 142.524 477.715 131.343 482.361 120.743C483.668 117.985 484.975 115.516 486.281 113.338C489.911 107.094 491.509 105.933 492.089 105.352C492.525 105.062 495.139 103.174 499.059 102.593C504.432 101.867 508.497 104.19 510.24 105.207C512.708 106.659 514.16 108.256 515.612 109.853C517.064 111.45 518.806 113.338 520.113 116.532C520.985 118.565 521.275 120.308 521.42 121.615C521.711 119.727 522.291 116.678 524.324 113.483C525.776 111.16 527.373 109.418 528.68 108.401C528.971 107.24 529.697 105.352 531.003 103.61C534.343 99.3987 539.28 98.5275 541.167 98.2371C542.329 98.0919 550.606 96.7851 556.123 102.303C557.285 103.464 558.011 104.481 558.446 105.207C559.318 106.223 560.624 107.675 561.931 109.708C562.802 111.16 564.69 114.064 565.852 117.549C567.013 121.324 566.433 122.921 566.723 126.842C567.304 132.65 569.627 136.57 570.643 138.748C577.323 152.978 586.761 216.286 588.503 215.995C588.794 215.995 588.939 214.834 586.47 176.791C585.309 160.093 585.163 158.35 584.437 155.011C582.259 145.718 579.21 140.055 578.049 128.439C577.758 125.68 577.468 121.179 579.21 115.806C580.081 113.048 581.243 109.563 584.437 106.804C584.873 106.368 589.81 102.448 596.344 103.319C600.264 103.9 602.588 105.933 606.218 108.982C607.815 110.434 611.3 113.628 615.365 120.163C617.689 123.938 618.705 126.261 622.045 133.666C629.305 149.784 628.579 147.751 630.466 152.397C633.951 161.109 635.839 165.611 637.146 172.145C638.017 176.501 638.162 181.147 638.452 190.295C638.888 202.637 638.598 208.154 638.888 221.513C639.033 227.902 639.178 233.129 639.324 236.178" stroke="#445272" stroke-width="2" stroke-miterlimit="10"/>
<path d="M685.788 263.041C684.191 272.334 683.755 279.013 683.61 281.772C683.32 288.161 682.303 310.957 682.013 314.587C681.723 319.234 682.449 322.138 682.884 328.527C683.32 335.061 683.61 334.044 684.917 346.387C685.353 350.307 686.224 359.745 686.659 371.361C687.531 391.689 686.369 397.207 687.821 408.242C688.837 415.938 690.289 424.94 690.289 424.94C690.58 427.264 691.015 429.151 691.161 430.313" stroke="#445272" stroke-width="2" stroke-miterlimit="10"/>
<path d="M641.211 234.726C641.792 233.854 642.518 232.693 643.099 231.386C644.405 228.191 644.551 225.433 644.696 224.707C644.986 221.367 646.438 214.107 651.811 197.409C652.537 191.456 652.682 186.374 652.827 182.743C652.972 176.209 652.682 169.821 652.391 165.61C651.956 158.204 651.811 158.495 651.956 156.317C652.246 152.542 652.682 145.572 657.764 140.49C659.506 138.747 661.249 137.586 662.846 136.86C663.862 136.424 664.734 135.698 665.605 134.972C666.476 134.101 671.703 132.939 675.188 133.085C680.56 134.972 682.884 140.635 683.465 141.942C684.045 144.701 684.771 147.314 685.352 150.073C686.949 153.413 688.547 157.769 689.708 162.851C691.16 168.949 691.451 174.322 691.451 178.387C691.886 182.889 692.322 189.568 692.903 197.699C693.483 205.976 693.774 210.041 693.774 212.945C693.774 224.126 692.177 232.693 690.725 240.534C688.547 251.859 687.53 251.714 685.643 263.04" stroke="#BA6DCD" stroke-width="3" stroke-miterlimit="10" stroke-linecap="round"/>
<path d="M535.069 236.759C535.214 233.129 535.069 227.611 533.907 220.932C532.891 214.688 531.439 210.913 529.261 203.653C528.244 200.168 525.486 190.73 523.743 182.163C521.856 173.016 521.565 165.465 520.984 150.219C520.694 144.411 520.549 128.584 520.549 118.855" stroke="#445272" stroke-width="2" stroke-miterlimit="10"/>
<path d="M482.796 290.048C482.941 279.739 482.796 269.43 482.651 258.83C482.651 256.071 482.506 253.457 482.506 250.699C481.635 245.036 480.909 240.389 480.328 237.195C477.714 222.239 475.827 216.722 474.81 206.267C474.229 200.749 474.375 193.199 474.375 190.295" stroke="#445272" stroke-width="2" stroke-miterlimit="10"/>
<g opacity="0.5">
<path d="M665.605 139.766C665.895 141.944 666.621 144.122 667.202 146.154C667.492 147.171 667.928 148.187 668.363 149.204C668.799 150.22 669.235 151.237 669.815 151.963C670.977 153.56 673.155 154.141 675.188 154.721C677.221 155.157 679.399 155.012 681.577 154.286C679.834 155.593 677.366 156.319 675.043 155.883C673.881 155.738 672.865 155.447 671.703 155.012C670.541 154.576 669.525 153.85 668.799 152.834C668.073 151.817 667.637 150.801 667.347 149.639C666.911 148.623 666.621 147.461 666.476 146.445C665.75 144.267 665.459 142.089 665.605 139.766Z" fill="#B1BBD0"/>
</g>
<g opacity="0.5">
<path d="M468.568 222.82C469.584 222.094 470.165 221.077 470.311 220.061C470.311 219.771 470.456 219.48 470.456 219.19C470.456 219.045 470.456 218.609 470.456 218.319L470.311 216.576C470.02 214.253 469.875 211.93 469.585 209.607C469.294 207.283 469.004 204.96 468.568 202.782C468.278 201.62 468.132 200.604 467.697 199.442C467.552 198.862 467.261 198.426 466.971 197.845C466.68 197.41 466.245 196.974 465.664 196.684C466.245 196.684 466.826 197.119 467.261 197.555C467.697 197.99 467.987 198.571 468.278 199.007C468.858 200.023 469.294 201.185 469.585 202.346C470.311 204.67 470.746 206.993 471.037 209.316C471.327 211.639 471.472 213.963 471.472 216.431C471.472 217.012 471.472 217.593 471.472 218.173C471.472 218.464 471.472 218.754 471.327 219.19C471.182 219.48 471.182 219.771 471.037 220.061C470.456 221.368 469.584 222.529 468.568 222.82Z" fill="#B1BBD0"/>
</g>
</svg>
