<svg width="850" height="500" viewBox="0 0 850 500" fill="none" xmlns="http://www.w3.org/2000/svg">
<path opacity="0.33" d="M668.636 416.381C663.854 404.566 659.072 395.143 655.133 388.11C650.07 378.827 646.413 373.764 645.007 371.654C640.365 365.044 637.271 360.824 632.067 356.323C624.472 349.572 617.017 346.478 611.251 343.946C607.312 342.259 606.469 342.259 591.7 337.898C575.104 332.976 566.805 330.585 561.742 328.897C553.303 325.943 550.771 324.677 544.161 323.13C539.66 322.146 536.566 322.005 529.815 320.317C524.751 319.051 522.079 318.348 519.125 316.801C513.64 313.847 510.405 309.768 508.858 307.799C505.763 304.002 504.357 300.486 502.388 296.125C500.841 292.469 500.841 291.625 499.012 286.843C497.465 282.623 494.793 275.309 490.292 267.433C488.323 263.917 485.932 262.088 483.4 257.165C482.416 255.196 482.275 254.634 480.868 251.68C478.196 245.913 476.368 242.819 474.961 240.147C472.007 234.38 470.601 229.598 468.773 223.128C467.225 217.502 465.678 210.47 464.834 202.171C462.725 199.358 461.037 197.249 459.912 195.702C455.27 189.935 453.02 187.544 449.926 182.902C448.66 180.933 447.675 179.386 447.253 178.402C448.519 176.854 450.488 174.745 453.16 172.776C454.848 171.51 458.083 169.259 462.443 168.275C466.944 167.29 470.46 168.275 474.961 169.681C484.807 172.635 491.558 177.698 494.23 179.949C500.841 185.293 504.498 190.779 505.482 192.326C507.17 194.998 510.405 199.921 511.952 207.094C512.374 208.923 512.515 210.61 512.655 211.736C514.343 213.142 516.031 214.83 517.719 216.94C521.516 221.581 523.626 226.082 524.892 229.598C521.376 222.284 517.719 215.111 514.202 207.797C511.811 200.906 508.154 192.748 502.528 184.028C501.544 182.48 500.981 182.059 493.949 172.916C489.307 166.868 487.338 164.196 485.229 161.383C481.572 156.32 479.603 153.788 477.774 150.834C474.539 145.771 472.711 142.958 471.164 138.738C468.351 131.143 468.351 126.502 468.491 124.955C468.773 121.86 469.616 119.891 470.038 118.907C471.023 116.938 472.148 115.672 472.992 114.828C472.992 113.281 473.133 110.89 473.414 108.077C473.977 102.873 474.399 100.2 475.524 97.8094C478.759 91.3395 485.651 89.0891 486.354 88.8078C491.277 87.2606 495.355 88.2452 496.902 88.6671C502.247 90.0736 505.341 93.1679 506.607 94.2931C510.405 98.0907 511.671 102.029 511.952 102.873C512.796 105.404 512.937 107.655 512.937 109.202C513.921 110.187 515.328 111.452 516.875 113.281C517.578 113.984 519.406 116.234 522.079 120.032C523.907 122.704 524.048 123.126 525.876 125.939C527.564 128.612 528.408 129.596 534.315 137.473C535.441 138.879 537.128 141.129 539.238 143.942C539.66 143.521 539.941 142.958 540.363 142.536C538.394 137.754 536.425 134.097 534.878 131.565C532.346 127.486 530.096 124.673 527.002 118.766C526.017 116.938 525.314 115.531 524.892 114.547C523.063 113.703 521.094 112.437 519.125 110.89C511.952 105.123 509.28 97.3874 506.326 89.2297C504.216 83.1818 503.654 79.2436 503.372 76.4306C503.091 72.9144 502.95 70.3827 503.935 67.2884C505.482 62.6469 508.576 59.6933 510.264 58.1462C511.952 56.599 513.358 55.6145 515.187 54.4893C520.391 51.1137 524.329 48.582 529.674 48.16C534.175 47.8787 537.55 49.2852 540.082 50.4104C546.411 53.0828 550.349 57.4429 552.459 59.9746C553.022 58.1462 553.725 56.0364 554.569 53.786C555.272 51.9576 556.257 49.9885 556.96 48.8633C559.632 44.3625 564.977 41.9714 568.634 40.8463C567.649 39.1585 566.102 36.3455 565.399 32.8292C564.977 30.5788 564.133 26.7813 565.399 21.9992C566.102 19.4675 567.509 14.2635 572.15 12.1537C576.229 10.1846 580.589 11.5911 582.136 12.1537C584.527 12.9976 585.652 13.9822 589.591 17.0765C601.265 26.3593 603.515 28.0471 606.609 32.4073C607.594 33.8138 607.172 33.3918 609.282 36.6268C611.11 39.4398 613.923 43.7999 617.861 48.8633C621.659 53.6454 623.487 56.0364 626.16 58.4275C629.535 61.5218 631.504 62.5063 633.895 66.0225C635.02 67.7103 635.161 68.2729 637.13 71.3672C638.818 73.8989 639.803 75.1648 641.631 77.6965C641.631 77.6965 644.444 81.6347 647.679 86.4167C650.914 91.3395 652.18 93.8712 654.149 97.2468C656.259 100.763 657.243 101.888 670.886 118.626C678.481 127.908 679.184 128.893 680.45 130.862C686.498 139.723 690.014 148.303 690.014 148.303C692.265 153.507 692.827 155.898 695.5 160.398C697.75 164.055 699.297 165.462 701.688 168.416C705.908 173.76 708.158 177.98 712.378 185.856C714.488 189.794 715.753 192.748 721.379 206.11C727.005 219.612 727.146 219.893 730.381 227.77C736.57 242.257 739.664 249.57 743.18 256.322C746.134 262.088 748.243 265.604 751.197 272.778C753.307 277.7 753.588 278.966 756.12 285.014C757.526 288.249 758.933 291.343 763.293 300.626C768.919 312.3 769.904 314.129 772.857 320.458C776.655 328.475 777.358 332.554 781.577 339.867C782.562 341.555 781.999 340.43 785.797 346.619C791.986 356.745 795.22 361.809 797.471 366.591C799.44 370.951 799.44 371.654 801.69 376.155C804.222 381.218 806.472 384.735 807.316 386.001C810.551 390.923 815.755 399.784 825.179 416.381H668.636Z" fill="#E0E1E2"/>
<path d="M567.931 39.8627C566.946 38.1749 566.243 36.3465 565.399 32.6896C564.977 30.4392 564.133 26.6416 565.399 21.8595C566.102 19.3278 567.509 14.1238 572.15 12.0141C576.229 10.045 580.589 11.4515 582.136 12.0141C584.527 12.858 585.653 13.8425 589.591 16.9368C601.265 26.2197 603.515 27.9075 606.609 32.2676C607.594 33.6741 607.172 33.2522 609.282 36.4871C611.11 39.3001 613.923 43.6602 617.861 48.7236C621.659 53.5057 623.487 55.8968 626.16 58.2878C629.535 61.3821 631.504 62.3666 633.895 65.8829C635.021 67.5707 635.161 68.1333 637.13 71.2276C638.818 73.7593 639.803 75.0251 641.631 77.5568C641.631 77.5568 644.444 81.495 647.679 86.2771C650.914 91.1998 652.18 93.7315 654.149 97.1071C654.852 98.373 655.415 99.2169 656.54 100.623" stroke="#2969D0" stroke-width="3" stroke-miterlimit="10" stroke-linecap="round"/>
<path d="M586.496 110.327C582.558 104.561 578.479 98.6535 574.541 92.7462C565.821 79.8064 562.586 74.8837 561.601 73.3365C557.663 67.2886 554.569 62.3659 552.319 58.8496" stroke="#808285" stroke-width="2" stroke-miterlimit="10"/>
<path d="M622.081 93.17C617.017 82.34 613.36 73.901 610.829 68.275C609.141 64.3369 607.313 59.8361 603.656 54.4914C602.952 53.5068 599.577 48.4434 593.951 43.38C590.294 40.1451 588.325 39.1606 586.637 38.598C581.714 36.6289 570.744 39.7232 568.353 40.989" stroke="#808285" stroke-width="2" stroke-miterlimit="10"/>
<path d="M668.636 416.381C663.854 404.567 659.072 395.143 655.133 388.111C650.07 378.828 646.413 373.764 645.007 371.655C640.365 365.044 637.271 360.825 632.067 356.324C624.472 349.573 617.017 346.478 611.251 343.947C607.312 342.259 606.469 342.259 591.7 337.899C575.104 332.976 566.805 330.585 561.742 328.897C553.303 325.944 550.771 324.678 544.161 323.131C539.66 322.146 536.566 322.005 529.815 320.318C524.751 319.052 522.079 318.348 519.125 316.801C513.64 313.848 510.405 309.769 508.858 307.8C505.763 304.002 504.357 300.486 502.388 296.126C500.841 292.469 500.841 291.625 499.012 286.843C497.465 282.623 494.793 275.31 490.292 267.433C488.323 263.917 485.932 262.089 483.4 257.166C482.416 255.197 482.275 254.634 480.868 251.681C478.196 245.914 476.368 242.82 474.961 240.147C472.007 234.381 470.601 229.599 468.773 223.129C467.225 217.503 465.678 210.47 464.834 202.172C462.725 199.359 461.037 197.249 459.912 195.702C455.27 189.935 453.02 187.544 449.926 182.903C448.66 180.934 447.675 179.387 447.253 178.402C448.519 176.855 450.488 174.745 453.16 172.776C454.848 171.51 458.083 169.26 462.443 168.275C466.944 167.291 470.46 168.275 474.961 169.682C484.807 172.635 491.558 177.699 494.23 179.949C500.841 185.294 504.498 190.779 505.482 192.326C507.17 194.999 510.405 199.921 511.952 207.095C512.374 208.923 512.515 210.611 512.655 211.736C514.343 213.143 516.031 214.83 517.719 216.94C521.516 221.582 523.626 226.082 524.892 229.599C521.376 222.285 517.719 215.112 514.202 207.798C511.811 200.906 508.154 192.748 502.528 184.028C501.544 182.481 500.981 182.059 493.949 172.917C489.307 166.869 487.338 164.196 485.229 161.383C481.572 156.32 479.603 153.788 477.774 150.835C474.539 145.771 472.711 142.958 471.164 138.739C468.351 131.144 468.351 126.502 468.491 124.955C468.773 121.861 469.616 119.892 470.038 118.907C471.023 116.938 472.148 115.672 472.992 114.828C472.992 113.281 473.133 110.89 473.414 108.077C473.977 102.873 474.399 100.201 475.524 97.8098C478.759 91.3399 485.651 89.0895 486.354 88.8082C491.277 87.2611 495.355 88.2456 496.902 88.6676C502.247 90.0741 505.341 93.1684 506.607 94.2936C510.405 98.0911 511.671 102.029 511.952 102.873C512.796 105.405 512.937 107.655 512.937 109.202C513.921 110.187 515.328 111.453 516.875 113.281C517.578 113.985 519.406 116.235 522.079 120.032C523.907 122.705 524.048 123.127 525.876 125.94C527.564 128.612 528.408 129.597 534.315 137.473C535.441 138.88 537.128 141.13 539.238 143.943C539.66 143.521 539.941 142.958 540.363 142.536C538.394 137.754 536.425 134.097 534.878 131.566C532.346 127.487 530.096 124.674 527.002 118.767C526.017 116.938 525.314 115.532 524.892 114.547C523.063 113.703 521.094 112.437 519.125 110.89C511.952 105.124 509.28 97.3878 506.326 89.2302C504.216 83.1822 503.654 79.244 503.372 76.431C503.091 72.9148 502.95 70.3831 503.935 67.2888C505.482 62.6474 508.576 59.6937 510.264 58.1466C511.952 56.5994 513.358 55.6149 515.187 54.4897C520.391 51.1141 524.329 48.5824 529.674 48.1605C534.175 47.8792 537.55 49.2857 540.082 50.4109C546.411 53.0832 550.349 57.4433 552.459 59.975C553.022 58.1466 553.725 56.0368 554.569 53.7865C555.272 51.958 556.257 49.9889 556.96 48.8637C559.632 44.3629 564.977 41.9719 568.634 40.8467" stroke="#808285" stroke-width="2" stroke-miterlimit="10"/>
<path d="M657.806 101.89C659.775 104.562 662.588 107.797 671.449 118.768C679.044 128.05 679.748 129.035 681.013 131.004C687.061 139.865 690.578 148.445 690.578 148.445C692.828 153.649 693.391 156.04 696.063 160.541C698.313 164.197 699.86 165.604 702.251 168.558C706.471 173.902 708.721 178.122 712.941 185.998C715.051 189.936 716.316 192.89 721.942 206.252C727.568 219.754 727.709 220.035 730.944 227.912C737.133 242.399 740.227 249.712 743.743 256.464C746.697 262.23 748.807 265.747 751.76 272.92C753.87 277.842 754.151 279.108 756.683 285.156C758.089 288.391 759.496 291.485 763.856 300.768C769.482 312.442 770.467 314.271 773.42 320.6C777.218 328.617 777.921 332.696 782.14 340.01C783.125 341.697 782.562 340.572 786.36 346.761C792.549 356.888 795.783 361.951 798.034 366.733C800.003 371.093 800.003 371.796 802.253 376.297C804.785 381.361 807.035 384.877 807.879 386.143C811.114 391.065 816.318 399.926 825.742 416.523" stroke="#808285" stroke-width="2" stroke-miterlimit="10"/>
<g opacity="0.5">
<path d="M568.915 22.2813C570.181 23.2658 571.447 24.391 572.572 25.3756C573.134 25.9382 573.697 26.5008 574.26 27.0634C574.822 27.626 575.385 28.3292 575.948 28.7512C576.51 29.1731 577.073 29.5951 577.776 29.7357C578.479 29.8764 579.182 29.8764 580.026 29.8764C581.574 29.7357 582.98 29.3138 584.387 28.6105C585.793 27.9073 587.199 27.204 588.606 26.3601C589.309 25.9382 589.872 25.5162 590.294 25.0943C590.716 24.813 590.434 24.2504 590.153 23.5471C589.731 22.8439 589.309 22.2813 588.887 21.578C588.325 21.0154 587.762 20.4528 587.199 19.8902C586.074 18.765 584.808 17.6398 583.683 16.5146C584.949 17.4992 586.215 18.4837 587.621 19.3276C588.184 19.8902 588.887 20.3122 589.591 20.8748C590.153 21.4374 590.716 22.1406 591.138 22.8439C591.419 23.2658 591.56 23.5471 591.7 24.1097C591.7 24.391 591.841 24.6723 591.7 24.9536C591.56 25.2349 591.419 25.5162 591.278 25.6569C590.716 26.3601 590.012 26.9227 589.309 27.3447C587.903 28.1886 586.496 28.8918 584.949 29.7357C583.402 30.439 581.714 31.0016 580.026 31.0016C579.182 31.0016 578.339 31.0016 577.495 30.7203C576.651 30.439 575.807 30.017 575.244 29.3138C574.682 28.6105 574.26 28.0479 573.697 27.4853C573.135 26.9227 572.713 26.2195 572.15 25.6569C571.165 24.6723 570.04 23.5471 568.915 22.2813Z" fill="#AEB0B2"/>
</g>
<g opacity="0.5">
<path d="M455.974 176.152C457.802 177.418 459.631 178.825 461.037 180.512C462.584 182.2 463.85 184.029 465.116 185.998C465.678 186.982 466.241 187.967 466.663 189.092C467.085 190.217 467.226 191.342 467.366 192.468C467.648 194.718 467.226 197.109 466.382 199.219C466.663 196.968 466.663 194.718 466.241 192.608C466.1 191.624 465.819 190.499 465.397 189.514C464.975 188.53 464.413 187.545 463.85 186.701C461.74 182.904 459.068 179.387 455.974 176.152Z" fill="#AEB0B2"/>
</g>
<path opacity="0.33" d="M315.605 419.195C317.433 416.944 325.31 408.786 333.889 400.207C342.469 391.627 360.05 361.388 365.254 355.34C370.458 349.292 384.242 334.383 387.617 326.928C390.993 319.474 387.336 295.563 387.617 288.109C387.899 280.655 391.415 245.07 389.024 235.787C386.633 226.504 382.835 222.707 379.741 216.237C376.647 209.767 376.084 207.798 373.271 205.829C370.458 203.86 372.146 186.982 372.709 184.591C373.271 182.2 375.24 171.37 375.24 167.572C375.24 163.775 375.24 152.945 378.194 144.928C381.148 136.911 379.179 112.86 374.115 105.264C369.052 97.6694 364.973 95.8409 358.925 95.419C352.877 94.997 346.267 100.904 344.579 104.561C342.891 108.218 340.641 111.594 338.109 141.411C334.593 149.428 327.841 156.461 324.888 166.166C321.934 175.871 314.058 200.344 312.229 210.47C310.401 220.597 299.993 234.381 304.212 226.926C308.432 219.613 308.01 201.609 315.886 177.699C323.763 153.789 322.778 155.336 322.778 154.07C322.778 152.804 327.419 148.444 328.967 138.036C331.92 133.254 337.687 109.484 326.997 102.592C326.857 97.6694 323.622 94.2938 314.761 92.8873C305.9 91.4808 302.665 93.7312 300.696 99.2165C297.461 100.06 292.538 112.016 291.694 121.861C289.303 123.268 277.77 134.942 275.52 139.302C273.269 143.662 266.94 165.603 265.674 171.229C264.408 176.855 256.251 212.018 254 215.252C251.75 218.487 250.765 220.738 252.594 213.846C254.422 206.954 262.861 165.462 266.518 158.008C270.175 150.554 270.597 144.365 280.724 129.878C290.851 115.391 289.444 108.359 287.616 103.717C285.787 99.0759 284.381 95.1377 275.801 93.7312C267.221 92.3247 262.299 99.4978 262.299 99.4978C262.299 99.4978 257.095 101.045 244.577 114.547C241.904 109.343 238.248 105.405 238.248 105.405C238.248 105.405 235.575 99.7791 227.98 98.6539C220.385 97.5287 217.291 105.686 216.869 108.64C214.337 108.64 209.133 120.314 207.305 131.988C205.476 143.802 202.523 160.68 199.428 170.667C196.334 180.653 194.365 188.951 193.662 196.265C192.958 203.579 189.02 213.846 188.317 223.41C187.614 232.974 176.502 260.401 175.94 269.121C175.237 277.842 175.658 307.659 174.815 314.551C173.971 321.443 172.705 344.65 174.815 358.012C176.924 371.233 175.94 383.469 173.689 390.08C171.439 396.691 163 418.632 163 418.632H315.605V419.195Z" fill="#E0E1E2"/>
<path d="M315.605 419.195C317.433 416.944 325.31 408.786 333.889 400.207C342.469 391.627 360.05 361.388 365.254 355.34C370.458 349.292 384.242 334.383 387.617 326.928C390.993 319.474 387.336 295.563 387.617 288.109C387.899 280.655 391.415 245.07 389.024 235.787C386.633 226.504 382.835 222.707 379.741 216.237C376.647 209.767 376.084 207.798 373.271 205.829C370.458 203.86 372.146 186.982 372.709 184.591C373.271 182.2 375.24 171.37 375.24 167.572C375.24 163.775 375.24 152.945 378.194 144.928C381.148 136.911 379.179 112.86 374.115 105.264C369.052 97.6694 364.973 95.8409 358.925 95.419C352.877 94.997 346.267 100.904 344.579 104.561C342.891 108.218 340.641 111.594 338.109 141.411C334.593 149.428 327.841 156.461 324.888 166.166C321.934 175.871 314.058 200.344 312.229 210.47C310.401 220.597 299.993 234.381 304.212 226.926C308.432 219.613 308.01 201.609 315.886 177.699C323.763 153.789 322.778 155.336 322.778 154.07C322.778 152.804 327.419 148.444 328.967 138.036C331.92 133.254 337.687 109.484 326.997 102.592C326.857 97.6694 323.622 94.2938 314.761 92.8873C305.9 91.4808 302.665 93.7312 300.696 99.2165C297.461 100.06 292.538 112.016 291.694 121.861C289.303 123.268 277.77 134.942 275.52 139.302C273.269 143.662 266.94 165.603 265.674 171.229C264.408 176.855 256.251 212.018 254 215.252C251.75 218.487 250.765 220.738 252.594 213.846C254.422 206.954 262.861 165.462 266.518 158.008C270.175 150.554 270.597 144.365 280.724 129.878C290.851 115.391 289.444 108.359 287.616 103.717C285.787 99.0759 284.381 95.1377 275.801 93.7312C267.221 92.3247 262.299 99.4978 262.299 99.4978C262.299 99.4978 257.095 101.045 244.577 114.547C241.904 109.343 238.248 105.405 238.248 105.405C238.248 105.405 235.575 99.7791 227.98 98.6539C220.385 97.5287 217.291 105.686 216.869 108.64C214.337 108.64 209.133 120.314 207.305 131.988C205.476 143.802 202.523 160.68 199.428 170.667C196.334 180.653 194.365 188.951 193.662 196.265C192.958 203.579 189.02 213.846 188.317 223.41C187.614 232.974 176.502 260.401 175.94 269.121C175.237 277.842 175.658 307.659 174.815 314.551C173.971 321.443 172.705 344.65 174.815 358.012C176.924 371.233 175.94 383.469 173.689 390.08C171.439 396.691 163 418.632 163 418.632" stroke="#808285" stroke-width="2" stroke-miterlimit="10"/>
<path d="M203.789 219.754C207.727 215.534 210.962 209.064 211.243 202.313C211.524 195.562 210.821 160.54 219.682 147.178C228.543 133.817 244.718 115.11 244.718 115.11" stroke="#808285" stroke-width="2" stroke-miterlimit="10"/>
<path d="M360.894 301.753C358.925 298.096 356.534 295.705 356.534 292.892C356.534 290.079 358.081 257.87 359.769 246.337C361.316 234.804 369.192 201.47 371.864 194.578" stroke="#808285" stroke-width="2" stroke-miterlimit="10"/>
</svg>
