<svg width="850" height="500" viewBox="0 0 850 500" fill="none" xmlns="http://www.w3.org/2000/svg">
<path opacity="0.33" d="M659.975 437.149C657.359 432.5 651.692 422.037 644.572 410.994C641.085 405.472 637.017 399.66 631.059 393.557C630.914 393.412 630.623 393.121 630.478 392.976C624.811 387.309 619.87 383.967 614.058 380.189C609.989 377.428 598.22 369.872 580.783 362.898C575.406 360.718 569.594 358.829 557.824 355.051C546.781 351.564 544.165 350.982 536.61 348.512C536.61 348.512 531.088 346.187 510.6 338.631C507.984 337.614 502.898 328.896 500.428 324.246C497.813 319.16 497.086 316.109 494.616 309.279C491.274 299.689 488.077 292.569 485.316 286.176C483.427 281.962 479.94 274.696 473.11 260.456C471.367 256.824 469.623 253.046 468.025 247.524C466.862 243.31 466.281 239.823 465.409 234.737C464.537 229.506 463.956 225.001 463.665 221.659C463.084 220.642 462.212 219.044 461.05 217.155C457.272 211.052 454.656 208.582 451.46 203.787C449.861 201.607 447.827 198.12 445.647 193.76C446.81 192.017 448.844 189.547 452.041 187.512C459.452 182.717 467.443 183.734 470.204 184.17C477.034 185.042 481.393 187.948 487.641 192.162C495.342 197.248 499.992 202.624 501.591 204.368C505.078 208.436 508.856 213.086 510.89 220.206C511.907 223.839 512.198 226.89 512.343 229.07C515.976 232.848 518.301 236.335 519.899 238.951C524.985 247.524 526.293 255.371 526.729 258.422C527.455 264.234 527.455 267.431 527.455 267.431C527.455 267.431 527.6 255.08 522.079 242.002C521.207 240.113 519.899 236.917 518.01 232.703C507.403 209.454 492.436 189.982 491.128 188.093C489.821 186.204 485.026 179.811 480.085 171.093C479.504 170.075 476.743 165.135 474.273 158.306C472.239 152.493 472.093 150.023 472.093 148.715C472.093 145.955 472.82 141.45 472.82 141.45C472.675 139.852 472.384 137.672 472.093 135.056C471.803 131.133 471.367 126.483 471.512 121.107C471.657 116.167 471.657 113.696 472.239 111.807C472.82 110.064 475.435 102.362 483.137 99.1657C489.385 96.6955 494.906 98.7298 497.086 99.4563C504.206 101.927 507.984 107.448 509.292 109.337C512.634 114.423 513.506 119.654 513.796 122.415C514.087 124.158 514.087 125.466 514.087 126.483C515.831 128.082 518.301 130.552 521.062 133.894C523.096 136.364 524.113 137.817 528.618 143.92C532.25 149.006 534.139 151.476 535.883 153.801C538.063 156.707 541.114 160.776 545.183 165.716C545.764 164.99 546.345 164.263 546.926 163.537C546.345 161.357 545.473 158.306 544.02 154.528C541.695 148.425 538.934 144.066 535.011 137.817C533.558 135.492 531.524 132.15 528.908 128.518C528.036 127.065 527.165 125.466 526.147 124.013C524.694 123.287 522.66 121.979 520.626 120.09C517.72 117.329 516.267 114.568 515.831 113.842C514.668 111.517 514.232 109.047 513.215 104.106C513.07 103.234 512.489 100.038 511.907 95.5331C511.326 91.0285 511.181 88.8489 511.326 87.2506C511.617 85.6522 512.343 81.5836 515.395 77.9509C516.412 76.6432 517.574 75.9166 519.899 74.3183C521.934 72.8652 523.096 72.1387 526.729 70.1044C533.413 66.1811 532.832 66.3264 533.413 66.0358C538.498 64.0015 543.294 64.8733 545.183 65.3092C550.559 66.3264 554.046 69.0872 557.243 71.5574C560.876 74.3183 563.346 77.2244 564.799 79.2587C565.09 77.8056 565.671 75.9166 566.543 73.5917C567.56 71.1215 568.577 68.7966 570.466 66.4717C572.355 64.2921 574.244 63.4202 577.586 61.6766C580.637 60.2235 584.997 58.0439 591.1 57.608C593.57 57.4627 595.895 57.3174 598.946 58.1892C602.869 59.3517 605.34 61.5313 606.793 62.839C608.391 64.4374 610.716 66.9076 613.331 70.2497C617.4 75.4807 619.725 79.9852 621.033 82.4554C625.101 90.302 631.204 106.431 638.47 127.646C638.615 128.227 628.153 100.473 620.742 76.6432C620.597 75.9166 620.161 73.4464 618.998 70.2497C617.836 67.0529 616.383 64.8733 615.656 63.7109C615.656 63.7109 611.588 57.0268 609.118 48.8896C607.519 43.6585 606.066 38.7181 607.519 32.7605C608.972 26.9482 612.46 23.025 614.058 21.2813C616.092 19.1017 617.545 17.5033 620.161 16.6315C625.392 15.0331 630.478 18.8111 631.35 19.3923C632.512 20.2641 633.384 21.4266 635.128 23.4609C638.179 27.2389 640.068 30.4356 640.94 31.8887C642.829 35.2307 644.282 38.2822 647.479 45.5475C649.222 49.4708 650.53 52.8128 652.419 57.3174C659.684 74.7542 659.539 75.0448 661.283 77.9509C662.59 80.1305 664.044 82.4554 665.787 86.524C666.95 89.2849 667.095 90.1567 668.548 94.5159C670.728 100.909 671.454 101.636 672.907 106.14C674.651 111.226 674.796 113.26 675.959 118.346C677.993 126.629 680.463 132.441 683.369 138.98C687.583 148.861 687.729 146.681 692.669 157.724C696.447 166.297 699.498 174.725 701.242 179.375C702.55 182.862 703.567 185.769 704.148 187.948C705.601 189.982 707.636 193.034 709.961 196.667C714.901 204.513 719.115 212.65 723.619 222.822C726.38 229.07 726.816 230.668 734.227 250.721C739.894 265.978 743.09 274.551 746.723 283.996C750.356 293.15 753.117 299.689 758.057 311.75C763.143 323.81 765.904 330.349 781.306 366.821C781.451 367.257 784.939 375.539 785.229 375.975C788.572 381.061 791.042 385.565 792.931 388.762C797.29 396.318 799.905 401.113 802.666 407.797C804.265 411.721 804.265 412.447 806.008 417.533C808.914 425.67 811.821 432.064 813.71 436.132C762.562 436.859 711.268 437.004 659.975 437.149Z" fill="#E0E1E2"/>
<path d="M683.66 139.416C687.874 149.297 688.019 147.117 692.96 158.161C696.738 166.734 699.789 175.161 701.533 179.811C702.841 183.299 703.858 186.205 704.439 188.384C705.892 190.419 707.926 193.47 710.251 197.103C715.192 204.949 719.406 213.087 723.91 223.258C726.671 229.506 727.107 231.105 734.518 251.157C740.184 266.414 743.381 274.987 747.014 284.432C750.647 293.587 753.407 300.125 758.348 312.186C763.434 324.246 766.194 330.785 781.597 367.257C781.742 367.693 785.23 375.975 785.52 376.411C788.862 381.497 791.333 386.002 793.222 389.198C797.581 396.754 800.196 401.549 802.957 408.234C804.555 412.157 804.555 412.883 806.299 417.969C809.205 426.106 812.111 432.5 814 436.568" stroke="#808285" stroke-width="2" stroke-miterlimit="10"/>
<path d="M623.939 87.1049C623.794 86.3783 620.306 73.882 619.144 70.6852L617.546 67.1978C616.819 65.8901 616.238 64.8729 615.802 64.1464C615.802 64.1464 611.733 57.4623 609.263 49.3251C607.665 44.0941 606.212 39.1536 607.665 33.1961C609.118 27.3838 612.605 23.4605 614.203 21.7168C616.238 19.5372 617.691 17.9388 620.306 17.067C625.537 15.4686 630.623 19.2466 631.495 19.8278C632.657 20.6997 633.529 21.8621 635.273 23.8964C638.324 27.6744 640.213 30.8711 641.085 32.3242C642.974 35.6663 644.427 38.7177 647.624 45.9831C649.368 49.9063 650.675 53.2484 652.564 57.7529C659.83 75.1897 659.685 75.4803 661.428 78.3865C662.736 80.5661 664.189 82.891 665.933 86.9596C667.095 89.7204 667.24 90.5922 668.694 94.9514C670.873 101.345 671.6 102.071 673.053 106.576C674.796 111.662 674.942 113.696 676.104 118.782C678.138 127.064 680.609 132.877 683.515 139.415" stroke="#2969D0" stroke-width="3" stroke-miterlimit="10" stroke-linecap="round"/>
<path d="M659.975 437.15C657.359 432.5 651.692 422.038 644.572 410.994C641.085 405.473 637.016 399.66 631.059 393.558C630.914 393.412 630.623 393.122 630.478 392.976C624.811 387.309 619.87 383.967 614.058 380.189C609.989 377.429 598.22 369.873 580.783 362.898C575.406 360.718 569.594 358.829 557.824 355.051C546.781 351.564 544.165 350.983 536.61 348.512C536.61 348.512 531.088 346.188 510.6 338.632C507.984 337.614 502.898 328.896 500.428 324.246C497.813 319.16 497.086 316.109 494.616 309.28C491.274 299.689 488.077 292.569 485.316 286.176C483.427 281.962 481.248 277.457 474.418 263.217C472.675 259.585 469.187 251.448 467.589 245.926C466.426 241.712 466.281 239.968 465.409 234.883C464.537 229.652 463.956 225.147 463.665 221.805C463.084 220.788 462.212 219.189 461.05 217.3C457.272 211.198 454.656 208.727 451.46 203.932C449.861 201.753 447.827 198.265 445.647 193.906C446.81 192.162 448.844 189.692 452.041 187.658C459.452 182.863 467.443 183.88 470.204 184.316C477.034 185.188 481.393 188.094 487.641 192.308C495.342 197.393 499.992 202.77 501.591 204.513C505.078 208.582 508.275 212.941 510.309 220.061C511.326 223.694 511.617 227.181 511.762 229.361C515.395 233.139 518.301 236.626 519.899 239.242C524.985 247.815 526.293 255.661 526.729 258.713C527.455 264.525 527.019 268.448 527.019 268.448C527.019 268.448 527.6 255.371 522.079 242.293C521.207 240.404 519.899 237.207 518.01 232.994C507.403 209.744 492.436 190.273 491.128 188.384C489.821 186.495 485.026 180.102 480.085 171.383C479.504 170.366 476.743 165.426 474.273 158.596C472.239 152.784 472.093 150.314 472.093 149.006C472.093 146.245 472.82 141.741 472.82 141.741C472.675 140.143 472.384 137.963 472.093 135.347C471.803 131.424 471.367 126.774 471.512 121.398C471.657 116.458 471.657 113.987 472.239 112.098C472.82 110.355 475.435 102.653 483.137 99.4566C489.385 96.9864 494.906 99.0207 497.086 99.7472C504.206 102.217 507.984 107.739 509.292 109.628C512.634 114.714 513.506 119.945 513.796 122.706C514.087 124.449 514.087 125.757 514.087 126.774C515.831 128.373 518.301 130.843 521.062 134.185C523.096 136.655 524.113 138.108 528.618 144.211C532.25 149.297 534.139 151.767 535.883 154.092C538.063 156.998 541.114 161.067 545.183 166.007C545.764 165.281 546.345 164.554 546.926 163.828C546.345 161.648 545.473 158.597 544.02 154.819C541.695 148.716 538.934 144.356 535.011 138.108C533.558 135.783 531.524 132.441 528.908 128.809C528.036 127.356 527.165 125.757 526.147 124.304C524.694 123.578 522.66 122.27 520.626 120.381C517.72 117.62 516.267 114.859 515.831 114.133C514.668 111.808 514.232 109.338 513.215 104.397C513.07 103.525 512.489 100.328 511.907 95.824C511.326 91.3195 511.181 89.1399 511.326 87.5415C511.617 85.9431 512.343 81.8745 515.395 78.2419C516.412 76.9341 517.574 76.2076 519.899 74.6092C521.934 73.1561 523.096 72.4296 526.729 70.3953C533.413 66.472 532.832 66.6173 533.413 66.3267C538.498 64.2924 543.294 65.1642 545.183 65.6002C550.559 66.6173 554.046 69.3781 557.243 71.8484C560.876 74.6092 563.346 77.5153 564.799 79.5496C565.09 78.0965 565.671 76.2076 566.543 73.8827C567.56 71.4124 568.577 69.0875 570.466 66.7626C572.355 64.583 574.244 63.7112 577.586 61.9675C580.637 60.5144 584.997 58.3348 591.1 57.8989C593.57 57.7536 595.895 57.6083 598.946 58.4801C602.869 59.6426 605.34 61.8222 606.793 63.1299C608.391 64.7283 610.716 67.1985 613.331 70.5406C617.4 75.7716 619.725 80.2761 621.033 82.7464C625.101 90.5929 631.204 106.722 638.47 127.937" stroke="#808285" stroke-width="2" stroke-miterlimit="10"/>
<path d="M597.057 133.894C589.937 122.269 582.672 110.354 575.552 98.4389C572.065 92.6266 568.432 85.5066 565.09 79.6943" stroke="#808285" stroke-width="2" stroke-miterlimit="10"/>
<g opacity="0.5">
<path d="M614.93 27.5287C615.947 28.8365 616.964 30.2896 617.981 31.5973L620.887 35.6659C621.178 35.9565 621.323 36.2472 621.759 36.3925C622.05 36.5378 622.34 36.6831 622.776 36.8284C623.503 37.119 624.375 37.2643 625.101 37.2643C626.7 37.5549 628.443 37.5549 630.042 37.5549C630.478 37.5549 630.913 37.5549 631.204 37.4096C631.64 37.4096 631.931 37.2643 632.367 37.119C633.093 36.8284 633.82 36.5378 634.546 36.1018C635.127 35.6659 635.709 35.23 635.999 34.5035C636.29 33.9222 636.144 33.1957 635.854 32.4692C635.273 30.8708 634.546 29.4177 633.674 27.9647C632.802 26.5116 631.931 25.0585 631.059 23.6055C633.384 26.0757 635.418 28.8365 636.871 32.0333C637.307 32.7598 637.598 33.9223 637.162 34.9394C636.871 35.9565 636.144 36.6831 635.273 37.2643C634.546 37.8455 633.674 38.1361 632.802 38.4268C632.366 38.5721 631.931 38.7174 631.495 38.8627C631.059 38.8627 630.623 39.008 630.187 39.008C628.443 39.008 626.7 39.008 624.956 38.7174C624.084 38.5721 623.212 38.4268 622.34 37.9908C621.904 37.8455 621.469 37.7002 621.033 37.2643C620.597 36.9737 620.306 36.5378 620.015 36.2472C618.272 33.4863 616.673 30.5802 614.93 27.5287Z" fill="#AEB0B2"/>
</g>
<g opacity="0.5">
<path d="M454.802 190.71C457.853 194.197 460.469 197.975 463.084 201.899C463.665 202.916 464.392 203.933 464.828 204.95C465.264 206.112 465.7 207.275 465.7 208.437C465.845 210.908 465.119 213.233 463.811 215.122C464.683 212.942 464.973 210.617 464.683 208.437C464.392 206.258 463.23 204.369 461.922 202.48C459.306 198.847 456.981 194.924 454.802 190.71Z" fill="#AEB0B2"/>
</g>
<path opacity="0.33" d="M310.658 439.33C312.547 437.005 320.684 428.577 329.548 419.714C338.411 410.85 356.575 379.609 361.951 373.361C367.327 367.112 381.568 351.71 385.055 344.009C388.542 336.307 384.764 311.605 385.055 303.904C385.346 296.203 388.978 259.44 386.508 249.85C384.038 240.26 380.115 236.336 376.918 229.652C373.721 222.968 373.14 220.934 370.234 218.9C367.328 216.865 369.071 199.428 369.652 196.958C370.234 194.488 372.268 183.299 372.268 179.376C372.268 175.453 372.268 164.264 375.319 155.982C378.371 147.699 376.337 122.852 371.106 115.005C365.874 107.159 361.661 105.27 355.412 104.834C349.164 104.398 342.335 110.501 340.591 114.279C338.847 118.057 336.522 121.544 333.907 152.349C330.274 160.632 323.3 167.897 320.248 177.923C317.197 187.949 309.059 213.233 307.171 223.695C305.282 234.157 294.529 248.397 298.888 240.696C303.247 233.14 302.811 214.54 310.948 189.838C319.086 165.136 318.069 166.734 318.069 165.427C318.069 164.119 322.864 159.614 324.462 148.862C327.513 143.921 333.471 119.364 322.428 112.244C322.282 107.159 318.94 103.671 309.786 102.218C300.632 100.765 297.29 103.09 295.255 108.757C291.913 109.629 286.828 121.98 285.956 132.151C283.486 133.604 271.57 145.665 269.245 150.169C266.921 154.674 260.382 177.342 259.074 183.154C257.766 188.966 249.338 225.293 247.013 228.635C244.689 231.977 243.671 234.302 245.56 227.182C247.449 220.062 256.168 177.196 259.946 169.495C263.724 161.794 264.16 155.4 274.622 140.434C285.084 125.467 283.631 118.202 281.742 113.407C279.853 108.612 278.4 104.543 269.536 103.09C260.672 101.637 255.587 109.048 255.587 109.048C255.587 109.048 250.21 110.646 237.278 124.595C234.517 119.219 230.739 115.151 230.739 115.151C230.739 115.151 227.978 109.338 220.132 108.176C212.285 107.013 209.088 115.441 208.652 118.493C206.037 118.493 200.661 130.553 198.772 142.613C196.883 154.819 193.831 172.256 190.634 182.573C187.438 192.89 185.403 201.463 184.677 209.019C183.95 216.575 179.882 227.182 179.155 237.063C178.429 246.944 166.949 275.279 166.368 284.288C165.642 293.297 166.078 324.102 165.206 331.222C164.334 338.342 163.026 362.317 165.206 376.122C167.385 389.78 166.368 402.422 164.043 409.251C161.718 416.081 153 438.749 153 438.749H310.658V439.33Z" fill="#E0E1E2"/>
<path d="M310.658 439.33C312.547 437.005 320.684 428.577 329.548 419.714C338.411 410.85 356.575 379.609 361.951 373.361C367.327 367.112 381.568 351.71 385.055 344.009C388.542 336.307 384.764 311.605 385.055 303.904C385.346 296.203 388.978 259.44 386.508 249.85C384.038 240.26 380.115 236.336 376.918 229.652C373.721 222.968 373.14 220.934 370.234 218.9C367.328 216.865 369.071 199.428 369.652 196.958C370.234 194.488 372.268 183.299 372.268 179.376C372.268 175.453 372.268 164.264 375.319 155.982C378.371 147.699 376.337 122.852 371.106 115.005C365.874 107.159 361.661 105.27 355.412 104.834C349.164 104.398 342.335 110.501 340.591 114.279C338.847 118.057 336.522 121.544 333.907 152.349C330.274 160.632 323.3 167.897 320.248 177.923C317.197 187.949 309.059 213.233 307.171 223.695C305.282 234.157 294.529 248.397 298.888 240.696C303.247 233.14 302.811 214.54 310.948 189.838C319.086 165.136 318.069 166.734 318.069 165.427C318.069 164.119 322.864 159.614 324.462 148.862C327.513 143.921 333.471 119.364 322.428 112.244C322.282 107.159 318.94 103.671 309.786 102.218C300.632 100.765 297.29 103.09 295.255 108.757C291.913 109.629 286.828 121.98 285.956 132.151C283.486 133.604 271.57 145.665 269.245 150.169C266.921 154.674 260.382 177.342 259.074 183.154C257.766 188.966 249.338 225.293 247.013 228.635C244.689 231.977 243.671 234.302 245.56 227.182C247.449 220.062 256.168 177.196 259.946 169.495C263.724 161.794 264.16 155.4 274.622 140.434C285.084 125.467 283.631 118.202 281.742 113.407C279.853 108.612 278.4 104.543 269.536 103.09C260.672 101.637 255.587 109.048 255.587 109.048C255.587 109.048 250.21 110.646 237.278 124.595C234.517 119.219 230.739 115.151 230.739 115.151C230.739 115.151 227.978 109.338 220.132 108.176C212.285 107.013 209.088 115.441 208.652 118.493C206.037 118.493 200.661 130.553 198.772 142.613C196.883 154.819 193.831 172.256 190.634 182.573C187.438 192.89 185.403 201.463 184.677 209.019C183.95 216.575 179.882 227.182 179.155 237.063C178.429 246.944 166.949 275.279 166.368 284.288C165.642 293.297 166.078 324.102 165.206 331.222C164.334 338.342 163.026 362.317 165.206 376.122C167.385 389.78 166.368 402.422 164.043 409.251C161.718 416.081 153 438.749 153 438.749" stroke="#808285" stroke-width="2" stroke-miterlimit="10"/>
<path d="M195.14 233.286C199.208 228.927 202.55 222.243 202.841 215.268C203.132 208.293 202.405 172.112 211.559 158.308C220.714 144.504 237.424 125.178 237.424 125.178" stroke="#808285" stroke-width="2" stroke-miterlimit="10"/>
<path d="M357.447 317.999C355.413 314.221 352.942 311.751 352.942 308.845C352.942 305.939 354.541 272.663 356.284 260.748C357.883 248.833 366.02 214.395 368.781 207.275" stroke="#808285" stroke-width="2" stroke-miterlimit="10"/>
</svg>
