<svg width="850" height="500" viewBox="0 0 850 500" fill="none" xmlns="http://www.w3.org/2000/svg">
<path opacity="0.33" d="M534 442.574C532.212 439.892 529.381 436.019 525.508 431.698C521.634 427.229 519.102 425.143 514.781 420.972C510.163 416.354 507.333 412.927 502.267 407.117C490.498 393.56 481.411 380.599 478.729 376.726C471.28 366.148 468.748 361.232 463.533 356.763C462.788 356.167 460.107 353.932 457.425 350.208C454.297 346.036 453.105 342.759 452.807 341.716C452.658 341.12 452.062 339.183 451.615 335.012C450.87 328.606 451.615 325.924 451.466 319.518C451.317 314.304 450.721 310.431 450.572 309.388C450.125 306.408 449.083 299.704 445.954 291.809C444.762 288.978 443.719 286.743 442.677 282.721C442.528 282.125 441.932 279.593 441.336 276.315C441.038 273.931 440.74 271.995 440.74 270.356C440.144 269.313 439.548 267.972 438.952 266.334C438.058 263.503 438.058 260.97 438.058 259.183C437.462 257.991 436.568 256.203 436.122 253.819C435.526 250.989 435.824 248.605 437.76 239.816C438.207 237.879 438.654 235.495 439.25 232.814C439.548 228.642 439.846 224.173 439.846 219.406C439.846 217.618 439.846 215.979 439.697 214.192C437.909 210.318 436.717 206.892 435.824 204.21C434.632 200.784 433.589 197.804 432.844 193.782C432.397 191.249 432.099 189.163 431.95 187.674C432.546 187.525 433.291 187.227 433.887 187.078C434.483 186.333 435.526 185.439 436.866 184.694C441.485 182.012 446.699 183.502 450.125 184.396C457.723 186.482 462.193 191.1 463.384 192.292C466.513 195.569 468.152 198.996 469.939 203.614C475.452 217.618 477.537 230.579 478.58 239.369C478.878 242.497 479.325 247.562 480.07 257.693C480.815 267.525 481.411 274.974 481.858 284.211C482.304 291.66 482.751 301.641 482.9 313.41C481.858 316.39 480.815 319.816 480.219 323.839C479.176 329.947 479.027 335.459 479.325 339.779C479.325 336.8 479.474 333.671 479.921 330.245C480.666 323.69 482.156 318.029 483.794 313.41C483.049 296.278 482.453 279.146 481.709 262.013C481.262 256.65 480.666 251.138 479.921 245.328C478.729 236.538 476.643 226.706 475.005 217.32C472.919 205.253 471.876 199.294 471.429 192.441C471.131 187.227 471.28 181.863 471.578 171.137C471.727 164.731 471.876 163.539 472.025 154.452C472.323 143.725 472.174 144.023 472.323 138.064C472.77 126.146 473.664 119.889 475.303 113.781C479.325 98.8832 487.817 95.0098 493.776 94.7118C499.139 94.4138 503.012 96.7975 504.949 97.9893C512.845 102.906 514.931 111.099 515.228 112.738C515.675 114.526 515.675 116.016 515.824 116.462C516.42 127.04 515.526 150.28 515.079 158.325C516.122 161.007 517.463 165.029 518.953 169.796C523.124 183.502 524.912 193.931 526.104 201.528C528.487 215.234 531.02 230.281 534.298 248.456C530.424 222.981 526.402 197.357 522.528 171.882C520.443 149.833 518.208 127.934 516.122 105.885C516.271 104.693 516.718 102.906 517.761 100.969C519.996 96.4995 523.571 94.2649 524.763 93.669C532.361 89.0507 540.704 91.7323 541.895 92.1792C544.279 92.9241 549.344 95.1587 552.622 100.075C554.261 102.459 554.856 104.693 555.899 108.418C556.793 111.546 557.687 116.016 557.836 121.528C558.879 123.762 560.22 126.742 561.709 130.466C564.689 137.766 567.966 145.811 571.095 156.239C573.925 165.923 575.266 173.521 575.564 175.011C576.16 178.586 576.309 179.778 577.948 193.931C579.885 211.51 580.331 214.043 581.225 217.618C583.013 224.918 585.099 231.026 587.631 234.899C581.672 225.812 579.885 205.551 579.438 183.204C579.438 183.204 574.67 170.094 570.35 143.576C570.052 141.342 567.817 138.66 566.179 135.085C562.603 127.338 560.964 123.464 560.22 119.144C559.624 115.42 559.028 110.652 561.411 105.438C562.007 104.097 565.583 97.2444 573.181 95.6057C580.034 94.1159 585.695 97.6913 587.184 98.7342C589.866 100.522 591.505 102.459 593.739 105.438C596.868 109.461 602.827 118.399 603.274 119.591L604.019 120.336C604.615 114.675 608.19 106.63 613.255 104.097C617.576 102.012 621.598 102.757 622.79 103.055C629.047 104.544 631.878 109.759 632.325 110.503C634.261 113.036 636.943 116.909 639.624 121.826C643.796 129.423 645.584 135.383 649.01 146.258C651.692 154.75 653.33 161.454 655.416 170.541C657.204 177.692 658.545 183.651 659.438 187.972C660.332 198.251 661.077 208.828 661.673 219.555C662.12 227.004 662.418 234.303 662.716 241.454C664.057 245.626 665.844 252.181 667.334 260.225C668.824 268.419 669.271 274.378 670.165 291.064C671.208 309.239 671.804 318.327 671.804 319.369C672.25 333.522 672.25 350.059 672.25 382.536C672.25 390.432 672.25 399.519 674.932 410.841C676.869 418.886 679.699 426.186 680.742 429.017C682.977 434.529 685.211 439.147 686.999 442.574C636.198 442.723 585.099 442.723 534 442.574Z" fill="#E0E1E2"/>
<path d="M534.297 248.456C530.424 222.981 526.401 197.357 522.528 171.882C520.442 149.833 518.208 127.934 516.122 105.885C516.271 104.693 516.718 102.906 517.761 100.969C519.995 96.4995 523.571 94.2649 524.763 93.669C532.361 89.0507 540.703 91.7323 541.895 92.1792C544.279 92.9241 549.344 95.1587 552.621 100.075C554.26 102.459 554.856 104.693 555.899 108.418C556.793 111.546 557.687 116.016 557.836 121.528C558.879 123.762 560.219 126.742 561.709 130.466C564.689 137.766 567.966 145.811 571.095 156.239C573.925 165.923 575.266 173.521 575.564 175.011C576.16 178.586 576.309 179.778 577.948 193.931C579.884 211.51 580.331 214.043 581.225 217.618C583.013 224.918 585.099 231.026 587.631 234.899C581.672 225.812 579.884 205.551 579.437 183.204C579.437 183.204 574.67 170.094 570.35 143.576C570.052 141.342 567.817 138.66 566.178 135.085C562.603 127.338 560.964 123.464 560.219 119.144C559.623 115.42 559.028 110.652 561.411 105.438C562.007 104.097 565.582 97.2444 573.18 95.6057C580.033 94.1159 585.694 97.6913 587.184 98.7342C589.866 100.522 591.505 102.459 593.739 105.438C596.868 109.461 602.827 118.399 603.274 119.591L604.019 120.336C604.615 114.675 608.19 106.63 613.255 104.097C617.576 102.012 621.598 102.757 622.79 103.055C629.047 104.544 631.877 109.759 632.324 110.503C634.261 113.036 636.943 116.909 639.624 121.826C643.796 129.423 645.583 135.383 649.01 146.258C651.691 154.75 653.33 161.454 655.416 170.541C657.204 177.692 658.544 183.651 659.438 187.972C660.332 198.251 661.077 208.828 661.673 219.555C662.12 227.004 662.418 234.303 662.716 241.454C664.056 245.626 665.844 252.181 667.334 260.225C668.824 268.419 669.271 274.378 670.165 291.064C671.207 309.239 671.803 318.327 671.803 319.369C672.25 333.522 672.25 350.059 672.25 382.536C672.25 390.432 672.25 399.519 674.932 410.841C676.868 418.886 679.699 426.186 680.742 429.017C682.977 434.529 685.211 439.147 686.999 442.574" stroke="#808285" stroke-width="2" stroke-miterlimit="10"/>
<path d="M474.856 217.171C472.77 205.104 471.728 199.145 471.281 192.292C470.983 187.078 471.132 181.715 471.43 170.988C471.579 164.582 471.727 163.39 471.876 154.303C472.174 143.577 472.025 143.874 472.174 137.915C472.621 125.997 473.515 119.74 475.154 113.632C479.176 98.7344 485.284 95.3079 493.627 94.563C498.99 94.1161 502.864 96.6487 504.8 97.8405C512.696 102.757 515.229 109.163 515.676 116.314C516.421 126.891 515.378 150.132 514.931 158.176C515.974 160.858 517.315 164.88 518.804 169.648C522.976 183.353 524.763 193.782 525.955 201.38C528.339 215.086 530.871 230.132 534.149 248.308" stroke="#2969D0" stroke-width="3" stroke-miterlimit="10" stroke-linecap="round"/>
<path d="M628.302 228.94C628.302 216.724 627.856 206.296 627.111 198.102C625.77 180.374 623.684 170.392 623.088 167.413C622.343 163.688 621.599 160.56 621.003 158.474C615.341 145.811 609.233 132.254 603.572 119.591" stroke="#808285" stroke-width="2" stroke-miterlimit="10"/>
<path d="M534 442.574C532.212 439.893 529.381 436.019 525.508 431.699C521.634 427.229 519.102 425.144 514.781 420.972C510.163 416.354 507.333 412.928 502.267 407.118C490.498 393.561 481.411 380.6 478.729 376.726C471.28 366.149 468.748 361.233 463.533 356.763C462.788 356.167 460.107 353.933 457.425 350.208C454.297 346.037 453.105 342.759 452.807 341.717C452.658 341.121 452.062 339.184 451.615 335.013C450.87 328.607 451.615 325.925 451.466 319.519C451.317 314.305 450.721 310.431 450.572 309.388C450.125 306.409 449.083 299.705 445.954 291.809C444.762 288.979 443.719 286.744 442.677 282.722C442.528 282.126 441.932 279.593 441.336 276.316C441.038 273.932 440.74 271.995 440.74 270.356C440.144 269.314 439.548 267.973 438.952 266.334C438.058 263.504 438.058 260.971 438.058 259.183C437.462 257.991 436.568 256.204 436.122 253.82C435.526 250.989 435.824 248.606 437.76 239.816C438.207 237.879 438.654 235.496 439.25 232.814C439.548 228.643 439.846 224.174 439.846 219.406C439.846 217.619 439.846 215.98 439.697 214.192C437.909 210.319 436.717 206.892 435.824 204.211C434.632 200.784 433.589 197.805 432.844 193.782C432.397 191.25 432.099 189.164 431.95 187.674C432.546 187.525 433.291 187.227 433.887 187.078C434.483 186.333 435.526 185.439 436.866 184.695C441.485 182.013 446.699 183.503 450.125 184.397C457.723 186.482 462.193 191.101 463.384 192.292C466.513 195.57 468.152 198.996 469.939 203.615C475.452 217.619 477.537 230.58 478.58 239.369C478.878 242.498 479.325 247.563 480.07 257.693C480.815 267.526 481.411 274.975 481.858 284.211C482.304 291.66 482.751 301.642 482.9 313.411C481.858 316.39 480.815 319.817 480.219 323.839C479.176 329.947 479.027 335.46 479.325 339.78C479.325 336.8 479.474 333.672 479.921 330.245C480.666 323.69 482.156 318.029 483.794 313.411C483.049 296.279 482.453 279.146 481.709 262.014C481.262 256.651 479.176 245.179 478.431 239.369" stroke="#808285" stroke-width="2" stroke-miterlimit="10"/>
<g opacity="0.5">
<path d="M482.454 106.481C482.454 107.971 482.603 109.61 483.049 110.95C483.347 111.695 483.645 112.291 484.092 112.738C484.539 113.185 485.135 113.483 485.88 113.781C488.711 114.377 491.839 114.228 494.819 114.228C497.798 114.079 500.927 113.781 503.906 113.334C504.651 113.185 505.247 113.036 505.545 112.44C505.992 111.993 506.29 111.248 506.588 110.503C507.184 109.163 507.482 107.524 507.631 106.034C507.78 107.524 507.631 109.163 507.333 110.652C507.184 111.397 506.886 112.142 506.439 112.887C506.141 113.185 505.843 113.632 505.396 113.781C504.949 114.079 504.651 114.079 504.204 114.228C501.225 114.973 498.096 115.42 494.968 115.569C493.478 115.569 491.839 115.718 490.349 115.569C488.86 115.42 487.221 115.271 485.731 114.675C484.986 114.377 484.092 113.93 483.645 113.185C483.049 112.44 482.751 111.695 482.751 110.95C482.156 109.61 482.156 107.971 482.454 106.481Z" fill="#AEB0B2"/>
</g>
<g opacity="0.5">
<path d="M442.975 213.445C444.018 212.849 445.061 212.104 445.508 210.913C445.955 209.87 445.508 208.678 445.359 207.486C445.21 206.89 445.21 206.294 445.061 205.549L444.912 204.656C444.912 204.507 444.912 204.358 444.912 204.209C444.912 204.06 444.912 204.06 444.912 203.911L444.167 200.186L443.571 196.462C443.422 195.27 443.124 193.929 442.677 193.035C441.634 191.099 439.549 189.311 437.463 188.119C439.847 188.864 442.23 190.056 443.72 192.439C444.316 193.631 444.614 194.972 444.912 196.164C445.21 197.356 445.359 198.697 445.657 199.888C445.806 201.08 446.104 202.272 446.253 203.613C446.253 203.762 446.253 204.06 446.253 204.209V204.656V205.549L446.402 207.337C446.402 207.933 446.551 208.529 446.551 209.274C446.551 209.87 446.402 210.615 446.104 211.36C445.359 212.551 444.167 213.296 442.975 213.445Z" fill="#AEB0B2"/>
</g>
<path opacity="0.33" d="M309.64 445.406C311.577 443.022 319.92 434.382 329.007 425.294C338.095 416.206 356.717 384.176 362.229 377.77C367.741 371.364 382.341 355.573 385.917 347.677C389.492 339.781 385.619 314.455 385.917 306.559C386.215 298.663 389.939 260.972 387.406 251.14C384.874 241.307 380.851 237.285 377.574 230.432C374.296 223.579 373.701 221.493 370.721 219.407C367.741 217.322 369.529 199.444 370.125 196.912C370.721 194.379 372.807 182.908 372.807 178.886C372.807 174.863 372.807 163.392 375.935 154.9C379.064 146.409 376.978 120.933 371.615 112.889C366.252 104.844 361.931 102.907 355.525 102.46C349.119 102.013 342.117 108.27 340.33 112.144C338.542 116.017 336.158 119.593 333.477 151.176C329.752 159.668 322.601 167.116 319.473 177.396C316.344 187.675 308.002 213.597 306.065 224.324C304.128 235.05 293.104 249.65 297.573 241.754C302.042 234.007 301.596 214.938 309.938 189.612C318.281 164.286 317.238 165.925 317.238 164.584C317.238 163.243 322.154 158.625 323.793 147.6C326.922 142.535 333.03 117.358 321.707 110.058C321.558 104.844 318.132 101.268 308.746 99.7787C299.361 98.2889 295.934 100.673 293.849 106.483C290.422 107.377 285.208 120.04 284.314 130.468C281.782 131.958 269.565 144.323 267.182 148.941C264.798 153.559 258.094 176.8 256.753 182.759C255.413 188.718 246.772 225.962 244.388 229.389C242.005 232.815 240.962 235.199 242.899 227.899C244.835 220.599 253.774 176.651 257.647 168.755C261.521 160.859 261.968 154.304 272.694 138.96C283.42 123.615 281.931 116.166 279.994 111.25C278.057 106.334 276.567 102.162 267.48 100.673C258.392 99.1828 253.178 106.781 253.178 106.781C253.178 106.781 247.666 108.419 234.407 122.721C231.576 117.209 227.703 113.038 227.703 113.038C227.703 113.038 224.872 107.079 216.827 105.887C208.783 104.695 205.505 113.336 205.058 116.464C202.377 116.464 196.865 128.829 194.928 141.194C192.991 153.708 189.863 171.586 186.585 182.163C183.308 192.74 181.222 201.53 180.477 209.277C179.732 217.024 175.561 227.899 174.816 238.03C174.071 248.16 162.302 277.211 161.706 286.447C160.961 295.684 161.408 327.267 160.514 334.567C159.62 341.867 158.279 366.448 160.514 380.601C162.749 394.605 161.706 407.566 159.322 414.568C156.939 421.569 148 444.81 148 444.81H309.64V445.406Z" fill="#E0E1E2"/>
<path d="M309.64 445.406C311.577 443.022 319.92 434.382 329.007 425.294C338.095 416.206 356.717 384.176 362.229 377.77C367.741 371.364 382.341 355.573 385.917 347.677C389.492 339.781 385.619 314.455 385.917 306.559C386.215 298.663 389.939 260.972 387.406 251.14C384.874 241.307 380.851 237.285 377.574 230.432C374.296 223.579 373.701 221.493 370.721 219.407C367.741 217.322 369.529 199.444 370.125 196.912C370.721 194.379 372.807 182.908 372.807 178.886C372.807 174.863 372.807 163.392 375.935 154.9C379.064 146.409 376.978 120.933 371.615 112.889C366.252 104.844 361.931 102.907 355.525 102.46C349.119 102.013 342.117 108.27 340.33 112.144C338.542 116.017 336.158 119.593 333.477 151.176C329.752 159.668 322.601 167.116 319.473 177.396C316.344 187.675 308.002 213.597 306.065 224.324C304.128 235.05 293.104 249.65 297.573 241.754C302.042 234.007 301.596 214.938 309.938 189.612C318.281 164.286 317.238 165.925 317.238 164.584C317.238 163.243 322.154 158.625 323.793 147.6C326.922 142.535 333.03 117.358 321.707 110.058C321.558 104.844 318.132 101.268 308.746 99.7787C299.361 98.2889 295.934 100.673 293.849 106.483C290.422 107.377 285.208 120.04 284.314 130.468C281.782 131.958 269.565 144.323 267.182 148.941C264.798 153.559 258.094 176.8 256.753 182.759C255.413 188.718 246.772 225.962 244.388 229.389C242.005 232.815 240.962 235.199 242.899 227.899C244.835 220.599 253.774 176.651 257.647 168.755C261.521 160.859 261.968 154.304 272.694 138.96C283.42 123.615 281.931 116.166 279.994 111.25C278.057 106.334 276.567 102.162 267.48 100.673C258.392 99.1828 253.178 106.781 253.178 106.781C253.178 106.781 247.666 108.419 234.407 122.721C231.576 117.209 227.703 113.038 227.703 113.038C227.703 113.038 224.872 107.079 216.827 105.887C208.783 104.695 205.505 113.336 205.058 116.464C202.377 116.464 196.865 128.829 194.928 141.194C192.991 153.708 189.863 171.586 186.585 182.163C183.308 192.74 181.222 201.53 180.477 209.277C179.732 217.024 175.561 227.899 174.816 238.03C174.071 248.16 162.302 277.211 161.706 286.447C160.961 295.684 161.408 327.267 160.514 334.567C159.62 341.867 158.279 366.448 160.514 380.601C162.749 394.605 161.706 407.566 159.322 414.568C156.939 421.569 148 444.81 148 444.81" stroke="#808285" stroke-width="2" stroke-miterlimit="10"/>
<path d="M191.204 234.156C195.375 229.687 198.802 222.834 199.1 215.683C199.398 208.532 198.653 171.437 208.039 157.284C217.424 143.131 234.556 123.317 234.556 123.317" stroke="#808285" stroke-width="2" stroke-miterlimit="10"/>
<path d="M357.611 321.01C355.526 317.137 352.993 314.604 352.993 311.624C352.993 308.645 354.632 274.529 356.42 262.313C358.058 250.097 366.401 214.789 369.232 207.489" stroke="#808285" stroke-width="2" stroke-miterlimit="10"/>
</svg>
