<svg width="900" height="500" viewBox="0 0 900 500" fill="none" xmlns="http://www.w3.org/2000/svg">
<path opacity="0.33" d="M327.41 430.327C329.284 428.02 337.356 419.659 346.15 410.865C354.943 402.072 372.963 371.078 378.297 364.88C383.631 358.681 397.758 343.4 401.218 335.76C404.677 328.12 400.929 303.613 401.218 295.973C401.506 288.333 405.11 251.861 402.659 242.347C400.209 232.832 396.316 228.94 393.145 222.309C389.973 215.678 389.397 213.66 386.514 211.641C383.631 209.623 385.36 192.324 385.937 189.874C386.514 187.423 388.532 176.323 388.532 172.431C388.532 168.539 388.532 157.439 391.559 149.222C394.586 141.005 392.568 116.354 387.379 108.57C382.189 100.785 378.008 98.9111 371.81 98.4786C365.611 98.0461 358.836 104.101 357.106 107.849C355.376 111.597 353.069 115.057 350.475 145.618C346.871 153.835 339.951 161.042 336.924 170.989C333.897 180.936 325.824 206.019 323.95 216.398C322.076 226.778 311.408 240.905 315.733 233.265C320.058 225.769 319.625 207.317 327.698 182.81C335.771 158.303 334.762 159.889 334.762 158.592C334.762 157.294 339.519 152.826 341.104 142.158C344.132 137.257 350.042 112.894 339.086 105.831C338.942 100.785 335.627 97.3254 326.545 95.8838C317.463 94.4422 314.147 96.7487 312.129 102.371C308.813 103.236 303.768 115.489 302.903 125.58C300.452 127.022 288.632 138.987 286.325 143.455C284.019 147.924 277.532 170.413 276.234 176.179C274.937 181.945 266.576 217.984 264.269 221.3C261.963 224.615 260.954 226.922 262.828 219.858C264.702 212.795 273.351 170.268 277.099 162.628C280.847 154.988 281.28 148.645 291.659 133.797C302.038 118.949 300.597 111.741 298.723 106.984C296.848 102.227 295.407 98.1903 286.613 96.7487C277.82 95.3072 272.774 102.659 272.774 102.659C272.774 102.659 267.441 104.245 254.611 118.084C251.872 112.75 248.124 108.714 248.124 108.714C248.124 108.714 245.385 102.947 237.6 101.794C229.816 100.641 226.644 109.002 226.212 112.029C223.617 112.029 218.283 123.994 216.409 135.959C214.535 148.068 211.508 165.367 208.336 175.602C205.165 185.837 203.147 194.343 202.426 201.839C201.705 209.335 197.669 219.858 196.948 229.661C196.227 239.464 184.839 267.574 184.262 276.512C183.542 285.449 183.974 316.011 183.109 323.074C182.244 330.138 180.947 353.924 183.109 367.619C185.271 381.169 184.262 393.711 181.956 400.486C179.649 407.261 171 429.75 171 429.75H327.41V430.327Z" fill="#445272"/>
<path d="M327.41 430.327C329.284 428.02 337.356 419.659 346.15 410.865C354.943 402.072 372.963 371.078 378.297 364.88C383.631 358.681 397.758 343.4 401.218 335.76C404.677 328.12 400.929 303.613 401.218 295.973C401.506 288.333 405.11 251.861 402.659 242.347C400.209 232.832 396.316 228.94 393.145 222.309C389.973 215.678 389.397 213.66 386.514 211.641C383.631 209.623 385.36 192.324 385.937 189.874C386.514 187.423 388.532 176.323 388.532 172.431C388.532 168.539 388.532 157.439 391.559 149.222C394.586 141.005 392.568 116.354 387.379 108.57C382.189 100.785 378.008 98.9111 371.81 98.4786C365.611 98.0461 358.836 104.101 357.106 107.849C355.376 111.597 353.069 115.057 350.475 145.618C346.871 153.835 339.951 161.042 336.924 170.989C333.897 180.936 325.824 206.019 323.95 216.398C322.076 226.778 311.408 240.905 315.733 233.265C320.058 225.769 319.625 207.317 327.698 182.81C335.771 158.303 334.762 159.889 334.762 158.592C334.762 157.294 339.519 152.826 341.104 142.158C344.132 137.257 350.042 112.894 339.086 105.831C338.942 100.785 335.627 97.3254 326.545 95.8838C317.463 94.4422 314.147 96.7487 312.129 102.371C308.813 103.236 303.768 115.489 302.903 125.58C300.452 127.022 288.632 138.987 286.325 143.455C284.019 147.924 277.532 170.413 276.234 176.179C274.937 181.945 266.576 217.984 264.269 221.3C261.963 224.615 260.954 226.922 262.828 219.858C264.702 212.795 273.351 170.268 277.099 162.628C280.847 154.988 281.28 148.645 291.659 133.797C302.038 118.949 300.597 111.741 298.723 106.984C296.848 102.227 295.407 98.1903 286.613 96.7487C277.82 95.3072 272.774 102.659 272.774 102.659C272.774 102.659 267.441 104.245 254.611 118.084C251.872 112.75 248.124 108.714 248.124 108.714C248.124 108.714 245.385 102.947 237.6 101.794C229.816 100.641 226.644 109.002 226.212 112.029C223.617 112.029 218.283 123.994 216.409 135.959C214.535 148.068 211.508 165.367 208.336 175.602C205.165 185.837 203.147 194.343 202.426 201.839C201.705 209.335 197.669 219.858 196.948 229.661C196.227 239.464 184.839 267.574 184.262 276.512C183.542 285.449 183.974 316.011 183.109 323.074C182.244 330.138 180.947 353.924 183.109 367.619C185.271 381.169 184.262 393.711 181.956 400.486C179.649 407.261 171 429.75 171 429.75" stroke="#697695" stroke-width="2" stroke-miterlimit="10"/>
<path d="M212.805 225.912C216.841 221.588 220.157 214.957 220.445 208.037C220.733 201.118 220.012 165.223 229.094 151.528C238.176 137.833 254.754 118.66 254.754 118.66" stroke="#697695" stroke-width="2" stroke-miterlimit="10"/>
<path d="M373.826 309.957C371.808 306.208 369.357 303.758 369.357 300.875C369.357 297.992 370.943 264.98 372.673 253.159C374.259 241.338 382.331 207.173 385.07 200.109" stroke="#697695" stroke-width="2" stroke-miterlimit="10"/>
<path opacity="0.33" d="M560.694 429.43C559.257 426.268 556.814 421.526 553.076 416.638C549.052 411.465 545.459 408.59 542.441 405.86C538.561 402.267 534.106 396.518 525.483 385.021C502.057 353.834 503.638 352.541 497.027 347.223C495.015 345.642 490.56 342.337 487.254 336.443C484.811 331.988 483.661 327.677 482.943 324.227C481.649 318.766 482.08 317.185 481.218 311.293C481.074 309.856 479.781 302.095 476.763 293.328C473.745 284.993 471.876 283.843 469.145 275.651C467.276 270.333 466.27 265.735 465.839 262.716C464.833 261.136 463.54 258.98 462.677 256.249C462.246 254.956 462.103 253.806 461.959 252.655C461.24 251.074 460.234 248.775 459.803 245.901C459.228 242.595 459.516 239.721 459.803 237.852L459.659 214.57C458.222 210.115 456.929 206.522 455.923 204.079C453.192 197.037 451.324 193.3 449.599 186.833C449.024 184.533 448.593 182.521 448.449 181.372C449.312 180.94 450.318 180.509 451.18 179.934C452.905 178.497 455.635 176.629 459.372 175.767C466.127 174.329 471.589 177.204 475.9 179.503C478.056 180.653 487.541 185.971 495.158 198.043C500.045 205.804 502.201 213.133 505.794 225.636C506.943 229.661 507.806 233.11 508.38 235.409C510.392 237.565 512.979 240.727 515.279 245.038C517.722 249.637 516.572 247.625 519.447 256.824C513.411 235.409 505.506 215.72 498.608 195.312C497.745 189.42 496.596 181.659 495.015 172.461C494.727 170.879 494.44 169.011 494.009 166.568C491.709 152.771 490.416 147.166 489.697 142.998C488.835 137.824 487.973 127.62 490.272 116.411C490.847 113.967 491.566 111.093 493.865 108.362C494.296 107.788 499.039 102.326 506.081 102.47C510.105 102.614 512.692 104.482 517.435 107.788C519.734 109.368 521.89 110.949 523.758 113.536C526.345 116.985 526.92 120.578 527.495 123.022C527.495 123.022 529.938 134.663 533.243 145.01C535.399 152.052 537.986 157.226 539.998 161.107C543.304 167.717 544.741 169.442 548.19 175.91C550.777 180.797 552.215 183.959 557.389 196.174C562.275 207.672 566.299 217.301 569.317 224.487C570.323 224.056 571.761 223.193 573.054 221.469C575.21 218.738 575.21 215.576 575.21 213.564C575.497 195.887 577.078 194.45 575.21 188.414C574.779 186.977 573.916 184.533 572.91 180.509C572.192 177.635 571.617 175.192 571.329 173.611C568.168 171.598 565.725 169.73 563.856 168.292C556.814 162.831 555.521 160.388 554.946 159.238C554.371 157.801 553.796 155.933 553.796 152.483C553.796 146.591 553.651 136.818 560.694 129.058C565.725 123.596 571.761 121.728 576.36 120.435C582.396 118.71 587.57 118.566 591.019 118.71C590.588 116.842 590.156 113.967 590.444 110.662C590.588 109.081 590.875 106.925 591.881 104.626C594.324 99.3078 599.354 97.1521 599.929 97.0083C606.253 94.4214 612.145 97.152 614.301 98.3018C617.175 99.5952 619.187 101.464 620.624 102.901C621.343 103.62 622.205 104.195 623.211 104.626C625.367 105.488 629.104 106.925 630.397 107.644C631.547 106.35 633.272 104.769 634.852 103.476C635.284 103.045 635.716 102.757 636.147 102.47C636.434 101.464 637.009 99.1641 639.021 97.2958C642.758 93.9903 647.932 95.14 648.794 95.4274C653.537 96.5772 655.98 100.314 656.555 101.176C657.561 102.901 658.71 104.769 659.716 106.494C661.585 109.512 664.172 113.824 666.902 119.141C667.765 120.866 669.345 124.028 671.789 129.776C675.669 138.687 675.813 140.268 679.118 148.028C683.717 159.238 684.867 159.669 688.604 169.442C689.897 172.749 691.478 177.204 693.202 183.096C693.921 185.539 695.071 190.138 697.083 201.923C699.67 216.726 698.951 216.151 700.532 223.768C701.826 229.661 702.113 229.229 706.281 244.032C709.443 255.531 711.167 261.279 711.742 266.022C712.748 273.064 712.604 278.525 712.461 286.43C712.317 295.34 711.742 296.921 711.311 307.412C711.023 316.035 711.311 316.467 711.167 327.245C711.023 342.624 710.017 354.553 709.874 357.427C708.724 372.23 708.005 370.936 707.431 382.29C707.431 382.29 706.856 394.506 708.293 409.884C708.58 412.039 708.868 414.914 709.73 418.507C711.023 423.538 712.892 427.418 714.185 430.149C663.022 429.574 611.858 429.43 560.694 429.43Z" fill="#445272"/>
<path d="M560.694 429.43C559.257 426.268 556.814 421.524 553.076 416.638C549.052 411.464 545.459 408.59 542.441 405.859C538.561 402.266 534.106 396.518 525.483 385.02C502.057 353.834 503.638 352.54 497.027 347.223C495.015 345.642 490.56 342.335 487.254 336.443C484.811 331.988 483.661 327.676 482.943 324.227C481.649 318.766 482.08 317.185 481.218 311.292C481.074 309.855 479.781 302.095 476.763 293.328C473.745 284.992 471.876 283.843 469.145 275.651C467.276 270.333 466.27 265.734 465.839 262.716C464.833 261.135 463.54 258.978 462.677 256.248C462.246 254.954 462.103 253.805 461.959 252.655C461.24 251.074 460.234 248.775 459.803 245.9C459.228 242.595 459.516 239.72 459.803 237.852L459.659 214.57C458.222 210.115 456.929 206.522 455.923 204.079C453.192 197.036 451.324 193.3 449.599 186.833C449.024 184.533 448.593 182.521 448.449 181.371C449.312 180.94 450.318 180.509 451.18 179.934C452.905 178.497 455.635 176.628 459.372 175.765C466.127 174.328 471.589 177.202 475.9 179.503C478.056 180.653 487.541 185.97 495.158 198.042C500.045 205.803 502.201 213.133 505.794 225.636C506.943 229.66 507.806 233.109 508.38 235.409C510.393 237.565 512.979 240.726 515.279 245.038C517.722 249.637 516.572 247.625 519.447 256.823C513.411 235.409 505.506 215.72 498.608 195.312C497.745 189.419 496.596 181.659 495.015 172.46C494.727 170.879 494.44 169.011 494.009 166.567C491.709 152.771 490.416 147.166 489.697 142.998C488.835 137.824 487.973 127.62 490.272 116.41C490.847 113.967 491.566 111.093 493.865 108.362C494.296 107.787 499.039 102.326 506.081 102.47C510.105 102.613 512.692 104.482 517.435 107.787C519.734 109.368 521.89 110.949 523.758 113.536C526.345 116.985 526.92 120.578 527.495 123.021C527.495 123.021 529.938 134.662 533.244 145.01C535.399 152.052 537.986 157.226 539.998 161.106C543.304 167.717 544.741 169.442 548.19 175.909C550.777 180.796 552.215 183.958 557.389 196.174C562.275 207.671 566.299 217.301 569.317 224.486C570.036 224.199 571.042 223.624 571.904 222.762" stroke="#697695" stroke-width="2" stroke-miterlimit="10"/>
<path d="M590.731 118.71C590.3 116.842 589.868 113.967 590.156 110.662C590.3 109.081 590.587 106.925 591.593 104.626C594.036 99.3078 599.066 97.1521 599.641 97.0083C605.965 94.4214 611.857 97.152 614.013 98.3018C616.887 99.5952 618.899 101.464 620.336 102.901C621.055 103.62 621.917 104.195 622.923 104.626C625.079 105.488 628.816 106.925 630.109 107.644C631.259 106.35 632.984 104.769 634.564 103.476C634.996 103.045 635.427 102.757 635.858 102.47C636.145 101.464 636.72 99.1641 638.732 97.2958C642.469 93.9903 647.644 95.14 648.506 95.4274C653.249 96.5772 655.692 100.314 656.267 101.176C657.273 102.901 658.422 104.769 659.428 106.494C661.297 109.512 663.884 113.824 666.614 119.141C667.477 120.866 669.058 124.028 671.501 129.776C675.381 138.687 675.525 140.268 678.83 148.028C683.429 159.238 684.579 159.669 688.316 169.442C689.609 172.749 691.19 177.204 692.915 183.096C693.633 185.539 694.783 190.138 696.795 201.923C699.382 216.726 698.663 216.151 700.244 223.768C701.538 229.661 701.825 229.229 705.993 244.032C709.155 255.531 710.879 261.279 711.454 266.022C712.46 273.064 712.316 278.525 712.173 286.43C712.029 295.34 711.454 296.921 711.023 307.412C710.735 316.035 711.023 316.467 710.879 327.245C710.735 342.624 709.729 354.553 709.586 357.427C708.436 372.23 707.717 370.936 707.142 382.29C707.142 382.29 706.568 394.506 708.005 409.884C708.292 412.039 708.58 414.914 709.442 418.507C710.735 423.538 712.604 427.418 713.897 430.149" stroke="#697695" stroke-width="2" stroke-miterlimit="10"/>
<path d="M518.871 309.424C520.165 305.544 521.602 301.663 523.183 297.639C523.901 295.915 524.476 294.19 525.195 292.609C524.62 288.441 523.901 284.13 523.183 279.818C521.889 272.344 520.021 262.715 518.584 255.529" stroke="#697695" stroke-width="2" stroke-miterlimit="10"/>
<path d="M640.028 216.726C638.447 208.822 636.866 200.342 635.572 191.575C634.854 186.689 633.704 178.928 632.554 163.838C631.405 150.903 627.811 138.543 625.08 133.944C623.212 130.782 620.337 129.345 616.601 127.62C605.966 122.734 596.337 119.572 590.875 118.71C587.426 118.566 582.109 118.566 576.216 120.435C571.761 121.728 565.581 123.596 560.551 129.058C553.509 136.818 552.934 145.154 552.934 150.903C552.934 154.353 554.084 157.802 554.659 159.239C555.234 160.533 556.383 162.832 563.569 168.293C565.438 169.73 567.881 171.599 571.043 173.611C571.33 175.192 571.905 177.635 572.623 180.509C573.629 184.533 574.492 186.977 574.923 188.414C576.791 194.45 575.21 195.887 574.923 213.564C574.923 215.576 574.923 218.738 572.767 221.469C572.48 221.9 572.049 222.331 571.617 222.618" stroke="#BA6DCD" stroke-width="3" stroke-miterlimit="10" stroke-linecap="round"/>
<path d="M560.551 150.902C561.413 154.495 562.85 156.65 564 158.088C565.437 159.812 566.587 160.387 567.88 162.83C568.743 164.412 569.174 166.137 569.317 166.855C569.749 168.292 570.755 172.748 570.898 173.754" stroke="#BA6DCD" stroke-width="3" stroke-miterlimit="10" stroke-linecap="round"/>
<path d="M679.117 218.165C678.83 196.175 677.393 184.247 676.099 177.492C675.812 176.342 674.375 168.869 672.219 157.803C671.788 155.934 671.5 154.21 671.213 152.629C670.782 150.473 669.92 148.461 668.77 146.736C665.177 141.563 657.847 131.79 654.829 128.484C651.524 124.891 646.35 120.149 639.02 115.55C637.296 113.969 632.697 109.082 630.396 107.357" stroke="#697695" stroke-width="2" stroke-miterlimit="10"/>
<g opacity="0.5">
<path d="M463.396 209.829C465.121 207.673 466.414 205.23 466.127 202.643C465.983 201.493 465.408 200.2 464.977 198.906L463.684 195.026C462.821 192.439 461.959 189.852 460.953 187.409C460.522 186.115 460.091 184.822 459.372 183.672C458.797 182.523 457.791 181.516 456.354 181.516C457.791 181.085 459.229 182.091 459.947 183.241C460.809 184.391 461.241 185.684 461.959 186.978C463.109 189.421 464.115 192.008 464.977 194.595L466.271 198.475C466.558 199.769 467.133 201.062 467.277 202.499C467.42 203.936 466.846 205.517 466.127 206.667C465.408 207.96 464.402 208.966 463.396 209.829Z" fill="#B1BBD0"/>
</g>
</svg>
