<svg width="900" height="500" viewBox="0 0 900 500" fill="none" xmlns="http://www.w3.org/2000/svg">
<path opacity="0.33" d="M327.41 430.327C329.284 428.02 337.356 419.659 346.15 410.865C354.943 402.072 372.963 371.078 378.297 364.88C383.631 358.681 397.758 343.4 401.218 335.76C404.677 328.12 400.929 303.613 401.218 295.973C401.506 288.333 405.11 251.861 402.659 242.347C400.209 232.832 396.316 228.94 393.145 222.309C389.973 215.678 389.397 213.66 386.514 211.641C383.631 209.623 385.36 192.324 385.937 189.874C386.514 187.423 388.532 176.323 388.532 172.431C388.532 168.539 388.532 157.439 391.559 149.222C394.586 141.005 392.568 116.354 387.379 108.57C382.189 100.785 378.008 98.9111 371.81 98.4786C365.611 98.0461 358.836 104.101 357.106 107.849C355.376 111.597 353.069 115.057 350.475 145.618C346.871 153.835 339.951 161.042 336.924 170.989C333.897 180.936 325.824 206.019 323.95 216.398C322.076 226.778 311.408 240.905 315.733 233.265C320.058 225.769 319.625 207.317 327.698 182.81C335.771 158.303 334.762 159.889 334.762 158.592C334.762 157.294 339.519 152.826 341.104 142.158C344.132 137.257 350.042 112.894 339.086 105.831C338.942 100.785 335.627 97.3254 326.545 95.8838C317.463 94.4422 314.147 96.7487 312.129 102.371C308.813 103.236 303.768 115.489 302.903 125.58C300.452 127.022 288.632 138.987 286.325 143.455C284.019 147.924 277.532 170.413 276.234 176.179C274.937 181.945 266.576 217.984 264.269 221.3C261.963 224.615 260.954 226.922 262.828 219.858C264.702 212.795 273.351 170.268 277.099 162.628C280.847 154.988 281.28 148.645 291.659 133.797C302.038 118.949 300.597 111.741 298.723 106.984C296.848 102.227 295.407 98.1903 286.613 96.7487C277.82 95.3072 272.774 102.659 272.774 102.659C272.774 102.659 267.441 104.245 254.611 118.084C251.872 112.75 248.124 108.714 248.124 108.714C248.124 108.714 245.385 102.947 237.6 101.794C229.816 100.641 226.644 109.002 226.212 112.029C223.617 112.029 218.283 123.994 216.409 135.959C214.535 148.068 211.508 165.367 208.336 175.602C205.165 185.837 203.147 194.343 202.426 201.839C201.705 209.335 197.669 219.858 196.948 229.661C196.227 239.464 184.839 267.574 184.262 276.512C183.542 285.449 183.974 316.011 183.109 323.074C182.244 330.138 180.947 353.924 183.109 367.619C185.271 381.169 184.262 393.711 181.956 400.486C179.649 407.261 171 429.75 171 429.75H327.41V430.327Z" fill="#E0E1E2"/>
<path d="M327.41 430.327C329.284 428.02 337.356 419.659 346.15 410.865C354.943 402.072 372.963 371.078 378.297 364.88C383.631 358.681 397.758 343.4 401.218 335.76C404.677 328.12 400.929 303.613 401.218 295.973C401.506 288.333 405.11 251.861 402.659 242.347C400.209 232.832 396.316 228.94 393.145 222.309C389.973 215.678 389.397 213.66 386.514 211.641C383.631 209.623 385.36 192.324 385.937 189.874C386.514 187.423 388.532 176.323 388.532 172.431C388.532 168.539 388.532 157.439 391.559 149.222C394.586 141.005 392.568 116.354 387.379 108.57C382.189 100.785 378.008 98.9111 371.81 98.4786C365.611 98.0461 358.836 104.101 357.106 107.849C355.376 111.597 353.069 115.057 350.475 145.618C346.871 153.835 339.951 161.042 336.924 170.989C333.897 180.936 325.824 206.019 323.95 216.398C322.076 226.778 311.408 240.905 315.733 233.265C320.058 225.769 319.625 207.317 327.698 182.81C335.771 158.303 334.762 159.889 334.762 158.592C334.762 157.294 339.519 152.826 341.104 142.158C344.132 137.257 350.042 112.894 339.086 105.831C338.942 100.785 335.627 97.3254 326.545 95.8838C317.463 94.4422 314.147 96.7487 312.129 102.371C308.813 103.236 303.768 115.489 302.903 125.58C300.452 127.022 288.632 138.987 286.325 143.455C284.019 147.924 277.532 170.413 276.234 176.179C274.937 181.945 266.576 217.984 264.269 221.3C261.963 224.615 260.954 226.922 262.828 219.858C264.702 212.795 273.351 170.268 277.099 162.628C280.847 154.988 281.28 148.645 291.659 133.797C302.038 118.949 300.597 111.741 298.723 106.984C296.848 102.227 295.407 98.1903 286.613 96.7487C277.82 95.3072 272.774 102.659 272.774 102.659C272.774 102.659 267.441 104.245 254.611 118.084C251.872 112.75 248.124 108.714 248.124 108.714C248.124 108.714 245.385 102.947 237.6 101.794C229.816 100.641 226.644 109.002 226.212 112.029C223.617 112.029 218.283 123.994 216.409 135.959C214.535 148.068 211.508 165.367 208.336 175.602C205.165 185.837 203.147 194.343 202.426 201.839C201.705 209.335 197.669 219.858 196.948 229.661C196.227 239.464 184.839 267.574 184.262 276.512C183.542 285.449 183.974 316.011 183.109 323.074C182.244 330.138 180.947 353.924 183.109 367.619C185.271 381.169 184.262 393.711 181.956 400.486C179.649 407.261 171 429.75 171 429.75" stroke="#75819C" stroke-width="2" stroke-miterlimit="10"/>
<path d="M212.805 225.912C216.841 221.588 220.157 214.957 220.445 208.037C220.733 201.118 220.012 165.223 229.094 151.528C238.176 137.833 254.754 118.66 254.754 118.66" stroke="#75819C" stroke-width="2" stroke-miterlimit="10"/>
<path d="M373.827 309.957C371.809 306.208 369.358 303.758 369.358 300.875C369.358 297.992 370.944 264.98 372.674 253.159C374.26 241.338 382.332 207.173 385.071 200.109" stroke="#75819C" stroke-width="2" stroke-miterlimit="10"/>
<path opacity="0.33" d="M674.328 434.909C671.712 430.26 666.045 419.797 658.925 408.754C655.438 403.232 651.37 397.42 645.412 391.317C645.267 391.172 644.976 390.881 644.831 390.736C639.164 385.069 634.223 381.727 628.411 377.949C624.342 375.188 612.573 367.632 595.136 360.658C589.759 358.478 583.947 356.589 572.177 352.811C561.134 349.324 558.518 348.742 550.963 346.272C550.963 346.272 545.441 343.947 524.953 336.391C522.337 335.374 517.251 326.656 514.781 322.006C512.166 316.92 511.439 313.869 508.969 307.039C505.627 297.449 502.43 290.329 499.669 283.936C497.78 279.722 494.293 272.456 487.463 258.216C485.72 254.584 483.976 250.806 482.378 245.284C481.215 241.07 480.634 237.583 479.762 232.497C478.89 227.266 478.309 222.761 478.018 219.419C477.437 218.402 476.565 216.804 475.403 214.915C471.625 208.812 469.009 206.342 465.813 201.547C464.214 199.367 462.18 195.88 460 191.52C461.163 189.777 463.197 187.307 466.394 185.272C473.805 180.477 481.796 181.494 484.557 181.93C491.387 182.802 495.746 185.708 501.994 189.922C509.695 195.008 514.345 200.384 515.944 202.128C519.431 206.196 523.209 210.846 525.243 217.966C526.26 221.599 526.551 224.65 526.696 226.83C530.329 230.608 532.654 234.095 534.252 236.711C539.338 245.284 540.646 253.131 541.082 256.182C541.808 261.994 541.808 265.191 541.808 265.191C541.808 265.191 541.953 252.84 536.432 239.762C535.56 237.873 534.252 234.677 532.363 230.463C521.756 207.214 506.789 187.742 505.481 185.853C504.174 183.964 499.379 177.571 494.438 168.853C493.857 167.835 491.096 162.895 488.626 156.066C486.592 150.253 486.446 147.783 486.446 146.475C486.446 143.715 487.173 139.21 487.173 139.21C487.028 137.612 486.737 135.432 486.446 132.816C486.156 128.893 485.72 124.243 485.865 118.867C486.01 113.927 486.01 111.456 486.592 109.567C487.173 107.824 489.788 100.122 497.49 96.9254C503.738 94.4552 509.259 96.4895 511.439 97.216C518.559 99.6867 522.337 105.208 523.645 107.097C526.987 112.183 527.859 117.414 528.149 120.175C528.44 121.918 528.44 123.226 528.44 124.243C530.184 125.842 532.654 128.312 535.415 131.654C537.449 134.124 538.466 135.577 542.971 141.68C546.603 146.766 548.492 149.236 550.236 151.561C552.416 154.467 555.467 158.536 559.536 163.476C560.117 162.75 560.698 162.023 561.279 161.297C560.698 159.117 559.826 156.066 558.373 152.288C556.048 146.185 553.287 141.826 549.364 135.577C547.911 133.252 545.877 129.91 543.261 126.278C542.389 124.825 541.518 123.226 540.5 121.773C539.047 121.047 537.013 119.739 534.979 117.85C532.073 115.089 530.62 112.328 530.184 111.602C529.021 109.277 528.585 106.807 527.568 101.866C527.423 100.994 526.842 97.7977 526.26 93.2928C525.679 88.7882 525.534 86.6086 525.679 85.0103C525.97 83.4119 526.696 79.3433 529.748 75.7106C530.765 74.4029 531.927 73.6763 534.252 72.078C536.287 70.6249 537.449 69.8984 541.082 67.8641C547.766 63.9408 547.185 64.0861 547.766 63.7955C552.851 61.7612 557.647 62.633 559.536 63.0689C564.912 64.0861 568.399 66.8469 571.596 69.3171C575.229 72.078 577.699 74.9841 579.152 77.0184C579.443 75.5653 580.024 73.6763 580.896 71.3514C581.913 68.8812 582.93 66.5563 584.819 64.2314C586.708 62.0518 588.597 61.1799 591.939 59.4363C594.99 57.9832 599.35 55.8036 605.453 55.3677C607.923 55.2224 610.248 55.0771 613.299 55.9489C617.222 57.1114 619.693 59.291 621.146 60.5987C622.744 62.1971 625.069 64.6673 627.684 68.0094C631.753 73.2404 634.078 77.7449 635.386 80.2151C639.454 88.0617 645.557 104.191 652.823 125.406C652.968 125.987 642.506 98.2327 635.095 74.4029C634.95 73.6763 634.514 71.2061 633.351 68.0094C632.189 64.8126 630.736 62.633 630.009 61.4706C630.009 61.4706 625.941 54.7865 623.471 46.6493C621.872 41.4182 620.419 36.4778 621.872 30.5202C623.325 24.7079 626.813 20.7847 628.411 19.041C630.445 16.8614 631.898 15.263 634.514 14.3912C639.745 12.7928 644.831 16.5708 645.703 17.152C646.865 18.0238 647.737 19.1863 649.481 21.2206C652.532 24.9986 654.421 28.1953 655.293 29.6484C657.182 32.9904 658.635 36.0419 661.832 43.3072C663.575 47.2305 664.883 50.5725 666.772 55.0771C674.037 72.5139 673.892 72.8045 675.636 75.7106C676.943 77.8902 678.397 80.2151 680.14 84.2837C681.303 87.0446 681.448 87.9164 682.901 92.2756C685.081 98.6687 685.807 99.3957 687.26 103.9C689.004 108.986 689.149 111.02 690.312 116.106C692.346 124.389 694.816 130.201 697.722 136.74C701.936 146.621 702.082 144.441 707.022 155.484C710.8 164.057 713.851 172.485 715.595 177.135C716.903 180.622 717.92 183.529 718.501 185.708C719.954 187.742 721.989 190.794 724.314 194.427C729.254 202.273 733.468 210.41 737.972 220.582C740.733 226.83 741.169 228.428 748.58 248.481C754.247 263.738 757.443 272.311 761.076 281.756C764.709 290.91 767.47 297.449 772.41 309.51C777.496 321.57 780.257 328.109 795.659 364.581C795.804 365.017 799.292 373.299 799.582 373.735C802.925 378.821 805.395 383.325 807.284 386.522C811.643 394.078 814.258 398.873 817.019 405.557C818.618 409.481 818.618 410.207 820.361 415.293C823.267 423.43 826.174 429.824 828.063 433.892C776.915 434.619 725.621 434.764 674.328 434.909Z" fill="#E0E1E2"/>
<path d="M698.013 137.176C702.227 147.057 702.372 144.877 707.313 155.921C711.091 164.494 714.142 172.921 715.886 177.571C717.194 181.059 718.211 183.965 718.792 186.144C720.245 188.179 722.279 191.23 724.604 194.863C729.545 202.709 733.759 210.847 738.263 221.018C741.024 227.266 741.46 228.865 748.871 248.917C754.537 264.174 757.734 272.747 761.367 282.192C765 291.347 767.76 297.885 772.701 309.946C777.787 322.006 780.547 328.545 795.95 365.017C796.095 365.453 799.583 373.735 799.873 374.171C803.215 379.257 805.686 383.762 807.575 386.958C811.934 394.514 814.549 399.309 817.31 405.994C818.908 409.917 818.908 410.643 820.652 415.729C823.558 423.866 826.464 430.26 828.353 434.328" stroke="#75819C" stroke-width="2" stroke-miterlimit="10"/>
<path d="M638.291 84.8647C638.146 84.1381 634.658 71.6418 633.496 68.445L631.898 64.9576C631.171 63.6499 630.59 62.6327 630.154 61.9062C630.154 61.9062 626.085 55.2221 623.615 47.0849C622.017 41.8539 620.564 36.9134 622.017 30.9559C623.47 25.1436 626.957 21.2203 628.555 19.4766C630.59 17.297 632.043 15.6986 634.658 14.8268C639.889 13.2284 644.975 17.0064 645.847 17.5876C647.009 18.4595 647.881 19.6219 649.625 21.6562C652.676 25.4342 654.565 28.6309 655.437 30.084C657.326 33.4261 658.779 36.4775 661.976 43.7429C663.72 47.6661 665.027 51.0082 666.916 55.5127C674.182 72.9495 674.037 73.2401 675.78 76.1463C677.088 78.3259 678.541 80.6508 680.285 84.7194C681.447 87.4802 681.592 88.352 683.046 92.7112C685.225 99.1048 685.952 99.8308 687.405 104.336C689.148 109.422 689.294 111.456 690.456 116.542C692.49 124.824 694.961 130.637 697.867 137.175" stroke="#F69AED" stroke-width="3" stroke-miterlimit="10" stroke-linecap="round"/>
<path d="M674.328 434.91C671.712 430.26 666.045 419.798 658.925 408.754C655.438 403.233 651.369 397.42 645.412 391.318C645.267 391.172 644.976 390.882 644.831 390.736C639.164 385.069 634.223 381.727 628.411 377.949C624.342 375.189 612.573 367.633 595.136 360.658C589.759 358.478 583.947 356.589 572.177 352.811C561.134 349.324 558.518 348.743 550.963 346.272C550.963 346.272 545.441 343.948 524.953 336.392C522.337 335.374 517.251 326.656 514.781 322.006C512.166 316.92 511.439 313.869 508.969 307.04C505.627 297.449 502.43 290.329 499.669 283.936C497.78 279.722 495.601 275.217 488.771 260.977C487.028 257.345 483.54 249.208 481.942 243.686C480.779 239.472 480.634 237.728 479.762 232.643C478.89 227.412 478.309 222.907 478.018 219.565C477.437 218.548 476.565 216.949 475.403 215.06C471.625 208.958 469.009 206.487 465.813 201.692C464.214 199.513 462.18 196.025 460 191.666C461.163 189.922 463.197 187.452 466.394 185.418C473.805 180.623 481.796 181.64 484.557 182.076C491.387 182.948 495.746 185.854 501.994 190.068C509.695 195.153 514.345 200.53 515.944 202.273C519.431 206.342 522.628 210.701 524.662 217.821C525.679 221.454 525.97 224.941 526.115 227.121C529.748 230.899 532.654 234.386 534.252 237.002C539.338 245.575 540.646 253.421 541.082 256.473C541.808 262.285 541.372 266.208 541.372 266.208C541.372 266.208 541.953 253.131 536.432 240.053C535.56 238.164 534.252 234.967 532.363 230.754C521.756 207.504 506.789 188.033 505.481 186.144C504.174 184.255 499.379 177.862 494.438 169.143C493.857 168.126 491.096 163.186 488.626 156.356C486.592 150.544 486.446 148.074 486.446 146.766C486.446 144.005 487.173 139.501 487.173 139.501C487.028 137.903 486.737 135.723 486.446 133.107C486.156 129.184 485.72 124.534 485.865 119.158C486.01 114.218 486.01 111.747 486.592 109.858C487.173 108.115 489.788 100.413 497.49 97.2164C503.738 94.7462 509.259 96.7805 511.439 97.507C518.559 99.9768 522.337 105.499 523.645 107.388C526.987 112.474 527.859 117.705 528.149 120.466C528.44 122.209 528.44 123.517 528.44 124.534C530.184 126.133 532.654 128.603 535.415 131.945C537.449 134.415 538.466 135.868 542.971 141.971C546.603 147.057 548.492 149.527 550.236 151.852C552.416 154.758 555.467 158.827 559.536 163.767C560.117 163.041 560.698 162.314 561.279 161.588C560.698 159.408 559.826 156.357 558.373 152.579C556.048 146.476 553.287 142.116 549.364 135.868C547.911 133.543 545.877 130.201 543.261 126.569C542.389 125.116 541.518 123.517 540.5 122.064C539.047 121.338 537.013 120.03 534.979 118.141C532.073 115.38 530.62 112.619 530.184 111.893C529.021 109.568 528.585 107.098 527.568 102.157C527.423 101.285 526.842 98.0878 526.26 93.5838C525.679 89.0793 525.534 86.8997 525.679 85.3013C525.97 83.7029 526.696 79.6343 529.748 76.0017C530.765 74.6939 531.927 73.9674 534.252 72.369C536.287 70.9159 537.449 70.1894 541.082 68.1551C547.766 64.2318 547.185 64.3771 547.766 64.0865C552.851 62.0522 557.647 62.924 559.536 63.36C564.912 64.3771 568.399 67.1379 571.596 69.6082C575.229 72.369 577.699 75.2751 579.152 77.3094C579.443 75.8563 580.024 73.9674 580.896 71.6425C581.913 69.1722 582.93 66.8473 584.819 64.5224C586.708 62.3428 588.597 61.471 591.939 59.7273C594.99 58.2742 599.35 56.0946 605.453 55.6587C607.923 55.5134 610.248 55.3681 613.299 56.2399C617.222 57.4024 619.693 59.582 621.146 60.8897C622.744 62.4881 625.069 64.9583 627.684 68.3004C631.753 73.5314 634.078 78.0359 635.386 80.5062C639.454 88.3527 645.557 104.482 652.823 125.697" stroke="#75819C" stroke-width="2" stroke-miterlimit="10"/>
<path d="M611.409 131.653C604.289 120.028 597.024 108.113 589.904 96.1977C586.417 90.3854 582.784 83.2654 579.442 77.4531" stroke="#75819C" stroke-width="2" stroke-miterlimit="10"/>
<g opacity="0.5">
<path d="M629.282 25.2884C630.299 26.5962 631.316 28.0493 632.333 29.357L635.239 33.4256C635.53 33.7162 635.675 34.0069 636.111 34.1522C636.402 34.2975 636.692 34.4428 637.128 34.5881C637.855 34.8787 638.727 35.024 639.453 35.024C641.052 35.3146 642.795 35.3146 644.394 35.3146C644.83 35.3146 645.265 35.3146 645.556 35.1693C645.992 35.1693 646.283 35.024 646.719 34.8787C647.445 34.5881 648.172 34.2975 648.898 33.8615C649.479 33.4256 650.061 32.9897 650.351 32.2632C650.642 31.6819 650.496 30.9554 650.206 30.2289C649.625 28.6305 648.898 27.1774 648.026 25.7244C647.154 24.2713 646.283 22.8182 645.411 21.3652C647.736 23.8354 649.77 26.5962 651.223 29.793C651.659 30.5195 651.95 31.682 651.514 32.6991C651.223 33.7162 650.496 34.4428 649.625 35.024C648.898 35.6052 648.026 35.8958 647.154 36.1865C646.718 36.3318 646.283 36.4771 645.847 36.6224C645.411 36.6224 644.975 36.7677 644.539 36.7677C642.795 36.7677 641.052 36.7677 639.308 36.4771C638.436 36.3318 637.564 36.1865 636.692 35.7505C636.256 35.6052 635.821 35.4599 635.385 35.024C634.949 34.7334 634.658 34.2975 634.367 34.0069C632.624 31.246 631.025 28.3399 629.282 25.2884Z" fill="#75819C"/>
</g>
<g opacity="0.5">
<path d="M469.154 188.469C472.205 191.956 474.821 195.734 477.436 199.658C478.017 200.675 478.744 201.692 479.18 202.709C479.616 203.871 480.052 205.034 480.052 206.196C480.197 208.667 479.471 210.992 478.163 212.881C479.035 210.701 479.325 208.376 479.035 206.196C478.744 204.017 477.582 202.128 476.274 200.239C473.658 196.606 471.333 192.683 469.154 188.469Z" fill="#75819C"/>
</g>
</svg>
