<svg width="850" height="500" viewBox="0 0 850 500" fill="none" xmlns="http://www.w3.org/2000/svg">
<path opacity="0.33" d="M685 445.626C677.999 430.878 673.082 417.172 671.146 386.781C669.209 356.39 672.933 354.007 671.146 330.022C669.358 306.037 667.57 311.251 669.358 293.225C670.997 275.199 661.164 251.81 661.015 243.02C660.866 234.231 661.611 204.138 658.93 189.985C656.248 175.832 649.991 166.745 645.522 142.462C641.053 118.179 624.07 102.387 613.194 105.963C602.319 109.538 600.531 120.86 601.872 125.032C597.105 115.646 593.977 110.134 590.997 106.559C588.018 102.983 579.377 98.812 579.377 98.812C579.377 98.812 565.969 95.9814 560.755 108.048C556.435 108.942 556.435 118.328 556.584 120.86C555.541 115.199 553.604 107.155 551.966 104.622C550.178 102.089 546.751 98.0671 541.984 95.9814C537.217 93.8958 525.001 94.6406 521.873 97.1732C518.744 99.7058 513.083 104.92 513.53 109.985C513.977 115.199 515.616 119.817 515.913 133.076C516.211 146.335 520.532 174.342 521.426 181.344C522.319 188.346 534.386 252.852 534.386 252.852C534.386 252.852 533.94 253.895 533.195 253.15C532.599 252.406 518.446 173.747 513.381 162.126C515.318 149.762 516.509 114.752 508.465 107.006C505.038 99.2589 484.182 93.1509 476.286 110.581C468.39 127.862 470.923 158.849 469.433 170.767C467.943 182.685 469.582 209.203 471.072 217.098C470.029 209.054 467.348 201.605 462.729 196.987C458.111 192.368 450.513 187.75 445.15 185.814C440.83 184.324 435.318 186.26 432.934 188.644C432.189 189.389 431.147 190.134 430.104 190.283C428.912 190.581 427.869 191.475 427.869 191.475C427.869 194.007 429.806 206.67 436.808 219.184C435.02 221.866 437.404 233.039 435.467 240.934C433.53 248.681 431.296 254.044 434.722 262.983C433.381 265.366 435.169 271.921 438.148 274.305C436.361 279.817 438.595 286.819 444.554 301.418C452.003 319.742 448.279 340.003 453.493 350.431C458.707 360.86 464.964 364.435 471.817 375.161C478.521 385.887 504.74 419.407 515.467 427.898C526.193 436.39 530.662 445.478 530.662 445.478H685V445.626Z" fill="#E0E1E2"/>
<path d="M685 445.627C677.999 430.878 673.082 417.173 671.146 386.782C669.209 356.391 672.933 354.007 671.146 330.022C669.358 306.037 667.57 311.251 669.358 293.225C670.997 275.199 661.164 251.81 661.015 243.021C660.866 234.231 661.611 204.138 658.93 189.985C656.248 175.833 652.226 165.404 645.522 142.462C638.073 116.839 624.07 102.388 613.194 105.963C602.319 109.539 600.531 120.861 601.872 125.032C597.105 115.647 593.977 110.135 590.997 106.559C588.762 103.878 582.654 99.2594 577.589 98.5145C573.865 97.9186 564.777 98.6635 560.755 107.9C556.882 109.241 556.435 118.179 556.584 120.712C555.541 115.051 553.604 107.006 551.966 104.474C550.178 101.941 546.751 97.9186 541.984 95.833C537.217 93.7473 525.001 94.4922 521.873 97.0248C518.744 99.5574 513.083 104.771 513.53 109.837C513.977 115.051 515.616 119.669 515.913 132.928C516.211 146.187 520.532 174.194 521.426 181.196C522.319 188.198 534.386 252.704 534.386 252.704C534.386 252.704 533.94 253.747 533.195 253.002C532.599 252.257 518.446 173.598 513.381 161.978C515.318 149.613 516.509 114.604 508.465 106.857C505.038 99.1104 484.182 93.0025 476.286 110.433C468.39 127.714 470.923 158.701 469.433 170.619C467.943 182.537 469.582 209.054 471.072 216.95C470.029 208.905 467.348 201.456 462.729 196.838C458.111 192.22 450.513 187.602 445.15 185.665C440.83 184.175 435.318 186.112 432.934 188.645C432.04 189.538 430.849 190.432 429.508 190.581C428.465 190.73 427.869 191.028 427.869 191.028C427.869 193.412 429.508 204.883 435.318 216.354C436.063 217.844 436.51 219.482 436.212 221.121C435.616 225.441 437.106 234.38 435.467 240.786C433.53 248.533 431.296 253.896 434.722 262.834C435.02 267.602 436.51 272.369 438.148 274.156C437.702 280.562 438.595 286.67 444.554 301.27C452.003 319.594 448.279 339.854 453.493 350.283C458.707 360.711 464.964 364.286 471.817 375.013C478.521 385.739 504.74 419.258 515.467 427.75C526.193 436.242 530.662 445.329 530.662 445.329" stroke="#808285" stroke-width="2" stroke-miterlimit="10"/>
<path d="M476.137 342.983C476.584 335.385 480.011 322.424 480.309 317.806C480.756 313.188 479.415 319.743 479.117 299.78C478.968 279.669 477.18 248.086 473.903 233.933C470.625 219.78 471.519 216.95 470.029 211.885" stroke="#808285" stroke-width="2" stroke-miterlimit="10"/>
<path d="M585.336 239.893C582.058 234.977 578.334 226.336 577.887 203.394C577.44 180.452 570.587 174.94 570.14 159.148C569.693 143.357 558.371 138.292 556.435 121.011" stroke="#808285" stroke-width="2" stroke-miterlimit="10"/>
<path d="M625.56 234.231C625.709 228.57 625.858 199.966 622.879 182.834C619.899 165.702 616.92 159.147 613.344 151.549C609.62 143.803 603.363 132.034 601.575 125.181" stroke="#808285" stroke-width="2" stroke-miterlimit="10"/>
<g opacity="0.5">
<path d="M436.213 192.371C437.554 192.669 438.745 193.414 439.937 194.308C440.98 195.351 441.725 196.542 442.172 197.883C442.917 200.565 443.662 203.097 444.109 205.928C444.556 208.609 445.002 211.44 444.705 214.27C444.705 215.015 444.407 215.76 444.258 216.356C443.96 217.101 443.513 217.697 442.917 218.144C441.725 219.187 440.235 219.336 438.894 218.889C440.235 219.038 441.576 218.591 442.47 217.548C443.364 216.654 443.513 215.313 443.513 213.973C443.513 211.291 443.066 208.609 442.619 206.077C442.172 203.395 441.576 200.714 440.98 198.181C440.533 195.798 438.745 193.563 436.213 192.371Z" fill="#AEB0B2"/>
</g>
<path opacity="0.33" d="M378.856 211.735C380.345 209.352 393.008 197.88 399.861 168.83C406.714 139.78 376.174 140.227 365.448 156.465C354.871 172.704 346.826 186.856 333.269 200.264C319.713 213.672 296.323 242.573 293.493 245.553C290.662 248.532 280.532 262.536 278.148 262.685C275.765 262.834 265.188 258.067 264.294 254.789C263.4 251.512 263.698 237.955 266.379 231.698C269.061 225.441 280.979 197.434 281.724 192.219C287.832 190.283 298.409 180.897 302.133 176.279C305.709 171.512 309.433 164.51 312.562 161.233C315.69 157.955 329.843 130.097 321.649 118.775C317.776 105.963 301.687 110.134 298.111 113.411C294.387 116.689 290.215 126.372 288.726 128.16C287.236 129.948 281.873 136.801 280.383 143.058C275.467 144.696 254.908 156.614 248.8 163.169C242.543 169.724 248.651 157.508 250.886 156.018C253.121 154.529 269.061 140.674 273.977 128.905C278.893 117.136 273.232 112.816 273.232 112.816C273.232 112.816 273.083 102.685 263.102 103.281C253.121 103.877 243.735 118.477 242.394 118.924C241.054 119.37 238.372 117.285 229.583 126.223C225.709 122.946 221.24 121.456 219.899 121.009C218.111 118.477 211.556 116.391 209.173 119.37C206.938 122.201 204.257 129.948 202.916 132.033C201.575 133.97 194.275 145.292 191.445 151.251C188.763 157.21 185.039 167.936 183.847 170.022C182.655 171.959 173.121 180.45 171.631 184.92C170.29 189.389 169.843 198.774 168.95 201.605C168.056 204.435 164.778 211.586 163.437 219.333C160.16 221.865 154.797 230.953 150.328 259.407C145.858 288.011 134.983 287.117 135.579 318.104C136.175 349.09 135.728 396.018 133.195 407.638C130.663 419.407 126.343 434.304 118 447.116H212.599H286.342C291.258 443.541 301.091 434.602 304.666 430.729C308.241 426.856 329.545 402.87 342.059 391.995C354.573 381.12 357.552 376.353 359.34 370.841C361.128 365.329 364.852 339.258 372.45 319.444C380.197 299.631 383.176 290.096 381.984 286.521C383.772 283.243 383.474 267.601 384.517 263.728C385.56 259.854 387.198 255.087 386.9 253.15C387.794 251.065 398.074 228.569 396.882 221.866C395.69 215.162 377.515 215.906 374.684 218.29C377.515 215.906 377.366 214.268 378.856 211.735ZM325.076 311.549C323.735 311.996 318.521 318.699 315.69 322.275L311.519 320.934C315.541 303.653 327.161 284.137 336.398 278.923C329.396 289.351 326.416 311.102 325.076 311.549Z" fill="#E0E1E2"/>
<path d="M286.343 447.116C291.259 443.541 301.091 434.602 304.666 430.729C308.242 426.856 329.545 402.87 342.059 391.995C354.573 381.12 357.553 376.353 359.34 370.841C361.128 365.329 364.853 339.258 372.45 319.444C380.197 299.631 383.176 290.096 381.985 286.521C383.772 283.243 383.474 267.601 384.517 263.728C385.56 259.854 387.199 255.236 386.901 253.15C387.795 251.065 398.074 228.569 396.882 221.866C395.69 215.162 377.515 215.906 374.685 218.29C377.366 215.906 377.217 214.268 378.856 211.735C380.346 209.203 393.009 197.88 399.862 168.83C406.715 139.78 376.175 140.227 365.448 156.465C354.871 172.704 346.678 186.856 333.27 200.264C319.713 213.672 296.324 242.573 293.493 245.553C290.663 248.532 280.532 262.536 278.149 262.685C275.765 262.834 265.188 258.067 264.294 254.789C263.4 251.512 263.698 237.955 266.38 231.698C269.061 225.441 280.979 197.434 281.724 192.219C287.832 190.283 298.41 180.897 302.134 176.279C305.858 171.661 309.434 164.51 312.562 161.233C315.691 157.955 329.843 130.097 321.65 118.775C317.627 105.963 301.687 110.134 298.112 113.411C294.536 116.689 290.216 126.372 288.726 128.16C287.236 129.948 281.873 136.801 280.384 143.058C275.467 144.696 255.058 156.614 248.801 163.169C242.544 169.724 248.652 157.508 250.886 156.018C253.121 154.529 269.061 140.674 273.978 128.905C278.894 117.136 273.233 112.816 273.233 112.816C273.233 112.816 273.084 102.685 263.102 103.281C253.121 103.877 243.736 118.477 242.395 118.924C241.054 119.37 238.372 117.285 229.583 126.223C225.71 122.946 221.24 121.456 219.9 121.009C218.112 118.477 211.557 116.391 209.322 119.37C207.088 122.201 204.406 129.948 203.065 132.033C201.725 133.97 194.425 145.292 191.594 151.251C188.913 157.21 185.188 167.936 183.996 170.022C182.805 171.959 173.27 180.45 171.781 184.92C170.44 189.389 169.993 198.774 169.099 201.605C168.205 204.435 164.928 211.586 163.587 219.333C160.309 221.865 154.946 230.953 150.477 259.407C146.008 288.011 135.133 287.117 135.728 318.104C136.324 349.09 135.877 396.018 133.345 407.638C130.812 419.407 126.492 434.304 118.149 447.116" stroke="#808285" stroke-width="2" stroke-miterlimit="10"/>
<path d="M315.691 322.276C318.521 318.701 323.884 312.146 325.076 311.55C326.417 311.103 329.397 289.353 336.398 278.775C327.162 283.99 315.542 303.505 311.52 320.786L315.691 322.276Z" stroke="#808285" stroke-width="2" stroke-miterlimit="10"/>
<path d="M311.519 320.786C313.456 313.486 318.67 297.248 329.694 284.585C340.719 271.922 352.041 257.024 357.255 248.384C362.469 239.743 377.366 214.119 378.856 211.736C380.346 209.203 393.009 197.881 399.862 168.831C406.715 139.781 376.175 140.228 365.448 156.466C354.871 172.704 346.678 186.857 333.27 200.265C319.713 213.672 296.324 242.574 293.493 245.553C290.663 248.533 276.659 267.602 270.998 269.24" stroke="#2969D0" stroke-width="3" stroke-miterlimit="10" stroke-linecap="round"/>
<path d="M148.987 278.774C151.669 276.986 157.33 273.56 159.714 262.089C161.948 250.618 160.905 229.463 163.736 219.333" stroke="#808285" stroke-width="2" stroke-miterlimit="10"/>
<path d="M183.995 169.873C193.232 162.574 199.489 151.996 207.235 147.08C214.982 142.164 218.11 139.482 220.196 137.546C222.133 135.609 225.559 130.097 229.731 126.224" stroke="#808285" stroke-width="2" stroke-miterlimit="10"/>
<path d="M194.276 267.75C197.852 263.728 204.705 253.448 209.472 230.804C214.09 208.16 225.263 188.942 226.455 184.324C227.498 179.706 232.265 171.959 247.014 164.957" stroke="#808285" stroke-width="2" stroke-miterlimit="10"/>
<g opacity="0.5">
<path d="M374.684 152.146C373.791 153.635 372.599 154.976 371.854 156.466C371.407 157.211 371.109 157.956 371.109 158.7C371.109 159.445 371.258 160.19 371.854 160.786C372.748 161.978 374.386 162.872 375.876 163.617C377.366 164.361 379.005 164.957 380.643 165.404C382.282 165.851 383.921 166.149 385.709 166.447C386.602 166.596 387.347 166.596 388.241 166.745C389.135 166.745 389.88 166.745 390.625 166.596C392.115 166 393.455 164.957 394.647 163.617C395.839 162.425 397.031 161.084 398.074 159.743C397.18 161.233 396.286 162.723 395.094 164.064C393.902 165.404 392.71 166.745 390.923 167.639C390.029 168.086 388.986 168.086 388.092 168.086C387.198 168.086 386.305 168.086 385.411 167.937C383.623 167.788 381.835 167.49 380.197 166.894C378.409 166.447 376.77 165.702 375.28 164.808C374.535 164.361 373.791 163.915 373.046 163.319C372.301 162.723 371.556 162.127 371.109 161.233C370.513 160.488 370.215 159.445 370.364 158.402C370.513 157.36 370.96 156.615 371.407 155.87C372.301 154.678 373.493 153.486 374.684 152.146Z" fill="#AEB0B2"/>
</g>
<g opacity="0.5">
<path d="M392.412 219.334C390.476 219.93 388.837 220.973 387.198 222.165C385.56 223.207 384.07 224.548 382.729 225.889C380.047 228.719 377.664 231.848 376.174 235.423C375.429 237.211 374.982 238.999 374.833 240.935C374.684 242.872 375.131 244.66 375.876 246.448C376.621 248.235 377.664 249.874 379.005 251.364C380.345 252.853 381.835 254.194 383.623 255.088C379.898 253.598 376.77 250.619 374.833 247.043C373.939 245.256 373.344 243.021 373.493 240.935C373.493 238.85 374.088 236.764 374.833 234.827C376.472 231.103 378.856 227.677 381.984 224.995C384.815 222.462 388.39 220.079 392.412 219.334Z" fill="#AEB0B2"/>
</g>
</svg>
