<svg width="900" height="500" viewBox="0 0 900 500" fill="none" xmlns="http://www.w3.org/2000/svg">
<path opacity="0.33" d="M327.41 430.327C329.284 428.02 337.356 419.659 346.15 410.865C354.943 402.072 372.963 371.078 378.297 364.88C383.631 358.681 397.758 343.4 401.218 335.76C404.677 328.12 400.929 303.613 401.218 295.973C401.506 288.333 405.11 251.861 402.659 242.347C400.209 232.832 396.316 228.94 393.145 222.309C389.973 215.678 389.397 213.66 386.514 211.641C383.631 209.623 385.36 192.324 385.937 189.874C386.514 187.423 388.532 176.323 388.532 172.431C388.532 168.539 388.532 157.439 391.559 149.222C394.586 141.005 392.568 116.354 387.379 108.57C382.189 100.785 378.008 98.9111 371.81 98.4786C365.611 98.0461 358.836 104.101 357.106 107.849C355.376 111.597 353.069 115.057 350.475 145.618C346.871 153.835 339.951 161.042 336.924 170.989C333.897 180.936 325.824 206.019 323.95 216.398C322.076 226.778 311.408 240.905 315.733 233.265C320.058 225.769 319.625 207.317 327.698 182.81C335.771 158.303 334.762 159.889 334.762 158.592C334.762 157.294 339.519 152.826 341.104 142.158C344.132 137.257 350.042 112.894 339.086 105.831C338.942 100.785 335.627 97.3254 326.545 95.8838C317.463 94.4422 314.147 96.7487 312.129 102.371C308.813 103.236 303.768 115.489 302.903 125.58C300.452 127.022 288.632 138.987 286.325 143.455C284.019 147.924 277.532 170.413 276.234 176.179C274.937 181.945 266.576 217.984 264.269 221.3C261.963 224.615 260.954 226.922 262.828 219.858C264.702 212.795 273.351 170.268 277.099 162.628C280.847 154.988 281.28 148.645 291.659 133.797C302.038 118.949 300.597 111.741 298.723 106.984C296.848 102.227 295.407 98.1903 286.613 96.7487C277.82 95.3072 272.774 102.659 272.774 102.659C272.774 102.659 267.441 104.245 254.611 118.084C251.872 112.75 248.124 108.714 248.124 108.714C248.124 108.714 245.385 102.947 237.6 101.794C229.816 100.641 226.644 109.002 226.212 112.029C223.617 112.029 218.283 123.994 216.409 135.959C214.535 148.068 211.508 165.367 208.336 175.602C205.165 185.837 203.147 194.343 202.426 201.839C201.705 209.335 197.669 219.858 196.948 229.661C196.227 239.464 184.839 267.574 184.262 276.512C183.542 285.449 183.974 316.011 183.109 323.074C182.244 330.138 180.947 353.924 183.109 367.619C185.271 381.169 184.262 393.711 181.956 400.486C179.649 407.261 171 429.75 171 429.75H327.41V430.327Z" fill="#445272"/>
<path d="M327.41 430.327C329.284 428.02 337.356 419.659 346.15 410.865C354.943 402.072 372.963 371.078 378.297 364.88C383.631 358.681 397.758 343.4 401.218 335.76C404.677 328.12 400.929 303.613 401.218 295.973C401.506 288.333 405.11 251.861 402.659 242.347C400.209 232.832 396.316 228.94 393.145 222.309C389.973 215.678 389.397 213.66 386.514 211.641C383.631 209.623 385.36 192.324 385.937 189.874C386.514 187.423 388.532 176.323 388.532 172.431C388.532 168.539 388.532 157.439 391.559 149.222C394.586 141.005 392.568 116.354 387.379 108.57C382.189 100.785 378.008 98.9111 371.81 98.4786C365.611 98.0461 358.836 104.101 357.106 107.849C355.376 111.597 353.069 115.057 350.475 145.618C346.871 153.835 339.951 161.042 336.924 170.989C333.897 180.936 325.824 206.019 323.95 216.398C322.076 226.778 311.408 240.905 315.733 233.265C320.058 225.769 319.625 207.317 327.698 182.81C335.771 158.303 334.762 159.889 334.762 158.592C334.762 157.294 339.519 152.826 341.104 142.158C344.132 137.257 350.042 112.894 339.086 105.831C338.942 100.785 335.627 97.3254 326.545 95.8838C317.463 94.4422 314.147 96.7487 312.129 102.371C308.813 103.236 303.768 115.489 302.903 125.58C300.452 127.022 288.632 138.987 286.325 143.455C284.019 147.924 277.532 170.413 276.234 176.179C274.937 181.945 266.576 217.984 264.269 221.3C261.963 224.615 260.954 226.922 262.828 219.858C264.702 212.795 273.351 170.268 277.099 162.628C280.847 154.988 281.28 148.645 291.659 133.797C302.038 118.949 300.597 111.741 298.723 106.984C296.848 102.227 295.407 98.1903 286.613 96.7487C277.82 95.3072 272.774 102.659 272.774 102.659C272.774 102.659 267.441 104.245 254.611 118.084C251.872 112.75 248.124 108.714 248.124 108.714C248.124 108.714 245.385 102.947 237.6 101.794C229.816 100.641 226.644 109.002 226.212 112.029C223.617 112.029 218.283 123.994 216.409 135.959C214.535 148.068 211.508 165.367 208.336 175.602C205.165 185.837 203.147 194.343 202.426 201.839C201.705 209.335 197.669 219.858 196.948 229.661C196.227 239.464 184.839 267.574 184.262 276.512C183.542 285.449 183.974 316.011 183.109 323.074C182.244 330.138 180.947 353.924 183.109 367.619C185.271 381.169 184.262 393.711 181.956 400.486C179.649 407.261 171 429.75 171 429.75" stroke="#697695" stroke-width="2" stroke-miterlimit="10"/>
<path d="M212.805 225.912C216.841 221.588 220.157 214.957 220.445 208.037C220.733 201.118 220.012 165.223 229.094 151.528C238.176 137.833 254.754 118.66 254.754 118.66" stroke="#697695" stroke-width="2" stroke-miterlimit="10"/>
<path d="M373.826 309.957C371.808 306.208 369.357 303.758 369.357 300.875C369.357 297.992 370.943 264.98 372.673 253.159C374.259 241.338 382.331 207.173 385.07 200.109" stroke="#697695" stroke-width="2" stroke-miterlimit="10"/>
<path opacity="0.33" d="M544.951 429.074C542.789 425.47 539.906 421.434 536.302 417.253C532.986 413.505 529.67 410.333 526.787 407.883C526.787 407.883 520.3 401.684 513.236 393.755C508.191 388.133 504.875 383.375 498.243 374.005C485.269 355.696 486.71 355.264 481.376 350.363C479.359 348.489 475.466 345.173 471.718 339.694C468.546 335.082 467.393 331.622 466.96 329.316C466.816 328.45 466.528 327.153 466.384 321.531C466.239 313.602 466.528 311.727 466.384 307.691C466.239 303.078 465.375 299.906 463.933 294.284C461.626 285.059 459.897 282.896 458.022 274.679C457.013 269.922 456.581 265.885 456.293 263.434C455.716 262.569 454.851 261.56 454.274 260.118C453.121 257.235 453.265 254.785 453.409 253.343C452.689 252.045 451.824 250.027 451.247 247.576C450.382 243.684 450.958 241.089 452.401 233.593C454.562 222.349 454.995 219.898 454.995 216.293C454.995 212.833 454.562 210.095 454.13 208.365C452.689 205.481 451.247 202.166 450.094 198.418C448.22 192.507 447.354 187.173 447.066 182.849C447.788 182.56 448.508 182.272 449.229 181.983C450.238 180.974 453.121 179.677 455.716 178.956C460.329 177.658 464.078 178.956 467.682 180.686C468.691 181.118 473.015 184.002 477.916 189.624C479.359 191.21 482.818 195.679 484.981 202.166C486.566 206.779 486.854 210.96 487.143 213.266C487.432 216.726 487.143 217.446 487.576 220.618C488.008 225.231 489.161 228.403 489.882 230.854C492.765 240.8 492.909 248.873 493.053 248.873C493.198 248.873 491.612 235.755 486.134 191.354C486.134 186.453 486.134 178.812 486.278 169.441C486.566 158.486 486.854 158.486 487.143 147.385C487.432 137.438 487.288 131.96 488.152 122.157C488.729 115.382 489.305 111.201 491.468 106.443C493.198 102.839 495.216 98.6584 499.829 96.0638C505.307 93.1807 511.795 93.7573 516.408 96.3519C520.3 98.5144 522.462 101.542 523.616 103.416C526.498 107.741 527.076 112.066 527.652 116.391C528.229 120.427 528.085 123.31 527.796 129.365C527.508 137.726 526.643 142.051 526.643 152.286C526.643 152.863 526.643 153.295 526.643 153.584C527.22 155.314 528.085 157.908 528.949 160.792C529.958 164.108 530.824 167.568 532.121 172.757C533.995 180.398 535.005 184.146 535.725 187.75C537.166 194.814 537.022 197.12 538.609 209.807C539.473 216.726 539.906 220.186 540.482 223.357C541.923 232.151 543.798 239.359 545.239 244.26C546.393 243.396 547.69 242.531 548.843 241.81C546.392 229.268 544.23 216.293 542.068 203.175C539.762 189.191 538.319 178.956 537.022 169.585C529.958 120.427 533.274 130.951 531.256 121.004C531.256 120.715 530.102 114.805 530.536 107.02C530.968 100.245 532.265 97.9383 532.842 96.929C536.013 91.7391 541.635 90.0092 542.933 89.7208C543.798 89.4325 551.295 87.4142 558.069 91.7391C561.673 94.0456 563.404 96.929 565.133 100.101C567.008 103.272 569.746 109.326 570.18 118.12C570.035 105.722 574.793 95.6314 582.145 92.8923C583.73 92.3157 586.614 91.5949 589.93 92.1715C595.407 92.8923 598.867 96.3519 602.039 99.3796C605.642 102.984 607.661 106.443 610.112 110.768C611.986 114.084 613.283 116.967 614.293 118.986C614.437 116.535 615.157 112.354 617.897 108.173C619.482 105.867 621.356 102.984 625.392 101.542C625.681 101.398 630.871 99.6677 635.916 102.262C636.493 102.551 637.935 103.416 640.385 106.011C642.404 108.173 644.854 111.345 648.746 119.274C650.333 122.301 651.63 125.04 653.215 129.076C655.522 134.988 656.531 139.024 657.829 144.358C662.874 163.675 665.036 166.27 667.199 179.1C667.776 182.705 668.208 185.731 668.352 187.894C668.929 192.939 669.794 200.292 669.939 209.373C670.083 214.276 669.939 226.385 670.515 231.719C670.659 233.304 670.947 234.89 670.947 234.89C671.38 237.774 672.1 239.936 672.245 240.656C672.821 242.675 673.543 245.991 674.984 252.478C675.704 255.793 676.857 260.983 677.435 266.894C678.156 273.814 677.291 273.526 677.723 284.913C677.867 288.951 678.156 292.41 678.732 299.618C679.164 305.529 679.309 306.682 679.597 310.574C680.173 318.647 680.317 324.847 680.462 329.171C680.606 337.244 680.606 343.443 680.317 355.84C680.173 367.806 679.885 370.401 680.173 377.033C680.462 384.529 681.183 389.719 681.616 392.602C682.336 398.08 682.913 401.684 684.354 406.585C686.084 412.352 688.102 417.253 691.13 424.173C692.139 426.335 693.004 428.21 693.581 429.507C643.989 429.363 594.399 429.218 544.951 429.074Z" fill="#445272"/>
<path d="M544.951 429.074C542.789 425.47 539.906 421.434 536.302 417.253C532.986 413.505 529.67 410.333 526.787 407.883C526.787 407.883 520.3 401.684 513.236 393.755C508.191 388.133 504.875 383.375 498.243 374.005C485.269 355.696 486.71 355.264 481.376 350.363C479.359 348.489 475.466 345.173 471.718 339.695C468.546 335.082 467.393 331.622 466.96 329.316C466.816 328.45 466.528 327.153 466.384 321.531C466.239 313.602 466.528 311.727 466.384 307.691C466.239 303.078 465.375 299.906 463.933 294.284C461.626 285.059 459.897 282.896 458.022 274.679C457.013 269.922 456.581 265.885 456.293 263.434C455.716 262.569 454.851 261.56 454.274 260.118C453.121 257.235 453.265 254.785 453.409 253.343C452.689 252.045 451.824 250.027 451.247 247.576C450.382 243.684 450.958 241.089 452.401 233.593C454.562 222.349 454.995 219.898 454.995 216.293C454.995 212.833 454.562 210.095 454.13 208.365C452.689 205.481 451.247 202.166 450.094 198.418C448.22 192.507 447.354 187.173 447.066 182.849C447.788 182.56 448.508 182.272 449.229 181.983C450.238 180.974 453.121 179.677 455.716 178.956C460.329 177.658 464.078 178.956 467.682 180.686C468.691 181.118 473.015 184.002 477.916 189.624C479.359 191.21 482.818 195.679 484.981 202.166C486.566 206.779 486.854 210.96 487.143 213.266C487.432 216.726 487.143 217.446 487.576 220.618C488.008 225.231 489.161 228.403 489.882 230.854C492.765 240.8 492.909 248.873 493.053 248.873C493.198 248.873 491.612 235.755 486.134 191.354C486.134 186.453 486.134 178.812 486.278 169.441C486.566 158.486 486.854 158.486 487.143 147.385C487.432 137.438 487.288 131.96 488.152 122.157C488.729 115.382 489.305 111.201 491.468 106.443C493.198 102.839 495.216 98.6584 499.829 96.0638C505.307 93.1807 511.795 93.7573 516.408 96.3519C520.3 98.5144 522.462 101.542 523.616 103.416C526.498 107.741 527.076 112.066 527.652 116.391C528.229 120.427 528.085 123.311 527.796 129.365C527.508 137.726 526.643 142.051 526.643 152.286C526.643 152.863 526.643 153.295 526.643 153.584C527.22 155.314 528.085 157.908 528.949 160.792C529.958 164.108 530.824 167.568 532.121 172.757C533.995 180.398 535.005 184.146 535.725 187.75C537.166 194.814 537.022 197.12 538.609 209.807C539.473 216.726 539.906 220.186 540.482 223.358C541.923 232.151 543.798 239.359 545.239 244.26C546.393 243.396 547.69 242.531 548.843 241.81C546.392 229.268 544.23 216.293 542.068 203.175C539.762 189.191 538.319 178.956 537.022 169.585C529.958 120.427 533.274 130.951 531.256 121.004C531.256 120.715 530.102 114.805 530.536 107.02C530.968 100.245 532.265 97.9383 532.842 96.929C536.013 91.7391 541.635 90.0092 542.933 89.7208C543.798 89.4325 551.295 87.4142 558.069 91.7391C561.673 94.0456 563.404 96.929 565.133 100.101C567.008 103.272 570.035 108.606 570.756 117.399" stroke="#697695" stroke-width="2" stroke-miterlimit="10"/>
<path d="M614.293 118.985C614.437 116.534 615.157 112.354 617.897 108.173C619.482 105.866 621.357 102.983 625.393 101.541C625.681 101.397 630.871 99.6679 635.916 102.263C636.494 102.551 637.935 103.416 640.386 106.01C642.404 108.173 644.855 111.345 648.747 119.273C650.333 122.301 651.63 125.039 653.216 129.076C655.522 134.987 656.532 139.023 657.829 144.357C662.874 163.675 665.037 166.27 667.199 179.1C667.776 182.704 668.209 185.732 668.353 187.893C668.93 192.939 669.794 200.291 669.938 209.374C670.082 214.275 669.938 226.385 670.515 231.718C670.659 233.305 670.947 234.89 670.947 234.89C671.38 237.773 672.101 239.935 672.245 240.656C672.822 242.675 673.542 245.99 674.984 252.477C675.705 255.793 676.858 260.983 677.435 266.893C678.155 273.813 677.291 273.525 677.723 284.914C677.867 288.95 678.155 292.41 678.732 299.618C679.164 305.529 679.308 306.682 679.597 310.574C680.174 318.647 680.318 324.846 680.462 329.171C680.607 337.244 680.607 343.442 680.318 355.841C680.174 367.806 679.886 370.4 680.174 377.032C680.462 384.528 681.183 389.718 681.615 392.601C682.336 398.079 682.912 401.683 684.355 406.584C686.084 412.351 688.103 417.253 691.13 424.173C692.139 426.334 693.004 428.209 693.581 429.506" stroke="#697695" stroke-width="2" stroke-miterlimit="10"/>
<path d="M597.57 228.836C595.84 225.52 592.957 218.024 592.092 212.978C590.505 202.887 591.082 203.319 590.361 194.093C589.497 182.56 588.055 175.929 587.623 174.199C586.613 169.01 586.469 169.874 585.46 164.54C584.307 158.774 583.587 153.44 581.856 145.367C581.424 143.637 581.424 141.763 580.271 139.744C578.684 137.15 574.215 128.932 572.774 123.166C567.729 104.281 576.09 95.3433 582.144 93.1808C583.731 92.6042 586.613 91.8834 589.929 92.46C595.408 93.1808 598.867 96.6403 602.038 99.6681C605.643 103.272 607.661 106.732 610.111 111.057C611.986 114.373 613.283 117.256 614.292 119.274L614.58 119.994C622.653 137.15 628.564 151.71 631.015 162.522C633.177 172.18 634.042 180.687 634.618 186.02C636.061 200.147 637.79 214.276 637.502 223.069" stroke="#BA6DCD" stroke-width="3" stroke-miterlimit="10" stroke-linecap="round"/>
<path d="M491.18 328.883C491.18 325.712 491.468 321.819 492.189 317.35C493.054 312.449 494.496 308.269 495.793 305.097C495.505 298.321 495.216 291.546 494.784 284.77C494.207 272.517 493.486 260.407 492.621 248.586" stroke="#697695" stroke-width="2" stroke-miterlimit="10"/>
<g opacity="0.5">
<path d="M457.59 208.508C458.743 207.932 459.752 207.211 460.329 206.202C460.906 205.193 461.05 204.04 461.05 202.743C461.05 200.291 460.617 197.84 459.896 195.534C459.176 193.227 458.311 190.777 457.446 188.47C457.014 187.317 456.58 186.164 455.716 185.299C454.851 184.434 453.698 184.001 452.4 183.713C453.698 183.713 454.995 184.001 456.148 184.866C457.302 185.587 458.023 187.029 458.455 188.182C459.464 190.489 460.473 192.795 461.194 195.246C461.627 196.543 461.915 197.696 462.059 198.994C462.203 200.291 462.203 201.589 462.059 202.887C461.915 204.184 461.627 205.625 460.761 206.635C460.185 207.644 458.887 208.22 457.59 208.508Z" fill="#B1BBD0"/>
</g>
<g opacity="0.5">
<path d="M575.947 103.992C576.667 105.145 577.533 106.155 578.542 107.02C578.974 107.452 579.551 107.885 579.983 108.173C580.416 108.317 581.137 108.461 581.714 108.605C584.308 108.75 586.903 108.461 589.354 108.029C591.804 107.452 594.4 106.876 596.561 105.578C599.301 104.425 597.427 101.541 595.841 99.668C596.995 100.388 598.004 101.397 598.58 102.551C598.868 103.128 599.157 103.992 598.724 104.857C598.292 105.578 597.715 106.011 597.283 106.588C594.976 108.173 592.237 109.038 589.643 109.47C587.047 109.903 584.308 110.192 581.57 109.759C580.848 109.614 580.271 109.47 579.551 109.182C578.83 108.75 578.398 108.317 577.966 107.741C577.245 106.299 576.379 105.145 575.947 103.992Z" fill="#B1BBD0"/>
</g>
</svg>
