<svg width="850" height="500" viewBox="0 0 850 500" fill="none" xmlns="http://www.w3.org/2000/svg">
<path opacity="0.33" d="M517.705 435.966C507.063 427.511 499.045 420.076 493.651 414.828C485.487 406.956 479.51 400.25 470.034 391.795C463.037 385.526 459.538 382.465 457.205 380.715C456.622 380.278 453.998 378.383 450.937 375.613C447.146 371.968 445.834 370.073 445.397 369.199C443.939 366.575 443.648 364.242 443.356 362.638C442.481 357.39 441.169 352.142 440.149 346.748C437.962 335.815 433.589 327.068 431.256 322.694C430.09 320.508 427.612 315.697 425.279 310.449C424.55 308.699 423.238 305.638 422.218 301.41C422.072 301.119 422.072 300.39 421.635 299.369C420.906 297.183 419.885 295.871 419.594 295.433C416.678 291.351 415.803 283.771 415.803 282.459C415.658 281.438 415.803 281.147 415.803 276.044C415.949 261.174 415.658 263.215 415.949 259.279C416.387 252.865 416.97 250.824 415.949 247.034C415.512 245.139 414.783 243.681 413.908 241.64C412.013 237.412 410.555 235.371 409.097 232.601C407.785 230.123 406.182 226.479 405.016 221.376C405.599 220.793 406.328 220.064 406.911 219.481C408.077 218.315 409.972 216.565 412.742 215.253C419.011 212.483 424.988 214.233 427.32 214.962C431.548 216.274 434.172 218.315 437.088 220.647C444.231 226.333 448.167 232.456 451.957 238.287C456.039 244.701 458.226 249.658 459.684 253.74C461.87 260.008 462.308 264.09 461.287 267.88C460.85 269.63 460.267 270.942 459.684 271.962C459.684 272.545 459.538 273.129 459.538 273.566C460.558 274.149 461.87 274.878 463.328 276.19C468.576 280.855 469.743 287.124 470.18 286.978C470.471 286.832 470.034 283.916 467.41 272.545C461.87 256.655 457.497 243.535 454.436 234.205C447.001 211.463 445.98 207.235 445.251 204.32C442.627 192.511 443.502 191.054 439.42 167.874C437.088 154.317 436.504 153.15 435.776 146.153C434.463 133.907 436.213 137.114 435.921 117.434C435.921 116.122 435.776 110.728 438.254 105.188C439.42 102.71 440.732 100.961 442.336 99.7944C442.773 99.357 444.377 98.3366 447.438 97.4619C448.896 97.0246 455.602 95.421 462.599 98.9197C466.973 101.106 469.305 104.168 470.617 106.063C473.533 109.999 474.553 113.789 475.282 116.268C476.011 119.038 476.303 121.078 476.594 125.306C477.469 135.511 477.177 136.677 477.761 142.654C478.344 148.048 478.781 152.859 480.53 158.836C481.842 163.209 483.3 165.979 484.612 168.895C489.86 180.12 494.38 190.033 497.587 201.55C499.336 207.818 501.231 213.941 502.835 220.21C503.127 221.376 503.855 224.292 505.751 227.791C507.208 230.415 508.666 232.31 509.687 233.476C510.707 233.184 512.165 232.747 513.623 232.601C515.081 232.456 516.538 232.31 517.559 232.456C517.996 231.872 518.288 230.998 518.579 229.831C519.163 227.207 518.434 224.875 518.142 224.292C516.538 219.335 514.206 201.404 512.165 185.66C510.707 173.997 509.687 166.562 510.853 156.941C511.29 152.713 512.019 149.214 512.457 141.779C512.748 136.969 512.748 134.053 513.331 126.618C513.769 121.37 513.914 118.6 514.352 116.705C515.664 111.02 518.142 106.938 519.891 104.022C521.932 100.669 522.953 98.9197 524.848 97.3161C528.93 93.9631 533.303 93.5258 534.907 93.38C539.572 92.9427 542.925 94.2547 543.945 94.692C545.986 95.5667 550.068 97.6077 552.838 102.127C554.442 104.897 554.879 107.229 555.316 110.291C555.754 113.061 555.608 114.664 555.462 122.682C555.171 132.304 555.171 133.178 555.316 134.199C555.608 137.406 556.045 140.03 557.211 145.57C558.378 151.401 558.815 152.276 559.544 156.503C560.419 161.023 560.71 163.647 561.293 169.478C562.022 176.038 563.043 182.453 563.772 189.013C565.375 202.133 566.104 207.09 566.687 211.463C568.291 222.834 569.02 228.665 569.311 228.519C569.894 228.519 569.311 218.023 568.437 206.069C568.145 201.696 567.854 184.639 567.708 181.869C567.27 177.059 565.813 162.918 565.521 157.378C565.229 153.442 564.938 149.652 564.355 145.278C563.48 139.155 562.46 138.281 560.564 128.368C559.836 125.015 559.398 122.245 559.981 118.746C560.419 115.83 561.293 113.644 562.022 112.04C562.168 111.02 562.46 109.27 563.626 107.667C565.375 105.188 567.999 104.314 569.603 103.876C575.288 102.127 580.682 104.168 582.577 105.043C585.347 106.5 588.992 108.833 592.199 112.623C595.26 116.268 596.573 119.621 597.447 121.807C598.759 125.16 599.488 128.076 599.78 130.263C601.529 134.928 602.987 138.864 604.007 141.634C608.381 154.025 609.401 157.961 609.839 159.711C610.276 161.314 611.005 164.521 611.88 170.498C613.775 183.473 613.921 193.823 614.212 199.655C614.504 207.381 615.087 218.315 616.69 231.872C617.128 231.872 617.419 231.872 617.857 231.727C615.524 196.739 613.92 173.851 613.775 167.874C613.775 166.854 613.629 163.064 612.9 158.107C612.463 154.608 611.88 151.984 611.588 151.255C610.713 147.757 610.13 146.299 609.256 142.946C608.818 141.196 607.652 137.114 606.777 132.449C605.903 127.201 605.174 122.974 606.34 118.309C606.631 117.288 607.215 115.101 608.672 112.623C609.547 111.165 610.422 110.145 611.151 109.562C612.025 107.667 613.046 106.646 613.775 106.063C617.419 103.002 622.813 103.585 626.312 105.188C627.478 105.771 628.207 106.355 629.373 107.229C631.852 109.124 634.038 111.603 636.371 115.539C639.578 120.787 641.182 125.452 641.619 126.618C644.389 134.636 645.555 141.051 647.304 150.381C649.491 162.48 650.657 168.603 651.095 172.248C652.553 181.724 653.719 189.304 654.594 199.217C655.614 211.463 655.614 222.105 655.614 223.271C655.614 232.893 655.177 236.246 656.051 243.681C656.343 246.159 656.489 246.305 658.821 258.55C661.008 270.213 662.028 276.044 662.32 279.106C663.049 286.686 662.174 286.978 662.903 296.454C663.34 302.868 663.924 305.638 664.798 312.052C665.964 320.653 666.256 326.776 666.839 337.564C667.86 354.183 666.985 354.183 667.86 369.636C668.589 383.777 669.026 390.774 670.775 399.084C672.816 408.414 675.878 417.89 677.919 424.158C679.522 428.969 680.98 433.051 682 435.821C627.041 435.675 572.373 435.821 517.705 435.966Z" fill="#E0E1E2"/>
<path d="M517.705 435.966C507.063 427.511 499.045 420.076 493.651 414.828C485.487 406.956 479.51 400.25 470.034 391.794C463.037 385.526 459.538 382.464 457.205 380.715C456.622 380.277 453.998 378.382 450.937 375.612C447.146 371.968 445.834 370.073 445.397 369.198C443.939 366.574 443.648 364.242 443.356 362.638C442.481 357.39 441.169 352.142 440.149 346.748C437.962 335.814 433.589 327.067 431.256 322.694C430.09 320.507 427.612 315.696 425.279 310.448C424.55 308.699 423.238 305.637 422.218 301.41C422.072 301.118 422.072 300.389 421.635 299.369C420.906 297.182 419.885 295.87 419.594 295.433C416.678 291.351 415.803 283.77 415.803 282.458C415.658 281.438 415.803 281.146 415.803 276.044C415.949 261.174 415.658 263.215 415.949 259.279C416.387 252.864 416.97 250.824 415.949 247.033C415.512 245.138 414.783 243.68 413.908 241.639C412.013 237.412 410.555 235.371 409.097 232.601C407.785 230.123 406.182 226.478 405.016 221.376C405.599 220.793 406.328 220.064 406.911 219.481C408.077 218.314 409.972 216.565 412.742 215.253C419.011 212.483 424.988 214.232 427.32 214.961C431.548 216.273 434.172 218.314 437.088 220.647C444.231 226.332 448.167 232.455 451.957 238.286C456.039 244.701 458.226 249.657 459.684 253.739C461.87 260.008 462.308 264.09 461.287 267.88C460.85 269.629 460.267 270.941 459.684 271.962C459.684 272.545 459.538 273.128 459.538 273.565C460.558 274.149 461.87 274.877 463.328 276.189C468.576 280.855 469.743 287.123 470.18 286.977C470.471 286.832 470.034 283.916 467.41 272.545C462.162 257.675 457.934 244.992 454.873 235.808" stroke="#808285" stroke-width="2" stroke-miterlimit="10"/>
<path d="M513.478 232.309C514.935 232.164 516.393 232.018 517.414 232.164C517.851 231.58 518.143 230.706 518.434 229.539C519.017 226.915 518.288 224.583 517.997 224C516.393 219.043 514.061 201.112 512.02 185.368C510.562 173.705 509.541 166.27 510.708 156.649C511.145 152.421 511.874 148.922 512.311 141.487C512.603 136.677 512.603 133.761 513.186 126.326C513.623 121.078 513.769 118.308 514.206 116.413C515.518 110.728 517.997 106.646 519.746 103.73C521.787 100.377 522.808 98.6277 524.703 97.0241C528.785 93.6711 533.158 93.2338 534.762 93.088C539.427 92.6507 542.78 93.9627 543.8 94.4C545.841 95.2747 549.923 97.3157 552.693 101.835C554.296 104.605 554.734 106.937 555.171 109.999C555.608 112.769 555.463 114.372 555.317 122.39C555.025 132.012 555.025 132.886 555.171 133.907C555.463 137.114 555.9 139.738 557.066 145.278C558.232 151.109 558.67 151.984 559.399 156.211C560.273 160.731 560.565 163.355 561.148 169.186C561.877 175.746 562.897 182.16 563.626 188.721C565.23 201.841 565.959 206.798 566.542 211.171C568.146 222.542 568.874 228.373 569.166 228.227C569.749 228.227 569.166 217.731 568.291 205.777C568 201.404 567.708 184.347 567.562 181.577C567.125 176.767 565.667 162.626 565.376 157.086C565.084 153.15 564.793 149.36 564.209 144.986C563.335 138.863 562.314 137.989 560.419 128.076C559.69 124.723 559.253 121.953 559.836 118.454C560.273 115.538 561.148 113.352 561.877 111.748C562.023 110.728 562.314 108.978 563.481 107.375C565.23 104.896 567.854 104.022 569.458 103.584C575.143 101.835 580.537 103.876 582.432 104.751C585.202 106.208 588.847 108.541 592.054 112.331C595.115 115.976 596.427 119.329 597.302 121.515C598.614 124.868 599.343 127.784 599.634 129.971C601.384 134.636 602.842 138.572 603.862 141.342C608.235 153.733 609.256 157.669 609.693 159.419C610.131 161.022 610.86 164.229 611.734 170.206C613.629 183.181 613.775 193.531 614.067 199.363C614.358 207.089 614.941 218.023 616.545 231.58C616.982 231.58 617.274 231.58 617.711 231.435C615.379 196.447 613.775 173.559 613.629 167.582C613.629 166.562 613.484 162.772 612.755 157.815C612.317 154.316 611.734 151.692 611.443 150.963C610.568 147.465 609.985 146.007 609.11 142.654C608.673 140.904 607.507 136.822 606.632 132.157C605.757 126.909 605.028 122.682 606.195 118.017C606.486 116.996 607.069 114.809 608.527 112.331C609.402 110.873 610.276 109.853 611.005 109.27C611.88 107.375 612.901 106.354 613.629 105.771C617.274 102.71 622.668 103.293 626.167 104.896C627.333 105.479 628.062 106.063 629.228 106.937C631.706 108.832 633.893 111.311 636.226 115.247C639.433 120.495 641.036 125.16 641.474 126.326C644.243 134.344 645.41 140.759 647.159 150.089C649.346 162.188 650.512 168.311 650.949 171.956C652.407 181.432 653.574 189.012 654.448 198.925C655.469 211.171 655.469 221.813 655.469 222.979C655.469 232.601 655.031 235.954 655.906 243.389C656.198 245.867 656.343 246.013 658.676 258.258C660.863 269.921 661.883 275.752 662.175 278.814C662.904 286.394 662.029 286.686 662.758 296.162C663.195 302.576 663.778 305.346 664.653 311.76C665.819 320.361 666.111 326.484 666.694 337.272C667.714 353.891 666.84 353.891 667.714 369.344C668.443 383.485 668.881 390.482 670.63 398.792C672.671 408.122 675.732 417.598 677.773 423.866C679.377 428.677 680.835 432.759 681.855 435.529" stroke="#808285" stroke-width="2" stroke-miterlimit="10"/>
<path d="M454.581 235.517C454.435 234.934 454.289 234.497 453.998 233.914C446.563 211.172 445.543 206.944 444.814 204.028C442.19 192.22 443.064 190.762 438.982 167.583C436.65 154.025 436.067 152.859 435.338 145.861C434.026 133.616 435.775 136.823 435.484 117.143C435.484 115.831 435.338 110.437 437.816 104.897C438.982 102.419 440.294 100.669 441.898 99.503C442.335 99.0656 443.939 98.0452 447 97.1705C448.458 96.7331 455.164 95.1295 462.162 98.6283C466.535 100.815 468.868 103.876 470.18 105.772C473.095 109.708 474.116 113.498 474.845 115.976C475.574 118.746 475.865 120.787 476.157 125.015C477.031 135.219 476.74 136.386 477.323 142.363C477.906 147.757 478.343 152.567 480.093 158.544C481.405 162.918 482.863 165.688 484.175 168.603C489.423 179.829 493.942 189.742 497.149 201.258C498.899 207.527 500.794 213.65 502.397 219.918C502.689 221.085 503.418 224 505.313 227.499C506.771 230.123 508.229 232.018 509.249 233.185C510.27 232.893 511.727 232.456 513.185 232.31" stroke="#2969D0" stroke-width="3" stroke-miterlimit="10" stroke-linecap="round"/>
<g opacity="0.5">
<path d="M439.566 115.394C440.15 116.414 440.733 117.435 441.462 118.309C442.19 119.184 443.065 120.059 443.94 120.35C444.377 120.496 444.815 120.496 445.398 120.35C445.981 120.204 446.564 120.204 447.147 120.059C448.313 119.767 449.334 119.621 450.5 119.184C454.873 117.872 459.101 115.831 462.6 112.915L462.454 113.207C462.454 113.061 462.454 112.478 462.454 112.041V110.729C462.454 109.854 462.454 108.979 462.308 108.105C462.308 107.23 462.163 106.355 462.163 105.481C462.017 104.606 462.017 103.731 461.725 102.856C462.163 103.585 462.308 104.46 462.6 105.335C462.746 106.209 463.037 107.084 463.037 107.959C463.183 108.833 463.329 109.708 463.329 110.583L463.475 111.895C463.475 112.332 463.62 112.624 463.475 113.353V113.498L463.329 113.644C459.83 116.997 455.311 119.184 450.792 120.35C449.625 120.642 448.459 120.933 447.293 121.079C446.71 121.079 446.127 121.225 445.543 121.225C445.252 121.225 444.96 121.225 444.523 121.225C444.086 121.225 443.794 121.079 443.503 120.933C442.336 120.35 441.462 119.33 440.878 118.309C440.441 117.58 440.004 116.414 439.566 115.394Z" fill="#AEB0B2"/>
</g>
<g opacity="0.5">
<path d="M419.449 246.159C421.198 244.41 422.364 241.931 422.073 239.599C421.927 238.433 421.635 237.266 421.198 236.1C420.761 234.934 420.323 233.768 419.886 232.601C419.011 230.269 417.991 227.936 416.825 225.75C416.533 225.167 416.241 224.583 415.95 224.146C415.658 223.709 415.221 223.271 414.784 222.834C413.909 222.105 412.743 221.522 411.431 221.23C412.743 221.23 413.909 221.522 415.075 222.251C415.658 222.542 416.241 222.98 416.679 223.563C417.116 224.146 417.408 224.729 417.699 225.167C419.011 227.353 420.032 229.686 421.052 232.018C421.927 234.351 422.947 236.829 423.093 239.453C423.093 240.765 422.656 242.223 422.073 243.243C421.344 244.556 420.469 245.576 419.449 246.159Z" fill="#AEB0B2"/>
</g>
<path opacity="0.33" d="M313.173 438.3C315.068 435.967 323.232 427.512 332.125 418.619C341.017 409.727 359.24 378.384 364.634 372.115C370.028 365.846 384.314 350.394 387.813 342.667C391.312 334.941 387.521 310.158 387.813 302.431C388.105 294.705 391.749 257.822 389.271 248.201C386.793 238.579 382.856 234.643 379.649 227.937C376.442 221.231 375.859 219.19 372.943 217.149C370.028 215.108 371.777 197.615 372.36 195.136C372.943 192.658 374.984 181.433 374.984 177.497C374.984 173.561 374.984 162.335 378.046 154.026C381.107 145.716 379.066 120.788 373.818 112.916C368.57 105.043 364.342 103.148 358.074 102.711C351.805 102.273 344.953 108.396 343.204 112.187C341.455 115.977 339.122 119.476 336.498 150.381C332.853 158.691 325.856 165.98 322.794 176.039C319.733 186.098 311.569 211.464 309.674 221.96C307.779 232.456 296.991 246.743 301.365 239.017C305.738 231.436 305.301 212.776 313.464 187.993C321.628 163.21 320.608 164.814 320.608 163.502C320.608 162.19 325.419 157.67 327.022 146.883C330.084 141.926 336.061 117.289 324.981 110.146C324.835 105.043 321.482 101.545 312.298 100.087C303.114 98.629 299.761 100.961 297.72 106.647C294.367 107.522 289.265 119.913 288.39 130.118C285.912 131.576 273.958 143.675 271.625 148.195C269.293 152.714 262.733 175.456 261.42 181.287C260.108 187.118 251.653 223.564 249.321 226.917C246.988 230.27 245.968 232.602 247.863 225.459C249.758 218.316 258.505 175.31 262.295 167.584C266.085 159.857 266.523 153.443 277.019 138.427C287.515 123.412 286.058 116.123 284.162 111.312C282.267 106.501 280.809 102.419 271.917 100.961C263.024 99.5036 257.922 106.938 257.922 106.938C257.922 106.938 252.528 108.542 239.553 122.537C236.783 117.143 232.993 113.061 232.993 113.061C232.993 113.061 230.223 107.23 222.351 106.064C214.479 104.898 211.272 113.353 210.834 116.414C208.21 116.414 202.816 128.514 200.921 140.614C199.026 152.86 195.965 170.353 192.757 180.704C189.55 191.054 187.509 199.656 186.78 207.236C186.051 214.817 181.97 225.459 181.241 235.372C180.512 245.285 168.995 273.713 168.412 282.751C167.683 291.789 168.12 322.695 167.246 329.838C166.371 336.982 165.059 361.036 167.246 374.885C169.432 388.588 168.412 401.271 166.079 408.123C163.747 414.975 155 437.717 155 437.717H313.173V438.3Z" fill="#E0E1E2"/>
<path d="M313.173 438.3C315.068 435.967 323.232 427.512 332.125 418.619C341.017 409.727 359.24 378.384 364.634 372.115C370.028 365.846 384.314 350.394 387.813 342.667C391.312 334.941 387.521 310.158 387.813 302.431C388.105 294.705 391.749 257.822 389.271 248.201C386.793 238.579 382.856 234.643 379.649 227.937C376.442 221.231 375.859 219.19 372.943 217.149C370.028 215.108 371.777 197.615 372.36 195.136C372.943 192.658 374.984 181.433 374.984 177.497C374.984 173.561 374.984 162.335 378.046 154.026C381.107 145.716 379.066 120.788 373.818 112.916C368.57 105.043 364.342 103.148 358.074 102.711C351.805 102.273 344.953 108.396 343.204 112.187C341.455 115.977 339.122 119.476 336.498 150.381C332.853 158.691 325.856 165.98 322.794 176.039C319.733 186.098 311.569 211.464 309.674 221.96C307.779 232.456 296.991 246.743 301.365 239.017C305.738 231.436 305.301 212.776 313.464 187.993C321.628 163.21 320.608 164.814 320.608 163.502C320.608 162.19 325.419 157.67 327.022 146.883C330.084 141.926 336.061 117.289 324.981 110.146C324.835 105.043 321.482 101.545 312.298 100.087C303.114 98.629 299.761 100.961 297.72 106.647C294.367 107.522 289.265 119.913 288.39 130.118C285.912 131.576 273.958 143.675 271.625 148.195C269.293 152.714 262.733 175.456 261.42 181.287C260.108 187.118 251.653 223.564 249.321 226.917C246.988 230.27 245.968 232.602 247.863 225.459C249.758 218.316 258.505 175.31 262.295 167.584C266.085 159.857 266.523 153.443 277.019 138.427C287.515 123.412 286.058 116.123 284.162 111.312C282.267 106.501 280.809 102.419 271.917 100.961C263.024 99.5036 257.922 106.938 257.922 106.938C257.922 106.938 252.528 108.542 239.553 122.537C236.783 117.143 232.993 113.061 232.993 113.061C232.993 113.061 230.223 107.23 222.351 106.064C214.479 104.898 211.272 113.353 210.834 116.414C208.21 116.414 202.816 128.514 200.921 140.614C199.026 152.86 195.965 170.353 192.757 180.704C189.55 191.054 187.509 199.656 186.78 207.236C186.051 214.817 181.97 225.459 181.241 235.372C180.512 245.285 168.995 273.713 168.412 282.751C167.683 291.789 168.12 322.695 167.246 329.838C166.371 336.982 165.059 361.036 167.246 374.885C169.432 388.588 168.412 401.271 166.079 408.123C163.747 414.975 155 437.717 155 437.717" stroke="#808285" stroke-width="2" stroke-miterlimit="10"/>
<path d="M197.276 231.584C201.358 227.21 204.711 220.504 205.003 213.507C205.294 206.509 204.565 170.209 213.75 156.36C222.934 142.511 239.699 123.122 239.699 123.122" stroke="#808285" stroke-width="2" stroke-miterlimit="10"/>
<path d="M360.114 316.573C358.073 312.783 355.595 310.304 355.595 307.389C355.595 304.473 357.198 271.089 358.948 259.135C360.551 247.181 368.715 212.631 371.485 205.487" stroke="#808285" stroke-width="2" stroke-miterlimit="10"/>
</svg>
