<svg width="900" height="500" viewBox="0 0 900 500" fill="none" xmlns="http://www.w3.org/2000/svg">
<path opacity="0.33" d="M694.391 428.437C687.6 414.133 682.831 400.84 680.953 371.364C679.075 341.888 682.687 339.576 680.953 316.313C679.219 293.05 677.485 298.107 679.219 280.624C680.809 263.14 671.272 240.455 671.128 231.93C670.983 223.405 671.706 194.218 669.105 180.492C666.504 166.765 660.435 157.951 656.101 134.399C651.766 110.847 635.294 95.5311 624.746 98.9989C614.198 102.467 612.465 113.448 613.765 117.494C609.141 108.391 606.107 103.045 603.217 99.5768C600.327 96.1091 591.947 92.0633 591.947 92.0633C591.947 92.0633 578.943 89.318 573.886 101.022C569.695 101.889 569.695 110.992 569.84 113.448C568.828 107.957 566.95 100.155 565.361 97.6985C563.627 95.2421 560.303 91.3409 555.68 89.318C551.056 87.2952 539.208 88.0176 536.174 90.4739C533.139 92.9303 527.649 97.9874 528.082 102.9C528.516 107.957 530.105 112.437 530.394 125.296C530.683 138.156 534.873 165.32 535.74 172.111C536.607 178.902 548.311 241.467 548.311 241.467C548.311 241.467 547.877 242.478 547.155 241.756C546.577 241.033 532.85 164.742 527.938 153.472C529.816 141.479 530.972 107.524 523.169 100.01C519.846 92.4968 499.617 86.5727 491.959 103.478C484.301 120.239 486.758 150.293 485.313 161.852C483.868 173.412 485.457 199.131 486.902 206.789C485.891 198.986 483.29 191.762 478.811 187.283C474.332 182.803 466.963 178.324 461.761 176.446C457.571 175.001 452.225 176.879 449.913 179.191C449.19 179.914 448.179 180.636 447.167 180.781C446.011 181.07 445 181.936 445 181.936C445 184.393 446.878 196.675 453.669 208.812C451.936 211.413 454.247 222.249 452.369 229.907C450.491 237.421 448.323 242.623 451.647 251.292C450.346 253.604 452.08 259.961 454.97 262.273C453.236 267.619 455.403 274.41 461.183 288.571C468.407 306.343 464.795 325.994 469.852 336.108C474.91 346.222 480.978 349.69 487.625 360.093C494.127 370.497 519.557 403.007 529.96 411.243C540.364 419.479 544.698 428.293 544.698 428.293H694.391V428.437Z" fill="#E0E1E2"/>
<path d="M694.391 428.438C687.6 414.134 682.831 400.841 680.953 371.365C679.075 341.888 682.687 339.577 680.953 316.314C679.219 293.051 677.485 298.108 679.219 280.624C680.809 263.141 671.272 240.456 671.128 231.931C670.983 223.406 671.706 194.219 669.105 180.492C666.504 166.766 662.603 156.652 656.101 134.4C648.876 109.548 635.294 95.532 624.746 98.9998C614.198 102.468 612.465 113.449 613.765 117.495C609.141 108.392 606.107 103.046 603.217 99.5778C601.05 96.9769 595.126 92.4977 590.213 91.7753C586.601 91.1973 577.787 91.9198 573.886 100.878C570.129 102.179 569.695 110.848 569.84 113.304C568.828 107.814 566.95 100.011 565.361 97.5549C563.627 95.0986 560.303 91.1973 555.68 89.1745C551.056 87.1516 539.208 87.874 536.174 90.3304C533.139 92.7867 527.649 97.8439 528.082 102.757C528.516 107.814 530.105 112.293 530.394 125.153C530.683 138.012 534.873 165.177 535.74 171.968C536.607 178.759 548.311 241.323 548.311 241.323C548.311 241.323 547.877 242.334 547.155 241.612C546.577 240.89 532.85 164.599 527.938 153.328C529.816 141.336 530.972 107.38 523.169 99.8668C519.846 92.3532 499.617 86.4291 491.959 103.335C484.301 120.095 486.758 150.149 485.313 161.709C483.868 173.268 485.457 198.987 486.902 206.645C485.891 198.843 483.29 191.618 478.811 187.139C474.332 182.66 466.963 178.181 461.761 176.302C457.571 174.857 452.225 176.736 449.913 179.192C449.046 180.059 447.89 180.926 446.589 181.07C445.578 181.215 445 181.504 445 181.504C445 183.816 446.589 194.942 452.225 206.067C452.947 207.512 453.38 209.102 453.091 210.691C452.513 214.881 453.958 223.551 452.369 229.764C450.491 237.277 448.323 242.479 451.647 251.148C451.936 255.772 453.38 260.396 454.97 262.13C454.536 268.343 455.403 274.267 461.183 288.427C468.407 306.199 464.795 325.85 469.852 335.964C474.91 346.079 480.978 349.546 487.625 359.95C494.127 370.353 519.557 402.863 529.96 411.099C540.364 419.335 544.698 428.149 544.698 428.149" stroke="#75819C" stroke-width="2" stroke-miterlimit="10"/>
<path d="M491.815 328.884C492.248 321.515 495.571 308.944 495.86 304.465C496.294 299.986 494.994 306.344 494.705 286.982C494.56 267.476 492.826 236.844 489.647 223.117C486.469 209.39 487.336 206.645 485.891 201.732" stroke="#75819C" stroke-width="2" stroke-miterlimit="10"/>
<path d="M597.726 228.897C594.548 224.129 590.935 215.749 590.502 193.497C590.068 171.245 583.422 165.899 582.988 150.583C582.555 135.267 571.574 130.355 569.695 113.594" stroke="#75819C" stroke-width="2" stroke-miterlimit="10"/>
<path d="M636.739 223.407C636.883 217.916 637.028 190.174 634.138 173.557C631.248 156.941 628.358 150.583 624.89 143.214C621.278 135.701 615.209 124.286 613.476 117.64" stroke="#75819C" stroke-width="2" stroke-miterlimit="10"/>
<g opacity="0.5">
<path d="M453.092 182.806C454.392 183.095 455.548 183.817 456.704 184.684C457.715 185.695 458.438 186.851 458.871 188.152C459.594 190.753 460.316 193.209 460.75 195.954C461.183 198.555 461.617 201.3 461.328 204.046C461.328 204.768 461.039 205.491 460.894 206.069C460.605 206.791 460.172 207.369 459.594 207.803C458.438 208.814 456.993 208.958 455.693 208.525C456.993 208.669 458.293 208.236 459.16 207.225C460.027 206.358 460.172 205.057 460.172 203.757C460.172 201.156 459.738 198.555 459.305 196.099C458.871 193.498 458.293 190.897 457.716 188.441C457.282 186.129 455.548 183.962 453.092 182.806Z" fill="#75819C"/>
</g>
<path opacity="0.33" d="M307.403 448.343C313.497 441.793 327.206 422.142 335.889 416.811C344.572 411.479 360.262 395.637 370.468 381.47C380.674 367.304 400.172 352.223 407.332 338.209C414.491 324.194 410.074 303.63 416.167 276.21C422.26 248.791 423.022 243.459 414.339 233.558C405.656 223.656 396.059 216.192 389.205 205.377C392.251 195.475 401.086 169.275 403.219 158.916C405.199 148.558 405.199 135 407.332 127.689C409.465 120.377 411.902 115.807 412.664 108.19C413.273 100.726 415.405 72.0881 408.246 60.2064C401.086 48.3246 389.052 46.4967 379.151 58.2261C369.402 69.9555 369.097 93.8713 368.335 105.296C367.726 116.721 354.93 136.676 347.923 153.432C340.916 170.189 334.975 189.23 333.604 192.276C332.081 195.323 327.359 189.992 330.71 174.911C333.909 159.83 331.624 154.042 331.624 154.042C331.624 154.042 337.108 146.425 336.651 139.418C339.24 137.133 345.638 124.49 345.638 116.111C345.638 107.733 341.525 101.64 338.479 100.574C338.174 97.527 337.565 95.0899 325.531 93.4143C313.497 91.7387 311.212 99.355 311.212 99.355C311.212 99.355 301.158 97.984 293.846 100.269C289.124 98.746 279.527 97.223 272.063 104.077C267.798 102.554 261.704 107.733 261.704 107.733C261.704 107.733 254.088 106.819 247.995 110.628C245.558 107.581 236.875 102.249 231.086 104.382C225.298 106.515 223.47 109.257 221.489 110.475C219.509 111.694 203.362 114.588 200.62 116.873C197.878 119.158 177.466 153.889 175.638 159.83C173.81 165.771 176.552 208.271 176.857 215.888C177.161 223.504 174.115 248.182 174.419 260.368C174.724 272.402 176.095 291.291 174.419 316.73C172.591 342.169 177.314 364.409 173.353 378.271C169.393 392.133 164.823 409.194 147 448.8H307.403V448.343Z" fill="#E0E1E2"/>
<path d="M307.403 448.343C313.497 441.793 327.206 422.142 335.889 416.811C344.572 411.479 360.262 395.637 370.468 381.47C380.674 367.304 400.172 352.223 407.332 338.209C414.491 324.194 410.074 303.63 416.167 276.21C422.26 248.791 423.022 243.459 414.339 233.558C405.656 223.656 396.059 216.192 389.205 205.377C392.251 195.475 401.086 169.275 403.219 158.916C405.199 148.558 405.199 135 407.332 127.689C409.465 120.377 411.902 115.807 412.664 108.19C413.273 100.726 415.405 72.0881 408.246 60.2064C401.086 48.3246 389.052 46.4967 379.151 58.2261C369.402 69.9555 369.097 93.8713 368.335 105.296C367.726 116.721 354.93 136.676 347.923 153.432C340.916 170.189 334.975 189.23 333.604 192.276C332.081 195.323 327.359 189.992 330.71 174.911C333.909 159.83 331.624 154.042 331.624 154.042C331.624 154.042 337.108 146.425 336.651 139.418C339.24 137.133 345.638 124.49 345.638 116.111C345.638 107.733 341.525 101.64 338.479 100.574C338.174 97.527 337.565 95.0899 325.531 93.4143C313.497 91.7387 311.212 99.355 311.212 99.355C311.212 99.355 301.158 97.984 293.846 100.269C289.124 98.746 279.527 97.223 272.063 104.077C267.798 102.554 261.704 107.733 261.704 107.733C261.704 107.733 254.088 106.819 247.995 110.628C245.558 107.581 236.875 102.249 231.086 104.382C225.298 106.515 223.47 109.257 221.489 110.475C219.509 111.694 203.362 114.588 200.62 116.873C197.878 119.158 177.466 153.889 175.638 159.83C173.81 165.771 176.552 208.271 176.857 215.888C177.161 223.504 174.115 248.182 174.419 260.368C174.724 272.402 176.095 291.291 174.419 316.73C172.591 342.169 177.314 364.409 173.353 378.271C169.393 392.133 164.823 409.194 147 448.8" stroke="#75819C" stroke-width="2" stroke-miterlimit="10"/>
<path d="M214.025 212.233C216.463 205.073 219.357 198.066 218.748 184.357C218.138 170.495 221.642 139.724 223.165 134.392C224.688 128.908 229.563 113.828 248.147 110.324" stroke="#75819C" stroke-width="2" stroke-miterlimit="10"/>
<path d="M258.657 204.005C264.141 199.588 267.035 195.322 268.406 189.991C269.93 184.812 274.5 142.159 277.241 129.364C279.983 116.568 282.421 104.534 293.845 99.9639" stroke="#75819C" stroke-width="2" stroke-miterlimit="10"/>
<path d="M383.111 297.536C381.131 292.357 379.912 288.701 377.018 284.893C377.018 279.409 377.322 244.221 381.892 227.312C386.462 210.404 401.086 169.122 403.219 158.612C405.199 148.253 405.199 134.696 407.331 127.384C409.464 120.072 411.901 115.502 412.663 107.886C413.272 100.421 415.405 71.7834 408.245 59.9017C401.086 48.0199 389.052 46.192 379.15 57.9214C369.401 69.6508 369.097 93.5666 368.335 104.991C367.726 116.416 354.93 136.371 347.923 153.128C340.916 169.884 334.975 188.925 333.604 191.972C330.862 199.588 327.054 204.92 325.073 206.595" stroke="#F69AED" stroke-width="3" stroke-miterlimit="10" stroke-linecap="round"/>
<g opacity="0.5">
<path d="M406.113 64.6237C405.656 68.4319 403.981 71.9355 401.848 75.1344C401.239 75.8961 400.629 76.6577 399.868 77.2671C399.715 77.4194 399.411 77.5717 399.258 77.7241C399.106 77.8764 398.801 78.0287 398.497 78.181C398.04 78.4857 397.278 78.4857 396.821 78.4857C394.841 78.4857 393.013 78.181 391.185 77.8764C389.357 77.4194 387.529 76.9624 385.701 76.2008C384.787 75.7438 383.873 75.2868 383.111 74.6775C382.654 74.3728 382.35 73.9158 382.045 73.4588L381.74 72.6972C381.74 72.3925 381.588 72.2402 381.588 71.9355C380.979 67.9749 382.045 64.319 383.111 60.6631C382.807 62.491 382.502 64.319 382.35 66.147C382.197 67.9749 382.197 69.8029 382.654 71.4785L382.807 72.0878L383.111 72.6972C383.264 73.0018 383.568 73.3065 383.873 73.6111C384.482 74.0681 385.396 74.5251 386.158 74.8298C387.834 75.4391 389.662 75.8961 391.337 76.3531C393.165 76.6577 394.993 76.9624 396.821 77.1147C398.344 77.267 399.715 75.7438 400.782 74.5251C402 73.1541 402.914 71.4785 403.828 69.9552C404.895 68.1273 405.504 66.4516 406.113 64.6237Z" fill="#75819C"/>
</g>
</svg>
