<svg width="900" height="500" viewBox="0 0 900 500" fill="none" xmlns="http://www.w3.org/2000/svg">
<path opacity="0.33" d="M694.391 428.438C687.6 414.134 682.831 400.841 680.953 371.365C679.075 341.888 682.687 339.577 680.953 316.314C679.219 293.051 677.485 298.108 679.219 280.624C680.809 263.141 671.272 240.456 671.128 231.931C670.983 223.406 671.706 194.219 669.105 180.493C666.504 166.766 660.435 157.952 656.101 134.4C651.766 110.848 635.294 95.5321 624.746 98.9999C614.198 102.468 612.465 113.449 613.765 117.495C609.141 108.392 606.107 103.046 603.217 99.5778C600.327 96.11 591.947 92.0643 591.947 92.0643C591.947 92.0643 578.943 89.319 573.886 101.023C569.695 101.89 569.695 110.993 569.84 113.449C568.828 107.958 566.95 100.156 565.361 97.6994C563.627 95.2431 560.303 91.3419 555.68 89.319C551.056 87.2961 539.208 88.0186 536.174 90.4749C533.139 92.9312 527.649 97.9884 528.082 102.901C528.516 107.958 530.105 112.437 530.394 125.297C530.683 138.157 534.873 165.321 535.74 172.112C536.607 178.903 548.311 241.468 548.311 241.468C548.311 241.468 547.877 242.479 547.155 241.757C546.577 241.034 532.85 164.743 527.938 153.473C529.816 141.48 530.972 107.525 523.169 100.011C519.846 92.4978 499.617 86.5737 491.959 103.479C484.301 120.24 486.758 150.294 485.313 161.853C483.868 173.413 485.457 199.132 486.902 206.79C485.891 198.987 483.29 191.763 478.811 187.284C474.332 182.804 466.963 178.325 461.761 176.447C457.571 175.002 452.225 176.88 449.913 179.192C449.19 179.915 448.179 180.637 447.167 180.782C446.011 181.07 445 181.937 445 181.937C445 184.394 446.878 196.675 453.669 208.813C451.936 211.414 454.247 222.25 452.369 229.908C450.491 237.422 448.323 242.624 451.647 251.293C450.346 253.605 452.08 259.962 454.97 262.274C453.236 267.62 455.403 274.411 461.183 288.571C468.407 306.344 464.795 325.995 469.852 336.109C474.91 346.223 480.978 349.691 487.625 360.094C494.127 370.498 519.557 403.008 529.96 411.244C540.364 419.48 544.698 428.294 544.698 428.294H694.391V428.438Z" fill="#445272"/>
<path d="M694.391 428.438C687.6 414.134 682.831 400.841 680.953 371.365C679.075 341.888 682.687 339.577 680.953 316.314C679.219 293.051 677.485 298.108 679.219 280.624C680.809 263.141 671.272 240.456 671.128 231.931C670.983 223.406 671.706 194.219 669.105 180.492C666.504 166.766 662.603 156.652 656.101 134.4C648.876 109.548 635.294 95.532 624.746 98.9998C614.198 102.468 612.465 113.449 613.765 117.495C609.141 108.392 606.107 103.046 603.217 99.5778C601.05 96.9769 595.126 92.4977 590.213 91.7753C586.601 91.1973 577.787 91.9198 573.886 100.878C570.129 102.179 569.695 110.848 569.84 113.304C568.828 107.814 566.95 100.011 565.361 97.5549C563.627 95.0986 560.303 91.1973 555.68 89.1745C551.056 87.1516 539.208 87.874 536.174 90.3304C533.139 92.7867 527.649 97.8439 528.082 102.757C528.516 107.814 530.105 112.293 530.394 125.153C530.683 138.012 534.873 165.177 535.74 171.968C536.607 178.759 548.311 241.323 548.311 241.323C548.311 241.323 547.877 242.334 547.155 241.612C546.577 240.89 532.85 164.599 527.938 153.328C529.816 141.336 530.972 107.38 523.169 99.8668C519.846 92.3532 499.617 86.4291 491.959 103.335C484.301 120.095 486.758 150.149 485.313 161.709C483.868 173.268 485.457 198.987 486.902 206.645C485.891 198.843 483.29 191.618 478.811 187.139C474.332 182.66 466.963 178.181 461.761 176.302C457.571 174.857 452.225 176.736 449.913 179.192C449.046 180.059 447.89 180.926 446.589 181.07C445.578 181.215 445 181.504 445 181.504C445 183.816 446.589 194.942 452.225 206.067C452.947 207.512 453.38 209.102 453.091 210.691C452.513 214.881 453.958 223.551 452.369 229.764C450.491 237.277 448.323 242.479 451.647 251.148C451.936 255.772 453.38 260.396 454.97 262.13C454.536 268.343 455.403 274.267 461.183 288.427C468.407 306.199 464.795 325.85 469.852 335.964C474.91 346.079 480.978 349.546 487.625 359.95C494.127 370.353 519.557 402.863 529.96 411.099C540.364 419.335 544.698 428.149 544.698 428.149" stroke="#697695" stroke-width="2" stroke-miterlimit="10"/>
<path d="M491.815 328.884C492.248 321.515 495.571 308.944 495.86 304.465C496.294 299.986 494.994 306.344 494.705 286.982C494.56 267.476 492.826 236.844 489.647 223.117C486.469 209.39 487.336 206.645 485.891 201.732" stroke="#697695" stroke-width="2" stroke-miterlimit="10"/>
<path d="M597.726 228.897C594.548 224.129 590.935 215.749 590.502 193.497C590.068 171.245 583.422 165.899 582.988 150.583C582.555 135.267 571.574 130.355 569.695 113.594" stroke="#697695" stroke-width="2" stroke-miterlimit="10"/>
<path d="M636.74 223.406C636.884 217.915 637.029 190.173 634.139 173.557C631.249 156.94 628.359 150.583 624.891 143.213C621.279 135.7 615.21 124.285 613.477 117.639" stroke="#697695" stroke-width="2" stroke-miterlimit="10"/>
<g opacity="0.5">
<path d="M453.092 182.805C454.392 183.094 455.548 183.816 456.704 184.683C457.715 185.695 458.438 186.85 458.871 188.151C459.594 190.752 460.316 193.208 460.75 195.953C461.183 198.554 461.617 201.299 461.328 204.045C461.328 204.767 461.039 205.49 460.894 206.068C460.605 206.79 460.172 207.368 459.594 207.802C458.438 208.813 456.993 208.957 455.693 208.524C456.993 208.669 458.293 208.235 459.16 207.224C460.027 206.357 460.172 205.056 460.172 203.756C460.172 201.155 459.738 198.554 459.305 196.098C458.871 193.497 458.293 190.896 457.716 188.44C457.282 186.128 455.548 183.961 453.092 182.805Z" fill="#B1BBD0"/>
</g>
<path opacity="0.33" d="M293.723 448.925C300.694 440.439 302.209 433.014 310.241 429.832C318.272 426.649 329.335 416.496 335.245 409.677C341.155 402.706 370.856 367.701 378.736 360.881C386.616 354.062 392.072 346.03 393.587 341.787C395.254 337.544 395.709 324.209 397.83 314.207C399.952 304.054 400.558 299.356 405.104 286.021C409.65 272.685 414.5 260.411 411.317 258.441C413.136 256.774 412.681 248.288 412.378 245.863C412.075 243.287 411.469 225.708 412.075 224.496C412.681 223.284 416.621 215.707 418.44 209.494C420.258 203.129 421.016 192.218 419.955 190.551C418.894 188.733 401.013 180.095 383.434 203.735C366.007 227.375 362.825 243.135 365.098 251.925C359.188 255.865 360.855 265.109 357.066 272.382C353.278 279.656 353.732 286.172 353.732 286.172C353.732 286.172 347.065 290.719 344.64 297.538C342.064 304.357 345.852 272.079 348.429 258.592C351.005 245.105 354.036 236.316 360.855 222.375C367.523 208.584 374.796 186.157 376.16 178.58C377.524 171.003 376.16 162.971 383.434 147.666C390.708 132.36 390.405 111.145 384.495 101.446C378.585 91.5963 366.159 90.9901 360.097 97.961C354.036 104.932 350.399 108.872 345.852 123.874C341.306 138.876 341.155 141.907 329.638 162.365C318.121 182.823 302.815 226.315 301.3 228.133C299.785 229.951 295.238 230.103 294.026 227.83C292.814 225.557 291.905 217.677 294.026 210.403C296.148 203.129 300.845 191.764 303.725 174.943C306.604 158.122 307.21 153.121 313.878 139.331C320.545 125.541 320.394 114.782 321.606 111.599C322.819 108.569 334.639 79.0185 322.819 65.2285C322.97 59.7731 304.179 55.0753 298.421 60.6823C292.814 66.2892 289.783 75.9877 288.874 78.867C287.965 81.7462 284.176 89.9293 282.358 99.779C275.538 99.325 266.446 106.144 264.173 108.569C259.93 107.811 254.02 108.72 251.444 110.993C248.867 113.115 245.534 114.479 244.927 114.933C244.321 115.388 242.351 110.236 239.472 108.872C236.744 107.356 231.895 106.599 225.833 112.509C219.772 118.419 218.711 121.753 210.831 128.269C202.951 134.785 186.888 163.274 183.099 175.094C179.159 187.066 177.947 176.913 171.734 203.281C165.521 229.8 167.794 243.287 163.551 253.592C159.308 263.896 154.459 276.929 154.307 293.446C154.155 309.964 156.126 338.908 155.974 356.335C155.822 373.762 160.066 383.461 148.094 412.708C136.122 442.106 129 449.077 129 449.077H293.723V448.925Z" fill="#445272"/>
<path d="M293.723 448.925C300.694 440.439 302.209 433.014 310.241 429.832C318.272 426.649 329.335 416.496 335.245 409.677C341.155 402.706 370.856 367.701 378.736 360.881C386.616 354.062 392.072 346.03 393.587 341.787C395.254 337.544 395.709 324.209 397.83 314.207C399.952 304.054 400.558 299.356 405.104 286.021C409.65 272.685 414.5 260.411 411.317 258.441C413.136 256.774 412.681 248.288 412.378 245.863C412.075 243.287 411.469 225.708 412.075 224.496C412.681 223.284 416.621 215.707 418.44 209.494C420.258 203.129 421.016 192.218 419.955 190.551C418.894 188.733 401.013 180.095 383.434 203.735C366.007 227.375 362.825 243.135 365.098 251.925C359.188 255.865 360.855 265.109 357.066 272.382C353.278 279.656 353.732 286.172 353.732 286.172C353.732 286.172 347.065 290.719 344.64 297.538C342.064 304.357 345.852 272.079 348.429 258.592C351.005 245.105 354.036 236.316 360.855 222.375C367.523 208.584 374.796 186.157 376.16 178.58C377.524 171.003 376.16 162.971 383.434 147.666C390.708 132.36 390.405 111.145 384.495 101.446C378.585 91.5963 366.159 90.9901 360.097 97.961C354.036 104.932 350.399 108.872 345.852 123.874C341.306 138.876 341.155 141.907 329.638 162.365C318.121 182.823 302.815 226.315 301.3 228.133C299.785 229.951 295.238 230.103 294.026 227.83C292.814 225.557 291.905 217.677 294.026 210.403C296.148 203.129 300.845 191.764 303.725 174.943C306.604 158.122 307.21 153.121 313.878 139.331C320.545 125.541 320.394 114.782 321.606 111.599C322.819 108.569 334.639 79.0185 322.819 65.2285C322.97 59.7731 304.179 55.0753 298.421 60.6823C292.814 66.2892 289.783 75.9877 288.874 78.867C287.965 81.7462 284.176 89.9293 282.358 99.779C275.538 99.325 266.446 106.144 264.173 108.569C259.93 107.811 254.02 108.72 251.444 110.993C248.867 113.115 245.534 114.479 244.927 114.933C244.321 115.388 242.351 110.236 239.472 108.872C236.744 107.356 231.895 106.599 225.833 112.509C219.772 118.419 218.711 121.753 210.831 128.269C202.951 134.785 186.888 163.274 183.099 175.094C179.159 187.066 177.947 176.913 171.734 203.281C165.521 229.8 167.794 243.287 163.551 253.592C159.308 263.896 154.459 276.929 154.307 293.446C154.155 309.964 156.126 338.908 155.974 356.335C155.822 373.762 160.066 383.461 148.094 412.708C136.122 442.106 129 449.077 129 449.077" stroke="#697695" stroke-width="2" stroke-miterlimit="10"/>
<path d="M184.766 230.556C190.221 221.464 190.221 216.312 190.221 211.008C190.221 205.704 190.221 194.49 192.494 187.671C194.767 180.851 194.464 174.941 195.828 168.88C197.192 162.97 198.101 158.424 210.073 147.361C222.044 136.299 222.347 127.964 244.624 114.629" stroke="#697695" stroke-width="2" stroke-miterlimit="10"/>
<path d="M223.408 241.771C230.227 234.648 234.774 219.04 239.926 200.249C245.078 181.458 249.018 161.91 252.352 156C252.352 152.969 255.686 142.209 265.081 128.571C274.628 114.932 281.902 99.627 281.902 99.627C283.872 89.6254 287.509 81.4423 288.418 78.7146C289.328 75.8354 292.358 66.1369 297.965 60.5299C303.572 54.923 322.515 59.6207 322.363 65.0761C334.183 78.8662 322.363 108.416 321.151 111.447C319.939 114.478 320.242 125.237 313.422 139.179C306.755 152.969 305.997 157.97 303.269 174.79C300.39 191.611 295.692 202.977 293.571 210.251C291.449 217.524 292.358 225.404 293.571 227.678" stroke="#BA6DCD" stroke-width="3" stroke-miterlimit="10" stroke-linecap="round"/>
<g opacity="0.5">
<path d="M416.621 192.369C414.954 192.672 413.439 193.43 412.227 194.339C410.863 195.248 409.802 196.461 408.741 197.673C406.62 200.098 404.953 202.977 403.589 205.856C402.831 207.371 402.377 208.887 401.922 210.402C401.619 211.918 401.619 213.433 401.922 215.1C402.225 216.615 402.983 218.131 403.892 219.495C404.801 220.858 405.862 222.071 407.074 223.132C404.195 221.465 401.77 218.737 400.861 215.403C400.407 213.736 400.255 211.918 400.558 210.251C400.861 208.584 401.467 206.917 402.225 205.402C403.589 202.371 405.559 199.491 407.832 197.067C409.044 195.855 410.408 194.794 411.772 193.885C413.287 192.975 414.954 192.369 416.621 192.369Z" fill="#B1BBD0"/>
</g>
<g opacity="0.5">
<path d="M320.091 67.5C319.485 70.2277 318.424 72.9554 316.909 75.38C315.394 77.8046 313.272 79.9262 310.696 81.4416C309.484 82.1993 307.817 82.6539 306.453 82.8054C304.937 82.9569 303.574 82.8054 302.058 82.6539C299.179 82.3508 296.451 81.4416 293.875 80.3808C296.603 80.8354 299.482 81.29 302.21 81.4416C304.937 81.5931 307.817 81.5931 309.938 80.0777C312.363 78.7138 314.333 76.8954 316 74.6223C317.515 72.6523 318.879 70.0761 320.091 67.5Z" fill="#B1BBD0"/>
</g>
</svg>
