<svg width="900" height="500" viewBox="0 0 900 500" fill="none" xmlns="http://www.w3.org/2000/svg">
<path opacity="0.33" d="M512.283 419.258C501.388 408.582 492.069 399.592 484.471 392.287C473.432 381.611 467.841 376.273 466.407 375.009C458.952 368.828 453.934 366.018 448.343 358.573C446.336 356.045 443.469 352.252 441.462 346.493C439.598 341.435 439.311 337.783 438.594 328.793C437.734 318.819 437.304 313.762 436.874 309.267C435.584 297.046 434.724 290.162 432.143 281.172C430.853 276.958 429.849 274.289 428.989 269.091C428.272 264.877 427.412 259.82 428.559 253.779C429.132 250.83 429.706 249.987 431.283 244.649C433.003 238.889 434.15 234.113 434.867 231.023C434.007 228.494 433.003 224.982 432 220.628C431.139 217.256 430.566 214.868 430.136 211.778C429.706 208.687 429.276 204.192 429.419 198.714C430.566 198.433 431.569 198.011 432.716 197.73C433.863 197.309 435.727 196.606 438.021 196.185C439.885 195.904 446.193 194.78 451.354 198.011C452.501 198.714 452.787 199.275 455.511 202.366C462.679 210.654 462.536 209.811 464.113 212.059C468.988 218.661 470.564 225.263 471.425 229.056C472.715 234.535 472.715 238.889 472.858 243.806C472.858 248.582 472.572 252.515 472.285 255.465C471.855 256.449 471.425 257.572 470.851 258.556C471.281 259.398 471.711 260.241 472.141 261.084C473.002 262.208 473.862 263.472 474.722 264.877C477.589 269.794 478.163 274.57 478.306 277.66C478.306 281.593 479.166 284.262 479.883 285.948C480.457 287.212 481.03 288.055 484.614 293.253C486.048 295.219 487.195 296.905 488.055 298.169C488.485 295.641 489.058 291.848 489.489 287.353C489.919 282.717 490.062 277.098 489.202 263.472C488.772 256.589 488.485 250.97 487.625 242.682C485.904 226.668 484.471 221.189 483.037 210.654C481.03 194.921 480.17 185.649 481.604 173.99C481.89 171.181 482.607 167.107 483.181 160.224C483.897 151.795 483.754 149.407 484.327 142.524C485.188 130.864 485.618 124.965 487.912 118.081C490.205 110.777 492.643 103.332 499.667 100.101C504.112 97.9935 508.556 98.4149 509.273 98.5554C514.864 99.2578 518.448 102.489 519.452 103.472C522.606 106.422 523.896 109.653 524.613 111.9C526.046 115.974 526.476 119.767 526.046 127.353C525.473 136.343 524.613 137.888 524.039 144.771C523.179 154.324 524.039 161.769 524.613 166.124C525.616 174.131 526.476 174.692 529.057 187.757C530.204 193.656 530.921 198.573 532.354 208.406C533.358 215.43 534.648 224.561 535.938 235.518C537.515 235.518 539.092 235.377 540.669 235.377C539.809 229.899 538.519 222.173 537.085 212.621C534.792 197.59 533.645 190.004 533.071 180.592C532.211 167.809 531.781 159.943 533.645 151.795C534.075 150.109 534.935 146.457 535.508 141.26C536.225 135.36 535.652 134.798 536.225 129.179C537.085 120.048 539.379 114.289 539.953 112.743C541.53 108.81 542.533 106.281 545.114 103.753C546.404 102.348 549.988 98.9768 555.723 98.134C561.314 97.4316 565.615 99.6792 566.905 100.522C571.493 103.051 573.643 106.843 574.36 108.248C575.937 111.058 576.224 113.446 576.797 116.817C577.514 121.874 577.371 125.807 577.227 127.212C576.941 133.814 577.371 140.417 577.371 146.879C577.227 159.24 578.804 170.338 580.955 185.93C582.245 195.764 584.252 207.704 587.263 221.189C589.7 222.032 592.28 222.875 594.718 223.718C596.295 219.785 598.302 213.885 599.449 206.58C600.452 199.697 600.309 194.499 599.879 185.649C599.305 173.288 597.872 164.016 597.442 161.769C595.865 151.936 594.718 145.333 591.85 136.624C590.56 132.691 588.696 127.774 587.836 120.61C587.263 115.272 587.549 111.76 588.84 108.529C589.7 106.281 590.99 102.91 594.431 100.803C600.596 97.1506 608.337 101.084 609.054 101.505C612.208 103.191 613.785 105.439 617.082 109.793C620.953 114.991 623.247 119.627 623.964 121.172C625.828 124.965 626.401 126.931 630.989 142.243C634.573 154.043 636.437 159.943 637.01 161.347C637.727 162.893 639.017 165.843 640.021 170.057C641.024 174.131 641.168 177.221 641.168 179.047C641.598 191.83 641.741 198.292 641.598 202.787C641.311 211.216 640.594 222.594 638.874 236.642C639.734 236.782 640.881 237.063 642.314 237.063C643.748 237.063 645.468 236.923 647.189 236.22C649.483 235.377 651.06 234.113 653.353 231.865C658.371 226.949 661.238 222.173 661.525 221.751C663.962 217.818 667.977 212.34 674.285 205.878C676.292 201.523 678.586 196.887 681.166 192.111C684.033 186.773 687.044 181.857 689.911 177.361C689.911 175.957 689.911 173.85 690.055 171.181C690.341 163.174 690.341 159.24 690.915 156.431C691.632 153.2 693.065 145.895 699.23 140.979C701.094 139.433 706.398 135.079 713.566 136.062C719.874 136.905 723.602 141.4 724.462 142.664C724.605 146.457 724.605 150.39 724.749 154.324C724.892 161.066 724.892 167.809 724.749 174.412C724.462 176.238 724.175 178.064 723.889 179.89C720.878 193.516 713.423 215.149 708.405 226.949C705.538 233.692 700.664 244.227 694.929 253.499C693.209 256.168 691.918 258.275 691.918 258.275C686.614 266.141 684.32 268.108 681.309 273.024C678.299 277.941 676.722 282.296 676.148 284.122C672.994 293.815 675.432 296.624 671.991 305.334C671.417 306.879 670.27 309.407 669.554 313.2C668.98 316.431 668.98 318.819 668.98 320.364C668.98 331.181 669.697 336.659 669.697 344.807C669.697 346.633 669.554 349.162 669.267 354.219C668.693 363.63 668.407 368.407 667.69 373.885C666.543 382.454 665.683 382.173 665.109 388.775C664.679 393.411 664.249 398.047 665.396 403.947C666.113 407.599 667.546 413.218 671.704 419.68C618.229 419.399 565.328 419.258 512.283 419.258Z" fill="#445272"/>
<path d="M512.283 419.258C501.388 408.582 492.069 399.592 484.471 392.287C473.432 381.611 467.841 376.273 466.407 375.009C458.952 368.828 453.934 366.018 448.343 358.573C446.336 356.045 443.469 352.252 441.462 346.493C439.598 341.435 439.311 337.783 438.594 328.793C437.734 318.819 437.304 313.762 436.874 309.267C435.584 297.046 434.724 290.162 432.143 281.172C430.853 276.958 429.849 274.289 428.989 269.091C428.272 264.877 427.412 259.82 428.559 253.779C429.132 250.83 429.706 249.987 431.283 244.649C433.003 238.889 434.15 234.113 434.867 231.023C434.007 228.494 433.003 224.982 432 220.628C431.139 217.256 430.566 214.868 430.136 211.778C429.706 208.687 429.276 204.192 429.419 198.714C430.566 198.433 431.569 198.011 432.716 197.73C433.863 197.309 435.727 196.606 438.021 196.185C439.885 195.904 446.193 194.78 451.354 198.011C452.501 198.714 452.787 199.275 455.511 202.366C462.679 210.654 462.536 209.811 464.113 212.059C468.988 218.661 470.564 225.263 471.425 229.056C472.715 234.535 472.715 238.889 472.858 243.806C472.858 248.582 472.572 252.515 472.285 255.465C471.855 256.449 471.425 257.572 470.851 258.556C471.281 259.398 471.711 260.241 472.141 261.084C473.002 262.208 473.862 263.472 474.722 264.877C477.589 269.794 478.163 274.57 478.306 277.66C478.306 281.593 479.166 284.262 479.883 285.948C480.457 287.212 481.03 288.055 484.614 293.253C486.048 295.219 487.195 296.905 488.055 298.169C488.485 295.641 489.058 291.848 489.489 287.353C489.919 282.717 490.062 277.098 489.202 263.472C488.772 256.589 488.485 250.97 487.625 242.682C485.904 226.668 484.471 221.189 483.037 210.654C481.03 194.921 480.17 185.649 481.604 173.99C481.89 171.181 482.607 167.107 483.181 160.224C483.897 151.795 483.754 149.407 484.327 142.524C485.188 130.864 485.618 124.965 487.912 118.081C490.205 110.777 492.643 103.332 499.667 100.101C504.112 97.9935 508.556 98.4149 509.273 98.5554C514.864 99.2578 518.448 102.489 519.452 103.472C522.606 106.422 523.896 109.653 524.613 111.9C526.046 115.974 526.476 119.767 526.046 127.353C525.473 136.343 524.613 137.888 524.039 144.771C523.179 154.324 524.039 161.769 524.613 166.124C525.616 174.131 526.476 174.692 529.057 187.757C530.204 193.656 530.921 198.573 532.354 208.406C533.358 215.43 534.648 224.561 535.938 235.518C537.515 235.518 539.092 235.377 540.669 235.377C539.809 229.899 538.519 222.173 537.085 212.621C534.792 197.59 533.645 190.004 533.071 180.592C532.211 167.809 531.781 159.943 533.645 151.795C534.075 150.109 534.935 146.457 535.508 141.26C536.225 135.36 535.652 134.798 536.225 129.179C537.085 120.048 539.379 114.289 539.953 112.743C541.53 108.81 542.533 106.281 545.114 103.753C546.404 102.348 549.988 98.9768 555.723 98.134C561.314 97.4316 565.615 99.6792 566.905 100.522C571.493 103.051 573.643 106.843 574.36 108.248C575.937 111.058 576.224 113.446 576.797 116.817C577.514 121.874 577.371 125.807 577.227 127.212C576.941 133.814 577.371 140.417 577.371 146.879C577.227 159.24 578.804 170.338 580.955 185.93C582.245 195.764 584.252 207.704 587.263 221.189C589.7 222.032 592.28 222.875 594.718 223.718C596.295 219.785 598.302 213.885 599.449 206.58C600.452 199.697 600.309 194.499 599.879 185.649C599.305 173.288 597.872 164.016 597.442 161.769C595.865 151.936 594.718 145.333 591.85 136.624C590.56 132.691 588.696 127.774 587.836 120.61C587.263 115.272 587.549 111.76 588.84 108.529C589.7 106.281 590.99 102.91 594.431 100.803C600.596 97.1506 608.337 101.084 609.054 101.505C612.208 103.191 613.785 105.439 617.082 109.793C620.953 114.991 623.247 119.627 623.964 121.172C625.828 124.965 626.401 126.931 630.989 142.243C634.573 154.043 636.436 159.943 637.01 161.347C637.727 162.893 639.017 165.843 640.021 170.057C641.024 174.131 641.168 177.221 641.168 179.047C641.598 191.83 641.741 198.292 641.598 202.787C641.311 211.216 640.594 222.594 638.874 236.642C639.734 236.782 640.881 237.063 642.314 237.063" stroke="#697695" stroke-width="2" stroke-miterlimit="10"/>
<path d="M681.167 272.744C678.156 277.661 676.579 282.015 676.006 283.842C672.852 293.534 675.289 296.344 671.848 305.053C671.275 306.598 670.128 309.127 669.411 312.92C668.838 316.151 668.838 318.539 668.838 320.084C668.838 330.901 669.554 336.379 669.554 344.527C669.554 346.353 669.411 348.881 669.124 353.938C668.551 363.35 668.264 368.126 667.547 373.605C666.4 382.174 665.54 381.893 664.967 388.495C664.537 393.131 664.107 397.766 665.254 403.666C665.97 407.319 667.404 412.937 671.562 419.399" stroke="#697695" stroke-width="2" stroke-miterlimit="10"/>
<path d="M642.458 236.783C643.892 236.783 645.612 236.642 647.332 235.94C649.626 235.097 651.203 233.833 653.497 231.585C658.515 226.669 661.382 221.892 661.669 221.471C664.106 217.538 668.12 212.059 674.428 205.597C676.435 201.243 678.729 196.607 681.31 191.831C684.177 186.493 687.188 181.576 690.055 177.081C690.055 175.676 690.055 173.569 690.198 170.9C690.485 162.893 690.485 158.96 691.058 156.15C691.775 152.92 693.209 145.615 699.373 140.698C701.237 139.153 706.542 134.798 713.71 135.782C720.018 136.625 723.745 141.12 724.606 142.384C724.749 146.177 724.749 150.11 724.892 154.043C725.036 160.786 725.036 167.529 724.892 174.131C724.606 175.957 724.319 177.783 724.032 179.61C721.021 193.236 713.567 214.869 708.549 226.669C705.681 233.411 700.807 243.947 695.073 253.218C693.352 255.887 692.062 257.994 692.062 257.994C686.757 265.861 684.464 267.828 681.453 272.744" stroke="#BA6DCD" stroke-width="3" stroke-miterlimit="10" stroke-linecap="round"/>
<g opacity="0.5">
<path d="M708.119 141.119C708.119 143.507 708.119 146.036 708.119 148.424C708.262 150.812 708.405 153.2 708.835 155.588C708.979 156.15 709.122 156.712 709.266 157.274C709.409 157.836 709.552 158.257 709.982 158.678C710.699 159.521 711.703 160.083 712.706 160.645C714.857 161.769 717.151 162.471 719.588 162.752C717.151 163.033 714.57 162.612 712.133 161.628C710.986 161.207 709.839 160.505 708.835 159.521C708.405 159.1 707.975 158.257 707.832 157.695C707.689 157.133 707.545 156.431 707.402 155.869C706.972 153.481 706.828 150.952 706.972 148.564C707.115 145.895 707.545 143.367 708.119 141.119Z" fill="#B1BBD0"/>
</g>
<g opacity="0.5">
<path d="M439.024 228.214C440.027 227.371 440.601 226.388 440.887 225.264C441.174 224.14 441.174 223.016 441.174 221.893C441.174 220.769 441.031 219.505 440.887 218.381L440.6 214.869C440.457 212.481 440.314 210.093 439.74 207.845C439.454 206.721 439.167 205.598 438.593 204.474C438.163 203.491 437.447 202.507 436.156 201.945C437.447 202.086 438.45 203.069 439.167 204.052C439.884 205.176 440.314 206.3 440.744 207.424C441.461 209.812 441.747 212.2 441.891 214.588C442.034 216.976 442.321 219.364 442.178 221.893C442.178 223.157 441.891 224.421 441.461 225.545C441.031 226.669 440.17 227.652 439.024 228.214Z" fill="#B1BBD0"/>
</g>
<path opacity="0.33" d="M245.412 421.41C250.963 414.611 268.585 388.386 284.958 376.037C301.331 363.688 350.868 327.75 358.083 319.84C365.298 312.07 366.825 304.161 371.126 290.146C375.428 276.132 391.662 238.945 393.327 233.672C394.992 228.4 394.576 215.357 396.38 209.112V206.892C396.38 206.892 408.036 179.28 406.925 175.811C405.954 172.342 394.16 169.844 384.724 172.758C375.289 175.533 363.356 189.964 358.916 197.179C354.475 204.395 348.093 215.495 350.451 224.931C347.676 225.208 346.15 227.428 345.734 229.232C345.317 231.036 335.743 253.515 335.743 253.515C335.743 253.515 331.858 254.763 329.222 257.4C326.585 260.036 325.475 263.644 325.475 263.644C325.475 263.644 321.729 261.285 321.035 259.342C320.341 257.4 324.504 239.223 329.638 227.428C334.772 215.773 346.289 192.878 348.786 188.576C351.423 184.275 363.772 160.825 365.715 155.136C367.657 149.447 379.868 138.485 381.81 129.744C383.753 121.002 387.638 114.064 383.337 104.767C379.035 95.4706 370.294 95.0543 363.633 97.1357C356.973 99.3558 346.289 113.231 341.293 123.361C336.298 133.49 325.475 133.074 310.906 155.691C296.336 178.308 287.733 191.213 286.762 194.682C285.929 198.151 286.346 201.342 284.126 204.672C281.906 205.644 281.906 188.854 285.513 180.945C289.121 173.036 302.58 153.61 303.413 150.002C305.217 149.169 316.872 146.533 322.978 135.849C326.03 130.576 329.638 132.796 333.939 125.165C338.241 117.533 338.657 112.26 335.743 107.82C334.772 103.102 329.499 97.4132 318.399 99.6333C307.298 101.853 304.523 104.351 304.107 104.629C302.719 103.935 300.36 98.107 293.284 96.9969C286.068 95.7481 278.02 99.6333 274.551 101.715C270.389 101.576 261.092 102.131 256.374 105.6C250.546 105.045 240.695 105.6 234.451 109.208C237.087 104.351 243.054 89.7816 240.695 78.4035C238.475 67.0254 225.987 63.1402 223.35 63.0015C220.714 62.8627 216.135 72.5757 213.082 77.9872C209.891 83.3987 193.656 111.566 186.441 124.887C179.225 138.208 172.565 158.466 170.345 164.016C168.125 169.567 166.876 186.911 166.321 193.71C165.766 200.51 156.192 224.514 154.249 232.562C152.307 240.61 152.168 267.945 148.005 296.113C143.842 324.281 148.005 311.793 143.704 329.831C139.402 347.869 135.795 358.554 119.976 380.755C104.158 402.956 101.383 412.391 95 421.272H245.412V421.41Z" fill="#445272"/>
<path d="M245.412 421.41C250.963 414.611 268.585 388.386 284.958 376.037C301.331 363.688 350.868 327.75 358.083 319.84C365.298 312.07 366.825 304.161 371.126 290.146C375.428 276.132 391.662 238.945 393.327 233.672C394.992 228.4 394.576 215.357 396.38 209.112V206.892C396.38 206.892 408.036 179.28 406.925 175.811C405.954 172.342 394.16 169.844 384.724 172.758C375.289 175.533 363.356 189.964 358.916 197.179C354.475 204.395 348.093 215.495 350.451 224.931C347.676 225.208 346.15 227.428 345.734 229.232C345.317 231.036 335.743 253.515 335.743 253.515C335.743 253.515 331.858 254.763 329.222 257.4C326.585 260.036 325.475 263.644 325.475 263.644C325.475 263.644 321.729 261.285 321.035 259.342C320.341 257.4 324.504 239.223 329.638 227.428C334.772 215.773 346.289 192.878 348.786 188.576C351.423 184.275 363.772 160.825 365.715 155.136C367.657 149.447 379.868 138.485 381.81 129.744C383.753 121.002 387.638 114.064 383.337 104.767C379.035 95.4706 370.294 95.0543 363.633 97.1357C356.973 99.3558 346.289 113.231 341.293 123.361C336.298 133.49 325.475 133.074 310.906 155.691C296.336 178.308 287.733 191.213 286.762 194.682C285.929 198.151 286.346 201.342 284.126 204.672C281.906 205.644 281.906 188.854 285.513 180.945C289.121 173.036 302.58 153.61 303.413 150.002C305.217 149.169 316.872 146.533 322.978 135.849C326.03 130.576 329.638 132.796 333.939 125.165C338.241 117.533 338.657 112.26 335.743 107.82C334.772 103.102 329.499 97.4132 318.399 99.6333C307.298 101.853 304.523 104.351 304.107 104.629C302.719 103.935 300.36 98.107 293.284 96.9969C286.068 95.7481 278.02 99.6333 274.551 101.715C270.389 101.576 261.092 102.131 256.374 105.6C250.546 105.045 240.695 105.6 234.451 109.208C237.087 104.351 243.054 89.7816 240.695 78.4035C238.475 67.0254 225.987 63.1402 223.35 63.0015C220.714 62.8627 216.135 72.5757 213.082 77.9872C209.891 83.3987 193.656 111.566 186.441 124.887C179.225 138.208 172.565 158.466 170.345 164.016C168.125 169.567 166.876 186.911 166.321 193.71C165.766 200.51 156.192 224.514 154.249 232.562C152.307 240.61 152.168 267.945 148.005 296.113C143.842 324.281 148.005 311.793 143.704 329.831C139.402 347.869 135.795 358.554 119.976 380.755C104.158 402.956 101.383 412.391 95 421.272" stroke="#697695" stroke-width="2" stroke-miterlimit="10"/>
<path d="M234.59 109.208C237.226 104.351 243.193 89.7816 240.834 78.4035C238.614 67.0254 226.125 63.1402 223.489 63.0015C220.853 62.8627 216.274 72.5757 213.221 77.9872C210.03 83.3987 193.795 111.566 186.58 124.887C179.364 138.208 172.704 158.466 170.484 164.016C168.264 169.567 167.015 186.911 166.46 193.71" stroke="#BA6DCD" stroke-width="3" stroke-miterlimit="10" stroke-linecap="round"/>
<path d="M193.518 174.561C194.211 166.097 201.843 125.857 209.058 120.307C216.274 114.757 225.709 116.144 228.207 114.757C230.566 113.369 234.59 108.235 239.446 107.125" stroke="#697695" stroke-width="2" stroke-miterlimit="10"/>
<path d="M267.475 109.762C264.145 108.097 260.815 105.877 256.514 105.6Z" fill="#445272"/>
<path d="M267.475 109.762C264.145 108.097 260.815 105.877 256.514 105.6" stroke="#697695" stroke-width="2" stroke-miterlimit="10"/>
<path d="M219.743 198.151C225.293 197.18 229.179 191.491 235.7 174.563C242.222 157.634 254.987 122.529 263.035 117.395C271.083 112.261 281.212 114.758 284.126 114.065C287.04 113.371 291.203 110.179 299.667 110.734C308.131 111.289 317.983 117.533 317.983 117.533" stroke="#697695" stroke-width="2" stroke-miterlimit="10"/>
<path d="M304.246 104.768C304.246 104.768 300.499 106.988 297.169 110.734Z" fill="#445272"/>
<path d="M304.246 104.768C304.246 104.768 300.499 106.988 297.169 110.734" stroke="#697695" stroke-width="2" stroke-miterlimit="10"/>
<g opacity="0.5">
<path d="M403.456 176.782C401.791 176.643 400.265 177.06 398.877 177.892C397.49 178.725 396.241 179.696 395.27 180.945C394.16 182.194 393.188 183.304 392.217 184.691C391.662 185.385 391.385 186.079 390.83 186.634C390.413 187.328 389.997 188.021 389.72 188.715C388.332 191.629 387.638 194.682 387.499 197.873C387.499 199.399 387.638 201.064 388.193 202.591C388.609 204.117 389.581 205.505 391.246 206.06C389.581 205.921 388.332 204.395 387.638 202.868C386.944 201.342 386.667 199.677 386.528 198.012C386.389 196.347 386.667 194.682 386.944 193.017C387.361 191.351 387.777 189.825 388.471 188.299C388.887 187.466 389.303 186.772 389.72 186.079C390.136 185.385 390.691 184.691 391.107 183.997C392.078 182.749 393.188 181.361 394.437 180.251C395.686 179.141 397.074 178.031 398.6 177.337C399.988 176.504 401.791 176.366 403.456 176.782Z" fill="#B1BBD0"/>
</g>
<g opacity="0.5">
<path d="M227.791 67.7188C230.15 68.8288 231.954 71.0489 232.37 73.8241C232.647 75.2116 232.509 76.5992 231.954 77.848C231.399 79.0968 230.566 80.2069 229.733 81.1782C227.791 83.1208 225.432 84.3696 222.934 85.0633C220.437 85.7571 217.8 85.8959 215.303 85.3409C217.8 85.3409 220.298 84.7858 222.657 84.0921C225.016 83.2595 227.097 82.0107 228.762 80.2069C230.427 78.5418 231.537 76.3217 231.399 73.9628C231.121 71.6039 229.872 69.2451 227.791 67.7188Z" fill="#B1BBD0"/>
</g>
</svg>
