<svg width="900" height="500" viewBox="0 0 900 500" fill="none" xmlns="http://www.w3.org/2000/svg">
<path opacity="0.33" d="M327.41 430.327C329.284 428.02 337.356 419.659 346.15 410.865C354.943 402.072 372.963 371.078 378.297 364.88C383.631 358.681 397.758 343.4 401.218 335.76C404.677 328.12 400.929 303.613 401.218 295.973C401.506 288.333 405.11 251.861 402.659 242.347C400.209 232.832 396.316 228.94 393.145 222.309C389.973 215.678 389.397 213.66 386.514 211.641C383.631 209.623 385.36 192.324 385.937 189.874C386.514 187.423 388.532 176.323 388.532 172.431C388.532 168.539 388.532 157.439 391.559 149.222C394.586 141.005 392.568 116.354 387.379 108.57C382.189 100.785 378.008 98.9111 371.81 98.4786C365.611 98.0461 358.836 104.101 357.106 107.849C355.376 111.597 353.069 115.057 350.475 145.618C346.871 153.835 339.951 161.042 336.924 170.989C333.897 180.936 325.824 206.019 323.95 216.398C322.076 226.778 311.408 240.905 315.733 233.265C320.058 225.769 319.625 207.317 327.698 182.81C335.771 158.303 334.762 159.889 334.762 158.592C334.762 157.294 339.519 152.826 341.104 142.158C344.132 137.257 350.042 112.894 339.086 105.831C338.942 100.785 335.627 97.3254 326.545 95.8838C317.463 94.4422 314.147 96.7487 312.129 102.371C308.813 103.236 303.768 115.489 302.903 125.58C300.452 127.022 288.632 138.987 286.325 143.455C284.019 147.924 277.532 170.413 276.234 176.179C274.937 181.945 266.576 217.984 264.269 221.3C261.963 224.615 260.954 226.922 262.828 219.858C264.702 212.795 273.351 170.268 277.099 162.628C280.847 154.988 281.28 148.645 291.659 133.797C302.038 118.949 300.597 111.741 298.723 106.984C296.848 102.227 295.407 98.1903 286.613 96.7487C277.82 95.3072 272.774 102.659 272.774 102.659C272.774 102.659 267.441 104.245 254.611 118.084C251.872 112.75 248.124 108.714 248.124 108.714C248.124 108.714 245.385 102.947 237.6 101.794C229.816 100.641 226.644 109.002 226.212 112.029C223.617 112.029 218.283 123.994 216.409 135.959C214.535 148.068 211.508 165.367 208.336 175.602C205.165 185.837 203.147 194.343 202.426 201.839C201.705 209.335 197.669 219.858 196.948 229.661C196.227 239.464 184.839 267.574 184.262 276.512C183.542 285.449 183.974 316.011 183.109 323.074C182.244 330.138 180.947 353.924 183.109 367.619C185.271 381.169 184.262 393.711 181.956 400.486C179.649 407.261 171 429.75 171 429.75H327.41V430.327Z" fill="#445272"/>
<path d="M327.41 430.327C329.284 428.02 337.356 419.659 346.15 410.865C354.943 402.072 372.963 371.078 378.297 364.88C383.631 358.681 397.758 343.4 401.218 335.76C404.677 328.12 400.929 303.613 401.218 295.973C401.506 288.333 405.11 251.861 402.659 242.347C400.209 232.832 396.316 228.94 393.145 222.309C389.973 215.678 389.397 213.66 386.514 211.641C383.631 209.623 385.36 192.324 385.937 189.874C386.514 187.423 388.532 176.323 388.532 172.431C388.532 168.539 388.532 157.439 391.559 149.222C394.586 141.005 392.568 116.354 387.379 108.57C382.189 100.785 378.008 98.9111 371.81 98.4786C365.611 98.0461 358.836 104.101 357.106 107.849C355.376 111.597 353.069 115.057 350.475 145.618C346.871 153.835 339.951 161.042 336.924 170.989C333.897 180.936 325.824 206.019 323.95 216.398C322.076 226.778 311.408 240.905 315.733 233.265C320.058 225.769 319.625 207.317 327.698 182.81C335.771 158.303 334.762 159.889 334.762 158.592C334.762 157.294 339.519 152.826 341.104 142.158C344.132 137.257 350.042 112.894 339.086 105.831C338.942 100.785 335.627 97.3254 326.545 95.8838C317.463 94.4422 314.147 96.7487 312.129 102.371C308.813 103.236 303.768 115.489 302.903 125.58C300.452 127.022 288.632 138.987 286.325 143.455C284.019 147.924 277.532 170.413 276.234 176.179C274.937 181.945 266.576 217.984 264.269 221.3C261.963 224.615 260.954 226.922 262.828 219.858C264.702 212.795 273.351 170.268 277.099 162.628C280.847 154.988 281.28 148.645 291.659 133.797C302.038 118.949 300.597 111.741 298.723 106.984C296.848 102.227 295.407 98.1903 286.613 96.7487C277.82 95.3072 272.774 102.659 272.774 102.659C272.774 102.659 267.441 104.245 254.611 118.084C251.872 112.75 248.124 108.714 248.124 108.714C248.124 108.714 245.385 102.947 237.6 101.794C229.816 100.641 226.644 109.002 226.212 112.029C223.617 112.029 218.283 123.994 216.409 135.959C214.535 148.068 211.508 165.367 208.336 175.602C205.165 185.837 203.147 194.343 202.426 201.839C201.705 209.335 197.669 219.858 196.948 229.661C196.227 239.464 184.839 267.574 184.262 276.512C183.542 285.449 183.974 316.011 183.109 323.074C182.244 330.138 180.947 353.924 183.109 367.619C185.271 381.169 184.262 393.711 181.956 400.486C179.649 407.261 171 429.75 171 429.75" stroke="#697695" stroke-width="2" stroke-miterlimit="10"/>
<path d="M212.805 225.912C216.841 221.588 220.157 214.957 220.445 208.037C220.733 201.118 220.012 165.223 229.094 151.528C238.176 137.833 254.754 118.66 254.754 118.66" stroke="#697695" stroke-width="2" stroke-miterlimit="10"/>
<path d="M373.826 309.957C371.808 306.208 369.357 303.758 369.357 300.875C369.357 297.992 370.943 264.98 372.673 253.159C374.259 241.338 382.331 207.173 385.07 200.109" stroke="#697695" stroke-width="2" stroke-miterlimit="10"/>
<path opacity="0.33" d="M601.861 431.049C599.174 427.796 592.526 418.319 573.714 403.185C565.794 396.82 561.55 395.123 557.59 393.143C552.498 390.597 548.255 389.465 543.021 387.344C517.703 377.443 520.532 376.452 500.589 368.815C496.911 367.4 492.244 365.703 486.728 361.743C480.08 357.075 476.827 353.115 475.837 351.7C473.432 348.447 472.159 345.618 470.745 342.506C468.765 338.263 468.34 336 465.794 328.079C464.097 323.129 463.248 320.583 462.683 319.169C460.137 313.087 458.156 310.116 455.611 305.449C453.63 301.771 451.084 296.255 448.821 288.9C447.831 287.486 446.558 285.506 445.427 282.96C444.437 280.838 442.881 277.726 442.032 273.342C441.608 271.078 441.608 269.805 441.466 264.289C441.325 248.589 441.325 243.639 441.749 236.708C441.749 236.284 441.749 235.859 441.749 235.718C440.335 233.455 438.92 231.05 437.647 228.222C434.111 220.725 432.131 213.795 431 207.995C432.273 206.722 434.253 205.025 437.223 203.611C442.739 201.065 448.114 201.772 450.801 202.338C452.357 202.762 455.328 203.469 460.137 206.864C462.117 208.278 470.038 213.936 476.827 225.11C480.646 231.192 482.202 235.859 484.465 242.649C485.455 245.478 486.303 248.731 486.02 252.974C485.879 255.237 485.313 256.934 484.889 258.207C484.748 258.349 484.747 258.632 484.606 258.773C485.879 259.763 487.152 261.036 488.425 262.451C490.829 265.138 491.254 266.411 494.224 270.937C497.76 276.312 498.467 276.453 500.023 279.706C501.296 282.394 502.003 284.798 502.428 286.354C503.135 286.637 504.266 287.061 505.257 288.051C506.388 289.042 506.954 290.032 507.378 290.739C507.944 287.627 508.227 283.525 507.944 278.716C507.661 274.756 506.812 272.776 505.398 265.987C504.974 264.289 504.408 261.036 503.135 254.388C498.609 230.343 498.892 230.909 497.477 224.544C496.063 218.321 494.366 210.259 490.971 200.075C488.142 191.305 486.728 186.921 484.465 176.595C482.343 166.694 485.172 154.389 485.738 152.55C486.162 150.994 486.728 149.721 487.152 148.731C486.586 142.508 487.152 137.275 487.718 133.597C488.425 129.495 489.132 124.969 491.961 119.736C493.375 117.048 494.931 114.927 496.063 113.512C496.346 112.522 496.911 111.249 497.619 109.976C500.448 105.592 504.832 104.036 506.105 103.611C507.095 103.329 514.309 100.924 520.391 105.167C521.805 106.157 522.654 107.147 523.361 107.855C524.21 108.138 525.483 108.845 526.614 109.976C527.18 110.542 527.746 111.249 528.029 111.674C528.594 110.259 529.443 108.845 530.575 107.43C530.857 107.147 530.999 106.865 531.282 106.582C531.989 104.884 533.262 102.056 536.091 99.6511C543.163 93.1448 552.639 94.8421 553.205 94.9836C557.024 95.6908 559.853 97.5295 561.692 98.9439C562.399 99.0854 563.106 99.5097 563.955 99.934C564.379 100.217 564.803 100.5 565.228 100.641C565.511 99.6511 565.935 98.2367 567.067 96.6809C567.067 96.6809 568.905 93.9935 572.441 92.1547C577.533 89.6088 586.868 89.6088 595.921 92.8619C605.539 96.2565 611.338 102.056 613.742 104.602C617.137 107.996 619.4 111.391 620.814 113.937C621.804 114.927 622.795 115.917 623.785 117.19C627.038 121.15 628.594 124.969 630.008 128.788C634.534 141.376 635.949 149.721 635.949 149.721C637.363 157.925 639.06 169.099 639.768 182.96C640.333 182.112 641.323 180.697 642.172 178.717C644.011 174.474 644.011 172.776 644.152 171.221C645.001 161.32 646.557 153.54 647.405 142.791C647.547 137.699 647.688 116.483 646.84 111.249C646.274 108.138 646.132 108.986 644.718 102.338C643.021 94.8421 642.738 91.0232 642.455 88.4772C642.314 85.6484 642.172 83.8097 642.455 81.2637C642.738 79.2835 643.162 75.8889 645.142 72.3529C646.132 70.6556 649.244 65.1394 655.609 63.5835C656.741 63.3006 660.418 62.452 664.096 64.2907C665.51 64.9979 667.066 66.1294 669.612 69.9484C673.006 74.8988 674.704 79.425 675.411 81.4051C676.825 85.507 678.805 90.8818 679.796 98.2367C680.927 106.016 681.917 122.989 682.483 126.101C683.897 134.163 685.029 136.85 686.019 143.357C686.16 144.347 687.575 161.744 686.16 176.454C685.453 184.092 685.17 183.526 684.605 190.174C684.039 196.822 683.614 201.631 684.039 207.43C684.463 214.077 685.453 216.058 686.585 222.988C687.433 228.222 688.282 235.859 687.858 245.336C688.565 247.316 689.555 250.145 690.545 253.54C692.95 261.46 694.93 267.542 696.061 275.322C697.051 281.404 696.486 281.687 698.042 294.133C698.466 297.387 698.89 300.074 699.032 301.771C700.587 312.804 702.426 321.997 703.699 327.797C704.406 331.05 705.538 336.283 707.235 342.648C708.791 348.588 710.771 356.509 713.6 364.713C717.419 376.17 721.521 384.232 725.623 392.577C728.027 397.386 733.826 408.56 742.596 422.138C745 425.957 747.263 429.069 748.819 431.332C699.314 431.049 650.659 431.049 601.861 431.049Z" fill="#445272"/>
<path d="M546.984 214.785C546.56 210.825 545.853 204.884 544.297 197.812C543.024 191.73 542.175 190.174 538.073 176.737C533.264 160.896 530.86 151.985 530.153 149.439C529.587 147.035 528.172 143.357 527.324 138.124C527.182 136.992 526.758 134.163 526.758 127.091C526.758 123.272 526.899 118.039 527.324 111.957" stroke="#697695" stroke-width="2" stroke-miterlimit="10"/>
<path d="M593.377 182.819C592.952 180.273 591.114 165.281 588.568 152.551C588.568 152.551 585.88 143.64 583.476 136.992C580.93 130.203 582.203 134.022 577.252 124.404C574.282 118.463 570.18 114.362 569.19 113.372C567.917 109.128 566.644 105.027 565.371 100.783C565.23 100.783 565.088 100.925 564.805 100.925C566.22 105.168 567.776 109.128 569.19 113.23C569.473 113.513 578.525 129.637 580.081 134.729C580.222 135.295 581.354 139.114 583.476 146.752C585.88 155.097 586.587 157.784 587.86 162.593C589.133 166.554 591.396 176.172 593.377 182.819Z" stroke="#697695" stroke-width="2" stroke-miterlimit="10"/>
<g opacity="0.5">
<path d="M444.862 233.173C445.569 232.183 446.135 230.91 446.277 229.779C446.418 228.647 446.277 227.374 446.135 226.243C445.711 223.838 445.145 221.434 444.296 219.17C443.872 218.039 443.448 216.907 442.882 215.776C442.458 214.644 441.892 213.371 441.468 212.381C440.478 210.26 438.073 209.128 435.527 208.987C436.8 208.845 438.073 208.987 439.346 209.411C440.619 209.835 441.75 210.684 442.458 211.957C443.731 214.22 444.721 216.483 445.711 218.888C446.559 221.292 447.125 223.838 447.408 226.384C447.55 227.657 447.55 228.93 447.125 230.203C446.418 231.334 445.711 232.325 444.862 233.173Z" fill="#B1BBD0"/>
</g>
<path d="M601.861 431.052C599.174 427.798 592.526 418.322 573.714 403.188C565.794 396.823 561.55 395.125 557.59 393.145C552.498 390.599 548.255 389.468 543.021 387.346C517.703 377.445 520.532 376.455 500.589 368.817C496.911 367.403 492.244 365.705 486.728 361.745C480.08 357.078 476.827 353.117 475.837 351.703C473.432 348.45 472.159 345.621 470.745 342.509C468.765 338.266 468.34 336.003 465.794 328.082C464.097 323.132 463.248 320.586 462.683 319.171C460.137 313.089 458.156 310.119 455.611 305.451C453.63 301.774 451.084 296.258 448.821 288.903C447.831 287.488 446.558 285.508 445.427 282.962C444.437 280.841 442.881 277.729 442.032 273.344C441.608 271.081 441.608 269.808 441.466 264.292C441.325 248.592 441.325 243.641 441.749 236.711C441.749 236.286 441.749 235.862 441.749 235.721C440.335 233.458 438.92 231.053 437.647 228.224C434.111 220.728 432.131 213.797 431 207.998C432.273 206.725 434.253 205.028 437.223 203.613C442.739 201.067 448.114 201.775 450.801 202.34C452.357 202.765 455.328 203.472 460.137 206.866C462.117 208.281 470.038 213.939 476.827 225.112C480.646 231.194 482.202 235.862 484.465 242.651C485.455 245.48 486.303 248.733 486.02 252.976C485.879 255.24 485.313 256.937 484.889 258.21C484.748 258.351 484.747 258.634 484.606 258.776C485.879 259.766 487.152 261.039 488.425 262.453C490.829 265.14 491.254 266.413 494.224 270.94C497.76 276.314 498.467 276.456 500.023 279.709C501.296 282.396 502.003 284.801 502.428 286.357C503.135 286.64 504.266 287.064 505.257 288.054C506.388 289.044 506.954 290.034 507.378 290.741C507.944 287.63 508.227 283.528 507.944 278.719C507.661 274.759 506.812 272.778 505.398 265.989C504.974 264.292 504.408 261.039 503.135 254.391C498.609 230.346 498.892 230.912 497.477 224.547C496.063 218.323 494.366 210.261 490.971 200.077C488.142 191.308 486.728 186.923 484.465 176.598C482.343 166.697 485.172 154.392 485.738 152.553C486.162 150.997 486.728 149.724 487.152 148.734C486.586 142.511 487.152 137.277 487.718 133.6C488.425 129.498 489.132 124.972 491.961 119.738C493.375 117.051 494.931 114.929 496.063 113.515C496.346 112.525 496.911 111.252 497.619 109.979C500.448 105.594 504.832 104.038 506.105 103.614C507.095 103.331 514.309 100.927 520.391 105.17C521.805 106.16 522.654 107.15 523.361 107.857C524.21 108.14 525.483 108.847 526.614 109.979C527.18 110.545 527.746 111.252 528.029 111.676C528.594 110.262 529.443 108.847 530.575 107.433C530.857 107.15 530.999 106.867 531.282 106.584C531.989 104.887 533.262 102.058 536.091 99.6537C543.163 93.1474 552.639 94.8447 553.205 94.9861C557.024 95.6934 559.853 97.5321 561.692 98.9465C562.399 99.088 563.106 99.5123 563.955 99.9366C564.379 100.219 564.803 100.502 565.228 100.644C565.511 99.6537 565.935 98.2393 567.067 96.6834C567.067 96.6834 568.905 93.9961 572.441 92.1573C577.533 89.6114 586.868 89.6114 595.921 92.8645C605.539 96.2591 611.338 102.058 613.742 104.604C617.137 107.999 619.4 111.393 620.814 113.939C621.804 114.929 622.795 115.92 623.785 117.192C627.038 121.153 628.594 124.972 630.008 128.791C634.534 141.379 635.949 149.724 635.949 149.724C637.363 157.928 639.06 169.102 639.768 182.963" stroke="#697695" stroke-width="2" stroke-miterlimit="10"/>
<path d="M683.332 205.875C683.332 206.441 683.332 206.441 683.332 207.007C683.756 213.654 684.746 215.635 685.878 222.565C686.726 227.798 687.575 235.436 687.151 244.913C687.858 246.893 688.848 249.722 689.838 253.117C692.243 261.037 694.223 267.119 695.354 274.899C696.344 280.981 695.779 281.263 697.334 293.71C697.759 296.963 698.183 299.651 698.325 301.348C699.88 312.381 701.719 321.574 702.992 327.373C703.699 330.627 704.831 335.86 706.528 342.225C708.084 348.165 710.064 356.086 712.893 364.29C716.712 375.747 720.814 383.809 724.916 392.154C727.32 396.963 733.119 408.137 741.889 421.715C744.293 425.534 746.556 428.646 748.112 430.909" stroke="#697695" stroke-width="2" stroke-miterlimit="10"/>
<path d="M640.332 180.839C642.171 176.596 643.302 172.777 643.444 171.08C644.293 161.179 645.848 153.4 646.697 142.65C646.838 137.558 646.98 116.342 646.131 111.109C645.566 107.997 645.424 108.846 644.01 102.198C642.312 94.7015 642.029 90.8826 641.747 88.3366C641.605 85.5078 641.464 83.669 641.747 81.1231C642.029 79.1429 642.454 75.7483 644.434 72.2123C645.424 70.515 648.536 64.9987 654.901 63.4429C656.032 63.16 659.71 62.3113 663.387 64.1501C664.802 64.8573 666.357 65.9888 668.903 69.8078C672.298 74.7582 673.995 79.2844 674.702 81.2645C676.117 85.3663 678.097 90.7411 679.087 98.0961C680.219 105.875 681.209 122.848 681.775 125.96C683.189 134.022 684.321 136.71 685.311 143.216C685.452 144.206 686.866 161.603 685.452 176.313C684.745 183.951 684.462 183.385 683.896 190.033C683.472 195.832 683.048 200.358 683.189 205.309" stroke="#BA6DCD" stroke-width="3" stroke-miterlimit="10" stroke-linecap="round"/>
<g opacity="0.5">
<path d="M650.801 69.5254C651.367 71.9299 651.932 74.3344 652.923 76.456C653.205 77.0218 653.488 77.4461 653.771 78.0119C654.054 78.5777 654.337 79.1434 654.62 79.4263C655.327 80.1335 656.317 80.6993 657.449 81.1236C659.712 81.9723 662.116 82.3966 664.379 82.6795C665.511 82.8209 666.784 82.8209 668.057 82.8209C669.188 82.8209 670.603 82.6795 671.169 81.8308C671.169 81.6894 671.169 81.4065 671.169 81.2651C671.169 80.9822 671.027 80.8407 671.027 80.5578C670.886 80.1335 670.744 79.7092 670.603 79.2849C670.886 79.7092 671.027 80.1335 671.169 80.5578C671.31 80.8407 671.31 80.9822 671.451 81.2651C671.451 81.5479 671.593 81.6894 671.593 81.9723C671.31 82.6795 670.603 82.9623 670.037 83.2452C669.33 83.5281 668.764 83.5281 668.198 83.6696C666.925 83.811 665.652 83.811 664.379 83.811C661.833 83.6695 659.429 83.2452 657.024 82.2551C655.893 81.6894 654.62 81.265 653.63 80.1335C653.205 79.5677 652.923 79.002 652.64 78.4362C652.357 77.8705 652.074 77.3047 651.932 76.7389C650.942 74.4758 650.801 71.9299 650.801 69.5254Z" fill="#B1BBD0"/>
</g>
</svg>
