<svg width="850" height="500" viewBox="0 0 850 500" fill="none" xmlns="http://www.w3.org/2000/svg">
<path opacity="0.33" d="M655.633 423.042C650.148 413.619 644.523 406.025 639.601 399.978C637.069 396.884 629.194 387.602 617.24 377.336C613.162 373.821 608.662 370.164 602.052 366.086C595.723 362.148 590.239 359.757 586.723 358.21C581.942 356.242 536.377 338.803 527.236 335.428C518.376 332.194 512.891 330.787 507.266 325.443C504.032 322.349 501.922 318.974 501.219 317.849C498.547 313.63 497.703 310.396 495.875 304.489C495.875 304.489 493.906 298.442 490.672 290.004C485.187 275.66 481.952 271.722 478.999 263.143C478.718 262.3 478.015 260.049 476.468 257.237C474.78 254.002 473.233 252.315 472.249 250.768C469.295 246.689 468.311 242.752 466.623 236.142C464.514 227.704 466.061 227.423 463.951 222.36C461.842 217.438 458.889 213.922 457.201 211.953C454.248 208.438 450.873 205.484 449.607 204.359C445.529 200.703 442.857 199.156 442.013 195.64C441.872 194.796 441.591 193.39 441.872 191.702C442.857 185.655 450.029 182.421 452.279 181.436C459.029 178.483 465.358 179.327 468.452 179.749C475.765 180.874 480.687 183.968 485.89 187.202C485.89 187.202 496.016 193.531 505.016 205.766C506.844 208.156 508.11 210.406 509.094 212.797C510.079 215.188 510.501 217.438 510.782 218.844C513.594 222.079 515.845 224.892 517.532 227.001C526.533 238.533 528.923 244.439 530.048 247.955C530.048 248.096 530.048 248.94 530.611 249.643C531.173 250.487 531.877 250.768 532.58 251.19C533.283 251.612 534.408 252.174 535.674 253.159C536.236 249.221 536.236 245.986 536.236 243.877C535.955 238.673 534.97 237.408 534.549 231.079C534.267 226.438 534.689 226.157 534.267 223.345C533.705 220.11 532.58 218.141 530.611 214.063C523.579 200.281 523.439 200 522.314 198.312C521.751 197.468 520.626 195.781 514.86 189.312C508.25 181.858 501.641 172.436 499.672 169.201C497.281 165.545 494.75 163.435 494.047 162.451C487.015 151.904 483.359 141.356 480.827 132.215C478.718 124.621 479.14 111.402 480.687 105.776C482.656 98.4636 491.093 96.4948 491.797 96.3541C497.703 95.0884 502.485 97.1979 504.453 98.1823C505.578 98.7449 511.063 101.417 514.298 107.183C514.298 107.183 514.298 107.183 516.407 112.246C518.657 117.59 519.642 119.98 520.907 122.793C521.47 123.918 521.892 124.902 522.032 125.465C523.157 125.887 524.704 126.59 526.673 127.574C531.314 129.965 534.127 132.356 538.346 135.872C543.549 140.231 547.768 143.888 551.424 146.7C555.503 149.935 558.878 152.466 561.128 154.013C560.566 149.513 559.722 145.856 559.019 143.044C557.894 138.825 556.487 133.2 552.971 126.871C551.003 123.215 549.034 120.543 547.487 118.574C546.643 118.574 545.518 118.574 544.112 118.433C543.268 118.293 539.189 118.011 536.236 117.308C534.689 116.886 527.939 115.058 524.283 108.87C523.72 107.745 522.032 104.651 522.173 100.432C522.595 93.9634 527.095 90.1663 528.08 89.4632C528.361 88.76 528.642 87.7756 528.923 86.5099C529.205 84.963 529.205 83.8379 529.205 83.416C529.205 80.6034 530.048 76.6657 530.611 74.5562C532.158 69.2122 535.955 65.837 537.361 64.712C539.189 63.165 541.44 62.04 545.799 59.7899C550.159 57.5398 552.409 56.4147 555.081 55.9928C556.628 55.7116 560.144 55.149 564.503 56.2741C568.3 57.3991 570.832 59.368 573.644 61.8994C576.457 64.2901 578.285 66.5402 579.551 68.0872C581.52 66.3996 583.348 64.9933 584.614 63.8682C588.832 60.6337 597.411 56.1335 599.38 54.8678C605.286 51.352 610.771 50.5082 612.177 50.3676C615.131 49.9457 622.584 49.1019 628.35 53.0396C629.616 53.8833 634.678 59.0867 636.366 62.7431C641.147 73.1499 648.179 88.9007 650.148 95.7916C652.398 104.23 653.101 111.261 653.242 111.261C653.382 111.261 651.835 104.23 652.398 95.2291C652.539 92.2758 652.961 89.8851 653.242 88.0569C652.82 86.5099 652.257 84.1192 651.695 81.0253C650.429 74.1343 650.71 71.3217 649.163 66.6808C648.179 63.8682 648.038 64.5714 645.929 59.5086C643.819 54.4459 642.554 51.4926 641.851 47.8362C641.288 44.7423 640.444 39.6795 642.554 33.773C644.382 28.8509 647.617 25.8976 649.726 23.9288C651.695 22.1006 653.101 20.8349 655.351 20.2724C659.289 19.2879 662.805 21.2568 663.508 21.6787C666.321 23.2256 667.586 25.3351 669.414 28.429C670.821 30.8197 672.649 34.4762 673.915 39.3983C674.477 40.664 675.321 42.4922 676.305 44.7423C678.274 49.5238 679.399 51.9145 680.102 55.0084C680.524 56.5554 680.946 58.6648 681.087 61.4775C682.353 63.4463 683.9 66.1183 685.165 69.2122C686.572 72.8686 687.275 76.1032 687.697 78.6345C688.54 79.9002 689.384 81.1659 690.087 82.7129C691.916 86.088 693.181 89.3225 694.025 92.1352C694.306 95.3697 695.994 109.574 696.275 111.12C696.978 116.183 697.119 119.558 697.681 134.747C697.963 141.778 698.103 145.435 699.369 149.091C700.775 152.888 703.166 158.232 703.588 159.92C703.869 160.904 704.01 162.31 704.432 164.982C704.854 167.795 706.822 175.811 707.526 177.217C711.463 186.499 714.135 196.203 717.792 205.484C721.308 214.204 728.199 233.47 743.246 280.16C744.652 283.113 746.762 287.332 749.293 292.535C753.09 300.692 755.059 304.77 757.028 309.833C760.966 319.818 759.278 319.255 763.075 329.24C765.466 335.428 766.31 336.553 772.498 350.476C773.623 353.148 774.607 356.945 777.279 361.586C779.389 365.523 781.498 367.914 782.623 369.461C787.123 375.368 791.623 385.352 800.483 405.041C801.89 408.275 803.015 410.807 803.718 412.354C803.858 415.729 803.999 419.104 803.999 422.479L655.633 423.042Z" fill="#E0E1E2"/>
<path d="M652.961 110.559C652.961 110.559 652.258 104.512 652.258 95.3706C652.258 92.4173 652.82 90.0266 653.102 88.1983C652.961 87.6358 652.82 86.9327 652.539 86.0889" stroke="#2969D0" stroke-width="3" stroke-miterlimit="10" stroke-linecap="round"/>
<path d="M699.369 149.374C700.775 153.171 703.166 158.515 703.588 160.203C703.869 161.187 704.01 162.593 704.432 165.265C704.854 168.078 706.823 176.094 707.526 177.5C711.463 186.782 714.135 196.486 717.792 205.767C721.308 214.487 728.199 233.753 743.246 280.443C744.653 283.396 746.762 287.615 749.293 292.818C753.09 300.975 755.059 305.053 757.028 310.116C760.966 320.101 759.278 319.538 763.075 329.523C765.466 335.711 766.31 336.836 772.498 350.759C773.623 353.431 774.607 357.228 777.279 361.869C779.389 365.806 781.498 368.197 782.623 369.744C787.123 375.65 791.624 385.635 800.483 405.324C801.89 408.558 803.015 411.09 803.718 412.637C803.859 416.012 803.999 419.387 803.999 422.762" stroke="#808285" stroke-width="2" stroke-miterlimit="10"/>
<path d="M655.633 423.043C650.148 413.62 644.523 406.026 639.601 399.979C637.069 396.885 629.194 387.603 617.24 377.337C613.162 373.821 608.662 370.165 602.052 366.087C595.723 362.149 590.239 359.758 586.723 358.211C581.942 356.242 536.377 338.804 527.236 335.429C518.376 332.194 512.891 330.788 507.266 325.444C504.032 322.35 501.922 318.975 501.219 317.85C498.547 313.631 497.703 310.397 495.875 304.49C495.875 304.49 493.906 298.443 490.672 290.005C485.187 275.661 481.952 271.723 478.999 263.144C478.718 262.3 478.015 260.05 476.468 257.238C474.78 254.003 473.233 252.316 472.249 250.769C469.295 246.69 468.311 242.753 466.623 236.143C464.514 227.705 466.061 227.424 463.951 222.361C461.842 217.439 458.889 213.923 457.201 211.954C454.248 208.439 450.873 205.485 449.607 204.36C445.529 200.704 442.857 199.157 442.013 195.641C441.872 194.797 441.591 193.391 441.872 191.703C442.857 185.656 450.029 182.422 452.279 181.437C459.029 178.484 465.358 179.328 468.452 179.75C475.765 180.875 480.687 183.969 485.89 187.203C485.89 187.203 496.016 193.532 505.016 205.767C506.844 208.157 508.11 210.407 509.094 212.798C510.079 215.189 510.501 217.439 510.782 218.845C513.594 222.08 515.845 224.892 517.532 227.002C526.533 238.534 528.923 244.44 530.048 247.956C530.048 248.097 530.048 248.94 530.611 249.644C531.173 250.487 531.877 250.769 532.58 251.191C533.283 251.612 534.408 252.175 535.674 253.159C536.236 249.222 536.236 245.987 536.236 243.878C535.955 238.674 534.97 237.409 534.549 231.08C534.267 226.439 534.689 226.158 534.267 223.345C533.705 220.111 532.58 218.142 530.611 214.064C523.579 200.282 523.439 200.001 522.314 198.313C521.751 197.469 521.048 195.5 514.86 189.313C508.25 182.703 503.047 175.249 499.672 169.202C498.969 167.937 494.75 163.436 494.047 162.452C487.015 151.905 483.359 141.357 480.827 132.216C478.718 124.622 479.14 111.403 480.687 105.777C482.656 98.4645 491.093 96.4957 491.797 96.3551C497.703 95.0894 502.485 97.1988 504.453 98.1833C505.578 98.7458 511.063 101.418 514.298 107.184C514.298 107.184 514.298 107.184 516.407 112.246C518.657 117.59 519.642 119.981 520.907 122.794C521.47 123.919 521.892 124.903 522.032 125.466C523.157 125.888 524.704 126.591 526.673 127.575C531.314 129.966 534.127 132.357 538.346 135.873C543.549 140.232 547.768 143.889 551.424 146.701C555.503 149.936 558.878 152.467 561.128 154.014C560.566 149.514 559.722 145.857 559.019 143.045C557.894 138.826 556.487 133.201 552.971 126.872C551.003 123.216 549.034 120.544 547.487 118.575C546.643 118.575 545.518 118.575 544.112 118.434C543.268 118.294 539.189 118.012 536.236 117.309C534.689 116.887 527.939 115.059 524.283 108.871C523.72 107.746 522.032 104.652 522.173 100.433C522.595 93.9643 527.095 90.1673 528.08 89.4641C528.361 88.7609 528.642 87.7765 528.923 86.5108C529.205 84.9639 529.205 83.8388 529.205 83.4169C529.205 80.6043 530.048 76.6666 530.611 74.5571C532.158 69.2131 535.955 65.838 537.361 64.7129C539.189 63.166 541.44 62.0409 545.799 59.7908C550.159 57.5407 552.409 56.4156 555.081 55.9937C556.628 55.7125 560.144 55.15 564.503 56.275C568.3 57.4001 570.832 59.3689 573.644 61.9003C576.457 64.291 578.285 66.5411 579.551 68.0881C581.52 66.4005 583.348 64.9942 584.614 63.8691C588.832 60.6346 597.411 56.1344 599.38 54.8687C605.286 51.3529 610.771 50.5091 612.177 50.3685C615.131 49.9466 622.584 49.1028 628.35 53.0405C629.616 53.8843 634.678 59.0876 636.366 62.7441C641.147 73.1508 647.335 88.339 649.163 95.23C651.414 103.668 651.976 112.528 651.976 112.528" stroke="#808285" stroke-width="2" stroke-miterlimit="10"/>
<path d="M613.303 122.088C610.913 118.713 607.678 113.932 604.022 108.025C601.912 104.65 599.1 100.15 595.584 93.9621C590.943 85.5242 589.958 82.8522 586.021 77.0863C583.63 73.5705 581.38 70.8985 579.974 69.0703" stroke="#808285" stroke-width="2" stroke-miterlimit="10"/>
<path d="M533.705 98.043C535.955 100.996 538.205 104.09 540.315 107.606C542.705 111.403 544.956 114.919 546.784 118.435" stroke="#808285" stroke-width="2" stroke-miterlimit="10"/>
<path d="M600.786 78.2129C601.63 83.2756 602.333 88.479 603.036 93.823C603.739 99.3076 604.302 104.089 604.864 109.433" stroke="#808285" stroke-width="2" stroke-miterlimit="10"/>
<path d="M652.679 86.2286C652.398 84.8223 651.976 83.2754 651.695 81.3065C650.429 74.4156 650.71 71.6029 649.163 66.9621C648.179 64.1495 648.038 64.8526 645.929 59.7899C643.819 54.7271 642.553 51.7739 641.85 48.1174C641.288 45.0235 640.444 39.9608 642.553 34.0543C644.382 29.1322 647.616 26.1789 649.726 24.21C651.695 22.3818 653.101 21.1161 655.351 20.5536C659.289 19.5692 662.804 21.538 663.508 21.9599C666.32 23.5069 667.586 25.6164 669.414 28.7103C670.82 31.101 672.649 34.7574 673.914 39.6795C674.477 40.9452 675.321 42.7734 676.305 45.0235C678.274 49.805 679.399 52.1958 680.102 55.2897C680.524 56.8366 680.946 58.9461 681.087 61.7587C682.352 63.7276 683.899 66.3996 685.165 69.4935C686.571 73.1499 687.274 76.3844 687.696 78.9158C688.54 80.1815 689.384 81.4472 690.087 82.9941C691.915 86.3693 693.181 89.6038 694.025 92.4164C694.306 95.651 695.994 109.855 696.275 111.402C696.978 116.464 697.119 119.84 697.681 135.028C697.962 142.059 698.103 145.716 699.369 149.372" stroke="#2969D0" stroke-width="3" stroke-miterlimit="10" stroke-linecap="round"/>
<g opacity="0.5">
<path d="M451.998 186.218C455.795 187.905 459.311 190.577 461.983 193.812C463.389 195.359 464.655 197.046 465.78 199.015C466.342 200 466.764 200.984 467.046 202.109C467.327 203.234 467.327 204.359 467.186 205.344V205.625L467.046 205.766C465.78 206.609 464.796 207.734 463.811 209C462.827 210.266 462.124 211.531 461.42 212.938C461.702 211.391 462.405 209.844 463.108 208.578C463.952 207.172 464.936 205.906 466.202 204.922L465.921 205.344C465.921 204.359 465.78 203.375 465.639 202.39C465.358 201.406 464.936 200.562 464.514 199.718C463.53 198.031 462.264 196.343 460.998 194.796C458.326 191.562 455.373 188.609 451.998 186.218Z" fill="#AEB0B2"/>
</g>
<g opacity="0.5">
<path d="M652.116 27.7256C652.679 28.8506 653.101 29.8351 653.663 30.9601C654.226 31.9445 654.788 33.0696 655.351 34.054C656.476 36.1635 657.741 38.1323 659.007 39.9606L658.726 39.6793C660.554 40.5231 662.523 40.945 664.632 41.2262C666.742 41.3669 668.851 41.5075 670.82 41.0856C669.836 41.5075 668.851 41.7888 667.726 42.07C666.601 42.2107 665.617 42.3513 664.492 42.3513C662.382 42.3513 660.132 42.07 658.023 41.0856L657.882 40.945L657.741 40.8043C655.069 36.8667 653.101 32.3664 652.116 27.7256Z" fill="#AEB0B2"/>
</g>
<path opacity="0.33" d="M315.585 426.278C317.414 424.028 325.289 415.871 333.868 407.293C342.446 398.714 360.025 368.478 365.228 362.431C370.432 356.384 384.214 341.477 387.589 334.023C390.964 326.57 387.308 302.663 387.589 295.209C387.87 287.756 391.386 252.176 388.995 242.894C386.604 233.612 382.807 229.815 379.714 223.346C376.62 216.877 376.057 214.908 373.244 212.939C370.432 210.971 372.119 194.095 372.682 191.704C373.244 189.313 375.213 178.485 375.213 174.688C375.213 170.891 375.213 160.062 378.167 152.046C381.12 144.03 379.151 119.982 374.088 112.388C369.026 104.794 364.947 102.965 358.9 102.544C352.853 102.122 346.243 108.028 344.556 111.685C342.868 115.341 340.618 118.716 338.087 148.53C334.571 156.546 327.82 163.578 324.867 173.281C321.914 182.985 314.038 207.455 312.21 217.58C310.382 227.706 299.975 241.488 304.194 234.034C308.413 226.721 307.991 208.721 315.867 184.813C323.742 160.906 322.758 162.453 322.758 161.187C322.758 159.921 327.399 155.562 328.945 145.155C331.899 140.374 337.665 116.607 326.977 109.716C326.836 104.794 323.601 101.419 314.742 100.012C305.882 98.6059 302.647 100.856 300.678 106.341C297.444 107.184 292.522 119.138 291.678 128.982C289.287 130.389 277.756 142.061 275.505 146.421C273.255 150.78 266.927 172.719 265.661 178.344C264.395 183.969 256.239 219.127 253.989 222.362C251.739 225.596 250.754 227.846 252.582 220.956C254.411 214.065 262.849 172.578 266.505 165.125C270.161 157.671 270.583 151.483 280.709 136.998C290.834 122.513 289.428 115.482 287.6 110.841C285.772 106.2 284.365 102.262 275.787 100.856C267.208 99.4497 262.286 106.622 262.286 106.622C262.286 106.622 257.083 108.169 244.566 121.67C241.894 116.466 238.238 112.528 238.238 112.528C238.238 112.528 235.566 106.903 227.972 105.778C220.378 104.653 217.284 112.81 216.862 115.763C214.331 115.763 209.127 127.435 207.299 139.108C205.471 150.921 202.518 167.797 199.424 177.782C196.33 187.766 194.361 196.064 193.658 203.377C192.955 210.689 189.017 220.956 188.314 230.518C187.611 240.081 176.501 267.505 175.938 276.224C175.235 284.943 175.657 314.757 174.813 321.648C173.969 328.539 172.704 351.743 174.813 365.103C176.923 378.322 175.938 390.557 173.688 397.167C171.438 403.777 163 425.715 163 425.715H315.585V426.278Z" fill="#E0E1E2"/>
<path d="M315.585 426.278C317.414 424.028 325.289 415.871 333.868 407.293C342.446 398.714 360.025 368.478 365.228 362.431C370.432 356.384 384.214 341.477 387.589 334.023C390.964 326.57 387.308 302.663 387.589 295.209C387.87 287.756 391.386 252.176 388.995 242.894C386.604 233.612 382.807 229.815 379.714 223.346C376.62 216.877 376.057 214.908 373.244 212.939C370.432 210.971 372.119 194.095 372.682 191.704C373.244 189.313 375.213 178.485 375.213 174.688C375.213 170.891 375.213 160.062 378.167 152.046C381.12 144.03 379.151 119.982 374.088 112.388C369.026 104.794 364.947 102.965 358.9 102.544C352.853 102.122 346.243 108.028 344.556 111.685C342.868 115.341 340.618 118.716 338.087 148.53C334.571 156.546 327.82 163.578 324.867 173.281C321.914 182.985 314.038 207.455 312.21 217.58C310.382 227.706 299.975 241.488 304.194 234.034C308.413 226.721 307.991 208.721 315.867 184.813C323.742 160.906 322.758 162.453 322.758 161.187C322.758 159.921 327.399 155.562 328.945 145.155C331.899 140.374 337.665 116.607 326.977 109.716C326.836 104.794 323.601 101.419 314.742 100.012C305.882 98.6059 302.647 100.856 300.678 106.341C297.444 107.184 292.522 119.138 291.678 128.982C289.287 130.389 277.756 142.061 275.505 146.421C273.255 150.78 266.927 172.719 265.661 178.344C264.395 183.969 256.239 219.127 253.989 222.362C251.739 225.596 250.754 227.846 252.582 220.956C254.411 214.065 262.849 172.578 266.505 165.125C270.161 157.671 270.583 151.483 280.709 136.998C290.834 122.513 289.428 115.482 287.6 110.841C285.772 106.2 284.365 102.262 275.787 100.856C267.208 99.4497 262.286 106.622 262.286 106.622C262.286 106.622 257.083 108.169 244.566 121.67C241.894 116.466 238.238 112.528 238.238 112.528C238.238 112.528 235.566 106.903 227.972 105.778C220.378 104.653 217.284 112.81 216.862 115.763C214.331 115.763 209.127 127.435 207.299 139.108C205.471 150.921 202.518 167.797 199.424 177.782C196.33 187.766 194.361 196.064 193.658 203.377C192.955 210.689 189.017 220.956 188.314 230.518C187.611 240.081 176.501 267.505 175.938 276.224C175.235 284.943 175.657 314.757 174.813 321.648C173.969 328.539 172.704 351.743 174.813 365.103C176.923 378.322 175.938 390.557 173.688 397.167C171.438 403.777 163 425.715 163 425.715" stroke="#808285" stroke-width="2" stroke-miterlimit="10"/>
<path d="M203.783 226.863C207.721 222.644 210.955 216.175 211.237 209.425C211.518 202.675 210.815 167.657 219.675 154.297C228.534 140.937 244.707 122.233 244.707 122.233" stroke="#808285" stroke-width="2" stroke-miterlimit="10"/>
<path d="M360.868 308.851C358.899 305.194 356.509 302.804 356.509 299.991C356.509 297.178 358.056 264.974 359.743 253.442C361.29 241.91 369.166 208.58 371.838 201.689" stroke="#808285" stroke-width="2" stroke-miterlimit="10"/>
</svg>
