<svg width="900" height="500" viewBox="0 0 900 500" fill="none" xmlns="http://www.w3.org/2000/svg">
<path opacity="0.33" d="M327.41 430.327C329.284 428.02 337.356 419.659 346.15 410.865C354.943 402.072 372.963 371.078 378.297 364.88C383.631 358.681 397.758 343.4 401.218 335.76C404.677 328.12 400.929 303.613 401.218 295.973C401.506 288.333 405.11 251.861 402.659 242.347C400.209 232.832 396.316 228.94 393.145 222.309C389.973 215.678 389.397 213.66 386.514 211.641C383.631 209.623 385.36 192.324 385.937 189.874C386.514 187.423 388.532 176.323 388.532 172.431C388.532 168.539 388.532 157.439 391.559 149.222C394.586 141.005 392.568 116.354 387.379 108.57C382.189 100.785 378.008 98.9111 371.81 98.4786C365.611 98.0461 358.836 104.101 357.106 107.849C355.376 111.597 353.069 115.057 350.475 145.618C346.871 153.835 339.951 161.042 336.924 170.989C333.897 180.936 325.824 206.019 323.95 216.398C322.076 226.778 311.408 240.905 315.733 233.265C320.058 225.769 319.625 207.317 327.698 182.81C335.771 158.303 334.762 159.889 334.762 158.592C334.762 157.294 339.519 152.826 341.104 142.158C344.132 137.257 350.042 112.894 339.086 105.831C338.942 100.785 335.627 97.3254 326.545 95.8838C317.463 94.4422 314.147 96.7487 312.129 102.371C308.813 103.236 303.768 115.489 302.903 125.58C300.452 127.022 288.632 138.987 286.325 143.455C284.019 147.924 277.532 170.413 276.234 176.179C274.937 181.945 266.576 217.984 264.269 221.3C261.963 224.615 260.954 226.922 262.828 219.858C264.702 212.795 273.351 170.268 277.099 162.628C280.847 154.988 281.28 148.645 291.659 133.797C302.038 118.949 300.597 111.741 298.723 106.984C296.848 102.227 295.407 98.1903 286.613 96.7487C277.82 95.3072 272.774 102.659 272.774 102.659C272.774 102.659 267.441 104.245 254.611 118.084C251.872 112.75 248.124 108.714 248.124 108.714C248.124 108.714 245.385 102.947 237.6 101.794C229.816 100.641 226.644 109.002 226.212 112.029C223.617 112.029 218.283 123.994 216.409 135.959C214.535 148.068 211.508 165.367 208.336 175.602C205.165 185.837 203.147 194.343 202.426 201.839C201.705 209.335 197.669 219.858 196.948 229.661C196.227 239.464 184.839 267.574 184.262 276.512C183.542 285.449 183.974 316.011 183.109 323.074C182.244 330.138 180.947 353.924 183.109 367.619C185.271 381.169 184.262 393.711 181.956 400.486C179.649 407.261 171 429.75 171 429.75H327.41V430.327Z" fill="#E0E1E2"/>
<path d="M327.41 430.327C329.284 428.02 337.356 419.659 346.15 410.865C354.943 402.072 372.963 371.078 378.297 364.88C383.631 358.681 397.758 343.4 401.218 335.76C404.677 328.12 400.929 303.613 401.218 295.973C401.506 288.333 405.11 251.861 402.659 242.347C400.209 232.832 396.316 228.94 393.145 222.309C389.973 215.678 389.397 213.66 386.514 211.641C383.631 209.623 385.36 192.324 385.937 189.874C386.514 187.423 388.532 176.323 388.532 172.431C388.532 168.539 388.532 157.439 391.559 149.222C394.586 141.005 392.568 116.354 387.379 108.57C382.189 100.785 378.008 98.9111 371.81 98.4786C365.611 98.0461 358.836 104.101 357.106 107.849C355.376 111.597 353.069 115.057 350.475 145.618C346.871 153.835 339.951 161.042 336.924 170.989C333.897 180.936 325.824 206.019 323.95 216.398C322.076 226.778 311.408 240.905 315.733 233.265C320.058 225.769 319.625 207.317 327.698 182.81C335.771 158.303 334.762 159.889 334.762 158.592C334.762 157.294 339.519 152.826 341.104 142.158C344.132 137.257 350.042 112.894 339.086 105.831C338.942 100.785 335.627 97.3254 326.545 95.8838C317.463 94.4422 314.147 96.7487 312.129 102.371C308.813 103.236 303.768 115.489 302.903 125.58C300.452 127.022 288.632 138.987 286.325 143.455C284.019 147.924 277.532 170.413 276.234 176.179C274.937 181.945 266.576 217.984 264.269 221.3C261.963 224.615 260.954 226.922 262.828 219.858C264.702 212.795 273.351 170.268 277.099 162.628C280.847 154.988 281.28 148.645 291.659 133.797C302.038 118.949 300.597 111.741 298.723 106.984C296.848 102.227 295.407 98.1903 286.613 96.7487C277.82 95.3072 272.774 102.659 272.774 102.659C272.774 102.659 267.441 104.245 254.611 118.084C251.872 112.75 248.124 108.714 248.124 108.714C248.124 108.714 245.385 102.947 237.6 101.794C229.816 100.641 226.644 109.002 226.212 112.029C223.617 112.029 218.283 123.994 216.409 135.959C214.535 148.068 211.508 165.367 208.336 175.602C205.165 185.837 203.147 194.343 202.426 201.839C201.705 209.335 197.669 219.858 196.948 229.661C196.227 239.464 184.839 267.574 184.262 276.512C183.542 285.449 183.974 316.011 183.109 323.074C182.244 330.138 180.947 353.924 183.109 367.619C185.271 381.169 184.262 393.711 181.956 400.486C179.649 407.261 171 429.75 171 429.75" stroke="#75819C" stroke-width="2" stroke-miterlimit="10"/>
<path d="M212.805 225.912C216.842 221.588 220.157 214.957 220.445 208.037C220.734 201.118 220.013 165.223 229.095 151.528C238.177 137.833 254.755 118.66 254.755 118.66" stroke="#75819C" stroke-width="2" stroke-miterlimit="10"/>
<path d="M373.827 309.957C371.809 306.208 369.358 303.758 369.358 300.875C369.358 297.992 370.944 264.98 372.674 253.159C374.26 241.338 382.332 207.173 385.071 200.109" stroke="#75819C" stroke-width="2" stroke-miterlimit="10"/>
<path opacity="0.33" d="M758.536 414.551C757.674 412.972 756.383 410.674 752.219 403.927C744.897 392.298 744.897 392.874 742.888 389.284C740.59 385.408 735.278 375.789 732.694 363.586C732.263 361.72 731.259 356.122 729.393 348.225C728.532 344.206 728.1 342.77 727.526 341.047C726.091 337.027 725.086 335.735 722.788 330.28C721.497 327.121 720.635 324.681 720.205 323.532C719.344 320.805 718.051 316.929 716.759 311.474C715.18 304.438 714.605 299.127 713.744 292.38C712.739 284.053 713.026 282.617 711.878 274.147C711.017 267.543 710.443 264.671 710.156 263.523C708.719 257.063 706.566 251.033 706.566 251.033C705.562 248.162 704.843 246.152 704.269 242.851C703.838 239.979 703.838 237.826 703.838 237.107C703.838 233.663 703.264 227.345 702.116 214.425C701.542 208.252 700.249 194.757 698.957 186.43C698.814 185.569 698.527 183.416 698.24 180.257C697.952 176.668 698.096 173.653 698.24 171.93C698.527 167.911 698.957 166.619 699.962 160.159C699.962 160.159 700.679 155.42 701.255 151.402C700.536 140.49 703.264 123.119 694.22 114.218C692.354 112.352 690.487 111.06 689.195 110.343C687.76 108.189 677.853 97.7088 674.408 95.8425C669.671 93.4019 665.077 92.8277 662.349 92.397C659.334 91.9663 659.19 92.3969 656.319 91.8227C650.433 90.6743 646.126 88.3773 638.374 89.3822C638.374 89.3822 637.369 85.7931 636.22 83.4961C634.785 80.1942 633.062 76.318 629.33 73.0161C625.166 69.2835 620.716 67.9914 618.993 67.5607C611.958 65.6944 606.216 67.5607 602.34 68.7092C599.325 69.5705 596.311 70.5755 593.152 73.0161C591.572 74.3081 590.567 75.4566 586.404 80.7684C584.969 82.6347 582.959 85.0754 580.662 88.0901C579.657 88.5208 578.652 88.9515 577.503 89.3822C575.206 90.5306 573.196 91.8227 571.617 92.9713C568.459 85.7931 565.301 80.3377 563.003 76.8923C559.989 72.2982 552.38 61.9618 546.351 53.9222C545.776 53.0609 544.627 51.6252 543.479 49.3283C541.613 45.5957 541.757 43.4422 540.608 39.5661C539.459 35.4027 537.737 32.6751 535.439 28.6553C533.861 25.784 532.137 23.0563 529.267 19.898C527.113 17.4574 525.964 16.3089 524.242 15.4476C518.355 12.4327 511.895 15.0169 511.034 15.3039C506.297 17.1702 503.999 20.7593 502.277 23.1999C498.544 28.6553 497.826 33.967 497.396 37.5561C496.678 43.8729 497.683 48.3233 499.405 55.5015C500.698 61.5311 502.564 66.6993 506.297 77.0358C507.588 80.7684 508.737 83.7833 509.598 85.9366C505.292 85.6496 496.104 85.7931 487.06 91.2485C483.47 93.4019 477.009 97.1346 473.852 104.599C471.124 111.204 472.415 117.233 474.569 126.708C476.722 136.614 480.742 145.945 484.188 154.272C484.906 155.852 486.484 159.871 488.064 165.471C488.925 168.628 489.5 171.356 489.787 173.079C488.925 172.935 486.916 172.935 484.762 173.797C484.188 174.084 482.177 174.946 480.742 176.955C479.881 178.391 479.45 179.827 479.45 183.703C479.45 188.153 479.737 191.311 480.024 195.187C480.168 197.198 480.312 199.494 480.455 202.366C479.881 204.375 478.876 207.534 477.44 211.267C476.148 214.568 475.431 215.717 474.426 218.014C473.852 219.307 471.267 225.479 470.406 232.083C469.832 236.246 470.262 239.692 471.124 246.582C472.128 254.048 473.421 260.221 474.713 265.534C476.292 272.424 476.866 273.429 477.583 277.879C477.728 279.172 478.446 281.756 478.733 290.513C479.163 300.993 479.163 308.315 481.747 313.77C483.183 316.785 485.049 318.651 486.628 320.374C496.104 330.424 498.688 332.72 498.688 332.72C505.435 338.75 512.039 345.067 518.642 351.096C533.574 364.734 541.038 371.626 544.771 374.498C548.217 377.225 554.102 381.532 561.281 388.423C565.157 392.155 568.315 395.744 570.9 398.616C573.196 401.199 577.647 406.367 583.103 413.259C586.547 417.709 590.424 422.877 594.587 428.763L765.714 428.189C764.134 425.749 761.838 420.581 758.536 414.551ZM653.878 144.367C653.448 146.664 652.443 150.109 650.289 153.842C649.141 150.396 648.136 146.376 647.419 142.07C646.126 135.179 645.121 129.006 645.121 123.838C645.839 123.694 648.28 123.694 650.002 124.555C652.156 125.704 653.017 127.569 653.304 128.288C653.878 129.58 653.878 130.728 654.022 131.446C654.166 138.481 654.309 142.07 653.878 144.367Z" fill="#E0E1E2"/>
<path d="M572.479 93.115C574.057 91.9664 575.636 91.105 577.934 89.9566C579.082 89.3823 580.087 88.9516 581.091 88.6645C583.389 85.6497 585.398 83.2091 586.835 81.3428C590.998 76.031 591.859 74.8825 593.582 73.5905C596.74 71.0063 599.755 70.1449 602.769 69.2835C606.646 68.1351 612.388 66.4123 619.423 68.1351C621.145 68.5658 625.596 69.8578 629.759 73.5905C633.492 76.8924 635.214 80.7685 636.651 84.0705C637.655 86.3675 637.225 90.1001 638.804 89.9566C646.556 88.9517 650.863 91.2487 656.749 92.3971C659.621 92.9713 659.764 92.5406 662.778 92.9713C665.507 93.2585 670.1 93.8327 674.838 96.4169C678.284 98.2832 688.189 108.763 689.625 110.917C690.918 111.778 692.783 113.07 694.649 114.793C703.694 123.694 700.967 141.064 701.684 151.976C701.254 156.139 700.393 160.733 700.393 160.733C699.387 167.193 698.956 168.485 698.669 172.505C698.526 174.228 698.382 177.099 698.669 180.831C698.813 183.847 699.243 186.143 699.387 187.004C700.68 195.331 701.971 208.682 702.545 215C703.694 227.776 704.269 234.237 704.269 237.683C704.269 238.4 704.269 240.553 704.699 243.425C705.274 246.727 705.991 248.737 706.996 251.608C706.996 251.608 709.006 257.637 710.585 264.097C710.872 265.247 711.446 268.117 712.308 274.722C713.457 283.192 713.312 284.627 714.175 292.954C714.892 299.701 715.61 305.013 717.189 312.048C718.481 317.503 719.63 321.379 720.634 324.107C721.065 325.256 721.926 327.696 723.219 330.854C725.515 336.309 726.52 337.601 727.956 341.621C728.531 343.344 728.961 344.78 729.822 348.8C731.545 356.696 732.694 362.151 733.125 364.16C735.708 376.364 741.021 385.839 743.317 389.858C745.471 393.448 745.327 392.874 752.649 404.502C756.812 411.25 758.104 413.546 758.966 415.126C762.267 421.155 764.565 426.323 766 429.913" stroke="#75819C" stroke-width="2" stroke-miterlimit="10"/>
<path d="M645.694 123.98C646.412 123.837 648.135 123.693 649.858 124.698C652.012 125.847 652.873 127.713 653.16 128.431C653.734 129.723 653.734 130.872 653.878 131.59C654.165 138.624 654.308 142.213 653.878 144.51C653.447 146.807 652.442 150.253 650.288 153.985C649.14 150.54 648.135 146.52 647.417 142.213C646.125 135.322 645.694 129.149 645.694 123.98Z" stroke="#75819C" stroke-width="2" stroke-miterlimit="10"/>
<path d="M638.517 89.8125C639.665 93.5451 641.1 99.8619 641.531 102.302C642.106 105.03 642.249 106.896 643.111 114.362C643.254 116.228 645.264 123.98 645.407 125.703" stroke="#75819C" stroke-width="2" stroke-miterlimit="10"/>
<path d="M589.992 108.619C590.136 114.074 590.136 120.965 590.279 126.421" stroke="#75819C" stroke-width="2" stroke-miterlimit="10"/>
<path d="M618.132 150.826C613.538 148.672 609.949 146.519 607.364 144.796C603.344 142.069 598.607 138.91 594.013 133.455C591.142 130.009 588.988 126.707 587.983 125.128C586.979 123.406 585.973 121.682 584.251 118.381C581.811 113.787 579.944 110.341 577.647 105.46C576.498 103.019 574.058 96.99 572.479 93.1138C569.32 85.9357 565.588 80.911 563.29 77.4654C560.276 72.8715 552.667 62.535 546.638 54.4955C546.063 53.6341 544.914 52.1985 543.766 49.9015C541.9 46.1689 542.044 44.0154 540.895 40.2828C539.746 36.1195 538.024 33.3919 535.726 29.3721C534.147 26.5009 532.425 23.7732 529.553 20.6148C527.4 18.1742 526.251 17.0257 524.385 16.1643C518.499 13.1495 512.039 15.7337 511.177 16.0208C506.44 17.8871 504.143 21.4762 502.42 23.9167C498.687 29.3721 497.97 34.6839 497.539 38.2729C496.821 44.5897 497.826 49.0401 499.549 56.2183C500.985 62.2479 502.707 67.4162 506.44 77.7526C507.732 81.4852 508.593 83.7822 509.312 85.7921" stroke="#F69AED" stroke-width="3" stroke-miterlimit="10" stroke-linecap="round"/>
<path d="M497.827 248.307C498.114 240.554 498.114 234.093 498.114 229.068C497.97 223.183 497.827 215.286 496.679 205.094C496.248 201.648 495.674 197.054 494.525 191.168C493.233 184.421 491.223 178.678 489.931 174.371" stroke="#75819C" stroke-width="2" stroke-miterlimit="10"/>
<path d="M594.443 429.912C590.423 424.027 586.546 418.859 582.957 414.408C577.645 407.517 573.052 402.349 570.755 399.909C568.17 397.037 565.012 393.448 561.136 389.715C553.958 382.681 548.072 378.374 544.626 375.789C540.894 372.919 533.429 366.027 518.498 352.389C511.751 346.359 505.29 339.899 498.543 334.013C498.543 334.013 495.958 331.716 486.483 321.666C484.761 319.944 483.039 318.078 481.602 315.063C479.019 309.608 479.019 302.285 478.588 291.806C478.3 283.048 477.726 280.464 477.439 279.172C476.721 274.722 476.147 273.573 474.568 266.825C473.276 261.514 471.984 255.341 470.979 247.875C470.118 240.985 469.687 237.539 470.261 233.376C471.123 226.629 473.706 220.598 474.281 219.307C475.286 216.866 476.004 215.861 477.295 212.559C478.732 208.827 479.736 205.668 480.311 203.659C480.167 200.931 480.024 198.49 479.88 196.48C479.593 192.46 479.306 189.445 479.306 184.995C479.306 181.119 479.593 179.54 480.598 178.248C481.889 176.237 483.9 175.233 484.618 175.089C486.77 174.084 488.781 174.228 489.786 174.371C489.499 172.649 488.924 169.921 488.063 166.762C486.483 161.164 484.761 157.144 484.187 155.565C480.741 147.382 476.721 137.907 474.568 128.001C472.414 118.382 472.414 110.917 475.142 104.313C478.3 96.8478 483.613 94.4072 487.201 92.3974C496.389 87.0855 505.433 86.942 509.74 87.0855L510.316 87.2291C512.038 87.5162 514.478 88.2341 517.062 89.8132C520.508 91.8232 523.379 94.8379 527.112 101.155C530.127 106.61 531.993 111.347 534.147 117.808C537.591 128.001 538.454 132.164 541.037 140.922C542.473 145.516 544.77 152.406 547.929 160.877" stroke="#75819C" stroke-width="2" stroke-miterlimit="10"/>
<g opacity="0.5">
<path d="M483.039 201.359C484.187 200.067 485.192 198.631 485.767 197.196C486.341 195.76 486.485 194.037 486.772 192.315C486.915 190.736 486.915 188.869 487.059 187.147L487.346 181.979C487.633 183.701 487.777 185.424 487.92 187.147C488.064 188.869 488.064 190.592 488.064 192.458C487.92 194.181 487.777 196.048 486.915 197.77C486.054 199.35 484.618 200.642 483.039 201.359Z" fill="#75819C"/>
</g>
<g opacity="0.5">
<path d="M504.429 28.6557C506.009 30.235 507.731 31.8141 509.598 32.9626C509.885 33.1062 510.028 33.2497 510.316 33.2497C510.603 33.2497 510.746 33.2497 511.033 33.2497C511.607 33.2497 512.038 33.1062 512.612 32.9626C513.186 32.819 513.617 32.6755 514.192 32.3884C514.479 32.2448 514.622 32.1013 514.909 32.1013C515.197 31.9577 515.484 31.8141 515.771 31.6706C518.067 30.8092 520.365 30.522 522.661 30.3785C524.959 30.235 527.255 30.0913 529.553 30.0913L528.979 30.235C529.266 29.9478 529.409 29.6607 529.553 29.3736C529.553 29.0864 529.553 28.5122 529.409 28.0815C529.122 27.2201 528.835 26.3587 528.404 25.4973C527.974 24.636 527.542 23.7747 526.968 22.9133C526.394 22.0519 525.82 21.334 525.246 20.4727C525.963 21.1905 526.681 21.9083 527.255 22.6261C527.829 23.344 528.548 24.2054 528.979 25.0666C529.409 25.928 529.983 26.7894 530.27 27.7943C530.414 28.3687 530.557 28.7994 530.557 29.3736C530.557 30.0913 530.127 30.6657 529.696 30.9527L529.553 31.0963H529.266C526.968 31.2399 524.815 31.3834 522.518 31.527C520.365 31.8141 518.067 31.9577 516.058 32.6755C515.771 32.819 515.627 32.819 515.34 32.9626C515.053 33.1062 514.766 33.2497 514.479 33.2497C513.904 33.5369 513.33 33.6804 512.755 33.6804C512.181 33.824 511.607 33.824 511.033 33.824C510.746 33.824 510.316 33.824 510.028 33.6804C509.741 33.5369 509.453 33.3933 509.166 33.2497C508.162 32.532 507.3 31.8141 506.583 30.9527C505.865 30.3785 505.147 29.5171 504.429 28.6557Z" fill="#75819C"/>
</g>
</svg>
