<svg width="900" height="500" viewBox="0 0 900 500" fill="none" xmlns="http://www.w3.org/2000/svg">
<path opacity="0.33" d="M350.977 429.161C356.313 422.383 372.176 398.876 377.224 391.088C382.271 383.301 393.664 356.765 398.423 350.708C403.182 344.651 408.951 337.008 406.355 319.125C403.904 301.243 401.74 295.042 403.183 269.516C404.625 243.99 400.154 238.942 394.241 226.684C393.087 219.329 391.213 217.31 388.473 215.147C388.905 210.099 391.501 190.053 393.087 179.814C394.818 169.575 391.357 172.748 393.087 150.971C394.818 129.195 388.905 113.764 385.156 109.293C384.579 104.967 380.397 100.063 372.753 98.4771C365.254 96.7465 358.332 103.669 358.332 106.697C355.88 107.563 348.093 118.234 351.986 153.134C343.478 173.469 338.142 194.38 336.988 201.446C335.69 208.513 329.921 240.384 327.614 239.086C325.307 237.788 334.536 207.359 337.276 188.467C340.016 169.575 342.901 156.451 344.631 147.51C346.362 138.569 346.506 109.293 336.7 105.688C334.392 98.3329 327.326 96.4581 320.836 96.0254C314.346 95.5928 308.866 100.784 308.722 103.813C305.838 104.823 302.809 118.811 304.107 138.28C297.617 145.203 288.82 167.123 279.014 215.291C279.014 215.291 282.186 168.421 288.243 149.241C294.445 130.06 298.915 122.561 295.31 111.889C297.041 106.842 292.281 103.092 285.792 101.073C279.302 99.0539 271.947 102.515 270.505 106.553C265.313 107.418 256.66 122.849 252.911 135.108C245.989 147.366 237.768 168.998 234.596 181.256C231.423 193.514 229.981 238.365 228.106 241.394C226.231 244.422 222.914 244.711 220.318 241.826C217.723 238.942 217.001 238.077 216.28 232.741C215.559 227.261 214.261 217.743 212.675 210.676C211.233 203.609 209.502 189.621 210.079 184.429C210.656 179.237 217.29 170.007 216.569 157.893C215.848 145.779 208.204 141.165 206.185 139.578C204.166 138.136 201.859 134.675 194.937 136.55C188.014 138.425 184.697 154.288 184.697 154.288C184.697 154.288 175.9 171.45 174.458 175.343C173.016 179.237 173.304 183.996 171.862 190.342C170.42 196.687 172.295 203.033 170.132 209.378C168.113 215.724 168.978 226.107 171.285 234.76C173.593 243.413 171.862 243.845 173.737 250.479C175.612 256.969 179.361 265.91 180.659 272.111C181.957 278.313 181.525 292.013 182.39 302.685C183.255 313.357 188.159 319.27 189.456 333.258C190.754 347.247 193.494 386.185 195.369 397.434C197.244 408.683 198.398 412.144 192.773 429.45H350.977V429.161Z" fill="#697695"/>
<path d="M350.977 429.161C356.313 422.383 372.176 398.876 377.224 391.088C382.271 383.301 393.664 356.765 398.423 350.708C403.182 344.651 408.951 337.008 406.355 319.125C403.904 301.243 401.74 295.042 403.183 269.516C404.625 243.99 400.154 238.942 394.241 226.684C393.087 219.329 391.213 217.31 388.473 215.147C388.905 210.099 391.501 190.053 393.087 179.814C394.818 169.575 391.357 172.748 393.087 150.971C394.818 129.195 388.905 113.764 385.156 109.293C384.579 104.967 380.397 100.063 372.753 98.4771C365.254 96.7465 358.332 103.669 358.332 106.697C355.88 107.563 348.093 118.234 351.986 153.134C343.478 173.469 338.142 194.38 336.988 201.446C335.69 208.513 329.921 240.384 327.614 239.086C325.307 237.788 334.536 207.359 337.276 188.467C340.016 169.575 342.901 156.451 344.631 147.51C346.362 138.569 346.506 109.293 336.7 105.688C334.392 98.3329 327.326 96.4581 320.836 96.0254C314.346 95.5928 308.866 100.784 308.722 103.813C305.838 104.823 302.809 118.811 304.107 138.28C297.617 145.203 288.82 167.123 279.014 215.291C279.014 215.291 282.186 168.421 288.243 149.241C294.445 130.06 298.915 122.561 295.31 111.889C297.041 106.842 292.281 103.092 285.792 101.073C279.302 99.0539 271.947 102.515 270.505 106.553C265.313 107.418 256.66 122.849 252.911 135.108C245.989 147.366 237.768 168.998 234.596 181.256C231.423 193.514 229.981 238.365 228.106 241.394C226.231 244.422 222.914 244.711 220.318 241.826C217.723 238.942 217.001 238.077 216.28 232.741C215.559 227.261 214.261 217.743 212.675 210.676C211.233 203.609 209.502 189.621 210.079 184.429C210.656 179.237 217.29 170.007 216.569 157.893C215.848 145.779 208.204 141.165 206.185 139.578C204.166 138.136 201.859 134.675 194.937 136.55C188.014 138.425 184.697 154.288 184.697 154.288C184.697 154.288 175.9 171.45 174.458 175.343C173.016 179.237 173.304 183.996 171.862 190.342C170.42 196.687 172.295 203.033 170.132 209.378C168.113 215.724 168.978 226.107 171.285 234.76C173.593 243.413 171.862 243.845 173.737 250.479C175.612 256.969 179.361 265.91 180.659 272.111C181.957 278.313 181.525 292.013 182.39 302.685C183.255 313.357 188.159 319.27 189.456 333.258C190.754 347.247 193.494 386.185 195.369 397.434C197.244 408.683 198.398 412.144 192.773 429.45" stroke="#445272" stroke-width="2" stroke-miterlimit="10"/>
<path d="M220.462 241.539C217.866 238.511 217.145 237.789 216.424 232.454C215.703 226.973 214.405 217.455 212.819 210.389C211.376 203.322 209.646 189.333 210.223 184.142C210.8 178.95 217.433 169.72 216.712 157.606C215.991 145.492 208.348 140.877 206.329 139.291C204.31 137.849 202.002 134.388 195.08 136.262C188.158 138.137 184.841 154.001 184.841 154.001C184.841 154.001 176.044 171.162 174.602 175.056C173.16 178.95 173.448 183.709 172.006 190.054C170.564 196.4 172.438 202.745 170.275 209.091C168.256 215.436 169.122 225.82 171.429 234.473C173.736 243.125 172.006 243.558 173.881 250.192C175.755 256.682 179.505 265.623 180.803 271.824" stroke="#BA6DCD" stroke-width="3" stroke-miterlimit="10" stroke-linecap="round"/>
<g opacity="0.5">
<path d="M188.159 155.298C189.89 154.865 191.765 154.865 193.495 154.433C195.226 154 196.668 153.279 197.966 152.125C199.264 151.116 200.562 149.818 201.715 148.376C202.292 147.655 202.869 146.933 203.446 146.357C204.023 145.636 204.455 144.914 205.176 144.193C204.888 145.059 204.455 145.924 204.023 146.789C203.59 147.655 203.157 148.376 202.581 149.241C201.571 150.827 200.273 152.269 198.831 153.423C197.389 154.577 195.514 155.442 193.639 155.586C191.765 155.875 190.034 155.298 188.159 155.298Z" fill="#B1BBD0"/>
</g>
<path d="M378.81 291.581C378.522 280.909 377.079 261.007 378.81 249.037C380.541 237.212 388.617 215.291 388.617 215.291" stroke="#445272" stroke-width="2" stroke-miterlimit="10"/>
<path d="M271.658 238.798C274.687 232.164 278.436 222.79 279.013 215.146" stroke="#445272" stroke-width="2" stroke-miterlimit="10"/>
<path opacity="0.33" d="M614.416 175.99C614.989 166.831 614.846 156.242 613.128 144.651C611.984 136.494 610.696 131.628 610.696 131.628C608.835 123.901 607.69 121.754 606.975 115.744C606.403 110.879 606.259 107.587 607.69 103.581C609.408 99.0013 612.556 96.1393 614.416 94.5651C614.702 94.1358 614.989 93.4203 615.704 92.7048C618.996 89.1273 625.864 89.4135 630.444 91.9893C632.161 92.991 633.306 94.1358 634.164 95.1375C640.175 102.006 642.75 110.02 644.324 116.03C645.612 120.896 646.328 124.616 647.759 132.058C649.619 142.79 650.907 149.945 652.911 162.395C654.771 174.988 655.773 181.285 656.345 187.438C657.204 198.457 657.204 206.471 657.061 210.764C656.917 215.343 656.631 219.207 656.345 222.212C656.631 224.215 657.061 227.22 657.776 230.941C658.635 235.377 664.359 262.137 664.788 276.733C664.788 278.451 669.081 303.35 670.512 316.945C670.941 320.952 673.088 341.272 673.374 361.736C673.374 364.169 673.374 368.748 674.376 374.758C675.091 379.623 676.379 385.491 679.384 393.934C684.822 408.959 692.264 422.411 696.7 429.852C644.754 429.709 592.951 429.709 541.005 429.566C535.854 423.413 530.845 419.549 527.554 416.544C518.824 408.673 504.657 403.951 486.913 387.923C483.049 384.489 481.904 383.487 476.609 379.194C473.747 376.761 469.454 373.327 463.587 368.891C455.717 362.881 455.287 363.024 453.284 360.877C447.846 355.153 445.986 348.57 445.127 345.852C443.696 341.272 443.41 336.979 442.981 330.683C442.551 325.96 442.837 326.103 442.551 323.098C442.408 321.954 441.693 317.374 438.258 308.502C435.826 302.349 432.248 293.047 431.246 284.461C431.103 283.03 425.093 273.156 427.096 260.992C428.67 251.834 430.96 242.389 433.393 230.798C431.103 220.924 428.957 210.907 426.667 201.033C427.096 200.747 427.812 200.317 428.67 200.031C429.529 199.745 430.245 199.745 430.674 199.888C432.105 199.172 434.251 198.028 437.113 197.598C444.269 196.31 449.993 199.602 451.853 200.747C453.284 201.605 455.287 203.036 458.579 206.614C461.011 209.333 466.592 215.915 470.885 226.934C473.318 233.087 475.465 238.382 475.751 245.824C476.037 253.122 474.32 258.989 473.032 262.566C473.891 263.139 474.892 263.854 475.751 264.856C478.756 268.147 479.615 272.011 479.758 273.871C479.615 252.12 477.754 235.377 476.037 224.072C475.751 222.069 473.175 205.326 472.316 186.293C472.173 182.716 472.03 177.421 472.459 170.552C473.175 161.966 474.606 154.954 475.894 149.945C476.037 147.37 476.323 144.651 476.466 142.075C477.611 132.916 479.471 125.475 481.332 120.323C483.049 115.029 485.339 109.877 489.059 104.725C492.637 99.7168 495.07 98.4289 496.357 97.8565C501.509 95.5669 506.518 96.9979 508.664 97.5703C515.962 99.5737 519.969 104.868 521.257 106.872C522.831 103.867 524.548 100.719 526.123 97.7134C526.695 96.1393 527.697 93.7065 530.129 91.4169C533.135 88.4118 536.569 87.5532 539.145 86.9808C545.298 85.5497 550.593 86.9807 553.026 87.5532C553.598 87.6963 554.027 87.8394 554.314 87.9825C553.741 85.979 553.026 82.5446 553.455 78.2516C553.884 73.9585 555.458 70.6672 556.46 68.95C556.746 67.5189 557.462 65.3724 559.322 63.369C563.043 58.9329 568.481 58.5035 569.912 58.3604C577.496 57.788 582.791 62.5104 584.079 63.5121C587.227 66.231 588.372 68.95 590.948 74.3878C594.668 82.4015 595.813 89.2704 596.672 94.1358C597.387 98.1427 597.673 101.577 597.96 104.01C598.961 107.73 600.392 113.598 602.253 120.753C606.403 136.494 607.404 140.071 608.835 145.652C610.409 152.378 612.699 162.825 614.416 175.99Z" fill="#697695"/>
<g opacity="0.5">
<path d="M559.608 71.0964C561.612 74.1015 563.472 77.2498 565.189 80.2549C565.619 80.9704 566.191 81.5428 566.907 81.9721C567.622 82.4014 568.338 82.5445 569.196 82.5445C570.913 82.5445 572.631 82.4014 574.348 82.1152C576.065 81.829 577.782 81.3997 579.5 80.9704C581.217 80.398 582.934 80.1118 583.649 78.6808C583.936 77.9653 584.079 77.2498 583.936 76.2481C583.936 75.3895 583.793 74.5309 583.793 73.5292C583.649 71.8119 583.363 69.9516 583.077 68.2344C583.649 69.9516 584.079 71.6688 584.508 73.386C584.651 74.2446 584.794 75.1033 584.937 76.105C585.08 76.9636 585.08 77.9653 584.651 78.967C584.222 79.9687 583.506 80.6842 582.505 81.1135C581.646 81.5428 580.787 81.829 579.929 82.1152C578.212 82.6877 576.351 83.1169 574.634 83.4032C572.774 83.6894 571.056 83.8325 569.196 83.6893C568.194 83.6893 567.193 83.4032 566.334 82.8308C565.476 82.2583 564.76 81.5428 564.331 80.6842C562.614 77.6791 561.039 74.3877 559.608 71.0964Z" fill="#B1BBD0"/>
</g>
<path d="M541.005 429.422C535.854 423.269 530.845 419.405 527.554 416.4C518.824 408.53 504.657 403.807 486.913 387.78C483.049 384.346 481.904 383.344 476.609 379.051C473.747 376.618 469.454 373.184 463.587 368.747C455.717 362.737 455.287 362.88 453.284 360.734C447.846 355.01 445.986 348.427 445.127 345.708C443.696 341.129 443.41 336.836 442.981 330.539C442.551 325.817 442.837 325.96 442.551 322.955C442.408 321.81 441.693 317.231 438.258 308.359C435.826 302.205 432.248 292.904 431.246 284.318C431.103 282.886 425.093 273.013 427.096 260.849C428.67 251.69 430.96 242.246 433.393 230.654C431.103 220.78 428.957 210.763 426.667 200.889C427.096 200.603 427.812 200.174 428.67 199.888C429.529 199.601 430.245 199.601 430.674 199.745C432.105 199.029 434.251 197.884 437.113 197.455C444.269 196.167 449.993 199.458 451.853 200.603C453.284 201.462 455.287 202.893 458.579 206.47C461.011 209.189 466.592 215.772 470.885 226.791C473.318 232.944 475.465 238.239 475.751 245.68C476.037 252.978 474.32 258.845 473.032 262.423C473.891 262.995 474.892 263.711 475.751 264.713C478.756 268.004 479.615 271.868 479.758 273.728C479.615 251.977 477.754 235.234 476.037 223.929C475.751 221.925 473.175 205.182 472.316 186.15C472.173 182.572 472.03 177.278 472.459 170.409C473.175 161.823 474.606 154.811 475.894 149.802C476.037 147.226 476.323 144.507 476.466 141.931C477.611 132.773 479.471 125.332 481.332 120.18C483.049 114.885 485.339 109.734 489.059 104.582C492.637 99.5734 495.07 98.2855 496.357 97.7131C501.509 95.4235 506.518 96.8545 508.664 97.4269C515.962 99.4303 519.969 104.725 521.257 106.728C522.831 103.723 524.548 100.575 526.123 97.57C526.695 95.9959 527.697 93.5631 530.129 91.2735C533.135 88.2684 536.569 87.4098 539.145 86.8374C545.298 85.4063 550.593 86.8374 553.026 87.4098C553.598 87.5529 554.027 87.696 554.314 87.8391" stroke="#445272" stroke-width="2" stroke-miterlimit="10"/>
<path d="M614.416 175.988C614.988 166.83 614.845 156.24 613.128 144.649C611.983 136.492 610.695 131.627 610.695 131.627C608.835 123.899 607.69 121.753 606.975 115.743C606.402 110.877 606.259 107.586 607.69 103.579C609.407 98.9997 612.556 96.1377 614.416 94.5636C614.702 94.1343 614.988 93.4187 615.704 92.7032C618.995 89.1257 625.864 89.4119 630.443 91.9877C632.161 92.9894 633.305 94.1343 634.164 95.136C640.174 102.005 642.75 110.019 644.324 116.029C645.612 120.894 646.328 124.615 647.759 132.056C649.619 142.789 650.907 149.944 652.91 162.394C654.771 174.987 655.772 181.283 656.345 187.436C657.203 198.455 657.203 206.469 657.06 210.762C656.917 215.341 656.631 219.205 656.345 222.21C656.631 224.214 657.06 227.219 657.776 230.939C658.634 235.376 664.359 262.136 664.788 276.732C664.788 278.449 669.081 303.349 670.512 316.943C670.941 320.95 673.088 341.271 673.374 361.734C673.374 364.167 673.374 368.746 674.376 374.756C675.091 379.622 676.379 385.489 679.384 393.932C684.822 408.958 692.263 422.409 696.699 429.851" stroke="#445272" stroke-width="2" stroke-miterlimit="10"/>
<path d="M526.408 243.247C526.695 238.668 526.838 232.371 526.408 224.644C526.265 222.784 525.979 217.203 524.262 205.468C522.545 193.019 521.829 191.874 519.969 179.281C518.109 167.26 517.25 161.25 517.25 154.667C517.25 146.94 518.109 144.507 519.397 131.914C520.112 125.045 520.684 115.601 520.971 105.727" stroke="#445272" stroke-width="2" stroke-miterlimit="10"/>
<path d="M621.572 229.938C620.856 228.078 619.997 225.645 619.139 222.926C618.853 222.068 618.423 220.494 618.137 218.49C617.279 214.34 617.135 211.192 616.992 209.189C616.42 200.889 615.418 188.868 614.273 176.132C612.556 162.967 610.267 152.52 608.549 145.365C607.118 139.784 606.117 136.207 601.967 120.466C600.106 113.311 598.532 107.587 597.674 103.723C597.53 101.29 597.101 97.9988 596.386 93.8488C595.527 88.9834 594.239 82.1145 590.662 74.1008C588.229 68.6629 586.941 65.944 583.793 63.2251C582.505 62.0803 577.21 57.3579 569.626 58.0734C568.195 58.2165 562.757 58.6458 559.036 63.082C557.319 65.0854 556.603 67.375 556.174 68.6629C555.172 70.5232 553.598 73.6715 553.169 77.9645C552.74 82.2576 553.455 85.692 554.028 87.6954L554.314 88.5541C557.891 97.4264 559.322 103.58 560.181 108.874C561.04 113.883 560.753 115.171 561.898 122.755C562.757 128.622 569.053 161.393 569.483 163.539C570.771 171.982 570.914 176.991 572.202 187.58C573.633 199.458 574.777 209.189 575.636 215.485" stroke="#BA6DCD" stroke-width="3" stroke-miterlimit="10" stroke-linecap="round"/>
<g opacity="0.5">
<path d="M436.97 228.795C437.972 227.221 438.545 225.361 438.545 223.5C438.545 222.642 438.401 221.64 438.258 220.781L437.829 217.919C437.257 214.199 436.827 210.335 436.398 206.614L436.541 206.757C435.539 205.04 434.108 203.609 432.248 202.607C434.251 203.18 436.112 204.468 437.4 206.185V206.328C438.258 210.049 438.831 213.912 439.26 217.633C439.403 219.493 439.689 221.354 439.546 223.5C439.26 225.504 438.258 227.364 436.97 228.795Z" fill="#B1BBD0"/>
</g>
</svg>
