<svg width="900" height="500" viewBox="0 0 900 500" fill="none" xmlns="http://www.w3.org/2000/svg">
<path opacity="0.33" d="M327.41 430.327C329.284 428.02 337.356 419.659 346.15 410.865C354.943 402.072 372.963 371.078 378.297 364.88C383.631 358.681 397.758 343.4 401.218 335.76C404.677 328.12 400.929 303.613 401.218 295.973C401.506 288.333 405.11 251.861 402.659 242.347C400.209 232.832 396.316 228.94 393.145 222.309C389.973 215.678 389.397 213.66 386.514 211.641C383.631 209.623 385.36 192.324 385.937 189.874C386.514 187.423 388.532 176.323 388.532 172.431C388.532 168.539 388.532 157.439 391.559 149.222C394.586 141.005 392.568 116.354 387.379 108.57C382.189 100.785 378.008 98.9111 371.81 98.4786C365.611 98.0461 358.836 104.101 357.106 107.849C355.376 111.597 353.069 115.057 350.475 145.618C346.871 153.835 339.951 161.042 336.924 170.989C333.897 180.936 325.824 206.019 323.95 216.398C322.076 226.778 311.408 240.905 315.733 233.265C320.058 225.769 319.625 207.317 327.698 182.81C335.771 158.303 334.762 159.889 334.762 158.592C334.762 157.294 339.519 152.826 341.104 142.158C344.132 137.257 350.042 112.894 339.086 105.831C338.942 100.785 335.627 97.3254 326.545 95.8838C317.463 94.4422 314.147 96.7487 312.129 102.371C308.813 103.236 303.768 115.489 302.903 125.58C300.452 127.022 288.632 138.987 286.325 143.455C284.019 147.924 277.532 170.413 276.234 176.179C274.937 181.945 266.576 217.984 264.269 221.3C261.963 224.615 260.954 226.922 262.828 219.858C264.702 212.795 273.351 170.268 277.099 162.628C280.847 154.988 281.28 148.645 291.659 133.797C302.038 118.949 300.597 111.741 298.723 106.984C296.848 102.227 295.407 98.1903 286.613 96.7487C277.82 95.3072 272.774 102.659 272.774 102.659C272.774 102.659 267.441 104.245 254.611 118.084C251.872 112.75 248.124 108.714 248.124 108.714C248.124 108.714 245.385 102.947 237.6 101.794C229.816 100.641 226.644 109.002 226.212 112.029C223.617 112.029 218.283 123.994 216.409 135.959C214.535 148.068 211.508 165.367 208.336 175.602C205.165 185.837 203.147 194.343 202.426 201.839C201.705 209.335 197.669 219.858 196.948 229.661C196.227 239.464 184.839 267.574 184.262 276.512C183.542 285.449 183.974 316.011 183.109 323.074C182.244 330.138 180.947 353.924 183.109 367.619C185.271 381.169 184.262 393.711 181.956 400.486C179.649 407.261 171 429.75 171 429.75H327.41V430.327Z" fill="#E0E1E2"/>
<path d="M327.41 430.327C329.284 428.02 337.356 419.659 346.15 410.865C354.943 402.072 372.963 371.078 378.297 364.88C383.631 358.681 397.758 343.4 401.218 335.76C404.677 328.12 400.929 303.613 401.218 295.973C401.506 288.333 405.11 251.861 402.659 242.347C400.209 232.832 396.316 228.94 393.145 222.309C389.973 215.678 389.397 213.66 386.514 211.641C383.631 209.623 385.36 192.324 385.937 189.874C386.514 187.423 388.532 176.323 388.532 172.431C388.532 168.539 388.532 157.439 391.559 149.222C394.586 141.005 392.568 116.354 387.379 108.57C382.189 100.785 378.008 98.9111 371.81 98.4786C365.611 98.0461 358.836 104.101 357.106 107.849C355.376 111.597 353.069 115.057 350.475 145.618C346.871 153.835 339.951 161.042 336.924 170.989C333.897 180.936 325.824 206.019 323.95 216.398C322.076 226.778 311.408 240.905 315.733 233.265C320.058 225.769 319.625 207.317 327.698 182.81C335.771 158.303 334.762 159.889 334.762 158.592C334.762 157.294 339.519 152.826 341.104 142.158C344.132 137.257 350.042 112.894 339.086 105.831C338.942 100.785 335.627 97.3254 326.545 95.8838C317.463 94.4422 314.147 96.7487 312.129 102.371C308.813 103.236 303.768 115.489 302.903 125.58C300.452 127.022 288.632 138.987 286.325 143.455C284.019 147.924 277.532 170.413 276.234 176.179C274.937 181.945 266.576 217.984 264.269 221.3C261.963 224.615 260.954 226.922 262.828 219.858C264.702 212.795 273.351 170.268 277.099 162.628C280.847 154.988 281.28 148.645 291.659 133.797C302.038 118.949 300.597 111.741 298.723 106.984C296.848 102.227 295.407 98.1903 286.613 96.7487C277.82 95.3072 272.774 102.659 272.774 102.659C272.774 102.659 267.441 104.245 254.611 118.084C251.872 112.75 248.124 108.714 248.124 108.714C248.124 108.714 245.385 102.947 237.6 101.794C229.816 100.641 226.644 109.002 226.212 112.029C223.617 112.029 218.283 123.994 216.409 135.959C214.535 148.068 211.508 165.367 208.336 175.602C205.165 185.837 203.147 194.343 202.426 201.839C201.705 209.335 197.669 219.858 196.948 229.661C196.227 239.464 184.839 267.574 184.262 276.512C183.542 285.449 183.974 316.011 183.109 323.074C182.244 330.138 180.947 353.924 183.109 367.619C185.271 381.169 184.262 393.711 181.956 400.486C179.649 407.261 171 429.75 171 429.75" stroke="#75819C" stroke-width="2" stroke-miterlimit="10"/>
<path d="M212.805 225.912C216.841 221.588 220.157 214.957 220.445 208.037C220.733 201.118 220.012 165.223 229.094 151.528C238.176 137.833 254.754 118.66 254.754 118.66" stroke="#75819C" stroke-width="2" stroke-miterlimit="10"/>
<path d="M373.827 309.957C371.809 306.208 369.358 303.758 369.358 300.875C369.358 297.992 370.944 264.98 372.674 253.159C374.26 241.338 382.332 207.173 385.071 200.109" stroke="#75819C" stroke-width="2" stroke-miterlimit="10"/>
<path opacity="0.33" d="M544.649 429.788C542.903 427.169 540.139 423.387 536.357 419.167C532.574 414.804 530.102 412.767 525.882 408.694C521.373 404.184 518.61 400.838 513.663 395.165C502.171 381.927 493.297 369.271 490.679 365.489C483.405 355.16 480.932 350.359 475.84 345.995C475.113 345.413 472.495 343.231 469.876 339.595C466.821 335.521 465.657 332.321 465.366 331.302C465.221 330.72 464.639 328.829 464.202 324.756C463.475 318.501 464.202 315.882 464.057 309.626C463.911 304.535 463.329 300.753 463.184 299.735C462.747 296.825 461.73 290.279 458.675 282.569C457.511 279.805 456.492 277.623 455.475 273.695C455.329 273.113 454.747 270.641 454.165 267.44C453.874 265.112 453.583 263.221 453.583 261.621C453.001 260.603 452.419 259.293 451.837 257.694C450.964 254.929 450.964 252.456 450.964 250.711C450.382 249.547 449.509 247.801 449.074 245.473C448.492 242.71 448.783 240.382 450.673 231.799C451.11 229.908 451.546 227.58 452.128 224.962C452.419 220.888 452.71 216.524 452.71 211.87C452.71 210.124 452.71 208.523 452.565 206.778C450.819 202.995 449.655 199.65 448.783 197.031C447.619 193.686 446.6 190.776 445.873 186.848C445.436 184.375 445.145 182.338 445 180.884C445.582 180.739 446.309 180.448 446.891 180.302C447.473 179.575 448.492 178.702 449.8 177.974C454.311 175.355 459.402 176.81 462.747 177.683C470.167 179.72 474.532 184.229 475.695 185.393C478.75 188.593 480.35 191.94 482.095 196.449C487.479 210.124 489.515 222.78 490.533 231.363C490.824 234.417 491.261 239.363 491.988 249.256C492.715 258.857 493.297 266.13 493.734 275.15C494.169 282.424 494.606 292.17 494.751 303.662C493.734 306.572 492.715 309.917 492.133 313.846C491.115 319.81 490.97 325.192 491.261 329.411C491.261 326.502 491.406 323.447 491.842 320.101C492.57 313.7 494.025 308.173 495.624 303.662C494.897 286.933 494.315 270.204 493.588 253.474C493.152 248.237 492.57 242.855 491.842 237.182C490.679 228.599 488.642 218.998 487.042 209.833C485.005 198.05 483.987 192.231 483.55 185.539C483.259 180.448 483.405 175.21 483.696 164.736C483.841 158.481 483.987 157.317 484.132 148.444C484.423 137.969 484.278 138.26 484.423 132.441C484.86 120.804 485.733 114.694 487.333 108.729C491.261 94.1821 499.553 90.3998 505.372 90.1088C510.608 89.8178 514.39 92.1455 516.282 93.3092C523.992 98.1103 526.029 106.111 526.319 107.711C526.755 109.457 526.755 110.912 526.901 111.347C527.483 121.677 526.61 144.37 526.173 152.226C527.192 154.844 528.501 158.772 529.956 163.427C534.029 176.81 535.775 186.994 536.939 194.412C539.266 207.796 541.739 222.489 544.94 240.236C541.157 215.36 537.23 190.339 533.447 165.464C531.411 143.933 529.229 122.549 527.192 101.019C527.337 99.8552 527.774 98.1103 528.792 96.2188C530.975 91.8545 534.466 89.6724 535.63 89.0906C543.049 84.5809 551.196 87.1994 552.359 87.6358C554.686 88.3632 559.632 90.5452 562.833 95.3458C564.434 97.6738 565.015 99.8552 566.033 103.493C566.906 106.547 567.779 110.912 567.925 116.294C568.943 118.476 570.252 121.386 571.706 125.022C574.616 132.15 577.816 140.006 580.872 150.189C583.635 159.645 584.945 167.064 585.236 168.519C585.817 172.01 585.963 173.174 587.563 186.994C589.455 204.159 589.89 206.633 590.763 210.124C592.509 217.252 594.546 223.216 597.019 226.998C591.2 218.125 589.455 198.341 589.018 176.519C589.018 176.519 584.362 163.718 580.144 137.823C579.853 135.642 577.671 133.023 576.071 129.532C572.579 121.967 570.979 118.185 570.252 113.966C569.67 110.33 569.089 105.674 571.415 100.583C571.997 99.2732 575.489 92.5818 582.909 90.9817C589.6 89.5269 595.128 93.0182 596.582 94.0366C599.201 95.7823 600.801 97.6738 602.983 100.583C606.038 104.511 611.857 113.239 612.294 114.403L613.021 115.13C613.603 109.602 617.094 101.747 622.04 99.2732C626.259 97.2373 630.187 97.9648 631.35 98.2557C637.46 99.7097 640.225 104.802 640.661 105.529C642.552 108.002 645.171 111.784 647.789 116.585C651.862 124.003 653.608 129.823 656.954 140.442C659.573 148.735 661.172 155.281 663.209 164.154C664.955 171.137 666.264 176.956 667.136 181.175C668.009 191.212 668.737 201.54 669.319 212.015C669.755 219.289 670.046 226.416 670.337 233.399C671.647 237.473 673.392 243.874 674.847 251.728C676.302 259.73 676.738 265.548 677.611 281.842C678.629 299.589 679.211 308.463 679.211 309.481C679.647 323.301 679.647 339.449 679.647 371.162C679.647 378.872 679.647 387.745 682.266 398.801C684.157 406.657 686.921 413.785 687.939 416.55C690.122 421.932 692.303 426.441 694.049 429.788C644.443 429.933 594.546 429.933 544.649 429.788Z" fill="#E0E1E2"/>
<path d="M544.94 240.236C541.158 215.36 537.23 190.339 533.448 165.464C531.411 143.933 529.229 122.549 527.192 101.019C527.338 99.8552 527.774 98.1103 528.793 96.2188C530.974 91.8545 534.466 89.6724 535.63 89.0906C543.049 84.5809 551.195 87.1994 552.359 87.6358C554.687 88.3632 559.633 90.5452 562.833 95.3458C564.433 97.6738 565.015 99.8552 566.034 103.493C566.907 106.547 567.78 110.912 567.925 116.294C568.944 118.476 570.252 121.386 571.707 125.022C574.617 132.15 577.817 140.006 580.872 150.189C583.636 159.645 584.945 167.064 585.236 168.519C585.818 172.01 585.963 173.174 587.564 186.994C589.454 204.159 589.891 206.633 590.764 210.124C592.51 217.252 594.547 223.216 597.019 226.998C591.2 218.125 589.454 198.341 589.018 176.519C589.018 176.519 584.363 163.718 580.145 137.823C579.854 135.642 577.671 133.023 576.071 129.532C572.58 121.967 570.979 118.185 570.252 113.966C569.67 110.33 569.089 105.674 571.416 100.583C571.998 99.2732 575.489 92.5818 582.908 90.9817C589.6 89.5269 595.128 93.0182 596.583 94.0366C599.202 95.7823 600.802 97.6738 602.983 100.583C606.039 104.511 611.858 113.239 612.294 114.403L613.022 115.13C613.604 109.602 617.094 101.747 622.04 99.2732C626.26 97.2373 630.187 97.9648 631.351 98.2557C637.461 99.7097 640.224 104.802 640.661 105.529C642.552 108.002 645.171 111.784 647.789 116.585C651.863 124.003 653.608 129.823 656.954 140.442C659.572 148.735 661.173 155.281 663.21 164.154C664.955 171.137 666.264 176.956 667.137 181.175C668.01 191.212 668.737 201.54 669.319 212.015C669.756 219.289 670.047 226.416 670.338 233.399C671.646 237.473 673.392 243.874 674.847 251.728C676.302 259.73 676.739 265.548 677.611 281.842C678.629 299.589 679.211 308.463 679.211 309.481C679.647 323.301 679.647 339.449 679.647 371.162C679.647 378.872 679.647 387.745 682.266 398.801C684.157 406.657 686.921 413.785 687.94 416.55C690.122 421.932 692.304 426.441 694.05 429.788" stroke="#75819C" stroke-width="2" stroke-miterlimit="10"/>
<path d="M486.896 209.687C484.859 197.904 483.841 192.085 483.405 185.393C483.114 180.302 483.259 175.065 483.55 164.59C483.696 158.335 483.84 157.171 483.986 148.298C484.277 137.824 484.131 138.114 484.277 132.295C484.713 120.658 485.586 114.548 487.187 108.584C491.114 94.0364 497.078 90.6905 505.225 89.9631C510.462 89.5268 514.245 91.9998 516.135 93.1635C523.845 97.9644 526.319 104.22 526.755 111.202C527.483 121.531 526.464 144.225 526.028 152.08C527.046 154.699 528.356 158.626 529.81 163.282C533.884 176.664 535.629 186.848 536.793 194.267C539.12 207.651 541.593 222.343 544.794 240.091" stroke="#F69AED" stroke-width="3" stroke-miterlimit="10" stroke-linecap="round"/>
<path d="M636.733 221.179C636.733 209.25 636.298 199.068 635.57 191.066C634.261 173.755 632.224 164.008 631.642 161.099C630.914 157.462 630.188 154.408 629.606 152.371C624.077 140.006 618.113 126.767 612.585 114.402" stroke="#75819C" stroke-width="2" stroke-miterlimit="10"/>
<path d="M544.649 429.788C542.903 427.17 540.139 423.387 536.357 419.169C532.574 414.804 530.102 412.768 525.882 408.694C521.373 404.185 518.61 400.839 513.663 395.166C502.171 381.928 493.297 369.272 490.679 365.489C483.405 355.161 480.932 350.36 475.84 345.995C475.113 345.413 472.495 343.232 469.876 339.595C466.821 335.522 465.657 332.321 465.366 331.303C465.221 330.721 464.639 328.83 464.202 324.757C463.475 318.502 464.202 315.883 464.057 309.628C463.911 304.536 463.329 300.753 463.184 299.735C462.747 296.826 461.73 290.28 458.675 282.569C457.511 279.806 456.492 277.624 455.475 273.696C455.329 273.114 454.747 270.641 454.165 267.441C453.874 265.113 453.583 263.222 453.583 261.621C453.001 260.604 452.419 259.294 451.837 257.694C450.964 254.93 450.964 252.457 450.964 250.711C450.382 249.547 449.509 247.802 449.074 245.474C448.492 242.71 448.783 240.383 450.673 231.8C451.11 229.908 451.546 227.581 452.128 224.962C452.419 220.889 452.71 216.526 452.71 211.87C452.71 210.125 452.71 208.524 452.565 206.778C450.819 202.997 449.655 199.65 448.783 197.032C447.619 193.686 446.6 190.777 445.873 186.849C445.436 184.376 445.145 182.339 445 180.884C445.582 180.739 446.309 180.448 446.891 180.302C447.473 179.575 448.492 178.702 449.8 177.975C454.311 175.356 459.402 176.811 462.747 177.684C470.167 179.72 474.532 184.231 475.695 185.394C478.75 188.594 480.35 191.94 482.095 196.45C487.479 210.125 489.515 222.781 490.533 231.363C490.824 234.419 491.261 239.364 491.988 249.256C492.715 258.858 493.297 266.131 493.734 275.15C494.169 282.424 494.606 292.171 494.751 303.663C493.734 306.572 492.715 309.919 492.133 313.846C491.115 319.81 490.97 325.194 491.261 329.412C491.261 326.502 491.406 323.448 491.842 320.101C492.57 313.7 494.025 308.173 495.624 303.663C494.897 286.934 494.315 270.204 493.588 253.475C493.152 248.239 491.115 237.036 490.388 231.363" stroke="#75819C" stroke-width="2" stroke-miterlimit="10"/>
<g opacity="0.5">
<path d="M494.315 101.601C494.315 103.056 494.461 104.656 494.896 105.964C495.187 106.692 495.478 107.274 495.915 107.71C496.351 108.147 496.933 108.438 497.661 108.729C500.425 109.311 503.479 109.165 506.389 109.165C509.298 109.02 512.354 108.729 515.263 108.292C515.99 108.147 516.572 108.001 516.863 107.419C517.3 106.983 517.59 106.255 517.881 105.528C518.463 104.219 518.754 102.619 518.9 101.164C519.045 102.619 518.9 104.219 518.609 105.673C518.463 106.401 518.172 107.128 517.736 107.856C517.445 108.147 517.154 108.583 516.718 108.729C516.281 109.02 515.99 109.02 515.554 109.165C512.645 109.893 509.589 110.329 506.535 110.475C505.08 110.475 503.479 110.62 502.024 110.475C500.571 110.329 498.97 110.184 497.515 109.602C496.788 109.311 495.915 108.874 495.478 108.147C494.896 107.419 494.605 106.692 494.605 105.964C494.024 104.656 494.024 103.056 494.315 101.601Z" fill="#75819C"/>
</g>
<g opacity="0.5">
<path d="M455.764 206.049C456.783 205.467 457.801 204.739 458.238 203.576C458.674 202.558 458.238 201.394 458.092 200.23C457.947 199.648 457.947 199.066 457.801 198.338L457.656 197.466C457.656 197.321 457.656 197.175 457.656 197.03C457.656 196.884 457.656 196.884 457.656 196.739L456.928 193.101L456.346 189.465C456.201 188.301 455.91 186.992 455.473 186.119C454.455 184.228 452.419 182.482 450.382 181.318C452.71 182.046 455.037 183.21 456.492 185.537C457.074 186.701 457.365 188.01 457.656 189.174C457.947 190.338 458.092 191.648 458.383 192.81C458.529 193.974 458.82 195.138 458.965 196.448C458.965 196.593 458.965 196.884 458.965 197.03V197.466V198.338L459.111 200.084C459.111 200.666 459.256 201.248 459.256 201.976C459.256 202.558 459.111 203.285 458.82 204.013C458.092 205.176 456.928 205.903 455.764 206.049Z" fill="#75819C"/>
</g>
</svg>
