<svg width="850" height="500" viewBox="0 0 850 500" fill="none" xmlns="http://www.w3.org/2000/svg">
<path opacity="0.33" d="M630.429 422.938C620.962 403.102 619.609 399.045 618.407 393.635C616.002 382.815 616.303 373.649 616.453 369.441C616.754 361.326 620.21 339.537 621.412 318.498C622.765 292.351 623.516 279.277 623.666 273.266C624.418 253.731 624.718 243.963 624.568 235.848C624.418 226.08 624.718 216.162 624.568 206.395C624.568 204.742 624.568 203.539 624.718 202.037C625.319 195.274 627.724 192.119 631.18 181.75C632.382 178.143 632.683 176.641 632.833 175.889C633.735 171.682 633.735 168.075 633.584 165.671C634.486 162.665 635.839 158.307 637.341 152.897C638.694 148.239 639.295 145.534 639.896 143.13C640.798 138.621 641.399 132.009 640.046 123.294C640.347 121.19 640.798 117.884 639.896 113.977C639.445 111.572 638.694 109.919 637.942 108.266C635.989 103.758 635.087 101.504 632.833 99.7007C626.972 95.0422 619.91 97.2963 619.309 97.5969C616.904 98.3482 615.552 99.5504 613.448 101.504C611.645 103.007 606.385 107.665 603.981 115.329C603.079 118.034 603.38 118.635 602.778 124.796C602.328 128.854 600.675 142.529 596.166 153.198C594.814 156.504 593.462 158.608 593.161 159.209C591.508 162.064 590.156 163.567 588.052 166.121C586.549 168.075 584.595 170.93 582.341 174.537C583.093 163.867 584.896 155.452 586.549 149.742C588.202 143.881 589.855 139.824 596.016 120.589C598.871 111.572 599.472 109.619 599.623 106.313C599.623 103.608 599.773 92.3373 590.907 84.3728C583.093 77.31 571.972 76.1078 564.609 78.963C560.401 80.616 556.645 83.7717 556.494 83.922C553.789 86.3264 551.986 88.7308 550.784 90.534C550.183 87.0778 548.981 81.9685 546.126 76.2581C544.022 72.0504 538.612 61.5313 526.891 56.1215C519.978 52.9657 513.967 53.116 501.945 53.4166C495.784 53.5668 493.079 54.3182 490.675 55.3701C484.063 58.6761 480.757 65.1379 480.005 66.7909C479.104 68.7444 478.503 70.5477 478.202 71.7499C476.85 81.2171 475.798 91.2854 475.046 101.955C474.295 113.376 473.994 124.195 474.145 134.264C474.896 138.471 474.295 141.627 473.844 143.28C473.093 145.534 472.492 147.788 470.388 148.69C468.885 149.291 466.932 148.99 465.579 147.938C464.377 147.037 464.076 145.534 463.926 145.233C463.926 145.233 463.325 142.829 455.21 114.728C454.609 112.324 454.91 114.578 444.992 89.4821C443.789 86.3264 442.437 82.7198 441.235 77.6105C440.784 75.657 440.333 73.1023 439.732 63.9357C438.981 51.7635 438.981 45.3018 437.027 37.187C436.727 35.6843 436.126 33.5805 434.923 31.0258C434.473 29.9739 432.218 25.0149 428.462 21.4084C424.104 17.351 415.388 12.9931 407.574 15.9985C399.91 19.004 397.355 27.8701 396.003 32.9794C394.65 37.7881 394.951 43.6488 395.401 55.5204C395.702 61.5313 396.003 66.9411 397.055 74.1542C398.557 83.3209 399.309 82.8701 400.21 89.7827C401.412 99.5504 399.759 101.053 400.661 112.023C401.112 116.531 401.262 114.578 403.366 128.403C405.47 141.777 405.32 143.58 406.822 150.493C407.874 155.152 408.325 156.354 409.828 162.515C411.03 168.075 411.932 172.583 412.382 175.739C412.232 177.692 412.082 180.397 411.932 183.854C411.781 190.466 411.932 197.679 412.833 208.348C414.486 226.08 415.839 226.231 415.839 235.397C415.839 243.212 414.787 245.917 413.735 254.332C412.683 263.649 411.781 287.993 418.694 310.835C420.497 316.695 420.948 320.001 423.803 331.272C425.456 337.433 425.306 338.034 427.56 347.05C430.415 358.621 431.918 364.783 434.473 371.695C436.727 377.856 437.328 377.706 443.94 391.381C445.292 394.086 451.303 406.408 457.314 420.684C460.019 427.146 463.776 436.162 467.683 446.982C525.688 446.832 583.544 446.832 641.549 446.681C637.341 437.515 633.434 429.25 630.429 422.938ZM541.467 123.744C538.762 131.408 537.56 134.414 535.306 137.72C533.503 140.425 531.699 142.529 530.497 143.881C528.393 136.668 528.393 125.097 529.145 113.225C530.647 113.225 534.705 112.925 537.109 112.324C540.115 111.572 544.172 109.619 546.877 107.064C544.773 114.427 542.369 121.039 541.467 123.744Z" fill="#E0E1E2"/>
<path d="M468.283 447.283C464.226 436.313 460.619 427.447 457.914 420.985C451.753 406.709 445.892 394.387 444.54 391.682C437.928 378.007 437.327 378.157 435.073 371.996C432.518 365.084 431.015 358.922 428.16 347.201C425.906 338.185 426.056 337.734 424.403 331.422C421.398 320.152 421.097 316.846 419.294 310.985C412.231 288.144 413.133 263.799 414.335 254.483C415.387 246.067 416.439 243.362 416.439 235.548C416.439 226.381 415.086 226.231 413.433 208.499C412.381 197.83 412.231 190.616 412.532 184.004C412.682 180.698 412.832 177.843 412.983 175.89" stroke="#808285" stroke-width="2" stroke-miterlimit="10"/>
<path d="M470.388 148.54C472.492 147.638 473.243 145.384 473.844 143.13C474.295 141.477 475.047 138.321 474.145 134.114C473.995 124.045 474.295 113.226 475.047 101.805C475.798 91.1354 476.85 80.9169 478.202 71.5999C478.503 70.3977 479.104 68.5945 480.006 66.6409C480.907 64.9879 484.063 58.5262 490.675 55.2201C493.079 54.018 495.634 53.2666 501.946 53.1163C513.967 52.8158 519.978 52.6655 526.891 55.8212C538.612 61.2311 543.872 71.7502 545.976 75.9578C548.831 81.6682 550.033 86.7775 550.634 90.2338C551.836 88.4305 553.64 86.0262 556.344 83.6218C556.495 83.4715 560.252 80.3158 564.459 78.6628C571.973 75.8076 582.943 77.0098 590.757 84.0726C599.623 92.0371 599.473 103.308 599.473 106.012C599.473 109.318 598.872 111.272 596.017 120.288C589.855 139.373 588.202 143.431 586.549 149.441C584.896 155.152 583.093 163.567 582.342 174.237C584.596 170.63 586.549 167.775 588.052 165.821C590.006 163.116 591.358 161.764 593.161 158.909C593.612 158.308 594.814 156.053 596.167 152.898C600.675 142.228 602.328 128.553 602.779 124.496C603.38 118.335 603.23 117.734 603.981 115.029C606.385 107.365 611.645 102.706 613.448 101.204C615.702 99.2502 617.055 98.048 619.309 97.2967C619.91 97.1464 626.973 94.742 632.834 99.4005C635.088 101.204 635.989 103.458 637.943 107.966C638.694 109.619 639.295 111.272 639.896 113.676C640.648 117.584 640.347 120.89 640.047 122.993C641.549 131.709 640.798 138.471 639.896 142.829C639.446 145.384 638.694 147.939 637.342 152.597C635.839 157.857 634.487 162.365 633.585 165.37C633.735 167.775 633.735 171.381 632.834 175.589C632.683 176.34 632.383 177.993 631.18 181.45C627.874 191.818 625.47 194.974 624.719 201.737C624.568 203.39 624.568 204.441 624.568 206.094C624.719 215.862 624.418 225.78 624.568 235.548C624.719 243.663 624.418 253.43 623.667 272.966C623.517 278.977 622.765 292.051 621.413 318.198C620.361 339.387 616.905 361.026 616.454 369.141C616.303 373.348 616.003 382.515 618.407 393.335C619.609 398.745 621.112 402.802 630.429 422.638C633.435 428.95 637.342 437.064 642 446.682" stroke="#808285" stroke-width="2" stroke-miterlimit="10"/>
<path d="M412.683 175.889C412.232 172.884 411.33 168.226 410.128 162.665C408.776 156.354 408.325 155.302 407.123 150.644C405.47 143.581 405.62 141.928 403.666 128.553C401.562 114.578 401.412 116.682 400.961 112.174C400.06 101.053 401.713 99.7009 400.51 89.9332C399.609 83.0206 398.707 83.4715 397.355 74.3048C396.153 67.0917 396.002 61.6818 395.702 55.6709C395.101 43.7993 394.95 37.9387 396.303 33.1299C397.806 28.0207 400.21 19.1545 407.874 16.1491C415.688 12.9933 424.404 17.3512 428.762 21.5589C432.519 25.1655 434.773 29.9742 435.224 31.1764C436.276 33.5808 436.877 35.6846 437.327 37.3376C439.281 45.4523 439.281 51.9141 440.032 64.0862C440.633 73.2529 441.084 75.6573 441.535 77.7611C442.587 82.8704 444.09 86.4769 445.292 89.6327C455.06 114.879 454.759 112.474 455.51 114.879C463.625 142.829 464.226 145.384 464.226 145.384C464.377 145.835 464.677 147.187 465.879 148.089C467.082 149.141 469.185 149.441 470.688 148.84" stroke="#2969D0" stroke-width="3" stroke-miterlimit="10" stroke-linecap="round"/>
<path d="M550.934 90.3845C550.333 95.1932 548.83 101.354 547.027 107.215C544.923 114.578 542.368 121.191 541.467 123.895C538.762 131.559 537.56 134.565 535.306 138.021C533.502 140.726 531.699 142.83 530.497 144.182C528.243 136.969 528.393 125.398 529.144 113.527C530.046 100.002 531.699 86.3271 531.849 78.8135" stroke="#808285" stroke-width="2" stroke-miterlimit="10"/>
<path d="M529.294 113.226C530.797 113.226 534.855 112.925 537.259 112.324C540.264 111.573 544.322 109.619 547.027 107.064" stroke="#808285" stroke-width="2" stroke-miterlimit="10"/>
<path d="M584.295 185.807C583.543 184.605 581.74 179.346 582.642 173.034" stroke="#808285" stroke-width="2" stroke-miterlimit="10"/>
<g opacity="0.5">
<path d="M400.962 31.1757C401.262 33.1292 401.413 34.9325 401.863 36.8861C402.014 37.7877 402.314 38.6893 402.765 39.591C403.216 40.3424 403.667 41.0937 404.418 41.5445C405.921 42.2959 407.874 42.2959 409.527 41.8451C411.331 41.3943 413.134 40.6429 414.787 40.0418C416.59 39.2904 418.243 38.3888 419.746 37.4872C420.497 37.0364 421.249 36.4352 421.699 35.8342C422.15 35.2331 422.601 34.3314 422.751 33.4298C423.202 31.6265 422.902 29.8232 422.601 27.8697C422.301 26.0664 421.699 24.1128 421.098 22.3096C422 23.9626 422.751 25.7659 423.352 27.7194C423.803 29.5227 424.254 31.6265 423.954 33.5801C423.803 34.632 423.503 35.6839 422.751 36.4353C422.15 37.3369 421.249 37.938 420.497 38.5391C418.844 39.591 417.191 40.4926 415.388 41.3943C413.585 42.1456 411.781 42.897 409.828 43.3478C407.874 43.7986 405.62 43.7986 403.817 42.5964C402.915 41.9954 402.314 40.9434 402.014 40.0418C401.713 39.1402 401.413 38.0883 401.262 37.1866C400.962 35.0828 400.812 33.1292 400.962 31.1757Z" fill="#AEB0B2"/>
</g>
<path opacity="0.33" d="M310.046 448.185C312 445.78 320.415 437.065 329.582 427.898C338.749 418.731 357.533 386.423 363.093 379.961C368.653 373.499 383.38 357.57 386.986 349.606C390.593 341.641 386.686 316.095 386.986 308.13C387.287 300.166 391.044 262.147 388.489 252.229C385.934 242.311 381.877 238.253 378.571 231.341C375.265 224.428 374.664 222.324 371.658 220.22C368.653 218.117 370.456 200.084 371.057 197.529C371.658 194.974 373.762 183.403 373.762 179.346C373.762 175.289 373.762 163.718 376.918 155.152C380.074 146.587 377.97 120.89 372.56 112.775C367.15 104.66 362.792 102.707 356.331 102.256C349.869 101.805 342.806 108.117 341.003 112.024C339.199 115.931 336.795 119.537 334.09 151.395C330.333 159.961 323.12 167.474 319.964 177.843C316.809 188.212 308.393 214.36 306.44 225.179C304.486 235.999 293.366 250.726 297.874 242.761C302.382 234.947 301.932 215.712 310.347 190.166C318.762 164.619 317.71 166.272 317.71 164.92C317.71 163.567 322.669 158.909 324.322 147.789C327.478 142.679 333.639 117.283 322.219 109.92C322.068 104.66 318.612 101.054 309.145 99.551C299.678 98.0483 296.221 100.453 294.117 106.313C290.661 107.215 285.402 119.988 284.5 130.507C281.945 132.01 269.623 144.483 267.219 149.141C264.814 153.8 258.052 177.242 256.699 183.253C255.347 189.264 246.631 226.832 244.227 230.289C241.822 233.745 240.77 236.149 242.724 228.786C244.678 221.423 253.694 177.092 257.601 169.127C261.508 161.163 261.959 154.551 272.779 139.073C283.598 123.595 282.096 116.081 280.142 111.122C278.188 106.163 276.686 101.955 267.519 100.453C258.352 98.9499 253.093 106.614 253.093 106.614C253.093 106.614 247.533 108.267 234.158 122.693C231.303 117.133 227.396 112.925 227.396 112.925C227.396 112.925 224.541 106.914 216.426 105.712C208.311 104.51 205.005 113.226 204.555 116.382C201.85 116.382 196.29 128.854 194.336 141.327C192.383 153.95 189.227 171.983 185.921 182.652C182.615 193.321 180.511 202.188 179.76 210.002C179.008 217.816 174.801 228.786 174.049 239.004C173.298 249.223 161.426 278.526 160.825 287.843C160.074 297.16 160.525 329.018 159.623 336.382C158.721 343.745 157.369 368.54 159.623 382.816C161.877 396.942 160.825 410.015 158.421 417.078C156.016 424.141 147 447.584 147 447.584H310.046V448.185Z" fill="#E0E1E2"/>
<path d="M310.046 448.185C312 445.78 320.415 437.065 329.582 427.898C338.749 418.731 357.533 386.423 363.093 379.961C368.653 373.499 383.38 357.57 386.986 349.606C390.593 341.641 386.686 316.095 386.986 308.13C387.287 300.166 391.044 262.147 388.489 252.229C385.934 242.311 381.877 238.253 378.571 231.341C375.265 224.428 374.664 222.324 371.658 220.22C368.653 218.117 370.456 200.084 371.057 197.529C371.658 194.974 373.762 183.403 373.762 179.346C373.762 175.289 373.762 163.718 376.918 155.152C380.074 146.587 377.97 120.89 372.56 112.775C367.15 104.66 362.792 102.707 356.331 102.256C349.869 101.805 342.806 108.117 341.003 112.024C339.199 115.931 336.795 119.537 334.09 151.395C330.333 159.961 323.12 167.474 319.964 177.843C316.809 188.212 308.393 214.36 306.44 225.179C304.486 235.999 293.366 250.726 297.874 242.761C302.382 234.947 301.932 215.712 310.347 190.166C318.762 164.619 317.71 166.272 317.71 164.92C317.71 163.567 322.669 158.909 324.322 147.789C327.478 142.679 333.639 117.283 322.219 109.92C322.068 104.66 318.612 101.054 309.145 99.551C299.678 98.0483 296.221 100.453 294.117 106.313C290.661 107.215 285.402 119.988 284.5 130.507C281.945 132.01 269.623 144.483 267.219 149.141C264.814 153.8 258.052 177.242 256.699 183.253C255.347 189.264 246.631 226.832 244.227 230.289C241.822 233.745 240.77 236.149 242.724 228.786C244.678 221.423 253.694 177.092 257.601 169.127C261.508 161.163 261.959 154.551 272.779 139.073C283.598 123.595 282.096 116.081 280.142 111.122C278.188 106.163 276.686 101.955 267.519 100.453C258.352 98.9499 253.093 106.614 253.093 106.614C253.093 106.614 247.533 108.267 234.158 122.693C231.303 117.133 227.396 112.925 227.396 112.925C227.396 112.925 224.541 106.914 216.426 105.712C208.311 104.51 205.005 113.226 204.555 116.382C201.85 116.382 196.29 128.854 194.336 141.327C192.383 153.95 189.227 171.983 185.921 182.652C182.615 193.321 180.511 202.188 179.76 210.002C179.008 217.816 174.801 228.786 174.049 239.004C173.298 249.223 161.426 278.526 160.825 287.843C160.074 297.16 160.525 329.018 159.623 336.382C158.721 343.745 157.369 368.54 159.623 382.816C161.877 396.942 160.825 410.015 158.421 417.078C156.016 424.141 147 447.584 147 447.584" stroke="#808285" stroke-width="2" stroke-miterlimit="10"/>
<path d="M190.58 235.098C194.787 230.59 198.244 223.677 198.544 216.464C198.845 209.251 198.093 171.833 207.56 157.557C217.028 143.281 234.309 123.295 234.309 123.295" stroke="#808285" stroke-width="2" stroke-miterlimit="10"/>
<path d="M358.434 322.706C356.33 318.799 353.776 316.245 353.776 313.239C353.776 310.234 355.429 275.821 357.232 263.499C358.885 251.176 367.3 215.562 370.156 208.198" stroke="#808285" stroke-width="2" stroke-miterlimit="10"/>
</svg>
