<svg width="900" height="500" viewBox="0 0 900 500" fill="none" xmlns="http://www.w3.org/2000/svg">
<path opacity="0.33" d="M327.41 430.327C329.284 428.02 337.356 419.659 346.15 410.865C354.943 402.072 372.963 371.078 378.297 364.88C383.631 358.681 397.758 343.4 401.218 335.76C404.677 328.12 400.929 303.613 401.218 295.973C401.506 288.333 405.11 251.861 402.659 242.347C400.209 232.832 396.316 228.94 393.145 222.309C389.973 215.678 389.397 213.66 386.514 211.641C383.631 209.623 385.36 192.324 385.937 189.874C386.514 187.423 388.532 176.323 388.532 172.431C388.532 168.539 388.532 157.439 391.559 149.222C394.586 141.005 392.568 116.354 387.379 108.57C382.189 100.785 378.008 98.9111 371.81 98.4786C365.611 98.0461 358.836 104.101 357.106 107.849C355.376 111.597 353.069 115.057 350.475 145.618C346.871 153.835 339.951 161.042 336.924 170.989C333.897 180.936 325.824 206.019 323.95 216.398C322.076 226.778 311.408 240.905 315.733 233.265C320.058 225.769 319.625 207.317 327.698 182.81C335.771 158.303 334.762 159.889 334.762 158.592C334.762 157.294 339.519 152.826 341.104 142.158C344.132 137.257 350.042 112.894 339.086 105.831C338.942 100.785 335.627 97.3254 326.545 95.8838C317.463 94.4422 314.147 96.7487 312.129 102.371C308.813 103.236 303.768 115.489 302.903 125.58C300.452 127.022 288.632 138.987 286.325 143.455C284.019 147.924 277.532 170.413 276.234 176.179C274.937 181.945 266.576 217.984 264.269 221.3C261.963 224.615 260.954 226.922 262.828 219.858C264.702 212.795 273.351 170.268 277.099 162.628C280.847 154.988 281.28 148.645 291.659 133.797C302.038 118.949 300.597 111.741 298.723 106.984C296.848 102.227 295.407 98.1903 286.613 96.7487C277.82 95.3072 272.774 102.659 272.774 102.659C272.774 102.659 267.441 104.245 254.611 118.084C251.872 112.75 248.124 108.714 248.124 108.714C248.124 108.714 245.385 102.947 237.6 101.794C229.816 100.641 226.644 109.002 226.212 112.029C223.617 112.029 218.283 123.994 216.409 135.959C214.535 148.068 211.508 165.367 208.336 175.602C205.165 185.837 203.147 194.343 202.426 201.839C201.705 209.335 197.669 219.858 196.948 229.661C196.227 239.464 184.839 267.574 184.262 276.512C183.542 285.449 183.974 316.011 183.109 323.074C182.244 330.138 180.947 353.924 183.109 367.619C185.271 381.169 184.262 393.711 181.956 400.486C179.649 407.261 171 429.75 171 429.75H327.41V430.327Z" fill="#E0E1E2"/>
<path d="M327.41 430.327C329.284 428.02 337.356 419.659 346.15 410.865C354.943 402.072 372.963 371.078 378.297 364.88C383.631 358.681 397.758 343.4 401.218 335.76C404.677 328.12 400.929 303.613 401.218 295.973C401.506 288.333 405.11 251.861 402.659 242.347C400.209 232.832 396.316 228.94 393.145 222.309C389.973 215.678 389.397 213.66 386.514 211.641C383.631 209.623 385.36 192.324 385.937 189.874C386.514 187.423 388.532 176.323 388.532 172.431C388.532 168.539 388.532 157.439 391.559 149.222C394.586 141.005 392.568 116.354 387.379 108.57C382.189 100.785 378.008 98.9111 371.81 98.4786C365.611 98.0461 358.836 104.101 357.106 107.849C355.376 111.597 353.069 115.057 350.475 145.618C346.871 153.835 339.951 161.042 336.924 170.989C333.897 180.936 325.824 206.019 323.95 216.398C322.076 226.778 311.408 240.905 315.733 233.265C320.058 225.769 319.625 207.317 327.698 182.81C335.771 158.303 334.762 159.889 334.762 158.592C334.762 157.294 339.519 152.826 341.104 142.158C344.132 137.257 350.042 112.894 339.086 105.831C338.942 100.785 335.627 97.3254 326.545 95.8838C317.463 94.4422 314.147 96.7487 312.129 102.371C308.813 103.236 303.768 115.489 302.903 125.58C300.452 127.022 288.632 138.987 286.325 143.455C284.019 147.924 277.532 170.413 276.234 176.179C274.937 181.945 266.576 217.984 264.269 221.3C261.963 224.615 260.954 226.922 262.828 219.858C264.702 212.795 273.351 170.268 277.099 162.628C280.847 154.988 281.28 148.645 291.659 133.797C302.038 118.949 300.597 111.741 298.723 106.984C296.848 102.227 295.407 98.1903 286.613 96.7487C277.82 95.3072 272.774 102.659 272.774 102.659C272.774 102.659 267.441 104.245 254.611 118.084C251.872 112.75 248.124 108.714 248.124 108.714C248.124 108.714 245.385 102.947 237.6 101.794C229.816 100.641 226.644 109.002 226.212 112.029C223.617 112.029 218.283 123.994 216.409 135.959C214.535 148.068 211.508 165.367 208.336 175.602C205.165 185.837 203.147 194.343 202.426 201.839C201.705 209.335 197.669 219.858 196.948 229.661C196.227 239.464 184.839 267.574 184.262 276.512C183.542 285.449 183.974 316.011 183.109 323.074C182.244 330.138 180.947 353.924 183.109 367.619C185.271 381.169 184.262 393.711 181.956 400.486C179.649 407.261 171 429.75 171 429.75" stroke="#75819C" stroke-width="2" stroke-miterlimit="10"/>
<path d="M212.805 225.912C216.841 221.588 220.157 214.957 220.445 208.037C220.733 201.118 220.012 165.223 229.094 151.528C238.176 137.833 254.754 118.66 254.754 118.66" stroke="#75819C" stroke-width="2" stroke-miterlimit="10"/>
<path d="M373.827 309.957C371.809 306.208 369.358 303.758 369.358 300.875C369.358 297.992 370.944 264.98 372.674 253.159C374.26 241.338 382.332 207.173 385.071 200.109" stroke="#75819C" stroke-width="2" stroke-miterlimit="10"/>
<path opacity="0.33" d="M544.103 429.661C533.84 417.23 524.588 410.147 517.795 405.81C514.47 403.642 508.833 400.317 501.46 394.246C495.533 389.332 496.545 389.332 490.041 383.839C481.368 376.466 477.609 375.021 470.092 367.504C467.057 364.469 465.467 362.879 463.877 360.566C460.552 355.507 459.685 351.025 458.24 343.075C454.337 322.115 455.06 322.838 453.614 318.501C450.723 309.106 449.132 309.395 447.542 301.445C446.53 296.095 446.53 292.626 444.362 286.266C442.483 280.774 441.905 281.641 440.893 277.594C438.291 268.197 440.315 259.091 440.893 256.633C441.616 253.309 442.339 251.863 442.483 248.394C442.628 245.359 442.194 243.769 442.483 240.3C442.772 237.697 443.35 235.673 443.784 234.228C441.616 228.591 439.592 222.231 437.858 215.148C437.135 212.257 436.701 209.365 436.268 206.763C437.713 205.462 440.315 203.728 443.784 202.716C451.157 200.692 457.661 203.872 460.697 205.462C461.853 206.04 466.479 208.353 470.96 213.558C482.524 226.711 485.415 248.105 485.993 253.164C485.849 254.754 485.704 256.923 484.837 259.235C484.259 261.114 483.536 262.56 482.813 263.861C483.825 264.728 485.271 266.029 486.427 268.053C488.306 270.944 488.884 273.691 489.029 274.414C489.752 277.594 491.775 283.665 497.268 295.662C495.678 275.425 494.088 255.188 492.498 234.806C491.486 228.301 489.607 217.171 487.294 203.005C484.548 185.37 483.536 178.72 483.97 169.18C484.259 164.266 484.548 165.133 485.415 154.002C486.716 138.246 486.138 136.656 487.294 127.693C489.463 111.071 492.932 105.722 494.955 103.265C499.436 97.6269 503.773 96.4709 504.929 96.3264C509.555 95.3145 513.314 96.76 514.614 97.1933C521.264 99.7961 524.155 105.722 525.022 107.457C526.467 110.348 526.901 113.094 527.19 114.684C527.768 118.153 527.624 120.9 527.624 122.345C526.756 138.246 527.624 132.898 526.756 144.317C526.323 149.087 526.178 151.689 526.756 155.737C527.335 158.917 528.057 161.086 528.78 163.109C531.96 171.927 534.129 179.298 534.418 180.599C534.997 182.623 535.864 189.562 537.743 203.149C538.899 211.968 539.333 215.292 540.345 220.93C541.212 225.989 542.224 230.181 542.947 233.071C543.236 232.927 543.525 232.927 543.814 232.782C543.236 227.868 542.224 220.351 540.923 210.955C539.188 197.368 539.188 196.356 538.466 192.598C536.586 182.334 534.996 179.587 533.261 169.614C532.249 163.398 531.815 158.484 531.671 155.737C530.948 147.353 532.105 144.173 531.237 134.488C530.948 131.597 530.659 129.14 530.225 125.959C528.925 115.696 527.913 112.516 528.925 107.168C529.647 103.843 530.659 101.531 531.093 100.808C532.394 98.2051 535.141 92.568 541.646 90.1107C548.439 87.5088 554.655 90.2553 555.233 90.5444C559.425 92.568 561.448 95.7482 563.473 99.0724C565.641 102.542 568.966 109.192 569.544 119.165C571.423 122.923 574.169 128.706 576.627 136.078C578.072 140.559 579.373 145.04 582.409 160.941C584.577 171.782 585.01 175.107 586.6 183.78C587.757 190.14 589.636 199.536 592.239 211.099C592.239 211.099 592.961 211.823 593.684 211.533C594.407 211.389 595.13 210.377 594.84 209.365C598.021 192.309 596.72 180.31 594.696 172.36C593.829 168.747 591.805 161.953 590.071 151.4C589.058 145.185 588.479 139.981 588.19 136.512C584.866 131.308 582.553 126.682 581.108 123.213C579.229 118.876 577.928 115.841 577.349 111.36C576.771 107.457 576.338 103.265 578.506 99.0724C579.084 97.916 580.674 95.0254 583.854 93.4354C589.058 90.8335 594.696 93.2908 597.442 94.4472C598.165 94.7363 600.478 95.7482 604.814 99.3615C607.705 101.675 611.608 105.289 615.655 110.348C619.703 116.274 622.161 121.478 623.751 125.092C625.341 128.995 625.774 131.164 627.653 135.789C630.544 142.872 631.99 144.028 634.013 148.943C634.736 150.533 636.037 154.291 637.627 164.266C638.928 172.794 639.651 180.455 640.084 189.851C640.373 197.368 640.663 207.197 640.518 218.761C641.385 218.617 642.542 218.328 643.843 217.605C646.012 216.304 647.024 214.281 648.324 210.377C649.914 205.896 650.637 202.716 651.649 198.524C652.083 196.934 651.649 198.524 653.817 190.429C658.009 175.107 658.443 172.938 658.876 170.626C659.599 165.856 659.888 162.097 659.888 160.507C660.177 155.014 659.744 150.822 659.455 146.052C658.876 139.258 658.443 139.114 657.865 133.332C656.853 123.213 656.419 118.153 658.298 113.239C659.021 111.36 661.623 104.277 668.705 101.386C669.573 101.097 677.668 97.7715 683.017 102.398C684.896 103.988 685.618 105.722 686.341 107.312C692.123 121.623 693.568 132.464 693.568 132.464C694.002 136.078 694.291 139.114 695.158 149.232C696.604 168.457 697.327 178.287 697.038 185.37C696.604 194.332 696.459 199.68 694.58 207.052C693.424 211.534 691.545 216.882 688.22 228.88C687.787 230.325 687.064 233.216 686.341 237.119C685.618 241.167 685.329 244.347 685.185 246.226C684.462 255.333 684.751 260.536 684.462 269.788C684.028 281.496 683.306 281.063 683.45 288.145C683.739 295.373 684.607 298.698 685.618 305.781C686.052 308.527 686.052 309.539 687.497 336.715C688.509 355.362 688.943 364.613 688.943 367.071C689.087 373.286 688.943 375.743 689.377 380.37C689.521 382.393 690.388 389.91 694.147 402.052C696.315 408.991 699.495 418.242 704.699 428.794C651.36 429.372 597.731 429.516 544.103 429.661Z" fill="#E0E1E2"/>
<path d="M688.509 229.459C688.075 230.904 687.352 233.796 686.629 237.699C685.907 241.746 685.618 244.926 685.473 246.806C684.75 255.912 685.039 261.116 684.75 270.368C684.317 282.076 683.594 281.642 683.739 288.725C684.028 295.953 684.895 299.278 685.907 306.36C686.34 309.107 686.34 310.119 687.786 337.294C688.798 355.942 689.231 365.193 689.231 367.65C689.376 373.866 689.231 376.324 689.665 380.949C689.809 382.973 690.678 390.489 694.436 402.632C696.604 409.57 699.784 418.821 704.988 429.374" stroke="#75819C" stroke-width="2" stroke-miterlimit="10"/>
<path d="M544.103 429.661C533.84 417.23 524.588 410.147 517.795 405.81C514.47 403.642 508.833 400.317 501.46 394.246C495.533 389.332 496.545 389.332 490.041 383.839C481.368 376.466 477.609 375.021 470.092 367.504C467.057 364.469 465.467 362.879 463.877 360.566C460.552 355.507 459.685 351.025 458.24 343.075C454.337 322.115 455.06 322.838 453.614 318.501C450.723 309.106 449.132 309.395 447.542 301.445C446.53 296.095 446.53 292.626 444.362 286.266C442.483 280.774 441.905 281.641 440.893 277.594C438.291 268.197 440.315 259.091 440.893 256.633C441.616 253.309 442.339 251.863 442.483 248.394C442.628 245.359 442.194 243.769 442.483 240.3C442.772 237.697 443.35 235.673 443.784 234.228C441.616 228.591 439.592 222.231 437.858 215.148C437.135 212.257 436.701 209.365 436.268 206.763C437.713 205.462 440.315 203.728 443.784 202.716C451.157 200.692 457.661 203.872 460.697 205.462C461.853 206.04 466.479 208.353 470.96 213.558C482.524 226.711 485.415 248.105 485.993 253.164C485.849 254.754 485.704 256.923 484.837 259.235C484.259 261.114 483.536 262.56 482.813 263.861C483.825 264.728 485.271 266.029 486.427 268.053C488.306 270.944 488.884 273.691 489.029 274.414C489.752 277.594 491.775 283.665 497.268 295.662C495.678 275.425 494.088 255.188 492.498 234.806C491.486 228.301 489.607 217.171 487.294 203.005C484.548 185.37 483.536 178.72 483.97 169.18C484.259 164.266 484.548 165.133 485.415 154.002C486.716 138.246 486.138 136.656 487.294 127.693C489.463 111.071 492.932 105.722 494.955 103.265C499.436 97.6269 503.773 96.4709 504.929 96.3264C509.555 95.3145 513.314 96.76 514.614 97.1933C521.264 99.7961 524.155 105.722 525.022 107.457C526.467 110.348 526.901 113.094 527.19 114.684C527.768 118.153 527.624 120.9 527.624 122.345C526.756 138.246 527.624 132.898 526.756 144.317C526.323 149.087 526.178 151.689 526.756 155.737C527.335 158.917 528.057 161.086 528.78 163.109C531.96 171.927 534.129 179.298 534.418 180.599C534.997 182.623 535.864 189.562 537.743 203.149C538.899 211.968 539.333 215.292 540.345 220.93C541.212 225.989 542.224 230.181 542.947 233.071C543.236 232.927 543.525 232.927 543.814 232.782C543.236 227.868 542.224 220.351 540.923 210.955C539.188 197.368 539.188 196.356 538.466 192.598C536.586 182.334 534.996 179.587 533.262 169.614C532.249 163.398 531.815 158.484 531.671 155.737C530.948 147.353 532.105 144.173 531.237 134.488C530.948 131.597 530.659 129.14 530.225 125.959C528.925 115.696 527.913 112.516 528.925 107.168C529.647 103.843 530.659 101.531 531.093 100.808C532.394 98.2051 535.141 92.568 541.646 90.1107C548.439 87.5088 554.655 90.2553 555.233 90.5444C559.425 92.568 561.449 95.7482 563.473 99.0724C565.641 102.542 568.966 109.192 569.544 119.165C571.423 122.923 574.169 128.706 576.627 136.078C578.072 140.559 579.373 145.04 582.409 160.941C584.577 171.782 585.01 175.107 586.6 183.78C587.757 190.14 589.636 199.536 592.239 211.099C592.239 211.099 592.961 211.823 593.684 211.533C594.407 211.389 595.13 210.377 594.84 209.365C598.021 192.309 596.72 180.31 594.696 172.36C593.829 168.747 591.805 161.953 590.071 151.4C589.058 145.185 588.479 139.981 588.19 136.512C584.866 131.308 582.553 126.682 581.108 123.213C579.229 118.876 577.928 115.841 577.349 111.36C576.771 107.457 576.338 103.265 578.506 99.0724C579.084 97.916 580.674 95.0254 583.854 93.4354C589.058 90.8335 594.696 93.2908 597.442 94.4472C598.165 94.7363 600.478 95.7482 604.814 99.3615C607.705 101.675 611.608 105.289 615.655 110.348C619.703 116.274 622.161 121.478 623.751 125.092C625.341 128.995 625.774 131.164 627.653 135.789C630.544 142.872 631.99 144.028 634.013 148.943C634.736 150.533 636.037 154.291 637.627 164.266C638.928 172.794 639.651 180.455 640.084 189.851C640.373 197.368 640.663 207.197 640.518 218.761" stroke="#75819C" stroke-width="2" stroke-miterlimit="10"/>
<path d="M642.397 218.76C642.976 218.616 643.554 218.327 644.132 217.893C646.3 216.592 647.312 214.568 648.613 210.666C650.203 206.184 650.926 203.004 651.937 198.812C652.371 197.222 651.938 198.812 654.106 190.717C658.299 175.394 658.732 173.226 659.166 170.913C659.889 166.143 660.178 162.385 660.178 160.795C660.467 155.303 660.033 151.11 659.744 146.34C659.166 139.546 658.732 139.401 658.154 133.62C657.142 123.5 656.709 118.441 658.588 113.527C659.31 111.648 661.912 104.565 668.995 101.674C669.862 101.385 677.957 98.0603 683.305 102.686C685.185 104.276 685.908 106.01 686.631 107.6C692.412 121.91 693.858 132.752 693.858 132.752C694.291 136.366 694.581 139.401 695.448 149.52C696.893 168.745 697.616 178.574 697.327 185.658C696.893 194.62 696.749 199.968 694.87 207.34C693.713 211.822 691.834 217.17 688.51 229.167" stroke="#F69AED" stroke-width="3" stroke-miterlimit="10" stroke-linecap="round"/>
<g opacity="0.5">
<path d="M446.965 232.347C447.832 231.914 448.555 231.191 448.844 230.324C449.133 229.601 448.989 228.445 448.989 227.577C448.844 225.698 448.7 223.819 448.555 221.795C448.411 219.915 448.122 218.036 447.832 216.157C447.688 215.145 447.543 214.278 447.254 213.411L446.676 210.664L446.821 210.809C446.387 210.086 445.809 209.508 445.231 208.93C444.652 208.352 443.93 207.918 443.062 207.629C444.797 207.918 446.387 208.93 447.543 210.231V210.375C448.122 212.254 448.844 214.133 449.133 216.013C449.567 217.892 449.856 219.915 450.001 221.795C450.145 223.675 450.145 225.698 450.001 227.722C450.001 228.155 449.856 228.734 449.856 229.167C449.712 229.601 449.712 230.179 449.423 230.613C448.844 231.48 447.977 232.058 446.965 232.347Z" fill="#75819C"/>
</g>
<g opacity="0.5">
<path d="M669.14 107.312C669.429 109.914 670.007 112.372 670.585 114.829C670.874 115.986 671.164 117.287 671.597 118.444C671.742 119.022 672.031 119.6 672.175 120.178C672.465 120.756 672.754 121.334 673.043 121.624C673.476 122.057 673.91 122.491 674.344 122.635C674.633 122.78 675.355 122.924 675.934 122.924C677.09 123.069 678.391 123.069 679.692 123.069C682.149 123.069 684.751 122.924 687.208 122.202C684.895 123.358 682.294 123.936 679.692 124.081C678.391 124.225 677.09 124.225 675.789 124.081C675.5 124.081 675.066 124.081 674.777 123.936L674.199 123.792C673.91 123.792 673.765 123.647 673.621 123.503C672.898 123.214 672.465 122.78 671.886 122.202C671.308 121.479 671.019 120.901 670.73 120.323C670.441 119.744 670.296 119.022 670.152 118.444C669.863 117.143 669.574 115.986 669.284 114.684C669.14 112.372 668.995 109.77 669.14 107.312Z" fill="#75819C"/>
</g>
</svg>
