<svg width="900" height="500" viewBox="0 0 900 500" fill="none" xmlns="http://www.w3.org/2000/svg">
<path opacity="0.33" d="M694.391 428.437C687.6 414.133 682.831 400.84 680.953 371.364C679.075 341.888 682.687 339.576 680.953 316.313C679.219 293.05 677.485 298.107 679.219 280.624C680.809 263.14 671.272 240.455 671.128 231.93C670.983 223.405 671.706 194.218 669.105 180.492C666.504 166.765 660.435 157.951 656.101 134.399C651.766 110.847 635.294 95.5311 624.746 98.9989C614.198 102.467 612.465 113.448 613.765 117.494C609.141 108.391 606.107 103.045 603.217 99.5768C600.327 96.1091 591.947 92.0633 591.947 92.0633C591.947 92.0633 578.943 89.318 573.886 101.022C569.695 101.889 569.695 110.992 569.84 113.448C568.828 107.957 566.95 100.155 565.361 97.6985C563.627 95.2421 560.303 91.3409 555.68 89.318C551.056 87.2952 539.208 88.0176 536.174 90.4739C533.139 92.9303 527.649 97.9874 528.082 102.9C528.516 107.957 530.105 112.437 530.394 125.296C530.683 138.156 534.873 165.32 535.74 172.111C536.607 178.902 548.311 241.467 548.311 241.467C548.311 241.467 547.877 242.478 547.155 241.756C546.577 241.033 532.85 164.742 527.938 153.472C529.816 141.479 530.972 107.524 523.169 100.01C519.846 92.4968 499.617 86.5727 491.959 103.478C484.301 120.239 486.758 150.293 485.313 161.852C483.868 173.412 485.457 199.131 486.902 206.789C485.891 198.986 483.29 191.762 478.811 187.283C474.332 182.803 466.963 178.324 461.761 176.446C457.571 175.001 452.225 176.879 449.913 179.191C449.19 179.914 448.179 180.636 447.167 180.781C446.011 181.07 445 181.936 445 181.936C445 184.393 446.878 196.675 453.669 208.812C451.936 211.413 454.247 222.249 452.369 229.907C450.491 237.421 448.323 242.623 451.647 251.292C450.346 253.604 452.08 259.961 454.97 262.273C453.236 267.619 455.403 274.41 461.183 288.571C468.407 306.343 464.795 325.994 469.852 336.108C474.91 346.222 480.978 349.69 487.625 360.093C494.127 370.497 519.557 403.007 529.96 411.243C540.364 419.479 544.698 428.293 544.698 428.293H694.391V428.437Z" fill="#E0E1E2"/>
<path d="M694.391 428.438C687.6 414.134 682.831 400.841 680.953 371.365C679.075 341.888 682.687 339.577 680.953 316.314C679.219 293.051 677.485 298.108 679.219 280.624C680.809 263.141 671.272 240.456 671.128 231.931C670.983 223.406 671.706 194.219 669.105 180.492C666.504 166.766 662.603 156.652 656.101 134.4C648.876 109.548 635.294 95.532 624.746 98.9998C614.198 102.468 612.465 113.449 613.765 117.495C609.141 108.392 606.107 103.046 603.217 99.5778C601.05 96.9769 595.126 92.4977 590.213 91.7753C586.601 91.1973 577.787 91.9198 573.886 100.878C570.129 102.179 569.695 110.848 569.84 113.304C568.828 107.814 566.95 100.011 565.361 97.5549C563.627 95.0986 560.303 91.1973 555.68 89.1745C551.056 87.1516 539.208 87.874 536.174 90.3304C533.139 92.7867 527.649 97.8439 528.082 102.757C528.516 107.814 530.105 112.293 530.394 125.153C530.683 138.012 534.873 165.177 535.74 171.968C536.607 178.759 548.311 241.323 548.311 241.323C548.311 241.323 547.877 242.334 547.155 241.612C546.577 240.89 532.85 164.599 527.938 153.328C529.816 141.336 530.972 107.38 523.169 99.8668C519.846 92.3532 499.617 86.4291 491.959 103.335C484.301 120.095 486.758 150.149 485.313 161.709C483.868 173.268 485.457 198.987 486.902 206.645C485.891 198.843 483.29 191.618 478.811 187.139C474.332 182.66 466.963 178.181 461.761 176.302C457.571 174.857 452.225 176.736 449.913 179.192C449.046 180.059 447.89 180.926 446.589 181.07C445.578 181.215 445 181.504 445 181.504C445 183.816 446.589 194.942 452.225 206.067C452.947 207.512 453.38 209.102 453.091 210.691C452.513 214.881 453.958 223.551 452.369 229.764C450.491 237.277 448.323 242.479 451.647 251.148C451.936 255.772 453.38 260.396 454.97 262.13C454.536 268.343 455.403 274.267 461.183 288.427C468.407 306.199 464.795 325.85 469.852 335.964C474.91 346.079 480.978 349.546 487.625 359.95C494.127 370.353 519.557 402.863 529.96 411.099C540.364 419.335 544.698 428.149 544.698 428.149" stroke="#75819C" stroke-width="2" stroke-miterlimit="10"/>
<path d="M491.815 328.884C492.248 321.515 495.571 308.944 495.86 304.465C496.294 299.986 494.994 306.344 494.705 286.982C494.56 267.476 492.826 236.844 489.647 223.117C486.469 209.39 487.336 206.645 485.891 201.732" stroke="#75819C" stroke-width="2" stroke-miterlimit="10"/>
<path d="M597.726 228.897C594.548 224.129 590.935 215.749 590.502 193.497C590.068 171.245 583.422 165.899 582.988 150.583C582.555 135.267 571.574 130.355 569.695 113.594" stroke="#75819C" stroke-width="2" stroke-miterlimit="10"/>
<path d="M636.739 223.407C636.883 217.916 637.028 190.174 634.138 173.557C631.248 156.941 628.358 150.583 624.89 143.214C621.278 135.701 615.209 124.286 613.476 117.64" stroke="#75819C" stroke-width="2" stroke-miterlimit="10"/>
<g opacity="0.5">
<path d="M453.092 182.806C454.392 183.095 455.548 183.817 456.704 184.684C457.715 185.695 458.438 186.851 458.871 188.152C459.594 190.753 460.316 193.209 460.75 195.954C461.183 198.555 461.617 201.3 461.328 204.046C461.328 204.768 461.039 205.491 460.894 206.069C460.605 206.791 460.172 207.369 459.594 207.803C458.438 208.814 456.993 208.958 455.693 208.525C456.993 208.669 458.293 208.236 459.16 207.225C460.027 206.358 460.172 205.057 460.172 203.757C460.172 201.156 459.738 198.555 459.305 196.099C458.871 193.498 458.293 190.897 457.716 188.441C457.282 186.129 455.548 183.962 453.092 182.806Z" fill="#75819C"/>
</g>
<path opacity="0.33" d="M423.558 188.323C418.771 183.235 403.359 189.071 402.761 189.22C403.06 188.472 411.289 164.981 417.274 154.807C423.409 144.483 434.331 122.937 428.945 101.691C423.558 80.4442 405.304 90.6186 398.871 98.2489C392.437 105.88 384.357 130.418 380.018 137.152C375.679 143.885 358.472 166.478 349.046 180.243C339.62 194.008 327.201 216.601 323.76 218.995C320.169 221.389 310.294 220.941 308.349 214.208C306.403 207.474 305.955 198.347 309.994 186.078C314.034 173.959 317.775 160.942 317.476 159.595C317.176 158.248 327.201 156.154 334.533 137.152C344.109 124.733 345.455 103.486 339.021 101.392C338.722 96.6039 323.161 82.9878 309.994 100.793C308.049 102.738 304.907 107.526 304.907 107.526C304.907 107.526 304.009 98.9979 300.119 94.5089C296.229 90.0201 280.519 89.4216 275.88 98.9979C269.297 100.045 257.926 110.369 256.579 112.314C254.933 107.676 250.145 104.534 247.602 102.589C245.656 98.0999 239.671 96.3039 236.978 97.3519C234.285 98.3989 228.45 106.928 226.654 110.818C222.914 113.511 211.093 129.072 203.762 143.286C196.43 157.5 192.839 170.218 190.595 173.061C188.351 175.904 184.161 181.141 180.421 208.671C176.68 236.202 179.074 247.274 173.538 262.985C168.002 278.695 170.546 299.493 170.994 317.148C171.443 334.654 172.341 362.185 169.947 377.446C167.703 392.708 158.276 424.727 149.149 437.296H310.593C317.326 430.114 334.233 414.104 340.518 408.418C346.802 402.583 370.891 369.367 381.963 359.192C393.035 349.018 399.768 341.387 401.713 316.699C403.659 292.012 411.888 285.877 414.731 271.364C419.07 261.189 419.519 249.967 418.022 237.698C416.526 225.429 419.219 224.232 417.424 223.035C418.621 218.397 425.803 202.088 423.558 188.323ZM369.844 255.504C369.245 259.843 366.552 267.174 365.505 269.867C364.457 272.561 359.969 276.451 361.764 281.987L356.976 285.279C356.976 278.695 363.56 246.377 371.041 247.424C378.372 248.621 370.442 251.164 369.844 255.504Z" fill="#E0E1E2"/>
<path d="M310.444 437.445C317.177 430.263 334.084 414.254 340.368 408.568C346.652 402.733 370.742 369.516 381.814 359.342C392.886 349.167 399.619 341.537 401.564 316.849C403.509 292.161 411.738 286.026 414.581 271.513C418.92 261.339 419.22 250.117 417.873 237.848C416.377 225.579 419.07 224.382 417.275 223.185C418.621 218.397 425.803 202.237 423.409 188.472C418.472 183.385 402.611 189.37 402.611 189.37C402.611 189.37 410.99 165.28 417.125 154.956C423.259 144.632 434.182 123.087 428.796 101.84C423.409 80.5936 405.155 90.768 398.721 98.3989C392.287 105.88 384.208 130.418 379.869 137.301C375.53 144.184 358.323 166.627 348.897 180.392C339.47 194.158 327.052 216.751 323.61 219.294C320.169 221.688 310.144 221.24 308.199 214.507C306.254 207.774 305.805 198.646 309.845 186.527C313.885 174.408 317.625 161.39 317.326 160.044C317.027 158.697 327.052 156.602 334.383 137.6C343.959 125.181 345.306 103.935 338.872 101.84C338.573 97.0519 323.012 83.4365 309.845 101.242C307.9 103.187 304.758 107.825 304.758 107.825C304.758 107.825 303.86 99.4459 299.97 94.8079C296.08 90.3191 280.369 89.7206 275.731 99.2969C269.147 100.344 257.776 110.668 256.43 112.613C254.784 107.975 249.996 104.833 247.452 102.888C245.507 98.3989 239.522 96.6029 236.829 97.6509C234.136 98.6979 228.45 107.227 226.505 111.117C222.764 113.81 210.944 129.371 203.612 143.585C196.281 157.799 192.69 170.517 190.446 173.36C188.201 176.203 184.012 181.44 180.271 208.97C176.381 236.501 178.925 247.573 173.389 263.284C167.853 278.994 170.396 299.792 170.845 317.447C171.294 334.953 172.192 362.484 169.798 377.746C167.553 393.007 158.127 425.026 149 437.595" stroke="#75819C" stroke-width="2" stroke-miterlimit="10"/>
<path d="M200.172 232.76C202.267 216.152 205.109 168.871 210.047 156.004C214.985 143.136 222.167 145.231 232.939 133.111C243.712 120.992 247.752 125.48 256.58 112.314" stroke="#75819C" stroke-width="2" stroke-miterlimit="10"/>
<path d="M244.759 224.233C248.799 213.011 255.681 175.904 258.075 163.785C260.469 151.665 266.305 135.955 278.424 131.167C287.252 123.985 294.583 120.394 297.725 119.197C299.072 115.457 304.907 107.526 304.907 107.526" stroke="#75819C" stroke-width="2" stroke-miterlimit="10"/>
<g opacity="0.5">
<path d="M418.92 189.22C417.574 190.267 416.227 191.315 414.88 192.512C413.683 193.709 412.486 194.906 411.589 196.402C409.644 199.095 408.147 202.237 407.399 205.529C406.651 208.82 406.651 212.262 407.698 215.404C408.746 218.546 410.841 221.389 413.833 223.184C412.187 222.586 410.841 221.538 409.494 220.192C408.297 218.845 407.25 217.349 406.651 215.703C405.903 214.057 405.604 212.262 405.454 210.466C405.454 208.671 405.454 206.875 405.903 205.08C406.651 201.639 408.297 198.347 410.541 195.654C412.935 192.96 415.778 190.716 418.92 189.22Z" fill="#75819C"/>
</g>
<g opacity="0.5">
<path d="M426.401 105.581C425.204 108.723 423.109 111.716 420.267 113.811C418.77 114.858 417.124 115.606 415.329 115.905C413.534 116.205 411.738 116.055 409.943 115.606C406.501 114.559 403.359 112.464 401.863 109.172C401.115 107.526 400.816 105.731 400.965 103.935C401.115 102.14 401.863 100.494 402.761 99.1484C401.414 102.29 401.264 105.881 402.91 108.574C404.556 111.417 407.399 113.212 410.391 114.11C413.533 115.157 416.825 114.559 419.518 112.913C420.865 112.015 422.212 110.968 423.259 109.771C424.456 108.424 425.503 107.078 426.401 105.581Z" fill="#75819C"/>
</g>
<path d="M356.826 285.428C356.826 277.348 363.41 246.526 370.891 247.573C378.372 248.62 370.292 251.164 369.843 255.503C369.245 259.992 366.552 267.174 365.504 269.867C364.457 272.56 360.866 275.852 361.764 281.986L356.826 285.428Z" stroke="#75819C" stroke-width="2" stroke-miterlimit="10"/>
<path d="M366.851 250.267C372.088 242.786 398.422 200.592 402.611 189.22C406.801 177.849 410.99 165.131 417.125 154.807C423.259 144.483 434.182 122.937 428.796 101.691C423.409 80.4442 405.155 90.6186 398.721 98.2489C392.287 105.731 384.208 130.269 379.869 137.152C375.53 144.034 358.323 166.478 348.897 180.243C339.47 194.008 327.052 216.601 323.61 219.145" stroke="#F69AED" stroke-width="3" stroke-miterlimit="10" stroke-linecap="round"/>
</svg>
