<svg width="900" height="500" viewBox="0 0 900 500" fill="none" xmlns="http://www.w3.org/2000/svg">
<path opacity="0.33" d="M327.41 430.327C329.284 428.02 337.356 419.659 346.15 410.865C354.943 402.072 372.963 371.078 378.297 364.88C383.631 358.681 397.758 343.4 401.218 335.76C404.677 328.12 400.929 303.613 401.218 295.973C401.506 288.333 405.11 251.861 402.659 242.347C400.209 232.832 396.316 228.94 393.145 222.309C389.973 215.678 389.397 213.66 386.514 211.641C383.631 209.623 385.36 192.324 385.937 189.874C386.514 187.423 388.532 176.323 388.532 172.431C388.532 168.539 388.532 157.439 391.559 149.222C394.586 141.005 392.568 116.354 387.379 108.57C382.189 100.785 378.008 98.9111 371.81 98.4786C365.611 98.0461 358.836 104.101 357.106 107.849C355.376 111.597 353.069 115.057 350.475 145.618C346.871 153.835 339.951 161.042 336.924 170.989C333.897 180.936 325.824 206.019 323.95 216.398C322.076 226.778 311.408 240.905 315.733 233.265C320.058 225.769 319.625 207.317 327.698 182.81C335.771 158.303 334.762 159.889 334.762 158.592C334.762 157.294 339.519 152.826 341.104 142.158C344.132 137.257 350.042 112.894 339.086 105.831C338.942 100.785 335.627 97.3254 326.545 95.8838C317.463 94.4422 314.147 96.7487 312.129 102.371C308.813 103.236 303.768 115.489 302.903 125.58C300.452 127.022 288.632 138.987 286.325 143.455C284.019 147.924 277.532 170.413 276.234 176.179C274.937 181.945 266.576 217.984 264.269 221.3C261.963 224.615 260.954 226.922 262.828 219.858C264.702 212.795 273.351 170.268 277.099 162.628C280.847 154.988 281.28 148.645 291.659 133.797C302.038 118.949 300.597 111.741 298.723 106.984C296.848 102.227 295.407 98.1903 286.613 96.7487C277.82 95.3072 272.774 102.659 272.774 102.659C272.774 102.659 267.441 104.245 254.611 118.084C251.872 112.75 248.124 108.714 248.124 108.714C248.124 108.714 245.385 102.947 237.6 101.794C229.816 100.641 226.644 109.002 226.212 112.029C223.617 112.029 218.283 123.994 216.409 135.959C214.535 148.068 211.508 165.367 208.336 175.602C205.165 185.837 203.147 194.343 202.426 201.839C201.705 209.335 197.669 219.858 196.948 229.661C196.227 239.464 184.839 267.574 184.262 276.512C183.542 285.449 183.974 316.011 183.109 323.074C182.244 330.138 180.947 353.924 183.109 367.619C185.271 381.169 184.262 393.711 181.956 400.486C179.649 407.261 171 429.75 171 429.75H327.41V430.327Z" fill="#E0E1E2"/>
<path d="M327.41 430.327C329.284 428.02 337.356 419.659 346.15 410.865C354.943 402.072 372.963 371.078 378.297 364.88C383.631 358.681 397.758 343.4 401.218 335.76C404.677 328.12 400.929 303.613 401.218 295.973C401.506 288.333 405.11 251.861 402.659 242.347C400.209 232.832 396.316 228.94 393.145 222.309C389.973 215.678 389.397 213.66 386.514 211.641C383.631 209.623 385.36 192.324 385.937 189.874C386.514 187.423 388.532 176.323 388.532 172.431C388.532 168.539 388.532 157.439 391.559 149.222C394.586 141.005 392.568 116.354 387.379 108.57C382.189 100.785 378.008 98.9111 371.81 98.4786C365.611 98.0461 358.836 104.101 357.106 107.849C355.376 111.597 353.069 115.057 350.475 145.618C346.871 153.835 339.951 161.042 336.924 170.989C333.897 180.936 325.824 206.019 323.95 216.398C322.076 226.778 311.408 240.905 315.733 233.265C320.058 225.769 319.625 207.317 327.698 182.81C335.771 158.303 334.762 159.889 334.762 158.592C334.762 157.294 339.519 152.826 341.104 142.158C344.132 137.257 350.042 112.894 339.086 105.831C338.942 100.785 335.627 97.3254 326.545 95.8838C317.463 94.4422 314.147 96.7487 312.129 102.371C308.813 103.236 303.768 115.489 302.903 125.58C300.452 127.022 288.632 138.987 286.325 143.455C284.019 147.924 277.532 170.413 276.234 176.179C274.937 181.945 266.576 217.984 264.269 221.3C261.963 224.615 260.954 226.922 262.828 219.858C264.702 212.795 273.351 170.268 277.099 162.628C280.847 154.988 281.28 148.645 291.659 133.797C302.038 118.949 300.597 111.741 298.723 106.984C296.848 102.227 295.407 98.1903 286.613 96.7487C277.82 95.3072 272.774 102.659 272.774 102.659C272.774 102.659 267.441 104.245 254.611 118.084C251.872 112.75 248.124 108.714 248.124 108.714C248.124 108.714 245.385 102.947 237.6 101.794C229.816 100.641 226.644 109.002 226.212 112.029C223.617 112.029 218.283 123.994 216.409 135.959C214.535 148.068 211.508 165.367 208.336 175.602C205.165 185.837 203.147 194.343 202.426 201.839C201.705 209.335 197.669 219.858 196.948 229.661C196.227 239.464 184.839 267.574 184.262 276.512C183.542 285.449 183.974 316.011 183.109 323.074C182.244 330.138 180.947 353.924 183.109 367.619C185.271 381.169 184.262 393.711 181.956 400.486C179.649 407.261 171 429.75 171 429.75" stroke="#75819C" stroke-width="2" stroke-miterlimit="10"/>
<path d="M212.805 225.912C216.841 221.588 220.157 214.957 220.445 208.037C220.733 201.118 220.012 165.223 229.094 151.528C238.176 137.833 254.754 118.66 254.754 118.66" stroke="#75819C" stroke-width="2" stroke-miterlimit="10"/>
<path d="M373.827 309.957C371.809 306.208 369.358 303.758 369.358 300.875C369.358 297.992 370.944 264.98 372.674 253.159C374.26 241.338 382.332 207.173 385.071 200.109" stroke="#75819C" stroke-width="2" stroke-miterlimit="10"/>
<path opacity="0.33" d="M544.952 429.074C542.79 425.47 539.907 421.434 536.303 417.253C532.987 413.505 529.671 410.333 526.788 407.883C526.788 407.883 520.301 401.684 513.237 393.755C508.192 388.133 504.876 383.375 498.244 374.005C485.27 355.696 486.711 355.264 481.377 350.363C479.36 348.489 475.467 345.173 471.719 339.694C468.547 335.082 467.394 331.622 466.961 329.316C466.817 328.45 466.529 327.153 466.385 321.531C466.24 313.602 466.529 311.727 466.385 307.691C466.24 303.078 465.376 299.906 463.934 294.284C461.627 285.059 459.898 282.896 458.023 274.679C457.014 269.922 456.582 265.885 456.294 263.434C455.717 262.569 454.852 261.56 454.275 260.118C453.122 257.235 453.266 254.785 453.41 253.343C452.69 252.045 451.825 250.027 451.248 247.576C450.383 243.684 450.959 241.089 452.402 233.593C454.563 222.349 454.996 219.898 454.996 216.293C454.996 212.833 454.563 210.095 454.131 208.365C452.69 205.481 451.248 202.166 450.095 198.418C448.221 192.507 447.355 187.173 447.067 182.849C447.789 182.56 448.509 182.272 449.23 181.983C450.239 180.974 453.122 179.677 455.717 178.956C460.33 177.658 464.079 178.956 467.683 180.686C468.692 181.118 473.016 184.002 477.917 189.624C479.36 191.21 482.819 195.679 484.982 202.166C486.567 206.779 486.855 210.96 487.144 213.266C487.433 216.726 487.144 217.446 487.577 220.618C488.009 225.231 489.162 228.403 489.883 230.854C492.766 240.8 492.91 248.873 493.054 248.873C493.199 248.873 491.613 235.755 486.135 191.354C486.135 186.453 486.135 178.812 486.279 169.441C486.567 158.486 486.855 158.486 487.144 147.385C487.433 137.438 487.289 131.96 488.153 122.157C488.73 115.382 489.306 111.201 491.469 106.443C493.199 102.839 495.217 98.6584 499.83 96.0638C505.308 93.1807 511.796 93.7573 516.409 96.3519C520.301 98.5144 522.463 101.542 523.617 103.416C526.499 107.741 527.077 112.066 527.653 116.391C528.23 120.427 528.086 123.31 527.797 129.365C527.509 137.726 526.643 142.051 526.643 152.286C526.643 152.863 526.643 153.295 526.643 153.584C527.221 155.314 528.086 157.908 528.95 160.792C529.959 164.108 530.825 167.568 532.122 172.757C533.996 180.398 535.006 184.146 535.726 187.75C537.167 194.814 537.023 197.12 538.609 209.807C539.474 216.726 539.907 220.186 540.483 223.357C541.924 232.151 543.799 239.359 545.24 244.26C546.393 243.396 547.691 242.531 548.844 241.81C546.393 229.268 544.231 216.293 542.069 203.175C539.763 189.191 538.32 178.956 537.023 169.585C529.959 120.427 533.275 130.951 531.257 121.004C531.257 120.715 530.103 114.805 530.536 107.02C530.969 100.245 532.266 97.9383 532.843 96.929C536.014 91.7391 541.636 90.0092 542.934 89.7208C543.799 89.4325 551.296 87.4142 558.07 91.7391C561.674 94.0456 563.405 96.929 565.134 100.101C567.009 103.272 569.747 109.326 570.18 118.12C570.036 105.722 574.794 95.6314 582.146 92.8923C583.731 92.3157 586.615 91.5949 589.93 92.1715C595.408 92.8923 598.868 96.3519 602.04 99.3796C605.643 102.984 607.662 106.443 610.113 110.768C611.987 114.084 613.284 116.967 614.294 118.986C614.438 116.535 615.158 112.354 617.898 108.173C619.483 105.867 621.357 102.984 625.393 101.542C625.681 101.398 630.872 99.6677 635.917 102.262C636.494 102.551 637.936 103.416 640.386 106.011C642.405 108.173 644.855 111.345 648.747 119.274C650.334 122.301 651.631 125.04 653.216 129.076C655.523 134.988 656.532 139.024 657.83 144.358C662.875 163.675 665.037 166.27 667.2 179.1C667.777 182.705 668.209 185.731 668.353 187.894C668.93 192.939 669.795 200.292 669.94 209.373C670.084 214.276 669.94 226.385 670.516 231.719C670.66 233.304 670.948 234.89 670.948 234.89C671.381 237.774 672.101 239.936 672.246 240.656C672.822 242.675 673.544 245.991 674.985 252.478C675.705 255.793 676.858 260.983 677.436 266.894C678.157 273.814 677.292 273.526 677.724 284.913C677.868 288.951 678.157 292.41 678.733 299.618C679.165 305.529 679.31 306.682 679.598 310.574C680.174 318.647 680.318 324.847 680.463 329.171C680.607 337.244 680.607 343.443 680.318 355.84C680.174 367.806 679.886 370.401 680.174 377.033C680.463 384.529 681.184 389.719 681.617 392.602C682.337 398.08 682.914 401.684 684.355 406.585C686.085 412.352 688.103 417.253 691.131 424.173C692.14 426.335 693.005 428.21 693.582 429.507C643.99 429.363 594.4 429.218 544.952 429.074Z" fill="#E0E1E2"/>
<path d="M544.952 429.074C542.79 425.47 539.907 421.434 536.303 417.253C532.987 413.505 529.671 410.333 526.788 407.883C526.788 407.883 520.301 401.684 513.237 393.755C508.192 388.133 504.876 383.375 498.244 374.005C485.27 355.696 486.711 355.264 481.377 350.363C479.36 348.489 475.467 345.173 471.719 339.695C468.547 335.082 467.394 331.622 466.961 329.316C466.817 328.45 466.529 327.153 466.385 321.531C466.24 313.602 466.529 311.727 466.385 307.691C466.24 303.078 465.376 299.906 463.934 294.284C461.627 285.059 459.898 282.896 458.023 274.679C457.014 269.922 456.582 265.885 456.294 263.434C455.717 262.569 454.852 261.56 454.275 260.118C453.122 257.235 453.266 254.785 453.41 253.343C452.69 252.045 451.825 250.027 451.248 247.576C450.383 243.684 450.959 241.089 452.402 233.593C454.563 222.349 454.996 219.898 454.996 216.293C454.996 212.833 454.563 210.095 454.131 208.365C452.69 205.481 451.248 202.166 450.095 198.418C448.221 192.507 447.355 187.173 447.067 182.849C447.789 182.56 448.509 182.272 449.23 181.983C450.239 180.974 453.122 179.677 455.717 178.956C460.33 177.658 464.079 178.956 467.683 180.686C468.692 181.118 473.016 184.002 477.917 189.624C479.36 191.21 482.819 195.679 484.982 202.166C486.567 206.779 486.855 210.96 487.144 213.266C487.433 216.726 487.144 217.446 487.577 220.618C488.009 225.231 489.162 228.403 489.883 230.854C492.766 240.8 492.91 248.873 493.054 248.873C493.199 248.873 491.613 235.755 486.135 191.354C486.135 186.453 486.135 178.812 486.279 169.441C486.567 158.486 486.855 158.486 487.144 147.385C487.433 137.438 487.289 131.96 488.153 122.157C488.73 115.382 489.306 111.201 491.469 106.443C493.199 102.839 495.217 98.6584 499.83 96.0638C505.308 93.1807 511.796 93.7573 516.409 96.3519C520.301 98.5144 522.463 101.542 523.617 103.416C526.499 107.741 527.077 112.066 527.653 116.391C528.23 120.427 528.086 123.311 527.797 129.365C527.509 137.726 526.643 142.051 526.643 152.286C526.643 152.863 526.643 153.295 526.643 153.584C527.221 155.314 528.086 157.908 528.95 160.792C529.959 164.108 530.825 167.568 532.122 172.757C533.996 180.398 535.006 184.146 535.726 187.75C537.167 194.814 537.023 197.12 538.609 209.807C539.474 216.726 539.907 220.186 540.483 223.358C541.924 232.151 543.799 239.359 545.24 244.26C546.393 243.396 547.691 242.531 548.844 241.81C546.393 229.268 544.231 216.293 542.069 203.175C539.763 189.191 538.32 178.956 537.023 169.585C529.959 120.427 533.275 130.951 531.257 121.004C531.257 120.715 530.103 114.805 530.536 107.02C530.969 100.245 532.266 97.9383 532.843 96.929C536.014 91.7391 541.636 90.0092 542.934 89.7208C543.799 89.4325 551.296 87.4142 558.07 91.7391C561.674 94.0456 563.405 96.929 565.134 100.101C567.009 103.272 570.036 108.606 570.757 117.399" stroke="#75819C" stroke-width="2" stroke-miterlimit="10"/>
<path d="M614.294 118.985C614.438 116.534 615.158 112.354 617.898 108.173C619.483 105.866 621.358 102.983 625.394 101.541C625.682 101.397 630.872 99.6679 635.917 102.263C636.495 102.551 637.936 103.416 640.387 106.01C642.405 108.173 644.856 111.345 648.748 119.273C650.334 122.301 651.631 125.039 653.217 129.076C655.523 134.987 656.533 139.023 657.83 144.357C662.875 163.675 665.038 166.27 667.2 179.1C667.776 182.704 668.21 185.732 668.354 187.893C668.931 192.939 669.795 200.291 669.939 209.374C670.083 214.275 669.939 226.385 670.516 231.718C670.66 233.305 670.948 234.89 670.948 234.89C671.381 237.773 672.102 239.935 672.246 240.656C672.823 242.675 673.543 245.99 674.985 252.477C675.705 255.793 676.859 260.983 677.436 266.893C678.156 273.813 677.292 273.525 677.724 284.914C677.868 288.95 678.156 292.41 678.733 299.618C679.165 305.529 679.309 306.682 679.598 310.574C680.175 318.647 680.319 324.846 680.463 329.171C680.608 337.244 680.608 343.442 680.319 355.841C680.175 367.806 679.887 370.4 680.175 377.032C680.463 384.528 681.184 389.718 681.616 392.601C682.337 398.079 682.913 401.683 684.356 406.584C686.085 412.351 688.104 417.253 691.131 424.173C692.14 426.334 693.005 428.209 693.582 429.506" stroke="#75819C" stroke-width="2" stroke-miterlimit="10"/>
<path d="M597.571 228.836C595.841 225.52 592.958 218.024 592.093 212.978C590.506 202.887 591.083 203.319 590.362 194.093C589.498 182.56 588.056 175.929 587.624 174.199C586.614 169.01 586.47 169.874 585.461 164.54C584.308 158.774 583.588 153.44 581.857 145.367C581.425 143.637 581.425 141.763 580.272 139.744C578.685 137.15 574.216 128.932 572.775 123.166C567.73 104.281 576.091 95.3433 582.145 93.1808C583.732 92.6042 586.614 91.8834 589.93 92.46C595.409 93.1808 598.868 96.6403 602.039 99.6681C605.644 103.272 607.662 106.732 610.112 111.057C611.987 114.373 613.284 117.256 614.293 119.274L614.581 119.994C622.654 137.15 628.565 151.71 631.016 162.522C633.178 172.18 634.043 180.687 634.619 186.02C636.062 200.147 637.791 214.276 637.503 223.069" stroke="#F69AED" stroke-width="3" stroke-miterlimit="10" stroke-linecap="round"/>
<path d="M491.18 328.883C491.18 325.712 491.468 321.819 492.189 317.35C493.054 312.449 494.496 308.269 495.793 305.097C495.505 298.321 495.216 291.546 494.784 284.77C494.207 272.517 493.486 260.407 492.621 248.586" stroke="#75819C" stroke-width="2" stroke-miterlimit="10"/>
<g opacity="0.5">
<path d="M457.592 208.508C458.745 207.932 459.754 207.211 460.331 206.202C460.908 205.193 461.052 204.04 461.052 202.743C461.052 200.291 460.619 197.84 459.898 195.534C459.178 193.227 458.313 190.777 457.448 188.47C457.015 187.317 456.582 186.164 455.718 185.299C454.853 184.434 453.7 184.001 452.402 183.713C453.7 183.713 454.997 184.001 456.15 184.866C457.304 185.587 458.025 187.029 458.457 188.182C459.466 190.489 460.475 192.795 461.196 195.246C461.629 196.543 461.917 197.696 462.061 198.994C462.205 200.291 462.205 201.589 462.061 202.887C461.917 204.184 461.629 205.625 460.763 206.635C460.187 207.644 458.889 208.22 457.592 208.508Z" fill="#75819C"/>
</g>
<g opacity="0.5">
<path d="M575.947 103.992C576.667 105.145 577.533 106.155 578.542 107.02C578.974 107.452 579.551 107.885 579.983 108.173C580.416 108.317 581.137 108.461 581.714 108.605C584.308 108.75 586.903 108.461 589.354 108.029C591.804 107.452 594.4 106.876 596.561 105.578C599.301 104.425 597.427 101.541 595.841 99.668C596.995 100.388 598.004 101.397 598.58 102.551C598.868 103.128 599.157 103.992 598.724 104.857C598.292 105.578 597.715 106.011 597.283 106.588C594.976 108.173 592.237 109.038 589.643 109.47C587.047 109.903 584.308 110.192 581.57 109.759C580.848 109.614 580.271 109.47 579.551 109.182C578.83 108.75 578.398 108.317 577.966 107.741C577.245 106.299 576.379 105.145 575.947 103.992Z" fill="#75819C"/>
</g>
</svg>
