<svg width="900" height="500" viewBox="0 0 900 500" fill="none" xmlns="http://www.w3.org/2000/svg">
<path opacity="0.33" d="M694.391 428.437C687.6 414.133 682.831 400.84 680.953 371.364C679.075 341.888 682.687 339.576 680.953 316.313C679.219 293.05 677.485 298.107 679.219 280.624C680.809 263.14 671.272 240.455 671.128 231.93C670.983 223.405 671.706 194.218 669.105 180.492C666.504 166.765 660.435 157.951 656.101 134.399C651.766 110.847 635.294 95.5311 624.746 98.9989C614.198 102.467 612.465 113.448 613.765 117.494C609.141 108.391 606.107 103.045 603.217 99.5768C600.327 96.1091 591.947 92.0633 591.947 92.0633C591.947 92.0633 578.943 89.318 573.886 101.022C569.695 101.889 569.695 110.992 569.84 113.448C568.828 107.957 566.95 100.155 565.361 97.6985C563.627 95.2421 560.303 91.3409 555.68 89.318C551.056 87.2952 539.208 88.0176 536.174 90.4739C533.139 92.9303 527.649 97.9874 528.082 102.9C528.516 107.957 530.105 112.437 530.394 125.296C530.683 138.156 534.873 165.32 535.74 172.111C536.607 178.902 548.311 241.467 548.311 241.467C548.311 241.467 547.877 242.478 547.155 241.756C546.577 241.033 532.85 164.742 527.938 153.472C529.816 141.479 530.972 107.524 523.169 100.01C519.846 92.4968 499.617 86.5727 491.959 103.478C484.301 120.239 486.758 150.293 485.313 161.852C483.868 173.412 485.457 199.131 486.902 206.789C485.891 198.986 483.29 191.762 478.811 187.283C474.332 182.803 466.963 178.324 461.761 176.446C457.571 175.001 452.225 176.879 449.913 179.191C449.19 179.914 448.179 180.636 447.167 180.781C446.011 181.07 445 181.936 445 181.936C445 184.393 446.878 196.675 453.669 208.812C451.936 211.413 454.247 222.249 452.369 229.907C450.491 237.421 448.323 242.623 451.647 251.292C450.346 253.604 452.08 259.961 454.97 262.273C453.236 267.619 455.403 274.41 461.183 288.571C468.407 306.343 464.795 325.994 469.852 336.108C474.91 346.222 480.978 349.69 487.625 360.093C494.127 370.497 519.557 403.007 529.96 411.243C540.364 419.479 544.698 428.293 544.698 428.293H694.391V428.437Z" fill="#445272"/>
<path d="M694.391 428.438C687.6 414.134 682.831 400.841 680.953 371.365C679.075 341.888 682.687 339.577 680.953 316.314C679.219 293.051 677.485 298.108 679.219 280.624C680.809 263.141 671.272 240.456 671.128 231.931C670.983 223.406 671.706 194.219 669.105 180.492C666.504 166.766 662.603 156.652 656.101 134.4C648.876 109.548 635.294 95.532 624.746 98.9998C614.198 102.468 612.465 113.449 613.765 117.495C609.141 108.392 606.107 103.046 603.217 99.5778C601.05 96.9769 595.126 92.4977 590.213 91.7753C586.601 91.1973 577.787 91.9198 573.886 100.878C570.129 102.179 569.695 110.848 569.84 113.304C568.828 107.814 566.95 100.011 565.361 97.5549C563.627 95.0986 560.303 91.1973 555.68 89.1745C551.056 87.1516 539.208 87.874 536.174 90.3304C533.139 92.7867 527.649 97.8439 528.082 102.757C528.516 107.814 530.105 112.293 530.394 125.153C530.683 138.012 534.873 165.177 535.74 171.968C536.607 178.759 548.311 241.323 548.311 241.323C548.311 241.323 547.877 242.334 547.155 241.612C546.577 240.89 532.85 164.599 527.938 153.328C529.816 141.336 530.972 107.38 523.169 99.8668C519.846 92.3532 499.617 86.4291 491.959 103.335C484.301 120.095 486.758 150.149 485.313 161.709C483.868 173.268 485.457 198.987 486.902 206.645C485.891 198.843 483.29 191.618 478.811 187.139C474.332 182.66 466.963 178.181 461.761 176.302C457.571 174.857 452.225 176.736 449.913 179.192C449.046 180.059 447.89 180.926 446.589 181.07C445.578 181.215 445 181.504 445 181.504C445 183.816 446.589 194.942 452.225 206.067C452.947 207.512 453.38 209.102 453.091 210.691C452.513 214.881 453.958 223.551 452.369 229.764C450.491 237.277 448.323 242.479 451.647 251.148C451.936 255.772 453.38 260.396 454.97 262.13C454.536 268.343 455.403 274.267 461.183 288.427C468.407 306.199 464.795 325.85 469.852 335.964C474.91 346.079 480.978 349.546 487.625 359.95C494.127 370.353 519.557 402.863 529.96 411.099C540.364 419.335 544.698 428.149 544.698 428.149" stroke="#697695" stroke-width="2" stroke-miterlimit="10"/>
<path d="M491.815 328.884C492.248 321.515 495.571 308.944 495.86 304.465C496.294 299.986 494.994 306.344 494.705 286.982C494.56 267.476 492.826 236.844 489.647 223.117C486.469 209.39 487.336 206.645 485.891 201.732" stroke="#697695" stroke-width="2" stroke-miterlimit="10"/>
<path d="M597.726 228.897C594.548 224.129 590.935 215.749 590.502 193.497C590.068 171.245 583.422 165.899 582.988 150.583C582.555 135.267 571.574 130.355 569.695 113.594" stroke="#697695" stroke-width="2" stroke-miterlimit="10"/>
<path d="M636.739 223.407C636.883 217.916 637.028 190.174 634.138 173.557C631.248 156.941 628.358 150.583 624.89 143.214C621.278 135.701 615.209 124.286 613.476 117.64" stroke="#697695" stroke-width="2" stroke-miterlimit="10"/>
<g opacity="0.5">
<path d="M453.092 182.806C454.392 183.095 455.548 183.817 456.704 184.684C457.715 185.695 458.438 186.851 458.871 188.152C459.594 190.753 460.316 193.209 460.75 195.954C461.183 198.555 461.617 201.3 461.328 204.046C461.328 204.768 461.039 205.491 460.894 206.069C460.605 206.791 460.172 207.369 459.594 207.803C458.438 208.814 456.993 208.958 455.693 208.525C456.993 208.669 458.293 208.236 459.16 207.225C460.027 206.358 460.172 205.057 460.172 203.757C460.172 201.156 459.738 198.555 459.305 196.099C458.871 193.498 458.293 190.897 457.716 188.441C457.282 186.129 455.548 183.962 453.092 182.806Z" fill="#B1BBD0"/>
</g>
<path opacity="0.33" d="M401.579 183.655C390.656 182.792 374.692 192.43 370.211 194.875C365.73 197.321 355.507 207.534 349.906 215.158C344.304 222.638 345.845 227.817 345.425 228.68C345.005 229.399 343.184 229.543 341.784 230.406C340.383 231.269 327.36 248.675 324.839 251.552C322.179 254.285 321.198 254.285 321.479 257.593C314.057 257.737 307.895 265.649 305.934 265.792C303.974 265.936 302.434 259.895 296.972 255.148C291.511 250.401 286.329 248.531 286.189 242.489C286.049 236.304 297.112 215.302 303.694 205.52C310.276 195.738 322.599 183.224 327.22 178.045C331.841 172.867 337.723 163.66 341.504 158.482C345.425 153.159 357.888 141.508 361.529 138.631C365.17 135.754 370.631 129.424 373.292 119.93C375.953 110.436 378.053 97.7778 366.43 92.887C354.807 87.9961 339.403 103.532 335.062 108.279V106.84C329.741 83.9684 314.337 77.3513 310.136 76.6321C305.934 75.9129 300.053 72.6044 297.392 72.3167C294.872 72.029 290.53 72.3167 285.909 72.4605C281.288 72.6044 267.004 70.5905 263.223 70.5905L261.963 70.0151C261.963 70.0151 252.441 62.6788 237.317 64.2612C226.674 61.6719 216.451 61.0965 209.449 63.3981C209.449 63.3981 217.992 50.8833 215.331 37.3615C212.67 23.8398 198.247 20.0998 192.785 19.0928C187.324 18.0859 186.764 28.443 185.923 33.7653C185.083 39.0877 176.961 54.911 175.981 57.788C175 60.665 175.421 62.535 175.281 64.1173C175 65.6996 161.557 91.5923 160.297 94.0377C159.036 96.3393 157.216 100.367 157.076 102.956C156.936 105.546 151.474 112.306 149.654 116.91C147.833 121.513 148.674 128.13 145.033 139.925C141.392 151.865 134.53 164.667 131.449 170.997C128.508 177.326 124.307 193.293 122.207 201.205C120.106 209.116 110.444 234.29 109.043 238.317C107.503 242.345 107.083 247.092 103.442 256.298C99.801 265.505 94.4796 292.117 94.0595 296.144C93.4993 300.172 80.0558 331.963 79.3557 332.826C78.6555 333.689 73.6142 348.505 62.9714 369.651C52.3286 390.797 19 433.376 19 433.376H180.182C186.624 413.668 202.308 389.79 205.949 384.036C209.589 378.282 222.053 365.192 232.835 358.287C243.618 351.526 257.762 347.498 275.407 342.607C293.051 337.717 309.295 337.717 320.498 334.552C331.701 331.387 340.804 314.413 344.444 308.084C348.085 301.755 370.491 269.533 372.172 267.375C373.992 265.217 372.872 263.922 373.152 263.491C373.432 263.059 374.692 263.922 375.392 263.347C376.093 262.915 380.434 255.579 381.834 253.709C383.235 251.839 381.974 250.113 382.254 249.681C382.534 249.25 383.375 249.969 383.935 249.681C384.495 249.394 385.475 246.948 388.276 237.742C391.077 228.536 393.597 227.529 394.297 225.803C394.998 224.077 393.597 222.926 394.157 221.056C394.718 219.33 402.56 212.856 406.2 208.109C409.841 203.362 414.743 195.163 414.883 194.3C415.023 193.437 416.003 192.43 416.003 192.43C416.003 192.43 412.502 184.518 401.579 183.655ZM279.608 152.728C276.387 155.892 270.225 161.646 264.904 166.25L264.064 164.955C259.442 158.338 269.245 146.111 271.345 142.515C273.446 139.062 292.771 119.93 295.012 115.615C296.832 116.622 301.313 116.334 303.274 115.04C303.694 116.91 305.654 120.362 307.895 121.369C308.735 121.8 309.715 121.513 310.696 121.081L311.956 121.369C302.294 127.411 284.369 147.981 279.608 152.728Z" fill="#445272"/>
<path d="M215.331 37.5049C217.991 51.0266 209.449 63.5414 209.449 63.5414C216.451 61.2398 226.534 61.8152 237.316 64.4045C252.44 62.8222 261.963 70.1584 261.963 70.1584L263.223 70.7338C267.004 70.7338 281.288 72.7477 285.909 72.6038C290.53 72.46 294.871 72.1723 297.392 72.46C299.913 72.7477 305.934 76.0562 310.135 76.7754C314.336 77.4947 329.74 84.1117 335.202 106.84" stroke="#697695" stroke-width="2" stroke-miterlimit="10"/>
<path d="M19 433.374C19 433.374 52.1886 390.651 62.8314 369.506C73.4741 348.36 78.5154 333.544 79.2156 332.681C79.9158 331.817 93.3593 300.171 93.9194 295.999C94.4796 291.971 99.6609 265.36 103.302 256.153C106.943 246.947 107.363 242.2 108.903 238.172C110.444 234.145 119.966 208.971 122.067 201.059C124.167 193.148 128.368 177.181 131.309 170.851C134.25 164.522 141.252 151.719 144.893 139.78C148.534 127.841 147.693 121.224 149.514 116.764C151.334 112.161 156.796 105.4 156.936 102.811C157.076 100.222 158.896 96.3379 160.157 93.8925C161.417 91.4471 175 65.5544 175.141 63.9721C175.421 62.3898 174.86 60.6636 175.841 57.6428C176.961 54.7658 184.943 38.7987 185.783 33.6201" stroke="#697695" stroke-width="2" stroke-miterlimit="10"/>
<path d="M314.477 119.93C322.599 117.053 330.861 113.025 335.202 108.278C339.544 103.531 354.948 87.9954 366.571 92.8862C378.194 97.7771 376.093 110.436 373.432 119.93C370.772 129.424 365.17 135.753 361.669 138.63C358.028 141.507 345.565 153.159 341.644 158.481C337.723 163.803 331.982 172.866 327.36 178.044C322.739 183.223 310.276 195.594 303.834 205.376C297.253 215.157 286.19 236.159 286.33 242.345C286.47 248.53 291.511 250.256 297.113 255.003C302.714 259.75 304.114 265.792 306.075 265.648C308.035 265.504 314.197 257.592 321.619 257.449C321.339 253.996 322.459 254.14 324.98 251.407C327.641 248.674 340.664 231.124 341.924 230.261C343.185 229.398 345.145 229.254 345.565 228.535C345.985 227.816 344.445 222.493 350.046 215.013C355.648 207.533 365.87 197.176 370.352 194.731C374.833 192.285 390.797 182.648 401.72 183.511C412.643 184.374 416.143 192.429 416.143 192.429C416.143 192.429 415.163 193.436 415.023 194.299C414.883 195.162 409.982 203.505 406.341 208.109C402.7 212.856 394.998 219.329 394.298 221.055C393.738 222.781 395.138 223.932 394.438 225.802C393.738 227.528 391.217 228.535 388.416 237.741C385.616 246.948 384.635 249.393 384.075 249.681C383.515 249.968 382.675 249.105 382.395 249.681C382.115 250.112 383.375 251.839 381.975 253.709C380.574 255.579 376.233 262.915 375.533 263.346C374.833 263.778 373.572 262.915 373.292 263.346C373.012 263.778 373.993 265.073 372.312 267.23C370.492 269.388 348.226 301.61 344.585 307.939C340.944 314.269 331.842 331.243 320.639 334.407C309.436 337.572 293.332 337.716 275.547 342.463C257.762 347.21 243.899 351.238 232.976 358.142C222.193 364.903 209.73 378.137 206.089 383.747C202.448 389.357 186.764 413.236 180.322 433.087" stroke="#697695" stroke-width="2" stroke-miterlimit="10"/>
<path d="M210.85 61.24C210.85 61.24 217.572 51.0267 215.331 37.505C213.511 26.5725 206.229 24.7025 204.268 24.271C201.047 20.6747 195.166 18.517 192.785 19.0924C190.264 19.6678 187.184 26.5725 185.923 33.7649C184.943 39.0873 176.961 54.9106 175.981 57.7876C174.86 60.6646 175.421 62.5346 175.281 64.1169C175.001 65.6992 161.557 91.5919 160.297 94.0373C159.036 96.4828 157.216 100.367 157.076 102.956C156.936 105.545 151.474 112.306 149.654 116.909C147.833 121.512 148.674 128.129 145.033 139.925C141.392 151.864 134.53 164.667 131.449 170.996" stroke="#BA6DCD" stroke-width="3" stroke-miterlimit="10" stroke-linecap="round"/>
<path d="M261.963 70.1591C261.963 70.1591 252.44 62.8229 237.316 64.4052C221.632 60.6652 207.068 61.2406 202.167 68.5768C197.266 75.9131 183.682 101.23 180.181 109.142C176.681 117.054 169.679 140.501 167.158 144.097C164.637 147.549 160.156 151.433 160.156 151.433" stroke="#697695" stroke-width="2" stroke-miterlimit="10"/>
<path d="M187.884 153.59C192.505 152.008 198.947 150.138 205.248 142.802C211.55 135.465 238.297 95.1879 243.898 88.8586C249.5 82.5292 259.582 70.5898 263.363 70.5898C267.144 70.5898 281.428 72.6037 286.049 72.4599C290.67 72.316 295.012 72.0283 297.532 72.316C300.053 72.6037 306.074 75.9122 310.276 76.6315C314.477 77.3507 329.881 83.9677 335.342 106.696C329.601 116.046 317.417 116.477 315.177 118.06C312.936 119.642 310.136 122.375 307.895 121.368C305.654 120.361 303.694 116.765 303.274 115.039C301.313 116.477 296.832 116.765 295.012 115.614C292.771 119.93 273.446 138.918 271.485 142.514C269.385 146.11 259.582 158.337 264.204 164.954" stroke="#697695" stroke-width="2" stroke-miterlimit="10"/>
<path d="M256.781 172.578C260.282 170.564 274.146 157.905 279.467 152.583C284.789 147.261 306.354 122.662 314.336 119.786C322.458 116.909 330.72 112.881 335.062 108.134" stroke="#697695" stroke-width="2" stroke-miterlimit="10"/>
<path d="M294.871 115.614C294.871 115.614 298.232 112.162 299.912 108.565" stroke="#697695" stroke-width="2" stroke-miterlimit="10"/>
<path d="M303.135 114.896C303.135 114.896 303.135 112.738 307.616 112.019" stroke="#697695" stroke-width="2" stroke-miterlimit="10"/>
<g opacity="0.5">
<path d="M204.128 26.2842C204.268 28.5858 203.848 30.7435 203.147 32.9012C202.447 35.0589 201.467 37.2166 200.067 38.9428C199.366 39.8059 198.526 40.669 197.406 41.2444C197.126 41.3882 196.846 41.5321 196.566 41.5321C196.286 41.6759 196.006 41.6759 195.725 41.6759C195.165 41.8198 194.605 41.8198 194.045 41.8198C191.804 41.6759 189.424 40.669 188.023 38.9428C189.844 40.2375 191.944 40.8128 194.045 40.669C195.025 40.5252 196.146 40.3813 196.846 39.9498C197.686 39.5182 198.386 38.799 199.086 37.9359C200.347 36.3536 201.327 34.3397 202.167 32.3258C202.587 31.3189 203.007 30.3119 203.287 29.305C203.567 28.4419 203.848 27.2911 204.128 26.2842Z" fill="#B1BBD0"/>
</g>
<g opacity="0.5">
<path d="M391.638 218.035C390.937 217.316 390.237 216.74 389.677 215.877C389.117 215.014 388.837 214.007 388.697 213C388.277 210.986 388.837 208.829 389.817 207.102C390.377 206.095 390.937 205.376 391.638 204.657C392.338 203.938 392.898 203.218 393.598 202.643C394.998 201.348 396.399 200.054 397.939 199.047C396.679 200.342 395.419 201.78 394.158 203.218C393.038 204.657 391.638 206.095 390.937 207.678C390.237 209.26 389.817 211.13 389.817 212.856C389.957 213.719 389.957 214.582 390.377 215.446C390.657 216.309 391.217 217.172 391.638 218.035Z" fill="#B1BBD0"/>
</g>
</svg>
