<svg width="850" height="500" viewBox="0 0 850 500" fill="none" xmlns="http://www.w3.org/2000/svg">
<path opacity="0.33" d="M687 448.081C679.945 433.22 674.992 419.411 673.041 388.79C671.089 358.169 674.842 355.768 673.041 331.601C671.24 307.435 669.438 312.689 671.24 294.526C672.891 276.364 662.984 252.798 662.834 243.942C662.684 235.086 663.434 204.765 660.732 190.506C658.031 176.246 651.726 167.09 647.223 142.623C642.72 118.157 625.609 102.246 614.651 105.848C603.694 109.451 601.892 120.858 603.243 125.061C598.44 115.605 595.288 110.051 592.286 106.449C589.284 102.846 580.578 98.6433 580.578 98.6433C580.578 98.6433 567.069 95.7914 561.815 107.95C557.462 108.85 557.462 118.307 557.612 120.858C556.562 115.155 554.61 107.049 552.959 104.497C551.158 101.946 547.706 97.8928 542.902 95.7914C538.099 93.6899 525.791 94.4404 522.639 96.9922C519.486 99.5439 513.783 104.797 514.233 109.901C514.683 115.155 516.334 119.808 516.635 133.167C516.935 146.526 521.288 174.745 522.188 181.8C523.089 188.855 535.247 253.849 535.247 253.849C535.247 253.849 534.797 254.899 534.046 254.149C533.446 253.398 519.186 174.145 514.083 162.437C516.034 149.978 517.235 114.704 509.129 106.899C505.677 99.0936 484.663 92.9394 476.707 110.501C468.752 127.913 471.304 159.134 469.803 171.143C468.302 183.151 469.953 209.869 471.454 217.824C470.403 209.719 467.701 202.214 463.048 197.56C458.395 192.907 450.74 188.254 445.336 186.303C440.983 184.802 435.429 186.753 433.028 189.155C432.277 189.905 431.227 190.656 430.176 190.806C428.975 191.106 427.924 192.007 427.924 192.007C427.924 194.558 429.876 207.317 436.93 219.926C435.129 222.627 437.531 233.885 435.579 241.841C433.628 249.646 431.377 255.05 434.829 264.056C433.478 266.457 435.279 273.062 438.281 275.463C436.48 281.017 438.732 288.072 444.736 302.782C452.241 321.244 448.488 341.658 453.742 352.165C458.995 362.673 465.3 366.275 472.204 377.082C478.959 387.89 505.377 421.663 516.184 430.218C526.992 438.774 531.495 447.93 531.495 447.93H687V448.081Z" fill="#E0E1E2"/>
<path d="M687 448.081C679.945 433.221 674.992 419.412 673.041 388.791C671.089 358.17 674.842 355.769 673.041 331.602C671.24 307.436 669.438 312.689 671.24 294.527C672.891 276.365 662.984 252.799 662.834 243.943C662.684 235.087 663.434 204.766 660.732 190.506C658.031 176.247 653.978 165.74 647.223 142.624C639.718 116.806 625.609 102.246 614.651 105.849C603.694 109.451 601.892 120.859 603.243 125.062C598.44 115.606 595.288 110.052 592.286 106.449C590.034 103.747 583.88 99.0943 578.777 98.3438C575.024 97.7434 565.868 98.4939 561.815 107.8C557.913 109.151 557.462 118.157 557.612 120.709C556.562 115.005 554.61 106.9 552.959 104.348C551.158 101.796 547.706 97.7434 542.902 95.6419C538.099 93.5405 525.791 94.291 522.639 96.8428C519.486 99.3945 513.783 104.648 514.233 109.752C514.683 115.005 516.334 119.658 516.635 133.017C516.935 146.376 521.288 174.596 522.188 181.65C523.089 188.705 535.247 253.699 535.247 253.699C535.247 253.699 534.797 254.75 534.046 254C533.446 253.249 519.186 173.995 514.083 162.287C516.034 149.829 517.235 114.555 509.129 106.749C505.677 98.9442 484.663 92.79 476.707 110.352C468.752 127.764 471.304 158.985 469.803 170.993C468.302 183.001 469.953 209.719 471.454 217.675C470.403 209.569 467.701 202.064 463.048 197.411C458.395 192.758 450.74 188.105 445.336 186.153C440.983 184.652 435.429 186.604 433.028 189.155C432.127 190.056 430.926 190.957 429.575 191.107C428.525 191.257 427.924 191.557 427.924 191.557C427.924 193.959 429.575 205.517 435.429 217.074C436.18 218.575 436.63 220.227 436.33 221.878C435.73 226.231 437.231 235.237 435.579 241.691C433.628 249.496 431.377 254.9 434.829 263.906C435.129 268.71 436.63 273.513 438.281 275.314C437.831 281.768 438.732 287.923 444.736 302.633C452.241 321.095 448.488 341.509 453.742 352.016C458.995 362.523 465.3 366.126 472.204 376.933C478.959 387.74 505.377 421.513 516.184 430.069C526.992 438.625 531.495 447.781 531.495 447.781" stroke="#808285" stroke-width="2" stroke-miterlimit="10"/>
<path d="M476.557 344.661C477.007 337.006 480.459 323.947 480.759 319.294C481.21 314.641 479.859 321.245 479.559 301.131C479.408 280.868 477.607 249.046 474.305 234.786C471.003 220.527 471.903 217.675 470.402 212.571" stroke="#808285" stroke-width="2" stroke-miterlimit="10"/>
<path d="M586.583 240.79C583.28 235.837 579.528 227.131 579.078 204.015C578.627 180.899 571.723 175.346 571.272 159.435C570.822 143.524 559.414 138.421 557.463 121.009" stroke="#808285" stroke-width="2" stroke-miterlimit="10"/>
<path d="M627.11 235.086C627.26 229.382 627.41 200.562 624.408 183.3C621.406 166.039 618.404 159.434 614.802 151.779C611.049 143.974 604.745 132.116 602.944 125.211" stroke="#808285" stroke-width="2" stroke-miterlimit="10"/>
<g opacity="0.5">
<path d="M436.331 192.909C437.681 193.209 438.882 193.96 440.083 194.861C441.134 195.911 441.884 197.112 442.335 198.463C443.085 201.165 443.836 203.717 444.286 206.568C444.736 209.27 445.187 212.122 444.886 214.974C444.886 215.725 444.586 216.475 444.436 217.076C444.136 217.826 443.686 218.427 443.085 218.877C441.884 219.928 440.383 220.078 439.032 219.627C440.383 219.777 441.734 219.327 442.635 218.276C443.535 217.376 443.686 216.025 443.686 214.674C443.686 211.972 443.235 209.27 442.785 206.719C442.335 204.017 441.734 201.315 441.134 198.763C440.684 196.362 438.882 194.11 436.331 192.909Z" fill="#AEB0B2"/>
</g>
<path opacity="0.33" d="M269.867 451.234C276.471 443.128 282.926 435.623 292.982 427.818C303.039 420.013 310.094 413.709 316.398 407.254C322.703 400.8 339.514 382.187 353.624 371.38C367.733 360.422 372.687 353.668 376.439 348.564C380.792 342.56 378.39 324.848 387.547 305.035C396.853 285.221 395.802 279.818 395.802 279.818C395.802 279.818 401.656 273.814 402.257 266.609C402.857 259.404 402.407 240.341 407.06 235.838L403.908 232.686C403.908 232.686 416.216 210.921 417.567 197.862C412.764 192.008 390.699 190.507 373.287 212.422C356.025 234.337 356.476 244.844 357.676 253.55C353.173 256.552 350.922 264.507 347.77 271.712C344.617 278.917 342.216 285.071 342.366 286.572C340.865 286.722 333.36 294.678 330.958 300.832C328.557 306.986 332.009 270.661 335.912 253.85C339.814 237.189 355.575 200.864 358.277 192.608C360.979 184.353 362.329 173.245 363.831 166.341C365.181 159.436 371.786 149.379 372.536 143.975C373.287 138.422 374.188 116.957 368.634 112.154C363.08 107.35 359.327 106.45 350.171 106.45C341.015 106.45 329.757 129.716 330.358 141.424C327.356 145.026 318.95 157.935 316.098 163.489C313.246 169.042 293.583 210.17 288.78 226.982C287.729 229.083 280.374 228.783 279.924 226.982C279.473 225.181 287.429 194.26 291.031 184.503C294.634 174.746 299.587 166.04 299.887 161.087C301.838 160.637 311.745 151.33 313.396 143.825C316.398 141.274 330.808 124.612 323.453 113.204C322.703 107.801 310.694 105.549 304.54 106.6C298.536 107.651 295.384 111.253 295.384 111.253C295.384 111.253 291.181 111.253 287.879 114.856C284.577 118.458 282.926 121.16 279.924 121.91C276.922 122.661 257.408 136.02 253.205 141.123C249.003 146.077 252.005 137.371 252.005 137.371C252.005 137.371 255.907 121.76 259.209 114.105C262.512 106.45 267.315 92.7906 267.315 86.3362C267.315 79.8818 264.613 75.8291 263.412 74.9285C262.812 73.2773 261.011 66.0725 249.453 64.5714C238.045 63.2205 235.493 75.9792 233.242 79.2814C230.99 82.5837 220.183 95.6425 217.781 109.752C213.278 111.703 192.714 135.72 185.509 146.077C178.305 156.434 172.3 169.793 169.449 174.146C166.446 178.349 162.094 185.253 156.54 201.314C150.986 217.375 150.235 232.536 146.933 240.641C143.781 248.747 134.475 272.463 133.424 281.619C132.373 290.775 134.625 368.228 132.373 376.183C130.122 384.138 129.371 387.591 129.221 391.493C129.071 395.246 98.6004 450.934 98 451.684H269.867V451.234Z" fill="#E0E1E2"/>
<path d="M98.4502 451.234C99.0506 450.483 129.371 394.946 129.671 391.043C129.822 387.29 130.572 383.838 132.824 375.733C135.075 367.627 132.824 290.174 133.874 281.168C134.925 272.012 144.231 248.296 147.383 240.19C150.536 232.085 151.436 217.075 156.99 200.864C162.544 184.803 166.897 177.898 169.899 173.695C172.901 169.492 178.755 156.133 185.96 145.626C193.165 135.269 213.728 111.253 218.232 109.302C220.483 95.192 231.441 82.1331 233.692 78.8309C235.944 75.5287 238.345 62.6199 249.903 64.1209C261.311 65.4718 263.262 72.8268 263.863 74.4779C265.213 75.3785 267.765 79.5814 267.765 85.8857C267.765 92.3401 262.962 105.849 259.66 113.655" stroke="#808285" stroke-width="2" stroke-miterlimit="10"/>
<path d="M211.477 233.285C214.629 230.733 219.132 226.831 221.234 223.979C223.335 221.127 230.54 206.117 231.741 195.76C232.942 185.403 236.694 172.494 241.197 162.287C245.7 152.08 250.203 145.325 253.656 140.672C256.958 136.019 277.372 122.21 280.374 121.459C283.376 120.709 285.027 118.007 288.329 114.404C291.631 110.802 295.834 110.802 295.834 110.802C295.834 110.802 298.986 107.2 304.991 106.149C310.995 105.098 323.003 107.35 323.903 112.753C331.258 124.161 316.849 140.822 313.847 143.374C312.195 150.879 302.289 160.186 300.337 160.636C300.037 165.589 295.084 174.145 291.481 184.052C287.879 193.808 279.924 224.729 280.374 226.531C280.824 228.332 288.179 228.632 289.23 226.531C294.033 209.869 313.696 168.441 316.548 163.037C319.4 157.634 327.806 144.575 330.808 140.972C330.208 129.264 341.315 105.999 350.622 105.999C359.778 105.999 363.68 106.899 369.084 111.703C374.638 116.506 373.587 137.97 372.987 143.524C372.236 149.078 365.632 158.985 364.281 165.889C362.93 172.794 361.579 183.902 358.727 192.157C356.025 200.413 340.264 236.737 336.362 253.399C332.459 270.06 329.007 306.535 331.408 300.381C333.81 294.227 341.315 286.271 342.816 286.121C342.666 284.62 344.918 278.316 348.22 271.261C351.522 264.206 353.624 256.101 358.127 253.099C356.926 244.393 356.325 233.886 373.737 211.971C390.999 190.056 413.064 191.407 418.017 197.411C416.666 210.47 404.358 232.234 404.358 232.234L407.51 235.387C402.857 239.89 403.157 258.953 402.707 266.157C402.106 273.362 396.253 279.366 396.253 279.366C396.253 279.366 397.153 284.77 387.997 304.584C378.691 324.397 381.242 342.259 376.889 348.113C373.137 353.217 368.183 359.971 354.074 370.929C339.964 381.886 323.153 400.349 316.849 406.803C310.544 413.257 303.339 419.562 293.433 427.367C283.376 435.172 276.921 442.677 270.317 450.783" stroke="#808285" stroke-width="2" stroke-miterlimit="10"/>
<g opacity="0.5">
<path d="M413.513 199.213C410.962 201.014 408.71 202.965 406.609 205.217C404.657 207.468 402.856 209.87 401.655 212.572C400.455 215.274 399.854 218.126 399.404 221.128C399.254 222.629 399.104 224.13 399.104 225.631C399.104 226.381 399.254 227.132 399.404 227.882C399.554 228.633 399.854 229.383 400.605 229.533C399.854 229.383 399.254 228.633 398.954 228.032C398.653 227.282 398.503 226.531 398.353 225.781C398.053 224.28 398.053 222.629 398.203 221.128C398.353 218.126 398.954 214.823 400.154 211.972C401.505 209.12 403.307 206.418 405.558 204.316C407.96 202.065 410.662 200.414 413.513 199.213Z" fill="#AEB0B2"/>
</g>
<path d="M172 229.534C173.801 226.682 176.803 223.53 179.055 222.479C179.055 218.576 180.706 201.014 185.359 187.355C190.012 173.696 197.367 156.434 200.369 149.529C203.221 142.625 212.678 122.961 214.779 119.059C216.88 115.306 215.379 114.105 218.532 109.602C220.783 95.4928 231.741 82.4339 233.992 79.1317C236.244 75.8294 238.645 62.9207 250.203 64.4217C261.611 65.7726 263.562 73.1276 264.163 74.7787C265.514 75.6793 268.065 79.8822 268.065 86.1865C268.065 92.6408 263.262 106.15 259.96 113.955C256.657 121.611 252.755 137.221 252.755 137.221" stroke="#2969D0" stroke-width="3" stroke-miterlimit="10" stroke-linecap="round"/>
<g opacity="0.5">
<path d="M261.612 78.5322C260.261 81.3842 258.76 84.086 256.959 86.4876C256.508 87.088 256.058 87.6884 255.458 88.2889C254.857 88.8893 254.407 89.4897 253.506 89.94C253.206 90.2402 252.456 90.3903 252.155 90.3903C251.705 90.3903 251.405 90.3903 250.954 90.3903C250.204 90.3903 249.453 90.2402 248.553 90.2402C245.551 89.94 242.399 89.4897 239.397 89.1894C239.096 89.1894 238.646 89.1894 238.346 89.1894C238.196 89.1894 237.896 89.1894 237.896 89.1894H237.746C237.595 89.1894 237.445 89.1894 237.295 89.1894C236.545 89.0393 236.395 88.4389 236.245 88.1387C236.094 87.6884 236.094 87.3882 235.944 86.9379C235.794 85.2868 235.794 83.7858 236.094 82.2848C236.244 83.7858 236.395 85.4369 236.695 86.7878C236.845 87.088 236.845 87.5383 236.995 87.8385C237.145 88.1387 237.295 88.2889 237.445 88.2889C237.445 88.2889 237.445 88.2889 237.595 88.2889H237.896C238.196 88.2889 238.346 88.2889 238.496 88.2889C238.946 88.2889 239.247 88.2889 239.697 88.2889C242.849 88.2889 245.851 88.7392 248.853 89.0394C249.604 89.1895 250.354 89.1894 251.105 89.1894C251.405 89.1894 251.855 89.1894 252.155 89.1894C252.305 89.1894 252.456 89.1894 252.606 89.1894C252.756 89.1894 252.756 89.1895 252.906 89.0394C253.957 88.439 255.007 87.2381 256.058 86.0373C257.859 83.6357 259.81 81.084 261.612 78.5322Z" fill="#AEB0B2"/>
</g>
</svg>
