<svg width="900" height="500" viewBox="0 0 900 500" fill="none" xmlns="http://www.w3.org/2000/svg">
<path opacity="0.33" d="M512.283 419.258C501.388 408.582 492.069 399.592 484.471 392.287C473.432 381.611 467.841 376.273 466.407 375.009C458.952 368.828 453.934 366.018 448.343 358.573C446.336 356.045 443.469 352.252 441.462 346.493C439.598 341.435 439.311 337.783 438.594 328.793C437.734 318.819 437.304 313.762 436.874 309.267C435.584 297.046 434.724 290.162 432.143 281.172C430.853 276.958 429.849 274.289 428.989 269.091C428.272 264.877 427.412 259.82 428.559 253.779C429.132 250.83 429.706 249.987 431.283 244.649C433.003 238.889 434.15 234.113 434.867 231.023C434.007 228.494 433.003 224.982 432 220.628C431.139 217.256 430.566 214.868 430.136 211.778C429.706 208.687 429.276 204.192 429.419 198.714C430.566 198.433 431.569 198.011 432.716 197.73C433.863 197.309 435.727 196.606 438.021 196.185C439.885 195.904 446.193 194.78 451.354 198.011C452.501 198.714 452.787 199.275 455.511 202.366C462.679 210.654 462.536 209.811 464.113 212.059C468.988 218.661 470.564 225.263 471.425 229.056C472.715 234.535 472.715 238.889 472.858 243.806C472.858 248.582 472.572 252.515 472.285 255.465C471.855 256.449 471.425 257.572 470.851 258.556C471.281 259.398 471.711 260.241 472.141 261.084C473.002 262.208 473.862 263.472 474.722 264.877C477.589 269.794 478.163 274.57 478.306 277.66C478.306 281.593 479.166 284.262 479.883 285.948C480.457 287.212 481.03 288.055 484.614 293.253C486.048 295.219 487.195 296.905 488.055 298.169C488.485 295.641 489.058 291.848 489.489 287.353C489.919 282.717 490.062 277.098 489.202 263.472C488.772 256.589 488.485 250.97 487.625 242.682C485.904 226.668 484.471 221.189 483.037 210.654C481.03 194.921 480.17 185.649 481.604 173.99C481.89 171.181 482.607 167.107 483.181 160.224C483.897 151.795 483.754 149.407 484.327 142.524C485.188 130.864 485.618 124.965 487.912 118.081C490.205 110.777 492.643 103.332 499.667 100.101C504.112 97.9935 508.556 98.4149 509.273 98.5554C514.864 99.2578 518.448 102.489 519.452 103.472C522.606 106.422 523.896 109.653 524.613 111.9C526.046 115.974 526.476 119.767 526.046 127.353C525.473 136.343 524.613 137.888 524.039 144.771C523.179 154.324 524.039 161.769 524.613 166.124C525.616 174.131 526.476 174.692 529.057 187.757C530.204 193.656 530.921 198.573 532.354 208.406C533.358 215.43 534.648 224.561 535.938 235.518C537.515 235.518 539.092 235.377 540.669 235.377C539.809 229.899 538.519 222.173 537.085 212.621C534.792 197.59 533.645 190.004 533.071 180.592C532.211 167.809 531.781 159.943 533.645 151.795C534.075 150.109 534.935 146.457 535.508 141.26C536.225 135.36 535.652 134.798 536.225 129.179C537.085 120.048 539.379 114.289 539.953 112.743C541.53 108.81 542.533 106.281 545.114 103.753C546.404 102.348 549.988 98.9768 555.723 98.134C561.314 97.4316 565.615 99.6792 566.905 100.522C571.493 103.051 573.643 106.843 574.36 108.248C575.937 111.058 576.224 113.446 576.797 116.817C577.514 121.874 577.371 125.807 577.227 127.212C576.941 133.814 577.371 140.417 577.371 146.879C577.227 159.24 578.804 170.338 580.955 185.93C582.245 195.764 584.252 207.704 587.263 221.189C589.7 222.032 592.28 222.875 594.718 223.718C596.295 219.785 598.302 213.885 599.449 206.58C600.452 199.697 600.309 194.499 599.879 185.649C599.305 173.288 597.872 164.016 597.442 161.769C595.865 151.936 594.718 145.333 591.85 136.624C590.56 132.691 588.696 127.774 587.836 120.61C587.263 115.272 587.549 111.76 588.84 108.529C589.7 106.281 590.99 102.91 594.431 100.803C600.596 97.1506 608.337 101.084 609.054 101.505C612.208 103.191 613.785 105.439 617.082 109.793C620.953 114.991 623.247 119.627 623.964 121.172C625.828 124.965 626.401 126.931 630.989 142.243C634.573 154.043 636.437 159.943 637.01 161.347C637.727 162.893 639.017 165.843 640.021 170.057C641.024 174.131 641.168 177.221 641.168 179.047C641.598 191.83 641.741 198.292 641.598 202.787C641.311 211.216 640.594 222.594 638.874 236.642C639.734 236.782 640.881 237.063 642.314 237.063C643.748 237.063 645.468 236.923 647.189 236.22C649.483 235.377 651.06 234.113 653.353 231.865C658.371 226.949 661.238 222.173 661.525 221.751C663.962 217.818 667.977 212.34 674.285 205.878C676.292 201.523 678.586 196.887 681.166 192.111C684.033 186.773 687.044 181.857 689.911 177.361C689.911 175.957 689.911 173.85 690.055 171.181C690.341 163.174 690.341 159.24 690.915 156.431C691.632 153.2 693.065 145.895 699.23 140.979C701.094 139.433 706.398 135.079 713.566 136.062C719.874 136.905 723.602 141.4 724.462 142.664C724.605 146.457 724.605 150.39 724.749 154.324C724.892 161.066 724.892 167.809 724.749 174.412C724.462 176.238 724.175 178.064 723.889 179.89C720.878 193.516 713.423 215.149 708.405 226.949C705.538 233.692 700.664 244.227 694.929 253.499C693.209 256.168 691.918 258.275 691.918 258.275C686.614 266.141 684.32 268.108 681.309 273.024C678.299 277.941 676.722 282.296 676.148 284.122C672.994 293.815 675.432 296.624 671.991 305.334C671.417 306.879 670.27 309.407 669.554 313.2C668.98 316.431 668.98 318.819 668.98 320.364C668.98 331.181 669.697 336.659 669.697 344.807C669.697 346.633 669.554 349.162 669.267 354.219C668.693 363.63 668.407 368.407 667.69 373.885C666.543 382.454 665.683 382.173 665.109 388.775C664.679 393.411 664.249 398.047 665.396 403.947C666.113 407.599 667.546 413.218 671.704 419.68C618.229 419.399 565.328 419.258 512.283 419.258Z" fill="#E0E1E2"/>
<path d="M512.283 419.258C501.388 408.582 492.069 399.592 484.471 392.287C473.432 381.611 467.841 376.273 466.407 375.009C458.952 368.828 453.934 366.018 448.343 358.573C446.336 356.045 443.469 352.252 441.462 346.493C439.598 341.435 439.311 337.783 438.594 328.793C437.734 318.819 437.304 313.762 436.874 309.267C435.584 297.046 434.724 290.162 432.143 281.172C430.853 276.958 429.849 274.289 428.989 269.091C428.272 264.877 427.412 259.82 428.559 253.779C429.132 250.83 429.706 249.987 431.283 244.649C433.003 238.889 434.15 234.113 434.867 231.023C434.007 228.494 433.003 224.982 432 220.628C431.139 217.256 430.566 214.868 430.136 211.778C429.706 208.687 429.276 204.192 429.419 198.714C430.566 198.433 431.569 198.011 432.716 197.73C433.863 197.309 435.727 196.606 438.021 196.185C439.885 195.904 446.193 194.78 451.354 198.011C452.501 198.714 452.787 199.275 455.511 202.366C462.679 210.654 462.536 209.811 464.113 212.059C468.988 218.661 470.564 225.263 471.425 229.056C472.715 234.535 472.715 238.889 472.858 243.806C472.858 248.582 472.572 252.515 472.285 255.465C471.855 256.449 471.425 257.572 470.851 258.556C471.281 259.398 471.711 260.241 472.141 261.084C473.002 262.208 473.862 263.472 474.722 264.877C477.589 269.794 478.163 274.57 478.306 277.66C478.306 281.593 479.166 284.262 479.883 285.948C480.457 287.212 481.03 288.055 484.614 293.253C486.048 295.219 487.195 296.905 488.055 298.169C488.485 295.641 489.058 291.848 489.489 287.353C489.919 282.717 490.062 277.098 489.202 263.472C488.772 256.589 488.485 250.97 487.625 242.682C485.904 226.668 484.471 221.189 483.037 210.654C481.03 194.921 480.17 185.649 481.604 173.99C481.89 171.181 482.607 167.107 483.181 160.224C483.897 151.795 483.754 149.407 484.327 142.524C485.188 130.864 485.618 124.965 487.912 118.081C490.205 110.777 492.643 103.332 499.667 100.101C504.112 97.9935 508.556 98.4149 509.273 98.5554C514.864 99.2578 518.448 102.489 519.452 103.472C522.606 106.422 523.896 109.653 524.613 111.9C526.046 115.974 526.476 119.767 526.046 127.353C525.473 136.343 524.613 137.888 524.039 144.771C523.179 154.324 524.039 161.769 524.613 166.124C525.616 174.131 526.476 174.692 529.057 187.757C530.204 193.656 530.921 198.573 532.354 208.406C533.358 215.43 534.648 224.561 535.938 235.518C537.515 235.518 539.092 235.377 540.669 235.377C539.809 229.899 538.519 222.173 537.085 212.621C534.792 197.59 533.645 190.004 533.071 180.592C532.211 167.809 531.781 159.943 533.645 151.795C534.075 150.109 534.935 146.457 535.508 141.26C536.225 135.36 535.652 134.798 536.225 129.179C537.085 120.048 539.379 114.289 539.953 112.743C541.53 108.81 542.533 106.281 545.114 103.753C546.404 102.348 549.988 98.9768 555.723 98.134C561.314 97.4316 565.615 99.6792 566.905 100.522C571.493 103.051 573.643 106.843 574.36 108.248C575.937 111.058 576.224 113.446 576.797 116.817C577.514 121.874 577.371 125.807 577.227 127.212C576.941 133.814 577.371 140.417 577.371 146.879C577.227 159.24 578.804 170.338 580.955 185.93C582.245 195.764 584.252 207.704 587.263 221.189C589.7 222.032 592.28 222.875 594.718 223.718C596.295 219.785 598.302 213.885 599.449 206.58C600.452 199.697 600.309 194.499 599.879 185.649C599.305 173.288 597.872 164.016 597.442 161.769C595.865 151.936 594.718 145.333 591.85 136.624C590.56 132.691 588.696 127.774 587.836 120.61C587.263 115.272 587.549 111.76 588.84 108.529C589.7 106.281 590.99 102.91 594.431 100.803C600.596 97.1506 608.337 101.084 609.054 101.505C612.208 103.191 613.785 105.439 617.082 109.793C620.953 114.991 623.247 119.627 623.964 121.172C625.828 124.965 626.401 126.931 630.989 142.243C634.573 154.043 636.436 159.943 637.01 161.347C637.727 162.893 639.017 165.843 640.021 170.057C641.024 174.131 641.168 177.221 641.168 179.047C641.598 191.83 641.741 198.292 641.598 202.787C641.311 211.216 640.594 222.594 638.874 236.642C639.734 236.782 640.881 237.063 642.314 237.063" stroke="#75819C" stroke-width="2" stroke-miterlimit="10"/>
<path d="M681.167 272.744C678.156 277.661 676.579 282.015 676.006 283.842C672.852 293.534 675.289 296.344 671.848 305.053C671.275 306.598 670.128 309.127 669.411 312.92C668.838 316.151 668.838 318.539 668.838 320.084C668.838 330.901 669.554 336.379 669.554 344.527C669.554 346.353 669.411 348.881 669.124 353.938C668.551 363.35 668.264 368.126 667.547 373.605C666.4 382.174 665.54 381.893 664.967 388.495C664.537 393.131 664.107 397.766 665.254 403.666C665.97 407.319 667.404 412.937 671.562 419.399" stroke="#75819C" stroke-width="2" stroke-miterlimit="10"/>
<path d="M642.458 236.783C643.892 236.783 645.612 236.642 647.332 235.94C649.626 235.097 651.203 233.833 653.497 231.585C658.515 226.669 661.382 221.892 661.669 221.471C664.106 217.538 668.12 212.059 674.428 205.597C676.435 201.243 678.729 196.607 681.31 191.831C684.177 186.493 687.188 181.576 690.055 177.081C690.055 175.676 690.055 173.569 690.198 170.9C690.485 162.893 690.485 158.96 691.058 156.15C691.775 152.92 693.209 145.615 699.373 140.698C701.237 139.153 706.542 134.798 713.71 135.782C720.018 136.625 723.745 141.12 724.606 142.384C724.749 146.177 724.749 150.11 724.892 154.043C725.036 160.786 725.036 167.529 724.892 174.131C724.606 175.957 724.319 177.783 724.032 179.61C721.021 193.236 713.567 214.869 708.549 226.669C705.681 233.411 700.807 243.947 695.073 253.218C693.352 255.887 692.062 257.994 692.062 257.994C686.757 265.861 684.464 267.828 681.453 272.744" stroke="#F69AED" stroke-width="3" stroke-miterlimit="10" stroke-linecap="round"/>
<g opacity="0.5">
<path d="M708.119 141.119C708.119 143.507 708.119 146.036 708.119 148.424C708.262 150.812 708.405 153.2 708.835 155.588C708.979 156.15 709.122 156.712 709.266 157.274C709.409 157.836 709.552 158.257 709.982 158.678C710.699 159.521 711.703 160.083 712.706 160.645C714.857 161.769 717.151 162.471 719.588 162.752C717.151 163.033 714.57 162.612 712.133 161.628C710.986 161.207 709.839 160.505 708.835 159.521C708.405 159.1 707.975 158.257 707.832 157.695C707.689 157.133 707.545 156.431 707.402 155.869C706.972 153.481 706.828 150.952 706.972 148.564C707.115 145.895 707.545 143.367 708.119 141.119Z" fill="#75819C"/>
</g>
<g opacity="0.5">
<path d="M439.024 228.214C440.027 227.371 440.601 226.388 440.887 225.264C441.174 224.14 441.174 223.016 441.174 221.893C441.174 220.769 441.031 219.505 440.887 218.381L440.6 214.869C440.457 212.481 440.314 210.093 439.74 207.845C439.454 206.721 439.167 205.598 438.593 204.474C438.163 203.491 437.447 202.507 436.156 201.945C437.447 202.086 438.45 203.069 439.167 204.052C439.884 205.176 440.314 206.3 440.744 207.424C441.461 209.812 441.747 212.2 441.891 214.588C442.034 216.976 442.321 219.364 442.178 221.893C442.178 223.157 441.891 224.421 441.461 225.545C441.031 226.669 440.17 227.652 439.024 228.214Z" fill="#75819C"/>
</g>
<path opacity="0.33" d="M402.203 179.458C391.405 178.628 375.623 187.903 371.194 190.256C366.764 192.61 356.658 202.438 351.121 209.775C345.583 216.974 347.106 221.958 346.691 222.788C346.275 223.48 344.476 223.619 343.091 224.449C341.707 225.28 328.833 242.031 326.341 244.799C323.711 247.43 322.741 247.43 323.018 250.614C315.681 250.752 309.59 258.366 307.652 258.504C305.714 258.643 304.191 252.828 298.792 248.26C293.393 243.692 288.271 241.892 288.133 236.078C287.994 230.125 298.931 209.914 305.437 200.5C311.944 191.087 324.126 179.043 328.694 174.059C333.262 169.076 339.077 160.216 342.814 155.232C346.691 150.11 359.011 138.897 362.611 136.128C366.21 133.36 371.609 127.268 374.239 118.132C376.869 108.995 378.946 96.8129 367.456 92.1061C355.966 87.3994 340.738 102.35 336.446 106.919V105.534C331.186 83.5232 315.958 77.1552 311.805 76.463C307.652 75.7709 301.838 72.5869 299.208 72.31C296.716 72.0331 292.424 72.31 287.856 72.4485C283.288 72.5869 269.167 70.6488 265.43 70.6488L264.184 70.0951C264.184 70.0951 254.77 63.0349 239.819 64.5577C229.298 62.0659 219.193 61.5121 212.271 63.7271C212.271 63.7271 220.715 51.6833 218.085 38.6704C215.455 25.6576 201.196 22.0583 195.797 21.0893C190.398 20.1202 189.844 30.0875 189.014 35.2096C188.183 40.3317 180.154 55.5594 179.185 58.3281C178.216 61.0968 178.631 62.8965 178.493 64.4193C178.216 65.942 164.926 90.8602 163.68 93.2136C162.434 95.4286 160.635 99.3047 160.496 101.797C160.358 104.288 154.959 110.795 153.159 115.225C151.36 119.655 152.19 126.023 148.591 137.374C144.992 148.864 138.208 161.185 135.163 167.276C132.256 173.367 128.103 188.733 126.026 196.347C123.95 203.961 114.398 228.187 113.013 232.063C111.491 235.939 111.075 240.508 107.476 249.368C103.877 258.227 98.6162 283.838 98.2008 287.714C97.6471 291.59 84.3574 322.184 83.6652 323.015C82.9731 323.845 77.9894 338.104 67.4684 358.454C56.9474 378.804 24 419.78 24 419.78H183.338C189.706 400.815 205.211 377.835 208.81 372.297C212.409 366.76 224.73 354.162 235.389 347.518C246.049 341.011 260.031 337.135 277.473 332.428C294.916 327.721 310.975 327.721 322.049 324.676C333.124 321.63 342.122 305.295 345.722 299.204C349.321 293.113 371.47 262.104 373.132 260.027C374.931 257.951 373.824 256.705 374.101 256.289C374.378 255.874 375.623 256.705 376.316 256.151C377.008 255.736 381.299 248.675 382.684 246.876C384.068 245.076 382.822 243.415 383.099 243C383.376 242.584 384.206 243.276 384.76 243C385.314 242.723 386.283 240.369 389.052 231.51C391.82 222.65 394.312 221.681 395.004 220.02C395.696 218.358 394.312 217.251 394.866 215.451C395.42 213.79 403.172 207.56 406.771 202.992C410.37 198.424 415.216 190.533 415.354 189.702C415.493 188.872 416.462 187.903 416.462 187.903C416.462 187.903 413.001 180.289 402.203 179.458ZM281.626 149.695C278.442 152.74 272.351 158.278 267.091 162.708L266.26 161.462C261.692 155.094 271.382 143.327 273.459 139.866C275.535 136.544 294.639 118.132 296.854 113.979C298.654 114.948 303.084 114.671 305.022 113.425C305.437 115.225 307.375 118.547 309.59 119.516C310.421 119.931 311.39 119.655 312.359 119.239L313.605 119.516C304.053 125.33 286.333 145.127 281.626 149.695Z" fill="#E0E1E2"/>
<path d="M218.085 38.8086C220.715 51.8214 212.271 63.8652 212.271 63.8652C219.192 61.6503 229.159 62.204 239.819 64.6958C254.77 63.173 264.183 70.2332 264.183 70.2332L265.429 70.7869C269.167 70.7869 283.287 72.725 287.856 72.5866C292.424 72.4481 296.715 72.1713 299.207 72.4482C301.699 72.725 307.652 75.909 311.805 76.6012C315.958 77.2934 331.186 83.6613 336.585 105.534" stroke="#75819C" stroke-width="2" stroke-miterlimit="10"/>
<path d="M24 419.78C24 419.78 56.809 378.665 67.33 358.315C77.851 337.965 82.8346 323.706 83.5268 322.875C84.219 322.045 97.5087 291.589 98.0624 287.575C98.6161 283.699 103.738 258.088 107.338 249.228C110.937 240.369 111.352 235.8 112.875 231.924C114.398 228.048 123.811 203.822 125.888 196.208C127.964 188.594 132.117 173.228 135.024 167.137C137.932 161.046 144.853 148.725 148.453 137.235C152.052 125.745 151.221 119.377 153.021 115.085C154.821 110.655 160.219 104.149 160.358 101.657C160.496 99.1654 162.296 95.4277 163.542 93.0743C164.788 90.7209 178.216 65.8027 178.354 64.28C178.631 62.7572 178.078 61.096 179.047 58.1889C180.154 55.4202 188.045 40.054 188.875 35.0703" stroke="#75819C" stroke-width="2" stroke-miterlimit="10"/>
<path d="M316.097 118.13C324.126 115.362 332.294 111.486 336.585 106.917C340.876 102.349 356.104 87.398 367.594 92.1047C379.084 96.8115 377.008 108.994 374.378 118.13C371.747 127.267 366.21 133.358 362.749 136.127C359.15 138.896 346.829 150.109 342.953 155.231C339.077 160.353 333.401 169.074 328.833 174.058C324.264 179.042 311.944 190.947 305.576 200.36C299.069 209.774 288.133 229.985 288.271 235.938C288.41 241.891 293.393 243.552 298.931 248.12C304.468 252.689 305.853 258.503 307.791 258.364C309.729 258.226 315.82 250.612 323.157 250.474C322.88 247.151 323.987 247.29 326.479 244.659C329.11 242.029 341.984 225.14 343.23 224.31C344.476 223.479 346.414 223.341 346.829 222.648C347.244 221.956 345.722 216.834 351.259 209.636C356.796 202.437 366.902 192.47 371.332 190.116C375.762 187.763 391.543 178.488 402.341 179.318C413.139 180.149 416.6 187.901 416.6 187.901C416.6 187.901 415.631 188.87 415.493 189.701C415.354 190.532 410.509 198.561 406.91 202.991C403.31 207.559 395.697 213.789 395.004 215.45C394.451 217.111 395.835 218.218 395.143 220.018C394.451 221.679 391.959 222.648 389.19 231.508C386.421 240.368 385.452 242.721 384.899 242.998C384.345 243.275 383.514 242.444 383.237 242.998C382.961 243.414 384.206 245.075 382.822 246.874C381.438 248.674 377.146 255.734 376.454 256.149C375.762 256.565 374.516 255.734 374.239 256.149C373.962 256.565 374.931 257.811 373.27 259.887C371.47 261.964 349.459 292.973 345.86 299.064C342.261 305.155 333.263 321.491 322.188 324.536C311.113 327.582 295.193 327.72 277.612 332.288C260.031 336.857 246.326 340.733 235.528 347.378C224.868 353.884 212.548 366.62 208.948 372.019C205.349 377.418 189.845 400.398 183.477 419.502" stroke="#75819C" stroke-width="2" stroke-miterlimit="10"/>
<path d="M213.655 61.6502C213.655 61.6502 220.3 51.8214 218.085 38.8086C216.286 28.2875 209.087 26.4879 207.149 26.0726C203.965 22.6117 198.151 20.5352 195.797 21.0889C193.306 21.6427 190.26 28.2875 189.014 35.2092C188.045 40.3313 180.154 55.5591 179.185 58.3278C178.078 61.0965 178.631 62.8961 178.493 64.4189C178.216 65.9417 164.926 90.8599 163.681 93.2133C162.435 95.5667 160.635 99.3044 160.497 101.796C160.358 104.288 154.959 110.794 153.16 115.224C151.36 119.654 152.191 126.022 148.591 137.374C144.992 148.864 138.209 161.185 135.163 167.276" stroke="#F69AED" stroke-width="3" stroke-miterlimit="10" stroke-linecap="round"/>
<path d="M264.184 70.2335C264.184 70.2335 254.77 63.1733 239.819 64.6961C224.315 61.0968 209.918 61.6505 205.072 68.7107C200.227 75.7708 186.799 100.135 183.338 107.749C179.877 115.363 172.956 137.928 170.464 141.389C167.972 144.711 163.542 148.449 163.542 148.449" stroke="#75819C" stroke-width="2" stroke-miterlimit="10"/>
<path d="M190.951 150.525C195.52 149.002 201.888 147.203 208.117 140.143C214.347 133.082 240.788 94.3207 246.325 88.2296C251.862 82.1385 261.83 70.6484 265.567 70.6484C269.305 70.6484 283.425 72.5865 287.994 72.4481C292.562 72.3097 296.853 72.0328 299.345 72.3096C301.837 72.5865 307.79 75.7705 311.943 76.4627C316.096 77.1549 331.324 83.5228 336.723 105.395C331.047 114.394 319.003 114.809 316.788 116.332C314.573 117.855 311.804 120.485 309.589 119.516C307.375 118.547 305.436 115.086 305.021 113.425C303.083 114.809 298.653 115.086 296.853 113.978C294.639 118.131 275.535 136.405 273.597 139.866C271.52 143.327 261.83 155.093 266.398 161.461" stroke="#75819C" stroke-width="2" stroke-miterlimit="10"/>
<path d="M259.062 168.798C262.522 166.86 276.227 154.678 281.488 149.556C286.748 144.433 308.067 120.761 315.958 117.992C323.987 115.224 332.155 111.348 336.446 106.779" stroke="#75819C" stroke-width="2" stroke-miterlimit="10"/>
<path d="M296.716 113.979C296.716 113.979 300.038 110.656 301.699 107.195" stroke="#75819C" stroke-width="2" stroke-miterlimit="10"/>
<path d="M304.884 113.286C304.884 113.286 304.884 111.21 309.314 110.518" stroke="#75819C" stroke-width="2" stroke-miterlimit="10"/>
<g opacity="0.5">
<path d="M207.011 28.0098C207.149 30.2247 206.734 32.3012 206.042 34.3777C205.35 36.4543 204.381 38.5308 202.996 40.192C202.304 41.0226 201.473 41.8532 200.366 42.4069C200.089 42.5454 199.812 42.6838 199.535 42.6838C199.258 42.8222 198.982 42.8222 198.705 42.8222C198.151 42.9607 197.597 42.9607 197.044 42.9607C194.829 42.8223 192.475 41.8532 191.091 40.192C192.89 41.4379 194.967 41.9916 197.044 41.8532C198.013 41.7148 199.12 41.5763 199.812 41.161C200.643 40.7457 201.335 40.0536 202.027 39.223C203.273 37.7002 204.242 35.7621 205.073 33.824C205.488 32.855 205.903 31.8859 206.18 30.9169C206.457 30.0863 206.734 28.9788 207.011 28.0098Z" fill="#75819C"/>
</g>
<g opacity="0.5">
<path d="M392.375 212.543C391.683 211.851 390.99 211.297 390.437 210.466C389.883 209.636 389.606 208.667 389.468 207.698C389.052 205.76 389.606 203.683 390.575 202.022C391.129 201.053 391.683 200.361 392.375 199.668C393.067 198.976 393.621 198.284 394.313 197.73C395.697 196.484 397.082 195.239 398.604 194.27C397.358 195.515 396.112 196.9 394.867 198.284C393.759 199.668 392.375 201.053 391.683 202.576C390.99 204.098 390.575 205.898 390.575 207.559C390.714 208.39 390.714 209.22 391.129 210.051C391.406 210.882 391.959 211.712 392.375 212.543Z" fill="#75819C"/>
</g>
</svg>
