<svg width="900" height="500" viewBox="0 0 900 500" fill="none" xmlns="http://www.w3.org/2000/svg">
<path opacity="0.33" d="M512.283 419.258C501.388 408.582 492.069 399.592 484.471 392.287C473.432 381.611 467.841 376.273 466.407 375.009C458.952 368.828 453.934 366.018 448.343 358.573C446.336 356.045 443.469 352.252 441.462 346.493C439.598 341.435 439.311 337.783 438.594 328.793C437.734 318.819 437.304 313.762 436.874 309.267C435.584 297.046 434.724 290.162 432.143 281.172C430.853 276.958 429.849 274.289 428.989 269.091C428.272 264.877 427.412 259.82 428.559 253.779C429.132 250.83 429.706 249.987 431.283 244.649C433.003 238.889 434.15 234.113 434.867 231.023C434.007 228.494 433.003 224.982 432 220.628C431.139 217.256 430.566 214.868 430.136 211.778C429.706 208.687 429.276 204.192 429.419 198.714C430.566 198.433 431.569 198.011 432.716 197.73C433.863 197.309 435.727 196.606 438.021 196.185C439.885 195.904 446.193 194.78 451.354 198.011C452.501 198.714 452.787 199.275 455.511 202.366C462.679 210.654 462.536 209.811 464.113 212.059C468.988 218.661 470.564 225.263 471.425 229.056C472.715 234.535 472.715 238.889 472.858 243.806C472.858 248.582 472.572 252.515 472.285 255.465C471.855 256.449 471.425 257.572 470.851 258.556C471.281 259.398 471.711 260.241 472.141 261.084C473.002 262.208 473.862 263.472 474.722 264.877C477.589 269.794 478.163 274.57 478.306 277.66C478.306 281.593 479.166 284.262 479.883 285.948C480.457 287.212 481.03 288.055 484.614 293.253C486.048 295.219 487.195 296.905 488.055 298.169C488.485 295.641 489.058 291.848 489.489 287.353C489.919 282.717 490.062 277.098 489.202 263.472C488.772 256.589 488.485 250.97 487.625 242.682C485.904 226.668 484.471 221.189 483.037 210.654C481.03 194.921 480.17 185.649 481.604 173.99C481.89 171.181 482.607 167.107 483.181 160.224C483.897 151.795 483.754 149.407 484.327 142.524C485.188 130.864 485.618 124.965 487.912 118.081C490.205 110.777 492.643 103.332 499.667 100.101C504.112 97.9935 508.556 98.4149 509.273 98.5554C514.864 99.2578 518.448 102.489 519.452 103.472C522.606 106.422 523.896 109.653 524.613 111.9C526.046 115.974 526.476 119.767 526.046 127.353C525.473 136.343 524.613 137.888 524.039 144.771C523.179 154.324 524.039 161.769 524.613 166.124C525.616 174.131 526.476 174.692 529.057 187.757C530.204 193.656 530.921 198.573 532.354 208.406C533.358 215.43 534.648 224.561 535.938 235.518C537.515 235.518 539.092 235.377 540.669 235.377C539.809 229.899 538.519 222.173 537.085 212.621C534.792 197.59 533.645 190.004 533.071 180.592C532.211 167.809 531.781 159.943 533.645 151.795C534.075 150.109 534.935 146.457 535.508 141.26C536.225 135.36 535.652 134.798 536.225 129.179C537.085 120.048 539.379 114.289 539.953 112.743C541.53 108.81 542.533 106.281 545.114 103.753C546.404 102.348 549.988 98.9768 555.723 98.134C561.314 97.4316 565.615 99.6792 566.905 100.522C571.493 103.051 573.643 106.843 574.36 108.248C575.937 111.058 576.224 113.446 576.797 116.817C577.514 121.874 577.371 125.807 577.227 127.212C576.941 133.814 577.371 140.417 577.371 146.879C577.227 159.24 578.804 170.338 580.955 185.93C582.245 195.764 584.252 207.704 587.263 221.189C589.7 222.032 592.28 222.875 594.718 223.718C596.295 219.785 598.302 213.885 599.449 206.58C600.452 199.697 600.309 194.499 599.879 185.649C599.305 173.288 597.872 164.016 597.442 161.769C595.865 151.936 594.718 145.333 591.85 136.624C590.56 132.691 588.696 127.774 587.836 120.61C587.263 115.272 587.549 111.76 588.84 108.529C589.7 106.281 590.99 102.91 594.431 100.803C600.596 97.1506 608.337 101.084 609.054 101.505C612.208 103.191 613.785 105.439 617.082 109.793C620.953 114.991 623.247 119.627 623.964 121.172C625.828 124.965 626.401 126.931 630.989 142.243C634.573 154.043 636.437 159.943 637.01 161.347C637.727 162.893 639.017 165.843 640.021 170.057C641.024 174.131 641.168 177.221 641.168 179.047C641.598 191.83 641.741 198.292 641.598 202.787C641.311 211.216 640.594 222.594 638.874 236.642C639.734 236.782 640.881 237.063 642.314 237.063C643.748 237.063 645.468 236.923 647.189 236.22C649.483 235.377 651.06 234.113 653.353 231.865C658.371 226.949 661.238 222.173 661.525 221.751C663.962 217.818 667.977 212.34 674.285 205.878C676.292 201.523 678.586 196.887 681.166 192.111C684.033 186.773 687.044 181.857 689.911 177.361C689.911 175.957 689.911 173.85 690.055 171.181C690.341 163.174 690.341 159.24 690.915 156.431C691.632 153.2 693.065 145.895 699.23 140.979C701.094 139.433 706.398 135.079 713.566 136.062C719.874 136.905 723.602 141.4 724.462 142.664C724.605 146.457 724.605 150.39 724.749 154.324C724.892 161.066 724.892 167.809 724.749 174.412C724.462 176.238 724.175 178.064 723.889 179.89C720.878 193.516 713.423 215.149 708.405 226.949C705.538 233.692 700.664 244.227 694.929 253.499C693.209 256.168 691.918 258.275 691.918 258.275C686.614 266.141 684.32 268.108 681.309 273.024C678.299 277.941 676.722 282.296 676.148 284.122C672.994 293.815 675.432 296.624 671.991 305.334C671.417 306.879 670.27 309.407 669.554 313.2C668.98 316.431 668.98 318.819 668.98 320.364C668.98 331.181 669.697 336.659 669.697 344.807C669.697 346.633 669.554 349.162 669.267 354.219C668.693 363.63 668.407 368.407 667.69 373.885C666.543 382.454 665.683 382.173 665.109 388.775C664.679 393.411 664.249 398.047 665.396 403.947C666.113 407.599 667.546 413.218 671.704 419.68C618.229 419.399 565.328 419.258 512.283 419.258Z" fill="#E0E1E2"/>
<path d="M512.283 419.258C501.388 408.582 492.069 399.592 484.471 392.287C473.432 381.611 467.841 376.273 466.407 375.009C458.952 368.828 453.934 366.018 448.343 358.573C446.336 356.045 443.469 352.252 441.462 346.493C439.598 341.435 439.311 337.783 438.594 328.793C437.734 318.819 437.304 313.762 436.874 309.267C435.584 297.046 434.724 290.162 432.143 281.172C430.853 276.958 429.849 274.289 428.989 269.091C428.272 264.877 427.412 259.82 428.559 253.779C429.132 250.83 429.706 249.987 431.283 244.649C433.003 238.889 434.15 234.113 434.867 231.023C434.007 228.494 433.003 224.982 432 220.628C431.139 217.256 430.566 214.868 430.136 211.778C429.706 208.687 429.276 204.192 429.419 198.714C430.566 198.433 431.569 198.011 432.716 197.73C433.863 197.309 435.727 196.606 438.021 196.185C439.885 195.904 446.193 194.78 451.354 198.011C452.501 198.714 452.787 199.275 455.511 202.366C462.679 210.654 462.536 209.811 464.113 212.059C468.988 218.661 470.564 225.263 471.425 229.056C472.715 234.535 472.715 238.889 472.858 243.806C472.858 248.582 472.572 252.515 472.285 255.465C471.855 256.449 471.425 257.572 470.851 258.556C471.281 259.398 471.711 260.241 472.141 261.084C473.002 262.208 473.862 263.472 474.722 264.877C477.589 269.794 478.163 274.57 478.306 277.66C478.306 281.593 479.166 284.262 479.883 285.948C480.457 287.212 481.03 288.055 484.614 293.253C486.048 295.219 487.195 296.905 488.055 298.169C488.485 295.641 489.058 291.848 489.489 287.353C489.919 282.717 490.062 277.098 489.202 263.472C488.772 256.589 488.485 250.97 487.625 242.682C485.904 226.668 484.471 221.189 483.037 210.654C481.03 194.921 480.17 185.649 481.604 173.99C481.89 171.181 482.607 167.107 483.181 160.224C483.897 151.795 483.754 149.407 484.327 142.524C485.188 130.864 485.618 124.965 487.912 118.081C490.205 110.777 492.643 103.332 499.667 100.101C504.112 97.9935 508.556 98.4149 509.273 98.5554C514.864 99.2578 518.448 102.489 519.452 103.472C522.606 106.422 523.896 109.653 524.613 111.9C526.046 115.974 526.476 119.767 526.046 127.353C525.473 136.343 524.613 137.888 524.039 144.771C523.179 154.324 524.039 161.769 524.613 166.124C525.616 174.131 526.476 174.692 529.057 187.757C530.204 193.656 530.921 198.573 532.354 208.406C533.358 215.43 534.648 224.561 535.938 235.518C537.515 235.518 539.092 235.377 540.669 235.377C539.809 229.899 538.519 222.173 537.085 212.621C534.792 197.59 533.645 190.004 533.071 180.592C532.211 167.809 531.781 159.943 533.645 151.795C534.075 150.109 534.935 146.457 535.508 141.26C536.225 135.36 535.652 134.798 536.225 129.179C537.085 120.048 539.379 114.289 539.953 112.743C541.53 108.81 542.533 106.281 545.114 103.753C546.404 102.348 549.988 98.9768 555.723 98.134C561.314 97.4316 565.615 99.6792 566.905 100.522C571.493 103.051 573.643 106.843 574.36 108.248C575.937 111.058 576.224 113.446 576.797 116.817C577.514 121.874 577.371 125.807 577.227 127.212C576.941 133.814 577.371 140.417 577.371 146.879C577.227 159.24 578.804 170.338 580.955 185.93C582.245 195.764 584.252 207.704 587.263 221.189C589.7 222.032 592.28 222.875 594.718 223.718C596.295 219.785 598.302 213.885 599.449 206.58C600.452 199.697 600.309 194.499 599.879 185.649C599.305 173.288 597.872 164.016 597.442 161.769C595.865 151.936 594.718 145.333 591.85 136.624C590.56 132.691 588.696 127.774 587.836 120.61C587.263 115.272 587.549 111.76 588.84 108.529C589.7 106.281 590.99 102.91 594.431 100.803C600.596 97.1506 608.337 101.084 609.054 101.505C612.208 103.191 613.785 105.439 617.082 109.793C620.953 114.991 623.247 119.627 623.964 121.172C625.828 124.965 626.401 126.931 630.989 142.243C634.573 154.043 636.436 159.943 637.01 161.347C637.727 162.893 639.017 165.843 640.021 170.057C641.024 174.131 641.168 177.221 641.168 179.047C641.598 191.83 641.741 198.292 641.598 202.787C641.311 211.216 640.594 222.594 638.874 236.642C639.734 236.782 640.881 237.063 642.314 237.063" stroke="#75819C" stroke-width="2" stroke-miterlimit="10"/>
<path d="M681.167 272.744C678.156 277.661 676.579 282.015 676.006 283.842C672.852 293.534 675.289 296.344 671.848 305.053C671.275 306.598 670.128 309.127 669.411 312.92C668.838 316.151 668.838 318.539 668.838 320.084C668.838 330.901 669.554 336.379 669.554 344.527C669.554 346.353 669.411 348.881 669.124 353.938C668.551 363.35 668.264 368.126 667.547 373.605C666.4 382.174 665.54 381.893 664.967 388.495C664.537 393.131 664.107 397.766 665.254 403.666C665.97 407.319 667.404 412.937 671.562 419.399" stroke="#75819C" stroke-width="2" stroke-miterlimit="10"/>
<path d="M642.458 236.783C643.892 236.783 645.612 236.642 647.332 235.94C649.626 235.097 651.203 233.833 653.497 231.585C658.515 226.669 661.382 221.892 661.669 221.471C664.106 217.538 668.12 212.059 674.428 205.597C676.435 201.243 678.729 196.607 681.31 191.831C684.177 186.493 687.188 181.576 690.055 177.081C690.055 175.676 690.055 173.569 690.198 170.9C690.485 162.893 690.485 158.96 691.058 156.15C691.775 152.92 693.209 145.615 699.373 140.698C701.237 139.153 706.542 134.798 713.71 135.782C720.018 136.625 723.745 141.12 724.606 142.384C724.749 146.177 724.749 150.11 724.892 154.043C725.036 160.786 725.036 167.529 724.892 174.131C724.606 175.957 724.319 177.783 724.032 179.61C721.021 193.236 713.567 214.869 708.549 226.669C705.681 233.411 700.807 243.947 695.073 253.218C693.352 255.887 692.062 257.994 692.062 257.994C686.757 265.861 684.464 267.828 681.453 272.744" stroke="#F69AED" stroke-width="3" stroke-miterlimit="10" stroke-linecap="round"/>
<g opacity="0.5">
<path d="M708.119 141.119C708.119 143.507 708.119 146.036 708.119 148.424C708.262 150.812 708.405 153.2 708.835 155.588C708.979 156.15 709.122 156.712 709.266 157.274C709.409 157.836 709.552 158.257 709.982 158.678C710.699 159.521 711.703 160.083 712.706 160.645C714.857 161.769 717.151 162.471 719.588 162.752C717.151 163.033 714.57 162.612 712.133 161.628C710.986 161.207 709.839 160.505 708.835 159.521C708.405 159.1 707.975 158.257 707.832 157.695C707.689 157.133 707.545 156.431 707.402 155.869C706.972 153.481 706.828 150.952 706.972 148.564C707.115 145.895 707.545 143.367 708.119 141.119Z" fill="#75819C"/>
</g>
<g opacity="0.5">
<path d="M439.024 228.214C440.027 227.371 440.601 226.388 440.887 225.264C441.174 224.14 441.174 223.016 441.174 221.893C441.174 220.769 441.031 219.505 440.887 218.381L440.6 214.869C440.457 212.481 440.314 210.093 439.74 207.845C439.454 206.721 439.167 205.598 438.593 204.474C438.163 203.491 437.447 202.507 436.156 201.945C437.447 202.086 438.45 203.069 439.167 204.052C439.884 205.176 440.314 206.3 440.744 207.424C441.461 209.812 441.747 212.2 441.891 214.588C442.034 216.976 442.321 219.364 442.178 221.893C442.178 223.157 441.891 224.421 441.461 225.545C441.031 226.669 440.17 227.652 439.024 228.214Z" fill="#75819C"/>
</g>
<path opacity="0.33" d="M410.902 199.204C411.594 194.913 419.206 177.75 417.407 169.445C414.362 165.016 393.6 162.663 380.451 185.501C367.441 208.339 367.441 214.014 369.655 225.502C366.887 225.917 358.582 248.755 356.921 254.153C354.153 255.675 350.693 263.98 349.447 264.395C348.201 264.81 345.156 261.073 346.125 241.419C347.094 221.765 349.032 215.813 349.17 210.692C349.309 205.571 355.399 178.857 359.136 165.016C362.873 151.175 363.704 132.628 366.887 120.448C370.07 108.406 371.731 83.3535 366.887 69.6508C362.043 55.9481 348.894 57.609 346.541 58.7163C344.049 59.8236 338.928 64.1143 335.883 72.8342C332.838 81.4157 331.869 90.274 331.039 101.209C329.101 96.9178 325.779 96.0873 325.779 96.0873C325.779 96.0873 322.734 87.229 312.076 88.7515C301.419 90.274 298.235 97.6098 298.235 97.6098C298.235 97.6098 296.851 98.1635 296.02 98.9939C295.744 99.2707 295.19 99.4092 294.775 99.1323C292.007 97.4714 284.256 95.6721 278.996 97.6098C273.183 99.8244 269.584 103.838 269.584 103.838C269.584 103.838 264.324 103.423 259.342 105.638C254.497 107.991 252.559 110.205 252.559 110.205C252.559 110.205 250.622 106.745 248.684 105.084C249.376 102.869 244.255 98.1634 238.303 101.624C232.49 105.084 228.061 108.96 225.846 110.067C223.493 111.174 208.683 116.295 205.5 119.34C202.316 122.524 195.949 132.074 191.658 137.334C187.368 142.455 187.921 147.161 181.139 156.435C174.357 165.708 175.741 182.456 174.219 188.823C172.835 195.328 177.125 218.166 172.835 228.547C168.544 239.066 172.419 267.856 172.835 279.62C173.388 291.524 178.925 330.279 174.08 352.425C169.236 374.571 141 418.447 141 418.447H288.962C296.713 408.758 303.91 393.118 315.536 384.813C327.163 376.37 345.572 357.546 353.876 348.826C362.181 340.106 376.161 325.573 384.05 319.621C392.078 313.67 393.047 301.628 396.23 283.911C399.414 266.195 411.179 236.713 411.179 233.945C411.179 231.177 409.794 232.422 409.794 230.9C409.794 229.516 412.009 228.824 412.009 226.055C412.147 223.841 410.21 203.633 410.902 199.204ZM304.74 174.29C302.111 179.411 300.726 179.549 300.726 179.549C300.45 175.12 300.865 168.615 300.726 166.4C302.111 164.324 308.062 146.884 308.062 143.424C310.692 142.593 320.658 134.012 322.595 129.721C321.488 132.213 307.232 169.445 304.74 174.29Z" fill="#E0E1E2"/>
<path d="M289.099 418.999C296.85 409.31 304.048 393.67 315.674 385.365C327.301 376.922 345.709 358.098 354.014 349.378C362.319 340.658 376.298 326.125 384.188 320.173C392.215 314.222 393.184 302.18 396.368 284.463C399.551 266.747 411.316 237.265 411.316 234.497C411.316 231.729 409.932 232.974 409.932 231.452C409.932 230.068 412.147 229.376 412.147 226.607C412.147 223.839 410.209 203.631 411.039 199.34C411.87 195.05 419.344 177.887 417.545 169.582C414.5 165.153 393.738 162.8 380.589 185.638C367.578 208.475 367.578 214.15 369.793 225.638C367.025 226.054 358.72 248.892 357.059 254.29C354.291 255.812 350.831 264.117 349.585 264.532C348.339 264.947 345.294 261.21 346.263 241.556C347.232 221.901 349.17 215.95 349.308 210.828C349.446 205.707 355.537 178.994 359.274 165.153C363.011 151.312 363.841 132.765 367.025 120.584C370.208 108.543 371.869 83.4902 367.025 69.7875C362.18 56.0848 349.031 57.7457 346.678 58.853C344.187 59.9603 339.066 64.251 336.021 72.9709C332.976 81.5524 332.007 90.4107 331.176 101.345C329.238 97.0545 325.917 96.224 325.917 96.224C325.917 96.224 322.872 87.3657 312.214 88.8882C301.556 90.4107 298.373 97.7465 298.373 97.7465C298.373 97.7465 296.989 98.3002 296.158 99.1307C295.881 99.4075 295.328 99.5459 294.912 99.2691C292.144 97.6081 284.393 95.8088 279.134 97.7465C273.32 99.9611 269.722 103.975 269.722 103.975C269.722 103.975 264.462 103.56 259.479 105.774C254.635 108.127 252.697 110.342 252.697 110.342C252.697 110.342 250.759 106.882 248.822 105.221C249.514 103.006 244.392 98.3002 238.441 101.76C232.627 105.221 228.198 109.096 225.984 110.204C223.631 111.311 208.821 116.432 205.637 119.477C202.454 122.661 196.087 132.211 191.796 137.471C187.505 142.592 188.059 147.298 181.277 156.571C174.495 165.845 175.879 182.593 174.356 188.959C172.972 195.465 177.263 218.303 172.972 228.683C168.682 239.203 172.557 267.992 172.972 279.757C173.526 291.661 179.062 330.416 174.218 352.561C169.374 374.707 141.138 418.584 141.138 418.584M304.74 174.288C302.11 179.409 301.695 179.548 301.695 179.548C301.418 175.118 300.864 168.613 300.726 166.398C302.11 164.322 308.062 146.883 308.062 143.422C310.691 142.592 320.657 134.01 322.595 129.72C321.487 132.211 307.231 169.444 304.74 174.288Z" stroke="#75819C" stroke-width="2" stroke-miterlimit="10"/>
<path d="M203.977 186.469C203.977 178.164 205.776 144.392 211.728 134.288C216.157 126.814 228.06 126.121 229.306 123.768C230.552 121.415 242.455 115.049 252.559 110.758" stroke="#75819C" stroke-width="2" stroke-miterlimit="10"/>
<path d="M228.199 213.737C231.244 211.107 240.103 203.494 242.04 198.788C243.978 193.944 251.037 154.497 252.56 141.901C254.082 129.306 260.726 111.728 277.335 112.281C280.795 109.513 287.162 107.022 290.207 107.022C291.453 104.807 295.052 98.5788 298.374 97.8867" stroke="#75819C" stroke-width="2" stroke-miterlimit="10"/>
<path d="M301.695 179.687C301.419 175.258 300.865 168.753 300.727 166.538C302.111 164.462 308.062 147.022 308.062 143.562C310.692 142.731 320.796 134.15 322.596 129.721C322.596 129.721 307.509 169.168 304.879 174.289C302.111 179.41 301.695 179.687 301.695 179.687Z" stroke="#75819C" stroke-width="2" stroke-miterlimit="10"/>
<path d="M288.407 216.368C292.283 212.908 294.22 212.077 296.297 208.617C299.065 203.911 301.141 180.104 304.74 174.291C308.338 168.478 313.875 149.1 322.041 130.692C330.207 112.283 330.761 104.947 331.038 101.348C331.868 90.4139 332.837 81.5556 335.882 72.9741C338.927 64.3927 344.049 60.1019 346.54 58.8562C349.031 57.7489 362.042 55.9496 366.886 69.7907C371.731 83.6318 370.07 108.546 366.886 120.588C363.703 132.629 362.872 151.315 359.135 165.156C355.398 178.997 349.308 205.572 349.17 210.832" stroke="#F69AED" stroke-width="3" stroke-miterlimit="10" stroke-linecap="round"/>
<g opacity="0.5">
<path d="M360.935 66.3281C360.797 69.65 360.243 73.1103 358.859 76.1553C358.167 77.6778 357.198 79.2004 355.814 80.4461C355.399 80.7229 355.122 80.9997 354.707 81.1381C354.292 81.2765 353.876 81.5533 353.461 81.6918C352.631 81.9686 351.8 82.107 350.97 82.3838C347.648 82.9375 344.049 83.0759 340.727 81.6918C339.897 81.2765 339.066 80.8613 338.513 80.0308C338.097 79.2004 337.959 78.2315 337.959 77.401C337.959 75.6017 338.374 73.9407 338.928 72.4182C338.651 74.0792 338.374 75.7401 338.651 77.401C338.789 78.2315 338.928 78.9235 339.343 79.6156C339.758 80.1692 340.45 80.5845 341.142 80.8613C344.187 81.8302 347.509 81.6918 350.693 81.1381C351.523 80.9997 352.215 80.8613 353.046 80.5845C353.461 80.4461 353.738 80.3076 354.153 80.1692C354.43 80.0308 354.845 79.754 355.122 79.6156C356.368 78.6467 357.198 77.401 358.029 75.8785C358.859 74.4944 359.413 72.8334 359.828 71.3109C360.243 69.5116 360.658 67.9891 360.935 66.3281Z" fill="#75819C"/>
</g>
<g opacity="0.5">
<path d="M411.179 170C408.688 171.523 406.335 173.46 404.536 175.813C402.736 178.166 401.491 180.796 400.66 183.564C400.245 184.948 399.968 186.333 399.968 187.717C399.968 189.101 400.245 190.485 400.799 191.869C401.352 193.115 402.183 194.36 403.152 195.468C404.12 196.575 405.366 197.405 406.612 198.236C403.844 197.129 401.352 195.191 399.83 192.423C399.138 191.038 398.722 189.516 398.584 187.855C398.584 186.333 398.861 184.672 399.276 183.287C400.107 180.381 401.491 177.613 403.567 175.26C404.536 174.152 405.781 173.045 407.027 172.215C408.411 171.246 409.657 170.554 411.179 170Z" fill="#75819C"/>
</g>
</svg>
