<svg width="900" height="500" viewBox="0 0 900 500" fill="none" xmlns="http://www.w3.org/2000/svg">
<path opacity="0.33" d="M327.41 430.327C329.284 428.02 337.356 419.659 346.15 410.865C354.943 402.072 372.963 371.078 378.297 364.88C383.631 358.681 397.758 343.4 401.218 335.76C404.677 328.12 400.929 303.613 401.218 295.973C401.506 288.333 405.11 251.861 402.659 242.347C400.209 232.832 396.316 228.94 393.145 222.309C389.973 215.678 389.397 213.66 386.514 211.641C383.631 209.623 385.36 192.324 385.937 189.874C386.514 187.423 388.532 176.323 388.532 172.431C388.532 168.539 388.532 157.439 391.559 149.222C394.586 141.005 392.568 116.354 387.379 108.57C382.189 100.785 378.008 98.9111 371.81 98.4786C365.611 98.0461 358.836 104.101 357.106 107.849C355.376 111.597 353.069 115.057 350.475 145.618C346.871 153.835 339.951 161.042 336.924 170.989C333.897 180.936 325.824 206.019 323.95 216.398C322.076 226.778 311.408 240.905 315.733 233.265C320.058 225.769 319.625 207.317 327.698 182.81C335.771 158.303 334.762 159.889 334.762 158.592C334.762 157.294 339.519 152.826 341.104 142.158C344.132 137.257 350.042 112.894 339.086 105.831C338.942 100.785 335.627 97.3254 326.545 95.8838C317.463 94.4422 314.147 96.7487 312.129 102.371C308.813 103.236 303.768 115.489 302.903 125.58C300.452 127.022 288.632 138.987 286.325 143.455C284.019 147.924 277.532 170.413 276.234 176.179C274.937 181.945 266.576 217.984 264.269 221.3C261.963 224.615 260.954 226.922 262.828 219.858C264.702 212.795 273.351 170.268 277.099 162.628C280.847 154.988 281.28 148.645 291.659 133.797C302.038 118.949 300.597 111.741 298.723 106.984C296.848 102.227 295.407 98.1903 286.613 96.7487C277.82 95.3072 272.774 102.659 272.774 102.659C272.774 102.659 267.441 104.245 254.611 118.084C251.872 112.75 248.124 108.714 248.124 108.714C248.124 108.714 245.385 102.947 237.6 101.794C229.816 100.641 226.644 109.002 226.212 112.029C223.617 112.029 218.283 123.994 216.409 135.959C214.535 148.068 211.508 165.367 208.336 175.602C205.165 185.837 203.147 194.343 202.426 201.839C201.705 209.335 197.669 219.858 196.948 229.661C196.227 239.464 184.839 267.574 184.262 276.512C183.542 285.449 183.974 316.011 183.109 323.074C182.244 330.138 180.947 353.924 183.109 367.619C185.271 381.169 184.262 393.711 181.956 400.486C179.649 407.261 171 429.75 171 429.75H327.41V430.327Z" fill="#E0E1E2"/>
<path d="M327.41 430.327C329.284 428.02 337.356 419.659 346.15 410.865C354.943 402.072 372.963 371.078 378.297 364.88C383.631 358.681 397.758 343.4 401.218 335.76C404.677 328.12 400.929 303.613 401.218 295.973C401.506 288.333 405.11 251.861 402.659 242.347C400.209 232.832 396.316 228.94 393.145 222.309C389.973 215.678 389.397 213.66 386.514 211.641C383.631 209.623 385.36 192.324 385.937 189.874C386.514 187.423 388.532 176.323 388.532 172.431C388.532 168.539 388.532 157.439 391.559 149.222C394.586 141.005 392.568 116.354 387.379 108.57C382.189 100.785 378.008 98.9111 371.81 98.4786C365.611 98.0461 358.836 104.101 357.106 107.849C355.376 111.597 353.069 115.057 350.475 145.618C346.871 153.835 339.951 161.042 336.924 170.989C333.897 180.936 325.824 206.019 323.95 216.398C322.076 226.778 311.408 240.905 315.733 233.265C320.058 225.769 319.625 207.317 327.698 182.81C335.771 158.303 334.762 159.889 334.762 158.592C334.762 157.294 339.519 152.826 341.104 142.158C344.132 137.257 350.042 112.894 339.086 105.831C338.942 100.785 335.627 97.3254 326.545 95.8838C317.463 94.4422 314.147 96.7487 312.129 102.371C308.813 103.236 303.768 115.489 302.903 125.58C300.452 127.022 288.632 138.987 286.325 143.455C284.019 147.924 277.532 170.413 276.234 176.179C274.937 181.945 266.576 217.984 264.269 221.3C261.963 224.615 260.954 226.922 262.828 219.858C264.702 212.795 273.351 170.268 277.099 162.628C280.847 154.988 281.28 148.645 291.659 133.797C302.038 118.949 300.597 111.741 298.723 106.984C296.848 102.227 295.407 98.1903 286.613 96.7487C277.82 95.3072 272.774 102.659 272.774 102.659C272.774 102.659 267.441 104.245 254.611 118.084C251.872 112.75 248.124 108.714 248.124 108.714C248.124 108.714 245.385 102.947 237.6 101.794C229.816 100.641 226.644 109.002 226.212 112.029C223.617 112.029 218.283 123.994 216.409 135.959C214.535 148.068 211.508 165.367 208.336 175.602C205.165 185.837 203.147 194.343 202.426 201.839C201.705 209.335 197.669 219.858 196.948 229.661C196.227 239.464 184.839 267.574 184.262 276.512C183.542 285.449 183.974 316.011 183.109 323.074C182.244 330.138 180.947 353.924 183.109 367.619C185.271 381.169 184.262 393.711 181.956 400.486C179.649 407.261 171 429.75 171 429.75" stroke="#75819C" stroke-width="2" stroke-miterlimit="10"/>
<path d="M212.805 225.912C216.841 221.588 220.157 214.957 220.445 208.037C220.733 201.118 220.012 165.223 229.094 151.528C238.176 137.833 254.754 118.66 254.754 118.66" stroke="#75819C" stroke-width="2" stroke-miterlimit="10"/>
<path d="M373.827 309.957C371.809 306.208 369.358 303.758 369.358 300.875C369.358 297.992 370.944 264.98 372.674 253.159C374.26 241.338 382.332 207.173 385.071 200.109" stroke="#75819C" stroke-width="2" stroke-miterlimit="10"/>
<path opacity="0.33" d="M542.542 428.724C540.975 425.304 538.552 419.177 535.132 414.76C531.57 410.343 528.008 406.923 525.016 404.644C525.016 404.644 519.887 399.942 510.34 390.537C505.353 385.693 505.922 385.977 495.094 374.863C480.703 360.187 481.415 361.327 476.428 355.913C470.444 349.359 468.877 347.079 463.462 341.807C456.48 335.11 454.199 332.972 454.199 332.972C450.068 329.126 449.213 328.697 447.788 326.703C444.511 322.286 443.229 317.869 442.658 315.589C441.661 311.457 441.946 310.032 441.518 303.478C441.376 302.48 440.949 296.496 439.809 289.941C438.669 283.814 437.244 275.55 433.539 267.571C432.97 266.146 431.687 263.582 430.69 259.734C429.977 256.599 429.692 253.892 429.55 252.039C428.267 250.188 427.697 248.477 427.27 247.48C426.985 246.482 426.985 246.198 426.13 241.353C425.702 238.361 425.702 238.503 425.56 237.649C425.418 236.652 424.991 233.944 424.991 231.806C424.847 229.099 425.275 227.104 425.702 224.54C426.842 217.272 427.555 211.004 427.697 207.442C427.84 204.591 427.982 202.169 427.982 200.317C426.558 195.472 425.275 191.483 424.278 188.775C422.853 184.643 421.856 182.078 421.285 178.232C421 175.666 421 173.672 421 172.104C421.571 171.677 422.14 171.25 422.995 170.822C423.565 170.537 424.135 170.252 424.562 170.11C425.56 169.397 426.842 168.684 428.695 167.973C432.542 166.547 435.961 166.975 437.387 167.118C442.943 167.687 446.933 170.537 449.783 172.675C456.48 177.519 459.9 183.361 462.464 187.635C465.314 192.623 466.882 196.755 468.306 201.029C469.731 205.162 470.871 209.151 471.583 213.426C472.296 218.128 472.296 220.55 472.011 222.26C471.726 225.109 471.013 227.247 470.301 228.815C471.013 229.669 472.011 230.809 473.15 232.519C474.576 234.799 475.003 236.081 477.425 242.636C479.136 247.338 479.136 247.338 480.275 250.33C481.273 253.037 481.985 255.317 482.555 257.169C482.555 253.322 482.413 247.908 482.27 241.638C482.127 234.941 481.842 227.96 481.273 220.55C480.703 214.281 480.275 211.288 477.425 192.908C476.712 187.778 475.43 179.514 473.863 168.97C473.579 167.83 473.293 166.12 473.293 164.125C473.15 160.563 474.006 157.714 474.718 155.291C476.856 148.451 479.563 142.04 480.987 138.763C480.987 136.91 481.273 134.346 481.985 131.495C482.27 130.355 482.555 128.646 483.409 126.793C484.122 124.798 485.547 121.949 487.969 118.957C488.539 117.674 489.395 116.107 490.534 114.397C491.959 112.402 493.954 109.553 497.658 107.415C502.788 104.565 507.775 104.993 509.628 105.278C512.05 105.563 514.045 106.133 515.47 106.703C514.472 100.291 514.045 94.8764 513.903 90.8868C513.759 85.4723 513.617 81.3401 514.614 76.0681C515.327 72.5059 516.039 68.6588 518.604 64.3842C520.171 61.6769 522.309 58.2572 526.441 56.1199C530.573 54.1251 534.563 54.5525 535.988 54.6951C542.827 55.5499 546.959 59.967 548.384 61.5344C551.946 65.3815 553.228 69.5137 553.941 71.651C554.796 74.3582 555.081 76.638 555.223 78.3479C555.794 80.7702 556.363 83.4774 556.791 86.1847C557.503 90.7443 557.788 94.8764 557.931 98.7236C558.785 101.858 559.64 104.851 560.496 107.985C561.778 112.688 563.06 117.39 564.342 122.092C566.053 127.506 567.762 133.206 569.33 139.19C570.184 142.467 570.897 145.744 571.61 148.879C573.461 157.001 574.601 163.413 575.314 167.83C575.741 170.395 576.454 175.239 577.879 181.794C578.449 184.216 578.876 186.068 579.304 187.493C579.589 183.503 579.874 177.804 580.016 170.68C580.158 164.267 580.158 160.99 579.874 157.57C579.304 151.586 578.734 144.32 575.172 136.197C573.889 133.49 573.034 132.066 570.47 126.081C569.188 122.947 567.904 118.957 567.62 115.964C567.192 112.83 568.048 109.98 569.615 108.271C570.327 107.415 570.612 101.431 578.734 98.4386C584.575 96.3013 595.832 96.8712 609.084 116.392C609.796 117.532 609.939 118.672 610.223 119.385C610.794 120.239 611.648 121.379 612.646 122.804C615.353 126.651 617.205 129.358 619.2 132.351C621.622 136.341 623.475 139.475 625.042 144.177C625.897 147.027 626.324 149.164 626.752 152.157C627.322 155.719 627.892 160.705 627.892 166.833C627.75 174.099 627.606 181.367 627.322 188.775C627.179 193.193 627.037 197.61 626.752 201.885C627.606 188.491 628.462 175.097 629.317 161.703C629.744 157.001 629.744 151.586 628.89 145.46C628.604 143.18 628.177 141.185 627.75 139.19C626.895 137.765 625.612 135.485 624.187 132.778C620.34 124.941 618.487 119.385 618.631 113.97C618.773 108.128 621.195 104.851 621.622 104.28C621.907 103.711 622.193 103.283 622.477 102.856C622.762 102.143 623.19 101.146 623.902 100.006C624.187 99.7209 626.039 97.0137 629.174 96.1588C633.021 95.0189 636.441 97.0137 638.863 98.2961C641.571 99.8635 643.423 101.858 646.985 105.847C650.119 109.41 652.4 112.544 653.967 114.682C655.962 117.532 657.956 120.525 659.809 124.229C661.234 127.364 661.662 129.216 663.656 136.341C667.076 149.164 666.791 147.169 668.501 154.151C670.638 162.558 671.778 166.833 672.063 169.967C672.348 172.817 672.776 175.666 671.492 188.348C669.356 212.143 667.788 212.713 668.359 222.118C668.643 226.677 669.07 227.817 670.068 238.931C670.923 249.333 670.923 252.61 670.923 253.75C670.923 255.174 670.781 261.729 669.498 269.993C668.786 274.552 668.501 274.981 668.073 278.543C667.503 283.529 667.788 286.095 667.788 291.651C667.788 298.918 667.788 303.762 667.075 309.604C666.221 316.729 665.651 316.729 664.511 324.28C656.389 376.431 683.889 417.467 688.592 428.724C640.288 428.866 591.415 428.724 542.542 428.724Z" fill="#E0E1E2"/>
<g opacity="0.5">
<path d="M521.169 68.0879C521.454 69.3703 522.024 70.6527 522.879 71.5076C523.307 71.9351 523.876 72.2201 524.447 72.3625C525.016 72.505 525.586 72.505 526.299 72.505C529.006 72.6475 531.571 72.6475 534.278 72.6475C536.985 72.6475 539.692 72.505 542.258 72.505C543.54 72.505 544.822 72.2201 545.82 71.5076C546.817 70.7952 547.529 69.6553 548.099 68.3729C547.815 69.6553 547.244 70.9376 546.247 72.0775C545.677 72.505 545.107 72.9325 544.395 73.2174C543.682 73.5024 542.969 73.6449 542.258 73.6449C539.55 73.7875 536.843 73.9299 534.135 74.0724C531.428 74.0724 528.721 73.9299 526.014 73.6449L525.016 73.5024C524.589 73.5024 524.304 73.36 523.876 73.2174C523.164 72.9325 522.594 72.505 522.167 71.9351C521.454 70.9376 521.169 69.5128 521.169 68.0879Z" fill="#75819C"/>
</g>
<path d="M542.542 428.724C540.975 425.304 538.552 419.178 535.132 414.76C531.57 410.343 528.008 406.924 525.016 404.644C525.016 404.644 519.887 399.942 510.34 390.538C505.353 385.693 505.922 385.979 495.094 374.864C480.703 360.188 481.415 361.328 476.428 355.913C470.444 349.359 468.877 347.079 463.462 341.807C456.48 335.11 454.199 332.972 454.199 332.972C450.068 329.126 449.213 328.699 447.788 326.704C444.511 322.286 443.229 317.869 442.658 315.589C441.661 311.457 441.946 310.032 441.518 303.478C441.376 302.48 440.949 296.496 439.809 289.941C438.669 283.815 437.244 275.55 433.539 267.571C432.97 266.146 431.687 263.582 430.69 259.734C429.977 256.6 429.692 253.892 429.55 252.041C428.267 250.188 427.697 248.478 427.27 247.481C426.985 246.483 426.985 246.198 426.13 241.354C425.702 238.361 425.702 238.504 425.56 237.649C425.418 236.652 424.991 233.945 424.991 231.807C424.847 229.099 425.275 227.104 425.702 224.54C426.842 217.274 427.555 211.004 427.697 207.442C427.84 204.591 427.982 202.169 427.982 200.318C426.558 195.472 425.275 191.483 424.278 188.775C422.853 184.644 421.856 182.078 421.285 178.232C421 175.667 421 173.672 421 172.105C421.571 171.677 422.14 171.25 422.995 170.822C423.565 170.537 424.135 170.253 424.562 170.11C425.56 169.397 426.842 168.686 428.695 167.973C432.542 166.548 435.961 166.975 437.387 167.118C442.943 167.688 446.933 170.537 449.783 172.675C456.48 177.519 459.9 183.362 462.464 187.636C465.314 192.623 466.882 196.756 468.306 201.029C469.731 205.162 470.871 209.152 471.583 213.426C472.296 218.128 472.296 220.551 472.011 222.26C471.726 225.11 471.013 227.248 470.301 228.815C471.013 229.67 472.011 230.81 473.15 232.519C474.576 234.799 475.003 236.081 477.425 242.636C479.136 247.338 479.136 247.338 480.275 250.33C481.273 253.037 481.985 255.317 482.555 257.17C482.555 253.323 482.413 247.908 482.27 241.638C482.127 234.941 481.842 227.96 481.273 220.551C480.703 214.281 480.275 211.288 477.425 192.908C476.712 187.779 475.43 179.514 473.863 168.97C473.579 167.83 473.293 166.12 473.293 164.126C473.15 160.563 474.006 157.714 474.718 155.292C476.856 148.452 479.563 142.04 480.987 138.763C480.987 136.91 481.273 134.346 481.985 131.496C482.27 130.357 482.555 128.646 483.409 126.794C484.122 124.799 485.547 121.949 487.969 118.957C488.539 117.674 489.395 116.107 490.534 114.397C491.959 112.403 493.954 109.553 497.658 107.415C502.788 104.566 507.775 104.993 509.628 105.278C512.05 105.564 514.045 106.133 515.47 106.704" stroke="#75819C" stroke-width="2" stroke-miterlimit="10"/>
<path d="M579.588 187.351C579.872 183.362 580.157 177.662 580.3 170.537C580.443 164.126 580.443 160.849 580.157 157.429C579.588 151.445 579.017 144.177 575.455 136.056C574.173 133.348 573.318 131.923 570.753 125.939C569.471 122.804 568.189 118.815 567.904 115.823C567.476 112.688 568.331 109.838 569.898 108.128C570.611 107.273 570.896 101.289 579.017 98.2965C584.86 96.1592 596.116 96.7292 609.367 116.25C610.08 117.39 610.222 118.529 610.507 119.242C611.077 120.097 611.932 121.237 612.93 122.662C615.637 126.509 617.489 129.216 619.484 132.208C621.907 136.198 623.758 139.333 625.326 144.035C626.18 146.884 626.609 149.022 627.036 152.014C627.606 155.576 628.176 160.564 628.176 166.69C628.033 173.958 627.891 181.224 627.606 188.634C627.464 193.05 627.32 197.467 627.036 201.742C627.891 188.348 629.744 174.385 630.598 160.991C631.026 156.289 630.883 152.869 630.028 146.884C629.744 144.604 628.603 141.042 628.176 139.048C627.32 137.623 626.038 135.343 624.614 132.636C620.767 124.799 618.914 119.242 619.056 113.828C619.199 107.986 621.621 104.708 622.049 104.139C622.334 103.569 622.618 103.141 622.903 102.713C623.189 102.001 623.616 101.004 624.329 99.8639C624.614 99.579 626.466 96.8717 629.6 96.0168C633.448 94.8769 636.868 96.8717 639.29 98.1541C641.997 99.7214 643.849 101.716 647.411 105.706C650.546 109.268 652.826 112.403 654.393 114.54C656.388 117.39 658.383 120.382 660.236 124.086C661.66 127.221 662.087 129.074 664.082 136.198C667.502 149.022 667.217 147.028 668.927 154.009C671.064 162.416 672.204 166.69 672.489 169.825C672.774 172.674 673.202 175.525 671.919 188.206C669.782 212.001 668.215 212.571 668.784 221.975C669.069 226.535 669.497 227.675 670.495 238.789C671.349 249.19 671.349 252.467 671.349 253.607C671.349 255.033 671.206 261.586 669.924 269.851C669.212 274.411 668.927 274.838 668.5 278.4C667.929 283.388 668.215 285.952 668.215 291.509C668.215 298.776 668.215 303.621 667.502 309.463C666.647 316.587 666.077 316.587 664.938 324.139C656.816 376.289 684.316 417.326 689.018 428.582" stroke="#75819C" stroke-width="2" stroke-miterlimit="10"/>
<path d="M588.137 209.721C582.58 201.884 579.589 187.35 579.589 187.35C579.303 186.068 578.733 184.073 578.163 181.651C576.596 175.096 575.883 170.252 575.598 167.688C574.886 163.271 573.746 157.001 571.894 148.737C571.181 145.602 570.469 142.324 569.614 139.047C568.046 133.063 566.337 127.364 564.627 121.949C563.344 117.247 562.062 112.545 560.78 107.842C559.925 104.708 559.07 101.573 558.215 98.581C558.073 94.7338 557.787 90.6017 557.076 86.0421C556.647 83.1923 556.078 80.6276 555.508 78.2053C555.365 76.4955 555.08 74.2157 554.225 71.5084C553.514 69.2286 552.23 65.0965 548.668 61.3918C547.244 59.8245 543.111 55.4074 536.272 54.5524C534.847 54.41 531.001 53.9825 526.726 55.9773C522.451 58.1146 520.456 61.5343 518.889 64.2415C516.323 68.5162 515.612 72.2208 514.899 75.9255C513.901 81.34 514.044 85.3296 514.187 90.7442C514.329 94.7338 514.614 100.148 515.754 106.56V107.13C516.609 110.835 518.461 116.249 518.034 122.662C517.179 135.77 530.003 193.335 531.285 208.154C531.712 213.425 531.997 217.13 533.137 224.682" stroke="#F69AED" stroke-width="3" stroke-miterlimit="10" stroke-linecap="round"/>
<g opacity="0.5">
<path d="M431.402 200.176C432.542 199.605 433.539 198.466 434.11 197.326C434.252 197.041 434.395 196.756 434.395 196.472C434.537 196.186 434.395 195.901 434.395 195.616C434.395 194.904 434.395 194.334 434.252 193.621C433.968 190.914 433.683 188.349 433.255 185.642C432.828 182.935 432.4 180.37 431.83 177.663C431.688 177.378 431.688 176.95 431.545 176.665C431.402 176.381 431.402 176.238 431.117 175.81C430.833 175.241 430.406 174.813 429.835 174.386C428.838 173.53 427.698 172.819 426.415 172.248C427.698 172.533 429.122 172.961 430.262 173.815C430.833 174.243 431.402 174.67 431.83 175.241C432.115 175.526 432.257 175.953 432.4 176.238C432.542 176.523 432.685 176.95 432.685 177.235C433.539 179.943 433.968 182.507 434.395 185.215C434.823 187.922 435.107 190.629 435.107 193.337C435.107 194.048 435.107 194.761 435.107 195.474C435.107 195.759 435.107 196.186 434.965 196.614C434.823 197.041 434.679 197.326 434.395 197.611C433.968 198.181 433.397 198.608 432.97 199.036C432.685 199.748 432.115 200.176 431.402 200.176Z" fill="#75819C"/>
</g>
</svg>
