<svg width="900" height="500" viewBox="0 0 900 500" fill="none" xmlns="http://www.w3.org/2000/svg">
<path opacity="0.33" d="M512.283 419.258C501.388 408.582 492.069 399.592 484.471 392.287C473.432 381.611 467.841 376.273 466.407 375.009C458.952 368.828 453.934 366.018 448.343 358.573C446.336 356.045 443.469 352.252 441.462 346.493C439.598 341.435 439.311 337.783 438.594 328.793C437.734 318.819 437.304 313.762 436.874 309.267C435.584 297.046 434.724 290.162 432.143 281.172C430.853 276.958 429.849 274.289 428.989 269.091C428.272 264.877 427.412 259.82 428.559 253.779C429.132 250.83 429.706 249.987 431.283 244.649C433.003 238.889 434.15 234.113 434.867 231.023C434.007 228.494 433.003 224.982 432 220.628C431.139 217.256 430.566 214.868 430.136 211.778C429.706 208.687 429.276 204.192 429.419 198.714C430.566 198.433 431.569 198.011 432.716 197.73C433.863 197.309 435.727 196.606 438.021 196.185C439.885 195.904 446.193 194.78 451.354 198.011C452.501 198.714 452.787 199.275 455.511 202.366C462.679 210.654 462.536 209.811 464.113 212.059C468.988 218.661 470.564 225.263 471.425 229.056C472.715 234.535 472.715 238.889 472.858 243.806C472.858 248.582 472.572 252.515 472.285 255.465C471.855 256.449 471.425 257.572 470.851 258.556C471.281 259.398 471.711 260.241 472.141 261.084C473.002 262.208 473.862 263.472 474.722 264.877C477.589 269.794 478.163 274.57 478.306 277.66C478.306 281.593 479.166 284.262 479.883 285.948C480.457 287.212 481.03 288.055 484.614 293.253C486.048 295.219 487.195 296.905 488.055 298.169C488.485 295.641 489.058 291.848 489.489 287.353C489.919 282.717 490.062 277.098 489.202 263.472C488.772 256.589 488.485 250.97 487.625 242.682C485.904 226.668 484.471 221.189 483.037 210.654C481.03 194.921 480.17 185.649 481.604 173.99C481.89 171.181 482.607 167.107 483.181 160.224C483.897 151.795 483.754 149.407 484.327 142.524C485.188 130.864 485.618 124.965 487.912 118.081C490.205 110.777 492.643 103.332 499.667 100.101C504.112 97.9935 508.556 98.4149 509.273 98.5554C514.864 99.2578 518.448 102.489 519.452 103.472C522.606 106.422 523.896 109.653 524.613 111.9C526.046 115.974 526.476 119.767 526.046 127.353C525.473 136.343 524.613 137.888 524.039 144.771C523.179 154.324 524.039 161.769 524.613 166.124C525.616 174.131 526.476 174.692 529.057 187.757C530.204 193.656 530.921 198.573 532.354 208.406C533.358 215.43 534.648 224.561 535.938 235.518C537.515 235.518 539.092 235.377 540.669 235.377C539.809 229.899 538.519 222.173 537.085 212.621C534.792 197.59 533.645 190.004 533.071 180.592C532.211 167.809 531.781 159.943 533.645 151.795C534.075 150.109 534.935 146.457 535.508 141.26C536.225 135.36 535.652 134.798 536.225 129.179C537.085 120.048 539.379 114.289 539.953 112.743C541.53 108.81 542.533 106.281 545.114 103.753C546.404 102.348 549.988 98.9768 555.723 98.134C561.314 97.4316 565.615 99.6792 566.905 100.522C571.493 103.051 573.643 106.843 574.36 108.248C575.937 111.058 576.224 113.446 576.797 116.817C577.514 121.874 577.371 125.807 577.227 127.212C576.941 133.814 577.371 140.417 577.371 146.879C577.227 159.24 578.804 170.338 580.955 185.93C582.245 195.764 584.252 207.704 587.263 221.189C589.7 222.032 592.28 222.875 594.718 223.718C596.295 219.785 598.302 213.885 599.449 206.58C600.452 199.697 600.309 194.499 599.879 185.649C599.305 173.288 597.872 164.016 597.442 161.769C595.865 151.936 594.718 145.333 591.85 136.624C590.56 132.691 588.696 127.774 587.836 120.61C587.263 115.272 587.549 111.76 588.84 108.529C589.7 106.281 590.99 102.91 594.431 100.803C600.596 97.1506 608.337 101.084 609.054 101.505C612.208 103.191 613.785 105.439 617.082 109.793C620.953 114.991 623.247 119.627 623.964 121.172C625.828 124.965 626.401 126.931 630.989 142.243C634.573 154.043 636.437 159.943 637.01 161.347C637.727 162.893 639.017 165.843 640.021 170.057C641.024 174.131 641.168 177.221 641.168 179.047C641.598 191.83 641.741 198.292 641.598 202.787C641.311 211.216 640.594 222.594 638.874 236.642C639.734 236.782 640.881 237.063 642.314 237.063C643.748 237.063 645.468 236.923 647.189 236.22C649.483 235.377 651.06 234.113 653.353 231.865C658.371 226.949 661.238 222.173 661.525 221.751C663.962 217.818 667.977 212.34 674.285 205.878C676.292 201.523 678.586 196.887 681.166 192.111C684.033 186.773 687.044 181.857 689.911 177.361C689.911 175.957 689.911 173.85 690.055 171.181C690.341 163.174 690.341 159.24 690.915 156.431C691.632 153.2 693.065 145.895 699.23 140.979C701.094 139.433 706.398 135.079 713.566 136.062C719.874 136.905 723.602 141.4 724.462 142.664C724.605 146.457 724.605 150.39 724.749 154.324C724.892 161.066 724.892 167.809 724.749 174.412C724.462 176.238 724.175 178.064 723.889 179.89C720.878 193.516 713.423 215.149 708.405 226.949C705.538 233.692 700.664 244.227 694.929 253.499C693.209 256.168 691.918 258.275 691.918 258.275C686.614 266.141 684.32 268.108 681.309 273.024C678.299 277.941 676.722 282.296 676.148 284.122C672.994 293.815 675.432 296.624 671.991 305.334C671.417 306.879 670.27 309.407 669.554 313.2C668.98 316.431 668.98 318.819 668.98 320.364C668.98 331.181 669.697 336.659 669.697 344.807C669.697 346.633 669.554 349.162 669.267 354.219C668.693 363.63 668.407 368.407 667.69 373.885C666.543 382.454 665.683 382.173 665.109 388.775C664.679 393.411 664.249 398.047 665.396 403.947C666.113 407.599 667.546 413.218 671.704 419.68C618.229 419.399 565.328 419.258 512.283 419.258Z" fill="#E0E1E2"/>
<path d="M512.283 419.258C501.388 408.582 492.069 399.592 484.471 392.287C473.432 381.611 467.841 376.273 466.407 375.009C458.952 368.828 453.934 366.018 448.343 358.573C446.336 356.045 443.469 352.252 441.462 346.493C439.598 341.435 439.311 337.783 438.594 328.793C437.734 318.819 437.304 313.762 436.874 309.267C435.584 297.046 434.724 290.162 432.143 281.172C430.853 276.958 429.849 274.289 428.989 269.091C428.272 264.877 427.412 259.82 428.559 253.779C429.132 250.83 429.706 249.987 431.283 244.649C433.003 238.889 434.15 234.113 434.867 231.023C434.007 228.494 433.003 224.982 432 220.628C431.139 217.256 430.566 214.868 430.136 211.778C429.706 208.687 429.276 204.192 429.419 198.714C430.566 198.433 431.569 198.011 432.716 197.73C433.863 197.309 435.727 196.606 438.021 196.185C439.885 195.904 446.193 194.78 451.354 198.011C452.501 198.714 452.787 199.275 455.511 202.366C462.679 210.654 462.536 209.811 464.113 212.059C468.988 218.661 470.564 225.263 471.425 229.056C472.715 234.535 472.715 238.889 472.858 243.806C472.858 248.582 472.572 252.515 472.285 255.465C471.855 256.449 471.425 257.572 470.851 258.556C471.281 259.398 471.711 260.241 472.141 261.084C473.002 262.208 473.862 263.472 474.722 264.877C477.589 269.794 478.163 274.57 478.306 277.66C478.306 281.593 479.166 284.262 479.883 285.948C480.457 287.212 481.03 288.055 484.614 293.253C486.048 295.219 487.195 296.905 488.055 298.169C488.485 295.641 489.058 291.848 489.489 287.353C489.919 282.717 490.062 277.098 489.202 263.472C488.772 256.589 488.485 250.97 487.625 242.682C485.904 226.668 484.471 221.189 483.037 210.654C481.03 194.921 480.17 185.649 481.604 173.99C481.89 171.181 482.607 167.107 483.181 160.224C483.897 151.795 483.754 149.407 484.327 142.524C485.188 130.864 485.618 124.965 487.912 118.081C490.205 110.777 492.643 103.332 499.667 100.101C504.112 97.9935 508.556 98.4149 509.273 98.5554C514.864 99.2578 518.448 102.489 519.452 103.472C522.606 106.422 523.896 109.653 524.613 111.9C526.046 115.974 526.476 119.767 526.046 127.353C525.473 136.343 524.613 137.888 524.039 144.771C523.179 154.324 524.039 161.769 524.613 166.124C525.616 174.131 526.476 174.692 529.057 187.757C530.204 193.656 530.921 198.573 532.354 208.406C533.358 215.43 534.648 224.561 535.938 235.518C537.515 235.518 539.092 235.377 540.669 235.377C539.809 229.899 538.519 222.173 537.085 212.621C534.792 197.59 533.645 190.004 533.071 180.592C532.211 167.809 531.781 159.943 533.645 151.795C534.075 150.109 534.935 146.457 535.508 141.26C536.225 135.36 535.652 134.798 536.225 129.179C537.085 120.048 539.379 114.289 539.953 112.743C541.53 108.81 542.533 106.281 545.114 103.753C546.404 102.348 549.988 98.9768 555.723 98.134C561.314 97.4316 565.615 99.6792 566.905 100.522C571.493 103.051 573.643 106.843 574.36 108.248C575.937 111.058 576.224 113.446 576.797 116.817C577.514 121.874 577.371 125.807 577.227 127.212C576.941 133.814 577.371 140.417 577.371 146.879C577.227 159.24 578.804 170.338 580.955 185.93C582.245 195.764 584.252 207.704 587.263 221.189C589.7 222.032 592.28 222.875 594.718 223.718C596.295 219.785 598.302 213.885 599.449 206.58C600.452 199.697 600.309 194.499 599.879 185.649C599.305 173.288 597.872 164.016 597.442 161.769C595.865 151.936 594.718 145.333 591.85 136.624C590.56 132.691 588.696 127.774 587.836 120.61C587.263 115.272 587.549 111.76 588.84 108.529C589.7 106.281 590.99 102.91 594.431 100.803C600.596 97.1506 608.337 101.084 609.054 101.505C612.208 103.191 613.785 105.439 617.082 109.793C620.953 114.991 623.247 119.627 623.964 121.172C625.828 124.965 626.401 126.931 630.989 142.243C634.573 154.043 636.436 159.943 637.01 161.347C637.727 162.893 639.017 165.843 640.021 170.057C641.024 174.131 641.168 177.221 641.168 179.047C641.598 191.83 641.741 198.292 641.598 202.787C641.311 211.216 640.594 222.594 638.874 236.642C639.734 236.782 640.881 237.063 642.314 237.063" stroke="#75819C" stroke-width="2" stroke-miterlimit="10"/>
<path d="M681.167 272.744C678.156 277.661 676.579 282.015 676.006 283.842C672.852 293.534 675.289 296.344 671.848 305.053C671.275 306.598 670.128 309.127 669.411 312.92C668.838 316.151 668.838 318.539 668.838 320.084C668.838 330.901 669.554 336.379 669.554 344.527C669.554 346.353 669.411 348.881 669.124 353.938C668.551 363.35 668.264 368.126 667.547 373.605C666.4 382.174 665.54 381.893 664.967 388.495C664.537 393.131 664.107 397.766 665.254 403.666C665.97 407.319 667.404 412.937 671.562 419.399" stroke="#75819C" stroke-width="2" stroke-miterlimit="10"/>
<path d="M642.458 236.783C643.892 236.783 645.612 236.642 647.332 235.94C649.626 235.097 651.203 233.833 653.497 231.585C658.515 226.669 661.382 221.892 661.669 221.471C664.106 217.538 668.12 212.059 674.428 205.597C676.435 201.243 678.729 196.607 681.31 191.831C684.177 186.493 687.188 181.576 690.055 177.081C690.055 175.676 690.055 173.569 690.198 170.9C690.485 162.893 690.485 158.96 691.058 156.15C691.775 152.92 693.209 145.615 699.373 140.698C701.237 139.153 706.542 134.798 713.71 135.782C720.018 136.625 723.745 141.12 724.606 142.384C724.749 146.177 724.749 150.11 724.892 154.043C725.036 160.786 725.036 167.529 724.892 174.131C724.606 175.957 724.319 177.783 724.032 179.61C721.021 193.236 713.567 214.869 708.549 226.669C705.681 233.411 700.807 243.947 695.073 253.218C693.352 255.887 692.062 257.994 692.062 257.994C686.757 265.861 684.464 267.828 681.453 272.744" stroke="#F69AED" stroke-width="3" stroke-miterlimit="10" stroke-linecap="round"/>
<g opacity="0.5">
<path d="M708.119 141.119C708.119 143.507 708.119 146.036 708.119 148.424C708.262 150.812 708.405 153.2 708.835 155.588C708.979 156.15 709.122 156.712 709.266 157.274C709.409 157.836 709.552 158.257 709.982 158.678C710.699 159.521 711.703 160.083 712.706 160.645C714.857 161.769 717.151 162.471 719.588 162.752C717.151 163.033 714.57 162.612 712.133 161.628C710.986 161.207 709.839 160.505 708.835 159.521C708.405 159.1 707.975 158.257 707.832 157.695C707.689 157.133 707.545 156.431 707.402 155.869C706.972 153.481 706.828 150.952 706.972 148.564C707.115 145.895 707.545 143.367 708.119 141.119Z" fill="#75819C"/>
</g>
<g opacity="0.5">
<path d="M439.024 228.214C440.027 227.371 440.601 226.388 440.887 225.264C441.174 224.14 441.174 223.016 441.174 221.893C441.174 220.769 441.031 219.505 440.887 218.381L440.6 214.869C440.457 212.481 440.314 210.093 439.74 207.845C439.454 206.721 439.167 205.598 438.593 204.474C438.163 203.491 437.447 202.507 436.156 201.945C437.447 202.086 438.45 203.069 439.167 204.052C439.884 205.176 440.314 206.3 440.744 207.424C441.461 209.812 441.747 212.2 441.891 214.588C442.034 216.976 442.321 219.364 442.178 221.893C442.178 223.157 441.891 224.421 441.461 225.545C441.031 226.669 440.17 227.652 439.024 228.214Z" fill="#75819C"/>
</g>
<path opacity="0.33" d="M310.136 428.762C315.238 426.284 328.649 413.748 337.103 404.856C345.558 396.11 375.003 373.224 378.501 366.956C381.854 360.688 389.58 332.555 398.617 312.73C404.448 299.903 409.841 287.804 409.55 286.2C411.736 285.034 413.631 275.705 415.526 267.542C417.421 259.379 431.707 234.015 433.602 227.164C433.602 219.876 417.859 216.815 413.486 218.127C413.486 218.127 423.689 201.655 432.144 192.763C440.598 184.017 447.158 166.233 450.365 159.819C453.572 153.406 451.968 137.517 441.91 133.144C431.852 128.771 418.587 139.703 413.486 146.7C408.384 153.697 402.261 164.047 399.638 167.399C397.014 170.898 360.572 206.611 351.388 216.669C342.059 226.873 333.459 235.91 322.964 238.097C312.468 240.138 301.681 230.809 305.034 207.777C312.468 191.014 316.112 180.227 316.696 175.417C320.777 173.813 334.042 162.589 337.686 152.677C344.683 144.514 355.033 122.649 347.598 110.258C345.12 97.1392 329.232 99.3257 324.713 102.533C320.194 105.739 316.112 109.967 313.634 116.964C309.261 121.628 306.638 128.625 306.346 130.52C304.597 130.229 294.101 134.747 288.417 138.829C282.732 143.056 277.192 146.263 276.026 146.992C274.86 147.721 301.681 125.855 303.431 113.611C305.18 101.366 299.786 91.3084 290.312 92.0373C280.837 92.7661 271.945 102.824 269.612 103.845C267.28 104.865 260.866 108.509 258.243 111.57C255.764 108.801 254.015 108.946 252.412 106.468C250.808 103.99 245.415 100.929 240.75 104.719C236.086 108.509 234.628 113.028 232.004 115.214C229.38 117.255 213.783 133.435 209.264 142.91C204.746 152.385 198.623 169.149 195.854 173.084C193.084 177.02 189.586 182.705 186.816 197.282C184.047 211.859 180.111 209.964 179.673 234.453C179.236 258.942 170.49 262.149 169.032 276.871C167.72 291.448 170.053 300.194 167.429 313.022C164.805 325.849 163.056 336.49 163.347 343.487C163.639 350.484 164.368 367.976 155.913 388.092C147.167 408.354 138.275 424.243 134.485 428.762H310.136Z" fill="#E0E1E2"/>
<path d="M310.136 428.762C315.238 426.284 328.649 413.748 337.103 404.856C345.558 396.11 375.003 373.224 378.501 366.956C381.854 360.688 389.58 332.555 398.617 312.73C404.448 299.903 409.841 287.804 409.55 286.2C411.736 285.034 413.631 275.705 415.526 267.542C417.421 259.379 431.707 234.015 433.602 227.164C433.602 219.876 417.859 216.815 413.486 218.127C413.486 218.127 423.689 201.655 432.144 192.763C440.598 184.017 447.158 166.233 450.365 159.819C453.572 153.406 451.968 137.517 441.91 133.144C431.852 128.771 418.587 139.703 413.486 146.7C408.384 153.697 402.261 164.047 399.638 167.399C397.014 170.898 360.572 206.611 351.388 216.669C342.059 226.873 333.459 235.91 322.964 238.097C312.468 240.138 301.681 230.809 305.034 207.777C312.468 191.014 316.112 180.227 316.696 175.417C320.777 173.813 334.042 162.589 337.686 152.677C344.683 144.514 355.033 122.649 347.598 110.258C345.12 97.1392 329.232 99.3257 324.713 102.533C320.194 105.739 316.112 109.967 313.634 116.964C309.261 121.628 306.638 128.625 306.346 130.52C304.597 130.229 294.101 134.747 288.417 138.829C282.732 143.056 277.192 146.263 276.026 146.992C274.86 147.721 301.681 125.855 303.431 113.611C305.18 101.366 299.786 91.3084 290.312 92.0373C280.837 92.7661 271.945 102.824 269.612 103.845C267.28 104.865 260.866 108.509 258.243 111.57C255.764 108.801 254.015 108.946 252.412 106.468C250.808 103.99 245.415 100.929 240.75 104.719C236.086 108.509 234.628 113.028 232.004 115.214C229.38 117.255 213.783 133.435 209.264 142.91C204.746 152.385 198.623 169.149 195.854 173.084C193.084 177.02 189.586 182.705 186.816 197.282C184.047 211.859 180.111 209.964 179.673 234.453C179.236 258.942 170.49 262.149 169.032 276.871C167.72 291.448 170.053 300.194 167.429 313.022C164.805 325.849 163.056 336.49 163.347 343.487C163.639 350.484 164.368 367.976 155.913 388.092C147.167 408.354 138.275 424.243 134.485 428.762" stroke="#75819C" stroke-width="2" stroke-miterlimit="10"/>
<path d="M194.104 249.76C195.854 235.62 201.976 170.899 204.746 163.757C207.515 156.614 218.156 151.512 222.821 146.119C227.485 140.58 232.442 134.603 237.689 131.396C242.937 128.044 251.974 118.86 258.097 111.863" stroke="#75819C" stroke-width="2" stroke-miterlimit="10"/>
<path d="M237.397 241.449C243.665 234.598 246.435 225.268 248.184 214.773C249.788 204.278 256.493 179.206 259.7 170.46C263.053 161.714 265.239 152.239 275.88 147.137" stroke="#75819C" stroke-width="2" stroke-miterlimit="10"/>
<path d="M341.768 360.106C345.558 351.36 348.327 344.654 347.89 335.617C347.307 326.579 345.703 319.145 346.286 313.897C346.869 308.65 356.49 288.825 358.677 285.035" stroke="#75819C" stroke-width="2" stroke-miterlimit="10"/>
<path d="M358.532 285.035C360.719 281.245 365.675 273.811 378.356 260.546C391.038 247.282 413.632 218.128 413.632 218.128C413.632 218.128 423.836 201.656 432.291 192.764C440.745 184.018 447.305 166.234 450.512 159.821C453.719 153.407 452.115 137.518 442.057 133.145C431.999 128.772 418.734 139.705 413.632 146.701C408.53 153.698 402.408 164.048 399.784 167.401C397.161 170.899 360.719 206.612 351.535 216.67C342.206 226.874 333.606 235.912 323.11 238.098" stroke="#F69AED" stroke-width="3" stroke-miterlimit="10" stroke-linecap="round"/>
<g opacity="0.5">
<path d="M426.605 222.791C422.523 223.811 418.296 224.832 414.944 227.31C411.591 229.642 408.967 233.141 407.364 236.931C406.489 238.826 405.906 240.866 405.76 242.907C405.469 244.948 405.906 246.989 406.781 248.738C407.655 250.633 409.113 252.09 410.716 253.257C412.465 254.568 414.36 255.443 416.401 256.026C412.32 255.297 407.947 253.111 405.76 249.175C404.594 247.28 404.157 244.948 404.302 242.615C404.448 240.429 405.031 238.242 405.906 236.202C407.509 232.12 410.425 228.476 414.215 226.289C416.11 225.123 418.15 224.249 420.191 223.811C422.378 223.228 424.418 222.937 426.605 222.791Z" fill="#75819C"/>
</g>
<g opacity="0.5">
<path d="M447.449 149.762C445.699 152.24 442.784 153.698 439.869 154.427C436.808 155.155 433.601 154.718 430.831 153.552C429.373 152.969 428.061 152.094 426.895 151.074C425.729 150.054 424.855 148.596 424.417 146.992C424.126 145.389 424.272 143.785 424.855 142.328C425.438 140.87 426.312 139.704 427.478 138.684C426.458 139.85 425.875 141.162 425.438 142.474C425 143.785 425 145.243 425.438 146.555C425.875 147.867 426.604 149.033 427.624 149.908C428.645 150.782 429.956 151.511 431.268 152.094C433.892 153.26 436.662 153.698 439.577 153.26C441.035 152.969 442.347 152.677 443.659 152.094C445.116 151.657 446.428 150.782 447.449 149.762Z" fill="#75819C"/>
</g>
</svg>
