<svg width="900" height="500" viewBox="0 0 900 500" fill="none" xmlns="http://www.w3.org/2000/svg">
<path opacity="0.33" d="M327.41 430.326C329.284 428.019 337.356 419.658 346.15 410.864C354.943 402.071 372.963 371.077 378.297 364.879C383.631 358.68 397.758 343.399 401.218 335.759C404.677 328.119 400.929 303.612 401.218 295.972C401.506 288.332 405.11 251.86 402.659 242.346C400.209 232.831 396.316 228.939 393.145 222.308C389.973 215.677 389.397 213.659 386.514 211.64C383.631 209.622 385.36 192.323 385.937 189.873C386.514 187.422 388.532 176.322 388.532 172.43C388.532 168.538 388.532 157.438 391.559 149.221C394.586 141.004 392.568 116.353 387.379 108.569C382.189 100.784 378.008 98.9101 371.81 98.4776C365.611 98.0452 358.836 104.1 357.106 107.848C355.376 111.596 353.069 115.056 350.475 145.617C346.871 153.834 339.951 161.041 336.924 170.988C333.897 180.935 325.824 206.018 323.95 216.398C322.076 226.777 311.408 240.904 315.733 233.264C320.058 225.768 319.625 207.316 327.698 182.809C335.771 158.303 334.762 159.888 334.762 158.591C334.762 157.293 339.519 152.825 341.104 142.157C344.132 137.256 350.042 112.893 339.086 105.83C338.942 100.784 335.627 97.3244 326.545 95.8828C317.463 94.4413 314.147 96.7478 312.129 102.37C308.813 103.235 303.768 115.488 302.903 125.579C300.452 127.021 288.632 138.986 286.325 143.454C284.019 147.923 277.532 170.412 276.234 176.178C274.937 181.944 266.576 217.983 264.269 221.299C261.963 224.614 260.954 226.921 262.828 219.857C264.702 212.794 273.351 170.267 277.099 162.627C280.847 154.987 281.28 148.644 291.659 133.796C302.038 118.948 300.597 111.74 298.723 106.983C296.848 102.226 295.407 98.1893 286.613 96.7478C277.82 95.3062 272.774 102.658 272.774 102.658C272.774 102.658 267.441 104.244 254.611 118.083C251.872 112.749 248.124 108.713 248.124 108.713C248.124 108.713 245.385 102.946 237.6 101.793C229.816 100.64 226.644 109.001 226.212 112.028C223.617 112.028 218.283 123.993 216.409 135.958C214.535 148.067 211.508 165.366 208.336 175.601C205.165 185.836 203.147 194.342 202.426 201.838C201.705 209.334 197.669 219.857 196.948 229.66C196.227 239.463 184.839 267.573 184.262 276.511C183.542 285.448 183.974 316.01 183.109 323.073C182.244 330.137 180.947 353.923 183.109 367.618C185.271 381.168 184.262 393.71 181.956 400.485C179.649 407.261 171 429.749 171 429.749H327.41V430.326Z" fill="#E0E1E2"/>
<path d="M327.41 430.326C329.284 428.019 337.356 419.658 346.15 410.864C354.943 402.071 372.963 371.077 378.297 364.879C383.631 358.68 397.758 343.399 401.218 335.759C404.677 328.119 400.929 303.612 401.218 295.972C401.506 288.332 405.11 251.86 402.659 242.346C400.209 232.831 396.316 228.939 393.145 222.308C389.973 215.677 389.397 213.659 386.514 211.64C383.631 209.622 385.36 192.323 385.937 189.873C386.514 187.422 388.532 176.322 388.532 172.43C388.532 168.538 388.532 157.438 391.559 149.221C394.586 141.004 392.568 116.353 387.379 108.569C382.189 100.784 378.008 98.9101 371.81 98.4776C365.611 98.0452 358.836 104.1 357.106 107.848C355.376 111.596 353.069 115.056 350.475 145.617C346.871 153.834 339.951 161.041 336.924 170.988C333.897 180.935 325.824 206.018 323.95 216.398C322.076 226.777 311.408 240.904 315.733 233.264C320.058 225.768 319.625 207.316 327.698 182.809C335.771 158.303 334.762 159.888 334.762 158.591C334.762 157.293 339.519 152.825 341.104 142.157C344.132 137.256 350.042 112.893 339.086 105.83C338.942 100.784 335.627 97.3244 326.545 95.8828C317.463 94.4413 314.147 96.7478 312.129 102.37C308.813 103.235 303.768 115.488 302.903 125.579C300.452 127.021 288.632 138.986 286.325 143.454C284.019 147.923 277.532 170.412 276.234 176.178C274.937 181.944 266.576 217.983 264.269 221.299C261.963 224.614 260.954 226.921 262.828 219.857C264.702 212.794 273.351 170.267 277.099 162.627C280.847 154.987 281.28 148.644 291.659 133.796C302.038 118.948 300.597 111.74 298.723 106.983C296.848 102.226 295.407 98.1893 286.613 96.7478C277.82 95.3062 272.774 102.658 272.774 102.658C272.774 102.658 267.441 104.244 254.611 118.083C251.872 112.749 248.124 108.713 248.124 108.713C248.124 108.713 245.385 102.946 237.6 101.793C229.816 100.64 226.644 109.001 226.212 112.028C223.617 112.028 218.283 123.993 216.409 135.958C214.535 148.067 211.508 165.366 208.336 175.601C205.165 185.836 203.147 194.342 202.426 201.838C201.705 209.334 197.669 219.857 196.948 229.66C196.227 239.463 184.839 267.573 184.262 276.511C183.542 285.448 183.974 316.01 183.109 323.073C182.244 330.137 180.947 353.923 183.109 367.618C185.271 381.168 184.262 393.71 181.956 400.485C179.649 407.261 171 429.749 171 429.749" stroke="#75819C" stroke-width="2" stroke-miterlimit="10"/>
<path d="M212.805 225.912C216.841 221.587 220.157 214.956 220.445 208.036C220.733 201.117 220.012 165.222 229.094 151.527C238.176 137.832 254.754 118.659 254.754 118.659" stroke="#75819C" stroke-width="2" stroke-miterlimit="10"/>
<path d="M373.827 309.956C371.809 306.207 369.358 303.757 369.358 300.874C369.358 297.991 370.944 264.979 372.674 253.158C374.26 241.337 382.332 207.172 385.071 200.108" stroke="#75819C" stroke-width="2" stroke-miterlimit="10"/>
<path opacity="0.33" d="M541.539 431.937C539.935 428.291 537.164 422.75 532.935 416.625C527.248 408.458 524.331 407.292 516.165 398.105C512.811 394.313 507.415 387.022 496.478 372.439C491.374 365.585 488.603 361.793 483.791 355.814C479.27 350.273 476.937 347.356 475.624 345.898C471.104 340.794 469.791 339.919 468.333 337.002C466.291 333.21 466 329.856 465.416 324.752C464.541 316.294 466.145 314.253 465.416 306.378C465.125 302.878 464.395 300.253 463.083 294.857C460.75 285.524 459 282.608 456.667 273.42C455.5 269.046 454.917 265.546 454.479 263.212C454.042 262.046 453.458 260.296 452.729 258.108C451.271 253.296 450.396 249.359 450.25 247.754C449.521 243.671 450.25 239.005 451.708 229.526C452.729 222.963 453.75 218.734 453.167 212.026C453.021 210.714 452.875 209.547 452.875 208.818C451.708 206.339 450.542 203.568 449.521 200.506C447.042 193.068 445.875 186.36 445.438 180.819C446.458 180.527 447.333 180.381 448.354 180.09C449.375 179.069 451.125 177.902 453.458 177.027C458.125 175.423 462.354 176.881 465.708 178.048C468.625 179.069 476.937 182.569 481.895 190.881C483.499 193.506 484.228 196.277 485.978 201.818C487.437 206.631 488.312 210.714 488.895 213.485C488.02 195.547 487.582 180.819 487.582 169.882C487.582 164.486 487.582 160.111 487.582 151.361C487.582 149.903 487.728 137.507 488.603 121.466C489.041 113.154 489.624 108.196 492.541 102.654C493.999 99.883 496.04 96.238 500.415 94.05C506.54 90.842 512.811 93.029 514.123 93.613C520.248 95.946 523.165 100.904 524.623 103.529C527.394 108.196 527.831 112.716 528.415 116.654C528.852 120.737 528.706 123.945 528.56 125.695C528.123 132.549 527.685 140.861 527.248 151.799C528.123 155.007 529.435 159.382 530.748 164.632C532.206 170.319 533.956 176.735 535.706 185.048C536.435 188.839 537.748 194.818 538.914 202.547C540.81 215.234 540.373 218.297 542.123 227.776C543.435 234.776 545.039 240.317 546.06 243.671C547.372 242.942 548.539 242.213 549.852 241.484C548.977 237.401 547.81 231.276 546.497 223.693C544.164 210.714 542.56 200.943 539.643 183.298C537.602 170.902 536.581 164.632 535.852 159.382C534.102 146.549 533.227 138.237 532.352 129.049C529.873 104.404 531.915 114.32 531.04 108.05C530.748 106.3 530.31 103.821 531.04 100.613C531.331 99.3 532.935 92.592 538.914 89.5295C541.539 88.217 543.873 88.0712 545.768 88.0712C547.81 87.9254 556.268 87.4879 562.393 93.175C565.455 95.946 570.413 107.758 571.288 116.07C571.288 115.633 572.018 115.633 572.018 115.633C572.163 113.737 571.873 104.55 575.956 99.446C576.539 98.717 576.831 97.258 577.852 96.092C581.643 91.571 589.08 91.571 594.038 93.029C595.642 93.613 598.413 94.634 601.038 97.258C602.35 98.571 603.808 99.883 605.121 101.487C609.204 106.154 614.454 114.612 616.641 118.695C616.641 118.695 618.1 108.05 621.016 104.987C622.037 103.821 624.225 100.904 628.162 99.592C628.599 99.446 633.558 97.988 638.078 100.613C639.828 101.633 640.849 102.8 642.016 104.404C647.411 111.404 649.891 116.216 649.891 116.216C653.828 124.82 656.745 132.258 658.932 138.382C665.348 156.903 668.12 171.631 668.995 176.735C670.016 182.423 670.599 187.527 670.891 190.589C671.62 195.985 672.348 202.839 672.786 211.589C673.077 216.839 673.223 223.547 673.077 231.422C673.223 232.151 673.369 233.317 673.661 234.63C674.827 241.192 675.994 245.713 676.723 248.921C677.598 252.421 679.056 258.546 679.786 264.962C680.515 271.67 680.953 294.274 682.12 309.586C682.849 320.232 682.995 328.252 683.141 333.794C683.724 360.043 681.537 363.835 682.995 382.647C684.016 394.459 685.619 402.771 686.202 405.688C688.389 416.333 691.306 425.083 693.639 431.499C642.599 431.645 592.142 431.791 541.539 431.937Z" fill="#E0E1E2"/>
<path d="M597.684 228.65C595.059 222.671 592.725 204.297 591.559 189.86C590.976 182.568 590.684 178.922 589.809 174.256C588.496 167.402 584.851 151.069 583.976 147.715C583.684 146.548 582.663 142.465 580.767 137.361C579.163 132.84 573.476 121.611 570.705 114.903" stroke="#75819C" stroke-width="2" stroke-miterlimit="10"/>
<path d="M598.122 229.38C594.477 222.817 592.727 217.276 591.998 213.484C590.539 206.63 591.414 204.297 590.248 189.86C589.664 182.569 589.373 178.923 588.498 174.256C587.185 167.402 583.539 151.069 582.664 147.715C582.373 146.549 581.352 142.465 579.456 137.361C577.852 132.841 573.186 123.508 570.852 115.633" stroke="#75819C" stroke-width="2" stroke-miterlimit="10"/>
<path d="M638.517 222.963C638.809 211.589 638.371 201.964 637.934 194.672C637.205 182.86 636.621 175.131 634.288 164.777C632.392 156.757 630.205 150.778 628.017 145.09C624.08 134.882 618.393 122.633 614.018 114.758" stroke="#75819C" stroke-width="2" stroke-miterlimit="10"/>
<path d="M693.202 431.499C690.723 425.083 687.953 416.333 685.766 405.688C685.183 402.771 683.578 394.459 682.558 382.647C680.954 363.835 683.14 360.043 682.702 333.794C682.557 328.252 682.412 320.232 681.683 309.586C680.662 294.274 680.223 271.67 679.348 264.962C678.619 258.546 677.016 252.421 676.287 248.921C675.558 245.713 674.391 241.338 673.225 234.63C672.933 233.317 672.787 232.151 672.641 231.422C672.787 223.547 672.641 216.839 672.35 211.589C671.912 202.839 671.037 195.985 670.454 190.589C670.016 187.527 669.433 182.423 668.558 176.735C667.683 171.486 665.058 156.757 658.496 138.382C656.308 132.258 653.392 124.82 649.454 116.216C649.454 116.216 646.974 111.404 641.579 104.404C640.412 102.946 639.392 101.633 637.642 100.613C633.121 97.988 628.162 99.446 627.725 99.592C623.787 100.758 621.6 103.821 620.579 104.987C617.663 108.196 616.204 118.695 616.204 118.695C614.017 114.612 608.768 106.008 604.685 101.487C603.226 99.883 601.914 98.571 600.602 97.258C597.831 94.634 595.206 93.467 593.602 93.029C588.789 91.425 581.352 91.425 577.415 96.092C576.394 97.258 576.102 98.717 575.519 99.446C571.436 104.55 571.873 113.737 571.581 115.633C571.581 115.633 570.707 115.633 570.852 116.07C569.832 107.758 565.019 96.092 561.957 93.175C555.686 87.4879 547.374 87.9254 545.332 88.0712C543.436 88.217 541.103 88.217 538.478 89.5295C532.499 92.592 530.895 99.154 530.603 100.613C529.874 103.821 530.312 106.3 530.603 108.05C531.624 114.32 529.436 104.55 531.915 129.049C532.79 138.237 533.665 146.549 535.415 159.382C536.144 164.632 537.166 170.902 539.207 183.298C542.124 200.943 543.582 210.714 546.061 223.693C547.374 231.276 548.686 237.401 549.415 241.484C548.103 242.213 546.936 242.942 545.624 243.671C544.603 240.171 542.999 234.63 541.686 227.776C539.936 218.151 540.374 215.234 538.478 202.547C537.312 194.818 535.999 188.839 535.27 185.048C533.52 176.735 531.769 170.319 530.311 164.632C528.852 159.382 527.686 154.861 526.811 151.799C527.248 140.861 527.687 132.549 528.124 125.695C528.27 123.945 528.416 120.883 527.978 116.654C527.541 112.862 526.957 108.341 524.186 103.529C522.728 100.904 519.812 95.946 513.687 93.613C512.375 93.175 506.104 90.9878 499.979 94.05C495.604 96.238 493.563 100.029 492.104 102.654C489.188 108.196 488.75 113.154 488.167 121.466C487.292 137.507 487.146 149.903 487.146 151.361C487.146 160.111 487.146 164.486 487.146 169.882C487.292 180.819 487.583 195.693 488.458 213.485" stroke="#75819C" stroke-width="2" stroke-miterlimit="10"/>
<path d="M481.166 352.896C481.895 353.771 482.624 354.792 483.645 355.813C488.457 361.792 491.228 365.584 496.332 372.438C507.269 387.021 512.665 394.312 516.019 398.104C524.185 407.291 527.102 408.457 532.789 416.624C537.018 422.749 539.789 428.144 541.393 431.936" stroke="#75819C" stroke-width="2" stroke-miterlimit="10"/>
<path d="M492.686 321.691C493.124 314.982 495.166 309.441 496.332 306.233C494.436 293.546 494.436 267.005 494.291 263.067C493.999 252.859 488.457 213.777 488.457 213.777C487.874 210.86 486.999 206.923 485.541 202.111C483.791 196.569 483.062 193.944 481.458 191.173C476.499 182.715 468.333 179.361 465.27 178.34C461.916 177.174 457.687 175.715 453.021 177.32C450.688 178.194 446.021 180.819 445 181.111C445.438 186.653 446.604 193.507 449.083 200.798C450.104 203.86 451.271 206.631 452.438 209.11C452.583 209.839 452.729 211.006 452.729 212.319C453.167 219.027 452.292 223.256 451.271 229.818C449.813 239.297 449.083 243.964 449.813 248.047C450.104 249.651 450.833 253.588 452.292 258.401C452.875 260.588 453.604 262.192 454.042 263.505C454.479 265.692 455.062 269.338 456.229 273.713C458.562 282.754 460.312 285.671 462.646 295.15C463.958 300.545 464.687 303.17 464.979 306.67C465.708 314.545 464.104 316.587 464.979 325.045C465.416 330.149 465.854 333.503 467.895 337.294L469.791 339.773C471.249 342.544 477.958 349.398 481.02 353.044" stroke="#F69AED" stroke-width="3" stroke-miterlimit="10" stroke-linecap="round"/>
<g opacity="0.5">
<path d="M456.959 209.546C458.271 209.255 459.292 208.38 459.73 207.213C460.021 206.63 460.167 206.046 460.313 205.463C460.313 204.88 460.167 204.296 460.167 203.567C459.73 200.942 459.146 198.463 458.563 195.838C457.98 193.213 457.396 190.734 456.667 188.255C456.376 187.088 455.501 186.213 454.48 185.338C453.459 184.464 452.438 183.734 451.126 183.297C452.438 183.443 453.751 184.026 454.917 184.755C455.501 185.193 456.084 185.484 456.521 186.068C456.813 186.359 456.959 186.651 457.25 186.943C457.396 187.234 457.542 187.672 457.688 187.963C458.709 190.443 459.292 193.067 459.875 195.692C460.459 198.317 460.896 200.942 461.188 203.567C461.188 204.296 461.334 204.88 461.188 205.755C461.042 206.484 460.75 207.067 460.313 207.65C459.73 208.671 458.417 209.692 456.959 209.546Z" fill="#75819C"/>
</g>
</svg>
