<svg width="900" height="500" viewBox="0 0 900 500" fill="none" xmlns="http://www.w3.org/2000/svg">
<path opacity="0.33" d="M694.391 428.437C687.6 414.133 682.831 400.84 680.953 371.364C679.075 341.888 682.687 339.576 680.953 316.313C679.219 293.05 677.485 298.107 679.219 280.624C680.809 263.14 671.272 240.455 671.128 231.93C670.983 223.405 671.706 194.218 669.105 180.492C666.504 166.765 660.435 157.951 656.101 134.399C651.766 110.847 635.294 95.5311 624.746 98.9989C614.198 102.467 612.465 113.448 613.765 117.494C609.141 108.391 606.107 103.045 603.217 99.5768C600.327 96.1091 591.947 92.0633 591.947 92.0633C591.947 92.0633 578.943 89.318 573.886 101.022C569.695 101.889 569.695 110.992 569.84 113.448C568.828 107.957 566.95 100.155 565.361 97.6985C563.627 95.2421 560.303 91.3409 555.68 89.318C551.056 87.2952 539.208 88.0176 536.174 90.4739C533.139 92.9303 527.649 97.9874 528.082 102.9C528.516 107.957 530.105 112.437 530.394 125.296C530.683 138.156 534.873 165.32 535.74 172.111C536.607 178.902 548.311 241.467 548.311 241.467C548.311 241.467 547.877 242.478 547.155 241.756C546.577 241.033 532.85 164.742 527.938 153.472C529.816 141.479 530.972 107.524 523.169 100.01C519.846 92.4968 499.617 86.5727 491.959 103.478C484.301 120.239 486.758 150.293 485.313 161.852C483.868 173.412 485.457 199.131 486.902 206.789C485.891 198.986 483.29 191.762 478.811 187.283C474.332 182.803 466.963 178.324 461.761 176.446C457.571 175.001 452.225 176.879 449.913 179.191C449.19 179.914 448.179 180.636 447.167 180.781C446.011 181.07 445 181.936 445 181.936C445 184.393 446.878 196.675 453.669 208.812C451.936 211.413 454.247 222.249 452.369 229.907C450.491 237.421 448.323 242.623 451.647 251.292C450.346 253.604 452.08 259.961 454.97 262.273C453.236 267.619 455.403 274.41 461.183 288.571C468.407 306.343 464.795 325.994 469.852 336.108C474.91 346.222 480.978 349.69 487.625 360.093C494.127 370.497 519.557 403.007 529.96 411.243C540.364 419.479 544.698 428.293 544.698 428.293H694.391V428.437Z" fill="#E0E1E2"/>
<path d="M694.391 428.438C687.6 414.134 682.831 400.841 680.953 371.365C679.075 341.888 682.687 339.577 680.953 316.314C679.219 293.051 677.485 298.108 679.219 280.624C680.809 263.141 671.272 240.456 671.128 231.931C670.983 223.406 671.706 194.219 669.105 180.492C666.504 166.766 662.603 156.652 656.101 134.4C648.876 109.548 635.294 95.532 624.746 98.9998C614.198 102.468 612.465 113.449 613.765 117.495C609.141 108.392 606.107 103.046 603.217 99.5778C601.05 96.9769 595.126 92.4977 590.213 91.7753C586.601 91.1973 577.787 91.9198 573.886 100.878C570.129 102.179 569.695 110.848 569.84 113.304C568.828 107.814 566.95 100.011 565.361 97.5549C563.627 95.0986 560.303 91.1973 555.68 89.1745C551.056 87.1516 539.208 87.874 536.174 90.3304C533.139 92.7867 527.649 97.8439 528.082 102.757C528.516 107.814 530.105 112.293 530.394 125.153C530.683 138.012 534.873 165.177 535.74 171.968C536.607 178.759 548.311 241.323 548.311 241.323C548.311 241.323 547.877 242.334 547.155 241.612C546.577 240.89 532.85 164.599 527.938 153.328C529.816 141.336 530.972 107.38 523.169 99.8668C519.846 92.3532 499.617 86.4291 491.959 103.335C484.301 120.095 486.758 150.149 485.313 161.709C483.868 173.268 485.457 198.987 486.902 206.645C485.891 198.843 483.29 191.618 478.811 187.139C474.332 182.66 466.963 178.181 461.761 176.302C457.571 174.857 452.225 176.736 449.913 179.192C449.046 180.059 447.89 180.926 446.589 181.07C445.578 181.215 445 181.504 445 181.504C445 183.816 446.589 194.942 452.225 206.067C452.947 207.512 453.38 209.102 453.091 210.691C452.513 214.881 453.958 223.551 452.369 229.764C450.491 237.277 448.323 242.479 451.647 251.148C451.936 255.772 453.38 260.396 454.97 262.13C454.536 268.343 455.403 274.267 461.183 288.427C468.407 306.199 464.795 325.85 469.852 335.964C474.91 346.079 480.978 349.546 487.625 359.95C494.127 370.353 519.557 402.863 529.96 411.099C540.364 419.335 544.698 428.149 544.698 428.149" stroke="#75819C" stroke-width="2" stroke-miterlimit="10"/>
<path d="M491.815 328.884C492.248 321.515 495.571 308.944 495.86 304.465C496.294 299.986 494.994 306.344 494.705 286.982C494.56 267.476 492.826 236.844 489.647 223.117C486.469 209.39 487.336 206.645 485.891 201.732" stroke="#75819C" stroke-width="2" stroke-miterlimit="10"/>
<path d="M597.726 228.897C594.548 224.129 590.935 215.749 590.502 193.497C590.068 171.245 583.422 165.899 582.988 150.583C582.555 135.267 571.574 130.355 569.695 113.594" stroke="#75819C" stroke-width="2" stroke-miterlimit="10"/>
<path d="M636.739 223.407C636.883 217.916 637.028 190.174 634.138 173.557C631.248 156.941 628.358 150.583 624.89 143.214C621.278 135.701 615.209 124.286 613.476 117.64" stroke="#75819C" stroke-width="2" stroke-miterlimit="10"/>
<g opacity="0.5">
<path d="M453.092 182.806C454.392 183.095 455.548 183.817 456.704 184.684C457.715 185.695 458.438 186.851 458.871 188.152C459.594 190.753 460.316 193.209 460.75 195.954C461.183 198.555 461.617 201.3 461.328 204.046C461.328 204.768 461.039 205.491 460.894 206.069C460.605 206.791 460.172 207.369 459.594 207.803C458.438 208.814 456.993 208.958 455.693 208.525C456.993 208.669 458.293 208.236 459.16 207.225C460.027 206.358 460.172 205.057 460.172 203.757C460.172 201.156 459.738 198.555 459.305 196.099C458.871 193.498 458.293 190.897 457.716 188.441C457.282 186.129 455.548 183.962 453.092 182.806Z" fill="#75819C"/>
</g>
<path opacity="0.33" d="M233.782 454.652C239.863 447.203 259.169 418.473 277.106 404.943C295.044 391.414 349.312 352.043 357.217 343.378C365.122 334.865 366.794 326.201 371.506 310.847C376.219 295.494 394.004 254.754 395.828 248.978C397.653 243.201 397.196 228.912 399.173 222.071V219.639C399.173 219.639 411.942 189.389 410.726 185.588C409.662 181.788 396.74 179.052 386.404 182.244C376.067 185.284 362.994 201.094 358.129 208.998C353.265 216.903 346.272 229.064 348.856 239.401C345.816 239.705 344.144 242.137 343.688 244.113C343.232 246.09 332.743 270.716 332.743 270.716C332.743 270.716 328.487 272.084 325.598 274.972C322.71 277.86 321.494 281.813 321.494 281.813C321.494 281.813 317.39 279.228 316.63 277.1C315.869 274.972 320.43 255.058 326.054 242.137C331.679 229.368 344.296 204.286 347.032 199.573C349.92 194.861 363.45 169.171 365.578 162.938C367.706 156.706 381.083 144.697 383.211 135.12C385.339 125.543 389.596 117.942 384.883 107.758C380.171 97.5727 370.594 97.1167 363.298 99.3971C356.001 101.829 344.296 117.03 338.823 128.127C333.351 139.224 321.494 138.768 305.533 163.546C289.571 188.325 280.146 202.462 279.082 206.262C278.17 210.062 278.626 213.559 276.194 217.207C273.762 218.271 273.762 199.878 277.714 191.213C281.666 182.548 296.412 161.266 297.324 157.314C299.3 156.402 312.069 153.513 318.758 141.808C322.102 136.032 326.054 138.464 330.767 130.103C335.479 121.743 335.935 115.966 332.743 111.102C331.679 105.933 325.902 99.7011 313.741 102.133C301.58 104.565 298.54 107.301 298.084 107.605C296.564 106.845 293.98 100.461 286.227 99.2451C278.322 97.8767 269.505 102.133 265.705 104.413C261.145 104.261 250.96 104.869 245.791 108.67C239.407 108.062 228.614 108.67 221.773 112.622C224.662 107.301 231.198 91.3402 228.614 78.8751C226.182 66.41 212.5 62.1536 209.612 62.0016C206.724 61.8496 201.708 72.4905 198.363 78.4191C194.867 84.3476 177.081 115.206 169.177 129.799C161.272 144.393 153.975 166.587 151.543 172.667C149.111 178.748 147.743 197.749 147.135 205.198C146.527 212.647 136.038 238.945 133.91 247.762C131.781 256.578 131.629 286.525 127.069 317.384C122.509 348.242 127.069 334.561 122.357 354.323C117.644 374.085 113.692 385.79 96.3624 410.112C79.0329 434.434 75.9926 444.771 69 454.5H233.782V454.652Z" fill="#E0E1E2"/>
<path d="M233.782 454.652C239.863 447.203 259.169 418.473 277.106 404.943C295.044 391.414 349.312 352.043 357.217 343.378C365.122 334.865 366.794 326.201 371.506 310.847C376.219 295.494 394.004 254.754 395.828 248.978C397.653 243.201 397.196 228.912 399.173 222.071V219.639C399.173 219.639 411.942 189.389 410.726 185.588C409.662 181.788 396.74 179.052 386.404 182.244C376.067 185.284 362.994 201.094 358.129 208.998C353.265 216.903 346.272 229.064 348.856 239.401C345.816 239.705 344.144 242.137 343.688 244.113C343.232 246.09 332.743 270.716 332.743 270.716C332.743 270.716 328.487 272.084 325.598 274.972C322.71 277.86 321.494 281.813 321.494 281.813C321.494 281.813 317.39 279.228 316.63 277.1C315.869 274.972 320.43 255.058 326.054 242.137C331.679 229.368 344.296 204.286 347.032 199.573C349.92 194.861 363.45 169.171 365.578 162.938C367.706 156.706 381.083 144.697 383.211 135.12C385.339 125.543 389.596 117.942 384.883 107.758C380.171 97.5727 370.594 97.1167 363.298 99.3971C356.001 101.829 344.296 117.03 338.823 128.127C333.351 139.224 321.494 138.768 305.533 163.546C289.571 188.325 280.146 202.462 279.082 206.262C278.17 210.062 278.626 213.559 276.194 217.207C273.762 218.271 273.762 199.878 277.714 191.213C281.666 182.548 296.412 161.266 297.324 157.314C299.3 156.402 312.069 153.513 318.758 141.808C322.102 136.032 326.054 138.464 330.767 130.103C335.479 121.743 335.935 115.966 332.743 111.102C331.679 105.933 325.902 99.7011 313.741 102.133C301.58 104.565 298.54 107.301 298.084 107.605C296.564 106.845 293.98 100.461 286.227 99.2451C278.322 97.8767 269.505 102.133 265.705 104.413C261.145 104.261 250.96 104.869 245.791 108.67C239.407 108.062 228.614 108.67 221.773 112.622C224.662 107.301 231.198 91.3402 228.614 78.8751C226.182 66.41 212.5 62.1536 209.612 62.0016C206.724 61.8496 201.708 72.4905 198.363 78.4191C194.867 84.3476 177.081 115.206 169.177 129.799C161.272 144.393 153.975 166.587 151.543 172.667C149.111 178.748 147.743 197.749 147.135 205.198C146.527 212.647 136.038 238.945 133.91 247.762C131.781 256.578 131.629 286.525 127.069 317.384C122.509 348.242 127.069 334.561 122.357 354.323C117.644 374.085 113.692 385.79 96.3624 410.112C79.0329 434.434 75.9926 444.771 69 454.5" stroke="#75819C" stroke-width="2" stroke-miterlimit="10"/>
<path d="M221.925 112.622C224.813 107.301 231.349 91.3402 228.765 78.8751C226.333 66.41 212.652 62.1536 209.764 62.0016C206.875 61.8496 201.859 72.4905 198.515 78.4191C195.018 84.3476 177.233 115.206 169.328 129.799C161.423 144.393 154.127 166.587 151.695 172.667C149.262 178.748 147.894 197.749 147.286 205.198" stroke="#F69AED" stroke-width="3" stroke-miterlimit="10" stroke-linecap="round"/>
<path d="M176.93 184.221C177.69 174.948 186.05 130.864 193.955 124.784C201.86 118.703 212.197 120.224 214.933 118.703C217.517 117.183 221.926 111.559 227.246 110.343" stroke="#75819C" stroke-width="2" stroke-miterlimit="10"/>
<path d="M257.952 113.23C254.304 111.406 250.656 108.974 245.943 108.67" stroke="#75819C" stroke-width="2" stroke-miterlimit="10"/>
<path d="M205.659 210.063C211.74 208.998 215.996 202.766 223.141 184.22C230.285 165.675 244.271 127.215 253.087 121.591C261.904 115.966 273.001 118.703 276.193 117.943C279.386 117.182 283.946 113.686 293.219 114.294C302.492 114.902 313.285 121.743 313.285 121.743" stroke="#75819C" stroke-width="2" stroke-miterlimit="10"/>
<path d="M298.236 107.756C298.236 107.756 294.132 110.188 290.483 114.292" stroke="#75819C" stroke-width="2" stroke-miterlimit="10"/>
<g opacity="0.5">
<path d="M406.924 186.65C405.1 186.498 403.428 186.954 401.907 187.866C400.387 188.778 399.019 189.843 397.955 191.211C396.739 192.579 395.675 193.795 394.611 195.315C394.003 196.075 393.699 196.835 393.091 197.443C392.635 198.203 392.179 198.963 391.875 199.723C390.354 202.916 389.594 206.26 389.442 209.756C389.442 211.428 389.594 213.253 390.202 214.925C390.658 216.597 391.723 218.117 393.547 218.725C391.723 218.573 390.354 216.901 389.594 215.229C388.834 213.557 388.53 211.732 388.378 209.908C388.226 208.084 388.53 206.26 388.834 204.436C389.29 202.612 389.746 200.94 390.507 199.267C390.963 198.355 391.419 197.595 391.875 196.835C392.331 196.075 392.939 195.315 393.395 194.555C394.459 193.187 395.675 191.667 397.043 190.451C398.411 189.235 399.931 188.018 401.603 187.258C403.124 186.346 405.1 186.194 406.924 186.65Z" fill="#75819C"/>
</g>
<g opacity="0.5">
<path d="M214.477 67.168C217.061 68.3841 219.037 70.8163 219.494 73.8566C219.798 75.3767 219.646 76.8968 219.037 78.2649C218.429 79.6331 217.517 80.8492 216.605 81.9133C214.477 84.0415 211.893 85.4096 209.157 86.1696C206.42 86.9297 203.532 87.0817 200.796 86.4737C203.532 86.4737 206.268 85.8656 208.853 85.1055C211.437 84.1935 213.717 82.8253 215.541 80.8492C217.365 79.025 218.581 76.5928 218.429 74.0086C218.125 71.4243 216.757 68.8401 214.477 67.168Z" fill="#75819C"/>
</g>
</svg>
