<svg width="900" height="500" viewBox="0 0 900 500" fill="none" xmlns="http://www.w3.org/2000/svg">
<path opacity="0.33" d="M350.977 429.161C356.313 422.383 372.176 398.876 377.224 391.088C382.271 383.301 393.664 356.765 398.423 350.708C403.182 344.651 408.951 337.008 406.355 319.125C403.904 301.243 401.74 295.042 403.183 269.516C404.625 243.99 400.154 238.942 394.241 226.684C393.087 219.329 391.213 217.31 388.473 215.147C388.905 210.099 391.501 190.053 393.087 179.814C394.818 169.575 391.357 172.748 393.087 150.971C394.818 129.195 388.905 113.764 385.156 109.293C384.579 104.967 380.397 100.063 372.753 98.4771C365.254 96.7465 358.332 103.669 358.332 106.697C355.88 107.563 348.093 118.234 351.986 153.134C343.478 173.469 338.142 194.38 336.988 201.446C335.69 208.513 329.921 240.384 327.614 239.086C325.307 237.788 334.536 207.359 337.276 188.467C340.016 169.575 342.901 156.451 344.631 147.51C346.362 138.569 346.506 109.293 336.7 105.688C334.392 98.3329 327.326 96.4581 320.836 96.0254C314.346 95.5928 308.866 100.784 308.722 103.813C305.838 104.823 302.809 118.811 304.107 138.28C297.617 145.203 288.82 167.123 279.014 215.291C279.014 215.291 282.186 168.421 288.243 149.241C294.445 130.06 298.915 122.561 295.31 111.889C297.041 106.842 292.281 103.092 285.792 101.073C279.302 99.0539 271.947 102.515 270.505 106.553C265.313 107.418 256.66 122.849 252.911 135.108C245.989 147.366 237.768 168.998 234.596 181.256C231.423 193.514 229.981 238.365 228.106 241.394C226.231 244.422 222.914 244.711 220.318 241.826C217.723 238.942 217.001 238.077 216.28 232.741C215.559 227.261 214.261 217.743 212.675 210.676C211.233 203.609 209.502 189.621 210.079 184.429C210.656 179.237 217.29 170.007 216.569 157.893C215.848 145.779 208.204 141.165 206.185 139.578C204.166 138.136 201.859 134.675 194.937 136.55C188.014 138.425 184.697 154.288 184.697 154.288C184.697 154.288 175.9 171.45 174.458 175.343C173.016 179.237 173.304 183.996 171.862 190.342C170.42 196.687 172.295 203.033 170.132 209.378C168.113 215.724 168.978 226.107 171.285 234.76C173.593 243.413 171.862 243.845 173.737 250.479C175.612 256.969 179.361 265.91 180.659 272.111C181.957 278.313 181.525 292.013 182.39 302.685C183.255 313.357 188.159 319.27 189.456 333.258C190.754 347.247 193.494 386.185 195.369 397.434C197.244 408.683 198.398 412.144 192.773 429.45H350.977V429.161Z" fill="#445272"/>
<path d="M350.977 429.161C356.313 422.383 372.176 398.876 377.224 391.088C382.271 383.301 393.664 356.765 398.423 350.708C403.182 344.651 408.951 337.008 406.355 319.125C403.904 301.243 401.74 295.042 403.183 269.516C404.625 243.99 400.154 238.942 394.241 226.684C393.087 219.329 391.213 217.31 388.473 215.147C388.905 210.099 391.501 190.053 393.087 179.814C394.818 169.575 391.357 172.748 393.087 150.971C394.818 129.195 388.905 113.764 385.156 109.293C384.579 104.967 380.397 100.063 372.753 98.4771C365.254 96.7465 358.332 103.669 358.332 106.697C355.88 107.563 348.093 118.234 351.986 153.134C343.478 173.469 338.142 194.38 336.988 201.446C335.69 208.513 329.921 240.384 327.614 239.086C325.307 237.788 334.536 207.359 337.276 188.467C340.016 169.575 342.901 156.451 344.631 147.51C346.362 138.569 346.506 109.293 336.7 105.688C334.392 98.3329 327.326 96.4581 320.836 96.0254C314.346 95.5928 308.866 100.784 308.722 103.813C305.838 104.823 302.809 118.811 304.107 138.28C297.617 145.203 288.82 167.123 279.014 215.291C279.014 215.291 282.186 168.421 288.243 149.241C294.445 130.06 298.915 122.561 295.31 111.889C297.041 106.842 292.281 103.092 285.792 101.073C279.302 99.0539 271.947 102.515 270.505 106.553C265.313 107.418 256.66 122.849 252.911 135.108C245.989 147.366 237.768 168.998 234.596 181.256C231.423 193.514 229.981 238.365 228.106 241.394C226.231 244.422 222.914 244.711 220.318 241.826C217.723 238.942 217.001 238.077 216.28 232.741C215.559 227.261 214.261 217.743 212.675 210.676C211.233 203.609 209.502 189.621 210.079 184.429C210.656 179.237 217.29 170.007 216.569 157.893C215.848 145.779 208.204 141.165 206.185 139.578C204.166 138.136 201.859 134.675 194.937 136.55C188.014 138.425 184.697 154.288 184.697 154.288C184.697 154.288 175.9 171.45 174.458 175.343C173.016 179.237 173.304 183.996 171.862 190.342C170.42 196.687 172.295 203.033 170.132 209.378C168.113 215.724 168.978 226.107 171.285 234.76C173.593 243.413 171.862 243.845 173.737 250.479C175.612 256.969 179.361 265.91 180.659 272.111C181.957 278.313 181.525 292.013 182.39 302.685C183.255 313.357 188.159 319.27 189.456 333.258C190.754 347.247 193.494 386.185 195.369 397.434C197.244 408.683 198.398 412.144 192.773 429.45" stroke="#697695" stroke-width="2" stroke-miterlimit="10"/>
<path d="M220.463 241.539C217.867 238.511 217.146 237.789 216.425 232.454C215.704 226.973 214.406 217.455 212.82 210.389C211.377 203.322 209.647 189.333 210.224 184.142C210.801 178.95 217.434 169.72 216.713 157.606C215.992 145.492 208.349 140.877 206.33 139.291C204.311 137.849 202.003 134.388 195.081 136.262C188.159 138.137 184.842 154.001 184.842 154.001C184.842 154.001 176.045 171.162 174.603 175.056C173.161 178.95 173.449 183.709 172.007 190.054C170.565 196.4 172.439 202.745 170.276 209.091C168.257 215.436 169.123 225.82 171.43 234.473C173.737 243.125 172.007 243.558 173.882 250.192C175.756 256.682 179.506 265.623 180.804 271.824" stroke="#BA6DCD" stroke-width="3" stroke-miterlimit="10" stroke-linecap="round"/>
<g opacity="0.5">
<path d="M188.16 155.298C189.891 154.865 191.766 154.865 193.496 154.433C195.227 154 196.669 153.279 197.967 152.125C199.265 151.116 200.563 149.818 201.716 148.376C202.293 147.655 202.87 146.933 203.447 146.357C204.024 145.636 204.456 144.914 205.177 144.193C204.889 145.059 204.456 145.924 204.024 146.789C203.591 147.655 203.158 148.376 202.582 149.241C201.572 150.827 200.274 152.269 198.832 153.423C197.39 154.577 195.515 155.442 193.64 155.586C191.766 155.875 190.035 155.298 188.16 155.298Z" fill="#B1BBD0"/>
</g>
<path d="M378.81 291.581C378.522 280.909 377.079 261.007 378.81 249.037C380.541 237.212 388.617 215.291 388.617 215.291" stroke="#697695" stroke-width="2" stroke-miterlimit="10"/>
<path d="M271.658 238.798C274.687 232.164 278.436 222.79 279.013 215.146Z" fill="#445272"/>
<path d="M271.658 238.798C274.687 232.164 278.436 222.79 279.013 215.146" stroke="#697695" stroke-width="2" stroke-miterlimit="10"/>
<path opacity="0.33" d="M634.178 405.546C625.323 386.993 624.058 383.198 622.933 378.138C620.685 368.019 620.966 359.445 621.106 355.51C621.387 347.92 624.62 327.54 625.744 307.863C627.009 283.407 627.712 271.179 627.853 265.557C628.556 247.286 628.837 238.15 628.696 230.56C628.556 221.424 628.837 212.148 628.696 203.012C628.696 201.466 628.696 200.342 628.837 198.936C629.399 192.611 631.648 189.66 634.88 179.962C636.005 176.588 636.286 175.183 636.426 174.48C637.27 170.545 637.27 167.171 637.129 164.923C637.972 162.112 639.237 158.036 640.643 152.976C641.908 148.619 642.47 146.089 643.032 143.84C643.876 139.624 644.438 133.439 643.173 125.287C643.454 123.32 643.876 120.227 643.032 116.573C642.611 114.324 641.908 112.778 641.205 111.232C639.378 107.016 638.535 104.907 636.426 103.221C630.945 98.8637 624.339 100.972 623.777 101.253C621.528 101.956 620.263 103.08 618.295 104.907C616.609 106.313 611.689 110.67 609.441 117.838C608.597 120.368 608.878 120.93 608.316 126.693C607.895 130.488 606.348 143.278 602.132 153.257C600.867 156.349 599.602 158.317 599.321 158.879C597.775 161.549 596.51 162.955 594.542 165.344C593.137 167.171 591.31 169.842 589.201 173.215C589.904 163.236 591.591 155.365 593.137 150.024C594.683 144.543 596.229 140.748 601.991 122.757C604.662 114.324 605.224 112.497 605.365 109.405C605.365 106.875 605.505 96.3338 597.213 88.8846C589.904 82.2787 579.503 81.1543 572.616 83.8248C568.681 85.3708 565.167 88.3224 565.027 88.4629C562.497 90.7118 560.81 92.9606 559.686 94.6472C559.123 91.4145 557.999 86.6358 555.329 81.2949C553.361 77.3594 548.301 67.5209 537.338 62.461C530.873 59.5095 525.251 59.65 514.006 59.9311C508.244 60.0717 505.714 60.7744 503.465 61.7583C497.281 64.8504 494.189 70.8941 493.486 72.4401C492.643 74.2673 492.081 75.9539 491.799 77.0783C490.535 85.933 489.551 95.3499 488.848 105.329C488.145 116.011 487.864 126.131 488.005 135.548C488.707 139.483 488.145 142.435 487.723 143.981C487.021 146.089 486.459 148.197 484.491 149.04C483.085 149.603 481.258 149.322 479.993 148.338C478.869 147.494 478.588 146.089 478.447 145.808C478.447 145.808 477.885 143.559 470.295 117.276C469.733 115.027 470.014 117.135 460.738 93.6633C459.613 90.7118 458.348 87.3385 457.224 82.5598C456.802 80.7326 456.381 78.3433 455.818 69.7697C455.116 58.385 455.116 52.3414 453.289 44.7516C453.007 43.3461 452.445 41.3784 451.321 38.989C450.899 38.0052 448.791 33.367 445.277 29.9938C441.201 26.1989 433.049 22.1229 425.741 24.9339C418.572 27.7449 416.183 36.0375 414.918 40.8162C413.653 45.3138 413.934 50.7953 414.356 61.8988C414.637 67.5209 414.918 72.5807 415.902 79.3271C417.307 87.9007 418.01 87.4791 418.854 93.9444C419.978 103.08 418.432 104.486 419.275 114.746C419.697 118.963 419.837 117.135 421.805 130.066C423.773 142.575 423.632 144.262 425.038 150.727C426.022 155.084 426.443 156.209 427.849 161.971C428.973 167.171 429.817 171.388 430.238 174.34C430.098 176.167 429.957 178.697 429.816 181.929C429.676 188.114 429.816 194.86 430.66 204.839C432.206 221.424 433.471 221.565 433.471 230.138C433.471 237.447 432.487 239.977 431.503 247.848C430.519 256.562 429.676 279.331 436.141 300.695C437.828 306.176 438.25 309.268 440.92 319.81C442.466 325.572 442.326 326.135 444.434 334.568C447.104 345.39 448.51 351.153 450.899 357.618C453.007 363.381 453.57 363.24 459.754 376.03C461.019 378.56 466.641 390.085 472.263 403.438C474.793 409.481 478.307 417.914 481.961 428.034C536.214 427.893 590.326 427.893 644.578 427.753C640.643 419.179 636.989 411.449 634.178 405.546ZM550.971 125.709C548.442 132.877 547.317 135.688 545.209 138.78C543.522 141.31 541.836 143.278 540.711 144.543C538.743 137.796 538.743 126.974 539.446 115.87C540.852 115.87 544.647 115.589 546.895 115.027C549.706 114.324 553.501 112.497 556.031 110.108C554.064 116.995 551.815 123.179 550.971 125.709Z" fill="#445272"/>
<path d="M482.524 428.315C478.729 418.055 475.356 409.763 472.826 403.719C467.064 390.367 461.582 378.842 460.317 376.312C454.133 363.521 453.571 363.662 451.462 357.899C449.073 351.434 447.668 345.672 444.997 334.709C442.889 326.275 443.029 325.854 441.483 319.951C438.672 309.409 438.391 306.317 436.705 300.836C430.099 279.472 430.942 256.703 432.066 247.989C433.05 240.118 434.034 237.588 434.034 230.279C434.034 221.706 432.769 221.565 431.223 204.98C430.239 195.001 430.099 188.254 430.38 182.07C430.52 178.978 430.661 176.308 430.802 174.48" stroke="#697695" stroke-width="2" stroke-miterlimit="10"/>
<path d="M484.49 148.901C486.458 148.057 487.161 145.949 487.723 143.841C488.145 142.295 488.847 139.343 488.004 135.408C487.863 125.991 488.145 115.871 488.847 105.189C489.55 95.2101 490.534 85.6526 491.799 76.9384C492.08 75.814 492.642 74.1274 493.486 72.3002C494.329 70.7542 497.28 64.7105 503.465 61.6184C505.713 60.494 508.103 59.7912 514.006 59.6507C525.25 59.3696 530.872 59.229 537.337 62.1806C548.3 67.2404 553.22 77.079 555.187 81.0144C557.858 86.3553 558.982 91.1341 559.544 94.3667C560.669 92.6801 562.355 90.4313 564.885 88.1825C565.026 88.042 568.54 85.0904 572.475 83.5443C579.503 80.8738 589.763 81.9983 597.072 88.6042C605.364 96.0534 605.224 106.595 605.224 109.125C605.224 112.217 604.661 114.044 601.991 122.477C596.228 140.327 594.682 144.122 593.136 149.744C591.59 155.085 589.903 162.956 589.201 172.935C591.309 169.562 593.136 166.891 594.542 165.064C596.369 162.534 597.634 161.269 599.32 158.599C599.742 158.036 600.866 155.928 602.131 152.977C606.348 142.997 607.894 130.207 608.316 126.412C608.878 120.65 608.737 120.088 609.44 117.558C611.689 110.39 616.608 106.032 618.295 104.627C620.403 102.8 621.668 101.675 623.776 100.973C624.338 100.832 630.944 98.5833 636.426 102.94C638.534 104.627 639.377 106.735 641.205 110.952C641.907 112.498 642.47 114.044 643.032 116.293C643.734 119.947 643.453 123.039 643.172 125.007C644.578 133.159 643.875 139.484 643.032 143.56C642.61 145.949 641.907 148.338 640.642 152.695C639.237 157.615 637.972 161.831 637.129 164.642C637.269 166.891 637.269 170.264 636.426 174.2C636.285 174.902 636.004 176.449 634.88 179.681C631.788 189.379 629.539 192.331 628.836 198.656C628.696 200.202 628.696 201.185 628.696 202.732C628.836 211.867 628.555 221.144 628.696 230.28C628.836 237.869 628.555 247.005 627.852 265.277C627.712 270.899 627.009 283.127 625.744 307.583C624.76 327.4 621.527 347.64 621.106 355.229C620.965 359.165 620.684 367.738 622.933 377.858C624.057 382.918 625.463 386.713 634.177 405.265C636.988 411.169 640.642 418.758 644.999 427.754" stroke="#697695" stroke-width="2" stroke-miterlimit="10"/>
<path d="M430.518 174.48C430.097 171.669 429.253 167.312 428.129 162.112C426.864 156.208 426.442 155.225 425.318 150.867C423.772 144.262 423.912 142.715 422.085 130.206C420.118 117.135 419.977 119.103 419.555 114.886C418.712 104.486 420.258 103.221 419.134 94.0848C418.29 87.6195 417.447 88.0412 416.182 79.4675C415.058 72.7211 414.917 67.6613 414.636 62.0392C414.074 50.9357 413.933 45.4542 415.198 40.9566C416.604 36.1779 418.853 27.8853 426.021 25.0743C433.329 22.1228 441.481 26.1987 445.557 30.1342C449.071 33.5074 451.179 38.005 451.601 39.1294C452.585 41.3782 453.147 43.3459 453.569 44.892C455.396 52.4818 455.396 58.5255 456.099 69.9101C456.661 78.4837 457.082 80.7325 457.504 82.7002C458.488 87.479 459.893 90.8522 461.018 93.8037C470.154 117.416 469.873 115.167 470.575 117.416C478.165 143.559 478.727 145.948 478.727 145.948C478.868 146.37 479.149 147.635 480.273 148.478C481.398 149.462 483.365 149.743 484.771 149.181" stroke="#BA6DCD" stroke-width="3" stroke-miterlimit="10" stroke-linecap="round"/>
<path d="M559.826 94.506C559.264 99.0036 557.858 104.766 556.172 110.248C554.204 117.135 551.815 123.319 550.971 125.849C548.441 133.017 547.317 135.828 545.209 139.061C543.522 141.591 541.836 143.558 540.711 144.823C538.603 138.077 538.743 127.254 539.446 116.151C540.289 103.501 541.836 90.7111 541.976 83.6836" stroke="#697695" stroke-width="2" stroke-miterlimit="10"/>
<path d="M539.588 115.87C540.993 115.87 544.788 115.589 547.037 115.027C549.848 114.324 553.643 112.497 556.173 110.107" stroke="#697695" stroke-width="2" stroke-miterlimit="10"/>
<path d="M591.029 183.755C590.326 182.631 588.639 177.712 589.483 171.809Z" fill="#445272"/>
<path d="M591.029 183.755C590.326 182.631 588.639 177.712 589.483 171.809" stroke="#697695" stroke-width="2" stroke-miterlimit="10"/>
<g opacity="0.5">
<path d="M419.557 39.1304C419.838 40.9576 419.979 42.6442 420.4 44.4713C420.541 45.3146 420.822 46.1579 421.244 47.0012C421.665 47.704 422.087 48.4068 422.79 48.8284C424.195 49.5312 426.022 49.5312 427.568 49.1095C429.255 48.6879 430.942 47.9851 432.488 47.4229C434.174 46.7202 435.72 45.8769 437.126 45.0335C437.829 44.6119 438.531 44.0497 438.953 43.4875C439.375 42.9253 439.796 42.082 439.937 41.2387C440.359 39.5521 440.078 37.8654 439.796 36.0383C439.515 34.3517 438.953 32.5245 438.391 30.8379C439.234 32.384 439.937 34.0706 440.499 35.8977C440.921 37.5843 441.342 39.552 441.061 41.3792C440.921 42.3631 440.64 43.3469 439.937 44.0497C439.375 44.893 438.531 45.4552 437.829 46.0174C436.283 47.0013 434.737 47.8446 433.05 48.6879C431.363 49.3906 429.677 50.0934 427.85 50.515C426.022 50.9367 423.914 50.9367 422.228 49.8123C421.384 49.2501 420.822 48.2662 420.541 47.4229C420.26 46.5796 419.979 45.5957 419.838 44.7524C419.557 42.7847 419.417 40.9576 419.557 39.1304Z" fill="#B1BBD0"/>
</g>
</svg>
