<svg width="900" height="500" viewBox="0 0 900 500" fill="none" xmlns="http://www.w3.org/2000/svg">
<path opacity="0.33" d="M350.977 429.161C356.313 422.383 372.176 398.876 377.224 391.088C382.271 383.301 393.664 356.765 398.423 350.708C403.182 344.651 408.951 337.008 406.355 319.125C403.904 301.243 401.74 295.042 403.183 269.516C404.625 243.99 400.154 238.942 394.241 226.684C393.087 219.329 391.213 217.31 388.473 215.147C388.905 210.099 391.501 190.053 393.087 179.814C394.818 169.575 391.357 172.748 393.087 150.971C394.818 129.195 388.905 113.764 385.156 109.293C384.579 104.967 380.397 100.063 372.753 98.4771C365.254 96.7465 358.332 103.669 358.332 106.697C355.88 107.563 348.093 118.234 351.986 153.134C343.478 173.469 338.142 194.38 336.988 201.446C335.69 208.513 329.921 240.384 327.614 239.086C325.307 237.788 334.536 207.359 337.276 188.467C340.016 169.575 342.901 156.451 344.631 147.51C346.362 138.569 346.506 109.293 336.7 105.688C334.392 98.3329 327.326 96.4581 320.836 96.0254C314.346 95.5928 308.866 100.784 308.722 103.813C305.838 104.823 302.809 118.811 304.107 138.28C297.617 145.203 288.82 167.123 279.014 215.291C279.014 215.291 282.186 168.421 288.243 149.241C294.445 130.06 298.915 122.561 295.31 111.889C297.041 106.842 292.281 103.092 285.792 101.073C279.302 99.0539 271.947 102.515 270.505 106.553C265.313 107.418 256.66 122.849 252.911 135.108C245.989 147.366 237.768 168.998 234.596 181.256C231.423 193.514 229.981 238.365 228.106 241.394C226.231 244.422 222.914 244.711 220.318 241.826C217.723 238.942 217.001 238.077 216.28 232.741C215.559 227.261 214.261 217.743 212.675 210.676C211.233 203.609 209.502 189.621 210.079 184.429C210.656 179.237 217.29 170.007 216.569 157.893C215.848 145.779 208.204 141.165 206.185 139.578C204.166 138.136 201.859 134.675 194.937 136.55C188.014 138.425 184.697 154.288 184.697 154.288C184.697 154.288 175.9 171.45 174.458 175.343C173.016 179.237 173.304 183.996 171.862 190.342C170.42 196.687 172.295 203.033 170.132 209.378C168.113 215.724 168.978 226.107 171.285 234.76C173.593 243.413 171.862 243.845 173.737 250.479C175.612 256.969 179.361 265.91 180.659 272.111C181.957 278.313 181.525 292.013 182.39 302.685C183.255 313.357 188.159 319.27 189.456 333.258C190.754 347.247 193.494 386.185 195.369 397.434C197.244 408.683 198.398 412.144 192.773 429.45H350.977V429.161Z" fill="#697695"/>
<path d="M350.977 429.161C356.313 422.383 372.176 398.876 377.224 391.088C382.271 383.301 393.664 356.765 398.423 350.708C403.182 344.651 408.951 337.008 406.355 319.125C403.904 301.243 401.74 295.042 403.183 269.516C404.625 243.99 400.154 238.942 394.241 226.684C393.087 219.329 391.213 217.31 388.473 215.147C388.905 210.099 391.501 190.053 393.087 179.814C394.818 169.575 391.357 172.748 393.087 150.971C394.818 129.195 388.905 113.764 385.156 109.293C384.579 104.967 380.397 100.063 372.753 98.4771C365.254 96.7465 358.332 103.669 358.332 106.697C355.88 107.563 348.093 118.234 351.986 153.134C343.478 173.469 338.142 194.38 336.988 201.446C335.69 208.513 329.921 240.384 327.614 239.086C325.307 237.788 334.536 207.359 337.276 188.467C340.016 169.575 342.901 156.451 344.631 147.51C346.362 138.569 346.506 109.293 336.7 105.688C334.392 98.3329 327.326 96.4581 320.836 96.0254C314.346 95.5928 308.866 100.784 308.722 103.813C305.838 104.823 302.809 118.811 304.107 138.28C297.617 145.203 288.82 167.123 279.014 215.291C279.014 215.291 282.186 168.421 288.243 149.241C294.445 130.06 298.915 122.561 295.31 111.889C297.041 106.842 292.281 103.092 285.792 101.073C279.302 99.0539 271.947 102.515 270.505 106.553C265.313 107.418 256.66 122.849 252.911 135.108C245.989 147.366 237.768 168.998 234.596 181.256C231.423 193.514 229.981 238.365 228.106 241.394C226.231 244.422 222.914 244.711 220.318 241.826C217.723 238.942 217.001 238.077 216.28 232.741C215.559 227.261 214.261 217.743 212.675 210.676C211.233 203.609 209.502 189.621 210.079 184.429C210.656 179.237 217.29 170.007 216.569 157.893C215.848 145.779 208.204 141.165 206.185 139.578C204.166 138.136 201.859 134.675 194.937 136.55C188.014 138.425 184.697 154.288 184.697 154.288C184.697 154.288 175.9 171.45 174.458 175.343C173.016 179.237 173.304 183.996 171.862 190.342C170.42 196.687 172.295 203.033 170.132 209.378C168.113 215.724 168.978 226.107 171.285 234.76C173.593 243.413 171.862 243.845 173.737 250.479C175.612 256.969 179.361 265.91 180.659 272.111C181.957 278.313 181.525 292.013 182.39 302.685C183.255 313.357 188.159 319.27 189.456 333.258C190.754 347.247 193.494 386.185 195.369 397.434C197.244 408.683 198.398 412.144 192.773 429.45" stroke="#445272" stroke-width="2" stroke-miterlimit="10"/>
<path d="M220.462 241.539C217.866 238.511 217.145 237.789 216.424 232.454C215.703 226.973 214.405 217.455 212.819 210.389C211.376 203.322 209.646 189.333 210.223 184.142C210.8 178.95 217.433 169.72 216.712 157.606C215.991 145.492 208.348 140.877 206.329 139.291C204.31 137.849 202.002 134.388 195.08 136.262C188.158 138.137 184.841 154.001 184.841 154.001C184.841 154.001 176.044 171.162 174.602 175.056C173.16 178.95 173.448 183.709 172.006 190.054C170.564 196.4 172.438 202.745 170.275 209.091C168.256 215.436 169.122 225.82 171.429 234.473C173.736 243.125 172.006 243.558 173.881 250.192C175.755 256.682 179.505 265.623 180.803 271.824" stroke="#BA6DCD" stroke-width="3" stroke-miterlimit="10" stroke-linecap="round"/>
<g opacity="0.5">
<path d="M188.159 155.298C189.89 154.865 191.765 154.865 193.495 154.433C195.226 154 196.668 153.279 197.966 152.125C199.264 151.116 200.562 149.818 201.715 148.376C202.292 147.655 202.869 146.933 203.446 146.357C204.023 145.636 204.455 144.914 205.176 144.193C204.888 145.059 204.455 145.924 204.023 146.789C203.59 147.655 203.157 148.376 202.581 149.241C201.571 150.827 200.273 152.269 198.831 153.423C197.389 154.577 195.514 155.442 193.639 155.586C191.765 155.875 190.034 155.298 188.159 155.298Z" fill="#B1BBD0"/>
</g>
<path d="M378.81 291.581C378.522 280.909 377.079 261.007 378.81 249.037C380.541 237.212 388.617 215.291 388.617 215.291" stroke="#445272" stroke-width="2" stroke-miterlimit="10"/>
<path d="M271.658 238.798C274.687 232.164 278.436 222.79 279.013 215.146" stroke="#445272" stroke-width="2" stroke-miterlimit="10"/>
<path opacity="0.33" d="M514.662 429.034C513.269 426.248 510.9 422.068 507.277 417.33C502.261 410.782 498.917 408.552 492.926 402.282C487.213 396.151 483.59 391.275 479.132 385.005C475.927 380.546 475.509 379.431 465.198 362.432C452.519 341.393 446.249 330.943 444.577 328.853C443.741 327.877 441.651 325.509 439.978 321.747C438.167 317.567 437.888 313.944 437.47 309.207C436.913 301.265 436.634 297.224 436.495 292.765C436.216 286.634 435.241 281.479 433.569 270.89C432.594 264.62 431.479 259.046 430.086 248.735C429.946 248.178 429.946 247.342 429.807 246.227C429.25 242.883 428.553 242.605 428.414 240.515C428.274 238.843 428.832 238.564 428.553 236.753C428.414 235.359 428.135 234.523 427.996 233.966C427.299 231.458 428.414 229.089 429.25 226.999C430.782 223.376 437.61 213.066 448.199 199.968C446.806 196.485 444.995 191.608 443.044 185.756C440.536 178.232 437.192 168.2 434.544 155.66C432.315 144.792 433.29 145.07 430.504 131.555C428.832 123.334 428.135 121.801 426.881 114.277C424.791 102.155 424.93 96.4426 425.07 92.8199C425.627 85.0171 427.16 80.9764 427.856 79.4438C429.389 75.9604 431.479 71.3623 436.216 69.133C439.978 67.461 443.601 68.0183 445.552 68.4363C452.658 69.6903 456.977 74.4277 458.649 76.2391C463.247 81.1158 464.78 86.5498 465.755 89.7545C466.452 91.9839 466.87 94.2132 467.427 96.9999C468.403 101.459 468.542 103.409 468.96 106.196C470.353 114.138 472.861 120.129 474.255 123.474C475.091 125.564 476.484 128.211 479.271 133.506C485.123 144.652 485.123 144.095 487.631 149.25C491.254 156.496 493.762 162.487 496.966 170.569C497.245 171.126 499.892 177.953 500.868 180.322C502.54 184.641 503.376 186.592 505.466 187.846C505.744 187.985 508.949 189.657 511.457 187.846C512.572 187.149 512.851 185.895 513.687 183.666C514.523 181.297 514.801 179.347 514.801 179.068C515.498 173.634 515.219 166.667 515.08 164.995C515.637 155.102 515.08 147.439 514.523 142.144C513.826 135.874 514.244 129.465 512.851 123.334C512.572 122.22 512.015 119.572 512.572 116.367C513.269 112.884 514.941 110.376 515.916 109.122C520.932 102.295 529.292 99.3686 531.103 98.6719C531.8 98.3933 547.127 93.6559 561.2 102.016C562.872 102.991 563.986 104.942 564.962 104.663C571.51 102.713 580.289 105.778 588.927 109.54C594.361 112.048 599.656 114.835 604.115 116.925C605.369 116.925 612.475 118.318 618.466 123.892C616.934 122.498 618.048 118.875 618.745 115.253C619.302 112.187 620.417 109.958 620.556 109.401C622.925 104.524 626.548 101.459 628.916 99.9259C629.613 99.0899 630.728 97.8359 632.4 96.8606C633.514 96.1639 636.022 94.6312 638.948 95.0492C641.456 95.3279 642.989 96.8606 644.8 98.5326C648.005 101.598 649.259 105.221 649.817 106.893C650.374 108.425 650.653 109.679 650.792 110.655C651.767 112.048 653.021 113.999 654.275 116.367C657.759 122.777 659.431 128.072 659.988 130.162C661.381 134.899 661.799 138.522 662.775 146.046C663.75 153.709 663.053 153.43 663.889 158.307C665.004 164.299 666.119 165.692 666.537 170.987C666.815 174.47 666.676 176.839 666.397 180.461C666.258 183.109 665.84 186.174 663.889 197.042C662.635 203.73 662.078 207.074 661.103 211.115C659.709 217.106 658.316 222.262 657.201 226.163C657.062 228.393 656.923 231.597 656.783 235.499C656.087 250.825 655.669 258.489 655.39 261.415C653.857 277.16 651.767 278.274 652.046 289.7C652.185 294.298 652.464 294.437 652.882 302.519C653.3 312.551 653.161 320.214 653.021 323.419C652.603 337.492 651.349 339.164 651.489 351.425C651.489 358.252 651.907 363.408 652.046 364.801C652.882 375.251 654.693 382.915 656.365 390.717C658.316 399.495 659.291 403.815 661.381 409.528C664.586 418.166 668.348 424.854 671.135 429.313C619.442 428.895 567.052 428.895 514.662 429.034Z" fill="#697695"/>
<g opacity="0.5">
<path d="M430.782 82.0897C431.2 83.483 431.758 84.8764 432.454 86.1304C432.872 86.6877 433.29 87.3844 433.708 87.6631C433.987 87.8024 434.266 87.9417 434.544 87.9417C434.823 87.9417 435.241 87.9417 435.52 87.9417C438.446 87.5237 441.372 87.1057 444.158 86.4091C447.084 85.8517 449.871 85.155 452.518 83.901C453.076 83.6224 453.772 83.2044 454.051 82.7863C454.19 82.5077 454.19 82.3683 454.19 81.9503L454.33 80.8357C454.469 79.4423 454.33 77.9096 454.051 76.377C454.608 77.7703 454.887 79.303 455.026 80.8357V81.9503C455.026 82.229 455.026 82.7864 454.887 83.2044C454.469 84.0404 453.772 84.4584 453.076 84.8764C450.428 86.409 447.363 87.1057 444.437 87.8024C441.511 88.3597 438.585 88.7777 435.52 88.9171C435.102 88.9171 434.823 88.9171 434.405 88.9171C433.987 88.9171 433.569 88.6384 433.151 88.3597C432.454 87.8024 432.176 87.1057 431.758 86.4091C431.34 85.155 431.061 83.6224 430.782 82.0897Z" fill="#B1BBD0"/>
</g>
<path d="M514.663 429.035C513.269 426.248 510.901 422.068 507.278 417.331C502.262 410.782 498.918 408.553 492.926 402.283C487.214 396.152 483.591 391.275 479.132 385.005C475.928 380.546 475.51 379.432 465.199 362.433C452.519 341.393 446.249 330.943 444.577 328.853C443.741 327.878 441.651 325.509 439.979 321.747C438.168 317.567 437.889 313.945 437.471 309.207C436.914 301.265 436.635 297.224 436.496 292.766C436.217 286.635 435.242 281.48 433.57 270.89C432.594 264.62 431.48 259.047 430.086 248.736C429.947 248.179 429.947 247.343 429.808 246.228C429.25 242.884 428.554 242.605 428.414 240.515C428.275 238.843 428.832 238.564 428.554 236.753C428.414 235.36 428.136 234.524 427.996 233.966C427.3 231.458 428.414 229.09 429.25 227C430.783 223.377 437.61 213.066 448.2 199.969" stroke="#445272" stroke-width="2" stroke-miterlimit="10"/>
<path d="M509.646 188.403C510.342 188.263 511.178 188.124 511.875 187.567C512.99 186.87 513.268 185.616 514.104 183.386C514.94 181.018 515.219 179.067 515.219 178.788C515.916 173.354 515.637 166.388 515.498 164.716C516.055 154.823 515.498 147.159 514.94 141.865C514.244 135.595 514.662 129.185 513.268 123.055C512.99 121.94 512.432 119.293 512.99 116.088C513.686 112.604 515.358 110.096 516.334 108.842C521.35 102.015 529.71 98.9497 531.521 98.3923C553.675 92.1223 565.379 104.384 565.379 104.384C571.51 102.572 579.591 103.687 588.648 109.26C588.788 109.4 589.066 109.4 589.206 109.539C596.033 111.072 601.328 113.998 603.696 115.809C604.393 116.367 605.09 116.645 605.926 116.924C608.573 117.481 614.147 119.293 618.884 123.751C617.351 122.358 618.466 118.735 619.163 115.112C619.72 112.047 620.835 109.818 620.974 109.26C623.343 104.384 626.965 101.318 629.334 99.7857C630.031 98.9497 631.145 97.6957 632.817 96.7203C633.932 96.0236 636.301 94.491 639.227 94.909C639.784 94.909 640.481 95.1876 641.038 95.4663C647.447 98.8103 649.538 104.523 650.234 106.892C650.792 108.424 651.07 109.678 651.21 110.654C652.185 112.047 653.439 113.998 654.693 116.367C658.176 122.776 659.848 128.071 660.406 130.161C661.799 134.898 662.217 138.521 663.192 146.045C664.168 153.708 663.471 153.43 664.307 158.306C665.422 164.298 666.536 165.691 666.954 170.986C667.233 174.469 667.094 176.838 666.815 180.46C666.676 183.108 666.258 186.173 664.307 197.041C663.053 203.729 662.496 207.073 661.52 211.114C660.127 217.105 658.734 222.261 657.619 226.162C657.48 228.392 657.34 231.596 657.201 235.498C656.504 250.824 656.086 258.488 655.808 261.414C654.275 277.159 652.185 278.273 652.464 289.699C652.603 294.297 652.882 294.436 653.3 302.518C653.718 312.55 653.578 320.213 653.439 323.418C653.021 337.491 651.767 339.163 651.906 351.424C651.906 358.251 652.324 363.407 652.464 364.8C653.3 375.25 655.111 382.914 656.783 390.716C658.734 399.495 659.709 403.814 661.799 409.527C665.004 418.165 668.766 424.854 671.552 429.312" stroke="#445272" stroke-width="2" stroke-miterlimit="10"/>
<path d="M624.319 139.218C624.179 140.472 624.04 141.865 623.761 144.234C622.786 153.569 622.368 160.118 622.089 163.322C621.671 168.757 620.835 176.559 619.163 186.731C619.999 181.018 620.138 174.051 623.065 166.945C623.483 165.83 624.04 164.855 624.458 163.74C624.319 161.093 624.179 157.888 624.458 154.544C624.737 150.643 625.433 147.16 626.13 144.234C623.482 136.849 620.835 129.603 618.327 122.219" stroke="#445272" stroke-width="2" stroke-miterlimit="10"/>
<path d="M579.313 195.65C578.617 193.699 577.641 191.33 576.248 188.822C575.273 187.011 574.158 185.478 573.043 184.085C572.625 174.471 572.625 166.668 572.625 161.095C572.625 149.808 571.511 138.522 572.625 127.376C572.904 125.146 573.322 121.106 571.929 116.09C570.535 110.795 567.749 107.033 565.798 104.664" stroke="#445272" stroke-width="2" stroke-miterlimit="10"/>
<path d="M456.002 302.658C456.42 299.175 457.117 296.388 457.953 294.159C460.6 286.635 463.108 281.619 465.198 277.857C466.313 275.906 465.477 273.677 465.337 269.775C465.059 265.177 464.501 263.227 463.247 255.006C462.133 248.179 461.575 244.835 461.297 242.326C460.739 234.942 461.854 234.802 461.297 229.09C461.018 226.86 460.6 224.77 460.182 222.959" stroke="#445272" stroke-width="2" stroke-miterlimit="10"/>
<path d="M460.043 222.958C459.067 219.057 457.674 215.992 456.699 213.762C454.609 209.164 444.995 191.608 443.044 185.756C440.536 178.232 437.192 168.2 434.544 155.66C432.315 144.792 433.29 145.07 430.504 131.555C428.832 123.334 428.135 121.801 426.881 114.277C424.791 102.155 424.93 96.4426 425.07 92.8199C425.627 85.0171 427.16 80.9764 427.856 79.4438C429.389 75.9604 431.479 71.3623 436.216 69.133C439.978 67.461 443.601 68.0183 445.552 68.4363C452.658 69.6903 456.977 74.4277 458.649 76.2391C463.247 81.1158 464.78 86.5498 465.755 89.7545C466.452 91.9839 466.87 94.2132 467.427 96.9999C468.403 101.459 468.542 103.409 468.96 106.196C470.353 114.138 472.861 120.129 474.255 123.474C475.091 125.564 476.484 128.211 479.271 133.506C485.123 144.652 485.123 144.095 487.631 149.25C491.254 156.496 493.762 162.487 496.966 170.569C497.245 171.126 499.892 177.953 500.868 180.322C502.54 184.641 503.376 186.592 505.466 187.846C505.744 187.985 507.416 188.821 509.228 188.682" stroke="#BA6DCD" stroke-width="3" stroke-miterlimit="10" stroke-linecap="round"/>
</svg>
