<svg width="900" height="500" viewBox="0 0 900 500" fill="none" xmlns="http://www.w3.org/2000/svg">
<path opacity="0.33" d="M512.283 419.258C501.388 408.582 492.069 399.592 484.471 392.287C473.432 381.611 467.841 376.273 466.407 375.009C458.952 368.828 453.934 366.018 448.343 358.573C446.336 356.045 443.469 352.252 441.462 346.493C439.598 341.435 439.311 337.783 438.594 328.793C437.734 318.819 437.304 313.762 436.874 309.267C435.584 297.046 434.724 290.162 432.143 281.172C430.853 276.958 429.849 274.289 428.989 269.091C428.272 264.877 427.412 259.82 428.559 253.779C429.132 250.83 429.706 249.987 431.283 244.649C433.003 238.889 434.15 234.113 434.867 231.023C434.007 228.494 433.003 224.982 432 220.628C431.139 217.256 430.566 214.868 430.136 211.778C429.706 208.687 429.276 204.192 429.419 198.714C430.566 198.433 431.569 198.011 432.716 197.73C433.863 197.309 435.727 196.606 438.021 196.185C439.885 195.904 446.193 194.78 451.354 198.011C452.501 198.714 452.787 199.275 455.511 202.366C462.679 210.654 462.536 209.811 464.113 212.059C468.988 218.661 470.564 225.263 471.425 229.056C472.715 234.535 472.715 238.889 472.858 243.806C472.858 248.582 472.572 252.515 472.285 255.465C471.855 256.449 471.425 257.572 470.851 258.556C471.281 259.398 471.711 260.241 472.141 261.084C473.002 262.208 473.862 263.472 474.722 264.877C477.589 269.794 478.163 274.57 478.306 277.66C478.306 281.593 479.166 284.262 479.883 285.948C480.457 287.212 481.03 288.055 484.614 293.253C486.048 295.219 487.195 296.905 488.055 298.169C488.485 295.641 489.058 291.848 489.489 287.353C489.919 282.717 490.062 277.098 489.202 263.472C488.772 256.589 488.485 250.97 487.625 242.682C485.904 226.668 484.471 221.189 483.037 210.654C481.03 194.921 480.17 185.649 481.604 173.99C481.89 171.181 482.607 167.107 483.181 160.224C483.897 151.795 483.754 149.407 484.327 142.524C485.188 130.864 485.618 124.965 487.912 118.081C490.205 110.777 492.643 103.332 499.667 100.101C504.112 97.9935 508.556 98.4149 509.273 98.5554C514.864 99.2578 518.448 102.489 519.452 103.472C522.606 106.422 523.896 109.653 524.613 111.9C526.046 115.974 526.476 119.767 526.046 127.353C525.473 136.343 524.613 137.888 524.039 144.771C523.179 154.324 524.039 161.769 524.613 166.124C525.616 174.131 526.476 174.692 529.057 187.757C530.204 193.656 530.921 198.573 532.354 208.406C533.358 215.43 534.648 224.561 535.938 235.518C537.515 235.518 539.092 235.377 540.669 235.377C539.809 229.899 538.519 222.173 537.085 212.621C534.792 197.59 533.645 190.004 533.071 180.592C532.211 167.809 531.781 159.943 533.645 151.795C534.075 150.109 534.935 146.457 535.508 141.26C536.225 135.36 535.652 134.798 536.225 129.179C537.085 120.048 539.379 114.289 539.953 112.743C541.53 108.81 542.533 106.281 545.114 103.753C546.404 102.348 549.988 98.9768 555.723 98.134C561.314 97.4316 565.615 99.6792 566.905 100.522C571.493 103.051 573.643 106.843 574.36 108.248C575.937 111.058 576.224 113.446 576.797 116.817C577.514 121.874 577.371 125.807 577.227 127.212C576.941 133.814 577.371 140.417 577.371 146.879C577.227 159.24 578.804 170.338 580.955 185.93C582.245 195.764 584.252 207.704 587.263 221.189C589.7 222.032 592.28 222.875 594.718 223.718C596.295 219.785 598.302 213.885 599.449 206.58C600.452 199.697 600.309 194.499 599.879 185.649C599.305 173.288 597.872 164.016 597.442 161.769C595.865 151.936 594.718 145.333 591.85 136.624C590.56 132.691 588.696 127.774 587.836 120.61C587.263 115.272 587.549 111.76 588.84 108.529C589.7 106.281 590.99 102.91 594.431 100.803C600.596 97.1506 608.337 101.084 609.054 101.505C612.208 103.191 613.785 105.439 617.082 109.793C620.953 114.991 623.247 119.627 623.964 121.172C625.828 124.965 626.401 126.931 630.989 142.243C634.573 154.043 636.437 159.943 637.01 161.347C637.727 162.893 639.017 165.843 640.021 170.057C641.024 174.131 641.168 177.221 641.168 179.047C641.598 191.83 641.741 198.292 641.598 202.787C641.311 211.216 640.594 222.594 638.874 236.642C639.734 236.782 640.881 237.063 642.314 237.063C643.748 237.063 645.468 236.923 647.189 236.22C649.483 235.377 651.06 234.113 653.353 231.865C658.371 226.949 661.238 222.173 661.525 221.751C663.962 217.818 667.977 212.34 674.285 205.878C676.292 201.523 678.586 196.887 681.166 192.111C684.033 186.773 687.044 181.857 689.911 177.361C689.911 175.957 689.911 173.85 690.055 171.181C690.341 163.174 690.341 159.24 690.915 156.431C691.632 153.2 693.065 145.895 699.23 140.979C701.094 139.433 706.398 135.079 713.566 136.062C719.874 136.905 723.602 141.4 724.462 142.664C724.605 146.457 724.605 150.39 724.749 154.324C724.892 161.066 724.892 167.809 724.749 174.412C724.462 176.238 724.175 178.064 723.889 179.89C720.878 193.516 713.423 215.149 708.405 226.949C705.538 233.692 700.664 244.227 694.929 253.499C693.209 256.168 691.918 258.275 691.918 258.275C686.614 266.141 684.32 268.108 681.309 273.024C678.299 277.941 676.722 282.296 676.148 284.122C672.994 293.815 675.432 296.624 671.991 305.334C671.417 306.879 670.27 309.407 669.554 313.2C668.98 316.431 668.98 318.819 668.98 320.364C668.98 331.181 669.697 336.659 669.697 344.807C669.697 346.633 669.554 349.162 669.267 354.219C668.693 363.63 668.407 368.407 667.69 373.885C666.543 382.454 665.683 382.173 665.109 388.775C664.679 393.411 664.249 398.047 665.396 403.947C666.113 407.599 667.546 413.218 671.704 419.68C618.229 419.399 565.328 419.258 512.283 419.258Z" fill="#E0E1E2"/>
<path d="M512.283 419.258C501.388 408.582 492.069 399.592 484.471 392.287C473.432 381.611 467.841 376.273 466.407 375.009C458.952 368.828 453.934 366.018 448.343 358.573C446.336 356.045 443.469 352.252 441.462 346.493C439.598 341.435 439.311 337.783 438.594 328.793C437.734 318.819 437.304 313.762 436.874 309.267C435.584 297.046 434.724 290.162 432.143 281.172C430.853 276.958 429.849 274.289 428.989 269.091C428.272 264.877 427.412 259.82 428.559 253.779C429.132 250.83 429.706 249.987 431.283 244.649C433.003 238.889 434.15 234.113 434.867 231.023C434.007 228.494 433.003 224.982 432 220.628C431.139 217.256 430.566 214.868 430.136 211.778C429.706 208.687 429.276 204.192 429.419 198.714C430.566 198.433 431.569 198.011 432.716 197.73C433.863 197.309 435.727 196.606 438.021 196.185C439.885 195.904 446.193 194.78 451.354 198.011C452.501 198.714 452.787 199.275 455.511 202.366C462.679 210.654 462.536 209.811 464.113 212.059C468.988 218.661 470.564 225.263 471.425 229.056C472.715 234.535 472.715 238.889 472.858 243.806C472.858 248.582 472.572 252.515 472.285 255.465C471.855 256.449 471.425 257.572 470.851 258.556C471.281 259.398 471.711 260.241 472.141 261.084C473.002 262.208 473.862 263.472 474.722 264.877C477.589 269.794 478.163 274.57 478.306 277.66C478.306 281.593 479.166 284.262 479.883 285.948C480.457 287.212 481.03 288.055 484.614 293.253C486.048 295.219 487.195 296.905 488.055 298.169C488.485 295.641 489.058 291.848 489.489 287.353C489.919 282.717 490.062 277.098 489.202 263.472C488.772 256.589 488.485 250.97 487.625 242.682C485.904 226.668 484.471 221.189 483.037 210.654C481.03 194.921 480.17 185.649 481.604 173.99C481.89 171.181 482.607 167.107 483.181 160.224C483.897 151.795 483.754 149.407 484.327 142.524C485.188 130.864 485.618 124.965 487.912 118.081C490.205 110.777 492.643 103.332 499.667 100.101C504.112 97.9935 508.556 98.4149 509.273 98.5554C514.864 99.2578 518.448 102.489 519.452 103.472C522.606 106.422 523.896 109.653 524.613 111.9C526.046 115.974 526.476 119.767 526.046 127.353C525.473 136.343 524.613 137.888 524.039 144.771C523.179 154.324 524.039 161.769 524.613 166.124C525.616 174.131 526.476 174.692 529.057 187.757C530.204 193.656 530.921 198.573 532.354 208.406C533.358 215.43 534.648 224.561 535.938 235.518C537.515 235.518 539.092 235.377 540.669 235.377C539.809 229.899 538.519 222.173 537.085 212.621C534.792 197.59 533.645 190.004 533.071 180.592C532.211 167.809 531.781 159.943 533.645 151.795C534.075 150.109 534.935 146.457 535.508 141.26C536.225 135.36 535.652 134.798 536.225 129.179C537.085 120.048 539.379 114.289 539.953 112.743C541.53 108.81 542.533 106.281 545.114 103.753C546.404 102.348 549.988 98.9768 555.723 98.134C561.314 97.4316 565.615 99.6792 566.905 100.522C571.493 103.051 573.643 106.843 574.36 108.248C575.937 111.058 576.224 113.446 576.797 116.817C577.514 121.874 577.371 125.807 577.227 127.212C576.941 133.814 577.371 140.417 577.371 146.879C577.227 159.24 578.804 170.338 580.955 185.93C582.245 195.764 584.252 207.704 587.263 221.189C589.7 222.032 592.28 222.875 594.718 223.718C596.295 219.785 598.302 213.885 599.449 206.58C600.452 199.697 600.309 194.499 599.879 185.649C599.305 173.288 597.872 164.016 597.442 161.769C595.865 151.936 594.718 145.333 591.85 136.624C590.56 132.691 588.696 127.774 587.836 120.61C587.263 115.272 587.549 111.76 588.84 108.529C589.7 106.281 590.99 102.91 594.431 100.803C600.596 97.1506 608.337 101.084 609.054 101.505C612.208 103.191 613.785 105.439 617.082 109.793C620.953 114.991 623.247 119.627 623.964 121.172C625.828 124.965 626.401 126.931 630.989 142.243C634.573 154.043 636.436 159.943 637.01 161.347C637.727 162.893 639.017 165.843 640.021 170.057C641.024 174.131 641.168 177.221 641.168 179.047C641.598 191.83 641.741 198.292 641.598 202.787C641.311 211.216 640.594 222.594 638.874 236.642C639.734 236.782 640.881 237.063 642.314 237.063" stroke="#75819C" stroke-width="2" stroke-miterlimit="10"/>
<path d="M681.167 272.744C678.156 277.661 676.579 282.015 676.006 283.842C672.852 293.534 675.289 296.344 671.848 305.053C671.275 306.598 670.128 309.127 669.411 312.92C668.838 316.151 668.838 318.539 668.838 320.084C668.838 330.901 669.554 336.379 669.554 344.527C669.554 346.353 669.411 348.881 669.124 353.938C668.551 363.35 668.264 368.126 667.547 373.605C666.4 382.174 665.54 381.893 664.967 388.495C664.537 393.131 664.107 397.766 665.254 403.666C665.97 407.319 667.404 412.937 671.562 419.399" stroke="#75819C" stroke-width="2" stroke-miterlimit="10"/>
<path d="M642.458 236.783C643.892 236.783 645.612 236.642 647.332 235.94C649.626 235.097 651.203 233.833 653.497 231.585C658.515 226.669 661.382 221.892 661.669 221.471C664.106 217.538 668.12 212.059 674.428 205.597C676.435 201.243 678.729 196.607 681.31 191.831C684.177 186.493 687.188 181.576 690.055 177.081C690.055 175.676 690.055 173.569 690.198 170.9C690.485 162.893 690.485 158.96 691.058 156.15C691.775 152.92 693.209 145.615 699.373 140.698C701.237 139.153 706.542 134.798 713.71 135.782C720.018 136.625 723.745 141.12 724.606 142.384C724.749 146.177 724.749 150.11 724.892 154.043C725.036 160.786 725.036 167.529 724.892 174.131C724.606 175.957 724.319 177.783 724.032 179.61C721.021 193.236 713.567 214.869 708.549 226.669C705.681 233.411 700.807 243.947 695.073 253.218C693.352 255.887 692.062 257.994 692.062 257.994C686.757 265.861 684.464 267.828 681.453 272.744" stroke="#F69AED" stroke-width="3" stroke-miterlimit="10" stroke-linecap="round"/>
<g opacity="0.5">
<path d="M708.119 141.119C708.119 143.507 708.119 146.036 708.119 148.424C708.262 150.812 708.405 153.2 708.835 155.588C708.979 156.15 709.122 156.712 709.266 157.274C709.409 157.836 709.552 158.257 709.982 158.678C710.699 159.521 711.703 160.083 712.706 160.645C714.857 161.769 717.151 162.471 719.588 162.752C717.151 163.033 714.57 162.612 712.133 161.628C710.986 161.207 709.839 160.505 708.835 159.521C708.405 159.1 707.975 158.257 707.832 157.695C707.689 157.133 707.545 156.431 707.402 155.869C706.972 153.481 706.828 150.952 706.972 148.564C707.115 145.895 707.545 143.367 708.119 141.119Z" fill="#75819C"/>
</g>
<g opacity="0.5">
<path d="M439.024 228.214C440.027 227.371 440.601 226.388 440.887 225.264C441.174 224.14 441.174 223.016 441.174 221.893C441.174 220.769 441.031 219.505 440.887 218.381L440.6 214.869C440.457 212.481 440.314 210.093 439.74 207.845C439.454 206.721 439.167 205.598 438.593 204.474C438.163 203.491 437.447 202.507 436.156 201.945C437.447 202.086 438.45 203.069 439.167 204.052C439.884 205.176 440.314 206.3 440.744 207.424C441.461 209.812 441.747 212.2 441.891 214.588C442.034 216.976 442.321 219.364 442.178 221.893C442.178 223.157 441.891 224.421 441.461 225.545C441.031 226.669 440.17 227.652 439.024 228.214Z" fill="#75819C"/>
</g>
<path opacity="0.33" d="M348.287 429.433C364.457 412.83 389.433 380.491 401.56 371.107C413.687 361.723 411.233 340.789 415.997 324.331C420.761 307.872 432.455 281.597 430.579 277.843C433.61 275.966 434.477 269.181 435.487 262.54C436.498 255.899 440.829 252.29 440.685 248.392C443.716 244.494 456.854 224.282 456.998 219.951C457.143 215.619 446.893 205.658 425.67 215.475C404.448 225.292 392.032 249.258 390.732 253.445C389.433 257.631 391.165 261.674 390.155 263.695C389.144 265.716 386.257 265.283 382.214 277.843C378.316 290.259 376.584 300.509 371.098 304.408C371.531 297.189 372.253 265.861 373.263 253.589C374.274 241.318 384.236 205.225 387.556 189.633C390.732 174.041 389.433 158.737 391.165 147.332C392.898 135.927 393.042 113.405 385.824 104.165C378.461 94.9255 367.922 95.0699 360.992 104.165C354.062 113.261 354.784 138.237 353.918 147.332C348.432 161.192 336.593 195.119 334.716 204.647C332.84 214.176 327.787 234.243 326.343 234.821C324.899 235.398 319.702 233.81 320.568 227.314C321.434 220.817 335.005 164.224 335.438 158.882C337.604 153.829 342.512 137.371 342.512 131.884C345.4 127.265 349.298 101.567 341.069 99.2567C339.481 94.2037 336.593 91.605 326.92 91.0275C317.248 90.5944 312.772 95.3586 312.483 99.1123C309.596 101.422 308.008 104.021 307.719 106.331C307.719 103.877 303.244 96.9467 295.736 96.5136C288.229 96.0805 284.62 98.8235 280.866 103.155C276.391 104.887 270.471 110.084 262.387 122.5C254.302 134.916 251.992 140.691 248.383 145.167C243.763 149.065 236.111 156.427 233.079 162.924C230.048 169.421 221.53 191.943 219.653 194.397C217.776 196.851 215.177 197.573 212.868 207.679C210.558 217.785 207.381 221.539 205.938 229.912C204.494 238.43 204.35 241.462 204.061 248.68C203.772 255.755 201.895 267.449 192.078 283.474C182.261 299.499 190.057 324.619 183.849 351.472C177.641 378.325 185.726 397.96 171 429.433H348.287V429.433Z" fill="#E0E1E2"/>
<path d="M348.287 429.433C364.457 412.83 389.433 380.491 401.56 371.107C413.687 361.723 411.233 340.789 415.997 324.331C420.761 307.872 432.455 281.597 430.579 277.843C433.61 275.966 434.477 269.181 435.487 262.54C436.498 255.899 440.829 252.29 440.685 248.392C443.716 244.494 456.854 224.282 456.998 219.951C457.143 215.619 446.893 205.658 425.67 215.475C404.448 225.292 392.032 249.258 390.732 253.445C389.433 257.631 391.165 261.674 390.155 263.695C389.144 265.716 386.257 265.283 382.214 277.843C378.316 290.259 376.584 300.509 371.098 304.408C371.531 297.189 372.253 265.861 373.263 253.589C374.274 241.318 384.236 205.225 387.556 189.633C390.732 174.041 389.433 158.737 391.165 147.332C392.898 135.927 393.042 113.405 385.824 104.165C378.461 94.9255 367.922 95.0699 360.992 104.165C354.062 113.261 354.784 138.237 353.918 147.332C348.432 161.192 336.593 195.119 334.716 204.647C332.84 214.176 327.787 234.243 326.343 234.821C324.899 235.398 319.702 233.81 320.568 227.314C321.434 220.817 335.005 164.224 335.438 158.882C337.604 153.829 342.512 137.371 342.512 131.884C345.4 127.265 349.298 101.567 341.069 99.2567C339.481 94.2037 336.593 91.605 326.92 91.0275C317.248 90.5944 312.772 95.3586 312.483 99.1123C309.596 101.422 308.008 104.021 307.719 106.331C307.719 103.877 303.244 96.9467 295.736 96.5136C288.229 96.0805 284.62 98.8235 280.866 103.155C276.391 104.887 270.471 110.084 262.387 122.5C254.302 134.916 251.992 140.691 248.383 145.167C243.763 149.065 236.111 156.427 233.079 162.924C230.048 169.421 221.53 191.943 219.653 194.397C217.776 196.851 215.177 197.573 212.868 207.679C210.558 217.785 207.381 221.539 205.938 229.912C204.494 238.43 204.35 241.462 204.061 248.68C203.772 255.755 201.895 267.449 192.078 283.474C182.261 299.499 190.057 324.619 183.849 351.472C177.641 378.325 185.726 397.96 171 429.433" stroke="#75819C" stroke-width="2" stroke-miterlimit="10"/>
<path d="M247.228 146.178C242.609 150.076 235.967 156.572 233.08 163.069C230.048 169.566 221.53 192.088 219.654 194.542C217.777 196.996 215.178 197.718 212.868 207.824C210.558 217.93 207.382 221.684 205.938 230.057C204.495 238.575 204.35 241.607 204.062 248.825" stroke="#F69AED" stroke-width="3" stroke-miterlimit="10" stroke-linecap="round"/>
<path d="M219.942 246.515C223.119 243.772 224.995 240.307 224.995 232.944C224.995 225.437 227.738 201.183 228.749 193.098C229.76 185.013 231.636 176.207 233.08 173.608C234.379 170.865 247.228 150.075 250.405 142.424" stroke="#75819C" stroke-width="2" stroke-miterlimit="10"/>
<path d="M257.333 246.081C263.252 240.884 269.316 229.767 275.524 190.787C281.732 151.807 287.94 152.096 291.116 145.31C294.292 138.525 297.468 130.296 302.954 124.521C302.954 118.024 303.387 111.672 307.574 106.475" stroke="#75819C" stroke-width="2" stroke-miterlimit="10"/>
<g opacity="0.5">
<path d="M452.957 219.804C451.225 219.804 449.637 220.093 448.048 220.67C446.46 221.103 444.872 221.825 443.429 222.547C441.985 223.269 440.686 224.28 439.386 225.29C438.087 226.301 437.076 227.6 436.21 228.899C435.344 230.199 434.622 231.642 434.044 233.231C433.467 234.819 433.178 236.407 433.034 237.995C432.89 239.583 433.034 241.315 433.467 242.903C433.9 244.491 434.622 246.08 435.488 247.379C434.189 246.224 433.323 244.78 432.745 243.048C432.168 241.46 431.879 239.727 431.879 237.995C431.879 236.262 432.168 234.53 432.745 232.797C433.323 231.209 433.9 229.477 434.911 228.033C436.788 225.146 439.819 222.98 442.851 221.537C446.172 220.237 449.637 219.371 452.957 219.804Z" fill="#75819C"/>
</g>
</svg>
