<svg width="900" height="500" viewBox="0 0 900 500" fill="none" xmlns="http://www.w3.org/2000/svg">
<path opacity="0.33" d="M327.41 430.326C329.284 428.019 337.356 419.658 346.15 410.864C354.943 402.071 372.963 371.077 378.297 364.879C383.631 358.68 397.758 343.399 401.218 335.759C404.677 328.119 400.929 303.612 401.218 295.972C401.506 288.332 405.11 251.86 402.659 242.346C400.209 232.831 396.316 228.939 393.145 222.308C389.973 215.677 389.397 213.659 386.514 211.64C383.631 209.622 385.36 192.323 385.937 189.873C386.514 187.422 388.532 176.322 388.532 172.43C388.532 168.538 388.532 157.438 391.559 149.221C394.586 141.004 392.568 116.353 387.379 108.569C382.189 100.784 378.008 98.9101 371.81 98.4776C365.611 98.0452 358.836 104.1 357.106 107.848C355.376 111.596 353.069 115.056 350.475 145.617C346.871 153.834 339.951 161.041 336.924 170.988C333.897 180.935 325.824 206.018 323.95 216.398C322.076 226.777 311.408 240.904 315.733 233.264C320.058 225.768 319.625 207.316 327.698 182.809C335.771 158.303 334.762 159.888 334.762 158.591C334.762 157.293 339.519 152.825 341.104 142.157C344.132 137.256 350.042 112.893 339.086 105.83C338.942 100.784 335.627 97.3244 326.545 95.8828C317.463 94.4413 314.147 96.7478 312.129 102.37C308.813 103.235 303.768 115.488 302.903 125.579C300.452 127.021 288.632 138.986 286.325 143.454C284.019 147.923 277.532 170.412 276.234 176.178C274.937 181.944 266.576 217.983 264.269 221.299C261.963 224.614 260.954 226.921 262.828 219.857C264.702 212.794 273.351 170.267 277.099 162.627C280.847 154.987 281.28 148.644 291.659 133.796C302.038 118.948 300.597 111.74 298.723 106.983C296.848 102.226 295.407 98.1893 286.613 96.7478C277.82 95.3062 272.774 102.658 272.774 102.658C272.774 102.658 267.441 104.244 254.611 118.083C251.872 112.749 248.124 108.713 248.124 108.713C248.124 108.713 245.385 102.946 237.6 101.793C229.816 100.64 226.644 109.001 226.212 112.028C223.617 112.028 218.283 123.993 216.409 135.958C214.535 148.067 211.508 165.366 208.336 175.601C205.165 185.836 203.147 194.342 202.426 201.838C201.705 209.334 197.669 219.857 196.948 229.66C196.227 239.463 184.839 267.573 184.262 276.511C183.542 285.448 183.974 316.01 183.109 323.073C182.244 330.137 180.947 353.923 183.109 367.618C185.271 381.168 184.262 393.71 181.956 400.485C179.649 407.261 171 429.749 171 429.749H327.41V430.326Z" fill="#445272"/>
<path d="M327.41 430.326C329.284 428.019 337.356 419.658 346.15 410.864C354.943 402.071 372.963 371.077 378.297 364.879C383.631 358.68 397.758 343.399 401.218 335.759C404.677 328.119 400.929 303.612 401.218 295.972C401.506 288.332 405.11 251.86 402.659 242.346C400.209 232.831 396.316 228.939 393.145 222.308C389.973 215.677 389.397 213.659 386.514 211.64C383.631 209.622 385.36 192.323 385.937 189.873C386.514 187.422 388.532 176.322 388.532 172.43C388.532 168.538 388.532 157.438 391.559 149.221C394.586 141.004 392.568 116.353 387.379 108.569C382.189 100.784 378.008 98.9101 371.81 98.4776C365.611 98.0452 358.836 104.1 357.106 107.848C355.376 111.596 353.069 115.056 350.475 145.617C346.871 153.834 339.951 161.041 336.924 170.988C333.897 180.935 325.824 206.018 323.95 216.398C322.076 226.777 311.408 240.904 315.733 233.264C320.058 225.768 319.625 207.316 327.698 182.809C335.771 158.303 334.762 159.888 334.762 158.591C334.762 157.293 339.519 152.825 341.104 142.157C344.132 137.256 350.042 112.893 339.086 105.83C338.942 100.784 335.627 97.3244 326.545 95.8828C317.463 94.4413 314.147 96.7478 312.129 102.37C308.813 103.235 303.768 115.488 302.903 125.579C300.452 127.021 288.632 138.986 286.325 143.454C284.019 147.923 277.532 170.412 276.234 176.178C274.937 181.944 266.576 217.983 264.269 221.299C261.963 224.614 260.954 226.921 262.828 219.857C264.702 212.794 273.351 170.267 277.099 162.627C280.847 154.987 281.28 148.644 291.659 133.796C302.038 118.948 300.597 111.74 298.723 106.983C296.848 102.226 295.407 98.1893 286.613 96.7478C277.82 95.3062 272.774 102.658 272.774 102.658C272.774 102.658 267.441 104.244 254.611 118.083C251.872 112.749 248.124 108.713 248.124 108.713C248.124 108.713 245.385 102.946 237.6 101.793C229.816 100.64 226.644 109.001 226.212 112.028C223.617 112.028 218.283 123.993 216.409 135.958C214.535 148.067 211.508 165.366 208.336 175.601C205.165 185.836 203.147 194.342 202.426 201.838C201.705 209.334 197.669 219.857 196.948 229.66C196.227 239.463 184.839 267.573 184.262 276.511C183.542 285.448 183.974 316.01 183.109 323.073C182.244 330.137 180.947 353.923 183.109 367.618C185.271 381.168 184.262 393.71 181.956 400.485C179.649 407.261 171 429.749 171 429.749" stroke="#697695" stroke-width="2" stroke-miterlimit="10"/>
<path d="M212.805 225.912C216.841 221.587 220.157 214.956 220.445 208.036C220.733 201.117 220.012 165.222 229.094 151.527C238.176 137.832 254.754 118.659 254.754 118.659" stroke="#697695" stroke-width="2" stroke-miterlimit="10"/>
<path d="M373.826 309.956C371.808 306.207 369.357 303.757 369.357 300.874C369.357 297.991 370.943 264.979 372.673 253.158C374.259 241.337 382.331 207.172 385.07 200.108" stroke="#697695" stroke-width="2" stroke-miterlimit="10"/>
<path opacity="0.33" d="M690.194 431.885C690.194 431.885 684.606 425.867 679.735 422.715C676.583 420.709 674.147 419.563 673.144 419.133C661.969 414.118 664.691 414.118 630.878 398.358C611.392 389.332 607.667 388.042 598.927 382.741C590.187 377.44 584.456 372.998 583.023 371.852C580.731 370.132 575.143 365.691 560.099 349.787C540.613 329.442 539.18 325.717 532.876 321.991C531.587 321.275 527.862 319.126 524.566 314.971C522.56 312.535 521.557 310.243 520.125 306.518C517.402 299.64 515.683 294.482 514.107 289.324C509.665 275.856 508.949 274.28 508.233 272.848C504.937 266.4 501.069 261.242 501.069 261.242C497.487 256.514 494.765 254.222 493.618 249.35C493.189 247.774 492.759 245.482 493.475 242.903C495.051 237.745 500.352 235.596 501.069 235.309C503.934 234.163 506.657 234.306 508.949 234.736C516.256 235.882 522.274 239.464 528.148 243.906C535.885 249.637 544.052 255.798 551.789 266.83C555.657 272.418 558.236 277.576 559.812 281.444C561.102 282.017 562.964 282.734 564.97 284.166C566.976 285.456 568.266 286.602 569.125 287.462C578.582 296.202 585.316 305.228 585.316 305.228C586.318 306.518 587.178 307.664 587.608 308.38C590.187 308.237 592.909 308.237 595.488 308.094C596.921 299.497 597.494 292.19 597.637 286.602C598.21 272.561 596.634 267.833 595.775 265.397C594.915 263.105 593.769 260.812 591.333 256.084C588.468 250.64 585.889 246.341 584.169 243.476C572.85 229.291 563.251 218.259 556.66 210.809C543.479 195.908 537.461 190.32 529.294 177.712C526.429 173.414 526.142 172.411 517.689 159.229C510.095 147.194 506.227 141.176 504.364 138.311C499.35 130.86 497.487 128.711 494.765 123.267C489.32 112.664 489.75 108.079 490.323 105.787C490.61 104.354 491.613 99.4827 496.054 96.1874C502.215 91.4593 509.665 93.6084 510.525 93.895C514.107 95.0412 516.399 97.1903 518.119 98.9097C531.3 111.805 536.172 117.965 536.172 117.965C544.911 129.428 544.625 130.431 551.072 138.597C555.514 144.185 558.953 147.624 565.543 154.501C583.31 172.84 592.766 181.294 595.345 185.019C595.631 185.449 598.784 190.034 604.228 195.192C608.813 199.49 611.249 201.926 615.117 202.499C615.69 202.642 623.427 203.645 627.725 197.914C630.448 194.189 629.731 189.604 629.158 186.022C628.155 180.004 625.576 175.706 624.573 174.13C616.693 161.665 639.044 195.335 605.947 141.463C599.5 130.86 598.354 129.141 595.918 124.699C590.903 115.673 591.333 115.53 587.321 108.223C580.587 96.3307 572.421 84.1522 572.421 84.1522C569.698 79.9971 566.976 76.4152 565.543 70.6841C564.827 67.8186 563.824 63.9501 564.97 59.0787C565.4 57.3594 566.69 52.3447 571.418 48.9061C577.149 44.7511 583.74 46.1838 585.172 46.4704C586.175 46.7569 589.327 47.6166 595.202 52.9178C600.646 57.7892 603.225 61.801 608.24 68.1052C610.962 71.6871 613.684 74.8392 619.129 81.1433C631.737 95.7576 633.886 96.3307 639.617 104.641C642.77 109.226 644.919 112.807 648.93 119.828C653.945 128.711 657.24 135.588 658.387 137.881C662.398 146.191 669.276 159.659 681.311 181.867C681.884 182.153 683.747 182.87 685.609 182.01C686.755 181.437 687.615 180.434 688.475 178.285C690.337 172.697 688.618 165.963 688.045 163.384C685.609 154.071 684.463 151.349 683.174 146.191C682.314 142.609 681.168 137.165 680.738 130.144C677.729 126.276 675.437 122.837 673.861 120.544C670.135 114.957 666.983 109.512 660.679 98.7664C659.963 97.4769 659.246 96.3307 658.817 95.6143C653.372 89.8832 648.501 84.7253 644.632 80.2837C641.337 76.5585 639.331 74.2661 637.755 70.5409C636.752 68.2484 634.746 62.8039 636.895 57.0728C637.325 55.7834 638.758 52.3447 642.483 50.1956C646.925 47.4733 651.653 48.4763 652.799 48.7628C654.375 49.0494 655.521 49.6225 657.384 50.4821C660.249 51.7716 662.398 53.2044 663.974 54.2073C665.121 54.6371 666.697 55.3535 668.559 56.2132C668.559 56.2132 672.714 58.2191 676.583 61.0846C685.896 67.8186 698.504 82.2895 698.504 82.2895C711.256 97.0471 718.706 108.366 720.712 111.518C720.712 111.518 725.727 117.536 728.306 123.983C728.879 125.559 729.452 127.135 729.452 127.135C730.312 130.001 730.598 132.293 730.598 133.153C730.598 133.153 730.741 134.299 734.323 149.63C735.183 158.799 736.043 167.969 736.902 177.139C737.046 177.282 738.049 177.855 739.051 177.569C740.341 177.139 740.628 175.276 740.771 174.416C744.209 154.071 744.496 141.749 744.496 141.749C744.639 136.735 744.783 134.012 744.639 129.571C744.496 125.989 744.353 122.55 743.78 118.539C743.206 114.813 742.49 112.521 736.616 95.0412C734.61 89.3101 734.323 88.3072 733.894 86.3013C733.177 82.5761 732.317 77.2749 734.18 71.2572C735.04 68.535 736.472 63.6636 741.344 60.2249C742.347 59.5086 748.078 55.4968 754.669 57.3594C755.672 57.646 759.54 58.9354 761.832 62.8039C763.265 65.0963 763.409 67.3888 763.409 68.6783C763.982 70.111 764.555 71.6871 765.271 73.2631C767.42 78.4211 769.713 82.003 770.143 82.8627C771.289 84.8685 774.011 90.0265 784.184 126.849C785.187 130.287 786.476 135.015 787.336 141.463C788.052 146.907 788.195 151.062 788.339 153.068C788.769 168.256 789.055 183.3 789.342 190.607C789.915 208.23 790.201 217.256 792.78 225.996C793.926 229.865 796.505 235.739 801.807 247.344C809.257 263.964 821.865 304.082 824.158 319.413C827.453 341.907 827.453 347.495 831.035 359.673C832.468 364.545 832.754 364.545 834.474 369.989C839.345 385.32 841.351 406.381 844.073 410.25C846.939 414.405 858.401 432.171 858.401 432.171L690.194 431.885Z" fill="#445272"/>
<path d="M690.194 431.885C688.045 429.306 684.606 425.867 679.735 422.715C676.583 420.709 674.147 419.563 673.144 419.133C661.969 414.118 664.691 414.118 630.878 398.358C611.392 389.332 607.667 388.042 598.927 382.741C590.187 377.44 584.456 372.998 583.023 371.852C580.731 370.132 575.143 365.691 560.099 349.787C540.613 329.442 539.18 325.717 532.876 321.991C531.587 321.275 527.862 319.126 524.566 314.971C522.56 312.535 521.557 310.243 520.125 306.518C517.402 299.64 515.683 294.482 514.107 289.324C509.665 275.856 508.949 274.28 508.233 272.848C504.937 266.4 501.069 261.242 501.069 261.242C497.487 256.514 494.765 254.222 493.618 249.35C493.189 247.774 492.759 245.482 493.475 242.903C495.051 237.745 500.352 235.596 501.069 235.309C503.934 234.163 506.657 234.306 508.949 234.736C516.256 235.882 522.274 239.464 528.148 243.906C535.885 249.637 544.052 255.798 551.789 266.83C555.657 272.418 558.236 277.576 559.812 281.444C561.102 282.017 562.964 282.734 564.97 284.166C566.976 285.456 568.266 286.602 569.125 287.462C578.582 296.202 585.316 305.228 585.316 305.228C586.318 306.518 587.178 307.664 587.608 308.38C590.187 308.237 592.909 308.237 595.488 308.094C596.921 299.497 597.494 292.19 597.637 286.602C598.21 272.561 596.634 267.833 595.775 265.397C594.915 263.105 593.769 260.812 591.333 256.084C588.468 250.64 585.889 246.341 584.169 243.476C572.85 229.291 563.251 218.259 556.66 210.809C543.479 195.908 537.461 190.32 529.294 177.712C526.429 173.414 526.142 172.411 517.689 159.229C510.095 147.194 506.227 141.176 504.364 138.311C499.35 130.86 497.487 128.711 494.765 123.267C489.32 112.664 489.75 108.079 490.323 105.787C490.61 104.354 491.613 99.4827 496.054 96.1874C502.215 91.4593 509.665 93.6084 510.525 93.895C514.107 95.0412 516.399 97.1903 518.119 98.9097C531.3 111.805 536.172 117.965 536.172 117.965C544.911 129.428 544.625 130.431 551.072 138.597C555.514 144.185 558.953 147.624 565.543 154.501C583.31 172.84 592.766 181.294 595.345 185.019C595.631 185.449 598.784 190.034 604.228 195.192C608.813 199.49 611.249 201.926 615.117 202.499C615.69 202.642 623.427 203.645 627.725 197.914C630.448 194.189 629.731 189.604 629.158 186.022C628.155 180.004 625.576 175.706 624.573 174.13C624.573 174.13 598.354 129.141 595.918 124.699C590.903 115.673 591.333 115.53 587.321 108.223C580.587 96.3307 572.421 84.1522 572.421 84.1522C569.698 79.9971 566.976 76.4152 565.543 70.6841C564.827 67.8186 563.824 63.9501 564.97 59.0787C565.4 57.3594 566.69 52.3447 571.418 48.9061C577.149 44.7511 583.74 46.1838 585.172 46.4704C586.175 46.7569 589.327 47.6166 595.202 52.9178C600.646 57.7892 603.225 61.801 608.24 68.1052C610.962 71.6871 613.684 74.8392 619.129 81.1433C631.737 95.7576 633.886 96.3307 639.617 104.641C642.77 109.226 644.919 112.807 648.93 119.828C653.945 128.711 657.24 135.588 658.387 137.881C662.398 146.191 669.276 159.659 681.311 181.867C681.884 182.153 683.747 182.87 685.609 182.01C686.755 181.437 687.615 180.434 688.475 178.285C690.337 172.697 688.618 165.963 688.045 163.384C685.609 154.071 684.463 151.349 683.174 146.191C682.314 142.609 681.168 137.165 680.738 130.144C677.729 126.276 675.437 122.837 673.861 120.544C670.135 114.957 666.983 109.512 660.679 98.7664C659.963 97.4769 659.246 96.3307 658.817 95.6143C653.372 89.8832 648.501 84.7253 644.632 80.2837C641.337 76.5585 639.331 74.2661 637.755 70.5409C636.752 68.2484 634.746 62.8039 636.895 57.0728C637.325 55.7834 638.758 52.3447 642.483 50.1956C646.925 47.4733 651.653 48.4763 652.799 48.7628C654.375 49.0494 655.521 49.6225 657.384 50.4821C660.249 51.7716 662.398 53.2044 663.974 54.2073C665.121 54.6371 666.697 55.3535 668.559 56.2132C668.559 56.2132 672.714 58.2191 676.583 61.0846C685.896 67.8186 698.504 82.2895 698.504 82.2895C711.256 97.0471 718.706 108.366 720.712 111.518C720.712 111.518 725.727 117.536 728.306 123.983C728.879 125.559 729.452 127.135 729.452 127.135C730.312 130.001 730.598 132.293 730.598 133.153C730.598 133.153 730.741 134.299 734.323 149.63C735.183 158.799 736.043 167.969 736.902 177.139C737.046 177.282 737.619 177.569 738.335 177.569" stroke="#697695" stroke-width="2" stroke-miterlimit="10"/>
<path d="M789.197 190.176C789.77 207.799 790.057 216.825 792.636 225.565C793.782 229.434 796.361 235.308 801.662 246.913C809.113 263.533 821.721 303.651 824.013 318.982C827.309 341.476 827.309 347.064 830.891 359.242C832.323 364.114 832.61 364.114 834.329 369.558C839.201 384.889 841.207 405.95 843.929 409.819C846.794 413.974 858.257 431.74 858.257 431.74" stroke="#697695" stroke-width="2" stroke-miterlimit="10"/>
<path d="M739.338 176.852C740.197 176.136 740.484 174.703 740.627 173.844C744.066 153.498 744.352 141.176 744.352 141.176C744.496 136.162 744.639 133.44 744.496 128.998C744.352 125.416 744.209 121.977 743.636 117.966C743.063 114.24 742.346 111.948 736.472 94.4683C734.466 88.7372 734.18 87.7343 733.75 85.7284C733.033 82.0032 732.174 76.702 734.036 70.6844C734.896 67.9621 736.329 63.0907 741.2 59.652C742.203 58.9357 747.934 54.9239 754.525 56.7865C755.528 57.0731 759.396 58.3625 761.689 62.231C762.548 63.6638 762.978 65.0966 763.121 66.2428C763.408 67.8188 763.695 69.3949 764.411 70.9709C764.698 71.544 764.841 72.1171 765.127 72.6902C767.277 77.8482 769.569 81.4301 769.999 82.2898C771.145 84.2956 773.867 89.4536 784.04 126.276C785.043 129.714 786.332 134.442 787.192 140.89C787.908 146.334 788.052 150.489 788.195 152.495C788.625 167.683 788.911 182.727 789.198 190.034" stroke="#BA6DCD" stroke-width="3" stroke-miterlimit="10" stroke-linecap="round"/>
<g opacity="0.5">
<path d="M510.955 269.265C512.101 268.119 513.39 266.973 514.393 265.683C515.396 264.394 516.256 262.961 516.399 261.385C516.829 258.233 515.683 255.081 514.68 251.785C513.963 248.633 512.387 245.624 509.808 243.905C508.519 243.046 506.943 242.329 505.367 242.043C503.791 241.756 502.071 241.613 500.352 241.756C501.928 241.326 503.648 241.183 505.367 241.326C507.086 241.469 508.805 242.043 510.382 242.902C511.958 243.762 513.247 245.051 514.107 246.627C515.11 248.06 515.683 249.78 515.969 251.499C516.399 253.075 516.972 254.651 517.259 256.37C517.545 258.09 517.689 259.809 517.259 261.671C516.829 263.391 515.826 264.967 514.68 266.113C513.677 267.259 512.244 268.262 510.955 269.265Z" fill="#B1BBD0"/>
</g>
<g opacity="0.5">
<path d="M745.355 61.8008C745.928 63.6634 746.789 65.526 747.505 67.2453C748.365 68.9646 749.224 70.6839 750.513 71.9734C750.8 72.26 751.23 72.5465 751.516 72.8331L752.089 73.1196L752.807 73.4062C753.666 73.836 754.669 74.1226 755.529 74.2659C756.389 74.5524 757.391 74.6957 758.393 74.6957C759.396 74.839 760.399 74.839 761.259 74.5524C760.399 75.1255 759.396 75.2688 758.393 75.4121C757.391 75.4121 756.388 75.4121 755.385 75.2688C754.382 75.1255 753.379 74.839 752.376 74.5524C752.089 74.4091 751.946 74.4091 751.659 74.2659L750.943 73.836C750.513 73.5495 750.083 73.2629 749.654 72.8331C748.078 71.2571 747.219 69.3944 746.503 67.5318C745.786 65.8125 745.355 63.8067 745.355 61.8008Z" fill="#B1BBD0"/>
</g>
</svg>
