<svg width="900" height="500" viewBox="0 0 900 500" fill="none" xmlns="http://www.w3.org/2000/svg">
<path opacity="0.33" d="M694.391 428.438C687.6 414.134 682.831 400.841 680.953 371.365C679.075 341.888 682.687 339.577 680.953 316.314C679.219 293.051 677.485 298.108 679.219 280.624C680.809 263.141 671.272 240.456 671.128 231.931C670.983 223.406 671.706 194.219 669.105 180.493C666.504 166.766 660.435 157.952 656.101 134.4C651.766 110.848 635.294 95.5321 624.746 98.9999C614.198 102.468 612.465 113.449 613.765 117.495C609.141 108.392 606.107 103.046 603.217 99.5778C600.327 96.11 591.947 92.0643 591.947 92.0643C591.947 92.0643 578.943 89.319 573.886 101.023C569.695 101.89 569.695 110.993 569.84 113.449C568.828 107.958 566.95 100.156 565.361 97.6994C563.627 95.2431 560.303 91.3419 555.68 89.319C551.056 87.2961 539.208 88.0186 536.174 90.4749C533.139 92.9312 527.649 97.9884 528.082 102.901C528.516 107.958 530.105 112.437 530.394 125.297C530.683 138.157 534.873 165.321 535.74 172.112C536.607 178.903 548.311 241.468 548.311 241.468C548.311 241.468 547.877 242.479 547.155 241.757C546.577 241.034 532.85 164.743 527.938 153.473C529.816 141.48 530.972 107.525 523.169 100.011C519.846 92.4978 499.617 86.5737 491.959 103.479C484.301 120.24 486.758 150.294 485.313 161.853C483.868 173.413 485.457 199.132 486.902 206.79C485.891 198.987 483.29 191.763 478.811 187.284C474.332 182.804 466.963 178.325 461.761 176.447C457.571 175.002 452.225 176.88 449.913 179.192C449.19 179.915 448.179 180.637 447.167 180.782C446.011 181.07 445 181.937 445 181.937C445 184.394 446.878 196.675 453.669 208.813C451.936 211.414 454.247 222.25 452.369 229.908C450.491 237.422 448.323 242.624 451.647 251.293C450.346 253.605 452.08 259.962 454.97 262.274C453.236 267.62 455.403 274.411 461.183 288.571C468.407 306.344 464.795 325.995 469.852 336.109C474.91 346.223 480.978 349.691 487.625 360.094C494.127 370.498 519.557 403.008 529.96 411.244C540.364 419.48 544.698 428.294 544.698 428.294H694.391V428.438Z" fill="#445272"/>
<path d="M694.391 428.438C687.6 414.134 682.831 400.841 680.953 371.365C679.075 341.888 682.687 339.577 680.953 316.314C679.219 293.051 677.485 298.108 679.219 280.624C680.809 263.141 671.272 240.456 671.128 231.931C670.983 223.406 671.706 194.219 669.105 180.492C666.504 166.766 662.603 156.652 656.101 134.4C648.876 109.548 635.294 95.532 624.746 98.9998C614.198 102.468 612.465 113.449 613.765 117.495C609.141 108.392 606.107 103.046 603.217 99.5778C601.05 96.9769 595.126 92.4977 590.213 91.7753C586.601 91.1973 577.787 91.9198 573.886 100.878C570.129 102.179 569.695 110.848 569.84 113.304C568.828 107.814 566.95 100.011 565.361 97.5549C563.627 95.0986 560.303 91.1973 555.68 89.1745C551.056 87.1516 539.208 87.874 536.174 90.3304C533.139 92.7867 527.649 97.8439 528.082 102.757C528.516 107.814 530.105 112.293 530.394 125.153C530.683 138.012 534.873 165.177 535.74 171.968C536.607 178.759 548.311 241.323 548.311 241.323C548.311 241.323 547.877 242.334 547.155 241.612C546.577 240.89 532.85 164.599 527.938 153.328C529.816 141.336 530.972 107.38 523.169 99.8668C519.846 92.3532 499.617 86.4291 491.959 103.335C484.301 120.095 486.758 150.149 485.313 161.709C483.868 173.268 485.457 198.987 486.902 206.645C485.891 198.843 483.29 191.618 478.811 187.139C474.332 182.66 466.963 178.181 461.761 176.302C457.571 174.857 452.225 176.736 449.913 179.192C449.046 180.059 447.89 180.926 446.589 181.07C445.578 181.215 445 181.504 445 181.504C445 183.816 446.589 194.942 452.225 206.067C452.947 207.512 453.38 209.102 453.091 210.691C452.513 214.881 453.958 223.551 452.369 229.764C450.491 237.277 448.323 242.479 451.647 251.148C451.936 255.772 453.38 260.396 454.97 262.13C454.536 268.343 455.403 274.267 461.183 288.427C468.407 306.199 464.795 325.85 469.852 335.964C474.91 346.079 480.978 349.546 487.625 359.95C494.127 370.353 519.557 402.863 529.96 411.099C540.364 419.335 544.698 428.149 544.698 428.149" stroke="#697695" stroke-width="2" stroke-miterlimit="10"/>
<path d="M491.815 328.884C492.248 321.515 495.571 308.944 495.86 304.465C496.294 299.986 494.994 306.344 494.705 286.982C494.56 267.476 492.826 236.844 489.647 223.117C486.469 209.39 487.336 206.645 485.891 201.732" stroke="#697695" stroke-width="2" stroke-miterlimit="10"/>
<path d="M597.726 228.897C594.548 224.129 590.935 215.749 590.502 193.497C590.068 171.245 583.422 165.899 582.988 150.583C582.555 135.267 571.574 130.355 569.695 113.594" stroke="#697695" stroke-width="2" stroke-miterlimit="10"/>
<path d="M636.74 223.406C636.884 217.915 637.029 190.173 634.139 173.557C631.249 156.94 628.359 150.583 624.891 143.213C621.279 135.7 615.21 124.285 613.477 117.639" stroke="#697695" stroke-width="2" stroke-miterlimit="10"/>
<g opacity="0.5">
<path d="M453.092 182.805C454.392 183.094 455.548 183.816 456.704 184.683C457.715 185.695 458.438 186.85 458.871 188.151C459.594 190.752 460.316 193.208 460.75 195.953C461.183 198.554 461.617 201.299 461.328 204.045C461.328 204.767 461.039 205.49 460.894 206.068C460.605 206.79 460.172 207.368 459.594 207.802C458.438 208.813 456.993 208.957 455.693 208.524C456.993 208.669 458.293 208.235 459.16 207.224C460.027 206.357 460.172 205.056 460.172 203.756C460.172 201.155 459.738 198.554 459.305 196.098C458.871 193.497 458.293 190.896 457.716 188.44C457.282 186.128 455.548 183.961 453.092 182.805Z" fill="#B1BBD0"/>
</g>
<path opacity="0.33" d="M290.136 441.021C294.659 436.499 292.85 433.936 306.719 423.383C320.589 412.829 346.067 384.788 354.208 374.688C362.199 364.587 380.893 349.059 383.154 343.782C385.415 338.505 386.471 314.384 394.009 295.841C401.547 277.297 406.069 258.151 405.014 250.462C403.959 242.623 398.833 227.245 397.928 225.889C398.833 224.381 402.753 205.536 402.602 191.214C396.572 184.279 373.958 186.541 361.294 216.391C348.63 246.241 357.073 254.08 357.073 254.08C357.073 254.08 349.535 262.523 344.861 280.765C340.188 299.007 340.489 274.131 348.63 245.638C356.771 217.145 372.45 185.334 374.862 179.304C377.274 173.274 378.481 163.625 384.36 151.414C390.24 139.052 391.596 125.785 392.049 119.453C392.35 113.272 391.596 105.282 388.431 102.417C387.375 98.799 385.114 93.221 374.712 92.316C364.309 91.412 360.088 102.417 360.088 102.417C360.088 102.417 355.565 106.186 351.193 120.056C346.821 133.926 347.424 137.242 331.444 158.047C315.463 178.852 301.895 218.954 300.387 220.461C298.88 221.969 294.508 217.295 304.91 189.254C315.313 161.062 316.368 161.967 317.725 160.61C319.082 159.253 334.76 147.796 342.298 126.237C349.987 104.679 341.545 99.703 341.545 99.703C341.545 99.703 339.735 91.864 327.524 90.959C315.162 90.055 312.75 100.608 312.75 100.608C312.75 100.608 307.021 104.377 302.498 114.327L299.332 115.684C299.332 115.684 302.347 109.051 302.046 100.759C301.895 92.467 292.548 89 286.216 89C279.884 89 268.276 98.045 266.768 100.307C264.356 101.06 259.683 101.211 254.105 107.392C251.089 103.02 248.074 99.553 242.647 96.688C237.22 93.673 233.3 95.934 232.244 97.744C231.189 99.553 227.42 106.035 227.42 106.035C227.42 106.035 222.445 107.241 210.384 128.498C198.475 149.605 195.158 161.364 191.69 166.188C188.223 171.012 182.494 177.344 182.343 183.676C182.193 190.159 174.504 202.822 174.052 212.622C173.599 222.572 159.88 257.699 156.714 267.196C153.548 276.694 155.357 325.842 152.945 353.883C150.533 381.773 148.423 394.286 143.297 404.538C138.02 414.789 128.221 436.348 124 441.021H290.136Z" fill="#445272"/>
<path d="M290.136 441.021C294.659 436.499 292.85 433.936 306.719 423.383C320.589 412.829 346.067 384.788 354.208 374.688C362.199 364.587 380.893 349.059 383.154 343.782C385.415 338.505 386.471 314.384 394.009 295.841C401.547 277.297 406.069 258.151 405.014 250.462C403.959 242.623 398.833 227.245 397.928 225.889C398.833 224.381 402.753 205.536 402.602 191.214C396.572 184.279 373.958 186.541 361.294 216.391C348.63 246.241 357.073 254.08 357.073 254.08C357.073 254.08 349.535 262.523 344.861 280.765C340.188 299.007 340.489 274.131 348.63 245.638C356.771 217.145 372.45 185.334 374.862 179.304C377.274 173.274 378.481 163.625 384.36 151.414C390.24 139.052 391.596 125.785 392.049 119.453C392.35 113.272 391.596 105.282 388.431 102.417C387.375 98.799 385.114 93.221 374.712 92.316C364.309 91.412 360.088 102.417 360.088 102.417C360.088 102.417 355.565 106.186 351.193 120.056C346.821 133.926 347.424 137.242 331.444 158.047C315.463 178.852 301.895 218.954 300.387 220.461C298.88 221.969 294.508 217.295 304.91 189.254C315.313 161.062 316.368 161.967 317.725 160.61C319.082 159.253 334.76 147.796 342.298 126.237C349.987 104.679 341.545 99.703 341.545 99.703C341.545 99.703 339.735 91.864 327.524 90.959C315.162 90.055 312.75 100.608 312.75 100.608C312.75 100.608 307.021 104.377 302.498 114.327L299.332 115.684C299.332 115.684 302.347 109.051 302.046 100.759C301.895 92.467 292.548 89 286.216 89C279.884 89 268.276 98.045 266.768 100.307C264.356 101.06 259.683 101.211 254.105 107.392C251.089 103.02 248.074 99.553 242.647 96.688C237.22 93.673 233.3 95.934 232.244 97.744C231.189 99.553 227.42 106.035 227.42 106.035C227.42 106.035 222.445 107.241 210.384 128.498C198.475 149.605 195.158 161.364 191.69 166.188C188.223 171.012 182.494 177.344 182.343 183.676C182.193 190.159 174.504 202.822 174.052 212.622C173.599 222.572 159.88 257.699 156.714 267.196C153.548 276.694 155.357 325.842 152.945 353.883C150.533 381.773 148.423 394.286 143.297 404.538C138.02 414.789 128.221 436.348 124 441.021" stroke="#697695" stroke-width="2" stroke-miterlimit="10"/>
<path d="M192.746 227.997C197.57 218.951 203.6 182.468 204.806 170.709C206.013 158.799 207.52 143.873 213.852 139.954C220.184 136.034 227.722 128.647 235.26 121.712C242.798 114.928 247.923 114.325 254.255 107.541C259.833 101.359 264.507 101.058 266.919 100.455C268.427 98.1944 280.186 89.1484 286.367 89.1484C292.548 89.1484 302.046 92.6154 302.197 100.907C302.347 109.199 299.483 115.832 299.483 115.832" stroke="#BA6DCD" stroke-width="3" stroke-miterlimit="10" stroke-linecap="round"/>
<g opacity="0.5">
<path d="M269.482 103.474C272.196 102.871 275.06 103.775 277.623 104.529C280.186 105.283 282.749 106.489 285.312 107.394C285.915 107.695 286.669 107.846 286.97 107.846C287.573 107.846 288.176 107.695 288.779 107.544C289.985 107.243 291.342 106.791 292.548 106.338C295.111 105.434 297.523 104.379 300.086 103.323C297.825 104.831 295.413 106.338 293 107.394C291.794 107.997 290.438 108.449 289.081 108.901C288.327 109.052 287.724 109.203 286.819 109.203C285.915 109.203 285.312 108.901 284.558 108.6C281.995 107.544 279.583 106.489 277.02 105.434C275.814 104.982 274.457 104.379 273.251 104.077C272.196 103.775 270.839 103.474 269.482 103.474Z" fill="#B1BBD0"/>
</g>
<path d="M230.738 224.382C233.452 222.573 240.236 217.146 245.06 198.602C249.884 180.21 263.754 144.48 268.277 136.641C272.8 128.952 277.172 130.007 291.494 121.565C305.816 113.122 317.274 116.137 317.274 116.137" stroke="#697695" stroke-width="2" stroke-miterlimit="10"/>
<g opacity="0.5">
<path d="M398.231 191.818C396.874 192.572 395.668 193.778 394.613 194.984C393.557 196.19 392.653 197.396 391.748 198.753C390.09 201.467 388.733 204.18 387.979 207.346C387.226 210.361 387.226 213.527 387.678 216.542C387.979 218.05 388.432 219.558 389.185 220.914C389.939 222.271 390.995 223.477 392.351 224.382C390.844 223.779 389.638 222.573 388.582 221.367C387.678 220.01 387.075 218.502 386.623 216.844C385.869 213.678 385.718 210.211 386.472 207.045C387.226 203.879 388.733 200.863 390.693 198.15C392.804 195.587 395.216 193.024 398.231 191.818Z" fill="#B1BBD0"/>
</g>
</svg>
