<svg width="900" height="500" viewBox="0 0 900 500" fill="none" xmlns="http://www.w3.org/2000/svg">
<path opacity="0.33" d="M327.41 430.326C329.284 428.019 337.356 419.658 346.15 410.864C354.943 402.071 372.963 371.077 378.297 364.879C383.631 358.68 397.758 343.399 401.218 335.759C404.677 328.119 400.929 303.612 401.218 295.972C401.506 288.332 405.11 251.86 402.659 242.346C400.209 232.831 396.316 228.939 393.145 222.308C389.973 215.677 389.397 213.659 386.514 211.64C383.631 209.622 385.36 192.323 385.937 189.873C386.514 187.422 388.532 176.322 388.532 172.43C388.532 168.538 388.532 157.438 391.559 149.221C394.586 141.004 392.568 116.353 387.379 108.569C382.189 100.784 378.008 98.9101 371.81 98.4776C365.611 98.0452 358.836 104.1 357.106 107.848C355.376 111.596 353.069 115.056 350.475 145.617C346.871 153.834 339.951 161.041 336.924 170.988C333.897 180.935 325.824 206.018 323.95 216.398C322.076 226.777 311.408 240.904 315.733 233.264C320.058 225.768 319.625 207.316 327.698 182.809C335.771 158.303 334.762 159.888 334.762 158.591C334.762 157.293 339.519 152.825 341.104 142.157C344.132 137.256 350.042 112.893 339.086 105.83C338.942 100.784 335.627 97.3244 326.545 95.8828C317.463 94.4413 314.147 96.7478 312.129 102.37C308.813 103.235 303.768 115.488 302.903 125.579C300.452 127.021 288.632 138.986 286.325 143.454C284.019 147.923 277.532 170.412 276.234 176.178C274.937 181.944 266.576 217.983 264.269 221.299C261.963 224.614 260.954 226.921 262.828 219.857C264.702 212.794 273.351 170.267 277.099 162.627C280.847 154.987 281.28 148.644 291.659 133.796C302.038 118.948 300.597 111.74 298.723 106.983C296.848 102.226 295.407 98.1893 286.613 96.7478C277.82 95.3062 272.774 102.658 272.774 102.658C272.774 102.658 267.441 104.244 254.611 118.083C251.872 112.749 248.124 108.713 248.124 108.713C248.124 108.713 245.385 102.946 237.6 101.793C229.816 100.64 226.644 109.001 226.212 112.028C223.617 112.028 218.283 123.993 216.409 135.958C214.535 148.067 211.508 165.366 208.336 175.601C205.165 185.836 203.147 194.342 202.426 201.838C201.705 209.334 197.669 219.857 196.948 229.66C196.227 239.463 184.839 267.573 184.262 276.511C183.542 285.448 183.974 316.01 183.109 323.073C182.244 330.137 180.947 353.923 183.109 367.618C185.271 381.168 184.262 393.71 181.956 400.485C179.649 407.261 171 429.749 171 429.749H327.41V430.326Z" fill="#445272"/>
<path d="M327.41 430.326C329.284 428.019 337.356 419.658 346.15 410.864C354.943 402.071 372.963 371.077 378.297 364.879C383.631 358.68 397.758 343.399 401.218 335.759C404.677 328.119 400.929 303.612 401.218 295.972C401.506 288.332 405.11 251.86 402.659 242.346C400.209 232.831 396.316 228.939 393.145 222.308C389.973 215.677 389.397 213.659 386.514 211.64C383.631 209.622 385.36 192.323 385.937 189.873C386.514 187.422 388.532 176.322 388.532 172.43C388.532 168.538 388.532 157.438 391.559 149.221C394.586 141.004 392.568 116.353 387.379 108.569C382.189 100.784 378.008 98.9101 371.81 98.4776C365.611 98.0452 358.836 104.1 357.106 107.848C355.376 111.596 353.069 115.056 350.475 145.617C346.871 153.834 339.951 161.041 336.924 170.988C333.897 180.935 325.824 206.018 323.95 216.398C322.076 226.777 311.408 240.904 315.733 233.264C320.058 225.768 319.625 207.316 327.698 182.809C335.771 158.303 334.762 159.888 334.762 158.591C334.762 157.293 339.519 152.825 341.104 142.157C344.132 137.256 350.042 112.893 339.086 105.83C338.942 100.784 335.627 97.3244 326.545 95.8828C317.463 94.4413 314.147 96.7478 312.129 102.37C308.813 103.235 303.768 115.488 302.903 125.579C300.452 127.021 288.632 138.986 286.325 143.454C284.019 147.923 277.532 170.412 276.234 176.178C274.937 181.944 266.576 217.983 264.269 221.299C261.963 224.614 260.954 226.921 262.828 219.857C264.702 212.794 273.351 170.267 277.099 162.627C280.847 154.987 281.28 148.644 291.659 133.796C302.038 118.948 300.597 111.74 298.723 106.983C296.848 102.226 295.407 98.1893 286.613 96.7478C277.82 95.3062 272.774 102.658 272.774 102.658C272.774 102.658 267.441 104.244 254.611 118.083C251.872 112.749 248.124 108.713 248.124 108.713C248.124 108.713 245.385 102.946 237.6 101.793C229.816 100.64 226.644 109.001 226.212 112.028C223.617 112.028 218.283 123.993 216.409 135.958C214.535 148.067 211.508 165.366 208.336 175.601C205.165 185.836 203.147 194.342 202.426 201.838C201.705 209.334 197.669 219.857 196.948 229.66C196.227 239.463 184.839 267.573 184.262 276.511C183.542 285.448 183.974 316.01 183.109 323.073C182.244 330.137 180.947 353.923 183.109 367.618C185.271 381.168 184.262 393.71 181.956 400.485C179.649 407.261 171 429.749 171 429.749" stroke="#697695" stroke-width="2" stroke-miterlimit="10"/>
<path d="M212.805 225.912C216.841 221.587 220.157 214.956 220.445 208.036C220.733 201.117 220.012 165.222 229.094 151.527C238.176 137.832 254.754 118.659 254.754 118.659" stroke="#697695" stroke-width="2" stroke-miterlimit="10"/>
<path d="M373.827 309.956C371.809 306.207 369.358 303.757 369.358 300.874C369.358 297.991 370.944 264.979 372.674 253.158C374.26 241.337 382.332 207.172 385.071 200.108" stroke="#697695" stroke-width="2" stroke-miterlimit="10"/>
<path opacity="0.33" d="M681.383 425.381C676.601 413.566 671.819 404.143 667.88 397.11C662.817 387.827 659.16 382.764 657.754 380.654C653.112 374.044 650.018 369.824 644.814 365.323C637.219 358.572 629.764 355.478 623.998 352.946C620.059 351.259 619.216 351.259 604.447 346.898C587.851 341.976 579.552 339.585 574.489 337.897C566.05 334.943 563.518 333.677 556.908 332.13C552.407 331.146 549.313 331.005 542.562 329.317C537.498 328.051 534.826 327.348 531.872 325.801C526.387 322.847 523.152 318.768 521.605 316.799C518.51 313.002 517.104 309.486 515.135 305.125C513.588 301.469 513.588 300.625 511.759 295.843C510.212 291.623 507.54 284.309 503.039 276.433C501.07 272.917 498.679 271.088 496.147 266.165C495.163 264.196 495.022 263.634 493.615 260.68C490.943 254.913 489.115 251.819 487.708 249.147C484.754 243.38 483.348 238.598 481.52 232.128C479.972 226.502 478.425 219.47 477.581 211.171C475.472 208.358 473.784 206.249 472.659 204.702C468.017 198.935 465.767 196.544 462.673 191.902C461.407 189.933 460.422 188.386 460 187.402C461.266 185.854 463.235 183.745 465.907 181.776C467.595 180.51 470.83 178.259 475.19 177.275C479.691 176.29 483.207 177.275 487.708 178.681C497.554 181.635 504.305 186.698 506.977 188.949C513.588 194.293 517.245 199.779 518.229 201.326C519.917 203.998 523.152 208.921 524.699 216.094C525.121 217.923 525.262 219.61 525.402 220.736C527.09 222.142 528.778 223.83 530.466 225.94C534.263 230.581 536.373 235.082 537.639 238.598C534.123 231.284 530.466 224.111 526.949 216.797C524.558 209.906 520.901 201.748 515.275 193.028C514.291 191.48 513.728 191.059 506.696 181.916C502.054 175.868 500.085 173.196 497.976 170.383C494.319 165.32 492.35 162.788 490.521 159.834C487.286 154.771 485.458 151.958 483.911 147.738C481.098 140.143 481.098 135.502 481.238 133.955C481.52 130.86 482.363 128.891 482.785 127.907C483.77 125.938 484.895 124.672 485.739 123.828C485.739 122.281 485.88 119.89 486.161 117.077C486.724 111.873 487.146 109.2 488.271 106.809C491.506 100.34 498.398 98.0891 499.101 97.8078C504.024 96.2606 508.102 97.2452 509.649 97.6671C514.994 99.0736 518.088 102.168 519.354 103.293C523.152 107.091 524.418 111.029 524.699 111.873C525.543 114.404 525.684 116.655 525.684 118.202C526.668 119.187 528.075 120.452 529.622 122.281C530.325 122.984 532.153 125.234 534.826 129.032C536.654 131.704 536.795 132.126 538.623 134.939C540.311 137.612 541.155 138.596 547.062 146.473C548.188 147.879 549.875 150.129 551.985 152.942C552.407 152.521 552.688 151.958 553.11 151.536C551.141 146.754 549.172 143.097 547.625 140.565C545.093 136.486 542.843 133.673 539.749 127.766C538.764 125.938 538.061 124.531 537.639 123.547C535.81 122.703 533.841 121.437 531.872 119.89C524.699 114.123 522.027 106.387 519.073 98.2297C516.963 92.1818 516.401 88.2436 516.119 85.4306C515.838 81.9144 515.697 79.3827 516.682 76.2884C518.229 71.6469 521.323 68.6933 523.011 67.1462C524.699 65.599 526.105 64.6145 527.934 63.4893C533.138 60.1137 537.076 57.582 542.421 57.16C546.922 56.8787 550.297 58.2852 552.829 59.4104C559.158 62.0828 563.096 66.4429 565.206 68.9746C565.769 67.1462 566.472 65.0364 567.316 62.786C568.019 60.9576 569.004 58.9885 569.707 57.8633C572.379 53.3625 577.724 50.9714 581.381 49.8463C580.396 48.1585 578.849 45.3455 578.146 41.8292C577.724 39.5788 576.88 35.7813 578.146 30.9992C578.849 28.4675 580.256 23.2635 584.897 21.1537C588.976 19.1846 593.336 20.5911 594.883 21.1537C597.274 21.9976 598.399 22.9822 602.338 26.0765C614.012 35.3593 616.262 37.0471 619.356 41.4073C620.341 42.8138 619.919 42.3918 622.029 45.6268C623.857 48.4398 626.67 52.7999 630.608 57.8633C634.406 62.6454 636.234 65.0364 638.907 67.4275C642.282 70.5218 644.251 71.5063 646.642 75.0225C647.767 76.7103 647.908 77.2729 649.877 80.3672C651.565 82.8989 652.55 84.1648 654.378 86.6965C654.378 86.6965 657.191 90.6347 660.426 95.4167C663.661 100.34 664.927 102.871 666.896 106.247C669.006 109.763 669.99 110.888 683.633 127.626C691.228 136.908 691.931 137.893 693.197 139.862C699.245 148.723 702.761 157.303 702.761 157.303C705.012 162.507 705.574 164.898 708.247 169.398C710.497 173.055 712.044 174.462 714.435 177.416C718.655 182.76 720.905 186.98 725.125 194.856C727.235 198.794 728.5 201.748 734.126 215.11C739.752 228.612 739.893 228.893 743.128 236.77C749.317 251.257 752.411 258.57 755.927 265.322C758.881 271.088 760.99 274.604 763.944 281.778C766.054 286.7 766.335 287.966 768.867 294.014C770.273 297.249 771.68 300.343 776.04 309.626C781.666 321.3 782.651 323.129 785.604 329.458C789.402 337.475 790.105 341.554 794.324 348.867C795.309 350.555 794.746 349.43 798.544 355.619C804.733 365.745 807.967 370.809 810.218 375.591C812.187 379.951 812.187 380.654 814.437 385.155C816.969 390.218 819.219 393.735 820.063 395.001C823.298 399.923 828.502 408.784 837.926 425.381H681.383Z" fill="#445272"/>
<path d="M580.678 48.8627C579.693 47.1749 578.99 45.3465 578.146 41.6896C577.724 39.4392 576.88 35.6416 578.146 30.8595C578.849 28.3278 580.256 23.1238 584.897 21.0141C588.976 19.045 593.336 20.4515 594.883 21.0141C597.274 21.858 598.4 22.8425 602.338 25.9368C614.012 35.2197 616.262 36.9075 619.356 41.2676C620.341 42.6741 619.919 42.2522 622.029 45.4871C623.857 48.3001 626.67 52.6602 630.608 57.7236C634.406 62.5057 636.234 64.8968 638.907 67.2878C642.282 70.3821 644.251 71.3666 646.642 74.8829C647.768 76.5707 647.908 77.1333 649.877 80.2276C651.565 82.7593 652.55 84.0251 654.378 86.5568C654.378 86.5568 657.191 90.495 660.426 95.2771C663.661 100.2 664.927 102.731 666.896 106.107C667.599 107.373 668.162 108.217 669.287 109.623" stroke="#BA6DCD" stroke-width="3" stroke-miterlimit="10" stroke-linecap="round"/>
<path d="M599.243 119.327C595.305 113.561 591.226 107.654 587.288 101.746C578.568 88.8064 575.333 83.8837 574.348 82.3365C570.41 76.2886 567.316 71.3659 565.066 67.8496" stroke="#697695" stroke-width="2" stroke-miterlimit="10"/>
<path d="M634.828 102.17C629.764 91.34 626.107 82.901 623.576 77.275C621.888 73.3369 620.06 68.8361 616.403 63.4914C615.699 62.5068 612.324 57.4434 606.698 52.38C603.041 49.1451 601.072 48.1606 599.384 47.598C594.461 45.6289 583.491 48.7232 581.1 49.989" stroke="#697695" stroke-width="2" stroke-miterlimit="10"/>
<path d="M681.383 425.381C676.601 413.567 671.819 404.143 667.88 397.111C662.817 387.828 659.16 382.764 657.754 380.655C653.112 374.044 650.018 369.825 644.814 365.324C637.219 358.573 629.764 355.478 623.998 352.947C620.059 351.259 619.216 351.259 604.447 346.899C587.851 341.976 579.552 339.585 574.489 337.897C566.05 334.944 563.518 333.678 556.908 332.131C552.407 331.146 549.313 331.005 542.562 329.318C537.498 328.052 534.826 327.348 531.872 325.801C526.387 322.848 523.152 318.769 521.605 316.8C518.51 313.002 517.104 309.486 515.135 305.126C513.588 301.469 513.588 300.625 511.759 295.843C510.212 291.623 507.54 284.31 503.039 276.433C501.07 272.917 498.679 271.089 496.147 266.166C495.163 264.197 495.022 263.634 493.615 260.681C490.943 254.914 489.115 251.82 487.708 249.147C484.754 243.381 483.348 238.599 481.52 232.129C479.972 226.503 478.425 219.47 477.581 211.172C475.472 208.359 473.784 206.249 472.659 204.702C468.017 198.935 465.767 196.544 462.673 191.903C461.407 189.934 460.422 188.387 460 187.402C461.266 185.855 463.235 183.745 465.907 181.776C467.595 180.51 470.83 178.26 475.19 177.275C479.691 176.291 483.207 177.275 487.708 178.682C497.554 181.635 504.305 186.699 506.977 188.949C513.588 194.294 517.245 199.779 518.229 201.326C519.917 203.999 523.152 208.921 524.699 216.095C525.121 217.923 525.262 219.611 525.402 220.736C527.09 222.143 528.778 223.83 530.466 225.94C534.263 230.582 536.373 235.082 537.639 238.599C534.123 231.285 530.466 224.112 526.949 216.798C524.558 209.906 520.901 201.748 515.275 193.028C514.291 191.481 513.728 191.059 506.696 181.917C502.054 175.869 500.085 173.196 497.976 170.383C494.319 165.32 492.35 162.788 490.521 159.835C487.286 154.771 485.458 151.958 483.911 147.739C481.098 140.144 481.098 135.502 481.238 133.955C481.52 130.861 482.363 128.892 482.785 127.907C483.77 125.938 484.895 124.672 485.739 123.828C485.739 122.281 485.88 119.89 486.161 117.077C486.724 111.873 487.146 109.201 488.271 106.81C491.506 100.34 498.398 98.0895 499.101 97.8082C504.024 96.2611 508.102 97.2456 509.649 97.6676C514.994 99.0741 518.088 102.168 519.354 103.294C523.152 107.091 524.418 111.029 524.699 111.873C525.543 114.405 525.684 116.655 525.684 118.202C526.668 119.187 528.075 120.453 529.622 122.281C530.325 122.985 532.153 125.235 534.826 129.032C536.654 131.705 536.795 132.127 538.623 134.94C540.311 137.612 541.155 138.597 547.062 146.473C548.188 147.88 549.875 150.13 551.985 152.943C552.407 152.521 552.688 151.958 553.11 151.536C551.141 146.754 549.172 143.097 547.625 140.566C545.093 136.487 542.843 133.674 539.749 127.767C538.764 125.938 538.061 124.532 537.639 123.547C535.81 122.703 533.841 121.437 531.872 119.89C524.699 114.124 522.027 106.388 519.073 98.2302C516.963 92.1822 516.401 88.244 516.119 85.431C515.838 81.9148 515.697 79.3831 516.682 76.2888C518.229 71.6474 521.323 68.6937 523.011 67.1466C524.699 65.5994 526.105 64.6149 527.934 63.4897C533.138 60.1141 537.076 57.5824 542.421 57.1605C546.922 56.8792 550.297 58.2857 552.829 59.4109C559.158 62.0832 563.096 66.4433 565.206 68.975C565.769 67.1466 566.472 65.0368 567.316 62.7865C568.019 60.958 569.004 58.9889 569.707 57.8637C572.379 53.3629 577.724 50.9719 581.381 49.8467" stroke="#697695" stroke-width="2" stroke-miterlimit="10"/>
<path d="M670.553 110.89C672.522 113.562 675.335 116.797 684.196 127.768C691.791 137.05 692.495 138.035 693.76 140.004C699.808 148.865 703.325 157.445 703.325 157.445C705.575 162.649 706.138 165.04 708.81 169.541C711.06 173.197 712.607 174.604 714.998 177.558C719.218 182.902 721.468 187.122 725.688 194.998C727.798 198.936 729.063 201.89 734.689 215.252C740.315 228.754 740.456 229.035 743.691 236.912C749.88 251.399 752.974 258.712 756.49 265.464C759.444 271.23 761.554 274.747 764.507 281.92C766.617 286.842 766.898 288.108 769.43 294.156C770.836 297.391 772.243 300.485 776.603 309.768C782.229 321.442 783.214 323.271 786.167 329.6C789.965 337.617 790.668 341.696 794.887 349.01C795.872 350.697 795.309 349.572 799.107 355.761C805.296 365.888 808.53 370.951 810.781 375.733C812.75 380.093 812.75 380.796 815 385.297C817.532 390.361 819.782 393.877 820.626 395.143C823.861 400.065 829.065 408.926 838.489 425.523" stroke="#697695" stroke-width="2" stroke-miterlimit="10"/>
<g opacity="0.5">
<path d="M581.662 31.2813C582.928 32.2658 584.194 33.391 585.319 34.3756C585.881 34.9382 586.444 35.5008 587.007 36.0634C587.569 36.626 588.132 37.3292 588.695 37.7512C589.257 38.1731 589.82 38.5951 590.523 38.7357C591.226 38.8764 591.929 38.8764 592.773 38.8764C594.321 38.7357 595.727 38.3138 597.134 37.6105C598.54 36.9073 599.946 36.204 601.353 35.3601C602.056 34.9382 602.619 34.5162 603.041 34.0943C603.463 33.813 603.181 33.2504 602.9 32.5471C602.478 31.8439 602.056 31.2813 601.634 30.578C601.072 30.0154 600.509 29.4528 599.946 28.8902C598.821 27.765 597.555 26.6398 596.43 25.5146C597.696 26.4992 598.962 27.4837 600.368 28.3276C600.931 28.8902 601.634 29.3122 602.338 29.8748C602.9 30.4374 603.463 31.1406 603.885 31.8439C604.166 32.2658 604.307 32.5471 604.447 33.1097C604.447 33.391 604.588 33.6723 604.447 33.9536C604.307 34.2349 604.166 34.5162 604.025 34.6569C603.463 35.3601 602.759 35.9227 602.056 36.3447C600.65 37.1886 599.243 37.8918 597.696 38.7357C596.149 39.439 594.461 40.0016 592.773 40.0016C591.929 40.0016 591.086 40.0016 590.242 39.7203C589.398 39.439 588.554 39.017 587.991 38.3138C587.429 37.6105 587.007 37.0479 586.444 36.4853C585.882 35.9227 585.46 35.2195 584.897 34.6569C583.912 33.6723 582.787 32.5471 581.662 31.2813Z" fill="#B1BBD0"/>
</g>
<g opacity="0.5">
<path d="M468.721 185.152C470.549 186.418 472.378 187.825 473.784 189.512C475.331 191.2 476.597 193.029 477.863 194.998C478.425 195.982 478.988 196.967 479.41 198.092C479.832 199.217 479.973 200.342 480.113 201.468C480.395 203.718 479.973 206.109 479.129 208.219C479.41 205.968 479.41 203.718 478.988 201.608C478.847 200.624 478.566 199.499 478.144 198.514C477.722 197.53 477.16 196.545 476.597 195.701C474.487 191.904 471.815 188.387 468.721 185.152Z" fill="#B1BBD0"/>
</g>
</svg>
