<svg width="900" height="500" viewBox="0 0 900 500" fill="none" xmlns="http://www.w3.org/2000/svg">
<path opacity="0.33" d="M350.977 429.161C356.313 422.383 372.176 398.876 377.224 391.088C382.271 383.301 393.664 356.765 398.423 350.708C403.182 344.651 408.951 337.008 406.355 319.125C403.904 301.243 401.74 295.042 403.183 269.516C404.625 243.99 400.154 238.942 394.241 226.684C393.087 219.329 391.213 217.31 388.473 215.147C388.905 210.099 391.501 190.053 393.087 179.814C394.818 169.575 391.357 172.748 393.087 150.971C394.818 129.195 388.905 113.764 385.156 109.293C384.579 104.967 380.397 100.063 372.753 98.4771C365.254 96.7465 358.332 103.669 358.332 106.697C355.88 107.563 348.093 118.234 351.986 153.134C343.478 173.469 338.142 194.38 336.988 201.446C335.69 208.513 329.921 240.384 327.614 239.086C325.307 237.788 334.536 207.359 337.276 188.467C340.016 169.575 342.901 156.451 344.631 147.51C346.362 138.569 346.506 109.293 336.7 105.688C334.392 98.3329 327.326 96.4581 320.836 96.0254C314.346 95.5928 308.866 100.784 308.722 103.813C305.838 104.823 302.809 118.811 304.107 138.28C297.617 145.203 288.82 167.123 279.014 215.291C279.014 215.291 282.186 168.421 288.243 149.241C294.445 130.06 298.915 122.561 295.31 111.889C297.041 106.842 292.281 103.092 285.792 101.073C279.302 99.0539 271.947 102.515 270.505 106.553C265.313 107.418 256.66 122.849 252.911 135.108C245.989 147.366 237.768 168.998 234.596 181.256C231.423 193.514 229.981 238.365 228.106 241.394C226.231 244.422 222.914 244.711 220.318 241.826C217.723 238.942 217.001 238.077 216.28 232.741C215.559 227.261 214.261 217.743 212.675 210.676C211.233 203.609 209.502 189.621 210.079 184.429C210.656 179.237 217.29 170.007 216.569 157.893C215.848 145.779 208.204 141.165 206.185 139.578C204.166 138.136 201.859 134.675 194.937 136.55C188.014 138.425 184.697 154.288 184.697 154.288C184.697 154.288 175.9 171.45 174.458 175.343C173.016 179.237 173.304 183.996 171.862 190.342C170.42 196.687 172.295 203.033 170.132 209.378C168.113 215.724 168.978 226.107 171.285 234.76C173.593 243.413 171.862 243.845 173.737 250.479C175.612 256.969 179.361 265.91 180.659 272.111C181.957 278.313 181.525 292.013 182.39 302.685C183.255 313.357 188.159 319.27 189.456 333.258C190.754 347.247 193.494 386.185 195.369 397.434C197.244 408.683 198.398 412.144 192.773 429.45H350.977V429.161Z" fill="#445272"/>
<path d="M350.977 429.161C356.313 422.383 372.176 398.876 377.224 391.088C382.271 383.301 393.664 356.765 398.423 350.708C403.182 344.651 408.951 337.008 406.355 319.125C403.904 301.243 401.74 295.042 403.183 269.516C404.625 243.99 400.154 238.942 394.241 226.684C393.087 219.329 391.213 217.31 388.473 215.147C388.905 210.099 391.501 190.053 393.087 179.814C394.818 169.575 391.357 172.748 393.087 150.971C394.818 129.195 388.905 113.764 385.156 109.293C384.579 104.967 380.397 100.063 372.753 98.4771C365.254 96.7465 358.332 103.669 358.332 106.697C355.88 107.563 348.093 118.234 351.986 153.134C343.478 173.469 338.142 194.38 336.988 201.446C335.69 208.513 329.921 240.384 327.614 239.086C325.307 237.788 334.536 207.359 337.276 188.467C340.016 169.575 342.901 156.451 344.631 147.51C346.362 138.569 346.506 109.293 336.7 105.688C334.392 98.3329 327.326 96.4581 320.836 96.0254C314.346 95.5928 308.866 100.784 308.722 103.813C305.838 104.823 302.809 118.811 304.107 138.28C297.617 145.203 288.82 167.123 279.014 215.291C279.014 215.291 282.186 168.421 288.243 149.241C294.445 130.06 298.915 122.561 295.31 111.889C297.041 106.842 292.281 103.092 285.792 101.073C279.302 99.0539 271.947 102.515 270.505 106.553C265.313 107.418 256.66 122.849 252.911 135.108C245.989 147.366 237.768 168.998 234.596 181.256C231.423 193.514 229.981 238.365 228.106 241.394C226.231 244.422 222.914 244.711 220.318 241.826C217.723 238.942 217.001 238.077 216.28 232.741C215.559 227.261 214.261 217.743 212.675 210.676C211.233 203.609 209.502 189.621 210.079 184.429C210.656 179.237 217.29 170.007 216.569 157.893C215.848 145.779 208.204 141.165 206.185 139.578C204.166 138.136 201.859 134.675 194.937 136.55C188.014 138.425 184.697 154.288 184.697 154.288C184.697 154.288 175.9 171.45 174.458 175.343C173.016 179.237 173.304 183.996 171.862 190.342C170.42 196.687 172.295 203.033 170.132 209.378C168.113 215.724 168.978 226.107 171.285 234.76C173.593 243.413 171.862 243.845 173.737 250.479C175.612 256.969 179.361 265.91 180.659 272.111C181.957 278.313 181.525 292.013 182.39 302.685C183.255 313.357 188.159 319.27 189.456 333.258C190.754 347.247 193.494 386.185 195.369 397.434C197.244 408.683 198.398 412.144 192.773 429.45" stroke="#697695" stroke-width="2" stroke-miterlimit="10"/>
<path d="M220.463 241.539C217.867 238.511 217.146 237.789 216.425 232.454C215.704 226.973 214.406 217.455 212.82 210.389C211.377 203.322 209.647 189.333 210.224 184.142C210.801 178.95 217.434 169.72 216.713 157.606C215.992 145.492 208.349 140.877 206.33 139.291C204.311 137.849 202.003 134.388 195.081 136.262C188.159 138.137 184.842 154.001 184.842 154.001C184.842 154.001 176.045 171.162 174.603 175.056C173.161 178.95 173.449 183.709 172.007 190.054C170.565 196.4 172.439 202.745 170.276 209.091C168.257 215.436 169.123 225.82 171.43 234.473C173.737 243.125 172.007 243.558 173.882 250.192C175.756 256.682 179.506 265.623 180.804 271.824" stroke="#BA6DCD" stroke-width="3" stroke-miterlimit="10" stroke-linecap="round"/>
<g opacity="0.5">
<path d="M188.16 155.298C189.891 154.865 191.766 154.865 193.496 154.433C195.227 154 196.669 153.279 197.967 152.125C199.265 151.116 200.563 149.818 201.716 148.376C202.293 147.655 202.87 146.933 203.447 146.357C204.024 145.636 204.456 144.914 205.177 144.193C204.889 145.059 204.456 145.924 204.024 146.789C203.591 147.655 203.158 148.376 202.582 149.241C201.572 150.827 200.274 152.269 198.832 153.423C197.39 154.577 195.515 155.442 193.64 155.586C191.766 155.875 190.035 155.298 188.16 155.298Z" fill="#B1BBD0"/>
</g>
<path d="M378.81 291.581C378.522 280.909 377.079 261.007 378.81 249.037C380.541 237.212 388.617 215.291 388.617 215.291" stroke="#697695" stroke-width="2" stroke-miterlimit="10"/>
<path d="M271.658 238.798C274.687 232.164 278.436 222.79 279.013 215.146Z" fill="#445272"/>
<path d="M271.658 238.798C274.687 232.164 278.436 222.79 279.013 215.146" stroke="#697695" stroke-width="2" stroke-miterlimit="10"/>
<path opacity="0.33" d="M681.818 419.18C677.027 407.342 672.235 397.9 668.289 390.854C663.216 381.552 659.552 376.479 658.143 374.365C653.492 367.742 650.392 363.514 645.178 359.004C637.568 352.24 630.098 349.139 624.32 346.603C620.374 344.911 619.529 344.911 604.732 340.543C588.102 335.61 579.788 333.215 574.714 331.523C566.259 328.564 563.722 327.296 557.098 325.745C552.589 324.759 549.488 324.618 542.724 322.927C537.651 321.659 534.973 320.954 532.013 319.404C526.517 316.444 523.276 312.357 521.726 310.384C518.625 306.579 517.216 303.056 515.243 298.688C513.693 295.023 513.693 294.178 511.861 289.386C510.311 285.159 507.633 277.83 503.124 269.939C501.151 266.415 498.755 264.583 496.218 259.651C495.232 257.678 495.091 257.114 493.681 254.155C491.004 248.377 489.172 245.276 487.763 242.599C484.803 236.821 483.394 232.029 481.562 225.547C480.012 219.91 478.461 212.863 477.616 204.549C475.502 201.73 473.811 199.616 472.683 198.066C468.033 192.288 465.778 189.892 462.678 185.242C461.409 183.269 460.423 181.718 460 180.732C461.268 179.182 463.241 177.068 465.919 175.095C467.61 173.827 470.851 171.572 475.22 170.585C479.73 169.599 483.253 170.585 487.763 171.994C497.627 174.954 504.392 180.027 507.069 182.282C513.693 187.637 517.357 193.134 518.344 194.684C520.035 197.361 523.276 202.294 524.826 209.481C525.249 211.313 525.39 213.004 525.531 214.132C527.222 215.541 528.913 217.232 530.604 219.346C534.409 223.996 536.523 228.506 537.791 232.029C534.268 224.701 530.604 217.514 527.081 210.186C524.685 203.28 521.021 195.106 515.384 186.369C514.398 184.819 513.834 184.396 506.788 175.236C502.137 169.176 500.164 166.498 498.05 163.68C494.386 158.606 492.413 156.07 490.581 153.11C487.34 148.037 485.508 145.218 483.958 140.991C481.139 133.381 481.139 128.73 481.28 127.18C481.562 124.079 482.407 122.106 482.83 121.12C483.817 119.147 484.944 117.879 485.79 117.033C485.79 115.483 485.93 113.087 486.212 110.269C486.776 105.054 487.199 102.377 488.326 99.981C491.568 93.4984 498.473 91.2435 499.178 90.9617C504.11 89.4115 508.197 90.398 509.747 90.8208C515.102 92.23 518.203 95.3304 519.471 96.4578C523.276 100.263 524.544 104.209 524.826 105.054C525.672 107.591 525.813 109.846 525.813 111.396C526.799 112.383 528.208 113.651 529.759 115.483C530.463 116.188 532.295 118.442 534.973 122.247C536.805 124.925 536.946 125.348 538.778 128.166C540.469 130.844 541.315 131.83 547.234 139.722C548.361 141.132 550.052 143.386 552.166 146.205C552.589 145.782 552.871 145.218 553.293 144.796C551.32 140.004 549.347 136.34 547.797 133.803C545.261 129.717 543.006 126.898 539.905 120.979C538.919 119.147 538.214 117.738 537.791 116.751C535.959 115.906 533.986 114.637 532.013 113.087C524.826 107.309 522.149 99.5582 519.189 91.3845C517.075 85.3246 516.512 81.3787 516.23 78.5601C515.948 75.037 515.807 72.5003 516.793 69.3999C518.344 64.7493 521.444 61.7899 523.135 60.2397C524.826 58.6895 526.235 57.703 528.068 56.5756C533.282 53.1934 537.228 50.6567 542.583 50.2339C547.093 49.9521 550.475 51.3613 553.012 52.4887C559.353 55.1663 563.299 59.5351 565.413 62.0717C565.977 60.2397 566.681 58.1258 567.527 55.871C568.232 54.0389 569.218 52.066 569.923 50.9385C572.6 46.4289 577.956 44.0331 581.62 42.9057C580.633 41.2146 579.083 38.3961 578.378 34.8729C577.956 32.6181 577.11 28.8131 578.378 24.0215C579.083 21.4849 580.492 16.2706 585.143 14.1567C589.23 12.1837 593.598 13.593 595.149 14.1567C597.544 15.0022 598.672 15.9887 602.618 19.0891C614.315 28.3903 616.569 30.0814 619.67 34.4501C620.656 35.8594 620.234 35.4366 622.347 38.6779C624.179 41.4965 626.998 45.8652 630.944 50.9385C634.749 55.73 636.581 58.1258 639.259 60.5215C642.641 63.6219 644.614 64.6084 647.01 68.1316C648.137 69.8227 648.278 70.3864 650.251 73.4868C651.942 76.0235 652.928 77.2918 654.761 79.8285C654.761 79.8285 657.579 83.7744 660.82 88.5659C664.062 93.4984 665.33 96.035 667.303 99.4173C669.417 102.94 670.403 104.068 684.073 120.838C691.683 130.139 692.388 131.126 693.656 133.099C699.716 141.977 703.239 150.574 703.239 150.574C705.494 155.788 706.058 158.184 708.735 162.693C710.99 166.357 712.54 167.767 714.936 170.726C719.164 176.081 721.419 180.309 725.647 188.201C727.761 192.147 729.029 195.106 734.666 208.495C740.303 222.023 740.444 222.305 743.685 230.197C749.886 244.713 752.986 252.041 756.51 258.805C759.469 264.583 761.583 268.106 764.542 275.294C766.656 280.226 766.938 281.494 769.475 287.554C770.884 290.796 772.293 293.896 776.662 303.197C782.299 314.894 783.286 316.726 786.245 323.068C790.05 331.101 790.755 335.188 794.983 342.516C795.969 344.207 795.405 343.079 799.21 349.28C805.411 359.427 808.652 364.5 810.907 369.292C812.88 373.661 812.88 374.365 815.135 378.875C817.672 383.948 819.927 387.471 820.772 388.74C824.013 393.672 829.228 402.55 838.67 419.18H681.818Z" fill="#445272"/>
<path d="M580.916 41.9195C579.929 40.2284 579.224 38.3964 578.379 34.7323C577.956 32.4775 577.111 28.6724 578.379 23.8809C579.083 21.3442 580.493 16.13 585.143 14.0161C589.23 12.0431 593.599 13.4524 595.149 14.0161C597.545 14.8616 598.672 15.8481 602.618 18.9485C614.315 28.2496 616.57 29.9408 619.67 34.3095C620.657 35.7188 620.234 35.296 622.348 38.5373C624.18 41.3558 626.999 45.7245 630.944 50.7979C634.749 55.5894 636.582 57.9852 639.259 60.3809C642.641 63.4813 644.614 64.4678 647.01 67.9909C648.138 69.6821 648.278 70.2458 650.251 73.3462C651.943 75.8828 652.929 77.1512 654.761 79.6879C654.761 79.6879 657.58 83.6338 660.821 88.4253C664.062 93.3577 665.331 95.8944 667.304 99.2767C668.008 100.545 668.572 101.391 669.699 102.8" stroke="#BA6DCD" stroke-width="3" stroke-miterlimit="10" stroke-linecap="round"/>
<path d="M599.517 112.522C595.571 106.745 591.484 100.826 587.538 94.9067C578.8 81.9414 575.559 77.009 574.573 75.4588C570.627 69.3989 567.526 64.4665 565.271 60.9434" fill="#445272"/>
<path d="M599.517 112.522C595.571 106.745 591.484 100.826 587.538 94.9067C578.8 81.9414 575.559 77.009 574.573 75.4588C570.627 69.3989 567.526 64.4665 565.271 60.9434" stroke="#697695" stroke-width="2" stroke-miterlimit="10"/>
<path d="M635.172 95.3315C630.099 84.4801 626.434 76.0245 623.898 70.3875C622.207 66.4415 620.375 61.9319 616.71 56.5767C616.006 55.5902 612.624 50.5168 606.987 45.4435C603.322 42.2021 601.349 41.2157 599.658 40.652C594.726 38.679 583.734 41.7794 581.338 43.0477" stroke="#697695" stroke-width="2" stroke-miterlimit="10"/>
<path d="M681.818 419.18C677.027 407.342 672.235 397.9 668.289 390.854C663.216 381.553 659.552 376.48 658.143 374.366C653.492 367.742 650.392 363.514 645.178 359.005C637.568 352.24 630.098 349.14 624.32 346.603C620.374 344.912 619.529 344.912 604.732 340.543C588.102 335.611 579.788 333.215 574.714 331.524C566.259 328.564 563.722 327.296 557.098 325.746C552.589 324.759 549.488 324.619 542.724 322.927C537.651 321.659 534.973 320.954 532.013 319.404C526.517 316.445 523.276 312.358 521.726 310.385C518.625 306.58 517.216 303.057 515.243 298.688C513.693 295.024 513.693 294.178 511.861 289.387C510.311 285.159 507.633 277.831 503.124 269.939C501.151 266.416 498.755 264.584 496.218 259.651C495.232 257.678 495.091 257.115 493.681 254.155C491.004 248.377 489.172 245.277 487.763 242.599C484.803 236.821 483.394 232.03 481.562 225.547C480.012 219.91 478.461 212.864 477.616 204.549C475.502 201.731 473.811 199.617 472.683 198.066C468.033 192.288 465.778 189.893 462.678 185.242C461.409 183.269 460.423 181.719 460 180.732C461.268 179.182 463.241 177.068 465.919 175.095C467.61 173.827 470.851 171.572 475.22 170.586C479.73 169.599 483.253 170.586 487.763 171.995C497.627 174.954 504.392 180.028 507.069 182.283C513.693 187.638 517.357 193.134 518.344 194.684C520.035 197.362 523.276 202.294 524.826 209.482C525.249 211.314 525.39 213.005 525.531 214.132C527.222 215.541 528.913 217.232 530.604 219.346C534.409 223.997 536.523 228.507 537.791 232.03C534.268 224.702 530.604 217.514 527.081 210.186C524.685 203.281 521.021 195.107 515.384 186.37C514.398 184.819 513.834 184.397 506.788 175.236C502.137 169.176 500.164 166.499 498.05 163.68C494.386 158.607 492.413 156.07 490.581 153.111C487.34 148.038 485.508 145.219 483.958 140.991C481.139 133.381 481.139 128.731 481.28 127.18C481.562 124.08 482.407 122.107 482.83 121.121C483.817 119.148 484.944 117.879 485.79 117.034C485.79 115.483 485.93 113.088 486.212 110.269C486.776 105.055 487.199 102.377 488.326 99.9815C491.568 93.4989 498.473 91.2441 499.178 90.9622C504.11 89.412 508.197 90.3985 509.747 90.8213C515.102 92.2306 518.203 95.331 519.471 96.4584C523.276 100.263 524.544 104.209 524.826 105.055C525.672 107.592 525.813 109.846 525.813 111.397C526.799 112.383 528.208 113.651 529.759 115.483C530.463 116.188 532.295 118.443 534.973 122.248C536.805 124.926 536.946 125.348 538.778 128.167C540.469 130.844 541.315 131.831 547.234 139.723C548.361 141.132 550.052 143.387 552.166 146.205C552.589 145.783 552.871 145.219 553.293 144.796C551.32 140.005 549.347 136.341 547.797 133.804C545.261 129.717 543.006 126.899 539.905 120.98C538.919 119.148 538.214 117.738 537.791 116.752C535.959 115.906 533.986 114.638 532.013 113.088C524.826 107.31 522.149 99.5588 519.189 91.385C517.075 85.3252 516.512 81.3792 516.23 78.5607C515.948 75.0375 515.807 72.5008 516.793 69.4004C518.344 64.7499 521.444 61.7904 523.135 60.2402C524.826 58.69 526.235 57.7036 528.068 56.5761C533.282 53.1939 537.228 50.6572 542.583 50.2344C547.093 49.9526 550.475 51.3619 553.012 52.4893C559.353 55.1669 563.299 59.5356 565.413 62.0723C565.977 60.2402 566.681 58.1263 567.527 55.8715C568.232 54.0395 569.218 52.0665 569.923 50.9391C572.6 46.4294 577.956 44.0337 581.62 42.9062" stroke="#697695" stroke-width="2" stroke-miterlimit="10"/>
<path d="M670.967 104.068C672.94 106.746 675.758 109.987 684.637 120.98C692.247 130.281 692.951 131.267 694.22 133.24C700.28 142.119 703.803 150.715 703.803 150.715C706.058 155.929 706.621 158.325 709.299 162.835C711.554 166.499 713.104 167.908 715.5 170.868C719.727 176.223 721.982 180.451 726.21 188.342C728.324 192.288 729.592 195.248 735.229 208.636C740.866 222.165 741.007 222.447 744.249 230.339C750.449 244.854 753.55 252.182 757.073 258.947C760.032 264.725 762.146 268.248 765.106 275.435C767.22 280.368 767.502 281.636 770.038 287.696C771.447 290.937 772.857 294.037 777.225 303.339C782.863 315.035 783.849 316.868 786.808 323.209C790.613 331.242 791.318 335.329 795.546 342.657C796.532 344.348 795.969 343.221 799.774 349.422C805.974 359.568 809.216 364.642 811.471 369.433C813.444 373.802 813.444 374.507 815.698 379.016C818.235 384.09 820.49 387.613 821.335 388.881C824.577 393.813 829.791 402.692 839.233 419.321" stroke="#697695" stroke-width="2" stroke-miterlimit="10"/>
<g opacity="0.5">
<path d="M581.902 24.3034C583.171 25.2899 584.439 26.4173 585.566 27.4038C586.13 27.9675 586.694 28.5312 587.258 29.0949C587.821 29.6586 588.385 30.3632 588.949 30.786C589.512 31.2088 590.076 31.6316 590.781 31.7725C591.485 31.9134 592.19 31.9134 593.036 31.9134C594.586 31.7725 595.995 31.3497 597.404 30.6451C598.814 29.9404 600.223 29.2358 601.632 28.3903C602.337 27.9675 602.9 27.5447 603.323 27.1219C603.746 26.8401 603.464 26.2764 603.182 25.5717C602.759 24.8671 602.337 24.3034 601.914 23.5987C601.35 23.035 600.787 22.4713 600.223 21.9076C599.095 20.7802 597.827 19.6528 596.7 18.5254C597.968 19.5119 599.236 20.4984 600.646 21.3439C601.209 21.9076 601.914 22.3304 602.619 22.8941C603.182 23.4578 603.746 24.1625 604.169 24.8671C604.451 25.2899 604.592 25.5717 604.732 26.1354C604.732 26.4173 604.873 26.6991 604.732 26.981C604.592 27.2628 604.451 27.5447 604.31 27.6856C603.746 28.3903 603.041 28.954 602.337 29.3767C600.927 30.2223 599.518 30.9269 597.968 31.7725C596.418 32.4771 594.727 33.0408 593.036 33.0408C592.19 33.0408 591.344 33.0408 590.499 32.759C589.653 32.4771 588.808 32.0543 588.244 31.3497C587.68 30.6451 587.258 30.0814 586.694 29.5177C586.13 28.954 585.707 28.2493 585.144 27.6856C584.157 26.6991 583.03 25.5717 581.902 24.3034Z" fill="#B1BBD0"/>
</g>
<g opacity="0.5">
<path d="M468.738 178.477C470.57 179.745 472.402 181.154 473.812 182.845C475.362 184.536 476.63 186.368 477.899 188.341C478.462 189.328 479.026 190.314 479.449 191.442C479.871 192.569 480.012 193.697 480.153 194.824C480.435 197.079 480.012 199.475 479.167 201.589C479.449 199.334 479.449 197.079 479.026 194.965C478.885 193.978 478.603 192.851 478.18 191.865C477.758 190.878 477.194 189.892 476.63 189.046C474.516 185.241 471.839 181.718 468.738 178.477Z" fill="#B1BBD0"/>
</g>
</svg>
