<svg width="900" height="500" viewBox="0 0 900 500" fill="none" xmlns="http://www.w3.org/2000/svg">
<path opacity="0.33" d="M327.41 430.327C329.284 428.02 337.356 419.659 346.15 410.865C354.943 402.072 372.963 371.078 378.297 364.88C383.631 358.681 397.758 343.4 401.218 335.76C404.677 328.12 400.929 303.613 401.218 295.973C401.506 288.333 405.11 251.861 402.659 242.347C400.209 232.832 396.316 228.94 393.145 222.309C389.973 215.678 389.397 213.66 386.514 211.641C383.631 209.623 385.36 192.324 385.937 189.874C386.514 187.423 388.532 176.323 388.532 172.431C388.532 168.539 388.532 157.439 391.559 149.222C394.586 141.005 392.568 116.354 387.379 108.57C382.189 100.785 378.008 98.9111 371.81 98.4786C365.611 98.0461 358.836 104.101 357.106 107.849C355.376 111.597 353.069 115.057 350.475 145.618C346.871 153.835 339.951 161.042 336.924 170.989C333.897 180.936 325.824 206.019 323.95 216.398C322.076 226.778 311.408 240.905 315.733 233.265C320.058 225.769 319.625 207.317 327.698 182.81C335.771 158.303 334.762 159.889 334.762 158.592C334.762 157.294 339.519 152.826 341.104 142.158C344.132 137.257 350.042 112.894 339.086 105.831C338.942 100.785 335.627 97.3254 326.545 95.8838C317.463 94.4422 314.147 96.7487 312.129 102.371C308.813 103.236 303.768 115.489 302.903 125.58C300.452 127.022 288.632 138.987 286.325 143.455C284.019 147.924 277.532 170.413 276.234 176.179C274.937 181.945 266.576 217.984 264.269 221.3C261.963 224.615 260.954 226.922 262.828 219.858C264.702 212.795 273.351 170.268 277.099 162.628C280.847 154.988 281.28 148.645 291.659 133.797C302.038 118.949 300.597 111.741 298.723 106.984C296.848 102.227 295.407 98.1903 286.613 96.7487C277.82 95.3072 272.774 102.659 272.774 102.659C272.774 102.659 267.441 104.245 254.611 118.084C251.872 112.75 248.124 108.714 248.124 108.714C248.124 108.714 245.385 102.947 237.6 101.794C229.816 100.641 226.644 109.002 226.212 112.029C223.617 112.029 218.283 123.994 216.409 135.959C214.535 148.068 211.508 165.367 208.336 175.602C205.165 185.837 203.147 194.343 202.426 201.839C201.705 209.335 197.669 219.858 196.948 229.661C196.227 239.464 184.839 267.574 184.262 276.512C183.542 285.449 183.974 316.011 183.109 323.074C182.244 330.138 180.947 353.924 183.109 367.619C185.271 381.169 184.262 393.711 181.956 400.486C179.649 407.261 171 429.75 171 429.75H327.41V430.327Z" fill="#E0E1E2"/>
<path d="M327.41 430.327C329.284 428.02 337.356 419.659 346.15 410.865C354.943 402.072 372.963 371.078 378.297 364.88C383.631 358.681 397.758 343.4 401.218 335.76C404.677 328.12 400.929 303.613 401.218 295.973C401.506 288.333 405.11 251.861 402.659 242.347C400.209 232.832 396.316 228.94 393.145 222.309C389.973 215.678 389.397 213.66 386.514 211.641C383.631 209.623 385.36 192.324 385.937 189.874C386.514 187.423 388.532 176.323 388.532 172.431C388.532 168.539 388.532 157.439 391.559 149.222C394.586 141.005 392.568 116.354 387.379 108.57C382.189 100.785 378.008 98.9111 371.81 98.4786C365.611 98.0461 358.836 104.101 357.106 107.849C355.376 111.597 353.069 115.057 350.475 145.618C346.871 153.835 339.951 161.042 336.924 170.989C333.897 180.936 325.824 206.019 323.95 216.398C322.076 226.778 311.408 240.905 315.733 233.265C320.058 225.769 319.625 207.317 327.698 182.81C335.771 158.303 334.762 159.889 334.762 158.592C334.762 157.294 339.519 152.826 341.104 142.158C344.132 137.257 350.042 112.894 339.086 105.831C338.942 100.785 335.627 97.3254 326.545 95.8838C317.463 94.4422 314.147 96.7487 312.129 102.371C308.813 103.236 303.768 115.489 302.903 125.58C300.452 127.022 288.632 138.987 286.325 143.455C284.019 147.924 277.532 170.413 276.234 176.179C274.937 181.945 266.576 217.984 264.269 221.3C261.963 224.615 260.954 226.922 262.828 219.858C264.702 212.795 273.351 170.268 277.099 162.628C280.847 154.988 281.28 148.645 291.659 133.797C302.038 118.949 300.597 111.741 298.723 106.984C296.848 102.227 295.407 98.1903 286.613 96.7487C277.82 95.3072 272.774 102.659 272.774 102.659C272.774 102.659 267.441 104.245 254.611 118.084C251.872 112.75 248.124 108.714 248.124 108.714C248.124 108.714 245.385 102.947 237.6 101.794C229.816 100.641 226.644 109.002 226.212 112.029C223.617 112.029 218.283 123.994 216.409 135.959C214.535 148.068 211.508 165.367 208.336 175.602C205.165 185.837 203.147 194.343 202.426 201.839C201.705 209.335 197.669 219.858 196.948 229.661C196.227 239.464 184.839 267.574 184.262 276.512C183.542 285.449 183.974 316.011 183.109 323.074C182.244 330.138 180.947 353.924 183.109 367.619C185.271 381.169 184.262 393.711 181.956 400.486C179.649 407.261 171 429.75 171 429.75" stroke="#75819C" stroke-width="2" stroke-miterlimit="10"/>
<path d="M212.805 225.912C216.842 221.588 220.157 214.957 220.445 208.037C220.734 201.118 220.013 165.223 229.095 151.528C238.177 137.833 254.755 118.66 254.755 118.66" stroke="#75819C" stroke-width="2" stroke-miterlimit="10"/>
<path d="M373.827 309.957C371.809 306.208 369.358 303.758 369.358 300.875C369.358 297.992 370.944 264.98 372.674 253.159C374.26 241.338 382.332 207.173 385.071 200.109" stroke="#75819C" stroke-width="2" stroke-miterlimit="10"/>
<path opacity="0.33" d="M510.553 436.386C508.22 432.012 504.576 425.597 500.057 418.017C491.455 403.584 492.476 405.917 489.705 401.106C484.165 391.338 482.854 387.839 478.334 382.299C476.876 380.55 477.46 381.571 469.588 373.698C461.132 365.388 459.82 363.64 458.945 362.473C457.341 360.432 456.321 358.682 451.947 349.789C448.302 342.354 446.408 338.709 444.513 334.482C436.348 316.842 435.62 312.031 429.059 299.203C428.476 298.036 425.706 293.663 422.645 287.248C422.499 286.81 421.916 285.936 421.332 284.478C420.604 282.583 420.458 280.833 420.312 279.812C419.728 272.233 420.604 262.464 420.604 262.464C421.332 254.155 421.916 248.032 421.625 240.306C421.625 239.285 421.478 237.098 421.041 232.87C420.312 223.54 419.875 214.21 419.146 204.88C419 204.005 418.854 202.11 419.291 199.778C419.437 199.048 420.021 195.841 422.062 192.05C423.082 190.447 423.957 189.135 425.998 187.094C428.039 184.762 431.1 181.7 434.89 178.347C435.62 177.035 436.785 175.286 438.389 173.536C439.701 172.224 440.868 171.057 442.034 170.329C442.618 168.288 443.2 166.684 443.783 165.372C444.95 162.748 446.261 160.998 446.845 160.416C447.282 159.686 447.719 159.249 448.157 158.812C447.137 154.584 445.678 148.607 444.22 141.464C442.763 133.737 441.014 124.844 440.284 113.473C439.847 107.058 440.284 109.245 439.847 91.3136C439.556 81.6918 439.264 76.5894 439.264 67.1134C439.264 58.3663 439.41 53.4096 440.868 47.1409C442.034 42.4758 443.492 38.6854 445.678 35.0408C447.865 31.5419 449.615 28.6263 453.405 26.8769C457.778 24.6901 463.027 24.8359 466.963 26.8769C469.004 27.8973 470.316 29.2094 472.357 31.2504C475.71 34.6034 477.46 37.9565 477.751 38.5396C479.209 41.4553 479.792 44.0794 480.375 46.1204C480.959 48.7446 481.25 50.9313 481.396 53.9928C481.687 59.5326 481.687 62.0109 481.687 69.1544C481.833 78.193 482.124 80.0882 482.27 81.2544C482.854 85.0449 483.874 87.669 485.041 91.1678C487.082 97.2907 488.247 98.7486 490.581 105.017C492.33 109.682 493.35 113.473 493.933 115.514C495.099 119.742 496.995 126.739 498.016 134.903C498.307 136.945 498.598 141.026 499.911 146.421C500.202 147.878 500.494 148.899 500.785 149.773C502.535 149.773 504.284 149.627 506.034 149.627C506.908 148.316 508.074 146.421 508.949 143.942C509.824 141.464 510.115 139.131 510.115 137.527C511.428 129.947 512.448 121.636 513.031 112.453C513.469 105.892 513.469 99.7691 513.323 93.9377C513.031 91.022 512.885 86.9401 513.614 81.9834C514.052 79.7967 514.634 76.4436 516.384 72.799C517.405 70.758 520.611 64.1977 528.338 60.1157C536.94 55.4506 545.395 57.0542 548.019 57.6374C549.623 57.929 556.913 59.6784 563.327 65.9471C566.534 69.1544 568.43 72.3616 569.595 74.5484C569.741 75.423 570.032 76.2978 570.178 77.1725C570.325 83.2955 570.471 89.5642 570.471 95.6872C573.24 93.063 575.864 91.022 577.906 89.7099C580.675 87.8148 582.57 86.6485 585.34 85.7738C587.819 85.0449 589.86 85.0449 592.338 85.1907C595.691 85.1907 600.647 85.3365 606.479 87.8148C609.103 88.9811 612.165 90.2932 614.789 93.5003C616.538 95.5413 617.412 97.5823 617.996 99.0401C618.725 98.0197 619.745 96.5618 621.349 95.2498C623.098 93.6461 625.869 91.1678 629.805 90.8763C633.741 90.5847 636.656 92.6257 637.823 93.3546C642.05 96.4161 643.8 101.081 644.966 104.288C645.403 105.309 645.549 106.184 645.695 106.767C646.716 107.787 648.173 109.245 649.631 111.14C651.089 113.035 652.109 114.931 652.984 116.972C654.004 119.158 656.192 124.698 657.795 134.028C658.233 136.945 658.816 140.881 659.107 145.545C659.836 147.441 660.419 149.919 660.856 152.98C661.148 156.042 661.002 158.52 660.856 160.561C658.816 173.536 656.629 181.263 655.025 186.073C653.421 190.593 652.693 192.78 651.235 197.299C649.485 202.839 649.048 204.588 648.757 206.046C647.736 210.711 647.736 213.918 647.59 217.272C647.444 221.208 647.007 230.247 644.528 239.722C642.925 245.991 641.467 248.178 640.592 255.03C640.301 257.362 640.155 259.403 640.009 263.339C639.572 271.357 639.864 274.711 639.718 280.979C639.718 283.604 639.572 289.435 638.697 296.286C637.531 306.054 636.365 307.949 635.053 317.862C634.615 321.07 634.032 326.61 633.886 333.024C633.595 346.874 635.345 357.37 635.927 359.995C637.823 369.908 640.592 377.343 646.278 390.171C651.526 402.272 658.816 417.871 668 436.094C615.663 436.24 563.035 436.24 510.553 436.386Z" fill="#E0E1E2"/>
<g opacity="0.5">
<path d="M448.448 36.79C448.594 38.3936 448.74 39.9972 449.031 41.6009C449.177 42.3298 449.322 43.2045 449.614 43.9334C449.761 44.2251 449.906 44.6624 450.198 44.9539C450.343 45.0997 450.489 45.2455 450.489 45.2455C450.635 45.3913 450.78 45.3913 450.926 45.5371C452.239 46.1203 453.842 46.266 455.446 46.4118C457.049 46.5576 458.653 46.5576 460.256 46.5576C461.86 46.5576 463.464 46.266 464.921 45.9744C466.525 45.6828 467.983 45.2455 469.15 44.3708C469.733 43.9334 470.315 43.3503 470.608 42.7672C470.899 42.0382 471.045 41.3093 471.045 40.5805C471.191 38.9768 471.045 37.3732 471.191 35.7695C471.482 37.3732 471.628 38.9768 471.773 40.5805C471.773 41.4551 471.773 42.3298 471.482 43.2045C471.191 44.0792 470.607 44.8082 469.878 45.3913C468.42 46.5576 466.816 46.9949 465.214 47.4322C463.61 47.8697 461.86 48.0155 460.256 48.0155C458.653 48.0155 456.903 48.0155 455.299 47.8697C453.697 47.578 451.947 47.4322 450.343 46.5576C449.906 46.4118 449.468 45.9744 449.322 45.5371C449.031 45.0997 448.885 44.6624 448.74 44.3708C448.448 43.4961 448.302 42.7672 448.302 41.8924C448.302 40.143 448.302 38.5394 448.448 36.79Z" fill="#75819C"/>
</g>
<path d="M510.553 436.386C508.22 432.013 504.576 425.599 500.057 418.018C491.455 403.585 492.476 405.917 489.705 401.107C484.165 391.34 482.854 387.841 478.334 382.301C476.876 380.551 477.46 381.571 469.588 373.699C461.132 365.39 459.82 363.64 458.945 362.473C457.341 360.433 456.321 358.683 451.947 349.791C448.302 342.356 446.408 338.711 444.513 334.483C436.348 316.843 435.62 312.032 429.059 299.203C428.476 298.038 425.706 293.663 422.645 287.249C422.499 286.812 421.916 285.937 421.332 284.479C420.604 282.583 420.458 280.835 420.312 279.814C419.728 272.233 420.604 262.466 420.604 262.466C421.332 254.156 421.916 248.033 421.625 240.306C421.625 239.286 421.478 237.1 421.041 232.871C420.312 223.542 419.875 214.211 419.146 204.881C419 204.006 418.854 202.111 419.291 199.778C419.437 199.05 420.021 195.842 422.062 192.052C423.082 190.448 423.957 189.136 425.998 187.095C428.039 184.762 431.1 181.702 434.89 178.348C435.62 177.036 436.785 175.286 438.389 173.537C439.701 172.225 440.868 171.059 442.034 170.33C442.618 168.288 443.2 166.686 443.783 165.373C444.95 162.749 446.261 161 446.845 160.416C447.282 159.688 447.719 159.25 448.157 158.812" stroke="#75819C" stroke-width="2" stroke-miterlimit="10"/>
<path d="M503.118 149.481C504.139 149.481 505.013 149.335 506.034 149.335C506.908 148.023 508.075 146.128 508.949 143.649C509.824 141.17 510.116 138.838 510.116 137.234C511.428 129.654 512.448 121.344 513.031 112.16C513.469 105.599 513.469 99.4765 513.322 93.645C513.031 90.7294 512.885 86.6475 513.615 81.6908C514.052 79.504 514.635 76.151 516.384 72.5064C517.405 70.4654 520.612 63.905 528.338 59.8231C536.94 55.1579 545.395 56.7616 548.02 57.3448C549.624 57.6363 556.912 59.3858 563.327 65.6545C566.534 68.8617 568.429 72.0689 569.596 74.2558C569.741 75.1304 570.033 76.0052 570.178 76.8798C570.324 83.0028 570.471 89.2715 570.471 95.3945C573.24 92.7704 575.864 90.7294 577.905 89.4173C580.675 87.5221 582.571 86.3558 585.34 85.4812C587.819 84.7523 589.86 84.7522 592.338 84.8981C595.691 84.8981 600.647 85.0438 606.479 87.5221C609.103 88.6884 612.164 90.0004 614.789 93.2077C616.539 95.2487 617.413 97.2897 617.996 98.7475C618.725 97.7271 619.745 96.2692 621.349 94.9571C623.098 93.3535 625.869 90.8752 629.805 90.5836C633.741 90.2921 636.656 92.3331 637.823 93.0619C642.05 96.1234 643.8 100.788 644.967 103.996C645.404 105.016 645.549 105.891 645.695 106.474C646.716 107.495 648.173 108.952 649.631 110.847C651.089 112.742 652.109 114.638 652.985 116.679C654.005 118.866 656.192 124.406 657.795 133.735C658.233 136.651 658.816 140.588 659.107 145.253C659.836 147.148 660.42 149.627 660.857 152.687C661.148 155.749 661.002 158.227 660.857 160.268C658.816 173.243 656.629 180.97 655.025 185.781C653.422 190.3 652.693 192.487 651.235 197.007C649.486 202.547 649.048 204.296 648.757 205.753C647.736 210.419 647.736 213.625 647.59 216.979C647.445 220.915 647.008 229.954 644.528 239.43C642.926 245.698 641.468 247.885 640.592 254.737C640.301 257.069 640.155 259.11 640.01 263.046C639.572 271.065 639.864 274.418 639.718 280.687C639.718 283.311 639.572 289.142 638.697 295.994C637.531 305.762 636.365 307.657 635.052 317.57C634.615 320.778 634.033 326.318 633.887 332.732C633.595 346.581 635.345 357.078 635.928 359.702C637.823 369.615 640.592 377.05 646.278 389.879C651.526 401.979 658.816 417.578 668 435.801" stroke="#75819C" stroke-width="2" stroke-miterlimit="10"/>
<path d="M441.45 244.243C443.053 241.765 445.386 238.12 447.135 233.163C448.01 230.83 449.03 227.186 449.906 218.439C450.488 213.191 450.634 209.838 450.78 201.382C451.071 192.635 451.217 187.532 451.363 184.18" stroke="#75819C" stroke-width="2" stroke-miterlimit="10"/>
<path d="M451.365 184.179C451.51 179.806 451.365 178.494 451.219 176.598C450.927 172.078 449.615 165.227 448.011 158.521C446.99 154.293 445.533 148.316 444.075 141.172C442.617 133.446 440.868 124.554 440.139 113.181C439.701 106.767 440.139 108.954 439.701 91.0226C439.41 81.4008 439.118 76.2984 439.118 66.8224C439.118 58.0753 439.264 53.1186 440.722 46.8499C441.889 42.1848 443.346 38.3944 445.533 34.7497C447.72 31.2509 449.469 28.3353 453.26 26.5859C457.633 24.3991 462.882 24.5449 466.818 26.5859C468.859 27.6063 470.17 28.9184 472.212 30.9594C475.564 34.3124 477.314 37.6655 477.605 38.2486C479.063 41.1643 479.646 43.7884 480.23 45.8294C480.813 48.4535 481.104 50.6403 481.25 53.7018C481.541 59.2416 481.541 61.7199 481.541 68.8634C481.688 77.902 481.979 79.7972 482.125 80.9635C482.708 84.7539 483.729 87.378 484.895 90.8768C486.935 96.9997 488.102 98.4576 490.434 104.726C492.184 109.392 493.205 113.182 493.788 115.223C494.953 119.451 496.849 126.448 497.87 134.612C498.161 136.653 498.452 140.735 499.765 146.129C500.056 147.587 500.348 148.607 500.639 149.483C501.514 149.483 502.243 149.483 503.118 149.337" stroke="#F69AED" stroke-width="3" stroke-miterlimit="10" stroke-linecap="round"/>
<path d="M569.304 156.479C565.367 150.21 566.534 140.734 566.826 136.361C567.845 122.657 569.012 108.661 570.616 95.541" stroke="#75819C" stroke-width="2" stroke-miterlimit="10"/>
<path d="M610.561 175.141C615.809 149.045 619.162 129.219 620.329 120.908C620.62 118.139 621.203 113.473 620.474 107.642C619.89 103.56 619.016 101.228 618.141 99.041" stroke="#75819C" stroke-width="2" stroke-miterlimit="10"/>
<path d="M619.453 127.031C620.183 132.28 620.328 137.965 620.474 141.756C620.474 142.193 615.517 153.127 614.351 156.48" stroke="#75819C" stroke-width="2" stroke-miterlimit="10"/>
</svg>
