<svg width="900" height="500" viewBox="0 0 900 500" fill="none" xmlns="http://www.w3.org/2000/svg">
<path opacity="0.33" d="M350.977 429.161C356.313 422.383 372.176 398.876 377.224 391.088C382.271 383.301 393.664 356.765 398.423 350.708C403.182 344.651 408.951 337.008 406.355 319.125C403.904 301.243 401.74 295.042 403.183 269.516C404.625 243.99 400.154 238.942 394.241 226.684C393.087 219.329 391.213 217.31 388.473 215.147C388.905 210.099 391.501 190.053 393.087 179.814C394.818 169.575 391.357 172.748 393.087 150.971C394.818 129.195 388.905 113.764 385.156 109.293C384.579 104.967 380.397 100.063 372.753 98.4771C365.254 96.7465 358.332 103.669 358.332 106.697C355.88 107.563 348.093 118.234 351.986 153.134C343.478 173.469 338.142 194.38 336.988 201.446C335.69 208.513 329.921 240.384 327.614 239.086C325.307 237.788 334.536 207.359 337.276 188.467C340.016 169.575 342.901 156.451 344.631 147.51C346.362 138.569 346.506 109.293 336.7 105.688C334.392 98.3329 327.326 96.4581 320.836 96.0254C314.346 95.5928 308.866 100.784 308.722 103.813C305.838 104.823 302.809 118.811 304.107 138.28C297.617 145.203 288.82 167.123 279.014 215.291C279.014 215.291 282.186 168.421 288.243 149.241C294.445 130.06 298.915 122.561 295.31 111.889C297.041 106.842 292.281 103.092 285.792 101.073C279.302 99.0539 271.947 102.515 270.505 106.553C265.313 107.418 256.66 122.849 252.911 135.108C245.989 147.366 237.768 168.998 234.596 181.256C231.423 193.514 229.981 238.365 228.106 241.394C226.231 244.422 222.914 244.711 220.318 241.826C217.723 238.942 217.001 238.077 216.28 232.741C215.559 227.261 214.261 217.743 212.675 210.676C211.233 203.609 209.502 189.621 210.079 184.429C210.656 179.237 217.29 170.007 216.569 157.893C215.848 145.779 208.204 141.165 206.185 139.578C204.166 138.136 201.859 134.675 194.937 136.55C188.014 138.425 184.697 154.288 184.697 154.288C184.697 154.288 175.9 171.45 174.458 175.343C173.016 179.237 173.304 183.996 171.862 190.342C170.42 196.687 172.295 203.033 170.132 209.378C168.113 215.724 168.978 226.107 171.285 234.76C173.593 243.413 171.862 243.845 173.737 250.479C175.612 256.969 179.361 265.91 180.659 272.111C181.957 278.313 181.525 292.013 182.39 302.685C183.255 313.357 188.159 319.27 189.456 333.258C190.754 347.247 193.494 386.185 195.369 397.434C197.244 408.683 198.398 412.144 192.773 429.45H350.977V429.161Z" fill="#697695"/>
<path d="M350.977 429.161C356.313 422.383 372.176 398.876 377.224 391.088C382.271 383.301 393.664 356.765 398.423 350.708C403.182 344.651 408.951 337.008 406.355 319.125C403.904 301.243 401.74 295.042 403.183 269.516C404.625 243.99 400.154 238.942 394.241 226.684C393.087 219.329 391.213 217.31 388.473 215.147C388.905 210.099 391.501 190.053 393.087 179.814C394.818 169.575 391.357 172.748 393.087 150.971C394.818 129.195 388.905 113.764 385.156 109.293C384.579 104.967 380.397 100.063 372.753 98.4771C365.254 96.7465 358.332 103.669 358.332 106.697C355.88 107.563 348.093 118.234 351.986 153.134C343.478 173.469 338.142 194.38 336.988 201.446C335.69 208.513 329.921 240.384 327.614 239.086C325.307 237.788 334.536 207.359 337.276 188.467C340.016 169.575 342.901 156.451 344.631 147.51C346.362 138.569 346.506 109.293 336.7 105.688C334.392 98.3329 327.326 96.4581 320.836 96.0254C314.346 95.5928 308.866 100.784 308.722 103.813C305.838 104.823 302.809 118.811 304.107 138.28C297.617 145.203 288.82 167.123 279.014 215.291C279.014 215.291 282.186 168.421 288.243 149.241C294.445 130.06 298.915 122.561 295.31 111.889C297.041 106.842 292.281 103.092 285.792 101.073C279.302 99.0539 271.947 102.515 270.505 106.553C265.313 107.418 256.66 122.849 252.911 135.108C245.989 147.366 237.768 168.998 234.596 181.256C231.423 193.514 229.981 238.365 228.106 241.394C226.231 244.422 222.914 244.711 220.318 241.826C217.723 238.942 217.001 238.077 216.28 232.741C215.559 227.261 214.261 217.743 212.675 210.676C211.233 203.609 209.502 189.621 210.079 184.429C210.656 179.237 217.29 170.007 216.569 157.893C215.848 145.779 208.204 141.165 206.185 139.578C204.166 138.136 201.859 134.675 194.937 136.55C188.014 138.425 184.697 154.288 184.697 154.288C184.697 154.288 175.9 171.45 174.458 175.343C173.016 179.237 173.304 183.996 171.862 190.342C170.42 196.687 172.295 203.033 170.132 209.378C168.113 215.724 168.978 226.107 171.285 234.76C173.593 243.413 171.862 243.845 173.737 250.479C175.612 256.969 179.361 265.91 180.659 272.111C181.957 278.313 181.525 292.013 182.39 302.685C183.255 313.357 188.159 319.27 189.456 333.258C190.754 347.247 193.494 386.185 195.369 397.434C197.244 408.683 198.398 412.144 192.773 429.45" stroke="#445272" stroke-width="2" stroke-miterlimit="10"/>
<path d="M220.462 241.539C217.866 238.511 217.145 237.789 216.424 232.454C215.703 226.973 214.405 217.455 212.819 210.389C211.376 203.322 209.646 189.333 210.223 184.142C210.8 178.95 217.433 169.72 216.712 157.606C215.991 145.492 208.348 140.877 206.329 139.291C204.31 137.849 202.002 134.388 195.08 136.262C188.158 138.137 184.841 154.001 184.841 154.001C184.841 154.001 176.044 171.162 174.602 175.056C173.16 178.95 173.448 183.709 172.006 190.054C170.564 196.4 172.438 202.745 170.275 209.091C168.256 215.436 169.122 225.82 171.429 234.473C173.736 243.125 172.006 243.558 173.881 250.192C175.755 256.682 179.505 265.623 180.803 271.824" stroke="#BA6DCD" stroke-width="3" stroke-miterlimit="10" stroke-linecap="round"/>
<g opacity="0.5">
<path d="M188.159 155.298C189.89 154.865 191.765 154.865 193.495 154.433C195.226 154 196.668 153.279 197.966 152.125C199.264 151.116 200.562 149.818 201.715 148.376C202.292 147.655 202.869 146.933 203.446 146.357C204.023 145.636 204.455 144.914 205.176 144.193C204.888 145.059 204.455 145.924 204.023 146.789C203.59 147.655 203.157 148.376 202.581 149.241C201.571 150.827 200.273 152.269 198.831 153.423C197.389 154.577 195.514 155.442 193.639 155.586C191.765 155.875 190.034 155.298 188.159 155.298Z" fill="#B1BBD0"/>
</g>
<path d="M378.81 291.581C378.522 280.909 377.079 261.007 378.81 249.037C380.541 237.212 388.617 215.291 388.617 215.291" stroke="#445272" stroke-width="2" stroke-miterlimit="10"/>
<path d="M271.658 238.798C274.687 232.164 278.436 222.79 279.013 215.146" stroke="#445272" stroke-width="2" stroke-miterlimit="10"/>
<path opacity="0.33" d="M584.534 428.136C582.805 425.111 580.068 420.645 575.747 416.18C570.273 410.274 566.384 408.401 560.046 403.648C551.259 397.166 545.641 391.404 536.854 382.473C527.491 372.822 528.355 372.245 520.433 364.755C511.358 356.256 505.452 351.215 505.452 351.215C499.978 346.605 497.961 345.165 495.512 341.707C493.64 339.115 492.055 336.09 489.462 327.735C486.582 318.228 487.014 316.643 484.421 306.992C481.972 297.629 481.54 298.781 477.651 285.241C475.778 278.615 475.202 275.878 473.329 269.828C470.592 261.473 469.584 260.609 468.72 256.719C466.991 249.229 468.72 241.738 470.304 236.553C471.601 232.231 472.465 231.655 473.041 227.91C473.905 222.58 474.338 221.86 474.914 220.419C475.346 219.555 476.066 218.259 477.218 216.962C476.066 212.497 475.202 207.167 474.77 201.117C474.193 193.771 474.626 187.289 475.346 182.103C476.498 182.103 477.507 181.959 478.659 181.959C480.532 181.383 482.98 180.662 486.149 180.662C492.487 180.662 497.097 183.399 499.114 184.696C499.258 181.959 499.258 177.925 498.682 173.028C497.817 165.825 496.377 161.216 494.936 155.742C492.776 147.531 491.623 141.481 490.903 134.135C490.327 127.941 489.895 123.908 490.615 119.298C491.191 115.121 491.767 111.376 494.648 107.63C495.657 106.334 499.114 102.301 505.02 101.148C513.662 99.4196 520.145 105.181 521.441 106.334C524.034 108.639 525.186 110.799 527.347 114.833C530.804 121.459 532.101 127.221 532.965 131.254C533.685 134.279 534.261 138.6 534.549 143.93C534.981 146.811 535.702 151.133 537.718 156.03C538.583 158.335 539.735 160.64 543.768 167.698C547.081 173.604 549.53 178.79 550.539 180.374C556.3 190.025 559.758 198.236 564.223 208.752C566.24 213.505 568.833 218.547 571.425 225.893C572.002 225.605 572.722 225.317 573.298 225.029C573.298 222.58 573.154 218.835 572.002 214.658C570.705 209.184 568.689 205.439 567.824 203.71C565.231 198.668 561.63 190.89 557.021 178.214C553.564 168.562 550.971 160.784 549.242 155.454C547.226 148.972 545.929 144.651 543.192 136.296C541.32 130.534 539.735 127.797 538.295 122.179C536.854 115.553 536.71 111.231 538.439 107.054C539.159 105.326 540.023 104.029 540.599 103.165C540.743 101.724 541.32 99.2755 543.048 96.8267C546.073 92.5053 550.827 91.353 552.411 90.9208C559.614 89.1922 565.375 92.9375 566.24 93.5136C567.968 94.666 569.121 95.9625 569.841 96.8267C571.137 97.8351 573.01 99.4196 574.883 101.868C576.467 104.029 577.331 105.902 578.34 107.918C580.068 111.52 579.78 112.528 580.933 115.265C581.941 117.426 583.093 119.154 585.542 121.747C588.711 125.204 592.024 128.661 595.481 132.406C598.65 130.966 601.387 130.39 603.26 130.102C606.573 129.526 608.59 129.814 618.241 130.102C620.546 130.246 622.418 130.246 623.571 130.246C624.435 130.102 625.443 129.814 626.308 129.67C627.892 129.237 629.333 128.805 630.773 128.373C629.765 125.636 628.468 121.171 629.044 115.553C629.188 113.536 629.621 109.791 632.069 105.614C633.078 103.885 634.086 102.589 634.806 101.724C635.094 101.004 635.671 99.8517 636.823 98.6994C638.263 97.4029 639.848 97.1148 641 96.8267C644.025 96.2506 646.474 96.8267 648.059 97.2589C649.211 98.6994 651.084 101.004 653.532 103.597C658.718 109.503 660.735 111.087 663.472 114.833C665.056 116.993 667.361 120.162 669.522 124.628C672.835 129.237 676.148 133.991 679.461 138.6C682.054 143.498 685.079 148.828 688.824 154.302C691.129 157.759 693.578 160.928 695.882 163.809C697.035 167.266 698.619 172.02 700.348 177.637C703.517 187.577 705.101 192.474 705.678 196.219C706.542 201.693 706.254 203.566 707.694 211.2C708.126 213.073 708.559 215.522 709.567 219.555C712.304 230.935 714.032 234.248 715.905 241.883C718.354 251.39 719.218 259.024 719.506 261.617C720.082 266.803 719.938 272.853 719.938 284.953C719.938 291.579 719.794 295.612 719.794 300.654C719.65 310.161 719.65 316.931 719.65 330.472C719.65 347.613 719.65 357.553 720.37 369.797C720.659 375.415 721.235 382.041 723.684 390.251C724.692 393.564 725.844 396.734 729.013 403.504C732.038 409.986 736.216 418.629 742.122 429C689.688 428.568 637.111 428.424 584.534 428.136Z" fill="#697695"/>
<path d="M630.917 127.941C629.908 125.204 628.612 120.739 629.188 115.121C629.332 113.104 629.764 109.359 632.213 105.182C633.221 103.453 634.23 102.157 634.95 101.292C635.238 100.572 635.814 99.4198 636.967 98.2674C638.407 96.971 639.992 96.6829 641.144 96.3948C644.169 95.8186 646.618 96.3948 648.202 96.8269C649.355 98.2674 651.227 100.572 653.676 103.165C658.862 109.071 660.878 110.655 663.615 114.401C665.2 116.561 667.505 119.73 669.665 124.196C672.978 128.805 676.292 133.559 679.605 138.169C682.197 143.066 685.222 148.396 688.968 153.87C691.272 157.327 693.721 160.496 696.026 163.377C697.178 166.834 698.763 171.588 700.492 177.205C703.661 187.145 705.245 192.042 705.821 195.788C706.686 201.261 706.397 203.134 707.838 210.768C708.27 212.641 708.702 215.09 709.711 219.123C712.447 230.503 714.176 233.816 716.049 241.451C718.497 250.958 719.362 258.592 719.65 261.185C720.226 266.371 720.082 272.421 720.082 284.521C720.082 291.147 719.938 295.18 719.938 300.222C719.794 309.729 719.794 316.499 719.794 330.04C719.794 347.181 719.794 357.121 720.514 369.365C720.802 374.983 721.378 381.609 723.827 389.819C724.835 393.133 725.988 396.302 729.157 403.072C732.182 409.554 736.359 418.197 742.265 428.568" stroke="#445272" stroke-width="2" stroke-miterlimit="10"/>
<path d="M615.936 171.443C616.512 171.731 618.528 171.587 619.105 171.876C619.969 174.324 620.401 177.925 621.409 180.662C622.85 184.408 623.858 186.568 625.443 189.737C625.299 191.034 624.722 193.195 624.722 194.491" stroke="#BA6DCD" stroke-width="3" stroke-miterlimit="10" stroke-linecap="round"/>
<path d="M684.503 222.148C683.494 220.852 682.198 218.547 681.334 215.666C680.613 213.073 680.613 211.201 680.613 210.337C680.469 201.838 679.173 193.339 678.741 184.84C678.165 173.46 677.732 169.427 676.868 164.097C676.148 160.208 675.572 157.615 675.14 155.599C672.835 147.1 670.098 142.058 668.513 139.609C666.065 135.576 664.336 134.135 662.896 133.271C662.031 132.695 660.591 131.975 656.558 131.11C651.516 130.102 636.823 127.941 631.061 127.941C629.621 128.374 628.18 128.806 626.596 129.238C625.587 129.526 624.723 129.67 623.859 129.814C622.706 129.814 620.834 129.67 618.529 129.67C608.878 129.382 606.861 129.094 603.548 129.67C601.675 129.958 600.091 130.102 596.922 131.543" stroke="#BA6DCD" stroke-width="3" stroke-miterlimit="10" stroke-linecap="round"/>
<path d="M527.924 306.56C530.229 300.51 530.517 295.468 530.517 292.299C530.517 287.258 529.509 282.792 528.356 277.318C527.636 274.005 527.348 273.717 526.34 269.108C525.043 263.346 524.755 261.041 524.179 258.16C522.883 252.542 521.298 248.653 518.849 243.467C513.808 232.231 508.91 220.708 507.902 218.115C504.877 210.768 501.131 199.965 498.971 185.416" stroke="#445272" stroke-width="2" stroke-miterlimit="10"/>
<path d="M639.993 216.674C637.4 214.802 633.799 211.777 630.341 207.311C629.189 205.871 627.172 202.99 623.715 195.355C621.987 191.466 620.69 188.153 616.369 175.621C613.344 166.834 612.48 164.385 610.319 158.479C609.455 156.319 607.438 150.701 604.125 144.219C602.972 141.77 601.244 138.745 598.507 135.288C597.355 133.847 596.346 132.839 595.626 131.975" stroke="#445272" stroke-width="2" stroke-miterlimit="10"/>
<path d="M584.534 428.136C582.805 425.111 580.068 420.645 575.747 416.18C570.273 410.274 566.384 408.401 560.046 403.648C551.259 397.166 545.641 391.404 536.854 382.473C527.491 372.822 528.355 372.245 520.433 364.755C511.358 356.256 505.452 351.215 505.452 351.215C499.978 346.605 497.961 345.165 495.512 341.707C493.64 339.115 492.055 336.09 489.462 327.735C486.582 318.228 487.014 316.643 484.421 306.992C481.972 297.629 481.54 298.781 477.651 285.241C475.778 278.615 475.202 275.878 473.329 269.828C470.592 261.473 469.584 260.609 468.72 256.719C466.991 249.229 468.72 241.738 470.304 236.553C471.601 232.231 472.465 231.655 473.041 227.91C473.905 222.58 474.338 221.86 474.914 220.419C475.346 219.555 476.066 218.259 477.218 216.962C476.066 212.497 475.202 207.167 474.77 201.117C474.193 193.771 474.626 187.289 475.346 182.103C476.498 182.103 477.507 181.959 478.659 181.959C480.532 181.383 482.98 180.662 486.149 180.662C492.487 180.662 497.097 183.399 499.114 184.696C499.258 181.959 499.258 177.925 498.682 173.028C497.817 165.825 496.377 161.216 494.936 155.742C492.776 147.531 491.623 141.481 490.903 134.135C490.327 127.941 489.895 123.908 490.615 119.298C491.191 115.121 491.767 111.376 494.648 107.63C495.657 106.334 499.114 102.301 505.02 101.148C513.662 99.4196 520.145 105.181 521.441 106.334C524.034 108.639 525.186 110.799 527.347 114.833C530.804 121.459 532.101 127.221 532.965 131.254C533.685 134.279 534.261 138.6 534.549 143.93C534.981 146.811 535.702 151.133 537.718 156.03C538.583 158.335 539.735 160.64 543.768 167.698C547.081 173.604 549.53 178.79 550.539 180.374C556.3 190.025 559.758 198.236 564.223 208.752C566.24 213.505 568.833 218.547 571.425 225.893C572.002 225.605 572.722 225.317 573.298 225.029C573.298 222.58 573.154 218.835 572.002 214.658C570.705 209.184 568.689 205.439 567.824 203.71C565.231 198.668 561.63 190.89 557.021 178.214C553.564 168.562 550.971 160.784 549.242 155.454C547.226 148.972 545.929 144.651 543.192 136.296C541.32 130.534 539.735 127.797 538.295 122.179C536.854 115.553 536.71 111.231 538.439 107.054C539.159 105.326 540.023 104.029 540.599 103.165C540.743 101.724 541.32 99.2755 543.048 96.8267C546.073 92.5053 550.827 91.353 552.411 90.9208C559.614 89.1922 565.375 92.9375 566.24 93.5136C567.968 94.666 569.121 95.9625 569.841 96.8267C571.137 97.8351 573.01 99.4196 574.883 101.868C576.467 104.029 577.331 105.902 578.34 107.918C580.068 111.52 579.78 112.528 580.933 115.265C581.941 117.426 583.093 119.154 585.542 121.747C588.711 125.204 592.024 128.661 595.481 132.406" stroke="#445272" stroke-width="2" stroke-miterlimit="10"/>
<g opacity="0.5">
<path d="M480.963 214.804C482.259 214.66 483.124 213.364 483.412 212.211C483.556 210.915 483.7 209.618 483.844 208.322C483.988 205.729 484.132 203.136 484.132 200.543L484.276 192.621C484.276 191.324 484.42 190.028 484.42 188.732C484.42 187.435 484.42 186.139 483.7 184.986C484.708 185.995 484.852 187.435 485.14 188.732L485.428 192.621C485.572 195.214 485.716 197.951 485.572 200.543C485.572 203.136 485.428 205.873 484.996 208.466C484.852 209.762 484.564 211.059 484.132 212.355C483.844 213.076 483.412 213.652 482.98 214.084C482.259 214.66 481.539 214.948 480.963 214.804Z" fill="#B1BBD0"/>
</g>
</svg>
