<svg width="900" height="500" viewBox="0 0 900 500" fill="none" xmlns="http://www.w3.org/2000/svg">
<path opacity="0.33" d="M350.977 429.161C356.313 422.383 372.176 398.876 377.224 391.088C382.271 383.301 393.664 356.765 398.423 350.708C403.182 344.651 408.951 337.008 406.355 319.125C403.904 301.243 401.74 295.042 403.183 269.516C404.625 243.99 400.154 238.942 394.241 226.684C393.087 219.329 391.213 217.31 388.473 215.147C388.905 210.099 391.501 190.053 393.087 179.814C394.818 169.575 391.357 172.748 393.087 150.971C394.818 129.195 388.905 113.764 385.156 109.293C384.579 104.967 380.397 100.063 372.753 98.4771C365.254 96.7465 358.332 103.669 358.332 106.697C355.88 107.563 348.093 118.234 351.986 153.134C343.478 173.469 338.142 194.38 336.988 201.446C335.69 208.513 329.921 240.384 327.614 239.086C325.307 237.788 334.536 207.359 337.276 188.467C340.016 169.575 342.901 156.451 344.631 147.51C346.362 138.569 346.506 109.293 336.7 105.688C334.392 98.3329 327.326 96.4581 320.836 96.0254C314.346 95.5928 308.866 100.784 308.722 103.813C305.838 104.823 302.809 118.811 304.107 138.28C297.617 145.203 288.82 167.123 279.014 215.291C279.014 215.291 282.186 168.421 288.243 149.241C294.445 130.06 298.915 122.561 295.31 111.889C297.041 106.842 292.281 103.092 285.792 101.073C279.302 99.0539 271.947 102.515 270.505 106.553C265.313 107.418 256.66 122.849 252.911 135.108C245.989 147.366 237.768 168.998 234.596 181.256C231.423 193.514 229.981 238.365 228.106 241.394C226.231 244.422 222.914 244.711 220.318 241.826C217.723 238.942 217.001 238.077 216.28 232.741C215.559 227.261 214.261 217.743 212.675 210.676C211.233 203.609 209.502 189.621 210.079 184.429C210.656 179.237 217.29 170.007 216.569 157.893C215.848 145.779 208.204 141.165 206.185 139.578C204.166 138.136 201.859 134.675 194.937 136.55C188.014 138.425 184.697 154.288 184.697 154.288C184.697 154.288 175.9 171.45 174.458 175.343C173.016 179.237 173.304 183.996 171.862 190.342C170.42 196.687 172.295 203.033 170.132 209.378C168.113 215.724 168.978 226.107 171.285 234.76C173.593 243.413 171.862 243.845 173.737 250.479C175.612 256.969 179.361 265.91 180.659 272.111C181.957 278.313 181.525 292.013 182.39 302.685C183.255 313.357 188.159 319.27 189.456 333.258C190.754 347.247 193.494 386.185 195.369 397.434C197.244 408.683 198.398 412.144 192.773 429.45H350.977V429.161Z" fill="#697695"/>
<path d="M350.977 429.161C356.313 422.383 372.176 398.876 377.224 391.088C382.271 383.301 393.664 356.765 398.423 350.708C403.182 344.651 408.951 337.008 406.355 319.125C403.904 301.243 401.74 295.042 403.183 269.516C404.625 243.99 400.154 238.942 394.241 226.684C393.087 219.329 391.213 217.31 388.473 215.147C388.905 210.099 391.501 190.053 393.087 179.814C394.818 169.575 391.357 172.748 393.087 150.971C394.818 129.195 388.905 113.764 385.156 109.293C384.579 104.967 380.397 100.063 372.753 98.4771C365.254 96.7465 358.332 103.669 358.332 106.697C355.88 107.563 348.093 118.234 351.986 153.134C343.478 173.469 338.142 194.38 336.988 201.446C335.69 208.513 329.921 240.384 327.614 239.086C325.307 237.788 334.536 207.359 337.276 188.467C340.016 169.575 342.901 156.451 344.631 147.51C346.362 138.569 346.506 109.293 336.7 105.688C334.392 98.3329 327.326 96.4581 320.836 96.0254C314.346 95.5928 308.866 100.784 308.722 103.813C305.838 104.823 302.809 118.811 304.107 138.28C297.617 145.203 288.82 167.123 279.014 215.291C279.014 215.291 282.186 168.421 288.243 149.241C294.445 130.06 298.915 122.561 295.31 111.889C297.041 106.842 292.281 103.092 285.792 101.073C279.302 99.0539 271.947 102.515 270.505 106.553C265.313 107.418 256.66 122.849 252.911 135.108C245.989 147.366 237.768 168.998 234.596 181.256C231.423 193.514 229.981 238.365 228.106 241.394C226.231 244.422 222.914 244.711 220.318 241.826C217.723 238.942 217.001 238.077 216.28 232.741C215.559 227.261 214.261 217.743 212.675 210.676C211.233 203.609 209.502 189.621 210.079 184.429C210.656 179.237 217.29 170.007 216.569 157.893C215.848 145.779 208.204 141.165 206.185 139.578C204.166 138.136 201.859 134.675 194.937 136.55C188.014 138.425 184.697 154.288 184.697 154.288C184.697 154.288 175.9 171.45 174.458 175.343C173.016 179.237 173.304 183.996 171.862 190.342C170.42 196.687 172.295 203.033 170.132 209.378C168.113 215.724 168.978 226.107 171.285 234.76C173.593 243.413 171.862 243.845 173.737 250.479C175.612 256.969 179.361 265.91 180.659 272.111C181.957 278.313 181.525 292.013 182.39 302.685C183.255 313.357 188.159 319.27 189.456 333.258C190.754 347.247 193.494 386.185 195.369 397.434C197.244 408.683 198.398 412.144 192.773 429.45" stroke="#445272" stroke-width="2" stroke-miterlimit="10"/>
<path d="M220.462 241.539C217.866 238.511 217.145 237.789 216.424 232.454C215.703 226.973 214.405 217.455 212.819 210.389C211.376 203.322 209.646 189.333 210.223 184.142C210.8 178.95 217.433 169.72 216.712 157.606C215.991 145.492 208.348 140.877 206.329 139.291C204.31 137.849 202.002 134.388 195.08 136.262C188.158 138.137 184.841 154.001 184.841 154.001C184.841 154.001 176.044 171.162 174.602 175.056C173.16 178.95 173.448 183.709 172.006 190.054C170.564 196.4 172.438 202.745 170.275 209.091C168.256 215.436 169.122 225.82 171.429 234.473C173.736 243.125 172.006 243.558 173.881 250.192C175.755 256.682 179.505 265.623 180.803 271.824" stroke="#BA6DCD" stroke-width="3" stroke-miterlimit="10" stroke-linecap="round"/>
<g opacity="0.5">
<path d="M188.159 155.298C189.89 154.865 191.765 154.865 193.495 154.433C195.226 154 196.668 153.279 197.966 152.125C199.264 151.116 200.562 149.818 201.715 148.376C202.292 147.655 202.869 146.933 203.446 146.357C204.023 145.636 204.455 144.914 205.176 144.193C204.888 145.059 204.455 145.924 204.023 146.789C203.59 147.655 203.157 148.376 202.581 149.241C201.571 150.827 200.273 152.269 198.831 153.423C197.389 154.577 195.514 155.442 193.639 155.586C191.765 155.875 190.034 155.298 188.159 155.298Z" fill="#B1BBD0"/>
</g>
<path d="M378.81 291.581C378.522 280.909 377.079 261.007 378.81 249.037C380.541 237.212 388.617 215.291 388.617 215.291" stroke="#445272" stroke-width="2" stroke-miterlimit="10"/>
<path d="M271.658 238.798C274.687 232.164 278.436 222.79 279.013 215.146" stroke="#445272" stroke-width="2" stroke-miterlimit="10"/>
<path opacity="0.33" d="M545.254 429.668C535.081 417.346 525.911 410.325 519.177 406.027C515.881 403.878 510.293 400.582 502.986 394.565C497.111 389.693 498.114 389.693 491.667 384.248C483.07 376.941 479.345 375.508 471.894 368.057C468.885 365.049 467.309 363.472 465.733 361.18C462.437 356.165 461.578 351.723 460.145 343.843C456.276 323.067 456.993 323.784 455.56 319.485C452.694 310.172 451.118 310.458 449.542 302.578C448.539 297.277 448.539 293.838 446.39 287.533C444.527 282.089 443.954 282.948 442.951 278.937C440.372 269.623 442.378 260.597 442.951 258.161C443.668 254.865 444.384 253.433 444.527 249.994C444.671 246.985 444.241 245.409 444.527 241.97C444.814 239.391 445.387 237.385 445.817 235.952C443.668 230.364 441.662 224.06 439.942 217.039C439.226 214.174 438.796 211.308 438.366 208.729C439.799 207.439 442.378 205.72 445.817 204.717C453.124 202.711 459.572 205.863 462.581 207.439C463.727 208.012 468.312 210.305 472.754 215.463C484.216 228.502 487.082 249.707 487.655 254.722C487.512 256.298 487.368 258.447 486.509 260.74C485.936 262.603 485.219 264.035 484.503 265.325C485.506 266.185 486.938 267.474 488.085 269.48C489.947 272.346 490.521 275.068 490.664 275.784C491.38 278.937 493.386 284.954 498.831 296.847C497.255 276.787 495.679 256.728 494.103 236.525C493.1 230.078 491.237 219.045 488.944 205.004C486.222 187.523 485.219 180.932 485.649 171.476C485.936 166.604 486.222 167.464 487.082 156.431C488.371 140.814 487.798 139.237 488.944 130.354C491.094 113.877 494.532 108.575 496.538 106.14C500.98 100.552 505.279 99.4053 506.425 99.2621C511.01 98.2591 514.735 99.6919 516.025 100.122C522.616 102.701 525.481 108.575 526.341 110.295C527.774 113.16 528.203 115.883 528.49 117.459C529.063 120.898 528.92 123.62 528.92 125.053C528.06 140.814 528.92 135.512 528.06 146.831C527.63 151.56 527.487 154.139 528.06 158.151C528.633 161.303 529.35 163.452 530.066 165.458C533.218 174.198 535.368 181.505 535.654 182.795C536.227 184.801 537.087 191.678 538.95 205.147C540.096 213.887 540.526 217.182 541.529 222.77C542.388 227.785 543.391 231.94 544.108 234.806C544.394 234.663 544.681 234.663 544.967 234.519C544.394 229.648 543.391 222.197 542.102 212.884C540.382 199.416 540.382 198.413 539.666 194.687C537.803 184.514 536.227 181.792 534.508 171.906C533.505 165.745 533.075 160.873 532.932 158.151C532.215 149.84 533.362 146.688 532.502 137.088C532.215 134.223 531.929 131.787 531.499 128.635C530.209 118.462 529.206 115.31 530.209 110.008C530.926 106.713 531.929 104.42 532.359 103.704C533.648 101.125 536.371 95.5367 542.818 93.101C549.552 90.5219 555.713 93.2442 556.287 93.5308C560.442 95.5367 562.448 98.6889 564.454 101.984C566.603 105.423 569.898 112.014 570.471 121.9C572.334 125.626 575.056 131.357 577.492 138.664C578.925 143.106 580.215 147.548 583.223 163.309C585.373 174.055 585.803 177.35 587.379 185.947C588.525 192.252 590.388 201.565 592.967 213.027C592.967 213.027 593.683 213.744 594.399 213.457C595.116 213.314 595.832 212.311 595.546 211.308C598.698 194.401 597.408 182.508 595.402 174.628C594.543 171.046 592.537 164.312 590.817 153.852C589.814 147.691 589.241 142.533 588.955 139.094C585.659 133.936 583.367 129.351 581.934 125.912C580.071 121.614 578.782 118.605 578.209 114.163C577.635 110.295 577.206 106.14 579.355 101.984C579.928 100.838 581.504 97.9725 584.656 96.3964C589.814 93.8174 595.402 96.2531 598.125 97.3994C598.841 97.686 601.134 98.6889 605.432 102.271C608.298 104.563 612.166 108.145 616.178 113.16C620.19 119.035 622.626 124.193 624.202 127.775C625.778 131.644 626.208 133.793 628.07 138.378C630.936 145.399 632.369 146.545 634.375 151.416C635.091 152.992 636.381 156.718 637.957 166.604C639.246 175.058 639.963 182.652 640.393 191.965C640.679 199.416 640.966 209.159 640.822 220.621C641.682 220.478 642.828 220.191 644.118 219.475C646.267 218.185 647.27 216.179 648.56 212.311C650.136 207.869 650.852 204.717 651.855 200.562C652.285 198.986 651.855 200.562 654.004 192.538C658.159 177.35 658.589 175.201 659.019 172.909C659.736 168.18 660.022 164.455 660.022 162.879C660.309 157.434 659.879 153.279 659.592 148.551C659.019 141.817 658.589 141.673 658.016 135.942C657.013 125.912 656.583 120.898 658.446 116.026C659.162 114.163 661.742 107.143 668.762 104.277C669.622 103.99 677.646 100.695 682.947 105.28C684.81 106.856 685.526 108.575 686.243 110.151C691.974 124.336 693.407 135.082 693.407 135.082C693.837 138.664 694.123 141.673 694.983 151.703C696.416 170.759 697.132 180.502 696.845 187.523C696.416 196.407 696.272 201.708 694.41 209.015C693.263 213.457 691.401 218.759 688.105 230.651C687.675 232.084 686.959 234.949 686.243 238.818C685.526 242.83 685.24 245.982 685.096 247.845C684.38 256.871 684.666 262.029 684.38 271.199C683.95 282.805 683.234 282.375 683.377 289.396C683.664 296.56 684.523 299.856 685.526 306.876C685.956 309.599 685.956 310.602 687.389 337.539C688.392 356.022 688.822 365.192 688.822 367.628C688.965 373.789 688.822 376.225 689.252 380.81C689.395 382.815 690.254 390.266 693.98 402.302C696.129 409.179 699.281 418.349 704.439 428.809C651.569 429.382 598.411 429.525 545.254 429.668Z" fill="#697695"/>
<path d="M688.391 231.223C687.962 232.655 687.245 235.521 686.529 239.39C685.812 243.402 685.526 246.554 685.383 248.416C684.666 257.443 684.953 262.601 684.666 271.771C684.236 283.377 683.52 282.947 683.663 289.968C683.95 297.132 684.809 300.427 685.812 307.448C686.242 310.171 686.242 311.174 687.675 338.11C688.678 356.594 689.108 365.764 689.108 368.199C689.251 374.361 689.108 376.796 689.538 381.381C689.681 383.387 690.541 390.838 694.266 402.873C696.415 409.751 699.567 418.921 704.726 429.38" stroke="#445272" stroke-width="2" stroke-miterlimit="10"/>
<path d="M545.254 429.668C535.081 417.346 525.911 410.325 519.177 406.027C515.881 403.878 510.293 400.582 502.986 394.565C497.111 389.693 498.114 389.693 491.667 384.248C483.07 376.941 479.345 375.508 471.894 368.057C468.885 365.049 467.309 363.472 465.733 361.18C462.437 356.165 461.578 351.723 460.145 343.843C456.276 323.067 456.993 323.784 455.56 319.485C452.694 310.172 451.118 310.458 449.542 302.578C448.539 297.277 448.539 293.838 446.39 287.533C444.527 282.089 443.954 282.948 442.951 278.937C440.372 269.623 442.378 260.597 442.951 258.161C443.668 254.865 444.384 253.433 444.527 249.994C444.671 246.985 444.241 245.409 444.527 241.97C444.814 239.391 445.387 237.385 445.817 235.952C443.668 230.364 441.662 224.06 439.942 217.039C439.226 214.174 438.796 211.308 438.366 208.729C439.799 207.439 442.378 205.72 445.817 204.717C453.124 202.711 459.572 205.863 462.581 207.439C463.727 208.012 468.312 210.305 472.754 215.463C484.216 228.502 487.082 249.707 487.655 254.722C487.512 256.298 487.368 258.447 486.509 260.74C485.936 262.603 485.219 264.035 484.503 265.325C485.506 266.185 486.938 267.474 488.085 269.48C489.947 272.346 490.521 275.068 490.664 275.784C491.38 278.937 493.386 284.954 498.831 296.847C497.255 276.787 495.679 256.728 494.103 236.525C493.1 230.078 491.237 219.045 488.944 205.004C486.222 187.523 485.219 180.932 485.649 171.476C485.936 166.604 486.222 167.464 487.082 156.431C488.371 140.814 487.798 139.237 488.944 130.354C491.094 113.877 494.532 108.575 496.538 106.14C500.98 100.552 505.279 99.4053 506.425 99.2621C511.01 98.2591 514.735 99.6919 516.025 100.122C522.616 102.701 525.481 108.575 526.341 110.295C527.774 113.16 528.203 115.883 528.49 117.459C529.063 120.898 528.92 123.62 528.92 125.053C528.06 140.814 528.92 135.512 528.06 146.831C527.63 151.56 527.487 154.139 528.06 158.151C528.633 161.303 529.35 163.452 530.066 165.458C533.218 174.198 535.368 181.505 535.654 182.795C536.227 184.801 537.087 191.678 538.95 205.147C540.096 213.887 540.526 217.182 541.529 222.77C542.388 227.785 543.391 231.94 544.108 234.806C544.394 234.663 544.681 234.663 544.967 234.519C544.394 229.648 543.391 222.197 542.102 212.884C540.382 199.416 540.382 198.413 539.666 194.687C537.803 184.514 536.227 181.792 534.508 171.906C533.505 165.745 533.075 160.873 532.932 158.151C532.215 149.84 533.362 146.688 532.502 137.088C532.215 134.223 531.929 131.787 531.499 128.635C530.209 118.462 529.206 115.31 530.209 110.008C530.926 106.713 531.929 104.42 532.359 103.704C533.648 101.125 536.371 95.5367 542.818 93.101C549.552 90.5219 555.713 93.2442 556.287 93.5308C560.442 95.5367 562.448 98.6889 564.454 101.984C566.603 105.423 569.898 112.014 570.471 121.9C572.334 125.626 575.056 131.357 577.492 138.664C578.925 143.106 580.215 147.548 583.223 163.309C585.373 174.055 585.803 177.35 587.379 185.947C588.525 192.252 590.388 201.565 592.967 213.027C592.967 213.027 593.683 213.744 594.399 213.457C595.116 213.314 595.832 212.311 595.546 211.308C598.698 194.401 597.408 182.508 595.402 174.628C594.543 171.046 592.537 164.312 590.817 153.852C589.814 147.691 589.241 142.533 588.955 139.094C585.659 133.936 583.367 129.351 581.934 125.912C580.071 121.614 578.782 118.605 578.209 114.163C577.635 110.295 577.206 106.14 579.355 101.984C579.928 100.838 581.504 97.9725 584.656 96.3964C589.814 93.8174 595.402 96.2531 598.125 97.3994C598.841 97.686 601.134 98.6889 605.432 102.271C608.298 104.563 612.166 108.145 616.178 113.16C620.19 119.035 622.626 124.193 624.202 127.775C625.778 131.644 626.208 133.793 628.07 138.378C630.936 145.399 632.369 146.545 634.375 151.416C635.091 152.992 636.381 156.718 637.957 166.604C639.246 175.058 639.963 182.652 640.393 191.965C640.679 199.416 640.966 209.159 640.822 220.621" stroke="#445272" stroke-width="2" stroke-miterlimit="10"/>
<path d="M642.685 220.622C643.258 220.478 643.831 220.192 644.404 219.762C646.553 218.472 647.556 216.466 648.846 212.598C650.422 208.156 651.138 205.004 652.141 200.849C652.571 199.273 652.141 200.849 654.29 192.825C658.445 177.637 658.875 175.488 659.305 173.196C660.022 168.467 660.308 164.742 660.308 163.166C660.595 157.721 660.165 153.566 659.878 148.838C659.305 142.104 658.875 141.96 658.302 136.229C657.299 126.199 656.869 121.184 658.732 116.313C659.448 114.45 662.028 107.429 669.048 104.564C669.908 104.277 677.932 100.982 683.233 105.567C685.096 107.143 685.812 108.862 686.529 110.438C692.26 124.623 693.693 135.369 693.693 135.369C694.122 138.951 694.409 141.96 695.269 151.99C696.702 171.046 697.418 180.789 697.131 187.81C696.702 196.694 696.558 201.995 694.696 209.302C693.549 213.744 691.687 219.045 688.391 230.938" stroke="#BA6DCD" stroke-width="3" stroke-miterlimit="10" stroke-linecap="round"/>
<g opacity="0.5">
<path d="M448.97 234.091C449.83 233.661 450.546 232.945 450.833 232.085C451.119 231.369 450.976 230.222 450.976 229.363C450.833 227.5 450.69 225.637 450.546 223.631C450.403 221.769 450.116 219.906 449.83 218.043C449.687 217.04 449.543 216.181 449.257 215.321L448.684 212.599L448.827 212.742C448.397 212.026 447.824 211.452 447.251 210.879C446.678 210.306 445.961 209.876 445.102 209.59C446.821 209.876 448.397 210.879 449.543 212.169V212.312C450.116 214.175 450.833 216.038 451.119 217.9C451.549 219.763 451.836 221.769 451.979 223.631C452.122 225.494 452.122 227.5 451.979 229.506C451.979 229.936 451.836 230.509 451.836 230.939C451.693 231.369 451.693 231.942 451.406 232.372C450.833 233.231 449.973 233.804 448.97 234.091Z" fill="#B1BBD0"/>
</g>
<g opacity="0.5">
<path d="M669.193 110.15C669.48 112.729 670.053 115.165 670.626 117.601C670.913 118.747 671.199 120.037 671.629 121.183C671.772 121.756 672.059 122.329 672.202 122.902C672.489 123.476 672.775 124.049 673.062 124.335C673.492 124.765 673.921 125.195 674.351 125.338C674.638 125.481 675.354 125.625 675.927 125.625C677.074 125.768 678.363 125.768 679.653 125.768C682.088 125.768 684.668 125.625 687.103 124.908C684.811 126.055 682.232 126.628 679.653 126.771C678.363 126.914 677.074 126.914 675.784 126.771C675.497 126.771 675.068 126.771 674.781 126.628L674.208 126.484C673.921 126.484 673.778 126.341 673.635 126.198C672.918 125.911 672.489 125.481 671.915 124.908C671.342 124.192 671.056 123.619 670.769 123.046C670.483 122.473 670.339 121.756 670.196 121.183C669.91 119.894 669.623 118.747 669.336 117.458C669.193 115.165 669.05 112.586 669.193 110.15Z" fill="#B1BBD0"/>
</g>
</svg>
