<svg width="850" height="500" viewBox="0 0 850 500" fill="none" xmlns="http://www.w3.org/2000/svg">
<path opacity="0.33" d="M595.07 430.569C590.579 425.789 576.673 415.069 564.939 401.597C564.649 401.163 564.504 400.728 564.07 400.583C549.584 393.051 529.014 384.649 510.617 376.826C498.159 371.611 485.846 366.541 473.822 361.761C472.084 361.182 469.766 360.023 467.448 358.284C463.972 355.677 461.509 352.345 458.902 347.275C455.86 341.336 454.99 338.728 452.818 332.065C449.776 322.504 432.972 294.256 431.233 289.041C430.075 287.883 428.626 285.42 427.322 282.812C424.86 277.742 423.99 271.948 423.99 271.948C423.411 266.009 423.121 253.985 424.28 238.196C423.556 237.182 415.589 222.406 412.836 206.906C412.691 206.327 413.995 205.892 415.009 205.313C417.182 203.864 421.383 200.967 427.177 200.532C433.841 200.098 438.911 202.85 440.36 203.719C442.098 204.733 443.547 206.037 446.299 208.644C450.355 212.555 452.962 215.018 455.86 218.64C461.654 225.883 464.551 232.546 465.131 233.85C468.028 240.513 468.752 245.873 469.042 247.177C469.621 251.088 469.476 254.999 469.332 257.462C470.78 258.476 472.808 259.78 474.547 261.808C477.154 264.995 478.168 268.037 478.892 270.21C481.355 274.555 483.818 278.901 486.28 283.392C487.294 283.971 488.308 284.696 489.467 285.565C491.205 286.868 492.364 288.317 493.378 289.476C492.944 285.999 492.364 280.784 491.35 274.266C490.626 269.196 489.322 261.808 483.962 236.312C481.5 224.724 480.341 218.929 479.472 216.032C476.864 205.747 474.981 200.967 471.504 188.074C469.911 182.425 467.883 177.789 467.014 170.546C466.579 166.78 466.145 163.593 466.579 159.102C466.869 156.64 467.593 153.018 469.042 145.92C469.621 143.457 469.911 141.864 470.201 139.546C470.49 136.07 470.346 134.042 470.346 132.014C470.346 127.668 471.215 124.336 472.374 119.99C473.822 114.341 475.705 107.532 481.065 101.738C482.659 99.9995 483.673 99.2752 484.107 98.9855C489.612 95.0743 495.841 95.9435 496.71 96.0883C499.752 96.5229 501.925 97.6818 504.098 98.9855C507.43 100.869 509.892 103.042 511.341 104.78C512.5 103.476 513.514 102.317 514.673 101.014C514.818 99.9995 514.962 98.5509 515.687 96.9575C518.874 89.4248 528.289 87.5416 529.883 87.107C532.346 86.6724 540.023 85.9481 545.093 91.0182C545.383 91.1631 550.018 92.6117 550.163 92.322C552.481 81.4575 569.14 80.878 577.542 81.3126C579.57 81.4575 583.771 82.7612 587.102 84.7893C586.233 82.0369 585.509 78.7052 585.219 74.6491C584.93 70.4482 584.93 68.8547 585.074 68.1304C585.799 64.5089 587.682 61.7566 588.986 60.308C589.42 59.294 590.434 57.7005 592.028 56.2519C595.504 53.2098 601.154 51.9061 605.789 54.079C606.803 54.5136 608.831 55.6725 610.57 58.1351C611.584 58.8594 612.887 60.0182 614.336 61.4668C616.944 64.2192 618.537 66.8267 619.406 68.4201C624.042 76.6771 626.07 82.1818 626.07 82.1818C629.981 91.8874 633.747 102.462 637.224 113.906C639.831 122.308 642.439 136.504 646.495 148.093C646.785 149.107 647.509 150.99 648.378 153.887C649.247 156.64 650.116 160.261 651.855 169.822C653.158 177.065 652.869 177.644 653.883 181.7C654.752 184.887 655.476 186.915 656.925 190.971C658.808 196.041 659.822 198.359 662.864 205.747C665.037 210.962 665.616 211.976 666.486 214.584C667.789 218.64 668.079 221.247 668.514 223.855C669.383 228.925 671.121 233.995 674.453 244.28C677.495 253.116 677.495 252.102 679.523 258.766C681.696 265.429 683 270.934 685.752 281.654C688.359 292.373 689.663 297.733 690.967 304.252C693.14 315.551 692.995 318.013 695.168 327.574C696.182 331.63 697.196 335.252 699.369 342.35C703.135 354.808 705.018 361.037 706.612 365.527C710.233 375.378 714.289 382.186 722.257 395.658C727.906 405.364 733.411 413.621 737.757 419.995C740.654 424.34 743.261 427.962 745 430.569C694.733 430.859 645.336 430.714 595.07 430.569Z" fill="#E0E1E2"/>
<g opacity="0.5">
<path d="M591.883 62.4805C592.317 63.9291 592.752 65.3777 593.331 66.6814C593.911 68.13 594.635 69.4337 595.359 70.5926C596.084 71.8963 596.953 73.0552 598.112 73.7795C599.271 74.5038 600.719 74.7935 602.168 74.9384C602.892 74.9384 603.616 75.0833 604.341 74.9384C605.065 74.9384 605.644 74.7935 606.369 74.5038C607.817 74.0692 609.266 73.6347 610.28 72.7655C610.859 72.3309 611.294 71.7515 611.439 71.172C611.729 70.5926 611.729 69.8683 611.729 69.144C611.729 67.6954 611.294 66.2468 610.859 64.7982C611.584 66.102 612.163 67.5506 612.453 69.144C612.598 69.8683 612.598 70.7375 612.308 71.6066C612.018 72.4758 611.584 73.0552 611.004 73.7795C609.845 74.9384 608.252 75.5178 606.803 75.9524C606.369 76.0973 606.079 76.2421 605.644 76.2421C605.21 76.387 604.775 76.387 604.486 76.387C603.616 76.387 602.892 76.387 602.168 76.387C600.574 76.2421 598.981 75.9524 597.532 75.0833C596.808 74.6487 596.229 73.9244 595.794 73.3449C595.359 72.7655 594.925 72.0412 594.49 71.3169C593.042 68.5646 592.028 65.5225 591.883 62.4805Z" fill="#AEB0B2"/>
</g>
<path d="M586.667 84.0649C585.798 81.3126 585.364 78.9949 585.074 75.0837C584.784 70.8827 584.784 69.2893 584.929 68.565C585.653 64.9435 587.537 62.1911 588.84 60.7425C589.275 59.7285 590.289 58.1351 591.882 56.6865C595.359 53.6444 601.009 52.3407 605.644 54.5136C606.658 54.9482 608.686 56.107 610.424 58.5696C611.438 59.2939 612.742 60.4528 614.191 61.9014C616.798 64.6537 618.392 67.2612 619.261 68.8547C623.896 77.1117 625.924 82.6164 625.924 82.6164C629.836 92.3219 633.602 102.897 637.079 114.341C639.686 122.742 642.294 136.939 646.35 148.528C646.639 149.542 647.364 151.425 648.233 154.322C649.102 157.074 649.971 160.696 651.709 170.256C653.013 177.499 652.434 176.92 653.448 180.976" stroke="#2969D0" stroke-width="3" stroke-miterlimit="10" stroke-linecap="round"/>
<path d="M595.07 430.569C590.579 425.789 576.673 415.069 564.939 401.597C564.649 401.163 564.504 400.728 564.07 400.583C549.584 393.051 529.014 384.649 510.617 376.826C498.159 371.611 485.846 366.541 473.822 361.761C472.084 361.181 469.766 360.023 467.448 358.284C463.972 355.677 461.509 352.345 458.902 347.275C455.86 341.336 454.99 338.728 452.818 332.065C449.776 322.504 432.972 294.256 431.233 289.041C430.075 287.882 428.626 285.42 427.322 282.812C424.86 277.742 423.99 271.948 423.99 271.948C423.411 266.009 423.121 253.985 424.28 238.196C423.556 237.182 415.589 222.406 412.836 206.906C412.691 206.327 413.995 205.892 415.009 205.312C417.182 203.864 421.383 200.967 427.177 200.532C433.841 200.098 438.911 202.85 440.36 203.719C442.098 204.733 443.547 206.037 446.299 208.644C450.355 212.555 452.962 215.018 455.86 218.64C461.654 225.883 464.551 232.546 465.131 233.85C468.028 240.513 468.752 245.873 469.042 247.177C469.621 251.088 469.476 254.999 469.332 257.462C470.78 258.476 472.808 259.78 474.547 261.808C477.154 264.995 478.168 268.037 478.892 270.21C481.355 274.555 483.818 278.901 486.28 283.392C487.294 283.971 488.308 284.696 489.467 285.565C491.205 286.868 492.364 288.317 493.378 289.476C492.944 285.999 492.364 280.784 491.35 274.266C490.626 269.196 489.322 261.808 483.962 236.312C481.5 224.724 480.341 218.929 479.472 216.032C476.864 205.747 474.981 200.967 471.504 188.074C469.911 182.425 467.883 177.789 467.014 170.546C466.579 166.78 466.145 163.593 466.579 159.102C466.869 156.64 467.593 153.018 469.042 145.92C469.621 143.457 469.911 141.864 470.201 139.546C470.49 136.07 470.346 134.042 470.346 132.014C470.346 127.668 471.215 124.336 472.374 119.99C473.822 114.341 475.705 107.532 481.065 101.738C482.659 99.9995 483.673 99.2752 484.107 98.9855C489.612 95.0743 495.841 95.9435 496.71 96.0883C499.752 96.5229 501.925 97.6818 504.098 98.9855C507.43 100.869 509.892 103.042 511.341 104.78C512.5 103.476 513.514 102.317 514.673 101.014C514.818 99.9995 514.962 98.5509 515.687 96.9575C518.874 89.4248 528.289 87.5416 529.883 87.107C532.346 86.6724 540.023 85.9481 545.093 91.0182C545.383 91.1631 550.018 92.6117 550.163 92.322C552.481 81.4575 569.14 80.878 577.542 81.3126C579.57 81.4575 583.771 82.7612 587.103 84.7893" stroke="#808285" stroke-width="2" stroke-miterlimit="10"/>
<path d="M653.593 182.135C654.462 185.322 655.186 187.35 656.635 191.406C658.518 196.476 659.532 198.794 662.574 206.181C664.747 211.396 665.326 212.41 666.196 215.018C667.499 219.074 667.789 221.681 668.224 224.289C669.093 229.359 670.831 234.429 674.163 244.714C677.205 253.551 677.205 252.537 679.233 259.2C681.406 265.864 682.71 271.368 685.462 282.088C688.069 292.808 689.373 298.167 690.677 304.686C692.85 315.985 692.705 318.448 694.878 328.008C695.892 332.065 696.906 335.686 699.079 342.784C702.845 355.242 704.728 361.471 706.322 365.962C709.943 375.812 713.999 382.621 721.967 396.092C727.616 405.798 733.121 414.055 737.467 420.429C740.364 424.775 742.971 428.396 744.709 431.004" stroke="#808285" stroke-width="2" stroke-miterlimit="10"/>
<path d="M627.664 191.406C626.36 189.523 624.766 186.626 623.463 182.715C622.159 178.803 621.869 175.616 621.724 174.023C619.986 155.046 619.551 150.99 619.262 147.803C617.958 136.215 615.64 128.247 614.626 124.916C612.598 117.528 609.266 111.588 603.327 103.911C601.734 101.883 599.416 99.2754 598.112 96.9576C594.491 91.1632 588.262 85.6585 586.523 84.6445" stroke="#808285" stroke-width="2" stroke-miterlimit="10"/>
<path d="M580.729 185.611C580.584 185.611 577.542 177.209 574.065 163.737C573.196 160.406 570.878 142.733 569.864 140.56C567.836 135.635 565.808 128.826 564.504 123.466C563.925 121.149 562.186 120.424 559.579 116.513C557.986 114.051 557.116 112.312 555.813 109.85C552.771 103.766 551.032 97.8263 549.584 93.0459C549.439 93.0459 549.004 93.1908 548.859 93.1908C551.032 99.9992 553.785 107.242 557.406 114.92C558.855 117.817 563.345 129.116 564.504 133.317C565.808 137.808 566.822 140.56 567.836 144.036C569.864 150.41 570.733 153.163 572.616 160.261C577.397 176.34 580.873 185.611 580.729 185.611Z" stroke="#808285" stroke-width="2" stroke-miterlimit="10"/>
<path d="M531.331 212.41C530.027 203.864 528.434 197.055 527.13 192.565C525.102 185.322 524.523 185.466 519.887 171.125C518.149 165.766 516.266 159.971 514.527 153.163C514.093 151.714 513.368 149.396 512.354 144.906C510.616 137.663 509.168 130.275 509.747 120.569C510.037 116.803 510.616 109.995 511.775 104.2" stroke="#808285" stroke-width="2" stroke-miterlimit="10"/>
<g opacity="0.5">
<path d="M427.757 234.718C429.061 232.545 429.64 230.227 429.495 227.909C429.35 226.75 429.35 225.447 428.916 224.433C428.626 223.274 428.192 222.115 427.757 220.956C426.888 218.638 426.164 216.32 425.149 214.003C424.715 212.844 424.135 211.83 423.266 211.106C422.397 210.236 421.383 209.512 420.369 208.933C421.528 209.222 422.687 209.802 423.701 210.526C424.135 210.961 424.715 211.395 425.149 211.83C425.584 212.409 425.874 212.844 426.164 213.423C427.322 215.596 428.192 217.914 429.061 220.377C429.495 221.535 429.93 222.694 430.22 223.998C430.509 225.302 430.654 226.606 430.509 227.909C430.654 230.517 429.495 232.979 427.757 234.718Z" fill="#AEB0B2"/>
</g>
<path opacity="0.33" d="M313.173 433.612C315.056 431.294 323.168 422.892 332.004 414.056C340.841 405.219 358.948 374.074 364.308 367.845C369.668 361.616 383.864 346.261 387.341 338.584C390.817 330.906 387.051 306.28 387.341 298.602C387.631 290.925 391.252 254.275 388.789 244.715C386.327 235.154 382.416 231.243 379.229 224.579C376.042 217.916 375.462 215.888 372.565 213.86C369.668 211.831 371.406 194.448 371.986 191.986C372.565 189.523 374.593 178.369 374.593 174.458C374.593 170.546 374.593 159.392 377.635 151.135C380.677 142.878 378.649 118.107 373.434 110.285C368.219 102.462 364.018 100.579 357.789 100.145C351.561 99.7101 344.752 105.794 343.014 109.561C341.276 113.327 338.958 116.804 336.35 147.514C332.729 155.771 325.776 163.014 322.733 173.009C319.691 183.004 311.579 208.21 309.696 218.64C307.813 229.07 297.093 243.266 301.439 235.588C305.785 228.056 305.35 209.514 313.462 184.888C321.575 160.261 320.561 161.855 320.561 160.551C320.561 159.247 325.341 154.757 326.934 144.037C329.976 139.112 335.916 114.631 324.906 107.533C324.762 102.462 321.43 98.9858 312.304 97.5372C303.177 96.0886 299.846 98.4064 297.818 104.056C294.486 104.925 289.416 117.238 288.547 127.378C286.084 128.827 274.205 140.85 271.888 145.341C269.57 149.832 263.051 172.43 261.748 178.224C260.444 184.018 252.042 220.233 249.724 223.565C247.406 226.897 246.392 229.215 248.276 222.117C250.159 215.018 258.85 172.285 262.617 164.607C266.383 156.93 266.818 150.556 277.248 135.635C287.677 120.715 286.229 113.472 284.346 108.691C282.462 103.911 281.014 99.855 272.177 98.4064C263.341 96.9578 258.271 104.346 258.271 104.346C258.271 104.346 252.911 105.939 240.019 119.846C237.266 114.486 233.5 110.43 233.5 110.43C233.5 110.43 230.748 104.635 222.925 103.476C215.103 102.318 211.916 110.719 211.481 113.761C208.874 113.761 203.514 125.785 201.631 137.808C199.748 149.976 196.706 167.36 193.519 177.645C190.332 187.93 188.304 196.476 187.579 204.009C186.855 211.542 182.799 222.117 182.075 231.967C181.35 241.817 169.907 270.065 169.327 279.046C168.603 288.028 169.037 318.738 168.168 325.836C167.299 332.934 165.995 356.836 168.168 370.598C170.341 384.214 169.327 396.817 167.009 403.626C164.692 410.434 156 433.032 156 433.032H313.173V433.612Z" fill="#E0E1E2"/>
<path d="M313.173 433.612C315.056 431.294 323.168 422.892 332.004 414.056C340.841 405.219 358.948 374.074 364.308 367.845C369.668 361.616 383.864 346.261 387.341 338.584C390.817 330.906 387.051 306.28 387.341 298.602C387.631 290.925 391.252 254.275 388.789 244.715C386.327 235.154 382.416 231.243 379.229 224.579C376.042 217.916 375.462 215.888 372.565 213.86C369.668 211.831 371.406 194.448 371.986 191.986C372.565 189.523 374.593 178.369 374.593 174.458C374.593 170.546 374.593 159.392 377.635 151.135C380.677 142.878 378.649 118.107 373.434 110.285C368.219 102.462 364.018 100.579 357.789 100.145C351.561 99.7101 344.752 105.794 343.014 109.561C341.276 113.327 338.958 116.804 336.35 147.514C332.729 155.771 325.776 163.014 322.733 173.009C319.691 183.004 311.579 208.21 309.696 218.64C307.813 229.07 297.093 243.266 301.439 235.588C305.785 228.056 305.35 209.514 313.462 184.888C321.575 160.261 320.561 161.855 320.561 160.551C320.561 159.247 325.341 154.757 326.934 144.037C329.976 139.112 335.916 114.631 324.906 107.533C324.762 102.462 321.43 98.9858 312.304 97.5372C303.177 96.0886 299.846 98.4064 297.818 104.056C294.486 104.925 289.416 117.238 288.547 127.378C286.084 128.827 274.205 140.85 271.888 145.341C269.57 149.832 263.051 172.43 261.748 178.224C260.444 184.018 252.042 220.233 249.724 223.565C247.406 226.897 246.392 229.215 248.276 222.117C250.159 215.018 258.85 172.285 262.617 164.607C266.383 156.93 266.818 150.556 277.248 135.635C287.677 120.715 286.229 113.472 284.346 108.691C282.462 103.911 281.014 99.855 272.177 98.4064C263.341 96.9578 258.271 104.346 258.271 104.346C258.271 104.346 252.911 105.939 240.019 119.846C237.266 114.486 233.5 110.43 233.5 110.43C233.5 110.43 230.748 104.635 222.925 103.476C215.103 102.318 211.916 110.719 211.481 113.761C208.874 113.761 203.514 125.785 201.631 137.808C199.748 149.976 196.706 167.36 193.519 177.645C190.332 187.93 188.304 196.476 187.579 204.009C186.855 211.542 182.799 222.117 182.075 231.967C181.35 241.817 169.907 270.065 169.327 279.046C168.603 288.028 169.037 318.738 168.168 325.836C167.299 332.934 165.995 356.836 168.168 370.598C170.341 384.214 169.327 396.817 167.009 403.626C164.692 410.434 156 433.032 156 433.032" stroke="#808285" stroke-width="2" stroke-miterlimit="10"/>
<path d="M198.01 228.2C202.066 223.855 205.398 217.191 205.687 210.238C205.977 203.285 205.253 167.214 214.379 153.453C223.505 139.691 240.164 120.425 240.164 120.425" stroke="#808285" stroke-width="2" stroke-miterlimit="10"/>
<path d="M359.818 312.654C357.79 308.887 355.327 306.425 355.327 303.527C355.327 300.63 356.921 267.457 358.659 255.579C360.252 243.7 368.365 209.369 371.117 202.271" stroke="#808285" stroke-width="2" stroke-miterlimit="10"/>
</svg>
