<svg width="900" height="500" viewBox="0 0 900 500" fill="none" xmlns="http://www.w3.org/2000/svg">
<path opacity="0.33" d="M350.977 429.161C356.313 422.383 372.176 398.876 377.224 391.088C382.271 383.301 393.664 356.765 398.423 350.708C403.182 344.651 408.951 337.008 406.355 319.125C403.904 301.243 401.74 295.042 403.183 269.516C404.625 243.99 400.154 238.942 394.241 226.684C393.087 219.329 391.213 217.31 388.473 215.147C388.905 210.099 391.501 190.053 393.087 179.814C394.818 169.575 391.357 172.748 393.087 150.971C394.818 129.195 388.905 113.764 385.156 109.293C384.579 104.967 380.397 100.063 372.753 98.4771C365.254 96.7465 358.332 103.669 358.332 106.697C355.88 107.563 348.093 118.234 351.986 153.134C343.478 173.469 338.142 194.38 336.988 201.446C335.69 208.513 329.921 240.384 327.614 239.086C325.307 237.788 334.536 207.359 337.276 188.467C340.016 169.575 342.901 156.451 344.631 147.51C346.362 138.569 346.506 109.293 336.7 105.688C334.392 98.3329 327.326 96.4581 320.836 96.0254C314.346 95.5928 308.866 100.784 308.722 103.813C305.838 104.823 302.809 118.811 304.107 138.28C297.617 145.203 288.82 167.123 279.014 215.291C279.014 215.291 282.186 168.421 288.243 149.241C294.445 130.06 298.915 122.561 295.31 111.889C297.041 106.842 292.281 103.092 285.792 101.073C279.302 99.0539 271.947 102.515 270.505 106.553C265.313 107.418 256.66 122.849 252.911 135.108C245.989 147.366 237.768 168.998 234.596 181.256C231.423 193.514 229.981 238.365 228.106 241.394C226.231 244.422 222.914 244.711 220.318 241.826C217.723 238.942 217.001 238.077 216.28 232.741C215.559 227.261 214.261 217.743 212.675 210.676C211.233 203.609 209.502 189.621 210.079 184.429C210.656 179.237 217.29 170.007 216.569 157.893C215.848 145.779 208.204 141.165 206.185 139.578C204.166 138.136 201.859 134.675 194.937 136.55C188.014 138.425 184.697 154.288 184.697 154.288C184.697 154.288 175.9 171.45 174.458 175.343C173.016 179.237 173.304 183.996 171.862 190.342C170.42 196.687 172.295 203.033 170.132 209.378C168.113 215.724 168.978 226.107 171.285 234.76C173.593 243.413 171.862 243.845 173.737 250.479C175.612 256.969 179.361 265.91 180.659 272.111C181.957 278.313 181.525 292.013 182.39 302.685C183.255 313.357 188.159 319.27 189.456 333.258C190.754 347.247 193.494 386.185 195.369 397.434C197.244 408.683 198.398 412.144 192.773 429.45H350.977V429.161Z" fill="#445272"/>
<path d="M350.977 429.161C356.313 422.383 372.176 398.876 377.224 391.088C382.271 383.301 393.664 356.765 398.423 350.708C403.182 344.651 408.951 337.008 406.355 319.125C403.904 301.243 401.74 295.042 403.183 269.516C404.625 243.99 400.154 238.942 394.241 226.684C393.087 219.329 391.213 217.31 388.473 215.147C388.905 210.099 391.501 190.053 393.087 179.814C394.818 169.575 391.357 172.748 393.087 150.971C394.818 129.195 388.905 113.764 385.156 109.293C384.579 104.967 380.397 100.063 372.753 98.4771C365.254 96.7465 358.332 103.669 358.332 106.697C355.88 107.563 348.093 118.234 351.986 153.134C343.478 173.469 338.142 194.38 336.988 201.446C335.69 208.513 329.921 240.384 327.614 239.086C325.307 237.788 334.536 207.359 337.276 188.467C340.016 169.575 342.901 156.451 344.631 147.51C346.362 138.569 346.506 109.293 336.7 105.688C334.392 98.3329 327.326 96.4581 320.836 96.0254C314.346 95.5928 308.866 100.784 308.722 103.813C305.838 104.823 302.809 118.811 304.107 138.28C297.617 145.203 288.82 167.123 279.014 215.291C279.014 215.291 282.186 168.421 288.243 149.241C294.445 130.06 298.915 122.561 295.31 111.889C297.041 106.842 292.281 103.092 285.792 101.073C279.302 99.0539 271.947 102.515 270.505 106.553C265.313 107.418 256.66 122.849 252.911 135.108C245.989 147.366 237.768 168.998 234.596 181.256C231.423 193.514 229.981 238.365 228.106 241.394C226.231 244.422 222.914 244.711 220.318 241.826C217.723 238.942 217.001 238.077 216.28 232.741C215.559 227.261 214.261 217.743 212.675 210.676C211.233 203.609 209.502 189.621 210.079 184.429C210.656 179.237 217.29 170.007 216.569 157.893C215.848 145.779 208.204 141.165 206.185 139.578C204.166 138.136 201.859 134.675 194.937 136.55C188.014 138.425 184.697 154.288 184.697 154.288C184.697 154.288 175.9 171.45 174.458 175.343C173.016 179.237 173.304 183.996 171.862 190.342C170.42 196.687 172.295 203.033 170.132 209.378C168.113 215.724 168.978 226.107 171.285 234.76C173.593 243.413 171.862 243.845 173.737 250.479C175.612 256.969 179.361 265.91 180.659 272.111C181.957 278.313 181.525 292.013 182.39 302.685C183.255 313.357 188.159 319.27 189.456 333.258C190.754 347.247 193.494 386.185 195.369 397.434C197.244 408.683 198.398 412.144 192.773 429.45" stroke="#697695" stroke-width="2" stroke-miterlimit="10"/>
<path d="M220.463 241.539C217.867 238.511 217.146 237.789 216.425 232.454C215.704 226.973 214.406 217.455 212.82 210.389C211.377 203.322 209.647 189.333 210.224 184.142C210.801 178.95 217.434 169.72 216.713 157.606C215.992 145.492 208.349 140.877 206.33 139.291C204.311 137.849 202.003 134.388 195.081 136.262C188.159 138.137 184.842 154.001 184.842 154.001C184.842 154.001 176.045 171.162 174.603 175.056C173.161 178.95 173.449 183.709 172.007 190.054C170.565 196.4 172.439 202.745 170.276 209.091C168.257 215.436 169.123 225.82 171.43 234.473C173.737 243.125 172.007 243.558 173.882 250.192C175.756 256.682 179.506 265.623 180.804 271.824" stroke="#BA6DCD" stroke-width="3" stroke-miterlimit="10" stroke-linecap="round"/>
<g opacity="0.5">
<path d="M188.16 155.298C189.891 154.865 191.766 154.865 193.496 154.433C195.227 154 196.669 153.279 197.967 152.125C199.265 151.116 200.563 149.818 201.716 148.376C202.293 147.655 202.87 146.933 203.447 146.357C204.024 145.636 204.456 144.914 205.177 144.193C204.889 145.059 204.456 145.924 204.024 146.789C203.591 147.655 203.158 148.376 202.582 149.241C201.572 150.827 200.274 152.269 198.832 153.423C197.39 154.577 195.515 155.442 193.64 155.586C191.766 155.875 190.035 155.298 188.16 155.298Z" fill="#B1BBD0"/>
</g>
<path d="M378.81 291.581C378.522 280.909 377.079 261.007 378.81 249.037C380.541 237.212 388.617 215.291 388.617 215.291" stroke="#697695" stroke-width="2" stroke-miterlimit="10"/>
<path d="M271.658 238.798C274.687 232.164 278.436 222.79 279.013 215.146Z" fill="#445272"/>
<path d="M271.658 238.798C274.687 232.164 278.436 222.79 279.013 215.146" stroke="#697695" stroke-width="2" stroke-miterlimit="10"/>
<path opacity="0.33" d="M545.078 429.744C542.911 426.133 540.022 422.089 536.411 417.9C533.089 414.144 529.767 410.967 526.878 408.511C526.878 408.511 520.378 402.3 513.3 394.356C508.244 388.722 504.922 383.956 498.278 374.567C485.278 356.222 486.722 355.789 481.378 350.878C479.356 349 475.456 345.678 471.7 340.189C468.522 335.567 467.367 332.1 466.933 329.789C466.789 328.922 466.5 327.622 466.356 321.989C466.211 314.044 466.5 312.167 466.356 308.122C466.211 303.5 465.344 300.322 463.9 294.689C461.589 285.444 459.856 283.278 457.978 275.044C456.967 270.278 456.533 266.233 456.244 263.778C455.667 262.911 454.8 261.9 454.222 260.456C453.067 257.567 453.211 255.111 453.356 253.667C452.633 252.367 451.767 250.344 451.189 247.889C450.322 243.989 450.9 241.389 452.344 233.878C454.511 222.611 454.944 220.156 454.944 216.544C454.944 213.078 454.511 210.333 454.078 208.6C452.633 205.711 451.189 202.389 450.033 198.633C448.156 192.711 447.289 187.367 447 183.033C447.722 182.744 448.444 182.456 449.167 182.167C450.178 181.156 453.067 179.856 455.667 179.133C460.289 177.833 464.044 179.133 467.656 180.867C468.667 181.3 473 184.189 477.911 189.822C479.356 191.411 482.822 195.889 484.989 202.389C486.578 207.011 486.867 211.2 487.156 213.511C487.444 216.978 487.156 217.7 487.589 220.878C488.022 225.5 489.178 228.678 489.9 231.133C492.789 241.1 492.933 249.189 493.078 249.189C493.222 249.189 491.633 236.044 486.144 191.556C486.144 186.644 486.144 178.989 486.289 169.6C486.578 158.622 486.867 158.622 487.156 147.5C487.444 137.533 487.3 132.044 488.167 122.222C488.744 115.433 489.322 111.244 491.489 106.478C493.222 102.867 495.244 98.6778 499.867 96.0778C505.356 93.1889 511.856 93.7667 516.478 96.3667C520.378 98.5333 522.544 101.567 523.7 103.444C526.589 107.778 527.167 112.111 527.744 116.444C528.322 120.489 528.178 123.378 527.889 129.444C527.6 137.822 526.733 142.156 526.733 152.411C526.733 152.989 526.733 153.422 526.733 153.711C527.311 155.444 528.178 158.044 529.044 160.933C530.056 164.256 530.922 167.722 532.222 172.922C534.1 180.578 535.111 184.333 535.833 187.944C537.278 195.022 537.133 197.333 538.722 210.044C539.589 216.978 540.022 220.444 540.6 223.622C542.044 232.433 543.922 239.656 545.367 244.567C546.522 243.7 547.822 242.833 548.978 242.111C546.522 229.544 544.356 216.544 542.189 203.4C539.878 189.389 538.433 179.133 537.133 169.744C530.056 120.489 533.378 131.033 531.356 121.067C531.356 120.778 530.2 114.856 530.633 107.056C531.067 100.267 532.367 97.9556 532.944 96.9444C536.122 91.7444 541.756 90.0111 543.056 89.7222C543.922 89.4333 551.433 87.4111 558.222 91.7444C561.833 94.0556 563.567 96.9444 565.3 100.122C567.178 103.3 569.922 109.367 570.356 118.178C570.211 105.756 574.978 95.6444 582.344 92.9C583.933 92.3222 586.822 91.6 590.144 92.1778C595.633 92.9 599.1 96.3667 602.278 99.4C605.889 103.011 607.911 106.478 610.367 110.811C612.244 114.133 613.544 117.022 614.556 119.044C614.7 116.589 615.422 112.4 618.167 108.211C619.756 105.9 621.633 103.011 625.678 101.567C625.967 101.422 631.167 99.6889 636.222 102.289C636.8 102.578 638.244 103.444 640.7 106.044C642.722 108.211 645.178 111.389 649.078 119.333C650.667 122.367 651.967 125.111 653.556 129.156C655.867 135.078 656.878 139.122 658.178 144.467C663.233 163.822 665.4 166.422 667.567 179.278C668.144 182.889 668.578 185.922 668.722 188.089C669.3 193.144 670.167 200.511 670.311 209.611C670.456 214.522 670.311 226.656 670.889 232C671.033 233.589 671.322 235.178 671.322 235.178C671.756 238.067 672.478 240.233 672.622 240.956C673.2 242.978 673.922 246.3 675.367 252.8C676.089 256.122 677.244 261.322 677.822 267.244C678.544 274.178 677.678 273.889 678.111 285.3C678.256 289.344 678.544 292.811 679.122 300.033C679.556 305.956 679.7 307.111 679.989 311.011C680.567 319.1 680.711 325.311 680.856 329.644C681 337.733 681 343.944 680.711 356.367C680.567 368.356 680.278 370.956 680.567 377.6C680.856 385.111 681.578 390.311 682.011 393.2C682.733 398.689 683.311 402.3 684.756 407.211C686.489 412.989 688.511 417.9 691.544 424.833C692.556 427 693.422 428.878 694 430.178C644.311 430.033 594.622 429.889 545.078 429.744Z" fill="#445272"/>
<path d="M545.078 429.744C542.911 426.133 540.022 422.089 536.411 417.9C533.089 414.144 529.767 410.967 526.878 408.511C526.878 408.511 520.378 402.3 513.3 394.356C508.244 388.722 504.922 383.956 498.278 374.567C485.278 356.222 486.722 355.789 481.378 350.878C479.356 349 475.456 345.678 471.7 340.189C468.522 335.567 467.367 332.1 466.933 329.789C466.789 328.922 466.5 327.622 466.356 321.989C466.211 314.044 466.5 312.167 466.356 308.122C466.211 303.5 465.344 300.322 463.9 294.689C461.589 285.444 459.856 283.278 457.978 275.044C456.967 270.278 456.533 266.233 456.244 263.778C455.667 262.911 454.8 261.9 454.222 260.456C453.067 257.567 453.211 255.111 453.356 253.667C452.633 252.367 451.767 250.344 451.189 247.889C450.322 243.989 450.9 241.389 452.344 233.878C454.511 222.611 454.944 220.156 454.944 216.544C454.944 213.078 454.511 210.333 454.078 208.6C452.633 205.711 451.189 202.389 450.033 198.633C448.156 192.711 447.289 187.367 447 183.033C447.722 182.744 448.444 182.456 449.167 182.167C450.178 181.156 453.067 179.856 455.667 179.133C460.289 177.833 464.044 179.133 467.656 180.867C468.667 181.3 473 184.189 477.911 189.822C479.356 191.411 482.822 195.889 484.989 202.389C486.578 207.011 486.867 211.2 487.156 213.511C487.444 216.978 487.156 217.7 487.589 220.878C488.022 225.5 489.178 228.678 489.9 231.133C492.789 241.1 492.933 249.189 493.078 249.189C493.222 249.189 491.633 236.044 486.144 191.556C486.144 186.644 486.144 178.989 486.289 169.6C486.578 158.622 486.867 158.622 487.156 147.5C487.444 137.533 487.3 132.044 488.167 122.222C488.744 115.433 489.322 111.244 491.489 106.478C493.222 102.867 495.244 98.6778 499.867 96.0778C505.356 93.1889 511.856 93.7667 516.478 96.3667C520.378 98.5333 522.544 101.567 523.7 103.444C526.589 107.778 527.167 112.111 527.744 116.444C528.322 120.489 528.178 123.378 527.889 129.444C527.6 137.822 526.733 142.156 526.733 152.411C526.733 152.989 526.733 153.422 526.733 153.711C527.311 155.444 528.178 158.044 529.044 160.933C530.056 164.256 530.922 167.722 532.222 172.922C534.1 180.578 535.111 184.333 535.833 187.944C537.278 195.022 537.133 197.333 538.722 210.044C539.589 216.978 540.022 220.444 540.6 223.622C542.044 232.433 543.922 239.656 545.367 244.567C546.522 243.7 547.822 242.833 548.978 242.111C546.522 229.544 544.356 216.544 542.189 203.4C539.878 189.389 538.433 179.133 537.133 169.744C530.056 120.489 533.378 131.033 531.356 121.067C531.356 120.778 530.2 114.856 530.633 107.056C531.067 100.267 532.367 97.9556 532.944 96.9444C536.122 91.7444 541.756 90.0111 543.056 89.7222C543.922 89.4333 551.433 87.4111 558.222 91.7444C561.833 94.0556 563.567 96.9444 565.3 100.122C567.178 103.3 570.211 108.644 570.933 117.456" stroke="#697695" stroke-width="2" stroke-miterlimit="10"/>
<path d="M614.555 119.044C614.699 116.589 615.421 112.4 618.166 108.211C619.755 105.9 621.632 103.011 625.677 101.567C625.966 101.422 631.166 99.6888 636.221 102.289C636.799 102.578 638.244 103.444 640.699 106.044C642.721 108.211 645.177 111.389 649.077 119.333C650.666 122.367 651.966 125.111 653.555 129.155C655.866 135.078 656.877 139.122 658.177 144.467C663.232 163.822 665.399 166.422 667.566 179.278C668.144 182.889 668.577 185.922 668.721 188.089C669.299 193.144 670.166 200.511 670.31 209.611C670.455 214.522 670.31 226.655 670.888 232C671.032 233.589 671.321 235.178 671.321 235.178C671.755 238.067 672.477 240.233 672.621 240.955C673.199 242.978 673.921 246.3 675.366 252.8C676.088 256.122 677.244 261.322 677.821 267.244C678.544 274.178 677.677 273.889 678.11 285.3C678.255 289.344 678.544 292.811 679.121 300.033C679.555 305.955 679.699 307.111 679.988 311.011C680.566 319.1 680.71 325.311 680.855 329.644C680.999 337.733 680.999 343.944 680.71 356.367C680.566 368.355 680.277 370.955 680.566 377.6C680.855 385.111 681.577 390.311 682.01 393.2C682.732 398.689 683.31 402.3 684.755 407.211C686.488 412.989 688.51 417.9 691.544 424.833C692.555 427 693.421 428.878 693.999 430.178" stroke="#697695" stroke-width="2" stroke-miterlimit="10"/>
<path d="M597.801 229.111C596.068 225.789 593.179 218.277 592.312 213.222C590.723 203.111 591.301 203.544 590.579 194.3C589.712 182.744 588.268 176.1 587.835 174.366C586.823 169.166 586.679 170.033 585.668 164.689C584.512 158.911 583.79 153.566 582.057 145.477C581.623 143.744 581.623 141.866 580.468 139.844C578.879 137.244 574.401 129.011 572.957 123.233C567.901 104.311 576.279 95.3552 582.346 93.1885C583.935 92.6108 586.823 91.8885 590.146 92.4663C595.635 93.1885 599.101 96.6552 602.279 99.6885C605.89 103.3 607.912 106.766 610.368 111.1C612.246 114.422 613.546 117.311 614.557 119.333L614.846 120.055C622.935 137.244 628.857 151.833 631.312 162.666C633.479 172.344 634.346 180.866 634.923 186.211C636.368 200.366 638.101 214.522 637.812 223.333" stroke="#BA6DCD" stroke-width="3" stroke-miterlimit="10" stroke-linecap="round"/>
<path d="M491.199 329.356C491.199 326.178 491.488 322.278 492.21 317.8C493.077 312.889 494.521 308.7 495.821 305.523C495.533 298.734 495.244 291.945 494.81 285.156C494.233 272.878 493.51 260.745 492.644 248.9" stroke="#697695" stroke-width="2" stroke-miterlimit="10"/>
<g opacity="0.5">
<path d="M457.544 208.745C458.699 208.167 459.71 207.445 460.288 206.434C460.866 205.423 461.01 204.267 461.01 202.967C461.01 200.511 460.577 198.056 459.855 195.745C459.133 193.434 458.266 190.978 457.399 188.667C456.966 187.512 456.533 186.356 455.666 185.489C454.799 184.623 453.644 184.189 452.344 183.9C453.644 183.9 454.944 184.189 456.099 185.056C457.255 185.778 457.977 187.223 458.41 188.378C459.422 190.689 460.433 193 461.155 195.456C461.588 196.756 461.877 197.912 462.022 199.212C462.166 200.512 462.166 201.812 462.022 203.112C461.877 204.412 461.588 205.856 460.722 206.867C460.144 207.878 458.844 208.456 457.544 208.745Z" fill="#B1BBD0"/>
</g>
<g opacity="0.5">
<path d="M576.133 104.023C576.855 105.178 577.722 106.189 578.733 107.056C579.166 107.489 579.744 107.923 580.177 108.212C580.611 108.356 581.333 108.501 581.911 108.645C584.511 108.789 587.111 108.501 589.566 108.067C592.022 107.489 594.622 106.912 596.788 105.612C599.533 104.456 597.655 101.567 596.066 99.6895C597.222 100.412 598.233 101.423 598.811 102.578C599.099 103.156 599.388 104.023 598.955 104.889C598.522 105.612 597.944 106.045 597.511 106.623C595.199 108.212 592.455 109.078 589.855 109.512C587.255 109.945 584.511 110.234 581.766 109.801C581.044 109.656 580.466 109.512 579.744 109.223C579.022 108.789 578.588 108.356 578.155 107.778C577.433 106.334 576.566 105.178 576.133 104.023Z" fill="#B1BBD0"/>
</g>
</svg>
