<svg width="900" height="500" viewBox="0 0 900 500" fill="none" xmlns="http://www.w3.org/2000/svg">
<path opacity="0.33" d="M512.283 419.258C501.388 408.582 492.069 399.592 484.471 392.287C473.432 381.611 467.841 376.273 466.407 375.009C458.952 368.828 453.934 366.018 448.343 358.573C446.336 356.045 443.469 352.252 441.462 346.493C439.598 341.435 439.311 337.783 438.594 328.793C437.734 318.819 437.304 313.762 436.874 309.267C435.584 297.046 434.724 290.162 432.143 281.172C430.853 276.958 429.849 274.289 428.989 269.091C428.272 264.877 427.412 259.82 428.559 253.779C429.132 250.83 429.706 249.987 431.283 244.649C433.003 238.889 434.15 234.113 434.867 231.023C434.007 228.494 433.003 224.982 432 220.628C431.139 217.256 430.566 214.868 430.136 211.778C429.706 208.687 429.276 204.192 429.419 198.714C430.566 198.433 431.569 198.011 432.716 197.73C433.863 197.309 435.727 196.606 438.021 196.185C439.885 195.904 446.193 194.78 451.354 198.011C452.501 198.714 452.787 199.275 455.511 202.366C462.679 210.654 462.536 209.811 464.113 212.059C468.988 218.661 470.564 225.263 471.425 229.056C472.715 234.535 472.715 238.889 472.858 243.806C472.858 248.582 472.572 252.515 472.285 255.465C471.855 256.449 471.425 257.572 470.851 258.556C471.281 259.398 471.711 260.241 472.141 261.084C473.002 262.208 473.862 263.472 474.722 264.877C477.589 269.794 478.163 274.57 478.306 277.66C478.306 281.593 479.166 284.262 479.883 285.948C480.457 287.212 481.03 288.055 484.614 293.253C486.048 295.219 487.195 296.905 488.055 298.169C488.485 295.641 489.058 291.848 489.489 287.353C489.919 282.717 490.062 277.098 489.202 263.472C488.772 256.589 488.485 250.97 487.625 242.682C485.904 226.668 484.471 221.189 483.037 210.654C481.03 194.921 480.17 185.649 481.604 173.99C481.89 171.181 482.607 167.107 483.181 160.224C483.897 151.795 483.754 149.407 484.327 142.524C485.188 130.864 485.618 124.965 487.912 118.081C490.205 110.777 492.643 103.332 499.667 100.101C504.112 97.9935 508.556 98.4149 509.273 98.5554C514.864 99.2578 518.448 102.489 519.452 103.472C522.606 106.422 523.896 109.653 524.613 111.9C526.046 115.974 526.476 119.767 526.046 127.353C525.473 136.343 524.613 137.888 524.039 144.771C523.179 154.324 524.039 161.769 524.613 166.124C525.616 174.131 526.476 174.692 529.057 187.757C530.204 193.656 530.921 198.573 532.354 208.406C533.358 215.43 534.648 224.561 535.938 235.518C537.515 235.518 539.092 235.377 540.669 235.377C539.809 229.899 538.519 222.173 537.085 212.621C534.792 197.59 533.645 190.004 533.071 180.592C532.211 167.809 531.781 159.943 533.645 151.795C534.075 150.109 534.935 146.457 535.508 141.26C536.225 135.36 535.652 134.798 536.225 129.179C537.085 120.048 539.379 114.289 539.953 112.743C541.53 108.81 542.533 106.281 545.114 103.753C546.404 102.348 549.988 98.9768 555.723 98.134C561.314 97.4316 565.615 99.6792 566.905 100.522C571.493 103.051 573.643 106.843 574.36 108.248C575.937 111.058 576.224 113.446 576.797 116.817C577.514 121.874 577.371 125.807 577.227 127.212C576.941 133.814 577.371 140.417 577.371 146.879C577.227 159.24 578.804 170.338 580.955 185.93C582.245 195.764 584.252 207.704 587.263 221.189C589.7 222.032 592.28 222.875 594.718 223.718C596.295 219.785 598.302 213.885 599.449 206.58C600.452 199.697 600.309 194.499 599.879 185.649C599.305 173.288 597.872 164.016 597.442 161.769C595.865 151.936 594.718 145.333 591.85 136.624C590.56 132.691 588.696 127.774 587.836 120.61C587.263 115.272 587.549 111.76 588.84 108.529C589.7 106.281 590.99 102.91 594.431 100.803C600.596 97.1506 608.337 101.084 609.054 101.505C612.208 103.191 613.785 105.439 617.082 109.793C620.953 114.991 623.247 119.627 623.964 121.172C625.828 124.965 626.401 126.931 630.989 142.243C634.573 154.043 636.437 159.943 637.01 161.347C637.727 162.893 639.017 165.843 640.021 170.057C641.024 174.131 641.168 177.221 641.168 179.047C641.598 191.83 641.741 198.292 641.598 202.787C641.311 211.216 640.594 222.594 638.874 236.642C639.734 236.782 640.881 237.063 642.314 237.063C643.748 237.063 645.468 236.923 647.189 236.22C649.483 235.377 651.06 234.113 653.353 231.865C658.371 226.949 661.238 222.173 661.525 221.751C663.962 217.818 667.977 212.34 674.285 205.878C676.292 201.523 678.586 196.887 681.166 192.111C684.033 186.773 687.044 181.857 689.911 177.361C689.911 175.957 689.911 173.85 690.055 171.181C690.341 163.174 690.341 159.24 690.915 156.431C691.632 153.2 693.065 145.895 699.23 140.979C701.094 139.433 706.398 135.079 713.566 136.062C719.874 136.905 723.602 141.4 724.462 142.664C724.605 146.457 724.605 150.39 724.749 154.324C724.892 161.066 724.892 167.809 724.749 174.412C724.462 176.238 724.175 178.064 723.889 179.89C720.878 193.516 713.423 215.149 708.405 226.949C705.538 233.692 700.664 244.227 694.929 253.499C693.209 256.168 691.918 258.275 691.918 258.275C686.614 266.141 684.32 268.108 681.309 273.024C678.299 277.941 676.722 282.296 676.148 284.122C672.994 293.815 675.432 296.624 671.991 305.334C671.417 306.879 670.27 309.407 669.554 313.2C668.98 316.431 668.98 318.819 668.98 320.364C668.98 331.181 669.697 336.659 669.697 344.807C669.697 346.633 669.554 349.162 669.267 354.219C668.693 363.63 668.407 368.407 667.69 373.885C666.543 382.454 665.683 382.173 665.109 388.775C664.679 393.411 664.249 398.047 665.396 403.947C666.113 407.599 667.546 413.218 671.704 419.68C618.229 419.399 565.328 419.258 512.283 419.258Z" fill="#445272"/>
<path d="M512.283 419.258C501.388 408.582 492.069 399.592 484.471 392.287C473.432 381.611 467.841 376.273 466.407 375.009C458.952 368.828 453.934 366.018 448.343 358.573C446.336 356.045 443.469 352.252 441.462 346.493C439.598 341.435 439.311 337.783 438.594 328.793C437.734 318.819 437.304 313.762 436.874 309.267C435.584 297.046 434.724 290.162 432.143 281.172C430.853 276.958 429.849 274.289 428.989 269.091C428.272 264.877 427.412 259.82 428.559 253.779C429.132 250.83 429.706 249.987 431.283 244.649C433.003 238.889 434.15 234.113 434.867 231.023C434.007 228.494 433.003 224.982 432 220.628C431.139 217.256 430.566 214.868 430.136 211.778C429.706 208.687 429.276 204.192 429.419 198.714C430.566 198.433 431.569 198.011 432.716 197.73C433.863 197.309 435.727 196.606 438.021 196.185C439.885 195.904 446.193 194.78 451.354 198.011C452.501 198.714 452.787 199.275 455.511 202.366C462.679 210.654 462.536 209.811 464.113 212.059C468.988 218.661 470.564 225.263 471.425 229.056C472.715 234.535 472.715 238.889 472.858 243.806C472.858 248.582 472.572 252.515 472.285 255.465C471.855 256.449 471.425 257.572 470.851 258.556C471.281 259.398 471.711 260.241 472.141 261.084C473.002 262.208 473.862 263.472 474.722 264.877C477.589 269.794 478.163 274.57 478.306 277.66C478.306 281.593 479.166 284.262 479.883 285.948C480.457 287.212 481.03 288.055 484.614 293.253C486.048 295.219 487.195 296.905 488.055 298.169C488.485 295.641 489.058 291.848 489.489 287.353C489.919 282.717 490.062 277.098 489.202 263.472C488.772 256.589 488.485 250.97 487.625 242.682C485.904 226.668 484.471 221.189 483.037 210.654C481.03 194.921 480.17 185.649 481.604 173.99C481.89 171.181 482.607 167.107 483.181 160.224C483.897 151.795 483.754 149.407 484.327 142.524C485.188 130.864 485.618 124.965 487.912 118.081C490.205 110.777 492.643 103.332 499.667 100.101C504.112 97.9935 508.556 98.4149 509.273 98.5554C514.864 99.2578 518.448 102.489 519.452 103.472C522.606 106.422 523.896 109.653 524.613 111.9C526.046 115.974 526.476 119.767 526.046 127.353C525.473 136.343 524.613 137.888 524.039 144.771C523.179 154.324 524.039 161.769 524.613 166.124C525.616 174.131 526.476 174.692 529.057 187.757C530.204 193.656 530.921 198.573 532.354 208.406C533.358 215.43 534.648 224.561 535.938 235.518C537.515 235.518 539.092 235.377 540.669 235.377C539.809 229.899 538.519 222.173 537.085 212.621C534.792 197.59 533.645 190.004 533.071 180.592C532.211 167.809 531.781 159.943 533.645 151.795C534.075 150.109 534.935 146.457 535.508 141.26C536.225 135.36 535.652 134.798 536.225 129.179C537.085 120.048 539.379 114.289 539.953 112.743C541.53 108.81 542.533 106.281 545.114 103.753C546.404 102.348 549.988 98.9768 555.723 98.134C561.314 97.4316 565.615 99.6792 566.905 100.522C571.493 103.051 573.643 106.843 574.36 108.248C575.937 111.058 576.224 113.446 576.797 116.817C577.514 121.874 577.371 125.807 577.227 127.212C576.941 133.814 577.371 140.417 577.371 146.879C577.227 159.24 578.804 170.338 580.955 185.93C582.245 195.764 584.252 207.704 587.263 221.189C589.7 222.032 592.28 222.875 594.718 223.718C596.295 219.785 598.302 213.885 599.449 206.58C600.452 199.697 600.309 194.499 599.879 185.649C599.305 173.288 597.872 164.016 597.442 161.769C595.865 151.936 594.718 145.333 591.85 136.624C590.56 132.691 588.696 127.774 587.836 120.61C587.263 115.272 587.549 111.76 588.84 108.529C589.7 106.281 590.99 102.91 594.431 100.803C600.596 97.1506 608.337 101.084 609.054 101.505C612.208 103.191 613.785 105.439 617.082 109.793C620.953 114.991 623.247 119.627 623.964 121.172C625.828 124.965 626.401 126.931 630.989 142.243C634.573 154.043 636.436 159.943 637.01 161.347C637.727 162.893 639.017 165.843 640.021 170.057C641.024 174.131 641.168 177.221 641.168 179.047C641.598 191.83 641.741 198.292 641.598 202.787C641.311 211.216 640.594 222.594 638.874 236.642C639.734 236.782 640.881 237.063 642.314 237.063" stroke="#697695" stroke-width="2" stroke-miterlimit="10"/>
<path d="M681.167 272.744C678.156 277.661 676.579 282.015 676.006 283.842C672.852 293.534 675.289 296.344 671.848 305.053C671.275 306.598 670.128 309.127 669.411 312.92C668.838 316.151 668.838 318.539 668.838 320.084C668.838 330.901 669.554 336.379 669.554 344.527C669.554 346.353 669.411 348.881 669.124 353.938C668.551 363.35 668.264 368.126 667.547 373.605C666.4 382.174 665.54 381.893 664.967 388.495C664.537 393.131 664.107 397.766 665.254 403.666C665.97 407.319 667.404 412.937 671.562 419.399" stroke="#697695" stroke-width="2" stroke-miterlimit="10"/>
<path d="M642.459 236.783C643.893 236.783 645.613 236.642 647.333 235.94C649.627 235.097 651.204 233.833 653.498 231.585C658.516 226.669 661.383 221.892 661.67 221.471C664.107 217.538 668.121 212.059 674.429 205.597C676.436 201.243 678.73 196.607 681.311 191.831C684.178 186.493 687.188 181.576 690.056 177.081C690.056 175.676 690.056 173.569 690.199 170.9C690.486 162.893 690.486 158.96 691.059 156.15C691.776 152.92 693.21 145.615 699.374 140.698C701.238 139.153 706.543 134.798 713.711 135.782C720.019 136.625 723.746 141.12 724.606 142.384C724.75 146.177 724.75 150.11 724.893 154.043C725.037 160.786 725.037 167.529 724.893 174.131C724.607 175.957 724.32 177.783 724.033 179.61C721.022 193.236 713.567 214.869 708.55 226.669C705.682 233.411 700.808 243.947 695.074 253.218C693.353 255.887 692.063 257.994 692.063 257.994C686.758 265.861 684.465 267.828 681.454 272.744" stroke="#BA6DCD" stroke-width="3" stroke-miterlimit="10" stroke-linecap="round"/>
<g opacity="0.5">
<path d="M708.119 141.119C708.119 143.507 708.119 146.036 708.119 148.424C708.262 150.812 708.405 153.2 708.835 155.588C708.979 156.15 709.122 156.712 709.266 157.274C709.409 157.836 709.552 158.257 709.982 158.678C710.699 159.521 711.703 160.083 712.706 160.645C714.857 161.769 717.151 162.471 719.588 162.752C717.151 163.033 714.57 162.612 712.133 161.628C710.986 161.207 709.839 160.505 708.835 159.521C708.405 159.1 707.975 158.257 707.832 157.695C707.689 157.133 707.545 156.431 707.402 155.869C706.972 153.481 706.828 150.952 706.972 148.564C707.115 145.895 707.545 143.367 708.119 141.119Z" fill="#B1BBD0"/>
</g>
<g opacity="0.5">
<path d="M439.024 228.214C440.027 227.371 440.601 226.388 440.887 225.264C441.174 224.14 441.174 223.016 441.174 221.893C441.174 220.769 441.031 219.505 440.887 218.381L440.6 214.869C440.457 212.481 440.314 210.093 439.74 207.845C439.454 206.721 439.167 205.598 438.593 204.474C438.163 203.491 437.447 202.507 436.156 201.945C437.447 202.086 438.45 203.069 439.167 204.052C439.884 205.176 440.314 206.3 440.744 207.424C441.461 209.812 441.747 212.2 441.891 214.588C442.034 216.976 442.321 219.364 442.178 221.893C442.178 223.157 441.891 224.421 441.461 225.545C441.031 226.669 440.17 227.652 439.024 228.214Z" fill="#B1BBD0"/>
</g>
<path opacity="0.33" d="M377.296 146.987C365.901 146.266 356.669 149.006 342.388 157.373C328.108 165.739 322.77 176.558 322.049 182.616C310.509 192.569 303.441 214.351 302.576 218.967C299.114 219.4 294.642 227.333 293.488 227.622C292.334 228.055 292.622 225.747 292.622 222.285C292.622 218.823 289.882 218.246 289.305 215.361C288.728 212.476 291.18 208.293 291.757 203.821C292.334 199.349 289.882 195.31 289.882 193.291C289.882 191.271 291.613 188.53 300.989 176.991C310.365 165.451 319.02 163.431 325.511 159.248C332.002 155.209 338.926 147.564 353.351 141.073C367.776 134.582 377.441 124.773 379.027 110.348C380.614 95.7786 369.94 92.7494 362.294 92.4609C354.794 92.0281 341.667 102.847 341.667 102.847C339.503 103.135 337.195 103.712 336.618 103.712C334.887 103.712 334.599 102.27 331.137 101.404V101.26C330.56 92.7494 319.597 83.5175 318.154 82.2192C316.712 80.921 315.991 73.1316 310.942 67.3616C308.49 51.2058 290.747 40.5314 278.63 41.3969C274.014 41.8296 267.379 45.4358 260.599 50.196L260.455 50.0518C257.714 44.8588 251.944 43.4164 246.896 41.3969C241.847 39.3774 236.798 30.7225 218.767 32.0207C200.736 33.3189 198.284 43.8491 188.763 55.8217C187.032 57.9855 185.59 60.1492 184.292 62.1687L184.724 59.5722C184.724 59.5722 185.157 42.6951 181.984 30.1455C178.81 17.7401 168.857 15.1436 168.857 15.1436C168.857 15.1436 166.982 11.6816 159.481 13.5569C151.836 15.4321 152.99 31.011 152.413 39.6659C151.836 48.465 153.278 54.812 153.278 57.2642C153.278 59.7164 151.547 61.7359 150.537 64.6209C149.528 67.5059 149.96 72.1218 149.528 73.9971C149.239 75.8723 147.364 77.6033 146.643 80.1998C145.921 82.7962 145.921 86.114 145.2 89.5759C144.623 93.0379 141.306 96.0671 138.853 102.847C136.401 109.626 136.401 118.137 134.382 125.061C132.362 131.985 124.14 144.967 121.255 151.459C118.37 158.094 114.475 169.922 113.033 177.423C111.59 184.924 95.1459 217.38 91.3955 226.901C87.645 236.421 77.4034 266.136 74.0856 276.666C70.7679 287.197 46.2457 336.385 36.1483 359.754C26.0508 383.122 14.511 396.97 10.6162 404.471C6.72153 411.972 6.14453 427.551 6.14453 427.551H162.51C165.828 414.424 186.167 383.843 209.824 358.744C233.48 333.789 255.55 327.586 271.562 319.508C287.574 311.43 324.646 300.035 334.454 287.774C344.263 275.512 347.293 251.134 353.063 227.333C358.832 203.532 364.602 192.137 367.487 188.386C370.372 184.636 369.651 185.646 370.372 182.184C373.257 180.453 388.692 166.172 391 159.392C390.711 155.209 388.692 147.708 377.296 146.987ZM267.09 125.061V123.763C267.09 123.763 268.821 111.646 278.486 108.617C280.217 108.04 281.948 107.463 283.535 106.742C288.583 104.866 298.104 112.8 298.104 112.8C289.882 117.272 285.121 119.435 272.428 123.619C270.552 124.34 268.821 124.773 267.09 125.061Z" fill="#445272"/>
<path d="M144.047 125.35C149.096 117.994 164.53 101.694 170.733 91.0193C176.936 80.2006 178.955 68.0837 188.62 56.2553C198.14 44.4269 200.737 33.7525 218.623 32.4543C236.655 31.1561 241.559 39.811 246.752 41.8305C251.801 43.8499 257.571 45.4367 260.311 50.4854" stroke="#697695" stroke-width="2" stroke-miterlimit="10"/>
<path d="M203.043 99.8168C208.236 97.0761 225.402 84.3822 232.758 75.2945C240.259 66.2068 266.224 42.8386 278.341 41.8288C290.458 40.8191 308.2 51.6377 310.652 67.7936C315.845 73.5635 316.422 81.2087 317.865 82.6512C319.307 83.9494 330.27 93.1814 330.847 101.692C330.847 101.692 323.635 97.7973 297.959 112.943C297.959 112.943 288.438 105.01 283.389 106.885" stroke="#697695" stroke-width="2" stroke-miterlimit="10"/>
<g opacity="0.5">
<path d="M387.392 152.033C386.526 152.322 385.661 152.899 384.939 153.476C384.218 154.053 383.353 154.63 382.632 155.062C381.189 156.216 379.602 157.37 378.304 158.669C376.862 159.823 375.563 161.121 374.265 162.563C372.967 164.006 371.813 165.448 371.092 167.179C371.236 165.16 372.246 163.429 373.4 161.842C374.554 160.255 375.996 158.813 377.439 157.659C378.881 156.361 380.468 155.207 382.199 154.197C383.641 153.187 385.372 152.177 387.392 152.033Z" fill="#B1BBD0"/>
</g>
<g opacity="0.5">
<path d="M369.507 171.797C369.507 173.816 369.507 175.836 369.507 177.711C369.507 178.721 369.507 179.73 369.507 180.596C369.507 181.606 369.651 182.471 369.939 183.481C369.074 182.76 368.641 181.75 368.353 180.74C368.064 179.73 368.064 178.721 367.92 177.711C368.064 175.692 368.353 173.528 369.507 171.797Z" fill="#B1BBD0"/>
</g>
<path d="M267.09 123.763C267.09 123.763 268.821 111.646 278.485 108.617C288.15 105.587 295.651 100.106 299.978 94.4805" stroke="#697695" stroke-width="2" stroke-miterlimit="10"/>
<path d="M248.48 123.762C248.48 123.762 259.732 127.945 272.426 123.762C285.12 119.578 289.88 117.415 298.102 112.943C306.324 108.327 319.162 100.97 326.807 101.403C334.597 101.836 334.164 104.288 336.472 104.288C338.78 104.288 351.33 99.3836 364.024 113.087" stroke="#697695" stroke-width="2" stroke-miterlimit="10"/>
<path d="M6 428.129C6 428.129 6.57699 412.55 10.4717 405.049C14.3664 397.548 25.9063 383.7 36.0037 360.332C46.1011 336.964 70.6234 287.775 73.9411 277.245C77.2588 266.715 87.3562 237.144 91.251 227.479C95.0014 217.959 111.446 185.503 112.888 178.002C114.331 170.501 118.081 158.528 121.11 152.037C124.14 145.546 132.218 132.419 134.237 125.64C136.257 118.716 136.112 110.205 138.709 103.425C141.161 96.6455 144.479 93.6163 145.056 90.1543C145.633 86.6924 145.777 83.3746 146.498 80.7782C147.219 78.1817 148.95 76.4507 149.383 74.5755C149.672 72.7002 149.383 68.0843 150.393 65.1993C151.403 62.3143 153.134 60.1506 153.134 57.8426C153.134 55.5347 151.691 49.0435 152.268 40.3885C152.845 31.5894 151.691 16.1548 159.336 14.2795C166.981 12.4043 168.712 15.8663 168.712 15.8663C168.712 15.8663 178.666 18.3185 181.839 30.8681C185.013 43.2735 184.58 60.1506 184.58 60.1506" stroke="#697695" stroke-width="2" stroke-miterlimit="10"/>
<path d="M341.521 102.559C341.521 102.559 354.792 92.4616 362.293 92.8944C369.794 93.3271 380.613 96.3563 379.026 110.781C377.439 125.206 367.775 135.159 353.35 141.506C338.925 147.997 332.001 155.643 325.51 159.681C319.019 163.72 310.364 165.884 300.988 177.424C291.611 188.964 289.88 191.705 289.88 193.724C289.88 195.744 292.333 199.638 291.756 204.254C291.179 208.87 288.726 212.909 289.303 215.794C289.88 218.679 292.621 219.256 292.621 222.718C292.621 226.18 292.333 228.344 293.487 228.055C294.641 227.623 299.112 219.833 302.574 219.4C303.44 214.784 310.508 193.003 322.048 183.05C322.625 176.847 328.106 166.173 342.243 157.806C356.379 149.44 365.755 146.699 377.151 147.42C388.547 148.142 390.566 155.643 390.566 160.258C388.258 167.182 372.823 181.319 369.938 183.05C369.217 186.656 370.083 185.502 367.054 189.252C364.169 193.003 358.399 204.399 352.629 228.2C346.859 252.001 343.829 276.234 334.021 288.64C324.212 300.901 287.14 312.297 271.128 320.519C255.117 328.741 233.047 334.799 209.39 359.754C185.733 384.709 165.538 415.434 162.076 428.561" stroke="#697695" stroke-width="2" stroke-miterlimit="10"/>
<path d="M121.109 152.037C124.139 145.546 132.217 132.419 134.236 125.639C136.255 118.716 136.111 110.205 138.708 103.425C141.16 96.6455 144.478 93.6163 145.055 90.1543C145.632 86.6923 145.776 83.3746 146.497 80.7782C147.218 78.1817 148.949 76.4507 149.382 74.5755C149.671 72.7002 149.382 68.0843 150.392 65.1993C151.402 62.3143 153.133 60.1506 153.133 57.8426C153.133 55.5347 151.69 49.0435 152.267 40.3885C152.844 31.5894 151.69 16.1548 159.335 14.2795C166.98 12.4043 168.711 15.8663 168.711 15.8663C168.711 15.8663 178.665 18.3185 181.838 30.8681C185.012 43.2735 184.579 60.1506 184.579 60.1506" stroke="#BA6DCD" stroke-width="3" stroke-miterlimit="10" stroke-linecap="round"/>
<path d="M310.797 67.7949C310.797 67.7949 310.509 77.3152 308.057 83.5178Z" fill="#445272"/>
<path d="M310.797 67.7949C310.797 67.7949 310.509 77.3152 308.057 83.5178" stroke="#697695" stroke-width="2" stroke-miterlimit="10"/>
<g opacity="0.5">
<path d="M167.415 20.0469C167.992 21.7778 168.28 23.5088 168.28 25.5283C168.28 26.538 168.136 27.4035 167.703 28.4132C167.27 29.2787 166.694 30.1441 165.972 30.8654C164.386 32.1636 162.655 32.8848 160.779 33.1733C159.77 33.3176 158.904 33.1733 157.894 32.8848C157.029 32.5963 156.163 32.0193 155.875 31.0096C156.452 31.7309 157.317 32.0194 158.183 32.1636C159.048 32.3078 159.914 32.1636 160.635 32.0194C162.222 31.5866 163.809 30.8654 165.107 29.8557C166.405 28.8459 166.982 27.2592 167.27 25.5283C167.415 23.653 167.415 21.7778 167.415 20.0469Z" fill="#B1BBD0"/>
</g>
</svg>
