<svg width="850" height="500" viewBox="0 0 850 500" fill="none" xmlns="http://www.w3.org/2000/svg">
<path opacity="0.33" d="M687 447.04C679.938 432.164 674.979 418.34 673.026 387.686C671.072 357.032 674.829 354.628 673.026 330.436C671.222 306.243 669.419 311.502 671.222 293.32C672.875 275.139 662.958 251.547 662.808 242.682C662.657 233.816 663.409 203.463 660.704 189.188C657.999 174.913 651.688 165.747 647.18 141.254C642.672 116.761 625.542 100.833 614.573 104.439C603.604 108.046 601.801 119.466 603.153 123.673C598.345 114.207 595.189 108.647 592.184 105.04C589.179 101.434 580.463 97.2268 580.463 97.2268C580.463 97.2268 566.94 94.3718 561.68 106.543C557.323 107.445 557.323 116.911 557.473 119.466C556.421 113.756 554.468 105.642 552.815 103.087C551.012 100.533 547.556 96.4755 542.747 94.3718C537.939 92.2681 525.617 93.0194 522.462 95.5739C519.306 98.1283 513.596 103.388 514.047 108.497C514.498 113.756 516.151 118.414 516.451 131.787C516.752 145.161 521.109 173.41 522.011 180.473C522.912 187.535 535.084 252.599 535.084 252.599C535.084 252.599 534.633 253.651 533.882 252.9C533.281 252.148 519.006 172.809 513.897 161.089C515.85 148.617 517.052 113.305 508.938 105.491C505.482 97.6776 484.445 91.5168 476.481 109.098C468.517 126.528 471.072 157.783 469.569 169.804C468.066 181.825 469.719 208.572 471.222 216.536C470.17 208.422 467.465 200.908 462.807 196.25C458.149 191.592 450.485 186.934 445.076 184.981C440.718 183.478 435.159 185.431 432.754 187.836C432.003 188.587 430.951 189.338 429.899 189.488C428.697 189.789 427.646 190.691 427.646 190.691C427.646 193.245 429.599 206.017 436.661 218.64C434.858 221.344 437.262 232.614 435.309 240.578C433.355 248.392 431.102 253.801 434.558 262.817C433.205 265.221 435.008 271.833 438.014 274.237C436.211 279.797 438.464 286.859 444.475 301.585C451.988 320.067 448.232 340.503 453.491 351.022C458.75 361.54 465.061 365.146 471.973 375.965C478.735 386.784 505.181 420.593 516 429.158C526.819 437.724 531.327 446.89 531.327 446.89H687V447.04Z" fill="#E0E1E2"/>
<path d="M687 447.04C679.938 432.164 674.979 418.339 673.026 387.686C671.072 357.032 674.829 354.628 673.026 330.435C671.222 306.243 669.419 311.502 671.222 293.32C672.875 275.138 662.958 251.547 662.808 242.682C662.657 233.816 663.409 203.463 660.704 189.188C657.999 174.913 653.942 164.394 647.18 141.254C639.667 115.409 625.542 100.833 614.573 104.439C603.604 108.046 601.801 119.466 603.153 123.673C598.345 114.206 595.189 108.647 592.184 105.04C589.93 102.336 583.769 97.6774 578.66 96.9261C574.904 96.3251 565.737 97.0764 561.68 106.393C557.774 107.745 557.323 116.761 557.473 119.315C556.421 113.605 554.468 105.491 552.815 102.937C551.012 100.382 547.556 96.3251 542.747 94.2214C537.939 92.1177 525.617 92.869 522.462 95.4235C519.306 97.978 513.596 103.237 514.047 108.346C514.498 113.605 516.151 118.264 516.451 131.637C516.752 145.01 521.109 173.26 522.011 180.322C522.912 187.385 535.084 252.449 535.084 252.449C535.084 252.449 534.633 253.501 533.882 252.749C533.281 251.998 519.006 172.659 513.897 160.938C515.85 148.466 517.052 113.155 508.938 105.341C505.482 97.5272 484.445 91.3664 476.481 108.947C468.517 126.378 471.072 157.633 469.569 169.654C468.066 181.675 469.719 208.422 471.222 216.385C470.17 208.271 467.465 200.758 462.807 196.1C458.149 191.442 450.485 186.784 445.076 184.83C440.718 183.328 435.159 185.281 432.754 187.835C431.853 188.737 430.651 189.639 429.298 189.789C428.247 189.939 427.646 190.24 427.646 190.24C427.646 192.644 429.298 204.214 435.159 215.784C435.91 217.287 436.361 218.94 436.06 220.593C435.459 224.951 436.962 233.966 435.309 240.428C433.355 248.241 431.102 253.651 434.558 262.667C434.858 267.475 436.361 272.283 438.014 274.087C437.563 280.548 438.464 286.709 444.475 301.435C451.988 319.917 448.232 340.353 453.491 350.871C458.75 361.39 465.061 364.996 471.973 375.815C478.735 386.634 505.181 420.443 516 429.008C526.819 437.573 531.327 446.739 531.327 446.739" stroke="#808285" stroke-width="2" stroke-miterlimit="10"/>
<path d="M476.331 343.509C476.782 335.846 480.238 322.773 480.538 318.115C480.989 313.456 479.637 320.068 479.336 299.933C479.186 279.647 477.383 247.791 474.077 233.516C470.771 219.241 471.673 216.386 470.17 211.277" stroke="#808285" stroke-width="2" stroke-miterlimit="10"/>
<path d="M586.473 239.526C583.168 234.568 579.411 225.852 578.96 202.712C578.509 179.571 571.597 174.012 571.147 158.084C570.696 142.156 559.276 137.047 557.322 119.616" stroke="#808285" stroke-width="2" stroke-miterlimit="10"/>
<path d="M627.045 233.815C627.195 228.105 627.345 199.254 624.34 181.974C621.335 164.694 618.33 158.082 614.723 150.419C610.967 142.605 604.656 130.734 602.853 123.822" stroke="#808285" stroke-width="2" stroke-miterlimit="10"/>
<g opacity="0.5">
<path d="M436.061 191.593C437.413 191.893 438.615 192.645 439.817 193.546C440.869 194.598 441.62 195.8 442.071 197.153C442.822 199.857 443.574 202.412 444.025 205.267C444.475 207.971 444.926 210.826 444.626 213.681C444.626 214.433 444.325 215.184 444.175 215.785C443.874 216.536 443.423 217.138 442.822 217.588C441.62 218.64 440.118 218.79 438.765 218.34C440.118 218.49 441.47 218.039 442.372 216.987C443.273 216.086 443.423 214.733 443.423 213.381C443.423 210.676 442.973 207.971 442.522 205.417C442.071 202.712 441.47 200.008 440.869 197.453C440.418 195.049 438.615 192.795 436.061 191.593Z" fill="#AEB0B2"/>
</g>
<path opacity="0.33" d="M329.523 449.593C346.353 432.312 372.348 398.653 384.971 388.886C397.593 379.119 395.038 357.331 399.997 340.201C404.956 323.071 417.127 295.723 415.173 291.816C418.329 289.863 419.231 282.8 420.282 275.888C421.334 268.976 425.842 265.219 425.692 261.162C428.847 257.105 442.521 236.068 442.672 231.56C442.822 227.053 432.153 216.684 410.065 226.902C387.976 237.12 375.053 262.064 373.701 266.422C372.348 270.779 374.152 274.987 373.1 277.09C372.048 279.194 369.043 278.743 364.835 291.816C360.778 304.739 358.975 315.407 353.265 319.465C353.716 311.951 354.467 279.344 355.519 266.572C356.571 253.799 366.939 216.234 370.395 200.005C373.701 183.777 372.348 167.849 374.152 155.978C375.955 144.107 376.105 120.666 368.592 111.049C360.928 101.432 349.959 101.583 342.747 111.049C335.534 120.516 336.285 146.511 335.384 155.978C329.674 170.403 317.352 205.715 315.399 215.633C313.445 225.55 308.186 246.437 306.683 247.038C305.181 247.639 299.771 245.986 300.673 239.224C301.574 232.462 315.699 173.559 316.15 167.999C318.404 162.74 323.513 145.61 323.513 139.9C326.518 135.091 330.575 108.345 322.01 105.94C320.357 100.681 317.352 97.9764 307.284 97.3753C297.217 96.9245 292.559 101.883 292.258 105.79C289.253 108.194 287.6 110.899 287.299 113.303C287.299 110.749 282.641 103.536 274.828 103.085C267.014 102.635 263.257 105.49 259.35 109.997C254.692 111.801 248.531 117.21 240.117 130.133C231.702 143.055 229.298 149.066 225.541 153.724C220.733 157.781 212.769 165.445 209.613 172.206C206.458 178.968 197.592 202.409 195.639 204.964C193.685 207.518 190.981 208.27 188.576 218.788C186.172 229.307 182.866 233.213 181.364 241.929C179.861 250.794 179.711 253.95 179.41 261.463C179.11 268.826 177.156 280.997 166.938 297.676C156.721 314.356 164.835 340.501 158.373 368.45C151.912 396.399 160.327 416.835 145 449.593H329.523V449.593Z" fill="#E0E1E2"/>
<path d="M329.523 449.593C346.353 432.312 372.348 398.653 384.971 388.886C397.593 379.119 395.038 357.331 399.997 340.201C404.956 323.071 417.127 295.723 415.173 291.816C418.329 289.863 419.231 282.8 420.282 275.888C421.334 268.976 425.842 265.219 425.692 261.162C428.847 257.105 442.521 236.068 442.672 231.56C442.822 227.053 432.153 216.684 410.065 226.902C387.976 237.12 375.053 262.064 373.701 266.422C372.348 270.779 374.152 274.987 373.1 277.09C372.048 279.194 369.043 278.743 364.835 291.816C360.778 304.739 358.975 315.407 353.265 319.465C353.716 311.951 354.467 279.344 355.519 266.572C356.571 253.799 366.939 216.234 370.395 200.005C373.701 183.777 372.348 167.849 374.152 155.978C375.955 144.107 376.105 120.666 368.592 111.049C360.928 101.432 349.959 101.583 342.747 111.049C335.534 120.516 336.285 146.511 335.384 155.978C329.674 170.403 317.352 205.715 315.399 215.633C313.445 225.55 308.186 246.437 306.683 247.038C305.181 247.639 299.771 245.986 300.673 239.224C301.574 232.462 315.699 173.559 316.15 167.999C318.404 162.74 323.513 145.61 323.513 139.9C326.518 135.091 330.575 108.345 322.01 105.94C320.357 100.681 317.352 97.9764 307.284 97.3753C297.217 96.9245 292.559 101.883 292.258 105.79C289.253 108.194 287.6 110.899 287.299 113.303C287.299 110.749 282.641 103.536 274.828 103.085C267.014 102.635 263.257 105.49 259.35 109.997C254.692 111.801 248.531 117.21 240.117 130.133C231.702 143.055 229.298 149.066 225.541 153.724C220.733 157.781 212.769 165.445 209.613 172.206C206.458 178.968 197.592 202.409 195.639 204.964C193.685 207.518 190.981 208.27 188.576 218.788C186.172 229.307 182.866 233.213 181.364 241.929C179.861 250.794 179.711 253.95 179.41 261.463C179.11 268.826 177.156 280.997 166.938 297.676C156.721 314.356 164.835 340.501 158.373 368.45C151.912 396.399 160.327 416.835 145 449.593" stroke="#808285" stroke-width="2" stroke-miterlimit="10"/>
<path d="M224.339 154.776C219.53 158.833 212.618 165.595 209.613 172.357C206.458 179.119 197.592 202.56 195.639 205.115C193.685 207.669 190.98 208.42 188.576 218.939C186.172 229.457 182.866 233.364 181.364 242.079C179.861 250.945 179.711 254.1 179.41 261.614" stroke="#2969D0" stroke-width="3" stroke-miterlimit="10" stroke-linecap="round"/>
<path d="M195.939 259.209C199.245 256.354 201.199 252.748 201.199 245.084C201.199 237.271 204.054 212.026 205.106 203.612C206.157 195.197 208.111 186.031 209.613 183.326C210.966 180.471 224.339 158.833 227.645 150.869" stroke="#808285" stroke-width="2" stroke-miterlimit="10"/>
<path d="M234.857 258.758C241.018 253.348 247.329 241.778 253.79 201.207C260.251 160.636 266.713 160.936 270.019 153.874C273.324 146.812 276.63 138.247 282.34 132.236C282.34 125.474 282.791 118.863 287.149 113.453" stroke="#808285" stroke-width="2" stroke-miterlimit="10"/>
<g opacity="0.5">
<path d="M438.465 231.41C436.662 231.41 435.009 231.711 433.356 232.312C431.703 232.763 430.05 233.514 428.547 234.265C427.045 235.017 425.692 236.068 424.34 237.12C422.988 238.172 421.936 239.524 421.034 240.877C420.133 242.229 419.381 243.732 418.78 245.385C418.179 247.038 417.879 248.691 417.729 250.343C417.578 251.996 417.728 253.799 418.179 255.452C418.63 257.105 419.381 258.758 420.283 260.111C418.931 258.908 418.029 257.406 417.428 255.603C416.827 253.95 416.526 252.147 416.526 250.343C416.526 248.54 416.827 246.737 417.428 244.934C418.029 243.281 418.63 241.478 419.682 239.975C421.635 236.97 424.791 234.716 427.946 233.213C431.402 231.861 435.009 230.959 438.465 231.41Z" fill="#AEB0B2"/>
</g>
</svg>
