<svg width="900" height="500" viewBox="0 0 900 500" fill="none" xmlns="http://www.w3.org/2000/svg">
<path opacity="0.33" d="M512.283 419.258C501.388 408.582 492.069 399.592 484.471 392.287C473.432 381.611 467.841 376.273 466.407 375.009C458.952 368.828 453.934 366.018 448.343 358.573C446.336 356.045 443.469 352.252 441.462 346.493C439.598 341.435 439.311 337.783 438.594 328.793C437.734 318.819 437.304 313.762 436.874 309.267C435.584 297.046 434.724 290.162 432.143 281.172C430.853 276.958 429.849 274.289 428.989 269.091C428.272 264.877 427.412 259.82 428.559 253.779C429.132 250.83 429.706 249.987 431.283 244.649C433.003 238.889 434.15 234.113 434.867 231.023C434.007 228.494 433.003 224.982 432 220.628C431.139 217.256 430.566 214.868 430.136 211.778C429.706 208.687 429.276 204.192 429.419 198.714C430.566 198.433 431.569 198.011 432.716 197.73C433.863 197.309 435.727 196.606 438.021 196.185C439.885 195.904 446.193 194.78 451.354 198.011C452.501 198.714 452.787 199.275 455.511 202.366C462.679 210.654 462.536 209.811 464.113 212.059C468.988 218.661 470.564 225.263 471.425 229.056C472.715 234.535 472.715 238.889 472.858 243.806C472.858 248.582 472.572 252.515 472.285 255.465C471.855 256.449 471.425 257.572 470.851 258.556C471.281 259.398 471.711 260.241 472.141 261.084C473.002 262.208 473.862 263.472 474.722 264.877C477.589 269.794 478.163 274.57 478.306 277.66C478.306 281.593 479.166 284.262 479.883 285.948C480.457 287.212 481.03 288.055 484.614 293.253C486.048 295.219 487.195 296.905 488.055 298.169C488.485 295.641 489.058 291.848 489.489 287.353C489.919 282.717 490.062 277.098 489.202 263.472C488.772 256.589 488.485 250.97 487.625 242.682C485.904 226.668 484.471 221.189 483.037 210.654C481.03 194.921 480.17 185.649 481.604 173.99C481.89 171.181 482.607 167.107 483.181 160.224C483.897 151.795 483.754 149.407 484.327 142.524C485.188 130.864 485.618 124.965 487.912 118.081C490.205 110.777 492.643 103.332 499.667 100.101C504.112 97.9935 508.556 98.4149 509.273 98.5554C514.864 99.2578 518.448 102.489 519.452 103.472C522.606 106.422 523.896 109.653 524.613 111.9C526.046 115.974 526.476 119.767 526.046 127.353C525.473 136.343 524.613 137.888 524.039 144.771C523.179 154.324 524.039 161.769 524.613 166.124C525.616 174.131 526.476 174.692 529.057 187.757C530.204 193.656 530.921 198.573 532.354 208.406C533.358 215.43 534.648 224.561 535.938 235.518C537.515 235.518 539.092 235.377 540.669 235.377C539.809 229.899 538.519 222.173 537.085 212.621C534.792 197.59 533.645 190.004 533.071 180.592C532.211 167.809 531.781 159.943 533.645 151.795C534.075 150.109 534.935 146.457 535.508 141.26C536.225 135.36 535.652 134.798 536.225 129.179C537.085 120.048 539.379 114.289 539.953 112.743C541.53 108.81 542.533 106.281 545.114 103.753C546.404 102.348 549.988 98.9768 555.723 98.134C561.314 97.4316 565.615 99.6792 566.905 100.522C571.493 103.051 573.643 106.843 574.36 108.248C575.937 111.058 576.224 113.446 576.797 116.817C577.514 121.874 577.371 125.807 577.227 127.212C576.941 133.814 577.371 140.417 577.371 146.879C577.227 159.24 578.804 170.338 580.955 185.93C582.245 195.764 584.252 207.704 587.263 221.189C589.7 222.032 592.28 222.875 594.718 223.718C596.295 219.785 598.302 213.885 599.449 206.58C600.452 199.697 600.309 194.499 599.879 185.649C599.305 173.288 597.872 164.016 597.442 161.769C595.865 151.936 594.718 145.333 591.85 136.624C590.56 132.691 588.696 127.774 587.836 120.61C587.263 115.272 587.549 111.76 588.84 108.529C589.7 106.281 590.99 102.91 594.431 100.803C600.596 97.1506 608.337 101.084 609.054 101.505C612.208 103.191 613.785 105.439 617.082 109.793C620.953 114.991 623.247 119.627 623.964 121.172C625.828 124.965 626.401 126.931 630.989 142.243C634.573 154.043 636.437 159.943 637.01 161.347C637.727 162.893 639.017 165.843 640.021 170.057C641.024 174.131 641.168 177.221 641.168 179.047C641.598 191.83 641.741 198.292 641.598 202.787C641.311 211.216 640.594 222.594 638.874 236.642C639.734 236.782 640.881 237.063 642.314 237.063C643.748 237.063 645.468 236.923 647.189 236.22C649.483 235.377 651.06 234.113 653.353 231.865C658.371 226.949 661.238 222.173 661.525 221.751C663.962 217.818 667.977 212.34 674.285 205.878C676.292 201.523 678.586 196.887 681.166 192.111C684.033 186.773 687.044 181.857 689.911 177.361C689.911 175.957 689.911 173.85 690.055 171.181C690.341 163.174 690.341 159.24 690.915 156.431C691.632 153.2 693.065 145.895 699.23 140.979C701.094 139.433 706.398 135.079 713.566 136.062C719.874 136.905 723.602 141.4 724.462 142.664C724.605 146.457 724.605 150.39 724.749 154.324C724.892 161.066 724.892 167.809 724.749 174.412C724.462 176.238 724.175 178.064 723.889 179.89C720.878 193.516 713.423 215.149 708.405 226.949C705.538 233.692 700.664 244.227 694.929 253.499C693.209 256.168 691.918 258.275 691.918 258.275C686.614 266.141 684.32 268.108 681.309 273.024C678.299 277.941 676.722 282.296 676.148 284.122C672.994 293.815 675.432 296.624 671.991 305.334C671.417 306.879 670.27 309.407 669.554 313.2C668.98 316.431 668.98 318.819 668.98 320.364C668.98 331.181 669.697 336.659 669.697 344.807C669.697 346.633 669.554 349.162 669.267 354.219C668.693 363.63 668.407 368.407 667.69 373.885C666.543 382.454 665.683 382.173 665.109 388.775C664.679 393.411 664.249 398.047 665.396 403.947C666.113 407.599 667.546 413.218 671.704 419.68C618.229 419.399 565.328 419.258 512.283 419.258Z" fill="#E0E1E2"/>
<path d="M512.283 419.258C501.388 408.582 492.069 399.592 484.471 392.287C473.432 381.611 467.841 376.273 466.407 375.009C458.952 368.828 453.934 366.018 448.343 358.573C446.336 356.045 443.469 352.252 441.462 346.493C439.598 341.435 439.311 337.783 438.594 328.793C437.734 318.819 437.304 313.762 436.874 309.267C435.584 297.046 434.724 290.162 432.143 281.172C430.853 276.958 429.849 274.289 428.989 269.091C428.272 264.877 427.412 259.82 428.559 253.779C429.132 250.83 429.706 249.987 431.283 244.649C433.003 238.889 434.15 234.113 434.867 231.023C434.007 228.494 433.003 224.982 432 220.628C431.139 217.256 430.566 214.868 430.136 211.778C429.706 208.687 429.276 204.192 429.419 198.714C430.566 198.433 431.569 198.011 432.716 197.73C433.863 197.309 435.727 196.606 438.021 196.185C439.885 195.904 446.193 194.78 451.354 198.011C452.501 198.714 452.787 199.275 455.511 202.366C462.679 210.654 462.536 209.811 464.113 212.059C468.988 218.661 470.564 225.263 471.425 229.056C472.715 234.535 472.715 238.889 472.858 243.806C472.858 248.582 472.572 252.515 472.285 255.465C471.855 256.449 471.425 257.572 470.851 258.556C471.281 259.398 471.711 260.241 472.141 261.084C473.002 262.208 473.862 263.472 474.722 264.877C477.589 269.794 478.163 274.57 478.306 277.66C478.306 281.593 479.166 284.262 479.883 285.948C480.457 287.212 481.03 288.055 484.614 293.253C486.048 295.219 487.195 296.905 488.055 298.169C488.485 295.641 489.058 291.848 489.489 287.353C489.919 282.717 490.062 277.098 489.202 263.472C488.772 256.589 488.485 250.97 487.625 242.682C485.904 226.668 484.471 221.189 483.037 210.654C481.03 194.921 480.17 185.649 481.604 173.99C481.89 171.181 482.607 167.107 483.181 160.224C483.897 151.795 483.754 149.407 484.327 142.524C485.188 130.864 485.618 124.965 487.912 118.081C490.205 110.777 492.643 103.332 499.667 100.101C504.112 97.9935 508.556 98.4149 509.273 98.5554C514.864 99.2578 518.448 102.489 519.452 103.472C522.606 106.422 523.896 109.653 524.613 111.9C526.046 115.974 526.476 119.767 526.046 127.353C525.473 136.343 524.613 137.888 524.039 144.771C523.179 154.324 524.039 161.769 524.613 166.124C525.616 174.131 526.476 174.692 529.057 187.757C530.204 193.656 530.921 198.573 532.354 208.406C533.358 215.43 534.648 224.561 535.938 235.518C537.515 235.518 539.092 235.377 540.669 235.377C539.809 229.899 538.519 222.173 537.085 212.621C534.792 197.59 533.645 190.004 533.071 180.592C532.211 167.809 531.781 159.943 533.645 151.795C534.075 150.109 534.935 146.457 535.508 141.26C536.225 135.36 535.652 134.798 536.225 129.179C537.085 120.048 539.379 114.289 539.953 112.743C541.53 108.81 542.533 106.281 545.114 103.753C546.404 102.348 549.988 98.9768 555.723 98.134C561.314 97.4316 565.615 99.6792 566.905 100.522C571.493 103.051 573.643 106.843 574.36 108.248C575.937 111.058 576.224 113.446 576.797 116.817C577.514 121.874 577.371 125.807 577.227 127.212C576.941 133.814 577.371 140.417 577.371 146.879C577.227 159.24 578.804 170.338 580.955 185.93C582.245 195.764 584.252 207.704 587.263 221.189C589.7 222.032 592.28 222.875 594.718 223.718C596.295 219.785 598.302 213.885 599.449 206.58C600.452 199.697 600.309 194.499 599.879 185.649C599.305 173.288 597.872 164.016 597.442 161.769C595.865 151.936 594.718 145.333 591.85 136.624C590.56 132.691 588.696 127.774 587.836 120.61C587.263 115.272 587.549 111.76 588.84 108.529C589.7 106.281 590.99 102.91 594.431 100.803C600.596 97.1506 608.337 101.084 609.054 101.505C612.208 103.191 613.785 105.439 617.082 109.793C620.953 114.991 623.247 119.627 623.964 121.172C625.828 124.965 626.401 126.931 630.989 142.243C634.573 154.043 636.436 159.943 637.01 161.347C637.727 162.893 639.017 165.843 640.021 170.057C641.024 174.131 641.168 177.221 641.168 179.047C641.598 191.83 641.741 198.292 641.598 202.787C641.311 211.216 640.594 222.594 638.874 236.642C639.734 236.782 640.881 237.063 642.314 237.063" stroke="#75819C" stroke-width="2" stroke-miterlimit="10"/>
<path d="M681.167 272.744C678.156 277.661 676.579 282.015 676.006 283.842C672.852 293.534 675.289 296.344 671.848 305.053C671.275 306.598 670.128 309.127 669.411 312.92C668.838 316.151 668.838 318.539 668.838 320.084C668.838 330.901 669.554 336.379 669.554 344.527C669.554 346.353 669.411 348.881 669.124 353.938C668.551 363.35 668.264 368.126 667.547 373.605C666.4 382.174 665.54 381.893 664.967 388.495C664.537 393.131 664.107 397.766 665.254 403.666C665.97 407.319 667.404 412.937 671.562 419.399" stroke="#75819C" stroke-width="2" stroke-miterlimit="10"/>
<path d="M642.458 236.783C643.892 236.783 645.612 236.642 647.332 235.94C649.626 235.097 651.203 233.833 653.497 231.585C658.515 226.669 661.382 221.892 661.669 221.471C664.106 217.538 668.12 212.059 674.428 205.597C676.435 201.243 678.729 196.607 681.31 191.831C684.177 186.493 687.188 181.576 690.055 177.081C690.055 175.676 690.055 173.569 690.198 170.9C690.485 162.893 690.485 158.96 691.058 156.15C691.775 152.92 693.209 145.615 699.373 140.698C701.237 139.153 706.542 134.798 713.71 135.782C720.018 136.625 723.745 141.12 724.606 142.384C724.749 146.177 724.749 150.11 724.892 154.043C725.036 160.786 725.036 167.529 724.892 174.131C724.606 175.957 724.319 177.783 724.032 179.61C721.021 193.236 713.567 214.869 708.549 226.669C705.681 233.411 700.807 243.947 695.073 253.218C693.352 255.887 692.062 257.994 692.062 257.994C686.757 265.861 684.464 267.828 681.453 272.744" stroke="#F69AED" stroke-width="3" stroke-miterlimit="10" stroke-linecap="round"/>
<g opacity="0.5">
<path d="M708.119 141.119C708.119 143.507 708.119 146.036 708.119 148.424C708.262 150.812 708.405 153.2 708.835 155.588C708.979 156.15 709.122 156.712 709.266 157.274C709.409 157.836 709.552 158.257 709.982 158.678C710.699 159.521 711.703 160.083 712.706 160.645C714.857 161.769 717.151 162.471 719.588 162.752C717.151 163.033 714.57 162.612 712.133 161.628C710.986 161.207 709.839 160.505 708.835 159.521C708.405 159.1 707.975 158.257 707.832 157.695C707.689 157.133 707.545 156.431 707.402 155.869C706.972 153.481 706.828 150.952 706.972 148.564C707.115 145.895 707.545 143.367 708.119 141.119Z" fill="#75819C"/>
</g>
<g opacity="0.5">
<path d="M439.024 228.214C440.027 227.371 440.601 226.388 440.887 225.264C441.174 224.14 441.174 223.016 441.174 221.893C441.174 220.769 441.031 219.505 440.887 218.381L440.6 214.869C440.457 212.481 440.314 210.093 439.74 207.845C439.454 206.721 439.167 205.598 438.593 204.474C438.163 203.491 437.447 202.507 436.156 201.945C437.447 202.086 438.45 203.069 439.167 204.052C439.884 205.176 440.314 206.3 440.744 207.424C441.461 209.812 441.747 212.2 441.891 214.588C442.034 216.976 442.321 219.364 442.178 221.893C442.178 223.157 441.891 224.421 441.461 225.545C441.031 226.669 440.17 227.652 439.024 228.214Z" fill="#75819C"/>
</g>
<path opacity="0.33" d="M289.259 428.857C292.266 425.849 298.997 416.97 317.614 401.217C336.231 385.464 343.392 371.43 367.165 348.373C390.938 325.316 375.757 322.738 389.362 286.793C402.967 250.847 399.817 244.832 396.666 235.667C393.515 226.501 392.799 224.067 392.799 224.067C392.799 224.067 397.955 199.721 396.093 191.701C394.231 183.681 375.328 186.546 363.298 204.876C351.268 223.207 346.829 243.114 353.703 250.274C350.123 253.138 340.098 273.044 338.666 283.069C341.387 273.188 341.53 248.699 351.412 224.783C361.293 200.867 371.031 174.802 375.471 161.054C379.91 147.449 391.081 134.704 384.207 105.918C382.488 100.333 374.182 97.8986 369.743 98.0418C365.303 98.3283 359.002 102.481 356.281 107.207C352.701 110.358 348.404 120.096 345.11 132.269C341.817 144.299 326.78 160.481 323.486 166.639C320.192 172.797 301.431 210.891 298.71 220.486C295.989 230.081 294.414 212.037 305.012 186.975C315.466 161.913 315.752 162.916 317.041 161.77C318.33 160.625 333.51 150.313 339.668 129.548C345.683 108.783 341.96 106.778 339.955 104.343C337.95 101.909 335.945 96.7529 324.775 96.3233C313.604 95.8937 312.315 104.2 311.026 105.775C309.738 107.35 304.152 111.36 300.429 118.664C296.705 125.968 302.434 113.509 301.145 109.069C299.856 104.63 298.424 97.3258 288.399 95.3209C278.375 93.3159 276.226 101.192 268.063 105.489C259.901 109.928 256.607 111.79 256.607 111.79C256.607 111.79 254.029 108.496 250.592 105.775C247.298 103.197 240.71 95.4641 232.404 104.773C224.098 114.081 210.636 137.854 206.77 147.02C202.903 156.042 195.17 170.506 193.308 172.941C191.446 175.232 188.582 178.669 186.863 184.541C185.002 190.555 185.861 193.563 182.424 201.296C179.13 209.03 178.557 221.775 176.266 230.081C173.975 238.388 165.955 256.432 164.38 263.736C162.804 271.039 162.804 307.272 161.802 313.143C160.799 319.158 159.94 372.862 152.78 389.044C145.619 405.227 132.587 429 132.587 429H289.259V428.857Z" fill="#E0E1E2"/>
<path d="M289.259 428.857C292.266 425.849 298.997 416.97 317.614 401.217C336.231 385.464 343.392 371.43 367.165 348.373C390.938 325.316 375.757 322.738 389.362 286.793C402.967 250.847 399.817 244.832 396.666 235.667C393.515 226.501 392.799 224.067 392.799 224.067C392.799 224.067 397.955 199.721 396.093 191.701C394.231 183.681 375.328 186.546 363.298 204.876C351.268 223.207 346.829 243.114 353.703 250.274C350.123 253.138 340.098 273.044 338.666 283.069C341.387 273.188 341.53 248.699 351.412 224.783C361.293 200.867 371.031 174.802 375.471 161.054C379.91 147.449 391.081 134.704 384.207 105.918C382.488 100.333 374.182 97.8986 369.743 98.0418C365.303 98.3283 359.002 102.481 356.281 107.207C352.701 110.358 348.404 120.096 345.11 132.269C341.817 144.299 326.78 160.481 323.486 166.639C320.192 172.797 301.431 210.891 298.71 220.486C295.989 230.081 294.414 212.037 305.012 186.975C315.466 161.913 315.752 162.916 317.041 161.77C318.33 160.625 333.51 150.313 339.668 129.548C345.683 108.783 341.96 106.778 339.955 104.343C337.95 101.909 335.945 96.7529 324.775 96.3233C313.604 95.8937 312.315 104.2 311.026 105.775C309.738 107.35 304.152 111.36 300.429 118.664C296.705 125.968 302.434 113.509 301.145 109.069C299.856 104.63 298.424 97.3258 288.399 95.3209C278.375 93.3159 276.226 101.192 268.063 105.489C259.901 109.928 254.888 113.079 254.888 113.079C254.888 113.079 254.172 109.069 250.592 105.775C247.441 102.911 240.71 95.4641 232.404 104.773C224.098 114.081 210.636 137.854 206.77 147.02C202.903 156.042 195.17 170.506 193.308 172.941C191.446 175.232 188.582 178.669 186.863 184.541C185.002 190.555 185.861 193.563 182.424 201.296C179.13 209.03 178.557 221.775 176.266 230.081C173.975 238.388 165.955 256.432 164.38 263.736C162.804 271.039 162.804 307.272 161.802 313.143C160.799 319.158 159.94 372.862 152.78 389.044C145.619 405.227 132.587 429 132.587 429" stroke="#75819C" stroke-width="2" stroke-miterlimit="10"/>
<path d="M253.599 110.072C252.883 108.926 251.737 107.064 250.592 105.918C247.871 102.911 240.71 95.6073 232.404 104.916C224.098 114.225 210.636 137.997 206.769 147.163C202.903 156.185 195.169 170.649 193.308 173.084C191.446 175.375 188.582 178.812 186.863 184.684C185.001 190.699 185.861 193.706 182.424 201.439C179.13 209.173 178.557 221.918 176.266 230.225" stroke="#F69AED" stroke-width="3" stroke-miterlimit="10" stroke-linecap="round"/>
<path d="M196.458 226.214C201.184 218.91 201.184 218.194 202.759 212.179C204.335 206.164 209.49 169.932 210.349 166.352C211.209 162.772 209.777 146.303 222.236 139.429C234.695 132.555 234.695 127.685 240.137 123.819C245.579 119.952 251.594 115.942 256.749 111.789" stroke="#75819C" stroke-width="2" stroke-miterlimit="10"/>
<path d="M233.979 222.205C237.129 220.057 240.28 216.476 242.571 212.037C244.862 207.597 263.909 146.017 269.924 138.856C275.939 131.696 298.996 120.239 303.865 119.38C308.591 118.521 315.895 119.38 315.895 119.38" stroke="#75819C" stroke-width="2" stroke-miterlimit="10"/>
<g opacity="0.5">
<path d="M392.084 191.701C390.795 192.417 389.506 193.133 388.36 194.136C387.214 195.138 386.212 196.141 385.496 197.43C384.78 198.718 384.207 200.007 383.921 201.439C383.634 202.872 383.634 204.304 383.634 205.736C383.634 208.743 383.921 211.607 384.493 214.615C384.78 216.047 385.21 217.479 385.782 218.911C386.355 220.2 387.071 221.632 388.503 222.348C387.071 221.918 385.926 220.486 385.21 219.197C384.493 217.909 383.921 216.333 383.491 214.901C382.632 211.894 382.345 208.886 382.202 205.879C382.202 205.163 382.202 204.304 382.202 203.588C382.202 202.728 382.345 202.012 382.489 201.153C382.918 199.578 383.491 198.146 384.493 196.857C386.498 194.279 389.219 192.417 392.084 191.701Z" fill="#75819C"/>
</g>
<g opacity="0.5">
<path d="M246.725 106.635C247.871 107.351 248.444 108.783 248.873 110.072C249.16 111.361 249.017 112.936 248.157 114.225C246.582 116.373 244.72 118.521 242.286 119.953C240.997 120.669 239.708 121.099 238.133 121.099C236.557 121.099 235.269 120.526 234.123 119.81C232.977 119.094 231.832 118.235 230.972 117.089C230.543 116.516 230.113 115.943 229.827 115.371C229.54 114.798 229.111 114.082 229.54 113.366C229.254 114.082 229.827 114.655 230.113 115.084C230.543 115.657 230.972 116.087 231.402 116.516C232.404 117.376 233.407 118.092 234.553 118.664C235.698 119.237 236.987 119.667 238.133 119.524C239.278 119.524 240.424 119.094 241.57 118.521C243.718 117.232 245.58 115.371 247.298 113.366C248.014 112.506 248.301 111.217 248.157 109.929C248.014 108.926 247.585 107.637 246.725 106.635Z" fill="#75819C"/>
</g>
</svg>
