<svg width="900" height="500" viewBox="0 0 900 500" fill="none" xmlns="http://www.w3.org/2000/svg">
<path opacity="0.33" d="M512.283 419.258C501.388 408.582 492.069 399.592 484.471 392.287C473.432 381.611 467.841 376.273 466.407 375.009C458.952 368.828 453.934 366.018 448.343 358.573C446.336 356.045 443.469 352.252 441.462 346.493C439.598 341.435 439.311 337.783 438.594 328.793C437.734 318.819 437.304 313.762 436.874 309.267C435.584 297.046 434.724 290.162 432.143 281.172C430.853 276.958 429.849 274.289 428.989 269.091C428.272 264.877 427.412 259.82 428.559 253.779C429.132 250.83 429.706 249.987 431.283 244.649C433.003 238.889 434.15 234.113 434.867 231.023C434.007 228.494 433.003 224.982 432 220.628C431.139 217.256 430.566 214.868 430.136 211.778C429.706 208.687 429.276 204.192 429.419 198.714C430.566 198.433 431.569 198.011 432.716 197.73C433.863 197.309 435.727 196.606 438.021 196.185C439.885 195.904 446.193 194.78 451.354 198.011C452.501 198.714 452.787 199.275 455.511 202.366C462.679 210.654 462.536 209.811 464.113 212.059C468.988 218.661 470.564 225.263 471.425 229.056C472.715 234.535 472.715 238.889 472.858 243.806C472.858 248.582 472.572 252.515 472.285 255.465C471.855 256.449 471.425 257.572 470.851 258.556C471.281 259.398 471.711 260.241 472.141 261.084C473.002 262.208 473.862 263.472 474.722 264.877C477.589 269.794 478.163 274.57 478.306 277.66C478.306 281.593 479.166 284.262 479.883 285.948C480.457 287.212 481.03 288.055 484.614 293.253C486.048 295.219 487.195 296.905 488.055 298.169C488.485 295.641 489.058 291.848 489.489 287.353C489.919 282.717 490.062 277.098 489.202 263.472C488.772 256.589 488.485 250.97 487.625 242.682C485.904 226.668 484.471 221.189 483.037 210.654C481.03 194.921 480.17 185.649 481.604 173.99C481.89 171.181 482.607 167.107 483.181 160.224C483.897 151.795 483.754 149.407 484.327 142.524C485.188 130.864 485.618 124.965 487.912 118.081C490.205 110.777 492.643 103.332 499.667 100.101C504.112 97.9935 508.556 98.4149 509.273 98.5554C514.864 99.2578 518.448 102.489 519.452 103.472C522.606 106.422 523.896 109.653 524.613 111.9C526.046 115.974 526.476 119.767 526.046 127.353C525.473 136.343 524.613 137.888 524.039 144.771C523.179 154.324 524.039 161.769 524.613 166.124C525.616 174.131 526.476 174.692 529.057 187.757C530.204 193.656 530.921 198.573 532.354 208.406C533.358 215.43 534.648 224.561 535.938 235.518C537.515 235.518 539.092 235.377 540.669 235.377C539.809 229.899 538.519 222.173 537.085 212.621C534.792 197.59 533.645 190.004 533.071 180.592C532.211 167.809 531.781 159.943 533.645 151.795C534.075 150.109 534.935 146.457 535.508 141.26C536.225 135.36 535.652 134.798 536.225 129.179C537.085 120.048 539.379 114.289 539.953 112.743C541.53 108.81 542.533 106.281 545.114 103.753C546.404 102.348 549.988 98.9768 555.723 98.134C561.314 97.4316 565.615 99.6792 566.905 100.522C571.493 103.051 573.643 106.843 574.36 108.248C575.937 111.058 576.224 113.446 576.797 116.817C577.514 121.874 577.371 125.807 577.227 127.212C576.941 133.814 577.371 140.417 577.371 146.879C577.227 159.24 578.804 170.338 580.955 185.93C582.245 195.764 584.252 207.704 587.263 221.189C589.7 222.032 592.28 222.875 594.718 223.718C596.295 219.785 598.302 213.885 599.449 206.58C600.452 199.697 600.309 194.499 599.879 185.649C599.305 173.288 597.872 164.016 597.442 161.769C595.865 151.936 594.718 145.333 591.85 136.624C590.56 132.691 588.696 127.774 587.836 120.61C587.263 115.272 587.549 111.76 588.84 108.529C589.7 106.281 590.99 102.91 594.431 100.803C600.596 97.1506 608.337 101.084 609.054 101.505C612.208 103.191 613.785 105.439 617.082 109.793C620.953 114.991 623.247 119.627 623.964 121.172C625.828 124.965 626.401 126.931 630.989 142.243C634.573 154.043 636.437 159.943 637.01 161.347C637.727 162.893 639.017 165.843 640.021 170.057C641.024 174.131 641.168 177.221 641.168 179.047C641.598 191.83 641.741 198.292 641.598 202.787C641.311 211.216 640.594 222.594 638.874 236.642C639.734 236.782 640.881 237.063 642.314 237.063C643.748 237.063 645.468 236.923 647.189 236.22C649.483 235.377 651.06 234.113 653.353 231.865C658.371 226.949 661.238 222.173 661.525 221.751C663.962 217.818 667.977 212.34 674.285 205.878C676.292 201.523 678.586 196.887 681.166 192.111C684.033 186.773 687.044 181.857 689.911 177.361C689.911 175.957 689.911 173.85 690.055 171.181C690.341 163.174 690.341 159.24 690.915 156.431C691.632 153.2 693.065 145.895 699.23 140.979C701.094 139.433 706.398 135.079 713.566 136.062C719.874 136.905 723.602 141.4 724.462 142.664C724.605 146.457 724.605 150.39 724.749 154.324C724.892 161.066 724.892 167.809 724.749 174.412C724.462 176.238 724.175 178.064 723.889 179.89C720.878 193.516 713.423 215.149 708.405 226.949C705.538 233.692 700.664 244.227 694.929 253.499C693.209 256.168 691.918 258.275 691.918 258.275C686.614 266.141 684.32 268.108 681.309 273.024C678.299 277.941 676.722 282.296 676.148 284.122C672.994 293.815 675.432 296.624 671.991 305.334C671.417 306.879 670.27 309.407 669.554 313.2C668.98 316.431 668.98 318.819 668.98 320.364C668.98 331.181 669.697 336.659 669.697 344.807C669.697 346.633 669.554 349.162 669.267 354.219C668.693 363.63 668.407 368.407 667.69 373.885C666.543 382.454 665.683 382.173 665.109 388.775C664.679 393.411 664.249 398.047 665.396 403.947C666.113 407.599 667.546 413.218 671.704 419.68C618.229 419.399 565.328 419.258 512.283 419.258Z" fill="#697695"/>
<path d="M512.283 419.258C501.388 408.582 492.069 399.592 484.471 392.287C473.432 381.611 467.841 376.273 466.407 375.009C458.952 368.828 453.934 366.018 448.343 358.573C446.336 356.045 443.469 352.252 441.462 346.493C439.598 341.435 439.311 337.783 438.594 328.793C437.734 318.819 437.304 313.762 436.874 309.267C435.584 297.046 434.724 290.162 432.143 281.172C430.853 276.958 429.849 274.289 428.989 269.091C428.272 264.877 427.412 259.82 428.559 253.779C429.132 250.83 429.706 249.987 431.283 244.649C433.003 238.889 434.15 234.113 434.867 231.023C434.007 228.494 433.003 224.982 432 220.628C431.139 217.256 430.566 214.868 430.136 211.778C429.706 208.687 429.276 204.192 429.419 198.714C430.566 198.433 431.569 198.011 432.716 197.73C433.863 197.309 435.727 196.606 438.021 196.185C439.885 195.904 446.193 194.78 451.354 198.011C452.501 198.714 452.787 199.275 455.511 202.366C462.679 210.654 462.536 209.811 464.113 212.059C468.988 218.661 470.564 225.263 471.425 229.056C472.715 234.535 472.715 238.889 472.858 243.806C472.858 248.582 472.572 252.515 472.285 255.465C471.855 256.449 471.425 257.572 470.851 258.556C471.281 259.398 471.711 260.241 472.141 261.084C473.002 262.208 473.862 263.472 474.722 264.877C477.589 269.794 478.163 274.57 478.306 277.66C478.306 281.593 479.166 284.262 479.883 285.948C480.457 287.212 481.03 288.055 484.614 293.253C486.048 295.219 487.195 296.905 488.055 298.169C488.485 295.641 489.058 291.848 489.489 287.353C489.919 282.717 490.062 277.098 489.202 263.472C488.772 256.589 488.485 250.97 487.625 242.682C485.904 226.668 484.471 221.189 483.037 210.654C481.03 194.921 480.17 185.649 481.604 173.99C481.89 171.181 482.607 167.107 483.181 160.224C483.897 151.795 483.754 149.407 484.327 142.524C485.188 130.864 485.618 124.965 487.912 118.081C490.205 110.777 492.643 103.332 499.667 100.101C504.112 97.9935 508.556 98.4149 509.273 98.5554C514.864 99.2578 518.448 102.489 519.452 103.472C522.606 106.422 523.896 109.653 524.613 111.9C526.046 115.974 526.476 119.767 526.046 127.353C525.473 136.343 524.613 137.888 524.039 144.771C523.179 154.324 524.039 161.769 524.613 166.124C525.616 174.131 526.476 174.692 529.057 187.757C530.204 193.656 530.921 198.573 532.354 208.406C533.358 215.43 534.648 224.561 535.938 235.518C537.515 235.518 539.092 235.377 540.669 235.377C539.809 229.899 538.519 222.173 537.085 212.621C534.792 197.59 533.645 190.004 533.071 180.592C532.211 167.809 531.781 159.943 533.645 151.795C534.075 150.109 534.935 146.457 535.508 141.26C536.225 135.36 535.652 134.798 536.225 129.179C537.085 120.048 539.379 114.289 539.953 112.743C541.53 108.81 542.533 106.281 545.114 103.753C546.404 102.348 549.988 98.9768 555.723 98.134C561.314 97.4316 565.615 99.6792 566.905 100.522C571.493 103.051 573.643 106.843 574.36 108.248C575.937 111.058 576.224 113.446 576.797 116.817C577.514 121.874 577.371 125.807 577.227 127.212C576.941 133.814 577.371 140.417 577.371 146.879C577.227 159.24 578.804 170.338 580.955 185.93C582.245 195.764 584.252 207.704 587.263 221.189C589.7 222.032 592.28 222.875 594.718 223.718C596.295 219.785 598.302 213.885 599.449 206.58C600.452 199.697 600.309 194.499 599.879 185.649C599.305 173.288 597.872 164.016 597.442 161.769C595.865 151.936 594.718 145.333 591.85 136.624C590.56 132.691 588.696 127.774 587.836 120.61C587.263 115.272 587.549 111.76 588.84 108.529C589.7 106.281 590.99 102.91 594.431 100.803C600.596 97.1506 608.337 101.084 609.054 101.505C612.208 103.191 613.785 105.439 617.082 109.793C620.953 114.991 623.247 119.627 623.964 121.172C625.828 124.965 626.401 126.931 630.989 142.243C634.573 154.043 636.436 159.943 637.01 161.347C637.727 162.893 639.017 165.843 640.021 170.057C641.024 174.131 641.168 177.221 641.168 179.047C641.598 191.83 641.741 198.292 641.598 202.787C641.311 211.216 640.594 222.594 638.874 236.642C639.734 236.782 640.881 237.063 642.314 237.063" stroke="#445272" stroke-width="2" stroke-miterlimit="10"/>
<path d="M681.167 272.744C678.156 277.661 676.579 282.015 676.006 283.842C672.852 293.534 675.289 296.344 671.848 305.053C671.275 306.598 670.128 309.127 669.411 312.92C668.838 316.151 668.838 318.539 668.838 320.084C668.838 330.901 669.554 336.379 669.554 344.527C669.554 346.353 669.411 348.881 669.124 353.938C668.551 363.35 668.264 368.126 667.547 373.605C666.4 382.174 665.54 381.893 664.967 388.495C664.537 393.131 664.107 397.766 665.254 403.666C665.97 407.319 667.404 412.937 671.562 419.399" stroke="#445272" stroke-width="2" stroke-miterlimit="10"/>
<path d="M642.458 236.783C643.892 236.783 645.612 236.642 647.332 235.94C649.626 235.097 651.203 233.833 653.497 231.585C658.515 226.669 661.382 221.892 661.669 221.471C664.106 217.538 668.12 212.059 674.428 205.597C676.435 201.243 678.729 196.607 681.31 191.831C684.177 186.493 687.188 181.576 690.055 177.081C690.055 175.676 690.055 173.569 690.198 170.9C690.485 162.893 690.485 158.96 691.058 156.15C691.775 152.92 693.209 145.615 699.373 140.698C701.237 139.153 706.542 134.798 713.71 135.782C720.018 136.625 723.745 141.12 724.606 142.384C724.749 146.177 724.749 150.11 724.892 154.043C725.036 160.786 725.036 167.529 724.892 174.131C724.606 175.957 724.319 177.783 724.032 179.61C721.021 193.236 713.567 214.869 708.549 226.669C705.681 233.411 700.807 243.947 695.073 253.218C693.352 255.887 692.062 257.994 692.062 257.994C686.757 265.861 684.464 267.828 681.453 272.744" stroke="#BA6DCD" stroke-width="3" stroke-miterlimit="10" stroke-linecap="round"/>
<g opacity="0.5">
<path d="M708.119 141.119C708.119 143.507 708.119 146.036 708.119 148.424C708.262 150.812 708.405 153.2 708.835 155.588C708.979 156.15 709.122 156.712 709.266 157.274C709.409 157.836 709.552 158.257 709.982 158.678C710.699 159.521 711.703 160.083 712.706 160.645C714.857 161.769 717.151 162.471 719.588 162.752C717.151 163.033 714.57 162.612 712.133 161.628C710.986 161.207 709.839 160.505 708.835 159.521C708.405 159.1 707.975 158.257 707.832 157.695C707.689 157.133 707.545 156.431 707.402 155.869C706.972 153.481 706.828 150.952 706.972 148.564C707.115 145.895 707.545 143.367 708.119 141.119Z" fill="#B1BBD0"/>
</g>
<g opacity="0.5">
<path d="M439.024 228.214C440.027 227.371 440.601 226.388 440.887 225.264C441.174 224.14 441.174 223.016 441.174 221.893C441.174 220.769 441.031 219.505 440.887 218.381L440.6 214.869C440.457 212.481 440.314 210.093 439.74 207.845C439.454 206.721 439.167 205.598 438.593 204.474C438.163 203.491 437.447 202.507 436.156 201.945C437.447 202.086 438.45 203.069 439.167 204.052C439.884 205.176 440.314 206.3 440.744 207.424C441.461 209.812 441.747 212.2 441.891 214.588C442.034 216.976 442.321 219.364 442.178 221.893C442.178 223.157 441.891 224.421 441.461 225.545C441.031 226.669 440.17 227.652 439.024 228.214Z" fill="#B1BBD0"/>
</g>
<path opacity="0.33" d="M418.44 189.301C413.846 184.42 399.059 190.019 398.485 190.162C398.772 189.444 406.668 166.905 412.411 157.142C418.297 147.236 428.777 126.563 423.609 106.177C418.44 85.7906 400.926 95.5531 394.752 102.875C388.579 110.197 380.826 133.741 376.663 140.202C372.5 146.662 355.99 168.34 346.945 181.548C337.901 194.756 325.985 216.435 322.683 218.732C319.237 221.029 309.762 220.598 307.896 214.138C306.029 207.677 305.599 198.92 309.475 187.147C313.351 175.519 316.94 163.029 316.653 161.736C316.366 160.444 325.985 158.434 333.019 140.202C342.208 128.286 343.5 107.9 337.326 105.89C337.039 101.296 322.108 88.2312 309.475 105.315C307.608 107.182 304.594 111.776 304.594 111.776C304.594 111.776 303.732 103.593 299.999 99.2857C296.267 94.9788 281.192 94.4045 276.742 103.593C270.425 104.598 259.514 114.504 258.222 116.37C256.643 111.919 252.049 108.905 249.608 107.038C247.742 102.731 241.999 101.009 239.415 102.013C236.831 103.018 231.232 111.202 229.509 114.934C225.92 117.518 214.578 132.449 207.544 146.088C200.509 159.727 197.064 171.93 194.91 174.657C192.757 177.385 188.737 182.41 185.148 208.826C181.558 235.242 183.856 245.865 178.544 260.94C173.232 276.014 175.672 295.97 176.103 312.91C176.534 329.707 177.395 356.123 175.098 370.767C172.945 385.41 163.9 416.133 155.143 428.193H310.049C316.509 421.302 332.732 405.94 338.762 400.485C344.792 394.886 367.906 363.014 378.529 353.252C389.153 343.49 395.614 336.168 397.48 312.48C399.346 288.791 407.242 282.905 409.97 268.979C414.134 259.217 414.564 248.45 413.129 236.677C411.693 224.905 414.277 223.756 412.554 222.608C413.703 218.157 420.594 202.509 418.44 189.301ZM366.901 253.762C366.326 257.925 363.742 264.96 362.737 267.544C361.732 270.128 357.425 273.861 359.148 279.172L354.554 282.331C354.554 276.014 360.871 245.004 368.049 246.009C375.084 247.158 367.475 249.598 366.901 253.762Z" fill="#697695"/>
<path d="M309.906 428.335C316.367 421.444 332.59 406.083 338.619 400.627C344.649 395.028 367.763 363.157 378.387 353.395C389.011 343.632 395.471 336.31 397.337 312.622C399.204 288.934 407.1 283.048 409.828 269.122C413.991 259.36 414.278 248.592 412.986 236.82C411.55 225.048 414.135 223.899 412.412 222.751C413.704 218.156 420.595 202.651 418.298 189.443C413.56 184.562 398.342 190.305 398.342 190.305C398.342 190.305 406.382 167.191 412.268 157.285C418.154 147.379 428.635 126.706 423.466 106.319C418.298 85.9332 400.783 95.6956 394.61 103.017C388.436 110.196 380.684 133.74 376.521 140.344C372.357 146.948 355.847 168.483 346.803 181.691C337.758 194.899 325.842 216.577 322.54 219.018C319.238 221.315 309.619 220.884 307.753 214.424C305.887 207.963 305.456 199.206 309.332 187.577C313.208 175.948 316.798 163.458 316.51 162.166C316.223 160.874 325.842 158.864 332.877 140.631C342.065 128.716 343.357 108.329 337.184 106.319C336.897 101.725 321.966 88.661 309.332 105.745C307.466 107.612 304.451 112.062 304.451 112.062C304.451 112.062 303.59 104.022 299.857 99.5719C296.124 95.2649 281.05 94.6907 276.599 103.879C270.283 104.884 259.372 114.79 258.08 116.656C256.5 112.206 251.906 109.191 249.466 107.324C247.599 103.017 241.857 101.295 239.273 102.3C236.688 103.305 231.233 111.488 229.367 115.22C225.777 117.805 214.436 132.735 207.401 146.374C200.366 160.013 196.921 172.216 194.767 174.943C192.614 177.671 188.594 182.696 185.005 209.112C181.272 235.528 183.713 246.152 178.401 261.226C173.089 276.3 175.53 296.256 175.96 313.196C176.391 329.993 177.253 356.409 174.956 371.053C172.802 385.697 163.757 416.419 155 428.479" stroke="#445272" stroke-width="2" stroke-miterlimit="10"/>
<path d="M204.1 231.941C206.11 216.005 208.837 170.639 213.575 158.292C218.313 145.945 225.204 147.955 235.54 136.327C245.877 124.698 249.753 129.005 258.224 116.371" stroke="#445272" stroke-width="2" stroke-miterlimit="10"/>
<path d="M246.882 223.756C250.758 212.989 257.362 177.385 259.659 165.756C261.956 154.127 267.555 139.053 279.184 134.459C287.654 127.568 294.689 124.122 297.704 122.973C298.996 119.384 304.595 111.775 304.595 111.775" stroke="#445272" stroke-width="2" stroke-miterlimit="10"/>
<g opacity="0.5">
<path d="M413.992 190.162C412.7 191.167 411.408 192.172 410.116 193.321C408.967 194.469 407.819 195.618 406.957 197.053C405.091 199.637 403.655 202.652 402.938 205.811C402.22 208.969 402.22 212.271 403.225 215.286C404.23 218.301 406.24 221.029 409.111 222.751C407.532 222.177 406.24 221.172 404.948 219.88C403.799 218.588 402.794 217.152 402.22 215.573C401.502 213.994 401.215 212.271 401.071 210.548C401.071 208.826 401.071 207.103 401.502 205.38C402.22 202.078 403.799 198.92 405.952 196.335C408.25 193.751 410.977 191.598 413.992 190.162Z" fill="#B1BBD0"/>
</g>
<g opacity="0.5">
<path d="M421.169 109.912C420.021 112.926 418.011 115.798 415.283 117.808C413.848 118.813 412.268 119.53 410.546 119.818C408.823 120.105 407.1 119.961 405.377 119.53C402.075 118.525 399.06 116.516 397.625 113.357C396.907 111.778 396.62 110.055 396.763 108.332C396.907 106.61 397.625 105.03 398.486 103.738C397.194 106.753 397.051 110.199 398.63 112.783C400.209 115.511 402.937 117.233 405.808 118.095C408.823 119.1 411.981 118.525 414.565 116.946C415.858 116.085 417.15 115.08 418.155 113.931C419.303 112.639 420.308 111.347 421.169 109.912Z" fill="#B1BBD0"/>
</g>
<path d="M354.412 282.474C354.412 274.721 360.729 245.147 367.907 246.152C375.085 247.157 367.333 249.598 366.902 253.761C366.328 258.068 363.744 264.959 362.739 267.543C361.734 270.127 358.288 273.286 359.15 279.172L354.412 282.474Z" stroke="#445272" stroke-width="2" stroke-miterlimit="10"/>
<path d="M364.03 248.737C369.055 241.558 394.322 201.073 398.342 190.162C402.362 179.251 406.382 167.048 412.268 157.142C418.154 147.236 428.634 126.563 423.466 106.177C418.298 85.7906 400.783 95.5531 394.61 102.875C388.436 110.053 380.684 133.598 376.52 140.202C372.357 146.806 355.847 168.34 346.803 181.548C337.758 194.756 325.842 216.435 322.54 218.875" stroke="#BA6DCD" stroke-width="3" stroke-miterlimit="10" stroke-linecap="round"/>
</svg>
