<svg width="900" height="500" viewBox="0 0 900 500" fill="none" xmlns="http://www.w3.org/2000/svg">
<path opacity="0.33" d="M350.977 429.161C356.313 422.383 372.176 398.876 377.224 391.088C382.271 383.301 393.664 356.765 398.423 350.708C403.182 344.651 408.951 337.008 406.355 319.125C403.904 301.243 401.74 295.042 403.183 269.516C404.625 243.99 400.154 238.942 394.241 226.684C393.087 219.329 391.213 217.31 388.473 215.147C388.905 210.099 391.501 190.053 393.087 179.814C394.818 169.575 391.357 172.748 393.087 150.971C394.818 129.195 388.905 113.764 385.156 109.293C384.579 104.967 380.397 100.063 372.753 98.4771C365.254 96.7465 358.332 103.669 358.332 106.697C355.88 107.563 348.093 118.234 351.986 153.134C343.478 173.469 338.142 194.38 336.988 201.446C335.69 208.513 329.921 240.384 327.614 239.086C325.307 237.788 334.536 207.359 337.276 188.467C340.016 169.575 342.901 156.451 344.631 147.51C346.362 138.569 346.506 109.293 336.7 105.688C334.392 98.3329 327.326 96.4581 320.836 96.0254C314.346 95.5928 308.866 100.784 308.722 103.813C305.838 104.823 302.809 118.811 304.107 138.28C297.617 145.203 288.82 167.123 279.014 215.291C279.014 215.291 282.186 168.421 288.243 149.241C294.445 130.06 298.915 122.561 295.31 111.889C297.041 106.842 292.281 103.092 285.792 101.073C279.302 99.0539 271.947 102.515 270.505 106.553C265.313 107.418 256.66 122.849 252.911 135.108C245.989 147.366 237.768 168.998 234.596 181.256C231.423 193.514 229.981 238.365 228.106 241.394C226.231 244.422 222.914 244.711 220.318 241.826C217.723 238.942 217.001 238.077 216.28 232.741C215.559 227.261 214.261 217.743 212.675 210.676C211.233 203.609 209.502 189.621 210.079 184.429C210.656 179.237 217.29 170.007 216.569 157.893C215.848 145.779 208.204 141.165 206.185 139.578C204.166 138.136 201.859 134.675 194.937 136.55C188.014 138.425 184.697 154.288 184.697 154.288C184.697 154.288 175.9 171.45 174.458 175.343C173.016 179.237 173.304 183.996 171.862 190.342C170.42 196.687 172.295 203.033 170.132 209.378C168.113 215.724 168.978 226.107 171.285 234.76C173.593 243.413 171.862 243.845 173.737 250.479C175.612 256.969 179.361 265.91 180.659 272.111C181.957 278.313 181.525 292.013 182.39 302.685C183.255 313.357 188.159 319.27 189.456 333.258C190.754 347.247 193.494 386.185 195.369 397.434C197.244 408.683 198.398 412.144 192.773 429.45H350.977V429.161Z" fill="#445272"/>
<path d="M350.977 429.161C356.313 422.383 372.176 398.876 377.224 391.088C382.271 383.301 393.664 356.765 398.423 350.708C403.182 344.651 408.951 337.008 406.355 319.125C403.904 301.243 401.74 295.042 403.183 269.516C404.625 243.99 400.154 238.942 394.241 226.684C393.087 219.329 391.213 217.31 388.473 215.147C388.905 210.099 391.501 190.053 393.087 179.814C394.818 169.575 391.357 172.748 393.087 150.971C394.818 129.195 388.905 113.764 385.156 109.293C384.579 104.967 380.397 100.063 372.753 98.4771C365.254 96.7465 358.332 103.669 358.332 106.697C355.88 107.563 348.093 118.234 351.986 153.134C343.478 173.469 338.142 194.38 336.988 201.446C335.69 208.513 329.921 240.384 327.614 239.086C325.307 237.788 334.536 207.359 337.276 188.467C340.016 169.575 342.901 156.451 344.631 147.51C346.362 138.569 346.506 109.293 336.7 105.688C334.392 98.3329 327.326 96.4581 320.836 96.0254C314.346 95.5928 308.866 100.784 308.722 103.813C305.838 104.823 302.809 118.811 304.107 138.28C297.617 145.203 288.82 167.123 279.014 215.291C279.014 215.291 282.186 168.421 288.243 149.241C294.445 130.06 298.915 122.561 295.31 111.889C297.041 106.842 292.281 103.092 285.792 101.073C279.302 99.0539 271.947 102.515 270.505 106.553C265.313 107.418 256.66 122.849 252.911 135.108C245.989 147.366 237.768 168.998 234.596 181.256C231.423 193.514 229.981 238.365 228.106 241.394C226.231 244.422 222.914 244.711 220.318 241.826C217.723 238.942 217.001 238.077 216.28 232.741C215.559 227.261 214.261 217.743 212.675 210.676C211.233 203.609 209.502 189.621 210.079 184.429C210.656 179.237 217.29 170.007 216.569 157.893C215.848 145.779 208.204 141.165 206.185 139.578C204.166 138.136 201.859 134.675 194.937 136.55C188.014 138.425 184.697 154.288 184.697 154.288C184.697 154.288 175.9 171.45 174.458 175.343C173.016 179.237 173.304 183.996 171.862 190.342C170.42 196.687 172.295 203.033 170.132 209.378C168.113 215.724 168.978 226.107 171.285 234.76C173.593 243.413 171.862 243.845 173.737 250.479C175.612 256.969 179.361 265.91 180.659 272.111C181.957 278.313 181.525 292.013 182.39 302.685C183.255 313.357 188.159 319.27 189.456 333.258C190.754 347.247 193.494 386.185 195.369 397.434C197.244 408.683 198.398 412.144 192.773 429.45" stroke="#697695" stroke-width="2" stroke-miterlimit="10"/>
<path d="M220.462 241.539C217.866 238.511 217.145 237.789 216.424 232.454C215.703 226.973 214.405 217.455 212.819 210.389C211.376 203.322 209.646 189.333 210.223 184.142C210.8 178.95 217.433 169.72 216.712 157.606C215.991 145.492 208.348 140.877 206.329 139.291C204.31 137.849 202.002 134.388 195.08 136.262C188.158 138.137 184.841 154.001 184.841 154.001C184.841 154.001 176.044 171.162 174.602 175.056C173.16 178.95 173.448 183.709 172.006 190.054C170.564 196.4 172.438 202.745 170.275 209.091C168.256 215.436 169.122 225.82 171.429 234.473C173.736 243.125 172.006 243.558 173.881 250.192C175.755 256.682 179.505 265.623 180.803 271.824" stroke="#BA6DCD" stroke-width="3" stroke-miterlimit="10" stroke-linecap="round"/>
<g opacity="0.5">
<path d="M188.159 155.298C189.89 154.865 191.765 154.865 193.495 154.433C195.226 154 196.668 153.279 197.966 152.125C199.264 151.116 200.562 149.818 201.715 148.376C202.292 147.655 202.869 146.933 203.446 146.357C204.023 145.636 204.455 144.914 205.176 144.193C204.888 145.059 204.455 145.924 204.023 146.789C203.59 147.655 203.157 148.376 202.581 149.241C201.571 150.827 200.273 152.269 198.831 153.423C197.389 154.577 195.514 155.442 193.639 155.586C191.765 155.875 190.034 155.298 188.159 155.298Z" fill="#B1BBD0"/>
</g>
<path d="M378.81 291.581C378.522 280.909 377.079 261.007 378.81 249.037C380.541 237.212 388.617 215.291 388.617 215.291" stroke="#697695" stroke-width="2" stroke-miterlimit="10"/>
<path d="M271.658 238.798C274.687 232.164 278.436 222.79 279.013 215.146Z" fill="#445272"/>
<path d="M271.658 238.798C274.687 232.164 278.436 222.79 279.013 215.146" stroke="#697695" stroke-width="2" stroke-miterlimit="10"/>
<path opacity="0.33" d="M536.947 429.831C534.691 426.165 530.884 420.243 525.668 413.617C519.323 405.721 516.644 403.889 510.018 395.993C503.673 388.38 499.585 382.035 495.355 375.409C487.319 362.861 488.447 362.297 480.692 350.736C477.308 345.66 475.193 342.84 468.426 332.83C463.491 325.357 461.518 322.115 459.826 317.321C459.262 315.629 458.275 312.527 457.147 302.94C456.301 295.468 456.865 288.418 455.596 281.087C455.173 278.69 454.75 276.857 454.468 275.87C453.622 272.768 452.917 271.218 452.071 268.962C451.366 266.988 449.251 261.489 448.546 254.722C448.265 252.748 448.124 250.21 448.265 247.39C447.419 245.839 446.573 244.289 445.868 242.738C445.445 241.187 445.163 239.354 445.022 237.239C444.881 233.432 445.445 230.19 446.15 228.075C448.687 223.845 451.084 219.474 453.622 215.245C457.006 210.028 460.39 204.953 463.773 199.736C464.055 198.467 464.478 196.493 464.901 194.096C466.311 186.201 466.593 183.945 467.58 179.997C468.849 175.204 469.272 172.807 470.682 170.692C472.938 167.449 476.039 165.757 478.154 165.052C477.872 162.233 477.59 157.721 477.167 152.222C475.616 131.497 476.039 132.061 475.053 121.064C475.053 120.923 474.066 110.208 473.22 96.3907C472.938 92.161 472.797 89.0592 473.502 84.8295C474.207 81.3048 475.334 74.6783 480.692 68.8977C482.807 66.5009 486.191 62.9762 491.689 62.1302C496.906 61.4253 501.136 63.6811 502.686 64.668C504.66 65.9369 505.788 67.2058 506.916 68.4747C507.762 69.3207 510.864 72.8454 513.261 79.1899C514.812 83.1377 515.234 86.2394 515.657 89.4822C516.644 95.9677 515.939 97.6596 516.926 106.965C517.208 109.926 517.349 111.477 517.772 113.591C518.759 119.09 520.31 123.038 522.566 128.395C525.95 136.573 527.219 139.533 528.347 142.494C531.448 150.108 532.858 155.606 535.678 166.039C537.511 172.807 539.485 181.407 541.318 191.559C542.163 191.418 542.868 191.136 543.714 190.995C544.137 189.162 544.56 187.188 544.983 185.355C544.701 178.165 544.701 170.551 545.265 162.797C545.265 161.81 545.406 160.964 545.547 159.977C544.983 158.144 544.56 156.593 544.278 155.465C542.868 149.967 543.15 142.776 543.009 141.507C542.727 139.956 541.74 139.251 540.895 137.983C540.19 136.996 539.485 135.445 539.485 133.048C538.357 131.779 537.088 130.087 535.96 127.831C535.819 127.69 534.127 124.166 533.704 120.782C532.717 113.168 538.498 106.26 539.485 105.132C539.908 104.286 540.613 103.017 541.741 101.889C546.111 97.3776 552.315 97.3776 554.007 97.3776C557.813 97.3776 560.774 98.5055 562.748 99.4924C565.568 99.6334 568.529 99.9154 571.63 100.197C576.424 100.62 581.077 101.325 585.306 102.03C587.28 101.607 590.523 101.184 594.33 102.03C600.815 103.44 604.763 107.529 606.173 109.08C608.006 109.785 614.209 113.309 615.196 114.014C617.311 114.578 619.567 115.283 621.963 116.27C626.193 117.962 629.577 120.077 632.115 122.051C633.525 122.474 634.935 122.756 636.344 123.179C636.344 121.487 636.203 118.949 636.344 115.847C636.485 112.463 636.485 110.772 636.767 109.503C638.036 104.427 641.279 101.325 642.407 100.338C643.958 98.9285 645.509 98.2235 646.496 97.6595C646.919 96.9546 647.624 95.9677 648.751 95.1218C651.571 93.1479 654.955 93.8528 656.083 93.9938C660.877 94.9808 663.414 98.7875 663.978 99.7744C664.965 101.184 664.965 101.748 666.657 106.119C667.785 108.939 668.772 111.336 669.477 112.745C672.579 117.539 674.553 121.769 675.821 125.012C677.372 129.1 679.91 140.097 681.32 147.006C683.999 159.554 687.524 174.358 687.101 186.06C686.678 195.788 685.127 203.684 682.307 217.219C681.461 221.307 680.474 225.678 680.051 231.881C679.628 237.239 679.91 241.187 679.91 243.161C680.192 252.325 679.487 260.502 677.936 276.716C676.526 291.52 675.539 294.199 675.117 305.76C674.835 312.668 675.257 311.822 674.976 317.885C674.412 332.407 672.438 335.368 671.592 348.762C670.887 358.49 671.31 365.962 671.592 370.615C671.874 375.127 672.297 384.009 674.271 393.314C675.962 401.915 679.769 415.168 689.074 430.395C638.459 429.831 587.703 429.831 536.947 429.831Z" fill="#445272"/>
<g opacity="0.5">
<path d="M467.581 199.314C469.132 198.609 470.542 197.763 471.811 196.776C472.939 195.789 473.785 194.379 474.631 192.969C476.181 190.15 476.886 186.907 478.014 183.664C478.014 185.356 477.873 187.048 477.591 188.74C477.309 190.432 476.745 192.123 475.899 193.674C475.053 195.225 474.067 196.776 472.516 197.763C470.965 198.609 469.273 199.173 467.581 199.314Z" fill="#B1BBD0"/>
</g>
<path d="M536.947 429.831C534.691 426.165 530.884 420.244 525.668 413.617C519.323 405.722 516.644 403.889 510.018 395.993C503.673 388.38 499.585 382.035 495.355 375.409C487.319 362.861 488.447 362.297 480.692 350.736C477.308 345.66 475.193 342.84 468.426 332.83C463.491 325.358 461.518 322.115 459.826 317.321C459.262 315.629 458.275 312.528 457.147 302.94C456.301 295.468 456.865 288.418 455.596 281.087C455.173 278.69 454.75 276.857 454.468 275.87C453.622 272.769 452.917 271.218 452.071 268.962C451.366 266.988 449.251 261.49 448.546 254.722C448.265 252.748 448.124 250.21 448.265 247.391C447.419 245.84 446.573 244.289 445.868 242.738C445.445 241.187 445.163 239.354 445.022 237.239C444.881 233.433 445.445 230.19 446.15 228.075C448.687 223.845 451.084 219.475 453.622 215.245C457.006 210.028 460.39 204.953 463.773 199.736C464.055 198.467 464.478 196.493 464.901 194.097C466.311 186.201 466.593 183.945 467.58 179.998C468.849 175.204 469.272 172.807 470.682 170.692C472.938 167.45 476.039 165.758 478.154 165.053" stroke="#697695" stroke-width="2" stroke-miterlimit="10"/>
<path d="M542.587 190.854C543.01 190.713 543.433 190.713 543.856 190.572C544.279 188.739 544.702 186.765 545.124 184.933C544.843 177.742 544.843 170.129 545.406 162.374C545.406 161.387 545.547 160.541 545.688 159.555C545.124 157.722 544.702 156.171 544.42 155.043C543.01 149.544 543.292 142.354 543.151 141.085C542.869 139.534 541.882 138.829 541.036 137.56C540.331 136.573 539.626 135.022 539.626 132.626C538.498 131.357 537.229 129.665 536.101 127.409C535.96 127.268 534.268 123.743 533.845 120.359C532.858 112.746 538.639 105.838 539.626 104.71C540.049 103.864 540.754 102.595 541.882 101.467C546.252 96.9552 552.456 96.9552 554.148 96.9552C557.955 96.9552 560.915 98.0831 562.889 99.0701C565.709 99.211 568.67 99.493 571.771 99.775C576.565 100.198 581.218 100.903 585.447 101.608C587.421 101.185 590.664 100.762 594.471 101.608C600.956 103.018 604.904 107.106 606.314 108.657C608.147 109.362 614.35 112.887 615.337 113.592C617.452 114.156 619.708 114.861 622.105 115.848C626.334 117.54 629.718 119.655 632.256 121.628C633.666 122.051 635.076 122.333 636.486 122.756C636.486 121.064 636.345 118.527 636.486 115.425C636.627 112.041 636.627 110.349 636.909 109.08C638.178 104.005 641.42 100.903 642.548 99.916C644.099 98.5061 645.65 97.8012 646.637 97.2372C647.06 96.5323 647.765 95.5453 648.893 94.6994C651.712 92.7255 655.096 93.4305 656.224 93.5715C661.018 94.5584 663.556 98.3651 664.12 99.3521C665.106 100.762 665.107 101.326 666.798 105.697C667.926 108.516 668.913 110.913 669.618 112.323C672.72 117.117 674.694 121.346 675.963 124.589C677.514 128.678 680.051 139.675 681.461 146.584C684.14 159.132 687.665 173.935 687.242 185.638C686.819 195.366 685.268 203.261 682.448 216.796C681.602 220.885 680.615 225.256 680.192 231.459C679.769 236.817 680.051 240.764 680.051 242.738C680.333 251.903 679.628 260.08 678.078 276.294C676.668 291.098 675.681 293.776 675.258 305.338C674.976 312.246 675.399 311.4 675.117 317.463C674.553 331.985 672.579 334.945 671.733 348.339C671.028 358.068 671.451 365.54 671.733 370.193C672.015 374.704 672.438 383.587 674.412 392.892C676.104 401.492 679.91 414.745 689.216 429.972" stroke="#697695" stroke-width="2" stroke-miterlimit="10"/>
<path d="M484.64 286.163C486.754 282.074 489.574 275.87 490.984 267.975C491.971 262.758 491.971 258.67 492.112 253.594C492.112 247.814 491.971 239.918 490.561 230.613C490.138 224.127 489.856 217.642 489.433 211.156" stroke="#697695" stroke-width="2" stroke-miterlimit="10"/>
<path d="M489.574 211.156C487.882 205.376 486.049 199.313 484.498 192.969C482.384 184.932 479.705 172.384 478.154 164.912C477.872 162.092 477.59 157.58 477.167 152.082C475.616 131.356 476.039 131.92 475.052 120.923C475.052 120.782 474.065 110.067 473.219 96.25C472.937 92.0203 472.796 88.9186 473.501 84.6889C474.206 81.1642 475.334 74.5377 480.692 68.7571C482.807 66.3603 486.19 62.8355 491.689 61.9896C496.906 61.2846 501.135 63.5405 502.686 64.5274C504.66 65.7963 505.788 67.0652 506.916 68.3341C507.762 69.1801 510.863 72.7048 513.26 79.0493C514.811 82.997 515.234 86.0988 515.657 89.3415C516.644 95.8271 515.939 97.5189 516.926 106.824C517.208 109.785 517.349 111.336 517.772 113.451C518.759 118.949 520.31 122.897 522.566 128.255C525.949 136.432 527.218 139.393 528.346 142.354C531.448 149.967 532.858 155.466 535.678 165.899C537.511 172.666 539.484 181.267 541.317 191.418C541.74 191.277 542.022 191.277 542.445 191.136" stroke="#BA6DCD" stroke-width="3" stroke-miterlimit="10" stroke-linecap="round"/>
<path d="M585.165 101.607C586.857 102.312 590.1 104.145 592.497 105.978C594.188 107.247 596.726 109.221 598.982 112.605C601.802 116.975 602.366 121.487 602.789 124.871C603.071 126.986 603.071 128.677 603.071 129.946C603.212 149.544 603.353 169.282 603.494 188.88C603.635 190.008 603.917 191.418 604.481 192.828C605.75 196.775 607.723 199.877 609.415 201.851" stroke="#697695" stroke-width="2" stroke-miterlimit="10"/>
<path d="M649.315 218.628C648.61 217.923 647.905 216.936 647.2 215.527C645.931 212.707 646.213 209.887 646.354 208.759C646.354 208.759 649.738 179.292 650.725 164.206C651.007 160.682 650.866 156.452 650.725 147.993C650.584 143.058 650.443 139.533 649.033 135.304C648.187 133.048 647.2 130.228 644.521 127.408C641.843 124.588 638.459 123.46 636.626 122.896" stroke="#697695" stroke-width="2" stroke-miterlimit="10"/>
<g opacity="0.5">
<path d="M481.961 72.9864C482.384 75.3832 482.807 77.7801 483.512 79.8949C483.935 80.8818 484.781 81.4458 485.909 81.7278C487.037 81.8688 488.164 81.8688 489.433 81.8688C494.227 81.7278 499.021 81.3048 503.814 81.0228H503.673C504.378 80.8818 504.801 80.1769 505.083 79.3309C505.365 78.485 505.506 77.6391 505.506 76.7931C505.506 75.9472 505.506 74.9603 505.506 74.1143C505.365 73.2684 505.365 72.2815 505.224 71.4355C505.506 72.2815 505.788 73.2684 505.929 74.1143C506.07 74.9603 506.211 75.9472 506.352 76.9341C506.352 77.9211 506.352 78.767 506.07 79.7539C505.788 80.7408 505.365 81.7278 504.237 82.2917H504.096C501.699 82.5737 499.303 82.8557 496.906 82.9967C494.509 83.1377 492.112 83.2786 489.715 83.2786C488.446 83.2786 487.319 83.2786 486.05 82.8557C485.486 82.7147 484.781 82.4327 484.217 82.0098C483.653 81.5868 483.23 80.8818 483.089 80.3179C482.807 79.049 482.666 77.9211 482.525 76.6522C481.961 75.3832 481.961 74.2553 481.961 72.9864Z" fill="#B1BBD0"/>
</g>
</svg>
