<svg width="850" height="500" viewBox="0 0 850 500" fill="none" xmlns="http://www.w3.org/2000/svg">
<path opacity="0.33" d="M690.561 451.479C683.41 436.416 678.389 422.419 676.411 391.38C674.433 360.342 678.237 357.908 676.411 333.412C674.585 308.916 672.759 314.242 674.585 295.832C676.259 277.422 666.217 253.535 666.065 244.558C665.913 235.581 666.673 204.847 663.935 190.393C661.196 175.939 654.806 166.658 650.241 141.858C645.677 117.058 628.332 100.93 617.225 104.582C606.119 108.234 604.293 119.797 605.662 124.057C600.793 114.472 597.598 108.842 594.555 105.191C591.512 101.539 582.688 97.2789 582.688 97.2789C582.688 97.2789 568.995 94.3881 563.669 106.712C559.257 107.625 559.257 117.21 559.409 119.797C558.344 114.015 556.366 105.799 554.693 103.213C552.867 100.626 549.367 96.5181 544.499 94.3881C539.63 92.258 527.154 93.0187 523.959 95.6052C520.764 98.1918 514.982 103.517 515.439 108.69C515.895 114.015 517.569 118.732 517.873 132.273C518.177 145.814 522.589 174.418 523.502 181.569C524.415 188.72 536.739 254.6 536.739 254.6C536.739 254.6 536.283 255.665 535.522 254.904C534.913 254.143 520.459 173.809 515.286 161.942C517.264 149.313 518.481 113.559 510.265 105.647C506.766 97.7353 485.465 91.4973 477.402 109.299C469.338 126.948 471.924 158.594 470.403 170.766C468.881 182.938 470.555 210.02 472.076 218.084C471.011 209.868 468.273 202.261 463.556 197.544C458.84 192.828 451.08 188.111 445.603 186.133C441.19 184.612 435.561 186.59 433.127 189.024C432.366 189.785 431.301 190.545 430.236 190.698C429.019 191.002 427.954 191.915 427.954 191.915C427.954 194.501 429.932 207.434 437.082 220.214C435.257 222.953 437.691 234.364 435.713 242.428C433.735 250.339 431.453 255.817 434.952 264.946C433.583 267.38 435.409 274.075 438.452 276.509C436.626 282.138 438.908 289.289 444.994 304.2C452.602 322.914 448.798 343.606 454.123 354.256C459.448 364.907 465.838 368.558 472.837 379.513C479.684 390.468 506.462 424.701 517.416 433.373C528.371 442.046 532.936 451.327 532.936 451.327H690.561V451.479Z" fill="#E0E1E2"/>
<path d="M690.561 451.48C683.41 436.417 678.389 422.419 676.411 391.381C674.433 360.343 678.237 357.909 676.411 333.413C674.585 308.917 672.759 314.242 674.585 295.832C676.259 277.423 666.217 253.535 666.065 244.559C665.913 235.582 666.673 204.848 663.935 190.394C661.196 175.94 657.088 165.29 650.241 141.859C642.634 115.69 628.332 100.931 617.225 104.583C606.119 108.234 604.293 119.798 605.662 124.058C600.793 114.472 597.598 108.843 594.555 105.191C592.273 102.453 586.035 97.7361 580.862 96.9754C577.058 96.3668 567.777 97.1275 563.669 106.561C559.714 107.93 559.257 117.059 559.409 119.645C558.344 113.864 556.366 105.648 554.693 103.061C552.867 100.475 549.367 96.3668 544.499 94.2367C539.63 92.1066 527.154 92.8674 523.959 95.4539C520.764 98.0404 514.982 103.366 515.439 108.539C515.895 113.864 517.569 118.58 517.873 132.121C518.177 145.663 522.589 174.266 523.502 181.417C524.415 188.568 536.739 254.448 536.739 254.448C536.739 254.448 536.283 255.513 535.522 254.753C534.913 253.992 520.459 173.658 515.286 161.79C517.264 149.162 518.481 113.407 510.265 105.496C506.766 97.5839 485.465 91.3459 477.402 109.147C469.338 126.796 471.924 158.443 470.403 170.615C468.881 182.787 470.555 209.869 472.076 217.933C471.011 209.717 468.273 202.109 463.556 197.393C458.84 192.676 451.08 187.96 445.603 185.982C441.19 184.46 435.561 186.438 433.127 189.025C432.214 189.938 430.997 190.851 429.627 191.003C428.562 191.155 427.954 191.459 427.954 191.459C427.954 193.893 429.627 205.609 435.561 217.324C436.322 218.846 436.778 220.519 436.474 222.193C435.865 226.605 437.387 235.734 435.713 242.276C433.735 250.188 431.453 255.665 434.952 264.794C435.257 269.663 436.778 274.532 438.452 276.358C437.995 282.9 438.908 289.138 444.994 304.048C452.602 322.763 448.798 343.455 454.123 354.105C459.448 364.755 465.838 368.407 472.837 379.362C479.684 390.316 506.462 424.549 517.416 433.222C528.371 441.894 532.936 451.175 532.936 451.175" stroke="#808285" stroke-width="2" stroke-miterlimit="10"/>
<path d="M477.249 346.65C477.705 338.89 481.205 325.653 481.509 320.937C481.965 316.22 480.596 322.915 480.292 302.527C480.14 281.987 478.314 249.732 474.967 235.278C471.619 220.824 472.532 217.933 471.011 212.76" stroke="#808285" stroke-width="2" stroke-miterlimit="10"/>
<path d="M588.773 241.363C585.426 236.342 581.622 227.518 581.166 204.087C580.709 180.656 573.71 175.027 573.254 158.899C572.798 142.771 561.234 137.598 559.256 119.949" stroke="#808285" stroke-width="2" stroke-miterlimit="10"/>
<path d="M629.853 235.582C630.005 229.8 630.158 200.588 627.115 183.091C624.072 165.594 621.029 158.9 617.377 151.14C613.573 143.228 607.183 131.209 605.357 124.21" stroke="#808285" stroke-width="2" stroke-miterlimit="10"/>
<g opacity="0.5">
<path d="M436.474 192.829C437.843 193.133 439.06 193.894 440.277 194.807C441.342 195.872 442.103 197.089 442.56 198.459C443.32 201.197 444.081 203.784 444.537 206.675C444.994 209.413 445.45 212.304 445.146 215.195C445.146 215.956 444.842 216.716 444.69 217.325C444.385 218.086 443.929 218.694 443.32 219.151C442.103 220.216 440.582 220.368 439.212 219.911C440.582 220.064 441.951 219.607 442.864 218.542C443.777 217.629 443.929 216.26 443.929 214.891C443.929 212.152 443.472 209.413 443.016 206.827C442.56 204.088 441.951 201.349 441.342 198.763C440.886 196.328 439.06 194.046 436.474 192.829Z" fill="#AEB0B2"/>
</g>
<path opacity="0.33" d="M317.494 452.999C321.602 445.848 345.185 404.768 368.768 387.879C392.351 370.991 393.72 365.362 406.805 356.841C419.889 348.473 429.018 341.018 430.083 313.023C431.148 285.028 438.908 267.226 437.539 262.814C438.908 260.228 439.517 247.447 438.451 245.926C439.06 244.1 439.212 236.797 438.299 229.798C437.386 222.799 438.908 215.953 437.691 213.67C437.995 210.019 446.82 185.675 444.842 176.394C434.343 168.026 418.064 177.155 408.022 190.24C397.98 203.324 388.851 225.842 393.568 242.578C388.395 246.078 388.243 258.402 386.417 264.944C384.591 271.486 382.461 277.268 383.83 278.333C381.396 278.942 375.31 288.831 373.941 292.787C370.898 290.505 347.619 285.636 336.208 289.896C337.273 279.702 335.6 255.815 353.401 209.714C371.202 163.614 373.941 149.312 373.18 135.923C372.267 122.534 370.289 115.383 364.051 109.449C357.813 103.515 345.489 103.059 341.381 113.709C335.143 118.578 334.078 144.595 333.165 147.03C328.753 144.747 324.645 143.074 317.798 142.617C310.952 142.161 305.779 147.486 304.714 147.486C303.649 147.486 298.171 144.291 292.694 144.595C287.217 144.747 281.283 140.183 273.523 140.335C281.131 136.075 295.28 120.708 289.195 110.666C291.477 101.081 276.11 100.472 271.85 102.146C267.59 103.82 260.439 109.601 258.461 112.492C255.57 111.884 249.94 110.971 232.596 125.729C228.335 116.904 221.489 111.884 215.555 110.21C209.621 108.536 202.166 108.688 201.253 113.709C200.34 118.73 201.557 128.011 197.297 140.183C193.037 152.507 191.82 156.463 189.081 165.592C186.495 174.721 186.038 185.371 183.452 193.283C180.865 201.194 180.561 210.627 180.561 210.627C180.561 210.627 174.019 212.757 170.215 226.907C166.411 241.057 169.15 245.774 162.608 261.293C156.065 276.812 152.87 285.18 152.566 298.112C152.262 311.045 166.411 332.193 168.237 337.975C170.063 343.757 178.279 373.425 180.257 376.468C182.235 379.511 189.081 393.205 180.865 421.808C172.649 450.26 169.302 452.999 169.302 452.999H317.494V452.999Z" fill="#E0E1E2"/>
<path d="M317.494 453C321.602 445.85 345.185 404.77 368.768 387.881C392.351 370.993 393.72 365.363 406.805 356.843C419.889 348.475 429.018 341.02 430.083 313.025C431.148 285.029 438.908 267.228 437.539 262.816C438.908 260.229 439.517 247.449 438.451 245.927C439.06 244.102 439.212 236.799 438.299 229.8C437.386 222.801 438.908 215.954 437.691 213.672C437.995 210.021 446.82 185.677 444.842 176.396C434.343 168.028 418.064 177.157 408.022 190.241C397.98 203.326 388.851 225.844 393.568 242.58C388.395 246.08 388.243 258.404 386.417 264.946C384.591 271.488 382.461 277.27 383.83 278.335C381.396 278.943 375.31 288.833 373.941 292.789C370.898 290.507 347.619 285.638 336.208 289.898C337.273 279.704 335.6 255.817 353.401 209.716C371.202 163.615 373.941 149.314 373.18 135.925C372.267 122.536 370.289 115.385 364.051 109.451C357.813 103.517 345.489 103.061 341.381 113.711C335.143 118.58 334.23 144.445 333.013 146.879C328.601 144.597 324.645 142.923 317.798 142.467C310.952 142.011 305.779 147.336 304.714 147.336C303.649 147.336 298.171 144.141 292.694 144.445C287.217 144.597 281.283 140.033 273.523 140.185C281.131 135.925 295.28 120.558 289.195 110.516C291.477 100.931 276.11 100.322 271.85 101.996C267.59 103.669 260.439 109.451 258.461 112.342C255.57 111.733 249.94 110.82 232.596 125.579C228.335 116.754 221.489 111.733 215.555 110.059C209.621 108.386 202.166 108.538 201.253 113.559C200.34 118.58 201.557 127.861 197.297 140.033C193.037 152.357 191.82 156.312 189.081 165.441C186.495 174.57 186.038 185.22 183.452 193.132C180.865 201.044 180.561 210.477 180.561 210.477C180.561 210.477 174.019 212.607 170.215 226.757C166.411 240.907 169.15 245.623 162.608 261.142C156.065 276.661 152.87 285.029 152.566 297.962C152.262 310.894 166.411 332.043 168.237 337.825C170.063 343.606 178.279 373.275 180.257 376.318C182.235 379.361 189.081 393.054 180.865 421.658C172.649 450.11 169.302 452.848 169.302 452.848" stroke="#808285" stroke-width="2" stroke-miterlimit="10"/>
<path d="M330.274 145.662C325.862 143.38 324.493 142.923 317.494 142.467C310.647 142.01 305.474 147.336 304.409 147.336C303.344 147.336 297.867 144.141 292.39 144.445C286.912 144.597 280.978 140.033 273.219 140.185C265.459 140.337 256.026 135.925 242.485 166.506C228.944 197.088 228.335 219.302 222.858 230.408C217.381 241.515 208.556 246.232 208.556 246.232" stroke="#2969D0" stroke-width="3" stroke-miterlimit="10" stroke-linecap="round"/>
<path d="M170.976 264.946C174.323 259.164 177.366 249.274 178.736 242.58C180.105 235.885 179.344 217.019 179.953 210.629" stroke="#808285" stroke-width="2" stroke-miterlimit="10"/>
<path d="M286.152 224.929C286.913 218.539 290.412 208.345 294.368 203.476C298.324 198.608 305.17 182.176 305.475 174.416" stroke="#2969D0" stroke-width="3" stroke-miterlimit="10" stroke-linecap="round"/>
<path d="M189.538 162.702C191.06 157.833 203.688 151.291 206.426 148.705C209.013 146.118 221.337 130.903 232.444 125.578" stroke="#808285" stroke-width="2" stroke-miterlimit="10"/>
<path d="M268.046 251.101C272.611 247.906 285.087 236.799 291.325 217.628C297.715 198.61 306.54 186.895 308.67 182.939C310.952 178.831 317.647 166.659 322.667 162.703C327.688 158.747 333.318 147.64 333.318 143.685" stroke="#808285" stroke-width="2" stroke-miterlimit="10"/>
<g opacity="0.5">
<path d="M440.733 178.678C439.212 179.591 437.843 180.656 436.473 181.873C435.256 183.09 434.039 184.307 432.974 185.677C430.844 188.415 429.17 191.458 428.257 194.805C427.801 196.479 427.497 198.153 427.497 199.826C427.497 201.5 427.649 203.174 428.105 204.847C428.562 206.521 429.322 208.042 430.235 209.564C431.148 211.085 432.365 212.302 433.735 213.52C430.692 211.694 428.257 208.803 427.04 205.304C426.432 203.63 426.127 201.804 425.975 199.978C425.975 198.153 426.279 196.327 426.736 194.501C427.801 191.002 429.627 187.807 432.061 185.068C434.495 182.329 437.386 179.895 440.733 178.678Z" fill="#AEB0B2"/>
</g>
<g opacity="0.5">
<path d="M307.453 149.768C309.126 149.464 310.952 149.616 312.626 149.768C314.299 149.921 316.125 150.225 317.799 150.377L322.82 151.29C323.428 151.442 324.341 151.138 325.102 150.681C325.863 150.377 326.623 149.921 327.384 149.616C326.775 150.225 326.167 150.833 325.406 151.29C324.645 151.746 323.885 152.355 322.82 152.355C320.994 152.355 319.32 152.051 317.647 151.746C315.973 151.442 314.299 151.138 312.626 150.681L307.453 149.768Z" fill="#AEB0B2"/>
</g>
</svg>
