<svg width="850" height="500" viewBox="0 0 850 500" fill="none" xmlns="http://www.w3.org/2000/svg">
<path opacity="0.33" d="M509.975 420.554C507.752 416.942 504.002 411.108 498.862 404.579C492.611 396.8 489.972 394.994 483.443 387.215C477.192 379.713 473.163 373.462 468.996 366.933C461.078 354.57 462.189 354.015 454.549 342.624C451.215 337.623 449.131 334.845 442.464 324.982C437.602 317.62 435.657 314.425 433.99 309.702C433.434 308.035 432.462 304.979 431.351 295.533C430.517 288.17 431.073 281.225 429.823 274.001C429.406 271.64 428.989 269.834 428.711 268.862C427.878 265.805 427.183 264.277 426.35 262.055C425.655 260.11 423.572 254.693 422.877 248.025C422.599 246.08 422.46 243.58 422.599 240.801C421.766 239.273 420.932 237.745 420.238 236.217C419.821 234.689 419.543 232.883 419.404 230.8C419.265 227.049 419.821 223.854 420.516 221.77C423.016 217.603 425.377 213.297 427.878 209.129C431.212 203.99 434.546 198.989 437.88 193.849C438.157 192.599 438.574 190.654 438.991 188.293C440.38 180.513 440.658 178.291 441.63 174.401C442.88 169.678 443.297 167.317 444.686 165.233C446.909 162.038 449.965 160.371 452.049 159.677C451.771 156.898 451.493 152.453 451.076 147.036C449.548 126.616 449.965 127.171 448.993 116.336C448.993 116.197 448.02 105.64 447.187 92.0265C446.909 87.8591 446.77 84.803 447.465 80.6357C448.159 77.1629 449.27 70.634 454.549 64.9386C456.633 62.5771 459.967 59.1043 465.384 58.2708C470.524 57.5763 474.691 59.7989 476.219 60.7712C478.164 62.0215 479.275 63.2717 480.387 64.5219C481.22 65.3553 484.276 68.8281 486.638 75.0792C488.166 78.9687 488.582 82.0248 488.999 85.2198C489.972 91.6097 489.277 93.2767 490.249 102.445C490.527 105.362 490.666 106.89 491.083 108.974C492.055 114.391 493.583 118.281 495.806 123.56C499.14 131.616 500.39 134.534 501.501 137.451C504.557 144.952 505.947 150.37 508.725 160.649C510.531 167.317 512.475 175.79 514.281 185.792C515.115 185.653 515.809 185.375 516.643 185.236C517.059 183.431 517.476 181.486 517.893 179.68C517.615 172.595 517.615 165.094 518.171 157.454C518.171 156.482 518.31 155.648 518.449 154.676C517.893 152.87 517.476 151.342 517.198 150.231C515.809 144.813 516.087 137.729 515.948 136.478C515.67 134.95 514.698 134.256 513.864 133.006C513.17 132.033 512.475 130.505 512.475 128.144C511.364 126.893 510.114 125.226 509.003 123.004C508.864 122.865 507.197 119.392 506.78 116.058C505.808 108.557 511.503 101.75 512.475 100.639C512.892 99.8055 513.587 98.5553 514.698 97.444C519.004 92.9988 525.116 92.9988 526.783 92.9988C530.534 92.9988 533.451 94.1101 535.396 95.0825C538.174 95.2214 541.091 95.4993 544.147 95.7771C548.87 96.1938 553.454 96.8884 557.622 97.5829C559.567 97.1662 562.762 96.7495 566.512 97.5829C572.902 98.9721 576.792 103.001 578.181 104.529C579.987 105.223 586.099 108.696 587.071 109.39C589.155 109.946 591.377 110.641 593.739 111.613C597.906 113.28 601.24 115.364 603.741 117.308C605.13 117.725 606.519 118.003 607.908 118.42C607.908 116.753 607.769 114.252 607.908 111.196C608.047 107.862 608.047 106.196 608.325 104.945C609.575 99.9445 612.77 96.8884 613.881 95.916C615.409 94.5269 616.937 93.8323 617.91 93.2767C618.326 92.5821 619.021 91.6097 620.132 90.7763C622.91 88.8315 626.244 89.526 627.356 89.665C632.079 90.6373 634.579 94.388 635.135 95.3603C636.107 96.7495 636.107 97.3051 637.774 101.611C638.885 104.39 639.858 106.751 640.552 108.14C643.608 112.863 645.553 117.031 646.803 120.226C648.331 124.254 650.832 135.089 652.221 141.896C654.86 154.259 658.333 168.845 657.916 180.375C657.5 189.959 655.972 197.739 653.193 211.074C652.36 215.103 651.387 219.409 650.971 225.521C650.554 230.8 650.832 234.689 650.832 236.634C651.11 245.663 650.415 253.72 648.887 269.695C647.498 284.281 646.526 286.92 646.109 298.311C645.831 305.118 646.248 304.284 645.97 310.257C645.414 324.565 643.469 327.482 642.636 340.679C641.941 350.264 642.358 357.626 642.636 362.21C642.914 366.656 643.331 375.407 645.275 384.575C646.942 393.049 650.693 406.107 659.861 421.109C609.992 420.554 559.983 420.554 509.975 420.554Z" fill="#E0E1E2"/>
<g opacity="0.5">
<path d="M441.631 193.433C443.159 192.738 444.548 191.905 445.798 190.933C446.91 189.96 447.743 188.571 448.576 187.182C450.104 184.404 450.799 181.209 451.91 178.014C451.91 179.681 451.771 181.348 451.494 183.015C451.216 184.681 450.66 186.348 449.827 187.876C448.993 189.404 448.021 190.932 446.493 191.905C444.965 192.738 443.298 193.294 441.631 193.433Z" fill="#AEB0B2"/>
</g>
<path d="M509.975 420.554C507.752 416.942 504.002 411.108 498.862 404.579C492.611 396.8 489.972 394.994 483.443 387.215C477.192 379.714 473.163 373.462 468.996 366.934C461.078 354.57 462.189 354.015 454.549 342.624C451.215 337.623 449.131 334.845 442.464 324.982C437.602 317.62 435.657 314.425 433.99 309.702C433.434 308.035 432.462 304.979 431.351 295.533C430.517 288.17 431.073 281.225 429.823 274.001C429.406 271.64 428.989 269.834 428.711 268.862C427.878 265.806 427.183 264.278 426.35 262.055C425.655 260.11 423.572 254.693 422.877 248.025C422.599 246.08 422.46 243.58 422.599 240.801C421.766 239.273 420.932 237.745 420.238 236.217C419.821 234.689 419.543 232.883 419.404 230.8C419.265 227.049 419.821 223.854 420.516 221.77C423.016 217.603 425.377 213.297 427.878 209.129C431.212 203.99 434.546 198.989 437.88 193.849C438.157 192.599 438.574 190.654 438.991 188.293C440.38 180.514 440.658 178.291 441.63 174.401C442.88 169.678 443.297 167.317 444.686 165.233C446.909 162.038 449.965 160.371 452.049 159.677" stroke="#808285" stroke-width="2" stroke-miterlimit="10"/>
<path d="M515.531 185.098C515.948 184.959 516.365 184.959 516.782 184.82C517.198 183.014 517.615 181.07 518.032 179.264C517.754 172.179 517.754 164.678 518.31 157.038C518.31 156.065 518.449 155.232 518.587 154.26C518.032 152.454 517.615 150.926 517.337 149.814C515.948 144.397 516.226 137.312 516.087 136.062C515.809 134.534 514.837 133.839 514.003 132.589C513.309 131.617 512.614 130.089 512.614 127.727C511.503 126.477 510.253 124.81 509.141 122.588C509.003 122.449 507.336 118.976 506.919 115.642C505.946 108.141 511.642 101.334 512.614 100.223C513.031 99.3892 513.726 98.139 514.837 97.0277C519.143 92.5825 525.255 92.5825 526.922 92.5825C530.673 92.5825 533.59 93.6938 535.535 94.6662C538.313 94.8051 541.23 95.0829 544.286 95.3608C549.009 95.7775 553.593 96.4721 557.761 97.1666C559.705 96.7499 562.9 96.3332 566.651 97.1666C573.041 98.5558 576.931 102.584 578.32 104.112C580.126 104.807 586.238 108.28 587.21 108.974C589.294 109.53 591.516 110.224 593.878 111.197C598.045 112.864 601.379 114.947 603.88 116.892C605.269 117.309 606.658 117.587 608.047 118.003C608.047 116.337 607.908 113.836 608.047 110.78C608.186 107.446 608.186 105.779 608.464 104.529C609.714 99.5281 612.909 96.4721 614.02 95.4997C615.548 94.1106 617.076 93.416 618.049 92.8604C618.465 92.1658 619.16 91.1934 620.271 90.3599C623.049 88.4152 626.383 89.1097 627.495 89.2486C632.218 90.221 634.718 93.9717 635.274 94.9441C636.246 96.3332 636.246 96.8888 637.913 101.195C639.024 103.973 639.997 106.335 640.691 107.724C643.747 112.447 645.692 116.614 646.942 119.809C648.47 123.838 650.971 134.673 652.36 141.48C654.999 153.843 658.472 168.429 658.055 179.958C657.639 189.543 656.11 197.322 653.332 210.658C652.499 214.686 651.526 218.993 651.11 225.105C650.693 230.383 650.971 234.273 650.971 236.218C651.249 245.247 650.554 253.304 649.026 269.279C647.637 283.865 646.664 286.504 646.248 297.895C645.97 304.701 646.387 303.868 646.109 309.841C645.553 324.149 643.608 327.066 642.775 340.263C642.08 349.848 642.497 357.21 642.775 361.794C643.053 366.239 643.469 374.991 645.414 384.159C647.081 392.633 650.832 405.69 660 420.693" stroke="#808285" stroke-width="2" stroke-miterlimit="10"/>
<path d="M458.438 279.003C460.522 274.974 463.3 268.862 464.69 261.083C465.662 255.943 465.662 251.915 465.801 246.914C465.801 241.219 465.662 233.44 464.273 224.271C463.856 217.881 463.578 211.492 463.161 205.102" stroke="#808285" stroke-width="2" stroke-miterlimit="10"/>
<path d="M463.3 205.101C461.633 199.406 459.828 193.433 458.3 187.181C456.216 179.263 453.577 166.9 452.049 159.538C451.771 156.76 451.493 152.315 451.076 146.897C449.548 126.477 449.965 127.033 448.992 116.197C448.992 116.058 448.02 105.501 447.187 91.8878C446.909 87.7204 446.77 84.6644 447.464 80.497C448.159 77.0242 449.27 70.4953 454.549 64.7999C456.633 62.4384 459.967 58.9656 465.384 58.1321C470.524 57.4376 474.691 59.6602 476.219 60.6326C478.164 61.8828 479.275 63.133 480.387 64.3832C481.22 65.2167 484.276 68.6895 486.638 74.9405C488.166 78.83 488.582 81.8861 488.999 85.0811C489.972 91.4711 489.277 93.138 490.249 102.306C490.527 105.223 490.666 106.751 491.083 108.835C492.055 114.253 493.583 118.142 495.806 123.421C499.14 131.478 500.39 134.395 501.501 137.312C504.557 144.813 505.946 150.231 508.725 160.51C510.531 167.178 512.475 175.652 514.281 185.653C514.698 185.515 514.976 185.515 515.392 185.376" stroke="#2969D0" stroke-width="3" stroke-miterlimit="10" stroke-linecap="round"/>
<path d="M557.483 97.167C559.15 97.8616 562.345 99.6674 564.707 101.473C566.374 102.723 568.874 104.668 571.097 108.002C573.875 112.308 574.431 116.754 574.847 120.087C575.125 122.171 575.125 123.838 575.125 125.088C575.264 144.397 575.403 163.845 575.542 183.154C575.681 184.265 575.959 185.654 576.514 187.043C577.765 190.933 579.709 193.989 581.376 195.933" stroke="#808285" stroke-width="2" stroke-miterlimit="10"/>
<path d="M620.688 212.463C619.993 211.768 619.299 210.796 618.604 209.407C617.354 206.629 617.632 203.85 617.771 202.739C617.771 202.739 621.104 173.706 622.077 158.843C622.355 155.37 622.216 151.203 622.077 142.868C621.938 138.006 621.799 134.533 620.41 130.366C619.576 128.143 618.604 125.365 615.965 122.587C613.325 119.809 609.991 118.697 608.186 118.142" stroke="#808285" stroke-width="2" stroke-miterlimit="10"/>
<g opacity="0.5">
<path d="M455.799 68.9675C456.216 71.329 456.632 73.6905 457.327 75.7742C457.744 76.7466 458.577 77.3022 459.688 77.58C460.8 77.719 461.911 77.7189 463.161 77.7189C467.884 77.58 472.607 77.1633 477.33 76.8855H477.191C477.886 76.7466 478.303 76.052 478.58 75.2185C478.858 74.385 478.997 73.5516 478.997 72.7181C478.997 71.8846 478.997 70.9122 478.997 70.0788C478.858 69.2453 478.858 68.2729 478.719 67.4395C478.997 68.2729 479.275 69.2453 479.414 70.0788C479.553 70.9122 479.692 71.8846 479.831 72.857C479.831 73.8294 479.831 74.6629 479.553 75.6353C479.275 76.6076 478.858 77.58 477.747 78.1357H477.608C475.246 78.4135 472.885 78.6913 470.524 78.8302C468.162 78.9692 465.8 79.1081 463.439 79.1081C462.189 79.1081 461.077 79.1081 459.827 78.6913C459.272 78.5524 458.577 78.2746 458.021 77.8579C457.466 77.4411 457.049 76.7466 456.91 76.1909C456.632 74.9407 456.493 73.8294 456.354 72.5792C455.799 71.329 455.799 70.2177 455.799 68.9675Z" fill="#AEB0B2"/>
</g>
<path opacity="0.33" d="M312.72 422.776C314.525 420.554 322.305 412.497 330.778 404.023C339.252 395.55 356.616 365.684 361.756 359.71C366.895 353.737 380.509 339.012 383.843 331.65C387.176 324.288 383.565 300.673 383.843 293.31C384.12 285.948 387.593 250.803 385.232 241.635C382.87 232.467 379.12 228.716 376.064 222.326C373.007 215.936 372.452 213.992 369.674 212.047C366.895 210.102 368.562 193.433 369.118 191.071C369.674 188.71 371.618 178.013 371.618 174.263C371.618 170.512 371.618 159.816 374.536 151.898C377.453 143.98 375.508 120.226 370.507 112.725C365.506 105.223 361.478 103.418 355.505 103.001C349.531 102.584 343.002 108.418 341.336 112.03C339.669 115.642 337.446 118.976 334.946 148.425C331.473 156.343 324.805 163.289 321.888 172.874C318.971 182.459 311.192 206.629 309.386 216.631C307.58 226.633 297.3 240.246 301.468 232.884C305.635 225.66 305.218 207.879 312.997 184.264C320.777 160.649 319.804 162.177 319.804 160.927C319.804 159.677 324.388 155.371 325.916 145.091C328.833 140.368 334.529 116.892 323.971 110.085C323.833 105.223 320.638 101.89 311.886 100.5C303.135 99.1113 299.94 101.334 297.995 106.751C294.8 107.585 289.938 119.392 289.105 129.116C286.743 130.505 275.352 142.035 273.13 146.341C270.907 150.648 264.656 172.318 263.406 177.874C262.156 183.431 254.099 218.159 251.876 221.354C249.654 224.549 248.681 226.772 250.487 219.965C252.293 213.158 260.628 172.179 264.239 164.817C267.851 157.454 268.268 151.342 278.269 137.034C288.271 122.726 286.882 115.781 285.076 111.197C283.27 106.613 281.881 102.723 273.408 101.334C264.934 99.9447 260.072 107.029 260.072 107.029C260.072 107.029 254.932 108.557 242.569 121.893C239.93 116.753 236.318 112.864 236.318 112.864C236.318 112.864 233.679 107.307 226.177 106.196C218.676 105.084 215.62 113.141 215.203 116.059C212.703 116.059 207.563 127.588 205.757 139.118C203.951 150.787 201.034 167.456 197.978 177.319C194.922 187.182 192.977 195.377 192.283 202.601C191.588 209.824 187.699 219.965 187.004 229.411C186.31 238.857 175.336 265.945 174.78 274.557C174.085 283.17 174.502 312.619 173.669 319.426C172.835 326.233 171.585 349.153 173.669 362.35C175.752 375.407 174.78 387.493 172.557 394.022C170.335 400.551 162 422.221 162 422.221H312.72V422.776Z" fill="#E0E1E2"/>
<path d="M312.72 422.776C314.525 420.554 322.305 412.497 330.778 404.023C339.252 395.55 356.616 365.684 361.756 359.71C366.895 353.737 380.509 339.012 383.843 331.65C387.176 324.288 383.565 300.673 383.843 293.31C384.12 285.948 387.593 250.803 385.232 241.635C382.87 232.467 379.12 228.716 376.064 222.326C373.007 215.936 372.452 213.992 369.674 212.047C366.895 210.102 368.562 193.433 369.118 191.071C369.674 188.71 371.618 178.013 371.618 174.263C371.618 170.512 371.618 159.816 374.536 151.898C377.453 143.98 375.508 120.226 370.507 112.725C365.506 105.223 361.478 103.418 355.505 103.001C349.531 102.584 343.002 108.418 341.336 112.03C339.669 115.642 337.446 118.976 334.946 148.425C331.473 156.343 324.805 163.289 321.888 172.874C318.971 182.459 311.192 206.629 309.386 216.631C307.58 226.633 297.3 240.246 301.468 232.884C305.635 225.66 305.218 207.879 312.997 184.264C320.777 160.649 319.804 162.177 319.804 160.927C319.804 159.677 324.388 155.371 325.916 145.091C328.833 140.368 334.529 116.892 323.971 110.085C323.833 105.223 320.638 101.89 311.886 100.5C303.135 99.1113 299.94 101.334 297.995 106.751C294.8 107.585 289.938 119.392 289.105 129.116C286.743 130.505 275.352 142.035 273.13 146.341C270.907 150.648 264.656 172.318 263.406 177.874C262.156 183.431 254.099 218.159 251.876 221.354C249.654 224.549 248.681 226.772 250.487 219.965C252.293 213.158 260.628 172.179 264.239 164.817C267.851 157.454 268.268 151.342 278.269 137.034C288.271 122.726 286.882 115.781 285.076 111.197C283.27 106.613 281.881 102.723 273.408 101.334C264.934 99.9447 260.072 107.029 260.072 107.029C260.072 107.029 254.932 108.557 242.569 121.893C239.93 116.753 236.318 112.864 236.318 112.864C236.318 112.864 233.679 107.307 226.177 106.196C218.676 105.084 215.62 113.141 215.203 116.059C212.703 116.059 207.563 127.588 205.757 139.118C203.951 150.787 201.034 167.456 197.978 177.319C194.922 187.182 192.977 195.377 192.283 202.601C191.588 209.824 187.699 219.965 187.004 229.411C186.31 238.857 175.336 265.945 174.78 274.557C174.085 283.17 174.502 312.619 173.669 319.426C172.835 326.233 171.585 349.153 173.669 362.35C175.752 375.407 174.78 387.493 172.557 394.022C170.335 400.551 162 422.221 162 422.221" stroke="#808285" stroke-width="2" stroke-miterlimit="10"/>
<path d="M202.284 225.8C206.174 221.632 209.369 215.243 209.647 208.575C209.924 201.907 209.23 167.318 217.981 154.121C226.733 140.925 242.708 122.449 242.708 122.449" stroke="#808285" stroke-width="2" stroke-miterlimit="10"/>
<path d="M357.45 306.786C355.505 303.174 353.144 300.812 353.144 298.034C353.144 295.256 354.672 263.445 356.339 252.054C357.867 240.663 365.646 207.741 368.285 200.935" stroke="#808285" stroke-width="2" stroke-miterlimit="10"/>
</svg>
