<svg width="900" height="500" viewBox="0 0 900 500" fill="none" xmlns="http://www.w3.org/2000/svg">
<path opacity="0.33" d="M350.977 429.161C356.313 422.383 372.176 398.876 377.224 391.088C382.271 383.301 393.664 356.765 398.423 350.708C403.182 344.651 408.951 337.008 406.355 319.125C403.904 301.243 401.74 295.042 403.183 269.516C404.625 243.99 400.154 238.942 394.241 226.684C393.087 219.329 391.213 217.31 388.473 215.147C388.905 210.099 391.501 190.053 393.087 179.814C394.818 169.575 391.357 172.748 393.087 150.971C394.818 129.195 388.905 113.764 385.156 109.293C384.579 104.967 380.397 100.063 372.753 98.4771C365.254 96.7465 358.332 103.669 358.332 106.697C355.88 107.563 348.093 118.234 351.986 153.134C343.478 173.469 338.142 194.38 336.988 201.446C335.69 208.513 329.921 240.384 327.614 239.086C325.307 237.788 334.536 207.359 337.276 188.467C340.016 169.575 342.901 156.451 344.631 147.51C346.362 138.569 346.506 109.293 336.7 105.688C334.392 98.3329 327.326 96.4581 320.836 96.0254C314.346 95.5928 308.866 100.784 308.722 103.813C305.838 104.823 302.809 118.811 304.107 138.28C297.617 145.203 288.82 167.123 279.014 215.291C279.014 215.291 282.186 168.421 288.243 149.241C294.445 130.06 298.915 122.561 295.31 111.889C297.041 106.842 292.281 103.092 285.792 101.073C279.302 99.0539 271.947 102.515 270.505 106.553C265.313 107.418 256.66 122.849 252.911 135.108C245.989 147.366 237.768 168.998 234.596 181.256C231.423 193.514 229.981 238.365 228.106 241.394C226.231 244.422 222.914 244.711 220.318 241.826C217.723 238.942 217.001 238.077 216.28 232.741C215.559 227.261 214.261 217.743 212.675 210.676C211.233 203.609 209.502 189.621 210.079 184.429C210.656 179.237 217.29 170.007 216.569 157.893C215.848 145.779 208.204 141.165 206.185 139.578C204.166 138.136 201.859 134.675 194.937 136.55C188.014 138.425 184.697 154.288 184.697 154.288C184.697 154.288 175.9 171.45 174.458 175.343C173.016 179.237 173.304 183.996 171.862 190.342C170.42 196.687 172.295 203.033 170.132 209.378C168.113 215.724 168.978 226.107 171.285 234.76C173.593 243.413 171.862 243.845 173.737 250.479C175.612 256.969 179.361 265.91 180.659 272.111C181.957 278.313 181.525 292.013 182.39 302.685C183.255 313.357 188.159 319.27 189.456 333.258C190.754 347.247 193.494 386.185 195.369 397.434C197.244 408.683 198.398 412.144 192.773 429.45H350.977V429.161Z" fill="#697695"/>
<path d="M350.977 429.161C356.313 422.383 372.176 398.876 377.224 391.088C382.271 383.301 393.664 356.765 398.423 350.708C403.182 344.651 408.951 337.008 406.355 319.125C403.904 301.243 401.74 295.042 403.183 269.516C404.625 243.99 400.154 238.942 394.241 226.684C393.087 219.329 391.213 217.31 388.473 215.147C388.905 210.099 391.501 190.053 393.087 179.814C394.818 169.575 391.357 172.748 393.087 150.971C394.818 129.195 388.905 113.764 385.156 109.293C384.579 104.967 380.397 100.063 372.753 98.4771C365.254 96.7465 358.332 103.669 358.332 106.697C355.88 107.563 348.093 118.234 351.986 153.134C343.478 173.469 338.142 194.38 336.988 201.446C335.69 208.513 329.921 240.384 327.614 239.086C325.307 237.788 334.536 207.359 337.276 188.467C340.016 169.575 342.901 156.451 344.631 147.51C346.362 138.569 346.506 109.293 336.7 105.688C334.392 98.3329 327.326 96.4581 320.836 96.0254C314.346 95.5928 308.866 100.784 308.722 103.813C305.838 104.823 302.809 118.811 304.107 138.28C297.617 145.203 288.82 167.123 279.014 215.291C279.014 215.291 282.186 168.421 288.243 149.241C294.445 130.06 298.915 122.561 295.31 111.889C297.041 106.842 292.281 103.092 285.792 101.073C279.302 99.0539 271.947 102.515 270.505 106.553C265.313 107.418 256.66 122.849 252.911 135.108C245.989 147.366 237.768 168.998 234.596 181.256C231.423 193.514 229.981 238.365 228.106 241.394C226.231 244.422 222.914 244.711 220.318 241.826C217.723 238.942 217.001 238.077 216.28 232.741C215.559 227.261 214.261 217.743 212.675 210.676C211.233 203.609 209.502 189.621 210.079 184.429C210.656 179.237 217.29 170.007 216.569 157.893C215.848 145.779 208.204 141.165 206.185 139.578C204.166 138.136 201.859 134.675 194.937 136.55C188.014 138.425 184.697 154.288 184.697 154.288C184.697 154.288 175.9 171.45 174.458 175.343C173.016 179.237 173.304 183.996 171.862 190.342C170.42 196.687 172.295 203.033 170.132 209.378C168.113 215.724 168.978 226.107 171.285 234.76C173.593 243.413 171.862 243.845 173.737 250.479C175.612 256.969 179.361 265.91 180.659 272.111C181.957 278.313 181.525 292.013 182.39 302.685C183.255 313.357 188.159 319.27 189.456 333.258C190.754 347.247 193.494 386.185 195.369 397.434C197.244 408.683 198.398 412.144 192.773 429.45" stroke="#445272" stroke-width="2" stroke-miterlimit="10"/>
<path d="M220.462 241.539C217.866 238.511 217.145 237.789 216.424 232.454C215.703 226.973 214.405 217.455 212.819 210.389C211.376 203.322 209.646 189.333 210.223 184.142C210.8 178.95 217.433 169.72 216.712 157.606C215.991 145.492 208.348 140.877 206.329 139.291C204.31 137.849 202.002 134.388 195.08 136.262C188.158 138.137 184.841 154.001 184.841 154.001C184.841 154.001 176.044 171.162 174.602 175.056C173.16 178.95 173.448 183.709 172.006 190.054C170.564 196.4 172.438 202.745 170.275 209.091C168.256 215.436 169.122 225.82 171.429 234.473C173.736 243.125 172.006 243.558 173.881 250.192C175.755 256.682 179.505 265.623 180.803 271.824" stroke="#BA6DCD" stroke-width="3" stroke-miterlimit="10" stroke-linecap="round"/>
<g opacity="0.5">
<path d="M188.159 155.298C189.89 154.865 191.765 154.865 193.495 154.433C195.226 154 196.668 153.279 197.966 152.125C199.264 151.116 200.562 149.818 201.715 148.376C202.292 147.655 202.869 146.933 203.446 146.357C204.023 145.636 204.455 144.914 205.176 144.193C204.888 145.059 204.455 145.924 204.023 146.789C203.59 147.655 203.157 148.376 202.581 149.241C201.571 150.827 200.273 152.269 198.831 153.423C197.389 154.577 195.514 155.442 193.639 155.586C191.765 155.875 190.034 155.298 188.159 155.298Z" fill="#B1BBD0"/>
</g>
<path d="M378.81 291.581C378.522 280.909 377.079 261.007 378.81 249.037C380.541 237.212 388.617 215.291 388.617 215.291" stroke="#445272" stroke-width="2" stroke-miterlimit="10"/>
<path d="M271.658 238.798C274.687 232.164 278.436 222.79 279.013 215.146" stroke="#445272" stroke-width="2" stroke-miterlimit="10"/>
<path opacity="0.33" d="M545.078 429.744C542.911 426.133 540.022 422.089 536.411 417.9C533.089 414.144 529.767 410.967 526.878 408.511C526.878 408.511 520.378 402.3 513.3 394.356C508.244 388.722 504.922 383.956 498.278 374.567C485.278 356.222 486.722 355.789 481.378 350.878C479.356 349 475.456 345.678 471.7 340.189C468.522 335.567 467.367 332.1 466.933 329.789C466.789 328.922 466.5 327.622 466.356 321.989C466.211 314.044 466.5 312.167 466.356 308.122C466.211 303.5 465.344 300.322 463.9 294.689C461.589 285.444 459.856 283.278 457.978 275.044C456.967 270.278 456.533 266.233 456.244 263.778C455.667 262.911 454.8 261.9 454.222 260.456C453.067 257.567 453.211 255.111 453.356 253.667C452.633 252.367 451.767 250.344 451.189 247.889C450.322 243.989 450.9 241.389 452.344 233.878C454.511 222.611 454.944 220.156 454.944 216.544C454.944 213.078 454.511 210.333 454.078 208.6C452.633 205.711 451.189 202.389 450.033 198.633C448.156 192.711 447.289 187.367 447 183.033C447.722 182.744 448.444 182.456 449.167 182.167C450.178 181.156 453.067 179.856 455.667 179.133C460.289 177.833 464.044 179.133 467.656 180.867C468.667 181.3 473 184.189 477.911 189.822C479.356 191.411 482.822 195.889 484.989 202.389C486.578 207.011 486.867 211.2 487.156 213.511C487.444 216.978 487.156 217.7 487.589 220.878C488.022 225.5 489.178 228.678 489.9 231.133C492.789 241.1 492.933 249.189 493.078 249.189C493.222 249.189 491.633 236.044 486.144 191.556C486.144 186.644 486.144 178.989 486.289 169.6C486.578 158.622 486.867 158.622 487.156 147.5C487.444 137.533 487.3 132.044 488.167 122.222C488.744 115.433 489.322 111.244 491.489 106.478C493.222 102.867 495.244 98.6778 499.867 96.0778C505.356 93.1889 511.856 93.7667 516.478 96.3667C520.378 98.5333 522.544 101.567 523.7 103.444C526.589 107.778 527.167 112.111 527.744 116.444C528.322 120.489 528.178 123.378 527.889 129.444C527.6 137.822 526.733 142.156 526.733 152.411C526.733 152.989 526.733 153.422 526.733 153.711C527.311 155.444 528.178 158.044 529.044 160.933C530.056 164.256 530.922 167.722 532.222 172.922C534.1 180.578 535.111 184.333 535.833 187.944C537.278 195.022 537.133 197.333 538.722 210.044C539.589 216.978 540.022 220.444 540.6 223.622C542.044 232.433 543.922 239.656 545.367 244.567C546.522 243.7 547.822 242.833 548.978 242.111C546.522 229.544 544.356 216.544 542.189 203.4C539.878 189.389 538.433 179.133 537.133 169.744C530.056 120.489 533.378 131.033 531.356 121.067C531.356 120.778 530.2 114.856 530.633 107.056C531.067 100.267 532.367 97.9556 532.944 96.9444C536.122 91.7444 541.756 90.0111 543.056 89.7222C543.922 89.4333 551.433 87.4111 558.222 91.7444C561.833 94.0556 563.567 96.9444 565.3 100.122C567.178 103.3 569.922 109.367 570.356 118.178C570.211 105.756 574.978 95.6444 582.344 92.9C583.933 92.3222 586.822 91.6 590.144 92.1778C595.633 92.9 599.1 96.3667 602.278 99.4C605.889 103.011 607.911 106.478 610.367 110.811C612.244 114.133 613.544 117.022 614.556 119.044C614.7 116.589 615.422 112.4 618.167 108.211C619.756 105.9 621.633 103.011 625.678 101.567C625.967 101.422 631.167 99.6889 636.222 102.289C636.8 102.578 638.244 103.444 640.7 106.044C642.722 108.211 645.178 111.389 649.078 119.333C650.667 122.367 651.967 125.111 653.556 129.156C655.867 135.078 656.878 139.122 658.178 144.467C663.233 163.822 665.4 166.422 667.567 179.278C668.144 182.889 668.578 185.922 668.722 188.089C669.3 193.144 670.167 200.511 670.311 209.611C670.456 214.522 670.311 226.656 670.889 232C671.033 233.589 671.322 235.178 671.322 235.178C671.756 238.067 672.478 240.233 672.622 240.956C673.2 242.978 673.922 246.3 675.367 252.8C676.089 256.122 677.244 261.322 677.822 267.244C678.544 274.178 677.678 273.889 678.111 285.3C678.256 289.344 678.544 292.811 679.122 300.033C679.556 305.956 679.7 307.111 679.989 311.011C680.567 319.1 680.711 325.311 680.856 329.644C681 337.733 681 343.944 680.711 356.367C680.567 368.356 680.278 370.956 680.567 377.6C680.856 385.111 681.578 390.311 682.011 393.2C682.733 398.689 683.311 402.3 684.756 407.211C686.489 412.989 688.511 417.9 691.544 424.833C692.556 427 693.422 428.878 694 430.178C644.311 430.033 594.622 429.889 545.078 429.744Z" fill="#697695"/>
<path d="M545.078 429.744C542.911 426.133 540.022 422.089 536.411 417.9C533.089 414.144 529.767 410.967 526.878 408.511C526.878 408.511 520.378 402.3 513.3 394.356C508.244 388.722 504.922 383.956 498.278 374.567C485.278 356.222 486.722 355.789 481.378 350.878C479.356 349 475.456 345.678 471.7 340.189C468.522 335.567 467.367 332.1 466.933 329.789C466.789 328.922 466.5 327.622 466.356 321.989C466.211 314.044 466.5 312.167 466.356 308.122C466.211 303.5 465.344 300.322 463.9 294.689C461.589 285.444 459.856 283.278 457.978 275.044C456.967 270.278 456.533 266.233 456.244 263.778C455.667 262.911 454.8 261.9 454.222 260.456C453.067 257.567 453.211 255.111 453.356 253.667C452.633 252.367 451.767 250.344 451.189 247.889C450.322 243.989 450.9 241.389 452.344 233.878C454.511 222.611 454.944 220.156 454.944 216.544C454.944 213.078 454.511 210.333 454.078 208.6C452.633 205.711 451.189 202.389 450.033 198.633C448.156 192.711 447.289 187.367 447 183.033C447.722 182.744 448.444 182.456 449.167 182.167C450.178 181.156 453.067 179.856 455.667 179.133C460.289 177.833 464.044 179.133 467.656 180.867C468.667 181.3 473 184.189 477.911 189.822C479.356 191.411 482.822 195.889 484.989 202.389C486.578 207.011 486.867 211.2 487.156 213.511C487.444 216.978 487.156 217.7 487.589 220.878C488.022 225.5 489.178 228.678 489.9 231.133C492.789 241.1 492.933 249.189 493.078 249.189C493.222 249.189 491.633 236.044 486.144 191.556C486.144 186.644 486.144 178.989 486.289 169.6C486.578 158.622 486.867 158.622 487.156 147.5C487.444 137.533 487.3 132.044 488.167 122.222C488.744 115.433 489.322 111.244 491.489 106.478C493.222 102.867 495.244 98.6778 499.867 96.0778C505.356 93.1889 511.856 93.7667 516.478 96.3667C520.378 98.5333 522.544 101.567 523.7 103.444C526.589 107.778 527.167 112.111 527.744 116.444C528.322 120.489 528.178 123.378 527.889 129.444C527.6 137.822 526.733 142.156 526.733 152.411C526.733 152.989 526.733 153.422 526.733 153.711C527.311 155.444 528.178 158.044 529.044 160.933C530.056 164.256 530.922 167.722 532.222 172.922C534.1 180.578 535.111 184.333 535.833 187.944C537.278 195.022 537.133 197.333 538.722 210.044C539.589 216.978 540.022 220.444 540.6 223.622C542.044 232.433 543.922 239.656 545.367 244.567C546.522 243.7 547.822 242.833 548.978 242.111C546.522 229.544 544.356 216.544 542.189 203.4C539.878 189.389 538.433 179.133 537.133 169.744C530.056 120.489 533.378 131.033 531.356 121.067C531.356 120.778 530.2 114.856 530.633 107.056C531.067 100.267 532.367 97.9556 532.944 96.9444C536.122 91.7444 541.756 90.0111 543.056 89.7222C543.922 89.4333 551.433 87.4111 558.222 91.7444C561.833 94.0556 563.567 96.9444 565.3 100.122C567.178 103.3 570.211 108.644 570.933 117.456" stroke="#445272" stroke-width="2" stroke-miterlimit="10"/>
<path d="M614.556 119.044C614.7 116.589 615.422 112.4 618.167 108.211C619.756 105.9 621.633 103.011 625.678 101.567C625.967 101.422 631.167 99.6888 636.222 102.289C636.8 102.578 638.245 103.444 640.7 106.044C642.722 108.211 645.178 111.389 649.078 119.333C650.667 122.367 651.967 125.111 653.556 129.155C655.867 135.078 656.878 139.122 658.178 144.467C663.233 163.822 665.4 166.422 667.567 179.278C668.145 182.889 668.578 185.922 668.722 188.089C669.3 193.144 670.167 200.511 670.311 209.611C670.456 214.522 670.311 226.655 670.889 232C671.033 233.589 671.322 235.178 671.322 235.178C671.756 238.067 672.478 240.233 672.622 240.955C673.2 242.978 673.922 246.3 675.367 252.8C676.089 256.122 677.245 261.322 677.822 267.244C678.545 274.178 677.678 273.889 678.111 285.3C678.256 289.344 678.545 292.811 679.122 300.033C679.556 305.955 679.7 307.111 679.989 311.011C680.567 319.1 680.711 325.311 680.856 329.644C681 337.733 681 343.944 680.711 356.367C680.567 368.355 680.278 370.955 680.567 377.6C680.856 385.111 681.578 390.311 682.011 393.2C682.733 398.689 683.311 402.3 684.756 407.211C686.489 412.989 688.511 417.9 691.545 424.833C692.556 427 693.422 428.878 694 430.178" stroke="#445272" stroke-width="2" stroke-miterlimit="10"/>
<path d="M597.8 229.111C596.067 225.789 593.178 218.277 592.311 213.222C590.722 203.111 591.3 203.544 590.578 194.3C589.711 182.744 588.267 176.1 587.834 174.366C586.823 169.166 586.678 170.033 585.667 164.689C584.511 158.911 583.789 153.566 582.056 145.477C581.623 143.744 581.622 141.866 580.467 139.844C578.878 137.244 574.4 129.011 572.956 123.233C567.9 104.311 576.278 95.3552 582.345 93.1885C583.934 92.6108 586.822 91.8885 590.145 92.4663C595.634 93.1885 599.1 96.6552 602.278 99.6885C605.889 103.3 607.911 106.766 610.367 111.1C612.245 114.422 613.545 117.311 614.556 119.333L614.845 120.055C622.934 137.244 628.856 151.833 631.311 162.666C633.478 172.344 634.345 180.866 634.922 186.211C636.367 200.366 638.1 214.522 637.811 223.333" stroke="#BA6DCD" stroke-width="3" stroke-miterlimit="10" stroke-linecap="round"/>
<path d="M491.199 329.356C491.199 326.178 491.488 322.278 492.21 317.8C493.077 312.889 494.521 308.7 495.821 305.523C495.533 298.734 495.244 291.945 494.81 285.156C494.233 272.878 493.51 260.745 492.644 248.9" stroke="#445272" stroke-width="2" stroke-miterlimit="10"/>
<g opacity="0.5">
<path d="M457.545 208.745C458.7 208.167 459.711 207.445 460.289 206.434C460.867 205.423 461.011 204.267 461.011 202.967C461.011 200.511 460.578 198.056 459.856 195.745C459.134 193.434 458.267 190.978 457.4 188.667C456.967 187.512 456.534 186.356 455.667 185.489C454.8 184.623 453.645 184.189 452.345 183.9C453.645 183.9 454.945 184.189 456.1 185.056C457.256 185.778 457.978 187.223 458.411 188.378C459.423 190.689 460.434 193 461.156 195.456C461.589 196.756 461.878 197.912 462.023 199.212C462.167 200.512 462.167 201.812 462.023 203.112C461.878 204.412 461.589 205.856 460.723 206.867C460.145 207.878 458.845 208.456 457.545 208.745Z" fill="#B1BBD0"/>
</g>
<g opacity="0.5">
<path d="M576.134 104.023C576.856 105.178 577.723 106.189 578.734 107.056C579.167 107.489 579.745 107.923 580.178 108.212C580.612 108.356 581.334 108.501 581.912 108.645C584.512 108.789 587.112 108.501 589.567 108.067C592.023 107.489 594.623 106.912 596.789 105.612C599.534 104.456 597.656 101.567 596.067 99.6895C597.223 100.412 598.234 101.423 598.812 102.578C599.1 103.156 599.389 104.023 598.956 104.889C598.523 105.612 597.945 106.045 597.512 106.623C595.2 108.212 592.456 109.078 589.856 109.512C587.256 109.945 584.512 110.234 581.767 109.801C581.045 109.656 580.467 109.512 579.745 109.223C579.023 108.789 578.589 108.356 578.156 107.778C577.434 106.334 576.567 105.178 576.134 104.023Z" fill="#B1BBD0"/>
</g>
</svg>
