<svg width="850" height="500" viewBox="0 0 850 500" fill="none" xmlns="http://www.w3.org/2000/svg">
<path opacity="0.33" d="M690.88 450.025C683.798 435.108 678.826 421.245 676.867 390.506C674.908 359.767 678.675 357.356 676.867 333.096C675.058 308.837 673.25 314.11 675.058 295.878C676.716 277.645 666.771 253.988 666.62 245.098C666.47 236.208 667.223 205.77 664.511 191.455C661.798 177.141 655.47 167.949 650.949 143.388C646.429 118.827 629.251 102.854 618.251 106.471C607.252 110.087 605.443 121.539 606.8 125.758C601.978 116.265 598.813 110.69 595.8 107.074C592.786 103.457 584.047 99.2381 584.047 99.2381C584.047 99.2381 570.485 96.3752 565.211 108.58C560.842 109.484 560.842 118.977 560.992 121.539C559.938 115.813 557.979 107.676 556.321 105.115C554.513 102.553 551.047 98.4847 546.225 96.3752C541.404 94.2656 529.048 95.019 525.883 97.5806C522.719 100.142 516.993 105.416 517.445 110.539C517.897 115.813 519.555 120.484 519.856 133.895C520.158 147.306 524.527 175.634 525.431 182.716C526.335 189.798 538.541 255.043 538.541 255.043C538.541 255.043 538.089 256.098 537.335 255.345C536.733 254.591 522.418 175.031 517.295 163.278C519.253 150.771 520.459 115.361 512.322 107.526C508.856 99.6902 487.761 93.5122 479.775 111.142C471.789 128.621 474.35 159.963 472.843 172.017C471.337 184.072 472.994 210.893 474.501 218.879C473.446 210.743 470.734 203.209 466.063 198.537C461.392 193.866 453.707 189.195 448.282 187.236C443.913 185.729 438.337 187.688 435.926 190.099C435.173 190.853 434.118 191.606 433.063 191.757C431.858 192.058 430.803 192.962 430.803 192.962C430.803 195.524 432.762 208.332 439.844 220.989C438.036 223.701 440.447 235.002 438.488 242.989C436.529 250.824 434.269 256.249 437.735 265.29C436.378 267.7 438.187 274.33 441.2 276.741C439.392 282.317 441.652 289.399 447.68 304.165C455.214 322.699 451.447 343.192 456.72 353.74C461.994 364.287 468.323 367.904 475.254 378.753C482.035 389.602 508.555 423.505 519.404 432.094C530.253 440.683 534.774 449.875 534.774 449.875H690.88V450.025Z" fill="#E0E1E2"/>
<path d="M690.88 450.026C683.798 435.108 678.826 421.245 676.867 390.506C674.908 359.767 678.675 357.356 676.867 333.097C675.058 308.837 673.25 314.111 675.058 295.878C676.716 277.646 666.771 253.989 666.62 245.098C666.47 236.208 667.223 205.77 664.511 191.456C661.798 177.141 657.73 166.593 650.949 143.388C643.415 117.471 629.251 102.855 618.251 106.471C607.252 110.088 605.443 121.539 606.8 125.758C601.978 116.265 598.813 110.69 595.8 107.074C593.54 104.362 587.362 99.6905 582.238 98.9371C578.471 98.3343 569.28 99.0877 565.211 108.43C561.294 109.786 560.842 118.827 560.992 121.389C559.938 115.663 557.979 107.526 556.321 104.964C554.513 102.403 551.047 98.3343 546.225 96.2248C541.404 94.1152 529.048 94.8687 525.883 97.4302C522.719 99.9918 516.993 105.266 517.445 110.389C517.897 115.663 519.555 120.334 519.856 133.745C520.158 147.155 524.527 175.483 525.431 182.565C526.335 189.648 538.541 254.893 538.541 254.893C538.541 254.893 538.089 255.948 537.335 255.194C536.733 254.441 522.418 174.881 517.295 163.128C519.253 150.621 520.459 115.211 512.322 107.375C508.856 99.5398 487.761 93.3618 479.775 110.992C471.789 128.471 474.35 159.813 472.843 171.867C471.337 183.922 472.994 210.743 474.501 218.729C473.446 210.592 470.734 203.058 466.063 198.387C461.392 193.716 453.707 189.045 448.282 187.086C443.913 185.579 438.337 187.538 435.926 190.1C435.022 191.004 433.817 191.908 432.461 192.058C431.406 192.209 430.803 192.51 430.803 192.51C430.803 194.921 432.461 206.524 438.337 218.126C439.091 219.633 439.543 221.291 439.241 222.948C438.639 227.318 440.145 236.359 438.488 242.838C436.529 250.674 434.269 256.098 437.735 265.139C438.036 269.961 439.543 274.783 441.2 276.591C440.748 283.07 441.652 289.248 447.68 304.015C455.214 322.549 451.447 343.042 456.72 353.589C461.994 364.137 468.323 367.753 475.254 378.603C482.035 389.452 508.555 423.355 519.404 431.944C530.253 440.533 534.774 449.724 534.774 449.724" stroke="#808285" stroke-width="2" stroke-miterlimit="10"/>
<path d="M479.624 346.206C480.076 338.522 483.542 325.412 483.843 320.741C484.295 316.07 482.939 322.7 482.638 302.509C482.487 282.167 480.679 250.222 477.364 235.907C474.049 221.593 474.953 218.73 473.446 213.606" stroke="#808285" stroke-width="2" stroke-miterlimit="10"/>
<path d="M590.074 241.935C586.759 236.962 582.992 228.222 582.54 205.017C582.088 181.812 575.157 176.237 574.705 160.265C574.253 144.293 562.801 139.17 560.842 121.69" stroke="#808285" stroke-width="2" stroke-miterlimit="10"/>
<path d="M630.758 236.208C630.909 230.482 631.059 201.551 628.046 184.223C625.032 166.895 622.018 160.265 618.402 152.58C614.635 144.744 608.306 132.841 606.498 125.909" stroke="#808285" stroke-width="2" stroke-miterlimit="10"/>
<g opacity="0.5">
<path d="M439.242 193.867C440.598 194.169 441.804 194.922 443.009 195.826C444.064 196.881 444.817 198.086 445.269 199.442C446.023 202.155 446.776 204.716 447.228 207.579C447.68 210.291 448.132 213.154 447.831 216.017C447.831 216.771 447.53 217.524 447.379 218.127C447.078 218.88 446.626 219.483 446.023 219.935C444.817 220.99 443.311 221.141 441.954 220.689C443.311 220.839 444.667 220.387 445.571 219.332C446.475 218.428 446.626 217.072 446.626 215.716C446.626 213.004 446.174 210.292 445.722 207.73C445.269 205.018 444.667 202.305 444.064 199.744C443.612 197.333 441.804 195.073 439.242 193.867Z" fill="#AEB0B2"/>
</g>
<path opacity="0.33" d="M317.641 452.586C322.764 442.792 331.353 423.957 340.243 416.724C349.133 409.491 384.845 362.177 395.091 352.835C405.338 343.493 411.365 335.356 411.666 322.096C411.968 308.836 411.666 311.247 412.872 294.973C414.077 278.7 415.132 260.768 414.83 256.399C415.885 253.385 416.639 242.235 414.83 241.029C415.885 239.673 416.036 234.098 412.872 226.564C409.707 219.03 411.063 213.756 409.707 209.386C410.461 204.715 414.378 183.167 411.666 174.277C403.379 166.592 380.927 174.88 372.037 202.153C363.147 229.427 366.462 241.029 369.777 244.043C366.612 246.152 365.859 259.111 364.955 265.59C364.051 272.07 362.996 277.796 363.749 279.302C361.188 279.754 357.722 289.549 357.722 292.713C357.722 295.877 353.352 288.042 341.9 288.042C342.503 276.891 341.298 256.549 356.065 219.783C370.831 183.017 366.763 173.825 369.325 166.743C371.886 159.812 378.064 144.141 376.557 125.908C375.05 107.676 367.064 99.3882 358.174 98.7855C349.284 98.1828 342.503 109.785 341.298 114.456C339.942 118.977 337.681 140.524 335.27 146.853C332.86 153.182 317.942 184.674 313.12 193.564C308.298 202.455 296.244 236.057 293.984 237.413C291.874 238.769 284.792 231.386 291.874 211.345C298.805 191.304 301.819 177.291 302.573 173.373C306.942 170.962 316.737 158.456 321.408 145.346C326.23 132.388 333.161 113.251 322.312 103.457C311.463 93.6623 300.011 101.046 296.545 106.32C293.08 111.593 286.148 129.977 286.148 129.977C286.148 129.977 276.203 133.292 268.066 142.935C262.039 143.387 257.519 149.264 257.519 149.264C257.519 149.264 252.998 146.702 244.259 148.36C244.259 142.785 240.793 109.936 221.054 111.593C216.232 108.278 209.15 113.402 208.396 121.689C207.643 129.826 209.15 156.798 209.3 160.113C205.232 160.414 193.027 164.935 190.013 178.496C187 192.058 190.013 239.07 189.109 252.782C188.205 266.494 175.849 278.398 174.794 297.836C173.74 317.274 177.205 371.218 178.561 382.369C179.918 393.519 179.465 428.176 165 452.285H317.641V452.586Z" fill="#E0E1E2"/>
<path d="M317.641 452.586C322.764 442.792 331.353 423.957 340.243 416.724C349.133 409.491 384.845 362.177 395.091 352.835C405.338 343.493 411.365 335.356 411.666 322.096C411.968 308.836 411.666 311.247 412.872 294.973C414.077 278.7 415.132 260.768 414.83 256.399C415.885 253.385 416.639 242.235 414.83 241.029C415.885 239.673 416.036 234.098 412.872 226.564C409.707 219.03 411.063 213.756 409.707 209.386C410.461 204.715 414.378 183.167 411.666 174.277C403.379 166.592 380.927 174.88 372.037 202.153C363.147 229.427 366.462 241.029 369.777 244.043C366.612 246.152 365.859 259.111 364.955 265.59C364.051 272.07 362.996 277.796 363.749 279.302C361.188 279.754 357.722 289.549 357.722 292.713C357.722 295.877 353.352 288.042 341.9 288.042C342.503 276.891 341.298 256.549 356.065 219.783C370.831 183.017 366.763 173.825 369.325 166.743C371.886 159.812 378.064 144.141 376.557 125.908C375.05 107.676 367.064 99.3882 358.174 98.7855C349.284 98.1828 342.503 109.785 341.298 114.456C339.942 118.977 337.681 140.524 335.27 146.853C332.86 153.182 317.942 184.674 313.12 193.564C308.298 202.455 296.244 236.057 293.984 237.413C291.874 238.769 284.792 231.386 291.874 211.345C298.805 191.304 301.819 177.291 302.573 173.373C306.942 170.962 316.737 158.456 321.408 145.346C326.23 132.388 333.161 113.251 322.312 103.457C311.463 93.6623 300.011 101.046 296.545 106.32C293.08 111.593 286.148 129.977 286.148 129.977C286.148 129.977 276.203 133.292 268.066 142.935C262.039 143.387 258.121 148.661 258.121 148.661C258.121 148.661 252.998 146.702 244.259 148.36C244.259 142.785 240.793 109.936 221.054 111.593C216.232 108.278 209.15 113.402 208.396 121.689C207.643 129.826 209.15 156.798 209.3 160.113C205.232 160.414 193.027 164.935 190.013 178.496C187 192.058 190.013 239.07 189.109 252.782C188.205 266.494 175.849 278.398 174.794 297.836C173.74 317.274 177.205 371.218 178.561 382.369C179.918 393.519 179.465 428.176 165 452.285" stroke="#808285" stroke-width="2" stroke-miterlimit="10"/>
<path d="M256.313 148.511C256.313 148.511 258.121 147.306 243.957 148.662C229.793 150.018 227.834 157.251 221.204 157.854C207.492 159.059 192.574 165.237 189.711 178.798C186.698 192.36 189.711 239.372 188.807 253.085" stroke="#2969D0" stroke-width="3" stroke-miterlimit="10" stroke-linecap="round"/>
<path d="M219.246 246.604C224.519 241.028 229.793 237.713 234.163 213.604C238.533 189.495 248.026 169.153 249.382 163.879C250.738 158.606 256.012 149.113 260.984 145.948" stroke="#808285" stroke-width="2" stroke-miterlimit="10"/>
<g opacity="0.5">
<path d="M408.352 176.085C404.735 177.441 401.42 179.852 399.612 183.167C397.804 186.482 396.9 190.249 396.598 194.016C396.448 194.92 396.448 195.975 396.448 196.879V198.235C396.448 198.687 396.598 199.139 396.598 199.591C396.749 201.4 397.201 203.358 398.105 204.865C399.763 208.18 403.53 210.139 407.448 210.29C405.489 210.591 403.53 210.139 401.571 209.386C399.763 208.632 398.105 207.125 397.05 205.317C395.996 203.509 395.393 201.55 395.092 199.591C395.092 199.139 394.941 198.537 394.941 198.085V196.578C394.941 195.523 394.941 194.619 395.092 193.564C395.242 191.605 395.694 189.646 396.146 187.687C396.749 185.729 397.503 183.92 398.708 182.263C399.913 180.605 401.27 179.099 402.927 178.044C404.585 177.14 406.393 176.386 408.352 176.085Z" fill="#AEB0B2"/>
</g>
</svg>
