<svg width="900" height="500" viewBox="0 0 900 500" fill="none" xmlns="http://www.w3.org/2000/svg">
<path opacity="0.33" d="M327.41 430.327C329.284 428.02 337.356 419.659 346.15 410.865C354.943 402.072 372.963 371.078 378.297 364.88C383.631 358.681 397.758 343.4 401.218 335.76C404.677 328.12 400.929 303.613 401.218 295.973C401.506 288.333 405.11 251.861 402.659 242.347C400.209 232.832 396.316 228.94 393.145 222.309C389.973 215.678 389.397 213.66 386.514 211.641C383.631 209.623 385.36 192.324 385.937 189.874C386.514 187.423 388.532 176.323 388.532 172.431C388.532 168.539 388.532 157.439 391.559 149.222C394.586 141.005 392.568 116.354 387.379 108.57C382.189 100.785 378.008 98.9111 371.81 98.4786C365.611 98.0461 358.836 104.101 357.106 107.849C355.376 111.597 353.069 115.057 350.475 145.618C346.871 153.835 339.951 161.042 336.924 170.989C333.897 180.936 325.824 206.019 323.95 216.398C322.076 226.778 311.408 240.905 315.733 233.265C320.058 225.769 319.625 207.317 327.698 182.81C335.771 158.303 334.762 159.889 334.762 158.592C334.762 157.294 339.519 152.826 341.104 142.158C344.132 137.257 350.042 112.894 339.086 105.831C338.942 100.785 335.627 97.3254 326.545 95.8838C317.463 94.4422 314.147 96.7487 312.129 102.371C308.813 103.236 303.768 115.489 302.903 125.58C300.452 127.022 288.632 138.987 286.325 143.455C284.019 147.924 277.532 170.413 276.234 176.179C274.937 181.945 266.576 217.984 264.269 221.3C261.963 224.615 260.954 226.922 262.828 219.858C264.702 212.795 273.351 170.268 277.099 162.628C280.847 154.988 281.28 148.645 291.659 133.797C302.038 118.949 300.597 111.741 298.723 106.984C296.848 102.227 295.407 98.1903 286.613 96.7487C277.82 95.3072 272.774 102.659 272.774 102.659C272.774 102.659 267.441 104.245 254.611 118.084C251.872 112.75 248.124 108.714 248.124 108.714C248.124 108.714 245.385 102.947 237.6 101.794C229.816 100.641 226.644 109.002 226.212 112.029C223.617 112.029 218.283 123.994 216.409 135.959C214.535 148.068 211.508 165.367 208.336 175.602C205.165 185.837 203.147 194.343 202.426 201.839C201.705 209.335 197.669 219.858 196.948 229.661C196.227 239.464 184.839 267.574 184.262 276.512C183.542 285.449 183.974 316.011 183.109 323.074C182.244 330.138 180.947 353.924 183.109 367.619C185.271 381.169 184.262 393.711 181.956 400.486C179.649 407.261 171 429.75 171 429.75H327.41V430.327Z" fill="#445272"/>
<path d="M327.41 430.327C329.284 428.02 337.356 419.659 346.15 410.865C354.943 402.072 372.963 371.078 378.297 364.88C383.631 358.681 397.758 343.4 401.218 335.76C404.677 328.12 400.929 303.613 401.218 295.973C401.506 288.333 405.11 251.861 402.659 242.347C400.209 232.832 396.316 228.94 393.145 222.309C389.973 215.678 389.397 213.66 386.514 211.641C383.631 209.623 385.36 192.324 385.937 189.874C386.514 187.423 388.532 176.323 388.532 172.431C388.532 168.539 388.532 157.439 391.559 149.222C394.586 141.005 392.568 116.354 387.379 108.57C382.189 100.785 378.008 98.9111 371.81 98.4786C365.611 98.0461 358.836 104.101 357.106 107.849C355.376 111.597 353.069 115.057 350.475 145.618C346.871 153.835 339.951 161.042 336.924 170.989C333.897 180.936 325.824 206.019 323.95 216.398C322.076 226.778 311.408 240.905 315.733 233.265C320.058 225.769 319.625 207.317 327.698 182.81C335.771 158.303 334.762 159.889 334.762 158.592C334.762 157.294 339.519 152.826 341.104 142.158C344.132 137.257 350.042 112.894 339.086 105.831C338.942 100.785 335.627 97.3254 326.545 95.8838C317.463 94.4422 314.147 96.7487 312.129 102.371C308.813 103.236 303.768 115.489 302.903 125.58C300.452 127.022 288.632 138.987 286.325 143.455C284.019 147.924 277.532 170.413 276.234 176.179C274.937 181.945 266.576 217.984 264.269 221.3C261.963 224.615 260.954 226.922 262.828 219.858C264.702 212.795 273.351 170.268 277.099 162.628C280.847 154.988 281.28 148.645 291.659 133.797C302.038 118.949 300.597 111.741 298.723 106.984C296.848 102.227 295.407 98.1903 286.613 96.7487C277.82 95.3072 272.774 102.659 272.774 102.659C272.774 102.659 267.441 104.245 254.611 118.084C251.872 112.75 248.124 108.714 248.124 108.714C248.124 108.714 245.385 102.947 237.6 101.794C229.816 100.641 226.644 109.002 226.212 112.029C223.617 112.029 218.283 123.994 216.409 135.959C214.535 148.068 211.508 165.367 208.336 175.602C205.165 185.837 203.147 194.343 202.426 201.839C201.705 209.335 197.669 219.858 196.948 229.661C196.227 239.464 184.839 267.574 184.262 276.512C183.542 285.449 183.974 316.011 183.109 323.074C182.244 330.138 180.947 353.924 183.109 367.619C185.271 381.169 184.262 393.711 181.956 400.486C179.649 407.261 171 429.75 171 429.75" stroke="#697695" stroke-width="2" stroke-miterlimit="10"/>
<path d="M212.805 225.912C216.841 221.588 220.157 214.957 220.445 208.037C220.733 201.118 220.012 165.223 229.094 151.528C238.176 137.833 254.754 118.66 254.754 118.66" stroke="#697695" stroke-width="2" stroke-miterlimit="10"/>
<path d="M373.826 309.957C371.808 306.208 369.357 303.758 369.357 300.875C369.357 297.992 370.943 264.98 372.673 253.159C374.259 241.338 382.331 207.173 385.07 200.109" stroke="#697695" stroke-width="2" stroke-miterlimit="10"/>
<path opacity="0.33" d="M520.322 428.693C518.918 425.886 516.532 421.675 512.883 416.903C507.83 410.306 504.461 408.06 498.426 401.744C492.671 395.568 489.022 390.655 484.53 384.339C481.302 379.848 480.881 378.725 470.494 361.601C457.721 340.406 451.405 329.879 449.721 327.774C448.878 326.791 446.773 324.405 445.089 320.615C443.264 316.404 442.983 312.755 442.562 307.983C442.001 299.982 441.72 295.912 441.58 291.42C441.299 285.244 440.316 280.051 438.632 269.384C437.65 263.067 436.527 257.453 435.123 247.066C434.983 246.505 434.983 245.663 434.842 244.54C434.281 241.171 433.579 240.89 433.439 238.785C433.298 237.101 433.86 236.82 433.579 234.995C433.439 233.592 433.158 232.75 433.018 232.188C432.316 229.662 433.439 227.275 434.281 225.17C435.825 221.521 442.703 211.134 453.37 197.94C451.966 194.431 450.142 189.518 448.177 183.623C445.65 176.044 442.281 165.938 439.615 153.305C437.369 142.357 438.351 142.638 435.544 129.023C433.86 120.742 433.158 119.198 431.895 111.618C429.789 99.4068 429.93 93.652 430.07 90.0026C430.631 82.1424 432.175 78.072 432.877 76.528C434.421 73.019 436.527 68.3871 441.299 66.1413C445.089 64.457 448.738 65.0184 450.703 65.4395C457.861 66.7028 462.213 71.475 463.897 73.2997C468.529 78.2124 470.073 83.6864 471.055 86.9147C471.757 89.1605 472.178 91.4063 472.74 94.2135C473.722 98.705 473.863 100.67 474.284 103.477C475.687 111.478 478.214 117.513 479.617 120.882C480.46 122.987 481.863 125.654 484.67 130.988C490.566 142.217 490.566 141.655 493.092 146.849C496.741 154.147 499.268 160.183 502.496 168.324C502.777 168.885 505.444 175.763 506.426 178.149C508.111 182.5 508.953 184.465 511.058 185.729C511.339 185.869 514.567 187.553 517.094 185.729C518.217 185.027 518.497 183.764 519.339 181.518C520.182 179.132 520.462 177.167 520.462 176.886C521.164 171.412 520.883 164.394 520.743 162.71C521.305 152.744 520.743 145.024 520.182 139.69C519.48 133.374 519.901 126.918 518.497 120.742C518.217 119.619 517.655 116.952 518.217 113.724C518.918 110.215 520.603 107.688 521.585 106.425C526.638 99.5472 535.06 96.5996 536.885 95.8978C537.586 95.6171 553.026 90.8448 567.203 99.2665C568.887 100.249 570.01 102.214 570.992 101.933C577.589 99.9683 586.432 103.056 595.134 106.846C600.608 109.372 605.942 112.18 610.434 114.285C611.697 114.285 618.855 115.689 624.891 121.303C623.347 119.899 624.47 116.25 625.171 112.601C625.733 109.513 626.856 107.267 626.996 106.706C629.382 101.793 633.032 98.705 635.418 97.161C636.12 96.3189 637.242 95.0556 638.927 94.0731C640.05 93.3713 642.576 91.8273 645.524 92.2484C648.05 92.5291 649.594 94.0731 651.419 95.7574C654.647 98.8454 655.91 102.495 656.472 104.179C657.033 105.723 657.314 106.986 657.454 107.969C658.437 109.372 659.7 111.337 660.963 113.724C664.472 120.18 666.157 125.514 666.718 127.619C668.122 132.392 668.543 136.041 669.525 143.62C670.508 151.34 669.806 151.06 670.648 155.972C671.771 162.008 672.894 163.411 673.315 168.745C673.596 172.254 673.456 174.64 673.175 178.29C673.034 180.956 672.613 184.044 670.648 194.992C669.385 201.73 668.824 205.098 667.841 209.169C666.438 215.204 665.034 220.398 663.911 224.328C663.771 226.574 663.63 229.802 663.49 233.732C662.788 249.172 662.367 256.892 662.086 259.839C660.542 275.7 658.437 276.823 658.718 288.332C658.858 292.964 659.139 293.105 659.56 301.246C659.981 311.352 659.841 319.071 659.7 322.3C659.279 336.476 658.016 338.16 658.156 350.512C658.156 357.39 658.577 362.583 658.718 363.987C659.56 374.514 661.385 382.234 663.069 390.094C665.034 398.937 666.016 403.288 668.122 409.043C671.35 417.745 675.14 424.482 677.947 428.974C625.873 428.553 573.098 428.553 520.322 428.693Z" fill="#445272"/>
<g opacity="0.5">
<path d="M435.824 79.1942C436.245 80.5978 436.807 82.0014 437.508 83.2647C437.929 83.8261 438.351 84.5279 438.772 84.8087C439.052 84.949 439.333 85.0894 439.614 85.0894C439.894 85.0894 440.316 85.0894 440.596 85.0894C443.544 84.6683 446.491 84.2472 449.299 83.5454C452.246 82.984 455.053 82.2822 457.72 81.0189C458.282 80.7382 458.984 80.3171 459.264 79.896C459.405 79.6153 459.405 79.475 459.405 79.0539L459.545 77.931C459.685 76.5274 459.545 74.9834 459.264 73.4395C459.826 74.8431 460.106 76.387 460.247 77.931V79.0539C460.247 79.3346 460.247 79.896 460.106 80.3171C459.685 81.1593 458.984 81.5804 458.282 82.0015C455.615 83.5454 452.527 84.2472 449.579 84.949C446.632 85.5105 443.684 85.9315 440.596 86.0719C440.175 86.0719 439.895 86.0719 439.473 86.0719C439.052 86.0719 438.631 85.7912 438.21 85.5105C437.508 84.949 437.228 84.2472 436.807 83.5454C436.385 82.2822 436.105 80.7382 435.824 79.1942Z" fill="#B1BBD0"/>
</g>
<path d="M520.322 428.692C518.918 425.885 516.532 421.674 512.883 416.902C507.83 410.305 504.461 408.059 498.426 401.743C492.671 395.567 489.021 390.655 484.53 384.338C481.301 379.847 480.88 378.724 470.494 361.6C457.721 340.406 451.405 329.879 449.72 327.773C448.878 326.791 446.773 324.404 445.088 320.615C443.264 316.404 442.983 312.755 442.562 307.982C442 299.982 441.72 295.911 441.579 291.42C441.299 285.244 440.316 280.05 438.632 269.383C437.649 263.067 436.526 257.452 435.123 247.066C434.982 246.504 434.982 245.662 434.842 244.539C434.281 241.171 433.579 240.89 433.438 238.784C433.298 237.1 433.86 236.819 433.579 234.995C433.438 233.591 433.158 232.749 433.017 232.187C432.316 229.661 433.438 227.275 434.281 225.169C435.825 221.52 442.702 211.133 453.37 197.939" stroke="#697695" stroke-width="2" stroke-miterlimit="10"/>
<path d="M515.27 186.289C515.972 186.148 516.814 186.008 517.516 185.447C518.639 184.745 518.92 183.482 519.762 181.236C520.604 178.85 520.885 176.885 520.885 176.604C521.587 171.13 521.306 164.112 521.166 162.427C521.727 152.462 521.166 144.742 520.604 139.408C519.902 133.092 520.323 126.635 518.92 120.46C518.639 119.337 518.078 116.67 518.639 113.442C519.341 109.933 521.025 107.406 522.008 106.143C527.061 99.2652 535.482 96.1773 537.307 95.6158C559.624 89.2996 571.415 101.651 571.415 101.651C577.591 99.8267 585.731 100.95 594.855 106.564C594.995 106.704 595.276 106.704 595.416 106.845C602.294 108.389 607.628 111.336 610.014 113.161C610.716 113.722 611.417 114.003 612.26 114.284C614.926 114.845 620.541 116.67 625.313 121.161C623.769 119.758 624.892 116.108 625.594 112.459C626.155 109.371 627.278 107.125 627.419 106.564C629.805 101.651 633.454 98.5634 635.84 97.0195C636.542 96.1773 637.665 94.914 639.349 93.9315C640.472 93.2297 642.858 91.6857 645.806 92.1068C646.367 92.1068 647.069 92.3876 647.631 92.6683C654.087 96.0369 656.193 101.792 656.894 104.178C657.456 105.722 657.737 106.985 657.877 107.967C658.859 109.371 660.123 111.336 661.386 113.722C664.895 120.179 666.579 125.513 667.141 127.618C668.544 132.39 668.965 136.04 669.948 143.619C670.93 151.339 670.229 151.058 671.071 155.971C672.194 162.006 673.317 163.41 673.738 168.744C674.018 172.253 673.878 174.639 673.597 178.288C673.457 180.955 673.036 184.043 671.071 194.991C669.808 201.728 669.246 205.097 668.264 209.168C666.86 215.203 665.456 220.396 664.333 224.327C664.193 226.572 664.053 229.801 663.912 233.731C663.211 249.17 662.79 256.89 662.509 259.838C660.965 275.699 658.859 276.821 659.14 288.331C659.281 292.963 659.561 293.103 659.982 301.244C660.403 311.35 660.263 319.07 660.123 322.298C659.702 336.475 658.438 338.159 658.579 350.511C658.579 357.389 659 362.582 659.14 363.985C659.982 374.513 661.807 382.232 663.491 390.093C665.456 398.935 666.439 403.286 668.544 409.041C671.773 417.744 675.562 424.481 678.37 428.973" stroke="#697695" stroke-width="2" stroke-miterlimit="10"/>
<path d="M630.785 136.743C630.645 138.006 630.505 139.41 630.224 141.796C629.241 151.2 628.82 157.797 628.54 161.026C628.118 166.5 627.276 174.36 625.592 184.606C626.434 178.851 626.575 171.833 629.522 164.675C629.943 163.552 630.505 162.57 630.926 161.447C630.785 158.78 630.645 155.551 630.926 152.183C631.206 148.253 631.908 144.744 632.61 141.796C629.943 134.357 627.276 127.058 624.75 119.619" stroke="#697695" stroke-width="2" stroke-miterlimit="10"/>
<path d="M585.449 193.589C584.747 191.624 583.765 189.238 582.361 186.711C581.378 184.887 580.256 183.343 579.133 181.939C578.712 172.254 578.712 164.394 578.712 158.78C578.712 147.41 577.589 136.041 578.712 124.812C578.992 122.567 579.413 118.496 578.01 113.443C576.606 108.109 573.799 104.32 571.834 101.934" stroke="#697695" stroke-width="2" stroke-miterlimit="10"/>
<path d="M461.23 301.386C461.651 297.877 462.353 295.07 463.195 292.824C465.862 285.244 468.389 280.191 470.494 276.402C471.617 274.437 470.775 272.191 470.634 268.261C470.354 263.629 469.792 261.664 468.529 253.383C467.406 246.505 466.845 243.136 466.564 240.61C466.003 233.171 467.125 233.03 466.564 227.275C466.283 225.03 465.862 222.924 465.441 221.1" stroke="#697695" stroke-width="2" stroke-miterlimit="10"/>
<path d="M465.301 221.1C464.318 217.169 462.914 214.082 461.932 211.836C459.827 207.204 450.142 189.518 448.177 183.623C445.65 176.044 442.281 165.938 439.615 153.305C437.369 142.357 438.351 142.638 435.544 129.023C433.86 120.742 433.158 119.198 431.895 111.618C429.789 99.4068 429.93 93.652 430.07 90.0026C430.631 82.1424 432.175 78.072 432.877 76.528C434.421 73.019 436.527 68.3871 441.299 66.1413C445.089 64.457 448.738 65.0184 450.703 65.4395C457.861 66.7028 462.213 71.475 463.897 73.2997C468.529 78.2124 470.073 83.6864 471.055 86.9147C471.757 89.1605 472.178 91.4063 472.74 94.2135C473.722 98.705 473.863 100.67 474.284 103.477C475.687 111.478 478.214 117.513 479.617 120.882C480.46 122.987 481.863 125.654 484.67 130.988C490.566 142.217 490.566 141.655 493.092 146.849C496.741 154.147 499.268 160.183 502.496 168.324C502.777 168.885 505.444 175.763 506.426 178.149C508.111 182.5 508.953 184.465 511.058 185.729C511.339 185.869 513.023 186.711 514.848 186.571" stroke="#BA6DCD" stroke-width="3" stroke-miterlimit="10" stroke-linecap="round"/>
</svg>
