<svg width="900" height="500" viewBox="0 0 900 500" fill="none" xmlns="http://www.w3.org/2000/svg">
<path opacity="0.33" d="M350.977 429.161C356.313 422.383 372.176 398.876 377.224 391.088C382.271 383.301 393.664 356.765 398.423 350.708C403.182 344.651 408.951 337.008 406.355 319.125C403.904 301.243 401.74 295.042 403.183 269.516C404.625 243.99 400.154 238.942 394.241 226.684C393.087 219.329 391.213 217.31 388.473 215.147C388.905 210.099 391.501 190.053 393.087 179.814C394.818 169.575 391.357 172.748 393.087 150.971C394.818 129.195 388.905 113.764 385.156 109.293C384.579 104.967 380.397 100.063 372.753 98.4771C365.254 96.7465 358.332 103.669 358.332 106.697C355.88 107.563 348.093 118.234 351.986 153.134C343.478 173.469 338.142 194.38 336.988 201.446C335.69 208.513 329.921 240.384 327.614 239.086C325.307 237.788 334.536 207.359 337.276 188.467C340.016 169.575 342.901 156.451 344.631 147.51C346.362 138.569 346.506 109.293 336.7 105.688C334.392 98.3329 327.326 96.4581 320.836 96.0254C314.346 95.5928 308.866 100.784 308.722 103.813C305.838 104.823 302.809 118.811 304.107 138.28C297.617 145.203 288.82 167.123 279.014 215.291C279.014 215.291 282.186 168.421 288.243 149.241C294.445 130.06 298.915 122.561 295.31 111.889C297.041 106.842 292.281 103.092 285.792 101.073C279.302 99.0539 271.947 102.515 270.505 106.553C265.313 107.418 256.66 122.849 252.911 135.108C245.989 147.366 237.768 168.998 234.596 181.256C231.423 193.514 229.981 238.365 228.106 241.394C226.231 244.422 222.914 244.711 220.318 241.826C217.723 238.942 217.001 238.077 216.28 232.741C215.559 227.261 214.261 217.743 212.675 210.676C211.233 203.609 209.502 189.621 210.079 184.429C210.656 179.237 217.29 170.007 216.569 157.893C215.848 145.779 208.204 141.165 206.185 139.578C204.166 138.136 201.859 134.675 194.937 136.55C188.014 138.425 184.697 154.288 184.697 154.288C184.697 154.288 175.9 171.45 174.458 175.343C173.016 179.237 173.304 183.996 171.862 190.342C170.42 196.687 172.295 203.033 170.132 209.378C168.113 215.724 168.978 226.107 171.285 234.76C173.593 243.413 171.862 243.845 173.737 250.479C175.612 256.969 179.361 265.91 180.659 272.111C181.957 278.313 181.525 292.013 182.39 302.685C183.255 313.357 188.159 319.27 189.456 333.258C190.754 347.247 193.494 386.185 195.369 397.434C197.244 408.683 198.398 412.144 192.773 429.45H350.977V429.161Z" fill="#E0E1E2"/>
<path d="M350.977 429.161C356.313 422.383 372.176 398.876 377.224 391.088C382.271 383.301 393.664 356.765 398.423 350.708C403.182 344.651 408.951 337.008 406.355 319.125C403.904 301.243 401.74 295.042 403.183 269.516C404.625 243.99 400.154 238.942 394.241 226.684C393.087 219.329 391.213 217.31 388.473 215.147C388.905 210.099 391.501 190.053 393.087 179.814C394.818 169.575 391.357 172.748 393.087 150.971C394.818 129.195 388.905 113.764 385.156 109.293C384.579 104.967 380.397 100.063 372.753 98.4771C365.254 96.7465 358.332 103.669 358.332 106.697C355.88 107.563 348.093 118.234 351.986 153.134C343.478 173.469 338.142 194.38 336.988 201.446C335.69 208.513 329.921 240.384 327.614 239.086C325.307 237.788 334.536 207.359 337.276 188.467C340.016 169.575 342.901 156.451 344.631 147.51C346.362 138.569 346.506 109.293 336.7 105.688C334.392 98.3329 327.326 96.4581 320.836 96.0254C314.346 95.5928 308.866 100.784 308.722 103.813C305.838 104.823 302.809 118.811 304.107 138.28C297.617 145.203 288.82 167.123 279.014 215.291C279.014 215.291 282.186 168.421 288.243 149.241C294.445 130.06 298.915 122.561 295.31 111.889C297.041 106.842 292.281 103.092 285.792 101.073C279.302 99.0539 271.947 102.515 270.505 106.553C265.313 107.418 256.66 122.849 252.911 135.108C245.989 147.366 237.768 168.998 234.596 181.256C231.423 193.514 229.981 238.365 228.106 241.394C226.231 244.422 222.914 244.711 220.318 241.826C217.723 238.942 217.001 238.077 216.28 232.741C215.559 227.261 214.261 217.743 212.675 210.676C211.233 203.609 209.502 189.621 210.079 184.429C210.656 179.237 217.29 170.007 216.569 157.893C215.848 145.779 208.204 141.165 206.185 139.578C204.166 138.136 201.859 134.675 194.937 136.55C188.014 138.425 184.697 154.288 184.697 154.288C184.697 154.288 175.9 171.45 174.458 175.343C173.016 179.237 173.304 183.996 171.862 190.342C170.42 196.687 172.295 203.033 170.132 209.378C168.113 215.724 168.978 226.107 171.285 234.76C173.593 243.413 171.862 243.845 173.737 250.479C175.612 256.969 179.361 265.91 180.659 272.111C181.957 278.313 181.525 292.013 182.39 302.685C183.255 313.357 188.159 319.27 189.456 333.258C190.754 347.247 193.494 386.185 195.369 397.434C197.244 408.683 198.398 412.144 192.773 429.45" stroke="#75819C" stroke-width="2" stroke-miterlimit="10"/>
<path d="M220.462 241.539C217.866 238.511 217.145 237.789 216.424 232.454C215.703 226.973 214.405 217.455 212.819 210.389C211.376 203.322 209.646 189.333 210.223 184.142C210.8 178.95 217.433 169.72 216.712 157.606C215.991 145.492 208.348 140.877 206.329 139.291C204.31 137.849 202.002 134.388 195.08 136.262C188.158 138.137 184.841 154.001 184.841 154.001C184.841 154.001 176.044 171.162 174.602 175.056C173.16 178.95 173.448 183.709 172.006 190.054C170.564 196.4 172.438 202.745 170.275 209.091C168.256 215.436 169.122 225.82 171.429 234.473C173.736 243.125 172.006 243.558 173.881 250.192C175.755 256.682 179.505 265.623 180.803 271.824" stroke="#F69AED" stroke-width="3" stroke-miterlimit="10" stroke-linecap="round"/>
<g opacity="0.5">
<path d="M188.159 155.298C189.89 154.865 191.765 154.865 193.495 154.433C195.226 154 196.668 153.279 197.966 152.125C199.264 151.116 200.562 149.818 201.715 148.376C202.292 147.655 202.869 146.933 203.446 146.357C204.023 145.636 204.455 144.914 205.176 144.193C204.888 145.059 204.455 145.924 204.023 146.789C203.59 147.655 203.157 148.376 202.581 149.241C201.571 150.827 200.273 152.269 198.831 153.423C197.389 154.577 195.514 155.442 193.639 155.586C191.765 155.875 190.034 155.298 188.159 155.298Z" fill="#75819C"/>
</g>
<path d="M378.81 291.581C378.522 280.909 377.079 261.007 378.81 249.037C380.541 237.212 388.617 215.291 388.617 215.291" stroke="#75819C" stroke-width="2" stroke-miterlimit="10"/>
<path d="M271.658 238.798C274.687 232.164 278.436 222.79 279.013 215.146" stroke="#75819C" stroke-width="2" stroke-miterlimit="10"/>
<path opacity="0.33" d="M535.279 424.758C525.44 417.168 517.709 410.702 512.368 406.204C502.529 397.771 501.826 396.365 495.36 391.586C489.878 387.51 484.537 383.153 479.055 379.076C475.401 376.406 473.855 375.141 472.308 372.751C469.638 368.956 469.497 365.864 467.811 358.274C467.811 358.274 466.264 350.824 463.875 343.093C461.485 334.941 458.393 328.615 457.128 326.085C454.457 320.744 451.506 315.965 448.835 308.797C448.554 308.094 448.273 307.25 447.711 305.985C445.321 299.801 443.494 296.427 442.65 294.319C442.088 292.913 441.104 290.383 440.683 279.42C440.401 273.516 440.261 265.645 440.823 255.946C438.715 252.573 436.606 248.356 434.498 243.436C432.249 237.955 430.984 233.035 430 228.818C431.406 227.694 433.795 226.007 437.028 224.883C443.634 222.634 449.257 224.18 450.943 224.742C452.068 225.023 456.144 226.429 463.172 232.754C467.248 236.549 473.152 242.031 477.79 251.589C479.618 255.243 483.694 263.958 483.553 275.343C483.553 276.749 483.413 277.873 483.413 278.717C485.24 281.528 487.067 284.339 488.894 287.432C491.284 291.367 493.392 295.303 495.36 299.098C487.911 277.873 480.32 256.508 472.871 235.284C472.027 232.473 470.903 228.537 470.059 223.618C468.935 217.292 468.794 212.513 468.794 208.999C468.513 192.554 468.373 184.401 469.357 178.076C470.341 171.048 475.822 151.229 478.071 148.559C479.055 147.575 480.461 146.169 482.569 145.045C483.834 144.342 488.192 141.812 493.955 142.374C501.966 143.077 508.151 149.402 509.697 154.181C509.978 154.884 510.541 156.992 510.822 159.522C511.103 162.052 510.962 163.88 510.962 164.723C510.541 175.827 510.26 181.59 510.4 184.401C510.681 190.867 511.946 195.787 512.508 198.317C513.773 203.517 515.179 206.61 517.287 211.67C522.207 223.899 521.223 223.055 527.127 238.095C528.813 242.593 531.484 248.918 534.857 256.508C538.793 255.806 542.729 255.103 546.664 254.4C546.243 242.452 544.415 233.035 542.729 226.71C541.183 220.806 539.777 217.292 537.669 208.297C536.404 202.674 535.701 198.176 534.576 191.992C533.03 183.136 532.187 176.39 531.906 173.859C530.36 162.052 530.922 162.615 529.797 154.181C528.251 143.639 527.408 142.234 526.424 132.675C525.58 124.664 525.721 120.447 526.564 116.089C527.408 112.294 528.251 108.078 531.765 104.423C532.749 103.299 535.841 100.347 540.761 99.3629C548.07 98.0979 553.692 102.596 554.957 103.72C559.034 106.953 560.58 111.029 562.126 114.965C562.548 116.089 563.672 119.182 564.797 127.334C565.359 131.41 565.921 137.033 566.062 143.78C567.467 146.591 569.435 150.667 571.543 155.587C576.322 166.691 578.993 175.406 581.804 184.542C583.21 189.321 586.443 200.425 589.535 214.903C591.222 222.634 592.346 229.24 593.049 234.441C593.611 234.159 594.174 233.878 594.736 233.597C593.752 226.429 592.768 218.979 591.925 211.529C591.081 204.08 590.8 196.49 589.113 184.823C588.832 182.715 588.551 181.028 588.411 179.904C586.583 175.406 584.756 170.486 582.929 165.145C581.242 159.803 579.836 154.603 578.571 149.824C575.62 143.92 573.23 138.72 571.543 134.503C568.029 126.21 567.467 123.961 567.186 121.852C566.764 118.76 565.921 111.31 570.56 105.407C571.403 104.282 573.933 101.19 578.009 100.206C583.491 98.9412 588.129 102.174 591.643 104.704C598.39 109.343 601.623 115.246 604.294 120.025C606.121 123.399 608.511 128.459 610.057 135.065C611.462 136.892 612.868 139.001 614.274 141.109C616.101 143.92 617.647 146.591 618.912 149.121C617.085 143.499 616.382 138.72 616.241 135.487C615.96 131.973 615.679 128.74 616.663 124.664C617.225 121.852 618.069 118.479 620.739 115.387C621.864 114.122 624.816 110.748 629.595 110.327C635.357 109.764 639.574 113.7 640.136 114.262C641.964 116.933 644.353 120.728 646.602 125.788C648.008 129.162 648.851 131.692 649.976 135.346C651.241 139.282 652.646 144.764 654.052 151.51C657.285 164.583 659.674 175.546 661.361 183.699C664.453 198.598 665.999 206.048 666.421 211.951C666.702 214.903 667.967 230.505 668.951 239.922C669.092 241.047 669.373 243.858 670.076 247.372C670.919 251.589 671.762 254.541 672.184 255.806C672.184 255.806 681.18 304.439 682.585 311.046C684.272 318.636 686.662 329.74 688.348 343.796C690.035 357.852 689.473 362.069 692.144 374.157C693.549 380.622 694.955 384.98 695.236 386.104C696.22 389.056 699.172 398.333 705.356 409.297C707.605 413.373 710.697 418.433 714.774 424.055C655.036 424.336 595.157 424.618 535.279 424.758Z" fill="#E0E1E2"/>
<path d="M539.776 255.524C542.166 255.103 544.555 254.681 546.945 254.259C546.523 242.312 544.696 232.894 543.009 226.569C541.463 220.666 540.057 217.152 537.949 208.156C536.684 202.534 535.981 198.036 534.857 191.851C533.311 182.996 532.467 176.249 532.186 173.719C530.64 161.912 531.202 162.474 530.078 154.04C528.532 143.499 527.688 142.093 526.704 132.535C525.861 124.523 526.002 120.306 526.845 115.949C527.688 112.154 528.532 107.937 532.046 104.282C533.029 103.158 536.122 100.206 541.041 99.2223C548.35 97.9572 553.973 102.455 555.238 103.58C559.314 106.812 560.86 110.889 562.406 114.824C562.828 115.949 563.953 119.041 565.077 127.194C565.639 131.27 566.202 136.892 566.342 143.639C567.748 146.45 569.716 150.527 571.824 155.446C576.603 166.55 579.274 175.265 582.085 184.401C583.49 189.18 586.723 200.285 589.816 214.762C591.502 222.493 592.627 229.099 593.33 234.3C593.892 234.019 594.454 233.738 595.016 233.457C594.032 226.288 593.048 218.838 592.205 211.389C591.362 203.939 591.081 196.349 589.394 184.682C589.113 182.574 588.832 180.887 588.691 179.763C586.864 175.265 585.036 170.345 583.209 165.004C581.522 159.663 580.117 154.462 578.852 149.683C575.9 143.78 573.511 138.579 571.824 134.362C568.31 126.069 567.748 123.82 567.467 121.712C567.045 118.619 566.202 111.17 570.84 105.266C571.683 104.142 574.213 101.05 578.29 100.066C583.771 98.8006 588.41 102.033 591.924 104.564C598.671 109.202 601.904 115.106 604.574 119.885C606.402 123.258 608.791 128.318 610.337 134.924C611.743 136.752 613.148 138.86 614.554 140.968C616.381 143.78 617.927 146.45 619.192 148.98C617.365 143.358 616.662 138.579 616.522 135.346C616.241 131.832 615.96 128.599 616.943 124.523C617.506 121.712 618.349 118.338 621.02 115.246C622.144 113.981 625.096 110.608 629.875 110.186C635.638 109.624 639.855 113.559 640.417 114.122C642.244 116.792 644.634 120.587 646.883 125.647C648.288 129.021 649.132 131.551 650.256 135.206C651.521 139.141 652.927 144.623 654.332 151.37C657.565 164.442 659.955 175.406 661.641 183.558C664.734 198.457 666.28 205.907 666.702 211.81C666.983 214.762 668.248 230.364 669.232 239.782C669.372 240.906 669.653 243.717 670.356 247.231C671.199 251.448 672.043 254.4 672.464 255.665C672.464 255.665 681.46 304.299 682.866 310.905C684.553 318.495 686.942 329.599 688.629 343.655C690.316 357.711 689.753 361.928 692.424 374.016C693.83 380.482 695.235 384.839 695.516 385.964C696.5 388.915 699.452 398.192 705.637 409.156C707.886 413.232 710.978 418.292 715.054 423.915" stroke="#75819C" stroke-width="2" stroke-miterlimit="10"/>
<path d="M482.991 261.147C478.774 249.199 477.228 247.091 473.011 235.143C472.167 232.332 471.043 228.396 470.2 223.477C469.075 217.151 468.935 212.372 468.935 208.858C468.654 192.413 468.513 184.26 469.497 177.935C470.481 170.907 472.73 160.506 478.212 148.418C479.195 147.434 480.601 146.028 482.709 144.904C483.974 144.201 488.332 141.671 494.095 142.233C502.107 142.936 508.291 149.261 509.837 154.04C510.119 154.743 510.681 156.851 510.962 159.381C511.243 161.912 511.102 163.739 511.102 164.582C510.681 175.686 510.4 181.449 510.54 184.26C510.821 190.726 512.086 195.646 512.649 198.176C513.914 203.377 515.319 206.469 517.428 211.529C522.347 223.758 521.363 222.914 527.267 237.954C528.954 242.452 531.624 248.777 534.998 256.368C536.544 256.086 538.09 255.805 539.636 255.524" stroke="#F69AED" stroke-width="3" stroke-miterlimit="10" stroke-linecap="round"/>
<path d="M638.309 226.429C637.747 215.466 636.904 206.189 636.06 199.02C634.233 183.84 632.546 178.358 631 174.282C629.876 171.33 629.173 170.065 625.378 161.913C621.442 153.479 618.35 146.592 616.382 142.094" stroke="#75819C" stroke-width="2" stroke-miterlimit="10"/>
<g opacity="0.5">
<path d="M443.493 253.556C444.055 253.415 444.196 252.712 444.336 252.15C444.477 251.588 444.477 251.026 444.477 250.464C444.477 250.323 444.477 250.182 444.477 250.042L444.336 249.62L444.055 248.777L443.493 247.09C442.649 244.982 442.087 242.733 441.384 240.484C440.682 238.235 440.26 235.986 439.276 234.018C438.854 233.034 438.152 232.191 437.308 231.488C436.465 230.785 435.481 230.082 434.356 230.082C435.481 229.942 436.746 230.504 437.73 231.066C438.714 231.769 439.698 232.612 440.26 233.596C440.963 234.58 441.384 235.705 441.666 236.829C442.087 237.954 442.368 239.078 442.649 240.062C443.352 242.311 443.915 244.56 444.336 246.809C444.477 247.371 444.617 247.933 444.617 248.496C444.617 248.777 444.758 249.058 444.758 249.339C444.758 249.48 444.758 249.62 444.758 249.761V250.182C444.758 250.745 444.617 251.307 444.477 251.869C444.477 252.712 444.196 253.415 443.493 253.556Z" fill="#75819C"/>
</g>
<g opacity="0.5">
<path d="M479.758 153.9C479.477 155.165 479.337 156.43 479.618 157.554C479.758 157.695 479.899 157.695 480.321 157.695C480.602 157.695 480.883 157.554 481.164 157.554C481.726 157.414 482.289 157.273 482.991 156.992C485.381 156.149 487.911 155.586 490.441 155.024C492.971 154.602 495.501 154.321 498.031 154.181C498.593 154.181 499.156 154.04 499.156 153.759C499.296 153.197 499.296 152.494 499.437 151.932C499.577 150.667 499.718 149.402 499.577 148.137C499.999 149.402 499.999 150.667 500.14 151.932C500.14 152.635 500.14 153.197 500.14 153.9C500.14 154.04 500.14 154.04 500.14 154.181C499.999 154.462 499.999 154.462 499.858 154.602C499.718 154.743 499.437 154.884 499.296 155.024C498.875 155.165 498.593 155.165 498.172 155.305C495.642 155.586 493.112 156.008 490.722 156.43C488.192 156.851 485.803 157.273 483.272 157.835C482.71 157.976 482.007 158.116 481.305 158.116C481.023 158.116 480.602 158.116 480.321 158.116C480.18 158.116 480.04 158.116 479.758 158.116C479.477 158.116 479.337 157.835 479.337 157.695C479.056 156.43 479.337 155.165 479.758 153.9Z" fill="#75819C"/>
</g>
<path d="M535.279 424.758C525.44 417.168 517.709 410.702 512.368 406.204C502.529 397.771 501.826 396.365 495.36 391.586C489.878 387.51 484.537 383.152 479.055 379.076C475.401 376.406 473.855 375.141 472.308 372.751C469.638 368.956 469.497 365.864 467.811 358.273C467.811 358.273 466.264 350.824 463.875 343.093C461.485 334.94 458.393 328.615 457.128 326.085C454.457 320.744 451.506 315.965 448.835 308.796C448.554 308.094 448.273 307.25 447.711 305.985C445.321 299.801 443.494 296.427 442.65 294.319C442.088 292.913 441.104 290.383 440.683 279.419C440.401 273.516 440.261 265.645 440.823 255.946C438.715 252.573 436.606 248.356 434.498 243.436C432.249 237.954 430.984 233.035 430 228.818C431.406 227.694 433.795 226.007 437.028 224.882C443.634 222.633 449.257 224.18 450.943 224.742C452.068 225.023 456.144 226.429 463.172 232.754C467.248 236.549 473.152 242.031 477.79 251.589C479.618 255.243 483.694 263.958 483.553 275.343C483.553 276.749 483.413 277.873 483.413 278.717C485.24 281.528 487.067 284.339 488.894 287.431C491.284 291.367 493.392 295.303 495.36 299.098C491.987 289.68 485.38 272.391 482.148 262.974" stroke="#75819C" stroke-width="2" stroke-miterlimit="10"/>
</svg>
