<svg width="900" height="500" viewBox="0 0 900 500" fill="none" xmlns="http://www.w3.org/2000/svg">
<path opacity="0.33" d="M350.977 429.161C356.313 422.383 372.176 398.876 377.224 391.088C382.271 383.301 393.664 356.765 398.423 350.708C403.182 344.651 408.951 337.008 406.355 319.125C403.904 301.243 401.74 295.042 403.183 269.516C404.625 243.99 400.154 238.942 394.241 226.684C393.087 219.329 391.213 217.31 388.473 215.147C388.905 210.099 391.501 190.053 393.087 179.814C394.818 169.575 391.357 172.748 393.087 150.971C394.818 129.195 388.905 113.764 385.156 109.293C384.579 104.967 380.397 100.063 372.753 98.4771C365.254 96.7465 358.332 103.669 358.332 106.697C355.88 107.563 348.093 118.234 351.986 153.134C343.478 173.469 338.142 194.38 336.988 201.446C335.69 208.513 329.921 240.384 327.614 239.086C325.307 237.788 334.536 207.359 337.276 188.467C340.016 169.575 342.901 156.451 344.631 147.51C346.362 138.569 346.506 109.293 336.7 105.688C334.392 98.3329 327.326 96.4581 320.836 96.0254C314.346 95.5928 308.866 100.784 308.722 103.813C305.838 104.823 302.809 118.811 304.107 138.28C297.617 145.203 288.82 167.123 279.014 215.291C279.014 215.291 282.186 168.421 288.243 149.241C294.445 130.06 298.915 122.561 295.31 111.889C297.041 106.842 292.281 103.092 285.792 101.073C279.302 99.0539 271.947 102.515 270.505 106.553C265.313 107.418 256.66 122.849 252.911 135.108C245.989 147.366 237.768 168.998 234.596 181.256C231.423 193.514 229.981 238.365 228.106 241.394C226.231 244.422 222.914 244.711 220.318 241.826C217.723 238.942 217.001 238.077 216.28 232.741C215.559 227.261 214.261 217.743 212.675 210.676C211.233 203.609 209.502 189.621 210.079 184.429C210.656 179.237 217.29 170.007 216.569 157.893C215.848 145.779 208.204 141.165 206.185 139.578C204.166 138.136 201.859 134.675 194.937 136.55C188.014 138.425 184.697 154.288 184.697 154.288C184.697 154.288 175.9 171.45 174.458 175.343C173.016 179.237 173.304 183.996 171.862 190.342C170.42 196.687 172.295 203.033 170.132 209.378C168.113 215.724 168.978 226.107 171.285 234.76C173.593 243.413 171.862 243.845 173.737 250.479C175.612 256.969 179.361 265.91 180.659 272.111C181.957 278.313 181.525 292.013 182.39 302.685C183.255 313.357 188.159 319.27 189.456 333.258C190.754 347.247 193.494 386.185 195.369 397.434C197.244 408.683 198.398 412.144 192.773 429.45H350.977V429.161Z" fill="#697695"/>
<path d="M350.977 429.161C356.313 422.383 372.176 398.876 377.224 391.088C382.271 383.301 393.664 356.765 398.423 350.708C403.182 344.651 408.951 337.008 406.355 319.125C403.904 301.243 401.74 295.042 403.183 269.516C404.625 243.99 400.154 238.942 394.241 226.684C393.087 219.329 391.213 217.31 388.473 215.147C388.905 210.099 391.501 190.053 393.087 179.814C394.818 169.575 391.357 172.748 393.087 150.971C394.818 129.195 388.905 113.764 385.156 109.293C384.579 104.967 380.397 100.063 372.753 98.4771C365.254 96.7465 358.332 103.669 358.332 106.697C355.88 107.563 348.093 118.234 351.986 153.134C343.478 173.469 338.142 194.38 336.988 201.446C335.69 208.513 329.921 240.384 327.614 239.086C325.307 237.788 334.536 207.359 337.276 188.467C340.016 169.575 342.901 156.451 344.631 147.51C346.362 138.569 346.506 109.293 336.7 105.688C334.392 98.3329 327.326 96.4581 320.836 96.0254C314.346 95.5928 308.866 100.784 308.722 103.813C305.838 104.823 302.809 118.811 304.107 138.28C297.617 145.203 288.82 167.123 279.014 215.291C279.014 215.291 282.186 168.421 288.243 149.241C294.445 130.06 298.915 122.561 295.31 111.889C297.041 106.842 292.281 103.092 285.792 101.073C279.302 99.0539 271.947 102.515 270.505 106.553C265.313 107.418 256.66 122.849 252.911 135.108C245.989 147.366 237.768 168.998 234.596 181.256C231.423 193.514 229.981 238.365 228.106 241.394C226.231 244.422 222.914 244.711 220.318 241.826C217.723 238.942 217.001 238.077 216.28 232.741C215.559 227.261 214.261 217.743 212.675 210.676C211.233 203.609 209.502 189.621 210.079 184.429C210.656 179.237 217.29 170.007 216.569 157.893C215.848 145.779 208.204 141.165 206.185 139.578C204.166 138.136 201.859 134.675 194.937 136.55C188.014 138.425 184.697 154.288 184.697 154.288C184.697 154.288 175.9 171.45 174.458 175.343C173.016 179.237 173.304 183.996 171.862 190.342C170.42 196.687 172.295 203.033 170.132 209.378C168.113 215.724 168.978 226.107 171.285 234.76C173.593 243.413 171.862 243.845 173.737 250.479C175.612 256.969 179.361 265.91 180.659 272.111C181.957 278.313 181.525 292.013 182.39 302.685C183.255 313.357 188.159 319.27 189.456 333.258C190.754 347.247 193.494 386.185 195.369 397.434C197.244 408.683 198.398 412.144 192.773 429.45" stroke="#445272" stroke-width="2" stroke-miterlimit="10"/>
<path d="M220.462 241.539C217.866 238.511 217.145 237.789 216.424 232.454C215.703 226.973 214.405 217.455 212.819 210.389C211.376 203.322 209.646 189.333 210.223 184.142C210.8 178.95 217.433 169.72 216.712 157.606C215.991 145.492 208.348 140.877 206.329 139.291C204.31 137.849 202.002 134.388 195.08 136.262C188.158 138.137 184.841 154.001 184.841 154.001C184.841 154.001 176.044 171.162 174.602 175.056C173.16 178.95 173.448 183.709 172.006 190.054C170.564 196.4 172.438 202.745 170.275 209.091C168.256 215.436 169.122 225.82 171.429 234.473C173.736 243.125 172.006 243.558 173.881 250.192C175.755 256.682 179.505 265.623 180.803 271.824" stroke="#BA6DCD" stroke-width="3" stroke-miterlimit="10" stroke-linecap="round"/>
<g opacity="0.5">
<path d="M188.159 155.298C189.89 154.865 191.765 154.865 193.495 154.433C195.226 154 196.668 153.279 197.966 152.125C199.264 151.116 200.562 149.818 201.715 148.376C202.292 147.655 202.869 146.933 203.446 146.357C204.023 145.636 204.455 144.914 205.176 144.193C204.888 145.059 204.455 145.924 204.023 146.789C203.59 147.655 203.157 148.376 202.581 149.241C201.571 150.827 200.273 152.269 198.831 153.423C197.389 154.577 195.514 155.442 193.639 155.586C191.765 155.875 190.034 155.298 188.159 155.298Z" fill="#B1BBD0"/>
</g>
<path d="M378.81 291.581C378.522 280.909 377.079 261.007 378.81 249.037C380.541 237.212 388.617 215.291 388.617 215.291" stroke="#445272" stroke-width="2" stroke-miterlimit="10"/>
<path d="M271.658 238.798C274.687 232.164 278.436 222.79 279.013 215.146" stroke="#445272" stroke-width="2" stroke-miterlimit="10"/>
<path opacity="0.33" d="M748.857 429.479C698.411 429.623 647.82 429.623 597.374 429.767Z" fill="#697695"/>
<path opacity="0.33" d="M597.373 429.771C595.211 426.744 591.752 422.276 587.284 417.519C577.05 406.854 567.682 401.088 553.701 393.017C536.982 383.216 521.848 376.586 518.533 375.144C518.245 375 505.561 369.379 489.851 361.019C483.22 357.56 478.608 354.822 474.428 349.633C470.825 345.021 469.528 341.129 466.789 332.77C459.15 310.285 460.592 312.303 457.421 306.249C454.826 301.205 451.511 296.016 448.34 286.791C447.908 285.494 447.908 283.909 446.899 281.891C445.89 279.873 444.881 279.153 444.017 277.135C443.152 275.405 443.008 273.82 442.863 272.667C442.431 271.946 441.566 270.649 440.99 269.063C439.693 266.036 439.548 263.442 439.404 261.713C439.116 257.389 438.828 245.57 438.972 229.715C436.81 225.535 434.936 222.076 433.639 219.77C430.612 214.293 428.306 210.69 426.577 204.924C426.288 204.06 426.144 203.339 426 202.763C426.865 202.618 427.73 202.33 428.594 202.186C429.459 201.321 430.901 200.168 432.918 199.159C437.386 196.853 441.566 196.997 443.152 196.997C448.917 197.141 453.097 199.736 456.268 201.609C457.853 202.474 463.474 206.078 470.104 215.014C475.005 221.5 479.617 227.121 481.635 236.057C482.788 241.39 482.644 245.858 482.212 248.885C482.067 249.75 482.067 250.47 481.923 251.335C484.085 253.065 486.68 255.659 488.986 259.118C492.877 264.883 494.319 270.36 495.039 273.82C495.904 274.396 496.913 275.405 497.922 276.846C499.363 278.864 499.652 280.882 499.796 282.035C500.805 282.468 502.678 283.332 504.264 285.062C506.282 287.08 507.146 289.386 507.435 290.539C508.732 288.233 510.173 284.918 511.326 280.738C512.047 277.711 513.056 272.811 512.191 263.73C511.759 258.974 511.038 254.65 506.137 237.21C503.975 229.571 502.967 225.824 501.669 221.356C497.778 208.816 495.039 199.592 489.995 188.349C485.527 178.26 484.085 177.107 482.644 170.909C481.923 167.738 480.338 159.955 482.212 150.875C482.788 147.704 483.653 145.542 484.662 139.633C484.806 138.48 484.806 139.056 485.959 130.985C486.68 125.796 486.968 123.778 487.544 121.04C487.833 119.598 488.121 117.869 488.697 115.563C490.139 109.509 490.859 106.626 492.589 103.744C493.598 102.014 496.192 97.6903 501.381 95.5283C506.426 93.5104 511.47 94.6635 513.056 95.5283C514.209 96.2489 515.362 97.1137 515.362 97.1137C515.938 97.5461 516.371 98.1227 516.803 98.4109C517.236 98.555 518.1 98.8433 518.965 99.2757C523.433 101.726 525.019 106.771 525.739 109.221C526.316 110.95 526.46 112.392 526.748 113.977C527.757 120.896 526.748 126.228 526.316 128.246C526.028 129.543 525.595 131.273 524.875 133.435C524.73 134.3 524.73 135.885 525.019 137.903C525.595 141.795 527.037 144.389 527.469 145.254C528.19 146.551 531.649 156.064 538.567 175.089C540.441 180.422 542.026 184.89 545.197 190.944C546.35 193.25 547.359 195.124 548.08 196.277C549.377 196.132 550.818 195.988 552.26 195.988C553.845 195.844 555.431 195.844 556.872 195.844C556.151 187.34 555.142 180.278 554.278 174.801C552.548 164.279 550.386 155.775 548.224 147.704C546.494 141.074 545.053 135.741 545.053 135.741C542.459 126.373 542.315 126.805 541.594 123.634C541.162 121.328 540.873 119.166 539.72 116.283C538.855 114.121 538.423 113.833 537.414 111.383C536.549 109.077 535.54 106.771 535.108 103.6C534.964 101.726 534.531 97.9785 536.405 94.087C537.126 92.5015 538.135 91.2043 538.711 90.4837C539 89.6189 539.432 88.1775 540.585 86.8804C542.315 84.4301 544.621 83.4212 545.774 82.8447C548.08 81.6916 550.098 81.5475 551.683 81.4033C553.269 81.2592 558.313 80.8268 561.628 83.2771C563.07 84.286 564.367 85.8714 564.367 85.8714C564.799 86.4479 565.087 86.8803 565.52 87.4569C566.385 87.8893 567.682 88.4658 568.835 89.4747C570.42 90.7719 571.429 92.2132 572.006 93.2222C573.88 94.3752 576.33 96.1048 579.068 98.4109C581.663 100.573 585.122 103.456 588.004 107.347C590.887 111.383 592.184 115.13 593.481 119.454C595.355 125.652 597.805 135.165 599.967 147.416C601.553 155.631 602.994 163.847 604.58 172.062C605.012 172.062 605.444 171.918 606.021 171.918C606.742 170.765 607.606 168.891 608.327 166.441C609.048 163.991 609.048 161.973 609.048 160.244C609.048 152.749 607.462 141.074 607.318 139.633C606.453 134.3 605.444 129.111 604.58 123.778C602.85 121.04 601.12 117.869 599.391 114.265C597.517 110.086 596.076 106.194 595.067 102.735C591.031 99.4198 588.293 96.1048 586.419 93.6546C583.969 90.1954 582.095 87.7451 581.086 83.8536C580.51 81.4033 579.212 76.3587 581.807 71.6023C582.239 70.7376 584.689 66.7019 589.446 65.4047C592.617 64.5399 595.355 65.2605 598.094 65.9812C601.985 67.1343 604.724 68.8638 606.309 70.161C607.751 70.5934 609.624 71.3141 611.786 72.4671C619.281 76.2146 623.605 81.1151 626.92 84.8625C630.379 88.7541 635.28 95.24 639.171 104.32C640.757 106.338 648.108 122.481 649.116 127.814C651.134 139.056 651.855 149.29 651.855 165.144C651.855 169.756 651.711 173.504 651.711 176.098C652.72 174.513 654.305 172.495 655.17 169.612C656.323 165.432 660.935 147.848 666.268 137.182C666.989 135.885 667.133 133.579 667.709 130.985C670.448 119.742 671.745 113.977 672.466 107.924C672.754 105.473 672.898 103.167 673.186 98.555C673.907 88.4658 673.475 88.0334 673.907 84.5742C674.34 80.8268 675.348 73.3319 680.681 66.5577C682.843 63.8192 686.879 58.6305 693.509 57.7657C694.518 57.6215 700.283 56.7568 704.463 60.5042C706.769 62.522 707.634 65.1164 708.643 70.3052C711.381 84.7184 709.796 96.3931 709.652 97.402C708.643 104.32 707.778 104.609 706.769 112.392C705.904 119.166 705.616 124.931 705.76 128.679C705.472 141.506 704.175 152.172 702.878 160.244C702.734 161.541 701.725 167.594 699.851 175.666C697.401 186.62 694.806 195.556 692.5 202.33C692.356 203.483 692.068 205.213 691.924 207.231C691.491 211.987 691.491 215.302 691.635 218.905C691.78 225.103 691.924 232.742 691.491 240.669C691.347 243.264 691.203 245.281 691.203 246.723C691.78 248.308 692.644 250.758 693.509 253.641C695.095 258.686 695.959 262.577 696.392 264.883C699.563 279.729 701.725 292.557 701.725 292.557C704.319 307.691 705.616 315.186 705.76 320.807C705.76 324.122 705.76 327.437 706.337 332.914C706.481 334.211 707.058 340.409 709.075 348.48C709.796 351.363 710.949 356.263 713.111 362.461C714.841 367.217 716.714 372.118 726.515 391.287C735.596 409.16 738.334 413.628 740.352 416.943C743.811 422.42 746.838 426.744 749 429.771" fill="#697695"/>
<path d="M692.357 202.039C692.213 203.192 691.924 204.922 691.78 206.94C691.348 211.696 691.348 215.011 691.492 218.614C691.636 224.812 691.78 232.451 691.348 240.378C691.204 242.973 691.06 244.99 691.06 246.432C691.636 248.017 692.501 250.467 693.366 253.35C694.951 258.395 695.816 262.286 696.248 264.592C699.419 279.438 701.581 292.266 701.581 292.266C704.176 307.4 705.473 314.894 705.617 320.516C705.617 323.831 705.617 327.146 706.193 332.623C706.338 333.92 706.914 340.118 708.932 348.189C709.653 351.072 710.806 355.972 712.968 362.17C714.697 366.926 716.571 371.827 726.372 390.996C735.452 408.869 738.191 413.337 740.209 416.652C743.668 422.129 746.695 426.453 748.856 429.479" stroke="#445272" stroke-width="2" stroke-miterlimit="10"/>
<path d="M651.566 175.52C652.575 173.935 654.161 171.917 655.026 169.034C656.179 164.854 660.791 147.27 666.124 136.604C666.844 135.307 666.989 133.001 667.565 130.407C670.304 119.164 671.601 113.399 672.321 107.346C672.61 104.895 672.754 102.589 673.042 97.9769C673.763 87.8877 673.33 87.4553 673.763 83.9961C674.195 80.2487 675.204 72.7538 680.537 65.9796C682.699 63.2411 686.735 58.0523 693.365 57.1875C694.374 57.0434 700.139 56.1786 704.319 59.9261C706.625 61.9439 707.49 64.5383 708.499 69.727C711.237 84.1402 709.652 95.8149 709.508 96.8239C708.499 103.742 707.634 104.03 706.625 111.814C705.76 118.588 705.472 124.353 705.616 128.101C705.328 140.928 704.03 151.594 702.733 159.665C702.589 160.963 701.58 167.016 699.707 175.088C697.256 186.042 694.662 194.978 692.356 201.752" stroke="#BA6DCD" stroke-width="3" stroke-miterlimit="10" stroke-linecap="round"/>
<path d="M597.372 429.768C595.21 426.742 591.751 422.274 587.283 417.517C577.05 406.851 567.681 401.086 553.7 393.015C536.981 383.214 521.847 376.584 518.532 375.142C518.244 374.998 505.56 369.377 489.85 361.017C483.22 357.558 478.608 354.82 474.428 349.631C470.824 345.019 469.527 341.127 466.789 332.768C459.15 310.283 460.591 312.301 457.42 306.247C454.826 301.203 451.511 296.014 448.34 286.789C447.907 285.492 447.907 283.907 446.899 281.889C445.89 279.871 444.881 279.15 444.016 277.133C443.151 275.403 443.007 273.818 442.863 272.665C442.43 271.944 441.566 270.647 440.989 269.061C439.692 266.034 439.548 263.44 439.404 261.71C439.115 257.387 438.827 245.568 438.971 229.713C436.809 225.533 434.936 222.074 433.638 219.768C430.612 214.291 428.306 210.688 426.576 204.922C426.288 204.058 426.144 202.905 426.144 202.905C427.008 202.472 427.873 202.328 428.738 202.04C429.603 201.175 431.044 200.022 433.062 199.013C437.53 196.707 441.71 196.851 443.295 196.851C449.061 196.995 453.24 199.59 456.411 201.463C457.997 202.328 463.618 205.931 470.248 214.868C475.148 221.354 479.761 226.975 481.779 235.911C482.932 241.244 482.787 245.712 482.355 248.739C482.211 249.603 482.211 250.324 482.067 251.189C484.229 252.918 486.823 255.513 489.129 258.972C493.021 264.737 494.462 270.214 495.183 273.673C496.048 274.25 497.057 275.259 498.065 276.7C499.507 278.718 499.795 280.736 499.939 281.889C500.948 282.321 502.822 283.186 504.407 284.916C506.425 286.934 507.29 289.24 507.578 290.393C508.875 288.087 510.317 284.772 511.47 280.592C512.19 277.565 513.199 272.665 512.335 263.584C511.902 258.828 511.181 254.504 506.281 237.064C504.119 229.425 503.11 225.677 501.813 221.209C497.921 208.67 495.183 199.445 490.138 188.203C485.67 178.114 484.229 176.961 482.787 170.763C482.067 167.592 480.481 159.809 482.355 150.729C482.932 147.558 483.796 145.396 484.805 139.487C484.949 138.333 484.949 138.91 486.102 130.839C486.823 125.65 487.111 123.632 487.688 120.893C487.976 119.452 488.264 117.723 488.841 115.416C490.282 109.363 491.003 106.48 492.733 103.598C493.742 101.868 496.336 97.5441 501.525 95.3821C506.569 93.3642 511.614 94.5173 513.199 95.3821C514.352 96.1028 515.505 96.9676 515.505 96.9676C516.082 97.4 516.514 97.9765 516.947 98.2647C517.379 98.4089 518.244 98.6971 519.109 99.1295C523.577 101.58 525.162 106.624 525.883 109.075C526.459 110.804 526.604 112.246 526.892 113.831C527.901 120.749 526.892 126.082 526.459 128.1C526.171 129.397 525.739 131.127 525.018 133.289C524.874 134.154 524.874 135.739 525.162 137.757C525.739 141.648 527.18 144.243 527.613 145.108C528.333 146.405 531.792 155.918 538.711 174.943C540.584 180.276 542.17 184.744 545.341 190.798C546.494 193.104 547.503 194.977 548.223 196.13C549.521 195.986 550.962 195.842 552.403 195.842C553.989 195.698 555.574 195.698 557.015 195.698C556.295 187.194 555.286 180.132 554.421 174.655C552.691 164.133 550.53 155.629 548.368 147.558C546.638 140.928 545.197 135.595 545.197 135.595C542.602 126.226 542.458 126.659 541.737 123.488C541.305 121.182 541.017 119.02 539.864 116.137C538.999 113.975 538.567 113.687 537.558 111.237C536.693 108.931 535.684 106.624 535.252 103.454C535.107 101.58 534.675 97.8323 536.549 93.9408C537.269 92.3553 538.278 91.0581 538.855 90.3375C539.143 89.4727 539.575 88.0314 540.729 86.7342C542.458 84.2839 544.764 83.275 545.917 82.6985C548.223 81.5454 550.241 81.4013 551.827 81.2571C553.412 81.113 558.457 80.6806 561.772 83.1309C563.213 84.1398 564.51 85.7253 564.51 85.7253C564.943 86.3018 565.231 86.7342 565.663 87.3107C566.528 87.7431 567.825 88.3196 568.978 89.3286C570.564 90.6257 571.573 92.067 572.149 93.076C574.023 94.229 576.473 95.9586 579.212 98.2647C581.806 100.427 585.265 103.309 588.148 107.201C591.031 111.237 592.328 114.984 593.625 119.308C595.499 125.506 597.949 135.018 600.111 147.27C601.696 155.485 603.138 163.701 604.723 171.916C605.156 171.916 605.588 171.772 606.164 171.772C606.885 170.619 607.75 168.745 608.471 166.295C609.191 163.845 609.191 161.827 609.191 160.097C609.191 152.603 607.606 140.928 607.462 139.487C606.597 134.154 605.588 128.965 604.723 123.632C602.994 120.893 601.264 117.723 599.534 114.119C597.661 109.939 596.219 106.048 595.21 102.589C591.175 99.2737 588.436 95.9586 586.563 93.5084C584.112 90.0492 582.239 87.599 581.23 83.7074C580.653 81.2571 579.356 76.2125 581.95 71.4562C582.383 70.5914 584.833 66.5557 589.589 65.2585C592.76 64.3937 595.499 65.1144 598.237 65.835C602.129 66.9881 604.867 68.7177 606.453 70.0148C607.894 70.4472 609.768 71.1679 611.93 72.321C619.425 76.0684 623.749 80.9689 627.064 84.7163C630.523 88.6079 635.423 95.0938 639.315 104.174C640.9 106.192 648.251 122.335 649.26 127.668C651.278 138.91 651.999 149.143 651.999 164.998C651.999 169.61 650.845 174.943 650.701 177.537" stroke="#445272" stroke-width="2" stroke-miterlimit="10"/>
<g opacity="0.5">
<path d="M433.207 204.057C434.937 204.057 436.666 204.921 437.675 206.363C438.684 207.804 439.549 209.245 440.27 210.687C440.99 212.128 441.711 213.713 442.287 215.299C442.576 216.164 442.864 216.884 443.152 217.749C443.296 218.182 443.44 218.614 443.585 218.902L443.729 219.479L443.873 219.767C443.873 219.911 443.873 219.911 444.017 220.199V220.055C444.161 220.776 444.449 221.641 444.593 222.506C444.738 223.37 444.738 224.235 444.593 225.1C444.161 226.83 443.152 228.271 441.711 229.136C442.864 227.983 443.585 226.541 443.729 224.956C443.873 223.514 443.296 221.929 442.864 220.488V220.344C442.864 220.488 442.864 220.344 442.864 220.199L442.72 219.911L442.576 219.335L442.143 218.182C441.855 217.461 441.567 216.596 441.278 215.875C440.702 214.29 439.981 212.849 439.405 211.263C438.684 209.822 437.963 208.236 437.243 206.795C436.81 206.075 436.378 205.498 435.801 205.066C434.793 204.633 434.072 204.345 433.207 204.057Z" fill="#B1BBD0"/>
</g>
<g opacity="0.5">
<path d="M690.048 63.3848C689.472 65.835 689.327 68.1411 689.183 70.5914C689.183 71.7444 689.183 73.0416 689.183 74.1947C689.183 74.7712 689.327 75.3477 689.327 75.9242C689.327 76.5008 689.616 77.0773 689.76 77.2214C689.76 77.2214 690.048 77.3656 690.336 77.5097L691.201 77.9421L692.931 78.6628C694.084 79.2393 695.237 79.6717 696.246 80.2482C698.408 81.4013 700.57 82.6985 702.443 84.2839H701.723C702.443 83.8515 703.02 82.9867 703.452 81.9778C703.885 81.113 704.317 80.1041 704.605 79.0952C704.894 78.0862 705.182 77.0773 705.47 75.9242C705.759 74.9153 705.903 73.7623 706.191 72.7533C705.903 74.9153 705.759 77.0773 705.326 79.2393C705.038 80.2482 704.894 81.4013 704.461 82.4102C704.029 83.4191 703.452 84.5722 702.443 85.2928L702.155 85.5811L701.723 85.2928C699.849 83.8515 697.687 82.5543 695.669 81.5454C694.66 80.9689 693.507 80.3923 692.498 79.96L690.769 79.2393L689.904 78.8069C689.616 78.6628 689.327 78.6628 688.895 78.2304C688.319 77.5097 688.174 76.789 688.174 76.2125C688.03 75.636 688.03 74.9153 688.03 74.3388C688.03 73.0416 688.174 71.8886 688.319 70.5914C688.463 69.2942 688.607 68.1411 688.895 66.9881C689.327 65.6909 689.616 64.5378 690.048 63.3848Z" fill="#B1BBD0"/>
</g>
</svg>
