<svg width="900" height="500" viewBox="0 0 900 500" fill="none" xmlns="http://www.w3.org/2000/svg">
<path opacity="0.33" d="M327.41 430.327C329.284 428.02 337.356 419.659 346.15 410.865C354.943 402.072 372.963 371.078 378.297 364.88C383.631 358.681 397.758 343.4 401.218 335.76C404.677 328.12 400.929 303.613 401.218 295.973C401.506 288.333 405.11 251.861 402.659 242.347C400.209 232.832 396.316 228.94 393.145 222.309C389.973 215.678 389.397 213.66 386.514 211.641C383.631 209.623 385.36 192.324 385.937 189.874C386.514 187.423 388.532 176.323 388.532 172.431C388.532 168.539 388.532 157.439 391.559 149.222C394.586 141.005 392.568 116.354 387.379 108.57C382.189 100.785 378.008 98.9111 371.81 98.4786C365.611 98.0461 358.836 104.101 357.106 107.849C355.376 111.597 353.069 115.057 350.475 145.618C346.871 153.835 339.951 161.042 336.924 170.989C333.897 180.936 325.824 206.019 323.95 216.398C322.076 226.778 311.408 240.905 315.733 233.265C320.058 225.769 319.625 207.317 327.698 182.81C335.771 158.303 334.762 159.889 334.762 158.592C334.762 157.294 339.519 152.826 341.104 142.158C344.132 137.257 350.042 112.894 339.086 105.831C338.942 100.785 335.627 97.3254 326.545 95.8838C317.463 94.4422 314.147 96.7487 312.129 102.371C308.813 103.236 303.768 115.489 302.903 125.58C300.452 127.022 288.632 138.987 286.325 143.455C284.019 147.924 277.532 170.413 276.234 176.179C274.937 181.945 266.576 217.984 264.269 221.3C261.963 224.615 260.954 226.922 262.828 219.858C264.702 212.795 273.351 170.268 277.099 162.628C280.847 154.988 281.28 148.645 291.659 133.797C302.038 118.949 300.597 111.741 298.723 106.984C296.848 102.227 295.407 98.1903 286.613 96.7487C277.82 95.3072 272.774 102.659 272.774 102.659C272.774 102.659 267.441 104.245 254.611 118.084C251.872 112.75 248.124 108.714 248.124 108.714C248.124 108.714 245.385 102.947 237.6 101.794C229.816 100.641 226.644 109.002 226.212 112.029C223.617 112.029 218.283 123.994 216.409 135.959C214.535 148.068 211.508 165.367 208.336 175.602C205.165 185.837 203.147 194.343 202.426 201.839C201.705 209.335 197.669 219.858 196.948 229.661C196.227 239.464 184.839 267.574 184.262 276.512C183.542 285.449 183.974 316.011 183.109 323.074C182.244 330.138 180.947 353.924 183.109 367.619C185.271 381.169 184.262 393.711 181.956 400.486C179.649 407.261 171 429.75 171 429.75H327.41V430.327Z" fill="#E0E1E2"/>
<path d="M327.41 430.327C329.284 428.02 337.356 419.659 346.15 410.865C354.943 402.072 372.963 371.078 378.297 364.88C383.631 358.681 397.758 343.4 401.218 335.76C404.677 328.12 400.929 303.613 401.218 295.973C401.506 288.333 405.11 251.861 402.659 242.347C400.209 232.832 396.316 228.94 393.145 222.309C389.973 215.678 389.397 213.66 386.514 211.641C383.631 209.623 385.36 192.324 385.937 189.874C386.514 187.423 388.532 176.323 388.532 172.431C388.532 168.539 388.532 157.439 391.559 149.222C394.586 141.005 392.568 116.354 387.379 108.57C382.189 100.785 378.008 98.9111 371.81 98.4786C365.611 98.0461 358.836 104.101 357.106 107.849C355.376 111.597 353.069 115.057 350.475 145.618C346.871 153.835 339.951 161.042 336.924 170.989C333.897 180.936 325.824 206.019 323.95 216.398C322.076 226.778 311.408 240.905 315.733 233.265C320.058 225.769 319.625 207.317 327.698 182.81C335.771 158.303 334.762 159.889 334.762 158.592C334.762 157.294 339.519 152.826 341.104 142.158C344.132 137.257 350.042 112.894 339.086 105.831C338.942 100.785 335.627 97.3254 326.545 95.8838C317.463 94.4422 314.147 96.7487 312.129 102.371C308.813 103.236 303.768 115.489 302.903 125.58C300.452 127.022 288.632 138.987 286.325 143.455C284.019 147.924 277.532 170.413 276.234 176.179C274.937 181.945 266.576 217.984 264.269 221.3C261.963 224.615 260.954 226.922 262.828 219.858C264.702 212.795 273.351 170.268 277.099 162.628C280.847 154.988 281.28 148.645 291.659 133.797C302.038 118.949 300.597 111.741 298.723 106.984C296.848 102.227 295.407 98.1903 286.613 96.7487C277.82 95.3072 272.774 102.659 272.774 102.659C272.774 102.659 267.441 104.245 254.611 118.084C251.872 112.75 248.124 108.714 248.124 108.714C248.124 108.714 245.385 102.947 237.6 101.794C229.816 100.641 226.644 109.002 226.212 112.029C223.617 112.029 218.283 123.994 216.409 135.959C214.535 148.068 211.508 165.367 208.336 175.602C205.165 185.837 203.147 194.343 202.426 201.839C201.705 209.335 197.669 219.858 196.948 229.661C196.227 239.464 184.839 267.574 184.262 276.512C183.542 285.449 183.974 316.011 183.109 323.074C182.244 330.138 180.947 353.924 183.109 367.619C185.271 381.169 184.262 393.711 181.956 400.486C179.649 407.261 171 429.75 171 429.75" stroke="#75819C" stroke-width="2" stroke-miterlimit="10"/>
<path d="M212.805 225.912C216.841 221.588 220.157 214.957 220.445 208.037C220.733 201.118 220.012 165.223 229.094 151.528C238.176 137.833 254.754 118.66 254.754 118.66" stroke="#75819C" stroke-width="2" stroke-miterlimit="10"/>
<path d="M373.827 309.957C371.809 306.208 369.358 303.758 369.358 300.875C369.358 297.992 370.944 264.98 372.674 253.159C374.26 241.338 382.332 207.173 385.071 200.109" stroke="#75819C" stroke-width="2" stroke-miterlimit="10"/>
<path opacity="0.33" d="M560.695 429.43C559.258 426.268 556.815 421.526 553.077 416.638C549.053 411.465 545.46 408.59 542.442 405.86C538.562 402.267 534.107 396.518 525.484 385.021C502.058 353.834 503.639 352.541 497.028 347.223C495.016 345.642 490.561 342.337 487.255 336.443C484.812 331.988 483.662 327.677 482.944 324.227C481.65 318.766 482.081 317.185 481.219 311.293C481.075 309.856 479.782 302.095 476.764 293.328C473.746 284.993 471.876 283.843 469.146 275.651C467.277 270.333 466.271 265.735 465.84 262.716C464.834 261.136 463.541 258.98 462.678 256.249C462.247 254.956 462.104 253.806 461.96 252.655C461.241 251.074 460.235 248.775 459.804 245.901C459.229 242.595 459.517 239.721 459.804 237.852L459.66 214.57C458.223 210.115 456.93 206.522 455.924 204.079C453.193 197.037 451.325 193.3 449.6 186.833C449.025 184.533 448.594 182.521 448.45 181.372C449.313 180.94 450.319 180.509 451.181 179.934C452.906 178.497 455.636 176.629 459.373 175.767C466.128 174.329 471.59 177.204 475.901 179.503C478.057 180.653 487.542 185.971 495.159 198.043C500.046 205.804 502.202 213.133 505.795 225.636C506.944 229.661 507.807 233.11 508.381 235.409C510.393 237.565 512.98 240.727 515.28 245.038C517.723 249.637 516.573 247.625 519.448 256.824C513.412 235.409 505.507 215.72 498.609 195.312C497.746 189.42 496.597 181.659 495.016 172.461C494.728 170.879 494.441 169.011 494.01 166.568C491.71 152.771 490.417 147.166 489.698 142.998C488.836 137.824 487.974 127.62 490.273 116.411C490.848 113.967 491.567 111.093 493.866 108.362C494.297 107.788 499.04 102.326 506.082 102.47C510.106 102.614 512.693 104.482 517.436 107.788C519.735 109.368 521.891 110.949 523.759 113.536C526.346 116.985 526.921 120.578 527.496 123.022C527.496 123.022 529.939 134.663 533.244 145.01C535.4 152.052 537.987 157.226 539.999 161.107C543.305 167.717 544.742 169.442 548.191 175.91C550.778 180.797 552.215 183.959 557.39 196.174C562.276 207.672 566.3 217.301 569.318 224.487C570.324 224.056 571.762 223.193 573.055 221.469C575.211 218.738 575.211 215.576 575.211 213.564C575.498 195.887 577.079 194.45 575.211 188.414C574.78 186.977 573.917 184.533 572.911 180.509C572.193 177.635 571.618 175.192 571.33 173.611C568.169 171.598 565.726 169.73 563.857 168.292C556.815 162.831 555.522 160.388 554.947 159.238C554.371 157.801 553.797 155.933 553.797 152.483C553.797 146.591 553.652 136.818 560.695 129.058C565.726 123.596 571.762 121.728 576.361 120.435C582.397 118.71 587.571 118.566 591.02 118.71C590.589 116.842 590.157 113.967 590.445 110.662C590.589 109.081 590.876 106.925 591.882 104.626C594.325 99.3078 599.355 97.1521 599.93 97.0083C606.254 94.4214 612.146 97.152 614.302 98.3018C617.176 99.5952 619.188 101.464 620.625 102.901C621.344 103.62 622.206 104.195 623.212 104.626C625.368 105.488 629.105 106.925 630.398 107.644C631.548 106.35 633.273 104.769 634.853 103.476C635.285 103.045 635.716 102.757 636.147 102.47C636.434 101.464 637.01 99.1641 639.022 97.2958C642.759 93.9903 647.933 95.14 648.795 95.4274C653.538 96.5772 655.981 100.314 656.556 101.176C657.562 102.901 658.711 104.769 659.717 106.494C661.586 109.512 664.173 113.824 666.903 119.141C667.766 120.866 669.346 124.028 671.79 129.776C675.67 138.687 675.814 140.268 679.119 148.028C683.718 159.238 684.868 159.669 688.605 169.442C689.898 172.749 691.479 177.204 693.203 183.096C693.922 185.539 695.072 190.138 697.084 201.923C699.671 216.726 698.952 216.151 700.533 223.768C701.827 229.661 702.114 229.229 706.282 244.032C709.444 255.531 711.168 261.279 711.743 266.022C712.749 273.064 712.605 278.525 712.462 286.43C712.318 295.34 711.743 296.921 711.312 307.412C711.024 316.035 711.312 316.467 711.168 327.245C711.024 342.624 710.018 354.553 709.875 357.427C708.725 372.23 708.006 370.936 707.432 382.29C707.432 382.29 706.857 394.506 708.294 409.884C708.581 412.039 708.869 414.914 709.731 418.507C711.024 423.538 712.893 427.418 714.186 430.149C663.023 429.574 611.859 429.43 560.695 429.43Z" fill="#E0E1E2"/>
<path d="M560.695 429.43C559.258 426.268 556.815 421.524 553.077 416.638C549.053 411.464 545.46 408.59 542.442 405.859C538.562 402.266 534.107 396.518 525.484 385.02C502.058 353.834 503.639 352.54 497.028 347.223C495.016 345.642 490.561 342.335 487.255 336.443C484.812 331.988 483.662 327.676 482.944 324.227C481.65 318.766 482.081 317.185 481.219 311.292C481.075 309.855 479.782 302.095 476.764 293.328C473.746 284.992 471.876 283.843 469.146 275.651C467.277 270.333 466.271 265.734 465.84 262.716C464.834 261.135 463.541 258.978 462.678 256.248C462.247 254.954 462.104 253.805 461.96 252.655C461.241 251.074 460.235 248.775 459.804 245.9C459.229 242.595 459.517 239.72 459.804 237.852L459.66 214.57C458.223 210.115 456.93 206.522 455.924 204.079C453.193 197.036 451.325 193.3 449.6 186.833C449.025 184.533 448.594 182.521 448.45 181.371C449.313 180.94 450.319 180.509 451.181 179.934C452.906 178.497 455.636 176.628 459.373 175.765C466.128 174.328 471.59 177.202 475.901 179.503C478.057 180.653 487.542 185.97 495.159 198.042C500.046 205.803 502.202 213.133 505.795 225.636C506.944 229.66 507.807 233.109 508.381 235.409C510.394 237.565 512.98 240.726 515.28 245.038C517.723 249.637 516.573 247.625 519.448 256.823C513.412 235.409 505.507 215.72 498.609 195.312C497.746 189.419 496.597 181.659 495.016 172.46C494.728 170.879 494.441 169.011 494.01 166.567C491.71 152.771 490.417 147.166 489.698 142.998C488.836 137.824 487.974 127.62 490.273 116.41C490.848 113.967 491.567 111.093 493.866 108.362C494.297 107.787 499.04 102.326 506.082 102.47C510.106 102.613 512.693 104.482 517.436 107.787C519.735 109.368 521.891 110.949 523.759 113.536C526.346 116.985 526.921 120.578 527.496 123.021C527.496 123.021 529.939 134.662 533.245 145.01C535.4 152.052 537.987 157.226 539.999 161.106C543.305 167.717 544.742 169.442 548.191 175.909C550.778 180.796 552.215 183.958 557.39 196.174C562.276 207.671 566.3 217.301 569.318 224.486C570.037 224.199 571.043 223.624 571.905 222.762" stroke="#75819C" stroke-width="2" stroke-miterlimit="10"/>
<path d="M590.732 118.71C590.301 116.842 589.869 113.967 590.157 110.662C590.301 109.081 590.588 106.925 591.594 104.626C594.037 99.3078 599.067 97.1521 599.642 97.0083C605.966 94.4214 611.858 97.152 614.014 98.3018C616.888 99.5952 618.9 101.464 620.337 102.901C621.056 103.62 621.918 104.195 622.924 104.626C625.08 105.488 628.817 106.925 630.11 107.644C631.26 106.35 632.985 104.769 634.565 103.476C634.997 103.045 635.428 102.757 635.859 102.47C636.146 101.464 636.721 99.1641 638.733 97.2958C642.47 93.9903 647.644 95.14 648.506 95.4274C653.25 96.5772 655.693 100.314 656.268 101.176C657.274 102.901 658.423 104.769 659.429 106.494C661.298 109.512 663.885 113.824 666.615 119.141C667.478 120.866 669.059 124.028 671.502 129.776C675.382 138.687 675.526 140.268 678.831 148.028C683.43 159.238 684.58 159.669 688.317 169.442C689.61 172.749 691.191 177.204 692.916 183.096C693.634 185.539 694.784 190.138 696.796 201.923C699.383 216.726 698.664 216.151 700.245 223.768C701.539 229.661 701.826 229.229 705.994 244.032C709.156 255.531 710.88 261.279 711.455 266.022C712.461 273.064 712.317 278.525 712.174 286.43C712.03 295.34 711.455 296.921 711.024 307.412C710.736 316.035 711.024 316.467 710.88 327.245C710.736 342.624 709.73 354.553 709.587 357.427C708.437 372.23 707.718 370.936 707.143 382.29C707.143 382.29 706.569 394.506 708.006 409.884C708.293 412.039 708.581 414.914 709.443 418.507C710.736 423.538 712.605 427.418 713.898 430.149" stroke="#75819C" stroke-width="2" stroke-miterlimit="10"/>
<path d="M518.872 309.424C520.166 305.544 521.603 301.663 523.184 297.639C523.902 295.915 524.477 294.19 525.196 292.609C524.621 288.441 523.902 284.13 523.184 279.818C521.89 272.344 520.022 262.715 518.585 255.529" stroke="#75819C" stroke-width="2" stroke-miterlimit="10"/>
<path d="M640.029 216.726C638.448 208.822 636.867 200.342 635.573 191.575C634.855 186.689 633.705 178.928 632.555 163.838C631.406 150.903 627.812 138.543 625.081 133.944C623.213 130.782 620.338 129.345 616.602 127.62C605.967 122.734 596.338 119.572 590.876 118.71C587.427 118.566 582.11 118.566 576.217 120.435C571.762 121.728 565.582 123.596 560.552 129.058C553.51 136.818 552.935 145.154 552.935 150.903C552.935 154.353 554.085 157.802 554.66 159.239C555.235 160.533 556.384 162.832 563.57 168.293C565.439 169.73 567.882 171.599 571.044 173.611C571.331 175.192 571.906 177.635 572.624 180.509C573.63 184.533 574.493 186.977 574.924 188.414C576.792 194.45 575.211 195.887 574.924 213.564C574.924 215.576 574.924 218.738 572.768 221.469C572.481 221.9 572.05 222.331 571.618 222.618" stroke="#F69AED" stroke-width="3" stroke-miterlimit="10" stroke-linecap="round"/>
<path d="M560.552 150.902C561.414 154.495 562.851 156.65 564.001 158.088C565.438 159.812 566.588 160.387 567.881 162.83C568.744 164.412 569.175 166.137 569.318 166.855C569.75 168.292 570.756 172.748 570.899 173.754" stroke="#F69AED" stroke-width="3" stroke-miterlimit="10" stroke-linecap="round"/>
<path d="M679.118 218.165C678.831 196.175 677.394 184.247 676.1 177.492C675.813 176.342 674.376 168.869 672.22 157.803C671.789 155.934 671.501 154.21 671.214 152.629C670.783 150.473 669.921 148.461 668.771 146.736C665.178 141.563 657.848 131.79 654.83 128.484C651.525 124.891 646.351 120.149 639.021 115.55C637.297 113.969 632.698 109.082 630.397 107.357" stroke="#75819C" stroke-width="2" stroke-miterlimit="10"/>
<g opacity="0.5">
<path d="M463.397 209.829C465.122 207.673 466.415 205.23 466.128 202.643C465.984 201.493 465.409 200.2 464.978 198.906L463.685 195.026C462.822 192.439 461.96 189.852 460.954 187.409C460.523 186.115 460.092 184.822 459.373 183.672C458.798 182.523 457.792 181.516 456.354 181.516C457.792 181.085 459.23 182.091 459.948 183.241C460.81 184.391 461.242 185.684 461.96 186.978C463.11 189.421 464.116 192.008 464.978 194.595L466.272 198.475C466.559 199.769 467.134 201.062 467.278 202.499C467.421 203.936 466.847 205.517 466.128 206.667C465.409 207.96 464.403 208.966 463.397 209.829Z" fill="#75819C"/>
</g>
</svg>
