<svg width="900" height="500" viewBox="0 0 900 500" fill="none" xmlns="http://www.w3.org/2000/svg">
<path opacity="0.33" d="M350.977 429.161C356.313 422.383 372.176 398.876 377.224 391.088C382.271 383.301 393.664 356.765 398.423 350.708C403.182 344.651 408.951 337.008 406.355 319.125C403.904 301.243 401.74 295.042 403.183 269.516C404.625 243.99 400.154 238.942 394.241 226.684C393.087 219.329 391.213 217.31 388.473 215.147C388.905 210.099 391.501 190.053 393.087 179.814C394.818 169.575 391.357 172.748 393.087 150.971C394.818 129.195 388.905 113.764 385.156 109.293C384.579 104.967 380.397 100.063 372.753 98.4771C365.254 96.7465 358.332 103.669 358.332 106.697C355.88 107.563 348.093 118.234 351.986 153.134C343.478 173.469 338.142 194.38 336.988 201.446C335.69 208.513 329.921 240.384 327.614 239.086C325.307 237.788 334.536 207.359 337.276 188.467C340.016 169.575 342.901 156.451 344.631 147.51C346.362 138.569 346.506 109.293 336.7 105.688C334.392 98.3329 327.326 96.4581 320.836 96.0254C314.346 95.5928 308.866 100.784 308.722 103.813C305.838 104.823 302.809 118.811 304.107 138.28C297.617 145.203 288.82 167.123 279.014 215.291C279.014 215.291 282.186 168.421 288.243 149.241C294.445 130.06 298.915 122.561 295.31 111.889C297.041 106.842 292.281 103.092 285.792 101.073C279.302 99.0539 271.947 102.515 270.505 106.553C265.313 107.418 256.66 122.849 252.911 135.108C245.989 147.366 237.768 168.998 234.596 181.256C231.423 193.514 229.981 238.365 228.106 241.394C226.231 244.422 222.914 244.711 220.318 241.826C217.723 238.942 217.001 238.077 216.28 232.741C215.559 227.261 214.261 217.743 212.675 210.676C211.233 203.609 209.502 189.621 210.079 184.429C210.656 179.237 217.29 170.007 216.569 157.893C215.848 145.779 208.204 141.165 206.185 139.578C204.166 138.136 201.859 134.675 194.937 136.55C188.014 138.425 184.697 154.288 184.697 154.288C184.697 154.288 175.9 171.45 174.458 175.343C173.016 179.237 173.304 183.996 171.862 190.342C170.42 196.687 172.295 203.033 170.132 209.378C168.113 215.724 168.978 226.107 171.285 234.76C173.593 243.413 171.862 243.845 173.737 250.479C175.612 256.969 179.361 265.91 180.659 272.111C181.957 278.313 181.525 292.013 182.39 302.685C183.255 313.357 188.159 319.27 189.456 333.258C190.754 347.247 193.494 386.185 195.369 397.434C197.244 408.683 198.398 412.144 192.773 429.45H350.977V429.161Z" fill="#697695"/>
<path d="M350.977 429.161C356.313 422.383 372.176 398.876 377.224 391.088C382.271 383.301 393.664 356.765 398.423 350.708C403.182 344.651 408.951 337.008 406.355 319.125C403.904 301.243 401.74 295.042 403.183 269.516C404.625 243.99 400.154 238.942 394.241 226.684C393.087 219.329 391.213 217.31 388.473 215.147C388.905 210.099 391.501 190.053 393.087 179.814C394.818 169.575 391.357 172.748 393.087 150.971C394.818 129.195 388.905 113.764 385.156 109.293C384.579 104.967 380.397 100.063 372.753 98.4771C365.254 96.7465 358.332 103.669 358.332 106.697C355.88 107.563 348.093 118.234 351.986 153.134C343.478 173.469 338.142 194.38 336.988 201.446C335.69 208.513 329.921 240.384 327.614 239.086C325.307 237.788 334.536 207.359 337.276 188.467C340.016 169.575 342.901 156.451 344.631 147.51C346.362 138.569 346.506 109.293 336.7 105.688C334.392 98.3329 327.326 96.4581 320.836 96.0254C314.346 95.5928 308.866 100.784 308.722 103.813C305.838 104.823 302.809 118.811 304.107 138.28C297.617 145.203 288.82 167.123 279.014 215.291C279.014 215.291 282.186 168.421 288.243 149.241C294.445 130.06 298.915 122.561 295.31 111.889C297.041 106.842 292.281 103.092 285.792 101.073C279.302 99.0539 271.947 102.515 270.505 106.553C265.313 107.418 256.66 122.849 252.911 135.108C245.989 147.366 237.768 168.998 234.596 181.256C231.423 193.514 229.981 238.365 228.106 241.394C226.231 244.422 222.914 244.711 220.318 241.826C217.723 238.942 217.001 238.077 216.28 232.741C215.559 227.261 214.261 217.743 212.675 210.676C211.233 203.609 209.502 189.621 210.079 184.429C210.656 179.237 217.29 170.007 216.569 157.893C215.848 145.779 208.204 141.165 206.185 139.578C204.166 138.136 201.859 134.675 194.937 136.55C188.014 138.425 184.697 154.288 184.697 154.288C184.697 154.288 175.9 171.45 174.458 175.343C173.016 179.237 173.304 183.996 171.862 190.342C170.42 196.687 172.295 203.033 170.132 209.378C168.113 215.724 168.978 226.107 171.285 234.76C173.593 243.413 171.862 243.845 173.737 250.479C175.612 256.969 179.361 265.91 180.659 272.111C181.957 278.313 181.525 292.013 182.39 302.685C183.255 313.357 188.159 319.27 189.456 333.258C190.754 347.247 193.494 386.185 195.369 397.434C197.244 408.683 198.398 412.144 192.773 429.45" stroke="#445272" stroke-width="2" stroke-miterlimit="10"/>
<path d="M220.462 241.539C217.866 238.511 217.145 237.789 216.424 232.454C215.703 226.973 214.405 217.455 212.819 210.389C211.376 203.322 209.646 189.333 210.223 184.142C210.8 178.95 217.433 169.72 216.712 157.606C215.991 145.492 208.348 140.877 206.329 139.291C204.31 137.849 202.002 134.388 195.08 136.262C188.158 138.137 184.841 154.001 184.841 154.001C184.841 154.001 176.044 171.162 174.602 175.056C173.16 178.95 173.448 183.709 172.006 190.054C170.564 196.4 172.438 202.745 170.275 209.091C168.256 215.436 169.122 225.82 171.429 234.473C173.736 243.125 172.006 243.558 173.881 250.192C175.755 256.682 179.505 265.623 180.803 271.824" stroke="#BA6DCD" stroke-width="3" stroke-miterlimit="10" stroke-linecap="round"/>
<g opacity="0.5">
<path d="M188.159 155.298C189.89 154.865 191.765 154.865 193.495 154.433C195.226 154 196.668 153.279 197.966 152.125C199.264 151.116 200.562 149.818 201.715 148.376C202.292 147.655 202.869 146.933 203.446 146.357C204.023 145.636 204.455 144.914 205.176 144.193C204.888 145.059 204.455 145.924 204.023 146.789C203.59 147.655 203.157 148.376 202.581 149.241C201.571 150.827 200.273 152.269 198.831 153.423C197.389 154.577 195.514 155.442 193.639 155.586C191.765 155.875 190.034 155.298 188.159 155.298Z" fill="#B1BBD0"/>
</g>
<path d="M378.81 291.581C378.522 280.909 377.079 261.007 378.81 249.037C380.541 237.212 388.617 215.291 388.617 215.291" stroke="#445272" stroke-width="2" stroke-miterlimit="10"/>
<path d="M271.658 238.798C274.687 232.164 278.436 222.79 279.013 215.146" stroke="#445272" stroke-width="2" stroke-miterlimit="10"/>
<path opacity="0.33" d="M610.82 429.514C606.364 424.771 592.566 414.135 580.925 400.768C580.637 400.337 580.493 399.906 580.062 399.762C565.689 392.289 545.28 383.952 527.027 376.191C514.666 371.017 502.449 365.987 490.52 361.244C488.795 360.669 486.496 359.519 484.196 357.794C480.747 355.207 478.303 351.901 475.716 346.871C472.698 340.978 471.836 338.391 469.68 331.779C466.661 322.293 449.989 294.267 448.264 289.092C447.115 287.943 445.677 285.499 444.384 282.912C441.94 277.882 441.078 272.133 441.078 272.133C440.503 266.24 440.216 254.311 441.365 238.644C440.647 237.638 432.742 222.978 430.011 207.599C429.867 207.024 431.161 206.593 432.167 206.018C434.323 204.581 438.491 201.706 444.24 201.275C450.851 200.844 455.882 203.575 457.319 204.437C459.044 205.443 460.481 206.737 463.212 209.324C467.236 213.205 469.823 215.648 472.698 219.241C478.447 226.427 481.322 233.039 481.897 234.332C484.771 240.944 485.49 246.262 485.777 247.555C486.352 251.436 486.208 255.317 486.065 257.76C487.502 258.766 489.514 260.06 491.239 262.072C493.826 265.234 494.832 268.252 495.551 270.408C497.994 274.72 500.437 279.032 502.881 283.487C503.887 284.062 504.893 284.781 506.043 285.643C507.767 286.937 508.917 288.374 509.923 289.524C509.492 286.074 508.917 280.9 507.911 274.432C507.192 269.402 505.899 262.072 500.581 236.776C498.138 225.278 496.988 219.529 496.125 216.654C493.538 206.449 491.67 201.706 488.22 188.915C486.64 183.309 484.627 178.71 483.765 171.524C483.334 167.787 482.903 164.625 483.334 160.169C483.621 157.726 484.34 154.133 485.777 147.09C486.352 144.647 486.64 143.066 486.927 140.766C487.214 137.317 487.071 135.304 487.071 133.292C487.071 128.98 487.933 125.675 489.083 121.363C490.52 115.758 492.389 109.002 497.706 103.253C499.287 101.529 500.294 100.81 500.725 100.522C506.186 96.6418 512.367 97.5042 513.229 97.6479C516.247 98.0791 518.403 99.2289 520.559 100.522C523.865 102.391 526.308 104.547 527.745 106.272C528.895 104.978 529.901 103.828 531.051 102.535C531.195 101.529 531.339 100.091 532.057 98.5103C535.219 91.0365 544.562 89.168 546.143 88.7368C548.586 88.3057 556.203 87.587 561.234 92.6175C561.521 92.7612 566.121 94.1985 566.264 93.911C568.564 83.1315 585.093 82.5566 593.429 82.9877C595.441 83.1315 599.609 84.425 602.915 86.4372C602.052 83.7064 601.334 80.4007 601.046 76.3763C600.759 72.2082 600.759 70.6272 600.903 69.9086C601.621 66.3154 603.49 63.5846 604.783 62.1473C605.214 61.1412 606.221 59.5602 607.802 58.123C611.251 55.1047 616.856 53.8111 621.456 55.9671C622.462 56.3982 624.474 57.5481 626.199 59.9914C627.205 60.7101 628.498 61.8599 629.935 63.2971C632.523 66.028 634.104 68.615 634.966 70.196C639.565 78.3885 641.577 83.8501 641.577 83.8501C645.458 93.4798 649.195 103.972 652.644 115.326C655.231 123.663 657.819 137.748 661.843 149.246C662.13 150.252 662.849 152.121 663.711 154.995C664.574 157.726 665.436 161.319 667.161 170.805C668.454 177.991 668.167 178.566 669.173 182.591C670.035 185.753 670.754 187.765 672.191 191.789C674.06 196.82 675.066 199.119 678.084 206.449C680.24 211.624 680.815 212.63 681.677 215.217C682.971 219.241 683.258 221.828 683.689 224.415C684.552 229.446 686.277 234.476 689.582 244.681C692.601 253.448 692.601 252.442 694.613 259.054C696.769 265.665 698.062 271.127 700.793 281.762C703.38 292.398 704.674 297.716 705.967 304.184C708.123 315.395 707.979 317.838 710.135 327.324C711.141 331.348 712.147 334.941 714.303 341.984C718.04 354.345 719.909 360.525 721.49 364.98C725.083 374.754 729.107 381.509 737.012 394.876C742.618 404.505 748.079 412.698 752.391 419.022C755.266 423.334 757.853 426.927 759.577 429.514C709.704 429.801 660.693 429.658 610.82 429.514Z" fill="#697695"/>
<g opacity="0.5">
<path d="M607.657 64.3027C608.088 65.74 608.52 67.1773 609.094 68.4708C609.669 69.9081 610.388 71.2016 611.107 72.3515C611.825 73.645 612.688 74.7948 613.837 75.5134C614.987 76.2321 616.425 76.5195 617.862 76.6633C618.58 76.6633 619.299 76.807 620.018 76.6633C620.736 76.6633 621.311 76.5195 622.03 76.2321C623.467 75.8009 624.905 75.3697 625.911 74.5074C626.486 74.0762 626.917 73.5013 627.06 72.9264C627.348 72.3514 627.348 71.6328 627.348 70.9142C627.348 69.4769 626.917 68.0396 626.485 66.6024C627.204 67.8959 627.779 69.3332 628.066 70.9142C628.21 71.6328 628.21 72.4952 627.923 73.3575C627.635 74.2199 627.204 74.7948 626.629 75.5134C625.479 76.6633 623.898 77.2382 622.461 77.6694C622.03 77.8131 621.742 77.9568 621.311 77.9568C620.88 78.1005 620.449 78.1005 620.162 78.1005C619.299 78.1005 618.58 78.1005 617.862 78.1005C616.281 77.9568 614.7 77.6694 613.263 76.807C612.544 76.3758 611.969 75.6572 611.538 75.0823C611.107 74.5074 610.675 73.7887 610.244 73.0701C608.807 70.3393 607.801 67.321 607.657 64.3027Z" fill="#B1BBD0"/>
</g>
<path d="M602.484 85.719C601.622 82.9882 601.191 80.6886 600.903 76.808C600.616 72.6399 600.616 71.0589 600.759 70.3402C601.478 66.7471 603.347 64.0162 604.64 62.579C605.071 61.5729 606.077 59.9919 607.658 58.5546C611.108 55.5363 616.713 54.2428 621.312 56.3987C622.319 56.8299 624.331 57.9797 626.055 60.423C627.061 61.1417 628.355 62.2915 629.792 63.7288C632.379 66.4596 633.96 69.0467 634.823 70.6277C639.422 78.8201 641.434 84.2818 641.434 84.2818C645.315 93.9115 649.052 104.404 652.501 115.758C655.088 124.094 657.675 138.179 661.7 149.678C661.987 150.684 662.706 152.552 663.568 155.427C664.431 158.158 665.293 161.751 667.018 171.237C668.311 178.423 667.736 177.848 668.742 181.873" stroke="#BA6DCD" stroke-width="3" stroke-miterlimit="10" stroke-linecap="round"/>
<path d="M610.82 429.514C606.364 424.771 592.566 414.135 580.925 400.768C580.637 400.337 580.493 399.906 580.062 399.762C565.689 392.288 545.28 383.952 527.027 376.191C514.666 371.017 502.449 365.986 490.52 361.243C488.795 360.668 486.496 359.519 484.196 357.794C480.747 355.207 478.303 351.901 475.716 346.871C472.698 340.978 471.836 338.391 469.68 331.779C466.661 322.293 449.989 294.267 448.264 289.092C447.115 287.943 445.677 285.499 444.384 282.912C441.94 277.882 441.078 272.133 441.078 272.133C440.503 266.24 440.216 254.31 441.365 238.644C440.647 237.638 432.742 222.978 430.011 207.599C429.867 207.024 431.161 206.593 432.167 206.018C434.323 204.581 438.491 201.706 444.24 201.275C450.851 200.844 455.882 203.575 457.319 204.437C459.044 205.443 460.481 206.737 463.212 209.324C467.236 213.204 469.823 215.648 472.698 219.241C478.447 226.427 481.322 233.039 481.897 234.332C484.771 240.944 485.49 246.262 485.777 247.555C486.352 251.436 486.208 255.316 486.065 257.76C487.502 258.766 489.514 260.059 491.239 262.072C493.826 265.234 494.832 268.252 495.551 270.408C497.994 274.72 500.437 279.031 502.881 283.487C503.887 284.062 504.893 284.781 506.043 285.643C507.767 286.936 508.917 288.374 509.923 289.524C509.492 286.074 508.917 280.9 507.911 274.432C507.192 269.402 505.899 262.072 500.581 236.776C498.138 225.278 496.988 219.528 496.125 216.654C493.538 206.449 491.67 201.706 488.22 188.915C486.64 183.309 484.627 178.71 483.765 171.524C483.334 167.787 482.903 164.625 483.334 160.169C483.621 157.726 484.34 154.133 485.777 147.09C486.352 144.647 486.64 143.066 486.927 140.766C487.214 137.317 487.071 135.304 487.071 133.292C487.071 128.98 487.933 125.675 489.083 121.363C490.52 115.757 492.389 109.002 497.706 103.253C499.287 101.528 500.294 100.81 500.725 100.522C506.186 96.6417 512.367 97.5041 513.229 97.6478C516.247 98.079 518.403 99.2288 520.559 100.522C523.865 102.391 526.308 104.547 527.745 106.271C528.895 104.978 529.901 103.828 531.051 102.535C531.195 101.528 531.339 100.091 532.057 98.5102C535.219 91.0364 544.562 89.1679 546.143 88.7367C548.586 88.3055 556.203 87.5869 561.234 92.6174C561.521 92.7611 566.121 94.1984 566.264 93.9109C568.564 83.1314 585.093 82.5565 593.429 82.9876C595.441 83.1314 599.609 84.4249 602.915 86.4371" stroke="#445272" stroke-width="2" stroke-miterlimit="10"/>
<path d="M668.887 183.021C669.749 186.183 670.468 188.196 671.905 192.22C673.773 197.25 674.78 199.55 677.798 206.88C679.954 212.054 680.529 213.06 681.391 215.648C682.684 219.672 682.972 222.259 683.403 224.846C684.266 229.877 685.99 234.907 689.296 245.112C692.314 253.879 692.314 252.873 694.326 259.484C696.482 266.096 697.776 271.557 700.507 282.193C703.094 292.829 704.387 298.147 705.681 304.615C707.837 315.825 707.693 318.269 709.849 327.755C710.855 331.779 711.861 335.372 714.017 342.415C717.754 354.775 719.622 360.956 721.203 365.411C724.797 375.185 728.821 381.94 736.726 395.307C742.331 404.936 747.793 413.129 752.105 419.453C754.979 423.764 757.566 427.358 759.291 429.945" stroke="#445272" stroke-width="2" stroke-miterlimit="10"/>
<path d="M643.158 192.22C641.865 190.351 640.284 187.477 638.99 183.596C637.697 179.716 637.409 176.554 637.266 174.973C635.541 156.144 635.11 152.12 634.822 148.958C633.529 137.46 631.229 129.555 630.223 126.249C628.211 118.919 624.905 113.026 619.012 105.409C617.431 103.397 615.132 100.809 613.838 98.5098C610.245 92.7607 604.065 87.2991 602.34 86.293" stroke="#445272" stroke-width="2" stroke-miterlimit="10"/>
<path d="M596.591 186.471C596.447 186.471 593.429 178.134 589.979 164.768C589.117 161.462 586.817 143.927 585.811 141.771C583.799 136.885 581.787 130.13 580.493 124.812C579.918 122.512 578.194 121.793 575.607 117.913C574.026 115.469 573.163 113.745 571.87 111.301C568.851 105.265 567.127 99.3719 565.689 94.6289C565.546 94.6289 565.114 94.7726 564.971 94.7726C567.127 101.528 569.857 108.714 573.451 116.332C574.888 119.206 579.343 130.417 580.493 134.585C581.787 139.041 582.793 141.771 583.799 145.221C585.811 151.545 586.674 154.276 588.542 161.318C593.285 177.272 596.734 186.471 596.591 186.471Z" stroke="#445272" stroke-width="2" stroke-miterlimit="10"/>
<path d="M547.58 213.059C546.287 204.58 544.706 197.824 543.412 193.369C541.4 186.183 540.825 186.326 536.226 172.097C534.501 166.779 532.633 161.03 530.908 154.275C530.477 152.838 529.758 150.538 528.752 146.083C527.027 138.896 525.59 131.566 526.165 121.936C526.452 118.2 527.027 111.444 528.177 105.695" stroke="#445272" stroke-width="2" stroke-miterlimit="10"/>
<g opacity="0.5">
<path d="M444.815 235.195C446.109 233.039 446.684 230.739 446.54 228.44C446.396 227.29 446.396 225.996 445.965 224.99C445.678 223.84 445.247 222.691 444.815 221.541C443.953 219.241 443.234 216.941 442.228 214.642C441.797 213.492 441.222 212.486 440.36 211.767C439.498 210.905 438.491 210.186 437.485 209.611C438.635 209.899 439.785 210.474 440.791 211.192C441.222 211.624 441.797 212.055 442.228 212.486C442.66 213.061 442.947 213.492 443.234 214.067C444.384 216.223 445.247 218.522 446.109 220.966C446.54 222.116 446.971 223.265 447.259 224.559C447.546 225.852 447.69 227.146 447.546 228.44C447.69 231.027 446.54 233.47 444.815 235.195Z" fill="#B1BBD0"/>
</g>
</svg>
