<svg width="900" height="500" viewBox="0 0 900 500" fill="none" xmlns="http://www.w3.org/2000/svg">
<path opacity="0.33" d="M512.283 419.258C501.388 408.582 492.069 399.592 484.471 392.287C473.432 381.611 467.841 376.273 466.407 375.009C458.952 368.828 453.934 366.018 448.343 358.573C446.336 356.045 443.469 352.252 441.462 346.493C439.598 341.435 439.311 337.783 438.594 328.793C437.734 318.819 437.304 313.762 436.874 309.267C435.584 297.046 434.724 290.162 432.143 281.172C430.853 276.958 429.849 274.289 428.989 269.091C428.272 264.877 427.412 259.82 428.559 253.779C429.132 250.83 429.706 249.987 431.283 244.649C433.003 238.889 434.15 234.113 434.867 231.023C434.007 228.494 433.003 224.982 432 220.628C431.139 217.256 430.566 214.868 430.136 211.778C429.706 208.687 429.276 204.192 429.419 198.714C430.566 198.433 431.569 198.011 432.716 197.73C433.863 197.309 435.727 196.606 438.021 196.185C439.885 195.904 446.193 194.78 451.354 198.011C452.501 198.714 452.787 199.275 455.511 202.366C462.679 210.654 462.536 209.811 464.113 212.059C468.988 218.661 470.564 225.263 471.425 229.056C472.715 234.535 472.715 238.889 472.858 243.806C472.858 248.582 472.572 252.515 472.285 255.465C471.855 256.449 471.425 257.572 470.851 258.556C471.281 259.398 471.711 260.241 472.141 261.084C473.002 262.208 473.862 263.472 474.722 264.877C477.589 269.794 478.163 274.57 478.306 277.66C478.306 281.593 479.166 284.262 479.883 285.948C480.457 287.212 481.03 288.055 484.614 293.253C486.048 295.219 487.195 296.905 488.055 298.169C488.485 295.641 489.058 291.848 489.489 287.353C489.919 282.717 490.062 277.098 489.202 263.472C488.772 256.589 488.485 250.97 487.625 242.682C485.904 226.668 484.471 221.189 483.037 210.654C481.03 194.921 480.17 185.649 481.604 173.99C481.89 171.181 482.607 167.107 483.181 160.224C483.897 151.795 483.754 149.407 484.327 142.524C485.188 130.864 485.618 124.965 487.912 118.081C490.205 110.777 492.643 103.332 499.667 100.101C504.112 97.9935 508.556 98.4149 509.273 98.5554C514.864 99.2578 518.448 102.489 519.452 103.472C522.606 106.422 523.896 109.653 524.613 111.9C526.046 115.974 526.476 119.767 526.046 127.353C525.473 136.343 524.613 137.888 524.039 144.771C523.179 154.324 524.039 161.769 524.613 166.124C525.616 174.131 526.476 174.692 529.057 187.757C530.204 193.656 530.921 198.573 532.354 208.406C533.358 215.43 534.648 224.561 535.938 235.518C537.515 235.518 539.092 235.377 540.669 235.377C539.809 229.899 538.519 222.173 537.085 212.621C534.792 197.59 533.645 190.004 533.071 180.592C532.211 167.809 531.781 159.943 533.645 151.795C534.075 150.109 534.935 146.457 535.508 141.26C536.225 135.36 535.652 134.798 536.225 129.179C537.085 120.048 539.379 114.289 539.953 112.743C541.53 108.81 542.533 106.281 545.114 103.753C546.404 102.348 549.988 98.9768 555.723 98.134C561.314 97.4316 565.615 99.6792 566.905 100.522C571.493 103.051 573.643 106.843 574.36 108.248C575.937 111.058 576.224 113.446 576.797 116.817C577.514 121.874 577.371 125.807 577.227 127.212C576.941 133.814 577.371 140.417 577.371 146.879C577.227 159.24 578.804 170.338 580.955 185.93C582.245 195.764 584.252 207.704 587.263 221.189C589.7 222.032 592.28 222.875 594.718 223.718C596.295 219.785 598.302 213.885 599.449 206.58C600.452 199.697 600.309 194.499 599.879 185.649C599.305 173.288 597.872 164.016 597.442 161.769C595.865 151.936 594.718 145.333 591.85 136.624C590.56 132.691 588.696 127.774 587.836 120.61C587.263 115.272 587.549 111.76 588.84 108.529C589.7 106.281 590.99 102.91 594.431 100.803C600.596 97.1506 608.337 101.084 609.054 101.505C612.208 103.191 613.785 105.439 617.082 109.793C620.953 114.991 623.247 119.627 623.964 121.172C625.828 124.965 626.401 126.931 630.989 142.243C634.573 154.043 636.437 159.943 637.01 161.347C637.727 162.893 639.017 165.843 640.021 170.057C641.024 174.131 641.168 177.221 641.168 179.047C641.598 191.83 641.741 198.292 641.598 202.787C641.311 211.216 640.594 222.594 638.874 236.642C639.734 236.782 640.881 237.063 642.314 237.063C643.748 237.063 645.468 236.923 647.189 236.22C649.483 235.377 651.06 234.113 653.353 231.865C658.371 226.949 661.238 222.173 661.525 221.751C663.962 217.818 667.977 212.34 674.285 205.878C676.292 201.523 678.586 196.887 681.166 192.111C684.033 186.773 687.044 181.857 689.911 177.361C689.911 175.957 689.911 173.85 690.055 171.181C690.341 163.174 690.341 159.24 690.915 156.431C691.632 153.2 693.065 145.895 699.23 140.979C701.094 139.433 706.398 135.079 713.566 136.062C719.874 136.905 723.602 141.4 724.462 142.664C724.605 146.457 724.605 150.39 724.749 154.324C724.892 161.066 724.892 167.809 724.749 174.412C724.462 176.238 724.175 178.064 723.889 179.89C720.878 193.516 713.423 215.149 708.405 226.949C705.538 233.692 700.664 244.227 694.929 253.499C693.209 256.168 691.918 258.275 691.918 258.275C686.614 266.141 684.32 268.108 681.309 273.024C678.299 277.941 676.722 282.296 676.148 284.122C672.994 293.815 675.432 296.624 671.991 305.334C671.417 306.879 670.27 309.407 669.554 313.2C668.98 316.431 668.98 318.819 668.98 320.364C668.98 331.181 669.697 336.659 669.697 344.807C669.697 346.633 669.554 349.162 669.267 354.219C668.693 363.63 668.407 368.407 667.69 373.885C666.543 382.454 665.683 382.173 665.109 388.775C664.679 393.411 664.249 398.047 665.396 403.947C666.113 407.599 667.546 413.218 671.704 419.68C618.229 419.399 565.328 419.258 512.283 419.258Z" fill="#E0E1E2"/>
<path d="M512.283 419.258C501.388 408.582 492.069 399.592 484.471 392.287C473.432 381.611 467.841 376.273 466.407 375.009C458.952 368.828 453.934 366.018 448.343 358.573C446.336 356.045 443.469 352.252 441.462 346.493C439.598 341.435 439.311 337.783 438.594 328.793C437.734 318.819 437.304 313.762 436.874 309.267C435.584 297.046 434.724 290.162 432.143 281.172C430.853 276.958 429.849 274.289 428.989 269.091C428.272 264.877 427.412 259.82 428.559 253.779C429.132 250.83 429.706 249.987 431.283 244.649C433.003 238.889 434.15 234.113 434.867 231.023C434.007 228.494 433.003 224.982 432 220.628C431.139 217.256 430.566 214.868 430.136 211.778C429.706 208.687 429.276 204.192 429.419 198.714C430.566 198.433 431.569 198.011 432.716 197.73C433.863 197.309 435.727 196.606 438.021 196.185C439.885 195.904 446.193 194.78 451.354 198.011C452.501 198.714 452.787 199.275 455.511 202.366C462.679 210.654 462.536 209.811 464.113 212.059C468.988 218.661 470.564 225.263 471.425 229.056C472.715 234.535 472.715 238.889 472.858 243.806C472.858 248.582 472.572 252.515 472.285 255.465C471.855 256.449 471.425 257.572 470.851 258.556C471.281 259.398 471.711 260.241 472.141 261.084C473.002 262.208 473.862 263.472 474.722 264.877C477.589 269.794 478.163 274.57 478.306 277.66C478.306 281.593 479.166 284.262 479.883 285.948C480.457 287.212 481.03 288.055 484.614 293.253C486.048 295.219 487.195 296.905 488.055 298.169C488.485 295.641 489.058 291.848 489.489 287.353C489.919 282.717 490.062 277.098 489.202 263.472C488.772 256.589 488.485 250.97 487.625 242.682C485.904 226.668 484.471 221.189 483.037 210.654C481.03 194.921 480.17 185.649 481.604 173.99C481.89 171.181 482.607 167.107 483.181 160.224C483.897 151.795 483.754 149.407 484.327 142.524C485.188 130.864 485.618 124.965 487.912 118.081C490.205 110.777 492.643 103.332 499.667 100.101C504.112 97.9935 508.556 98.4149 509.273 98.5554C514.864 99.2578 518.448 102.489 519.452 103.472C522.606 106.422 523.896 109.653 524.613 111.9C526.046 115.974 526.476 119.767 526.046 127.353C525.473 136.343 524.613 137.888 524.039 144.771C523.179 154.324 524.039 161.769 524.613 166.124C525.616 174.131 526.476 174.692 529.057 187.757C530.204 193.656 530.921 198.573 532.354 208.406C533.358 215.43 534.648 224.561 535.938 235.518C537.515 235.518 539.092 235.377 540.669 235.377C539.809 229.899 538.519 222.173 537.085 212.621C534.792 197.59 533.645 190.004 533.071 180.592C532.211 167.809 531.781 159.943 533.645 151.795C534.075 150.109 534.935 146.457 535.508 141.26C536.225 135.36 535.652 134.798 536.225 129.179C537.085 120.048 539.379 114.289 539.953 112.743C541.53 108.81 542.533 106.281 545.114 103.753C546.404 102.348 549.988 98.9768 555.723 98.134C561.314 97.4316 565.615 99.6792 566.905 100.522C571.493 103.051 573.643 106.843 574.36 108.248C575.937 111.058 576.224 113.446 576.797 116.817C577.514 121.874 577.371 125.807 577.227 127.212C576.941 133.814 577.371 140.417 577.371 146.879C577.227 159.24 578.804 170.338 580.955 185.93C582.245 195.764 584.252 207.704 587.263 221.189C589.7 222.032 592.28 222.875 594.718 223.718C596.295 219.785 598.302 213.885 599.449 206.58C600.452 199.697 600.309 194.499 599.879 185.649C599.305 173.288 597.872 164.016 597.442 161.769C595.865 151.936 594.718 145.333 591.85 136.624C590.56 132.691 588.696 127.774 587.836 120.61C587.263 115.272 587.549 111.76 588.84 108.529C589.7 106.281 590.99 102.91 594.431 100.803C600.596 97.1506 608.337 101.084 609.054 101.505C612.208 103.191 613.785 105.439 617.082 109.793C620.953 114.991 623.247 119.627 623.964 121.172C625.828 124.965 626.401 126.931 630.989 142.243C634.573 154.043 636.436 159.943 637.01 161.347C637.727 162.893 639.017 165.843 640.021 170.057C641.024 174.131 641.168 177.221 641.168 179.047C641.598 191.83 641.741 198.292 641.598 202.787C641.311 211.216 640.594 222.594 638.874 236.642C639.734 236.782 640.881 237.063 642.314 237.063" stroke="#75819C" stroke-width="2" stroke-miterlimit="10"/>
<path d="M681.167 272.744C678.156 277.661 676.579 282.015 676.006 283.842C672.852 293.534 675.289 296.344 671.848 305.053C671.275 306.598 670.128 309.127 669.411 312.92C668.838 316.151 668.838 318.539 668.838 320.084C668.838 330.901 669.554 336.379 669.554 344.527C669.554 346.353 669.411 348.881 669.124 353.938C668.551 363.35 668.264 368.126 667.547 373.605C666.4 382.174 665.54 381.893 664.967 388.495C664.537 393.131 664.107 397.766 665.254 403.666C665.97 407.319 667.404 412.937 671.562 419.399" stroke="#75819C" stroke-width="2" stroke-miterlimit="10"/>
<path d="M642.458 236.783C643.892 236.783 645.612 236.642 647.332 235.94C649.626 235.097 651.203 233.833 653.497 231.585C658.515 226.669 661.382 221.892 661.669 221.471C664.106 217.538 668.12 212.059 674.428 205.597C676.435 201.243 678.729 196.607 681.31 191.831C684.177 186.493 687.188 181.576 690.055 177.081C690.055 175.676 690.055 173.569 690.198 170.9C690.485 162.893 690.485 158.96 691.058 156.15C691.775 152.92 693.209 145.615 699.373 140.698C701.237 139.153 706.542 134.798 713.71 135.782C720.018 136.625 723.745 141.12 724.606 142.384C724.749 146.177 724.749 150.11 724.892 154.043C725.036 160.786 725.036 167.529 724.892 174.131C724.606 175.957 724.319 177.783 724.032 179.61C721.021 193.236 713.567 214.869 708.549 226.669C705.681 233.411 700.807 243.947 695.073 253.218C693.352 255.887 692.062 257.994 692.062 257.994C686.757 265.861 684.464 267.828 681.453 272.744" stroke="#F69AED" stroke-width="3" stroke-miterlimit="10" stroke-linecap="round"/>
<g opacity="0.5">
<path d="M708.119 141.119C708.119 143.507 708.119 146.036 708.119 148.424C708.262 150.812 708.405 153.2 708.835 155.588C708.979 156.15 709.122 156.712 709.266 157.274C709.409 157.836 709.552 158.257 709.982 158.678C710.699 159.521 711.703 160.083 712.706 160.645C714.857 161.769 717.151 162.471 719.588 162.752C717.151 163.033 714.57 162.612 712.133 161.628C710.986 161.207 709.839 160.505 708.835 159.521C708.405 159.1 707.975 158.257 707.832 157.695C707.689 157.133 707.545 156.431 707.402 155.869C706.972 153.481 706.828 150.952 706.972 148.564C707.115 145.895 707.545 143.367 708.119 141.119Z" fill="#75819C"/>
</g>
<g opacity="0.5">
<path d="M439.024 228.214C440.027 227.371 440.601 226.388 440.887 225.264C441.174 224.14 441.174 223.016 441.174 221.893C441.174 220.769 441.031 219.505 440.887 218.381L440.6 214.869C440.457 212.481 440.314 210.093 439.74 207.845C439.454 206.721 439.167 205.598 438.593 204.474C438.163 203.491 437.447 202.507 436.156 201.945C437.447 202.086 438.45 203.069 439.167 204.052C439.884 205.176 440.314 206.3 440.744 207.424C441.461 209.812 441.747 212.2 441.891 214.588C442.034 216.976 442.321 219.364 442.178 221.893C442.178 223.157 441.891 224.421 441.461 225.545C441.031 226.669 440.17 227.652 439.024 228.214Z" fill="#75819C"/>
</g>
<path opacity="0.33" d="M389.952 193.787C391.351 191.549 403.241 180.777 409.676 153.498C416.111 126.219 387.434 126.639 377.361 141.887C367.429 157.135 359.875 170.425 347.145 183.016C334.414 195.606 312.451 222.745 309.793 225.543C307.135 228.341 297.623 241.491 295.384 241.631C293.146 241.77 283.214 237.294 282.374 234.216C281.535 231.139 281.815 218.408 284.333 212.533C286.851 206.657 298.042 180.358 298.742 175.461C304.477 173.643 314.41 164.83 317.907 160.493C321.264 156.016 324.762 149.441 327.699 146.364C330.637 143.286 343.927 117.126 336.233 106.494C332.596 94.4637 317.487 98.3807 314.13 101.458C310.633 104.536 306.716 113.629 305.317 115.308C303.918 116.986 298.882 123.421 297.483 129.297C292.866 130.836 273.561 142.027 267.826 148.182C261.95 154.338 267.686 142.866 269.784 141.468C271.882 140.069 286.851 127.059 291.467 116.007C296.084 104.956 290.768 100.899 290.768 100.899C290.768 100.899 290.628 91.3861 281.255 91.9456C271.882 92.5052 263.069 106.215 261.81 106.634C260.551 107.054 258.033 105.096 249.779 113.489C246.142 110.411 241.945 109.012 240.686 108.593C239.008 106.215 232.852 104.256 230.614 107.054C228.516 109.712 225.998 116.986 224.739 118.945C223.48 120.763 216.625 131.395 213.967 136.991C211.449 142.587 207.952 152.659 206.832 154.617C205.713 156.436 196.76 164.41 195.361 168.607C194.102 172.803 193.683 181.617 192.843 184.275C192.004 186.933 188.926 193.647 187.667 200.922C184.59 203.3 179.553 211.833 175.357 238.553C171.16 265.412 160.948 264.573 161.507 293.67C162.067 322.768 161.647 366.834 159.269 377.746C156.891 388.797 152.834 402.787 145 414.817H233.832H303.078C307.695 411.46 316.928 403.066 320.285 399.429C323.643 395.792 343.647 373.269 355.398 363.057C367.149 352.845 369.947 348.368 371.626 343.192C373.304 338.016 376.802 313.535 383.936 294.93C391.211 276.324 394.008 267.371 392.889 264.013C394.568 260.936 394.288 246.247 395.268 242.61C396.247 238.973 397.786 234.496 397.506 232.677C398.345 230.719 407.998 209.595 406.879 203.3C405.759 197.005 388.693 197.704 386.035 199.943C388.693 197.704 388.553 196.165 389.952 193.787ZM339.45 287.515C338.191 287.935 333.295 294.23 330.637 297.587L326.72 296.328C330.497 280.101 341.409 261.775 350.082 256.879C343.507 266.671 340.709 287.096 339.45 287.515Z" fill="#E0E1E2"/>
<path d="M303.078 414.817C307.695 411.46 316.928 403.066 320.285 399.429C323.642 395.792 343.647 373.269 355.398 363.057C367.149 352.845 369.947 348.368 371.625 343.192C373.304 338.016 376.801 313.535 383.936 294.93C391.21 276.324 394.008 267.371 392.889 264.013C394.568 260.936 394.288 246.247 395.267 242.61C396.247 238.973 397.785 234.636 397.506 232.677C398.345 230.719 407.997 209.595 406.878 203.3C405.759 197.005 388.692 197.704 386.034 199.943C388.552 197.704 388.413 196.165 389.951 193.787C391.35 191.409 403.241 180.777 409.676 153.498C416.111 126.219 387.433 126.639 377.361 141.887C367.429 157.135 359.735 170.425 347.144 183.016C334.414 195.606 312.451 222.745 309.793 225.543C307.135 228.341 297.622 241.491 295.384 241.631C293.146 241.77 283.213 237.294 282.374 234.216C281.535 231.139 281.815 218.408 284.333 212.533C286.851 206.657 298.042 180.358 298.742 175.461C304.477 173.643 314.409 164.83 317.907 160.493C321.404 156.156 324.761 149.441 327.699 146.364C330.637 143.286 343.927 117.126 336.233 106.494C332.456 94.4637 317.487 98.3807 314.13 101.458C310.772 104.536 306.715 113.629 305.316 115.308C303.918 116.986 298.881 123.421 297.482 129.297C292.866 130.836 273.701 142.027 267.825 148.182C261.95 154.338 267.685 142.866 269.784 141.468C271.882 140.069 286.851 127.059 291.467 116.007C296.084 104.956 290.768 100.899 290.768 100.899C290.768 100.899 290.628 91.3861 281.255 91.9456C271.882 92.5052 263.069 106.215 261.81 106.634C260.551 107.054 258.033 105.096 249.779 113.489C246.142 110.411 241.945 109.012 240.686 108.593C239.007 106.215 232.852 104.256 230.754 107.054C228.655 109.712 226.137 116.986 224.878 118.945C223.619 120.763 216.765 131.395 214.107 136.991C211.589 142.587 208.091 152.659 206.972 154.617C205.853 156.436 196.9 164.41 195.501 168.607C194.242 172.803 193.822 181.617 192.983 184.275C192.143 186.933 189.066 193.647 187.807 200.922C184.729 203.3 179.693 211.833 175.496 238.553C171.3 265.412 161.087 264.573 161.647 293.67C162.207 322.768 161.787 366.834 159.409 377.746C157.03 388.797 152.974 402.787 145.14 414.817" stroke="#75819C" stroke-width="2" stroke-miterlimit="10"/>
<path d="M330.638 297.589C333.296 294.231 338.332 288.076 339.451 287.517C340.71 287.097 343.508 266.673 350.083 256.74C341.409 261.636 330.498 279.962 326.721 296.19L330.638 297.589Z" stroke="#75819C" stroke-width="2" stroke-miterlimit="10"/>
<path d="M326.72 296.188C328.538 289.333 333.435 274.085 343.787 262.194C354.139 250.304 364.77 236.314 369.667 228.201C374.563 220.087 388.552 196.025 389.951 193.787C391.35 191.409 403.241 180.777 409.676 153.498C416.111 126.219 387.433 126.639 377.361 141.887C367.428 157.135 359.734 170.425 347.144 183.015C334.414 195.606 312.451 222.745 309.793 225.543C307.135 228.34 293.985 246.247 288.669 247.785" stroke="#F69AED" stroke-width="3" stroke-miterlimit="10" stroke-linecap="round"/>
<path d="M174.098 256.739C176.616 255.06 181.932 251.843 184.17 241.071C186.268 230.299 185.289 210.435 187.947 200.922" stroke="#75819C" stroke-width="2" stroke-miterlimit="10"/>
<path d="M206.973 154.477C215.646 147.622 221.521 137.69 228.796 133.073C236.07 128.457 239.008 125.939 240.967 124.12C242.785 122.302 246.003 117.125 249.92 113.488" stroke="#75819C" stroke-width="2" stroke-miterlimit="10"/>
<path d="M216.626 246.387C219.983 242.61 226.418 232.957 230.895 211.694C235.232 190.43 245.724 172.384 246.843 168.047C247.822 163.711 252.299 156.436 266.148 149.861" stroke="#75819C" stroke-width="2" stroke-miterlimit="10"/>
<g opacity="0.5">
<path d="M386.036 137.83C385.197 139.229 384.077 140.488 383.378 141.887C382.958 142.586 382.678 143.286 382.678 143.985C382.678 144.685 382.818 145.384 383.378 145.944C384.217 147.063 385.756 147.902 387.155 148.602C388.554 149.301 390.093 149.861 391.632 150.28C393.17 150.7 394.709 150.98 396.388 151.26C397.227 151.4 397.927 151.4 398.766 151.54C399.605 151.54 400.305 151.54 401.004 151.4C402.403 150.84 403.662 149.861 404.781 148.602C405.901 147.483 407.02 146.224 407.999 144.965C407.16 146.364 406.32 147.762 405.201 149.021C404.082 150.281 402.963 151.54 401.284 152.379C400.445 152.799 399.466 152.799 398.626 152.799C397.787 152.799 396.948 152.799 396.108 152.659C394.429 152.519 392.751 152.239 391.212 151.679C389.533 151.26 387.994 150.56 386.595 149.721C385.896 149.301 385.197 148.882 384.497 148.322C383.798 147.762 383.098 147.203 382.678 146.364C382.119 145.664 381.839 144.685 381.979 143.706C382.119 142.726 382.539 142.027 382.958 141.327C383.798 140.208 384.917 139.089 386.036 137.83Z" fill="#75819C"/>
</g>
<g opacity="0.5">
<path d="M402.681 200.922C400.863 201.481 399.324 202.461 397.785 203.58C396.246 204.559 394.847 205.818 393.588 207.077C391.07 209.735 388.832 212.673 387.433 216.03C386.734 217.709 386.314 219.388 386.174 221.206C386.034 223.025 386.454 224.704 387.153 226.382C387.853 228.061 388.832 229.6 390.091 230.999C391.35 232.398 392.749 233.657 394.428 234.496C390.93 233.097 387.993 230.299 386.174 226.942C385.335 225.263 384.775 223.165 384.915 221.206C384.915 219.248 385.475 217.289 386.174 215.471C387.713 211.973 389.951 208.756 392.889 206.238C395.547 203.86 398.904 201.621 402.681 200.922Z" fill="#75819C"/>
</g>
</svg>
