<svg width="900" height="500" viewBox="0 0 900 500" fill="none" xmlns="http://www.w3.org/2000/svg">
<path opacity="0.33" d="M327.41 430.326C329.284 428.019 337.356 419.658 346.15 410.864C354.943 402.071 372.963 371.077 378.297 364.879C383.631 358.68 397.758 343.399 401.218 335.759C404.677 328.119 400.929 303.612 401.218 295.972C401.506 288.332 405.11 251.86 402.659 242.346C400.209 232.831 396.316 228.939 393.145 222.308C389.973 215.677 389.397 213.659 386.514 211.64C383.631 209.622 385.36 192.323 385.937 189.873C386.514 187.422 388.532 176.322 388.532 172.43C388.532 168.538 388.532 157.438 391.559 149.221C394.586 141.004 392.568 116.353 387.379 108.569C382.189 100.784 378.008 98.9101 371.81 98.4776C365.611 98.0452 358.836 104.1 357.106 107.848C355.376 111.596 353.069 115.056 350.475 145.617C346.871 153.834 339.951 161.041 336.924 170.988C333.897 180.935 325.824 206.018 323.95 216.398C322.076 226.777 311.408 240.904 315.733 233.264C320.058 225.768 319.625 207.316 327.698 182.809C335.771 158.303 334.762 159.888 334.762 158.591C334.762 157.293 339.519 152.825 341.104 142.157C344.132 137.256 350.042 112.893 339.086 105.83C338.942 100.784 335.627 97.3244 326.545 95.8828C317.463 94.4413 314.147 96.7478 312.129 102.37C308.813 103.235 303.768 115.488 302.903 125.579C300.452 127.021 288.632 138.986 286.325 143.454C284.019 147.923 277.532 170.412 276.234 176.178C274.937 181.944 266.576 217.983 264.269 221.299C261.963 224.614 260.954 226.921 262.828 219.857C264.702 212.794 273.351 170.267 277.099 162.627C280.847 154.987 281.28 148.644 291.659 133.796C302.038 118.948 300.597 111.74 298.723 106.983C296.848 102.226 295.407 98.1893 286.613 96.7478C277.82 95.3062 272.774 102.658 272.774 102.658C272.774 102.658 267.441 104.244 254.611 118.083C251.872 112.749 248.124 108.713 248.124 108.713C248.124 108.713 245.385 102.946 237.6 101.793C229.816 100.64 226.644 109.001 226.212 112.028C223.617 112.028 218.283 123.993 216.409 135.958C214.535 148.067 211.508 165.366 208.336 175.601C205.165 185.836 203.147 194.342 202.426 201.838C201.705 209.334 197.669 219.857 196.948 229.66C196.227 239.463 184.839 267.573 184.262 276.511C183.542 285.448 183.974 316.01 183.109 323.073C182.244 330.137 180.947 353.923 183.109 367.618C185.271 381.168 184.262 393.71 181.956 400.485C179.649 407.261 171 429.749 171 429.749H327.41V430.326Z" fill="#445272"/>
<path d="M327.41 430.326C329.284 428.019 337.356 419.658 346.15 410.864C354.943 402.071 372.963 371.077 378.297 364.879C383.631 358.68 397.758 343.399 401.218 335.759C404.677 328.119 400.929 303.612 401.218 295.972C401.506 288.332 405.11 251.86 402.659 242.346C400.209 232.831 396.316 228.939 393.145 222.308C389.973 215.677 389.397 213.659 386.514 211.64C383.631 209.622 385.36 192.323 385.937 189.873C386.514 187.422 388.532 176.322 388.532 172.43C388.532 168.538 388.532 157.438 391.559 149.221C394.586 141.004 392.568 116.353 387.379 108.569C382.189 100.784 378.008 98.9101 371.81 98.4776C365.611 98.0452 358.836 104.1 357.106 107.848C355.376 111.596 353.069 115.056 350.475 145.617C346.871 153.834 339.951 161.041 336.924 170.988C333.897 180.935 325.824 206.018 323.95 216.398C322.076 226.777 311.408 240.904 315.733 233.264C320.058 225.768 319.625 207.316 327.698 182.809C335.771 158.303 334.762 159.888 334.762 158.591C334.762 157.293 339.519 152.825 341.104 142.157C344.132 137.256 350.042 112.893 339.086 105.83C338.942 100.784 335.627 97.3244 326.545 95.8828C317.463 94.4413 314.147 96.7478 312.129 102.37C308.813 103.235 303.768 115.488 302.903 125.579C300.452 127.021 288.632 138.986 286.325 143.454C284.019 147.923 277.532 170.412 276.234 176.178C274.937 181.944 266.576 217.983 264.269 221.299C261.963 224.614 260.954 226.921 262.828 219.857C264.702 212.794 273.351 170.267 277.099 162.627C280.847 154.987 281.28 148.644 291.659 133.796C302.038 118.948 300.597 111.74 298.723 106.983C296.848 102.226 295.407 98.1893 286.613 96.7478C277.82 95.3062 272.774 102.658 272.774 102.658C272.774 102.658 267.441 104.244 254.611 118.083C251.872 112.749 248.124 108.713 248.124 108.713C248.124 108.713 245.385 102.946 237.6 101.793C229.816 100.64 226.644 109.001 226.212 112.028C223.617 112.028 218.283 123.993 216.409 135.958C214.535 148.067 211.508 165.366 208.336 175.601C205.165 185.836 203.147 194.342 202.426 201.838C201.705 209.334 197.669 219.857 196.948 229.66C196.227 239.463 184.839 267.573 184.262 276.511C183.542 285.448 183.974 316.01 183.109 323.073C182.244 330.137 180.947 353.923 183.109 367.618C185.271 381.168 184.262 393.71 181.956 400.485C179.649 407.261 171 429.749 171 429.749" stroke="#697695" stroke-width="2" stroke-miterlimit="10"/>
<path d="M212.805 225.912C216.841 221.587 220.157 214.956 220.445 208.036C220.733 201.117 220.012 165.222 229.094 151.527C238.176 137.832 254.754 118.659 254.754 118.659" stroke="#697695" stroke-width="2" stroke-miterlimit="10"/>
<path d="M373.826 309.956C371.808 306.207 369.357 303.757 369.357 300.874C369.357 297.991 370.943 264.979 372.673 253.158C374.259 241.337 382.331 207.172 385.07 200.108" stroke="#697695" stroke-width="2" stroke-miterlimit="10"/>
<path opacity="0.33" d="M609.245 430.569C604.754 425.789 590.848 415.069 579.114 401.597C578.824 401.163 578.679 400.728 578.245 400.583C563.759 393.051 543.189 384.649 524.792 376.826C512.334 371.611 500.021 366.541 487.997 361.761C486.259 361.182 483.941 360.023 481.623 358.284C478.147 355.677 475.684 352.345 473.077 347.275C470.035 341.336 469.165 338.728 466.993 332.065C463.951 322.504 447.147 294.256 445.408 289.041C444.25 287.883 442.801 285.42 441.497 282.812C439.035 277.742 438.165 271.948 438.165 271.948C437.586 266.009 437.296 253.985 438.455 238.196C437.731 237.182 429.764 222.406 427.011 206.906C426.866 206.327 428.17 205.892 429.184 205.313C431.357 203.864 435.558 200.967 441.352 200.532C448.016 200.098 453.086 202.85 454.535 203.719C456.273 204.733 457.722 206.037 460.474 208.644C464.53 212.555 467.137 215.018 470.035 218.64C475.829 225.883 478.726 232.546 479.306 233.85C482.203 240.513 482.927 245.873 483.217 247.177C483.796 251.088 483.651 254.999 483.507 257.462C484.955 258.476 486.983 259.78 488.722 261.808C491.329 264.995 492.343 268.037 493.067 270.21C495.53 274.555 497.993 278.901 500.455 283.392C501.469 283.971 502.483 284.696 503.642 285.565C505.38 286.868 506.539 288.317 507.553 289.476C507.119 285.999 506.539 280.784 505.525 274.266C504.801 269.196 503.497 261.808 498.137 236.312C495.675 224.724 494.516 218.929 493.647 216.032C491.039 205.747 489.156 200.967 485.679 188.074C484.086 182.425 482.058 177.789 481.189 170.546C480.754 166.78 480.32 163.593 480.754 159.102C481.044 156.64 481.768 153.018 483.217 145.92C483.796 143.457 484.086 141.864 484.376 139.546C484.665 136.07 484.521 134.042 484.521 132.014C484.521 127.668 485.39 124.336 486.549 119.99C487.997 114.341 489.88 107.532 495.24 101.738C496.834 99.9995 497.848 99.2752 498.282 98.9855C503.787 95.0743 510.016 95.9435 510.885 96.0883C513.927 96.5229 516.1 97.6818 518.273 98.9855C521.605 100.869 524.067 103.042 525.516 104.78C526.675 103.476 527.689 102.317 528.848 101.014C528.993 99.9995 529.137 98.5509 529.862 96.9575C533.049 89.4248 542.464 87.5416 544.058 87.107C546.521 86.6724 554.198 85.9481 559.268 91.0182C559.558 91.1631 564.193 92.6117 564.338 92.322C566.656 81.4575 583.315 80.878 591.717 81.3126C593.745 81.4575 597.946 82.7612 601.277 84.7893C600.408 82.0369 599.684 78.7052 599.394 74.6491C599.105 70.4482 599.105 68.8547 599.249 68.1304C599.974 64.5089 601.857 61.7566 603.161 60.308C603.595 59.294 604.609 57.7005 606.203 56.2519C609.679 53.2098 615.329 51.9061 619.964 54.079C620.978 54.5136 623.006 55.6725 624.745 58.1351C625.759 58.8594 627.062 60.0182 628.511 61.4668C631.119 64.2192 632.712 66.8267 633.581 68.4201C638.217 76.6771 640.245 82.1818 640.245 82.1818C644.156 91.8874 647.922 102.462 651.399 113.906C654.006 122.308 656.614 136.504 660.67 148.093C660.96 149.107 661.684 150.99 662.553 153.887C663.422 156.64 664.291 160.261 666.03 169.822C667.333 177.065 667.044 177.644 668.058 181.7C668.927 184.887 669.651 186.915 671.1 190.971C672.983 196.041 673.997 198.359 677.039 205.747C679.212 210.962 679.791 211.976 680.661 214.584C681.964 218.64 682.254 221.247 682.689 223.855C683.558 228.925 685.296 233.995 688.628 244.28C691.67 253.116 691.67 252.102 693.698 258.766C695.871 265.429 697.175 270.934 699.927 281.654C702.534 292.373 703.838 297.733 705.142 304.252C707.315 315.551 707.17 318.013 709.343 327.574C710.357 331.63 711.371 335.252 713.544 342.35C717.31 354.808 719.193 361.037 720.787 365.527C724.408 375.378 728.464 382.186 736.432 395.658C742.081 405.364 747.586 413.621 751.932 419.995C754.829 424.34 757.436 427.962 759.175 430.569C708.908 430.859 659.511 430.714 609.245 430.569Z" fill="#445272"/>
<g opacity="0.5">
<path d="M606.059 62.4805C606.493 63.9291 606.928 65.3777 607.507 66.6814C608.087 68.13 608.811 69.4337 609.535 70.5926C610.26 71.8963 611.129 73.0552 612.288 73.7795C613.447 74.5038 614.895 74.7935 616.344 74.9384C617.068 74.9384 617.792 75.0833 618.517 74.9384C619.241 74.9384 619.82 74.7935 620.545 74.5038C621.993 74.0692 623.442 73.6347 624.456 72.7655C625.035 72.3309 625.47 71.7515 625.615 71.172C625.905 70.5926 625.905 69.8683 625.905 69.144C625.905 67.6954 625.47 66.2468 625.035 64.7982C625.76 66.102 626.339 67.5506 626.629 69.144C626.774 69.8683 626.774 70.7375 626.484 71.6066C626.194 72.4758 625.76 73.0552 625.18 73.7795C624.021 74.9384 622.428 75.5178 620.979 75.9524C620.545 76.0973 620.255 76.2421 619.82 76.2421C619.386 76.387 618.951 76.387 618.662 76.387C617.792 76.387 617.068 76.387 616.344 76.387C614.75 76.2421 613.157 75.9524 611.708 75.0833C610.984 74.6487 610.405 73.9244 609.97 73.3449C609.535 72.7655 609.101 72.0412 608.666 71.3169C607.218 68.5646 606.204 65.5225 606.059 62.4805Z" fill="#B1BBD0"/>
</g>
<path d="M600.841 84.0649C599.972 81.3126 599.538 78.9949 599.248 75.0837C598.958 70.8827 598.958 69.2893 599.103 68.565C599.827 64.9435 601.711 62.1911 603.014 60.7425C603.449 59.7285 604.463 58.1351 606.056 56.6865C609.533 53.6444 615.183 52.3407 619.818 54.5136C620.832 54.9482 622.86 56.107 624.598 58.5696C625.612 59.2939 626.916 60.4528 628.365 61.9014C630.972 64.6537 632.566 67.2612 633.435 68.8547C638.07 77.1117 640.098 82.6164 640.098 82.6164C644.01 92.3219 647.776 102.897 651.253 114.341C653.86 122.742 656.468 136.939 660.524 148.528C660.813 149.542 661.538 151.425 662.407 154.322C663.276 157.074 664.145 160.696 665.883 170.256C667.187 177.499 666.608 176.92 667.622 180.976" stroke="#BA6DCD" stroke-width="3" stroke-miterlimit="10" stroke-linecap="round"/>
<path d="M609.245 430.569C604.754 425.789 590.848 415.069 579.114 401.597C578.824 401.163 578.679 400.728 578.245 400.583C563.759 393.051 543.189 384.649 524.792 376.826C512.334 371.611 500.021 366.541 487.997 361.761C486.259 361.181 483.941 360.023 481.623 358.284C478.147 355.677 475.684 352.345 473.077 347.275C470.035 341.336 469.165 338.728 466.993 332.065C463.951 322.504 447.147 294.256 445.408 289.041C444.25 287.882 442.801 285.42 441.497 282.812C439.035 277.742 438.165 271.948 438.165 271.948C437.586 266.009 437.296 253.985 438.455 238.196C437.731 237.182 429.764 222.406 427.011 206.906C426.866 206.327 428.17 205.892 429.184 205.312C431.357 203.864 435.558 200.967 441.352 200.532C448.016 200.098 453.086 202.85 454.535 203.719C456.273 204.733 457.722 206.037 460.474 208.644C464.53 212.555 467.137 215.018 470.035 218.64C475.829 225.883 478.726 232.546 479.306 233.85C482.203 240.513 482.927 245.873 483.217 247.177C483.796 251.088 483.651 254.999 483.507 257.462C484.955 258.476 486.983 259.78 488.722 261.808C491.329 264.995 492.343 268.037 493.067 270.21C495.53 274.555 497.993 278.901 500.455 283.392C501.469 283.971 502.483 284.696 503.642 285.565C505.38 286.868 506.539 288.317 507.553 289.476C507.119 285.999 506.539 280.784 505.525 274.266C504.801 269.196 503.497 261.808 498.137 236.312C495.675 224.724 494.516 218.929 493.647 216.032C491.039 205.747 489.156 200.967 485.679 188.074C484.086 182.425 482.058 177.789 481.189 170.546C480.754 166.78 480.32 163.593 480.754 159.102C481.044 156.64 481.768 153.018 483.217 145.92C483.796 143.457 484.086 141.864 484.376 139.546C484.665 136.07 484.521 134.042 484.521 132.014C484.521 127.668 485.39 124.336 486.549 119.99C487.997 114.341 489.88 107.532 495.24 101.738C496.834 99.9995 497.848 99.2752 498.282 98.9855C503.787 95.0743 510.016 95.9435 510.885 96.0883C513.927 96.5229 516.1 97.6818 518.273 98.9855C521.605 100.869 524.067 103.042 525.516 104.78C526.675 103.476 527.689 102.317 528.848 101.014C528.993 99.9995 529.137 98.5509 529.862 96.9575C533.049 89.4248 542.464 87.5416 544.058 87.107C546.521 86.6724 554.198 85.9481 559.268 91.0182C559.558 91.1631 564.193 92.6117 564.338 92.322C566.656 81.4575 583.315 80.878 591.717 81.3126C593.745 81.4575 597.946 82.7612 601.278 84.7893" stroke="#697695" stroke-width="2" stroke-miterlimit="10"/>
<path d="M667.768 182.135C668.637 185.322 669.361 187.35 670.81 191.406C672.693 196.476 673.707 198.794 676.749 206.181C678.922 211.396 679.501 212.41 680.371 215.018C681.674 219.074 681.964 221.681 682.399 224.289C683.268 229.359 685.006 234.429 688.338 244.714C691.38 253.551 691.38 252.537 693.408 259.2C695.581 265.864 696.885 271.368 699.637 282.088C702.244 292.808 703.548 298.167 704.852 304.686C707.025 315.985 706.88 318.448 709.053 328.008C710.067 332.065 711.081 335.686 713.254 342.784C717.02 355.242 718.903 361.471 720.497 365.962C724.118 375.812 728.174 382.621 736.142 396.092C741.791 405.798 747.296 414.055 751.642 420.429C754.539 424.775 757.146 428.396 758.884 431.004" stroke="#697695" stroke-width="2" stroke-miterlimit="10"/>
<path d="M641.84 191.406C640.536 189.523 638.942 186.626 637.639 182.715C636.335 178.803 636.045 175.616 635.9 174.023C634.162 155.046 633.727 150.99 633.438 147.803C632.134 136.215 629.816 128.247 628.802 124.916C626.774 117.528 623.442 111.588 617.503 103.911C615.91 101.883 613.592 99.2754 612.288 96.9576C608.667 91.1632 602.438 85.6585 600.699 84.6445" stroke="#697695" stroke-width="2" stroke-miterlimit="10"/>
<path d="M594.905 185.611C594.76 185.611 591.718 177.209 588.241 163.737C587.372 160.406 585.054 142.733 584.04 140.56C582.012 135.635 579.984 128.826 578.68 123.466C578.101 121.149 576.362 120.424 573.755 116.513C572.162 114.051 571.292 112.312 569.989 109.85C566.947 103.766 565.208 97.8263 563.76 93.0459C563.615 93.0459 563.18 93.1908 563.035 93.1908C565.208 99.9992 567.961 107.242 571.582 114.92C573.031 117.817 577.521 129.116 578.68 133.317C579.984 137.808 580.998 140.56 582.012 144.036C584.04 150.41 584.909 153.163 586.792 160.261C591.573 176.34 595.049 185.611 594.905 185.611Z" stroke="#697695" stroke-width="2" stroke-miterlimit="10"/>
<path d="M545.507 212.41C544.203 203.864 542.61 197.055 541.306 192.565C539.278 185.322 538.699 185.466 534.063 171.125C532.325 165.766 530.442 159.971 528.703 153.163C528.269 151.714 527.544 149.396 526.53 144.906C524.792 137.663 523.344 130.275 523.923 120.569C524.213 116.803 524.792 109.995 525.951 104.2" stroke="#697695" stroke-width="2" stroke-miterlimit="10"/>
<g opacity="0.5">
<path d="M441.931 234.718C443.235 232.545 443.814 230.227 443.669 227.909C443.524 226.75 443.524 225.447 443.09 224.433C442.8 223.274 442.366 222.115 441.931 220.956C441.062 218.638 440.338 216.32 439.323 214.003C438.889 212.844 438.309 211.83 437.44 211.106C436.571 210.236 435.557 209.512 434.543 208.933C435.702 209.222 436.861 209.802 437.875 210.526C438.309 210.961 438.889 211.395 439.323 211.83C439.758 212.409 440.048 212.844 440.338 213.423C441.496 215.596 442.366 217.914 443.235 220.377C443.669 221.535 444.104 222.694 444.394 223.998C444.683 225.302 444.828 226.606 444.683 227.909C444.828 230.517 443.669 232.979 441.931 234.718Z" fill="#B1BBD0"/>
</g>
</svg>
