<svg width="900" height="500" viewBox="0 0 900 500" fill="none" xmlns="http://www.w3.org/2000/svg">
<path opacity="0.33" d="M350.977 429.161C356.313 422.383 372.176 398.876 377.224 391.088C382.271 383.301 393.664 356.765 398.423 350.708C403.182 344.651 408.951 337.008 406.355 319.125C403.904 301.243 401.74 295.042 403.183 269.516C404.625 243.99 400.154 238.942 394.241 226.684C393.087 219.329 391.213 217.31 388.473 215.147C388.905 210.099 391.501 190.053 393.087 179.814C394.818 169.575 391.357 172.748 393.087 150.971C394.818 129.195 388.905 113.764 385.156 109.293C384.579 104.967 380.397 100.063 372.753 98.4771C365.254 96.7465 358.332 103.669 358.332 106.697C355.88 107.563 348.093 118.234 351.986 153.134C343.478 173.469 338.142 194.38 336.988 201.446C335.69 208.513 329.921 240.384 327.614 239.086C325.307 237.788 334.536 207.359 337.276 188.467C340.016 169.575 342.901 156.451 344.631 147.51C346.362 138.569 346.506 109.293 336.7 105.688C334.392 98.3329 327.326 96.4581 320.836 96.0254C314.346 95.5928 308.866 100.784 308.722 103.813C305.838 104.823 302.809 118.811 304.107 138.28C297.617 145.203 288.82 167.123 279.014 215.291C279.014 215.291 282.186 168.421 288.243 149.241C294.445 130.06 298.915 122.561 295.31 111.889C297.041 106.842 292.281 103.092 285.792 101.073C279.302 99.0539 271.947 102.515 270.505 106.553C265.313 107.418 256.66 122.849 252.911 135.108C245.989 147.366 237.768 168.998 234.596 181.256C231.423 193.514 229.981 238.365 228.106 241.394C226.231 244.422 222.914 244.711 220.318 241.826C217.723 238.942 217.001 238.077 216.28 232.741C215.559 227.261 214.261 217.743 212.675 210.676C211.233 203.609 209.502 189.621 210.079 184.429C210.656 179.237 217.29 170.007 216.569 157.893C215.848 145.779 208.204 141.165 206.185 139.578C204.166 138.136 201.859 134.675 194.937 136.55C188.014 138.425 184.697 154.288 184.697 154.288C184.697 154.288 175.9 171.45 174.458 175.343C173.016 179.237 173.304 183.996 171.862 190.342C170.42 196.687 172.295 203.033 170.132 209.378C168.113 215.724 168.978 226.107 171.285 234.76C173.593 243.413 171.862 243.845 173.737 250.479C175.612 256.969 179.361 265.91 180.659 272.111C181.957 278.313 181.525 292.013 182.39 302.685C183.255 313.357 188.159 319.27 189.456 333.258C190.754 347.247 193.494 386.185 195.369 397.434C197.244 408.683 198.398 412.144 192.773 429.45H350.977V429.161Z" fill="#445272"/>
<path d="M350.977 429.161C356.313 422.383 372.176 398.876 377.224 391.088C382.271 383.301 393.664 356.765 398.423 350.708C403.182 344.651 408.951 337.008 406.355 319.125C403.904 301.243 401.74 295.042 403.183 269.516C404.625 243.99 400.154 238.942 394.241 226.684C393.087 219.329 391.213 217.31 388.473 215.147C388.905 210.099 391.501 190.053 393.087 179.814C394.818 169.575 391.357 172.748 393.087 150.971C394.818 129.195 388.905 113.764 385.156 109.293C384.579 104.967 380.397 100.063 372.753 98.4771C365.254 96.7465 358.332 103.669 358.332 106.697C355.88 107.563 348.093 118.234 351.986 153.134C343.478 173.469 338.142 194.38 336.988 201.446C335.69 208.513 329.921 240.384 327.614 239.086C325.307 237.788 334.536 207.359 337.276 188.467C340.016 169.575 342.901 156.451 344.631 147.51C346.362 138.569 346.506 109.293 336.7 105.688C334.392 98.3329 327.326 96.4581 320.836 96.0254C314.346 95.5928 308.866 100.784 308.722 103.813C305.838 104.823 302.809 118.811 304.107 138.28C297.617 145.203 288.82 167.123 279.014 215.291C279.014 215.291 282.186 168.421 288.243 149.241C294.445 130.06 298.915 122.561 295.31 111.889C297.041 106.842 292.281 103.092 285.792 101.073C279.302 99.0539 271.947 102.515 270.505 106.553C265.313 107.418 256.66 122.849 252.911 135.108C245.989 147.366 237.768 168.998 234.596 181.256C231.423 193.514 229.981 238.365 228.106 241.394C226.231 244.422 222.914 244.711 220.318 241.826C217.723 238.942 217.001 238.077 216.28 232.741C215.559 227.261 214.261 217.743 212.675 210.676C211.233 203.609 209.502 189.621 210.079 184.429C210.656 179.237 217.29 170.007 216.569 157.893C215.848 145.779 208.204 141.165 206.185 139.578C204.166 138.136 201.859 134.675 194.937 136.55C188.014 138.425 184.697 154.288 184.697 154.288C184.697 154.288 175.9 171.45 174.458 175.343C173.016 179.237 173.304 183.996 171.862 190.342C170.42 196.687 172.295 203.033 170.132 209.378C168.113 215.724 168.978 226.107 171.285 234.76C173.593 243.413 171.862 243.845 173.737 250.479C175.612 256.969 179.361 265.91 180.659 272.111C181.957 278.313 181.525 292.013 182.39 302.685C183.255 313.357 188.159 319.27 189.456 333.258C190.754 347.247 193.494 386.185 195.369 397.434C197.244 408.683 198.398 412.144 192.773 429.45" stroke="#697695" stroke-width="2" stroke-miterlimit="10"/>
<path d="M220.463 241.539C217.867 238.511 217.146 237.789 216.425 232.454C215.704 226.973 214.406 217.455 212.82 210.389C211.377 203.322 209.647 189.333 210.224 184.142C210.801 178.95 217.434 169.72 216.713 157.606C215.992 145.492 208.349 140.877 206.33 139.291C204.311 137.849 202.003 134.388 195.081 136.262C188.159 138.137 184.842 154.001 184.842 154.001C184.842 154.001 176.045 171.162 174.603 175.056C173.161 178.95 173.449 183.709 172.007 190.054C170.565 196.4 172.439 202.745 170.276 209.091C168.257 215.436 169.123 225.82 171.43 234.473C173.737 243.125 172.007 243.558 173.882 250.192C175.756 256.682 179.506 265.623 180.804 271.824" stroke="#BA6DCD" stroke-width="3" stroke-miterlimit="10" stroke-linecap="round"/>
<g opacity="0.5">
<path d="M188.16 155.298C189.891 154.865 191.766 154.865 193.496 154.433C195.227 154 196.669 153.279 197.967 152.125C199.265 151.116 200.563 149.818 201.716 148.376C202.293 147.655 202.87 146.933 203.447 146.357C204.024 145.636 204.456 144.914 205.177 144.193C204.889 145.059 204.456 145.924 204.024 146.789C203.591 147.655 203.158 148.376 202.582 149.241C201.572 150.827 200.274 152.269 198.832 153.423C197.39 154.577 195.515 155.442 193.64 155.586C191.766 155.875 190.035 155.298 188.16 155.298Z" fill="#B1BBD0"/>
</g>
<path d="M378.81 291.581C378.522 280.909 377.079 261.007 378.81 249.037C380.541 237.212 388.617 215.291 388.617 215.291" stroke="#697695" stroke-width="2" stroke-miterlimit="10"/>
<path d="M271.658 238.798C274.687 232.164 278.436 222.79 279.013 215.146Z" fill="#445272"/>
<path d="M271.658 238.798C274.687 232.164 278.436 222.79 279.013 215.146" stroke="#697695" stroke-width="2" stroke-miterlimit="10"/>
<path opacity="0.33" d="M690.629 430.086C690.629 430.086 685.168 424.205 680.408 421.125C677.328 419.165 674.948 418.045 673.968 417.625C663.047 412.724 665.707 412.724 632.665 397.323C613.623 388.503 609.983 387.243 601.443 382.062C592.902 376.882 587.302 372.542 585.902 371.421C583.661 369.741 578.201 365.401 563.5 349.86C544.459 329.979 543.059 326.338 536.898 322.698C535.638 321.998 531.998 319.898 528.778 315.838C526.817 313.457 525.837 311.217 524.437 307.577C521.777 300.857 520.097 295.816 518.557 290.776C514.217 277.615 513.517 276.075 512.817 274.675C509.596 268.374 505.816 263.334 505.816 263.334C502.316 258.714 499.656 256.474 498.536 251.713C498.116 250.173 497.696 247.933 498.396 245.413C499.936 240.372 505.116 238.272 505.816 237.992C508.616 236.872 511.276 237.012 513.517 237.432C520.657 238.552 526.537 242.053 532.278 246.393C539.838 251.993 547.819 258.014 555.379 268.794C559.16 274.255 561.68 279.295 563.22 283.075C564.48 283.635 566.3 284.335 568.26 285.736C570.22 286.996 571.481 288.116 572.321 288.956C581.561 297.496 588.142 306.317 588.142 306.317C589.122 307.577 589.962 308.697 590.382 309.397C592.902 309.257 595.562 309.257 598.082 309.117C599.482 300.717 600.043 293.576 600.183 288.116C600.743 274.395 599.202 269.774 598.362 267.394C597.522 265.154 596.402 262.914 594.022 258.294C591.222 252.973 588.702 248.773 587.022 245.973C575.961 232.112 566.58 221.331 560.14 214.051C547.259 199.49 541.379 194.029 533.398 181.708C530.598 177.508 530.318 176.528 522.057 163.647C514.637 151.886 510.856 146.006 509.036 143.206C504.136 135.925 502.316 133.825 499.656 128.505C494.335 118.144 494.755 113.664 495.315 111.424C495.595 110.024 496.575 105.263 500.916 102.043C506.936 97.4227 514.217 99.5228 515.057 99.8028C518.557 100.923 520.797 103.023 522.477 104.703C535.358 117.304 540.118 123.324 540.118 123.324C548.659 134.525 548.379 135.505 554.679 143.486C559.02 148.946 562.38 152.306 568.82 159.027C586.182 176.948 595.422 185.209 597.942 188.849C598.222 189.269 601.303 193.749 606.623 198.79C611.103 202.99 613.483 205.37 617.264 205.93C617.824 206.07 625.384 207.05 629.585 201.45C632.245 197.81 631.545 193.329 630.985 189.829C630.005 183.949 627.484 179.748 626.504 178.208C618.804 166.027 640.645 198.93 608.303 146.286C602.003 135.925 600.883 134.245 598.502 129.905C593.602 121.084 594.022 120.944 590.102 113.804C583.521 102.183 575.541 90.2822 575.541 90.2822C572.881 86.2219 570.22 82.7217 568.82 77.1213C568.12 74.3211 567.14 70.5408 568.26 65.7805C568.68 64.1004 569.94 59.2 574.561 55.8398C580.161 51.7795 586.602 53.1796 588.002 53.4596C588.982 53.7397 592.062 54.5797 597.802 59.7601C603.123 64.5204 605.643 68.4407 610.543 74.6011C613.203 78.1013 615.864 81.1815 621.184 87.342C633.505 101.623 635.605 102.183 641.205 110.304C644.286 114.784 646.386 118.284 650.306 125.145C655.206 133.825 658.427 140.546 659.547 142.786C663.467 150.906 670.187 164.067 681.948 185.769C682.508 186.049 684.328 186.749 686.148 185.909C687.269 185.349 688.109 184.369 688.949 182.268C690.769 176.808 689.089 170.228 688.529 167.707C686.148 158.607 685.028 155.947 683.768 150.906C682.928 147.406 681.808 142.086 681.388 135.225C678.448 131.445 676.208 128.085 674.668 125.845C671.027 120.384 667.947 115.064 661.787 104.563C661.087 103.303 660.387 102.183 659.967 101.483C654.646 95.8826 649.886 90.8422 646.106 86.5019C642.885 82.8617 640.925 80.6215 639.385 76.9813C638.405 74.7411 636.445 69.4207 638.545 63.8204C638.965 62.5603 640.365 59.2 644.006 57.0999C648.346 54.4397 652.966 55.4198 654.086 55.6998C655.626 55.9798 656.746 56.5399 658.567 57.3799C661.367 58.64 663.467 60.0401 665.007 61.0202C666.127 61.4402 667.667 62.1402 669.487 62.9803C669.487 62.9803 673.548 64.9404 677.328 67.7406C686.428 74.3211 698.749 88.462 698.749 88.462C711.21 102.883 718.491 113.944 720.451 117.024C720.451 117.024 725.351 122.904 727.871 129.205C728.431 130.745 728.991 132.285 728.991 132.285C729.831 135.085 730.111 137.325 730.111 138.165C730.111 138.165 730.251 139.286 733.752 154.267C734.592 163.227 735.432 172.188 736.272 181.148C736.412 181.288 737.392 181.848 738.372 181.568C739.632 181.148 739.912 179.328 740.052 178.488C743.412 158.607 743.692 146.566 743.692 146.566C743.832 141.666 743.972 139.006 743.832 134.665C743.692 131.165 743.552 127.805 742.992 123.884C742.432 120.244 741.732 118.004 735.992 100.923C734.032 95.3225 733.752 94.3425 733.332 92.3823C732.632 88.7421 731.792 83.5617 733.612 77.6813C734.452 75.0211 735.852 70.2608 740.612 66.9006C741.592 66.2005 747.193 62.2803 753.633 64.1004C754.613 64.3804 758.393 65.6405 760.634 69.4207C762.034 71.6609 762.174 73.901 762.174 75.1611C762.734 76.5612 763.294 78.1013 763.994 79.6414C766.094 84.6818 768.334 88.182 768.754 89.0221C769.874 90.9822 772.534 96.0226 782.475 132.005C783.455 135.365 784.715 139.986 785.555 146.286C786.255 151.606 786.395 155.667 786.535 157.627C786.955 172.468 787.235 187.169 787.515 194.309C788.075 211.53 788.355 220.351 790.876 228.892C791.996 232.672 794.516 238.412 799.696 249.753C806.977 265.994 819.298 305.197 821.538 320.178C824.758 342.159 824.758 347.62 828.258 359.521C829.658 364.281 829.938 364.281 831.618 369.601C836.379 384.582 838.339 405.164 840.999 408.944C843.799 413.004 855 430.365 855 430.365L690.629 430.086Z" fill="#445272"/>
<path d="M690.629 430.086C688.529 427.565 685.168 424.205 680.408 421.125C677.328 419.165 674.948 418.045 673.968 417.625C663.047 412.724 665.707 412.724 632.665 397.323C613.623 388.503 609.983 387.243 601.443 382.062C592.902 376.882 587.302 372.542 585.902 371.421C583.661 369.741 578.201 365.401 563.5 349.86C544.459 329.979 543.059 326.338 536.898 322.698C535.638 321.998 531.998 319.898 528.778 315.838C526.817 313.457 525.837 311.217 524.437 307.577C521.777 300.857 520.097 295.816 518.557 290.776C514.217 277.615 513.517 276.075 512.817 274.675C509.596 268.374 505.816 263.334 505.816 263.334C502.316 258.714 499.656 256.474 498.536 251.713C498.116 250.173 497.696 247.933 498.396 245.413C499.936 240.372 505.116 238.272 505.816 237.992C508.616 236.872 511.276 237.012 513.517 237.432C520.657 238.552 526.537 242.053 532.278 246.393C539.838 251.993 547.819 258.014 555.379 268.794C559.16 274.255 561.68 279.295 563.22 283.075C564.48 283.635 566.3 284.335 568.26 285.736C570.22 286.996 571.481 288.116 572.321 288.956C581.561 297.496 588.142 306.317 588.142 306.317C589.122 307.577 589.962 308.697 590.382 309.397C592.902 309.257 595.562 309.257 598.082 309.117C599.482 300.717 600.043 293.576 600.183 288.116C600.743 274.395 599.202 269.774 598.362 267.394C597.522 265.154 596.402 262.914 594.022 258.294C591.222 252.973 588.702 248.773 587.022 245.973C575.961 232.112 566.58 221.331 560.14 214.051C547.259 199.49 541.379 194.029 533.398 181.708C530.598 177.508 530.318 176.528 522.057 163.647C514.637 151.886 510.856 146.006 509.036 143.206C504.136 135.925 502.316 133.825 499.656 128.505C494.335 118.144 494.755 113.664 495.315 111.424C495.595 110.024 496.575 105.263 500.916 102.043C506.936 97.4227 514.217 99.5228 515.057 99.8028C518.557 100.923 520.797 103.023 522.477 104.703C535.358 117.304 540.118 123.324 540.118 123.324C548.659 134.525 548.379 135.505 554.679 143.486C559.02 148.946 562.38 152.306 568.82 159.027C586.182 176.948 595.422 185.209 597.942 188.849C598.222 189.269 601.303 193.749 606.623 198.79C611.103 202.99 613.483 205.37 617.264 205.93C617.824 206.07 625.384 207.05 629.585 201.45C632.245 197.81 631.545 193.329 630.985 189.829C630.005 183.949 627.484 179.748 626.504 178.208C626.504 178.208 600.883 134.245 598.502 129.905C593.602 121.084 594.022 120.944 590.102 113.804C583.521 102.183 575.541 90.2822 575.541 90.2822C572.881 86.2219 570.22 82.7217 568.82 77.1213C568.12 74.3211 567.14 70.5408 568.26 65.7805C568.68 64.1004 569.94 59.2 574.561 55.8398C580.161 51.7795 586.602 53.1796 588.002 53.4596C588.982 53.7397 592.062 54.5797 597.802 59.7601C603.123 64.5204 605.643 68.4407 610.543 74.6011C613.203 78.1013 615.864 81.1815 621.184 87.342C633.505 101.623 635.605 102.183 641.205 110.304C644.286 114.784 646.386 118.284 650.306 125.145C655.206 133.825 658.427 140.546 659.547 142.786C663.467 150.906 670.187 164.067 681.948 185.769C682.508 186.049 684.328 186.749 686.148 185.909C687.269 185.349 688.109 184.369 688.949 182.268C690.769 176.808 689.089 170.228 688.529 167.707C686.148 158.607 685.028 155.947 683.768 150.906C682.928 147.406 681.808 142.086 681.388 135.225C678.448 131.445 676.208 128.085 674.668 125.845C671.027 120.384 667.947 115.064 661.787 104.563C661.087 103.303 660.387 102.183 659.967 101.483C654.646 95.8826 649.886 90.8422 646.106 86.5019C642.885 82.8617 640.925 80.6215 639.385 76.9813C638.405 74.7411 636.445 69.4207 638.545 63.8204C638.965 62.5603 640.365 59.2 644.006 57.0999C648.346 54.4397 652.966 55.4198 654.086 55.6998C655.626 55.9798 656.746 56.5399 658.567 57.3799C661.367 58.64 663.467 60.0401 665.007 61.0202C666.127 61.4402 667.667 62.1402 669.487 62.9803C669.487 62.9803 673.548 64.9404 677.328 67.7406C686.428 74.3211 698.749 88.462 698.749 88.462C711.21 102.883 718.491 113.944 720.451 117.024C720.451 117.024 725.351 122.904 727.871 129.205C728.431 130.745 728.991 132.285 728.991 132.285C729.831 135.085 730.111 137.325 730.111 138.165C730.111 138.165 730.251 139.286 733.752 154.267C734.592 163.227 735.432 172.188 736.272 181.148C736.412 181.288 736.972 181.568 737.672 181.568" stroke="#697695" stroke-width="2" stroke-miterlimit="10"/>
<path d="M787.375 193.889C787.935 211.11 788.215 219.93 790.735 228.471C791.855 232.251 794.375 237.992 799.556 249.332C806.836 265.574 819.157 304.776 821.397 319.757C824.618 341.739 824.618 347.199 828.118 359.1C829.518 363.86 829.798 363.86 831.478 369.181C836.238 384.162 838.199 404.743 840.859 408.523C843.659 412.584 854.86 429.945 854.86 429.945" stroke="#697695" stroke-width="2" stroke-miterlimit="10"/>
<path d="M738.652 180.87C739.492 180.17 739.772 178.77 739.912 177.93C743.272 158.048 743.552 146.008 743.552 146.008C743.692 141.107 743.832 138.447 743.692 134.107C743.552 130.607 743.412 127.246 742.852 123.326C742.292 119.686 741.592 117.446 735.851 100.364C733.891 94.7641 733.611 93.784 733.191 91.8239C732.491 88.1837 731.651 83.0033 733.471 77.1229C734.311 74.4627 735.711 69.7024 740.472 66.3422C741.452 65.6421 747.052 61.7218 753.493 63.542C754.473 63.822 758.253 65.0821 760.493 68.8623C761.333 70.2624 761.753 71.6625 761.893 72.7826C762.173 74.3227 762.453 75.8628 763.153 77.4029C763.433 77.963 763.573 78.523 763.853 79.083C765.954 84.1234 768.194 87.6236 768.614 88.4637C769.734 90.4238 772.394 95.4641 782.335 131.447C783.315 134.807 784.575 139.427 785.415 145.728C786.115 151.048 786.255 155.108 786.395 157.068C786.815 171.909 787.095 186.61 787.375 193.751" stroke="#BA6DCD" stroke-width="3" stroke-miterlimit="10" stroke-linecap="round"/>
<g opacity="0.5">
<path d="M515.476 271.175C516.596 270.055 517.856 268.935 518.836 267.674C519.816 266.414 520.656 265.014 520.796 263.474C521.216 260.394 520.096 257.314 519.116 254.094C518.416 251.013 516.876 248.073 514.356 246.393C513.096 245.553 511.556 244.853 510.016 244.573C508.475 244.293 506.795 244.153 505.115 244.293C506.655 243.873 508.335 243.733 510.016 243.873C511.696 244.013 513.376 244.573 514.916 245.413C516.456 246.253 517.716 247.513 518.556 249.053C519.536 250.453 520.096 252.133 520.376 253.814C520.796 255.354 521.356 256.894 521.636 258.574C521.916 260.254 522.056 261.934 521.636 263.754C521.216 265.434 520.236 266.974 519.116 268.094C518.136 269.215 516.736 270.195 515.476 271.175Z" fill="#B1BBD0"/>
</g>
<g opacity="0.5">
<path d="M744.533 68.4395C745.093 70.2596 745.933 72.0797 746.633 73.7598C747.473 75.4399 748.313 77.12 749.574 78.3801C749.854 78.6602 750.274 78.9402 750.554 79.2202L751.114 79.5002L751.814 79.7802C752.654 80.2003 753.634 80.4803 754.474 80.6203C755.314 80.9003 756.294 81.0403 757.274 81.0403C758.254 81.1803 759.234 81.1803 760.074 80.9003C759.234 81.4603 758.254 81.6003 757.274 81.7404C756.294 81.7404 755.314 81.7404 754.334 81.6004C753.354 81.4603 752.374 81.1803 751.394 80.9003C751.114 80.7603 750.974 80.7603 750.694 80.6203L749.994 80.2003C749.573 79.9202 749.154 79.6402 748.733 79.2202C747.193 77.6801 746.353 75.86 745.653 74.0398C744.953 72.3597 744.533 70.3996 744.533 68.4395Z" fill="#B1BBD0"/>
</g>
</svg>
