<svg width="900" height="500" viewBox="0 0 900 500" fill="none" xmlns="http://www.w3.org/2000/svg">
<path opacity="0.33" d="M327.41 430.326C329.284 428.019 337.356 419.658 346.15 410.864C354.943 402.071 372.963 371.077 378.297 364.879C383.631 358.68 397.758 343.399 401.218 335.759C404.677 328.119 400.929 303.612 401.218 295.972C401.506 288.332 405.11 251.86 402.659 242.346C400.209 232.831 396.316 228.939 393.145 222.308C389.973 215.677 389.397 213.659 386.514 211.64C383.631 209.622 385.36 192.323 385.937 189.873C386.514 187.422 388.532 176.322 388.532 172.43C388.532 168.538 388.532 157.438 391.559 149.221C394.586 141.004 392.568 116.353 387.379 108.569C382.189 100.784 378.008 98.9101 371.81 98.4776C365.611 98.0452 358.836 104.1 357.106 107.848C355.376 111.596 353.069 115.056 350.475 145.617C346.871 153.834 339.951 161.041 336.924 170.988C333.897 180.935 325.824 206.018 323.95 216.398C322.076 226.777 311.408 240.904 315.733 233.264C320.058 225.768 319.625 207.316 327.698 182.809C335.771 158.303 334.762 159.888 334.762 158.591C334.762 157.293 339.519 152.825 341.104 142.157C344.132 137.256 350.042 112.893 339.086 105.83C338.942 100.784 335.627 97.3244 326.545 95.8828C317.463 94.4413 314.147 96.7478 312.129 102.37C308.813 103.235 303.768 115.488 302.903 125.579C300.452 127.021 288.632 138.986 286.325 143.454C284.019 147.923 277.532 170.412 276.234 176.178C274.937 181.944 266.576 217.983 264.269 221.299C261.963 224.614 260.954 226.921 262.828 219.857C264.702 212.794 273.351 170.267 277.099 162.627C280.847 154.987 281.28 148.644 291.659 133.796C302.038 118.948 300.597 111.74 298.723 106.983C296.848 102.226 295.407 98.1893 286.613 96.7478C277.82 95.3062 272.774 102.658 272.774 102.658C272.774 102.658 267.441 104.244 254.611 118.083C251.872 112.749 248.124 108.713 248.124 108.713C248.124 108.713 245.385 102.946 237.6 101.793C229.816 100.64 226.644 109.001 226.212 112.028C223.617 112.028 218.283 123.993 216.409 135.958C214.535 148.067 211.508 165.366 208.336 175.601C205.165 185.836 203.147 194.342 202.426 201.838C201.705 209.334 197.669 219.857 196.948 229.66C196.227 239.463 184.839 267.573 184.262 276.511C183.542 285.448 183.974 316.01 183.109 323.073C182.244 330.137 180.947 353.923 183.109 367.618C185.271 381.168 184.262 393.71 181.956 400.485C179.649 407.261 171 429.749 171 429.749H327.41V430.326Z" fill="#445272"/>
<path d="M327.41 430.326C329.284 428.019 337.356 419.658 346.15 410.864C354.943 402.071 372.963 371.077 378.297 364.879C383.631 358.68 397.758 343.399 401.218 335.759C404.677 328.119 400.929 303.612 401.218 295.972C401.506 288.332 405.11 251.86 402.659 242.346C400.209 232.831 396.316 228.939 393.145 222.308C389.973 215.677 389.397 213.659 386.514 211.64C383.631 209.622 385.36 192.323 385.937 189.873C386.514 187.422 388.532 176.322 388.532 172.43C388.532 168.538 388.532 157.438 391.559 149.221C394.586 141.004 392.568 116.353 387.379 108.569C382.189 100.784 378.008 98.9101 371.81 98.4776C365.611 98.0452 358.836 104.1 357.106 107.848C355.376 111.596 353.069 115.056 350.475 145.617C346.871 153.834 339.951 161.041 336.924 170.988C333.897 180.935 325.824 206.018 323.95 216.398C322.076 226.777 311.408 240.904 315.733 233.264C320.058 225.768 319.625 207.316 327.698 182.809C335.771 158.303 334.762 159.888 334.762 158.591C334.762 157.293 339.519 152.825 341.104 142.157C344.132 137.256 350.042 112.893 339.086 105.83C338.942 100.784 335.627 97.3244 326.545 95.8828C317.463 94.4413 314.147 96.7478 312.129 102.37C308.813 103.235 303.768 115.488 302.903 125.579C300.452 127.021 288.632 138.986 286.325 143.454C284.019 147.923 277.532 170.412 276.234 176.178C274.937 181.944 266.576 217.983 264.269 221.299C261.963 224.614 260.954 226.921 262.828 219.857C264.702 212.794 273.351 170.267 277.099 162.627C280.847 154.987 281.28 148.644 291.659 133.796C302.038 118.948 300.597 111.74 298.723 106.983C296.848 102.226 295.407 98.1893 286.613 96.7478C277.82 95.3062 272.774 102.658 272.774 102.658C272.774 102.658 267.441 104.244 254.611 118.083C251.872 112.749 248.124 108.713 248.124 108.713C248.124 108.713 245.385 102.946 237.6 101.793C229.816 100.64 226.644 109.001 226.212 112.028C223.617 112.028 218.283 123.993 216.409 135.958C214.535 148.067 211.508 165.366 208.336 175.601C205.165 185.836 203.147 194.342 202.426 201.838C201.705 209.334 197.669 219.857 196.948 229.66C196.227 239.463 184.839 267.573 184.262 276.511C183.542 285.448 183.974 316.01 183.109 323.073C182.244 330.137 180.947 353.923 183.109 367.618C185.271 381.168 184.262 393.71 181.956 400.485C179.649 407.261 171 429.749 171 429.749" stroke="#697695" stroke-width="2" stroke-miterlimit="10"/>
<path d="M212.805 225.912C216.841 221.587 220.157 214.956 220.445 208.036C220.733 201.117 220.012 165.222 229.094 151.527C238.176 137.832 254.754 118.659 254.754 118.659" stroke="#697695" stroke-width="2" stroke-miterlimit="10"/>
<path d="M373.826 309.956C371.808 306.207 369.357 303.757 369.357 300.874C369.357 297.991 370.943 264.979 372.673 253.158C374.259 241.337 382.331 207.172 385.07 200.108" stroke="#697695" stroke-width="2" stroke-miterlimit="10"/>
<path opacity="0.33" d="M673.881 423.042C668.396 413.619 662.771 406.025 657.849 399.978C655.317 396.884 647.442 387.602 635.488 377.336C631.41 373.821 626.91 370.164 620.3 366.086C613.971 362.148 608.487 359.757 604.971 358.21C600.19 356.242 554.625 338.803 545.484 335.428C536.624 332.194 531.139 330.787 525.514 325.443C522.28 322.349 520.17 318.974 519.467 317.849C516.795 313.63 515.951 310.396 514.123 304.489C514.123 304.489 512.154 298.442 508.92 290.004C503.435 275.66 500.2 271.722 497.247 263.143C496.966 262.3 496.263 260.049 494.716 257.237C493.028 254.002 491.481 252.315 490.497 250.768C487.543 246.689 486.559 242.752 484.871 236.142C482.762 227.704 484.309 227.423 482.199 222.36C480.09 217.438 477.137 213.922 475.449 211.953C472.496 208.438 469.121 205.484 467.855 204.359C463.777 200.703 461.105 199.156 460.261 195.64C460.12 194.796 459.839 193.39 460.12 191.702C461.105 185.655 468.277 182.421 470.527 181.436C477.277 178.483 483.606 179.327 486.7 179.749C494.013 180.874 498.935 183.968 504.138 187.202C504.138 187.202 514.264 193.531 523.264 205.766C525.092 208.156 526.358 210.406 527.342 212.797C528.327 215.188 528.749 217.438 529.03 218.844C531.842 222.079 534.093 224.892 535.78 227.001C544.781 238.533 547.171 244.439 548.296 247.955C548.296 248.096 548.296 248.94 548.859 249.643C549.421 250.487 550.125 250.768 550.828 251.19C551.531 251.612 552.656 252.174 553.922 253.159C554.484 249.221 554.484 245.986 554.484 243.877C554.203 238.673 553.218 237.408 552.797 231.079C552.515 226.438 552.937 226.157 552.515 223.345C551.953 220.11 550.828 218.141 548.859 214.063C541.827 200.281 541.687 200 540.562 198.312C539.999 197.468 538.874 195.781 533.108 189.312C526.498 181.858 519.889 172.436 517.92 169.201C515.529 165.545 512.998 163.435 512.295 162.451C505.263 151.904 501.607 141.356 499.075 132.215C496.966 124.621 497.388 111.402 498.935 105.776C500.904 98.4636 509.341 96.4948 510.045 96.3541C515.951 95.0884 520.733 97.1979 522.701 98.1823C523.826 98.7449 529.311 101.417 532.546 107.183C532.546 107.183 532.546 107.183 534.655 112.246C536.905 117.59 537.89 119.98 539.155 122.793C539.718 123.918 540.14 124.902 540.28 125.465C541.405 125.887 542.952 126.59 544.921 127.574C549.562 129.965 552.375 132.356 556.594 135.872C561.797 140.231 566.016 143.888 569.672 146.7C573.751 149.935 577.126 152.466 579.376 154.013C578.814 149.513 577.97 145.856 577.267 143.044C576.142 138.825 574.735 133.2 571.219 126.871C569.251 123.215 567.282 120.543 565.735 118.574C564.891 118.574 563.766 118.574 562.36 118.433C561.516 118.293 557.437 118.011 554.484 117.308C552.937 116.886 546.187 115.058 542.531 108.87C541.968 107.745 540.28 104.651 540.421 100.432C540.843 93.9634 545.343 90.1663 546.328 89.4632C546.609 88.76 546.89 87.7756 547.171 86.5099C547.453 84.963 547.453 83.8379 547.453 83.416C547.453 80.6034 548.296 76.6657 548.859 74.5562C550.406 69.2122 554.203 65.837 555.609 64.712C557.437 63.165 559.688 62.04 564.047 59.7899C568.407 57.5398 570.657 56.4147 573.329 55.9928C574.876 55.7116 578.392 55.149 582.751 56.2741C586.548 57.3991 589.08 59.368 591.892 61.8994C594.705 64.2901 596.533 66.5402 597.799 68.0872C599.768 66.3996 601.596 64.9933 602.862 63.8682C607.08 60.6337 615.659 56.1335 617.628 54.8678C623.534 51.352 629.019 50.5082 630.425 50.3676C633.379 49.9457 640.832 49.1019 646.598 53.0396C647.864 53.8833 652.926 59.0867 654.614 62.7431C659.395 73.1499 666.427 88.9007 668.396 95.7916C670.646 104.23 671.349 111.261 671.49 111.261C671.63 111.261 670.083 104.23 670.646 95.2291C670.787 92.2758 671.209 89.8851 671.49 88.0569C671.068 86.5099 670.505 84.1192 669.943 81.0253C668.677 74.1343 668.958 71.3217 667.411 66.6808C666.427 63.8682 666.286 64.5714 664.177 59.5086C662.067 54.4459 660.802 51.4926 660.099 47.8362C659.536 44.7423 658.692 39.6795 660.802 33.773C662.63 28.8509 665.865 25.8976 667.974 23.9288C669.943 22.1006 671.349 20.8349 673.599 20.2724C677.537 19.2879 681.053 21.2568 681.756 21.6787C684.569 23.2256 685.834 25.3351 687.662 28.429C689.069 30.8197 690.897 34.4762 692.163 39.3983C692.725 40.664 693.569 42.4922 694.553 44.7423C696.522 49.5238 697.647 51.9145 698.35 55.0084C698.772 56.5554 699.194 58.6648 699.335 61.4775C700.601 63.4463 702.148 66.1183 703.413 69.2122C704.82 72.8686 705.523 76.1032 705.945 78.6345C706.788 79.9002 707.632 81.1659 708.335 82.7129C710.164 86.088 711.429 89.3225 712.273 92.1352C712.554 95.3697 714.242 109.574 714.523 111.12C715.226 116.183 715.367 119.558 715.929 134.747C716.211 141.778 716.351 145.435 717.617 149.091C719.023 152.888 721.414 158.232 721.836 159.92C722.117 160.904 722.258 162.31 722.68 164.982C723.102 167.795 725.07 175.811 725.774 177.217C729.711 186.499 732.383 196.203 736.04 205.484C739.556 214.204 746.447 233.47 761.494 280.16C762.9 283.113 765.01 287.332 767.541 292.535C771.338 300.692 773.307 304.77 775.276 309.833C779.214 319.818 777.526 319.255 781.323 329.24C783.714 335.428 784.558 336.553 790.746 350.476C791.871 353.148 792.855 356.945 795.527 361.586C797.637 365.523 799.746 367.914 800.871 369.461C805.371 375.368 809.871 385.352 818.731 405.041C820.138 408.275 821.263 410.807 821.966 412.354C822.106 415.729 822.247 419.104 822.247 422.479L673.881 423.042Z" fill="#445272"/>
<path d="M671.209 110.559C671.209 110.559 670.506 104.512 670.506 95.3706C670.506 92.4173 671.068 90.0266 671.35 88.1983C671.209 87.6358 671.068 86.9327 670.787 86.0889" stroke="#BA6DCD" stroke-width="3" stroke-miterlimit="10" stroke-linecap="round"/>
<path d="M717.617 149.374C719.023 153.171 721.414 158.515 721.836 160.203C722.117 161.187 722.258 162.593 722.68 165.265C723.102 168.078 725.071 176.094 725.774 177.5C729.711 186.782 732.383 196.486 736.04 205.767C739.556 214.487 746.447 233.753 761.494 280.443C762.901 283.396 765.01 287.615 767.541 292.818C771.338 300.975 773.307 305.053 775.276 310.116C779.214 320.101 777.526 319.538 781.323 329.523C783.714 335.711 784.558 336.836 790.746 350.759C791.871 353.431 792.855 357.228 795.527 361.869C797.637 365.806 799.746 368.197 800.871 369.744C805.371 375.65 809.872 385.635 818.731 405.324C820.138 408.558 821.263 411.09 821.966 412.637C822.107 416.012 822.247 419.387 822.247 422.762" stroke="#697695" stroke-width="2" stroke-miterlimit="10"/>
<path d="M673.881 423.043C668.396 413.62 662.771 406.026 657.849 399.979C655.317 396.885 647.442 387.603 635.488 377.337C631.41 373.821 626.91 370.165 620.3 366.087C613.971 362.149 608.487 359.758 604.971 358.211C600.19 356.242 554.625 338.804 545.484 335.429C536.624 332.194 531.139 330.788 525.514 325.444C522.28 322.35 520.17 318.975 519.467 317.85C516.795 313.631 515.951 310.397 514.123 304.49C514.123 304.49 512.154 298.443 508.92 290.005C503.435 275.661 500.2 271.723 497.247 263.144C496.966 262.3 496.263 260.05 494.716 257.238C493.028 254.003 491.481 252.316 490.497 250.769C487.543 246.69 486.559 242.753 484.871 236.143C482.762 227.705 484.309 227.424 482.199 222.361C480.09 217.439 477.137 213.923 475.449 211.954C472.496 208.439 469.121 205.485 467.855 204.36C463.777 200.704 461.105 199.157 460.261 195.641C460.12 194.797 459.839 193.391 460.12 191.703C461.105 185.656 468.277 182.422 470.527 181.437C477.277 178.484 483.606 179.328 486.7 179.75C494.013 180.875 498.935 183.969 504.138 187.203C504.138 187.203 514.264 193.532 523.264 205.767C525.092 208.157 526.358 210.407 527.342 212.798C528.327 215.189 528.749 217.439 529.03 218.845C531.842 222.08 534.093 224.892 535.78 227.002C544.781 238.534 547.171 244.44 548.296 247.956C548.296 248.097 548.296 248.94 548.859 249.644C549.421 250.487 550.125 250.769 550.828 251.191C551.531 251.612 552.656 252.175 553.922 253.159C554.484 249.222 554.484 245.987 554.484 243.878C554.203 238.674 553.218 237.409 552.797 231.08C552.515 226.439 552.937 226.158 552.515 223.345C551.953 220.111 550.828 218.142 548.859 214.064C541.827 200.282 541.687 200.001 540.562 198.313C539.999 197.469 539.296 195.5 533.108 189.313C526.498 182.703 521.295 175.249 517.92 169.202C517.217 167.937 512.998 163.436 512.295 162.452C505.263 151.905 501.607 141.357 499.075 132.216C496.966 124.622 497.388 111.403 498.935 105.777C500.904 98.4645 509.341 96.4957 510.045 96.3551C515.951 95.0894 520.733 97.1988 522.701 98.1833C523.826 98.7458 529.311 101.418 532.546 107.184C532.546 107.184 532.546 107.184 534.655 112.246C536.905 117.59 537.89 119.981 539.155 122.794C539.718 123.919 540.14 124.903 540.28 125.466C541.405 125.888 542.952 126.591 544.921 127.575C549.562 129.966 552.375 132.357 556.594 135.873C561.797 140.232 566.016 143.889 569.672 146.701C573.751 149.936 577.126 152.467 579.376 154.014C578.814 149.514 577.97 145.857 577.267 143.045C576.142 138.826 574.735 133.201 571.219 126.872C569.251 123.216 567.282 120.544 565.735 118.575C564.891 118.575 563.766 118.575 562.36 118.434C561.516 118.294 557.437 118.012 554.484 117.309C552.937 116.887 546.187 115.059 542.531 108.871C541.968 107.746 540.28 104.652 540.421 100.433C540.843 93.9643 545.343 90.1673 546.328 89.4641C546.609 88.7609 546.89 87.7765 547.171 86.5108C547.453 84.9639 547.453 83.8388 547.453 83.4169C547.453 80.6043 548.296 76.6666 548.859 74.5571C550.406 69.2131 554.203 65.838 555.609 64.7129C557.437 63.166 559.688 62.0409 564.047 59.7908C568.407 57.5407 570.657 56.4156 573.329 55.9937C574.876 55.7125 578.392 55.15 582.751 56.275C586.548 57.4001 589.08 59.3689 591.892 61.9003C594.705 64.291 596.533 66.5411 597.799 68.0881C599.768 66.4005 601.596 64.9942 602.862 63.8691C607.08 60.6346 615.659 56.1344 617.628 54.8687C623.534 51.3529 629.019 50.5091 630.425 50.3685C633.379 49.9466 640.832 49.1028 646.598 53.0405C647.864 53.8843 652.926 59.0876 654.614 62.7441C659.395 73.1508 665.583 88.339 667.411 95.23C669.662 103.668 670.224 112.528 670.224 112.528" stroke="#697695" stroke-width="2" stroke-miterlimit="10"/>
<path d="M631.552 122.088C629.162 118.713 625.927 113.932 622.271 108.025C620.161 104.65 617.349 100.15 613.833 93.9621C609.192 85.5242 608.207 82.8522 604.27 77.0863C601.879 73.5705 599.629 70.8985 598.223 69.0703" stroke="#697695" stroke-width="2" stroke-miterlimit="10"/>
<path d="M551.953 98.043C554.203 100.996 556.453 104.09 558.563 107.606C560.953 111.403 563.204 114.919 565.032 118.435" stroke="#697695" stroke-width="2" stroke-miterlimit="10"/>
<path d="M619.035 78.2129C619.879 83.2756 620.582 88.479 621.285 93.823C621.988 99.3076 622.551 104.089 623.113 109.433" stroke="#697695" stroke-width="2" stroke-miterlimit="10"/>
<path d="M670.927 86.2286C670.646 84.8223 670.224 83.2754 669.943 81.3065C668.677 74.4156 668.958 71.6029 667.411 66.9621C666.427 64.1495 666.286 64.8526 664.177 59.7899C662.067 54.7271 660.801 51.7739 660.098 48.1174C659.536 45.0235 658.692 39.9608 660.801 34.0543C662.63 29.1322 665.864 26.1789 667.974 24.21C669.943 22.3818 671.349 21.1161 673.599 20.5536C677.537 19.5692 681.052 21.538 681.756 21.9599C684.568 23.5069 685.834 25.6164 687.662 28.7103C689.068 31.101 690.897 34.7574 692.162 39.6795C692.725 40.9452 693.569 42.7734 694.553 45.0235C696.522 49.805 697.647 52.1958 698.35 55.2897C698.772 56.8366 699.194 58.9461 699.335 61.7587C700.6 63.7276 702.147 66.3996 703.413 69.4935C704.819 73.1499 705.522 76.3844 705.944 78.9158C706.788 80.1815 707.632 81.4472 708.335 82.9941C710.163 86.3693 711.429 89.6038 712.273 92.4164C712.554 95.651 714.242 109.855 714.523 111.402C715.226 116.464 715.367 119.84 715.929 135.028C716.21 142.059 716.351 145.716 717.617 149.372" stroke="#BA6DCD" stroke-width="3" stroke-miterlimit="10" stroke-linecap="round"/>
<g opacity="0.5">
<path d="M470.246 186.218C474.043 187.905 477.559 190.577 480.231 193.812C481.637 195.359 482.903 197.046 484.028 199.015C484.59 200 485.012 200.984 485.294 202.109C485.575 203.234 485.575 204.359 485.434 205.344V205.625L485.294 205.766C484.028 206.609 483.044 207.734 482.059 209C481.075 210.266 480.372 211.531 479.668 212.938C479.95 211.391 480.653 209.844 481.356 208.578C482.2 207.172 483.184 205.906 484.45 204.922L484.169 205.344C484.169 204.359 484.028 203.375 483.887 202.39C483.606 201.406 483.184 200.562 482.762 199.718C481.778 198.031 480.512 196.343 479.246 194.796C476.574 191.562 473.621 188.609 470.246 186.218Z" fill="#B1BBD0"/>
</g>
<g opacity="0.5">
<path d="M670.363 27.7256C670.926 28.8506 671.348 29.8351 671.91 30.9601C672.473 31.9445 673.035 33.0696 673.598 34.054C674.723 36.1635 675.988 38.1323 677.254 39.9606L676.973 39.6793C678.801 40.5231 680.77 40.945 682.879 41.2262C684.989 41.3669 687.098 41.5075 689.067 41.0856C688.083 41.5075 687.098 41.7888 685.973 42.07C684.848 42.2107 683.864 42.3513 682.739 42.3513C680.629 42.3513 678.379 42.07 676.27 41.0856L676.129 40.945L675.988 40.8043C673.316 36.8667 671.348 32.3664 670.363 27.7256Z" fill="#B1BBD0"/>
</g>
</svg>
