<svg width="900" height="500" viewBox="0 0 900 500" fill="none" xmlns="http://www.w3.org/2000/svg">
<path opacity="0.33" d="M694.391 428.437C687.6 414.133 682.831 400.84 680.953 371.364C679.075 341.888 682.687 339.576 680.953 316.313C679.219 293.05 677.485 298.107 679.219 280.624C680.809 263.14 671.272 240.455 671.128 231.93C670.983 223.405 671.706 194.218 669.105 180.492C666.504 166.765 660.435 157.951 656.101 134.399C651.766 110.847 635.294 95.5311 624.746 98.9989C614.198 102.467 612.465 113.448 613.765 117.494C609.141 108.391 606.107 103.045 603.217 99.5768C600.327 96.1091 591.947 92.0633 591.947 92.0633C591.947 92.0633 578.943 89.318 573.886 101.022C569.695 101.889 569.695 110.992 569.84 113.448C568.828 107.957 566.95 100.155 565.361 97.6985C563.627 95.2421 560.303 91.3409 555.68 89.318C551.056 87.2952 539.208 88.0176 536.174 90.4739C533.139 92.9303 527.649 97.9874 528.082 102.9C528.516 107.957 530.105 112.437 530.394 125.296C530.683 138.156 534.873 165.32 535.74 172.111C536.607 178.902 548.311 241.467 548.311 241.467C548.311 241.467 547.877 242.478 547.155 241.756C546.577 241.033 532.85 164.742 527.938 153.472C529.816 141.479 530.972 107.524 523.169 100.01C519.846 92.4968 499.617 86.5727 491.959 103.478C484.301 120.239 486.758 150.293 485.313 161.852C483.868 173.412 485.457 199.131 486.902 206.789C485.891 198.986 483.29 191.762 478.811 187.283C474.332 182.803 466.963 178.324 461.761 176.446C457.571 175.001 452.225 176.879 449.913 179.191C449.19 179.914 448.179 180.636 447.167 180.781C446.011 181.07 445 181.936 445 181.936C445 184.393 446.878 196.675 453.669 208.812C451.936 211.413 454.247 222.249 452.369 229.907C450.491 237.421 448.323 242.623 451.647 251.292C450.346 253.604 452.08 259.961 454.97 262.273C453.236 267.619 455.403 274.41 461.183 288.571C468.407 306.343 464.795 325.994 469.852 336.108C474.91 346.222 480.978 349.69 487.625 360.093C494.127 370.497 519.557 403.007 529.96 411.243C540.364 419.479 544.698 428.293 544.698 428.293H694.391V428.437Z" fill="#445272"/>
<path d="M694.391 428.438C687.6 414.134 682.831 400.841 680.953 371.365C679.075 341.888 682.687 339.577 680.953 316.314C679.219 293.051 677.485 298.108 679.219 280.624C680.809 263.141 671.272 240.456 671.128 231.931C670.983 223.406 671.706 194.219 669.105 180.492C666.504 166.766 662.603 156.652 656.101 134.4C648.876 109.548 635.294 95.532 624.746 98.9998C614.198 102.468 612.465 113.449 613.765 117.495C609.141 108.392 606.107 103.046 603.217 99.5778C601.05 96.9769 595.126 92.4977 590.213 91.7753C586.601 91.1973 577.787 91.9198 573.886 100.878C570.129 102.179 569.695 110.848 569.84 113.304C568.828 107.814 566.95 100.011 565.361 97.5549C563.627 95.0986 560.303 91.1973 555.68 89.1745C551.056 87.1516 539.208 87.874 536.174 90.3304C533.139 92.7867 527.649 97.8439 528.082 102.757C528.516 107.814 530.105 112.293 530.394 125.153C530.683 138.012 534.873 165.177 535.74 171.968C536.607 178.759 548.311 241.323 548.311 241.323C548.311 241.323 547.877 242.334 547.155 241.612C546.577 240.89 532.85 164.599 527.938 153.328C529.816 141.336 530.972 107.38 523.169 99.8668C519.846 92.3532 499.617 86.4291 491.959 103.335C484.301 120.095 486.758 150.149 485.313 161.709C483.868 173.268 485.457 198.987 486.902 206.645C485.891 198.843 483.29 191.618 478.811 187.139C474.332 182.66 466.963 178.181 461.761 176.302C457.571 174.857 452.225 176.736 449.913 179.192C449.046 180.059 447.89 180.926 446.589 181.07C445.578 181.215 445 181.504 445 181.504C445 183.816 446.589 194.942 452.225 206.067C452.947 207.512 453.38 209.102 453.091 210.691C452.513 214.881 453.958 223.551 452.369 229.764C450.491 237.277 448.323 242.479 451.647 251.148C451.936 255.772 453.38 260.396 454.97 262.13C454.536 268.343 455.403 274.267 461.183 288.427C468.407 306.199 464.795 325.85 469.852 335.964C474.91 346.079 480.978 349.546 487.625 359.95C494.127 370.353 519.557 402.863 529.96 411.099C540.364 419.335 544.698 428.149 544.698 428.149" stroke="#697695" stroke-width="2" stroke-miterlimit="10"/>
<path d="M491.815 328.884C492.248 321.515 495.571 308.944 495.86 304.465C496.294 299.986 494.994 306.344 494.705 286.982C494.56 267.476 492.826 236.844 489.647 223.117C486.469 209.39 487.336 206.645 485.891 201.732" stroke="#697695" stroke-width="2" stroke-miterlimit="10"/>
<path d="M597.726 228.897C594.548 224.129 590.935 215.749 590.502 193.497C590.068 171.245 583.422 165.899 582.988 150.583C582.555 135.267 571.574 130.355 569.695 113.594" stroke="#697695" stroke-width="2" stroke-miterlimit="10"/>
<path d="M636.74 223.407C636.884 217.916 637.029 190.174 634.139 173.557C631.249 156.941 628.359 150.583 624.891 143.214C621.279 135.701 615.21 124.286 613.477 117.64" stroke="#697695" stroke-width="2" stroke-miterlimit="10"/>
<g opacity="0.5">
<path d="M453.092 182.806C454.392 183.095 455.548 183.817 456.704 184.684C457.715 185.695 458.438 186.851 458.871 188.152C459.594 190.753 460.316 193.209 460.75 195.954C461.183 198.555 461.617 201.3 461.328 204.046C461.328 204.768 461.039 205.491 460.894 206.069C460.605 206.791 460.172 207.369 459.594 207.803C458.438 208.814 456.993 208.958 455.693 208.525C456.993 208.669 458.293 208.236 459.16 207.225C460.027 206.358 460.172 205.057 460.172 203.757C460.172 201.156 459.738 198.555 459.305 196.099C458.871 193.498 458.293 190.897 457.716 188.441C457.282 186.129 455.548 183.962 453.092 182.806Z" fill="#B1BBD0"/>
</g>
<path opacity="0.33" d="M372.51 151.899C361.291 151.189 352.203 153.887 338.145 162.123C324.087 170.359 318.833 181.009 318.123 186.973C306.763 196.771 299.805 218.213 298.953 222.757C295.545 223.183 291.143 230.993 290.007 231.277C288.871 231.703 289.155 229.431 289.155 226.023C289.155 222.615 286.457 222.047 285.889 219.207C285.321 216.367 287.735 212.249 288.303 207.847C288.871 203.445 286.457 199.469 286.457 197.481C286.457 195.493 288.161 192.795 297.391 181.435C306.621 170.075 315.141 168.087 321.531 163.969C327.921 159.993 334.737 152.467 348.937 146.077C363.137 139.687 372.651 130.031 374.214 115.831C375.776 101.489 365.267 98.5066 357.741 98.2226C350.357 97.7966 337.435 108.447 337.435 108.447C335.305 108.731 333.033 109.299 332.465 109.299C330.761 109.299 330.477 107.879 327.069 107.027V106.885C326.501 98.5066 315.709 89.4185 314.289 88.1405C312.869 86.8625 312.159 79.1945 307.189 73.5145C304.775 57.6104 287.309 47.1023 275.381 47.9543C270.837 48.3803 264.305 51.9304 257.631 56.6164L257.489 56.4744C254.791 51.3624 249.111 49.9424 244.141 47.9543C239.171 45.9663 234.201 37.4463 216.451 38.7243C198.701 40.0023 196.287 50.3684 186.915 62.1544C185.211 64.2844 183.791 66.4144 182.512 68.4024L182.939 65.8464C182.939 65.8464 183.365 49.2323 180.24 36.8783C177.116 24.6662 167.318 22.1102 167.318 22.1102C167.318 22.1102 165.472 18.7022 158.088 20.5482C150.562 22.3942 151.698 37.7303 151.13 46.2503C150.562 54.9124 151.982 61.1604 151.982 63.5744C151.982 65.9884 150.278 67.9764 149.284 70.8165C148.29 73.6565 148.716 78.2005 148.29 80.0465C148.006 81.8925 146.16 83.5965 145.45 86.1525C144.74 88.7086 144.74 91.9746 144.03 95.3826C143.462 98.7906 140.196 101.773 137.782 108.447C135.368 115.121 135.368 123.499 133.38 130.315C131.392 137.131 123.298 149.911 120.458 156.301C117.618 162.833 113.784 174.477 112.364 181.861C110.944 189.245 94.7561 221.195 91.064 230.567C87.372 239.939 77.29 269.191 74.0239 279.558C70.7579 289.924 46.6178 338.346 36.6778 361.35C26.7377 384.354 15.3776 397.986 11.5436 405.37C7.7096 412.754 7.1416 428.09 7.1416 428.09H161.07C164.336 415.168 184.359 385.064 207.647 360.356C230.935 335.79 252.661 329.684 268.423 321.732C284.185 313.78 320.679 302.562 330.335 290.492C339.991 278.422 342.973 254.423 348.653 230.993C354.333 207.563 360.013 196.345 362.853 192.653C365.693 188.961 364.983 189.955 365.693 186.547C368.533 184.843 383.728 170.785 386 164.111C385.716 159.993 383.728 152.609 372.51 151.899ZM264.021 130.315V129.037C264.021 129.037 265.725 117.109 275.239 114.127C276.943 113.559 278.647 112.991 280.209 112.281C285.179 110.435 294.551 118.245 294.551 118.245C286.457 122.647 281.771 124.777 269.275 128.895C267.429 129.605 265.725 130.031 264.021 130.315Z" fill="#445272"/>
<path d="M142.895 130.599C147.865 123.357 163.059 107.311 169.165 96.8028C175.271 86.1527 177.259 74.2247 186.773 62.5806C196.145 50.9365 198.701 40.4285 216.309 39.1505C234.059 37.8725 238.887 46.3925 243.999 48.3805C248.969 50.3685 254.649 51.9305 257.347 56.9006" stroke="#697695" stroke-width="2" stroke-miterlimit="10"/>
<path d="M200.973 105.464C206.085 102.766 222.983 90.2698 230.225 81.3237C237.609 72.3777 263.169 49.3736 275.097 48.3796C287.025 47.3856 304.491 58.0356 306.905 73.9397C312.017 79.6197 312.585 87.1458 314.005 88.5658C315.425 89.8438 326.217 98.9318 326.785 107.31C326.785 107.31 319.685 103.476 294.409 118.386C294.409 118.386 285.037 110.576 280.067 112.422" stroke="#697695" stroke-width="2" stroke-miterlimit="10"/>
<g opacity="0.5">
<path d="M382.448 156.868C381.596 157.152 380.744 157.72 380.034 158.288C379.324 158.856 378.472 159.424 377.762 159.85C376.342 160.986 374.78 162.122 373.502 163.4C372.082 164.536 370.804 165.814 369.526 167.234C368.248 168.654 367.112 170.074 366.402 171.778C366.544 169.79 367.538 168.086 368.674 166.524C369.81 164.962 371.23 163.542 372.65 162.406C374.07 161.128 375.632 159.992 377.336 158.998C378.756 158.004 380.46 157.01 382.448 156.868Z" fill="#B1BBD0"/>
</g>
<g opacity="0.5">
<path d="M364.843 176.323C364.843 178.311 364.843 180.299 364.843 182.145C364.843 183.139 364.843 184.133 364.843 184.985C364.843 185.979 364.985 186.831 365.269 187.825C364.417 187.115 363.991 186.121 363.707 185.127C363.423 184.133 363.423 183.139 363.281 182.145C363.423 180.157 363.707 178.027 364.843 176.323Z" fill="#B1BBD0"/>
</g>
<path d="M264.021 129.037C264.021 129.037 265.725 117.109 275.24 114.127C284.754 111.145 292.138 105.749 296.398 100.211" stroke="#697695" stroke-width="2" stroke-miterlimit="10"/>
<path d="M245.703 129.037C245.703 129.037 256.779 133.155 269.275 129.037C281.771 124.919 286.457 122.789 294.551 118.387C302.645 113.843 315.283 106.601 322.81 107.027C330.478 107.453 330.052 109.867 332.324 109.867C334.596 109.867 346.95 105.039 359.446 118.529" stroke="#697695" stroke-width="2" stroke-miterlimit="10"/>
<path d="M7 428.658C7 428.658 7.568 413.322 11.402 405.938C15.236 398.554 26.5961 384.922 36.5362 361.918C46.4762 338.914 70.6163 290.492 73.8823 280.125C77.1484 269.759 87.0884 240.649 90.9224 231.135C94.6145 221.763 110.803 189.813 112.223 182.429C113.643 175.045 117.335 163.259 120.317 156.869C123.299 150.479 131.251 137.557 133.239 130.883C135.227 124.067 135.085 115.689 137.641 109.015C140.055 102.341 143.321 99.3586 143.889 95.9505C144.457 92.5425 144.599 89.2765 145.309 86.7205C146.019 84.1645 147.723 82.4605 148.149 80.6145C148.433 78.7684 148.149 74.2244 149.143 71.3844C150.137 68.5444 151.841 66.4144 151.841 64.1424C151.841 61.8704 150.421 55.4803 150.989 46.9603C151.557 38.2982 150.421 23.1042 157.947 21.2582C165.473 19.4121 167.177 22.8202 167.177 22.8202C167.177 22.8202 176.975 25.2342 180.099 37.5882C183.223 49.8003 182.797 66.4144 182.797 66.4144" stroke="#697695" stroke-width="2" stroke-miterlimit="10"/>
<path d="M337.294 108.163C337.294 108.163 350.358 98.2231 357.743 98.6491C365.127 99.0751 375.777 102.057 374.215 116.257C372.653 130.457 363.139 140.255 348.938 146.503C334.738 152.893 327.922 160.419 321.532 164.395C315.142 168.371 306.622 170.501 297.392 181.861C288.162 193.222 286.458 195.92 286.458 197.908C286.458 199.896 288.872 203.73 288.304 208.274C287.736 212.818 285.322 216.794 285.89 219.634C286.458 222.474 289.156 223.042 289.156 226.45C289.156 229.858 288.872 231.988 290.008 231.704C291.144 231.278 295.546 223.61 298.954 223.184C299.806 218.64 306.764 197.198 318.124 187.4C318.692 181.293 324.088 170.785 338.004 162.549C351.92 154.313 361.151 151.615 372.369 152.325C383.587 153.035 385.575 160.419 385.575 164.963C383.303 171.779 368.109 185.696 365.269 187.4C364.559 190.95 365.411 189.814 362.429 193.506C359.589 197.198 353.909 208.416 348.228 231.846C342.548 255.276 339.566 279.132 329.91 291.344C320.254 303.414 283.76 314.632 267.998 322.726C252.236 330.82 230.51 336.784 207.222 361.35C183.934 385.917 164.054 416.163 160.646 429.085" stroke="#697695" stroke-width="2" stroke-miterlimit="10"/>
<path d="M120.316 156.869C123.298 150.479 131.25 137.557 133.238 130.883C135.226 124.067 135.084 115.689 137.641 109.015C140.055 102.341 143.321 99.3586 143.889 95.9505C144.457 92.5425 144.599 89.2765 145.309 86.7205C146.019 84.1645 147.723 82.4605 148.149 80.6145C148.433 78.7685 148.149 74.2244 149.143 71.3844C150.137 68.5444 151.841 66.4144 151.841 64.1424C151.841 61.8704 150.421 55.4803 150.989 46.9603C151.557 38.2982 150.421 23.1042 157.947 21.2582C165.473 19.4121 167.177 22.8202 167.177 22.8202C167.177 22.8202 176.975 25.2342 180.099 37.5882C183.223 49.8003 182.797 66.4144 182.797 66.4144" stroke="#BA6DCD" stroke-width="3" stroke-miterlimit="10" stroke-linecap="round"/>
<path d="M307.048 73.9404C307.048 73.9404 306.764 83.3125 304.35 89.4185" stroke="#697695" stroke-width="2" stroke-miterlimit="10"/>
<g opacity="0.5">
<path d="M165.9 26.9375C166.468 28.6415 166.752 30.3455 166.752 32.3335C166.752 33.3275 166.61 34.1795 166.184 35.1735C165.758 36.0256 165.19 36.8776 164.48 37.5876C162.918 38.8656 161.214 39.5756 159.368 39.8596C158.374 40.0016 157.522 39.8596 156.528 39.5756C155.676 39.2916 154.824 38.7236 154.54 37.7296C155.108 38.4396 155.96 38.7236 156.812 38.8656C157.664 39.0076 158.516 38.8656 159.226 38.7236C160.788 38.2976 162.35 37.5876 163.628 36.5936C164.906 35.5995 165.474 34.0375 165.758 32.3335C165.9 30.4875 165.9 28.6415 165.9 26.9375Z" fill="#B1BBD0"/>
</g>
</svg>
