<svg width="900" height="500" viewBox="0 0 900 500" fill="none" xmlns="http://www.w3.org/2000/svg">
<path opacity="0.33" d="M694.391 428.437C687.6 414.133 682.831 400.84 680.953 371.364C679.075 341.888 682.687 339.576 680.953 316.313C679.219 293.05 677.485 298.107 679.219 280.624C680.809 263.14 671.272 240.455 671.128 231.93C670.983 223.405 671.706 194.218 669.105 180.492C666.504 166.765 660.435 157.951 656.101 134.399C651.766 110.847 635.294 95.5311 624.746 98.9989C614.198 102.467 612.465 113.448 613.765 117.494C609.141 108.391 606.107 103.045 603.217 99.5768C600.327 96.1091 591.947 92.0633 591.947 92.0633C591.947 92.0633 578.943 89.318 573.886 101.022C569.695 101.889 569.695 110.992 569.84 113.448C568.828 107.957 566.95 100.155 565.361 97.6985C563.627 95.2421 560.303 91.3409 555.68 89.318C551.056 87.2952 539.208 88.0176 536.174 90.4739C533.139 92.9303 527.649 97.9874 528.082 102.9C528.516 107.957 530.105 112.437 530.394 125.296C530.683 138.156 534.873 165.32 535.74 172.111C536.607 178.902 548.311 241.467 548.311 241.467C548.311 241.467 547.877 242.478 547.155 241.756C546.577 241.033 532.85 164.742 527.938 153.472C529.816 141.479 530.972 107.524 523.169 100.01C519.846 92.4968 499.617 86.5727 491.959 103.478C484.301 120.239 486.758 150.293 485.313 161.852C483.868 173.412 485.457 199.131 486.902 206.789C485.891 198.986 483.29 191.762 478.811 187.283C474.332 182.803 466.963 178.324 461.761 176.446C457.571 175.001 452.225 176.879 449.913 179.191C449.19 179.914 448.179 180.636 447.167 180.781C446.011 181.07 445 181.936 445 181.936C445 184.393 446.878 196.675 453.669 208.812C451.936 211.413 454.247 222.249 452.369 229.907C450.491 237.421 448.323 242.623 451.647 251.292C450.346 253.604 452.08 259.961 454.97 262.273C453.236 267.619 455.403 274.41 461.183 288.571C468.407 306.343 464.795 325.994 469.852 336.108C474.91 346.222 480.978 349.69 487.625 360.093C494.127 370.497 519.557 403.007 529.96 411.243C540.364 419.479 544.698 428.293 544.698 428.293H694.391V428.437Z" fill="#E0E1E2"/>
<path d="M694.391 428.438C687.6 414.134 682.831 400.841 680.953 371.365C679.075 341.888 682.687 339.577 680.953 316.314C679.219 293.051 677.485 298.108 679.219 280.624C680.809 263.141 671.272 240.456 671.128 231.931C670.983 223.406 671.706 194.219 669.105 180.492C666.504 166.766 662.603 156.652 656.101 134.4C648.876 109.548 635.294 95.532 624.746 98.9998C614.198 102.468 612.465 113.449 613.765 117.495C609.141 108.392 606.107 103.046 603.217 99.5778C601.05 96.9769 595.126 92.4977 590.213 91.7753C586.601 91.1973 577.787 91.9198 573.886 100.878C570.129 102.179 569.695 110.848 569.84 113.304C568.828 107.814 566.95 100.011 565.361 97.5549C563.627 95.0986 560.303 91.1973 555.68 89.1745C551.056 87.1516 539.208 87.874 536.174 90.3304C533.139 92.7867 527.649 97.8439 528.082 102.757C528.516 107.814 530.105 112.293 530.394 125.153C530.683 138.012 534.873 165.177 535.74 171.968C536.607 178.759 548.311 241.323 548.311 241.323C548.311 241.323 547.877 242.334 547.155 241.612C546.577 240.89 532.85 164.599 527.938 153.328C529.816 141.336 530.972 107.38 523.169 99.8668C519.846 92.3532 499.617 86.4291 491.959 103.335C484.301 120.095 486.758 150.149 485.313 161.709C483.868 173.268 485.457 198.987 486.902 206.645C485.891 198.843 483.29 191.618 478.811 187.139C474.332 182.66 466.963 178.181 461.761 176.302C457.571 174.857 452.225 176.736 449.913 179.192C449.046 180.059 447.89 180.926 446.589 181.07C445.578 181.215 445 181.504 445 181.504C445 183.816 446.589 194.942 452.225 206.067C452.947 207.512 453.38 209.102 453.091 210.691C452.513 214.881 453.958 223.551 452.369 229.764C450.491 237.277 448.323 242.479 451.647 251.148C451.936 255.772 453.38 260.396 454.97 262.13C454.536 268.343 455.403 274.267 461.183 288.427C468.407 306.199 464.795 325.85 469.852 335.964C474.91 346.079 480.978 349.546 487.625 359.95C494.127 370.353 519.557 402.863 529.96 411.099C540.364 419.335 544.698 428.149 544.698 428.149" stroke="#75819C" stroke-width="2" stroke-miterlimit="10"/>
<path d="M491.815 328.884C492.248 321.515 495.571 308.944 495.86 304.465C496.294 299.986 494.994 306.344 494.705 286.982C494.56 267.476 492.826 236.844 489.647 223.117C486.469 209.39 487.336 206.645 485.891 201.732" stroke="#75819C" stroke-width="2" stroke-miterlimit="10"/>
<path d="M597.726 228.897C594.548 224.129 590.935 215.749 590.502 193.497C590.068 171.245 583.422 165.899 582.988 150.583C582.555 135.267 571.574 130.355 569.695 113.594" stroke="#75819C" stroke-width="2" stroke-miterlimit="10"/>
<path d="M636.739 223.407C636.883 217.916 637.028 190.174 634.138 173.557C631.248 156.941 628.358 150.583 624.89 143.214C621.278 135.701 615.209 124.286 613.476 117.64" stroke="#75819C" stroke-width="2" stroke-miterlimit="10"/>
<g opacity="0.5">
<path d="M453.092 182.806C454.392 183.095 455.548 183.817 456.704 184.684C457.715 185.695 458.438 186.851 458.871 188.152C459.594 190.753 460.316 193.209 460.75 195.954C461.183 198.555 461.617 201.3 461.328 204.046C461.328 204.768 461.039 205.491 460.894 206.069C460.605 206.791 460.172 207.369 459.594 207.803C458.438 208.814 456.993 208.958 455.693 208.525C456.993 208.669 458.293 208.236 459.16 207.225C460.027 206.358 460.172 205.057 460.172 203.757C460.172 201.156 459.738 198.555 459.305 196.099C458.871 193.498 458.293 190.897 457.716 188.441C457.282 186.129 455.548 183.962 453.092 182.806Z" fill="#75819C"/>
</g>
<path opacity="0.33" d="M288.451 443.435C291.608 440.278 298.673 430.958 318.215 414.423C337.756 397.887 345.272 383.156 370.226 358.954C395.179 334.753 379.245 332.047 393.525 294.316C407.806 256.586 404.499 250.272 401.192 240.652C397.885 231.031 397.133 228.476 397.133 228.476C397.133 228.476 402.545 202.921 400.59 194.503C398.636 186.085 378.794 189.092 366.167 208.333C353.54 227.574 348.88 248.468 356.095 255.984C352.337 258.991 341.815 279.885 340.312 290.408C343.168 280.036 343.318 254.331 353.69 229.227C364.062 204.124 374.284 176.765 378.944 162.335C383.604 148.054 395.329 134.676 388.114 104.461C386.31 98.5987 377.591 96.0427 372.931 96.1927C368.271 96.4937 361.657 100.853 358.801 105.814C355.043 109.121 350.533 119.343 347.076 132.12C343.619 144.747 327.835 161.733 324.378 168.197C320.92 174.661 301.228 214.646 298.372 224.718C295.516 234.789 293.863 215.849 304.986 189.543C315.96 163.237 316.26 164.289 317.613 163.086C318.966 161.884 334.9 151.061 341.364 129.264C347.677 107.467 343.769 105.363 341.665 102.808C339.56 100.252 337.456 94.8407 325.731 94.3897C314.006 93.9387 312.653 102.657 311.3 104.311C309.947 105.964 304.084 110.173 300.176 117.84C296.268 125.506 302.281 112.428 300.928 107.768C299.575 103.108 298.072 95.4417 287.549 93.3367C277.027 91.2327 274.772 99.4997 266.204 104.01C257.635 108.67 254.178 110.624 254.178 110.624C254.178 110.624 251.472 107.167 247.864 104.311C244.407 101.605 237.492 93.4877 228.774 103.258C220.055 113.029 205.925 137.983 201.866 147.603C197.808 157.073 189.69 172.256 187.736 174.811C185.782 177.216 182.775 180.824 180.972 186.987C179.017 193.301 179.919 196.457 176.312 204.575C172.854 212.692 172.253 226.071 169.848 234.789C167.443 243.508 159.025 262.448 157.371 270.115C155.718 277.781 155.718 315.812 154.665 321.975C153.613 328.289 152.711 384.659 145.195 401.645C137.679 418.632 124 443.585 124 443.585H288.451V443.435Z" fill="#E0E1E2"/>
<path d="M288.451 443.435C291.608 440.278 298.673 430.958 318.215 414.423C337.756 397.887 345.272 383.156 370.226 358.954C395.179 334.753 379.245 332.047 393.525 294.316C407.806 256.586 404.499 250.272 401.192 240.652C397.885 231.031 397.133 228.476 397.133 228.476C397.133 228.476 402.545 202.921 400.59 194.503C398.636 186.085 378.794 189.092 366.167 208.333C353.54 227.574 348.88 248.468 356.095 255.984C352.337 258.991 341.815 279.885 340.312 290.408C343.168 280.036 343.318 254.331 353.69 229.227C364.062 204.124 374.284 176.765 378.944 162.335C383.604 148.054 395.329 134.676 388.114 104.461C386.31 98.5987 377.591 96.0427 372.931 96.1927C368.271 96.4937 361.657 100.853 358.801 105.814C355.043 109.121 350.533 119.343 347.076 132.12C343.619 144.747 327.835 161.733 324.378 168.197C320.92 174.661 301.228 214.646 298.372 224.718C295.516 234.789 293.863 215.849 304.986 189.543C315.96 163.237 316.26 164.289 317.613 163.086C318.966 161.884 334.9 151.061 341.364 129.264C347.677 107.467 343.769 105.363 341.665 102.808C339.56 100.252 337.456 94.8407 325.731 94.3897C314.006 93.9387 312.653 102.657 311.3 104.311C309.947 105.964 304.084 110.173 300.176 117.84C296.268 125.506 302.281 112.428 300.928 107.768C299.575 103.108 298.072 95.4417 287.549 93.3367C277.027 91.2327 274.772 99.4997 266.204 104.01C257.635 108.67 252.374 111.977 252.374 111.977C252.374 111.977 251.622 107.768 247.864 104.311C244.557 101.304 237.492 93.4877 228.774 103.258C220.055 113.029 205.925 137.983 201.866 147.603C197.808 157.073 189.69 172.256 187.736 174.811C185.782 177.216 182.775 180.824 180.972 186.987C179.017 193.301 179.919 196.457 176.312 204.575C172.854 212.692 172.253 226.071 169.848 234.789C167.443 243.508 159.025 262.448 157.371 270.115C155.718 277.781 155.718 315.812 154.665 321.975C153.613 328.289 152.711 384.659 145.195 401.645C137.679 418.632 124 443.585 124 443.585" stroke="#75819C" stroke-width="2" stroke-miterlimit="10"/>
<path d="M251.021 108.819C250.269 107.616 249.067 105.662 247.864 104.459C245.008 101.303 237.492 93.6365 228.773 103.407C220.055 113.178 205.925 138.131 201.866 147.752C197.807 157.222 189.69 172.404 187.736 174.96C185.782 177.365 182.775 180.973 180.971 187.136C179.017 193.449 179.919 196.606 176.311 204.723C172.854 212.841 172.253 226.219 169.848 234.938" stroke="#F69AED" stroke-width="3" stroke-miterlimit="10" stroke-linecap="round"/>
<path d="M191.043 230.73C196.004 223.064 196.004 222.312 197.658 215.998C199.311 209.685 204.723 171.654 205.625 167.896C206.526 164.138 205.023 146.851 218.101 139.635C231.179 132.42 231.179 127.309 236.891 123.25C242.604 119.192 248.917 114.983 254.329 110.624" stroke="#75819C" stroke-width="2" stroke-miterlimit="10"/>
<path d="M230.427 226.521C233.734 224.266 237.041 220.508 239.446 215.848C241.851 211.188 261.844 146.55 268.157 139.034C274.471 131.518 298.672 119.493 303.783 118.591C308.744 117.689 316.41 118.591 316.41 118.591" stroke="#75819C" stroke-width="2" stroke-miterlimit="10"/>
<g opacity="0.5">
<path d="M396.38 194.504C395.028 195.256 393.675 196.008 392.472 197.06C391.27 198.112 390.217 199.164 389.466 200.517C388.714 201.87 388.113 203.223 387.812 204.726C387.511 206.229 387.512 207.733 387.512 209.236C387.512 212.393 387.812 215.399 388.413 218.556C388.714 220.059 389.165 221.562 389.766 223.065C390.368 224.418 391.119 225.921 392.622 226.673C391.119 226.222 389.917 224.719 389.165 223.366C388.413 222.013 387.812 220.36 387.361 218.856C386.459 215.7 386.159 212.543 386.008 209.386C386.008 208.635 386.008 207.733 386.008 206.981C386.008 206.079 386.159 205.328 386.309 204.426C386.76 202.772 387.361 201.269 388.413 199.916C390.518 197.21 393.374 195.256 396.38 194.504Z" fill="#75819C"/>
</g>
<g opacity="0.5">
<path d="M243.806 105.213C245.009 105.965 245.61 107.468 246.061 108.821C246.362 110.174 246.212 111.828 245.31 113.18C243.656 115.435 241.702 117.69 239.146 119.193C237.794 119.945 236.441 120.396 234.787 120.396C233.134 120.396 231.781 119.795 230.578 119.043C229.376 118.291 228.173 117.389 227.271 116.187C226.82 115.586 226.369 114.984 226.069 114.383C225.768 113.782 225.317 113.03 225.768 112.279C225.467 113.03 226.069 113.631 226.369 114.082C226.82 114.684 227.271 115.135 227.722 115.586C228.774 116.487 229.827 117.239 231.029 117.84C232.232 118.442 233.585 118.893 234.787 118.742C235.99 118.742 237.192 118.291 238.395 117.69C240.65 116.337 242.604 114.383 244.408 112.279C245.159 111.377 245.46 110.024 245.31 108.671C245.159 107.619 244.708 106.266 243.806 105.213Z" fill="#75819C"/>
</g>
</svg>
