<svg width="900" height="500" viewBox="0 0 900 500" fill="none" xmlns="http://www.w3.org/2000/svg">
<path opacity="0.33" d="M327.41 430.327C329.284 428.02 337.356 419.659 346.15 410.865C354.943 402.072 372.963 371.078 378.297 364.88C383.631 358.681 397.758 343.4 401.218 335.76C404.677 328.12 400.929 303.613 401.218 295.973C401.506 288.333 405.11 251.861 402.659 242.347C400.209 232.832 396.316 228.94 393.145 222.309C389.973 215.678 389.397 213.66 386.514 211.641C383.631 209.623 385.36 192.324 385.937 189.874C386.514 187.423 388.532 176.323 388.532 172.431C388.532 168.539 388.532 157.439 391.559 149.222C394.586 141.005 392.568 116.354 387.379 108.57C382.189 100.785 378.008 98.9111 371.81 98.4786C365.611 98.0461 358.836 104.101 357.106 107.849C355.376 111.597 353.069 115.057 350.475 145.618C346.871 153.835 339.951 161.042 336.924 170.989C333.897 180.936 325.824 206.019 323.95 216.398C322.076 226.778 311.408 240.905 315.733 233.265C320.058 225.769 319.625 207.317 327.698 182.81C335.771 158.303 334.762 159.889 334.762 158.592C334.762 157.294 339.519 152.826 341.104 142.158C344.132 137.257 350.042 112.894 339.086 105.831C338.942 100.785 335.627 97.3254 326.545 95.8838C317.463 94.4422 314.147 96.7487 312.129 102.371C308.813 103.236 303.768 115.489 302.903 125.58C300.452 127.022 288.632 138.987 286.325 143.455C284.019 147.924 277.532 170.413 276.234 176.179C274.937 181.945 266.576 217.984 264.269 221.3C261.963 224.615 260.954 226.922 262.828 219.858C264.702 212.795 273.351 170.268 277.099 162.628C280.847 154.988 281.28 148.645 291.659 133.797C302.038 118.949 300.597 111.741 298.723 106.984C296.848 102.227 295.407 98.1903 286.613 96.7487C277.82 95.3072 272.774 102.659 272.774 102.659C272.774 102.659 267.441 104.245 254.611 118.084C251.872 112.75 248.124 108.714 248.124 108.714C248.124 108.714 245.385 102.947 237.6 101.794C229.816 100.641 226.644 109.002 226.212 112.029C223.617 112.029 218.283 123.994 216.409 135.959C214.535 148.068 211.508 165.367 208.336 175.602C205.165 185.837 203.147 194.343 202.426 201.839C201.705 209.335 197.669 219.858 196.948 229.661C196.227 239.464 184.839 267.574 184.262 276.512C183.542 285.449 183.974 316.011 183.109 323.074C182.244 330.138 180.947 353.924 183.109 367.619C185.271 381.169 184.262 393.711 181.956 400.486C179.649 407.261 171 429.75 171 429.75H327.41V430.327Z" fill="#445272"/>
<path d="M327.41 430.327C329.284 428.02 337.356 419.659 346.15 410.865C354.943 402.072 372.963 371.078 378.297 364.88C383.631 358.681 397.758 343.4 401.218 335.76C404.677 328.12 400.929 303.613 401.218 295.973C401.506 288.333 405.11 251.861 402.659 242.347C400.209 232.832 396.316 228.94 393.145 222.309C389.973 215.678 389.397 213.66 386.514 211.641C383.631 209.623 385.36 192.324 385.937 189.874C386.514 187.423 388.532 176.323 388.532 172.431C388.532 168.539 388.532 157.439 391.559 149.222C394.586 141.005 392.568 116.354 387.379 108.57C382.189 100.785 378.008 98.9111 371.81 98.4786C365.611 98.0461 358.836 104.101 357.106 107.849C355.376 111.597 353.069 115.057 350.475 145.618C346.871 153.835 339.951 161.042 336.924 170.989C333.897 180.936 325.824 206.019 323.95 216.398C322.076 226.778 311.408 240.905 315.733 233.265C320.058 225.769 319.625 207.317 327.698 182.81C335.771 158.303 334.762 159.889 334.762 158.592C334.762 157.294 339.519 152.826 341.104 142.158C344.132 137.257 350.042 112.894 339.086 105.831C338.942 100.785 335.627 97.3254 326.545 95.8838C317.463 94.4422 314.147 96.7487 312.129 102.371C308.813 103.236 303.768 115.489 302.903 125.58C300.452 127.022 288.632 138.987 286.325 143.455C284.019 147.924 277.532 170.413 276.234 176.179C274.937 181.945 266.576 217.984 264.269 221.3C261.963 224.615 260.954 226.922 262.828 219.858C264.702 212.795 273.351 170.268 277.099 162.628C280.847 154.988 281.28 148.645 291.659 133.797C302.038 118.949 300.597 111.741 298.723 106.984C296.848 102.227 295.407 98.1903 286.613 96.7487C277.82 95.3072 272.774 102.659 272.774 102.659C272.774 102.659 267.441 104.245 254.611 118.084C251.872 112.75 248.124 108.714 248.124 108.714C248.124 108.714 245.385 102.947 237.6 101.794C229.816 100.641 226.644 109.002 226.212 112.029C223.617 112.029 218.283 123.994 216.409 135.959C214.535 148.068 211.508 165.367 208.336 175.602C205.165 185.837 203.147 194.343 202.426 201.839C201.705 209.335 197.669 219.858 196.948 229.661C196.227 239.464 184.839 267.574 184.262 276.512C183.542 285.449 183.974 316.011 183.109 323.074C182.244 330.138 180.947 353.924 183.109 367.619C185.271 381.169 184.262 393.711 181.956 400.486C179.649 407.261 171 429.75 171 429.75" stroke="#697695" stroke-width="2" stroke-miterlimit="10"/>
<path d="M212.805 225.912C216.841 221.588 220.157 214.957 220.445 208.037C220.733 201.118 220.012 165.223 229.094 151.528C238.176 137.833 254.754 118.66 254.754 118.66" stroke="#697695" stroke-width="2" stroke-miterlimit="10"/>
<path d="M373.826 309.957C371.808 306.208 369.357 303.758 369.357 300.875C369.357 297.992 370.943 264.98 372.673 253.159C374.259 241.338 382.331 207.173 385.07 200.109" stroke="#697695" stroke-width="2" stroke-miterlimit="10"/>
<path opacity="0.33" d="M582.384 432.13C580.642 429.083 577.885 424.584 573.532 420.086C568.019 414.137 564.101 412.251 557.717 407.463C548.866 400.934 543.207 395.13 534.356 386.133C524.925 376.412 525.795 375.832 517.815 368.287C508.674 359.726 502.725 354.648 502.725 354.648C497.211 350.004 495.18 348.553 492.713 345.07C490.827 342.459 489.231 339.412 486.619 330.996C483.717 321.42 484.153 319.824 481.541 310.102C479.074 300.671 478.639 301.832 474.721 288.193C472.835 281.518 472.254 278.761 470.368 272.667C467.611 264.252 466.595 263.38 465.725 259.463C463.984 251.918 465.725 244.373 467.321 239.149C468.627 234.796 469.497 234.216 470.078 230.444C470.948 225.074 471.384 224.349 471.964 222.898C472.399 222.028 473.124 220.721 474.286 219.416C473.124 214.918 472.254 209.549 471.819 203.456C471.239 196.055 471.674 189.526 472.399 184.302C473.56 184.302 474.575 184.157 475.737 184.157C477.623 183.577 480.09 182.851 483.281 182.851C489.666 182.851 494.309 185.608 496.34 186.914C496.486 184.157 496.486 180.094 495.905 175.161C495.035 167.906 493.584 163.263 492.133 157.749C489.957 149.479 488.795 143.384 488.07 135.984C487.489 129.746 487.055 125.683 487.78 121.04C488.36 116.832 488.94 113.059 491.842 109.286C492.859 107.98 496.34 103.918 502.29 102.757C510.996 101.016 517.525 106.82 518.831 107.98C521.442 110.303 522.603 112.479 524.78 116.541C528.262 123.217 529.567 129.02 530.439 133.083C531.164 136.129 531.744 140.482 532.035 145.852C532.469 148.753 533.195 153.106 535.227 158.04C536.098 160.361 537.258 162.683 541.321 169.793C544.658 175.741 547.125 180.965 548.14 182.562C553.944 192.283 557.427 200.554 561.925 211.145C563.956 215.934 566.568 221.012 569.179 228.412C569.76 228.122 570.485 227.831 571.066 227.542C571.066 225.074 570.921 221.302 569.76 217.094C568.454 211.581 566.422 207.809 565.552 206.067C562.941 200.988 559.313 193.153 554.67 180.385C551.187 170.663 548.576 162.827 546.834 157.459C544.804 150.93 543.498 146.577 540.741 138.161C538.854 132.357 537.258 129.6 535.807 123.942C534.356 117.267 534.211 112.914 535.952 108.706C536.677 106.965 537.549 105.659 538.128 104.789C538.274 103.338 538.854 100.871 540.596 98.4043C543.643 94.0514 548.431 92.8906 550.027 92.4554C557.282 90.7142 563.086 94.4867 563.956 95.0671C565.697 96.2279 566.858 97.5338 567.584 98.4043C568.89 99.42 570.775 101.016 572.662 103.483C574.258 105.659 575.128 107.546 576.145 109.577C577.885 113.205 577.595 114.22 578.757 116.977C579.772 119.153 580.933 120.894 583.399 123.506C586.591 126.989 589.929 130.471 593.411 134.244C596.603 132.793 599.36 132.212 601.247 131.922C604.583 131.342 606.615 131.632 616.337 131.922C618.658 132.067 620.544 132.067 621.705 132.067C622.576 131.922 623.592 131.632 624.462 131.487C626.058 131.051 627.509 130.616 628.96 130.181C627.945 127.424 626.639 122.926 627.219 117.267C627.364 115.235 627.799 111.463 630.266 107.255C631.281 105.514 632.298 104.208 633.023 103.338C633.313 102.612 633.894 101.451 635.054 100.291C636.505 98.9847 638.102 98.6945 639.262 98.4043C642.309 97.8239 644.776 98.4043 646.372 98.8396C647.533 100.291 649.419 102.612 651.886 105.224C657.109 111.173 659.141 112.769 661.898 116.541C663.494 118.718 665.815 121.91 667.991 126.408C671.329 131.051 674.666 135.84 678.003 140.482C680.614 145.416 683.662 150.785 687.435 156.298C689.756 159.781 692.222 162.973 694.545 165.875C695.705 169.357 697.302 174.145 699.042 179.804C702.234 189.816 703.831 194.749 704.411 198.522C705.282 204.035 704.991 205.922 706.442 213.612C706.878 215.498 707.313 217.965 708.329 222.028C711.086 233.49 712.827 236.828 714.713 244.518C717.18 254.095 718.05 261.784 718.341 264.397C718.92 269.62 718.775 275.713 718.775 287.902C718.775 294.577 718.631 298.639 718.631 303.718C718.486 313.295 718.486 320.114 718.486 333.753C718.486 351.02 718.486 361.032 719.211 373.365C719.501 379.023 720.081 385.699 722.548 393.969C723.564 397.306 724.724 400.498 727.917 407.318C730.964 413.848 735.172 422.553 741.121 433C688.305 432.564 635.345 432.419 582.384 432.13Z" fill="#445272"/>
<path d="M629.106 129.745C628.089 126.988 626.783 122.49 627.364 116.831C627.509 114.8 627.945 111.027 630.411 106.819C631.427 105.079 632.442 103.773 633.168 102.902C633.459 102.177 634.038 101.016 635.199 99.8551C636.65 98.5492 638.246 98.259 639.407 97.9688C642.454 97.3884 644.92 97.9688 646.517 98.4041C647.678 99.8551 649.564 102.177 652.03 104.789C657.254 110.738 659.285 112.333 662.042 116.106C663.638 118.282 665.961 121.475 668.137 125.973C671.474 130.615 674.811 135.404 678.148 140.047C680.76 144.98 683.807 150.35 687.579 155.863C689.902 159.345 692.368 162.538 694.689 165.44C695.85 168.921 697.446 173.71 699.187 179.369C702.38 189.381 703.976 194.314 704.556 198.087C705.427 203.6 705.137 205.486 706.588 213.177C707.023 215.063 707.458 217.53 708.473 221.592C711.231 233.055 712.972 236.393 714.858 244.082C717.325 253.659 718.196 261.349 718.485 263.961C719.066 269.184 718.921 275.279 718.921 287.466C718.921 294.142 718.776 298.204 718.776 303.282C718.63 312.859 718.63 319.679 718.63 333.318C718.63 350.585 718.63 360.597 719.356 372.93C719.647 378.588 720.227 385.263 722.693 393.533C723.709 396.871 724.87 400.063 728.062 406.883C731.109 413.412 735.316 422.118 741.266 432.564" stroke="#697695" stroke-width="2" stroke-miterlimit="10"/>
<path d="M614.016 173.564C614.596 173.855 616.628 173.71 617.207 174C618.079 176.467 618.513 180.095 619.53 182.851C620.981 186.624 621.996 188.801 623.592 191.992C623.447 193.298 622.866 195.475 622.866 196.781" stroke="#BA6DCD" stroke-width="3" stroke-miterlimit="10" stroke-linecap="round"/>
<path d="M683.083 224.64C682.068 223.334 680.761 221.012 679.891 218.11C679.166 215.498 679.166 213.613 679.166 212.742C679.021 204.181 677.715 195.62 677.279 187.059C676.698 175.597 676.264 171.533 675.393 166.165C674.668 162.248 674.087 159.636 673.651 157.604C671.33 149.043 668.573 143.965 666.977 141.499C664.511 137.436 662.769 135.985 661.318 135.114C660.448 134.534 658.997 133.808 654.934 132.938C649.855 131.923 635.056 129.746 629.252 129.746C627.801 130.181 626.35 130.616 624.754 131.051C623.738 131.342 622.867 131.487 621.997 131.632C620.836 131.632 618.95 131.487 616.628 131.487C606.907 131.197 604.875 130.906 601.538 131.487C599.652 131.777 598.056 131.923 594.863 133.374" stroke="#BA6DCD" stroke-width="3" stroke-miterlimit="10" stroke-linecap="round"/>
<path d="M525.361 309.668C527.682 303.573 527.972 298.495 527.972 295.303C527.972 290.225 526.957 285.727 525.795 280.213C525.07 276.876 524.78 276.586 523.764 271.943C522.459 266.139 522.168 263.818 521.587 260.916C520.282 255.257 518.685 251.338 516.219 246.115C511.141 234.797 506.207 223.189 505.192 220.578C502.144 213.178 498.372 202.295 496.195 187.641" stroke="#697695" stroke-width="2" stroke-miterlimit="10"/>
<path d="M638.245 219.125C635.634 217.239 632.006 214.192 628.524 209.693C627.363 208.242 625.331 205.34 621.85 197.65C620.108 193.732 618.802 190.396 614.449 177.771C611.402 168.921 610.532 166.455 608.355 160.505C607.485 158.328 605.453 152.67 602.116 146.141C600.956 143.674 599.214 140.627 596.457 137.144C595.296 135.693 594.28 134.678 593.555 133.807" stroke="#697695" stroke-width="2" stroke-miterlimit="10"/>
<path d="M582.384 432.13C580.642 429.083 577.885 424.584 573.532 420.086C568.019 414.137 564.101 412.251 557.717 407.463C548.866 400.934 543.207 395.13 534.356 386.133C524.925 376.412 525.795 375.832 517.815 368.287C508.674 359.726 502.725 354.648 502.725 354.648C497.211 350.004 495.18 348.553 492.713 345.07C490.827 342.459 489.231 339.412 486.619 330.996C483.717 321.42 484.153 319.824 481.541 310.102C479.074 300.671 478.639 301.832 474.721 288.193C472.835 281.518 472.254 278.761 470.368 272.667C467.611 264.252 466.595 263.38 465.725 259.463C463.984 251.918 465.725 244.373 467.321 239.149C468.627 234.796 469.497 234.216 470.078 230.444C470.948 225.074 471.384 224.349 471.964 222.898C472.399 222.028 473.124 220.721 474.286 219.416C473.124 214.918 472.254 209.549 471.819 203.456C471.239 196.055 471.674 189.526 472.399 184.302C473.56 184.302 474.575 184.157 475.737 184.157C477.623 183.577 480.09 182.851 483.281 182.851C489.666 182.851 494.309 185.608 496.34 186.914C496.486 184.157 496.486 180.094 495.905 175.161C495.035 167.906 493.584 163.263 492.133 157.749C489.957 149.479 488.795 143.384 488.07 135.984C487.489 129.746 487.055 125.683 487.78 121.04C488.36 116.832 488.94 113.059 491.842 109.286C492.859 107.98 496.34 103.918 502.29 102.757C510.996 101.016 517.525 106.82 518.831 107.98C521.442 110.303 522.603 112.479 524.78 116.541C528.262 123.217 529.567 129.02 530.439 133.083C531.164 136.129 531.744 140.482 532.035 145.852C532.469 148.753 533.195 153.106 535.227 158.04C536.098 160.361 537.258 162.683 541.321 169.793C544.658 175.741 547.125 180.965 548.14 182.562C553.944 192.283 557.427 200.554 561.925 211.145C563.956 215.934 566.568 221.012 569.179 228.412C569.76 228.122 570.485 227.831 571.066 227.542C571.066 225.074 570.921 221.302 569.76 217.094C568.454 211.581 566.422 207.809 565.552 206.067C562.941 200.988 559.313 193.153 554.67 180.385C551.187 170.663 548.576 162.827 546.834 157.459C544.804 150.93 543.498 146.577 540.741 138.161C538.854 132.357 537.258 129.6 535.807 123.942C534.356 117.267 534.211 112.914 535.952 108.706C536.677 106.965 537.549 105.659 538.128 104.789C538.274 103.338 538.854 100.871 540.596 98.4043C543.643 94.0514 548.431 92.8906 550.027 92.4554C557.282 90.7142 563.086 94.4867 563.956 95.0671C565.697 96.2279 566.858 97.5338 567.584 98.4043C568.89 99.42 570.775 101.016 572.662 103.483C574.258 105.659 575.128 107.546 576.145 109.577C577.885 113.205 577.595 114.22 578.757 116.977C579.772 119.153 580.933 120.894 583.399 123.506C586.591 126.989 589.929 130.471 593.411 134.244" stroke="#697695" stroke-width="2" stroke-miterlimit="10"/>
<g opacity="0.5">
<path d="M478.059 217.241C479.365 217.096 480.235 215.79 480.525 214.629C480.67 213.323 480.816 212.018 480.961 210.711C481.105 208.099 481.25 205.487 481.25 202.876L481.395 194.896C481.395 193.59 481.541 192.283 481.541 190.977C481.541 189.672 481.541 188.366 480.816 187.205C481.831 188.221 481.976 189.672 482.267 190.977L482.556 194.896C482.701 197.507 482.846 200.264 482.701 202.876C482.701 205.487 482.556 208.244 482.121 210.856C481.976 212.162 481.686 213.468 481.25 214.774C480.961 215.499 480.525 216.08 480.09 216.515C479.365 217.096 478.639 217.386 478.059 217.241Z" fill="#B1BBD0"/>
</g>
</svg>
