<svg width="900" height="500" viewBox="0 0 900 500" fill="none" xmlns="http://www.w3.org/2000/svg">
<path opacity="0.33" d="M512.283 419.258C501.388 408.582 492.069 399.592 484.471 392.287C473.432 381.611 467.841 376.273 466.407 375.009C458.952 368.828 453.934 366.018 448.343 358.573C446.336 356.045 443.469 352.252 441.462 346.493C439.598 341.435 439.311 337.783 438.594 328.793C437.734 318.819 437.304 313.762 436.874 309.267C435.584 297.046 434.724 290.162 432.143 281.172C430.853 276.958 429.849 274.289 428.989 269.091C428.272 264.877 427.412 259.82 428.559 253.779C429.132 250.83 429.706 249.987 431.283 244.649C433.003 238.889 434.15 234.113 434.867 231.023C434.007 228.494 433.003 224.982 432 220.628C431.139 217.256 430.566 214.868 430.136 211.778C429.706 208.687 429.276 204.192 429.419 198.714C430.566 198.433 431.569 198.011 432.716 197.73C433.863 197.309 435.727 196.606 438.021 196.185C439.885 195.904 446.193 194.78 451.354 198.011C452.501 198.714 452.787 199.275 455.511 202.366C462.679 210.654 462.536 209.811 464.113 212.059C468.988 218.661 470.564 225.263 471.425 229.056C472.715 234.535 472.715 238.889 472.858 243.806C472.858 248.582 472.572 252.515 472.285 255.465C471.855 256.449 471.425 257.572 470.851 258.556C471.281 259.398 471.711 260.241 472.141 261.084C473.002 262.208 473.862 263.472 474.722 264.877C477.589 269.794 478.163 274.57 478.306 277.66C478.306 281.593 479.166 284.262 479.883 285.948C480.457 287.212 481.03 288.055 484.614 293.253C486.048 295.219 487.195 296.905 488.055 298.169C488.485 295.641 489.058 291.848 489.489 287.353C489.919 282.717 490.062 277.098 489.202 263.472C488.772 256.589 488.485 250.97 487.625 242.682C485.904 226.668 484.471 221.189 483.037 210.654C481.03 194.921 480.17 185.649 481.604 173.99C481.89 171.181 482.607 167.107 483.181 160.224C483.897 151.795 483.754 149.407 484.327 142.524C485.188 130.864 485.618 124.965 487.912 118.081C490.205 110.777 492.643 103.332 499.667 100.101C504.112 97.9935 508.556 98.4149 509.273 98.5554C514.864 99.2578 518.448 102.489 519.452 103.472C522.606 106.422 523.896 109.653 524.613 111.9C526.046 115.974 526.476 119.767 526.046 127.353C525.473 136.343 524.613 137.888 524.039 144.771C523.179 154.324 524.039 161.769 524.613 166.124C525.616 174.131 526.476 174.692 529.057 187.757C530.204 193.656 530.921 198.573 532.354 208.406C533.358 215.43 534.648 224.561 535.938 235.518C537.515 235.518 539.092 235.377 540.669 235.377C539.809 229.899 538.519 222.173 537.085 212.621C534.792 197.59 533.645 190.004 533.071 180.592C532.211 167.809 531.781 159.943 533.645 151.795C534.075 150.109 534.935 146.457 535.508 141.26C536.225 135.36 535.652 134.798 536.225 129.179C537.085 120.048 539.379 114.289 539.953 112.743C541.53 108.81 542.533 106.281 545.114 103.753C546.404 102.348 549.988 98.9768 555.723 98.134C561.314 97.4316 565.615 99.6792 566.905 100.522C571.493 103.051 573.643 106.843 574.36 108.248C575.937 111.058 576.224 113.446 576.797 116.817C577.514 121.874 577.371 125.807 577.227 127.212C576.941 133.814 577.371 140.417 577.371 146.879C577.227 159.24 578.804 170.338 580.955 185.93C582.245 195.764 584.252 207.704 587.263 221.189C589.7 222.032 592.28 222.875 594.718 223.718C596.295 219.785 598.302 213.885 599.449 206.58C600.452 199.697 600.309 194.499 599.879 185.649C599.305 173.288 597.872 164.016 597.442 161.769C595.865 151.936 594.718 145.333 591.85 136.624C590.56 132.691 588.696 127.774 587.836 120.61C587.263 115.272 587.549 111.76 588.84 108.529C589.7 106.281 590.99 102.91 594.431 100.803C600.596 97.1506 608.337 101.084 609.054 101.505C612.208 103.191 613.785 105.439 617.082 109.793C620.953 114.991 623.247 119.627 623.964 121.172C625.828 124.965 626.401 126.931 630.989 142.243C634.573 154.043 636.437 159.943 637.01 161.347C637.727 162.893 639.017 165.843 640.021 170.057C641.024 174.131 641.168 177.221 641.168 179.047C641.598 191.83 641.741 198.292 641.598 202.787C641.311 211.216 640.594 222.594 638.874 236.642C639.734 236.782 640.881 237.063 642.314 237.063C643.748 237.063 645.468 236.923 647.189 236.22C649.483 235.377 651.06 234.113 653.353 231.865C658.371 226.949 661.238 222.173 661.525 221.751C663.962 217.818 667.977 212.34 674.285 205.878C676.292 201.523 678.586 196.887 681.166 192.111C684.033 186.773 687.044 181.857 689.911 177.361C689.911 175.957 689.911 173.85 690.055 171.181C690.341 163.174 690.341 159.24 690.915 156.431C691.632 153.2 693.065 145.895 699.23 140.979C701.094 139.433 706.398 135.079 713.566 136.062C719.874 136.905 723.602 141.4 724.462 142.664C724.605 146.457 724.605 150.39 724.749 154.324C724.892 161.066 724.892 167.809 724.749 174.412C724.462 176.238 724.175 178.064 723.889 179.89C720.878 193.516 713.423 215.149 708.405 226.949C705.538 233.692 700.664 244.227 694.929 253.499C693.209 256.168 691.918 258.275 691.918 258.275C686.614 266.141 684.32 268.108 681.309 273.024C678.299 277.941 676.722 282.296 676.148 284.122C672.994 293.815 675.432 296.624 671.991 305.334C671.417 306.879 670.27 309.407 669.554 313.2C668.98 316.431 668.98 318.819 668.98 320.364C668.98 331.181 669.697 336.659 669.697 344.807C669.697 346.633 669.554 349.162 669.267 354.219C668.693 363.63 668.407 368.407 667.69 373.885C666.543 382.454 665.683 382.173 665.109 388.775C664.679 393.411 664.249 398.047 665.396 403.947C666.113 407.599 667.546 413.218 671.704 419.68C618.229 419.399 565.328 419.258 512.283 419.258Z" fill="#445272"/>
<path d="M512.283 419.258C501.388 408.582 492.069 399.592 484.471 392.287C473.432 381.611 467.841 376.273 466.407 375.009C458.952 368.828 453.934 366.018 448.343 358.573C446.336 356.045 443.469 352.252 441.462 346.493C439.598 341.435 439.311 337.783 438.594 328.793C437.734 318.819 437.304 313.762 436.874 309.267C435.584 297.046 434.724 290.162 432.143 281.172C430.853 276.958 429.849 274.289 428.989 269.091C428.272 264.877 427.412 259.82 428.559 253.779C429.132 250.83 429.706 249.987 431.283 244.649C433.003 238.889 434.15 234.113 434.867 231.023C434.007 228.494 433.003 224.982 432 220.628C431.139 217.256 430.566 214.868 430.136 211.778C429.706 208.687 429.276 204.192 429.419 198.714C430.566 198.433 431.569 198.011 432.716 197.73C433.863 197.309 435.727 196.606 438.021 196.185C439.885 195.904 446.193 194.78 451.354 198.011C452.501 198.714 452.787 199.275 455.511 202.366C462.679 210.654 462.536 209.811 464.113 212.059C468.988 218.661 470.564 225.263 471.425 229.056C472.715 234.535 472.715 238.889 472.858 243.806C472.858 248.582 472.572 252.515 472.285 255.465C471.855 256.449 471.425 257.572 470.851 258.556C471.281 259.398 471.711 260.241 472.141 261.084C473.002 262.208 473.862 263.472 474.722 264.877C477.589 269.794 478.163 274.57 478.306 277.66C478.306 281.593 479.166 284.262 479.883 285.948C480.457 287.212 481.03 288.055 484.614 293.253C486.048 295.219 487.195 296.905 488.055 298.169C488.485 295.641 489.058 291.848 489.489 287.353C489.919 282.717 490.062 277.098 489.202 263.472C488.772 256.589 488.485 250.97 487.625 242.682C485.904 226.668 484.471 221.189 483.037 210.654C481.03 194.921 480.17 185.649 481.604 173.99C481.89 171.181 482.607 167.107 483.181 160.224C483.897 151.795 483.754 149.407 484.327 142.524C485.188 130.864 485.618 124.965 487.912 118.081C490.205 110.777 492.643 103.332 499.667 100.101C504.112 97.9935 508.556 98.4149 509.273 98.5554C514.864 99.2578 518.448 102.489 519.452 103.472C522.606 106.422 523.896 109.653 524.613 111.9C526.046 115.974 526.476 119.767 526.046 127.353C525.473 136.343 524.613 137.888 524.039 144.771C523.179 154.324 524.039 161.769 524.613 166.124C525.616 174.131 526.476 174.692 529.057 187.757C530.204 193.656 530.921 198.573 532.354 208.406C533.358 215.43 534.648 224.561 535.938 235.518C537.515 235.518 539.092 235.377 540.669 235.377C539.809 229.899 538.519 222.173 537.085 212.621C534.792 197.59 533.645 190.004 533.071 180.592C532.211 167.809 531.781 159.943 533.645 151.795C534.075 150.109 534.935 146.457 535.508 141.26C536.225 135.36 535.652 134.798 536.225 129.179C537.085 120.048 539.379 114.289 539.953 112.743C541.53 108.81 542.533 106.281 545.114 103.753C546.404 102.348 549.988 98.9768 555.723 98.134C561.314 97.4316 565.615 99.6792 566.905 100.522C571.493 103.051 573.643 106.843 574.36 108.248C575.937 111.058 576.224 113.446 576.797 116.817C577.514 121.874 577.371 125.807 577.227 127.212C576.941 133.814 577.371 140.417 577.371 146.879C577.227 159.24 578.804 170.338 580.955 185.93C582.245 195.764 584.252 207.704 587.263 221.189C589.7 222.032 592.28 222.875 594.718 223.718C596.295 219.785 598.302 213.885 599.449 206.58C600.452 199.697 600.309 194.499 599.879 185.649C599.305 173.288 597.872 164.016 597.442 161.769C595.865 151.936 594.718 145.333 591.85 136.624C590.56 132.691 588.696 127.774 587.836 120.61C587.263 115.272 587.549 111.76 588.84 108.529C589.7 106.281 590.99 102.91 594.431 100.803C600.596 97.1506 608.337 101.084 609.054 101.505C612.208 103.191 613.785 105.439 617.082 109.793C620.953 114.991 623.247 119.627 623.964 121.172C625.828 124.965 626.401 126.931 630.989 142.243C634.573 154.043 636.436 159.943 637.01 161.347C637.727 162.893 639.017 165.843 640.021 170.057C641.024 174.131 641.168 177.221 641.168 179.047C641.598 191.83 641.741 198.292 641.598 202.787C641.311 211.216 640.594 222.594 638.874 236.642C639.734 236.782 640.881 237.063 642.314 237.063" stroke="#697695" stroke-width="2" stroke-miterlimit="10"/>
<path d="M681.167 272.744C678.156 277.661 676.579 282.015 676.006 283.842C672.852 293.534 675.289 296.344 671.848 305.053C671.275 306.598 670.128 309.127 669.411 312.92C668.838 316.151 668.838 318.539 668.838 320.084C668.838 330.901 669.554 336.379 669.554 344.527C669.554 346.353 669.411 348.881 669.124 353.938C668.551 363.35 668.264 368.126 667.547 373.605C666.4 382.174 665.54 381.893 664.967 388.495C664.537 393.131 664.107 397.766 665.254 403.666C665.97 407.319 667.404 412.937 671.562 419.399" stroke="#697695" stroke-width="2" stroke-miterlimit="10"/>
<path d="M642.458 236.783C643.892 236.783 645.612 236.642 647.332 235.94C649.626 235.097 651.203 233.833 653.497 231.585C658.515 226.669 661.382 221.892 661.669 221.471C664.106 217.538 668.12 212.059 674.428 205.597C676.435 201.243 678.729 196.607 681.31 191.831C684.177 186.493 687.188 181.576 690.055 177.081C690.055 175.676 690.055 173.569 690.198 170.9C690.485 162.893 690.485 158.96 691.058 156.15C691.775 152.92 693.209 145.615 699.373 140.698C701.237 139.153 706.542 134.798 713.71 135.782C720.018 136.625 723.745 141.12 724.606 142.384C724.749 146.177 724.749 150.11 724.892 154.043C725.036 160.786 725.036 167.529 724.892 174.131C724.606 175.957 724.319 177.783 724.032 179.61C721.021 193.236 713.567 214.869 708.549 226.669C705.681 233.411 700.807 243.947 695.073 253.218C693.352 255.887 692.062 257.994 692.062 257.994C686.757 265.861 684.464 267.828 681.453 272.744" stroke="#BA6DCD" stroke-width="3" stroke-miterlimit="10" stroke-linecap="round"/>
<g opacity="0.5">
<path d="M708.119 141.119C708.119 143.507 708.119 146.036 708.119 148.424C708.262 150.812 708.405 153.2 708.835 155.588C708.979 156.15 709.122 156.712 709.266 157.274C709.409 157.836 709.552 158.257 709.982 158.678C710.699 159.521 711.703 160.083 712.706 160.645C714.857 161.769 717.151 162.471 719.588 162.752C717.151 163.033 714.57 162.612 712.133 161.628C710.986 161.207 709.839 160.505 708.835 159.521C708.405 159.1 707.975 158.257 707.832 157.695C707.689 157.133 707.545 156.431 707.402 155.869C706.972 153.481 706.828 150.952 706.972 148.564C707.115 145.895 707.545 143.367 708.119 141.119Z" fill="#B1BBD0"/>
</g>
<g opacity="0.5">
<path d="M439.024 228.214C440.027 227.371 440.601 226.388 440.887 225.264C441.174 224.14 441.174 223.016 441.174 221.893C441.174 220.769 441.031 219.505 440.887 218.381L440.6 214.869C440.457 212.481 440.314 210.093 439.74 207.845C439.454 206.721 439.167 205.598 438.593 204.474C438.163 203.491 437.447 202.507 436.156 201.945C437.447 202.086 438.45 203.069 439.167 204.052C439.884 205.176 440.314 206.3 440.744 207.424C441.461 209.812 441.747 212.2 441.891 214.588C442.034 216.976 442.321 219.364 442.178 221.893C442.178 223.157 441.891 224.421 441.461 225.545C441.031 226.669 440.17 227.652 439.024 228.214Z" fill="#B1BBD0"/>
</g>
<path opacity="0.33" d="M338.72 432.215C342.623 425.42 365.032 386.386 387.44 370.338C409.849 354.291 411.15 348.942 423.583 340.846C436.016 332.894 444.69 325.81 445.702 299.209C446.714 272.608 454.087 255.693 452.786 251.501C454.087 249.043 454.666 236.899 453.654 235.453C454.232 233.718 454.377 226.779 453.509 220.129C452.642 213.478 454.087 206.973 452.931 204.804C453.22 201.335 461.605 178.203 459.726 169.384C449.75 161.433 434.281 170.107 424.74 182.54C415.198 194.973 406.524 216.37 411.005 232.273C406.09 235.598 405.945 247.308 404.21 253.525C402.476 259.741 400.452 265.235 401.753 266.247C399.44 266.825 393.657 276.222 392.356 279.981C389.464 277.813 367.345 273.186 356.502 277.234C357.514 267.548 355.924 244.85 372.839 201.045C389.753 157.24 392.356 143.651 391.633 130.928C390.765 118.206 388.886 111.411 382.958 105.773C377.031 100.135 365.321 99.701 361.417 109.821C355.49 114.447 354.478 139.169 353.611 141.482C349.418 139.313 345.515 137.723 339.009 137.29C332.503 136.856 327.588 141.916 326.576 141.916C325.564 141.916 320.359 138.88 315.155 139.169C309.95 139.314 304.312 134.976 296.939 135.121C304.167 131.073 317.612 116.471 311.829 106.93C313.998 97.8216 299.396 97.2433 295.348 98.8336C291.3 100.424 284.506 105.918 282.626 108.664C279.879 108.086 274.53 107.219 258.049 121.242C254.001 112.857 247.495 108.086 241.857 106.496C236.219 104.906 229.135 105.05 228.267 109.821C227.4 114.592 228.557 123.411 224.509 134.976C220.461 146.687 219.304 150.445 216.702 159.12C214.244 167.794 213.81 177.914 211.353 185.432C208.895 192.949 208.606 201.913 208.606 201.913C208.606 201.913 202.389 203.937 198.775 217.382C195.161 230.827 197.763 235.309 191.546 250.055C185.33 264.801 182.294 272.753 182.005 285.041C181.715 297.33 195.161 317.425 196.895 322.919C198.63 328.413 206.437 356.604 208.317 359.495C210.196 362.387 216.702 375.398 208.895 402.578C201.088 429.612 197.907 432.215 197.907 432.215H338.72V432.215Z" fill="#445272"/>
<path d="M338.72 432.215C342.623 425.42 365.032 386.386 387.44 370.338C409.849 354.291 411.15 348.942 423.583 340.846C436.016 332.894 444.69 325.81 445.702 299.209C446.714 272.608 454.087 255.693 452.786 251.501C454.087 249.043 454.666 236.899 453.654 235.453C454.232 233.718 454.377 226.779 453.509 220.129C452.642 213.479 454.087 206.973 452.931 204.804C453.22 201.335 461.605 178.203 459.726 169.384C449.75 161.433 434.281 170.107 424.74 182.54C415.198 194.973 406.524 216.37 411.005 232.273C406.09 235.598 405.945 247.308 404.21 253.525C402.476 259.741 400.452 265.235 401.753 266.247C399.44 266.825 393.657 276.222 392.356 279.981C389.464 277.813 367.345 273.186 356.502 277.234C357.514 267.548 355.924 244.85 372.839 201.045C389.753 157.24 392.356 143.651 391.633 130.928C390.765 118.206 388.886 111.411 382.958 105.773C377.031 100.135 365.321 99.701 361.417 109.821C355.49 114.447 354.623 139.024 353.466 141.338C349.273 139.169 345.515 137.579 339.009 137.145C332.503 136.711 327.588 141.771 326.576 141.771C325.564 141.771 320.359 138.735 315.155 139.024C309.95 139.169 304.312 134.832 296.939 134.976C304.167 130.928 317.612 116.327 311.829 106.785C313.998 97.677 299.396 97.0988 295.348 98.689C291.3 100.279 284.506 105.773 282.626 108.52C279.879 107.942 274.53 107.074 258.049 121.098C254.001 112.712 247.495 107.942 241.857 106.351C236.219 104.761 229.135 104.906 228.267 109.676C227.4 114.447 228.557 123.266 224.509 134.832C220.461 146.542 219.304 150.301 216.702 158.975C214.244 167.649 213.81 177.769 211.353 185.287C208.895 192.805 208.606 201.768 208.606 201.768C208.606 201.768 202.389 203.792 198.775 217.237C195.161 230.682 197.763 235.164 191.546 249.91C185.33 264.657 182.294 272.608 182.005 284.897C181.715 297.185 195.161 317.281 196.895 322.774C198.63 328.268 206.437 356.459 208.317 359.351C210.196 362.242 216.702 375.254 208.895 402.433C201.088 429.468 197.907 432.07 197.907 432.07" stroke="#697695" stroke-width="2" stroke-miterlimit="10"/>
<path d="M350.863 140.181C346.67 138.012 345.369 137.579 338.719 137.145C332.213 136.711 327.298 141.771 326.286 141.771C325.274 141.771 320.069 138.735 314.865 139.024C309.66 139.169 304.022 134.832 296.649 134.976C289.276 135.121 280.312 130.929 267.445 159.987C254.579 189.046 254 210.153 248.796 220.707C243.591 231.261 235.206 235.743 235.206 235.743" stroke="#BA6DCD" stroke-width="3" stroke-miterlimit="10" stroke-linecap="round"/>
<path d="M199.498 253.526C202.679 248.032 205.57 238.635 206.871 232.274C208.172 225.913 207.449 207.986 208.028 201.914" stroke="#697695" stroke-width="2" stroke-miterlimit="10"/>
<path d="M308.938 215.502C309.66 209.43 312.985 199.743 316.744 195.117C320.503 190.491 327.009 174.877 327.298 167.504" stroke="#BA6DCD" stroke-width="3" stroke-miterlimit="10" stroke-linecap="round"/>
<path d="M217.135 156.373C218.58 151.747 230.58 145.53 233.182 143.072C235.64 140.615 247.35 126.158 257.904 121.098" fill="#445272"/>
<path d="M217.135 156.373C218.58 151.747 230.58 145.53 233.182 143.072C235.64 140.615 247.35 126.158 257.904 121.098" stroke="#697695" stroke-width="2" stroke-miterlimit="10"/>
<path d="M291.734 240.37C296.072 237.334 307.926 226.78 313.854 208.564C319.926 190.493 328.311 179.361 330.335 175.602C332.503 171.699 338.865 160.133 343.635 156.374C348.406 152.615 353.755 142.062 353.755 138.303" stroke="#697695" stroke-width="2" stroke-miterlimit="10"/>
<g opacity="0.5">
<path d="M455.822 171.553C454.377 172.42 453.075 173.432 451.774 174.589C450.618 175.745 449.461 176.902 448.449 178.203C446.425 180.805 444.835 183.697 443.967 186.877C443.534 188.468 443.245 190.058 443.245 191.648C443.245 193.238 443.389 194.829 443.823 196.419C444.257 198.009 444.979 199.455 445.847 200.901C446.714 202.346 447.871 203.503 449.172 204.66C446.281 202.925 443.967 200.178 442.811 196.853C442.233 195.262 441.943 193.528 441.799 191.793C441.799 190.058 442.088 188.323 442.522 186.588C443.534 183.263 445.269 180.227 447.582 177.625C449.895 175.022 452.642 172.709 455.822 171.553Z" fill="#B1BBD0"/>
</g>
<g opacity="0.5">
<path d="M329.177 144.083C330.767 143.794 332.502 143.938 334.092 144.083C335.682 144.228 337.417 144.517 339.008 144.661L343.778 145.529C344.357 145.673 345.224 145.384 345.947 144.95C346.67 144.661 347.393 144.228 348.116 143.938C347.537 144.517 346.959 145.095 346.236 145.529C345.513 145.962 344.79 146.541 343.778 146.541C342.044 146.541 340.453 146.252 338.863 145.962C337.273 145.673 335.682 145.384 334.092 144.95L329.177 144.083Z" fill="#B1BBD0"/>
</g>
</svg>
