<svg width="900" height="500" viewBox="0 0 900 500" fill="none" xmlns="http://www.w3.org/2000/svg">
<path opacity="0.33" d="M512.283 419.258C501.388 408.582 492.069 399.592 484.471 392.287C473.432 381.611 467.841 376.273 466.407 375.009C458.952 368.828 453.934 366.018 448.343 358.573C446.336 356.045 443.469 352.252 441.462 346.493C439.598 341.435 439.311 337.783 438.594 328.793C437.734 318.819 437.304 313.762 436.874 309.267C435.584 297.046 434.724 290.162 432.143 281.172C430.853 276.958 429.849 274.289 428.989 269.091C428.272 264.877 427.412 259.82 428.559 253.779C429.132 250.83 429.706 249.987 431.283 244.649C433.003 238.889 434.15 234.113 434.867 231.023C434.007 228.494 433.003 224.982 432 220.628C431.139 217.256 430.566 214.868 430.136 211.778C429.706 208.687 429.276 204.192 429.419 198.714C430.566 198.433 431.569 198.011 432.716 197.73C433.863 197.309 435.727 196.606 438.021 196.185C439.885 195.904 446.193 194.78 451.354 198.011C452.501 198.714 452.787 199.275 455.511 202.366C462.679 210.654 462.536 209.811 464.113 212.059C468.988 218.661 470.564 225.263 471.425 229.056C472.715 234.535 472.715 238.889 472.858 243.806C472.858 248.582 472.572 252.515 472.285 255.465C471.855 256.449 471.425 257.572 470.851 258.556C471.281 259.398 471.711 260.241 472.141 261.084C473.002 262.208 473.862 263.472 474.722 264.877C477.589 269.794 478.163 274.57 478.306 277.66C478.306 281.593 479.166 284.262 479.883 285.948C480.457 287.212 481.03 288.055 484.614 293.253C486.048 295.219 487.195 296.905 488.055 298.169C488.485 295.641 489.058 291.848 489.489 287.353C489.919 282.717 490.062 277.098 489.202 263.472C488.772 256.589 488.485 250.97 487.625 242.682C485.904 226.668 484.471 221.189 483.037 210.654C481.03 194.921 480.17 185.649 481.604 173.99C481.89 171.181 482.607 167.107 483.181 160.224C483.897 151.795 483.754 149.407 484.327 142.524C485.188 130.864 485.618 124.965 487.912 118.081C490.205 110.777 492.643 103.332 499.667 100.101C504.112 97.9935 508.556 98.4149 509.273 98.5554C514.864 99.2578 518.448 102.489 519.452 103.472C522.606 106.422 523.896 109.653 524.613 111.9C526.046 115.974 526.476 119.767 526.046 127.353C525.473 136.343 524.613 137.888 524.039 144.771C523.179 154.324 524.039 161.769 524.613 166.124C525.616 174.131 526.476 174.692 529.057 187.757C530.204 193.656 530.921 198.573 532.354 208.406C533.358 215.43 534.648 224.561 535.938 235.518C537.515 235.518 539.092 235.377 540.669 235.377C539.809 229.899 538.519 222.173 537.085 212.621C534.792 197.59 533.645 190.004 533.071 180.592C532.211 167.809 531.781 159.943 533.645 151.795C534.075 150.109 534.935 146.457 535.508 141.26C536.225 135.36 535.652 134.798 536.225 129.179C537.085 120.048 539.379 114.289 539.953 112.743C541.53 108.81 542.533 106.281 545.114 103.753C546.404 102.348 549.988 98.9768 555.723 98.134C561.314 97.4316 565.615 99.6792 566.905 100.522C571.493 103.051 573.643 106.843 574.36 108.248C575.937 111.058 576.224 113.446 576.797 116.817C577.514 121.874 577.371 125.807 577.227 127.212C576.941 133.814 577.371 140.417 577.371 146.879C577.227 159.24 578.804 170.338 580.955 185.93C582.245 195.764 584.252 207.704 587.263 221.189C589.7 222.032 592.28 222.875 594.718 223.718C596.295 219.785 598.302 213.885 599.449 206.58C600.452 199.697 600.309 194.499 599.879 185.649C599.305 173.288 597.872 164.016 597.442 161.769C595.865 151.936 594.718 145.333 591.85 136.624C590.56 132.691 588.696 127.774 587.836 120.61C587.263 115.272 587.549 111.76 588.84 108.529C589.7 106.281 590.99 102.91 594.431 100.803C600.596 97.1506 608.337 101.084 609.054 101.505C612.208 103.191 613.785 105.439 617.082 109.793C620.953 114.991 623.247 119.627 623.964 121.172C625.828 124.965 626.401 126.931 630.989 142.243C634.573 154.043 636.437 159.943 637.01 161.347C637.727 162.893 639.017 165.843 640.021 170.057C641.024 174.131 641.168 177.221 641.168 179.047C641.598 191.83 641.741 198.292 641.598 202.787C641.311 211.216 640.594 222.594 638.874 236.642C639.734 236.782 640.881 237.063 642.314 237.063C643.748 237.063 645.468 236.923 647.189 236.22C649.483 235.377 651.06 234.113 653.353 231.865C658.371 226.949 661.238 222.173 661.525 221.751C663.962 217.818 667.977 212.34 674.285 205.878C676.292 201.523 678.586 196.887 681.166 192.111C684.033 186.773 687.044 181.857 689.911 177.361C689.911 175.957 689.911 173.85 690.055 171.181C690.341 163.174 690.341 159.24 690.915 156.431C691.632 153.2 693.065 145.895 699.23 140.979C701.094 139.433 706.398 135.079 713.566 136.062C719.874 136.905 723.602 141.4 724.462 142.664C724.605 146.457 724.605 150.39 724.749 154.324C724.892 161.066 724.892 167.809 724.749 174.412C724.462 176.238 724.175 178.064 723.889 179.89C720.878 193.516 713.423 215.149 708.405 226.949C705.538 233.692 700.664 244.227 694.929 253.499C693.209 256.168 691.918 258.275 691.918 258.275C686.614 266.141 684.32 268.108 681.309 273.024C678.299 277.941 676.722 282.296 676.148 284.122C672.994 293.815 675.432 296.624 671.991 305.334C671.417 306.879 670.27 309.407 669.554 313.2C668.98 316.431 668.98 318.819 668.98 320.364C668.98 331.181 669.697 336.659 669.697 344.807C669.697 346.633 669.554 349.162 669.267 354.219C668.693 363.63 668.407 368.407 667.69 373.885C666.543 382.454 665.683 382.173 665.109 388.775C664.679 393.411 664.249 398.047 665.396 403.947C666.113 407.599 667.546 413.218 671.704 419.68C618.229 419.399 565.328 419.258 512.283 419.258Z" fill="#E0E1E2"/>
<path d="M512.283 419.258C501.388 408.582 492.069 399.592 484.471 392.287C473.432 381.611 467.841 376.273 466.407 375.009C458.952 368.828 453.934 366.018 448.343 358.573C446.336 356.045 443.469 352.252 441.462 346.493C439.598 341.435 439.311 337.783 438.594 328.793C437.734 318.819 437.304 313.762 436.874 309.267C435.584 297.046 434.724 290.162 432.143 281.172C430.853 276.958 429.849 274.289 428.989 269.091C428.272 264.877 427.412 259.82 428.559 253.779C429.132 250.83 429.706 249.987 431.283 244.649C433.003 238.889 434.15 234.113 434.867 231.023C434.007 228.494 433.003 224.982 432 220.628C431.139 217.256 430.566 214.868 430.136 211.778C429.706 208.687 429.276 204.192 429.419 198.714C430.566 198.433 431.569 198.011 432.716 197.73C433.863 197.309 435.727 196.606 438.021 196.185C439.885 195.904 446.193 194.78 451.354 198.011C452.501 198.714 452.787 199.275 455.511 202.366C462.679 210.654 462.536 209.811 464.113 212.059C468.988 218.661 470.564 225.263 471.425 229.056C472.715 234.535 472.715 238.889 472.858 243.806C472.858 248.582 472.572 252.515 472.285 255.465C471.855 256.449 471.425 257.572 470.851 258.556C471.281 259.398 471.711 260.241 472.141 261.084C473.002 262.208 473.862 263.472 474.722 264.877C477.589 269.794 478.163 274.57 478.306 277.66C478.306 281.593 479.166 284.262 479.883 285.948C480.457 287.212 481.03 288.055 484.614 293.253C486.048 295.219 487.195 296.905 488.055 298.169C488.485 295.641 489.058 291.848 489.489 287.353C489.919 282.717 490.062 277.098 489.202 263.472C488.772 256.589 488.485 250.97 487.625 242.682C485.904 226.668 484.471 221.189 483.037 210.654C481.03 194.921 480.17 185.649 481.604 173.99C481.89 171.181 482.607 167.107 483.181 160.224C483.897 151.795 483.754 149.407 484.327 142.524C485.188 130.864 485.618 124.965 487.912 118.081C490.205 110.777 492.643 103.332 499.667 100.101C504.112 97.9935 508.556 98.4149 509.273 98.5554C514.864 99.2578 518.448 102.489 519.452 103.472C522.606 106.422 523.896 109.653 524.613 111.9C526.046 115.974 526.476 119.767 526.046 127.353C525.473 136.343 524.613 137.888 524.039 144.771C523.179 154.324 524.039 161.769 524.613 166.124C525.616 174.131 526.476 174.692 529.057 187.757C530.204 193.656 530.921 198.573 532.354 208.406C533.358 215.43 534.648 224.561 535.938 235.518C537.515 235.518 539.092 235.377 540.669 235.377C539.809 229.899 538.519 222.173 537.085 212.621C534.792 197.59 533.645 190.004 533.071 180.592C532.211 167.809 531.781 159.943 533.645 151.795C534.075 150.109 534.935 146.457 535.508 141.26C536.225 135.36 535.652 134.798 536.225 129.179C537.085 120.048 539.379 114.289 539.953 112.743C541.53 108.81 542.533 106.281 545.114 103.753C546.404 102.348 549.988 98.9768 555.723 98.134C561.314 97.4316 565.615 99.6792 566.905 100.522C571.493 103.051 573.643 106.843 574.36 108.248C575.937 111.058 576.224 113.446 576.797 116.817C577.514 121.874 577.371 125.807 577.227 127.212C576.941 133.814 577.371 140.417 577.371 146.879C577.227 159.24 578.804 170.338 580.955 185.93C582.245 195.764 584.252 207.704 587.263 221.189C589.7 222.032 592.28 222.875 594.718 223.718C596.295 219.785 598.302 213.885 599.449 206.58C600.452 199.697 600.309 194.499 599.879 185.649C599.305 173.288 597.872 164.016 597.442 161.769C595.865 151.936 594.718 145.333 591.85 136.624C590.56 132.691 588.696 127.774 587.836 120.61C587.263 115.272 587.549 111.76 588.84 108.529C589.7 106.281 590.99 102.91 594.431 100.803C600.596 97.1506 608.337 101.084 609.054 101.505C612.208 103.191 613.785 105.439 617.082 109.793C620.953 114.991 623.247 119.627 623.964 121.172C625.828 124.965 626.401 126.931 630.989 142.243C634.573 154.043 636.436 159.943 637.01 161.347C637.727 162.893 639.017 165.843 640.021 170.057C641.024 174.131 641.168 177.221 641.168 179.047C641.598 191.83 641.741 198.292 641.598 202.787C641.311 211.216 640.594 222.594 638.874 236.642C639.734 236.782 640.881 237.063 642.314 237.063" stroke="#75819C" stroke-width="2" stroke-miterlimit="10"/>
<path d="M681.167 272.744C678.156 277.661 676.579 282.015 676.006 283.842C672.852 293.534 675.289 296.344 671.848 305.053C671.275 306.598 670.128 309.127 669.411 312.92C668.838 316.151 668.838 318.539 668.838 320.084C668.838 330.901 669.554 336.379 669.554 344.527C669.554 346.353 669.411 348.881 669.124 353.938C668.551 363.35 668.264 368.126 667.547 373.605C666.4 382.174 665.54 381.893 664.967 388.495C664.537 393.131 664.107 397.766 665.254 403.666C665.97 407.319 667.404 412.937 671.562 419.399" stroke="#75819C" stroke-width="2" stroke-miterlimit="10"/>
<path d="M642.458 236.783C643.892 236.783 645.612 236.642 647.332 235.94C649.626 235.097 651.203 233.833 653.497 231.585C658.515 226.669 661.382 221.892 661.669 221.471C664.106 217.538 668.12 212.059 674.428 205.597C676.435 201.243 678.729 196.607 681.31 191.831C684.177 186.493 687.188 181.576 690.055 177.081C690.055 175.676 690.055 173.569 690.198 170.9C690.485 162.893 690.485 158.96 691.058 156.15C691.775 152.92 693.209 145.615 699.373 140.698C701.237 139.153 706.542 134.798 713.71 135.782C720.018 136.625 723.745 141.12 724.606 142.384C724.749 146.177 724.749 150.11 724.892 154.043C725.036 160.786 725.036 167.529 724.892 174.131C724.606 175.957 724.319 177.783 724.032 179.61C721.021 193.236 713.567 214.869 708.549 226.669C705.681 233.411 700.807 243.947 695.073 253.218C693.352 255.887 692.062 257.994 692.062 257.994C686.757 265.861 684.464 267.828 681.453 272.744" stroke="#F69AED" stroke-width="3" stroke-miterlimit="10" stroke-linecap="round"/>
<g opacity="0.5">
<path d="M708.119 141.119C708.119 143.507 708.119 146.036 708.119 148.424C708.262 150.812 708.405 153.2 708.835 155.588C708.979 156.15 709.122 156.712 709.266 157.274C709.409 157.836 709.552 158.257 709.982 158.678C710.699 159.521 711.703 160.083 712.706 160.645C714.857 161.769 717.151 162.471 719.588 162.752C717.151 163.033 714.57 162.612 712.133 161.628C710.986 161.207 709.839 160.505 708.835 159.521C708.405 159.1 707.975 158.257 707.832 157.695C707.689 157.133 707.545 156.431 707.402 155.869C706.972 153.481 706.828 150.952 706.972 148.564C707.115 145.895 707.545 143.367 708.119 141.119Z" fill="#75819C"/>
</g>
<g opacity="0.5">
<path d="M439.024 228.214C440.027 227.371 440.601 226.388 440.887 225.264C441.174 224.14 441.174 223.016 441.174 221.893C441.174 220.769 441.031 219.505 440.887 218.381L440.6 214.869C440.457 212.481 440.314 210.093 439.74 207.845C439.454 206.721 439.167 205.598 438.593 204.474C438.163 203.491 437.447 202.507 436.156 201.945C437.447 202.086 438.45 203.069 439.167 204.052C439.884 205.176 440.314 206.3 440.744 207.424C441.461 209.812 441.747 212.2 441.891 214.588C442.034 216.976 442.321 219.364 442.178 221.893C442.178 223.157 441.891 224.421 441.461 225.545C441.031 226.669 440.17 227.652 439.024 228.214Z" fill="#75819C"/>
</g>
<path opacity="0.33" d="M185.89 107.415C182.226 108.543 165.737 123.622 161.368 130.246C156.999 136.87 154.321 133.77 151.644 141.662C148.966 149.554 150.375 170.976 151.644 180.419C152.912 189.861 157.845 197.613 157.845 209.169C157.845 220.726 155.59 226.645 159.254 241.161C162.777 255.677 167.005 262.583 170.67 289.36C174.193 316.138 178.28 327.694 176.025 335.587C173.77 343.479 161.227 386.041 158.408 390.692C155.59 395.342 141.496 422.261 136 429.026H290.04C295.396 421.415 315.831 384.913 322.314 376.035C328.797 367.297 343.313 352.217 348.669 345.734C354.024 339.251 368.822 312.051 379.533 297.675C390.244 283.3 399.123 271.321 400.251 263.429C401.378 255.536 398.982 251.449 401.096 234.114C403.21 216.78 403.492 208.887 404.619 201.982C405.747 195.076 407.861 194.935 408.002 187.043C408.143 179.291 405.324 174.218 407.156 160.97C407.156 160.97 407.156 159.138 406.733 157.728C406.311 156.319 414.908 139.971 413.921 130.105C412.935 120.24 396.023 121.649 387.707 127.428C379.392 133.206 372.628 139.689 366.99 151.105C361.353 162.52 361.212 172.104 361.635 180.56C361.917 189.016 359.38 188.734 356.984 205.787C354.588 222.84 352.756 223.403 352.756 223.403C352.756 223.403 349.655 220.726 347.964 208.887C346.273 197.049 345.85 174.077 345.85 167.594C345.85 161.111 346.132 147.299 347.964 133.77C349.796 120.24 351.91 111.784 351.91 100.65C351.91 89.3756 354.87 55.1287 352.756 45.2634C350.642 35.398 346.555 25.1099 336.408 20.4591C326.401 15.8083 317.241 23.9824 314.986 36.8074C312.731 49.6323 314.704 58.3702 313.435 64.5713C312.731 67.9537 311.603 73.4501 309.348 81.0605C307.234 74.8594 298.356 63.1619 281.725 60.4842C265.095 57.8065 265.518 60.907 253.116 61.4707C240.714 62.1754 238.6 68.5174 234.513 75.846C233.526 77.6781 232.821 80.3558 232.258 83.7382C229.016 85.2885 226.479 85.7113 216.896 85.1476C207.312 84.5838 209.426 87.5435 203.084 88.1072C196.883 88.53 191.951 91.4896 188.709 98.9591C187.723 101.637 186.595 104.315 185.89 107.415Z" fill="#E0E1E2"/>
<path d="M289.899 428.885C295.254 421.275 315.689 384.773 322.172 375.894C328.655 367.156 343.172 352.076 348.527 345.593C353.882 339.11 368.68 311.91 379.391 297.535C390.102 283.16 398.981 271.18 400.109 263.288C401.236 255.396 398.84 251.309 400.954 233.974C403.068 216.639 403.35 208.747 404.478 201.841C405.605 194.935 407.719 194.794 407.86 186.902C408.001 179.151 405.182 174.077 407.014 160.829C407.014 160.829 407.014 158.997 406.592 157.588C406.169 156.178 414.766 139.83 413.779 129.965C412.793 120.099 395.881 121.509 387.566 127.287C379.251 133.065 372.486 139.548 366.848 150.964C361.211 162.38 361.07 171.963 361.493 180.419C361.775 188.875 359.238 188.593 356.842 205.646C354.446 222.699 352.614 223.263 352.614 223.263C352.614 223.263 349.514 220.585 347.822 208.747C346.131 196.908 345.708 173.936 345.708 167.453C345.708 160.97 345.99 147.159 347.822 133.629C349.654 120.099 351.768 111.643 351.768 100.51C351.768 89.235 354.728 54.9881 352.614 45.1227C350.5 35.2574 346.413 24.9692 336.266 20.3184C326.259 15.6676 317.099 23.8418 314.844 36.6667C312.589 49.4917 314.562 58.2296 313.294 64.4306C312.589 67.8131 311.461 73.3095 309.207 80.9199C307.093 74.7188 298.214 63.0213 281.584 60.3436C264.953 57.6658 265.376 60.7664 252.974 61.3301C240.572 62.0348 238.458 68.3768 234.371 75.7053C233.384 77.5375 232.68 80.2152 232.116 83.5976C228.874 85.1479 226.338 85.5707 216.754 85.007C207.171 84.4432 209.285 87.4028 202.943 87.9666C196.741 88.3894 191.809 91.349 188.567 98.8185C187.299 101.637 186.312 104.315 185.467 107.415" stroke="#75819C" stroke-width="2" stroke-miterlimit="10"/>
<path d="M185.89 107.416C182.226 108.543 165.737 123.623 161.368 130.247C156.999 136.871 154.321 133.771 151.644 141.663C148.966 149.555 150.375 170.977 151.644 180.42C152.912 189.862 157.845 197.614 157.845 209.17C157.845 220.727 155.59 226.646 159.254 241.162C162.777 255.678 167.005 262.584 170.67 289.361C174.193 316.139 178.28 327.695 176.025 335.588C173.77 343.48 161.227 386.042 158.408 390.693C155.59 395.343 141.496 422.262 136 429.027" stroke="#75819C" stroke-width="2" stroke-miterlimit="10"/>
<path d="M291.591 142.508C289.618 136.73 285.531 120.522 285.813 109.53C288.772 105.443 298.497 115.872 298.497 115.872L291.591 142.508Z" stroke="#75819C" stroke-width="2" stroke-miterlimit="10"/>
<path d="M308.644 77.961C304.838 72.3236 298.637 63.022 281.866 60.3442C265.095 57.6665 265.659 60.767 253.257 61.3308C240.855 62.0354 238.741 68.3775 234.653 75.706C230.566 83.0346 230.989 107.698 230.989 115.872C230.989 124.046 235.358 151.387 222.11 162.098" stroke="#75819C" stroke-width="2" stroke-miterlimit="10"/>
<path d="M230.989 84.4434C227.748 85.148 226.62 85.7118 217.037 85.0071C207.453 84.4434 209.567 87.403 203.225 87.9667C197.024 88.3895 192.091 91.3491 188.85 98.8186C185.608 106.288 183.494 112.489 184.481 130.811C185.326 149.132 188.85 164.916 187.581 173.513C186.172 182.11 182.226 189.439 179.83 191.271" stroke="#75819C" stroke-width="2" stroke-miterlimit="10"/>
<g opacity="0.5">
<path d="M408.566 127.006C405.325 127.429 402.083 128.415 399.969 130.952C398.983 132.079 398.137 133.489 397.433 134.898C396.728 136.307 396.023 137.858 395.601 139.267C394.614 142.227 394.755 145.609 395.882 148.569C396.446 150.119 397.292 151.387 398.278 152.656C399.265 153.924 400.533 155.052 401.943 155.756C398.701 154.77 396.305 151.951 394.896 148.991C394.191 147.441 393.768 145.75 393.627 144.059C393.487 142.368 393.768 140.676 394.191 138.985C394.755 137.294 395.46 135.885 396.164 134.334C397.01 132.925 397.855 131.375 399.124 130.247C400.392 129.12 401.802 128.133 403.493 127.57C405.184 127.147 406.875 127.006 408.566 127.006Z" fill="#75819C"/>
</g>
<path d="M285.812 155.756C291.027 152.515 295.255 122.637 302.302 102.906C309.348 83.3162 312.308 70.6322 313.576 64.4311C314.845 58.23 312.731 49.6331 315.127 36.6672C317.523 23.7013 326.401 15.9499 336.549 20.4598C346.555 25.1106 350.783 35.2578 352.897 45.2641C355.011 55.1295 352.051 89.5173 352.051 100.651C352.051 111.926 349.655 120.241 348.105 133.77C347.119 143.072 345.85 159.561 345.991 167.594" stroke="#F69AED" stroke-width="3" stroke-miterlimit="10" stroke-linecap="round"/>
<g opacity="0.5">
<path d="M319.778 35.8225C320.201 36.95 321.188 37.6546 322.174 37.9365C323.161 38.3593 324.288 38.6412 325.416 38.7821C326.543 38.923 327.671 38.923 328.798 38.923C329.926 38.923 331.053 38.7821 332.04 38.5002C334.154 37.9365 335.986 36.809 337.536 35.1178C339.086 33.5675 340.214 31.5945 341.341 29.4805C340.777 31.7354 339.932 33.9903 338.382 35.8225C336.831 37.6546 334.717 39.0639 332.462 39.7686C330.066 40.4733 327.671 40.3324 325.275 39.7686C324.147 39.4867 323.02 39.064 321.892 38.5002C320.765 37.9365 319.919 36.95 319.778 35.8225Z" fill="#75819C"/>
</g>
<path d="M285.814 110.797C283.982 96.845 284.686 90.503 285.814 80.2148" stroke="#75819C" stroke-width="2" stroke-miterlimit="10"/>
</svg>
