<svg width="900" height="500" viewBox="0 0 900 500" fill="none" xmlns="http://www.w3.org/2000/svg">
<path opacity="0.33" d="M694.391 428.437C687.6 414.133 682.831 400.84 680.953 371.364C679.075 341.888 682.687 339.576 680.953 316.313C679.219 293.05 677.485 298.107 679.219 280.624C680.809 263.14 671.272 240.455 671.128 231.93C670.983 223.405 671.706 194.218 669.105 180.492C666.504 166.765 660.435 157.951 656.101 134.399C651.766 110.847 635.294 95.5311 624.746 98.9989C614.198 102.467 612.465 113.448 613.765 117.494C609.141 108.391 606.107 103.045 603.217 99.5768C600.327 96.1091 591.947 92.0633 591.947 92.0633C591.947 92.0633 578.943 89.318 573.886 101.022C569.695 101.889 569.695 110.992 569.84 113.448C568.828 107.957 566.95 100.155 565.361 97.6985C563.627 95.2421 560.303 91.3409 555.68 89.318C551.056 87.2952 539.208 88.0176 536.174 90.4739C533.139 92.9303 527.649 97.9874 528.082 102.9C528.516 107.957 530.105 112.437 530.394 125.296C530.683 138.156 534.873 165.32 535.74 172.111C536.607 178.902 548.311 241.467 548.311 241.467C548.311 241.467 547.877 242.478 547.155 241.756C546.577 241.033 532.85 164.742 527.938 153.472C529.816 141.479 530.972 107.524 523.169 100.01C519.846 92.4968 499.617 86.5727 491.959 103.478C484.301 120.239 486.758 150.293 485.313 161.852C483.868 173.412 485.457 199.131 486.902 206.789C485.891 198.986 483.29 191.762 478.811 187.283C474.332 182.803 466.963 178.324 461.761 176.446C457.571 175.001 452.225 176.879 449.913 179.191C449.19 179.914 448.179 180.636 447.167 180.781C446.011 181.07 445 181.936 445 181.936C445 184.393 446.878 196.675 453.669 208.812C451.936 211.413 454.247 222.249 452.369 229.907C450.491 237.421 448.323 242.623 451.647 251.292C450.346 253.604 452.08 259.961 454.97 262.273C453.236 267.619 455.403 274.41 461.183 288.571C468.407 306.343 464.795 325.994 469.852 336.108C474.91 346.222 480.978 349.69 487.625 360.093C494.127 370.497 519.557 403.007 529.96 411.243C540.364 419.479 544.698 428.293 544.698 428.293H694.391V428.437Z" fill="#E0E1E2"/>
<path d="M694.391 428.438C687.6 414.134 682.831 400.841 680.953 371.365C679.075 341.888 682.687 339.577 680.953 316.314C679.219 293.051 677.485 298.108 679.219 280.624C680.809 263.141 671.272 240.456 671.128 231.931C670.983 223.406 671.706 194.219 669.105 180.492C666.504 166.766 662.603 156.652 656.101 134.4C648.876 109.548 635.294 95.532 624.746 98.9998C614.198 102.468 612.465 113.449 613.765 117.495C609.141 108.392 606.107 103.046 603.217 99.5778C601.05 96.9769 595.126 92.4977 590.213 91.7753C586.601 91.1973 577.787 91.9198 573.886 100.878C570.129 102.179 569.695 110.848 569.84 113.304C568.828 107.814 566.95 100.011 565.361 97.5549C563.627 95.0986 560.303 91.1973 555.68 89.1745C551.056 87.1516 539.208 87.874 536.174 90.3304C533.139 92.7867 527.649 97.8439 528.082 102.757C528.516 107.814 530.105 112.293 530.394 125.153C530.683 138.012 534.873 165.177 535.74 171.968C536.607 178.759 548.311 241.323 548.311 241.323C548.311 241.323 547.877 242.334 547.155 241.612C546.577 240.89 532.85 164.599 527.938 153.328C529.816 141.336 530.972 107.38 523.169 99.8668C519.846 92.3532 499.617 86.4291 491.959 103.335C484.301 120.095 486.758 150.149 485.313 161.709C483.868 173.268 485.457 198.987 486.902 206.645C485.891 198.843 483.29 191.618 478.811 187.139C474.332 182.66 466.963 178.181 461.761 176.302C457.571 174.857 452.225 176.736 449.913 179.192C449.046 180.059 447.89 180.926 446.589 181.07C445.578 181.215 445 181.504 445 181.504C445 183.816 446.589 194.942 452.225 206.067C452.947 207.512 453.38 209.102 453.091 210.691C452.513 214.881 453.958 223.551 452.369 229.764C450.491 237.277 448.323 242.479 451.647 251.148C451.936 255.772 453.38 260.396 454.97 262.13C454.536 268.343 455.403 274.267 461.183 288.427C468.407 306.199 464.795 325.85 469.852 335.964C474.91 346.079 480.978 349.546 487.625 359.95C494.127 370.353 519.557 402.863 529.96 411.099C540.364 419.335 544.698 428.149 544.698 428.149" stroke="#75819C" stroke-width="2" stroke-miterlimit="10"/>
<path d="M491.815 328.884C492.248 321.515 495.571 308.944 495.86 304.465C496.294 299.986 494.994 306.344 494.705 286.982C494.56 267.476 492.826 236.844 489.647 223.117C486.469 209.39 487.336 206.645 485.891 201.732" stroke="#75819C" stroke-width="2" stroke-miterlimit="10"/>
<path d="M597.726 228.897C594.548 224.129 590.935 215.749 590.502 193.497C590.068 171.245 583.422 165.899 582.988 150.583C582.555 135.267 571.574 130.355 569.695 113.594" stroke="#75819C" stroke-width="2" stroke-miterlimit="10"/>
<path d="M636.739 223.407C636.883 217.916 637.028 190.174 634.138 173.557C631.248 156.941 628.358 150.583 624.89 143.214C621.278 135.701 615.209 124.286 613.476 117.64" stroke="#75819C" stroke-width="2" stroke-miterlimit="10"/>
<g opacity="0.5">
<path d="M453.092 182.806C454.392 183.095 455.548 183.817 456.704 184.684C457.715 185.695 458.438 186.851 458.871 188.152C459.594 190.753 460.316 193.209 460.75 195.954C461.183 198.555 461.617 201.3 461.328 204.046C461.328 204.768 461.039 205.491 460.894 206.069C460.605 206.791 460.172 207.369 459.594 207.803C458.438 208.814 456.993 208.958 455.693 208.525C456.993 208.669 458.293 208.236 459.16 207.225C460.027 206.358 460.172 205.057 460.172 203.757C460.172 201.156 459.738 198.555 459.305 196.099C458.871 193.498 458.293 190.897 457.716 188.441C457.282 186.129 455.548 183.962 453.092 182.806Z" fill="#75819C"/>
</g>
<path opacity="0.33" d="M394.511 201.009C395.953 198.702 408.211 187.597 414.844 159.477C421.478 131.356 391.915 131.789 381.532 147.507C371.294 163.227 363.506 176.926 350.383 189.905C337.26 202.884 314.619 230.861 311.879 233.745C309.139 236.629 299.333 250.185 297.025 250.329C294.718 250.473 284.479 245.859 283.614 242.686C282.749 239.514 283.037 226.39 285.632 220.333C288.229 214.277 299.765 187.166 300.487 182.117C306.399 180.243 316.638 171.158 320.243 166.687C323.704 162.073 327.309 155.295 330.338 152.123C333.366 148.949 347.066 121.983 339.134 111.023C335.385 98.6207 319.811 102.658 316.349 105.83C312.744 109.004 308.706 118.377 307.265 120.108C305.822 121.838 300.631 128.472 299.188 134.529C294.43 136.115 274.528 147.651 268.616 153.997C262.559 160.342 268.472 148.517 270.635 147.074C272.799 145.633 288.229 132.221 292.987 120.829C297.746 109.436 292.266 105.254 292.266 105.254C292.266 105.254 292.122 95.4476 282.46 96.0245C272.799 96.6014 263.713 110.734 262.415 111.167C261.118 111.599 258.521 109.581 250.013 118.233C246.263 115.06 241.937 113.618 240.639 113.185C238.908 110.734 232.563 108.715 230.256 111.599C228.093 114.339 225.498 121.838 224.2 123.857C222.901 125.732 215.835 136.692 213.096 142.46C210.499 148.228 206.894 158.611 205.741 160.63C204.587 162.506 195.358 170.725 193.915 175.052C192.617 179.378 192.185 188.463 191.32 191.203C190.455 193.943 187.282 200.865 185.983 208.364C182.811 210.815 177.62 219.612 173.294 247.156C168.967 274.845 158.44 273.98 159.017 303.975C159.594 333.97 159.161 379.397 156.709 390.645C154.258 402.038 150.076 416.458 142 428.86H233.573H304.957C309.716 425.4 319.234 416.747 322.695 412.998C326.155 409.248 346.778 386.03 358.891 375.503C371.005 364.975 373.889 360.361 375.62 355.025C377.35 349.69 380.955 324.453 388.31 305.272C395.809 286.093 398.693 276.863 397.539 273.403C399.27 270.23 398.982 255.088 399.991 251.339C401.001 247.589 402.586 242.974 402.298 241.099C403.163 239.081 413.114 217.305 411.961 210.816C410.807 204.326 393.213 205.047 390.473 207.354C393.213 205.047 393.069 203.461 394.511 201.009ZM342.452 297.63C341.154 298.063 336.106 304.551 333.366 308.013L329.328 306.715C333.222 289.987 344.47 271.095 353.412 266.048C346.634 276.142 343.749 297.197 342.452 297.63Z" fill="#E0E1E2"/>
<path d="M304.958 428.86C309.717 425.4 319.234 416.747 322.695 412.998C326.156 409.248 346.778 386.03 358.892 375.503C371.005 364.975 373.89 360.361 375.62 355.025C377.351 349.69 380.957 324.453 388.311 305.272C395.81 286.093 398.693 276.863 397.54 273.403C399.27 270.23 398.982 255.088 399.991 251.339C401.001 247.589 402.588 243.118 402.299 241.099C403.165 239.081 413.115 217.305 411.961 210.816C410.807 204.326 393.213 205.047 390.474 207.354C393.069 205.047 392.925 203.461 394.512 201.009C395.954 198.558 408.212 187.597 414.846 159.477C421.479 131.356 391.916 131.789 381.532 147.507C371.294 163.227 363.363 176.926 350.384 189.905C337.261 202.884 314.62 230.861 311.879 233.745C309.14 236.629 299.333 250.185 297.026 250.329C294.718 250.473 284.48 245.859 283.614 242.686C282.749 239.514 283.037 226.39 285.634 220.333C288.229 214.277 299.766 187.166 300.487 182.117C306.399 180.243 316.639 171.158 320.244 166.687C323.849 162.217 327.31 155.295 330.338 152.123C333.367 148.949 347.066 121.983 339.136 111.023C335.241 98.6207 319.811 102.658 316.351 105.83C312.889 109.004 308.707 118.377 307.265 120.108C305.822 121.838 300.631 128.472 299.19 134.529C294.43 136.115 274.674 147.651 268.617 153.997C262.56 160.342 268.473 148.517 270.635 147.074C272.799 145.633 288.229 132.221 292.989 120.829C297.747 109.436 292.267 105.254 292.267 105.254C292.267 105.254 292.123 95.4476 282.461 96.0245C272.799 96.6014 263.714 110.734 262.416 111.167C261.118 111.599 258.522 109.581 250.014 118.233C246.265 115.06 241.938 113.618 240.641 113.185C238.91 110.734 232.564 108.715 230.401 111.599C228.238 114.339 225.642 121.838 224.344 123.857C223.047 125.732 215.98 136.692 213.24 142.46C210.645 148.228 207.039 158.611 205.885 160.63C204.732 162.506 195.502 170.725 194.061 175.052C192.763 179.378 192.33 188.463 191.465 191.203C190.599 193.943 187.427 200.865 186.129 208.364C182.956 210.815 177.764 219.612 173.438 247.156C169.112 274.845 158.585 273.98 159.161 303.975C159.738 333.97 159.305 379.397 156.854 390.645C154.402 402.038 150.221 416.458 142.145 428.86" stroke="#75819C" stroke-width="2" stroke-miterlimit="10"/>
<path d="M333.367 308.014C336.106 304.553 341.298 298.208 342.451 297.631C343.75 297.198 346.634 276.144 353.411 265.904C344.471 270.952 333.222 289.843 329.329 306.571L333.367 308.014Z" stroke="#75819C" stroke-width="2" stroke-miterlimit="10"/>
<path d="M329.328 306.572C331.203 299.505 336.251 283.787 346.922 271.529C357.594 259.271 368.554 244.849 373.601 236.486C378.648 228.121 393.069 203.317 394.511 201.01C395.954 198.558 408.211 187.598 414.845 159.478C421.479 131.357 391.916 131.79 381.532 147.508C371.293 163.227 363.363 176.927 350.383 189.906C337.26 202.884 314.619 230.862 311.879 233.745C309.139 236.63 295.583 255.089 290.104 256.675" stroke="#F69AED" stroke-width="3" stroke-miterlimit="10" stroke-linecap="round"/>
<path d="M171.996 265.904C174.592 264.173 180.072 260.857 182.38 249.753C184.542 238.648 183.533 218.17 186.273 208.364" stroke="#75819C" stroke-width="2" stroke-miterlimit="10"/>
<path d="M205.884 160.486C214.825 153.421 220.882 143.181 228.38 138.422C235.88 133.663 238.907 131.067 240.927 129.193C242.802 127.318 246.118 121.983 250.157 118.233" stroke="#75819C" stroke-width="2" stroke-miterlimit="10"/>
<path d="M215.836 255.232C219.298 251.339 225.931 241.388 230.546 219.468C235.016 197.548 245.832 178.945 246.986 174.475C247.995 170.005 252.61 162.506 266.887 155.728" stroke="#75819C" stroke-width="2" stroke-miterlimit="10"/>
<g opacity="0.5">
<path d="M390.473 143.327C389.609 144.769 388.455 146.067 387.734 147.509C387.301 148.23 387.013 148.951 387.013 149.671C387.013 150.393 387.157 151.114 387.734 151.691C388.599 152.845 390.185 153.71 391.627 154.431C393.07 155.151 394.656 155.728 396.242 156.161C397.828 156.594 399.415 156.882 401.146 157.171C402.01 157.315 402.731 157.315 403.597 157.459C404.462 157.459 405.183 157.459 405.904 157.315C407.347 156.738 408.644 155.728 409.798 154.431C410.952 153.277 412.106 151.979 413.115 150.681C412.25 152.123 411.384 153.566 410.231 154.864C409.077 156.161 407.923 157.459 406.193 158.325C405.328 158.757 404.318 158.757 403.453 158.757C402.587 158.757 401.723 158.757 400.857 158.613C399.126 158.469 397.396 158.18 395.81 157.603C394.079 157.171 392.493 156.449 391.05 155.584C390.329 155.151 389.609 154.72 388.888 154.143C388.167 153.566 387.446 152.989 387.013 152.123C386.436 151.402 386.147 150.393 386.292 149.383C386.436 148.374 386.869 147.653 387.301 146.932C388.167 145.778 389.321 144.624 390.473 143.327Z" fill="#75819C"/>
</g>
<g opacity="0.5">
<path d="M407.634 208.364C405.76 208.941 404.173 209.951 402.587 211.105C401.001 212.113 399.559 213.411 398.261 214.71C395.664 217.449 393.358 220.478 391.915 223.939C391.194 225.669 390.761 227.4 390.617 229.274C390.473 231.149 390.906 232.88 391.627 234.611C392.348 236.341 393.358 237.927 394.656 239.37C395.953 240.811 397.395 242.109 399.126 242.974C395.52 241.532 392.492 238.648 390.617 235.187C389.752 233.457 389.176 231.294 389.32 229.274C389.32 227.256 389.896 225.237 390.617 223.362C392.204 219.757 394.511 216.44 397.539 213.844C400.28 211.392 403.74 209.085 407.634 208.364Z" fill="#75819C"/>
</g>
</svg>
