<svg width="850" height="500" viewBox="0 0 850 500" fill="none" xmlns="http://www.w3.org/2000/svg">
<path opacity="0.33" d="M534.348 434.358C529.109 426.354 524.743 421.697 521.833 418.787C520.523 417.477 515.866 412.966 511.355 409.036C505.825 404.234 502.187 400.014 479.922 369.599C475.119 363.05 472.5 358.103 466.824 351.699C463.914 348.352 461.294 345.733 459.548 344.132C458.675 342.968 457.511 341.367 456.492 339.039C454.455 334.527 454.455 330.453 454.455 327.688C454.309 317.501 454.309 312.262 454.163 310.952C453.29 299.31 449.216 288.541 448.342 286.504C447.469 284.321 446.451 281.702 445.432 277.772C444.268 272.97 444.122 268.75 444.122 266.13C442.376 261.91 441.357 258.272 440.63 255.362C440.048 252.451 439.32 248.813 439.465 244.156C439.465 242.846 439.902 240.081 440.775 234.551C442.23 225.383 442.376 224.219 442.521 222.327C442.667 219.853 442.667 216.215 442.085 211.704C440.339 207.338 438.738 202.39 437.283 197.006C436.264 193.077 435.391 189.147 434.663 185.655C435.391 185.509 436.264 185.509 436.992 185.364C437.574 184.782 438.447 183.908 439.756 183.181C444.559 180.416 450.089 182.017 453.145 182.89C462.75 185.655 468.134 192.931 469.007 194.095C473.082 199.771 474.101 205.592 474.828 209.23C475.847 214.76 478.175 229.604 478.612 232.805C479.922 241.246 481.959 252.451 481.959 252.451C480.94 232.368 476.574 213.45 474.537 192.64C474.392 186.237 474.392 173.576 474.683 162.08C474.683 159.751 474.828 154.512 475.265 144.18C475.847 128.318 475.992 123.515 477.448 116.676C480.067 104.743 483.269 101.541 484.724 100.377C490.108 95.72 496.511 96.0111 497.385 96.0111C504.079 96.3021 508.445 100.231 509.9 101.687C513.538 105.179 514.848 109.108 516.012 112.892C518.049 119.441 517.758 124.534 517.322 133.266C517.031 137.777 516.594 145.926 516.012 157.132C516.885 160.042 518.195 164.263 519.796 169.501C522.706 179.688 525.18 188.565 526.926 199.48C528.236 207.92 527.654 208.066 529.255 221.017C530.419 230.622 531.729 238.481 532.747 243.428C533.329 244.738 533.911 245.902 534.494 247.212C535.512 246.484 536.531 245.902 537.695 245.175C535.367 233.387 533.62 223.346 532.165 215.779C529.691 201.663 528.09 193.077 526.49 181.144C525.762 175.177 525.617 174.449 524.452 164.263C522.852 150.729 522.124 147.236 520.523 133.848C516.448 100.668 519.796 117.694 518.777 110.418C518.631 109.399 518.34 107.508 518.777 104.888C520.087 97.9029 526.199 93.9737 526.635 93.6827C533.184 89.4624 541.333 90.7722 546.718 93.8282C547.882 94.4103 553.266 97.6119 555.449 103.578C555.74 104.161 556.177 106.634 557.05 111.437C558.36 118.276 558.36 118.568 558.651 119.877C559.524 123.515 560.688 126.426 563.017 131.81C567.237 141.561 568.547 142.434 570.002 148.109C570.729 150.729 570.438 150.729 571.457 156.113C571.603 157.132 574.077 168.628 574.513 168.628C574.804 168.628 574.368 163.244 571.603 142.288C568.256 136.613 565.927 131.665 564.472 128.172C561.125 120.459 560.834 117.84 560.688 116.53C560.397 110.709 562.726 105.907 564.326 103.287C564.617 102.269 565.199 100.668 566.509 99.2126C570.438 94.7014 577.278 95.5745 578.297 95.72C582.808 96.3021 585.719 98.7761 589.066 101.687C591.831 104.015 596.196 108.526 599.689 115.657C601.144 118.568 602.6 121.478 604.055 124.389L604.2 124.243C603.909 122.206 602.745 116.53 603.618 113.474C603.909 112.164 605.801 105.761 612.059 102.705C619.189 99.3582 627.193 102.996 631.123 107.071C631.705 107.653 632.432 108.817 633.887 110.855C636.652 115.075 638.835 119.15 640.873 123.37C642.619 127.008 644.947 132.392 647.421 140.396C650.477 150.001 649.459 149.419 652.951 161.498C656.007 172.266 657.754 175.614 659.063 184.2C659.646 187.983 659.937 190.894 660.373 194.241C661.101 201.663 661.101 205.446 661.392 215.633C661.683 226.547 661.828 231.932 662.41 236.152C663.429 245.029 665.03 250.85 666.049 254.779C668.086 263.511 669.978 276.754 668.668 295.235C668.959 298.583 669.396 303.53 669.832 309.642C670.123 314.299 670.996 329.434 670.996 353.882C670.996 371.782 670.56 376.875 671.579 389.099C672.452 399.723 673.47 404.671 673.907 406.708C676.672 419.078 681.329 428.537 684.967 434.94C634.615 434.503 584.554 434.358 534.348 434.358Z" fill="#E0E1E2"/>
<path d="M661.829 228.147C661.975 231.349 662.12 233.823 662.411 235.86C663.43 244.737 665.031 250.558 666.049 254.488C668.087 263.219 669.979 276.462 668.669 294.944C668.96 298.291 669.396 303.239 669.833 309.351C670.124 314.008 670.997 329.142 670.997 353.59C670.997 371.49 670.561 376.583 671.579 388.808C672.452 399.431 673.471 404.379 673.908 406.416C676.673 418.786 681.33 428.245 684.968 434.648" stroke="#808285" stroke-width="2" stroke-miterlimit="10"/>
<path d="M604.347 122.933C604.055 120.896 602.891 116.239 603.764 113.183C604.055 111.873 605.947 105.47 612.205 102.414C619.336 99.0672 627.34 102.705 631.269 106.78C631.851 107.362 632.578 108.526 634.034 110.564C636.799 114.784 638.982 118.859 641.019 123.079C642.765 126.717 645.094 132.102 647.568 140.105C650.624 149.71 649.605 149.128 653.098 161.207C656.154 171.976 657.9 175.323 659.21 183.909C659.792 187.692 660.083 190.603 660.519 193.95C661.247 201.372 661.247 205.155 661.538 215.342C661.684 220.727 661.829 224.801 661.975 228.148" stroke="#2969D0" stroke-width="3" stroke-miterlimit="10" stroke-linecap="round"/>
<path d="M480.649 333.654C480.358 330.307 480.358 325.213 481.959 319.392C482.395 317.791 482.977 316.336 483.559 314.881C485.015 311.388 485.306 307.75 484.869 304.112C484.724 303.384 484.724 302.511 484.578 301.638C483.705 285.485 483.705 261.182 481.959 250.995" stroke="#808285" stroke-width="2" stroke-miterlimit="10"/>
<path d="M587.611 231.058C582.663 221.017 581.062 213.013 580.335 207.483C580.044 205.009 579.607 199.334 579.462 196.714C578.734 187.11 578.734 185.509 578.297 182.016C577.715 178.669 576.697 173.721 574.514 167.755" stroke="#808285" stroke-width="2" stroke-miterlimit="10"/>
<path d="M626.611 225.383C627.193 213.014 626.757 202.536 626.029 194.678C625.447 187.11 624.865 179.252 622.391 168.92C621.809 166.446 620.208 159.897 617.298 151.456C614.969 144.762 609.148 133.411 603.909 123.952" stroke="#808285" stroke-width="2" stroke-miterlimit="10"/>
<g opacity="0.5">
<path d="M446.306 211.702C448.052 210.101 449.362 208.064 448.926 205.736C448.78 203.407 448.489 201.079 448.052 198.75C447.907 197.586 447.761 196.422 447.47 195.258C447.325 194.094 447.034 192.929 446.597 191.911C446.306 190.892 445.579 189.873 444.851 189C444.123 188.127 443.25 187.4 442.231 186.672C444.414 187.691 446.452 189.146 447.616 191.474C448.635 193.803 449.071 196.131 449.508 198.459C449.799 200.788 450.09 203.262 450.09 205.59C450.09 206.172 450.09 206.754 449.944 207.482C449.799 208.21 449.508 208.646 449.071 209.228C448.198 210.247 447.325 211.12 446.306 211.702Z" fill="#AEB0B2"/>
</g>
<g opacity="0.5">
<path d="M611.477 109.545C611.477 111.146 612.641 112.455 613.514 113.765C614.388 115.075 615.552 116.239 616.425 117.549C617.444 118.859 618.462 120.023 619.627 120.605C620.936 121.332 622.391 121.478 623.992 121.478C625.593 121.478 627.048 121.332 628.649 121.041C629.377 120.896 630.25 120.75 630.977 120.459C631.705 120.314 632.433 120.023 633.015 119.732C633.306 119.586 633.306 119.586 633.306 119.15C633.306 118.859 633.16 118.422 633.015 118.131C632.724 117.403 632.287 116.676 631.996 115.948C631.269 114.493 630.686 113.038 629.959 111.582C630.978 112.892 631.705 114.347 632.578 115.657C633.015 116.385 633.451 116.967 633.888 117.694C634.034 118.131 634.325 118.422 634.325 119.004C634.325 119.295 634.325 119.586 634.179 119.877C634.034 120.168 633.742 120.459 633.597 120.459C631.996 121.478 630.541 121.769 628.795 122.206C627.194 122.497 625.593 122.788 623.847 122.788C622.246 122.788 620.354 122.642 618.899 121.624C617.298 120.75 616.279 119.295 615.261 117.985C614.388 116.676 613.369 115.366 612.641 113.911C612.205 113.183 611.914 112.455 611.623 111.582C611.477 111.291 611.186 110.418 611.477 109.545Z" fill="#AEB0B2"/>
</g>
<path d="M534.348 434.358C529.109 426.354 524.743 421.697 521.833 418.787C520.523 417.477 515.866 412.966 511.355 409.036C505.825 404.234 502.187 400.014 479.922 369.599C475.119 363.05 472.5 358.103 466.824 351.699C463.914 348.352 461.294 345.733 459.548 344.132C458.675 342.968 457.511 341.367 456.492 339.039C454.455 334.527 454.455 330.453 454.455 327.688C454.309 317.501 454.309 312.262 454.163 310.952C453.29 299.31 449.216 288.541 448.342 286.504C447.469 284.321 446.451 281.702 445.432 277.772C444.268 272.97 444.122 268.75 444.122 266.13C442.376 261.91 441.357 258.272 440.63 255.362C440.048 252.451 439.32 248.813 439.465 244.156C439.465 242.846 439.902 240.081 440.775 234.551C442.23 225.383 442.376 224.219 442.521 222.327C442.667 219.853 442.667 216.215 442.085 211.704C440.339 207.338 438.738 202.39 437.283 197.006C436.264 193.077 435.391 189.147 434.663 185.655C435.391 185.509 436.264 185.509 436.992 185.364C437.574 184.782 438.447 183.908 439.756 183.181C444.559 180.416 450.089 182.017 453.145 182.89C462.75 185.655 468.134 192.931 469.007 194.095C473.082 199.771 474.101 205.592 474.828 209.23C475.847 214.76 478.175 229.604 478.612 232.805C479.922 241.246 481.959 252.451 481.959 252.451C480.94 232.368 476.574 213.45 474.537 192.64C474.392 186.237 474.392 173.576 474.683 162.08C474.683 159.751 474.828 154.512 475.265 144.18C475.847 128.318 475.992 123.515 477.448 116.676C480.067 104.743 483.269 101.541 484.724 100.377C490.108 95.72 496.511 96.0111 497.385 96.0111C504.079 96.3021 508.445 100.231 509.9 101.687C513.538 105.179 514.848 109.108 516.012 112.892C518.049 119.441 517.758 124.534 517.322 133.266C517.031 137.777 516.594 145.926 516.012 157.132C516.885 160.042 518.195 164.263 519.795 169.501C522.706 179.688 525.18 188.565 526.926 199.48C528.236 207.92 527.654 208.066 529.255 221.017C530.419 230.622 531.729 238.481 532.747 243.428C533.329 244.738 533.911 245.902 534.494 247.212C535.512 246.484 536.531 245.902 537.695 245.175C535.367 233.387 533.62 223.346 532.165 215.779C529.691 201.663 528.09 193.077 526.49 181.144C525.762 175.177 525.617 174.449 524.452 164.263C522.852 150.729 522.124 147.236 520.523 133.848C516.448 100.668 519.796 117.694 518.777 110.418C518.631 109.399 518.34 107.508 518.777 104.888C520.087 97.9029 526.199 93.9737 526.635 93.6827C533.184 89.4624 541.333 90.7722 546.718 93.8282C547.882 94.4103 553.266 97.6119 555.449 103.578C555.74 104.161 556.177 106.634 557.05 111.437C558.36 118.276 558.36 118.568 558.651 119.877C559.524 123.515 560.688 126.426 563.017 131.81C567.237 141.561 568.547 142.434 570.002 148.109C570.729 150.729 570.438 150.729 571.457 156.113C571.603 157.132 574.077 168.628 574.513 168.628C574.804 168.628 574.368 163.244 571.603 142.288C568.255 136.613 565.927 131.665 564.472 128.172C561.125 120.459 560.834 117.84 560.688 116.53C560.397 110.709 562.726 105.907 564.326 103.287C564.617 102.269 565.199 100.668 566.509 99.2126C570.438 94.7014 577.278 95.5745 578.297 95.72C582.808 96.3021 585.719 98.7761 589.066 101.687C591.831 104.015 596.196 108.526 599.689 115.657C601.144 118.568 602.599 121.478 604.055 124.389L604.2 124.243" stroke="#808285" stroke-width="2" stroke-miterlimit="10"/>
<path opacity="0.33" d="M314.895 436.687C316.787 434.358 324.936 425.918 333.813 417.041C342.691 408.164 360.881 376.876 366.266 370.618C371.65 364.36 385.912 348.935 389.404 341.222C392.897 333.509 389.113 308.77 389.404 301.057C389.695 293.344 393.333 256.526 390.859 246.921C388.386 237.317 384.456 233.388 381.255 226.693C378.053 219.999 377.471 217.962 374.561 215.924C371.65 213.887 373.396 196.424 373.979 193.95C374.561 191.476 376.598 180.271 376.598 176.342C376.598 172.412 376.598 161.207 379.654 152.912C382.71 144.617 380.673 119.732 375.434 111.874C370.195 104.015 365.975 102.123 359.717 101.687C353.459 101.25 346.62 107.362 344.873 111.146C343.127 114.93 340.799 118.422 338.179 149.274C334.541 157.569 327.556 164.845 324.5 174.886C321.444 184.928 313.294 210.249 311.403 220.727C309.511 231.205 298.742 245.466 303.108 237.753C307.473 230.186 307.037 211.559 315.186 186.819C323.336 162.08 322.317 163.681 322.317 162.371C322.317 161.061 327.119 156.55 328.72 145.781C331.776 140.833 337.743 116.239 326.683 109.109C326.537 104.015 323.19 100.523 314.022 99.0675C304.854 97.6122 301.507 99.9406 299.469 105.616C296.122 106.489 291.029 118.859 290.156 129.046C287.682 130.501 275.749 142.58 273.42 147.091C271.092 151.602 264.543 174.304 263.234 180.125C261.924 185.946 253.483 222.328 251.155 225.675C248.827 229.022 247.808 231.35 249.7 224.219C251.592 217.089 260.323 174.159 264.107 166.446C267.89 158.733 268.327 152.33 278.805 137.341C289.283 122.352 287.827 115.075 285.936 110.273C284.044 105.471 282.589 101.396 273.711 99.9406C264.834 98.4854 259.741 105.907 259.741 105.907C259.741 105.907 254.357 107.508 241.405 121.478C238.64 116.094 234.856 112.019 234.856 112.019C234.856 112.019 232.091 106.198 224.233 105.034C216.374 103.87 213.173 112.31 212.736 115.366C210.117 115.366 204.732 127.445 202.841 139.524C200.949 151.748 197.893 169.211 194.691 179.543C191.49 189.875 189.452 198.461 188.725 206.029C187.997 213.596 183.922 224.219 183.195 234.115C182.467 244.011 170.97 272.388 170.388 281.411C169.661 290.433 170.097 321.285 169.224 328.416C168.351 335.546 167.041 359.558 169.224 373.383C171.407 387.062 170.388 399.723 168.06 406.563C165.732 413.403 157 436.105 157 436.105H314.895V436.687Z" fill="#E0E1E2"/>
<path d="M314.895 436.687C316.787 434.358 324.936 425.918 333.813 417.041C342.691 408.164 360.881 376.876 366.266 370.618C371.65 364.36 385.912 348.935 389.404 341.222C392.897 333.509 389.113 308.77 389.404 301.057C389.695 293.344 393.333 256.526 390.859 246.921C388.386 237.317 384.456 233.388 381.255 226.693C378.053 219.999 377.471 217.962 374.561 215.924C371.65 213.887 373.396 196.424 373.979 193.95C374.561 191.476 376.598 180.271 376.598 176.342C376.598 172.412 376.598 161.207 379.654 152.912C382.71 144.617 380.673 119.732 375.434 111.874C370.195 104.015 365.975 102.123 359.717 101.687C353.459 101.25 346.62 107.362 344.873 111.146C343.127 114.93 340.799 118.422 338.179 149.274C334.541 157.569 327.556 164.845 324.5 174.886C321.444 184.928 313.294 210.249 311.403 220.727C309.511 231.205 298.742 245.466 303.108 237.753C307.473 230.186 307.037 211.559 315.186 186.819C323.336 162.08 322.317 163.681 322.317 162.371C322.317 161.061 327.119 156.55 328.72 145.781C331.776 140.833 337.743 116.239 326.683 109.109C326.537 104.015 323.19 100.523 314.022 99.0675C304.854 97.6122 301.507 99.9406 299.469 105.616C296.122 106.489 291.029 118.859 290.156 129.046C287.682 130.501 275.749 142.58 273.42 147.091C271.092 151.602 264.543 174.304 263.234 180.125C261.924 185.946 253.483 222.328 251.155 225.675C248.827 229.022 247.808 231.35 249.7 224.219C251.592 217.089 260.323 174.159 264.107 166.446C267.89 158.733 268.327 152.33 278.805 137.341C289.283 122.352 287.827 115.075 285.936 110.273C284.044 105.471 282.589 101.396 273.711 99.9406C264.834 98.4854 259.741 105.907 259.741 105.907C259.741 105.907 254.357 107.508 241.405 121.478C238.64 116.094 234.856 112.019 234.856 112.019C234.856 112.019 232.091 106.198 224.233 105.034C216.374 103.87 213.173 112.31 212.736 115.366C210.117 115.366 204.732 127.445 202.841 139.524C200.949 151.748 197.893 169.211 194.691 179.543C191.49 189.875 189.452 198.461 188.725 206.029C187.997 213.596 183.922 224.219 183.195 234.115C182.467 244.011 170.97 272.388 170.388 281.411C169.661 290.433 170.097 321.285 169.224 328.416C168.351 335.546 167.041 359.558 169.224 373.383C171.407 387.062 170.388 399.723 168.06 406.563C165.732 413.403 157 436.105 157 436.105" stroke="#808285" stroke-width="2" stroke-miterlimit="10"/>
<path d="M199.203 230.332C203.278 225.966 206.625 219.272 206.916 212.286C207.207 205.301 206.479 169.065 215.647 155.24C224.816 141.415 241.551 122.061 241.551 122.061" stroke="#808285" stroke-width="2" stroke-miterlimit="10"/>
<path d="M361.754 315.173C359.717 311.389 357.243 308.915 357.243 306.005C357.243 303.094 358.844 269.769 360.59 257.836C362.191 245.903 370.34 211.413 373.105 204.282" stroke="#808285" stroke-width="2" stroke-miterlimit="10"/>
</svg>
