<svg width="900" height="500" viewBox="0 0 900 500" fill="none" xmlns="http://www.w3.org/2000/svg">
<path opacity="0.33" d="M694.391 428.438C687.6 414.134 682.831 400.841 680.953 371.365C679.075 341.888 682.687 339.577 680.953 316.314C679.219 293.051 677.485 298.108 679.219 280.624C680.809 263.141 671.272 240.456 671.128 231.931C670.983 223.406 671.706 194.219 669.105 180.493C666.504 166.766 660.435 157.952 656.101 134.4C651.766 110.848 635.294 95.5321 624.746 98.9999C614.198 102.468 612.465 113.449 613.765 117.495C609.141 108.392 606.107 103.046 603.217 99.5778C600.327 96.11 591.947 92.0643 591.947 92.0643C591.947 92.0643 578.943 89.319 573.886 101.023C569.695 101.89 569.695 110.993 569.84 113.449C568.828 107.958 566.95 100.156 565.361 97.6994C563.627 95.2431 560.303 91.3419 555.68 89.319C551.056 87.2961 539.208 88.0186 536.174 90.4749C533.139 92.9312 527.649 97.9884 528.082 102.901C528.516 107.958 530.105 112.437 530.394 125.297C530.683 138.157 534.873 165.321 535.74 172.112C536.607 178.903 548.311 241.468 548.311 241.468C548.311 241.468 547.877 242.479 547.155 241.757C546.577 241.034 532.85 164.743 527.938 153.473C529.816 141.48 530.972 107.525 523.169 100.011C519.846 92.4978 499.617 86.5737 491.959 103.479C484.301 120.24 486.758 150.294 485.313 161.853C483.868 173.413 485.457 199.132 486.902 206.79C485.891 198.987 483.29 191.763 478.811 187.284C474.332 182.804 466.963 178.325 461.761 176.447C457.571 175.002 452.225 176.88 449.913 179.192C449.19 179.915 448.179 180.637 447.167 180.782C446.011 181.07 445 181.937 445 181.937C445 184.394 446.878 196.675 453.669 208.813C451.936 211.414 454.247 222.25 452.369 229.908C450.491 237.422 448.323 242.624 451.647 251.293C450.346 253.605 452.08 259.962 454.97 262.274C453.236 267.62 455.403 274.411 461.183 288.571C468.407 306.344 464.795 325.995 469.852 336.109C474.91 346.223 480.978 349.691 487.625 360.094C494.127 370.498 519.557 403.008 529.96 411.244C540.364 419.48 544.698 428.294 544.698 428.294H694.391V428.438Z" fill="#445272"/>
<path d="M694.391 428.438C687.6 414.134 682.831 400.841 680.953 371.365C679.075 341.888 682.687 339.577 680.953 316.314C679.219 293.051 677.485 298.108 679.219 280.624C680.809 263.141 671.272 240.456 671.128 231.931C670.983 223.406 671.706 194.219 669.105 180.492C666.504 166.766 662.603 156.652 656.101 134.4C648.876 109.548 635.294 95.532 624.746 98.9998C614.198 102.468 612.465 113.449 613.765 117.495C609.141 108.392 606.107 103.046 603.217 99.5778C601.05 96.9769 595.126 92.4977 590.213 91.7753C586.601 91.1973 577.787 91.9198 573.886 100.878C570.129 102.179 569.695 110.848 569.84 113.304C568.828 107.814 566.95 100.011 565.361 97.5549C563.627 95.0986 560.303 91.1973 555.68 89.1745C551.056 87.1516 539.208 87.874 536.174 90.3304C533.139 92.7867 527.649 97.8439 528.082 102.757C528.516 107.814 530.105 112.293 530.394 125.153C530.683 138.012 534.873 165.177 535.74 171.968C536.607 178.759 548.311 241.323 548.311 241.323C548.311 241.323 547.877 242.334 547.155 241.612C546.577 240.89 532.85 164.599 527.938 153.328C529.816 141.336 530.972 107.38 523.169 99.8668C519.846 92.3532 499.617 86.4291 491.959 103.335C484.301 120.095 486.758 150.149 485.313 161.709C483.868 173.268 485.457 198.987 486.902 206.645C485.891 198.843 483.29 191.618 478.811 187.139C474.332 182.66 466.963 178.181 461.761 176.302C457.571 174.857 452.225 176.736 449.913 179.192C449.046 180.059 447.89 180.926 446.589 181.07C445.578 181.215 445 181.504 445 181.504C445 183.816 446.589 194.942 452.225 206.067C452.947 207.512 453.38 209.102 453.091 210.691C452.513 214.881 453.958 223.551 452.369 229.764C450.491 237.277 448.323 242.479 451.647 251.148C451.936 255.772 453.38 260.396 454.97 262.13C454.536 268.343 455.403 274.267 461.183 288.427C468.407 306.199 464.795 325.85 469.852 335.964C474.91 346.079 480.978 349.546 487.625 359.95C494.127 370.353 519.557 402.863 529.96 411.099C540.364 419.335 544.698 428.149 544.698 428.149" stroke="#697695" stroke-width="2" stroke-miterlimit="10"/>
<path d="M491.815 328.884C492.248 321.515 495.571 308.944 495.86 304.465C496.294 299.986 494.994 306.344 494.705 286.982C494.56 267.476 492.826 236.844 489.647 223.117C486.469 209.39 487.336 206.645 485.891 201.732" stroke="#697695" stroke-width="2" stroke-miterlimit="10"/>
<path d="M597.726 228.897C594.548 224.129 590.935 215.749 590.502 193.497C590.068 171.245 583.422 165.899 582.988 150.583C582.555 135.267 571.574 130.355 569.695 113.594" stroke="#697695" stroke-width="2" stroke-miterlimit="10"/>
<path d="M636.74 223.406C636.884 217.915 637.029 190.173 634.139 173.557C631.249 156.94 628.359 150.583 624.891 143.213C621.279 135.7 615.21 124.285 613.477 117.639" stroke="#697695" stroke-width="2" stroke-miterlimit="10"/>
<g opacity="0.5">
<path d="M453.092 182.805C454.392 183.094 455.548 183.816 456.704 184.683C457.715 185.695 458.438 186.85 458.871 188.151C459.594 190.752 460.316 193.208 460.75 195.953C461.183 198.554 461.617 201.299 461.328 204.045C461.328 204.767 461.039 205.49 460.894 206.068C460.605 206.79 460.172 207.368 459.594 207.802C458.438 208.813 456.993 208.957 455.693 208.524C456.993 208.669 458.293 208.235 459.16 207.224C460.027 206.357 460.172 205.056 460.172 203.756C460.172 201.155 459.738 198.554 459.305 196.098C458.871 193.497 458.293 190.896 457.716 188.44C457.282 186.128 455.548 183.961 453.092 182.805Z" fill="#B1BBD0"/>
</g>
<path opacity="0.33" d="M286.867 442.235C293.471 434.129 299.926 426.624 309.982 418.819C320.039 411.014 327.094 404.71 333.398 398.255C339.703 391.801 356.514 373.188 370.624 362.381C384.733 351.423 389.687 344.669 393.439 339.565C397.792 333.561 395.39 315.849 404.547 296.036C413.853 276.222 412.802 270.819 412.802 270.819C412.802 270.819 418.656 264.815 419.257 257.61C419.857 250.405 419.407 231.342 424.06 226.839L420.908 223.687C420.908 223.687 433.216 201.922 434.567 188.863C429.764 183.009 407.699 181.508 390.287 203.423C373.025 225.338 373.476 235.845 374.676 244.551C370.173 247.553 367.922 255.508 364.77 262.713C361.617 269.918 359.216 276.072 359.366 277.573C357.865 277.723 350.36 285.679 347.958 291.833C345.557 297.987 349.009 261.662 352.912 244.851C356.814 228.19 372.575 191.865 375.277 183.609C377.979 175.354 379.329 164.246 380.831 157.342C382.181 150.437 388.786 140.38 389.536 134.976C390.287 129.423 391.188 107.958 385.634 103.155C380.08 98.351 376.327 97.451 367.171 97.451C358.015 97.451 346.757 120.717 347.358 132.425C344.356 136.027 335.95 148.936 333.098 154.49C330.246 160.043 310.583 201.171 305.78 217.983C304.729 220.084 297.374 219.784 296.924 217.983C296.473 216.182 304.429 185.261 308.031 175.504C311.634 165.747 316.587 157.041 316.887 152.088C318.838 151.638 328.745 142.331 330.396 134.826C333.398 132.275 347.808 115.613 340.453 104.205C339.703 98.802 327.694 96.55 321.54 97.601C315.536 98.652 312.384 102.254 312.384 102.254C312.384 102.254 308.181 102.254 304.879 105.857C301.577 109.459 299.926 112.161 296.924 112.911C293.922 113.662 274.408 127.021 270.205 132.124C266.003 137.078 269.005 128.372 269.005 128.372C269.005 128.372 272.907 112.761 276.209 105.106C279.512 97.451 284.315 83.7916 284.315 77.3372C284.315 70.8828 281.613 66.8301 280.412 65.9295C279.812 64.2783 278.011 57.0735 266.453 55.5724C255.045 54.2215 252.493 66.9802 250.242 70.2824C247.99 73.5847 237.183 86.6435 234.781 100.753C230.278 102.704 209.714 126.721 202.509 137.078C195.305 147.435 189.3 160.794 186.449 165.147C183.446 169.35 179.094 176.254 173.54 192.315C167.986 208.376 167.235 223.537 163.933 231.642C160.781 239.748 151.475 263.464 150.424 272.62C149.373 281.776 151.625 359.229 149.373 367.184C147.122 375.139 146.371 378.592 146.221 382.494C146.071 386.247 115.6 441.935 115 442.685H286.867V442.235Z" fill="#445272"/>
<path d="M115.449 442.234C116.05 441.483 146.37 385.946 146.67 382.043C146.821 378.29 147.571 374.838 149.823 366.733C152.074 358.627 149.823 281.174 150.873 272.168C151.924 263.012 161.23 239.296 164.382 231.19C167.535 223.085 168.435 208.075 173.989 191.864C179.543 175.803 183.896 168.898 186.898 164.695C189.9 160.492 195.754 147.133 202.959 136.626C210.164 126.269 230.727 102.253 235.231 100.302C237.482 86.192 248.44 73.1331 250.691 69.8309C252.943 66.5287 255.344 53.6199 266.902 55.1209C278.31 56.4718 280.261 63.8268 280.862 65.4779C282.212 66.3785 284.764 70.5814 284.764 76.8857C284.764 83.3401 279.961 96.849 276.659 104.655" stroke="#697695" stroke-width="2" stroke-miterlimit="10"/>
<path d="M228.477 224.286C231.629 221.734 236.132 217.832 238.234 214.98C240.335 212.128 247.54 197.118 248.741 186.761C249.942 176.404 253.694 163.495 258.197 153.288C262.7 143.081 267.203 136.326 270.656 131.673C273.958 127.02 294.372 113.211 297.374 112.46C300.376 111.71 302.027 109.008 305.329 105.405C308.631 101.803 312.834 101.803 312.834 101.803C312.834 101.803 315.986 98.2009 321.991 97.1499C327.995 96.0989 340.003 98.3509 340.903 103.754C348.258 115.162 333.849 131.823 330.847 134.375C329.195 141.88 319.289 151.187 317.337 151.637C317.037 156.59 312.084 165.146 308.481 175.053C304.879 184.809 296.924 215.73 297.374 217.532C297.824 219.333 305.179 219.633 306.23 217.532C311.033 200.87 330.696 159.442 333.548 154.038C336.4 148.635 344.806 135.576 347.808 131.973C347.208 120.265 358.315 96.9999 367.622 96.9999C376.778 96.9999 380.68 97.8999 386.084 102.704C391.638 107.507 390.587 128.971 389.987 134.525C389.236 140.079 382.632 149.986 381.281 156.89C379.93 163.795 378.579 174.903 375.727 183.158C373.025 191.414 357.264 227.738 353.362 244.4C349.459 261.061 346.007 297.536 348.408 291.382C350.81 285.228 358.315 277.272 359.816 277.122C359.666 275.621 361.918 269.317 365.22 262.262C368.522 255.207 370.624 247.102 375.127 244.1C373.926 235.394 373.325 224.887 390.737 202.972C407.999 181.057 430.064 182.408 435.017 188.412C433.666 201.471 421.358 223.235 421.358 223.235L424.51 226.388C419.857 230.891 420.157 249.954 419.707 257.158C419.106 264.363 413.253 270.367 413.253 270.367C413.253 270.367 414.153 275.771 404.997 295.585C395.691 315.398 398.242 333.26 393.889 339.114C390.137 344.218 385.183 350.972 371.074 361.93C356.964 372.887 340.153 391.35 333.849 397.804C327.544 404.258 320.339 410.563 310.433 418.368C300.376 426.173 293.921 433.678 287.317 441.784" stroke="#697695" stroke-width="2" stroke-miterlimit="10"/>
<g opacity="0.5">
<path d="M430.514 190.213C427.963 192.014 425.711 193.965 423.61 196.217C421.658 198.468 419.857 200.87 418.656 203.572C417.456 206.274 416.855 209.126 416.405 212.128C416.255 213.629 416.105 215.13 416.105 216.631C416.105 217.381 416.255 218.132 416.405 218.882C416.555 219.633 416.855 220.383 417.606 220.533C416.855 220.383 416.255 219.633 415.955 219.032C415.654 218.282 415.504 217.531 415.354 216.781C415.054 215.28 415.054 213.629 415.204 212.128C415.354 209.126 415.955 205.823 417.155 202.972C418.506 200.12 420.308 197.418 422.559 195.316C424.961 193.065 427.663 191.414 430.514 190.213Z" fill="#B1BBD0"/>
</g>
<path d="M189 220.534C190.801 217.682 193.803 214.53 196.055 213.479C196.055 209.576 197.706 192.014 202.359 178.355C207.012 164.696 214.367 147.434 217.369 140.529C220.221 133.625 229.678 113.961 231.779 110.059C233.88 106.306 232.379 105.105 235.532 100.602C237.783 86.4928 248.741 73.4339 250.992 70.1317C253.244 66.8294 255.645 53.9207 267.203 55.4217C278.611 56.7726 280.562 64.1276 281.163 65.7787C282.514 66.6793 285.065 70.8822 285.065 77.1865C285.065 83.6408 280.262 97.15 276.96 104.955C273.657 112.611 269.755 128.221 269.755 128.221" stroke="#BA6DCD" stroke-width="3" stroke-miterlimit="10" stroke-linecap="round"/>
<g opacity="0.5">
<path d="M278.612 69.5312C277.261 72.3832 275.76 75.085 273.959 77.4866C273.508 78.087 273.058 78.6874 272.458 79.2879C271.857 79.8883 271.407 80.4887 270.506 80.939C270.206 81.2392 269.456 81.3893 269.155 81.3893C268.705 81.3893 268.405 81.3893 267.954 81.3893C267.204 81.3893 266.453 81.2392 265.553 81.2392C262.551 80.939 259.399 80.4887 256.397 80.1884C256.096 80.1884 255.646 80.1884 255.346 80.1884C255.196 80.1884 254.896 80.1884 254.896 80.1884H254.746C254.595 80.1884 254.445 80.1884 254.295 80.1884C253.545 80.0383 253.395 79.4379 253.245 79.1377C253.094 78.6874 253.094 78.3872 252.944 77.9369C252.794 76.2858 252.794 74.7848 253.094 73.2838C253.244 74.7848 253.395 76.4359 253.695 77.7868C253.845 78.087 253.845 78.5373 253.995 78.8375C254.145 79.1377 254.295 79.2879 254.445 79.2879C254.445 79.2879 254.445 79.2879 254.595 79.2879H254.896C255.196 79.2879 255.346 79.2879 255.496 79.2879C255.946 79.2879 256.247 79.2879 256.697 79.2879C259.849 79.2879 262.851 79.7382 265.853 80.0384C266.604 80.1885 267.354 80.1884 268.105 80.1884C268.405 80.1884 268.855 80.1884 269.155 80.1884C269.305 80.1884 269.456 80.1884 269.606 80.1884C269.756 80.1884 269.756 80.1885 269.906 80.0384C270.957 79.438 272.007 78.2371 273.058 77.0363C274.859 74.6347 276.81 72.0831 278.612 69.5312Z" fill="#B1BBD0"/>
</g>
</svg>
