<svg width="900" height="500" viewBox="0 0 900 500" fill="none" xmlns="http://www.w3.org/2000/svg">
<path opacity="0.33" d="M694.391 428.438C687.6 414.134 682.831 400.841 680.953 371.365C679.075 341.888 682.687 339.577 680.953 316.314C679.219 293.051 677.485 298.108 679.219 280.624C680.809 263.141 671.272 240.456 671.128 231.931C670.983 223.406 671.706 194.219 669.105 180.493C666.504 166.766 660.435 157.952 656.101 134.4C651.766 110.848 635.294 95.5321 624.746 98.9999C614.198 102.468 612.465 113.449 613.765 117.495C609.141 108.392 606.107 103.046 603.217 99.5778C600.327 96.11 591.947 92.0643 591.947 92.0643C591.947 92.0643 578.943 89.319 573.886 101.023C569.695 101.89 569.695 110.993 569.84 113.449C568.828 107.958 566.95 100.156 565.361 97.6994C563.627 95.2431 560.303 91.3419 555.68 89.319C551.056 87.2961 539.208 88.0186 536.174 90.4749C533.139 92.9312 527.649 97.9884 528.082 102.901C528.516 107.958 530.105 112.437 530.394 125.297C530.683 138.157 534.873 165.321 535.74 172.112C536.607 178.903 548.311 241.468 548.311 241.468C548.311 241.468 547.877 242.479 547.155 241.757C546.577 241.034 532.85 164.743 527.938 153.473C529.816 141.48 530.972 107.525 523.169 100.011C519.846 92.4978 499.617 86.5737 491.959 103.479C484.301 120.24 486.758 150.294 485.313 161.853C483.868 173.413 485.457 199.132 486.902 206.79C485.891 198.987 483.29 191.763 478.811 187.284C474.332 182.804 466.963 178.325 461.761 176.447C457.571 175.002 452.225 176.88 449.913 179.192C449.19 179.915 448.179 180.637 447.167 180.782C446.011 181.07 445 181.937 445 181.937C445 184.394 446.878 196.675 453.669 208.813C451.936 211.414 454.247 222.25 452.369 229.908C450.491 237.422 448.323 242.624 451.647 251.293C450.346 253.605 452.08 259.962 454.97 262.274C453.236 267.62 455.403 274.411 461.183 288.571C468.407 306.344 464.795 325.995 469.852 336.109C474.91 346.223 480.978 349.691 487.625 360.094C494.127 370.498 519.557 403.008 529.96 411.244C540.364 419.48 544.698 428.294 544.698 428.294H694.391V428.438Z" fill="#445272"/>
<path d="M694.391 428.438C687.6 414.134 682.831 400.841 680.953 371.365C679.075 341.888 682.687 339.577 680.953 316.314C679.219 293.051 677.485 298.108 679.219 280.624C680.809 263.141 671.272 240.456 671.128 231.931C670.983 223.406 671.706 194.219 669.105 180.492C666.504 166.766 662.603 156.652 656.101 134.4C648.876 109.548 635.294 95.532 624.746 98.9998C614.198 102.468 612.465 113.449 613.765 117.495C609.141 108.392 606.107 103.046 603.217 99.5778C601.05 96.9769 595.126 92.4977 590.213 91.7753C586.601 91.1973 577.787 91.9198 573.886 100.878C570.129 102.179 569.695 110.848 569.84 113.304C568.828 107.814 566.95 100.011 565.361 97.5549C563.627 95.0986 560.303 91.1973 555.68 89.1745C551.056 87.1516 539.208 87.874 536.174 90.3304C533.139 92.7867 527.649 97.8439 528.082 102.757C528.516 107.814 530.105 112.293 530.394 125.153C530.683 138.012 534.873 165.177 535.74 171.968C536.607 178.759 548.311 241.323 548.311 241.323C548.311 241.323 547.877 242.334 547.155 241.612C546.577 240.89 532.85 164.599 527.938 153.328C529.816 141.336 530.972 107.38 523.169 99.8668C519.846 92.3532 499.617 86.4291 491.959 103.335C484.301 120.095 486.758 150.149 485.313 161.709C483.868 173.268 485.457 198.987 486.902 206.645C485.891 198.843 483.29 191.618 478.811 187.139C474.332 182.66 466.963 178.181 461.761 176.302C457.571 174.857 452.225 176.736 449.913 179.192C449.046 180.059 447.89 180.926 446.589 181.07C445.578 181.215 445 181.504 445 181.504C445 183.816 446.589 194.942 452.225 206.067C452.947 207.512 453.38 209.102 453.091 210.691C452.513 214.881 453.958 223.551 452.369 229.764C450.491 237.277 448.323 242.479 451.647 251.148C451.936 255.772 453.38 260.396 454.97 262.13C454.536 268.343 455.403 274.267 461.183 288.427C468.407 306.199 464.795 325.85 469.852 335.964C474.91 346.079 480.978 349.546 487.625 359.95C494.127 370.353 519.557 402.863 529.96 411.099C540.364 419.335 544.698 428.149 544.698 428.149" stroke="#697695" stroke-width="2" stroke-miterlimit="10"/>
<path d="M491.815 328.884C492.248 321.515 495.571 308.944 495.86 304.465C496.294 299.986 494.994 306.344 494.705 286.982C494.56 267.476 492.826 236.844 489.647 223.117C486.469 209.39 487.336 206.645 485.891 201.732" stroke="#697695" stroke-width="2" stroke-miterlimit="10"/>
<path d="M597.726 228.897C594.548 224.129 590.935 215.749 590.502 193.497C590.068 171.245 583.422 165.899 582.988 150.583C582.555 135.267 571.574 130.355 569.695 113.594" stroke="#697695" stroke-width="2" stroke-miterlimit="10"/>
<path d="M636.74 223.406C636.884 217.915 637.029 190.173 634.139 173.557C631.249 156.94 628.359 150.583 624.891 143.213C621.279 135.7 615.21 124.285 613.477 117.639" stroke="#697695" stroke-width="2" stroke-miterlimit="10"/>
<g opacity="0.5">
<path d="M453.092 182.805C454.392 183.094 455.548 183.816 456.704 184.683C457.715 185.695 458.438 186.85 458.871 188.151C459.594 190.752 460.316 193.208 460.75 195.953C461.183 198.554 461.617 201.299 461.328 204.045C461.328 204.767 461.039 205.49 460.894 206.068C460.605 206.79 460.172 207.368 459.594 207.802C458.438 208.813 456.993 208.957 455.693 208.524C456.993 208.669 458.293 208.235 459.16 207.224C460.027 206.357 460.172 205.056 460.172 203.756C460.172 201.155 459.738 198.554 459.305 196.098C458.871 193.497 458.293 190.896 457.716 188.44C457.282 186.128 455.548 183.961 453.092 182.805Z" fill="#B1BBD0"/>
</g>
<path opacity="0.33" d="M334.531 429.28C338.33 422.667 360.139 384.676 381.949 369.057C403.759 353.438 405.025 348.233 417.126 340.352C429.226 332.614 437.668 325.719 438.653 299.829C439.638 273.94 446.815 257.476 445.549 253.396C446.815 251.004 447.378 239.184 446.392 237.778C446.955 236.089 447.096 229.335 446.252 222.863C445.407 216.39 446.815 210.059 445.689 207.947C445.97 204.571 454.132 182.057 452.303 173.474C442.593 165.736 427.538 174.178 418.251 186.279C408.964 198.379 400.522 219.204 404.884 234.682C400.1 237.918 399.96 249.316 398.271 255.366C396.582 261.416 394.612 266.763 395.878 267.748C393.627 268.311 387.999 277.457 386.733 281.115C383.919 279.005 362.39 274.502 351.837 278.441C352.822 269.014 351.275 246.923 367.738 204.289C384.2 161.655 386.733 148.429 386.029 136.047C385.185 123.664 383.356 117.051 377.587 111.563C371.818 106.075 360.42 105.654 356.621 115.503C350.852 120.006 349.868 144.066 349.023 146.318C344.943 144.207 341.144 142.66 334.812 142.237C328.481 141.815 323.696 146.74 322.712 146.74C321.727 146.74 316.661 143.785 311.595 144.066C306.53 144.207 301.043 139.986 293.866 140.127C300.902 136.187 313.987 121.976 308.36 112.689C310.47 103.825 296.258 103.261 292.319 104.809C288.379 106.358 281.766 111.704 279.937 114.377C277.263 113.815 272.056 112.971 256.017 126.619C252.076 118.458 245.745 113.815 240.257 112.267C234.769 110.719 227.875 110.86 227.03 115.503C226.186 120.146 227.312 128.73 223.372 139.986C219.432 151.384 218.307 155.042 215.774 163.485C213.382 171.927 212.96 181.776 210.568 189.093C208.176 196.409 207.894 205.133 207.894 205.133C207.894 205.133 201.844 207.103 198.326 220.189C194.808 233.275 197.341 237.637 191.291 251.989C185.24 266.341 182.286 274.08 182.004 286.04C181.723 298 194.808 317.558 196.497 322.905C198.186 328.252 205.784 355.689 207.613 358.504C209.442 361.318 215.774 373.982 208.176 400.434C200.577 426.747 197.482 429.28 197.482 429.28H334.531Z" fill="#445272"/>
<path d="M334.531 429.281C338.33 422.668 360.139 384.677 381.949 369.058C403.759 353.44 405.025 348.234 417.126 340.354C429.226 332.616 437.668 325.721 438.653 299.831C439.638 273.94 446.815 257.478 445.549 253.398C446.815 251.005 447.378 239.186 446.392 237.779C446.955 236.091 447.096 229.337 446.252 222.864C445.407 216.392 446.815 210.06 445.689 207.949C445.97 204.573 454.132 182.059 452.303 173.476C442.593 165.737 427.538 174.18 418.251 186.28C408.964 198.381 400.522 219.206 404.884 234.683C400.1 237.92 399.96 249.318 398.271 255.368C396.582 261.418 394.612 266.765 395.878 267.75C393.627 268.312 387.999 277.458 386.733 281.117C383.919 279.007 362.39 274.504 351.837 278.443C352.822 269.016 351.275 246.925 367.738 204.291C384.2 161.656 386.733 148.431 386.029 136.048C385.185 123.666 383.356 117.053 377.587 111.565C371.818 106.077 360.42 105.656 356.621 115.505C350.852 120.008 350.008 143.928 348.883 146.179C344.802 144.068 341.144 142.52 334.812 142.099C328.481 141.677 323.696 146.601 322.712 146.601C321.727 146.601 316.661 143.647 311.595 143.928C306.53 144.068 301.043 139.848 293.866 139.988C300.902 136.048 313.987 121.837 308.36 112.55C310.47 103.686 296.258 103.123 292.319 104.671C288.379 106.218 281.766 111.565 279.937 114.239C277.263 113.676 272.056 112.831 256.017 126.48C252.076 118.319 245.745 113.676 240.257 112.127C234.769 110.58 227.875 110.721 227.03 115.364C226.186 120.008 227.312 128.591 223.372 139.848C219.432 151.245 218.307 154.902 215.774 163.345C213.382 171.788 212.96 181.637 210.568 188.954C208.176 196.271 207.894 204.994 207.894 204.994C207.894 204.994 201.844 206.964 198.326 220.05C194.808 233.136 197.341 237.498 191.291 251.85C185.24 266.202 182.286 273.94 182.004 285.901C181.723 297.861 194.808 317.419 196.497 322.766C198.186 328.113 205.784 355.551 207.613 358.365C209.442 361.179 215.774 373.842 208.176 400.296C200.577 426.608 197.482 429.14 197.482 429.14" stroke="#697695" stroke-width="2" stroke-miterlimit="10"/>
<path d="M346.349 145.054C342.268 142.943 341.002 142.521 334.53 142.099C328.197 141.676 323.413 146.602 322.428 146.602C321.444 146.602 316.378 143.647 311.313 143.928C306.247 144.069 300.759 139.848 293.584 139.989C286.407 140.129 277.684 136.049 265.161 164.33C252.638 192.613 252.075 213.156 247.01 223.427C241.945 233.699 233.783 238.061 233.783 238.061" stroke="#BA6DCD" stroke-width="3" stroke-miterlimit="10" stroke-linecap="round"/>
<path d="M199.03 255.367C202.126 250.02 204.94 240.874 206.207 234.683C207.473 228.492 206.769 211.044 207.332 205.135" stroke="#697695" stroke-width="2" stroke-miterlimit="10"/>
<path d="M305.545 218.359C306.249 212.45 309.485 203.022 313.143 198.519C316.802 194.017 323.133 178.821 323.415 171.645" stroke="#BA6DCD" stroke-width="3" stroke-miterlimit="10" stroke-linecap="round"/>
<path d="M216.196 160.813C217.604 156.31 229.282 150.26 231.814 147.868C234.207 145.476 245.604 131.405 255.876 126.48" stroke="#697695" stroke-width="2" stroke-miterlimit="10"/>
<path d="M288.801 242.563C293.023 239.609 304.56 229.337 310.329 211.607C316.239 194.019 324.4 183.185 326.37 179.527C328.48 175.728 334.672 164.471 339.315 160.813C343.958 157.154 349.165 146.882 349.165 143.225" stroke="#697695" stroke-width="2" stroke-miterlimit="10"/>
<g opacity="0.5">
<path d="M325.246 148.852C326.793 148.571 328.482 148.711 330.03 148.852C331.577 148.993 333.266 149.274 334.814 149.415L339.458 150.259C340.02 150.4 340.864 150.119 341.568 149.696C342.272 149.415 342.975 148.993 343.678 148.711C343.115 149.274 342.553 149.837 341.849 150.259C341.145 150.681 340.442 151.244 339.458 151.244C337.769 151.244 336.221 150.963 334.674 150.681C333.125 150.4 331.577 150.119 330.03 149.696L325.246 148.852Z" fill="#B1BBD0"/>
</g>
</svg>
