<svg width="900" height="500" viewBox="0 0 900 500" fill="none" xmlns="http://www.w3.org/2000/svg">
<path opacity="0.33" d="M350.977 429.161C356.313 422.383 372.176 398.876 377.224 391.088C382.271 383.301 393.664 356.765 398.423 350.708C403.182 344.651 408.951 337.008 406.355 319.125C403.904 301.243 401.74 295.042 403.183 269.516C404.625 243.99 400.154 238.942 394.241 226.684C393.087 219.329 391.213 217.31 388.473 215.147C388.905 210.099 391.501 190.053 393.087 179.814C394.818 169.575 391.357 172.748 393.087 150.971C394.818 129.195 388.905 113.764 385.156 109.293C384.579 104.967 380.397 100.063 372.753 98.4771C365.254 96.7465 358.332 103.669 358.332 106.697C355.88 107.563 348.093 118.234 351.986 153.134C343.478 173.469 338.142 194.38 336.988 201.446C335.69 208.513 329.921 240.384 327.614 239.086C325.307 237.788 334.536 207.359 337.276 188.467C340.016 169.575 342.901 156.451 344.631 147.51C346.362 138.569 346.506 109.293 336.7 105.688C334.392 98.3329 327.326 96.4581 320.836 96.0254C314.346 95.5928 308.866 100.784 308.722 103.813C305.838 104.823 302.809 118.811 304.107 138.28C297.617 145.203 288.82 167.123 279.014 215.291C279.014 215.291 282.186 168.421 288.243 149.241C294.445 130.06 298.915 122.561 295.31 111.889C297.041 106.842 292.281 103.092 285.792 101.073C279.302 99.0539 271.947 102.515 270.505 106.553C265.313 107.418 256.66 122.849 252.911 135.108C245.989 147.366 237.768 168.998 234.596 181.256C231.423 193.514 229.981 238.365 228.106 241.394C226.231 244.422 222.914 244.711 220.318 241.826C217.723 238.942 217.001 238.077 216.28 232.741C215.559 227.261 214.261 217.743 212.675 210.676C211.233 203.609 209.502 189.621 210.079 184.429C210.656 179.237 217.29 170.007 216.569 157.893C215.848 145.779 208.204 141.165 206.185 139.578C204.166 138.136 201.859 134.675 194.937 136.55C188.014 138.425 184.697 154.288 184.697 154.288C184.697 154.288 175.9 171.45 174.458 175.343C173.016 179.237 173.304 183.996 171.862 190.342C170.42 196.687 172.295 203.033 170.132 209.378C168.113 215.724 168.978 226.107 171.285 234.76C173.593 243.413 171.862 243.845 173.737 250.479C175.612 256.969 179.361 265.91 180.659 272.111C181.957 278.313 181.525 292.013 182.39 302.685C183.255 313.357 188.159 319.27 189.456 333.258C190.754 347.247 193.494 386.185 195.369 397.434C197.244 408.683 198.398 412.144 192.773 429.45H350.977V429.161Z" fill="#445272"/>
<path d="M350.977 429.161C356.313 422.383 372.176 398.876 377.224 391.088C382.271 383.301 393.664 356.765 398.423 350.708C403.182 344.651 408.951 337.008 406.355 319.125C403.904 301.243 401.74 295.042 403.183 269.516C404.625 243.99 400.154 238.942 394.241 226.684C393.087 219.329 391.213 217.31 388.473 215.147C388.905 210.099 391.501 190.053 393.087 179.814C394.818 169.575 391.357 172.748 393.087 150.971C394.818 129.195 388.905 113.764 385.156 109.293C384.579 104.967 380.397 100.063 372.753 98.4771C365.254 96.7465 358.332 103.669 358.332 106.697C355.88 107.563 348.093 118.234 351.986 153.134C343.478 173.469 338.142 194.38 336.988 201.446C335.69 208.513 329.921 240.384 327.614 239.086C325.307 237.788 334.536 207.359 337.276 188.467C340.016 169.575 342.901 156.451 344.631 147.51C346.362 138.569 346.506 109.293 336.7 105.688C334.392 98.3329 327.326 96.4581 320.836 96.0254C314.346 95.5928 308.866 100.784 308.722 103.813C305.838 104.823 302.809 118.811 304.107 138.28C297.617 145.203 288.82 167.123 279.014 215.291C279.014 215.291 282.186 168.421 288.243 149.241C294.445 130.06 298.915 122.561 295.31 111.889C297.041 106.842 292.281 103.092 285.792 101.073C279.302 99.0539 271.947 102.515 270.505 106.553C265.313 107.418 256.66 122.849 252.911 135.108C245.989 147.366 237.768 168.998 234.596 181.256C231.423 193.514 229.981 238.365 228.106 241.394C226.231 244.422 222.914 244.711 220.318 241.826C217.723 238.942 217.001 238.077 216.28 232.741C215.559 227.261 214.261 217.743 212.675 210.676C211.233 203.609 209.502 189.621 210.079 184.429C210.656 179.237 217.29 170.007 216.569 157.893C215.848 145.779 208.204 141.165 206.185 139.578C204.166 138.136 201.859 134.675 194.937 136.55C188.014 138.425 184.697 154.288 184.697 154.288C184.697 154.288 175.9 171.45 174.458 175.343C173.016 179.237 173.304 183.996 171.862 190.342C170.42 196.687 172.295 203.033 170.132 209.378C168.113 215.724 168.978 226.107 171.285 234.76C173.593 243.413 171.862 243.845 173.737 250.479C175.612 256.969 179.361 265.91 180.659 272.111C181.957 278.313 181.525 292.013 182.39 302.685C183.255 313.357 188.159 319.27 189.456 333.258C190.754 347.247 193.494 386.185 195.369 397.434C197.244 408.683 198.398 412.144 192.773 429.45" stroke="#697695" stroke-width="2" stroke-miterlimit="10"/>
<path d="M220.463 241.539C217.867 238.511 217.146 237.789 216.425 232.454C215.704 226.973 214.406 217.455 212.82 210.389C211.377 203.322 209.647 189.333 210.224 184.142C210.801 178.95 217.434 169.72 216.713 157.606C215.992 145.492 208.349 140.877 206.33 139.291C204.311 137.849 202.003 134.388 195.081 136.262C188.159 138.137 184.842 154.001 184.842 154.001C184.842 154.001 176.045 171.162 174.603 175.056C173.161 178.95 173.449 183.709 172.007 190.054C170.565 196.4 172.439 202.745 170.276 209.091C168.257 215.436 169.123 225.82 171.43 234.473C173.737 243.125 172.007 243.558 173.882 250.192C175.756 256.682 179.506 265.623 180.804 271.824" stroke="#BA6DCD" stroke-width="3" stroke-miterlimit="10" stroke-linecap="round"/>
<g opacity="0.5">
<path d="M188.16 155.298C189.891 154.865 191.766 154.865 193.496 154.433C195.227 154 196.669 153.279 197.967 152.125C199.265 151.116 200.563 149.818 201.716 148.376C202.293 147.655 202.87 146.933 203.447 146.357C204.024 145.636 204.456 144.914 205.177 144.193C204.889 145.059 204.456 145.924 204.024 146.789C203.591 147.655 203.158 148.376 202.582 149.241C201.572 150.827 200.274 152.269 198.832 153.423C197.39 154.577 195.515 155.442 193.64 155.586C191.766 155.875 190.035 155.298 188.16 155.298Z" fill="#B1BBD0"/>
</g>
<path d="M378.81 291.581C378.522 280.909 377.079 261.007 378.81 249.037C380.541 237.212 388.617 215.291 388.617 215.291" stroke="#697695" stroke-width="2" stroke-miterlimit="10"/>
<path d="M271.658 238.798C274.687 232.164 278.436 222.79 279.013 215.146Z" fill="#445272"/>
<path d="M271.658 238.798C274.687 232.164 278.436 222.79 279.013 215.146" stroke="#697695" stroke-width="2" stroke-miterlimit="10"/>
<path opacity="0.33" d="M546.509 429.958C544.783 427.369 542.051 423.63 538.312 419.46C534.573 415.145 532.128 413.132 527.957 409.105C523.499 404.647 520.767 401.34 515.878 395.731C504.517 382.645 495.744 370.133 493.156 366.394C485.965 356.184 483.521 351.438 478.487 347.124C477.768 346.549 475.18 344.392 472.591 340.796C469.571 336.77 468.421 333.606 468.133 332.599C467.989 332.024 467.414 330.155 466.983 326.128C466.264 319.944 466.983 317.356 466.839 311.172C466.695 306.139 466.12 302.4 465.976 301.393C465.545 298.517 464.538 292.045 461.518 284.424C460.368 281.691 459.361 279.534 458.354 275.651C458.21 275.076 457.635 272.631 457.06 269.468C456.772 267.167 456.485 265.297 456.485 263.715C455.909 262.709 455.334 261.414 454.759 259.832C453.896 257.1 453.896 254.655 453.896 252.93C453.321 251.779 452.458 250.053 452.027 247.752C451.451 245.02 451.739 242.719 453.609 234.234C454.04 232.365 454.471 230.064 455.047 227.475C455.334 223.449 455.622 219.135 455.622 214.533C455.622 212.807 455.622 211.225 455.478 209.499C453.752 205.76 452.602 202.453 451.739 199.864C450.589 196.557 449.582 193.68 448.863 189.798C448.431 187.353 448.144 185.34 448 183.902C448.575 183.758 449.294 183.47 449.869 183.326C450.445 182.607 451.451 181.744 452.746 181.025C457.204 178.437 462.237 179.875 465.545 180.738C472.879 182.751 477.193 187.209 478.344 188.36C481.364 191.523 482.945 194.831 484.671 199.289C489.992 212.807 492.005 225.318 493.012 233.803C493.3 236.823 493.731 241.712 494.45 251.491C495.169 260.983 495.744 268.173 496.176 277.089C496.607 284.28 497.039 293.915 497.182 305.276C496.176 308.152 495.169 311.46 494.594 315.342C493.587 321.239 493.443 326.559 493.731 330.73C493.731 327.854 493.875 324.834 494.306 321.526C495.025 315.199 496.463 309.734 498.045 305.276C497.326 288.738 496.751 272.2 496.032 255.662C495.601 250.485 495.025 245.164 494.306 239.555C493.156 231.071 491.143 221.579 489.561 212.519C487.547 200.871 486.541 195.119 486.109 188.503C485.822 183.47 485.965 178.293 486.253 167.939C486.397 161.755 486.541 160.605 486.684 151.832C486.972 141.478 486.828 141.766 486.972 136.013C487.403 124.509 488.266 118.469 489.848 112.573C493.731 98.1917 501.928 94.4527 507.68 94.165C512.858 93.8774 516.597 96.1784 518.466 97.3288C526.088 102.075 528.101 109.984 528.389 111.566C528.82 113.292 528.82 114.73 528.964 115.161C529.539 125.371 528.677 147.806 528.245 155.571C529.252 158.16 530.546 162.043 531.984 166.644C536.011 179.875 537.736 189.941 538.887 197.276C541.188 210.506 543.633 225.031 546.796 242.575C543.057 217.984 539.175 193.249 535.435 168.658C533.422 147.374 531.265 126.234 529.252 104.951C529.396 103.8 529.827 102.075 530.834 100.205C532.991 95.8907 536.442 93.7336 537.593 93.1584C544.927 88.7003 552.98 91.2889 554.131 91.7203C556.432 92.4393 561.321 94.5965 564.485 99.3422C566.067 101.643 566.642 103.8 567.649 107.395C568.511 110.415 569.374 114.73 569.518 120.051C570.525 122.208 571.819 125.084 573.257 128.679C576.133 135.726 579.297 143.491 582.317 153.558C585.049 162.905 586.344 170.24 586.631 171.678C587.207 175.129 587.35 176.28 588.932 189.941C590.802 206.911 591.233 209.356 592.096 212.807C593.822 219.854 595.835 225.75 598.28 229.489C592.527 220.716 590.802 201.159 590.37 179.587C590.37 179.587 585.768 166.932 581.598 141.334C581.31 139.177 579.153 136.589 577.571 133.137C574.12 125.659 572.538 121.92 571.819 117.75C571.244 114.154 570.669 109.553 572.97 104.519C573.545 103.225 576.996 96.6098 584.33 95.0279C590.946 93.5898 596.41 97.0412 597.848 98.0479C600.437 99.7736 602.019 101.643 604.176 104.519C607.196 108.402 612.948 117.031 613.38 118.181L614.099 118.9C614.674 113.435 618.125 105.67 623.015 103.225C627.185 101.212 631.068 101.931 632.219 102.218C638.258 103.656 640.991 108.69 641.422 109.409C643.292 111.853 645.88 115.592 648.469 120.338C652.496 127.672 654.221 133.425 657.529 143.923C660.117 152.12 661.699 158.591 663.713 167.364C665.438 174.266 666.733 180.019 667.595 184.189C668.458 194.112 669.177 204.322 669.753 214.676C670.184 221.867 670.472 228.914 670.759 235.816C672.053 239.843 673.779 246.171 675.217 253.936C676.655 261.846 677.087 267.598 677.95 283.705C678.956 301.249 679.532 310.021 679.532 311.028C679.963 324.69 679.963 340.653 679.963 372.003C679.963 379.625 679.963 388.397 682.551 399.326C684.421 407.092 687.153 414.139 688.16 416.871C690.317 422.192 692.474 426.65 694.2 429.958C645.161 430.102 595.835 430.102 546.509 429.958Z" fill="#445272"/>
<path d="M546.797 242.575C543.058 217.984 539.175 193.249 535.436 168.658C533.422 147.374 531.265 126.234 529.252 104.951C529.396 103.8 529.827 102.075 530.834 100.205C532.991 95.8907 536.442 93.7336 537.593 93.1584C544.927 88.7003 552.98 91.2889 554.131 91.7203C556.432 92.4393 561.321 94.5965 564.485 99.3422C566.067 101.643 566.642 103.8 567.649 107.395C568.512 110.415 569.375 114.73 569.518 120.051C570.525 122.208 571.819 125.084 573.257 128.679C576.133 135.726 579.297 143.491 582.317 153.558C585.05 162.905 586.344 170.24 586.632 171.678C587.207 175.129 587.351 176.28 588.932 189.941C590.802 206.911 591.233 209.356 592.096 212.807C593.822 219.854 595.835 225.75 598.28 229.489C592.528 220.716 590.802 201.159 590.371 179.587C590.371 179.587 585.769 166.932 581.598 141.334C581.311 139.177 579.153 136.589 577.572 133.137C574.12 125.659 572.538 121.92 571.819 117.75C571.244 114.154 570.669 109.553 572.97 104.519C573.545 103.225 576.996 96.6098 584.331 95.0279C590.946 93.5898 596.41 97.0412 597.849 98.0479C600.437 99.7736 602.019 101.643 604.176 104.519C607.196 108.402 612.948 117.031 613.38 118.181L614.099 118.9C614.674 113.435 618.126 105.67 623.015 103.225C627.185 101.212 631.068 101.931 632.219 102.218C638.259 103.656 640.991 108.69 641.423 109.409C643.292 111.853 645.881 115.592 648.469 120.338C652.496 127.672 654.221 133.425 657.529 143.923C660.118 152.12 661.7 158.591 663.713 167.364C665.439 174.266 666.733 180.019 667.596 184.189C668.458 194.112 669.178 204.322 669.753 214.676C670.184 221.867 670.472 228.914 670.759 235.816C672.054 239.843 673.779 246.171 675.217 253.936C676.656 261.846 677.087 267.598 677.95 283.705C678.957 301.249 679.532 310.021 679.532 311.028C679.963 324.69 679.963 340.653 679.963 372.003C679.963 379.625 679.963 388.397 682.552 399.326C684.421 407.092 687.154 414.139 688.16 416.871C690.317 422.192 692.474 426.65 694.2 429.958" stroke="#697695" stroke-width="2" stroke-miterlimit="10"/>
<path d="M489.417 212.375C487.403 200.727 486.397 194.975 485.965 188.359C485.678 183.326 485.822 178.149 486.109 167.795C486.253 161.611 486.397 160.461 486.541 151.688C486.828 141.334 486.684 141.622 486.828 135.869C487.26 124.365 488.123 118.325 489.704 112.429C493.587 98.0478 499.483 94.7402 507.537 94.0212C512.714 93.5897 516.453 96.0345 518.322 97.1849C525.944 101.931 528.389 108.114 528.82 115.017C529.539 125.228 528.533 147.662 528.101 155.427C529.108 158.016 530.402 161.899 531.84 166.501C535.867 179.731 537.593 189.798 538.743 197.132C541.044 210.362 543.489 224.887 546.652 242.431" stroke="#BA6DCD" stroke-width="3" stroke-miterlimit="10" stroke-linecap="round"/>
<path d="M637.54 223.737C637.54 211.945 637.109 201.878 636.39 193.969C635.095 176.855 633.082 167.22 632.507 164.344C631.788 160.749 631.069 157.729 630.494 155.716C625.029 143.492 619.133 130.405 613.668 118.182" stroke="#697695" stroke-width="2" stroke-miterlimit="10"/>
<path d="M546.509 429.959C544.783 427.37 542.051 423.631 538.312 419.461C534.573 415.147 532.128 413.133 527.957 409.107C523.499 404.649 520.767 401.341 515.878 395.732C504.517 382.646 495.744 370.134 493.156 366.395C485.965 356.185 483.521 351.439 478.487 347.125C477.768 346.55 475.18 344.393 472.591 340.798C469.571 336.771 468.421 333.607 468.133 332.6C467.989 332.025 467.414 330.156 466.983 326.129C466.264 319.945 466.983 317.357 466.839 311.173C466.695 306.14 466.12 302.401 465.976 301.394C465.545 298.518 464.538 292.047 461.518 284.425C460.368 281.692 459.361 279.535 458.354 275.652C458.21 275.077 457.635 272.632 457.06 269.469C456.772 267.168 456.485 265.298 456.485 263.716C455.909 262.71 455.334 261.415 454.759 259.833C453.896 257.101 453.896 254.656 453.896 252.931C453.321 251.78 452.458 250.054 452.027 247.754C451.451 245.021 451.739 242.72 453.609 234.236C454.04 232.366 454.471 230.065 455.047 227.477C455.334 223.45 455.622 219.136 455.622 214.534C455.622 212.808 455.622 211.226 455.478 209.5C453.752 205.761 452.602 202.454 451.739 199.865C450.589 196.558 449.582 193.682 448.863 189.799C448.431 187.354 448.144 185.341 448 183.903C448.575 183.759 449.294 183.471 449.869 183.327C450.445 182.608 451.451 181.745 452.746 181.026C457.204 178.438 462.237 179.876 465.545 180.739C472.879 182.752 477.193 187.21 478.344 188.361C481.364 191.524 482.945 194.832 484.671 199.29C489.992 212.808 492.005 225.319 493.012 233.804C493.3 236.824 493.731 241.714 494.45 251.493C495.169 260.984 495.744 268.174 496.176 277.09C496.607 284.281 497.039 293.916 497.182 305.277C496.176 308.153 495.169 311.461 494.594 315.343C493.587 321.24 493.443 326.561 493.731 330.731C493.731 327.855 493.875 324.835 494.306 321.527C495.025 315.2 496.463 309.735 498.045 305.277C497.326 288.739 496.751 272.201 496.032 255.663C495.601 250.486 493.587 239.413 492.868 233.804" stroke="#697695" stroke-width="2" stroke-miterlimit="10"/>
<g opacity="0.5">
<path d="M496.749 105.527C496.749 106.965 496.893 108.547 497.325 109.841C497.612 110.56 497.9 111.136 498.331 111.567C498.763 111.999 499.338 112.286 500.057 112.574C502.789 113.149 505.809 113.005 508.686 113.005C511.562 112.861 514.582 112.574 517.458 112.142C518.177 111.998 518.752 111.855 519.04 111.279C519.471 110.848 519.759 110.129 520.046 109.41C520.622 108.116 520.909 106.534 521.053 105.096C521.197 106.534 521.053 108.116 520.765 109.554C520.622 110.273 520.334 110.992 519.903 111.711C519.615 111.998 519.327 112.43 518.896 112.574C518.465 112.861 518.177 112.861 517.746 113.005C514.869 113.724 511.849 114.156 508.829 114.299C507.391 114.299 505.809 114.443 504.371 114.299C502.933 114.156 501.351 114.012 499.913 113.437C499.194 113.149 498.331 112.718 497.9 111.999C497.325 111.279 497.037 110.56 497.037 109.841C496.462 108.547 496.462 106.965 496.749 105.527Z" fill="#B1BBD0"/>
</g>
<g opacity="0.5">
<path d="M458.641 208.779C459.648 208.204 460.655 207.485 461.086 206.335C461.517 205.328 461.086 204.178 460.942 203.027C460.798 202.452 460.798 201.877 460.655 201.158L460.511 200.295C460.511 200.151 460.511 200.007 460.511 199.863C460.511 199.72 460.511 199.72 460.511 199.576L459.792 195.981L459.216 192.385C459.073 191.235 458.785 189.941 458.354 189.078C457.347 187.208 455.334 185.482 453.32 184.332C455.621 185.051 457.922 186.202 459.36 188.502C459.936 189.653 460.223 190.947 460.511 192.098C460.798 193.248 460.942 194.542 461.23 195.693C461.374 196.843 461.661 197.994 461.805 199.288C461.805 199.432 461.805 199.72 461.805 199.863V200.295V201.158L461.949 202.883C461.949 203.459 462.093 204.034 462.093 204.753C462.093 205.328 461.949 206.047 461.661 206.766C460.942 207.917 459.792 208.636 458.641 208.779Z" fill="#B1BBD0"/>
</g>
</svg>
