<svg width="900" height="500" viewBox="0 0 900 500" fill="none" xmlns="http://www.w3.org/2000/svg">
<path opacity="0.33" d="M512.283 419.258C501.388 408.582 492.069 399.592 484.471 392.287C473.432 381.611 467.841 376.273 466.407 375.009C458.952 368.828 453.934 366.018 448.343 358.573C446.336 356.045 443.469 352.252 441.462 346.493C439.598 341.435 439.311 337.783 438.594 328.793C437.734 318.819 437.304 313.762 436.874 309.267C435.584 297.046 434.724 290.162 432.143 281.172C430.853 276.958 429.849 274.289 428.989 269.091C428.272 264.877 427.412 259.82 428.559 253.779C429.132 250.83 429.706 249.987 431.283 244.649C433.003 238.889 434.15 234.113 434.867 231.023C434.007 228.494 433.003 224.982 432 220.628C431.139 217.256 430.566 214.868 430.136 211.778C429.706 208.687 429.276 204.192 429.419 198.714C430.566 198.433 431.569 198.011 432.716 197.73C433.863 197.309 435.727 196.606 438.021 196.185C439.885 195.904 446.193 194.78 451.354 198.011C452.501 198.714 452.787 199.275 455.511 202.366C462.679 210.654 462.536 209.811 464.113 212.059C468.988 218.661 470.564 225.263 471.425 229.056C472.715 234.535 472.715 238.889 472.858 243.806C472.858 248.582 472.572 252.515 472.285 255.465C471.855 256.449 471.425 257.572 470.851 258.556C471.281 259.398 471.711 260.241 472.141 261.084C473.002 262.208 473.862 263.472 474.722 264.877C477.589 269.794 478.163 274.57 478.306 277.66C478.306 281.593 479.166 284.262 479.883 285.948C480.457 287.212 481.03 288.055 484.614 293.253C486.048 295.219 487.195 296.905 488.055 298.169C488.485 295.641 489.058 291.848 489.489 287.353C489.919 282.717 490.062 277.098 489.202 263.472C488.772 256.589 488.485 250.97 487.625 242.682C485.904 226.668 484.471 221.189 483.037 210.654C481.03 194.921 480.17 185.649 481.604 173.99C481.89 171.181 482.607 167.107 483.181 160.224C483.897 151.795 483.754 149.407 484.327 142.524C485.188 130.864 485.618 124.965 487.912 118.081C490.205 110.777 492.643 103.332 499.667 100.101C504.112 97.9935 508.556 98.4149 509.273 98.5554C514.864 99.2578 518.448 102.489 519.452 103.472C522.606 106.422 523.896 109.653 524.613 111.9C526.046 115.974 526.476 119.767 526.046 127.353C525.473 136.343 524.613 137.888 524.039 144.771C523.179 154.324 524.039 161.769 524.613 166.124C525.616 174.131 526.476 174.692 529.057 187.757C530.204 193.656 530.921 198.573 532.354 208.406C533.358 215.43 534.648 224.561 535.938 235.518C537.515 235.518 539.092 235.377 540.669 235.377C539.809 229.899 538.519 222.173 537.085 212.621C534.792 197.59 533.645 190.004 533.071 180.592C532.211 167.809 531.781 159.943 533.645 151.795C534.075 150.109 534.935 146.457 535.508 141.26C536.225 135.36 535.652 134.798 536.225 129.179C537.085 120.048 539.379 114.289 539.953 112.743C541.53 108.81 542.533 106.281 545.114 103.753C546.404 102.348 549.988 98.9768 555.723 98.134C561.314 97.4316 565.615 99.6792 566.905 100.522C571.493 103.051 573.643 106.843 574.36 108.248C575.937 111.058 576.224 113.446 576.797 116.817C577.514 121.874 577.371 125.807 577.227 127.212C576.941 133.814 577.371 140.417 577.371 146.879C577.227 159.24 578.804 170.338 580.955 185.93C582.245 195.764 584.252 207.704 587.263 221.189C589.7 222.032 592.28 222.875 594.718 223.718C596.295 219.785 598.302 213.885 599.449 206.58C600.452 199.697 600.309 194.499 599.879 185.649C599.305 173.288 597.872 164.016 597.442 161.769C595.865 151.936 594.718 145.333 591.85 136.624C590.56 132.691 588.696 127.774 587.836 120.61C587.263 115.272 587.549 111.76 588.84 108.529C589.7 106.281 590.99 102.91 594.431 100.803C600.596 97.1506 608.337 101.084 609.054 101.505C612.208 103.191 613.785 105.439 617.082 109.793C620.953 114.991 623.247 119.627 623.964 121.172C625.828 124.965 626.401 126.931 630.989 142.243C634.573 154.043 636.437 159.943 637.01 161.347C637.727 162.893 639.017 165.843 640.021 170.057C641.024 174.131 641.168 177.221 641.168 179.047C641.598 191.83 641.741 198.292 641.598 202.787C641.311 211.216 640.594 222.594 638.874 236.642C639.734 236.782 640.881 237.063 642.314 237.063C643.748 237.063 645.468 236.923 647.189 236.22C649.483 235.377 651.06 234.113 653.353 231.865C658.371 226.949 661.238 222.173 661.525 221.751C663.962 217.818 667.977 212.34 674.285 205.878C676.292 201.523 678.586 196.887 681.166 192.111C684.033 186.773 687.044 181.857 689.911 177.361C689.911 175.957 689.911 173.85 690.055 171.181C690.341 163.174 690.341 159.24 690.915 156.431C691.632 153.2 693.065 145.895 699.23 140.979C701.094 139.433 706.398 135.079 713.566 136.062C719.874 136.905 723.602 141.4 724.462 142.664C724.605 146.457 724.605 150.39 724.749 154.324C724.892 161.066 724.892 167.809 724.749 174.412C724.462 176.238 724.175 178.064 723.889 179.89C720.878 193.516 713.423 215.149 708.405 226.949C705.538 233.692 700.664 244.227 694.929 253.499C693.209 256.168 691.918 258.275 691.918 258.275C686.614 266.141 684.32 268.108 681.309 273.024C678.299 277.941 676.722 282.296 676.148 284.122C672.994 293.815 675.432 296.624 671.991 305.334C671.417 306.879 670.27 309.407 669.554 313.2C668.98 316.431 668.98 318.819 668.98 320.364C668.98 331.181 669.697 336.659 669.697 344.807C669.697 346.633 669.554 349.162 669.267 354.219C668.693 363.63 668.407 368.407 667.69 373.885C666.543 382.454 665.683 382.173 665.109 388.775C664.679 393.411 664.249 398.047 665.396 403.947C666.113 407.599 667.546 413.218 671.704 419.68C618.229 419.399 565.328 419.258 512.283 419.258Z" fill="#697695"/>
<path d="M512.283 419.258C501.388 408.582 492.069 399.592 484.471 392.287C473.432 381.611 467.841 376.273 466.407 375.009C458.952 368.828 453.934 366.018 448.343 358.573C446.336 356.045 443.469 352.252 441.462 346.493C439.598 341.435 439.311 337.783 438.594 328.793C437.734 318.819 437.304 313.762 436.874 309.267C435.584 297.046 434.724 290.162 432.143 281.172C430.853 276.958 429.849 274.289 428.989 269.091C428.272 264.877 427.412 259.82 428.559 253.779C429.132 250.83 429.706 249.987 431.283 244.649C433.003 238.889 434.15 234.113 434.867 231.023C434.007 228.494 433.003 224.982 432 220.628C431.139 217.256 430.566 214.868 430.136 211.778C429.706 208.687 429.276 204.192 429.419 198.714C430.566 198.433 431.569 198.011 432.716 197.73C433.863 197.309 435.727 196.606 438.021 196.185C439.885 195.904 446.193 194.78 451.354 198.011C452.501 198.714 452.787 199.275 455.511 202.366C462.679 210.654 462.536 209.811 464.113 212.059C468.988 218.661 470.564 225.263 471.425 229.056C472.715 234.535 472.715 238.889 472.858 243.806C472.858 248.582 472.572 252.515 472.285 255.465C471.855 256.449 471.425 257.572 470.851 258.556C471.281 259.398 471.711 260.241 472.141 261.084C473.002 262.208 473.862 263.472 474.722 264.877C477.589 269.794 478.163 274.57 478.306 277.66C478.306 281.593 479.166 284.262 479.883 285.948C480.457 287.212 481.03 288.055 484.614 293.253C486.048 295.219 487.195 296.905 488.055 298.169C488.485 295.641 489.058 291.848 489.489 287.353C489.919 282.717 490.062 277.098 489.202 263.472C488.772 256.589 488.485 250.97 487.625 242.682C485.904 226.668 484.471 221.189 483.037 210.654C481.03 194.921 480.17 185.649 481.604 173.99C481.89 171.181 482.607 167.107 483.181 160.224C483.897 151.795 483.754 149.407 484.327 142.524C485.188 130.864 485.618 124.965 487.912 118.081C490.205 110.777 492.643 103.332 499.667 100.101C504.112 97.9935 508.556 98.4149 509.273 98.5554C514.864 99.2578 518.448 102.489 519.452 103.472C522.606 106.422 523.896 109.653 524.613 111.9C526.046 115.974 526.476 119.767 526.046 127.353C525.473 136.343 524.613 137.888 524.039 144.771C523.179 154.324 524.039 161.769 524.613 166.124C525.616 174.131 526.476 174.692 529.057 187.757C530.204 193.656 530.921 198.573 532.354 208.406C533.358 215.43 534.648 224.561 535.938 235.518C537.515 235.518 539.092 235.377 540.669 235.377C539.809 229.899 538.519 222.173 537.085 212.621C534.792 197.59 533.645 190.004 533.071 180.592C532.211 167.809 531.781 159.943 533.645 151.795C534.075 150.109 534.935 146.457 535.508 141.26C536.225 135.36 535.652 134.798 536.225 129.179C537.085 120.048 539.379 114.289 539.953 112.743C541.53 108.81 542.533 106.281 545.114 103.753C546.404 102.348 549.988 98.9768 555.723 98.134C561.314 97.4316 565.615 99.6792 566.905 100.522C571.493 103.051 573.643 106.843 574.36 108.248C575.937 111.058 576.224 113.446 576.797 116.817C577.514 121.874 577.371 125.807 577.227 127.212C576.941 133.814 577.371 140.417 577.371 146.879C577.227 159.24 578.804 170.338 580.955 185.93C582.245 195.764 584.252 207.704 587.263 221.189C589.7 222.032 592.28 222.875 594.718 223.718C596.295 219.785 598.302 213.885 599.449 206.58C600.452 199.697 600.309 194.499 599.879 185.649C599.305 173.288 597.872 164.016 597.442 161.769C595.865 151.936 594.718 145.333 591.85 136.624C590.56 132.691 588.696 127.774 587.836 120.61C587.263 115.272 587.549 111.76 588.84 108.529C589.7 106.281 590.99 102.91 594.431 100.803C600.596 97.1506 608.337 101.084 609.054 101.505C612.208 103.191 613.785 105.439 617.082 109.793C620.953 114.991 623.247 119.627 623.964 121.172C625.828 124.965 626.401 126.931 630.989 142.243C634.573 154.043 636.436 159.943 637.01 161.347C637.727 162.893 639.017 165.843 640.021 170.057C641.024 174.131 641.168 177.221 641.168 179.047C641.598 191.83 641.741 198.292 641.598 202.787C641.311 211.216 640.594 222.594 638.874 236.642C639.734 236.782 640.881 237.063 642.314 237.063" stroke="#445272" stroke-width="2" stroke-miterlimit="10"/>
<path d="M681.167 272.744C678.156 277.661 676.579 282.015 676.006 283.842C672.852 293.534 675.289 296.344 671.848 305.053C671.275 306.598 670.128 309.127 669.411 312.92C668.838 316.151 668.838 318.539 668.838 320.084C668.838 330.901 669.554 336.379 669.554 344.527C669.554 346.353 669.411 348.881 669.124 353.938C668.551 363.35 668.264 368.126 667.547 373.605C666.4 382.174 665.54 381.893 664.967 388.495C664.537 393.131 664.107 397.766 665.254 403.666C665.97 407.319 667.404 412.937 671.562 419.399" stroke="#445272" stroke-width="2" stroke-miterlimit="10"/>
<path d="M642.458 236.783C643.892 236.783 645.612 236.642 647.332 235.94C649.626 235.097 651.203 233.833 653.497 231.585C658.515 226.669 661.382 221.892 661.669 221.471C664.106 217.538 668.12 212.059 674.428 205.597C676.435 201.243 678.729 196.607 681.31 191.831C684.177 186.493 687.188 181.576 690.055 177.081C690.055 175.676 690.055 173.569 690.198 170.9C690.485 162.893 690.485 158.96 691.058 156.15C691.775 152.92 693.209 145.615 699.373 140.698C701.237 139.153 706.542 134.798 713.71 135.782C720.018 136.625 723.745 141.12 724.606 142.384C724.749 146.177 724.749 150.11 724.892 154.043C725.036 160.786 725.036 167.529 724.892 174.131C724.606 175.957 724.319 177.783 724.032 179.61C721.021 193.236 713.567 214.869 708.549 226.669C705.681 233.411 700.807 243.947 695.073 253.218C693.352 255.887 692.062 257.994 692.062 257.994C686.757 265.861 684.464 267.828 681.453 272.744" stroke="#BA6DCD" stroke-width="3" stroke-miterlimit="10" stroke-linecap="round"/>
<g opacity="0.5">
<path d="M708.119 141.119C708.119 143.507 708.119 146.036 708.119 148.424C708.262 150.812 708.405 153.2 708.835 155.588C708.979 156.15 709.122 156.712 709.266 157.274C709.409 157.836 709.552 158.257 709.982 158.678C710.699 159.521 711.703 160.083 712.706 160.645C714.857 161.769 717.151 162.471 719.588 162.752C717.151 163.033 714.57 162.612 712.133 161.628C710.986 161.207 709.839 160.505 708.835 159.521C708.405 159.1 707.975 158.257 707.832 157.695C707.689 157.133 707.545 156.431 707.402 155.869C706.972 153.481 706.828 150.952 706.972 148.564C707.115 145.895 707.545 143.367 708.119 141.119Z" fill="#B1BBD0"/>
</g>
<g opacity="0.5">
<path d="M439.024 228.214C440.027 227.371 440.601 226.388 440.887 225.264C441.174 224.14 441.174 223.016 441.174 221.893C441.174 220.769 441.031 219.505 440.887 218.381L440.6 214.869C440.457 212.481 440.314 210.093 439.74 207.845C439.454 206.721 439.167 205.598 438.593 204.474C438.163 203.491 437.447 202.507 436.156 201.945C437.447 202.086 438.45 203.069 439.167 204.052C439.884 205.176 440.314 206.3 440.744 207.424C441.461 209.812 441.747 212.2 441.891 214.588C442.034 216.976 442.321 219.364 442.178 221.893C442.178 223.157 441.891 224.421 441.461 225.545C441.031 226.669 440.17 227.652 439.024 228.214Z" fill="#B1BBD0"/>
</g>
<path opacity="0.33" d="M298.78 427.927C305.287 420.005 306.702 413.073 314.2 410.102C321.698 407.131 332.026 397.652 337.543 391.286C343.06 384.779 370.789 352.099 378.145 345.732C385.502 339.366 390.595 331.868 392.009 327.907C393.566 323.946 393.99 311.496 395.971 302.159C397.951 292.681 398.517 288.295 402.761 275.845C407.005 263.396 411.533 251.937 408.562 250.098C410.259 248.541 409.835 240.619 409.552 238.355C409.269 235.95 408.703 219.54 409.269 218.408C409.835 217.276 413.513 210.203 415.211 204.402C416.909 198.46 417.616 188.274 416.626 186.718C415.635 185.021 398.942 176.957 382.531 199.026C366.262 221.096 363.291 235.809 365.413 244.014C359.895 247.693 361.452 256.322 357.915 263.113C354.378 269.904 354.802 275.987 354.802 275.987C354.802 275.987 348.578 280.231 346.314 286.597C343.909 292.963 347.446 262.83 349.851 250.239C352.256 237.648 355.085 229.443 361.452 216.427C367.676 203.553 374.467 182.616 375.74 175.542C377.013 168.468 375.74 160.97 382.531 146.682C389.322 132.393 389.039 112.587 383.521 103.533C378.004 94.3373 366.403 93.7714 360.744 100.279C355.085 106.787 351.69 110.465 347.446 124.471C343.202 138.476 343.06 141.306 332.308 160.405C321.557 179.503 307.268 220.106 305.853 221.803C304.439 223.501 300.194 223.642 299.063 221.52C297.931 219.398 297.082 212.042 299.063 205.251C301.043 198.46 305.429 187.85 308.117 172.147C310.805 156.443 311.371 151.775 317.595 138.901C323.82 126.027 323.679 115.982 324.81 113.012C325.942 110.182 336.977 82.5952 325.942 69.7212C326.084 64.6283 308.541 60.2426 303.165 65.4771C297.931 70.7115 295.101 79.7657 294.253 82.4537C293.404 85.1416 289.867 92.7811 288.169 101.977C281.803 101.552 273.315 107.919 271.193 110.182C267.231 109.475 261.714 110.324 259.309 112.446C256.904 114.426 253.792 115.7 253.226 116.124C252.66 116.548 250.821 111.738 248.133 110.465C245.586 109.05 241.059 108.343 235.4 113.86C229.742 119.378 228.751 122.49 221.395 128.573C214.038 134.657 199.042 161.253 195.505 172.288C191.827 183.464 190.695 173.986 184.895 198.602C179.095 223.359 181.217 235.95 177.256 245.57C173.294 255.191 168.767 267.357 168.626 282.778C168.484 298.198 170.323 325.219 170.182 341.488C170.04 357.758 174.002 366.812 162.825 394.116C151.649 421.561 145 428.069 145 428.069H298.78V427.927Z" fill="#697695"/>
<path d="M298.78 427.927C305.287 420.005 306.702 413.073 314.2 410.102C321.698 407.131 332.026 397.652 337.543 391.286C343.06 384.779 370.789 352.099 378.145 345.732C385.502 339.366 390.595 331.868 392.009 327.907C393.566 323.946 393.99 311.496 395.971 302.159C397.951 292.681 398.517 288.295 402.761 275.845C407.005 263.396 411.533 251.937 408.562 250.098C410.259 248.541 409.835 240.619 409.552 238.355C409.269 235.95 408.703 219.54 409.269 218.408C409.835 217.276 413.513 210.203 415.211 204.402C416.909 198.46 417.616 188.274 416.626 186.718C415.635 185.021 398.942 176.957 382.531 199.026C366.262 221.096 363.291 235.809 365.413 244.014C359.895 247.693 361.452 256.322 357.915 263.113C354.378 269.904 354.802 275.987 354.802 275.987C354.802 275.987 348.578 280.231 346.314 286.597C343.909 292.963 347.446 262.83 349.851 250.239C352.256 237.648 355.085 229.443 361.452 216.427C367.676 203.553 374.467 182.616 375.74 175.542C377.013 168.468 375.74 160.97 382.531 146.682C389.322 132.393 389.039 112.587 383.521 103.533C378.004 94.3373 366.403 93.7714 360.744 100.279C355.085 106.787 351.69 110.465 347.446 124.471C343.202 138.476 343.06 141.306 332.308 160.405C321.557 179.503 307.268 220.106 305.853 221.803C304.439 223.501 300.194 223.642 299.063 221.52C297.931 219.398 297.082 212.042 299.063 205.251C301.043 198.46 305.429 187.85 308.117 172.147C310.805 156.443 311.371 151.775 317.595 138.901C323.82 126.027 323.679 115.982 324.81 113.012C325.942 110.182 336.977 82.5952 325.942 69.7212C326.084 64.6283 308.541 60.2426 303.165 65.4771C297.931 70.7115 295.101 79.7657 294.253 82.4537C293.404 85.1416 289.867 92.7811 288.169 101.977C281.803 101.552 273.315 107.919 271.193 110.182C267.231 109.475 261.714 110.324 259.309 112.446C256.904 114.426 253.792 115.7 253.226 116.124C252.66 116.548 250.821 111.738 248.133 110.465C245.586 109.05 241.059 108.343 235.4 113.86C229.742 119.378 228.751 122.49 221.395 128.573C214.038 134.657 199.042 161.253 195.505 172.288C191.827 183.464 190.695 173.986 184.895 198.602C179.095 223.359 181.217 235.95 177.256 245.57C173.294 255.191 168.767 267.357 168.626 282.778C168.484 298.198 170.323 325.219 170.182 341.488C170.04 357.758 174.002 366.812 162.825 394.116C151.649 421.561 145 428.069 145 428.069" stroke="#445272" stroke-width="2" stroke-miterlimit="10"/>
<path d="M197.062 224.068C202.155 215.579 202.155 210.769 202.155 205.818C202.155 200.866 202.155 190.397 204.277 184.031C206.399 177.665 206.116 172.148 207.389 166.489C208.662 160.971 209.511 156.727 220.687 146.4C231.864 136.072 232.146 128.291 252.943 115.842" stroke="#445272" stroke-width="2" stroke-miterlimit="10"/>
<path d="M233.137 234.537C239.503 227.887 243.747 213.316 248.557 195.773C253.367 178.231 257.045 159.981 260.158 154.464C260.158 151.634 263.27 141.59 272.041 128.857C280.954 116.125 287.745 101.836 287.745 101.836C289.584 92.499 292.979 84.8595 293.828 82.3131C294.677 79.6251 297.506 70.5709 302.741 65.3365C307.975 60.102 325.659 64.4876 325.518 69.5806C336.552 82.4545 325.518 110.042 324.386 112.871C323.254 115.7 323.537 125.745 317.171 138.76C310.946 151.634 310.239 156.303 307.692 172.006C305.004 187.709 300.619 198.32 298.638 205.11C296.657 211.901 297.506 219.258 298.638 221.38" stroke="#BA6DCD" stroke-width="3" stroke-miterlimit="10" stroke-linecap="round"/>
<g opacity="0.5">
<path d="M413.513 188.418C411.957 188.701 410.542 189.408 409.411 190.257C408.137 191.106 407.147 192.238 406.157 193.369C404.176 195.633 402.62 198.321 401.347 201.009C400.639 202.424 400.215 203.838 399.791 205.253C399.508 206.668 399.508 208.083 399.791 209.639C400.073 211.053 400.781 212.468 401.63 213.741C402.479 215.015 403.469 216.146 404.601 217.137C401.913 215.581 399.649 213.034 398.8 209.922C398.376 208.365 398.234 206.668 398.517 205.112C398.8 203.555 399.366 201.999 400.074 200.585C401.347 197.755 403.186 195.067 405.308 192.804C406.44 191.672 407.713 190.682 408.986 189.833C410.401 188.984 411.957 188.418 413.513 188.418Z" fill="#B1BBD0"/>
</g>
<g opacity="0.5">
<path d="M323.395 71.8457C322.83 74.3922 321.839 76.9387 320.425 79.2022C319.01 81.4658 317.029 83.4464 314.624 84.8611C313.492 85.5684 311.936 85.9929 310.663 86.1343C309.248 86.2758 307.975 86.1343 306.56 85.9929C303.872 85.7099 301.326 84.8611 298.921 83.8708C301.467 84.2952 304.155 84.7196 306.702 84.8611C309.248 85.0026 311.936 85.0025 313.917 83.5878C316.18 82.3146 318.02 80.6169 319.576 78.4949C320.99 76.6557 322.264 74.2507 323.395 71.8457Z" fill="#B1BBD0"/>
</g>
</svg>
