<svg width="900" height="500" viewBox="0 0 900 500" fill="none" xmlns="http://www.w3.org/2000/svg">
<path opacity="0.33" d="M512.283 419.258C501.388 408.582 492.069 399.592 484.471 392.287C473.432 381.611 467.841 376.273 466.407 375.009C458.952 368.828 453.934 366.018 448.343 358.573C446.336 356.045 443.469 352.252 441.462 346.493C439.598 341.435 439.311 337.783 438.594 328.793C437.734 318.819 437.304 313.762 436.874 309.267C435.584 297.046 434.724 290.162 432.143 281.172C430.853 276.958 429.849 274.289 428.989 269.091C428.272 264.877 427.412 259.82 428.559 253.779C429.132 250.83 429.706 249.987 431.283 244.649C433.003 238.889 434.15 234.113 434.867 231.023C434.007 228.494 433.003 224.982 432 220.628C431.139 217.256 430.566 214.868 430.136 211.778C429.706 208.687 429.276 204.192 429.419 198.714C430.566 198.433 431.569 198.011 432.716 197.73C433.863 197.309 435.727 196.606 438.021 196.185C439.885 195.904 446.193 194.78 451.354 198.011C452.501 198.714 452.787 199.275 455.511 202.366C462.679 210.654 462.536 209.811 464.113 212.059C468.988 218.661 470.564 225.263 471.425 229.056C472.715 234.535 472.715 238.889 472.858 243.806C472.858 248.582 472.572 252.515 472.285 255.465C471.855 256.449 471.425 257.572 470.851 258.556C471.281 259.398 471.711 260.241 472.141 261.084C473.002 262.208 473.862 263.472 474.722 264.877C477.589 269.794 478.163 274.57 478.306 277.66C478.306 281.593 479.166 284.262 479.883 285.948C480.457 287.212 481.03 288.055 484.614 293.253C486.048 295.219 487.195 296.905 488.055 298.169C488.485 295.641 489.058 291.848 489.489 287.353C489.919 282.717 490.062 277.098 489.202 263.472C488.772 256.589 488.485 250.97 487.625 242.682C485.904 226.668 484.471 221.189 483.037 210.654C481.03 194.921 480.17 185.649 481.604 173.99C481.89 171.181 482.607 167.107 483.181 160.224C483.897 151.795 483.754 149.407 484.327 142.524C485.188 130.864 485.618 124.965 487.912 118.081C490.205 110.777 492.643 103.332 499.667 100.101C504.112 97.9935 508.556 98.4149 509.273 98.5554C514.864 99.2578 518.448 102.489 519.452 103.472C522.606 106.422 523.896 109.653 524.613 111.9C526.046 115.974 526.476 119.767 526.046 127.353C525.473 136.343 524.613 137.888 524.039 144.771C523.179 154.324 524.039 161.769 524.613 166.124C525.616 174.131 526.476 174.692 529.057 187.757C530.204 193.656 530.921 198.573 532.354 208.406C533.358 215.43 534.648 224.561 535.938 235.518C537.515 235.518 539.092 235.377 540.669 235.377C539.809 229.899 538.519 222.173 537.085 212.621C534.792 197.59 533.645 190.004 533.071 180.592C532.211 167.809 531.781 159.943 533.645 151.795C534.075 150.109 534.935 146.457 535.508 141.26C536.225 135.36 535.652 134.798 536.225 129.179C537.085 120.048 539.379 114.289 539.953 112.743C541.53 108.81 542.533 106.281 545.114 103.753C546.404 102.348 549.988 98.9768 555.723 98.134C561.314 97.4316 565.615 99.6792 566.905 100.522C571.493 103.051 573.643 106.843 574.36 108.248C575.937 111.058 576.224 113.446 576.797 116.817C577.514 121.874 577.371 125.807 577.227 127.212C576.941 133.814 577.371 140.417 577.371 146.879C577.227 159.24 578.804 170.338 580.955 185.93C582.245 195.764 584.252 207.704 587.263 221.189C589.7 222.032 592.28 222.875 594.718 223.718C596.295 219.785 598.302 213.885 599.449 206.58C600.452 199.697 600.309 194.499 599.879 185.649C599.305 173.288 597.872 164.016 597.442 161.769C595.865 151.936 594.718 145.333 591.85 136.624C590.56 132.691 588.696 127.774 587.836 120.61C587.263 115.272 587.549 111.76 588.84 108.529C589.7 106.281 590.99 102.91 594.431 100.803C600.596 97.1506 608.337 101.084 609.054 101.505C612.208 103.191 613.785 105.439 617.082 109.793C620.953 114.991 623.247 119.627 623.964 121.172C625.828 124.965 626.401 126.931 630.989 142.243C634.573 154.043 636.437 159.943 637.01 161.347C637.727 162.893 639.017 165.843 640.021 170.057C641.024 174.131 641.168 177.221 641.168 179.047C641.598 191.83 641.741 198.292 641.598 202.787C641.311 211.216 640.594 222.594 638.874 236.642C639.734 236.782 640.881 237.063 642.314 237.063C643.748 237.063 645.468 236.923 647.189 236.22C649.483 235.377 651.06 234.113 653.353 231.865C658.371 226.949 661.238 222.173 661.525 221.751C663.962 217.818 667.977 212.34 674.285 205.878C676.292 201.523 678.586 196.887 681.166 192.111C684.033 186.773 687.044 181.857 689.911 177.361C689.911 175.957 689.911 173.85 690.055 171.181C690.341 163.174 690.341 159.24 690.915 156.431C691.632 153.2 693.065 145.895 699.23 140.979C701.094 139.433 706.398 135.079 713.566 136.062C719.874 136.905 723.602 141.4 724.462 142.664C724.605 146.457 724.605 150.39 724.749 154.324C724.892 161.066 724.892 167.809 724.749 174.412C724.462 176.238 724.175 178.064 723.889 179.89C720.878 193.516 713.423 215.149 708.405 226.949C705.538 233.692 700.664 244.227 694.929 253.499C693.209 256.168 691.918 258.275 691.918 258.275C686.614 266.141 684.32 268.108 681.309 273.024C678.299 277.941 676.722 282.296 676.148 284.122C672.994 293.815 675.432 296.624 671.991 305.334C671.417 306.879 670.27 309.407 669.554 313.2C668.98 316.431 668.98 318.819 668.98 320.364C668.98 331.181 669.697 336.659 669.697 344.807C669.697 346.633 669.554 349.162 669.267 354.219C668.693 363.63 668.407 368.407 667.69 373.885C666.543 382.454 665.683 382.173 665.109 388.775C664.679 393.411 664.249 398.047 665.396 403.947C666.113 407.599 667.546 413.218 671.704 419.68C618.229 419.399 565.328 419.258 512.283 419.258Z" fill="#E0E1E2"/>
<path d="M512.283 419.258C501.388 408.582 492.069 399.592 484.471 392.287C473.432 381.611 467.841 376.273 466.407 375.009C458.952 368.828 453.934 366.018 448.343 358.573C446.336 356.045 443.469 352.252 441.462 346.493C439.598 341.435 439.311 337.783 438.594 328.793C437.734 318.819 437.304 313.762 436.874 309.267C435.584 297.046 434.724 290.162 432.143 281.172C430.853 276.958 429.849 274.289 428.989 269.091C428.272 264.877 427.412 259.82 428.559 253.779C429.132 250.83 429.706 249.987 431.283 244.649C433.003 238.889 434.15 234.113 434.867 231.023C434.007 228.494 433.003 224.982 432 220.628C431.139 217.256 430.566 214.868 430.136 211.778C429.706 208.687 429.276 204.192 429.419 198.714C430.566 198.433 431.569 198.011 432.716 197.73C433.863 197.309 435.727 196.606 438.021 196.185C439.885 195.904 446.193 194.78 451.354 198.011C452.501 198.714 452.787 199.275 455.511 202.366C462.679 210.654 462.536 209.811 464.113 212.059C468.988 218.661 470.564 225.263 471.425 229.056C472.715 234.535 472.715 238.889 472.858 243.806C472.858 248.582 472.572 252.515 472.285 255.465C471.855 256.449 471.425 257.572 470.851 258.556C471.281 259.398 471.711 260.241 472.141 261.084C473.002 262.208 473.862 263.472 474.722 264.877C477.589 269.794 478.163 274.57 478.306 277.66C478.306 281.593 479.166 284.262 479.883 285.948C480.457 287.212 481.03 288.055 484.614 293.253C486.048 295.219 487.195 296.905 488.055 298.169C488.485 295.641 489.058 291.848 489.489 287.353C489.919 282.717 490.062 277.098 489.202 263.472C488.772 256.589 488.485 250.97 487.625 242.682C485.904 226.668 484.471 221.189 483.037 210.654C481.03 194.921 480.17 185.649 481.604 173.99C481.89 171.181 482.607 167.107 483.181 160.224C483.897 151.795 483.754 149.407 484.327 142.524C485.188 130.864 485.618 124.965 487.912 118.081C490.205 110.777 492.643 103.332 499.667 100.101C504.112 97.9935 508.556 98.4149 509.273 98.5554C514.864 99.2578 518.448 102.489 519.452 103.472C522.606 106.422 523.896 109.653 524.613 111.9C526.046 115.974 526.476 119.767 526.046 127.353C525.473 136.343 524.613 137.888 524.039 144.771C523.179 154.324 524.039 161.769 524.613 166.124C525.616 174.131 526.476 174.692 529.057 187.757C530.204 193.656 530.921 198.573 532.354 208.406C533.358 215.43 534.648 224.561 535.938 235.518C537.515 235.518 539.092 235.377 540.669 235.377C539.809 229.899 538.519 222.173 537.085 212.621C534.792 197.59 533.645 190.004 533.071 180.592C532.211 167.809 531.781 159.943 533.645 151.795C534.075 150.109 534.935 146.457 535.508 141.26C536.225 135.36 535.652 134.798 536.225 129.179C537.085 120.048 539.379 114.289 539.953 112.743C541.53 108.81 542.533 106.281 545.114 103.753C546.404 102.348 549.988 98.9768 555.723 98.134C561.314 97.4316 565.615 99.6792 566.905 100.522C571.493 103.051 573.643 106.843 574.36 108.248C575.937 111.058 576.224 113.446 576.797 116.817C577.514 121.874 577.371 125.807 577.227 127.212C576.941 133.814 577.371 140.417 577.371 146.879C577.227 159.24 578.804 170.338 580.955 185.93C582.245 195.764 584.252 207.704 587.263 221.189C589.7 222.032 592.28 222.875 594.718 223.718C596.295 219.785 598.302 213.885 599.449 206.58C600.452 199.697 600.309 194.499 599.879 185.649C599.305 173.288 597.872 164.016 597.442 161.769C595.865 151.936 594.718 145.333 591.85 136.624C590.56 132.691 588.696 127.774 587.836 120.61C587.263 115.272 587.549 111.76 588.84 108.529C589.7 106.281 590.99 102.91 594.431 100.803C600.596 97.1506 608.337 101.084 609.054 101.505C612.208 103.191 613.785 105.439 617.082 109.793C620.953 114.991 623.247 119.627 623.964 121.172C625.828 124.965 626.401 126.931 630.989 142.243C634.573 154.043 636.436 159.943 637.01 161.347C637.727 162.893 639.017 165.843 640.021 170.057C641.024 174.131 641.168 177.221 641.168 179.047C641.598 191.83 641.741 198.292 641.598 202.787C641.311 211.216 640.594 222.594 638.874 236.642C639.734 236.782 640.881 237.063 642.314 237.063" stroke="#75819C" stroke-width="2" stroke-miterlimit="10"/>
<path d="M681.167 272.744C678.156 277.661 676.579 282.015 676.006 283.842C672.852 293.534 675.289 296.344 671.848 305.053C671.275 306.598 670.128 309.127 669.411 312.92C668.838 316.151 668.838 318.539 668.838 320.084C668.838 330.901 669.554 336.379 669.554 344.527C669.554 346.353 669.411 348.881 669.124 353.938C668.551 363.35 668.264 368.126 667.547 373.605C666.4 382.174 665.54 381.893 664.967 388.495C664.537 393.131 664.107 397.766 665.254 403.666C665.97 407.319 667.404 412.937 671.562 419.399" stroke="#75819C" stroke-width="2" stroke-miterlimit="10"/>
<path d="M642.458 236.783C643.892 236.783 645.612 236.642 647.332 235.94C649.626 235.097 651.203 233.833 653.497 231.585C658.515 226.669 661.382 221.892 661.669 221.471C664.106 217.538 668.12 212.059 674.428 205.597C676.435 201.243 678.729 196.607 681.31 191.831C684.177 186.493 687.188 181.576 690.055 177.081C690.055 175.676 690.055 173.569 690.198 170.9C690.485 162.893 690.485 158.96 691.058 156.15C691.775 152.92 693.209 145.615 699.373 140.698C701.237 139.153 706.542 134.798 713.71 135.782C720.018 136.625 723.745 141.12 724.606 142.384C724.749 146.177 724.749 150.11 724.892 154.043C725.036 160.786 725.036 167.529 724.892 174.131C724.606 175.957 724.319 177.783 724.032 179.61C721.021 193.236 713.567 214.869 708.549 226.669C705.681 233.411 700.807 243.947 695.073 253.218C693.352 255.887 692.062 257.994 692.062 257.994C686.757 265.861 684.464 267.828 681.453 272.744" stroke="#F69AED" stroke-width="3" stroke-miterlimit="10" stroke-linecap="round"/>
<g opacity="0.5">
<path d="M708.119 141.119C708.119 143.507 708.119 146.036 708.119 148.424C708.262 150.812 708.405 153.2 708.835 155.588C708.979 156.15 709.122 156.712 709.266 157.274C709.409 157.836 709.552 158.257 709.982 158.678C710.699 159.521 711.703 160.083 712.706 160.645C714.857 161.769 717.151 162.471 719.588 162.752C717.151 163.033 714.57 162.612 712.133 161.628C710.986 161.207 709.839 160.505 708.835 159.521C708.405 159.1 707.975 158.257 707.832 157.695C707.689 157.133 707.545 156.431 707.402 155.869C706.972 153.481 706.828 150.952 706.972 148.564C707.115 145.895 707.545 143.367 708.119 141.119Z" fill="#75819C"/>
</g>
<g opacity="0.5">
<path d="M439.024 228.214C440.027 227.371 440.601 226.388 440.887 225.264C441.174 224.14 441.174 223.016 441.174 221.893C441.174 220.769 441.031 219.505 440.887 218.381L440.6 214.869C440.457 212.481 440.314 210.093 439.74 207.845C439.454 206.721 439.167 205.598 438.593 204.474C438.163 203.491 437.447 202.507 436.156 201.945C437.447 202.086 438.45 203.069 439.167 204.052C439.884 205.176 440.314 206.3 440.744 207.424C441.461 209.812 441.747 212.2 441.891 214.588C442.034 216.976 442.321 219.364 442.178 221.893C442.178 223.157 441.891 224.421 441.461 225.545C441.031 226.669 440.17 227.652 439.024 228.214Z" fill="#75819C"/>
</g>
<path opacity="0.33" d="M311.631 418.626C317.239 412.597 329.857 394.512 337.849 389.604C345.84 384.697 360.281 370.117 369.675 357.078C379.068 344.039 397.014 330.159 403.603 317.261C410.193 304.362 406.127 285.435 411.735 260.199C417.343 234.963 418.044 230.056 410.052 220.943C402.061 211.83 393.228 204.96 386.919 195.006C389.723 185.893 397.855 161.778 399.818 152.245C401.64 142.711 401.64 130.233 403.603 123.503C405.566 116.774 407.809 112.568 408.51 105.558C409.071 98.6879 411.034 72.3302 404.444 61.3945C397.855 50.4589 386.779 48.7764 377.666 59.5719C368.693 70.3674 368.413 92.3789 367.712 102.894C367.151 113.409 355.374 131.775 348.925 147.197C342.476 162.619 337.008 180.145 335.746 182.949C334.344 185.753 329.998 180.846 333.082 166.966C336.026 153.086 333.923 147.758 333.923 147.758C333.923 147.758 338.971 140.748 338.55 134.299C340.933 132.196 346.822 120.559 346.822 112.848C346.822 105.137 343.036 99.5291 340.232 98.5477C339.952 95.7437 339.391 93.5005 328.315 91.9583C317.239 90.4161 315.136 97.4261 315.136 97.4261C315.136 97.4261 305.883 96.1643 299.154 98.2673C294.807 96.8653 285.975 95.4633 279.105 101.772C275.179 100.37 269.571 105.137 269.571 105.137C269.571 105.137 262.561 104.296 256.953 107.801C254.71 104.997 246.718 100.09 241.391 102.053C236.063 104.016 234.381 106.539 232.558 107.661C230.736 108.782 215.874 111.446 213.351 113.549C210.827 115.652 192.04 147.618 190.358 153.086C188.675 158.554 191.199 197.67 191.479 204.68C191.76 211.69 188.956 234.402 189.236 245.618C189.517 256.694 190.778 274.079 189.236 297.493C187.554 320.906 191.9 341.375 188.255 354.134C184.61 366.892 180.403 382.594 164 419.047H311.631V418.626Z" fill="#E0E1E2"/>
<path d="M311.631 418.626C317.239 412.597 329.857 394.512 337.849 389.604C345.84 384.697 360.281 370.117 369.675 357.078C379.068 344.039 397.014 330.159 403.603 317.261C410.193 304.362 406.127 285.435 411.735 260.199C417.343 234.963 418.044 230.056 410.052 220.943C402.061 211.83 393.228 204.96 386.919 195.006C389.723 185.893 397.855 161.778 399.818 152.245C401.64 142.711 401.64 130.233 403.603 123.503C405.566 116.774 407.809 112.568 408.51 105.558C409.071 98.6879 411.034 72.3302 404.444 61.3945C397.855 50.4589 386.779 48.7764 377.666 59.5719C368.693 70.3674 368.413 92.3789 367.712 102.894C367.151 113.409 355.374 131.775 348.925 147.197C342.476 162.619 337.008 180.145 335.746 182.949C334.344 185.753 329.998 180.846 333.082 166.966C336.026 153.086 333.923 147.758 333.923 147.758C333.923 147.758 338.971 140.748 338.55 134.299C340.933 132.196 346.822 120.559 346.822 112.848C346.822 105.137 343.036 99.5291 340.232 98.5477C339.952 95.7437 339.391 93.5005 328.315 91.9583C317.239 90.4161 315.136 97.4261 315.136 97.4261C315.136 97.4261 305.883 96.1643 299.154 98.2673C294.807 96.8653 285.975 95.4633 279.105 101.772C275.179 100.37 269.571 105.137 269.571 105.137C269.571 105.137 262.561 104.296 256.953 107.801C254.71 104.997 246.718 100.09 241.391 102.053C236.063 104.016 234.381 106.539 232.558 107.661C230.736 108.782 215.874 111.446 213.351 113.549C210.827 115.652 192.04 147.618 190.358 153.086C188.675 158.554 191.199 197.67 191.479 204.68C191.76 211.69 188.956 234.402 189.236 245.618C189.517 256.694 190.778 274.079 189.236 297.493C187.554 320.906 191.9 341.375 188.255 354.134C184.61 366.892 180.403 382.594 164 419.047" stroke="#75819C" stroke-width="2" stroke-miterlimit="10"/>
<path d="M225.688 201.314C227.932 194.724 230.595 188.275 230.035 175.657C229.474 162.899 232.699 134.578 234.101 129.671C235.503 124.624 239.989 110.744 257.093 107.52" stroke="#75819C" stroke-width="2" stroke-miterlimit="10"/>
<path d="M266.767 193.743C271.814 189.678 274.478 185.752 275.739 180.845C277.141 176.078 281.347 136.822 283.871 125.045C286.395 113.268 288.638 102.192 299.153 97.9863" stroke="#75819C" stroke-width="2" stroke-miterlimit="10"/>
<path d="M381.312 279.826C379.489 275.06 378.368 271.695 375.704 268.19C375.704 263.143 375.984 230.756 380.19 215.194C384.396 199.632 397.856 161.637 399.819 151.963C401.641 142.43 401.641 129.952 403.604 123.222C405.567 116.493 407.81 112.287 408.511 105.277C409.072 98.4067 411.035 72.0489 404.445 61.1133C397.856 50.1776 386.78 48.4952 377.667 59.2907C368.694 70.0861 368.414 92.0976 367.713 102.613C367.152 113.128 355.375 131.494 348.926 146.916C342.476 162.338 337.009 179.863 335.747 182.667C333.223 189.677 329.718 194.584 327.896 196.127" stroke="#F69AED" stroke-width="3" stroke-miterlimit="10" stroke-linecap="round"/>
<g opacity="0.5">
<path d="M402.481 65.4597C402.061 68.9647 400.518 72.1893 398.556 75.1335C397.995 75.8345 397.434 76.5355 396.733 77.0963C396.593 77.2365 396.312 77.3767 396.172 77.5169C396.032 77.6571 395.752 77.7974 395.471 77.9376C395.051 78.218 394.35 78.2179 393.929 78.2179C392.106 78.2179 390.424 77.9375 388.742 77.6571C387.059 77.2365 385.377 76.8159 383.694 76.1149C382.853 75.6943 382.012 75.2737 381.311 74.7129C380.89 74.4325 380.61 74.0119 380.33 73.5913L380.049 72.8903C380.049 72.6099 379.909 72.4697 379.909 72.1893C379.348 68.5441 380.329 65.1793 381.311 61.8145C381.03 63.4969 380.75 65.1793 380.61 66.8617C380.47 68.5441 380.47 70.2265 380.89 71.7687L381.031 72.3295L381.311 72.8903C381.451 73.1707 381.732 73.4511 382.012 73.7315C382.573 74.1521 383.414 74.5727 384.115 74.8531C385.657 75.4139 387.34 75.8345 388.882 76.2551C390.564 76.5355 392.247 76.8159 393.929 76.9561C395.331 77.0963 396.593 75.6943 397.574 74.5727C398.696 73.3109 399.537 71.7687 400.378 70.3667C401.36 68.6843 401.92 67.1421 402.481 65.4597Z" fill="#75819C"/>
</g>
</svg>
