<svg width="850" height="500" viewBox="0 0 850 500" fill="none" xmlns="http://www.w3.org/2000/svg">
<path opacity="0.33" d="M692 454.35C684.892 439 679.902 424.736 677.936 393.106C675.97 361.477 679.751 358.996 677.936 334.034C676.121 309.071 674.306 314.498 676.121 295.737C677.785 276.976 667.804 252.634 667.652 243.486C667.501 234.339 668.257 203.019 665.535 188.29C662.813 173.56 656.461 164.103 651.925 138.83C647.388 113.558 630.148 97.1226 619.108 100.844C608.069 104.565 606.254 116.348 607.615 120.69C602.776 110.922 599.6 105.185 596.575 101.464C593.551 97.7428 584.779 93.4015 584.779 93.4015C584.779 93.4015 571.169 90.4556 565.876 103.014C561.49 103.945 561.49 113.713 561.642 116.348C560.583 110.457 558.617 102.084 556.954 99.4483C555.139 96.8125 551.661 92.6262 546.821 90.4556C541.982 88.2849 529.581 89.0601 526.405 91.6959C523.23 94.3317 517.483 99.7584 517.937 105.03C518.39 110.457 520.054 115.263 520.356 129.062C520.659 142.861 525.044 172.01 525.952 179.297C526.859 186.584 539.109 253.72 539.109 253.72C539.109 253.72 538.655 254.805 537.899 254.03C537.294 253.254 522.927 171.39 517.785 159.296C519.751 146.427 520.961 109.991 512.795 101.929C509.317 93.8666 488.145 87.5097 480.13 105.65C472.115 123.636 474.686 155.885 473.173 168.289C471.661 180.693 473.325 208.291 474.837 216.508C473.778 208.136 471.056 200.384 466.368 195.577C461.68 190.771 453.967 185.964 448.523 183.949C444.138 182.398 438.542 184.414 436.122 186.894C435.366 187.67 434.308 188.445 433.249 188.6C432.039 188.91 430.981 189.84 430.981 189.84C430.981 192.476 432.947 205.655 440.054 218.679C438.24 221.47 440.659 233.098 438.693 241.316C436.727 249.378 434.459 254.96 437.937 264.263C436.576 266.743 438.391 273.565 441.415 276.046C439.601 281.783 441.869 289.07 447.918 304.265C455.48 323.335 451.699 344.422 456.992 355.275C462.285 366.128 468.636 369.849 475.593 381.013C482.398 392.176 509.014 427.061 519.903 435.899C530.791 444.737 535.328 454.195 535.328 454.195H692V454.35Z" fill="#E0E1E2"/>
<path d="M692 454.349C684.892 439 679.902 424.736 677.936 393.106C675.97 361.477 679.751 358.996 677.936 334.033C676.121 309.071 674.306 314.498 676.121 295.737C677.785 276.976 667.804 252.634 667.652 243.486C667.501 234.338 668.257 203.019 665.535 188.29C662.813 173.56 658.73 162.707 651.925 138.83C644.363 112.162 630.148 97.1224 619.108 100.843C608.069 104.565 606.254 116.348 607.615 120.689C602.776 110.921 599.6 105.185 596.575 101.464C594.307 98.6728 588.106 93.8664 582.965 93.0911C579.184 92.471 569.959 93.2462 565.876 102.859C561.944 104.254 561.49 113.557 561.642 116.193C560.583 110.301 558.617 101.929 556.954 99.293C555.139 96.6572 551.661 92.471 546.821 90.3003C541.982 88.1297 529.581 88.9049 526.405 91.5407C523.23 94.1765 517.483 99.6031 517.937 104.875C518.39 110.301 520.054 115.108 520.356 128.907C520.659 142.706 525.044 171.855 525.952 179.142C526.859 186.429 539.109 253.564 539.109 253.564C539.109 253.564 538.655 254.65 537.899 253.874C537.294 253.099 522.927 171.235 517.785 159.141C519.751 146.272 520.961 109.836 512.795 101.774C509.317 93.7113 488.145 87.3544 480.13 105.495C472.115 123.48 474.686 155.73 473.173 168.134C471.661 180.537 473.325 208.136 474.837 216.353C473.778 207.981 471.056 200.228 466.368 195.422C461.68 190.615 453.967 185.809 448.523 183.793C444.138 182.243 438.542 184.258 436.122 186.894C435.215 187.825 434.005 188.755 432.644 188.91C431.586 189.065 430.981 189.375 430.981 189.375C430.981 191.856 432.644 203.794 438.542 215.733C439.298 217.283 439.752 218.989 439.449 220.694C438.845 225.191 440.357 234.494 438.693 241.161C436.727 249.223 434.459 254.805 437.937 264.107C438.24 269.069 439.752 274.03 441.415 275.891C440.962 282.558 441.869 288.915 447.918 304.109C455.48 323.18 451.699 344.266 456.992 355.12C462.285 365.973 468.636 369.694 475.593 380.857C482.398 392.021 509.014 426.906 519.903 435.744C530.791 444.581 535.328 454.039 535.328 454.039" stroke="#808285" stroke-width="2" stroke-miterlimit="10"/>
<path d="M479.978 347.523C480.431 339.616 483.91 326.127 484.212 321.32C484.666 316.514 483.305 323.336 483.002 302.559C482.851 281.628 481.036 248.758 477.709 234.029C474.382 219.299 475.29 216.354 473.777 211.082" stroke="#808285" stroke-width="2" stroke-miterlimit="10"/>
<path d="M590.828 240.231C587.501 235.114 583.721 226.122 583.267 202.245C582.813 178.367 575.857 172.631 575.403 156.196C574.95 139.761 563.456 134.489 561.49 116.504" stroke="#808285" stroke-width="2" stroke-miterlimit="10"/>
<path d="M631.66 234.339C631.811 228.447 631.963 198.678 628.938 180.848C625.914 163.017 622.889 156.195 619.26 148.288C615.479 140.226 609.127 127.977 607.312 120.845" stroke="#808285" stroke-width="2" stroke-miterlimit="10"/>
<g opacity="0.5">
<path d="M439.45 190.772C440.811 191.083 442.021 191.858 443.231 192.788C444.289 193.873 445.045 195.114 445.499 196.509C446.255 199.3 447.011 201.936 447.465 204.882C447.919 207.673 448.372 210.618 448.07 213.564C448.07 214.34 447.768 215.115 447.616 215.735C447.314 216.51 446.86 217.13 446.255 217.596C445.045 218.681 443.533 218.836 442.172 218.371C443.533 218.526 444.894 218.061 445.802 216.975C446.709 216.045 446.86 214.65 446.86 213.254C446.86 210.463 446.406 207.673 445.953 205.037C445.499 202.246 444.894 199.455 444.289 196.819C443.836 194.339 442.021 192.013 439.45 190.772Z" fill="#AEB0B2"/>
</g>
<path opacity="0.33" d="M403.155 192.472C391.359 191.542 374.119 201.93 369.28 204.566C364.44 207.202 353.401 218.21 347.352 226.427C341.302 234.49 342.966 240.072 342.512 241.002C342.059 241.777 340.093 241.932 338.58 242.862C337.068 243.793 323.004 262.553 320.282 265.654C317.408 268.6 316.35 268.6 316.652 272.166C308.637 272.321 301.983 280.849 299.866 281.004C297.749 281.159 296.085 274.647 290.187 269.53C284.29 264.414 278.694 262.398 278.543 255.886C278.392 249.219 290.339 226.583 297.446 216.039C304.554 205.496 317.862 192.007 322.853 186.425C327.843 180.844 334.195 170.921 338.278 165.339C342.512 159.602 355.972 147.044 359.903 143.943C363.835 140.842 369.733 134.02 372.607 123.787C375.48 113.554 377.748 99.9095 365.196 94.638C352.645 89.3664 336.009 106.111 331.321 111.228V109.677C325.575 85.0251 308.94 77.893 304.403 77.1177C299.866 76.3425 293.514 72.7764 290.641 72.4663C287.919 72.1562 283.231 72.4663 278.24 72.6214C273.25 72.7764 257.825 70.6058 253.741 70.6058L252.38 69.9856C252.38 69.9856 242.097 62.0782 225.764 63.7837C214.271 60.9929 203.231 60.3727 195.67 62.8534C195.67 62.8534 204.895 49.3644 202.022 34.79C199.148 20.2157 183.572 16.1845 177.674 15.0991C171.776 14.0138 171.171 25.1771 170.264 30.9139C169.356 36.6506 160.585 53.7057 159.526 56.8066C158.468 59.9076 158.922 61.9232 158.77 63.6287C158.468 65.3342 143.95 93.2426 142.589 95.8783C141.228 98.3591 139.262 102.7 139.111 105.491C138.959 108.282 133.062 115.569 131.096 120.531C129.13 125.492 130.037 132.624 126.105 145.338C122.173 158.207 114.763 172.006 111.436 178.828C108.26 185.65 103.723 202.86 101.455 211.388C99.1866 219.916 88.7519 247.049 87.2396 251.39C85.5761 255.731 85.1224 260.848 81.1905 270.771C77.2585 280.694 71.5119 309.377 71.0582 313.719C70.4533 318.06 55.9354 352.325 55.1793 353.255C54.4231 354.186 48.9789 370.156 37.4856 392.947L164.063 461.633C171.02 440.392 187.957 414.654 191.889 408.452C195.821 402.25 209.28 388.141 220.925 380.699C232.57 373.411 247.844 369.07 266.898 363.799C285.953 358.527 303.495 358.527 315.594 355.116C327.692 351.705 337.522 333.41 341.454 326.587C345.386 319.765 369.582 285.035 371.397 282.709C373.363 280.384 372.153 278.988 372.455 278.523C372.758 278.058 374.119 278.988 374.875 278.368C375.631 277.903 380.319 269.996 381.832 267.98C383.344 265.964 381.983 264.104 382.285 263.639C382.588 263.173 383.495 263.949 384.1 263.639C384.705 263.329 385.763 260.693 388.788 250.77C391.813 240.847 394.535 239.761 395.291 237.901C396.047 236.04 394.535 234.8 395.14 232.784C395.744 230.924 404.213 223.947 408.145 218.83C412.077 213.714 417.37 204.876 417.521 203.946C417.672 203.015 418.731 201.93 418.731 201.93C418.731 201.93 414.95 193.403 403.155 192.472ZM271.435 159.137C267.957 162.548 261.303 168.75 255.556 173.712L254.649 172.316C249.658 165.184 260.244 152.005 262.513 148.129C264.781 144.408 285.651 123.787 288.07 119.135C290.036 120.221 294.875 119.911 296.993 118.515C297.446 120.531 299.564 124.252 301.983 125.337C302.891 125.802 303.949 125.492 305.008 125.027L306.369 125.337C295.934 131.849 276.577 154.021 271.435 159.137Z" fill="#E0E1E2"/>
<path d="M202.022 34.9453C204.895 49.5197 195.67 63.0087 195.67 63.0087C203.232 60.528 214.12 61.1482 225.765 63.939C242.097 62.2335 252.381 70.1409 252.381 70.1409L253.742 70.761C257.825 70.761 273.25 72.9317 278.241 72.7766C283.231 72.6216 287.919 72.3115 290.641 72.6216C293.363 72.9317 299.866 76.4978 304.403 77.273C308.94 78.0482 325.575 85.1804 331.473 109.678" stroke="#808285" stroke-width="2" stroke-miterlimit="10"/>
<path d="M37.3345 392.791C48.8278 370 54.272 354.03 55.0281 353.099C55.7843 352.169 70.3021 318.059 70.9071 313.563C71.512 309.221 77.1074 280.538 81.0393 270.615C84.9713 260.692 85.4249 255.575 87.0884 251.234C88.752 246.893 99.0354 219.759 101.304 211.232C103.572 202.704 108.109 185.494 111.285 178.672C114.461 171.85 122.022 158.051 125.954 145.182C129.886 132.313 128.979 125.181 130.945 120.375C132.911 115.413 138.808 108.126 138.96 105.335C139.111 102.544 141.077 98.3581 142.438 95.7223C143.799 93.0865 158.468 65.1781 158.619 63.4726C158.922 61.7671 158.317 59.9066 159.375 56.6506C160.585 53.5497 169.205 36.3395 170.113 30.7578" stroke="#808285" stroke-width="2" stroke-miterlimit="10"/>
<path d="M309.092 123.786C317.863 120.685 326.786 116.344 331.474 111.227C336.162 106.111 352.797 89.3656 365.349 94.6372C377.901 99.9088 375.632 113.553 372.759 123.786C369.886 134.019 363.836 140.841 360.056 143.942C356.124 147.043 342.664 159.602 338.43 165.338C334.196 171.075 327.995 180.843 323.005 186.425C318.014 192.006 304.555 205.34 297.599 215.884C290.491 226.427 278.544 249.064 278.695 255.731C278.846 262.398 284.291 264.258 290.34 269.375C296.389 274.491 297.901 281.003 300.018 280.848C302.135 280.693 308.789 272.165 316.804 272.01C316.502 268.289 317.712 268.444 320.434 265.498C323.307 262.553 337.371 243.637 338.733 242.707C340.094 241.776 342.211 241.621 342.664 240.846C343.118 240.071 341.455 234.334 347.504 226.272C353.553 218.209 364.593 207.046 369.432 204.41C374.271 201.774 391.511 191.386 403.307 192.317C415.103 193.247 418.883 201.929 418.883 201.929C418.883 201.929 417.825 203.015 417.673 203.945C417.522 204.875 412.229 213.868 408.297 218.829C404.365 223.946 396.048 230.923 395.292 232.784C394.687 234.644 396.199 235.885 395.443 237.9C394.687 239.761 391.965 240.846 388.94 250.769C385.916 260.692 384.857 263.328 384.252 263.638C383.647 263.948 382.74 263.018 382.437 263.638C382.135 264.103 383.496 265.964 381.984 267.979C380.471 269.995 375.783 277.902 375.027 278.367C374.271 278.832 372.91 277.902 372.608 278.367C372.305 278.832 373.364 280.228 371.549 282.554C369.583 284.879 345.538 319.61 341.606 326.432C337.674 333.254 327.844 351.549 315.746 354.96C303.648 358.371 286.256 358.526 267.051 363.643C247.845 368.759 232.873 373.101 221.077 380.543C209.433 387.83 195.973 402.094 192.041 408.141C188.11 414.188 171.172 439.926 164.216 461.322" stroke="#808285" stroke-width="2" stroke-miterlimit="10"/>
<path d="M197.182 60.5282C197.182 60.5282 204.441 49.5199 202.021 34.9456C200.055 23.162 192.191 21.1464 190.074 20.6813C186.596 16.8051 180.244 14.4794 177.674 15.0996C174.951 15.7198 171.624 23.162 170.263 30.9144C169.205 36.6511 160.585 53.7062 159.526 56.8071C158.316 59.908 158.921 61.9237 158.77 63.6292C158.468 65.3347 143.95 93.243 142.589 95.8788C141.228 98.5146 139.262 102.701 139.11 105.492C138.959 108.283 133.061 115.57 131.095 120.531C129.129 125.493 130.037 132.625 126.105 145.339C122.173 158.208 114.763 172.007 111.436 178.829" stroke="#2969D0" stroke-width="3" stroke-miterlimit="10" stroke-linecap="round"/>
<path d="M252.379 70.1415C252.379 70.1415 242.096 62.2342 225.763 63.9397C208.826 59.9085 193.098 60.5287 187.805 68.436C182.512 76.3434 167.843 103.632 164.062 112.159C160.282 120.687 152.72 145.959 149.998 149.835C147.276 153.557 142.437 157.743 142.437 157.743" stroke="#808285" stroke-width="2" stroke-miterlimit="10"/>
<path d="M172.381 160.068C177.371 158.363 184.328 156.347 191.133 148.44C197.938 140.532 226.823 97.1194 232.872 90.2973C238.921 83.4753 249.809 70.6064 253.892 70.6064C257.976 70.6064 273.401 72.7771 278.391 72.6221C283.382 72.467 288.07 72.1569 290.792 72.467C293.514 72.7771 300.017 76.3432 304.554 77.1184C309.091 77.8936 325.726 85.0258 331.624 109.523C325.423 119.601 312.266 120.066 309.847 121.772C307.427 123.477 304.403 126.423 301.983 125.338C299.563 124.253 297.446 120.376 296.992 118.516C294.875 120.066 290.036 120.376 288.07 119.136C285.65 123.787 264.781 144.254 262.664 148.13C260.395 152.006 249.809 165.185 254.8 172.317" stroke="#808285" stroke-width="2" stroke-miterlimit="10"/>
<path d="M246.785 180.533C250.566 178.362 265.538 164.718 271.284 158.982C277.031 153.245 300.32 126.732 308.94 123.631C317.711 120.53 326.634 116.189 331.322 111.072" stroke="#808285" stroke-width="2" stroke-miterlimit="10"/>
<path d="M287.919 119.137C287.919 119.137 291.549 115.416 293.363 111.54" stroke="#808285" stroke-width="2" stroke-miterlimit="10"/>
<path d="M296.842 118.361C296.842 118.361 296.842 116.035 301.681 115.26" stroke="#808285" stroke-width="2" stroke-miterlimit="10"/>
<g opacity="0.5">
<path d="M189.924 22.8535C190.075 25.3343 189.622 27.66 188.866 29.9857C188.109 32.3113 187.051 34.6371 185.539 36.4976C184.782 37.4279 183.875 38.3582 182.665 38.9784C182.363 39.1334 182.06 39.2884 181.758 39.2884C181.455 39.4435 181.153 39.4435 180.85 39.4435C180.246 39.5985 179.641 39.5985 179.036 39.5985C176.616 39.4435 174.045 38.3582 172.533 36.4976C174.499 37.893 176.767 38.5132 179.036 38.3582C180.094 38.2031 181.304 38.0481 182.06 37.5829C182.968 37.1178 183.724 36.3426 184.48 35.4123C185.841 33.7068 186.9 31.5361 187.807 29.3655C188.261 28.2801 188.714 27.1948 189.017 26.1095C189.319 25.1792 189.622 23.9388 189.924 22.8535Z" fill="#AEB0B2"/>
</g>
<g opacity="0.5">
<path d="M392.418 229.531C391.662 228.755 390.905 228.135 390.301 227.205C389.696 226.275 389.393 225.189 389.242 224.104C388.788 221.933 389.393 219.608 390.452 217.747C391.057 216.662 391.662 215.886 392.418 215.111C393.174 214.336 393.779 213.561 394.535 212.941C396.047 211.545 397.56 210.15 399.223 209.064C397.862 210.46 396.501 212.01 395.14 213.561C393.93 215.111 392.418 216.662 391.662 218.367C390.906 220.073 390.452 222.088 390.452 223.949C390.603 224.879 390.603 225.809 391.057 226.74C391.359 227.67 391.964 228.6 392.418 229.531Z" fill="#AEB0B2"/>
</g>
</svg>
