<svg width="850" height="500" viewBox="0 0 850 500" fill="none" xmlns="http://www.w3.org/2000/svg">
<path opacity="0.33" d="M691.406 451.206C684.32 436.281 679.345 422.411 677.385 391.656C675.426 360.901 679.195 358.489 677.385 334.217C675.576 309.945 673.767 315.221 675.576 296.979C677.235 278.738 667.285 255.069 667.134 246.174C666.983 237.279 667.737 206.826 665.023 192.504C662.309 178.182 655.978 168.985 651.455 144.412C646.932 119.838 629.746 103.857 618.74 107.476C607.735 111.094 605.926 122.552 607.283 126.773C602.458 117.275 599.292 111.697 596.277 108.079C593.262 104.46 584.518 100.239 584.518 100.239C584.518 100.239 570.95 97.3748 565.673 109.586C561.301 110.491 561.301 119.989 561.452 122.552C560.397 116.823 558.437 108.682 556.778 106.119C554.969 103.556 551.502 99.4855 546.677 97.3748C541.853 95.2642 529.491 96.018 526.325 98.5809C523.159 101.144 517.43 106.42 517.883 111.546C518.335 116.823 519.993 121.496 520.295 134.914C520.596 148.331 524.968 176.674 525.873 183.76C526.777 190.845 538.989 256.124 538.989 256.124C538.989 256.124 538.537 257.179 537.783 256.425C537.18 255.672 522.858 176.071 517.732 164.312C519.692 151.799 520.898 116.37 512.757 108.531C509.289 100.692 488.183 94.5104 480.193 112.149C472.203 129.637 474.766 160.995 473.258 173.056C471.75 185.116 473.409 211.951 474.916 219.942C473.861 211.801 471.147 204.263 466.474 199.589C461.8 194.916 454.112 190.242 448.684 188.282C444.312 186.775 438.734 188.735 436.322 191.147C435.568 191.901 434.513 192.654 433.458 192.805C432.252 193.107 431.196 194.011 431.196 194.011C431.196 196.574 433.156 209.389 440.242 222.052C438.433 224.766 440.845 236.073 438.885 244.063C436.925 251.903 434.664 257.33 438.131 266.375C436.774 268.788 438.583 275.421 441.599 277.833C439.79 283.411 442.051 290.497 448.081 305.271C455.619 323.815 451.85 344.318 457.127 354.871C462.403 365.424 468.735 369.042 475.67 379.897C482.454 390.751 508.988 424.672 519.842 433.265C530.697 441.859 535.22 451.055 535.22 451.055H691.406V451.206Z" fill="#E0E1E2"/>
<path d="M691.406 451.207C684.32 436.282 679.345 422.412 677.385 391.657C675.426 360.903 679.195 358.49 677.385 334.218C675.576 309.946 673.767 315.223 675.576 296.981C677.235 278.739 667.285 255.07 667.134 246.175C666.983 237.28 667.737 206.827 665.023 192.505C662.309 178.183 658.239 167.63 651.455 144.413C643.917 118.482 629.746 103.859 618.74 107.477C607.735 111.095 605.926 122.553 607.283 126.774C602.458 117.276 599.292 111.698 596.277 108.08C594.016 105.366 587.835 100.693 582.709 99.9391C578.94 99.336 569.744 100.09 565.673 109.437C561.753 110.794 561.301 119.839 561.452 122.402C560.397 116.673 558.437 108.532 556.778 105.969C554.969 103.407 551.502 99.336 546.677 97.2254C541.853 95.1148 529.491 95.8686 526.325 98.4315C523.159 100.994 517.43 106.271 517.883 111.397C518.335 116.673 519.993 121.347 520.295 134.764C520.596 148.182 524.968 176.525 525.873 183.61C526.777 190.696 538.989 255.974 538.989 255.974C538.989 255.974 538.537 257.03 537.783 256.276C537.18 255.522 522.858 175.922 517.732 164.162C519.692 151.649 520.898 116.221 512.757 108.382C509.289 100.542 488.183 94.361 480.193 112C472.203 129.488 474.766 160.846 473.258 172.906C471.75 184.967 473.409 211.802 474.916 219.792C473.861 211.651 471.147 204.113 466.474 199.44C461.8 194.766 454.112 190.093 448.684 188.133C444.312 186.625 438.734 188.585 436.322 191.148C435.418 192.053 434.211 192.957 432.855 193.108C431.799 193.259 431.196 193.56 431.196 193.56C431.196 195.972 432.855 207.581 438.734 219.189C439.488 220.697 439.94 222.355 439.639 224.014C439.036 228.386 440.543 237.431 438.885 243.914C436.925 251.753 434.664 257.181 438.131 266.226C438.433 271.05 439.94 275.875 441.599 277.684C441.146 284.166 442.051 290.347 448.081 305.122C455.619 323.665 451.85 344.168 457.127 354.721C462.403 365.275 468.735 368.893 475.67 379.747C482.454 390.602 508.988 424.523 519.842 433.116C530.697 441.709 535.22 450.906 535.22 450.906" stroke="#808285" stroke-width="2" stroke-miterlimit="10"/>
<path d="M480.041 347.335C480.494 339.646 483.961 326.53 484.263 321.857C484.715 317.183 483.358 323.816 483.057 303.615C482.906 283.262 481.097 251.301 477.78 236.979C474.463 222.657 475.368 219.793 473.86 214.667" stroke="#808285" stroke-width="2" stroke-miterlimit="10"/>
<path d="M590.548 243.01C587.231 238.035 583.462 229.291 583.01 206.074C582.558 182.857 575.623 177.279 575.171 161.298C574.718 145.318 563.261 140.192 561.301 122.704" stroke="#808285" stroke-width="2" stroke-miterlimit="10"/>
<path d="M631.254 237.28C631.404 231.551 631.555 202.606 628.54 185.268C625.525 167.931 622.51 161.298 618.891 153.609C615.122 145.77 608.791 133.86 606.981 126.925" stroke="#808285" stroke-width="2" stroke-miterlimit="10"/>
<g opacity="0.5">
<path d="M439.64 194.918C440.996 195.219 442.203 195.973 443.409 196.878C444.464 197.933 445.218 199.139 445.67 200.496C446.424 203.21 447.178 205.773 447.63 208.637C448.082 211.351 448.534 214.215 448.233 217.08C448.233 217.833 447.931 218.587 447.781 219.19C447.479 219.944 447.027 220.547 446.424 220.999C445.218 222.055 443.71 222.205 442.353 221.753C443.71 221.904 445.067 221.452 445.972 220.396C446.876 219.492 447.027 218.135 447.027 216.778C447.027 214.064 446.575 211.351 446.122 208.788C445.67 206.074 445.067 203.36 444.464 200.798C444.012 198.385 442.203 196.124 439.64 194.918Z" fill="#AEB0B2"/>
</g>
<path opacity="0.33" d="M272.9 452.413C277.423 447.891 275.614 445.328 289.483 434.775C303.353 424.221 328.831 396.18 336.972 386.08C344.963 375.979 363.657 360.451 365.918 355.174C368.179 349.897 369.235 325.776 376.773 307.233C384.311 288.689 388.833 269.543 387.778 261.854C386.723 254.015 381.597 238.637 380.692 237.281C381.597 235.773 385.517 216.928 385.366 202.606C379.336 195.671 356.722 197.933 344.058 227.783C331.394 257.633 339.837 265.472 339.837 265.472C339.837 265.472 332.299 273.915 327.625 292.157C322.952 310.399 323.253 285.523 331.394 257.03C339.535 228.537 355.214 196.726 357.626 190.696C360.038 184.666 361.245 175.017 367.124 162.806C373.004 150.444 374.36 137.177 374.813 130.845C375.114 124.664 374.36 116.674 371.195 113.809C370.139 110.191 367.878 104.613 357.476 103.708C347.073 102.804 342.852 113.809 342.852 113.809C342.852 113.809 338.329 117.578 333.957 131.448C329.585 145.318 330.188 148.634 314.208 169.439C298.227 190.244 284.659 230.346 283.151 231.853C281.644 233.361 277.272 228.687 287.674 200.646C298.077 172.454 299.132 173.359 300.489 172.002C301.846 170.645 317.524 159.188 325.062 137.629C332.751 116.071 324.309 111.095 324.309 111.095C324.309 111.095 322.499 103.256 310.288 102.351C297.926 101.447 295.514 112 295.514 112C295.514 112 289.785 115.769 285.262 125.719L282.096 127.076C282.096 127.076 285.111 120.443 284.81 112.151C284.659 103.859 275.312 100.392 268.98 100.392C262.648 100.392 251.04 109.437 249.532 111.699C247.12 112.452 242.447 112.603 236.869 118.784C233.853 114.412 230.838 110.945 225.411 108.08C219.984 105.065 216.064 107.326 215.008 109.136C213.953 110.945 210.184 117.427 210.184 117.427C210.184 117.427 205.209 118.633 193.148 139.89C181.239 160.997 177.922 172.756 174.454 177.58C170.987 182.404 165.258 188.736 165.107 195.068C164.957 201.551 157.268 214.214 156.816 224.014C156.363 233.964 142.644 269.091 139.478 278.588C136.312 288.086 138.121 337.234 135.709 365.275C133.297 393.165 131.187 405.678 126.061 415.93C120.784 426.181 110.985 447.74 106.764 452.413H272.9V452.413Z" fill="#E0E1E2"/>
<path d="M272.9 452.413C277.423 447.891 275.614 445.328 289.483 434.775C303.353 424.221 328.831 396.18 336.972 386.08C344.963 375.979 363.657 360.451 365.918 355.174C368.179 349.897 369.235 325.776 376.773 307.233C384.311 288.689 388.833 269.543 387.778 261.854C386.723 254.015 381.597 238.637 380.692 237.281C381.597 235.773 385.517 216.928 385.366 202.606C379.336 195.671 356.722 197.933 344.058 227.783C331.394 257.633 339.837 265.472 339.837 265.472C339.837 265.472 332.299 273.915 327.625 292.157C322.952 310.399 323.253 285.523 331.394 257.03C339.535 228.537 355.214 196.726 357.626 190.696C360.038 184.666 361.245 175.017 367.124 162.806C373.004 150.444 374.36 137.177 374.813 130.845C375.114 124.664 374.36 116.674 371.195 113.809C370.139 110.191 367.878 104.613 357.476 103.708C347.073 102.804 342.852 113.809 342.852 113.809C342.852 113.809 338.329 117.578 333.957 131.448C329.585 145.318 330.188 148.634 314.208 169.439C298.227 190.244 284.659 230.346 283.151 231.853C281.644 233.361 277.272 228.687 287.674 200.646C298.077 172.454 299.132 173.359 300.489 172.002C301.846 170.645 317.524 159.188 325.062 137.629C332.751 116.071 324.309 111.095 324.309 111.095C324.309 111.095 322.499 103.256 310.288 102.351C297.926 101.447 295.514 112 295.514 112C295.514 112 289.785 115.769 285.262 125.719L282.096 127.076C282.096 127.076 285.111 120.443 284.81 112.151C284.659 103.859 275.312 100.392 268.98 100.392C262.648 100.392 251.04 109.437 249.532 111.699C247.12 112.452 242.447 112.603 236.869 118.784C233.853 114.412 230.838 110.945 225.411 108.08C219.984 105.065 216.064 107.326 215.008 109.136C213.953 110.945 210.184 117.427 210.184 117.427C210.184 117.427 205.209 118.633 193.148 139.89C181.239 160.997 177.922 172.756 174.454 177.58C170.987 182.404 165.258 188.736 165.107 195.068C164.957 201.551 157.268 214.214 156.816 224.014C156.363 233.964 142.644 269.091 139.478 278.588C136.312 288.086 138.121 337.234 135.709 365.275C133.297 393.165 131.187 405.678 126.061 415.93C120.784 426.181 110.985 447.74 106.764 452.413" stroke="#808285" stroke-width="2" stroke-miterlimit="10"/>
<path d="M175.51 239.39C180.334 230.344 186.364 193.861 187.57 182.102C188.777 170.192 190.284 155.266 196.616 151.347C202.948 147.427 210.486 140.04 218.024 133.105C225.562 126.321 230.687 125.718 237.019 118.934C242.597 112.752 247.271 112.451 249.683 111.848C251.191 109.587 262.95 100.541 269.131 100.541C275.312 100.541 284.81 104.008 284.961 112.3C285.111 120.592 282.247 127.225 282.247 127.225" stroke="#2969D0" stroke-width="3" stroke-miterlimit="10" stroke-linecap="round"/>
<g opacity="0.5">
<path d="M252.246 114.866C254.96 114.263 257.824 115.167 260.387 115.921C262.95 116.675 265.513 117.881 268.076 118.786C268.679 119.087 269.433 119.238 269.734 119.238C270.337 119.238 270.94 119.087 271.543 118.936C272.749 118.635 274.106 118.183 275.312 117.73C277.875 116.826 280.287 115.771 282.85 114.715C280.589 116.223 278.177 117.73 275.764 118.786C274.558 119.389 273.202 119.841 271.845 120.293C271.091 120.444 270.488 120.595 269.583 120.595C268.679 120.595 268.076 120.293 267.322 119.992C264.759 118.936 262.347 117.881 259.784 116.826C258.578 116.374 257.221 115.771 256.015 115.469C254.96 115.167 253.603 114.866 252.246 114.866Z" fill="#AEB0B2"/>
</g>
<path d="M213.501 235.773C216.215 233.964 222.999 228.537 227.823 209.993C232.647 191.601 246.517 155.871 251.04 148.032C255.563 140.343 259.935 141.398 274.257 132.956C288.579 124.513 300.037 127.528 300.037 127.528" stroke="#808285" stroke-width="2" stroke-miterlimit="10"/>
<g opacity="0.5">
<path d="M380.994 203.21C379.637 203.964 378.431 205.17 377.376 206.376C376.32 207.582 375.416 208.788 374.511 210.145C372.853 212.859 371.496 215.572 370.742 218.738C369.989 221.753 369.989 224.919 370.441 227.934C370.742 229.442 371.195 230.95 371.948 232.306C372.702 233.663 373.758 234.869 375.114 235.774C373.607 235.171 372.401 233.965 371.345 232.759C370.441 231.402 369.838 229.894 369.386 228.236C368.632 225.07 368.481 221.603 369.235 218.437C369.989 215.271 371.496 212.255 373.456 209.542C375.567 206.979 377.979 204.416 380.994 203.21Z" fill="#AEB0B2"/>
</g>
</svg>
