<svg width="900" height="500" viewBox="0 0 900 500" fill="none" xmlns="http://www.w3.org/2000/svg">
<path opacity="0.33" d="M350.977 429.161C356.313 422.383 372.176 398.876 377.224 391.088C382.271 383.301 393.664 356.765 398.423 350.708C403.182 344.651 408.951 337.008 406.355 319.125C403.904 301.243 401.74 295.042 403.183 269.516C404.625 243.99 400.154 238.942 394.241 226.684C393.087 219.329 391.213 217.31 388.473 215.147C388.905 210.099 391.501 190.053 393.087 179.814C394.818 169.575 391.357 172.748 393.087 150.971C394.818 129.195 388.905 113.764 385.156 109.293C384.579 104.967 380.397 100.063 372.753 98.4771C365.254 96.7465 358.332 103.669 358.332 106.697C355.88 107.563 348.093 118.234 351.986 153.134C343.478 173.469 338.142 194.38 336.988 201.446C335.69 208.513 329.921 240.384 327.614 239.086C325.307 237.788 334.536 207.359 337.276 188.467C340.016 169.575 342.901 156.451 344.631 147.51C346.362 138.569 346.506 109.293 336.7 105.688C334.392 98.3329 327.326 96.4581 320.836 96.0254C314.346 95.5928 308.866 100.784 308.722 103.813C305.838 104.823 302.809 118.811 304.107 138.28C297.617 145.203 288.82 167.123 279.014 215.291C279.014 215.291 282.186 168.421 288.243 149.241C294.445 130.06 298.915 122.561 295.31 111.889C297.041 106.842 292.281 103.092 285.792 101.073C279.302 99.0539 271.947 102.515 270.505 106.553C265.313 107.418 256.66 122.849 252.911 135.108C245.989 147.366 237.768 168.998 234.596 181.256C231.423 193.514 229.981 238.365 228.106 241.394C226.231 244.422 222.914 244.711 220.318 241.826C217.723 238.942 217.001 238.077 216.28 232.741C215.559 227.261 214.261 217.743 212.675 210.676C211.233 203.609 209.502 189.621 210.079 184.429C210.656 179.237 217.29 170.007 216.569 157.893C215.848 145.779 208.204 141.165 206.185 139.578C204.166 138.136 201.859 134.675 194.937 136.55C188.014 138.425 184.697 154.288 184.697 154.288C184.697 154.288 175.9 171.45 174.458 175.343C173.016 179.237 173.304 183.996 171.862 190.342C170.42 196.687 172.295 203.033 170.132 209.378C168.113 215.724 168.978 226.107 171.285 234.76C173.593 243.413 171.862 243.845 173.737 250.479C175.612 256.969 179.361 265.91 180.659 272.111C181.957 278.313 181.525 292.013 182.39 302.685C183.255 313.357 188.159 319.27 189.456 333.258C190.754 347.247 193.494 386.185 195.369 397.434C197.244 408.683 198.398 412.144 192.773 429.45H350.977V429.161Z" fill="#445272"/>
<path d="M350.977 429.161C356.313 422.383 372.176 398.876 377.224 391.088C382.271 383.301 393.664 356.765 398.423 350.708C403.182 344.651 408.951 337.008 406.355 319.125C403.904 301.243 401.74 295.042 403.183 269.516C404.625 243.99 400.154 238.942 394.241 226.684C393.087 219.329 391.213 217.31 388.473 215.147C388.905 210.099 391.501 190.053 393.087 179.814C394.818 169.575 391.357 172.748 393.087 150.971C394.818 129.195 388.905 113.764 385.156 109.293C384.579 104.967 380.397 100.063 372.753 98.4771C365.254 96.7465 358.332 103.669 358.332 106.697C355.88 107.563 348.093 118.234 351.986 153.134C343.478 173.469 338.142 194.38 336.988 201.446C335.69 208.513 329.921 240.384 327.614 239.086C325.307 237.788 334.536 207.359 337.276 188.467C340.016 169.575 342.901 156.451 344.631 147.51C346.362 138.569 346.506 109.293 336.7 105.688C334.392 98.3329 327.326 96.4581 320.836 96.0254C314.346 95.5928 308.866 100.784 308.722 103.813C305.838 104.823 302.809 118.811 304.107 138.28C297.617 145.203 288.82 167.123 279.014 215.291C279.014 215.291 282.186 168.421 288.243 149.241C294.445 130.06 298.915 122.561 295.31 111.889C297.041 106.842 292.281 103.092 285.792 101.073C279.302 99.0539 271.947 102.515 270.505 106.553C265.313 107.418 256.66 122.849 252.911 135.108C245.989 147.366 237.768 168.998 234.596 181.256C231.423 193.514 229.981 238.365 228.106 241.394C226.231 244.422 222.914 244.711 220.318 241.826C217.723 238.942 217.001 238.077 216.28 232.741C215.559 227.261 214.261 217.743 212.675 210.676C211.233 203.609 209.502 189.621 210.079 184.429C210.656 179.237 217.29 170.007 216.569 157.893C215.848 145.779 208.204 141.165 206.185 139.578C204.166 138.136 201.859 134.675 194.937 136.55C188.014 138.425 184.697 154.288 184.697 154.288C184.697 154.288 175.9 171.45 174.458 175.343C173.016 179.237 173.304 183.996 171.862 190.342C170.42 196.687 172.295 203.033 170.132 209.378C168.113 215.724 168.978 226.107 171.285 234.76C173.593 243.413 171.862 243.845 173.737 250.479C175.612 256.969 179.361 265.91 180.659 272.111C181.957 278.313 181.525 292.013 182.39 302.685C183.255 313.357 188.159 319.27 189.456 333.258C190.754 347.247 193.494 386.185 195.369 397.434C197.244 408.683 198.398 412.144 192.773 429.45" stroke="#697695" stroke-width="2" stroke-miterlimit="10"/>
<path d="M220.462 241.539C217.866 238.511 217.145 237.789 216.424 232.454C215.703 226.973 214.405 217.455 212.819 210.389C211.376 203.322 209.646 189.333 210.223 184.142C210.8 178.95 217.433 169.72 216.712 157.606C215.991 145.492 208.348 140.877 206.329 139.291C204.31 137.849 202.002 134.388 195.08 136.262C188.158 138.137 184.841 154.001 184.841 154.001C184.841 154.001 176.044 171.162 174.602 175.056C173.16 178.95 173.448 183.709 172.006 190.054C170.564 196.4 172.438 202.745 170.275 209.091C168.256 215.436 169.122 225.82 171.429 234.473C173.736 243.125 172.006 243.558 173.881 250.192C175.755 256.682 179.505 265.623 180.803 271.824" stroke="#BA6DCD" stroke-width="3" stroke-miterlimit="10" stroke-linecap="round"/>
<g opacity="0.5">
<path d="M188.159 155.298C189.89 154.865 191.765 154.865 193.495 154.433C195.226 154 196.668 153.279 197.966 152.125C199.264 151.116 200.562 149.818 201.715 148.376C202.292 147.655 202.869 146.933 203.446 146.357C204.023 145.636 204.455 144.914 205.176 144.193C204.888 145.059 204.455 145.924 204.023 146.789C203.59 147.655 203.157 148.376 202.581 149.241C201.571 150.827 200.273 152.269 198.831 153.423C197.389 154.577 195.514 155.442 193.639 155.586C191.765 155.875 190.034 155.298 188.159 155.298Z" fill="#B1BBD0"/>
</g>
<path d="M378.81 291.581C378.522 280.909 377.079 261.007 378.81 249.037C380.541 237.212 388.617 215.291 388.617 215.291" stroke="#697695" stroke-width="2" stroke-miterlimit="10"/>
<path d="M271.658 238.798C274.687 232.164 278.436 222.79 279.013 215.146Z" fill="#445272"/>
<path d="M271.658 238.798C274.687 232.164 278.436 222.79 279.013 215.146" stroke="#697695" stroke-width="2" stroke-miterlimit="10"/>
<path opacity="0.33" d="M550.718 425.248C538.242 406.535 528.035 394.627 520.522 383.853C511.165 370.385 506.487 363.58 503.084 357.91C498.123 349.687 496.847 346.427 492.168 340.898C489.191 337.354 486.498 334.802 483.237 329.415C481.678 326.721 479.693 323.46 478.417 318.782C477.425 314.955 477.708 312.686 477.708 306.023C477.708 304.606 477.85 293.548 477.141 283.908C477 280.789 476.432 277.103 475.582 269.731C474.448 259.666 473.597 255.555 473.03 247.616C472.747 243.646 472.605 240.528 472.463 238.543C472.179 236.842 471.896 234.857 472.038 232.447C472.321 228.761 473.314 225.926 474.589 222.807C476.149 218.979 478.559 214.017 481.678 208.205C481.961 207.213 482.528 205.795 483.521 204.377C484.23 203.101 485.08 202.109 485.789 201.4C485.647 195.588 485.789 189.067 486.64 181.695C487.207 176.591 488.057 172.055 489.05 167.802C489.617 167.66 490.325 167.66 491.034 167.66C491.743 167.66 492.452 167.66 493.019 167.802C494.295 167.518 496.138 167.093 498.123 167.235C502.801 167.518 506.061 169.645 507.479 170.779C506.629 169.078 505.211 165.675 505.069 161.422C505.069 160.005 505.069 156.886 506.487 153.625C510.173 145.119 520.663 142.993 522.223 142.709C528.46 141.433 533.564 142.993 535.549 143.702C539.802 145.261 542.637 147.671 544.196 149.089C544.055 147.246 544.055 145.545 543.913 143.702C542.779 142.284 541.078 140.157 539.66 137.464C538.242 134.77 533.422 125.556 535.549 114.356C536.258 110.387 537.25 105.141 541.786 101.455C542.637 100.747 546.465 97.9112 551.852 97.9112C556.247 97.9112 559.224 99.896 562.201 101.881C564.469 103.44 568.438 105.85 571.699 110.954C572.266 109.678 572.833 108.685 574.109 107.126C574.534 106.559 575.101 105.992 575.527 105.567C575.668 104.574 575.952 102.873 576.944 101.172C578.929 97.9112 582.331 96.9189 583.466 96.6354C589.278 94.9342 594.665 98.053 596.933 99.4707C598.776 100.463 601.612 102.59 604.163 106.134C606.999 107.977 610.118 110.387 613.095 113.08C614.37 114.214 615.505 115.348 616.639 116.483C617.489 115.207 618.482 113.505 619.899 111.946C621.175 110.528 622.309 109.536 623.443 108.685C623.869 107.835 624.719 106.417 626.421 105.141C626.846 104.858 629.256 103.157 632.517 103.44C635.919 103.724 638.045 105.85 639.605 107.268C641.448 108.969 642.44 110.67 642.865 111.379C648.536 120.877 647.544 117.9 650.946 124.421C653.214 128.816 653.356 129.525 659.736 143.418C663.138 150.79 662.996 150.365 663.988 152.775C667.249 160.146 669.659 166.668 671.502 172.196C673.629 175.032 675.188 177.442 676.322 179.427C677.74 181.978 678.59 183.396 679.157 185.664C679.441 186.657 679.866 189.067 680.575 193.745C681 196.297 681 196.155 681 197.005C681.709 201.258 682.418 204.377 682.702 205.511C683.836 210.331 683.694 212.741 685.962 227.91C687.096 235.282 687.663 238.401 688.656 242.087C689.365 244.781 689.79 246.056 690.924 249.742C693.334 257.539 694.752 262.218 695.744 265.904C697.303 272.425 697.445 277.528 697.587 284.191C697.729 289.72 697.445 294.966 695.035 315.522C693.334 329.273 692.625 336.078 691.491 343.733C690.215 353.09 689.223 358.335 688.797 366.983C688.514 371.094 688.514 374.78 688.514 382.01C688.514 398.738 689.223 404.55 689.648 407.528C690.215 411.213 691.066 415.75 693.05 421.137C693.618 422.696 694.185 423.972 694.61 424.965C647.118 424.823 598.918 425.106 550.718 425.248Z" fill="#445272"/>
<path d="M550.718 425.251C538.242 406.538 528.035 394.629 520.522 383.855C511.165 370.387 506.487 363.583 503.084 357.912C498.123 349.69 496.847 346.429 492.168 340.9C489.191 337.356 486.498 334.804 483.237 329.417C481.678 326.724 479.693 323.463 478.417 318.785C477.425 314.957 477.708 312.689 477.708 306.026C477.708 304.608 477.85 293.55 477.141 283.91C477 280.792 476.432 277.106 475.582 269.734C474.448 259.668 473.597 255.557 473.03 247.618C472.747 243.649 472.605 240.53 472.463 238.545C472.179 236.844 471.896 234.859 472.038 232.449C472.321 228.763 473.314 225.928 474.589 222.809C476.149 218.982 478.559 214.02 481.678 208.207C481.961 207.215 482.528 205.797 483.521 204.38C484.23 203.104 485.08 202.112 485.789 201.403C485.647 195.59 485.789 189.069 486.64 181.697C487.207 176.594 488.057 172.057 489.05 167.804C489.617 167.662 490.325 167.662 491.034 167.662C491.743 167.662 492.452 167.662 493.019 167.804C494.295 167.521 496.138 167.095 498.123 167.237C502.801 167.521 506.061 169.647 507.479 170.781" stroke="#697695" stroke-width="2" stroke-miterlimit="10"/>
<path d="M544.764 148.948C544.623 147.105 544.623 145.404 544.481 143.561C543.347 142.143 541.646 140.017 540.228 137.323C538.81 134.63 533.99 125.415 536.117 114.215C536.826 110.246 537.818 105.001 542.354 101.315C543.205 100.606 547.033 97.7706 552.42 97.7706C556.814 97.7706 559.792 99.7553 562.769 101.74C565.037 103.299 569.006 105.71 572.267 110.813C572.834 109.537 573.401 108.545 574.677 106.985C575.102 106.418 575.669 105.851 576.095 105.426C576.236 104.434 576.52 102.732 577.512 101.031C579.497 97.7706 582.899 96.7783 584.033 96.4947C589.846 94.7935 595.233 97.9124 597.501 99.33C599.344 100.322 602.18 102.449 604.731 105.993C607.567 107.836 610.685 110.246 613.663 112.94C614.938 114.074 616.073 115.208 617.207 116.342C618.057 115.066 619.05 113.365 620.467 111.805C621.743 110.388 622.877 109.395 624.011 108.545C624.437 107.694 625.287 106.277 626.988 105.001C627.414 104.717 629.824 103.016 633.084 103.299C636.487 103.583 638.613 105.709 640.173 107.127C642.016 108.828 643.008 110.53 643.433 111.238C649.104 120.737 648.112 117.76 651.514 124.281C653.782 128.676 653.924 129.384 660.303 143.277C663.706 150.649 663.564 150.224 664.556 152.634C667.817 160.006 670.227 166.527 672.07 172.056C674.196 174.891 675.756 177.301 676.89 179.286C678.308 181.838 679.158 183.255 679.725 185.524C680.009 186.516 680.434 188.926 681.143 193.604C681.568 196.156 681.568 196.014 681.568 196.865C682.277 201.118 682.986 204.237 683.269 205.371C684.404 210.191 684.262 212.601 686.53 227.77C687.664 235.142 688.231 238.26 689.224 241.946C689.932 244.64 690.358 245.916 691.492 249.602C693.902 257.399 695.32 262.077 696.312 265.763C697.871 272.284 698.013 277.388 698.155 284.051C698.297 289.58 698.013 294.825 695.603 315.381C693.902 329.132 693.193 335.937 692.059 343.592C690.783 352.949 689.791 358.194 689.365 366.842C689.082 370.953 689.082 374.639 689.082 381.869C689.082 398.597 689.791 404.41 690.216 407.387C690.783 411.073 691.634 415.609 693.618 420.996C694.185 422.556 694.753 423.832 695.178 424.824" stroke="#697695" stroke-width="2" stroke-miterlimit="10"/>
<path d="M527.469 276.253C526.76 271.717 524.633 267.322 524.066 266.471C524.35 262.785 524.492 257.965 523.641 252.578C522.649 245.632 520.522 240.103 518.679 236.133C519.246 232.306 519.388 226.068 518.254 221.248" stroke="#697695" stroke-width="2" stroke-miterlimit="10"/>
<path d="M586.868 238.686C584.742 235 583.466 231.739 581.056 224.368C578.93 217.705 578.363 213.026 577.37 207.356C574.96 193.605 571.841 184.531 570.282 179.711C567.447 171.206 564.895 165.11 560.358 160.573C557.948 158.163 554.829 155.753 554.829 155.753C551.285 153.06 547.174 150.366 544.764 149.09C543.205 147.531 540.369 145.262 536.116 143.703C534.132 142.994 529.028 141.435 522.79 142.711C521.231 142.994 510.74 145.121 507.054 153.627C505.637 156.887 505.637 160.006 505.637 161.424C505.778 165.818 507.196 169.079 508.047 170.78L508.472 171.489C509.323 175.742 510.173 182.547 510.599 187.65C510.74 188.926 510.882 190.202 510.882 191.478C512.583 196.865 514.568 203.386 516.694 210.9C519.388 220.824 521.089 228.479 521.656 231.172C524.492 244.073 527.327 257.116 528.319 273.986C528.603 278.38 528.603 281.925 528.603 284.193C527.043 288.02 525.626 291.848 524.066 295.676" stroke="#BA6DCD" stroke-width="3" stroke-miterlimit="10" stroke-linecap="round"/>
<path d="M636.06 224.651C634.359 221.532 631.807 216.571 629.397 210.333C627.838 206.363 626.278 200.976 623.443 190.344C623.443 190.344 620.608 180.137 616.78 167.52C614.653 160.857 613.236 156.32 609.55 151.5C608.132 149.657 608.274 150.224 603.029 144.837C594.664 136.331 593.53 134.063 588.71 130.235C586.867 128.818 584.174 126.691 580.488 124.706C579.637 122.438 574.959 113.649 572.407 110.955" stroke="#697695" stroke-width="2" stroke-miterlimit="10"/>
<path d="M671.927 224.934C671.36 224.792 669.801 224.083 668.667 222.24C667.958 220.965 667.816 219.689 667.816 219.122C667.674 216.145 666.824 213.167 666.824 210.049C666.824 203.102 664.697 189.776 662.287 180.561C661.295 176.592 656.616 161.99 656.333 160.572C656.333 160.572 655.624 158.588 655.057 156.319C653.923 152.208 645.275 144.978 637.903 137.181C636.486 135.622 633.367 131.227 628.547 127.257C624.436 123.713 619.332 119.177 615.93 114.924" stroke="#697695" stroke-width="2" stroke-miterlimit="10"/>
<g opacity="0.5">
<path d="M496.705 171.205C497.697 172.056 497.981 173.473 498.264 174.749C498.406 176.025 498.548 177.301 498.548 178.577C498.69 181.129 498.406 183.822 498.122 186.374C497.697 188.926 497.13 191.478 496.138 193.888C495.712 195.163 494.862 196.439 493.87 197.148C492.735 197.999 491.459 198.282 490.184 198.566C491.318 197.999 492.452 197.432 493.302 196.581C494.153 195.731 494.72 194.596 495.004 193.462C495.712 191.052 496.28 188.642 496.563 186.09C496.988 183.539 497.13 181.129 497.272 178.577C497.272 177.301 497.414 176.025 497.414 174.749C497.555 173.473 497.555 172.197 496.705 171.205Z" fill="#B1BBD0"/>
</g>
</svg>
