<svg width="900" height="500" viewBox="0 0 900 500" fill="none" xmlns="http://www.w3.org/2000/svg">
<path opacity="0.33" d="M327.41 430.327C329.284 428.02 337.356 419.659 346.15 410.865C354.943 402.072 372.963 371.078 378.297 364.88C383.631 358.681 397.758 343.4 401.218 335.76C404.677 328.12 400.929 303.613 401.218 295.973C401.506 288.333 405.11 251.861 402.659 242.347C400.209 232.832 396.316 228.94 393.145 222.309C389.973 215.678 389.397 213.66 386.514 211.641C383.631 209.623 385.36 192.324 385.937 189.874C386.514 187.423 388.532 176.323 388.532 172.431C388.532 168.539 388.532 157.439 391.559 149.222C394.586 141.005 392.568 116.354 387.379 108.57C382.189 100.785 378.008 98.9111 371.81 98.4786C365.611 98.0461 358.836 104.101 357.106 107.849C355.376 111.597 353.069 115.057 350.475 145.618C346.871 153.835 339.951 161.042 336.924 170.989C333.897 180.936 325.824 206.019 323.95 216.398C322.076 226.778 311.408 240.905 315.733 233.265C320.058 225.769 319.625 207.317 327.698 182.81C335.771 158.303 334.762 159.889 334.762 158.592C334.762 157.294 339.519 152.826 341.104 142.158C344.132 137.257 350.042 112.894 339.086 105.831C338.942 100.785 335.627 97.3254 326.545 95.8838C317.463 94.4422 314.147 96.7487 312.129 102.371C308.813 103.236 303.768 115.489 302.903 125.58C300.452 127.022 288.632 138.987 286.325 143.455C284.019 147.924 277.532 170.413 276.234 176.179C274.937 181.945 266.576 217.984 264.269 221.3C261.963 224.615 260.954 226.922 262.828 219.858C264.702 212.795 273.351 170.268 277.099 162.628C280.847 154.988 281.28 148.645 291.659 133.797C302.038 118.949 300.597 111.741 298.723 106.984C296.848 102.227 295.407 98.1903 286.613 96.7487C277.82 95.3072 272.774 102.659 272.774 102.659C272.774 102.659 267.441 104.245 254.611 118.084C251.872 112.75 248.124 108.714 248.124 108.714C248.124 108.714 245.385 102.947 237.6 101.794C229.816 100.641 226.644 109.002 226.212 112.029C223.617 112.029 218.283 123.994 216.409 135.959C214.535 148.068 211.508 165.367 208.336 175.602C205.165 185.837 203.147 194.343 202.426 201.839C201.705 209.335 197.669 219.858 196.948 229.661C196.227 239.464 184.839 267.574 184.262 276.512C183.542 285.449 183.974 316.011 183.109 323.074C182.244 330.138 180.947 353.924 183.109 367.619C185.271 381.169 184.262 393.711 181.956 400.486C179.649 407.261 171 429.75 171 429.75H327.41V430.327Z" fill="#E0E1E2"/>
<path d="M327.41 430.327C329.284 428.02 337.356 419.659 346.15 410.865C354.943 402.072 372.963 371.078 378.297 364.88C383.631 358.681 397.758 343.4 401.218 335.76C404.677 328.12 400.929 303.613 401.218 295.973C401.506 288.333 405.11 251.861 402.659 242.347C400.209 232.832 396.316 228.94 393.145 222.309C389.973 215.678 389.397 213.66 386.514 211.641C383.631 209.623 385.36 192.324 385.937 189.874C386.514 187.423 388.532 176.323 388.532 172.431C388.532 168.539 388.532 157.439 391.559 149.222C394.586 141.005 392.568 116.354 387.379 108.57C382.189 100.785 378.008 98.9111 371.81 98.4786C365.611 98.0461 358.836 104.101 357.106 107.849C355.376 111.597 353.069 115.057 350.475 145.618C346.871 153.835 339.951 161.042 336.924 170.989C333.897 180.936 325.824 206.019 323.95 216.398C322.076 226.778 311.408 240.905 315.733 233.265C320.058 225.769 319.625 207.317 327.698 182.81C335.771 158.303 334.762 159.889 334.762 158.592C334.762 157.294 339.519 152.826 341.104 142.158C344.132 137.257 350.042 112.894 339.086 105.831C338.942 100.785 335.627 97.3254 326.545 95.8838C317.463 94.4422 314.147 96.7487 312.129 102.371C308.813 103.236 303.768 115.489 302.903 125.58C300.452 127.022 288.632 138.987 286.325 143.455C284.019 147.924 277.532 170.413 276.234 176.179C274.937 181.945 266.576 217.984 264.269 221.3C261.963 224.615 260.954 226.922 262.828 219.858C264.702 212.795 273.351 170.268 277.099 162.628C280.847 154.988 281.28 148.645 291.659 133.797C302.038 118.949 300.597 111.741 298.723 106.984C296.848 102.227 295.407 98.1903 286.613 96.7487C277.82 95.3072 272.774 102.659 272.774 102.659C272.774 102.659 267.441 104.245 254.611 118.084C251.872 112.75 248.124 108.714 248.124 108.714C248.124 108.714 245.385 102.947 237.6 101.794C229.816 100.641 226.644 109.002 226.212 112.029C223.617 112.029 218.283 123.994 216.409 135.959C214.535 148.068 211.508 165.367 208.336 175.602C205.165 185.837 203.147 194.343 202.426 201.839C201.705 209.335 197.669 219.858 196.948 229.661C196.227 239.464 184.839 267.574 184.262 276.512C183.542 285.449 183.974 316.011 183.109 323.074C182.244 330.138 180.947 353.924 183.109 367.619C185.271 381.169 184.262 393.711 181.956 400.486C179.649 407.261 171 429.75 171 429.75" stroke="#75819C" stroke-width="2" stroke-miterlimit="10"/>
<path d="M212.805 225.912C216.841 221.588 220.157 214.957 220.445 208.037C220.733 201.118 220.012 165.223 229.094 151.528C238.176 137.833 254.754 118.66 254.754 118.66" stroke="#75819C" stroke-width="2" stroke-miterlimit="10"/>
<path d="M373.827 309.957C371.809 306.208 369.358 303.758 369.358 300.875C369.358 297.992 370.944 264.98 372.674 253.159C374.26 241.338 382.332 207.173 385.071 200.109" stroke="#75819C" stroke-width="2" stroke-miterlimit="10"/>
<path opacity="0.33" d="M544.287 429.361C539.069 421.389 534.72 416.751 531.822 413.852C530.517 412.548 525.879 408.055 521.386 404.14C515.878 399.358 512.254 395.154 490.078 364.861C485.294 358.338 482.686 353.411 477.033 347.032C474.134 343.699 471.525 341.09 469.786 339.496C468.916 338.336 467.757 336.742 466.742 334.423C464.713 329.929 464.713 325.871 464.713 323.117C464.568 312.971 464.568 307.753 464.422 306.448C463.553 294.853 459.495 284.127 458.624 282.098C457.755 279.924 456.741 277.315 455.726 273.401C454.567 268.618 454.421 264.415 454.421 261.805C452.682 257.602 451.667 253.979 450.943 251.08C450.363 248.181 449.638 244.558 449.783 239.919C449.783 238.614 450.218 235.86 451.088 230.352C452.537 221.221 452.682 220.062 452.827 218.177C452.972 215.713 452.972 212.09 452.392 207.597C450.653 203.248 449.059 198.32 447.61 192.957C446.595 189.044 445.725 185.13 445 181.652C445.725 181.506 446.595 181.506 447.32 181.362C447.899 180.782 448.769 179.912 450.073 179.188C454.856 176.434 460.364 178.028 463.408 178.898C472.975 181.652 478.337 188.899 479.207 190.058C483.266 195.711 484.28 201.509 485.005 205.133C486.019 210.641 488.338 225.425 488.773 228.613C490.078 237.021 492.107 248.181 492.107 248.181C491.092 228.178 486.744 209.336 484.715 188.609C484.57 182.232 484.57 169.621 484.86 158.171C484.86 155.851 485.005 150.633 485.44 140.343C486.019 124.544 486.164 119.76 487.614 112.948C490.223 101.063 493.412 97.8739 494.861 96.7145C500.223 92.0761 506.601 92.3661 507.471 92.3661C514.139 92.6559 518.487 96.5691 519.936 98.0193C523.56 101.497 524.865 105.411 526.024 109.18C528.053 115.702 527.763 120.775 527.329 129.472C527.039 133.965 526.604 142.082 526.024 153.243C526.894 156.141 528.198 160.345 529.793 165.562C532.691 175.709 535.155 184.55 536.894 195.422C538.199 203.828 537.62 203.973 539.214 216.873C540.373 226.439 541.678 234.267 542.692 239.194C543.272 240.499 543.852 241.658 544.432 242.963C545.446 242.238 546.461 241.658 547.62 240.934C545.302 229.193 543.562 219.192 542.112 211.655C539.648 197.596 538.054 189.044 536.46 177.159C535.735 171.216 535.591 170.491 534.43 160.345C532.837 146.865 532.112 143.386 530.517 130.052C526.458 97.0044 529.793 113.962 528.778 106.715C528.633 105.7 528.343 103.817 528.778 101.208C530.083 94.2503 536.17 90.3368 536.605 90.047C543.127 85.8435 551.244 87.1481 556.607 90.1919C557.767 90.7717 563.129 93.9605 565.303 99.9027C565.593 100.483 566.029 102.947 566.898 107.73C568.203 114.542 568.203 114.833 568.493 116.137C569.362 119.76 570.522 122.659 572.841 128.022C577.044 137.734 578.349 138.604 579.798 144.256C580.522 146.865 580.233 146.865 581.247 152.228C581.393 153.243 583.857 164.693 584.291 164.693C584.581 164.693 584.147 159.33 581.393 138.458C578.059 132.806 575.74 127.878 574.29 124.398C570.957 116.716 570.667 114.108 570.522 112.803C570.232 107.005 572.551 102.222 574.145 99.6129C574.435 98.599 575.014 97.0044 576.319 95.5548C580.233 91.0616 587.045 91.9312 588.06 92.0761C592.553 92.6559 595.452 95.12 598.786 98.0193C601.54 100.338 605.888 104.831 609.367 111.933C610.816 114.833 612.266 117.731 613.715 120.631L613.86 120.485C613.57 118.456 612.41 112.803 613.28 109.759C613.57 108.454 615.454 102.077 621.687 99.0332C628.789 95.6998 636.761 99.3231 640.675 103.382C641.255 103.961 641.979 105.121 643.428 107.151C646.182 111.354 648.356 115.413 650.386 119.616C652.125 123.239 654.444 128.602 656.908 136.574C659.952 146.14 658.938 145.561 662.416 157.591C665.46 168.316 667.2 171.651 668.503 180.203C669.084 183.971 669.374 186.87 669.808 190.204C670.533 197.596 670.533 201.364 670.823 211.51C671.113 222.38 671.257 227.744 671.837 231.947C672.852 240.789 674.447 246.586 675.462 250.5C677.49 259.197 679.375 272.387 678.07 290.794C678.36 294.129 678.795 299.056 679.229 305.143C679.519 309.782 680.389 324.856 680.389 349.207C680.389 367.035 679.955 372.108 680.969 384.283C681.839 394.865 682.853 399.793 683.288 401.822C686.042 414.142 690.681 423.564 694.304 429.941C644.153 429.506 594.292 429.361 544.287 429.361Z" fill="#E0E1E2"/>
<path d="M671.259 223.975C671.404 227.164 671.549 229.628 671.838 231.657C672.853 240.498 674.448 246.296 675.462 250.21C677.492 258.906 679.376 272.097 678.071 290.505C678.361 293.838 678.796 298.767 679.231 304.854C679.521 309.493 680.39 324.566 680.39 348.916C680.39 366.745 679.956 371.818 680.97 383.994C681.839 394.574 682.854 399.503 683.29 401.531C686.044 413.852 690.682 423.273 694.305 429.651" stroke="#75819C" stroke-width="2" stroke-miterlimit="10"/>
<path d="M614.007 119.18C613.716 117.151 612.557 112.513 613.426 109.469C613.716 108.164 615.6 101.787 621.833 98.7429C628.936 95.4095 636.908 99.0328 640.821 103.092C641.401 103.671 642.125 104.831 643.575 106.86C646.329 111.064 648.503 115.122 650.532 119.325C652.271 122.949 654.591 128.312 657.055 136.283C660.099 145.85 659.084 145.27 662.563 157.301C665.607 168.027 667.346 171.361 668.651 179.912C669.23 183.68 669.52 186.58 669.954 189.913C670.68 197.306 670.68 201.073 670.969 211.22C671.115 216.583 671.259 220.641 671.405 223.975" stroke="#F69AED" stroke-width="3" stroke-miterlimit="10" stroke-linecap="round"/>
<path d="M490.802 329.059C490.512 325.726 490.512 320.652 492.106 314.854C492.541 313.26 493.12 311.81 493.7 310.361C495.15 306.882 495.44 303.259 495.005 299.635C494.86 298.91 494.86 298.041 494.715 297.171C493.845 281.083 493.845 256.877 492.106 246.73" stroke="#75819C" stroke-width="2" stroke-miterlimit="10"/>
<path d="M597.337 226.872C592.408 216.871 590.814 208.899 590.09 203.392C589.8 200.927 589.365 195.275 589.22 192.666C588.495 183.1 588.495 181.505 588.06 178.026C587.48 174.693 586.466 169.764 584.292 163.822" stroke="#75819C" stroke-width="2" stroke-miterlimit="10"/>
<path d="M636.182 221.221C636.761 208.901 636.327 198.465 635.602 190.639C635.022 183.101 634.443 175.274 631.978 164.984C631.399 162.52 629.804 155.997 626.906 147.589C624.586 140.922 618.788 129.617 613.57 120.195" stroke="#75819C" stroke-width="2" stroke-miterlimit="10"/>
<g opacity="0.5">
<path d="M456.597 207.594C458.336 205.999 459.641 203.971 459.206 201.652C459.061 199.332 458.771 197.014 458.336 194.694C458.191 193.534 458.046 192.375 457.756 191.216C457.612 190.056 457.322 188.896 456.887 187.882C456.597 186.867 455.873 185.852 455.148 184.983C454.423 184.113 453.553 183.389 452.538 182.664C454.712 183.679 456.742 185.128 457.902 187.447C458.917 189.767 459.351 192.085 459.786 194.404C460.076 196.724 460.366 199.188 460.366 201.506C460.366 202.086 460.366 202.666 460.22 203.391C460.076 204.116 459.786 204.55 459.351 205.13C458.481 206.145 457.612 207.014 456.597 207.594Z" fill="#75819C"/>
</g>
<g opacity="0.5">
<path d="M621.107 105.846C621.107 107.44 622.267 108.744 623.136 110.049C624.007 111.354 625.166 112.513 626.036 113.818C627.051 115.122 628.065 116.282 629.225 116.862C630.529 117.586 631.978 117.731 633.572 117.731C635.167 117.731 636.616 117.586 638.211 117.296C638.936 117.151 639.805 117.006 640.529 116.716C641.255 116.572 641.98 116.282 642.559 115.992C642.849 115.847 642.849 115.847 642.849 115.412C642.849 115.122 642.704 114.687 642.559 114.397C642.27 113.672 641.834 112.948 641.544 112.223C640.82 110.774 640.24 109.325 639.516 107.875C640.53 109.179 641.255 110.629 642.124 111.933C642.559 112.658 642.994 113.238 643.429 113.962C643.574 114.397 643.864 114.687 643.864 115.267C643.864 115.557 643.864 115.847 643.719 116.136C643.574 116.426 643.283 116.716 643.139 116.716C641.544 117.731 640.095 118.021 638.356 118.456C636.762 118.746 635.167 119.036 633.428 119.036C631.833 119.036 629.949 118.89 628.5 117.876C626.905 117.006 625.89 115.557 624.876 114.252C624.007 112.948 622.992 111.643 622.267 110.194C621.832 109.469 621.543 108.744 621.253 107.875C621.107 107.585 620.818 106.715 621.107 105.846Z" fill="#75819C"/>
</g>
<path d="M544.287 429.361C539.069 421.389 534.72 416.751 531.822 413.852C530.517 412.548 525.879 408.055 521.386 404.14C515.878 399.358 512.254 395.154 490.078 364.861C485.294 358.338 482.686 353.411 477.033 347.032C474.134 343.699 471.525 341.09 469.786 339.496C468.916 338.336 467.757 336.742 466.742 334.423C464.713 329.929 464.713 325.871 464.713 323.117C464.568 312.971 464.568 307.753 464.422 306.448C463.553 294.853 459.495 284.127 458.624 282.098C457.755 279.924 456.741 277.315 455.726 273.401C454.567 268.618 454.421 264.415 454.421 261.805C452.682 257.602 451.667 253.979 450.943 251.08C450.363 248.181 449.638 244.558 449.783 239.919C449.783 238.614 450.218 235.86 451.088 230.352C452.537 221.221 452.682 220.062 452.827 218.177C452.972 215.713 452.972 212.09 452.392 207.597C450.653 203.248 449.059 198.32 447.61 192.957C446.595 189.044 445.725 185.13 445 181.652C445.725 181.506 446.595 181.506 447.32 181.362C447.899 180.782 448.769 179.912 450.073 179.188C454.856 176.434 460.364 178.028 463.408 178.898C472.975 181.652 478.337 188.899 479.207 190.058C483.266 195.711 484.28 201.509 485.005 205.133C486.019 210.641 488.338 225.425 488.773 228.613C490.078 237.021 492.107 248.181 492.107 248.181C491.092 228.178 486.744 209.336 484.715 188.609C484.57 182.232 484.57 169.621 484.86 158.171C484.86 155.851 485.005 150.633 485.44 140.343C486.019 124.544 486.164 119.76 487.614 112.948C490.223 101.063 493.412 97.8739 494.861 96.7145C500.223 92.0761 506.601 92.3661 507.471 92.3661C514.139 92.6559 518.487 96.5691 519.936 98.0193C523.56 101.497 524.865 105.411 526.024 109.18C528.053 115.702 527.763 120.775 527.329 129.472C527.039 133.965 526.604 142.082 526.024 153.243C526.894 156.141 528.198 160.345 529.792 165.562C532.691 175.709 535.155 184.55 536.894 195.422C538.199 203.828 537.62 203.973 539.214 216.873C540.373 226.439 541.678 234.267 542.692 239.194C543.272 240.499 543.852 241.658 544.432 242.963C545.446 242.238 546.461 241.658 547.62 240.934C545.302 229.193 543.562 219.192 542.112 211.655C539.648 197.596 538.054 189.044 536.46 177.159C535.735 171.216 535.591 170.491 534.43 160.345C532.837 146.865 532.112 143.386 530.517 130.052C526.458 97.0044 529.793 113.962 528.778 106.715C528.633 105.7 528.343 103.817 528.778 101.208C530.083 94.2503 536.17 90.3368 536.605 90.047C543.127 85.8435 551.244 87.1481 556.607 90.1919C557.767 90.7717 563.129 93.9605 565.303 99.9027C565.593 100.483 566.029 102.947 566.898 107.73C568.203 114.542 568.203 114.833 568.493 116.137C569.362 119.76 570.522 122.659 572.841 128.022C577.044 137.734 578.349 138.604 579.798 144.256C580.522 146.865 580.233 146.865 581.247 152.228C581.393 153.243 583.857 164.693 584.291 164.693C584.581 164.693 584.147 159.33 581.393 138.458C578.058 132.806 575.74 127.878 574.29 124.398C570.957 116.716 570.667 114.108 570.522 112.803C570.232 107.005 572.551 102.222 574.145 99.6129C574.435 98.599 575.014 97.0044 576.319 95.5548C580.233 91.0616 587.045 91.9312 588.06 92.0761C592.553 92.6559 595.452 95.12 598.786 98.0193C601.54 100.338 605.888 104.831 609.367 111.933C610.816 114.833 612.265 117.731 613.715 120.631L613.86 120.485" stroke="#75819C" stroke-width="2" stroke-miterlimit="10"/>
</svg>
