<svg width="900" height="500" viewBox="0 0 900 500" fill="none" xmlns="http://www.w3.org/2000/svg">
<path opacity="0.33" d="M512.283 419.258C501.388 408.582 492.069 399.592 484.471 392.287C473.432 381.611 467.841 376.273 466.407 375.009C458.952 368.828 453.934 366.018 448.343 358.573C446.336 356.045 443.469 352.252 441.462 346.493C439.598 341.435 439.311 337.783 438.594 328.793C437.734 318.819 437.304 313.762 436.874 309.267C435.584 297.046 434.724 290.162 432.143 281.172C430.853 276.958 429.849 274.289 428.989 269.091C428.272 264.877 427.412 259.82 428.559 253.779C429.132 250.83 429.706 249.987 431.283 244.649C433.003 238.889 434.15 234.113 434.867 231.023C434.007 228.494 433.003 224.982 432 220.628C431.139 217.256 430.566 214.868 430.136 211.778C429.706 208.687 429.276 204.192 429.419 198.714C430.566 198.433 431.569 198.011 432.716 197.73C433.863 197.309 435.727 196.606 438.021 196.185C439.885 195.904 446.193 194.78 451.354 198.011C452.501 198.714 452.787 199.275 455.511 202.366C462.679 210.654 462.536 209.811 464.113 212.059C468.988 218.661 470.564 225.263 471.425 229.056C472.715 234.535 472.715 238.889 472.858 243.806C472.858 248.582 472.572 252.515 472.285 255.465C471.855 256.449 471.425 257.572 470.851 258.556C471.281 259.398 471.711 260.241 472.141 261.084C473.002 262.208 473.862 263.472 474.722 264.877C477.589 269.794 478.163 274.57 478.306 277.66C478.306 281.593 479.166 284.262 479.883 285.948C480.457 287.212 481.03 288.055 484.614 293.253C486.048 295.219 487.195 296.905 488.055 298.169C488.485 295.641 489.058 291.848 489.489 287.353C489.919 282.717 490.062 277.098 489.202 263.472C488.772 256.589 488.485 250.97 487.625 242.682C485.904 226.668 484.471 221.189 483.037 210.654C481.03 194.921 480.17 185.649 481.604 173.99C481.89 171.181 482.607 167.107 483.181 160.224C483.897 151.795 483.754 149.407 484.327 142.524C485.188 130.864 485.618 124.965 487.912 118.081C490.205 110.777 492.643 103.332 499.667 100.101C504.112 97.9935 508.556 98.4149 509.273 98.5554C514.864 99.2578 518.448 102.489 519.452 103.472C522.606 106.422 523.896 109.653 524.613 111.9C526.046 115.974 526.476 119.767 526.046 127.353C525.473 136.343 524.613 137.888 524.039 144.771C523.179 154.324 524.039 161.769 524.613 166.124C525.616 174.131 526.476 174.692 529.057 187.757C530.204 193.656 530.921 198.573 532.354 208.406C533.358 215.43 534.648 224.561 535.938 235.518C537.515 235.518 539.092 235.377 540.669 235.377C539.809 229.899 538.519 222.173 537.085 212.621C534.792 197.59 533.645 190.004 533.071 180.592C532.211 167.809 531.781 159.943 533.645 151.795C534.075 150.109 534.935 146.457 535.508 141.26C536.225 135.36 535.652 134.798 536.225 129.179C537.085 120.048 539.379 114.289 539.953 112.743C541.53 108.81 542.533 106.281 545.114 103.753C546.404 102.348 549.988 98.9768 555.723 98.134C561.314 97.4316 565.615 99.6792 566.905 100.522C571.493 103.051 573.643 106.843 574.36 108.248C575.937 111.058 576.224 113.446 576.797 116.817C577.514 121.874 577.371 125.807 577.227 127.212C576.941 133.814 577.371 140.417 577.371 146.879C577.227 159.24 578.804 170.338 580.955 185.93C582.245 195.764 584.252 207.704 587.263 221.189C589.7 222.032 592.28 222.875 594.718 223.718C596.295 219.785 598.302 213.885 599.449 206.58C600.452 199.697 600.309 194.499 599.879 185.649C599.305 173.288 597.872 164.016 597.442 161.769C595.865 151.936 594.718 145.333 591.85 136.624C590.56 132.691 588.696 127.774 587.836 120.61C587.263 115.272 587.549 111.76 588.84 108.529C589.7 106.281 590.99 102.91 594.431 100.803C600.596 97.1506 608.337 101.084 609.054 101.505C612.208 103.191 613.785 105.439 617.082 109.793C620.953 114.991 623.247 119.627 623.964 121.172C625.828 124.965 626.401 126.931 630.989 142.243C634.573 154.043 636.437 159.943 637.01 161.347C637.727 162.893 639.017 165.843 640.021 170.057C641.024 174.131 641.168 177.221 641.168 179.047C641.598 191.83 641.741 198.292 641.598 202.787C641.311 211.216 640.594 222.594 638.874 236.642C639.734 236.782 640.881 237.063 642.314 237.063C643.748 237.063 645.468 236.923 647.189 236.22C649.483 235.377 651.06 234.113 653.353 231.865C658.371 226.949 661.238 222.173 661.525 221.751C663.962 217.818 667.977 212.34 674.285 205.878C676.292 201.523 678.586 196.887 681.166 192.111C684.033 186.773 687.044 181.857 689.911 177.361C689.911 175.957 689.911 173.85 690.055 171.181C690.341 163.174 690.341 159.24 690.915 156.431C691.632 153.2 693.065 145.895 699.23 140.979C701.094 139.433 706.398 135.079 713.566 136.062C719.874 136.905 723.602 141.4 724.462 142.664C724.605 146.457 724.605 150.39 724.749 154.324C724.892 161.066 724.892 167.809 724.749 174.412C724.462 176.238 724.175 178.064 723.889 179.89C720.878 193.516 713.423 215.149 708.405 226.949C705.538 233.692 700.664 244.227 694.929 253.499C693.209 256.168 691.918 258.275 691.918 258.275C686.614 266.141 684.32 268.108 681.309 273.024C678.299 277.941 676.722 282.296 676.148 284.122C672.994 293.815 675.432 296.624 671.991 305.334C671.417 306.879 670.27 309.407 669.554 313.2C668.98 316.431 668.98 318.819 668.98 320.364C668.98 331.181 669.697 336.659 669.697 344.807C669.697 346.633 669.554 349.162 669.267 354.219C668.693 363.63 668.407 368.407 667.69 373.885C666.543 382.454 665.683 382.173 665.109 388.775C664.679 393.411 664.249 398.047 665.396 403.947C666.113 407.599 667.546 413.218 671.704 419.68C618.229 419.399 565.328 419.258 512.283 419.258Z" fill="#697695"/>
<path d="M512.283 419.258C501.388 408.582 492.069 399.592 484.471 392.287C473.432 381.611 467.841 376.273 466.407 375.009C458.952 368.828 453.934 366.018 448.343 358.573C446.336 356.045 443.469 352.252 441.462 346.493C439.598 341.435 439.311 337.783 438.594 328.793C437.734 318.819 437.304 313.762 436.874 309.267C435.584 297.046 434.724 290.162 432.143 281.172C430.853 276.958 429.849 274.289 428.989 269.091C428.272 264.877 427.412 259.82 428.559 253.779C429.132 250.83 429.706 249.987 431.283 244.649C433.003 238.889 434.15 234.113 434.867 231.023C434.007 228.494 433.003 224.982 432 220.628C431.139 217.256 430.566 214.868 430.136 211.778C429.706 208.687 429.276 204.192 429.419 198.714C430.566 198.433 431.569 198.011 432.716 197.73C433.863 197.309 435.727 196.606 438.021 196.185C439.885 195.904 446.193 194.78 451.354 198.011C452.501 198.714 452.787 199.275 455.511 202.366C462.679 210.654 462.536 209.811 464.113 212.059C468.988 218.661 470.564 225.263 471.425 229.056C472.715 234.535 472.715 238.889 472.858 243.806C472.858 248.582 472.572 252.515 472.285 255.465C471.855 256.449 471.425 257.572 470.851 258.556C471.281 259.398 471.711 260.241 472.141 261.084C473.002 262.208 473.862 263.472 474.722 264.877C477.589 269.794 478.163 274.57 478.306 277.66C478.306 281.593 479.166 284.262 479.883 285.948C480.457 287.212 481.03 288.055 484.614 293.253C486.048 295.219 487.195 296.905 488.055 298.169C488.485 295.641 489.058 291.848 489.489 287.353C489.919 282.717 490.062 277.098 489.202 263.472C488.772 256.589 488.485 250.97 487.625 242.682C485.904 226.668 484.471 221.189 483.037 210.654C481.03 194.921 480.17 185.649 481.604 173.99C481.89 171.181 482.607 167.107 483.181 160.224C483.897 151.795 483.754 149.407 484.327 142.524C485.188 130.864 485.618 124.965 487.912 118.081C490.205 110.777 492.643 103.332 499.667 100.101C504.112 97.9935 508.556 98.4149 509.273 98.5554C514.864 99.2578 518.448 102.489 519.452 103.472C522.606 106.422 523.896 109.653 524.613 111.9C526.046 115.974 526.476 119.767 526.046 127.353C525.473 136.343 524.613 137.888 524.039 144.771C523.179 154.324 524.039 161.769 524.613 166.124C525.616 174.131 526.476 174.692 529.057 187.757C530.204 193.656 530.921 198.573 532.354 208.406C533.358 215.43 534.648 224.561 535.938 235.518C537.515 235.518 539.092 235.377 540.669 235.377C539.809 229.899 538.519 222.173 537.085 212.621C534.792 197.59 533.645 190.004 533.071 180.592C532.211 167.809 531.781 159.943 533.645 151.795C534.075 150.109 534.935 146.457 535.508 141.26C536.225 135.36 535.652 134.798 536.225 129.179C537.085 120.048 539.379 114.289 539.953 112.743C541.53 108.81 542.533 106.281 545.114 103.753C546.404 102.348 549.988 98.9768 555.723 98.134C561.314 97.4316 565.615 99.6792 566.905 100.522C571.493 103.051 573.643 106.843 574.36 108.248C575.937 111.058 576.224 113.446 576.797 116.817C577.514 121.874 577.371 125.807 577.227 127.212C576.941 133.814 577.371 140.417 577.371 146.879C577.227 159.24 578.804 170.338 580.955 185.93C582.245 195.764 584.252 207.704 587.263 221.189C589.7 222.032 592.28 222.875 594.718 223.718C596.295 219.785 598.302 213.885 599.449 206.58C600.452 199.697 600.309 194.499 599.879 185.649C599.305 173.288 597.872 164.016 597.442 161.769C595.865 151.936 594.718 145.333 591.85 136.624C590.56 132.691 588.696 127.774 587.836 120.61C587.263 115.272 587.549 111.76 588.84 108.529C589.7 106.281 590.99 102.91 594.431 100.803C600.596 97.1506 608.337 101.084 609.054 101.505C612.208 103.191 613.785 105.439 617.082 109.793C620.953 114.991 623.247 119.627 623.964 121.172C625.828 124.965 626.401 126.931 630.989 142.243C634.573 154.043 636.436 159.943 637.01 161.347C637.727 162.893 639.017 165.843 640.021 170.057C641.024 174.131 641.168 177.221 641.168 179.047C641.598 191.83 641.741 198.292 641.598 202.787C641.311 211.216 640.594 222.594 638.874 236.642C639.734 236.782 640.881 237.063 642.314 237.063" stroke="#445272" stroke-width="2" stroke-miterlimit="10"/>
<path d="M681.167 272.744C678.156 277.661 676.579 282.015 676.006 283.842C672.852 293.534 675.289 296.344 671.848 305.053C671.275 306.598 670.128 309.127 669.411 312.92C668.838 316.151 668.838 318.539 668.838 320.084C668.838 330.901 669.554 336.379 669.554 344.527C669.554 346.353 669.411 348.881 669.124 353.938C668.551 363.35 668.264 368.126 667.547 373.605C666.4 382.174 665.54 381.893 664.967 388.495C664.537 393.131 664.107 397.766 665.254 403.666C665.97 407.319 667.404 412.937 671.562 419.399" stroke="#445272" stroke-width="2" stroke-miterlimit="10"/>
<path d="M642.458 236.783C643.892 236.783 645.612 236.642 647.332 235.94C649.626 235.097 651.203 233.833 653.497 231.585C658.515 226.669 661.382 221.892 661.669 221.471C664.106 217.538 668.12 212.059 674.428 205.597C676.435 201.243 678.729 196.607 681.31 191.831C684.177 186.493 687.188 181.576 690.055 177.081C690.055 175.676 690.055 173.569 690.198 170.9C690.485 162.893 690.485 158.96 691.058 156.15C691.775 152.92 693.209 145.615 699.373 140.698C701.237 139.153 706.542 134.798 713.71 135.782C720.018 136.625 723.745 141.12 724.606 142.384C724.749 146.177 724.749 150.11 724.892 154.043C725.036 160.786 725.036 167.529 724.892 174.131C724.606 175.957 724.319 177.783 724.032 179.61C721.021 193.236 713.567 214.869 708.549 226.669C705.681 233.411 700.807 243.947 695.073 253.218C693.352 255.887 692.062 257.994 692.062 257.994C686.757 265.861 684.464 267.828 681.453 272.744" stroke="#BA6DCD" stroke-width="3" stroke-miterlimit="10" stroke-linecap="round"/>
<g opacity="0.5">
<path d="M708.119 141.119C708.119 143.507 708.119 146.036 708.119 148.424C708.262 150.812 708.405 153.2 708.835 155.588C708.979 156.15 709.122 156.712 709.266 157.274C709.409 157.836 709.552 158.257 709.982 158.678C710.699 159.521 711.703 160.083 712.706 160.645C714.857 161.769 717.151 162.471 719.588 162.752C717.151 163.033 714.57 162.612 712.133 161.628C710.986 161.207 709.839 160.505 708.835 159.521C708.405 159.1 707.975 158.257 707.832 157.695C707.689 157.133 707.545 156.431 707.402 155.869C706.972 153.481 706.828 150.952 706.972 148.564C707.115 145.895 707.545 143.367 708.119 141.119Z" fill="#B1BBD0"/>
</g>
<g opacity="0.5">
<path d="M439.024 228.214C440.027 227.371 440.601 226.388 440.887 225.264C441.174 224.14 441.174 223.016 441.174 221.893C441.174 220.769 441.031 219.505 440.887 218.381L440.6 214.869C440.457 212.481 440.314 210.093 439.74 207.845C439.454 206.721 439.167 205.598 438.593 204.474C438.163 203.491 437.447 202.507 436.156 201.945C437.447 202.086 438.45 203.069 439.167 204.052C439.884 205.176 440.314 206.3 440.744 207.424C441.461 209.812 441.747 212.2 441.891 214.588C442.034 216.976 442.321 219.364 442.178 221.893C442.178 223.157 441.891 224.421 441.461 225.545C441.031 226.669 440.17 227.652 439.024 228.214Z" fill="#B1BBD0"/>
</g>
<path opacity="0.33" d="M200.756 187.949C213.248 184.517 222.994 171.064 226.975 164.063C230.956 156.925 233.702 143.335 235.898 135.236C238.094 127.274 243.585 114.645 245.37 109.978C247.154 105.311 246.056 104.624 247.292 100.781C247.703 99.4079 250.586 94.3288 254.155 88.2888C251.684 90.3479 244.546 93.0934 240.016 92.2698C235.486 91.4461 224.23 94.4661 216.542 99.2706C208.718 104.075 199.658 100.918 194.03 109.292C188.402 117.528 186.343 135.511 185.931 137.021C180.44 139.08 169.184 139.08 164.928 146.63C160.535 154.317 162.183 155.141 160.261 159.259C158.339 163.377 155.731 170.103 155.594 176.143C155.456 182.183 156.005 207.167 154.495 212.109C152.985 217.05 148.318 229.817 147.769 236.543C147.22 243.269 147.494 271.273 146.259 278.96C145.024 286.647 142.964 327.143 142.69 332.496C142.415 337.85 136.787 355.421 131.983 370.109C127.178 384.797 114 413.075 114 413.075H273.373C286.689 393.171 316.477 369.697 334.871 353.636C353.266 337.576 370.562 322.75 374.955 315.612C379.348 308.474 380.583 289.118 385.388 277.038C390.192 265.096 390.878 256.997 394.31 248.76C397.742 240.524 401.037 229.954 401.448 226.11C401.86 222.129 404.194 219.933 405.567 217.462C406.939 214.991 420.941 197.146 420.392 189.047C419.843 181.085 409.959 177.79 401.586 179.575C393.212 181.36 384.289 186.439 375.229 195.087C366.169 203.735 359.718 217.188 359.718 222.541C359.718 227.895 355.462 229.268 350.383 244.779C345.304 260.291 345.304 260.291 339.95 263.998C334.734 267.704 335.146 270.038 331.989 260.84C328.831 251.643 328.282 240.112 328.008 236.269C327.733 232.425 330.616 233.386 331.989 224.463C333.361 215.54 334.048 206.618 339.676 191.243C345.167 175.869 351.207 169.554 358.757 156.376C366.307 143.198 370.837 131.667 372.209 129.608C373.582 127.549 387.584 116.292 384.152 105.311C380.72 94.3288 361.365 88.7007 353.266 94.3288C345.167 99.957 350.932 100.918 335.558 110.527C320.183 120.136 297.121 168.456 294.376 170.79C291.631 173.123 284.081 172.574 284.355 165.985C284.63 159.259 294.101 130.569 295.886 120.548C297.67 110.39 295.749 104.899 301.789 94.0543C307.829 83.2098 306.73 74.6989 307.966 68.6589C309.201 62.6189 310.711 53.1471 310.3 42.5771C309.888 32.0072 305.22 27.4772 303.848 26.1044C302.475 24.7317 297.808 17.5936 286.414 20.0645C275.021 22.5354 275.57 38.0472 275.295 40.1062C275.021 42.0281 272.961 43.1262 271.589 47.5189C270.216 51.9117 271.314 57.6771 270.353 60.8344C269.392 63.9916 248.939 97.3488 247.566 101.192C246.193 105.036 247.429 105.86 245.644 110.39C243.86 114.92 238.369 127.549 236.172 135.648C233.976 143.61 231.231 157.337 227.25 164.475C222.994 171.064 213.248 184.517 200.756 187.949Z" fill="#697695"/>
<path d="M273.236 412.939C286.552 393.034 316.34 369.561 334.734 353.5C353.129 337.439 370.425 322.613 374.818 315.475C379.21 308.337 380.446 288.982 385.25 276.902C390.055 264.959 390.741 256.86 394.173 248.624C397.605 240.387 400.899 229.817 401.311 225.974C401.723 221.993 404.057 219.796 405.429 217.325C406.802 214.855 420.804 197.009 420.255 188.91C419.706 180.948 409.822 177.654 401.449 179.438C393.075 181.223 384.152 186.302 375.092 194.95C366.032 203.598 359.58 217.051 359.58 222.405C359.58 227.758 355.325 229.131 350.246 244.643C345.167 260.154 345.167 260.154 339.813 263.861C334.597 267.567 335.009 269.901 331.851 260.704C328.694 251.506 328.145 239.975 327.871 236.132C327.596 232.288 330.479 233.249 331.851 224.326C333.224 215.404 333.911 206.481 339.539 191.106C345.03 175.732 351.07 169.417 358.62 156.239C366.17 143.061 370.7 131.53 372.072 129.471C373.445 127.412 387.447 116.156 384.015 105.174C380.583 94.1921 361.228 88.5639 353.129 94.1921C345.03 99.8203 350.795 100.781 335.421 110.39C320.046 119.999 296.984 168.319 294.239 170.653C291.493 172.986 283.943 172.437 284.218 165.848C284.492 159.122 293.964 130.432 295.749 120.411C297.533 110.253 295.612 104.762 301.652 93.9176C307.691 83.073 306.593 74.5622 307.829 68.5222C309.064 62.4822 310.574 53.0104 310.162 42.4404C309.751 31.8704 305.083 27.3404 303.711 25.9677C302.338 24.595 297.671 17.4568 286.277 19.9277C274.883 22.3986 275.432 37.9104 275.158 39.9695C274.883 41.8913 272.824 42.9895 271.452 47.3822C270.079 51.7749 271.177 57.5404 270.216 60.6977C269.255 63.8549 248.802 97.2121 247.429 101.056C246.056 104.899 247.292 105.723 245.507 110.253C243.723 114.783 238.232 127.412 236.035 135.511C233.839 143.473 231.093 157.2 227.113 164.338C223.132 171.476 213.385 184.792 200.894 188.224" stroke="#445272" stroke-width="2" stroke-miterlimit="10"/>
<path d="M200.756 187.949C213.248 184.517 222.994 171.064 226.975 164.063C230.956 156.925 233.702 143.335 235.898 135.236C238.094 127.274 243.585 114.645 245.37 109.978C247.154 105.311 246.056 104.624 247.292 100.781C247.703 99.4081 250.586 94.329 254.155 88.2891C251.684 90.3481 244.546 93.0936 240.016 92.27C235.486 91.4463 224.23 94.4663 216.542 99.2709C208.718 104.075 199.658 100.918 194.03 109.292C188.402 117.528 186.343 135.511 185.931 137.021C180.44 139.08 169.184 139.08 164.928 146.63C160.535 154.317 162.183 155.141 160.261 159.259C158.339 163.377 155.731 170.103 155.594 176.143C155.456 182.183 156.005 207.167 154.495 212.109C152.985 217.051 148.318 229.817 147.769 236.543C147.22 243.27 147.494 271.273 146.259 278.96C145.024 286.648 142.964 327.143 142.69 332.497C142.415 337.85 136.787 355.421 131.983 370.109C127.178 384.797 114 413.076 114 413.076" stroke="#445272" stroke-width="2" stroke-miterlimit="10"/>
<path d="M251.684 90.0742C249.213 92.1333 244.545 93.0942 240.015 92.2706C235.485 91.447 224.229 94.4669 216.542 99.2715C208.717 104.076 199.657 100.919 194.029 109.292C188.401 117.529 186.342 135.511 185.93 137.021C185.518 138.531 183.459 172.163 181.263 180.399C179.066 188.636 178.106 197.97 167.673 205.383" stroke="#445272" stroke-width="2" stroke-miterlimit="10"/>
<g opacity="0.5">
<path d="M417.372 186.439C415.862 185.341 414.352 184.243 412.568 183.694C411.744 183.419 410.783 183.419 409.959 183.419C409.136 183.557 408.312 183.831 407.488 184.38C405.978 185.341 404.88 186.714 403.782 188.224C402.684 189.734 401.86 191.381 401.174 193.028C400.488 194.676 400.076 196.46 399.938 198.382C399.801 199.343 399.801 200.167 399.664 201.127C399.664 202.088 399.527 202.912 399.664 203.736C399.938 205.383 401.037 207.03 402.272 208.403C402.821 209.227 403.37 209.913 403.919 210.737C404.468 211.56 404.743 212.521 404.88 213.482C404.468 211.56 403.096 210.325 401.86 208.952C400.625 207.579 399.252 206.069 398.703 204.01C398.428 203.049 398.428 201.951 398.566 200.99C398.566 200.029 398.566 199.068 398.703 198.107C398.84 196.186 399.252 194.264 400.076 192.479C400.762 190.695 401.86 189.048 402.958 187.4C404.057 185.89 405.429 184.38 407.214 183.419C408.175 183.008 409.136 182.596 410.097 182.596C411.058 182.596 412.156 182.733 412.979 183.008C414.627 183.831 416.137 185.067 417.372 186.439Z" fill="#B1BBD0"/>
</g>
<path d="M226.975 163.926C230.956 156.788 233.701 143.198 235.897 135.099C238.094 127.137 243.585 114.508 245.369 109.841C247.154 105.174 246.055 104.487 247.291 100.644C248.664 96.8 269.117 63.4428 270.078 60.2855C271.039 57.1283 269.941 51.3628 271.314 46.9701C272.686 42.5774 274.745 41.6165 275.02 39.5574C275.294 37.6356 274.745 22.1238 286.139 19.5156C297.533 17.0447 302.337 24.1829 303.573 25.5556C304.945 26.9283 309.613 31.4583 310.024 42.0283C310.436 52.5983 308.789 62.0701 307.691 68.1101C306.455 74.15 307.554 82.5237 301.514 93.5054C295.474 104.35 297.395 109.978 295.611 119.999C293.826 130.157 284.354 158.71 284.08 165.436" stroke="#BA6DCD" stroke-width="3" stroke-miterlimit="10" stroke-linecap="round"/>
<g opacity="0.5">
<path d="M278.728 41.615C281.061 41.8896 283.395 41.4778 285.591 40.9287C287.788 40.3796 289.984 39.5559 292.043 38.4578C292.592 38.1832 293.004 37.9087 293.553 37.6341C293.965 37.3596 294.239 36.9478 294.514 36.536C295.063 35.7123 295.475 34.6141 295.749 33.516C296.298 31.3196 296.71 28.986 296.985 26.6523C297.259 28.986 297.122 31.3196 296.71 33.7905C296.436 35.026 296.161 36.1241 295.475 37.2223C295.2 37.7714 294.651 38.3205 294.102 38.7323C293.553 39.0069 293.004 39.4187 292.592 39.6932C290.396 40.7914 288.199 41.615 285.866 42.0269C283.395 42.4387 280.924 42.4387 278.728 41.615Z" fill="#B1BBD0"/>
</g>
</svg>
