<svg width="500" height="375" viewBox="0 0 500 375" fill="none" xmlns="http://www.w3.org/2000/svg">
<g clip-path="url(#clip0_340_1912)">
<path d="M63.2812 12.1094H39.8438C37.9021 12.1094 36.3281 13.6834 36.3281 15.625V39.0625C36.3281 41.0041 37.9021 42.5781 39.8438 42.5781H63.2812C65.2229 42.5781 66.7969 41.0041 66.7969 39.0625V15.625C66.7969 13.6834 65.2229 12.1094 63.2812 12.1094Z" fill="#212C42"/>
<path d="M63.2812 42.9688H39.8438C38.8077 42.9688 37.8142 42.5572 37.0816 41.8246C36.3491 41.0921 35.9375 40.0985 35.9375 39.0625V15.625C35.9375 14.589 36.3491 13.5954 37.0816 12.8629C37.8142 12.1303 38.8077 11.7188 39.8438 11.7188H63.2812C64.3173 11.7188 65.3108 12.1303 66.0434 12.8629C66.776 13.5954 67.1875 14.589 67.1875 15.625V39.0625C67.1875 40.0985 66.776 41.0921 66.0434 41.8246C65.3108 42.5572 64.3173 42.9688 63.2812 42.9688ZM39.8438 12.5C39.0149 12.5 38.2201 12.8292 37.634 13.4153C37.048 14.0013 36.7188 14.7962 36.7188 15.625V39.0625C36.7188 39.8913 37.048 40.6862 37.634 41.2722C38.2201 41.8583 39.0149 42.1875 39.8438 42.1875H63.2812C64.1101 42.1875 64.9049 41.8583 65.491 41.2722C66.077 40.6862 66.4062 39.8913 66.4062 39.0625V15.625C66.4062 14.7962 66.077 14.0013 65.491 13.4153C64.9049 12.8292 64.1101 12.5 63.2812 12.5H39.8438Z" fill="#3C4A64"/>
<path d="M82.0312 46.4844H58.5938C56.6521 46.4844 55.0781 48.0584 55.0781 50V73.4375C55.0781 75.3791 56.6521 76.9531 58.5938 76.9531H82.0312C83.9729 76.9531 85.5469 75.3791 85.5469 73.4375V50C85.5469 48.0584 83.9729 46.4844 82.0312 46.4844Z" fill="#212C42"/>
<path d="M82.0312 77.3438H58.5938C57.5577 77.3438 56.5642 76.9322 55.8316 76.1996C55.099 75.4671 54.6875 74.4735 54.6875 73.4375V50C54.6875 48.964 55.099 47.9704 55.8316 47.2379C56.5642 46.5053 57.5577 46.0938 58.5938 46.0938H82.0312C83.0673 46.0938 84.0608 46.5053 84.7934 47.2379C85.526 47.9704 85.9375 48.964 85.9375 50V73.4375C85.9375 74.4735 85.526 75.4671 84.7934 76.1996C84.0608 76.9322 83.0673 77.3438 82.0312 77.3438ZM58.5938 46.875C57.7649 46.875 56.9701 47.2042 56.384 47.7903C55.798 48.3763 55.4688 49.1712 55.4688 50V73.4375C55.4688 74.2663 55.798 75.0612 56.384 75.6472C56.9701 76.2333 57.7649 76.5625 58.5938 76.5625H82.0312C82.8601 76.5625 83.6549 76.2333 84.241 75.6472C84.827 75.0612 85.1562 74.2663 85.1562 73.4375V50C85.1562 49.1712 84.827 48.3763 84.241 47.7903C83.6549 47.2042 82.8601 46.875 82.0312 46.875H58.5938Z" fill="#3C4A64"/>
<path d="M97.6562 80.8594H74.2188C72.2771 80.8594 70.7031 82.4334 70.7031 84.375V107.812C70.7031 109.754 72.2771 111.328 74.2188 111.328H97.6562C99.5979 111.328 101.172 109.754 101.172 107.812V84.375C101.172 82.4334 99.5979 80.8594 97.6562 80.8594Z" fill="#212C42"/>
<path d="M97.6562 111.719H74.2188C73.1827 111.719 72.1892 111.307 71.4566 110.575C70.724 109.842 70.3125 108.849 70.3125 107.812V84.375C70.3125 83.339 70.724 82.3454 71.4566 81.6129C72.1892 80.8803 73.1827 80.4688 74.2188 80.4688H97.6562C98.6923 80.4688 99.6858 80.8803 100.418 81.6129C101.151 82.3454 101.562 83.339 101.562 84.375V107.812C101.562 108.849 101.151 109.842 100.418 110.575C99.6858 111.307 98.6923 111.719 97.6562 111.719ZM74.2188 81.25C73.3899 81.25 72.5951 81.5792 72.009 82.1653C71.423 82.7513 71.0938 83.5462 71.0938 84.375V107.812C71.0938 108.641 71.423 109.436 72.009 110.022C72.5951 110.608 73.3899 110.938 74.2188 110.938H97.6562C98.4851 110.938 99.2799 110.608 99.866 110.022C100.452 109.436 100.781 108.641 100.781 107.812V84.375C100.781 83.5462 100.452 82.7513 99.866 82.1653C99.2799 81.5792 98.4851 81.25 97.6562 81.25H74.2188Z" fill="#3C4A64"/>
<path d="M132.031 12.1094H108.594C106.652 12.1094 105.078 13.6834 105.078 15.625V39.0625C105.078 41.0041 106.652 42.5781 108.594 42.5781H132.031C133.973 42.5781 135.547 41.0041 135.547 39.0625V15.625C135.547 13.6834 133.973 12.1094 132.031 12.1094Z" fill="#212C42"/>
<path d="M132.031 42.9688H108.594C107.558 42.9688 106.564 42.5572 105.832 41.8246C105.099 41.0921 104.688 40.0985 104.688 39.0625V15.625C104.688 14.589 105.099 13.5954 105.832 12.8629C106.564 12.1303 107.558 11.7188 108.594 11.7188H132.031C133.067 11.7188 134.061 12.1303 134.793 12.8629C135.526 13.5954 135.938 14.589 135.938 15.625V39.0625C135.938 40.0985 135.526 41.0921 134.793 41.8246C134.061 42.5572 133.067 42.9688 132.031 42.9688ZM108.594 12.5C107.765 12.5 106.97 12.8292 106.384 13.4153C105.798 14.0013 105.469 14.7962 105.469 15.625V39.0625C105.469 39.8913 105.798 40.6862 106.384 41.2722C106.97 41.8583 107.765 42.1875 108.594 42.1875H132.031C132.86 42.1875 133.655 41.8583 134.241 41.2722C134.827 40.6862 135.156 39.8913 135.156 39.0625V15.625C135.156 14.7962 134.827 14.0013 134.241 13.4153C133.655 12.8292 132.86 12.5 132.031 12.5H108.594Z" fill="#3C4A64"/>
<path d="M150.781 46.4844H127.344C125.402 46.4844 123.828 48.0584 123.828 50V73.4375C123.828 75.3791 125.402 76.9531 127.344 76.9531H150.781C152.723 76.9531 154.297 75.3791 154.297 73.4375V50C154.297 48.0584 152.723 46.4844 150.781 46.4844Z" fill="#212C42"/>
<path d="M150.781 77.3438H127.344C126.308 77.3438 125.314 76.9322 124.582 76.1996C123.849 75.4671 123.438 74.4735 123.438 73.4375V50C123.438 48.964 123.849 47.9704 124.582 47.2379C125.314 46.5053 126.308 46.0938 127.344 46.0938H150.781C151.817 46.0938 152.811 46.5053 153.543 47.2379C154.276 47.9704 154.688 48.964 154.688 50V73.4375C154.688 74.4735 154.276 75.4671 153.543 76.1996C152.811 76.9322 151.817 77.3438 150.781 77.3438ZM127.344 46.875C126.515 46.875 125.72 47.2042 125.134 47.7903C124.548 48.3763 124.219 49.1712 124.219 50V73.4375C124.219 74.2663 124.548 75.0612 125.134 75.6472C125.72 76.2333 126.515 76.5625 127.344 76.5625H150.781C151.61 76.5625 152.405 76.2333 152.991 75.6472C153.577 75.0612 153.906 74.2663 153.906 73.4375V50C153.906 49.1712 153.577 48.3763 152.991 47.7903C152.405 47.2042 151.61 46.875 150.781 46.875H127.344Z" fill="#3C4A64"/>
<path d="M166.406 80.8594H142.969C141.027 80.8594 139.453 82.4334 139.453 84.375V107.812C139.453 109.754 141.027 111.328 142.969 111.328H166.406C168.348 111.328 169.922 109.754 169.922 107.812V84.375C169.922 82.4334 168.348 80.8594 166.406 80.8594Z" fill="#212C42"/>
<path d="M166.406 111.719H142.969C141.933 111.719 140.939 111.307 140.207 110.575C139.474 109.842 139.063 108.849 139.062 107.812V84.375C139.062 83.339 139.474 82.3454 140.207 81.6129C140.939 80.8803 141.933 80.4688 142.969 80.4688H166.406C167.442 80.4688 168.436 80.8803 169.168 81.6129C169.901 82.3454 170.312 83.339 170.312 84.375V107.812C170.312 108.849 169.901 109.842 169.168 110.575C168.436 111.307 167.442 111.719 166.406 111.719ZM142.969 81.25C142.14 81.25 141.345 81.5792 140.759 82.1653C140.173 82.7513 139.844 83.5462 139.844 84.375V107.812C139.844 108.641 140.173 109.436 140.759 110.022C141.345 110.608 142.14 110.938 142.969 110.938H166.406C167.235 110.938 168.03 110.608 168.616 110.022C169.202 109.436 169.531 108.641 169.531 107.812V84.375C169.531 83.5462 169.202 82.7513 168.616 82.1653C168.03 81.5792 167.235 81.25 166.406 81.25H142.969Z" fill="#3C4A64"/>
<path d="M150.781 115.234H127.344C125.402 115.234 123.828 116.808 123.828 118.75V142.188C123.828 144.129 125.402 145.703 127.344 145.703H150.781C152.723 145.703 154.297 144.129 154.297 142.188V118.75C154.297 116.808 152.723 115.234 150.781 115.234Z" fill="#212C42"/>
<path d="M150.781 146.094H127.344C126.308 146.094 125.314 145.682 124.582 144.95C123.849 144.217 123.438 143.224 123.438 142.188V118.75C123.438 117.714 123.849 116.72 124.582 115.988C125.314 115.255 126.308 114.844 127.344 114.844H150.781C151.817 114.844 152.811 115.255 153.543 115.988C154.276 116.72 154.688 117.714 154.688 118.75V142.188C154.688 143.224 154.276 144.217 153.543 144.95C152.811 145.682 151.817 146.094 150.781 146.094V146.094ZM127.344 115.625C126.515 115.625 125.72 115.954 125.134 116.54C124.548 117.126 124.219 117.921 124.219 118.75V142.188C124.219 143.016 124.548 143.811 125.134 144.397C125.72 144.983 126.515 145.312 127.344 145.312H150.781C151.61 145.312 152.405 144.983 152.991 144.397C153.577 143.811 153.906 143.016 153.906 142.188V118.75C153.906 117.921 153.577 117.126 152.991 116.54C152.405 115.954 151.61 115.625 150.781 115.625H127.344Z" fill="#3C4A64"/>
<path d="M47.6562 46.4844H5.46875C3.52712 46.4844 1.95312 48.0584 1.95312 50V73.4375C1.95312 75.3791 3.52712 76.9531 5.46875 76.9531H47.6562C49.5979 76.9531 51.1719 75.3791 51.1719 73.4375V50C51.1719 48.0584 49.5979 46.4844 47.6562 46.4844Z" fill="#212C42"/>
<path d="M47.6562 77.3438H5.46875C4.43275 77.3438 3.43918 76.9322 2.70661 76.1996C1.97405 75.4671 1.5625 74.4735 1.5625 73.4375L1.5625 50C1.5625 48.964 1.97405 47.9704 2.70661 47.2379C3.43918 46.5053 4.43275 46.0938 5.46875 46.0938H47.6562C48.6923 46.0938 49.6858 46.5053 50.4184 47.2379C51.1509 47.9704 51.5625 48.964 51.5625 50V73.4375C51.5625 74.4735 51.1509 75.4671 50.4184 76.1996C49.6858 76.9322 48.6923 77.3438 47.6562 77.3438ZM5.46875 46.875C4.63995 46.875 3.84509 47.2042 3.25904 47.7903C2.67299 48.3763 2.34375 49.1712 2.34375 50V73.4375C2.34375 74.2663 2.67299 75.0612 3.25904 75.6472C3.84509 76.2333 4.63995 76.5625 5.46875 76.5625H47.6562C48.4851 76.5625 49.2799 76.2333 49.866 75.6472C50.452 75.0612 50.7812 74.2663 50.7812 73.4375V50C50.7812 49.1712 50.452 48.3763 49.866 47.7903C49.2799 47.2042 48.4851 46.875 47.6562 46.875H5.46875Z" fill="#3C4A64"/>
<path d="M63.2812 80.8594H5.46875C3.52712 80.8594 1.95312 82.4334 1.95312 84.375V107.812C1.95312 109.754 3.52712 111.328 5.46875 111.328H63.2812C65.2229 111.328 66.7969 109.754 66.7969 107.812V84.375C66.7969 82.4334 65.2229 80.8594 63.2812 80.8594Z" fill="#212C42"/>
<path d="M63.2812 111.719H5.46875C4.43275 111.719 3.43918 111.307 2.70661 110.575C1.97405 109.842 1.5625 108.849 1.5625 107.812L1.5625 84.375C1.5625 83.339 1.97405 82.3454 2.70661 81.6129C3.43918 80.8803 4.43275 80.4688 5.46875 80.4688H63.2812C64.3173 80.4688 65.3108 80.8803 66.0434 81.6129C66.776 82.3454 67.1875 83.339 67.1875 84.375V107.812C67.1875 108.849 66.776 109.842 66.0434 110.575C65.3108 111.307 64.3173 111.719 63.2812 111.719ZM5.46875 81.25C4.63995 81.25 3.84509 81.5792 3.25904 82.1653C2.67299 82.7513 2.34375 83.5462 2.34375 84.375V107.812C2.34375 108.641 2.67299 109.436 3.25904 110.022C3.84509 110.608 4.63995 110.938 5.46875 110.938H63.2812C64.1101 110.938 64.9049 110.608 65.491 110.022C66.077 109.436 66.4062 108.641 66.4062 107.812V84.375C66.4062 83.5462 66.077 82.7513 65.491 82.1653C64.9049 81.5792 64.1101 81.25 63.2812 81.25H5.46875Z" fill="#3C4A64"/>
<path d="M132.031 149.609H74.2188C72.2771 149.609 70.7031 151.183 70.7031 153.125V176.562C70.7031 178.504 72.2771 180.078 74.2188 180.078H132.031C133.973 180.078 135.547 178.504 135.547 176.562V153.125C135.547 151.183 133.973 149.609 132.031 149.609Z" fill="#212C42"/>
<path d="M132.031 180.469H74.2188C73.1827 180.469 72.1892 180.057 71.4566 179.325C70.724 178.592 70.3125 177.599 70.3125 176.562V153.125C70.3125 152.089 70.724 151.095 71.4566 150.363C72.1892 149.63 73.1827 149.219 74.2188 149.219H132.031C133.067 149.219 134.061 149.63 134.793 150.363C135.526 151.095 135.938 152.089 135.938 153.125V176.562C135.938 177.599 135.526 178.592 134.793 179.325C134.061 180.057 133.067 180.469 132.031 180.469V180.469ZM74.2188 150C73.3899 150 72.5951 150.329 72.009 150.915C71.423 151.501 71.0938 152.296 71.0938 153.125V176.562C71.0938 177.391 71.423 178.186 72.009 178.772C72.5951 179.358 73.3899 179.688 74.2188 179.688H132.031C132.86 179.688 133.655 179.358 134.241 178.772C134.827 178.186 135.156 177.391 135.156 176.562V153.125C135.156 152.296 134.827 151.501 134.241 150.915C133.655 150.329 132.86 150 132.031 150H74.2188Z" fill="#3C4A64"/>
<path d="M407.031 149.609H349.219C347.277 149.609 345.703 151.183 345.703 153.125V176.562C345.703 178.504 347.277 180.078 349.219 180.078H407.031C408.973 180.078 410.547 178.504 410.547 176.562V153.125C410.547 151.183 408.973 149.609 407.031 149.609Z" fill="#212C42"/>
<path d="M407.031 180.469H349.219C348.183 180.469 347.189 180.057 346.457 179.325C345.724 178.592 345.312 177.599 345.312 176.562V153.125C345.312 152.089 345.724 151.095 346.457 150.363C347.189 149.63 348.183 149.219 349.219 149.219H407.031C408.067 149.219 409.061 149.63 409.793 150.363C410.526 151.095 410.938 152.089 410.938 153.125V176.562C410.938 177.599 410.526 178.592 409.793 179.325C409.061 180.057 408.067 180.469 407.031 180.469V180.469ZM349.219 150C348.39 150 347.595 150.329 347.009 150.915C346.423 151.501 346.094 152.296 346.094 153.125V176.562C346.094 177.391 346.423 178.186 347.009 178.772C347.595 179.358 348.39 179.688 349.219 179.688H407.031C407.86 179.688 408.655 179.358 409.241 178.772C409.827 178.186 410.156 177.391 410.156 176.562V153.125C410.156 152.296 409.827 151.501 409.241 150.915C408.655 150.329 407.86 150 407.031 150H349.219Z" fill="#3C4A64"/>
<path d="M494.531 149.609H417.969C416.027 149.609 414.453 151.183 414.453 153.125V176.562C414.453 178.504 416.027 180.078 417.969 180.078H494.531C496.473 180.078 498.047 178.504 498.047 176.562V153.125C498.047 151.183 496.473 149.609 494.531 149.609Z" fill="#212C42"/>
<path d="M494.531 180.469H417.969C416.933 180.469 415.939 180.057 415.207 179.325C414.474 178.592 414.062 177.599 414.062 176.562V153.125C414.062 152.089 414.474 151.095 415.207 150.363C415.939 149.63 416.933 149.219 417.969 149.219H494.531C495.567 149.219 496.561 149.63 497.293 150.363C498.026 151.095 498.438 152.089 498.438 153.125V176.562C498.438 177.599 498.026 178.592 497.293 179.325C496.561 180.057 495.567 180.469 494.531 180.469V180.469ZM417.969 150C417.14 150 416.345 150.329 415.759 150.915C415.173 151.501 414.844 152.296 414.844 153.125V176.562C414.844 177.391 415.173 178.186 415.759 178.772C416.345 179.358 417.14 179.688 417.969 179.688H494.531C495.36 179.688 496.155 179.358 496.741 178.772C497.327 178.186 497.656 177.391 497.656 176.562V153.125C497.656 152.296 497.327 151.501 496.741 150.915C496.155 150.329 495.36 150 494.531 150H417.969Z" fill="#3C4A64"/>
<path d="M338.281 149.609H142.969C141.027 149.609 139.453 151.183 139.453 153.125V176.562C139.453 178.504 141.027 180.078 142.969 180.078H338.281C340.223 180.078 341.797 178.504 341.797 176.562V153.125C341.797 151.183 340.223 149.609 338.281 149.609Z" fill="#212C42"/>
<path d="M338.281 180.469H142.969C141.933 180.469 140.939 180.057 140.207 179.325C139.474 178.592 139.063 177.599 139.062 176.562V153.125C139.062 152.089 139.474 151.095 140.207 150.363C140.939 149.63 141.933 149.219 142.969 149.219H338.281C339.317 149.219 340.311 149.63 341.043 150.363C341.776 151.095 342.188 152.089 342.188 153.125V176.562C342.188 177.599 341.776 178.592 341.043 179.325C340.311 180.057 339.317 180.469 338.281 180.469V180.469ZM142.969 150C142.14 150 141.345 150.329 140.759 150.915C140.173 151.501 139.844 152.296 139.844 153.125V176.562C139.844 177.391 140.173 178.186 140.759 178.772C141.345 179.358 142.14 179.688 142.969 179.688H338.281C339.11 179.688 339.905 179.358 340.491 178.772C341.077 178.186 341.406 177.391 341.406 176.562V153.125C341.406 152.296 341.077 151.501 340.491 150.915C339.905 150.329 339.11 150 338.281 150H142.969Z" fill="#3C4A64"/>
<path d="M28.9062 12.1094H5.46875C3.52712 12.1094 1.95312 13.6834 1.95312 15.625V39.0625C1.95312 41.0041 3.52712 42.5781 5.46875 42.5781H28.9062C30.8479 42.5781 32.4219 41.0041 32.4219 39.0625V15.625C32.4219 13.6834 30.8479 12.1094 28.9062 12.1094Z" fill="#212C42"/>
<path d="M28.9062 42.9688H5.46875C4.43275 42.9688 3.43918 42.5572 2.70661 41.8246C1.97405 41.0921 1.5625 40.0985 1.5625 39.0625L1.5625 15.625C1.5625 14.589 1.97405 13.5954 2.70661 12.8629C3.43918 12.1303 4.43275 11.7188 5.46875 11.7188H28.9062C29.9423 11.7188 30.9358 12.1303 31.6684 12.8629C32.4009 13.5954 32.8125 14.589 32.8125 15.625V39.0625C32.8125 40.0985 32.4009 41.0921 31.6684 41.8246C30.9358 42.5572 29.9423 42.9688 28.9062 42.9688ZM5.46875 12.5C4.63995 12.5 3.84509 12.8292 3.25904 13.4153C2.67299 14.0013 2.34375 14.7962 2.34375 15.625V39.0625C2.34375 39.8913 2.67299 40.6862 3.25904 41.2722C3.84509 41.8583 4.63995 42.1875 5.46875 42.1875H28.9062C29.7351 42.1875 30.5299 41.8583 31.116 41.2722C31.702 40.6862 32.0312 39.8913 32.0312 39.0625V15.625C32.0312 14.7962 31.702 14.0013 31.116 13.4153C30.5299 12.8292 29.7351 12.5 28.9062 12.5H5.46875Z" fill="#3C4A64"/>
<path d="M494.531 46.4844H471.094C469.152 46.4844 467.578 48.0584 467.578 50V73.4375C467.578 75.3791 469.152 76.9531 471.094 76.9531H494.531C496.473 76.9531 498.047 75.3791 498.047 73.4375V50C498.047 48.0584 496.473 46.4844 494.531 46.4844Z" fill="#212C42"/>
<path d="M494.531 77.3438H471.094C470.058 77.3438 469.064 76.9322 468.332 76.1996C467.599 75.4671 467.188 74.4735 467.188 73.4375V50C467.188 48.964 467.599 47.9704 468.332 47.2379C469.064 46.5053 470.058 46.0938 471.094 46.0938H494.531C495.567 46.0938 496.561 46.5053 497.293 47.2379C498.026 47.9704 498.438 48.964 498.438 50V73.4375C498.438 74.4735 498.026 75.4671 497.293 76.1996C496.561 76.9322 495.567 77.3438 494.531 77.3438ZM471.094 46.875C470.265 46.875 469.47 47.2042 468.884 47.7903C468.298 48.3763 467.969 49.1712 467.969 50V73.4375C467.969 74.2663 468.298 75.0612 468.884 75.6472C469.47 76.2333 470.265 76.5625 471.094 76.5625H494.531C495.36 76.5625 496.155 76.2333 496.741 75.6472C497.327 75.0612 497.656 74.2663 497.656 73.4375V50C497.656 49.1712 497.327 48.3763 496.741 47.7903C496.155 47.2042 495.36 46.875 494.531 46.875H471.094Z" fill="#3C4A64"/>
<path d="M166.406 12.1094H142.969C141.027 12.1094 139.453 13.6834 139.453 15.625V39.0625C139.453 41.0041 141.027 42.5781 142.969 42.5781H166.406C168.348 42.5781 169.922 41.0041 169.922 39.0625V15.625C169.922 13.6834 168.348 12.1094 166.406 12.1094Z" fill="#212C42"/>
<path d="M166.406 42.9688H142.969C141.933 42.9688 140.939 42.5572 140.207 41.8246C139.474 41.0921 139.063 40.0985 139.062 39.0625V15.625C139.062 14.589 139.474 13.5954 140.207 12.8629C140.939 12.1303 141.933 11.7188 142.969 11.7188H166.406C167.442 11.7188 168.436 12.1303 169.168 12.8629C169.901 13.5954 170.312 14.589 170.312 15.625V39.0625C170.312 40.0985 169.901 41.0921 169.168 41.8246C168.436 42.5572 167.442 42.9688 166.406 42.9688ZM142.969 12.5C142.14 12.5 141.345 12.8292 140.759 13.4153C140.173 14.0013 139.844 14.7962 139.844 15.625V39.0625C139.844 39.8913 140.173 40.6862 140.759 41.2722C141.345 41.8583 142.14 42.1875 142.969 42.1875H166.406C167.235 42.1875 168.03 41.8583 168.616 41.2722C169.202 40.6862 169.531 39.8913 169.531 39.0625V15.625C169.531 14.7962 169.202 14.0013 168.616 13.4153C168.03 12.8292 167.235 12.5 166.406 12.5H142.969Z" fill="#3C4A64"/>
<path d="M185.156 46.4844H161.719C159.777 46.4844 158.203 48.0584 158.203 50V73.4375C158.203 75.3791 159.777 76.9531 161.719 76.9531H185.156C187.098 76.9531 188.672 75.3791 188.672 73.4375V50C188.672 48.0584 187.098 46.4844 185.156 46.4844Z" fill="#212C42"/>
<path d="M185.156 77.3438H161.719C160.683 77.3438 159.689 76.9322 158.957 76.1996C158.224 75.4671 157.813 74.4735 157.812 73.4375V50C157.812 48.964 158.224 47.9704 158.957 47.2379C159.689 46.5053 160.683 46.0938 161.719 46.0938H185.156C186.192 46.0938 187.186 46.5053 187.918 47.2379C188.651 47.9704 189.062 48.964 189.062 50V73.4375C189.062 74.4735 188.651 75.4671 187.918 76.1996C187.186 76.9322 186.192 77.3438 185.156 77.3438ZM161.719 46.875C160.89 46.875 160.095 47.2042 159.509 47.7903C158.923 48.3763 158.594 49.1712 158.594 50V73.4375C158.594 74.2663 158.923 75.0612 159.509 75.6472C160.095 76.2333 160.89 76.5625 161.719 76.5625H185.156C185.985 76.5625 186.78 76.2333 187.366 75.6472C187.952 75.0612 188.281 74.2663 188.281 73.4375V50C188.281 49.1712 187.952 48.3763 187.366 47.7903C186.78 47.2042 185.985 46.875 185.156 46.875H161.719Z" fill="#3C4A64"/>
<path d="M200.781 80.8594H177.344C175.402 80.8594 173.828 82.4334 173.828 84.375V107.812C173.828 109.754 175.402 111.328 177.344 111.328H200.781C202.723 111.328 204.297 109.754 204.297 107.812V84.375C204.297 82.4334 202.723 80.8594 200.781 80.8594Z" fill="#212C42"/>
<path d="M200.781 111.719H177.344C176.308 111.719 175.314 111.307 174.582 110.575C173.849 109.842 173.438 108.849 173.438 107.812V84.375C173.438 83.339 173.849 82.3454 174.582 81.6129C175.314 80.8803 176.308 80.4688 177.344 80.4688H200.781C201.817 80.4688 202.811 80.8803 203.543 81.6129C204.276 82.3454 204.688 83.339 204.688 84.375V107.812C204.688 108.849 204.276 109.842 203.543 110.575C202.811 111.307 201.817 111.719 200.781 111.719ZM177.344 81.25C176.515 81.25 175.72 81.5792 175.134 82.1653C174.548 82.7513 174.219 83.5462 174.219 84.375V107.812C174.219 108.641 174.548 109.436 175.134 110.022C175.72 110.608 176.515 110.938 177.344 110.938H200.781C201.61 110.938 202.405 110.608 202.991 110.022C203.577 109.436 203.906 108.641 203.906 107.812V84.375C203.906 83.5462 203.577 82.7513 202.991 82.1653C202.405 81.5792 201.61 81.25 200.781 81.25H177.344Z" fill="#3C4A64"/>
<path d="M185.156 115.234H161.719C159.777 115.234 158.203 116.808 158.203 118.75V142.188C158.203 144.129 159.777 145.703 161.719 145.703H185.156C187.098 145.703 188.672 144.129 188.672 142.188V118.75C188.672 116.808 187.098 115.234 185.156 115.234Z" fill="#212C42"/>
<path d="M185.156 146.094H161.719C160.683 146.094 159.689 145.682 158.957 144.95C158.224 144.217 157.813 143.224 157.812 142.188V118.75C157.812 117.714 158.224 116.72 158.957 115.988C159.689 115.255 160.683 114.844 161.719 114.844H185.156C186.192 114.844 187.186 115.255 187.918 115.988C188.651 116.72 189.062 117.714 189.062 118.75V142.188C189.062 143.224 188.651 144.217 187.918 144.95C187.186 145.682 186.192 146.094 185.156 146.094V146.094ZM161.719 115.625C160.89 115.625 160.095 115.954 159.509 116.54C158.923 117.126 158.594 117.921 158.594 118.75V142.188C158.594 143.016 158.923 143.811 159.509 144.397C160.095 144.983 160.89 145.312 161.719 145.312H185.156C185.985 145.312 186.78 144.983 187.366 144.397C187.952 143.811 188.281 143.016 188.281 142.188V118.75C188.281 117.921 187.952 117.126 187.366 116.54C186.78 115.954 185.985 115.625 185.156 115.625H161.719Z" fill="#3C4A64"/>
<path d="M200.781 12.1094H177.344C175.402 12.1094 173.828 13.6834 173.828 15.625V39.0625C173.828 41.0041 175.402 42.5781 177.344 42.5781H200.781C202.723 42.5781 204.297 41.0041 204.297 39.0625V15.625C204.297 13.6834 202.723 12.1094 200.781 12.1094Z" fill="#212C42"/>
<path d="M200.781 42.9688H177.344C176.308 42.9688 175.314 42.5572 174.582 41.8246C173.849 41.0921 173.438 40.0985 173.438 39.0625V15.625C173.438 14.589 173.849 13.5954 174.582 12.8629C175.314 12.1303 176.308 11.7188 177.344 11.7188H200.781C201.817 11.7188 202.811 12.1303 203.543 12.8629C204.276 13.5954 204.688 14.589 204.688 15.625V39.0625C204.688 40.0985 204.276 41.0921 203.543 41.8246C202.811 42.5572 201.817 42.9688 200.781 42.9688ZM177.344 12.5C176.515 12.5 175.72 12.8292 175.134 13.4153C174.548 14.0013 174.219 14.7962 174.219 15.625V39.0625C174.219 39.8913 174.548 40.6862 175.134 41.2722C175.72 41.8583 176.515 42.1875 177.344 42.1875H200.781C201.61 42.1875 202.405 41.8583 202.991 41.2722C203.577 40.6862 203.906 39.8913 203.906 39.0625V15.625C203.906 14.7962 203.577 14.0013 202.991 13.4153C202.405 12.8292 201.61 12.5 200.781 12.5H177.344Z" fill="#3C4A64"/>
<path d="M219.531 46.4844H196.094C194.152 46.4844 192.578 48.0584 192.578 50V73.4375C192.578 75.3791 194.152 76.9531 196.094 76.9531H219.531C221.473 76.9531 223.047 75.3791 223.047 73.4375V50C223.047 48.0584 221.473 46.4844 219.531 46.4844Z" fill="#212C42"/>
<path d="M219.531 77.3438H196.094C195.058 77.3438 194.064 76.9322 193.332 76.1996C192.599 75.4671 192.188 74.4735 192.188 73.4375V50C192.188 48.964 192.599 47.9704 193.332 47.2379C194.064 46.5053 195.058 46.0938 196.094 46.0938H219.531C220.567 46.0938 221.561 46.5053 222.293 47.2379C223.026 47.9704 223.438 48.964 223.438 50V73.4375C223.438 74.4735 223.026 75.4671 222.293 76.1996C221.561 76.9322 220.567 77.3438 219.531 77.3438ZM196.094 46.875C195.265 46.875 194.47 47.2042 193.884 47.7903C193.298 48.3763 192.969 49.1712 192.969 50V73.4375C192.969 74.2663 193.298 75.0612 193.884 75.6472C194.47 76.2333 195.265 76.5625 196.094 76.5625H219.531C220.36 76.5625 221.155 76.2333 221.741 75.6472C222.327 75.0612 222.656 74.2663 222.656 73.4375V50C222.656 49.1712 222.327 48.3763 221.741 47.7903C221.155 47.2042 220.36 46.875 219.531 46.875H196.094Z" fill="#3C4A64"/>
<path d="M235.156 80.8594H211.719C209.777 80.8594 208.203 82.4334 208.203 84.375V107.812C208.203 109.754 209.777 111.328 211.719 111.328H235.156C237.098 111.328 238.672 109.754 238.672 107.812V84.375C238.672 82.4334 237.098 80.8594 235.156 80.8594Z" fill="#212C42"/>
<path d="M235.156 111.719H211.719C210.683 111.719 209.689 111.307 208.957 110.575C208.224 109.842 207.812 108.849 207.812 107.812V84.375C207.812 83.339 208.224 82.3454 208.957 81.6129C209.689 80.8803 210.683 80.4688 211.719 80.4688H235.156C236.192 80.4688 237.186 80.8803 237.918 81.6129C238.651 82.3454 239.062 83.339 239.062 84.375V107.812C239.062 108.849 238.651 109.842 237.918 110.575C237.186 111.307 236.192 111.719 235.156 111.719ZM211.719 81.25C210.89 81.25 210.095 81.5792 209.509 82.1653C208.923 82.7513 208.594 83.5462 208.594 84.375V107.812C208.594 108.641 208.923 109.436 209.509 110.022C210.095 110.608 210.89 110.938 211.719 110.938H235.156C235.985 110.938 236.78 110.608 237.366 110.022C237.952 109.436 238.281 108.641 238.281 107.812V84.375C238.281 83.5462 237.952 82.7513 237.366 82.1653C236.78 81.5792 235.985 81.25 235.156 81.25H211.719Z" fill="#3C4A64"/>
<path d="M219.531 115.234H196.094C194.152 115.234 192.578 116.808 192.578 118.75V142.188C192.578 144.129 194.152 145.703 196.094 145.703H219.531C221.473 145.703 223.047 144.129 223.047 142.188V118.75C223.047 116.808 221.473 115.234 219.531 115.234Z" fill="#212C42"/>
<path d="M219.531 146.094H196.094C195.058 146.094 194.064 145.682 193.332 144.95C192.599 144.217 192.188 143.224 192.188 142.188V118.75C192.188 117.714 192.599 116.72 193.332 115.988C194.064 115.255 195.058 114.844 196.094 114.844H219.531C220.567 114.844 221.561 115.255 222.293 115.988C223.026 116.72 223.438 117.714 223.438 118.75V142.188C223.438 143.224 223.026 144.217 222.293 144.95C221.561 145.682 220.567 146.094 219.531 146.094V146.094ZM196.094 115.625C195.265 115.625 194.47 115.954 193.884 116.54C193.298 117.126 192.969 117.921 192.969 118.75V142.188C192.969 143.016 193.298 143.811 193.884 144.397C194.47 144.983 195.265 145.312 196.094 145.312H219.531C220.36 145.312 221.155 144.983 221.741 144.397C222.327 143.811 222.656 143.016 222.656 142.188V118.75C222.656 117.921 222.327 117.126 221.741 116.54C221.155 115.954 220.36 115.625 219.531 115.625H196.094Z" fill="#3C4A64"/>
<path d="M235.156 12.1094H211.719C209.777 12.1094 208.203 13.6834 208.203 15.625V39.0625C208.203 41.0041 209.777 42.5781 211.719 42.5781H235.156C237.098 42.5781 238.672 41.0041 238.672 39.0625V15.625C238.672 13.6834 237.098 12.1094 235.156 12.1094Z" fill="#212C42"/>
<path d="M235.156 42.9688H211.719C210.683 42.9688 209.689 42.5572 208.957 41.8246C208.224 41.0921 207.812 40.0985 207.812 39.0625V15.625C207.812 14.589 208.224 13.5954 208.957 12.8629C209.689 12.1303 210.683 11.7188 211.719 11.7188H235.156C236.192 11.7188 237.186 12.1303 237.918 12.8629C238.651 13.5954 239.062 14.589 239.062 15.625V39.0625C239.062 40.0985 238.651 41.0921 237.918 41.8246C237.186 42.5572 236.192 42.9688 235.156 42.9688ZM211.719 12.5C210.89 12.5 210.095 12.8292 209.509 13.4153C208.923 14.0013 208.594 14.7962 208.594 15.625V39.0625C208.594 39.8913 208.923 40.6862 209.509 41.2722C210.095 41.8583 210.89 42.1875 211.719 42.1875H235.156C235.985 42.1875 236.78 41.8583 237.366 41.2722C237.952 40.6862 238.281 39.8913 238.281 39.0625V15.625C238.281 14.7962 237.952 14.0013 237.366 13.4153C236.78 12.8292 235.985 12.5 235.156 12.5H211.719Z" fill="#3C4A64"/>
<path d="M253.906 46.4844H230.469C228.527 46.4844 226.953 48.0584 226.953 50V73.4375C226.953 75.3791 228.527 76.9531 230.469 76.9531H253.906C255.848 76.9531 257.422 75.3791 257.422 73.4375V50C257.422 48.0584 255.848 46.4844 253.906 46.4844Z" fill="#212C42"/>
<path d="M253.906 77.3438H230.469C229.433 77.3438 228.439 76.9322 227.707 76.1996C226.974 75.4671 226.562 74.4735 226.562 73.4375V50C226.562 48.964 226.974 47.9704 227.707 47.2379C228.439 46.5053 229.433 46.0938 230.469 46.0938H253.906C254.942 46.0938 255.936 46.5053 256.668 47.2379C257.401 47.9704 257.812 48.964 257.812 50V73.4375C257.813 74.4735 257.401 75.4671 256.668 76.1996C255.936 76.9322 254.942 77.3438 253.906 77.3438V77.3438ZM230.469 46.875C229.64 46.875 228.845 47.2042 228.259 47.7903C227.673 48.3763 227.344 49.1712 227.344 50V73.4375C227.344 74.2663 227.673 75.0612 228.259 75.6472C228.845 76.2333 229.64 76.5625 230.469 76.5625H253.906C254.735 76.5625 255.53 76.2333 256.116 75.6472C256.702 75.0612 257.031 74.2663 257.031 73.4375V50C257.031 49.1712 256.702 48.3763 256.116 47.7903C255.53 47.2042 254.735 46.875 253.906 46.875H230.469Z" fill="#3C4A64"/>
<path d="M269.531 80.8594H246.094C244.152 80.8594 242.578 82.4334 242.578 84.375V107.812C242.578 109.754 244.152 111.328 246.094 111.328H269.531C271.473 111.328 273.047 109.754 273.047 107.812V84.375C273.047 82.4334 271.473 80.8594 269.531 80.8594Z" fill="#212C42"/>
<path d="M269.531 111.719H246.094C245.058 111.719 244.064 111.307 243.332 110.575C242.599 109.842 242.188 108.849 242.188 107.812V84.375C242.188 83.339 242.599 82.3454 243.332 81.6129C244.064 80.8803 245.058 80.4688 246.094 80.4688H269.531C270.567 80.4688 271.561 80.8803 272.293 81.6129C273.026 82.3454 273.438 83.339 273.438 84.375V107.812C273.438 108.849 273.026 109.842 272.293 110.575C271.561 111.307 270.567 111.719 269.531 111.719V111.719ZM246.094 81.25C245.265 81.25 244.47 81.5792 243.884 82.1653C243.298 82.7513 242.969 83.5462 242.969 84.375V107.812C242.969 108.641 243.298 109.436 243.884 110.022C244.47 110.608 245.265 110.938 246.094 110.938H269.531C270.36 110.938 271.155 110.608 271.741 110.022C272.327 109.436 272.656 108.641 272.656 107.812V84.375C272.656 83.5462 272.327 82.7513 271.741 82.1653C271.155 81.5792 270.36 81.25 269.531 81.25H246.094Z" fill="#3C4A64"/>
<path d="M253.906 115.234H230.469C228.527 115.234 226.953 116.808 226.953 118.75V142.188C226.953 144.129 228.527 145.703 230.469 145.703H253.906C255.848 145.703 257.422 144.129 257.422 142.188V118.75C257.422 116.808 255.848 115.234 253.906 115.234Z" fill="#212C42"/>
<path d="M253.906 146.094H230.469C229.433 146.094 228.439 145.682 227.707 144.95C226.974 144.217 226.562 143.224 226.562 142.188V118.75C226.562 117.714 226.974 116.72 227.707 115.988C228.439 115.255 229.433 114.844 230.469 114.844H253.906C254.942 114.844 255.936 115.255 256.668 115.988C257.401 116.72 257.812 117.714 257.812 118.75V142.188C257.813 143.224 257.401 144.217 256.668 144.95C255.936 145.682 254.942 146.094 253.906 146.094V146.094ZM230.469 115.625C229.64 115.625 228.845 115.954 228.259 116.54C227.673 117.126 227.344 117.921 227.344 118.75V142.188C227.344 143.016 227.673 143.811 228.259 144.397C228.845 144.983 229.64 145.312 230.469 145.312H253.906C254.735 145.312 255.53 144.983 256.116 144.397C256.702 143.811 257.031 143.016 257.031 142.188V118.75C257.031 117.921 256.702 117.126 256.116 116.54C255.53 115.954 254.735 115.625 253.906 115.625H230.469Z" fill="#3C4A64"/>
<path d="M269.531 12.1094H246.094C244.152 12.1094 242.578 13.6834 242.578 15.625V39.0625C242.578 41.0041 244.152 42.5781 246.094 42.5781H269.531C271.473 42.5781 273.047 41.0041 273.047 39.0625V15.625C273.047 13.6834 271.473 12.1094 269.531 12.1094Z" fill="#212C42"/>
<path d="M269.531 42.9688H246.094C245.058 42.9688 244.064 42.5572 243.332 41.8246C242.599 41.0921 242.188 40.0985 242.188 39.0625V15.625C242.188 14.589 242.599 13.5954 243.332 12.8629C244.064 12.1303 245.058 11.7188 246.094 11.7188H269.531C270.567 11.7188 271.561 12.1303 272.293 12.8629C273.026 13.5954 273.438 14.589 273.438 15.625V39.0625C273.438 40.0985 273.026 41.0921 272.293 41.8246C271.561 42.5572 270.567 42.9688 269.531 42.9688V42.9688ZM246.094 12.5C245.265 12.5 244.47 12.8292 243.884 13.4153C243.298 14.0013 242.969 14.7962 242.969 15.625V39.0625C242.969 39.8913 243.298 40.6862 243.884 41.2722C244.47 41.8583 245.265 42.1875 246.094 42.1875H269.531C270.36 42.1875 271.155 41.8583 271.741 41.2722C272.327 40.6862 272.656 39.8913 272.656 39.0625V15.625C272.656 14.7962 272.327 14.0013 271.741 13.4153C271.155 12.8292 270.36 12.5 269.531 12.5H246.094Z" fill="#3C4A64"/>
<path d="M288.281 46.4844H264.844C262.902 46.4844 261.328 48.0584 261.328 50V73.4375C261.328 75.3791 262.902 76.9531 264.844 76.9531H288.281C290.223 76.9531 291.797 75.3791 291.797 73.4375V50C291.797 48.0584 290.223 46.4844 288.281 46.4844Z" fill="#212C42"/>
<path d="M288.281 77.3438H264.844C263.808 77.3438 262.814 76.9322 262.082 76.1996C261.349 75.4671 260.938 74.4735 260.938 73.4375V50C260.938 48.964 261.349 47.9704 262.082 47.2379C262.814 46.5053 263.808 46.0938 264.844 46.0938H288.281C289.317 46.0938 290.311 46.5053 291.043 47.2379C291.776 47.9704 292.188 48.964 292.188 50V73.4375C292.188 74.4735 291.776 75.4671 291.043 76.1996C290.311 76.9322 289.317 77.3438 288.281 77.3438ZM264.844 46.875C264.015 46.875 263.22 47.2042 262.634 47.7903C262.048 48.3763 261.719 49.1712 261.719 50V73.4375C261.719 74.2663 262.048 75.0612 262.634 75.6472C263.22 76.2333 264.015 76.5625 264.844 76.5625H288.281C289.11 76.5625 289.905 76.2333 290.491 75.6472C291.077 75.0612 291.406 74.2663 291.406 73.4375V50C291.406 49.1712 291.077 48.3763 290.491 47.7903C289.905 47.2042 289.11 46.875 288.281 46.875H264.844Z" fill="#3C4A64"/>
<path d="M303.906 80.8594H280.469C278.527 80.8594 276.953 82.4334 276.953 84.375V107.812C276.953 109.754 278.527 111.328 280.469 111.328H303.906C305.848 111.328 307.422 109.754 307.422 107.812V84.375C307.422 82.4334 305.848 80.8594 303.906 80.8594Z" fill="#212C42"/>
<path d="M303.906 111.719H280.469C279.433 111.719 278.439 111.307 277.707 110.575C276.974 109.842 276.562 108.849 276.562 107.812V84.375C276.562 83.339 276.974 82.3454 277.707 81.6129C278.439 80.8803 279.433 80.4688 280.469 80.4688H303.906C304.942 80.4688 305.936 80.8803 306.668 81.6129C307.401 82.3454 307.812 83.339 307.812 84.375V107.812C307.812 108.849 307.401 109.842 306.668 110.575C305.936 111.307 304.942 111.719 303.906 111.719ZM280.469 81.25C279.64 81.25 278.845 81.5792 278.259 82.1653C277.673 82.7513 277.344 83.5462 277.344 84.375V107.812C277.344 108.641 277.673 109.436 278.259 110.022C278.845 110.608 279.64 110.938 280.469 110.938H303.906C304.735 110.938 305.53 110.608 306.116 110.022C306.702 109.436 307.031 108.641 307.031 107.812V84.375C307.031 83.5462 306.702 82.7513 306.116 82.1653C305.53 81.5792 304.735 81.25 303.906 81.25H280.469Z" fill="#3C4A64"/>
<path d="M288.281 115.234H264.844C262.902 115.234 261.328 116.808 261.328 118.75V142.188C261.328 144.129 262.902 145.703 264.844 145.703H288.281C290.223 145.703 291.797 144.129 291.797 142.188V118.75C291.797 116.808 290.223 115.234 288.281 115.234Z" fill="#212C42"/>
<path d="M288.281 146.094H264.844C263.808 146.094 262.814 145.682 262.082 144.95C261.349 144.217 260.938 143.224 260.938 142.188V118.75C260.938 117.714 261.349 116.72 262.082 115.988C262.814 115.255 263.808 114.844 264.844 114.844H288.281C289.317 114.844 290.311 115.255 291.043 115.988C291.776 116.72 292.188 117.714 292.188 118.75V142.188C292.188 143.224 291.776 144.217 291.043 144.95C290.311 145.682 289.317 146.094 288.281 146.094V146.094ZM264.844 115.625C264.015 115.625 263.22 115.954 262.634 116.54C262.048 117.126 261.719 117.921 261.719 118.75V142.188C261.719 143.016 262.048 143.811 262.634 144.397C263.22 144.983 264.015 145.312 264.844 145.312H288.281C289.11 145.312 289.905 144.983 290.491 144.397C291.077 143.811 291.406 143.016 291.406 142.188V118.75C291.406 117.921 291.077 117.126 290.491 116.54C289.905 115.954 289.11 115.625 288.281 115.625H264.844Z" fill="#3C4A64"/>
<path d="M303.906 12.1094H280.469C278.527 12.1094 276.953 13.6834 276.953 15.625V39.0625C276.953 41.0041 278.527 42.5781 280.469 42.5781H303.906C305.848 42.5781 307.422 41.0041 307.422 39.0625V15.625C307.422 13.6834 305.848 12.1094 303.906 12.1094Z" fill="#212C42"/>
<path d="M303.906 42.9688H280.469C279.433 42.9688 278.439 42.5572 277.707 41.8246C276.974 41.0921 276.562 40.0985 276.562 39.0625V15.625C276.562 14.589 276.974 13.5954 277.707 12.8629C278.439 12.1303 279.433 11.7188 280.469 11.7188H303.906C304.942 11.7188 305.936 12.1303 306.668 12.8629C307.401 13.5954 307.812 14.589 307.812 15.625V39.0625C307.812 40.0985 307.401 41.0921 306.668 41.8246C305.936 42.5572 304.942 42.9688 303.906 42.9688ZM280.469 12.5C279.64 12.5 278.845 12.8292 278.259 13.4153C277.673 14.0013 277.344 14.7962 277.344 15.625V39.0625C277.344 39.8913 277.673 40.6862 278.259 41.2722C278.845 41.8583 279.64 42.1875 280.469 42.1875H303.906C304.735 42.1875 305.53 41.8583 306.116 41.2722C306.702 40.6862 307.031 39.8913 307.031 39.0625V15.625C307.031 14.7962 306.702 14.0013 306.116 13.4153C305.53 12.8292 304.735 12.5 303.906 12.5H280.469Z" fill="#3C4A64"/>
<path d="M322.656 46.4844H299.219C297.277 46.4844 295.703 48.0584 295.703 50V73.4375C295.703 75.3791 297.277 76.9531 299.219 76.9531H322.656C324.598 76.9531 326.172 75.3791 326.172 73.4375V50C326.172 48.0584 324.598 46.4844 322.656 46.4844Z" fill="#212C42"/>
<path d="M322.656 77.3438H299.219C298.183 77.3438 297.189 76.9322 296.457 76.1996C295.724 75.4671 295.312 74.4735 295.312 73.4375V50C295.312 48.964 295.724 47.9704 296.457 47.2379C297.189 46.5053 298.183 46.0938 299.219 46.0938H322.656C323.692 46.0938 324.686 46.5053 325.418 47.2379C326.151 47.9704 326.562 48.964 326.562 50V73.4375C326.562 74.4735 326.151 75.4671 325.418 76.1996C324.686 76.9322 323.692 77.3438 322.656 77.3438ZM299.219 46.875C298.39 46.875 297.595 47.2042 297.009 47.7903C296.423 48.3763 296.094 49.1712 296.094 50V73.4375C296.094 74.2663 296.423 75.0612 297.009 75.6472C297.595 76.2333 298.39 76.5625 299.219 76.5625H322.656C323.485 76.5625 324.28 76.2333 324.866 75.6472C325.452 75.0612 325.781 74.2663 325.781 73.4375V50C325.781 49.1712 325.452 48.3763 324.866 47.7903C324.28 47.2042 323.485 46.875 322.656 46.875H299.219Z" fill="#3C4A64"/>
<path d="M338.281 80.8594H314.844C312.902 80.8594 311.328 82.4334 311.328 84.375V107.812C311.328 109.754 312.902 111.328 314.844 111.328H338.281C340.223 111.328 341.797 109.754 341.797 107.812V84.375C341.797 82.4334 340.223 80.8594 338.281 80.8594Z" fill="#212C42"/>
<path d="M338.281 111.719H314.844C313.808 111.719 312.814 111.307 312.082 110.575C311.349 109.842 310.938 108.849 310.938 107.812V84.375C310.938 83.339 311.349 82.3454 312.082 81.6129C312.814 80.8803 313.808 80.4688 314.844 80.4688H338.281C339.317 80.4688 340.311 80.8803 341.043 81.6129C341.776 82.3454 342.188 83.339 342.188 84.375V107.812C342.188 108.849 341.776 109.842 341.043 110.575C340.311 111.307 339.317 111.719 338.281 111.719ZM314.844 81.25C314.015 81.25 313.22 81.5792 312.634 82.1653C312.048 82.7513 311.719 83.5462 311.719 84.375V107.812C311.719 108.641 312.048 109.436 312.634 110.022C313.22 110.608 314.015 110.938 314.844 110.938H338.281C339.11 110.938 339.905 110.608 340.491 110.022C341.077 109.436 341.406 108.641 341.406 107.812V84.375C341.406 83.5462 341.077 82.7513 340.491 82.1653C339.905 81.5792 339.11 81.25 338.281 81.25H314.844Z" fill="#3C4A64"/>
<path d="M322.656 115.234H299.219C297.277 115.234 295.703 116.808 295.703 118.75V142.188C295.703 144.129 297.277 145.703 299.219 145.703H322.656C324.598 145.703 326.172 144.129 326.172 142.188V118.75C326.172 116.808 324.598 115.234 322.656 115.234Z" fill="#212C42"/>
<path d="M322.656 146.094H299.219C298.183 146.094 297.189 145.682 296.457 144.95C295.724 144.217 295.312 143.224 295.312 142.188V118.75C295.312 117.714 295.724 116.72 296.457 115.988C297.189 115.255 298.183 114.844 299.219 114.844H322.656C323.692 114.844 324.686 115.255 325.418 115.988C326.151 116.72 326.562 117.714 326.562 118.75V142.188C326.562 143.224 326.151 144.217 325.418 144.95C324.686 145.682 323.692 146.094 322.656 146.094V146.094ZM299.219 115.625C298.39 115.625 297.595 115.954 297.009 116.54C296.423 117.126 296.094 117.921 296.094 118.75V142.188C296.094 143.016 296.423 143.811 297.009 144.397C297.595 144.983 298.39 145.312 299.219 145.312H322.656C323.485 145.312 324.28 144.983 324.866 144.397C325.452 143.811 325.781 143.016 325.781 142.188V118.75C325.781 117.921 325.452 117.126 324.866 116.54C324.28 115.954 323.485 115.625 322.656 115.625H299.219Z" fill="#3C4A64"/>
<path d="M338.281 12.1094H314.844C312.902 12.1094 311.328 13.6834 311.328 15.625V39.0625C311.328 41.0041 312.902 42.5781 314.844 42.5781H338.281C340.223 42.5781 341.797 41.0041 341.797 39.0625V15.625C341.797 13.6834 340.223 12.1094 338.281 12.1094Z" fill="#212C42"/>
<path d="M338.281 42.9688H314.844C313.808 42.9688 312.814 42.5572 312.082 41.8246C311.349 41.0921 310.938 40.0985 310.938 39.0625V15.625C310.938 14.589 311.349 13.5954 312.082 12.8629C312.814 12.1303 313.808 11.7188 314.844 11.7188H338.281C339.317 11.7188 340.311 12.1303 341.043 12.8629C341.776 13.5954 342.188 14.589 342.188 15.625V39.0625C342.188 40.0985 341.776 41.0921 341.043 41.8246C340.311 42.5572 339.317 42.9688 338.281 42.9688ZM314.844 12.5C314.015 12.5 313.22 12.8292 312.634 13.4153C312.048 14.0013 311.719 14.7962 311.719 15.625V39.0625C311.719 39.8913 312.048 40.6862 312.634 41.2722C313.22 41.8583 314.015 42.1875 314.844 42.1875H338.281C339.11 42.1875 339.905 41.8583 340.491 41.2722C341.077 40.6862 341.406 39.8913 341.406 39.0625V15.625C341.406 14.7962 341.077 14.0013 340.491 13.4153C339.905 12.8292 339.11 12.5 338.281 12.5H314.844Z" fill="#3C4A64"/>
<path d="M357.031 46.4844H333.594C331.652 46.4844 330.078 48.0584 330.078 50V73.4375C330.078 75.3791 331.652 76.9531 333.594 76.9531H357.031C358.973 76.9531 360.547 75.3791 360.547 73.4375V50C360.547 48.0584 358.973 46.4844 357.031 46.4844Z" fill="#212C42"/>
<path d="M357.031 77.3438H333.594C332.558 77.3438 331.564 76.9322 330.832 76.1996C330.099 75.4671 329.688 74.4735 329.688 73.4375V50C329.688 48.964 330.099 47.9704 330.832 47.2379C331.564 46.5053 332.558 46.0938 333.594 46.0938H357.031C358.067 46.0938 359.061 46.5053 359.793 47.2379C360.526 47.9704 360.938 48.964 360.938 50V73.4375C360.938 74.4735 360.526 75.4671 359.793 76.1996C359.061 76.9322 358.067 77.3438 357.031 77.3438ZM333.594 46.875C332.765 46.875 331.97 47.2042 331.384 47.7903C330.798 48.3763 330.469 49.1712 330.469 50V73.4375C330.469 74.2663 330.798 75.0612 331.384 75.6472C331.97 76.2333 332.765 76.5625 333.594 76.5625H357.031C357.86 76.5625 358.655 76.2333 359.241 75.6472C359.827 75.0612 360.156 74.2663 360.156 73.4375V50C360.156 49.1712 359.827 48.3763 359.241 47.7903C358.655 47.2042 357.86 46.875 357.031 46.875H333.594Z" fill="#3C4A64"/>
<path d="M372.656 80.8594H349.219C347.277 80.8594 345.703 82.4334 345.703 84.375V107.812C345.703 109.754 347.277 111.328 349.219 111.328H372.656C374.598 111.328 376.172 109.754 376.172 107.812V84.375C376.172 82.4334 374.598 80.8594 372.656 80.8594Z" fill="#212C42"/>
<path d="M372.656 111.719H349.219C348.183 111.719 347.189 111.307 346.457 110.575C345.724 109.842 345.312 108.849 345.312 107.812V84.375C345.312 83.339 345.724 82.3454 346.457 81.6129C347.189 80.8803 348.183 80.4688 349.219 80.4688H372.656C373.692 80.4688 374.686 80.8803 375.418 81.6129C376.151 82.3454 376.562 83.339 376.562 84.375V107.812C376.562 108.849 376.151 109.842 375.418 110.575C374.686 111.307 373.692 111.719 372.656 111.719ZM349.219 81.25C348.39 81.25 347.595 81.5792 347.009 82.1653C346.423 82.7513 346.094 83.5462 346.094 84.375V107.812C346.094 108.641 346.423 109.436 347.009 110.022C347.595 110.608 348.39 110.938 349.219 110.938H372.656C373.485 110.938 374.28 110.608 374.866 110.022C375.452 109.436 375.781 108.641 375.781 107.812V84.375C375.781 83.5462 375.452 82.7513 374.866 82.1653C374.28 81.5792 373.485 81.25 372.656 81.25H349.219Z" fill="#3C4A64"/>
<path d="M357.031 115.234H333.594C331.652 115.234 330.078 116.808 330.078 118.75V142.188C330.078 144.129 331.652 145.703 333.594 145.703H357.031C358.973 145.703 360.547 144.129 360.547 142.188V118.75C360.547 116.808 358.973 115.234 357.031 115.234Z" fill="#212C42"/>
<path d="M357.031 146.094H333.594C332.558 146.094 331.564 145.682 330.832 144.95C330.099 144.217 329.688 143.224 329.688 142.188V118.75C329.688 117.714 330.099 116.72 330.832 115.988C331.564 115.255 332.558 114.844 333.594 114.844H357.031C358.067 114.844 359.061 115.255 359.793 115.988C360.526 116.72 360.938 117.714 360.938 118.75V142.188C360.938 143.224 360.526 144.217 359.793 144.95C359.061 145.682 358.067 146.094 357.031 146.094V146.094ZM333.594 115.625C332.765 115.625 331.97 115.954 331.384 116.54C330.798 117.126 330.469 117.921 330.469 118.75V142.188C330.469 143.016 330.798 143.811 331.384 144.397C331.97 144.983 332.765 145.312 333.594 145.312H357.031C357.86 145.312 358.655 144.983 359.241 144.397C359.827 143.811 360.156 143.016 360.156 142.188V118.75C360.156 117.921 359.827 117.126 359.241 116.54C358.655 115.954 357.86 115.625 357.031 115.625H333.594Z" fill="#3C4A64"/>
<path d="M372.656 12.1094H349.219C347.277 12.1094 345.703 13.6834 345.703 15.625V39.0625C345.703 41.0041 347.277 42.5781 349.219 42.5781H372.656C374.598 42.5781 376.172 41.0041 376.172 39.0625V15.625C376.172 13.6834 374.598 12.1094 372.656 12.1094Z" fill="#212C42"/>
<path d="M372.656 42.9688H349.219C348.183 42.9688 347.189 42.5572 346.457 41.8246C345.724 41.0921 345.312 40.0985 345.312 39.0625V15.625C345.312 14.589 345.724 13.5954 346.457 12.8629C347.189 12.1303 348.183 11.7188 349.219 11.7188H372.656C373.692 11.7188 374.686 12.1303 375.418 12.8629C376.151 13.5954 376.562 14.589 376.562 15.625V39.0625C376.562 40.0985 376.151 41.0921 375.418 41.8246C374.686 42.5572 373.692 42.9688 372.656 42.9688ZM349.219 12.5C348.39 12.5 347.595 12.8292 347.009 13.4153C346.423 14.0013 346.094 14.7962 346.094 15.625V39.0625C346.094 39.8913 346.423 40.6862 347.009 41.2722C347.595 41.8583 348.39 42.1875 349.219 42.1875H372.656C373.485 42.1875 374.28 41.8583 374.866 41.2722C375.452 40.6862 375.781 39.8913 375.781 39.0625V15.625C375.781 14.7962 375.452 14.0013 374.866 13.4153C374.28 12.8292 373.485 12.5 372.656 12.5H349.219Z" fill="#3C4A64"/>
<path d="M391.406 46.4844H367.969C366.027 46.4844 364.453 48.0584 364.453 50V73.4375C364.453 75.3791 366.027 76.9531 367.969 76.9531H391.406C393.348 76.9531 394.922 75.3791 394.922 73.4375V50C394.922 48.0584 393.348 46.4844 391.406 46.4844Z" fill="#212C42"/>
<path d="M391.406 77.3438H367.969C366.933 77.3438 365.939 76.9322 365.207 76.1996C364.474 75.4671 364.062 74.4735 364.062 73.4375V50C364.063 48.964 364.474 47.9704 365.207 47.2379C365.939 46.5053 366.933 46.0938 367.969 46.0938H391.406C392.442 46.0938 393.436 46.5053 394.168 47.2379C394.901 47.9704 395.312 48.964 395.312 50V73.4375C395.313 74.4735 394.901 75.4671 394.168 76.1996C393.436 76.9322 392.442 77.3438 391.406 77.3438V77.3438ZM367.969 46.875C367.14 46.875 366.345 47.2042 365.759 47.7903C365.173 48.3763 364.844 49.1712 364.844 50V73.4375C364.844 74.2663 365.173 75.0612 365.759 75.6472C366.345 76.2333 367.14 76.5625 367.969 76.5625H391.406C392.235 76.5625 393.03 76.2333 393.616 75.6472C394.202 75.0612 394.531 74.2663 394.531 73.4375V50C394.531 49.1712 394.202 48.3763 393.616 47.7903C393.03 47.2042 392.235 46.875 391.406 46.875H367.969Z" fill="#3C4A64"/>
<path d="M407.031 80.8594H383.594C381.652 80.8594 380.078 82.4334 380.078 84.375V107.812C380.078 109.754 381.652 111.328 383.594 111.328H407.031C408.973 111.328 410.547 109.754 410.547 107.812V84.375C410.547 82.4334 408.973 80.8594 407.031 80.8594Z" fill="#212C42"/>
<path d="M407.031 111.719H383.594C382.558 111.719 381.564 111.307 380.832 110.575C380.099 109.842 379.688 108.849 379.688 107.812V84.375C379.688 83.339 380.099 82.3454 380.832 81.6129C381.564 80.8803 382.558 80.4688 383.594 80.4688H407.031C408.067 80.4688 409.061 80.8803 409.793 81.6129C410.526 82.3454 410.938 83.339 410.938 84.375V107.812C410.938 108.849 410.526 109.842 409.793 110.575C409.061 111.307 408.067 111.719 407.031 111.719ZM383.594 81.25C382.765 81.25 381.97 81.5792 381.384 82.1653C380.798 82.7513 380.469 83.5462 380.469 84.375V107.812C380.469 108.641 380.798 109.436 381.384 110.022C381.97 110.608 382.765 110.938 383.594 110.938H407.031C407.86 110.938 408.655 110.608 409.241 110.022C409.827 109.436 410.156 108.641 410.156 107.812V84.375C410.156 83.5462 409.827 82.7513 409.241 82.1653C408.655 81.5792 407.86 81.25 407.031 81.25H383.594Z" fill="#3C4A64"/>
<path d="M391.406 115.234H367.969C366.027 115.234 364.453 116.808 364.453 118.75V142.188C364.453 144.129 366.027 145.703 367.969 145.703H391.406C393.348 145.703 394.922 144.129 394.922 142.188V118.75C394.922 116.808 393.348 115.234 391.406 115.234Z" fill="#212C42"/>
<path d="M391.406 146.094H367.969C366.933 146.094 365.939 145.682 365.207 144.95C364.474 144.217 364.062 143.224 364.062 142.188V118.75C364.063 117.714 364.474 116.72 365.207 115.988C365.939 115.255 366.933 114.844 367.969 114.844H391.406C392.442 114.844 393.436 115.255 394.168 115.988C394.901 116.72 395.312 117.714 395.312 118.75V142.188C395.313 143.224 394.901 144.217 394.168 144.95C393.436 145.682 392.442 146.094 391.406 146.094V146.094ZM367.969 115.625C367.14 115.625 366.345 115.954 365.759 116.54C365.173 117.126 364.844 117.921 364.844 118.75V142.188C364.844 143.016 365.173 143.811 365.759 144.397C366.345 144.983 367.14 145.312 367.969 145.312H391.406C392.235 145.312 393.03 144.983 393.616 144.397C394.202 143.811 394.531 143.016 394.531 142.188V118.75C394.531 117.921 394.202 117.126 393.616 116.54C393.03 115.954 392.235 115.625 391.406 115.625H367.969Z" fill="#3C4A64"/>
<path d="M407.031 12.1094H383.594C381.652 12.1094 380.078 13.6834 380.078 15.625V39.0625C380.078 41.0041 381.652 42.5781 383.594 42.5781H407.031C408.973 42.5781 410.547 41.0041 410.547 39.0625V15.625C410.547 13.6834 408.973 12.1094 407.031 12.1094Z" fill="#212C42"/>
<path d="M407.031 42.9688H383.594C382.558 42.9688 381.564 42.5572 380.832 41.8246C380.099 41.0921 379.688 40.0985 379.688 39.0625V15.625C379.688 14.589 380.099 13.5954 380.832 12.8629C381.564 12.1303 382.558 11.7188 383.594 11.7188H407.031C408.067 11.7188 409.061 12.1303 409.793 12.8629C410.526 13.5954 410.938 14.589 410.938 15.625V39.0625C410.938 40.0985 410.526 41.0921 409.793 41.8246C409.061 42.5572 408.067 42.9688 407.031 42.9688ZM383.594 12.5C382.765 12.5 381.97 12.8292 381.384 13.4153C380.798 14.0013 380.469 14.7962 380.469 15.625V39.0625C380.469 39.8913 380.798 40.6862 381.384 41.2722C381.97 41.8583 382.765 42.1875 383.594 42.1875H407.031C407.86 42.1875 408.655 41.8583 409.241 41.2722C409.827 40.6862 410.156 39.8913 410.156 39.0625V15.625C410.156 14.7962 409.827 14.0013 409.241 13.4153C408.655 12.8292 407.86 12.5 407.031 12.5H383.594Z" fill="#3C4A64"/>
<path d="M425.781 46.4844H402.344C400.402 46.4844 398.828 48.0584 398.828 50V73.4375C398.828 75.3791 400.402 76.9531 402.344 76.9531H425.781C427.723 76.9531 429.297 75.3791 429.297 73.4375V50C429.297 48.0584 427.723 46.4844 425.781 46.4844Z" fill="#212C42"/>
<path d="M425.781 77.3438H402.344C401.308 77.3438 400.314 76.9322 399.582 76.1996C398.849 75.4671 398.438 74.4735 398.438 73.4375V50C398.438 48.964 398.849 47.9704 399.582 47.2379C400.314 46.5053 401.308 46.0938 402.344 46.0938H425.781C426.817 46.0938 427.811 46.5053 428.543 47.2379C429.276 47.9704 429.688 48.964 429.688 50V73.4375C429.688 74.4735 429.276 75.4671 428.543 76.1996C427.811 76.9322 426.817 77.3438 425.781 77.3438ZM402.344 46.875C401.515 46.875 400.72 47.2042 400.134 47.7903C399.548 48.3763 399.219 49.1712 399.219 50V73.4375C399.219 74.2663 399.548 75.0612 400.134 75.6472C400.72 76.2333 401.515 76.5625 402.344 76.5625H425.781C426.61 76.5625 427.405 76.2333 427.991 75.6472C428.577 75.0612 428.906 74.2663 428.906 73.4375V50C428.906 49.1712 428.577 48.3763 427.991 47.7903C427.405 47.2042 426.61 46.875 425.781 46.875H402.344Z" fill="#3C4A64"/>
<path d="M441.406 80.8594H417.969C416.027 80.8594 414.453 82.4334 414.453 84.375V107.812C414.453 109.754 416.027 111.328 417.969 111.328H441.406C443.348 111.328 444.922 109.754 444.922 107.812V84.375C444.922 82.4334 443.348 80.8594 441.406 80.8594Z" fill="#212C42"/>
<path d="M441.406 111.719H417.969C416.933 111.719 415.939 111.307 415.207 110.575C414.474 109.842 414.062 108.849 414.062 107.812V84.375C414.062 83.339 414.474 82.3454 415.207 81.6129C415.939 80.8803 416.933 80.4688 417.969 80.4688H441.406C442.442 80.4688 443.436 80.8803 444.168 81.6129C444.901 82.3454 445.312 83.339 445.312 84.375V107.812C445.312 108.849 444.901 109.842 444.168 110.575C443.436 111.307 442.442 111.719 441.406 111.719ZM417.969 81.25C417.14 81.25 416.345 81.5792 415.759 82.1653C415.173 82.7513 414.844 83.5462 414.844 84.375V107.812C414.844 108.641 415.173 109.436 415.759 110.022C416.345 110.608 417.14 110.938 417.969 110.938H441.406C442.235 110.938 443.03 110.608 443.616 110.022C444.202 109.436 444.531 108.641 444.531 107.812V84.375C444.531 83.5462 444.202 82.7513 443.616 82.1653C443.03 81.5792 442.235 81.25 441.406 81.25H417.969Z" fill="#3C4A64"/>
<path d="M425.781 115.234H402.344C400.402 115.234 398.828 116.808 398.828 118.75V142.188C398.828 144.129 400.402 145.703 402.344 145.703H425.781C427.723 145.703 429.297 144.129 429.297 142.188V118.75C429.297 116.808 427.723 115.234 425.781 115.234Z" fill="#212C42"/>
<path d="M425.781 146.094H402.344C401.308 146.094 400.314 145.682 399.582 144.95C398.849 144.217 398.438 143.224 398.438 142.188V118.75C398.438 117.714 398.849 116.72 399.582 115.988C400.314 115.255 401.308 114.844 402.344 114.844H425.781C426.817 114.844 427.811 115.255 428.543 115.988C429.276 116.72 429.688 117.714 429.688 118.75V142.188C429.688 143.224 429.276 144.217 428.543 144.95C427.811 145.682 426.817 146.094 425.781 146.094V146.094ZM402.344 115.625C401.515 115.625 400.72 115.954 400.134 116.54C399.548 117.126 399.219 117.921 399.219 118.75V142.188C399.219 143.016 399.548 143.811 400.134 144.397C400.72 144.983 401.515 145.312 402.344 145.312H425.781C426.61 145.312 427.405 144.983 427.991 144.397C428.577 143.811 428.906 143.016 428.906 142.188V118.75C428.906 117.921 428.577 117.126 427.991 116.54C427.405 115.954 426.61 115.625 425.781 115.625H402.344Z" fill="#3C4A64"/>
<path d="M441.406 12.1094H417.969C416.027 12.1094 414.453 13.6834 414.453 15.625V39.0625C414.453 41.0041 416.027 42.5781 417.969 42.5781H441.406C443.348 42.5781 444.922 41.0041 444.922 39.0625V15.625C444.922 13.6834 443.348 12.1094 441.406 12.1094Z" fill="#212C42"/>
<path d="M441.406 42.9688H417.969C416.933 42.9688 415.939 42.5572 415.207 41.8246C414.474 41.0921 414.062 40.0985 414.062 39.0625V15.625C414.062 14.589 414.474 13.5954 415.207 12.8629C415.939 12.1303 416.933 11.7188 417.969 11.7188H441.406C442.442 11.7188 443.436 12.1303 444.168 12.8629C444.901 13.5954 445.312 14.589 445.312 15.625V39.0625C445.312 40.0985 444.901 41.0921 444.168 41.8246C443.436 42.5572 442.442 42.9688 441.406 42.9688ZM417.969 12.5C417.14 12.5 416.345 12.8292 415.759 13.4153C415.173 14.0013 414.844 14.7962 414.844 15.625V39.0625C414.844 39.8913 415.173 40.6862 415.759 41.2722C416.345 41.8583 417.14 42.1875 417.969 42.1875H441.406C442.235 42.1875 443.03 41.8583 443.616 41.2722C444.202 40.6862 444.531 39.8913 444.531 39.0625V15.625C444.531 14.7962 444.202 14.0013 443.616 13.4153C443.03 12.8292 442.235 12.5 441.406 12.5H417.969Z" fill="#3C4A64"/>
<path d="M460.156 46.4844H436.719C434.777 46.4844 433.203 48.0584 433.203 50V73.4375C433.203 75.3791 434.777 76.9531 436.719 76.9531H460.156C462.098 76.9531 463.672 75.3791 463.672 73.4375V50C463.672 48.0584 462.098 46.4844 460.156 46.4844Z" fill="#212C42"/>
<path d="M460.156 77.3438H436.719C435.683 77.3438 434.689 76.9322 433.957 76.1996C433.224 75.4671 432.812 74.4735 432.812 73.4375V50C432.812 48.964 433.224 47.9704 433.957 47.2379C434.689 46.5053 435.683 46.0938 436.719 46.0938H460.156C461.192 46.0938 462.186 46.5053 462.918 47.2379C463.651 47.9704 464.062 48.964 464.062 50V73.4375C464.062 74.4735 463.651 75.4671 462.918 76.1996C462.186 76.9322 461.192 77.3438 460.156 77.3438ZM436.719 46.875C435.89 46.875 435.095 47.2042 434.509 47.7903C433.923 48.3763 433.594 49.1712 433.594 50V73.4375C433.594 74.2663 433.923 75.0612 434.509 75.6472C435.095 76.2333 435.89 76.5625 436.719 76.5625H460.156C460.985 76.5625 461.78 76.2333 462.366 75.6472C462.952 75.0612 463.281 74.2663 463.281 73.4375V50C463.281 49.1712 462.952 48.3763 462.366 47.7903C461.78 47.2042 460.985 46.875 460.156 46.875H436.719Z" fill="#3C4A64"/>
<path d="M494.531 12.1094H452.344C450.402 12.1094 448.828 13.6834 448.828 15.625V39.0625C448.828 41.0041 450.402 42.5781 452.344 42.5781H494.531C496.473 42.5781 498.047 41.0041 498.047 39.0625V15.625C498.047 13.6834 496.473 12.1094 494.531 12.1094Z" fill="#212C42"/>
<path d="M494.531 42.9688H452.344C451.308 42.9688 450.314 42.5572 449.582 41.8246C448.849 41.0921 448.438 40.0985 448.438 39.0625V15.625C448.438 14.589 448.849 13.5954 449.582 12.8629C450.314 12.1303 451.308 11.7188 452.344 11.7188H494.531C495.567 11.7188 496.561 12.1303 497.293 12.8629C498.026 13.5954 498.438 14.589 498.438 15.625V39.0625C498.438 40.0985 498.026 41.0921 497.293 41.8246C496.561 42.5572 495.567 42.9688 494.531 42.9688ZM452.344 12.5C451.515 12.5 450.72 12.8292 450.134 13.4153C449.548 14.0013 449.219 14.7962 449.219 15.625V39.0625C449.219 39.8913 449.548 40.6862 450.134 41.2722C450.72 41.8583 451.515 42.1875 452.344 42.1875H494.531C495.36 42.1875 496.155 41.8583 496.741 41.2722C497.327 40.6862 497.656 39.8913 497.656 39.0625V15.625C497.656 14.7962 497.327 14.0013 496.741 13.4153C496.155 12.8292 495.36 12.5 494.531 12.5H452.344Z" fill="#3C4A64"/>
<path d="M97.6562 12.1094H74.2188C72.2771 12.1094 70.7031 13.6834 70.7031 15.625V39.0625C70.7031 41.0041 72.2771 42.5781 74.2188 42.5781H97.6562C99.5979 42.5781 101.172 41.0041 101.172 39.0625V15.625C101.172 13.6834 99.5979 12.1094 97.6562 12.1094Z" fill="#212C42"/>
<path d="M97.6562 42.9688H74.2188C73.1827 42.9688 72.1892 42.5572 71.4566 41.8246C70.724 41.0921 70.3125 40.0985 70.3125 39.0625V15.625C70.3125 14.589 70.724 13.5954 71.4566 12.8629C72.1892 12.1303 73.1827 11.7188 74.2188 11.7188H97.6562C98.6923 11.7188 99.6858 12.1303 100.418 12.8629C101.151 13.5954 101.562 14.589 101.562 15.625V39.0625C101.562 40.0985 101.151 41.0921 100.418 41.8246C99.6858 42.5572 98.6923 42.9688 97.6562 42.9688ZM74.2188 12.5C73.3899 12.5 72.5951 12.8292 72.009 13.4153C71.423 14.0013 71.0938 14.7962 71.0938 15.625V39.0625C71.0938 39.8913 71.423 40.6862 72.009 41.2722C72.5951 41.8583 73.3899 42.1875 74.2188 42.1875H97.6562C98.4851 42.1875 99.2799 41.8583 99.866 41.2722C100.452 40.6862 100.781 39.8913 100.781 39.0625V15.625C100.781 14.7962 100.452 14.0013 99.866 13.4153C99.2799 12.8292 98.4851 12.5 97.6562 12.5H74.2188Z" fill="#3C4A64"/>
<path d="M116.406 46.4844H92.9688C91.0271 46.4844 89.4531 48.0584 89.4531 50V73.4375C89.4531 75.3791 91.0271 76.9531 92.9688 76.9531H116.406C118.348 76.9531 119.922 75.3791 119.922 73.4375V50C119.922 48.0584 118.348 46.4844 116.406 46.4844Z" fill="#212C42"/>
<path d="M116.406 77.3438H92.9688C91.9327 77.3438 90.9392 76.9322 90.2066 76.1996C89.474 75.4671 89.0625 74.4735 89.0625 73.4375V50C89.0625 48.964 89.474 47.9704 90.2066 47.2379C90.9392 46.5053 91.9327 46.0938 92.9688 46.0938H116.406C117.442 46.0938 118.436 46.5053 119.168 47.2379C119.901 47.9704 120.312 48.964 120.312 50V73.4375C120.312 74.4735 119.901 75.4671 119.168 76.1996C118.436 76.9322 117.442 77.3438 116.406 77.3438ZM92.9688 46.875C92.1399 46.875 91.3451 47.2042 90.759 47.7903C90.173 48.3763 89.8438 49.1712 89.8438 50V73.4375C89.8438 74.2663 90.173 75.0612 90.759 75.6472C91.3451 76.2333 92.1399 76.5625 92.9688 76.5625H116.406C117.235 76.5625 118.03 76.2333 118.616 75.6472C119.202 75.0612 119.531 74.2663 119.531 73.4375V50C119.531 49.1712 119.202 48.3763 118.616 47.7903C118.03 47.2042 117.235 46.875 116.406 46.875H92.9688Z" fill="#3C4A64"/>
<path d="M132.031 80.8594H108.594C106.652 80.8594 105.078 82.4334 105.078 84.375V107.812C105.078 109.754 106.652 111.328 108.594 111.328H132.031C133.973 111.328 135.547 109.754 135.547 107.812V84.375C135.547 82.4334 133.973 80.8594 132.031 80.8594Z" fill="#212C42"/>
<path d="M132.031 111.719H108.594C107.558 111.719 106.564 111.307 105.832 110.575C105.099 109.842 104.688 108.849 104.688 107.812V84.375C104.688 83.339 105.099 82.3454 105.832 81.6129C106.564 80.8803 107.558 80.4688 108.594 80.4688H132.031C133.067 80.4688 134.061 80.8803 134.793 81.6129C135.526 82.3454 135.938 83.339 135.938 84.375V107.812C135.938 108.849 135.526 109.842 134.793 110.575C134.061 111.307 133.067 111.719 132.031 111.719ZM108.594 81.25C107.765 81.25 106.97 81.5792 106.384 82.1653C105.798 82.7513 105.469 83.5462 105.469 84.375V107.812C105.469 108.641 105.798 109.436 106.384 110.022C106.97 110.608 107.765 110.938 108.594 110.938H132.031C132.86 110.938 133.655 110.608 134.241 110.022C134.827 109.436 135.156 108.641 135.156 107.812V84.375C135.156 83.5462 134.827 82.7513 134.241 82.1653C133.655 81.5792 132.86 81.25 132.031 81.25H108.594Z" fill="#3C4A64"/>
<path d="M116.406 115.234H92.9688C91.0271 115.234 89.4531 116.808 89.4531 118.75V142.188C89.4531 144.129 91.0271 145.703 92.9688 145.703H116.406C118.348 145.703 119.922 144.129 119.922 142.188V118.75C119.922 116.808 118.348 115.234 116.406 115.234Z" fill="#212C42"/>
<path d="M116.406 146.094H92.9688C91.9327 146.094 90.9392 145.682 90.2066 144.95C89.474 144.217 89.0625 143.224 89.0625 142.188V118.75C89.0625 117.714 89.474 116.72 90.2066 115.988C90.9392 115.255 91.9327 114.844 92.9688 114.844H116.406C117.442 114.844 118.436 115.255 119.168 115.988C119.901 116.72 120.312 117.714 120.312 118.75V142.188C120.312 143.224 119.901 144.217 119.168 144.95C118.436 145.682 117.442 146.094 116.406 146.094V146.094ZM92.9688 115.625C92.1399 115.625 91.3451 115.954 90.759 116.54C90.173 117.126 89.8438 117.921 89.8438 118.75V142.188C89.8438 143.016 90.173 143.811 90.759 144.397C91.3451 144.983 92.1399 145.312 92.9688 145.312H116.406C117.235 145.312 118.03 144.983 118.616 144.397C119.202 143.811 119.531 143.016 119.531 142.188V118.75C119.531 117.921 119.202 117.126 118.616 116.54C118.03 115.954 117.235 115.625 116.406 115.625H92.9688Z" fill="#3C4A64"/>
<path d="M82.0312 115.234H5.46875C3.52712 115.234 1.95312 116.808 1.95312 118.75V142.188C1.95312 144.129 3.52712 145.703 5.46875 145.703H82.0312C83.9729 145.703 85.5469 144.129 85.5469 142.188V118.75C85.5469 116.808 83.9729 115.234 82.0312 115.234Z" fill="#212C42"/>
<path d="M82.0312 146.094H5.46875C4.43275 146.094 3.43918 145.682 2.70661 144.95C1.97405 144.217 1.5625 143.224 1.5625 142.188L1.5625 118.75C1.5625 117.714 1.97405 116.72 2.70661 115.988C3.43918 115.255 4.43275 114.844 5.46875 114.844H82.0312C83.0673 114.844 84.0608 115.255 84.7934 115.988C85.526 116.72 85.9375 117.714 85.9375 118.75V142.188C85.9375 143.224 85.526 144.217 84.7934 144.95C84.0608 145.682 83.0673 146.094 82.0312 146.094V146.094ZM5.46875 115.625C4.63995 115.625 3.84509 115.954 3.25904 116.54C2.67299 117.126 2.34375 117.921 2.34375 118.75V142.188C2.34375 143.016 2.67299 143.811 3.25904 144.397C3.84509 144.983 4.63995 145.312 5.46875 145.312H82.0312C82.8601 145.312 83.6549 144.983 84.241 144.397C84.827 143.811 85.1562 143.016 85.1562 142.188V118.75C85.1562 117.921 84.827 117.126 84.241 116.54C83.6549 115.954 82.8601 115.625 82.0312 115.625H5.46875Z" fill="#3C4A64"/>
<path d="M63.2812 149.609H5.46875C3.52712 149.609 1.95312 151.183 1.95312 153.125V176.562C1.95312 178.504 3.52712 180.078 5.46875 180.078H63.2812C65.2229 180.078 66.7969 178.504 66.7969 176.562V153.125C66.7969 151.183 65.2229 149.609 63.2812 149.609Z" fill="#212C42"/>
<path d="M63.2812 180.469H5.46875C4.43275 180.469 3.43918 180.057 2.70661 179.325C1.97405 178.592 1.5625 177.599 1.5625 176.562L1.5625 153.125C1.5625 152.089 1.97405 151.095 2.70661 150.363C3.43918 149.63 4.43275 149.219 5.46875 149.219H63.2812C64.3173 149.219 65.3108 149.63 66.0434 150.363C66.776 151.095 67.1875 152.089 67.1875 153.125V176.562C67.1875 177.599 66.776 178.592 66.0434 179.325C65.3108 180.057 64.3173 180.469 63.2812 180.469V180.469ZM5.46875 150C4.63995 150 3.84509 150.329 3.25904 150.915C2.67299 151.501 2.34375 152.296 2.34375 153.125V176.562C2.34375 177.391 2.67299 178.186 3.25904 178.772C3.84509 179.358 4.63995 179.688 5.46875 179.688H63.2812C64.1101 179.688 64.9049 179.358 65.491 178.772C66.077 178.186 66.4062 177.391 66.4062 176.562V153.125C66.4062 152.296 66.077 151.501 65.491 150.915C64.9049 150.329 64.1101 150 63.2812 150H5.46875Z" fill="#3C4A64"/>
<path d="M494.531 80.8594H452.344C450.402 80.8594 448.828 82.4334 448.828 84.375V107.812C448.828 109.754 450.402 111.328 452.344 111.328H494.531C496.473 111.328 498.047 109.754 498.047 107.812V84.375C498.047 82.4334 496.473 80.8594 494.531 80.8594Z" fill="#212C42"/>
<path d="M494.531 111.719H452.344C451.308 111.719 450.314 111.307 449.582 110.575C448.849 109.842 448.438 108.849 448.438 107.812V84.375C448.438 83.339 448.849 82.3454 449.582 81.6129C450.314 80.8803 451.308 80.4688 452.344 80.4688H494.531C495.567 80.4688 496.561 80.8803 497.293 81.6129C498.026 82.3454 498.438 83.339 498.438 84.375V107.812C498.438 108.849 498.026 109.842 497.293 110.575C496.561 111.307 495.567 111.719 494.531 111.719ZM452.344 81.25C451.515 81.25 450.72 81.5792 450.134 82.1653C449.548 82.7513 449.219 83.5462 449.219 84.375V107.812C449.219 108.641 449.548 109.436 450.134 110.022C450.72 110.608 451.515 110.938 452.344 110.938H494.531C495.36 110.938 496.155 110.608 496.741 110.022C497.327 109.436 497.656 108.641 497.656 107.812V84.375C497.656 83.5462 497.327 82.7513 496.741 82.1653C496.155 81.5792 495.36 81.25 494.531 81.25H452.344Z" fill="#3C4A64"/>
<path d="M494.531 115.234H436.719C434.777 115.234 433.203 116.808 433.203 118.75V142.188C433.203 144.129 434.777 145.703 436.719 145.703H494.531C496.473 145.703 498.047 144.129 498.047 142.188V118.75C498.047 116.808 496.473 115.234 494.531 115.234Z" fill="#212C42"/>
<path d="M494.531 146.094H436.719C435.683 146.094 434.689 145.682 433.957 144.95C433.224 144.217 432.812 143.224 432.812 142.188V118.75C432.812 117.714 433.224 116.72 433.957 115.988C434.689 115.255 435.683 114.844 436.719 114.844H494.531C495.567 114.844 496.561 115.255 497.293 115.988C498.026 116.72 498.438 117.714 498.438 118.75V142.188C498.438 143.224 498.026 144.217 497.293 144.95C496.561 145.682 495.567 146.094 494.531 146.094V146.094ZM436.719 115.625C435.89 115.625 435.095 115.954 434.509 116.54C433.923 117.126 433.594 117.921 433.594 118.75V142.188C433.594 143.016 433.923 143.811 434.509 144.397C435.095 144.983 435.89 145.312 436.719 145.312H494.531C495.36 145.312 496.155 144.983 496.741 144.397C497.327 143.811 497.656 143.016 497.656 142.188V118.75C497.656 117.921 497.327 117.126 496.741 116.54C496.155 115.954 495.36 115.625 494.531 115.625H436.719Z" fill="#3C4A64"/>
</g>
<g clip-path="url(#clip1_340_1912)">
<path d="M185.91 122.807C190.872 123.241 195.85 122.194 200.216 119.798C204.583 117.402 208.14 113.765 210.44 109.346C212.74 104.927 213.678 99.9257 213.136 94.9739C212.594 90.022 210.596 85.3422 207.395 81.5263C204.194 77.7103 199.933 74.9296 195.152 73.5358C190.371 72.1419 185.284 72.1975 180.534 73.6956C175.785 75.1937 171.586 78.0669 168.469 81.952C165.351 85.837 163.456 90.5594 163.022 95.5219C162.439 102.176 164.524 108.79 168.816 113.907C173.109 119.024 179.258 122.225 185.91 122.807V122.807ZM189.859 77.6795C193.801 78.0173 197.555 79.5175 200.645 81.9901C203.735 84.4627 206.022 87.7967 207.217 91.5701C208.412 95.3435 208.461 99.3867 207.358 103.188C206.255 106.989 204.049 110.378 201.02 112.925C197.991 115.472 194.274 117.063 190.341 117.497C186.408 117.931 182.434 117.188 178.923 115.361C175.413 113.535 172.522 110.709 170.618 107.239C168.714 103.769 167.882 99.8121 168.227 95.8689C168.447 93.2462 169.181 90.6925 170.388 88.3536C171.594 86.0147 173.25 83.9364 175.259 82.2374C177.269 80.5384 179.593 79.2519 182.1 78.4514C184.606 77.6509 187.246 77.3521 189.868 77.572L189.859 77.6795Z" fill="#4794BA"/>
<path d="M126.313 361.574C126.313 361.574 142.227 329.087 148.263 322.825C154.299 316.563 163.27 306.476 167.369 302.139C172.973 296.273 192.06 265.075 193.037 262.162C198.681 246.087 206.083 230.685 215.109 216.236C220.726 208.998 232.619 205.127 231.349 200.248C230.078 195.369 213.669 188.949 201.747 198.922C189.826 208.895 176.14 234.895 176.14 234.895C176.357 226.999 177.046 219.124 178.204 211.31C179.84 202.098 188.492 160.163 190.127 151.385C191.761 142.607 197.879 107.348 198.072 101.839C198.265 96.3299 199.951 86.1474 190.695 84.2179C182.082 82.3808 178.78 91.2299 176.713 100.404C174.647 109.578 169.357 137.432 166.604 148.677C163.851 159.922 159.051 181.353 156.185 185.22C153.94 187.829 150.939 189.674 147.599 190.501C147.599 190.501 146.34 178.472 145.787 172.825C145.541 170.275 144.721 159.837 134.256 159.355C124.438 158.893 121.359 170.977 121.359 170.977C119.25 169.303 116.592 168.477 113.906 168.663C111.637 168.852 109.492 169.783 107.805 171.313C106.117 172.844 104.981 174.888 104.572 177.129C103.921 179.203 102.76 184.628 102.76 184.628C101.778 183.844 100.635 183.285 99.4129 182.991C98.1909 182.697 96.9193 182.675 95.6876 182.925C91.3821 183.849 89.2722 189.804 88.1174 193.098C84.1341 204.918 80.815 216.951 78.1756 229.142C76.971 237.958 79.4816 282.314 78.0288 289.014C76.5761 295.713 43.9065 354.22 43.9065 354.22L126.313 361.574Z" fill="#FFBD95"/>
<path d="M190.48 84.1991C188.925 83.7982 187.284 83.8913 185.785 84.4656C184.285 85.0399 183.001 86.0668 182.112 87.4038C180.134 92.5765 179.4 98.1417 179.968 103.65C180.958 105.543 190.815 108.03 192.8 106.796C195.511 105.118 197.106 94.3141 197.05 91.2391C197.018 89.461 196.329 87.7577 195.116 86.4577C193.903 85.1577 192.252 84.3531 190.48 84.1991Z" fill="#FFC8A7"/>
<path d="M196.375 204.195C190.037 212.113 184.284 220.482 179.163 229.236L176.033 234.886C177.274 240.144 178.147 245.482 178.643 250.862C178.287 256.01 177.357 261.101 175.871 266.042C180.154 260.494 182.522 253.705 182.619 246.695C182.435 241.165 182.545 235.628 182.95 230.109C184.13 221.58 196.375 204.195 196.375 204.195Z" fill="#F9A983"/>
<path d="M121.346 171.12C121.241 179.523 120.675 187.914 119.653 196.255C118.301 200.976 115.94 204.021 114.22 203.87C111.784 203.657 111.865 199.835 113.602 194.425C115.339 189.015 121.346 171.12 121.346 171.12Z" fill="#F9A983"/>
<path d="M102.748 184.771C102.219 190.927 101.226 197.034 99.7775 203.04C98.2092 207.345 97.1422 209.636 95.2085 209.864C93.2748 210.092 92.9223 207.93 93.9306 204.659C96.5029 197.873 99.4465 191.234 102.748 184.771V184.771Z" fill="#F9A983"/>
<path d="M156.988 183.882C156.234 186.831 154.755 189.544 152.687 191.777C151.321 193.265 149.528 194.294 147.554 194.723L147.514 190.638C149.187 190.034 150.817 189.32 152.396 188.501C154.359 187.461 155.96 185.851 156.988 183.882V183.882Z" fill="#F9A983"/>
<path d="M192.763 106.792C190.816 107.995 181.475 105.805 180.061 103.803C182.394 102.987 184.909 102.844 187.319 103.391C189.489 103.819 191.426 105.03 192.763 106.792Z" fill="#FFD3B9"/>
<path d="M129.208 325.998C138.012 316.583 151.031 309.342 162.099 299.222C173.167 289.102 186.863 266.281 188.899 260.753C194.225 246.081 201.39 232.145 210.221 219.276C217.731 210.614 208.839 207.417 219.578 211.787C217.876 213.088 216.338 214.591 214.998 216.263C205.972 230.711 198.569 246.114 192.926 262.189C191.949 265.101 172.862 296.299 167.258 302.166C163.266 306.512 154.224 316.592 148.152 322.852C142.08 329.111 126.202 361.601 126.202 361.601L110.399 360.218C114.785 349.297 122.991 332.678 129.208 325.998Z" fill="#F9A983"/>
<path d="M216.674 214.026C215.156 212.912 214.029 211.347 213.454 209.554C213.696 208.853 222.504 200.63 226.15 200.227C229.796 199.823 232.529 200.785 232.581 201.837C227.704 206.427 222.374 210.51 216.674 214.026V214.026Z" fill="#FFC8A7"/>
<g style="mix-blend-mode:soft-light">
<path d="M78.0552 229.276C80.6946 217.085 84.0137 205.052 87.997 193.232C89.1518 189.938 91.2616 183.983 95.5671 183.059C96.7988 182.808 98.0704 182.831 99.2924 183.125C100.514 183.419 101.657 183.978 102.64 184.761C102.64 184.761 103.801 179.337 104.451 177.263C104.861 175.022 105.997 172.978 107.684 171.447C109.372 169.917 111.516 168.985 113.786 168.797C116.472 168.611 119.13 169.436 121.239 171.11C121.656 169.659 122.226 168.256 122.941 166.925C140.089 198.736 144.881 235.765 136.396 270.896C127.91 306.028 106.746 336.784 76.9687 357.257L43.6786 354.345C43.6786 354.345 76.4947 295.814 77.8009 289.138C79.1072 282.462 76.8506 238.092 78.0552 229.276Z" fill="#F99C94"/>
</g>
</g>
<g clip-path="url(#clip2_340_1912)">
<path d="M295.275 122.807C290.314 123.241 285.336 122.194 280.969 119.798C276.603 117.402 273.045 113.765 270.745 109.346C268.446 104.927 267.508 99.9257 268.05 94.9739C268.592 90.022 270.59 85.3422 273.791 81.5263C276.992 77.7103 281.252 74.9296 286.033 73.5358C290.814 72.1419 295.902 72.1975 300.651 73.6956C305.401 75.1937 309.6 78.0669 312.717 81.952C315.834 85.837 317.73 90.5594 318.164 95.5219C318.746 102.176 316.662 108.79 312.369 113.907C308.077 119.024 301.928 122.225 295.275 122.807V122.807ZM291.327 77.6795C287.384 78.0173 283.63 79.5175 280.54 81.9901C277.45 84.4627 275.163 87.7967 273.968 91.5701C272.773 95.3435 272.724 99.3867 273.828 103.188C274.931 106.989 277.136 110.378 280.166 112.925C283.195 115.472 286.911 117.063 290.844 117.497C294.778 117.931 298.751 117.188 302.262 115.361C305.773 113.535 308.663 110.709 310.567 107.239C312.471 103.769 313.304 99.8121 312.959 95.8689C312.739 93.2462 312.004 90.6925 310.798 88.3536C309.591 86.0147 307.936 83.9364 305.926 82.2374C303.917 80.5384 301.592 79.2519 299.086 78.4514C296.579 77.6509 293.94 77.3521 291.318 77.572L291.327 77.6795Z" fill="#4794BA"/>
<path d="M354.873 361.574C354.873 361.574 338.959 329.087 332.923 322.825C326.886 316.563 317.915 306.476 313.817 302.139C308.212 296.273 289.126 265.075 288.149 262.162C282.505 246.087 275.103 230.685 266.076 216.236C260.46 208.998 248.567 205.127 249.837 200.248C251.107 195.369 267.516 188.949 279.438 198.922C291.36 208.895 305.045 234.895 305.045 234.895C304.828 226.999 304.139 219.124 302.982 211.31C301.345 202.098 292.693 160.163 291.059 151.385C289.424 142.607 283.306 107.348 283.113 101.839C282.92 96.3299 281.235 86.1474 290.49 84.2179C299.104 82.3808 302.406 91.2299 304.472 100.404C306.539 109.578 311.828 137.432 314.581 148.677C317.334 159.922 322.134 181.353 325 185.22C327.245 187.829 330.246 189.674 333.587 190.501C333.587 190.501 334.845 178.472 335.398 172.825C335.645 170.275 336.465 159.837 346.93 159.355C356.747 158.893 359.827 170.977 359.827 170.977C361.935 169.303 364.593 168.477 367.279 168.663C369.549 168.852 371.694 169.783 373.381 171.313C375.068 172.844 376.204 174.888 376.614 177.129C377.265 179.203 378.425 184.628 378.425 184.628C379.408 183.844 380.551 183.285 381.773 182.991C382.995 182.697 384.266 182.675 385.498 182.925C389.803 183.849 391.913 189.804 393.068 193.098C397.051 204.918 400.371 216.951 403.01 229.142C404.215 237.958 401.704 282.314 403.157 289.014C404.609 295.713 437.279 354.22 437.279 354.22L354.873 361.574Z" fill="#FFBD95"/>
<path d="M290.705 84.1991C292.26 83.7982 293.901 83.8913 295.401 84.4656C296.9 85.0399 298.184 86.0668 299.074 87.4038C301.051 92.5765 301.786 98.1417 301.217 103.65C300.228 105.543 290.371 108.03 288.385 106.796C285.675 105.118 284.08 94.3141 284.136 91.2391C284.167 89.461 284.856 87.7577 286.069 86.4577C287.283 85.1577 288.934 84.3531 290.705 84.1991Z" fill="#FFC8A7"/>
<path d="M284.811 204.195C291.149 212.113 296.901 220.482 302.023 229.236L305.153 234.886C303.911 240.144 303.039 245.482 302.542 250.862C302.898 256.01 303.828 261.101 305.315 266.042C301.031 260.494 298.663 253.705 298.567 246.695C298.751 241.165 298.64 235.628 298.235 230.109C297.056 221.58 284.811 204.195 284.811 204.195Z" fill="#F9A983"/>
<path d="M359.839 171.12C359.945 179.523 360.51 187.914 361.533 196.255C362.885 200.976 365.245 204.021 366.965 203.87C369.402 203.657 369.32 199.835 367.583 194.425C365.846 189.015 359.839 171.12 359.839 171.12Z" fill="#F9A983"/>
<path d="M378.438 184.771C378.967 190.927 379.96 197.034 381.408 203.04C382.976 207.345 384.043 209.636 385.977 209.864C387.911 210.092 388.263 207.93 387.255 204.659C384.683 197.873 381.739 191.234 378.438 184.771V184.771Z" fill="#F9A983"/>
<path d="M324.197 183.882C324.952 186.831 326.43 189.544 328.499 191.777C329.865 193.265 331.657 194.294 333.631 194.723L333.671 190.638C331.999 190.034 330.368 189.32 328.79 188.501C326.827 187.461 325.226 185.851 324.197 183.882V183.882Z" fill="#F9A983"/>
<path d="M288.423 106.792C290.369 107.995 299.711 105.805 301.124 103.803C298.792 102.987 296.276 102.844 293.866 103.391C291.697 103.819 289.759 105.03 288.423 106.792Z" fill="#FFD3B9"/>
<path d="M351.977 325.998C343.174 316.583 330.155 309.342 319.087 299.222C308.019 289.102 294.323 266.281 292.287 260.753C286.96 246.081 279.796 232.145 270.965 219.276C263.455 210.614 272.346 207.417 261.607 211.787C263.31 213.088 264.848 214.591 266.187 216.263C275.214 230.711 282.616 246.114 288.26 262.189C289.237 265.101 308.323 296.299 313.928 302.166C317.919 306.512 326.962 316.592 333.034 322.852C339.106 329.111 354.984 361.601 354.984 361.601L370.787 360.218C366.401 349.297 358.195 332.678 351.977 325.998Z" fill="#F9A983"/>
<path d="M264.512 214.026C266.03 212.912 267.157 211.347 267.731 209.554C267.489 208.853 258.682 200.63 255.035 200.227C251.389 199.823 248.657 200.785 248.605 201.837C253.482 206.427 258.811 210.51 264.512 214.026V214.026Z" fill="#FFC8A7"/>
<g style="mix-blend-mode:soft-light">
<path d="M403.13 229.276C400.491 217.085 397.172 205.052 393.189 193.232C392.034 189.938 389.924 183.983 385.618 183.059C384.387 182.808 383.115 182.831 381.893 183.125C380.671 183.419 379.528 183.978 378.546 184.761C378.546 184.761 377.385 179.337 376.734 177.263C376.325 175.022 375.189 172.978 373.501 171.447C371.814 169.917 369.669 168.985 367.4 168.797C364.714 168.611 362.056 169.436 359.947 171.11C359.53 169.659 358.959 168.256 358.245 166.925C341.096 198.736 336.304 235.765 344.79 270.896C353.275 306.028 374.44 336.784 404.217 357.257L437.507 354.345C437.507 354.345 404.691 295.814 403.385 289.138C402.078 282.462 404.335 238.092 403.13 229.276Z" fill="#F99C94"/>
</g>
</g>
<defs>
<clipPath id="clip0_340_1912">
<rect width="496.875" height="168.75" fill="white" transform="translate(1.5625 11.7188)"/>
</clipPath>
<clipPath id="clip1_340_1912">
<rect width="175" height="293.75" fill="white" transform="matrix(-0.996195 -0.0871557 -0.0871557 0.996195 243.686 76.9711)"/>
</clipPath>
<clipPath id="clip2_340_1912">
<rect width="175" height="293.75" fill="white" transform="translate(237.5 76.9711) rotate(-5)"/>
</clipPath>
</defs>
</svg>
