<svg width="530" height="180" viewBox="0 0 530 180" fill="none" xmlns="http://www.w3.org/2000/svg">
<g clip-path="url(#clip0_340_1448)">
<path d="M65.834 0.416626H40.834C38.7629 0.416626 37.084 2.09556 37.084 4.16663V29.1666C37.084 31.2377 38.7629 32.9166 40.834 32.9166H65.834C67.9051 32.9166 69.584 31.2377 69.584 29.1666V4.16663C69.584 2.09556 67.9051 0.416626 65.834 0.416626Z" fill="#212C42"/>
<path d="M65.8327 33.3333H40.8327C39.7276 33.3333 38.6678 32.8943 37.8864 32.1129C37.105 31.3315 36.666 30.2717 36.666 29.1667V4.16667C36.666 3.0616 37.105 2.00179 37.8864 1.22039C38.6678 0.438987 39.7276 0 40.8327 0L65.8327 0C66.9378 0 67.9976 0.438987 68.779 1.22039C69.5604 2.00179 69.9993 3.0616 69.9993 4.16667V29.1667C69.9993 30.2717 69.5604 31.3315 68.779 32.1129C67.9976 32.8943 66.9378 33.3333 65.8327 33.3333ZM40.8327 0.833333C39.9486 0.833333 39.1008 1.18452 38.4757 1.80964C37.8505 2.43477 37.4993 3.28261 37.4993 4.16667V29.1667C37.4993 30.0507 37.8505 30.8986 38.4757 31.5237C39.1008 32.1488 39.9486 32.5 40.8327 32.5H65.8327C66.7167 32.5 67.5646 32.1488 68.1897 31.5237C68.8148 30.8986 69.166 30.0507 69.166 29.1667V4.16667C69.166 3.28261 68.8148 2.43477 68.1897 1.80964C67.5646 1.18452 66.7167 0.833333 65.8327 0.833333H40.8327Z" fill="#3C4A64"/>
<path d="M85.834 37.0834H60.834C58.7629 37.0834 57.084 38.7623 57.084 40.8334V65.8334C57.084 67.9044 58.7629 69.5834 60.834 69.5834H85.834C87.9051 69.5834 89.584 67.9044 89.584 65.8334V40.8334C89.584 38.7623 87.9051 37.0834 85.834 37.0834Z" fill="#212C42"/>
<path d="M85.8327 70H60.8327C59.7276 70 58.6678 69.561 57.8864 68.7796C57.105 67.9982 56.666 66.9384 56.666 65.8333V40.8333C56.666 39.7282 57.105 38.6684 57.8864 37.887C58.6678 37.1056 59.7276 36.6666 60.8327 36.6666H85.8327C86.9378 36.6666 87.9976 37.1056 88.779 37.887C89.5604 38.6684 89.9993 39.7282 89.9993 40.8333V65.8333C89.9993 66.9384 89.5604 67.9982 88.779 68.7796C87.9976 69.561 86.9378 70 85.8327 70ZM60.8327 37.5C59.9486 37.5 59.1008 37.8511 58.4757 38.4763C57.8505 39.1014 57.4993 39.9492 57.4993 40.8333V65.8333C57.4993 66.7173 57.8505 67.5652 58.4757 68.1903C59.1008 68.8154 59.9486 69.1666 60.8327 69.1666H85.8327C86.7167 69.1666 87.5646 68.8154 88.1897 68.1903C88.8148 67.5652 89.166 66.7173 89.166 65.8333V40.8333C89.166 39.9492 88.8148 39.1014 88.1897 38.4763C87.5646 37.8511 86.7167 37.5 85.8327 37.5H60.8327Z" fill="#3C4A64"/>
<path d="M102.5 73.75H77.5C75.4289 73.75 73.75 75.4289 73.75 77.5V102.5C73.75 104.571 75.4289 106.25 77.5 106.25H102.5C104.571 106.25 106.25 104.571 106.25 102.5V77.5C106.25 75.4289 104.571 73.75 102.5 73.75Z" fill="#4794BA"/>
<path d="M102.501 106.667H77.5007C76.3956 106.667 75.3358 106.228 74.5544 105.446C73.773 104.665 73.334 103.605 73.334 102.5V77.4999C73.334 76.3948 73.773 75.335 74.5544 74.5536C75.3358 73.7722 76.3956 73.3333 77.5007 73.3333H102.501C103.606 73.3333 104.666 73.7722 105.447 74.5536C106.228 75.335 106.667 76.3948 106.667 77.4999V102.5C106.667 103.605 106.228 104.665 105.447 105.446C104.666 106.228 103.606 106.667 102.501 106.667ZM77.5007 74.1666C76.6166 74.1666 75.7687 74.5178 75.1436 75.1429C74.5185 75.768 74.1673 76.6159 74.1673 77.4999V102.5C74.1673 103.384 74.5185 104.232 75.1436 104.857C75.7687 105.482 76.6166 105.833 77.5007 105.833H102.501C103.385 105.833 104.233 105.482 104.858 104.857C105.483 104.232 105.834 103.384 105.834 102.5V77.4999C105.834 76.6159 105.483 75.768 104.858 75.1429C104.233 74.5178 103.385 74.1666 102.501 74.1666H77.5007Z" fill="#3C4A64"/>
<path d="M139.166 0.416626H114.166C112.095 0.416626 110.416 2.09556 110.416 4.16663V29.1666C110.416 31.2377 112.095 32.9166 114.166 32.9166H139.166C141.237 32.9166 142.916 31.2377 142.916 29.1666V4.16663C142.916 2.09556 141.237 0.416626 139.166 0.416626Z" fill="#212C42"/>
<path d="M139.167 33.3333H114.167C113.062 33.3333 112.002 32.8943 111.22 32.1129C110.439 31.3315 110 30.2717 110 29.1667V4.16667C110 3.0616 110.439 2.00179 111.22 1.22039C112.002 0.438987 113.062 0 114.167 0L139.167 0C140.272 0 141.332 0.438987 142.113 1.22039C142.894 2.00179 143.333 3.0616 143.333 4.16667V29.1667C143.333 30.2717 142.894 31.3315 142.113 32.1129C141.332 32.8943 140.272 33.3333 139.167 33.3333ZM114.167 0.833333C113.283 0.833333 112.435 1.18452 111.81 1.80964C111.185 2.43477 110.833 3.28261 110.833 4.16667V29.1667C110.833 30.0507 111.185 30.8986 111.81 31.5237C112.435 32.1488 113.283 32.5 114.167 32.5H139.167C140.051 32.5 140.899 32.1488 141.524 31.5237C142.149 30.8986 142.5 30.0507 142.5 29.1667V4.16667C142.5 3.28261 142.149 2.43477 141.524 1.80964C140.899 1.18452 140.051 0.833333 139.167 0.833333H114.167Z" fill="#3C4A64"/>
<path d="M159.166 37.0834H134.166C132.095 37.0834 130.416 38.7623 130.416 40.8334V65.8334C130.416 67.9044 132.095 69.5834 134.166 69.5834H159.166C161.237 69.5834 162.916 67.9044 162.916 65.8334V40.8334C162.916 38.7623 161.237 37.0834 159.166 37.0834Z" fill="#212C42"/>
<path d="M159.167 70H134.167C133.062 70 132.002 69.561 131.22 68.7796C130.439 67.9982 130 66.9384 130 65.8333V40.8333C130 39.7282 130.439 38.6684 131.22 37.887C132.002 37.1056 133.062 36.6666 134.167 36.6666H159.167C160.272 36.6666 161.332 37.1056 162.113 37.887C162.894 38.6684 163.333 39.7282 163.333 40.8333V65.8333C163.333 66.9384 162.894 67.9982 162.113 68.7796C161.332 69.561 160.272 70 159.167 70ZM134.167 37.5C133.283 37.5 132.435 37.8511 131.81 38.4763C131.185 39.1014 130.833 39.9492 130.833 40.8333V65.8333C130.833 66.7173 131.185 67.5652 131.81 68.1903C132.435 68.8154 133.283 69.1666 134.167 69.1666H159.167C160.051 69.1666 160.899 68.8154 161.524 68.1903C162.149 67.5652 162.5 66.7173 162.5 65.8333V40.8333C162.5 39.9492 162.149 39.1014 161.524 38.4763C160.899 37.8511 160.051 37.5 159.167 37.5H134.167Z" fill="#3C4A64"/>
<path d="M175.834 73.75H150.834C148.763 73.75 147.084 75.4289 147.084 77.5V102.5C147.084 104.571 148.763 106.25 150.834 106.25H175.834C177.905 106.25 179.584 104.571 179.584 102.5V77.5C179.584 75.4289 177.905 73.75 175.834 73.75Z" fill="#4794BA"/>
<path d="M175.833 106.667H150.833C149.728 106.667 148.668 106.228 147.886 105.446C147.105 104.665 146.666 103.605 146.666 102.5V77.4999C146.666 76.3948 147.105 75.335 147.886 74.5536C148.668 73.7722 149.728 73.3333 150.833 73.3333H175.833C176.938 73.3333 177.998 73.7722 178.779 74.5536C179.56 75.335 179.999 76.3948 179.999 77.4999V102.5C179.999 103.605 179.56 104.665 178.779 105.446C177.998 106.228 176.938 106.667 175.833 106.667ZM150.833 74.1666C149.949 74.1666 149.101 74.5178 148.476 75.1429C147.851 75.768 147.499 76.6159 147.499 77.4999V102.5C147.499 103.384 147.851 104.232 148.476 104.857C149.101 105.482 149.949 105.833 150.833 105.833H175.833C176.717 105.833 177.565 105.482 178.19 104.857C178.815 104.232 179.166 103.384 179.166 102.5V77.4999C179.166 76.6159 178.815 75.768 178.19 75.1429C177.565 74.5178 176.717 74.1666 175.833 74.1666H150.833Z" fill="#3C4A64"/>
<path d="M159.166 110.417H134.166C132.095 110.417 130.416 112.096 130.416 114.167V139.167C130.416 141.238 132.095 142.917 134.166 142.917H159.166C161.237 142.917 162.916 141.238 162.916 139.167V114.167C162.916 112.096 161.237 110.417 159.166 110.417Z" fill="#212C42"/>
<path d="M159.167 143.333H134.167C133.062 143.333 132.002 142.894 131.22 142.113C130.439 141.332 130 140.272 130 139.167V114.167C130 113.062 130.439 112.002 131.22 111.22C132.002 110.439 133.062 110 134.167 110H159.167C160.272 110 161.332 110.439 162.113 111.22C162.894 112.002 163.333 113.062 163.333 114.167V139.167C163.333 140.272 162.894 141.332 162.113 142.113C161.332 142.894 160.272 143.333 159.167 143.333V143.333ZM134.167 110.833C133.283 110.833 132.435 111.185 131.81 111.81C131.185 112.435 130.833 113.283 130.833 114.167V139.167C130.833 140.051 131.185 140.899 131.81 141.524C132.435 142.149 133.283 142.5 134.167 142.5H159.167C160.051 142.5 160.899 142.149 161.524 141.524C162.149 140.899 162.5 140.051 162.5 139.167V114.167C162.5 113.283 162.149 112.435 161.524 111.81C160.899 111.185 160.051 110.833 159.167 110.833H134.167Z" fill="#3C4A64"/>
<path d="M49.166 37.0834H4.16602C2.09495 37.0834 0.416016 38.7623 0.416016 40.8334V65.8334C0.416016 67.9044 2.09495 69.5834 4.16602 69.5834H49.166C51.2371 69.5834 52.916 67.9044 52.916 65.8334V40.8334C52.916 38.7623 51.2371 37.0834 49.166 37.0834Z" fill="#212C42"/>
<path d="M49.1667 70H4.16667C3.0616 70 2.00179 69.561 1.22039 68.7796C0.438987 67.9982 0 66.9384 0 65.8333L0 40.8333C0 39.7282 0.438987 38.6684 1.22039 37.887C2.00179 37.1056 3.0616 36.6666 4.16667 36.6666H49.1667C50.2717 36.6666 51.3315 37.1056 52.1129 37.887C52.8943 38.6684 53.3333 39.7282 53.3333 40.8333V65.8333C53.3333 66.9384 52.8943 67.9982 52.1129 68.7796C51.3315 69.561 50.2717 70 49.1667 70ZM4.16667 37.5C3.28261 37.5 2.43477 37.8511 1.80964 38.4763C1.18452 39.1014 0.833333 39.9492 0.833333 40.8333V65.8333C0.833333 66.7173 1.18452 67.5652 1.80964 68.1903C2.43477 68.8154 3.28261 69.1666 4.16667 69.1666H49.1667C50.0507 69.1666 50.8986 68.8154 51.5237 68.1903C52.1488 67.5652 52.5 66.7173 52.5 65.8333V40.8333C52.5 39.9492 52.1488 39.1014 51.5237 38.4763C50.8986 37.8511 50.0507 37.5 49.1667 37.5H4.16667Z" fill="#3C4A64"/>
<path d="M65.8327 73.75H4.16602C2.09495 73.75 0.416016 75.4289 0.416016 77.5V102.5C0.416016 104.571 2.09495 106.25 4.16602 106.25H65.8327C67.9037 106.25 69.5827 104.571 69.5827 102.5V77.5C69.5827 75.4289 67.9037 73.75 65.8327 73.75Z" fill="#212C42"/>
<path d="M65.8333 106.667H4.16667C3.0616 106.667 2.00179 106.228 1.22039 105.446C0.438987 104.665 0 103.605 0 102.5L0 77.4999C0 76.3948 0.438987 75.335 1.22039 74.5536C2.00179 73.7722 3.0616 73.3333 4.16667 73.3333H65.8333C66.9384 73.3333 67.9982 73.7722 68.7796 74.5536C69.561 75.335 70 76.3948 70 77.4999V102.5C70 103.605 69.561 104.665 68.7796 105.446C67.9982 106.228 66.9384 106.667 65.8333 106.667ZM4.16667 74.1666C3.28261 74.1666 2.43477 74.5178 1.80964 75.1429C1.18452 75.768 0.833333 76.6159 0.833333 77.4999V102.5C0.833333 103.384 1.18452 104.232 1.80964 104.857C2.43477 105.482 3.28261 105.833 4.16667 105.833H65.8333C66.7174 105.833 67.5652 105.482 68.1904 104.857C68.8155 104.232 69.1667 103.384 69.1667 102.5V77.4999C69.1667 76.6159 68.8155 75.768 68.1904 75.1429C67.5652 74.5178 66.7174 74.1666 65.8333 74.1666H4.16667Z" fill="#3C4A64"/>
<path d="M139.167 147.083H77.5C75.4289 147.083 73.75 148.762 73.75 150.833V175.833C73.75 177.904 75.4289 179.583 77.5 179.583H139.167C141.238 179.583 142.917 177.904 142.917 175.833V150.833C142.917 148.762 141.238 147.083 139.167 147.083Z" fill="#212C42"/>
<path d="M139.167 180H77.5007C76.3956 180 75.3358 179.561 74.5544 178.78C73.773 177.998 73.334 176.938 73.334 175.833V150.833C73.334 149.728 73.773 148.669 74.5544 147.887C75.3358 147.106 76.3956 146.667 77.5007 146.667H139.167C140.272 146.667 141.332 147.106 142.114 147.887C142.895 148.669 143.334 149.728 143.334 150.833V175.833C143.334 176.938 142.895 177.998 142.114 178.78C141.332 179.561 140.272 180 139.167 180V180ZM77.5007 147.5C76.6166 147.5 75.7687 147.851 75.1436 148.476C74.5185 149.102 74.1673 149.949 74.1673 150.833V175.833C74.1673 176.717 74.5185 177.565 75.1436 178.19C75.7687 178.816 76.6166 179.167 77.5007 179.167H139.167C140.051 179.167 140.899 178.816 141.524 178.19C142.149 177.565 142.501 176.717 142.501 175.833V150.833C142.501 149.949 142.149 149.102 141.524 148.476C140.899 147.851 140.051 147.5 139.167 147.5H77.5007Z" fill="#3C4A64"/>
<path d="M432.501 147.083H370.834C368.763 147.083 367.084 148.762 367.084 150.833V175.833C367.084 177.904 368.763 179.583 370.834 179.583H432.501C434.572 179.583 436.251 177.904 436.251 175.833V150.833C436.251 148.762 434.572 147.083 432.501 147.083Z" fill="#212C42"/>
<path d="M432.499 180H370.833C369.728 180 368.668 179.561 367.886 178.78C367.105 177.998 366.666 176.938 366.666 175.833V150.833C366.666 149.728 367.105 148.669 367.886 147.887C368.668 147.106 369.728 146.667 370.833 146.667H432.499C433.604 146.667 434.664 147.106 435.446 147.887C436.227 148.669 436.666 149.728 436.666 150.833V175.833C436.666 176.938 436.227 177.998 435.446 178.78C434.664 179.561 433.604 180 432.499 180V180ZM370.833 147.5C369.949 147.5 369.101 147.851 368.476 148.476C367.851 149.102 367.499 149.949 367.499 150.833V175.833C367.499 176.717 367.851 177.565 368.476 178.19C369.101 178.816 369.949 179.167 370.833 179.167H432.499C433.383 179.167 434.231 178.816 434.856 178.19C435.481 177.565 435.833 176.717 435.833 175.833V150.833C435.833 149.949 435.481 149.102 434.856 148.476C434.231 147.851 433.383 147.5 432.499 147.5H370.833Z" fill="#3C4A64"/>
<path d="M525.833 147.083H444.166C442.095 147.083 440.416 148.762 440.416 150.833V175.833C440.416 177.904 442.095 179.583 444.166 179.583H525.833C527.904 179.583 529.583 177.904 529.583 175.833V150.833C529.583 148.762 527.904 147.083 525.833 147.083Z" fill="#212C42"/>
<path d="M525.833 180H444.167C443.062 180 442.002 179.561 441.22 178.78C440.439 177.998 440 176.938 440 175.833V150.833C440 149.728 440.439 148.669 441.22 147.887C442.002 147.106 443.062 146.667 444.167 146.667H525.833C526.938 146.667 527.998 147.106 528.78 147.887C529.561 148.669 530 149.728 530 150.833V175.833C530 176.938 529.561 177.998 528.78 178.78C527.998 179.561 526.938 180 525.833 180V180ZM444.167 147.5C443.283 147.5 442.435 147.851 441.81 148.476C441.185 149.102 440.833 149.949 440.833 150.833V175.833C440.833 176.717 441.185 177.565 441.81 178.19C442.435 178.816 443.283 179.167 444.167 179.167H525.833C526.717 179.167 527.565 178.816 528.19 178.19C528.815 177.565 529.167 176.717 529.167 175.833V150.833C529.167 149.949 528.815 149.102 528.19 148.476C527.565 147.851 526.717 147.5 525.833 147.5H444.167Z" fill="#3C4A64"/>
<path d="M359.167 147.083H150.834C148.763 147.083 147.084 148.762 147.084 150.833V175.833C147.084 177.904 148.763 179.583 150.834 179.583H359.167C361.238 179.583 362.917 177.904 362.917 175.833V150.833C362.917 148.762 361.238 147.083 359.167 147.083Z" fill="#212C42"/>
<path d="M359.166 180H150.833C149.728 180 148.668 179.561 147.886 178.78C147.105 177.998 146.666 176.938 146.666 175.833V150.833C146.666 149.728 147.105 148.669 147.886 147.887C148.668 147.106 149.728 146.667 150.833 146.667H359.166C360.271 146.667 361.331 147.106 362.112 147.887C362.894 148.669 363.333 149.728 363.333 150.833V175.833C363.333 176.938 362.894 177.998 362.112 178.78C361.331 179.561 360.271 180 359.166 180V180ZM150.833 147.5C149.949 147.5 149.101 147.851 148.476 148.476C147.851 149.102 147.499 149.949 147.499 150.833V175.833C147.499 176.717 147.851 177.565 148.476 178.19C149.101 178.816 149.949 179.167 150.833 179.167H359.166C360.05 179.167 360.898 178.816 361.523 178.19C362.148 177.565 362.499 176.717 362.499 175.833V150.833C362.499 149.949 362.148 149.102 361.523 148.476C360.898 147.851 360.05 147.5 359.166 147.5H150.833Z" fill="#3C4A64"/>
<path d="M29.166 0.416626H4.16602C2.09495 0.416626 0.416016 2.09556 0.416016 4.16663V29.1666C0.416016 31.2377 2.09495 32.9166 4.16602 32.9166H29.166C31.2371 32.9166 32.916 31.2377 32.916 29.1666V4.16663C32.916 2.09556 31.2371 0.416626 29.166 0.416626Z" fill="#212C42"/>
<path d="M29.1667 33.3333H4.16667C3.0616 33.3333 2.00179 32.8943 1.22039 32.1129C0.438987 31.3315 0 30.2717 0 29.1667L0 4.16667C0 3.0616 0.438987 2.00179 1.22039 1.22039C2.00179 0.438987 3.0616 0 4.16667 0L29.1667 0C30.2717 0 31.3315 0.438987 32.1129 1.22039C32.8943 2.00179 33.3333 3.0616 33.3333 4.16667V29.1667C33.3333 30.2717 32.8943 31.3315 32.1129 32.1129C31.3315 32.8943 30.2717 33.3333 29.1667 33.3333ZM4.16667 0.833333C3.28261 0.833333 2.43477 1.18452 1.80964 1.80964C1.18452 2.43477 0.833333 3.28261 0.833333 4.16667V29.1667C0.833333 30.0507 1.18452 30.8986 1.80964 31.5237C2.43477 32.1488 3.28261 32.5 4.16667 32.5H29.1667C30.0507 32.5 30.8986 32.1488 31.5237 31.5237C32.1488 30.8986 32.5 30.0507 32.5 29.1667V4.16667C32.5 3.28261 32.1488 2.43477 31.5237 1.80964C30.8986 1.18452 30.0507 0.833333 29.1667 0.833333H4.16667Z" fill="#3C4A64"/>
<path d="M525.834 37.0834H500.834C498.763 37.0834 497.084 38.7623 497.084 40.8334V65.8334C497.084 67.9044 498.763 69.5834 500.834 69.5834H525.834C527.905 69.5834 529.584 67.9044 529.584 65.8334V40.8334C529.584 38.7623 527.905 37.0834 525.834 37.0834Z" fill="#212C42"/>
<path d="M525.833 70H500.833C499.728 70 498.668 69.561 497.886 68.7796C497.105 67.9982 496.666 66.9384 496.666 65.8333V40.8333C496.666 39.7282 497.105 38.6684 497.886 37.887C498.668 37.1056 499.728 36.6666 500.833 36.6666H525.833C526.938 36.6666 527.998 37.1056 528.779 37.887C529.56 38.6684 529.999 39.7282 529.999 40.8333V65.8333C529.999 66.9384 529.56 67.9982 528.779 68.7796C527.998 69.561 526.938 70 525.833 70ZM500.833 37.5C499.949 37.5 499.101 37.8511 498.476 38.4763C497.851 39.1014 497.499 39.9492 497.499 40.8333V65.8333C497.499 66.7173 497.851 67.5652 498.476 68.1903C499.101 68.8154 499.949 69.1666 500.833 69.1666H525.833C526.717 69.1666 527.565 68.8154 528.19 68.1903C528.815 67.5652 529.166 66.7173 529.166 65.8333V40.8333C529.166 39.9492 528.815 39.1014 528.19 38.4763C527.565 37.8511 526.717 37.5 525.833 37.5H500.833Z" fill="#3C4A64"/>
<path d="M175.834 0.416626H150.834C148.763 0.416626 147.084 2.09556 147.084 4.16663V29.1666C147.084 31.2377 148.763 32.9166 150.834 32.9166H175.834C177.905 32.9166 179.584 31.2377 179.584 29.1666V4.16663C179.584 2.09556 177.905 0.416626 175.834 0.416626Z" fill="#212C42"/>
<path d="M175.833 33.3333H150.833C149.728 33.3333 148.668 32.8943 147.886 32.1129C147.105 31.3315 146.666 30.2717 146.666 29.1667V4.16667C146.666 3.0616 147.105 2.00179 147.886 1.22039C148.668 0.438987 149.728 0 150.833 0L175.833 0C176.938 0 177.998 0.438987 178.779 1.22039C179.56 2.00179 179.999 3.0616 179.999 4.16667V29.1667C179.999 30.2717 179.56 31.3315 178.779 32.1129C177.998 32.8943 176.938 33.3333 175.833 33.3333ZM150.833 0.833333C149.949 0.833333 149.101 1.18452 148.476 1.80964C147.851 2.43477 147.499 3.28261 147.499 4.16667V29.1667C147.499 30.0507 147.851 30.8986 148.476 31.5237C149.101 32.1488 149.949 32.5 150.833 32.5H175.833C176.717 32.5 177.565 32.1488 178.19 31.5237C178.815 30.8986 179.166 30.0507 179.166 29.1667V4.16667C179.166 3.28261 178.815 2.43477 178.19 1.80964C177.565 1.18452 176.717 0.833333 175.833 0.833333H150.833Z" fill="#3C4A64"/>
<path d="M195.834 37.0834H170.834C168.763 37.0834 167.084 38.7623 167.084 40.8334V65.8334C167.084 67.9044 168.763 69.5834 170.834 69.5834H195.834C197.905 69.5834 199.584 67.9044 199.584 65.8334V40.8334C199.584 38.7623 197.905 37.0834 195.834 37.0834Z" fill="#212C42"/>
<path d="M195.833 70H170.833C169.728 70 168.668 69.561 167.886 68.7796C167.105 67.9982 166.666 66.9384 166.666 65.8333V40.8333C166.666 39.7282 167.105 38.6684 167.886 37.887C168.668 37.1056 169.728 36.6666 170.833 36.6666H195.833C196.938 36.6666 197.998 37.1056 198.779 37.887C199.56 38.6684 199.999 39.7282 199.999 40.8333V65.8333C199.999 66.9384 199.56 67.9982 198.779 68.7796C197.998 69.561 196.938 70 195.833 70ZM170.833 37.5C169.949 37.5 169.101 37.8511 168.476 38.4763C167.851 39.1014 167.499 39.9492 167.499 40.8333V65.8333C167.499 66.7173 167.851 67.5652 168.476 68.1903C169.101 68.8154 169.949 69.1666 170.833 69.1666H195.833C196.717 69.1666 197.565 68.8154 198.19 68.1903C198.815 67.5652 199.166 66.7173 199.166 65.8333V40.8333C199.166 39.9492 198.815 39.1014 198.19 38.4763C197.565 37.8511 196.717 37.5 195.833 37.5H170.833Z" fill="#3C4A64"/>
<path d="M212.5 73.75H187.5C185.429 73.75 183.75 75.4289 183.75 77.5V102.5C183.75 104.571 185.429 106.25 187.5 106.25H212.5C214.571 106.25 216.25 104.571 216.25 102.5V77.5C216.25 75.4289 214.571 73.75 212.5 73.75Z" fill="#4794BA"/>
<path d="M212.501 106.667H187.501C186.396 106.667 185.336 106.228 184.554 105.446C183.773 104.665 183.334 103.605 183.334 102.5V77.4999C183.334 76.3948 183.773 75.335 184.554 74.5536C185.336 73.7722 186.396 73.3333 187.501 73.3333H212.501C213.606 73.3333 214.666 73.7722 215.447 74.5536C216.228 75.335 216.667 76.3948 216.667 77.4999V102.5C216.667 103.605 216.228 104.665 215.447 105.446C214.666 106.228 213.606 106.667 212.501 106.667ZM187.501 74.1666C186.617 74.1666 185.769 74.5178 185.144 75.1429C184.519 75.768 184.167 76.6159 184.167 77.4999V102.5C184.167 103.384 184.519 104.232 185.144 104.857C185.769 105.482 186.617 105.833 187.501 105.833H212.501C213.385 105.833 214.233 105.482 214.858 104.857C215.483 104.232 215.834 103.384 215.834 102.5V77.4999C215.834 76.6159 215.483 75.768 214.858 75.1429C214.233 74.5178 213.385 74.1666 212.501 74.1666H187.501Z" fill="#3C4A64"/>
<path d="M195.834 110.417H170.834C168.763 110.417 167.084 112.096 167.084 114.167V139.167C167.084 141.238 168.763 142.917 170.834 142.917H195.834C197.905 142.917 199.584 141.238 199.584 139.167V114.167C199.584 112.096 197.905 110.417 195.834 110.417Z" fill="#212C42"/>
<path d="M195.833 143.333H170.833C169.728 143.333 168.668 142.894 167.886 142.113C167.105 141.332 166.666 140.272 166.666 139.167V114.167C166.666 113.062 167.105 112.002 167.886 111.22C168.668 110.439 169.728 110 170.833 110H195.833C196.938 110 197.998 110.439 198.779 111.22C199.56 112.002 199.999 113.062 199.999 114.167V139.167C199.999 140.272 199.56 141.332 198.779 142.113C197.998 142.894 196.938 143.333 195.833 143.333V143.333ZM170.833 110.833C169.949 110.833 169.101 111.185 168.476 111.81C167.851 112.435 167.499 113.283 167.499 114.167V139.167C167.499 140.051 167.851 140.899 168.476 141.524C169.101 142.149 169.949 142.5 170.833 142.5H195.833C196.717 142.5 197.565 142.149 198.19 141.524C198.815 140.899 199.166 140.051 199.166 139.167V114.167C199.166 113.283 198.815 112.435 198.19 111.81C197.565 111.185 196.717 110.833 195.833 110.833H170.833Z" fill="#3C4A64"/>
<path d="M212.5 0.416626H187.5C185.429 0.416626 183.75 2.09556 183.75 4.16663V29.1666C183.75 31.2377 185.429 32.9166 187.5 32.9166H212.5C214.571 32.9166 216.25 31.2377 216.25 29.1666V4.16663C216.25 2.09556 214.571 0.416626 212.5 0.416626Z" fill="#212C42"/>
<path d="M212.501 33.3333H187.501C186.396 33.3333 185.336 32.8943 184.554 32.1129C183.773 31.3315 183.334 30.2717 183.334 29.1667V4.16667C183.334 3.0616 183.773 2.00179 184.554 1.22039C185.336 0.438987 186.396 0 187.501 0L212.501 0C213.606 0 214.666 0.438987 215.447 1.22039C216.228 2.00179 216.667 3.0616 216.667 4.16667V29.1667C216.667 30.2717 216.228 31.3315 215.447 32.1129C214.666 32.8943 213.606 33.3333 212.501 33.3333ZM187.501 0.833333C186.617 0.833333 185.769 1.18452 185.144 1.80964C184.519 2.43477 184.167 3.28261 184.167 4.16667V29.1667C184.167 30.0507 184.519 30.8986 185.144 31.5237C185.769 32.1488 186.617 32.5 187.501 32.5H212.501C213.385 32.5 214.233 32.1488 214.858 31.5237C215.483 30.8986 215.834 30.0507 215.834 29.1667V4.16667C215.834 3.28261 215.483 2.43477 214.858 1.80964C214.233 1.18452 213.385 0.833333 212.501 0.833333H187.501Z" fill="#3C4A64"/>
<path d="M232.5 37.0834H207.5C205.429 37.0834 203.75 38.7623 203.75 40.8334V65.8334C203.75 67.9044 205.429 69.5834 207.5 69.5834H232.5C234.571 69.5834 236.25 67.9044 236.25 65.8334V40.8334C236.25 38.7623 234.571 37.0834 232.5 37.0834Z" fill="#212C42"/>
<path d="M232.501 70H207.501C206.396 70 205.336 69.561 204.554 68.7796C203.773 67.9982 203.334 66.9384 203.334 65.8333V40.8333C203.334 39.7282 203.773 38.6684 204.554 37.887C205.336 37.1056 206.396 36.6666 207.501 36.6666H232.501C233.606 36.6666 234.666 37.1056 235.447 37.887C236.228 38.6684 236.667 39.7282 236.667 40.8333V65.8333C236.667 66.9384 236.228 67.9982 235.447 68.7796C234.666 69.561 233.606 70 232.501 70ZM207.501 37.5C206.617 37.5 205.769 37.8511 205.144 38.4763C204.519 39.1014 204.167 39.9492 204.167 40.8333V65.8333C204.167 66.7173 204.519 67.5652 205.144 68.1903C205.769 68.8154 206.617 69.1666 207.501 69.1666H232.501C233.385 69.1666 234.233 68.8154 234.858 68.1903C235.483 67.5652 235.834 66.7173 235.834 65.8333V40.8333C235.834 39.9492 235.483 39.1014 234.858 38.4763C234.233 37.8511 233.385 37.5 232.501 37.5H207.501Z" fill="#3C4A64"/>
<path d="M249.166 73.75H224.166C222.095 73.75 220.416 75.4289 220.416 77.5V102.5C220.416 104.571 222.095 106.25 224.166 106.25H249.166C251.237 106.25 252.916 104.571 252.916 102.5V77.5C252.916 75.4289 251.237 73.75 249.166 73.75Z" fill="#212C42"/>
<path d="M249.167 106.667H224.167C223.062 106.667 222.002 106.228 221.22 105.446C220.439 104.665 220 103.605 220 102.5V77.4999C220 76.3948 220.439 75.335 221.22 74.5536C222.002 73.7722 223.062 73.3333 224.167 73.3333H249.167C250.272 73.3333 251.332 73.7722 252.113 74.5536C252.894 75.335 253.333 76.3948 253.333 77.4999V102.5C253.333 103.605 252.894 104.665 252.113 105.446C251.332 106.228 250.272 106.667 249.167 106.667ZM224.167 74.1666C223.283 74.1666 222.435 74.5178 221.81 75.1429C221.185 75.768 220.833 76.6159 220.833 77.4999V102.5C220.833 103.384 221.185 104.232 221.81 104.857C222.435 105.482 223.283 105.833 224.167 105.833H249.167C250.051 105.833 250.899 105.482 251.524 104.857C252.149 104.232 252.5 103.384 252.5 102.5V77.4999C252.5 76.6159 252.149 75.768 251.524 75.1429C250.899 74.5178 250.051 74.1666 249.167 74.1666H224.167Z" fill="#3C4A64"/>
<path d="M232.5 110.417H207.5C205.429 110.417 203.75 112.096 203.75 114.167V139.167C203.75 141.238 205.429 142.917 207.5 142.917H232.5C234.571 142.917 236.25 141.238 236.25 139.167V114.167C236.25 112.096 234.571 110.417 232.5 110.417Z" fill="#212C42"/>
<path d="M232.501 143.333H207.501C206.396 143.333 205.336 142.894 204.554 142.113C203.773 141.332 203.334 140.272 203.334 139.167V114.167C203.334 113.062 203.773 112.002 204.554 111.22C205.336 110.439 206.396 110 207.501 110H232.501C233.606 110 234.666 110.439 235.447 111.22C236.228 112.002 236.667 113.062 236.667 114.167V139.167C236.667 140.272 236.228 141.332 235.447 142.113C234.666 142.894 233.606 143.333 232.501 143.333V143.333ZM207.501 110.833C206.617 110.833 205.769 111.185 205.144 111.81C204.519 112.435 204.167 113.283 204.167 114.167V139.167C204.167 140.051 204.519 140.899 205.144 141.524C205.769 142.149 206.617 142.5 207.501 142.5H232.501C233.385 142.5 234.233 142.149 234.858 141.524C235.483 140.899 235.834 140.051 235.834 139.167V114.167C235.834 113.283 235.483 112.435 234.858 111.81C234.233 111.185 233.385 110.833 232.501 110.833H207.501Z" fill="#3C4A64"/>
<path d="M249.166 0.416626H224.166C222.095 0.416626 220.416 2.09556 220.416 4.16663V29.1666C220.416 31.2377 222.095 32.9166 224.166 32.9166H249.166C251.237 32.9166 252.916 31.2377 252.916 29.1666V4.16663C252.916 2.09556 251.237 0.416626 249.166 0.416626Z" fill="#212C42"/>
<path d="M249.167 33.3333H224.167C223.062 33.3333 222.002 32.8943 221.22 32.1129C220.439 31.3315 220 30.2717 220 29.1667V4.16667C220 3.0616 220.439 2.00179 221.22 1.22039C222.002 0.438987 223.062 0 224.167 0L249.167 0C250.272 0 251.332 0.438987 252.113 1.22039C252.894 2.00179 253.333 3.0616 253.333 4.16667V29.1667C253.333 30.2717 252.894 31.3315 252.113 32.1129C251.332 32.8943 250.272 33.3333 249.167 33.3333ZM224.167 0.833333C223.283 0.833333 222.435 1.18452 221.81 1.80964C221.185 2.43477 220.833 3.28261 220.833 4.16667V29.1667C220.833 30.0507 221.185 30.8986 221.81 31.5237C222.435 32.1488 223.283 32.5 224.167 32.5H249.167C250.051 32.5 250.899 32.1488 251.524 31.5237C252.149 30.8986 252.5 30.0507 252.5 29.1667V4.16667C252.5 3.28261 252.149 2.43477 251.524 1.80964C250.899 1.18452 250.051 0.833333 249.167 0.833333H224.167Z" fill="#3C4A64"/>
<path d="M269.166 37.0834H244.166C242.095 37.0834 240.416 38.7623 240.416 40.8334V65.8334C240.416 67.9044 242.095 69.5834 244.166 69.5834H269.166C271.237 69.5834 272.916 67.9044 272.916 65.8334V40.8334C272.916 38.7623 271.237 37.0834 269.166 37.0834Z" fill="#212C42"/>
<path d="M269.167 70H244.167C243.062 70 242.002 69.561 241.22 68.7796C240.439 67.9982 240 66.9384 240 65.8333V40.8333C240 39.7282 240.439 38.6684 241.22 37.887C242.002 37.1056 243.062 36.6666 244.167 36.6666H269.167C270.272 36.6666 271.332 37.1056 272.113 37.887C272.894 38.6684 273.333 39.7282 273.333 40.8333V65.8333C273.333 66.9384 272.894 67.9982 272.113 68.7796C271.332 69.561 270.272 70 269.167 70V70ZM244.167 37.5C243.283 37.5 242.435 37.8511 241.81 38.4763C241.185 39.1014 240.833 39.9492 240.833 40.8333V65.8333C240.833 66.7173 241.185 67.5652 241.81 68.1903C242.435 68.8154 243.283 69.1666 244.167 69.1666H269.167C270.051 69.1666 270.899 68.8154 271.524 68.1903C272.149 67.5652 272.5 66.7173 272.5 65.8333V40.8333C272.5 39.9492 272.149 39.1014 271.524 38.4763C270.899 37.8511 270.051 37.5 269.167 37.5H244.167Z" fill="#3C4A64"/>
<path d="M285.834 73.75H260.834C258.763 73.75 257.084 75.4289 257.084 77.5V102.5C257.084 104.571 258.763 106.25 260.834 106.25H285.834C287.905 106.25 289.584 104.571 289.584 102.5V77.5C289.584 75.4289 287.905 73.75 285.834 73.75Z" fill="#212C42"/>
<path d="M285.833 106.667H260.833C259.728 106.667 258.668 106.228 257.886 105.446C257.105 104.665 256.666 103.605 256.666 102.5V77.4999C256.666 76.3948 257.105 75.335 257.886 74.5536C258.668 73.7722 259.728 73.3333 260.833 73.3333H285.833C286.938 73.3333 287.998 73.7722 288.779 74.5536C289.56 75.335 289.999 76.3948 289.999 77.4999V102.5C289.999 103.605 289.56 104.665 288.779 105.446C287.998 106.228 286.938 106.667 285.833 106.667V106.667ZM260.833 74.1666C259.949 74.1666 259.101 74.5178 258.476 75.1429C257.851 75.768 257.499 76.6159 257.499 77.4999V102.5C257.499 103.384 257.851 104.232 258.476 104.857C259.101 105.482 259.949 105.833 260.833 105.833H285.833C286.717 105.833 287.565 105.482 288.19 104.857C288.815 104.232 289.166 103.384 289.166 102.5V77.4999C289.166 76.6159 288.815 75.768 288.19 75.1429C287.565 74.5178 286.717 74.1666 285.833 74.1666H260.833Z" fill="#3C4A64"/>
<path d="M269.166 110.417H244.166C242.095 110.417 240.416 112.096 240.416 114.167V139.167C240.416 141.238 242.095 142.917 244.166 142.917H269.166C271.237 142.917 272.916 141.238 272.916 139.167V114.167C272.916 112.096 271.237 110.417 269.166 110.417Z" fill="#212C42"/>
<path d="M269.167 143.333H244.167C243.062 143.333 242.002 142.894 241.22 142.113C240.439 141.332 240 140.272 240 139.167V114.167C240 113.062 240.439 112.002 241.22 111.22C242.002 110.439 243.062 110 244.167 110H269.167C270.272 110 271.332 110.439 272.113 111.22C272.894 112.002 273.333 113.062 273.333 114.167V139.167C273.333 140.272 272.894 141.332 272.113 142.113C271.332 142.894 270.272 143.333 269.167 143.333V143.333ZM244.167 110.833C243.283 110.833 242.435 111.185 241.81 111.81C241.185 112.435 240.833 113.283 240.833 114.167V139.167C240.833 140.051 241.185 140.899 241.81 141.524C242.435 142.149 243.283 142.5 244.167 142.5H269.167C270.051 142.5 270.899 142.149 271.524 141.524C272.149 140.899 272.5 140.051 272.5 139.167V114.167C272.5 113.283 272.149 112.435 271.524 111.81C270.899 111.185 270.051 110.833 269.167 110.833H244.167Z" fill="#3C4A64"/>
<path d="M285.834 0.416626H260.834C258.763 0.416626 257.084 2.09556 257.084 4.16663V29.1666C257.084 31.2377 258.763 32.9166 260.834 32.9166H285.834C287.905 32.9166 289.584 31.2377 289.584 29.1666V4.16663C289.584 2.09556 287.905 0.416626 285.834 0.416626Z" fill="#212C42"/>
<path d="M285.833 33.3333H260.833C259.728 33.3333 258.668 32.8943 257.886 32.1129C257.105 31.3315 256.666 30.2717 256.666 29.1667V4.16667C256.666 3.0616 257.105 2.00179 257.886 1.22039C258.668 0.438987 259.728 0 260.833 0L285.833 0C286.938 0 287.998 0.438987 288.779 1.22039C289.56 2.00179 289.999 3.0616 289.999 4.16667V29.1667C289.999 30.2717 289.56 31.3315 288.779 32.1129C287.998 32.8943 286.938 33.3333 285.833 33.3333V33.3333ZM260.833 0.833333C259.949 0.833333 259.101 1.18452 258.476 1.80964C257.851 2.43477 257.499 3.28261 257.499 4.16667V29.1667C257.499 30.0507 257.851 30.8986 258.476 31.5237C259.101 32.1488 259.949 32.5 260.833 32.5H285.833C286.717 32.5 287.565 32.1488 288.19 31.5237C288.815 30.8986 289.166 30.0507 289.166 29.1667V4.16667C289.166 3.28261 288.815 2.43477 288.19 1.80964C287.565 1.18452 286.717 0.833333 285.833 0.833333H260.833Z" fill="#3C4A64"/>
<path d="M305.834 37.0834H280.834C278.763 37.0834 277.084 38.7623 277.084 40.8334V65.8334C277.084 67.9044 278.763 69.5834 280.834 69.5834H305.834C307.905 69.5834 309.584 67.9044 309.584 65.8334V40.8334C309.584 38.7623 307.905 37.0834 305.834 37.0834Z" fill="#212C42"/>
<path d="M305.833 70H280.833C279.728 70 278.668 69.561 277.886 68.7796C277.105 67.9982 276.666 66.9384 276.666 65.8333V40.8333C276.666 39.7282 277.105 38.6684 277.886 37.887C278.668 37.1056 279.728 36.6666 280.833 36.6666H305.833C306.938 36.6666 307.998 37.1056 308.779 37.887C309.56 38.6684 309.999 39.7282 309.999 40.8333V65.8333C309.999 66.9384 309.56 67.9982 308.779 68.7796C307.998 69.561 306.938 70 305.833 70ZM280.833 37.5C279.949 37.5 279.101 37.8511 278.476 38.4763C277.851 39.1014 277.499 39.9492 277.499 40.8333V65.8333C277.499 66.7173 277.851 67.5652 278.476 68.1903C279.101 68.8154 279.949 69.1666 280.833 69.1666H305.833C306.717 69.1666 307.565 68.8154 308.19 68.1903C308.815 67.5652 309.166 66.7173 309.166 65.8333V40.8333C309.166 39.9492 308.815 39.1014 308.19 38.4763C307.565 37.8511 306.717 37.5 305.833 37.5H280.833Z" fill="#3C4A64"/>
<path d="M322.5 73.75H297.5C295.429 73.75 293.75 75.4289 293.75 77.5V102.5C293.75 104.571 295.429 106.25 297.5 106.25H322.5C324.571 106.25 326.25 104.571 326.25 102.5V77.5C326.25 75.4289 324.571 73.75 322.5 73.75Z" fill="#4794BA"/>
<path d="M322.501 106.667H297.501C296.396 106.667 295.336 106.228 294.554 105.446C293.773 104.665 293.334 103.605 293.334 102.5V77.4999C293.334 76.3948 293.773 75.335 294.554 74.5536C295.336 73.7722 296.396 73.3333 297.501 73.3333H322.501C323.606 73.3333 324.666 73.7722 325.447 74.5536C326.228 75.335 326.667 76.3948 326.667 77.4999V102.5C326.667 103.605 326.228 104.665 325.447 105.446C324.666 106.228 323.606 106.667 322.501 106.667ZM297.501 74.1666C296.617 74.1666 295.769 74.5178 295.144 75.1429C294.519 75.768 294.167 76.6159 294.167 77.4999V102.5C294.167 103.384 294.519 104.232 295.144 104.857C295.769 105.482 296.617 105.833 297.501 105.833H322.501C323.385 105.833 324.233 105.482 324.858 104.857C325.483 104.232 325.834 103.384 325.834 102.5V77.4999C325.834 76.6159 325.483 75.768 324.858 75.1429C324.233 74.5178 323.385 74.1666 322.501 74.1666H297.501Z" fill="#3C4A64"/>
<path d="M305.834 110.417H280.834C278.763 110.417 277.084 112.096 277.084 114.167V139.167C277.084 141.238 278.763 142.917 280.834 142.917H305.834C307.905 142.917 309.584 141.238 309.584 139.167V114.167C309.584 112.096 307.905 110.417 305.834 110.417Z" fill="#212C42"/>
<path d="M305.833 143.333H280.833C279.728 143.333 278.668 142.894 277.886 142.113C277.105 141.332 276.666 140.272 276.666 139.167V114.167C276.666 113.062 277.105 112.002 277.886 111.22C278.668 110.439 279.728 110 280.833 110H305.833C306.938 110 307.998 110.439 308.779 111.22C309.56 112.002 309.999 113.062 309.999 114.167V139.167C309.999 140.272 309.56 141.332 308.779 142.113C307.998 142.894 306.938 143.333 305.833 143.333V143.333ZM280.833 110.833C279.949 110.833 279.101 111.185 278.476 111.81C277.851 112.435 277.499 113.283 277.499 114.167V139.167C277.499 140.051 277.851 140.899 278.476 141.524C279.101 142.149 279.949 142.5 280.833 142.5H305.833C306.717 142.5 307.565 142.149 308.19 141.524C308.815 140.899 309.166 140.051 309.166 139.167V114.167C309.166 113.283 308.815 112.435 308.19 111.81C307.565 111.185 306.717 110.833 305.833 110.833H280.833Z" fill="#3C4A64"/>
<path d="M322.5 0.416626H297.5C295.429 0.416626 293.75 2.09556 293.75 4.16663V29.1666C293.75 31.2377 295.429 32.9166 297.5 32.9166H322.5C324.571 32.9166 326.25 31.2377 326.25 29.1666V4.16663C326.25 2.09556 324.571 0.416626 322.5 0.416626Z" fill="#212C42"/>
<path d="M322.501 33.3333H297.501C296.396 33.3333 295.336 32.8943 294.554 32.1129C293.773 31.3315 293.334 30.2717 293.334 29.1667V4.16667C293.334 3.0616 293.773 2.00179 294.554 1.22039C295.336 0.438987 296.396 0 297.501 0L322.501 0C323.606 0 324.666 0.438987 325.447 1.22039C326.228 2.00179 326.667 3.0616 326.667 4.16667V29.1667C326.667 30.2717 326.228 31.3315 325.447 32.1129C324.666 32.8943 323.606 33.3333 322.501 33.3333ZM297.501 0.833333C296.617 0.833333 295.769 1.18452 295.144 1.80964C294.519 2.43477 294.167 3.28261 294.167 4.16667V29.1667C294.167 30.0507 294.519 30.8986 295.144 31.5237C295.769 32.1488 296.617 32.5 297.501 32.5H322.501C323.385 32.5 324.233 32.1488 324.858 31.5237C325.483 30.8986 325.834 30.0507 325.834 29.1667V4.16667C325.834 3.28261 325.483 2.43477 324.858 1.80964C324.233 1.18452 323.385 0.833333 322.501 0.833333H297.501Z" fill="#3C4A64"/>
<path d="M342.5 37.0834H317.5C315.429 37.0834 313.75 38.7623 313.75 40.8334V65.8334C313.75 67.9044 315.429 69.5834 317.5 69.5834H342.5C344.571 69.5834 346.25 67.9044 346.25 65.8334V40.8334C346.25 38.7623 344.571 37.0834 342.5 37.0834Z" fill="#212C42"/>
<path d="M342.501 70H317.501C316.396 70 315.336 69.561 314.554 68.7796C313.773 67.9982 313.334 66.9384 313.334 65.8333V40.8333C313.334 39.7282 313.773 38.6684 314.554 37.887C315.336 37.1056 316.396 36.6666 317.501 36.6666H342.501C343.606 36.6666 344.666 37.1056 345.447 37.887C346.228 38.6684 346.667 39.7282 346.667 40.8333V65.8333C346.667 66.9384 346.228 67.9982 345.447 68.7796C344.666 69.561 343.606 70 342.501 70ZM317.501 37.5C316.617 37.5 315.769 37.8511 315.144 38.4763C314.519 39.1014 314.167 39.9492 314.167 40.8333V65.8333C314.167 66.7173 314.519 67.5652 315.144 68.1903C315.769 68.8154 316.617 69.1666 317.501 69.1666H342.501C343.385 69.1666 344.233 68.8154 344.858 68.1903C345.483 67.5652 345.834 66.7173 345.834 65.8333V40.8333C345.834 39.9492 345.483 39.1014 344.858 38.4763C344.233 37.8511 343.385 37.5 342.501 37.5H317.501Z" fill="#3C4A64"/>
<path d="M359.166 73.75H334.166C332.095 73.75 330.416 75.4289 330.416 77.5V102.5C330.416 104.571 332.095 106.25 334.166 106.25H359.166C361.237 106.25 362.916 104.571 362.916 102.5V77.5C362.916 75.4289 361.237 73.75 359.166 73.75Z" fill="#4794BA"/>
<path d="M359.167 106.667H334.167C333.062 106.667 332.002 106.228 331.22 105.446C330.439 104.665 330 103.605 330 102.5V77.4999C330 76.3948 330.439 75.335 331.22 74.5536C332.002 73.7722 333.062 73.3333 334.167 73.3333H359.167C360.272 73.3333 361.332 73.7722 362.113 74.5536C362.894 75.335 363.333 76.3948 363.333 77.4999V102.5C363.333 103.605 362.894 104.665 362.113 105.446C361.332 106.228 360.272 106.667 359.167 106.667ZM334.167 74.1666C333.283 74.1666 332.435 74.5178 331.81 75.1429C331.185 75.768 330.833 76.6159 330.833 77.4999V102.5C330.833 103.384 331.185 104.232 331.81 104.857C332.435 105.482 333.283 105.833 334.167 105.833H359.167C360.051 105.833 360.899 105.482 361.524 104.857C362.149 104.232 362.5 103.384 362.5 102.5V77.4999C362.5 76.6159 362.149 75.768 361.524 75.1429C360.899 74.5178 360.051 74.1666 359.167 74.1666H334.167Z" fill="#3C4A64"/>
<path d="M342.5 110.417H317.5C315.429 110.417 313.75 112.096 313.75 114.167V139.167C313.75 141.238 315.429 142.917 317.5 142.917H342.5C344.571 142.917 346.25 141.238 346.25 139.167V114.167C346.25 112.096 344.571 110.417 342.5 110.417Z" fill="#212C42"/>
<path d="M342.501 143.333H317.501C316.396 143.333 315.336 142.894 314.554 142.113C313.773 141.332 313.334 140.272 313.334 139.167V114.167C313.334 113.062 313.773 112.002 314.554 111.22C315.336 110.439 316.396 110 317.501 110H342.501C343.606 110 344.666 110.439 345.447 111.22C346.228 112.002 346.667 113.062 346.667 114.167V139.167C346.667 140.272 346.228 141.332 345.447 142.113C344.666 142.894 343.606 143.333 342.501 143.333V143.333ZM317.501 110.833C316.617 110.833 315.769 111.185 315.144 111.81C314.519 112.435 314.167 113.283 314.167 114.167V139.167C314.167 140.051 314.519 140.899 315.144 141.524C315.769 142.149 316.617 142.5 317.501 142.5H342.501C343.385 142.5 344.233 142.149 344.858 141.524C345.483 140.899 345.834 140.051 345.834 139.167V114.167C345.834 113.283 345.483 112.435 344.858 111.81C344.233 111.185 343.385 110.833 342.501 110.833H317.501Z" fill="#3C4A64"/>
<path d="M359.166 0.416626H334.166C332.095 0.416626 330.416 2.09556 330.416 4.16663V29.1666C330.416 31.2377 332.095 32.9166 334.166 32.9166H359.166C361.237 32.9166 362.916 31.2377 362.916 29.1666V4.16663C362.916 2.09556 361.237 0.416626 359.166 0.416626Z" fill="#212C42"/>
<path d="M359.167 33.3333H334.167C333.062 33.3333 332.002 32.8943 331.22 32.1129C330.439 31.3315 330 30.2717 330 29.1667V4.16667C330 3.0616 330.439 2.00179 331.22 1.22039C332.002 0.438987 333.062 0 334.167 0L359.167 0C360.272 0 361.332 0.438987 362.113 1.22039C362.894 2.00179 363.333 3.0616 363.333 4.16667V29.1667C363.333 30.2717 362.894 31.3315 362.113 32.1129C361.332 32.8943 360.272 33.3333 359.167 33.3333ZM334.167 0.833333C333.283 0.833333 332.435 1.18452 331.81 1.80964C331.185 2.43477 330.833 3.28261 330.833 4.16667V29.1667C330.833 30.0507 331.185 30.8986 331.81 31.5237C332.435 32.1488 333.283 32.5 334.167 32.5H359.167C360.051 32.5 360.899 32.1488 361.524 31.5237C362.149 30.8986 362.5 30.0507 362.5 29.1667V4.16667C362.5 3.28261 362.149 2.43477 361.524 1.80964C360.899 1.18452 360.051 0.833333 359.167 0.833333H334.167Z" fill="#3C4A64"/>
<path d="M379.166 37.0834H354.166C352.095 37.0834 350.416 38.7623 350.416 40.8334V65.8334C350.416 67.9044 352.095 69.5834 354.166 69.5834H379.166C381.237 69.5834 382.916 67.9044 382.916 65.8334V40.8334C382.916 38.7623 381.237 37.0834 379.166 37.0834Z" fill="#212C42"/>
<path d="M379.167 70H354.167C353.062 70 352.002 69.561 351.22 68.7796C350.439 67.9982 350 66.9384 350 65.8333V40.8333C350 39.7282 350.439 38.6684 351.22 37.887C352.002 37.1056 353.062 36.6666 354.167 36.6666H379.167C380.272 36.6666 381.332 37.1056 382.113 37.887C382.894 38.6684 383.333 39.7282 383.333 40.8333V65.8333C383.333 66.9384 382.894 67.9982 382.113 68.7796C381.332 69.561 380.272 70 379.167 70ZM354.167 37.5C353.283 37.5 352.435 37.8511 351.81 38.4763C351.185 39.1014 350.833 39.9492 350.833 40.8333V65.8333C350.833 66.7173 351.185 67.5652 351.81 68.1903C352.435 68.8154 353.283 69.1666 354.167 69.1666H379.167C380.051 69.1666 380.899 68.8154 381.524 68.1903C382.149 67.5652 382.5 66.7173 382.5 65.8333V40.8333C382.5 39.9492 382.149 39.1014 381.524 38.4763C380.899 37.8511 380.051 37.5 379.167 37.5H354.167Z" fill="#3C4A64"/>
<path d="M395.834 73.75H370.834C368.763 73.75 367.084 75.4289 367.084 77.5V102.5C367.084 104.571 368.763 106.25 370.834 106.25H395.834C397.905 106.25 399.584 104.571 399.584 102.5V77.5C399.584 75.4289 397.905 73.75 395.834 73.75Z" fill="#4794BA"/>
<path d="M395.833 106.667H370.833C369.728 106.667 368.668 106.228 367.886 105.446C367.105 104.665 366.666 103.605 366.666 102.5V77.4999C366.666 76.3948 367.105 75.335 367.886 74.5536C368.668 73.7722 369.728 73.3333 370.833 73.3333H395.833C396.938 73.3333 397.998 73.7722 398.779 74.5536C399.56 75.335 399.999 76.3948 399.999 77.4999V102.5C399.999 103.605 399.56 104.665 398.779 105.446C397.998 106.228 396.938 106.667 395.833 106.667ZM370.833 74.1666C369.949 74.1666 369.101 74.5178 368.476 75.1429C367.851 75.768 367.499 76.6159 367.499 77.4999V102.5C367.499 103.384 367.851 104.232 368.476 104.857C369.101 105.482 369.949 105.833 370.833 105.833H395.833C396.717 105.833 397.565 105.482 398.19 104.857C398.815 104.232 399.166 103.384 399.166 102.5V77.4999C399.166 76.6159 398.815 75.768 398.19 75.1429C397.565 74.5178 396.717 74.1666 395.833 74.1666H370.833Z" fill="#3C4A64"/>
<path d="M379.166 110.417H354.166C352.095 110.417 350.416 112.096 350.416 114.167V139.167C350.416 141.238 352.095 142.917 354.166 142.917H379.166C381.237 142.917 382.916 141.238 382.916 139.167V114.167C382.916 112.096 381.237 110.417 379.166 110.417Z" fill="#212C42"/>
<path d="M379.167 143.333H354.167C353.062 143.333 352.002 142.894 351.22 142.113C350.439 141.332 350 140.272 350 139.167V114.167C350 113.062 350.439 112.002 351.22 111.22C352.002 110.439 353.062 110 354.167 110H379.167C380.272 110 381.332 110.439 382.113 111.22C382.894 112.002 383.333 113.062 383.333 114.167V139.167C383.333 140.272 382.894 141.332 382.113 142.113C381.332 142.894 380.272 143.333 379.167 143.333V143.333ZM354.167 110.833C353.283 110.833 352.435 111.185 351.81 111.81C351.185 112.435 350.833 113.283 350.833 114.167V139.167C350.833 140.051 351.185 140.899 351.81 141.524C352.435 142.149 353.283 142.5 354.167 142.5H379.167C380.051 142.5 380.899 142.149 381.524 141.524C382.149 140.899 382.5 140.051 382.5 139.167V114.167C382.5 113.283 382.149 112.435 381.524 111.81C380.899 111.185 380.051 110.833 379.167 110.833H354.167Z" fill="#3C4A64"/>
<path d="M395.834 0.416626H370.834C368.763 0.416626 367.084 2.09556 367.084 4.16663V29.1666C367.084 31.2377 368.763 32.9166 370.834 32.9166H395.834C397.905 32.9166 399.584 31.2377 399.584 29.1666V4.16663C399.584 2.09556 397.905 0.416626 395.834 0.416626Z" fill="#212C42"/>
<path d="M395.833 33.3333H370.833C369.728 33.3333 368.668 32.8943 367.886 32.1129C367.105 31.3315 366.666 30.2717 366.666 29.1667V4.16667C366.666 3.0616 367.105 2.00179 367.886 1.22039C368.668 0.438987 369.728 0 370.833 0L395.833 0C396.938 0 397.998 0.438987 398.779 1.22039C399.56 2.00179 399.999 3.0616 399.999 4.16667V29.1667C399.999 30.2717 399.56 31.3315 398.779 32.1129C397.998 32.8943 396.938 33.3333 395.833 33.3333ZM370.833 0.833333C369.949 0.833333 369.101 1.18452 368.476 1.80964C367.851 2.43477 367.499 3.28261 367.499 4.16667V29.1667C367.499 30.0507 367.851 30.8986 368.476 31.5237C369.101 32.1488 369.949 32.5 370.833 32.5H395.833C396.717 32.5 397.565 32.1488 398.19 31.5237C398.815 30.8986 399.166 30.0507 399.166 29.1667V4.16667C399.166 3.28261 398.815 2.43477 398.19 1.80964C397.565 1.18452 396.717 0.833333 395.833 0.833333H370.833Z" fill="#3C4A64"/>
<path d="M415.834 37.0834H390.834C388.763 37.0834 387.084 38.7623 387.084 40.8334V65.8334C387.084 67.9044 388.763 69.5834 390.834 69.5834H415.834C417.905 69.5834 419.584 67.9044 419.584 65.8334V40.8334C419.584 38.7623 417.905 37.0834 415.834 37.0834Z" fill="#212C42"/>
<path d="M415.833 70H390.833C389.728 70 388.668 69.561 387.886 68.7796C387.105 67.9982 386.666 66.9384 386.666 65.8333V40.8333C386.666 39.7282 387.105 38.6684 387.886 37.887C388.668 37.1056 389.728 36.6666 390.833 36.6666H415.833C416.938 36.6666 417.998 37.1056 418.779 37.887C419.56 38.6684 419.999 39.7282 419.999 40.8333V65.8333C419.999 66.9384 419.56 67.9982 418.779 68.7796C417.998 69.561 416.938 70 415.833 70V70ZM390.833 37.5C389.949 37.5 389.101 37.8511 388.476 38.4763C387.851 39.1014 387.499 39.9492 387.499 40.8333V65.8333C387.499 66.7173 387.851 67.5652 388.476 68.1903C389.101 68.8154 389.949 69.1666 390.833 69.1666H415.833C416.717 69.1666 417.565 68.8154 418.19 68.1903C418.815 67.5652 419.166 66.7173 419.166 65.8333V40.8333C419.166 39.9492 418.815 39.1014 418.19 38.4763C417.565 37.8511 416.717 37.5 415.833 37.5H390.833Z" fill="#3C4A64"/>
<path d="M432.5 73.75H407.5C405.429 73.75 403.75 75.4289 403.75 77.5V102.5C403.75 104.571 405.429 106.25 407.5 106.25H432.5C434.571 106.25 436.25 104.571 436.25 102.5V77.5C436.25 75.4289 434.571 73.75 432.5 73.75Z" fill="#4794BA"/>
<path d="M432.501 106.667H407.501C406.396 106.667 405.336 106.228 404.554 105.446C403.773 104.665 403.334 103.605 403.334 102.5V77.4999C403.334 76.3948 403.773 75.335 404.554 74.5536C405.336 73.7722 406.396 73.3333 407.501 73.3333H432.501C433.606 73.3333 434.666 73.7722 435.447 74.5536C436.228 75.335 436.667 76.3948 436.667 77.4999V102.5C436.667 103.605 436.228 104.665 435.447 105.446C434.666 106.228 433.606 106.667 432.501 106.667ZM407.501 74.1666C406.617 74.1666 405.769 74.5178 405.144 75.1429C404.519 75.768 404.167 76.6159 404.167 77.4999V102.5C404.167 103.384 404.519 104.232 405.144 104.857C405.769 105.482 406.617 105.833 407.501 105.833H432.501C433.385 105.833 434.233 105.482 434.858 104.857C435.483 104.232 435.834 103.384 435.834 102.5V77.4999C435.834 76.6159 435.483 75.768 434.858 75.1429C434.233 74.5178 433.385 74.1666 432.501 74.1666H407.501Z" fill="#3C4A64"/>
<path d="M415.834 110.417H390.834C388.763 110.417 387.084 112.096 387.084 114.167V139.167C387.084 141.238 388.763 142.917 390.834 142.917H415.834C417.905 142.917 419.584 141.238 419.584 139.167V114.167C419.584 112.096 417.905 110.417 415.834 110.417Z" fill="#212C42"/>
<path d="M415.833 143.333H390.833C389.728 143.333 388.668 142.894 387.886 142.113C387.105 141.332 386.666 140.272 386.666 139.167V114.167C386.666 113.062 387.105 112.002 387.886 111.22C388.668 110.439 389.728 110 390.833 110H415.833C416.938 110 417.998 110.439 418.779 111.22C419.56 112.002 419.999 113.062 419.999 114.167V139.167C419.999 140.272 419.56 141.332 418.779 142.113C417.998 142.894 416.938 143.333 415.833 143.333V143.333ZM390.833 110.833C389.949 110.833 389.101 111.185 388.476 111.81C387.851 112.435 387.499 113.283 387.499 114.167V139.167C387.499 140.051 387.851 140.899 388.476 141.524C389.101 142.149 389.949 142.5 390.833 142.5H415.833C416.717 142.5 417.565 142.149 418.19 141.524C418.815 140.899 419.166 140.051 419.166 139.167V114.167C419.166 113.283 418.815 112.435 418.19 111.81C417.565 111.185 416.717 110.833 415.833 110.833H390.833Z" fill="#3C4A64"/>
<path d="M432.5 0.416626H407.5C405.429 0.416626 403.75 2.09556 403.75 4.16663V29.1666C403.75 31.2377 405.429 32.9166 407.5 32.9166H432.5C434.571 32.9166 436.25 31.2377 436.25 29.1666V4.16663C436.25 2.09556 434.571 0.416626 432.5 0.416626Z" fill="#212C42"/>
<path d="M432.501 33.3333H407.501C406.396 33.3333 405.336 32.8943 404.554 32.1129C403.773 31.3315 403.334 30.2717 403.334 29.1667V4.16667C403.334 3.0616 403.773 2.00179 404.554 1.22039C405.336 0.438987 406.396 0 407.501 0L432.501 0C433.606 0 434.666 0.438987 435.447 1.22039C436.228 2.00179 436.667 3.0616 436.667 4.16667V29.1667C436.667 30.2717 436.228 31.3315 435.447 32.1129C434.666 32.8943 433.606 33.3333 432.501 33.3333ZM407.501 0.833333C406.617 0.833333 405.769 1.18452 405.144 1.80964C404.519 2.43477 404.167 3.28261 404.167 4.16667V29.1667C404.167 30.0507 404.519 30.8986 405.144 31.5237C405.769 32.1488 406.617 32.5 407.501 32.5H432.501C433.385 32.5 434.233 32.1488 434.858 31.5237C435.483 30.8986 435.834 30.0507 435.834 29.1667V4.16667C435.834 3.28261 435.483 2.43477 434.858 1.80964C434.233 1.18452 433.385 0.833333 432.501 0.833333H407.501Z" fill="#3C4A64"/>
<path d="M452.5 37.0834H427.5C425.429 37.0834 423.75 38.7623 423.75 40.8334V65.8334C423.75 67.9044 425.429 69.5834 427.5 69.5834H452.5C454.571 69.5834 456.25 67.9044 456.25 65.8334V40.8334C456.25 38.7623 454.571 37.0834 452.5 37.0834Z" fill="#212C42"/>
<path d="M452.501 70H427.501C426.396 70 425.336 69.561 424.554 68.7796C423.773 67.9982 423.334 66.9384 423.334 65.8333V40.8333C423.334 39.7282 423.773 38.6684 424.554 37.887C425.336 37.1056 426.396 36.6666 427.501 36.6666H452.501C453.606 36.6666 454.666 37.1056 455.447 37.887C456.228 38.6684 456.667 39.7282 456.667 40.8333V65.8333C456.667 66.9384 456.228 67.9982 455.447 68.7796C454.666 69.561 453.606 70 452.501 70ZM427.501 37.5C426.617 37.5 425.769 37.8511 425.144 38.4763C424.519 39.1014 424.167 39.9492 424.167 40.8333V65.8333C424.167 66.7173 424.519 67.5652 425.144 68.1903C425.769 68.8154 426.617 69.1666 427.501 69.1666H452.501C453.385 69.1666 454.233 68.8154 454.858 68.1903C455.483 67.5652 455.834 66.7173 455.834 65.8333V40.8333C455.834 39.9492 455.483 39.1014 454.858 38.4763C454.233 37.8511 453.385 37.5 452.501 37.5H427.501Z" fill="#3C4A64"/>
<path d="M469.166 73.75H444.166C442.095 73.75 440.416 75.4289 440.416 77.5V102.5C440.416 104.571 442.095 106.25 444.166 106.25H469.166C471.237 106.25 472.916 104.571 472.916 102.5V77.5C472.916 75.4289 471.237 73.75 469.166 73.75Z" fill="#212C42"/>
<path d="M469.167 106.667H444.167C443.062 106.667 442.002 106.228 441.22 105.446C440.439 104.665 440 103.605 440 102.5V77.4999C440 76.3948 440.439 75.335 441.22 74.5536C442.002 73.7722 443.062 73.3333 444.167 73.3333H469.167C470.272 73.3333 471.332 73.7722 472.113 74.5536C472.894 75.335 473.333 76.3948 473.333 77.4999V102.5C473.333 103.605 472.894 104.665 472.113 105.446C471.332 106.228 470.272 106.667 469.167 106.667ZM444.167 74.1666C443.283 74.1666 442.435 74.5178 441.81 75.1429C441.185 75.768 440.833 76.6159 440.833 77.4999V102.5C440.833 103.384 441.185 104.232 441.81 104.857C442.435 105.482 443.283 105.833 444.167 105.833H469.167C470.051 105.833 470.899 105.482 471.524 104.857C472.149 104.232 472.5 103.384 472.5 102.5V77.4999C472.5 76.6159 472.149 75.768 471.524 75.1429C470.899 74.5178 470.051 74.1666 469.167 74.1666H444.167Z" fill="#3C4A64"/>
<path d="M452.5 110.417H427.5C425.429 110.417 423.75 112.096 423.75 114.167V139.167C423.75 141.238 425.429 142.917 427.5 142.917H452.5C454.571 142.917 456.25 141.238 456.25 139.167V114.167C456.25 112.096 454.571 110.417 452.5 110.417Z" fill="#212C42"/>
<path d="M452.501 143.333H427.501C426.396 143.333 425.336 142.894 424.554 142.113C423.773 141.332 423.334 140.272 423.334 139.167V114.167C423.334 113.062 423.773 112.002 424.554 111.22C425.336 110.439 426.396 110 427.501 110H452.501C453.606 110 454.666 110.439 455.447 111.22C456.228 112.002 456.667 113.062 456.667 114.167V139.167C456.667 140.272 456.228 141.332 455.447 142.113C454.666 142.894 453.606 143.333 452.501 143.333V143.333ZM427.501 110.833C426.617 110.833 425.769 111.185 425.144 111.81C424.519 112.435 424.167 113.283 424.167 114.167V139.167C424.167 140.051 424.519 140.899 425.144 141.524C425.769 142.149 426.617 142.5 427.501 142.5H452.501C453.385 142.5 454.233 142.149 454.858 141.524C455.483 140.899 455.834 140.051 455.834 139.167V114.167C455.834 113.283 455.483 112.435 454.858 111.81C454.233 111.185 453.385 110.833 452.501 110.833H427.501Z" fill="#3C4A64"/>
<path d="M469.166 0.416626H444.166C442.095 0.416626 440.416 2.09556 440.416 4.16663V29.1666C440.416 31.2377 442.095 32.9166 444.166 32.9166H469.166C471.237 32.9166 472.916 31.2377 472.916 29.1666V4.16663C472.916 2.09556 471.237 0.416626 469.166 0.416626Z" fill="#212C42"/>
<path d="M469.167 33.3333H444.167C443.062 33.3333 442.002 32.8943 441.22 32.1129C440.439 31.3315 440 30.2717 440 29.1667V4.16667C440 3.0616 440.439 2.00179 441.22 1.22039C442.002 0.438987 443.062 0 444.167 0L469.167 0C470.272 0 471.332 0.438987 472.113 1.22039C472.894 2.00179 473.333 3.0616 473.333 4.16667V29.1667C473.333 30.2717 472.894 31.3315 472.113 32.1129C471.332 32.8943 470.272 33.3333 469.167 33.3333ZM444.167 0.833333C443.283 0.833333 442.435 1.18452 441.81 1.80964C441.185 2.43477 440.833 3.28261 440.833 4.16667V29.1667C440.833 30.0507 441.185 30.8986 441.81 31.5237C442.435 32.1488 443.283 32.5 444.167 32.5H469.167C470.051 32.5 470.899 32.1488 471.524 31.5237C472.149 30.8986 472.5 30.0507 472.5 29.1667V4.16667C472.5 3.28261 472.149 2.43477 471.524 1.80964C470.899 1.18452 470.051 0.833333 469.167 0.833333H444.167Z" fill="#3C4A64"/>
<path d="M489.166 37.0834H464.166C462.095 37.0834 460.416 38.7623 460.416 40.8334V65.8334C460.416 67.9044 462.095 69.5834 464.166 69.5834H489.166C491.237 69.5834 492.916 67.9044 492.916 65.8334V40.8334C492.916 38.7623 491.237 37.0834 489.166 37.0834Z" fill="#212C42"/>
<path d="M489.167 70H464.167C463.062 70 462.002 69.561 461.22 68.7796C460.439 67.9982 460 66.9384 460 65.8333V40.8333C460 39.7282 460.439 38.6684 461.22 37.887C462.002 37.1056 463.062 36.6666 464.167 36.6666H489.167C490.272 36.6666 491.332 37.1056 492.113 37.887C492.894 38.6684 493.333 39.7282 493.333 40.8333V65.8333C493.333 66.9384 492.894 67.9982 492.113 68.7796C491.332 69.561 490.272 70 489.167 70ZM464.167 37.5C463.283 37.5 462.435 37.8511 461.81 38.4763C461.185 39.1014 460.833 39.9492 460.833 40.8333V65.8333C460.833 66.7173 461.185 67.5652 461.81 68.1903C462.435 68.8154 463.283 69.1666 464.167 69.1666H489.167C490.051 69.1666 490.899 68.8154 491.524 68.1903C492.149 67.5652 492.5 66.7173 492.5 65.8333V40.8333C492.5 39.9492 492.149 39.1014 491.524 38.4763C490.899 37.8511 490.051 37.5 489.167 37.5H464.167Z" fill="#3C4A64"/>
<path d="M525.834 0.416626H480.834C478.763 0.416626 477.084 2.09556 477.084 4.16663V29.1666C477.084 31.2377 478.763 32.9166 480.834 32.9166H525.834C527.905 32.9166 529.584 31.2377 529.584 29.1666V4.16663C529.584 2.09556 527.905 0.416626 525.834 0.416626Z" fill="#212C42"/>
<path d="M525.833 33.3333H480.833C479.728 33.3333 478.668 32.8943 477.886 32.1129C477.105 31.3315 476.666 30.2717 476.666 29.1667V4.16667C476.666 3.0616 477.105 2.00179 477.886 1.22039C478.668 0.438987 479.728 0 480.833 0L525.833 0C526.938 0 527.998 0.438987 528.779 1.22039C529.56 2.00179 529.999 3.0616 529.999 4.16667V29.1667C529.999 30.2717 529.56 31.3315 528.779 32.1129C527.998 32.8943 526.938 33.3333 525.833 33.3333ZM480.833 0.833333C479.949 0.833333 479.101 1.18452 478.476 1.80964C477.851 2.43477 477.499 3.28261 477.499 4.16667V29.1667C477.499 30.0507 477.851 30.8986 478.476 31.5237C479.101 32.1488 479.949 32.5 480.833 32.5H525.833C526.717 32.5 527.565 32.1488 528.19 31.5237C528.815 30.8986 529.166 30.0507 529.166 29.1667V4.16667C529.166 3.28261 528.815 2.43477 528.19 1.80964C527.565 1.18452 526.717 0.833333 525.833 0.833333H480.833Z" fill="#3C4A64"/>
<path d="M102.5 0.416626H77.5C75.4289 0.416626 73.75 2.09556 73.75 4.16663V29.1666C73.75 31.2377 75.4289 32.9166 77.5 32.9166H102.5C104.571 32.9166 106.25 31.2377 106.25 29.1666V4.16663C106.25 2.09556 104.571 0.416626 102.5 0.416626Z" fill="#212C42"/>
<path d="M102.501 33.3333H77.5007C76.3956 33.3333 75.3358 32.8943 74.5544 32.1129C73.773 31.3315 73.334 30.2717 73.334 29.1667V4.16667C73.334 3.0616 73.773 2.00179 74.5544 1.22039C75.3358 0.438987 76.3956 0 77.5007 0L102.501 0C103.606 0 104.666 0.438987 105.447 1.22039C106.228 2.00179 106.667 3.0616 106.667 4.16667V29.1667C106.667 30.2717 106.228 31.3315 105.447 32.1129C104.666 32.8943 103.606 33.3333 102.501 33.3333ZM77.5007 0.833333C76.6166 0.833333 75.7687 1.18452 75.1436 1.80964C74.5185 2.43477 74.1673 3.28261 74.1673 4.16667V29.1667C74.1673 30.0507 74.5185 30.8986 75.1436 31.5237C75.7687 32.1488 76.6166 32.5 77.5007 32.5H102.501C103.385 32.5 104.233 32.1488 104.858 31.5237C105.483 30.8986 105.834 30.0507 105.834 29.1667V4.16667C105.834 3.28261 105.483 2.43477 104.858 1.80964C104.233 1.18452 103.385 0.833333 102.501 0.833333H77.5007Z" fill="#3C4A64"/>
<path d="M122.5 37.0834H97.5C95.4289 37.0834 93.75 38.7623 93.75 40.8334V65.8334C93.75 67.9044 95.4289 69.5834 97.5 69.5834H122.5C124.571 69.5834 126.25 67.9044 126.25 65.8334V40.8334C126.25 38.7623 124.571 37.0834 122.5 37.0834Z" fill="#212C42"/>
<path d="M122.501 70H97.5007C96.3956 70 95.3358 69.561 94.5544 68.7796C93.773 67.9982 93.334 66.9384 93.334 65.8333V40.8333C93.334 39.7282 93.773 38.6684 94.5544 37.887C95.3358 37.1056 96.3956 36.6666 97.5007 36.6666H122.501C123.606 36.6666 124.666 37.1056 125.447 37.887C126.228 38.6684 126.667 39.7282 126.667 40.8333V65.8333C126.667 66.9384 126.228 67.9982 125.447 68.7796C124.666 69.561 123.606 70 122.501 70ZM97.5007 37.5C96.6166 37.5 95.7687 37.8511 95.1436 38.4763C94.5185 39.1014 94.1673 39.9492 94.1673 40.8333V65.8333C94.1673 66.7173 94.5185 67.5652 95.1436 68.1903C95.7687 68.8154 96.6166 69.1666 97.5007 69.1666H122.501C123.385 69.1666 124.233 68.8154 124.858 68.1903C125.483 67.5652 125.834 66.7173 125.834 65.8333V40.8333C125.834 39.9492 125.483 39.1014 124.858 38.4763C124.233 37.8511 123.385 37.5 122.501 37.5H97.5007Z" fill="#3C4A64"/>
<path d="M139.166 73.75H114.166C112.095 73.75 110.416 75.4289 110.416 77.5V102.5C110.416 104.571 112.095 106.25 114.166 106.25H139.166C141.237 106.25 142.916 104.571 142.916 102.5V77.5C142.916 75.4289 141.237 73.75 139.166 73.75Z" fill="#4794BA"/>
<path d="M139.167 106.667H114.167C113.062 106.667 112.002 106.228 111.22 105.446C110.439 104.665 110 103.605 110 102.5V77.4999C110 76.3948 110.439 75.335 111.22 74.5536C112.002 73.7722 113.062 73.3333 114.167 73.3333H139.167C140.272 73.3333 141.332 73.7722 142.113 74.5536C142.894 75.335 143.333 76.3948 143.333 77.4999V102.5C143.333 103.605 142.894 104.665 142.113 105.446C141.332 106.228 140.272 106.667 139.167 106.667ZM114.167 74.1666C113.283 74.1666 112.435 74.5178 111.81 75.1429C111.185 75.768 110.833 76.6159 110.833 77.4999V102.5C110.833 103.384 111.185 104.232 111.81 104.857C112.435 105.482 113.283 105.833 114.167 105.833H139.167C140.051 105.833 140.899 105.482 141.524 104.857C142.149 104.232 142.5 103.384 142.5 102.5V77.4999C142.5 76.6159 142.149 75.768 141.524 75.1429C140.899 74.5178 140.051 74.1666 139.167 74.1666H114.167Z" fill="#3C4A64"/>
<path d="M122.5 110.417H97.5C95.4289 110.417 93.75 112.096 93.75 114.167V139.167C93.75 141.238 95.4289 142.917 97.5 142.917H122.5C124.571 142.917 126.25 141.238 126.25 139.167V114.167C126.25 112.096 124.571 110.417 122.5 110.417Z" fill="#212C42"/>
<path d="M122.501 143.333H97.5007C96.3956 143.333 95.3358 142.894 94.5544 142.113C93.773 141.332 93.334 140.272 93.334 139.167V114.167C93.334 113.062 93.773 112.002 94.5544 111.22C95.3358 110.439 96.3956 110 97.5007 110H122.501C123.606 110 124.666 110.439 125.447 111.22C126.228 112.002 126.667 113.062 126.667 114.167V139.167C126.667 140.272 126.228 141.332 125.447 142.113C124.666 142.894 123.606 143.333 122.501 143.333V143.333ZM97.5007 110.833C96.6166 110.833 95.7687 111.185 95.1436 111.81C94.5185 112.435 94.1673 113.283 94.1673 114.167V139.167C94.1673 140.051 94.5185 140.899 95.1436 141.524C95.7687 142.149 96.6166 142.5 97.5007 142.5H122.501C123.385 142.5 124.233 142.149 124.858 141.524C125.483 140.899 125.834 140.051 125.834 139.167V114.167C125.834 113.283 125.483 112.435 124.858 111.81C124.233 111.185 123.385 110.833 122.501 110.833H97.5007Z" fill="#3C4A64"/>
<path d="M85.8327 110.417H4.16602C2.09495 110.417 0.416016 112.096 0.416016 114.167V139.167C0.416016 141.238 2.09495 142.917 4.16602 142.917H85.8327C87.9037 142.917 89.5827 141.238 89.5827 139.167V114.167C89.5827 112.096 87.9037 110.417 85.8327 110.417Z" fill="#212C42"/>
<path d="M85.8333 143.333H4.16667C3.0616 143.333 2.00179 142.894 1.22039 142.113C0.438987 141.332 0 140.272 0 139.167L0 114.167C0 113.062 0.438987 112.002 1.22039 111.22C2.00179 110.439 3.0616 110 4.16667 110H85.8333C86.9384 110 87.9982 110.439 88.7796 111.22C89.561 112.002 90 113.062 90 114.167V139.167C90 140.272 89.561 141.332 88.7796 142.113C87.9982 142.894 86.9384 143.333 85.8333 143.333V143.333ZM4.16667 110.833C3.28261 110.833 2.43477 111.185 1.80964 111.81C1.18452 112.435 0.833333 113.283 0.833333 114.167V139.167C0.833333 140.051 1.18452 140.899 1.80964 141.524C2.43477 142.149 3.28261 142.5 4.16667 142.5H85.8333C86.7174 142.5 87.5652 142.149 88.1904 141.524C88.8155 140.899 89.1667 140.051 89.1667 139.167V114.167C89.1667 113.283 88.8155 112.435 88.1904 111.81C87.5652 111.185 86.7174 110.833 85.8333 110.833H4.16667Z" fill="#3C4A64"/>
<path d="M65.8327 147.083H4.16602C2.09495 147.083 0.416016 148.762 0.416016 150.833V175.833C0.416016 177.904 2.09495 179.583 4.16602 179.583H65.8327C67.9037 179.583 69.5827 177.904 69.5827 175.833V150.833C69.5827 148.762 67.9037 147.083 65.8327 147.083Z" fill="#212C42"/>
<path d="M65.8333 180H4.16667C3.0616 180 2.00179 179.561 1.22039 178.78C0.438987 177.998 0 176.938 0 175.833L0 150.833C0 149.728 0.438987 148.669 1.22039 147.887C2.00179 147.106 3.0616 146.667 4.16667 146.667H65.8333C66.9384 146.667 67.9982 147.106 68.7796 147.887C69.561 148.669 70 149.728 70 150.833V175.833C70 176.938 69.561 177.998 68.7796 178.78C67.9982 179.561 66.9384 180 65.8333 180V180ZM4.16667 147.5C3.28261 147.5 2.43477 147.851 1.80964 148.476C1.18452 149.102 0.833333 149.949 0.833333 150.833V175.833C0.833333 176.717 1.18452 177.565 1.80964 178.19C2.43477 178.816 3.28261 179.167 4.16667 179.167H65.8333C66.7174 179.167 67.5652 178.816 68.1904 178.19C68.8155 177.565 69.1667 176.717 69.1667 175.833V150.833C69.1667 149.949 68.8155 149.102 68.1904 148.476C67.5652 147.851 66.7174 147.5 65.8333 147.5H4.16667Z" fill="#3C4A64"/>
<path d="M525.834 73.75H480.834C478.763 73.75 477.084 75.4289 477.084 77.5V102.5C477.084 104.571 478.763 106.25 480.834 106.25H525.834C527.905 106.25 529.584 104.571 529.584 102.5V77.5C529.584 75.4289 527.905 73.75 525.834 73.75Z" fill="#212C42"/>
<path d="M525.833 106.667H480.833C479.728 106.667 478.668 106.228 477.886 105.446C477.105 104.665 476.666 103.605 476.666 102.5V77.4999C476.666 76.3948 477.105 75.335 477.886 74.5536C478.668 73.7722 479.728 73.3333 480.833 73.3333H525.833C526.938 73.3333 527.998 73.7722 528.779 74.5536C529.56 75.335 529.999 76.3948 529.999 77.4999V102.5C529.999 103.605 529.56 104.665 528.779 105.446C527.998 106.228 526.938 106.667 525.833 106.667ZM480.833 74.1666C479.949 74.1666 479.101 74.5178 478.476 75.1429C477.851 75.768 477.499 76.6159 477.499 77.4999V102.5C477.499 103.384 477.851 104.232 478.476 104.857C479.101 105.482 479.949 105.833 480.833 105.833H525.833C526.717 105.833 527.565 105.482 528.19 104.857C528.815 104.232 529.166 103.384 529.166 102.5V77.4999C529.166 76.6159 528.815 75.768 528.19 75.1429C527.565 74.5178 526.717 74.1666 525.833 74.1666H480.833Z" fill="#3C4A64"/>
<path d="M525.833 110.417H464.166C462.095 110.417 460.416 112.096 460.416 114.167V139.167C460.416 141.238 462.095 142.917 464.166 142.917H525.833C527.904 142.917 529.583 141.238 529.583 139.167V114.167C529.583 112.096 527.904 110.417 525.833 110.417Z" fill="#212C42"/>
<path d="M525.833 143.333H464.167C463.062 143.333 462.002 142.894 461.22 142.113C460.439 141.332 460 140.272 460 139.167V114.167C460 113.062 460.439 112.002 461.22 111.22C462.002 110.439 463.062 110 464.167 110H525.833C526.938 110 527.998 110.439 528.78 111.22C529.561 112.002 530 113.062 530 114.167V139.167C530 140.272 529.561 141.332 528.78 142.113C527.998 142.894 526.938 143.333 525.833 143.333V143.333ZM464.167 110.833C463.283 110.833 462.435 111.185 461.81 111.81C461.185 112.435 460.833 113.283 460.833 114.167V139.167C460.833 140.051 461.185 140.899 461.81 141.524C462.435 142.149 463.283 142.5 464.167 142.5H525.833C526.717 142.5 527.565 142.149 528.19 141.524C528.815 140.899 529.167 140.051 529.167 139.167V114.167C529.167 113.283 528.815 112.435 528.19 111.81C527.565 111.185 526.717 110.833 525.833 110.833H464.167Z" fill="#3C4A64"/>
<rect x="193.334" y="97.5" width="13.3333" height="3.33333" rx="1.66667" fill="#4794BA"/>
<rect x="303.334" y="97.5" width="13.3333" height="3.33333" rx="1.66667" fill="#4794BA"/>
</g>
<defs>
<clipPath id="clip0_340_1448">
<rect width="530" height="180" fill="white"/>
</clipPath>
</defs>
</svg>
