<svg width="500" height="375" viewBox="0 0 500 375" fill="none" xmlns="http://www.w3.org/2000/svg">
<g clip-path="url(#clip0_340_1765)">
<path d="M63.2812 13.6719H39.8438C37.9021 13.6719 36.3281 15.2459 36.3281 17.1875V40.625C36.3281 42.5666 37.9021 44.1406 39.8438 44.1406H63.2812C65.2229 44.1406 66.7969 42.5666 66.7969 40.625V17.1875C66.7969 15.2459 65.2229 13.6719 63.2812 13.6719Z" fill="#F9F9F9"/>
<path d="M63.2812 44.5312H39.8438C38.8077 44.5312 37.8142 44.1197 37.0816 43.3871C36.3491 42.6546 35.9375 41.661 35.9375 40.625V17.1875C35.9375 16.1515 36.3491 15.1579 37.0816 14.4254C37.8142 13.6928 38.8077 13.2813 39.8438 13.2812H63.2812C64.3173 13.2812 65.3108 13.6928 66.0434 14.4254C66.776 15.1579 67.1875 16.1515 67.1875 17.1875V40.625C67.1875 41.661 66.776 42.6546 66.0434 43.3871C65.3108 44.1197 64.3173 44.5312 63.2812 44.5312ZM39.8438 14.0625C39.0149 14.0625 38.2201 14.3917 37.634 14.9778C37.048 15.5638 36.7188 16.3587 36.7188 17.1875V40.625C36.7188 41.4538 37.048 42.2487 37.634 42.8347C38.2201 43.4208 39.0149 43.75 39.8438 43.75H63.2812C64.1101 43.75 64.9049 43.4208 65.491 42.8347C66.077 42.2487 66.4062 41.4538 66.4062 40.625V17.1875C66.4062 16.3587 66.077 15.5638 65.491 14.9778C64.9049 14.3917 64.1101 14.0625 63.2812 14.0625H39.8438Z" fill="#E1E1E1"/>
<path d="M82.0312 48.0469H58.5938C56.6521 48.0469 55.0781 49.6209 55.0781 51.5625V75C55.0781 76.9416 56.6521 78.5156 58.5938 78.5156H82.0312C83.9729 78.5156 85.5469 76.9416 85.5469 75V51.5625C85.5469 49.6209 83.9729 48.0469 82.0312 48.0469Z" fill="#F9F9F9"/>
<path d="M82.0312 78.9062H58.5938C57.5577 78.9062 56.5642 78.4947 55.8316 77.7621C55.099 77.0296 54.6875 76.036 54.6875 75V51.5625C54.6875 50.5265 55.099 49.5329 55.8316 48.8004C56.5642 48.0678 57.5577 47.6563 58.5938 47.6562H82.0312C83.0673 47.6562 84.0608 48.0678 84.7934 48.8004C85.526 49.5329 85.9375 50.5265 85.9375 51.5625V75C85.9375 76.036 85.526 77.0296 84.7934 77.7621C84.0608 78.4947 83.0673 78.9062 82.0312 78.9062ZM58.5938 48.4375C57.7649 48.4375 56.9701 48.7667 56.384 49.3528C55.798 49.9388 55.4688 50.7337 55.4688 51.5625V75C55.4688 75.8288 55.798 76.6237 56.384 77.2097C56.9701 77.7958 57.7649 78.125 58.5938 78.125H82.0312C82.8601 78.125 83.6549 77.7958 84.241 77.2097C84.827 76.6237 85.1562 75.8288 85.1562 75V51.5625C85.1562 50.7337 84.827 49.9388 84.241 49.3528C83.6549 48.7667 82.8601 48.4375 82.0312 48.4375H58.5938Z" fill="#E1E1E1"/>
<path d="M97.6562 82.4219H74.2188C72.2771 82.4219 70.7031 83.9959 70.7031 85.9375V109.375C70.7031 111.317 72.2771 112.891 74.2188 112.891H97.6562C99.5979 112.891 101.172 111.317 101.172 109.375V85.9375C101.172 83.9959 99.5979 82.4219 97.6562 82.4219Z" fill="#F9F9F9"/>
<path d="M97.6562 113.281H74.2188C73.1827 113.281 72.1892 112.87 71.4566 112.137C70.724 111.405 70.3125 110.411 70.3125 109.375V85.9375C70.3125 84.9015 70.724 83.9079 71.4566 83.1754C72.1892 82.4428 73.1827 82.0312 74.2188 82.0312H97.6562C98.6923 82.0312 99.6858 82.4428 100.418 83.1754C101.151 83.9079 101.562 84.9015 101.562 85.9375V109.375C101.562 110.411 101.151 111.405 100.418 112.137C99.6858 112.87 98.6923 113.281 97.6562 113.281ZM74.2188 82.8125C73.3899 82.8125 72.5951 83.1417 72.009 83.7278C71.423 84.3138 71.0938 85.1087 71.0938 85.9375V109.375C71.0938 110.204 71.423 110.999 72.009 111.585C72.5951 112.171 73.3899 112.5 74.2188 112.5H97.6562C98.4851 112.5 99.2799 112.171 99.866 111.585C100.452 110.999 100.781 110.204 100.781 109.375V85.9375C100.781 85.1087 100.452 84.3138 99.866 83.7278C99.2799 83.1417 98.4851 82.8125 97.6562 82.8125H74.2188Z" fill="#E1E1E1"/>
<path d="M132.031 13.6719H108.594C106.652 13.6719 105.078 15.2459 105.078 17.1875V40.625C105.078 42.5666 106.652 44.1406 108.594 44.1406H132.031C133.973 44.1406 135.547 42.5666 135.547 40.625V17.1875C135.547 15.2459 133.973 13.6719 132.031 13.6719Z" fill="#F9F9F9"/>
<path d="M132.031 44.5312H108.594C107.558 44.5312 106.564 44.1197 105.832 43.3871C105.099 42.6546 104.688 41.661 104.688 40.625V17.1875C104.688 16.1515 105.099 15.1579 105.832 14.4254C106.564 13.6928 107.558 13.2813 108.594 13.2812H132.031C133.067 13.2812 134.061 13.6928 134.793 14.4254C135.526 15.1579 135.938 16.1515 135.938 17.1875V40.625C135.938 41.661 135.526 42.6546 134.793 43.3871C134.061 44.1197 133.067 44.5312 132.031 44.5312ZM108.594 14.0625C107.765 14.0625 106.97 14.3917 106.384 14.9778C105.798 15.5638 105.469 16.3587 105.469 17.1875V40.625C105.469 41.4538 105.798 42.2487 106.384 42.8347C106.97 43.4208 107.765 43.75 108.594 43.75H132.031C132.86 43.75 133.655 43.4208 134.241 42.8347C134.827 42.2487 135.156 41.4538 135.156 40.625V17.1875C135.156 16.3587 134.827 15.5638 134.241 14.9778C133.655 14.3917 132.86 14.0625 132.031 14.0625H108.594Z" fill="#E1E1E1"/>
<path d="M150.781 48.0469H127.344C125.402 48.0469 123.828 49.6209 123.828 51.5625V75C123.828 76.9416 125.402 78.5156 127.344 78.5156H150.781C152.723 78.5156 154.297 76.9416 154.297 75V51.5625C154.297 49.6209 152.723 48.0469 150.781 48.0469Z" fill="#F9F9F9"/>
<path d="M150.781 78.9062H127.344C126.308 78.9062 125.314 78.4947 124.582 77.7621C123.849 77.0296 123.438 76.036 123.438 75V51.5625C123.438 50.5265 123.849 49.5329 124.582 48.8004C125.314 48.0678 126.308 47.6563 127.344 47.6562H150.781C151.817 47.6562 152.811 48.0678 153.543 48.8004C154.276 49.5329 154.688 50.5265 154.688 51.5625V75C154.688 76.036 154.276 77.0296 153.543 77.7621C152.811 78.4947 151.817 78.9062 150.781 78.9062ZM127.344 48.4375C126.515 48.4375 125.72 48.7667 125.134 49.3528C124.548 49.9388 124.219 50.7337 124.219 51.5625V75C124.219 75.8288 124.548 76.6237 125.134 77.2097C125.72 77.7958 126.515 78.125 127.344 78.125H150.781C151.61 78.125 152.405 77.7958 152.991 77.2097C153.577 76.6237 153.906 75.8288 153.906 75V51.5625C153.906 50.7337 153.577 49.9388 152.991 49.3528C152.405 48.7667 151.61 48.4375 150.781 48.4375H127.344Z" fill="#E1E1E1"/>
<path d="M166.406 82.4219H142.969C141.027 82.4219 139.453 83.9959 139.453 85.9375V109.375C139.453 111.317 141.027 112.891 142.969 112.891H166.406C168.348 112.891 169.922 111.317 169.922 109.375V85.9375C169.922 83.9959 168.348 82.4219 166.406 82.4219Z" fill="#F9F9F9"/>
<path d="M166.406 113.281H142.969C141.933 113.281 140.939 112.87 140.207 112.137C139.474 111.405 139.063 110.411 139.062 109.375V85.9375C139.062 84.9015 139.474 83.9079 140.207 83.1754C140.939 82.4428 141.933 82.0312 142.969 82.0312H166.406C167.442 82.0312 168.436 82.4428 169.168 83.1754C169.901 83.9079 170.312 84.9015 170.312 85.9375V109.375C170.312 110.411 169.901 111.405 169.168 112.137C168.436 112.87 167.442 113.281 166.406 113.281ZM142.969 82.8125C142.14 82.8125 141.345 83.1417 140.759 83.7278C140.173 84.3138 139.844 85.1087 139.844 85.9375V109.375C139.844 110.204 140.173 110.999 140.759 111.585C141.345 112.171 142.14 112.5 142.969 112.5H166.406C167.235 112.5 168.03 112.171 168.616 111.585C169.202 110.999 169.531 110.204 169.531 109.375V85.9375C169.531 85.1087 169.202 84.3138 168.616 83.7278C168.03 83.1417 167.235 82.8125 166.406 82.8125H142.969Z" fill="#E1E1E1"/>
<path d="M150.781 116.797H127.344C125.402 116.797 123.828 118.371 123.828 120.312V143.75C123.828 145.692 125.402 147.266 127.344 147.266H150.781C152.723 147.266 154.297 145.692 154.297 143.75V120.312C154.297 118.371 152.723 116.797 150.781 116.797Z" fill="#F9F9F9"/>
<path d="M150.781 147.656H127.344C126.308 147.656 125.314 147.245 124.582 146.512C123.849 145.78 123.438 144.786 123.438 143.75V120.312C123.438 119.276 123.849 118.283 124.582 117.55C125.314 116.818 126.308 116.406 127.344 116.406H150.781C151.817 116.406 152.811 116.818 153.543 117.55C154.276 118.283 154.688 119.276 154.688 120.312V143.75C154.688 144.786 154.276 145.78 153.543 146.512C152.811 147.245 151.817 147.656 150.781 147.656V147.656ZM127.344 117.188C126.515 117.188 125.72 117.517 125.134 118.103C124.548 118.689 124.219 119.484 124.219 120.312V143.75C124.219 144.579 124.548 145.374 125.134 145.96C125.72 146.546 126.515 146.875 127.344 146.875H150.781C151.61 146.875 152.405 146.546 152.991 145.96C153.577 145.374 153.906 144.579 153.906 143.75V120.312C153.906 119.484 153.577 118.689 152.991 118.103C152.405 117.517 151.61 117.188 150.781 117.188H127.344Z" fill="#E1E1E1"/>
<path d="M47.6562 48.0469H5.46875C3.52712 48.0469 1.95312 49.6209 1.95312 51.5625V75C1.95312 76.9416 3.52712 78.5156 5.46875 78.5156H47.6562C49.5979 78.5156 51.1719 76.9416 51.1719 75V51.5625C51.1719 49.6209 49.5979 48.0469 47.6562 48.0469Z" fill="#FAFAFA"/>
<path d="M47.6562 78.9062H5.46875C4.43275 78.9062 3.43918 78.4947 2.70661 77.7621C1.97405 77.0296 1.5625 76.036 1.5625 75L1.5625 51.5625C1.5625 50.5265 1.97405 49.5329 2.70661 48.8004C3.43918 48.0678 4.43275 47.6563 5.46875 47.6562H47.6562C48.6923 47.6562 49.6858 48.0678 50.4184 48.8004C51.1509 49.5329 51.5625 50.5265 51.5625 51.5625V75C51.5625 76.036 51.1509 77.0296 50.4184 77.7621C49.6858 78.4947 48.6923 78.9062 47.6562 78.9062ZM5.46875 48.4375C4.63995 48.4375 3.84509 48.7667 3.25904 49.3528C2.67299 49.9388 2.34375 50.7337 2.34375 51.5625V75C2.34375 75.8288 2.67299 76.6237 3.25904 77.2097C3.84509 77.7958 4.63995 78.125 5.46875 78.125H47.6562C48.4851 78.125 49.2799 77.7958 49.866 77.2097C50.452 76.6237 50.7812 75.8288 50.7812 75V51.5625C50.7812 50.7337 50.452 49.9388 49.866 49.3528C49.2799 48.7667 48.4851 48.4375 47.6562 48.4375H5.46875Z" fill="#E1E1E1"/>
<path d="M63.2812 82.4219H5.46875C3.52712 82.4219 1.95312 83.9959 1.95312 85.9375V109.375C1.95312 111.317 3.52712 112.891 5.46875 112.891H63.2812C65.2229 112.891 66.7969 111.317 66.7969 109.375V85.9375C66.7969 83.9959 65.2229 82.4219 63.2812 82.4219Z" fill="#FAFAFA"/>
<path d="M63.2812 113.281H5.46875C4.43275 113.281 3.43918 112.87 2.70661 112.137C1.97405 111.405 1.5625 110.411 1.5625 109.375L1.5625 85.9375C1.5625 84.9015 1.97405 83.9079 2.70661 83.1754C3.43918 82.4428 4.43275 82.0312 5.46875 82.0312H63.2812C64.3173 82.0312 65.3108 82.4428 66.0434 83.1754C66.776 83.9079 67.1875 84.9015 67.1875 85.9375V109.375C67.1875 110.411 66.776 111.405 66.0434 112.137C65.3108 112.87 64.3173 113.281 63.2812 113.281ZM5.46875 82.8125C4.63995 82.8125 3.84509 83.1417 3.25904 83.7278C2.67299 84.3138 2.34375 85.1087 2.34375 85.9375V109.375C2.34375 110.204 2.67299 110.999 3.25904 111.585C3.84509 112.171 4.63995 112.5 5.46875 112.5H63.2812C64.1101 112.5 64.9049 112.171 65.491 111.585C66.077 110.999 66.4062 110.204 66.4062 109.375V85.9375C66.4062 85.1087 66.077 84.3138 65.491 83.7278C64.9049 83.1417 64.1101 82.8125 63.2812 82.8125H5.46875Z" fill="#E1E1E1"/>
<path d="M132.031 151.172H74.2188C72.2771 151.172 70.7031 152.746 70.7031 154.688V178.125C70.7031 180.067 72.2771 181.641 74.2188 181.641H132.031C133.973 181.641 135.547 180.067 135.547 178.125V154.688C135.547 152.746 133.973 151.172 132.031 151.172Z" fill="#FAFAFA"/>
<path d="M132.031 182.031H74.2188C73.1827 182.031 72.1892 181.62 71.4566 180.887C70.724 180.155 70.3125 179.161 70.3125 178.125V154.688C70.3125 153.651 70.724 152.658 71.4566 151.925C72.1892 151.193 73.1827 150.781 74.2188 150.781H132.031C133.067 150.781 134.061 151.193 134.793 151.925C135.526 152.658 135.938 153.651 135.938 154.688V178.125C135.938 179.161 135.526 180.155 134.793 180.887C134.061 181.62 133.067 182.031 132.031 182.031V182.031ZM74.2188 151.562C73.3899 151.562 72.5951 151.892 72.009 152.478C71.423 153.064 71.0938 153.859 71.0938 154.688V178.125C71.0938 178.954 71.423 179.749 72.009 180.335C72.5951 180.921 73.3899 181.25 74.2188 181.25H132.031C132.86 181.25 133.655 180.921 134.241 180.335C134.827 179.749 135.156 178.954 135.156 178.125V154.688C135.156 153.859 134.827 153.064 134.241 152.478C133.655 151.892 132.86 151.562 132.031 151.562H74.2188Z" fill="#E1E1E1"/>
<path d="M407.031 151.172H349.219C347.277 151.172 345.703 152.746 345.703 154.688V178.125C345.703 180.067 347.277 181.641 349.219 181.641H407.031C408.973 181.641 410.547 180.067 410.547 178.125V154.688C410.547 152.746 408.973 151.172 407.031 151.172Z" fill="#FAFAFA"/>
<path d="M407.031 182.031H349.219C348.183 182.031 347.189 181.62 346.457 180.887C345.724 180.155 345.312 179.161 345.312 178.125V154.688C345.312 153.651 345.724 152.658 346.457 151.925C347.189 151.193 348.183 150.781 349.219 150.781H407.031C408.067 150.781 409.061 151.193 409.793 151.925C410.526 152.658 410.938 153.651 410.938 154.688V178.125C410.938 179.161 410.526 180.155 409.793 180.887C409.061 181.62 408.067 182.031 407.031 182.031V182.031ZM349.219 151.562C348.39 151.562 347.595 151.892 347.009 152.478C346.423 153.064 346.094 153.859 346.094 154.688V178.125C346.094 178.954 346.423 179.749 347.009 180.335C347.595 180.921 348.39 181.25 349.219 181.25H407.031C407.86 181.25 408.655 180.921 409.241 180.335C409.827 179.749 410.156 178.954 410.156 178.125V154.688C410.156 153.859 409.827 153.064 409.241 152.478C408.655 151.892 407.86 151.562 407.031 151.562H349.219Z" fill="#E1E1E1"/>
<path d="M494.531 151.172H417.969C416.027 151.172 414.453 152.746 414.453 154.688V178.125C414.453 180.067 416.027 181.641 417.969 181.641H494.531C496.473 181.641 498.047 180.067 498.047 178.125V154.688C498.047 152.746 496.473 151.172 494.531 151.172Z" fill="#FAFAFA"/>
<path d="M494.531 182.031H417.969C416.933 182.031 415.939 181.62 415.207 180.887C414.474 180.155 414.062 179.161 414.062 178.125V154.688C414.062 153.651 414.474 152.658 415.207 151.925C415.939 151.193 416.933 150.781 417.969 150.781H494.531C495.567 150.781 496.561 151.193 497.293 151.925C498.026 152.658 498.438 153.651 498.438 154.688V178.125C498.438 179.161 498.026 180.155 497.293 180.887C496.561 181.62 495.567 182.031 494.531 182.031V182.031ZM417.969 151.562C417.14 151.562 416.345 151.892 415.759 152.478C415.173 153.064 414.844 153.859 414.844 154.688V178.125C414.844 178.954 415.173 179.749 415.759 180.335C416.345 180.921 417.14 181.25 417.969 181.25H494.531C495.36 181.25 496.155 180.921 496.741 180.335C497.327 179.749 497.656 178.954 497.656 178.125V154.688C497.656 153.859 497.327 153.064 496.741 152.478C496.155 151.892 495.36 151.562 494.531 151.562H417.969Z" fill="#E1E1E1"/>
<path d="M338.281 151.172H142.969C141.027 151.172 139.453 152.746 139.453 154.688V178.125C139.453 180.067 141.027 181.641 142.969 181.641H338.281C340.223 181.641 341.797 180.067 341.797 178.125V154.688C341.797 152.746 340.223 151.172 338.281 151.172Z" fill="#F9F9F9"/>
<path d="M338.281 182.031H142.969C141.933 182.031 140.939 181.62 140.207 180.887C139.474 180.155 139.063 179.161 139.062 178.125V154.688C139.062 153.651 139.474 152.658 140.207 151.925C140.939 151.193 141.933 150.781 142.969 150.781H338.281C339.317 150.781 340.311 151.193 341.043 151.925C341.776 152.658 342.188 153.651 342.188 154.688V178.125C342.188 179.161 341.776 180.155 341.043 180.887C340.311 181.62 339.317 182.031 338.281 182.031V182.031ZM142.969 151.562C142.14 151.562 141.345 151.892 140.759 152.478C140.173 153.064 139.844 153.859 139.844 154.688V178.125C139.844 178.954 140.173 179.749 140.759 180.335C141.345 180.921 142.14 181.25 142.969 181.25H338.281C339.11 181.25 339.905 180.921 340.491 180.335C341.077 179.749 341.406 178.954 341.406 178.125V154.688C341.406 153.859 341.077 153.064 340.491 152.478C339.905 151.892 339.11 151.562 338.281 151.562H142.969Z" fill="#E1E1E1"/>
<path d="M28.9062 13.6719H5.46875C3.52712 13.6719 1.95312 15.2459 1.95312 17.1875V40.625C1.95312 42.5666 3.52712 44.1406 5.46875 44.1406H28.9062C30.8479 44.1406 32.4219 42.5666 32.4219 40.625V17.1875C32.4219 15.2459 30.8479 13.6719 28.9062 13.6719Z" fill="#F9F9F9"/>
<path d="M28.9062 44.5312H5.46875C4.43275 44.5312 3.43918 44.1197 2.70661 43.3871C1.97405 42.6546 1.5625 41.661 1.5625 40.625L1.5625 17.1875C1.5625 16.1515 1.97405 15.1579 2.70661 14.4254C3.43918 13.6928 4.43275 13.2813 5.46875 13.2812H28.9062C29.9423 13.2812 30.9358 13.6928 31.6684 14.4254C32.4009 15.1579 32.8125 16.1515 32.8125 17.1875V40.625C32.8125 41.661 32.4009 42.6546 31.6684 43.3871C30.9358 44.1197 29.9423 44.5312 28.9062 44.5312ZM5.46875 14.0625C4.63995 14.0625 3.84509 14.3917 3.25904 14.9778C2.67299 15.5638 2.34375 16.3587 2.34375 17.1875V40.625C2.34375 41.4538 2.67299 42.2487 3.25904 42.8347C3.84509 43.4208 4.63995 43.75 5.46875 43.75H28.9062C29.7351 43.75 30.5299 43.4208 31.116 42.8347C31.702 42.2487 32.0312 41.4538 32.0312 40.625V17.1875C32.0312 16.3587 31.702 15.5638 31.116 14.9778C30.5299 14.3917 29.7351 14.0625 28.9062 14.0625H5.46875Z" fill="#E1E1E1"/>
<path d="M494.531 48.0469H471.094C469.152 48.0469 467.578 49.6209 467.578 51.5625V75C467.578 76.9416 469.152 78.5156 471.094 78.5156H494.531C496.473 78.5156 498.047 76.9416 498.047 75V51.5625C498.047 49.6209 496.473 48.0469 494.531 48.0469Z" fill="#F9F9F9"/>
<path d="M494.531 78.9062H471.094C470.058 78.9062 469.064 78.4947 468.332 77.7621C467.599 77.0296 467.188 76.036 467.188 75V51.5625C467.188 50.5265 467.599 49.5329 468.332 48.8004C469.064 48.0678 470.058 47.6563 471.094 47.6562H494.531C495.567 47.6562 496.561 48.0678 497.293 48.8004C498.026 49.5329 498.438 50.5265 498.438 51.5625V75C498.438 76.036 498.026 77.0296 497.293 77.7621C496.561 78.4947 495.567 78.9062 494.531 78.9062ZM471.094 48.4375C470.265 48.4375 469.47 48.7667 468.884 49.3528C468.298 49.9388 467.969 50.7337 467.969 51.5625V75C467.969 75.8288 468.298 76.6237 468.884 77.2097C469.47 77.7958 470.265 78.125 471.094 78.125H494.531C495.36 78.125 496.155 77.7958 496.741 77.2097C497.327 76.6237 497.656 75.8288 497.656 75V51.5625C497.656 50.7337 497.327 49.9388 496.741 49.3528C496.155 48.7667 495.36 48.4375 494.531 48.4375H471.094Z" fill="#E1E1E1"/>
<path d="M166.406 13.6719H142.969C141.027 13.6719 139.453 15.2459 139.453 17.1875V40.625C139.453 42.5666 141.027 44.1406 142.969 44.1406H166.406C168.348 44.1406 169.922 42.5666 169.922 40.625V17.1875C169.922 15.2459 168.348 13.6719 166.406 13.6719Z" fill="#F9F9F9"/>
<path d="M166.406 44.5312H142.969C141.933 44.5312 140.939 44.1197 140.207 43.3871C139.474 42.6546 139.063 41.661 139.062 40.625V17.1875C139.062 16.1515 139.474 15.1579 140.207 14.4254C140.939 13.6928 141.933 13.2813 142.969 13.2812H166.406C167.442 13.2812 168.436 13.6928 169.168 14.4254C169.901 15.1579 170.312 16.1515 170.312 17.1875V40.625C170.312 41.661 169.901 42.6546 169.168 43.3871C168.436 44.1197 167.442 44.5312 166.406 44.5312ZM142.969 14.0625C142.14 14.0625 141.345 14.3917 140.759 14.9778C140.173 15.5638 139.844 16.3587 139.844 17.1875V40.625C139.844 41.4538 140.173 42.2487 140.759 42.8347C141.345 43.4208 142.14 43.75 142.969 43.75H166.406C167.235 43.75 168.03 43.4208 168.616 42.8347C169.202 42.2487 169.531 41.4538 169.531 40.625V17.1875C169.531 16.3587 169.202 15.5638 168.616 14.9778C168.03 14.3917 167.235 14.0625 166.406 14.0625H142.969Z" fill="#E1E1E1"/>
<path d="M185.156 48.0469H161.719C159.777 48.0469 158.203 49.6209 158.203 51.5625V75C158.203 76.9416 159.777 78.5156 161.719 78.5156H185.156C187.098 78.5156 188.672 76.9416 188.672 75V51.5625C188.672 49.6209 187.098 48.0469 185.156 48.0469Z" fill="#F9F9F9"/>
<path d="M185.156 78.9062H161.719C160.683 78.9062 159.689 78.4947 158.957 77.7621C158.224 77.0296 157.813 76.036 157.812 75V51.5625C157.812 50.5265 158.224 49.5329 158.957 48.8004C159.689 48.0678 160.683 47.6563 161.719 47.6562H185.156C186.192 47.6562 187.186 48.0678 187.918 48.8004C188.651 49.5329 189.062 50.5265 189.062 51.5625V75C189.062 76.036 188.651 77.0296 187.918 77.7621C187.186 78.4947 186.192 78.9062 185.156 78.9062ZM161.719 48.4375C160.89 48.4375 160.095 48.7667 159.509 49.3528C158.923 49.9388 158.594 50.7337 158.594 51.5625V75C158.594 75.8288 158.923 76.6237 159.509 77.2097C160.095 77.7958 160.89 78.125 161.719 78.125H185.156C185.985 78.125 186.78 77.7958 187.366 77.2097C187.952 76.6237 188.281 75.8288 188.281 75V51.5625C188.281 50.7337 187.952 49.9388 187.366 49.3528C186.78 48.7667 185.985 48.4375 185.156 48.4375H161.719Z" fill="#E1E1E1"/>
<path d="M200.781 82.4219H177.344C175.402 82.4219 173.828 83.9959 173.828 85.9375V109.375C173.828 111.317 175.402 112.891 177.344 112.891H200.781C202.723 112.891 204.297 111.317 204.297 109.375V85.9375C204.297 83.9959 202.723 82.4219 200.781 82.4219Z" fill="#F9F9F9"/>
<path d="M200.781 113.281H177.344C176.308 113.281 175.314 112.87 174.582 112.137C173.849 111.405 173.438 110.411 173.438 109.375V85.9375C173.438 84.9015 173.849 83.9079 174.582 83.1754C175.314 82.4428 176.308 82.0312 177.344 82.0312H200.781C201.817 82.0312 202.811 82.4428 203.543 83.1754C204.276 83.9079 204.688 84.9015 204.688 85.9375V109.375C204.688 110.411 204.276 111.405 203.543 112.137C202.811 112.87 201.817 113.281 200.781 113.281ZM177.344 82.8125C176.515 82.8125 175.72 83.1417 175.134 83.7278C174.548 84.3138 174.219 85.1087 174.219 85.9375V109.375C174.219 110.204 174.548 110.999 175.134 111.585C175.72 112.171 176.515 112.5 177.344 112.5H200.781C201.61 112.5 202.405 112.171 202.991 111.585C203.577 110.999 203.906 110.204 203.906 109.375V85.9375C203.906 85.1087 203.577 84.3138 202.991 83.7278C202.405 83.1417 201.61 82.8125 200.781 82.8125H177.344Z" fill="#E1E1E1"/>
<path d="M185.156 116.797H161.719C159.777 116.797 158.203 118.371 158.203 120.312V143.75C158.203 145.692 159.777 147.266 161.719 147.266H185.156C187.098 147.266 188.672 145.692 188.672 143.75V120.312C188.672 118.371 187.098 116.797 185.156 116.797Z" fill="#F9F9F9"/>
<path d="M185.156 147.656H161.719C160.683 147.656 159.689 147.245 158.957 146.512C158.224 145.78 157.813 144.786 157.812 143.75V120.312C157.812 119.276 158.224 118.283 158.957 117.55C159.689 116.818 160.683 116.406 161.719 116.406H185.156C186.192 116.406 187.186 116.818 187.918 117.55C188.651 118.283 189.062 119.276 189.062 120.312V143.75C189.062 144.786 188.651 145.78 187.918 146.512C187.186 147.245 186.192 147.656 185.156 147.656V147.656ZM161.719 117.188C160.89 117.188 160.095 117.517 159.509 118.103C158.923 118.689 158.594 119.484 158.594 120.312V143.75C158.594 144.579 158.923 145.374 159.509 145.96C160.095 146.546 160.89 146.875 161.719 146.875H185.156C185.985 146.875 186.78 146.546 187.366 145.96C187.952 145.374 188.281 144.579 188.281 143.75V120.312C188.281 119.484 187.952 118.689 187.366 118.103C186.78 117.517 185.985 117.188 185.156 117.188H161.719Z" fill="#E1E1E1"/>
<path d="M200.781 13.6719H177.344C175.402 13.6719 173.828 15.2459 173.828 17.1875V40.625C173.828 42.5666 175.402 44.1406 177.344 44.1406H200.781C202.723 44.1406 204.297 42.5666 204.297 40.625V17.1875C204.297 15.2459 202.723 13.6719 200.781 13.6719Z" fill="#F9F9F9"/>
<path d="M200.781 44.5312H177.344C176.308 44.5312 175.314 44.1197 174.582 43.3871C173.849 42.6546 173.438 41.661 173.438 40.625V17.1875C173.438 16.1515 173.849 15.1579 174.582 14.4254C175.314 13.6928 176.308 13.2813 177.344 13.2812H200.781C201.817 13.2812 202.811 13.6928 203.543 14.4254C204.276 15.1579 204.688 16.1515 204.688 17.1875V40.625C204.688 41.661 204.276 42.6546 203.543 43.3871C202.811 44.1197 201.817 44.5312 200.781 44.5312ZM177.344 14.0625C176.515 14.0625 175.72 14.3917 175.134 14.9778C174.548 15.5638 174.219 16.3587 174.219 17.1875V40.625C174.219 41.4538 174.548 42.2487 175.134 42.8347C175.72 43.4208 176.515 43.75 177.344 43.75H200.781C201.61 43.75 202.405 43.4208 202.991 42.8347C203.577 42.2487 203.906 41.4538 203.906 40.625V17.1875C203.906 16.3587 203.577 15.5638 202.991 14.9778C202.405 14.3917 201.61 14.0625 200.781 14.0625H177.344Z" fill="#E1E1E1"/>
<path d="M219.531 48.0469H196.094C194.152 48.0469 192.578 49.6209 192.578 51.5625V75C192.578 76.9416 194.152 78.5156 196.094 78.5156H219.531C221.473 78.5156 223.047 76.9416 223.047 75V51.5625C223.047 49.6209 221.473 48.0469 219.531 48.0469Z" fill="#F9F9F9"/>
<path d="M219.531 78.9062H196.094C195.058 78.9062 194.064 78.4947 193.332 77.7621C192.599 77.0296 192.188 76.036 192.188 75V51.5625C192.188 50.5265 192.599 49.5329 193.332 48.8004C194.064 48.0678 195.058 47.6563 196.094 47.6562H219.531C220.567 47.6562 221.561 48.0678 222.293 48.8004C223.026 49.5329 223.438 50.5265 223.438 51.5625V75C223.438 76.036 223.026 77.0296 222.293 77.7621C221.561 78.4947 220.567 78.9062 219.531 78.9062ZM196.094 48.4375C195.265 48.4375 194.47 48.7667 193.884 49.3528C193.298 49.9388 192.969 50.7337 192.969 51.5625V75C192.969 75.8288 193.298 76.6237 193.884 77.2097C194.47 77.7958 195.265 78.125 196.094 78.125H219.531C220.36 78.125 221.155 77.7958 221.741 77.2097C222.327 76.6237 222.656 75.8288 222.656 75V51.5625C222.656 50.7337 222.327 49.9388 221.741 49.3528C221.155 48.7667 220.36 48.4375 219.531 48.4375H196.094Z" fill="#E1E1E1"/>
<path d="M235.156 82.4219H211.719C209.777 82.4219 208.203 83.9959 208.203 85.9375V109.375C208.203 111.317 209.777 112.891 211.719 112.891H235.156C237.098 112.891 238.672 111.317 238.672 109.375V85.9375C238.672 83.9959 237.098 82.4219 235.156 82.4219Z" fill="#F9F9F9"/>
<path d="M235.156 113.281H211.719C210.683 113.281 209.689 112.87 208.957 112.137C208.224 111.405 207.812 110.411 207.812 109.375V85.9375C207.812 84.9015 208.224 83.9079 208.957 83.1754C209.689 82.4428 210.683 82.0312 211.719 82.0312H235.156C236.192 82.0312 237.186 82.4428 237.918 83.1754C238.651 83.9079 239.062 84.9015 239.062 85.9375V109.375C239.062 110.411 238.651 111.405 237.918 112.137C237.186 112.87 236.192 113.281 235.156 113.281ZM211.719 82.8125C210.89 82.8125 210.095 83.1417 209.509 83.7278C208.923 84.3138 208.594 85.1087 208.594 85.9375V109.375C208.594 110.204 208.923 110.999 209.509 111.585C210.095 112.171 210.89 112.5 211.719 112.5H235.156C235.985 112.5 236.78 112.171 237.366 111.585C237.952 110.999 238.281 110.204 238.281 109.375V85.9375C238.281 85.1087 237.952 84.3138 237.366 83.7278C236.78 83.1417 235.985 82.8125 235.156 82.8125H211.719Z" fill="#E1E1E1"/>
<path d="M219.531 116.797H196.094C194.152 116.797 192.578 118.371 192.578 120.312V143.75C192.578 145.692 194.152 147.266 196.094 147.266H219.531C221.473 147.266 223.047 145.692 223.047 143.75V120.312C223.047 118.371 221.473 116.797 219.531 116.797Z" fill="#F9F9F9"/>
<path d="M219.531 147.656H196.094C195.058 147.656 194.064 147.245 193.332 146.512C192.599 145.78 192.188 144.786 192.188 143.75V120.312C192.188 119.276 192.599 118.283 193.332 117.55C194.064 116.818 195.058 116.406 196.094 116.406H219.531C220.567 116.406 221.561 116.818 222.293 117.55C223.026 118.283 223.438 119.276 223.438 120.312V143.75C223.438 144.786 223.026 145.78 222.293 146.512C221.561 147.245 220.567 147.656 219.531 147.656V147.656ZM196.094 117.188C195.265 117.188 194.47 117.517 193.884 118.103C193.298 118.689 192.969 119.484 192.969 120.312V143.75C192.969 144.579 193.298 145.374 193.884 145.96C194.47 146.546 195.265 146.875 196.094 146.875H219.531C220.36 146.875 221.155 146.546 221.741 145.96C222.327 145.374 222.656 144.579 222.656 143.75V120.312C222.656 119.484 222.327 118.689 221.741 118.103C221.155 117.517 220.36 117.188 219.531 117.188H196.094Z" fill="#E1E1E1"/>
<path d="M235.156 13.6719H211.719C209.777 13.6719 208.203 15.2459 208.203 17.1875V40.625C208.203 42.5666 209.777 44.1406 211.719 44.1406H235.156C237.098 44.1406 238.672 42.5666 238.672 40.625V17.1875C238.672 15.2459 237.098 13.6719 235.156 13.6719Z" fill="#F9F9F9"/>
<path d="M235.156 44.5312H211.719C210.683 44.5312 209.689 44.1197 208.957 43.3871C208.224 42.6546 207.812 41.661 207.812 40.625V17.1875C207.812 16.1515 208.224 15.1579 208.957 14.4254C209.689 13.6928 210.683 13.2813 211.719 13.2812H235.156C236.192 13.2812 237.186 13.6928 237.918 14.4254C238.651 15.1579 239.062 16.1515 239.062 17.1875V40.625C239.062 41.661 238.651 42.6546 237.918 43.3871C237.186 44.1197 236.192 44.5312 235.156 44.5312ZM211.719 14.0625C210.89 14.0625 210.095 14.3917 209.509 14.9778C208.923 15.5638 208.594 16.3587 208.594 17.1875V40.625C208.594 41.4538 208.923 42.2487 209.509 42.8347C210.095 43.4208 210.89 43.75 211.719 43.75H235.156C235.985 43.75 236.78 43.4208 237.366 42.8347C237.952 42.2487 238.281 41.4538 238.281 40.625V17.1875C238.281 16.3587 237.952 15.5638 237.366 14.9778C236.78 14.3917 235.985 14.0625 235.156 14.0625H211.719Z" fill="#E1E1E1"/>
<path d="M253.906 48.0469H230.469C228.527 48.0469 226.953 49.6209 226.953 51.5625V75C226.953 76.9416 228.527 78.5156 230.469 78.5156H253.906C255.848 78.5156 257.422 76.9416 257.422 75V51.5625C257.422 49.6209 255.848 48.0469 253.906 48.0469Z" fill="#F9F9F9"/>
<path d="M253.906 78.9062H230.469C229.433 78.9062 228.439 78.4947 227.707 77.7621C226.974 77.0296 226.562 76.036 226.562 75V51.5625C226.562 50.5265 226.974 49.5329 227.707 48.8004C228.439 48.0678 229.433 47.6563 230.469 47.6562H253.906C254.942 47.6562 255.936 48.0678 256.668 48.8004C257.401 49.5329 257.812 50.5265 257.812 51.5625V75C257.813 76.036 257.401 77.0296 256.668 77.7621C255.936 78.4947 254.942 78.9062 253.906 78.9062V78.9062ZM230.469 48.4375C229.64 48.4375 228.845 48.7667 228.259 49.3528C227.673 49.9388 227.344 50.7337 227.344 51.5625V75C227.344 75.8288 227.673 76.6237 228.259 77.2097C228.845 77.7958 229.64 78.125 230.469 78.125H253.906C254.735 78.125 255.53 77.7958 256.116 77.2097C256.702 76.6237 257.031 75.8288 257.031 75V51.5625C257.031 50.7337 256.702 49.9388 256.116 49.3528C255.53 48.7667 254.735 48.4375 253.906 48.4375H230.469Z" fill="#E1E1E1"/>
<path d="M269.531 82.4219H246.094C244.152 82.4219 242.578 83.9959 242.578 85.9375V109.375C242.578 111.317 244.152 112.891 246.094 112.891H269.531C271.473 112.891 273.047 111.317 273.047 109.375V85.9375C273.047 83.9959 271.473 82.4219 269.531 82.4219Z" fill="#F9F9F9"/>
<path d="M269.531 113.281H246.094C245.058 113.281 244.064 112.87 243.332 112.137C242.599 111.405 242.188 110.411 242.188 109.375V85.9375C242.188 84.9015 242.599 83.9079 243.332 83.1754C244.064 82.4428 245.058 82.0312 246.094 82.0312H269.531C270.567 82.0312 271.561 82.4428 272.293 83.1754C273.026 83.9079 273.438 84.9015 273.438 85.9375V109.375C273.438 110.411 273.026 111.405 272.293 112.137C271.561 112.87 270.567 113.281 269.531 113.281V113.281ZM246.094 82.8125C245.265 82.8125 244.47 83.1417 243.884 83.7278C243.298 84.3138 242.969 85.1087 242.969 85.9375V109.375C242.969 110.204 243.298 110.999 243.884 111.585C244.47 112.171 245.265 112.5 246.094 112.5H269.531C270.36 112.5 271.155 112.171 271.741 111.585C272.327 110.999 272.656 110.204 272.656 109.375V85.9375C272.656 85.1087 272.327 84.3138 271.741 83.7278C271.155 83.1417 270.36 82.8125 269.531 82.8125H246.094Z" fill="#E1E1E1"/>
<path d="M253.906 116.797H230.469C228.527 116.797 226.953 118.371 226.953 120.312V143.75C226.953 145.692 228.527 147.266 230.469 147.266H253.906C255.848 147.266 257.422 145.692 257.422 143.75V120.312C257.422 118.371 255.848 116.797 253.906 116.797Z" fill="#F9F9F9"/>
<path d="M253.906 147.656H230.469C229.433 147.656 228.439 147.245 227.707 146.512C226.974 145.78 226.562 144.786 226.562 143.75V120.312C226.562 119.276 226.974 118.283 227.707 117.55C228.439 116.818 229.433 116.406 230.469 116.406H253.906C254.942 116.406 255.936 116.818 256.668 117.55C257.401 118.283 257.812 119.276 257.812 120.312V143.75C257.813 144.786 257.401 145.78 256.668 146.512C255.936 147.245 254.942 147.656 253.906 147.656V147.656ZM230.469 117.188C229.64 117.188 228.845 117.517 228.259 118.103C227.673 118.689 227.344 119.484 227.344 120.312V143.75C227.344 144.579 227.673 145.374 228.259 145.96C228.845 146.546 229.64 146.875 230.469 146.875H253.906C254.735 146.875 255.53 146.546 256.116 145.96C256.702 145.374 257.031 144.579 257.031 143.75V120.312C257.031 119.484 256.702 118.689 256.116 118.103C255.53 117.517 254.735 117.188 253.906 117.188H230.469Z" fill="#E1E1E1"/>
<path d="M269.531 13.6719H246.094C244.152 13.6719 242.578 15.2459 242.578 17.1875V40.625C242.578 42.5666 244.152 44.1406 246.094 44.1406H269.531C271.473 44.1406 273.047 42.5666 273.047 40.625V17.1875C273.047 15.2459 271.473 13.6719 269.531 13.6719Z" fill="#F9F9F9"/>
<path d="M269.531 44.5312H246.094C245.058 44.5312 244.064 44.1197 243.332 43.3871C242.599 42.6546 242.188 41.661 242.188 40.625V17.1875C242.188 16.1515 242.599 15.1579 243.332 14.4254C244.064 13.6928 245.058 13.2813 246.094 13.2812H269.531C270.567 13.2812 271.561 13.6928 272.293 14.4254C273.026 15.1579 273.438 16.1515 273.438 17.1875V40.625C273.438 41.661 273.026 42.6546 272.293 43.3871C271.561 44.1197 270.567 44.5312 269.531 44.5312V44.5312ZM246.094 14.0625C245.265 14.0625 244.47 14.3917 243.884 14.9778C243.298 15.5638 242.969 16.3587 242.969 17.1875V40.625C242.969 41.4538 243.298 42.2487 243.884 42.8347C244.47 43.4208 245.265 43.75 246.094 43.75H269.531C270.36 43.75 271.155 43.4208 271.741 42.8347C272.327 42.2487 272.656 41.4538 272.656 40.625V17.1875C272.656 16.3587 272.327 15.5638 271.741 14.9778C271.155 14.3917 270.36 14.0625 269.531 14.0625H246.094Z" fill="#E1E1E1"/>
<path d="M288.281 48.0469H264.844C262.902 48.0469 261.328 49.6209 261.328 51.5625V75C261.328 76.9416 262.902 78.5156 264.844 78.5156H288.281C290.223 78.5156 291.797 76.9416 291.797 75V51.5625C291.797 49.6209 290.223 48.0469 288.281 48.0469Z" fill="#F9F9F9"/>
<path d="M288.281 78.9062H264.844C263.808 78.9062 262.814 78.4947 262.082 77.7621C261.349 77.0296 260.938 76.036 260.938 75V51.5625C260.938 50.5265 261.349 49.5329 262.082 48.8004C262.814 48.0678 263.808 47.6563 264.844 47.6562H288.281C289.317 47.6562 290.311 48.0678 291.043 48.8004C291.776 49.5329 292.188 50.5265 292.188 51.5625V75C292.188 76.036 291.776 77.0296 291.043 77.7621C290.311 78.4947 289.317 78.9062 288.281 78.9062ZM264.844 48.4375C264.015 48.4375 263.22 48.7667 262.634 49.3528C262.048 49.9388 261.719 50.7337 261.719 51.5625V75C261.719 75.8288 262.048 76.6237 262.634 77.2097C263.22 77.7958 264.015 78.125 264.844 78.125H288.281C289.11 78.125 289.905 77.7958 290.491 77.2097C291.077 76.6237 291.406 75.8288 291.406 75V51.5625C291.406 50.7337 291.077 49.9388 290.491 49.3528C289.905 48.7667 289.11 48.4375 288.281 48.4375H264.844Z" fill="#E1E1E1"/>
<path d="M303.906 82.4219H280.469C278.527 82.4219 276.953 83.9959 276.953 85.9375V109.375C276.953 111.317 278.527 112.891 280.469 112.891H303.906C305.848 112.891 307.422 111.317 307.422 109.375V85.9375C307.422 83.9959 305.848 82.4219 303.906 82.4219Z" fill="#F9F9F9"/>
<path d="M303.906 113.281H280.469C279.433 113.281 278.439 112.87 277.707 112.137C276.974 111.405 276.562 110.411 276.562 109.375V85.9375C276.562 84.9015 276.974 83.9079 277.707 83.1754C278.439 82.4428 279.433 82.0312 280.469 82.0312H303.906C304.942 82.0312 305.936 82.4428 306.668 83.1754C307.401 83.9079 307.812 84.9015 307.812 85.9375V109.375C307.812 110.411 307.401 111.405 306.668 112.137C305.936 112.87 304.942 113.281 303.906 113.281ZM280.469 82.8125C279.64 82.8125 278.845 83.1417 278.259 83.7278C277.673 84.3138 277.344 85.1087 277.344 85.9375V109.375C277.344 110.204 277.673 110.999 278.259 111.585C278.845 112.171 279.64 112.5 280.469 112.5H303.906C304.735 112.5 305.53 112.171 306.116 111.585C306.702 110.999 307.031 110.204 307.031 109.375V85.9375C307.031 85.1087 306.702 84.3138 306.116 83.7278C305.53 83.1417 304.735 82.8125 303.906 82.8125H280.469Z" fill="#E1E1E1"/>
<path d="M288.281 116.797H264.844C262.902 116.797 261.328 118.371 261.328 120.312V143.75C261.328 145.692 262.902 147.266 264.844 147.266H288.281C290.223 147.266 291.797 145.692 291.797 143.75V120.312C291.797 118.371 290.223 116.797 288.281 116.797Z" fill="#F9F9F9"/>
<path d="M288.281 147.656H264.844C263.808 147.656 262.814 147.245 262.082 146.512C261.349 145.78 260.938 144.786 260.938 143.75V120.312C260.938 119.276 261.349 118.283 262.082 117.55C262.814 116.818 263.808 116.406 264.844 116.406H288.281C289.317 116.406 290.311 116.818 291.043 117.55C291.776 118.283 292.188 119.276 292.188 120.312V143.75C292.188 144.786 291.776 145.78 291.043 146.512C290.311 147.245 289.317 147.656 288.281 147.656V147.656ZM264.844 117.188C264.015 117.188 263.22 117.517 262.634 118.103C262.048 118.689 261.719 119.484 261.719 120.312V143.75C261.719 144.579 262.048 145.374 262.634 145.96C263.22 146.546 264.015 146.875 264.844 146.875H288.281C289.11 146.875 289.905 146.546 290.491 145.96C291.077 145.374 291.406 144.579 291.406 143.75V120.312C291.406 119.484 291.077 118.689 290.491 118.103C289.905 117.517 289.11 117.188 288.281 117.188H264.844Z" fill="#E1E1E1"/>
<path d="M303.906 13.6719H280.469C278.527 13.6719 276.953 15.2459 276.953 17.1875V40.625C276.953 42.5666 278.527 44.1406 280.469 44.1406H303.906C305.848 44.1406 307.422 42.5666 307.422 40.625V17.1875C307.422 15.2459 305.848 13.6719 303.906 13.6719Z" fill="#F9F9F9"/>
<path d="M303.906 44.5312H280.469C279.433 44.5312 278.439 44.1197 277.707 43.3871C276.974 42.6546 276.562 41.661 276.562 40.625V17.1875C276.562 16.1515 276.974 15.1579 277.707 14.4254C278.439 13.6928 279.433 13.2813 280.469 13.2812H303.906C304.942 13.2812 305.936 13.6928 306.668 14.4254C307.401 15.1579 307.812 16.1515 307.812 17.1875V40.625C307.812 41.661 307.401 42.6546 306.668 43.3871C305.936 44.1197 304.942 44.5312 303.906 44.5312ZM280.469 14.0625C279.64 14.0625 278.845 14.3917 278.259 14.9778C277.673 15.5638 277.344 16.3587 277.344 17.1875V40.625C277.344 41.4538 277.673 42.2487 278.259 42.8347C278.845 43.4208 279.64 43.75 280.469 43.75H303.906C304.735 43.75 305.53 43.4208 306.116 42.8347C306.702 42.2487 307.031 41.4538 307.031 40.625V17.1875C307.031 16.3587 306.702 15.5638 306.116 14.9778C305.53 14.3917 304.735 14.0625 303.906 14.0625H280.469Z" fill="#E1E1E1"/>
<path d="M322.656 48.0469H299.219C297.277 48.0469 295.703 49.6209 295.703 51.5625V75C295.703 76.9416 297.277 78.5156 299.219 78.5156H322.656C324.598 78.5156 326.172 76.9416 326.172 75V51.5625C326.172 49.6209 324.598 48.0469 322.656 48.0469Z" fill="#F9F9F9"/>
<path d="M322.656 78.9062H299.219C298.183 78.9062 297.189 78.4947 296.457 77.7621C295.724 77.0296 295.312 76.036 295.312 75V51.5625C295.312 50.5265 295.724 49.5329 296.457 48.8004C297.189 48.0678 298.183 47.6563 299.219 47.6562H322.656C323.692 47.6562 324.686 48.0678 325.418 48.8004C326.151 49.5329 326.562 50.5265 326.562 51.5625V75C326.562 76.036 326.151 77.0296 325.418 77.7621C324.686 78.4947 323.692 78.9062 322.656 78.9062ZM299.219 48.4375C298.39 48.4375 297.595 48.7667 297.009 49.3528C296.423 49.9388 296.094 50.7337 296.094 51.5625V75C296.094 75.8288 296.423 76.6237 297.009 77.2097C297.595 77.7958 298.39 78.125 299.219 78.125H322.656C323.485 78.125 324.28 77.7958 324.866 77.2097C325.452 76.6237 325.781 75.8288 325.781 75V51.5625C325.781 50.7337 325.452 49.9388 324.866 49.3528C324.28 48.7667 323.485 48.4375 322.656 48.4375H299.219Z" fill="#E1E1E1"/>
<path d="M338.281 82.4219H314.844C312.902 82.4219 311.328 83.9959 311.328 85.9375V109.375C311.328 111.317 312.902 112.891 314.844 112.891H338.281C340.223 112.891 341.797 111.317 341.797 109.375V85.9375C341.797 83.9959 340.223 82.4219 338.281 82.4219Z" fill="#F9F9F9"/>
<path d="M338.281 113.281H314.844C313.808 113.281 312.814 112.87 312.082 112.137C311.349 111.405 310.938 110.411 310.938 109.375V85.9375C310.938 84.9015 311.349 83.9079 312.082 83.1754C312.814 82.4428 313.808 82.0312 314.844 82.0312H338.281C339.317 82.0312 340.311 82.4428 341.043 83.1754C341.776 83.9079 342.188 84.9015 342.188 85.9375V109.375C342.188 110.411 341.776 111.405 341.043 112.137C340.311 112.87 339.317 113.281 338.281 113.281ZM314.844 82.8125C314.015 82.8125 313.22 83.1417 312.634 83.7278C312.048 84.3138 311.719 85.1087 311.719 85.9375V109.375C311.719 110.204 312.048 110.999 312.634 111.585C313.22 112.171 314.015 112.5 314.844 112.5H338.281C339.11 112.5 339.905 112.171 340.491 111.585C341.077 110.999 341.406 110.204 341.406 109.375V85.9375C341.406 85.1087 341.077 84.3138 340.491 83.7278C339.905 83.1417 339.11 82.8125 338.281 82.8125H314.844Z" fill="#E1E1E1"/>
<path d="M322.656 116.797H299.219C297.277 116.797 295.703 118.371 295.703 120.312V143.75C295.703 145.692 297.277 147.266 299.219 147.266H322.656C324.598 147.266 326.172 145.692 326.172 143.75V120.312C326.172 118.371 324.598 116.797 322.656 116.797Z" fill="#F9F9F9"/>
<path d="M322.656 147.656H299.219C298.183 147.656 297.189 147.245 296.457 146.512C295.724 145.78 295.312 144.786 295.312 143.75V120.312C295.312 119.276 295.724 118.283 296.457 117.55C297.189 116.818 298.183 116.406 299.219 116.406H322.656C323.692 116.406 324.686 116.818 325.418 117.55C326.151 118.283 326.562 119.276 326.562 120.312V143.75C326.562 144.786 326.151 145.78 325.418 146.512C324.686 147.245 323.692 147.656 322.656 147.656V147.656ZM299.219 117.188C298.39 117.188 297.595 117.517 297.009 118.103C296.423 118.689 296.094 119.484 296.094 120.312V143.75C296.094 144.579 296.423 145.374 297.009 145.96C297.595 146.546 298.39 146.875 299.219 146.875H322.656C323.485 146.875 324.28 146.546 324.866 145.96C325.452 145.374 325.781 144.579 325.781 143.75V120.312C325.781 119.484 325.452 118.689 324.866 118.103C324.28 117.517 323.485 117.188 322.656 117.188H299.219Z" fill="#E1E1E1"/>
<path d="M338.281 13.6719H314.844C312.902 13.6719 311.328 15.2459 311.328 17.1875V40.625C311.328 42.5666 312.902 44.1406 314.844 44.1406H338.281C340.223 44.1406 341.797 42.5666 341.797 40.625V17.1875C341.797 15.2459 340.223 13.6719 338.281 13.6719Z" fill="#F9F9F9"/>
<path d="M338.281 44.5312H314.844C313.808 44.5312 312.814 44.1197 312.082 43.3871C311.349 42.6546 310.938 41.661 310.938 40.625V17.1875C310.938 16.1515 311.349 15.1579 312.082 14.4254C312.814 13.6928 313.808 13.2813 314.844 13.2812H338.281C339.317 13.2812 340.311 13.6928 341.043 14.4254C341.776 15.1579 342.188 16.1515 342.188 17.1875V40.625C342.188 41.661 341.776 42.6546 341.043 43.3871C340.311 44.1197 339.317 44.5312 338.281 44.5312ZM314.844 14.0625C314.015 14.0625 313.22 14.3917 312.634 14.9778C312.048 15.5638 311.719 16.3587 311.719 17.1875V40.625C311.719 41.4538 312.048 42.2487 312.634 42.8347C313.22 43.4208 314.015 43.75 314.844 43.75H338.281C339.11 43.75 339.905 43.4208 340.491 42.8347C341.077 42.2487 341.406 41.4538 341.406 40.625V17.1875C341.406 16.3587 341.077 15.5638 340.491 14.9778C339.905 14.3917 339.11 14.0625 338.281 14.0625H314.844Z" fill="#E1E1E1"/>
<path d="M357.031 48.0469H333.594C331.652 48.0469 330.078 49.6209 330.078 51.5625V75C330.078 76.9416 331.652 78.5156 333.594 78.5156H357.031C358.973 78.5156 360.547 76.9416 360.547 75V51.5625C360.547 49.6209 358.973 48.0469 357.031 48.0469Z" fill="#F9F9F9"/>
<path d="M357.031 78.9062H333.594C332.558 78.9062 331.564 78.4947 330.832 77.7621C330.099 77.0296 329.688 76.036 329.688 75V51.5625C329.688 50.5265 330.099 49.5329 330.832 48.8004C331.564 48.0678 332.558 47.6563 333.594 47.6562H357.031C358.067 47.6562 359.061 48.0678 359.793 48.8004C360.526 49.5329 360.938 50.5265 360.938 51.5625V75C360.938 76.036 360.526 77.0296 359.793 77.7621C359.061 78.4947 358.067 78.9062 357.031 78.9062ZM333.594 48.4375C332.765 48.4375 331.97 48.7667 331.384 49.3528C330.798 49.9388 330.469 50.7337 330.469 51.5625V75C330.469 75.8288 330.798 76.6237 331.384 77.2097C331.97 77.7958 332.765 78.125 333.594 78.125H357.031C357.86 78.125 358.655 77.7958 359.241 77.2097C359.827 76.6237 360.156 75.8288 360.156 75V51.5625C360.156 50.7337 359.827 49.9388 359.241 49.3528C358.655 48.7667 357.86 48.4375 357.031 48.4375H333.594Z" fill="#E1E1E1"/>
<path d="M372.656 82.4219H349.219C347.277 82.4219 345.703 83.9959 345.703 85.9375V109.375C345.703 111.317 347.277 112.891 349.219 112.891H372.656C374.598 112.891 376.172 111.317 376.172 109.375V85.9375C376.172 83.9959 374.598 82.4219 372.656 82.4219Z" fill="#F9F9F9"/>
<path d="M372.656 113.281H349.219C348.183 113.281 347.189 112.87 346.457 112.137C345.724 111.405 345.312 110.411 345.312 109.375V85.9375C345.312 84.9015 345.724 83.9079 346.457 83.1754C347.189 82.4428 348.183 82.0312 349.219 82.0312H372.656C373.692 82.0312 374.686 82.4428 375.418 83.1754C376.151 83.9079 376.562 84.9015 376.562 85.9375V109.375C376.562 110.411 376.151 111.405 375.418 112.137C374.686 112.87 373.692 113.281 372.656 113.281ZM349.219 82.8125C348.39 82.8125 347.595 83.1417 347.009 83.7278C346.423 84.3138 346.094 85.1087 346.094 85.9375V109.375C346.094 110.204 346.423 110.999 347.009 111.585C347.595 112.171 348.39 112.5 349.219 112.5H372.656C373.485 112.5 374.28 112.171 374.866 111.585C375.452 110.999 375.781 110.204 375.781 109.375V85.9375C375.781 85.1087 375.452 84.3138 374.866 83.7278C374.28 83.1417 373.485 82.8125 372.656 82.8125H349.219Z" fill="#E1E1E1"/>
<path d="M357.031 116.797H333.594C331.652 116.797 330.078 118.371 330.078 120.312V143.75C330.078 145.692 331.652 147.266 333.594 147.266H357.031C358.973 147.266 360.547 145.692 360.547 143.75V120.312C360.547 118.371 358.973 116.797 357.031 116.797Z" fill="#F9F9F9"/>
<path d="M357.031 147.656H333.594C332.558 147.656 331.564 147.245 330.832 146.512C330.099 145.78 329.688 144.786 329.688 143.75V120.312C329.688 119.276 330.099 118.283 330.832 117.55C331.564 116.818 332.558 116.406 333.594 116.406H357.031C358.067 116.406 359.061 116.818 359.793 117.55C360.526 118.283 360.938 119.276 360.938 120.312V143.75C360.938 144.786 360.526 145.78 359.793 146.512C359.061 147.245 358.067 147.656 357.031 147.656V147.656ZM333.594 117.188C332.765 117.188 331.97 117.517 331.384 118.103C330.798 118.689 330.469 119.484 330.469 120.312V143.75C330.469 144.579 330.798 145.374 331.384 145.96C331.97 146.546 332.765 146.875 333.594 146.875H357.031C357.86 146.875 358.655 146.546 359.241 145.96C359.827 145.374 360.156 144.579 360.156 143.75V120.312C360.156 119.484 359.827 118.689 359.241 118.103C358.655 117.517 357.86 117.188 357.031 117.188H333.594Z" fill="#E1E1E1"/>
<path d="M372.656 13.6719H349.219C347.277 13.6719 345.703 15.2459 345.703 17.1875V40.625C345.703 42.5666 347.277 44.1406 349.219 44.1406H372.656C374.598 44.1406 376.172 42.5666 376.172 40.625V17.1875C376.172 15.2459 374.598 13.6719 372.656 13.6719Z" fill="#F9F9F9"/>
<path d="M372.656 44.5312H349.219C348.183 44.5312 347.189 44.1197 346.457 43.3871C345.724 42.6546 345.312 41.661 345.312 40.625V17.1875C345.312 16.1515 345.724 15.1579 346.457 14.4254C347.189 13.6928 348.183 13.2813 349.219 13.2812H372.656C373.692 13.2812 374.686 13.6928 375.418 14.4254C376.151 15.1579 376.562 16.1515 376.562 17.1875V40.625C376.562 41.661 376.151 42.6546 375.418 43.3871C374.686 44.1197 373.692 44.5312 372.656 44.5312ZM349.219 14.0625C348.39 14.0625 347.595 14.3917 347.009 14.9778C346.423 15.5638 346.094 16.3587 346.094 17.1875V40.625C346.094 41.4538 346.423 42.2487 347.009 42.8347C347.595 43.4208 348.39 43.75 349.219 43.75H372.656C373.485 43.75 374.28 43.4208 374.866 42.8347C375.452 42.2487 375.781 41.4538 375.781 40.625V17.1875C375.781 16.3587 375.452 15.5638 374.866 14.9778C374.28 14.3917 373.485 14.0625 372.656 14.0625H349.219Z" fill="#E1E1E1"/>
<path d="M391.406 48.0469H367.969C366.027 48.0469 364.453 49.6209 364.453 51.5625V75C364.453 76.9416 366.027 78.5156 367.969 78.5156H391.406C393.348 78.5156 394.922 76.9416 394.922 75V51.5625C394.922 49.6209 393.348 48.0469 391.406 48.0469Z" fill="#F9F9F9"/>
<path d="M391.406 78.9062H367.969C366.933 78.9062 365.939 78.4947 365.207 77.7621C364.474 77.0296 364.062 76.036 364.062 75V51.5625C364.063 50.5265 364.474 49.5329 365.207 48.8004C365.939 48.0678 366.933 47.6563 367.969 47.6562H391.406C392.442 47.6562 393.436 48.0678 394.168 48.8004C394.901 49.5329 395.312 50.5265 395.312 51.5625V75C395.313 76.036 394.901 77.0296 394.168 77.7621C393.436 78.4947 392.442 78.9062 391.406 78.9062V78.9062ZM367.969 48.4375C367.14 48.4375 366.345 48.7667 365.759 49.3528C365.173 49.9388 364.844 50.7337 364.844 51.5625V75C364.844 75.8288 365.173 76.6237 365.759 77.2097C366.345 77.7958 367.14 78.125 367.969 78.125H391.406C392.235 78.125 393.03 77.7958 393.616 77.2097C394.202 76.6237 394.531 75.8288 394.531 75V51.5625C394.531 50.7337 394.202 49.9388 393.616 49.3528C393.03 48.7667 392.235 48.4375 391.406 48.4375H367.969Z" fill="#E1E1E1"/>
<path d="M407.031 82.4219H383.594C381.652 82.4219 380.078 83.9959 380.078 85.9375V109.375C380.078 111.317 381.652 112.891 383.594 112.891H407.031C408.973 112.891 410.547 111.317 410.547 109.375V85.9375C410.547 83.9959 408.973 82.4219 407.031 82.4219Z" fill="#F9F9F9"/>
<path d="M407.031 113.281H383.594C382.558 113.281 381.564 112.87 380.832 112.137C380.099 111.405 379.688 110.411 379.688 109.375V85.9375C379.688 84.9015 380.099 83.9079 380.832 83.1754C381.564 82.4428 382.558 82.0312 383.594 82.0312H407.031C408.067 82.0312 409.061 82.4428 409.793 83.1754C410.526 83.9079 410.938 84.9015 410.938 85.9375V109.375C410.938 110.411 410.526 111.405 409.793 112.137C409.061 112.87 408.067 113.281 407.031 113.281ZM383.594 82.8125C382.765 82.8125 381.97 83.1417 381.384 83.7278C380.798 84.3138 380.469 85.1087 380.469 85.9375V109.375C380.469 110.204 380.798 110.999 381.384 111.585C381.97 112.171 382.765 112.5 383.594 112.5H407.031C407.86 112.5 408.655 112.171 409.241 111.585C409.827 110.999 410.156 110.204 410.156 109.375V85.9375C410.156 85.1087 409.827 84.3138 409.241 83.7278C408.655 83.1417 407.86 82.8125 407.031 82.8125H383.594Z" fill="#E1E1E1"/>
<path d="M391.406 116.797H367.969C366.027 116.797 364.453 118.371 364.453 120.312V143.75C364.453 145.692 366.027 147.266 367.969 147.266H391.406C393.348 147.266 394.922 145.692 394.922 143.75V120.312C394.922 118.371 393.348 116.797 391.406 116.797Z" fill="#F9F9F9"/>
<path d="M391.406 147.656H367.969C366.933 147.656 365.939 147.245 365.207 146.512C364.474 145.78 364.062 144.786 364.062 143.75V120.312C364.063 119.276 364.474 118.283 365.207 117.55C365.939 116.818 366.933 116.406 367.969 116.406H391.406C392.442 116.406 393.436 116.818 394.168 117.55C394.901 118.283 395.312 119.276 395.312 120.312V143.75C395.313 144.786 394.901 145.78 394.168 146.512C393.436 147.245 392.442 147.656 391.406 147.656V147.656ZM367.969 117.188C367.14 117.188 366.345 117.517 365.759 118.103C365.173 118.689 364.844 119.484 364.844 120.312V143.75C364.844 144.579 365.173 145.374 365.759 145.96C366.345 146.546 367.14 146.875 367.969 146.875H391.406C392.235 146.875 393.03 146.546 393.616 145.96C394.202 145.374 394.531 144.579 394.531 143.75V120.312C394.531 119.484 394.202 118.689 393.616 118.103C393.03 117.517 392.235 117.188 391.406 117.188H367.969Z" fill="#E1E1E1"/>
<path d="M407.031 13.6719H383.594C381.652 13.6719 380.078 15.2459 380.078 17.1875V40.625C380.078 42.5666 381.652 44.1406 383.594 44.1406H407.031C408.973 44.1406 410.547 42.5666 410.547 40.625V17.1875C410.547 15.2459 408.973 13.6719 407.031 13.6719Z" fill="#F9F9F9"/>
<path d="M407.031 44.5312H383.594C382.558 44.5312 381.564 44.1197 380.832 43.3871C380.099 42.6546 379.688 41.661 379.688 40.625V17.1875C379.688 16.1515 380.099 15.1579 380.832 14.4254C381.564 13.6928 382.558 13.2813 383.594 13.2812H407.031C408.067 13.2812 409.061 13.6928 409.793 14.4254C410.526 15.1579 410.938 16.1515 410.938 17.1875V40.625C410.938 41.661 410.526 42.6546 409.793 43.3871C409.061 44.1197 408.067 44.5312 407.031 44.5312ZM383.594 14.0625C382.765 14.0625 381.97 14.3917 381.384 14.9778C380.798 15.5638 380.469 16.3587 380.469 17.1875V40.625C380.469 41.4538 380.798 42.2487 381.384 42.8347C381.97 43.4208 382.765 43.75 383.594 43.75H407.031C407.86 43.75 408.655 43.4208 409.241 42.8347C409.827 42.2487 410.156 41.4538 410.156 40.625V17.1875C410.156 16.3587 409.827 15.5638 409.241 14.9778C408.655 14.3917 407.86 14.0625 407.031 14.0625H383.594Z" fill="#E1E1E1"/>
<path d="M425.781 48.0469H402.344C400.402 48.0469 398.828 49.6209 398.828 51.5625V75C398.828 76.9416 400.402 78.5156 402.344 78.5156H425.781C427.723 78.5156 429.297 76.9416 429.297 75V51.5625C429.297 49.6209 427.723 48.0469 425.781 48.0469Z" fill="#F9F9F9"/>
<path d="M425.781 78.9062H402.344C401.308 78.9062 400.314 78.4947 399.582 77.7621C398.849 77.0296 398.438 76.036 398.438 75V51.5625C398.438 50.5265 398.849 49.5329 399.582 48.8004C400.314 48.0678 401.308 47.6563 402.344 47.6562H425.781C426.817 47.6562 427.811 48.0678 428.543 48.8004C429.276 49.5329 429.688 50.5265 429.688 51.5625V75C429.688 76.036 429.276 77.0296 428.543 77.7621C427.811 78.4947 426.817 78.9062 425.781 78.9062ZM402.344 48.4375C401.515 48.4375 400.72 48.7667 400.134 49.3528C399.548 49.9388 399.219 50.7337 399.219 51.5625V75C399.219 75.8288 399.548 76.6237 400.134 77.2097C400.72 77.7958 401.515 78.125 402.344 78.125H425.781C426.61 78.125 427.405 77.7958 427.991 77.2097C428.577 76.6237 428.906 75.8288 428.906 75V51.5625C428.906 50.7337 428.577 49.9388 427.991 49.3528C427.405 48.7667 426.61 48.4375 425.781 48.4375H402.344Z" fill="#E1E1E1"/>
<path d="M441.406 82.4219H417.969C416.027 82.4219 414.453 83.9959 414.453 85.9375V109.375C414.453 111.317 416.027 112.891 417.969 112.891H441.406C443.348 112.891 444.922 111.317 444.922 109.375V85.9375C444.922 83.9959 443.348 82.4219 441.406 82.4219Z" fill="#F9F9F9"/>
<path d="M441.406 113.281H417.969C416.933 113.281 415.939 112.87 415.207 112.137C414.474 111.405 414.062 110.411 414.062 109.375V85.9375C414.062 84.9015 414.474 83.9079 415.207 83.1754C415.939 82.4428 416.933 82.0312 417.969 82.0312H441.406C442.442 82.0312 443.436 82.4428 444.168 83.1754C444.901 83.9079 445.312 84.9015 445.312 85.9375V109.375C445.312 110.411 444.901 111.405 444.168 112.137C443.436 112.87 442.442 113.281 441.406 113.281ZM417.969 82.8125C417.14 82.8125 416.345 83.1417 415.759 83.7278C415.173 84.3138 414.844 85.1087 414.844 85.9375V109.375C414.844 110.204 415.173 110.999 415.759 111.585C416.345 112.171 417.14 112.5 417.969 112.5H441.406C442.235 112.5 443.03 112.171 443.616 111.585C444.202 110.999 444.531 110.204 444.531 109.375V85.9375C444.531 85.1087 444.202 84.3138 443.616 83.7278C443.03 83.1417 442.235 82.8125 441.406 82.8125H417.969Z" fill="#E1E1E1"/>
<path d="M425.781 116.797H402.344C400.402 116.797 398.828 118.371 398.828 120.312V143.75C398.828 145.692 400.402 147.266 402.344 147.266H425.781C427.723 147.266 429.297 145.692 429.297 143.75V120.312C429.297 118.371 427.723 116.797 425.781 116.797Z" fill="#F9F9F9"/>
<path d="M425.781 147.656H402.344C401.308 147.656 400.314 147.245 399.582 146.512C398.849 145.78 398.438 144.786 398.438 143.75V120.312C398.438 119.276 398.849 118.283 399.582 117.55C400.314 116.818 401.308 116.406 402.344 116.406H425.781C426.817 116.406 427.811 116.818 428.543 117.55C429.276 118.283 429.688 119.276 429.688 120.312V143.75C429.688 144.786 429.276 145.78 428.543 146.512C427.811 147.245 426.817 147.656 425.781 147.656V147.656ZM402.344 117.188C401.515 117.188 400.72 117.517 400.134 118.103C399.548 118.689 399.219 119.484 399.219 120.312V143.75C399.219 144.579 399.548 145.374 400.134 145.96C400.72 146.546 401.515 146.875 402.344 146.875H425.781C426.61 146.875 427.405 146.546 427.991 145.96C428.577 145.374 428.906 144.579 428.906 143.75V120.312C428.906 119.484 428.577 118.689 427.991 118.103C427.405 117.517 426.61 117.188 425.781 117.188H402.344Z" fill="#E1E1E1"/>
<path d="M441.406 13.6719H417.969C416.027 13.6719 414.453 15.2459 414.453 17.1875V40.625C414.453 42.5666 416.027 44.1406 417.969 44.1406H441.406C443.348 44.1406 444.922 42.5666 444.922 40.625V17.1875C444.922 15.2459 443.348 13.6719 441.406 13.6719Z" fill="#F9F9F9"/>
<path d="M441.406 44.5312H417.969C416.933 44.5312 415.939 44.1197 415.207 43.3871C414.474 42.6546 414.062 41.661 414.062 40.625V17.1875C414.062 16.1515 414.474 15.1579 415.207 14.4254C415.939 13.6928 416.933 13.2813 417.969 13.2812H441.406C442.442 13.2812 443.436 13.6928 444.168 14.4254C444.901 15.1579 445.312 16.1515 445.312 17.1875V40.625C445.312 41.661 444.901 42.6546 444.168 43.3871C443.436 44.1197 442.442 44.5312 441.406 44.5312ZM417.969 14.0625C417.14 14.0625 416.345 14.3917 415.759 14.9778C415.173 15.5638 414.844 16.3587 414.844 17.1875V40.625C414.844 41.4538 415.173 42.2487 415.759 42.8347C416.345 43.4208 417.14 43.75 417.969 43.75H441.406C442.235 43.75 443.03 43.4208 443.616 42.8347C444.202 42.2487 444.531 41.4538 444.531 40.625V17.1875C444.531 16.3587 444.202 15.5638 443.616 14.9778C443.03 14.3917 442.235 14.0625 441.406 14.0625H417.969Z" fill="#E1E1E1"/>
<path d="M460.156 48.0469H436.719C434.777 48.0469 433.203 49.6209 433.203 51.5625V75C433.203 76.9416 434.777 78.5156 436.719 78.5156H460.156C462.098 78.5156 463.672 76.9416 463.672 75V51.5625C463.672 49.6209 462.098 48.0469 460.156 48.0469Z" fill="#F9F9F9"/>
<path d="M460.156 78.9062H436.719C435.683 78.9062 434.689 78.4947 433.957 77.7621C433.224 77.0296 432.812 76.036 432.812 75V51.5625C432.812 50.5265 433.224 49.5329 433.957 48.8004C434.689 48.0678 435.683 47.6563 436.719 47.6562H460.156C461.192 47.6562 462.186 48.0678 462.918 48.8004C463.651 49.5329 464.062 50.5265 464.062 51.5625V75C464.062 76.036 463.651 77.0296 462.918 77.7621C462.186 78.4947 461.192 78.9062 460.156 78.9062ZM436.719 48.4375C435.89 48.4375 435.095 48.7667 434.509 49.3528C433.923 49.9388 433.594 50.7337 433.594 51.5625V75C433.594 75.8288 433.923 76.6237 434.509 77.2097C435.095 77.7958 435.89 78.125 436.719 78.125H460.156C460.985 78.125 461.78 77.7958 462.366 77.2097C462.952 76.6237 463.281 75.8288 463.281 75V51.5625C463.281 50.7337 462.952 49.9388 462.366 49.3528C461.78 48.7667 460.985 48.4375 460.156 48.4375H436.719Z" fill="#E1E1E1"/>
<path d="M494.531 13.6719H452.344C450.402 13.6719 448.828 15.2459 448.828 17.1875V40.625C448.828 42.5666 450.402 44.1406 452.344 44.1406H494.531C496.473 44.1406 498.047 42.5666 498.047 40.625V17.1875C498.047 15.2459 496.473 13.6719 494.531 13.6719Z" fill="#FAFAFA"/>
<path d="M494.531 44.5312H452.344C451.308 44.5312 450.314 44.1197 449.582 43.3871C448.849 42.6546 448.438 41.661 448.438 40.625V17.1875C448.438 16.1515 448.849 15.1579 449.582 14.4254C450.314 13.6928 451.308 13.2813 452.344 13.2812H494.531C495.567 13.2812 496.561 13.6928 497.293 14.4254C498.026 15.1579 498.438 16.1515 498.438 17.1875V40.625C498.438 41.661 498.026 42.6546 497.293 43.3871C496.561 44.1197 495.567 44.5312 494.531 44.5312ZM452.344 14.0625C451.515 14.0625 450.72 14.3917 450.134 14.9778C449.548 15.5638 449.219 16.3587 449.219 17.1875V40.625C449.219 41.4538 449.548 42.2487 450.134 42.8347C450.72 43.4208 451.515 43.75 452.344 43.75H494.531C495.36 43.75 496.155 43.4208 496.741 42.8347C497.327 42.2487 497.656 41.4538 497.656 40.625V17.1875C497.656 16.3587 497.327 15.5638 496.741 14.9778C496.155 14.3917 495.36 14.0625 494.531 14.0625H452.344Z" fill="#E1E1E1"/>
<path d="M97.6562 13.6719H74.2188C72.2771 13.6719 70.7031 15.2459 70.7031 17.1875V40.625C70.7031 42.5666 72.2771 44.1406 74.2188 44.1406H97.6562C99.5979 44.1406 101.172 42.5666 101.172 40.625V17.1875C101.172 15.2459 99.5979 13.6719 97.6562 13.6719Z" fill="#F9F9F9"/>
<path d="M97.6562 44.5312H74.2188C73.1827 44.5312 72.1892 44.1197 71.4566 43.3871C70.724 42.6546 70.3125 41.661 70.3125 40.625V17.1875C70.3125 16.1515 70.724 15.1579 71.4566 14.4254C72.1892 13.6928 73.1827 13.2813 74.2188 13.2812H97.6562C98.6923 13.2812 99.6858 13.6928 100.418 14.4254C101.151 15.1579 101.562 16.1515 101.562 17.1875V40.625C101.562 41.661 101.151 42.6546 100.418 43.3871C99.6858 44.1197 98.6923 44.5312 97.6562 44.5312ZM74.2188 14.0625C73.3899 14.0625 72.5951 14.3917 72.009 14.9778C71.423 15.5638 71.0938 16.3587 71.0938 17.1875V40.625C71.0938 41.4538 71.423 42.2487 72.009 42.8347C72.5951 43.4208 73.3899 43.75 74.2188 43.75H97.6562C98.4851 43.75 99.2799 43.4208 99.866 42.8347C100.452 42.2487 100.781 41.4538 100.781 40.625V17.1875C100.781 16.3587 100.452 15.5638 99.866 14.9778C99.2799 14.3917 98.4851 14.0625 97.6562 14.0625H74.2188Z" fill="#E1E1E1"/>
<path d="M116.406 48.0469H92.9688C91.0271 48.0469 89.4531 49.6209 89.4531 51.5625V75C89.4531 76.9416 91.0271 78.5156 92.9688 78.5156H116.406C118.348 78.5156 119.922 76.9416 119.922 75V51.5625C119.922 49.6209 118.348 48.0469 116.406 48.0469Z" fill="#F9F9F9"/>
<path d="M116.406 78.9062H92.9688C91.9327 78.9062 90.9392 78.4947 90.2066 77.7621C89.474 77.0296 89.0625 76.036 89.0625 75V51.5625C89.0625 50.5265 89.474 49.5329 90.2066 48.8004C90.9392 48.0678 91.9327 47.6563 92.9688 47.6562H116.406C117.442 47.6562 118.436 48.0678 119.168 48.8004C119.901 49.5329 120.312 50.5265 120.312 51.5625V75C120.312 76.036 119.901 77.0296 119.168 77.7621C118.436 78.4947 117.442 78.9062 116.406 78.9062ZM92.9688 48.4375C92.1399 48.4375 91.3451 48.7667 90.759 49.3528C90.173 49.9388 89.8438 50.7337 89.8438 51.5625V75C89.8438 75.8288 90.173 76.6237 90.759 77.2097C91.3451 77.7958 92.1399 78.125 92.9688 78.125H116.406C117.235 78.125 118.03 77.7958 118.616 77.2097C119.202 76.6237 119.531 75.8288 119.531 75V51.5625C119.531 50.7337 119.202 49.9388 118.616 49.3528C118.03 48.7667 117.235 48.4375 116.406 48.4375H92.9688Z" fill="#E1E1E1"/>
<path d="M132.031 82.4219H108.594C106.652 82.4219 105.078 83.9959 105.078 85.9375V109.375C105.078 111.317 106.652 112.891 108.594 112.891H132.031C133.973 112.891 135.547 111.317 135.547 109.375V85.9375C135.547 83.9959 133.973 82.4219 132.031 82.4219Z" fill="#F9F9F9"/>
<path d="M132.031 113.281H108.594C107.558 113.281 106.564 112.87 105.832 112.137C105.099 111.405 104.688 110.411 104.688 109.375V85.9375C104.688 84.9015 105.099 83.9079 105.832 83.1754C106.564 82.4428 107.558 82.0312 108.594 82.0312H132.031C133.067 82.0312 134.061 82.4428 134.793 83.1754C135.526 83.9079 135.938 84.9015 135.938 85.9375V109.375C135.938 110.411 135.526 111.405 134.793 112.137C134.061 112.87 133.067 113.281 132.031 113.281ZM108.594 82.8125C107.765 82.8125 106.97 83.1417 106.384 83.7278C105.798 84.3138 105.469 85.1087 105.469 85.9375V109.375C105.469 110.204 105.798 110.999 106.384 111.585C106.97 112.171 107.765 112.5 108.594 112.5H132.031C132.86 112.5 133.655 112.171 134.241 111.585C134.827 110.999 135.156 110.204 135.156 109.375V85.9375C135.156 85.1087 134.827 84.3138 134.241 83.7278C133.655 83.1417 132.86 82.8125 132.031 82.8125H108.594Z" fill="#E1E1E1"/>
<path d="M116.406 116.797H92.9688C91.0271 116.797 89.4531 118.371 89.4531 120.312V143.75C89.4531 145.692 91.0271 147.266 92.9688 147.266H116.406C118.348 147.266 119.922 145.692 119.922 143.75V120.312C119.922 118.371 118.348 116.797 116.406 116.797Z" fill="#F9F9F9"/>
<path d="M116.406 147.656H92.9688C91.9327 147.656 90.9392 147.245 90.2066 146.512C89.474 145.78 89.0625 144.786 89.0625 143.75V120.312C89.0625 119.276 89.474 118.283 90.2066 117.55C90.9392 116.818 91.9327 116.406 92.9688 116.406H116.406C117.442 116.406 118.436 116.818 119.168 117.55C119.901 118.283 120.312 119.276 120.312 120.312V143.75C120.312 144.786 119.901 145.78 119.168 146.512C118.436 147.245 117.442 147.656 116.406 147.656V147.656ZM92.9688 117.188C92.1399 117.188 91.3451 117.517 90.759 118.103C90.173 118.689 89.8438 119.484 89.8438 120.312V143.75C89.8438 144.579 90.173 145.374 90.759 145.96C91.3451 146.546 92.1399 146.875 92.9688 146.875H116.406C117.235 146.875 118.03 146.546 118.616 145.96C119.202 145.374 119.531 144.579 119.531 143.75V120.312C119.531 119.484 119.202 118.689 118.616 118.103C118.03 117.517 117.235 117.188 116.406 117.188H92.9688Z" fill="#E1E1E1"/>
<path d="M82.0312 116.797H5.46875C3.52712 116.797 1.95312 118.371 1.95312 120.312V143.75C1.95312 145.692 3.52712 147.266 5.46875 147.266H82.0312C83.9729 147.266 85.5469 145.692 85.5469 143.75V120.312C85.5469 118.371 83.9729 116.797 82.0312 116.797Z" fill="#FAFAFA"/>
<path d="M82.0312 147.656H5.46875C4.43275 147.656 3.43918 147.245 2.70661 146.512C1.97405 145.78 1.5625 144.786 1.5625 143.75L1.5625 120.312C1.5625 119.276 1.97405 118.283 2.70661 117.55C3.43918 116.818 4.43275 116.406 5.46875 116.406H82.0312C83.0673 116.406 84.0608 116.818 84.7934 117.55C85.526 118.283 85.9375 119.276 85.9375 120.312V143.75C85.9375 144.786 85.526 145.78 84.7934 146.512C84.0608 147.245 83.0673 147.656 82.0312 147.656V147.656ZM5.46875 117.188C4.63995 117.188 3.84509 117.517 3.25904 118.103C2.67299 118.689 2.34375 119.484 2.34375 120.312V143.75C2.34375 144.579 2.67299 145.374 3.25904 145.96C3.84509 146.546 4.63995 146.875 5.46875 146.875H82.0312C82.8601 146.875 83.6549 146.546 84.241 145.96C84.827 145.374 85.1562 144.579 85.1562 143.75V120.312C85.1562 119.484 84.827 118.689 84.241 118.103C83.6549 117.517 82.8601 117.188 82.0312 117.188H5.46875Z" fill="#E1E1E1"/>
<path d="M63.2812 151.172H5.46875C3.52712 151.172 1.95312 152.746 1.95312 154.688V178.125C1.95312 180.067 3.52712 181.641 5.46875 181.641H63.2812C65.2229 181.641 66.7969 180.067 66.7969 178.125V154.688C66.7969 152.746 65.2229 151.172 63.2812 151.172Z" fill="#FAFAFA"/>
<path d="M63.2812 182.031H5.46875C4.43275 182.031 3.43918 181.62 2.70661 180.887C1.97405 180.155 1.5625 179.161 1.5625 178.125L1.5625 154.688C1.5625 153.651 1.97405 152.658 2.70661 151.925C3.43918 151.193 4.43275 150.781 5.46875 150.781H63.2812C64.3173 150.781 65.3108 151.193 66.0434 151.925C66.776 152.658 67.1875 153.651 67.1875 154.688V178.125C67.1875 179.161 66.776 180.155 66.0434 180.887C65.3108 181.62 64.3173 182.031 63.2812 182.031V182.031ZM5.46875 151.562C4.63995 151.562 3.84509 151.892 3.25904 152.478C2.67299 153.064 2.34375 153.859 2.34375 154.688V178.125C2.34375 178.954 2.67299 179.749 3.25904 180.335C3.84509 180.921 4.63995 181.25 5.46875 181.25H63.2812C64.1101 181.25 64.9049 180.921 65.491 180.335C66.077 179.749 66.4062 178.954 66.4062 178.125V154.688C66.4062 153.859 66.077 153.064 65.491 152.478C64.9049 151.892 64.1101 151.562 63.2812 151.562H5.46875Z" fill="#E1E1E1"/>
<path d="M494.531 82.4219H452.344C450.402 82.4219 448.828 83.9959 448.828 85.9375V109.375C448.828 111.317 450.402 112.891 452.344 112.891H494.531C496.473 112.891 498.047 111.317 498.047 109.375V85.9375C498.047 83.9959 496.473 82.4219 494.531 82.4219Z" fill="#FAFAFA"/>
<path d="M494.531 113.281H452.344C451.308 113.281 450.314 112.87 449.582 112.137C448.849 111.405 448.438 110.411 448.438 109.375V85.9375C448.438 84.9015 448.849 83.9079 449.582 83.1754C450.314 82.4428 451.308 82.0312 452.344 82.0312H494.531C495.567 82.0312 496.561 82.4428 497.293 83.1754C498.026 83.9079 498.438 84.9015 498.438 85.9375V109.375C498.438 110.411 498.026 111.405 497.293 112.137C496.561 112.87 495.567 113.281 494.531 113.281ZM452.344 82.8125C451.515 82.8125 450.72 83.1417 450.134 83.7278C449.548 84.3138 449.219 85.1087 449.219 85.9375V109.375C449.219 110.204 449.548 110.999 450.134 111.585C450.72 112.171 451.515 112.5 452.344 112.5H494.531C495.36 112.5 496.155 112.171 496.741 111.585C497.327 110.999 497.656 110.204 497.656 109.375V85.9375C497.656 85.1087 497.327 84.3138 496.741 83.7278C496.155 83.1417 495.36 82.8125 494.531 82.8125H452.344Z" fill="#E1E1E1"/>
<path d="M494.531 116.797H436.719C434.777 116.797 433.203 118.371 433.203 120.312V143.75C433.203 145.692 434.777 147.266 436.719 147.266H494.531C496.473 147.266 498.047 145.692 498.047 143.75V120.312C498.047 118.371 496.473 116.797 494.531 116.797Z" fill="#FAFAFA"/>
<path d="M494.531 147.656H436.719C435.683 147.656 434.689 147.245 433.957 146.512C433.224 145.78 432.812 144.786 432.812 143.75V120.312C432.812 119.276 433.224 118.283 433.957 117.55C434.689 116.818 435.683 116.406 436.719 116.406H494.531C495.567 116.406 496.561 116.818 497.293 117.55C498.026 118.283 498.438 119.276 498.438 120.312V143.75C498.438 144.786 498.026 145.78 497.293 146.512C496.561 147.245 495.567 147.656 494.531 147.656V147.656ZM436.719 117.188C435.89 117.188 435.095 117.517 434.509 118.103C433.923 118.689 433.594 119.484 433.594 120.312V143.75C433.594 144.579 433.923 145.374 434.509 145.96C435.095 146.546 435.89 146.875 436.719 146.875H494.531C495.36 146.875 496.155 146.546 496.741 145.96C497.327 145.374 497.656 144.579 497.656 143.75V120.312C497.656 119.484 497.327 118.689 496.741 118.103C496.155 117.517 495.36 117.188 494.531 117.188H436.719Z" fill="#E1E1E1"/>
</g>
<g clip-path="url(#clip1_340_1765)">
<path d="M185.91 124.37C190.872 124.804 195.85 123.757 200.216 121.361C204.583 118.964 208.14 115.327 210.44 110.908C212.74 106.49 213.678 101.488 213.136 96.5364C212.594 91.5845 210.596 86.9047 207.395 83.0888C204.194 79.2728 199.933 76.4921 195.152 75.0983C190.371 73.7044 185.284 73.76 180.534 75.2581C175.785 76.7562 171.586 79.6294 168.469 83.5145C165.351 87.3995 163.456 92.1219 163.022 97.0844C162.439 103.739 164.524 110.352 168.816 115.469C173.109 120.586 179.258 123.788 185.91 124.37V124.37ZM189.859 79.242C193.801 79.5798 197.555 81.08 200.645 83.5526C203.735 86.0252 206.022 89.3592 207.217 93.1326C208.412 96.906 208.461 100.949 207.358 104.751C206.255 108.552 204.049 111.941 201.02 114.488C197.991 117.035 194.274 118.626 190.341 119.06C186.408 119.493 182.434 118.75 178.923 116.924C175.413 115.098 172.522 112.271 170.618 108.801C168.714 105.332 167.882 101.375 168.227 97.4314C168.447 94.8087 169.181 92.255 170.388 89.9161C171.594 87.5772 173.25 85.4989 175.259 83.7999C177.269 82.1009 179.593 80.8144 182.1 80.0139C184.606 79.2134 187.246 78.9146 189.868 79.1345L189.859 79.242Z" fill="#848ED9"/>
<path d="M126.313 363.137C126.313 363.137 142.227 330.65 148.263 324.388C154.299 318.125 163.27 308.039 167.369 303.702C172.973 297.835 192.06 266.637 193.037 263.725C198.681 247.65 206.083 232.248 215.109 217.799C220.726 210.561 232.619 206.689 231.349 201.81C230.078 196.932 213.669 190.512 201.747 200.485C189.826 210.458 176.14 236.458 176.14 236.458C176.357 228.562 177.046 220.686 178.204 212.872C179.84 203.661 188.492 161.726 190.127 152.947C191.761 144.169 197.879 108.911 198.072 103.402C198.265 97.8924 199.951 87.7099 190.695 85.7804C182.082 83.9433 178.78 92.7924 176.713 101.966C174.647 111.14 169.357 138.994 166.604 150.239C163.851 161.484 159.051 182.916 156.185 186.783C153.94 189.391 150.939 191.237 147.599 192.063C147.599 192.063 146.34 180.034 145.787 174.387C145.541 171.837 144.721 161.4 134.256 160.917C124.438 160.456 121.359 172.539 121.359 172.539C119.25 170.865 116.592 170.04 113.906 170.226C111.637 170.414 109.492 171.346 107.805 172.876C106.117 174.406 104.981 176.45 104.572 178.691C103.921 180.765 102.76 186.19 102.76 186.19C101.778 185.406 100.635 184.848 99.4129 184.554C98.1909 184.26 96.9193 184.237 95.6876 184.488C91.3821 185.411 89.2722 191.367 88.1174 194.661C84.1341 206.481 80.815 218.514 78.1756 230.704C76.971 239.52 79.4816 283.877 78.0288 290.576C76.5761 297.275 43.9065 355.783 43.9065 355.783L126.313 363.137Z" fill="#FFBD95"/>
<path d="M190.48 85.7616C188.925 85.3607 187.284 85.4538 185.785 86.0281C184.285 86.6024 183.001 87.6293 182.112 88.9663C180.134 94.139 179.4 99.7042 179.968 105.213C180.958 107.105 190.815 109.593 192.8 108.358C195.511 106.681 197.106 95.8766 197.05 92.8016C197.018 91.0235 196.329 89.3202 195.116 88.0202C193.903 86.7202 192.252 85.9156 190.48 85.7616Z" fill="#FFC8A7"/>
<path d="M196.375 205.758C190.037 213.675 184.284 222.044 179.163 230.799L176.033 236.448C177.274 241.706 178.147 247.045 178.643 252.425C178.287 257.572 177.357 262.664 175.871 267.605C180.154 262.056 182.522 255.267 182.619 248.258C182.435 242.727 182.545 237.191 182.95 231.672C184.13 223.143 196.375 205.758 196.375 205.758Z" fill="#F9A983"/>
<path d="M121.346 172.682C121.241 181.085 120.675 189.476 119.653 197.817C118.301 202.539 115.94 205.583 114.22 205.433C111.784 205.219 111.865 201.398 113.602 195.988C115.339 190.577 121.346 172.682 121.346 172.682Z" fill="#F9A983"/>
<path d="M102.748 186.333C102.219 192.489 101.226 198.596 99.7775 204.602C98.2092 208.908 97.1422 211.198 95.2085 211.426C93.2748 211.654 92.9223 209.493 93.9306 206.222C96.5029 199.436 99.4465 192.796 102.748 186.333V186.333Z" fill="#F9A983"/>
<path d="M156.988 185.444C156.234 188.393 154.755 191.107 152.687 193.339C151.321 194.828 149.528 195.857 147.554 196.285L147.514 192.2C149.187 191.596 150.817 190.882 152.396 190.063C154.359 189.024 155.96 187.413 156.988 185.444V185.444Z" fill="#F9A983"/>
<path d="M192.763 108.355C190.816 109.557 181.475 107.367 180.061 105.366C182.394 104.549 184.909 104.407 187.319 104.953C189.489 105.382 191.426 106.592 192.763 108.355Z" fill="#FFD3B9"/>
<path d="M129.208 327.56C138.012 318.145 151.031 310.905 162.099 300.785C173.167 290.665 186.863 267.844 188.899 262.315C194.225 247.644 201.39 233.707 210.221 220.838C217.731 212.177 208.839 208.979 219.578 213.35C217.876 214.651 216.338 216.153 214.998 217.825C205.972 232.274 198.569 247.676 192.926 263.751C191.949 266.664 172.862 297.862 167.258 303.728C163.266 308.074 154.224 318.155 148.152 324.414C142.08 330.673 126.202 363.163 126.202 363.163L110.399 361.781C114.785 350.859 122.991 334.24 129.208 327.56Z" fill="#F9A983"/>
<path d="M216.674 215.588C215.156 214.475 214.029 212.91 213.454 211.117C213.696 210.415 222.504 202.192 226.15 201.789C229.796 201.386 232.529 202.347 232.581 203.399C227.704 207.989 222.374 212.073 216.674 215.588V215.588Z" fill="#FFC8A7"/>
<g style="mix-blend-mode:soft-light">
<path d="M78.0552 230.838C80.6946 218.648 84.0137 206.614 87.997 194.795C89.1518 191.501 91.2616 185.545 95.5671 184.622C96.7988 184.371 98.0704 184.393 99.2924 184.688C100.514 184.982 101.657 185.54 102.64 186.324C102.64 186.324 103.801 180.899 104.451 178.825C104.861 176.584 105.997 174.54 107.684 173.01C109.372 171.479 111.516 170.548 113.786 170.359C116.472 170.174 119.13 170.999 121.239 172.673C121.656 171.221 122.226 169.818 122.941 168.488C140.089 200.299 144.881 237.327 136.396 272.459C127.91 307.59 106.746 338.347 76.9687 358.82L43.6786 355.907C43.6786 355.907 76.4947 297.377 77.8009 290.701C79.1072 284.025 76.8506 239.654 78.0552 230.838Z" fill="#F99C94"/>
</g>
</g>
<g clip-path="url(#clip2_340_1765)">
<path d="M295.275 124.37C290.314 124.804 285.336 123.757 280.969 121.361C276.603 118.964 273.045 115.327 270.745 110.908C268.446 106.49 267.508 101.488 268.05 96.5364C268.592 91.5845 270.59 86.9047 273.791 83.0888C276.992 79.2728 281.252 76.4921 286.033 75.0983C290.814 73.7044 295.902 73.76 300.651 75.2581C305.401 76.7562 309.6 79.6294 312.717 83.5145C315.834 87.3995 317.73 92.1219 318.164 97.0844C318.746 103.739 316.662 110.352 312.369 115.469C308.077 120.586 301.928 123.788 295.275 124.37V124.37ZM291.327 79.242C287.384 79.5798 283.63 81.08 280.54 83.5526C277.45 86.0252 275.163 89.3592 273.968 93.1326C272.773 96.906 272.724 100.949 273.828 104.751C274.931 108.552 277.136 111.941 280.166 114.488C283.195 117.035 286.911 118.626 290.844 119.06C294.778 119.493 298.751 118.75 302.262 116.924C305.773 115.098 308.663 112.271 310.567 108.801C312.471 105.332 313.304 101.375 312.959 97.4314C312.739 94.8087 312.004 92.255 310.798 89.9161C309.591 87.5772 307.936 85.4989 305.926 83.7999C303.917 82.1009 301.592 80.8144 299.086 80.0139C296.579 79.2134 293.94 78.9146 291.318 79.1345L291.327 79.242Z" fill="#848ED9"/>
<path d="M354.873 363.137C354.873 363.137 338.959 330.65 332.923 324.388C326.886 318.125 317.915 308.039 313.817 303.702C308.212 297.835 289.126 266.637 288.149 263.725C282.505 247.65 275.103 232.248 266.076 217.799C260.46 210.561 248.567 206.689 249.837 201.81C251.107 196.932 267.516 190.512 279.438 200.485C291.36 210.458 305.045 236.458 305.045 236.458C304.828 228.562 304.139 220.686 302.982 212.872C301.345 203.661 292.693 161.726 291.059 152.947C289.424 144.169 283.306 108.911 283.113 103.402C282.92 97.8924 281.235 87.7099 290.49 85.7804C299.104 83.9433 302.406 92.7924 304.472 101.966C306.539 111.14 311.828 138.994 314.581 150.239C317.334 161.484 322.134 182.916 325 186.783C327.245 189.391 330.246 191.237 333.587 192.063C333.587 192.063 334.845 180.034 335.398 174.387C335.645 171.837 336.465 161.4 346.93 160.917C356.747 160.456 359.827 172.539 359.827 172.539C361.935 170.865 364.593 170.04 367.279 170.226C369.549 170.414 371.694 171.346 373.381 172.876C375.068 174.406 376.204 176.45 376.614 178.691C377.265 180.765 378.425 186.19 378.425 186.19C379.408 185.406 380.551 184.848 381.773 184.554C382.995 184.26 384.266 184.237 385.498 184.488C389.803 185.411 391.913 191.367 393.068 194.661C397.051 206.481 400.371 218.514 403.01 230.704C404.215 239.52 401.704 283.877 403.157 290.576C404.609 297.275 437.279 355.783 437.279 355.783L354.873 363.137Z" fill="#FFBD95"/>
<path d="M290.705 85.7616C292.26 85.3607 293.901 85.4538 295.401 86.0281C296.9 86.6024 298.184 87.6293 299.074 88.9663C301.051 94.139 301.786 99.7042 301.217 105.213C300.228 107.105 290.371 109.593 288.385 108.358C285.675 106.681 284.08 95.8766 284.136 92.8016C284.167 91.0235 284.856 89.3202 286.069 88.0202C287.283 86.7202 288.934 85.9156 290.705 85.7616Z" fill="#FFC8A7"/>
<path d="M284.811 205.758C291.149 213.675 296.901 222.044 302.023 230.799L305.153 236.448C303.911 241.706 303.039 247.045 302.542 252.425C302.898 257.572 303.828 262.664 305.315 267.605C301.031 262.056 298.663 255.267 298.567 248.258C298.751 242.727 298.64 237.191 298.235 231.672C297.056 223.143 284.811 205.758 284.811 205.758Z" fill="#F9A983"/>
<path d="M359.839 172.682C359.945 181.085 360.51 189.476 361.533 197.817C362.885 202.539 365.245 205.583 366.965 205.433C369.402 205.219 369.32 201.398 367.583 195.988C365.846 190.577 359.839 172.682 359.839 172.682Z" fill="#F9A983"/>
<path d="M378.438 186.333C378.967 192.489 379.96 198.596 381.408 204.602C382.976 208.908 384.043 211.198 385.977 211.426C387.911 211.654 388.263 209.493 387.255 206.222C384.683 199.436 381.739 192.796 378.438 186.333V186.333Z" fill="#F9A983"/>
<path d="M324.197 185.444C324.952 188.393 326.43 191.107 328.499 193.339C329.865 194.828 331.657 195.857 333.631 196.285L333.671 192.2C331.999 191.596 330.368 190.882 328.79 190.063C326.827 189.024 325.226 187.413 324.197 185.444V185.444Z" fill="#F9A983"/>
<path d="M288.423 108.355C290.369 109.557 299.711 107.367 301.124 105.366C298.792 104.549 296.276 104.407 293.866 104.953C291.697 105.382 289.759 106.592 288.423 108.355Z" fill="#FFD3B9"/>
<path d="M351.977 327.56C343.174 318.145 330.155 310.905 319.087 300.785C308.019 290.665 294.323 267.844 292.287 262.315C286.96 247.644 279.796 233.707 270.965 220.838C263.455 212.177 272.346 208.979 261.607 213.35C263.31 214.651 264.848 216.153 266.187 217.825C275.214 232.274 282.616 247.676 288.26 263.751C289.237 266.664 308.323 297.862 313.928 303.728C317.919 308.074 326.962 318.155 333.034 324.414C339.106 330.673 354.984 363.163 354.984 363.163L370.787 361.781C366.401 350.859 358.195 334.24 351.977 327.56Z" fill="#F9A983"/>
<path d="M264.512 215.588C266.03 214.475 267.157 212.91 267.731 211.117C267.489 210.415 258.682 202.192 255.035 201.789C251.389 201.386 248.657 202.347 248.605 203.399C253.482 207.989 258.811 212.073 264.512 215.588V215.588Z" fill="#FFC8A7"/>
<g style="mix-blend-mode:soft-light">
<path d="M403.13 230.838C400.491 218.648 397.172 206.614 393.189 194.795C392.034 191.501 389.924 185.545 385.618 184.622C384.387 184.371 383.115 184.393 381.893 184.688C380.671 184.982 379.528 185.54 378.546 186.324C378.546 186.324 377.385 180.899 376.734 178.825C376.325 176.584 375.189 174.54 373.501 173.01C371.814 171.479 369.669 170.548 367.4 170.359C364.714 170.174 362.056 170.999 359.947 172.673C359.53 171.221 358.959 169.818 358.245 168.488C341.096 200.299 336.304 237.327 344.79 272.459C353.275 307.59 374.44 338.347 404.217 358.82L437.507 355.907C437.507 355.907 404.691 297.377 403.385 290.701C402.078 284.025 404.335 239.654 403.13 230.838Z" fill="#F99C94"/>
</g>
</g>
<defs>
<clipPath id="clip0_340_1765">
<rect width="496.875" height="168.75" fill="white" transform="translate(1.5625 13.2812)"/>
</clipPath>
<clipPath id="clip1_340_1765">
<rect width="175" height="293.75" fill="white" transform="matrix(-0.996195 -0.0871557 -0.0871557 0.996195 243.686 78.5336)"/>
</clipPath>
<clipPath id="clip2_340_1765">
<rect width="175" height="293.75" fill="white" transform="translate(237.5 78.5336) rotate(-5)"/>
</clipPath>
</defs>
</svg>
