<svg width="400" height="400" viewBox="0 0 400 400" fill="none" xmlns="http://www.w3.org/2000/svg">
<path d="M50 44C50 32.9543 58.9543 24 70 24H330C341.046 24 350 32.9543 350 44V356C350 367.046 341.046 376 330 376H70C58.9543 376 50 367.046 50 356V44Z" fill="#1E273A"/>
<path fill-rule="evenodd" clip-rule="evenodd" d="M72 22C59.8497 22 50 31.8497 50 44C50 32.9543 58.9543 24 70 24H330C341.046 24 350 32.9543 350 44C350 31.8497 340.15 22 328 22H72ZM350 356C350 367.046 341.046 376 330 376H70C58.9543 376 50 367.046 50 356C50 370.359 61.6406 382 76 382H324C338.359 382 350 370.359 350 356Z" fill="#4794BA"/>
<path d="M110 24H112V376H110V24Z" fill="#303D58"/>
<path d="M287 24H289V376H287V24Z" fill="#303D58"/>
<path d="M228 24H230V376H228V24Z" fill="#303D58"/>
<path d="M169 24H171V376H169V24Z" fill="#303D58"/>
<path d="M299 145C299 139.477 303.477 135 309 135H329C334.523 135 339 139.477 339 145V165C339 170.523 334.523 175 329 175H309C303.477 175 299 170.523 299 165V145Z" fill="#4794BA"/>
<path d="M314.384 163.192C313.888 163.192 313.504 163.056 313.232 162.784C312.976 162.496 312.848 162.104 312.848 161.608V147.64C312.848 147.128 312.984 146.744 313.256 146.488C313.528 146.216 313.912 146.08 314.408 146.08H320.192C322.048 146.08 323.48 146.544 324.488 147.472C325.496 148.4 326 149.696 326 151.36C326 153.024 325.496 154.328 324.488 155.272C323.48 156.2 322.048 156.664 320.192 156.664H315.92V161.608C315.92 162.104 315.792 162.496 315.536 162.784C315.28 163.056 314.896 163.192 314.384 163.192ZM315.92 154.24H319.712C320.8 154.24 321.624 154 322.184 153.52C322.744 153.024 323.024 152.304 323.024 151.36C323.024 150.416 322.744 149.704 322.184 149.224C321.624 148.744 320.8 148.504 319.712 148.504H315.92V154.24Z" fill="white"/>
<path d="M180 283C180 277.477 184.477 273 190 273H210C215.523 273 220 277.477 220 283V303C220 308.523 215.523 313 210 313H190C184.477 313 180 308.523 180 303V283Z" fill="#4794BA"/>
<path d="M196.48 301C195.952 301 195.544 300.864 195.256 300.592C194.984 300.304 194.848 299.896 194.848 299.368V285.712C194.848 285.184 194.984 284.784 195.256 284.512C195.544 284.224 195.952 284.08 196.48 284.08H205.048C205.448 284.08 205.752 284.184 205.96 284.392C206.184 284.6 206.296 284.896 206.296 285.28C206.296 285.68 206.184 285.992 205.96 286.216C205.752 286.424 205.448 286.528 205.048 286.528H197.8V291.184H204.52C204.936 291.184 205.248 291.288 205.456 291.496C205.664 291.704 205.768 292.008 205.768 292.408C205.768 292.808 205.664 293.112 205.456 293.32C205.248 293.528 204.936 293.632 204.52 293.632H197.8V298.552H205.048C205.448 298.552 205.752 298.656 205.96 298.864C206.184 299.072 206.296 299.376 206.296 299.776C206.296 300.176 206.184 300.48 205.96 300.688C205.752 300.896 205.448 301 205.048 301H196.48Z" fill="white"/>
<path d="M60 118C60 112.477 64.4772 108 70 108H90C95.5228 108 100 112.477 100 118V138C100 143.523 95.5228 148 90 148H70C64.4772 148 60 143.523 60 138V118Z" fill="#4794BA"/>
<path d="M76.4797 136C75.9517 136 75.5437 135.864 75.2557 135.592C74.9837 135.304 74.8477 134.896 74.8477 134.368V120.712C74.8477 120.184 74.9837 119.784 75.2557 119.512C75.5437 119.224 75.9517 119.08 76.4797 119.08H85.0477C85.4477 119.08 85.7517 119.184 85.9597 119.392C86.1837 119.6 86.2957 119.896 86.2957 120.28C86.2957 120.68 86.1837 120.992 85.9597 121.216C85.7517 121.424 85.4477 121.528 85.0477 121.528H77.7997V126.184H84.5197C84.9357 126.184 85.2477 126.288 85.4557 126.496C85.6637 126.704 85.7677 127.008 85.7677 127.408C85.7677 127.808 85.6637 128.112 85.4557 128.32C85.2477 128.528 84.9357 128.632 84.5197 128.632H77.7997V133.552H85.0477C85.4477 133.552 85.7517 133.656 85.9597 133.864C86.1837 134.072 86.2957 134.376 86.2957 134.776C86.2957 135.176 86.1837 135.48 85.9597 135.688C85.7517 135.896 85.4477 136 85.0477 136H76.4797Z" fill="white"/>
<path d="M239 203C239 197.477 243.477 193 249 193H269C274.523 193 279 197.477 279 203V223C279 228.523 274.523 233 269 233H249C243.477 233 239 228.523 239 223V203Z" fill="#4794BA"/>
<path d="M258.679 221.24C257.975 221.24 257.271 221.184 256.567 221.072C255.863 220.976 255.199 220.824 254.575 220.616C253.951 220.392 253.391 220.12 252.895 219.8C252.607 219.608 252.407 219.376 252.295 219.104C252.183 218.832 252.143 218.568 252.175 218.312C252.223 218.04 252.327 217.808 252.487 217.616C252.663 217.408 252.879 217.28 253.135 217.232C253.391 217.184 253.671 217.256 253.975 217.448C254.679 217.864 255.423 218.168 256.207 218.36C256.991 218.552 257.815 218.648 258.679 218.648C259.943 218.648 260.863 218.44 261.439 218.024C262.015 217.592 262.303 217.04 262.303 216.368C262.303 215.808 262.095 215.368 261.679 215.048C261.279 214.728 260.583 214.464 259.591 214.256L256.951 213.704C255.431 213.384 254.295 212.848 253.543 212.096C252.807 211.328 252.439 210.32 252.439 209.072C252.439 208.288 252.599 207.576 252.919 206.936C253.239 206.296 253.687 205.744 254.263 205.28C254.855 204.816 255.551 204.464 256.351 204.224C257.167 203.968 258.063 203.84 259.039 203.84C259.999 203.84 260.911 203.96 261.775 204.2C262.639 204.44 263.415 204.792 264.103 205.256C264.359 205.432 264.527 205.648 264.607 205.904C264.703 206.16 264.727 206.416 264.679 206.672C264.631 206.912 264.519 207.12 264.343 207.296C264.167 207.472 263.943 207.576 263.671 207.608C263.415 207.64 263.119 207.56 262.783 207.368C262.191 207.032 261.591 206.792 260.983 206.648C260.375 206.504 259.719 206.432 259.015 206.432C258.279 206.432 257.647 206.536 257.119 206.744C256.591 206.952 256.183 207.248 255.895 207.632C255.623 208 255.487 208.44 255.487 208.952C255.487 209.528 255.679 209.992 256.063 210.344C256.447 210.68 257.103 210.944 258.031 211.136L260.647 211.688C262.231 212.024 263.407 212.552 264.175 213.272C264.959 213.992 265.351 214.952 265.351 216.152C265.351 216.92 265.191 217.616 264.871 218.24C264.567 218.864 264.119 219.4 263.527 219.848C262.951 220.296 262.255 220.64 261.439 220.88C260.623 221.12 259.703 221.24 258.679 221.24Z" fill="white"/>
<path d="M120 198C120 192.477 124.477 188 130 188H150C155.523 188 160 192.477 160 198V218C160 223.523 155.523 228 150 228H130C124.477 228 120 223.523 120 218V198Z" fill="#4794BA"/>
<path d="M140.415 216.192C139.919 216.192 139.535 216.056 139.263 215.784C139.007 215.496 138.879 215.096 138.879 214.584V207.288L139.527 209.136L133.743 201C133.535 200.712 133.439 200.408 133.455 200.088C133.487 199.752 133.623 199.472 133.863 199.248C134.103 199.008 134.439 198.888 134.871 198.888C135.191 198.888 135.479 198.968 135.735 199.128C136.007 199.288 136.263 199.536 136.503 199.872L140.799 205.968H140.127L144.447 199.872C144.703 199.52 144.951 199.272 145.191 199.128C145.431 198.968 145.727 198.888 146.079 198.888C146.495 198.888 146.815 199 147.039 199.224C147.279 199.432 147.399 199.696 147.399 200.016C147.415 200.336 147.303 200.672 147.063 201.024L141.327 209.136L141.951 207.288V214.584C141.951 215.656 141.439 216.192 140.415 216.192Z" fill="white"/>
<path d="M299 72C299 66.4772 303.477 62 309 62H329C334.523 62 339 66.4772 339 72V92C339 97.5228 334.523 102 329 102H309C303.477 102 299 97.5228 299 92V72Z" fill="#4794BA"/>
<path d="M318.879 90.2397C317.711 90.2397 316.679 90.0877 315.783 89.7837C314.903 89.4797 314.159 89.0317 313.551 88.4397C312.943 87.8317 312.487 87.0797 312.183 86.1837C311.879 85.2877 311.727 84.2477 311.727 83.0637V74.4477C311.727 73.9197 311.855 73.5277 312.111 73.2717C312.383 73.0157 312.767 72.8877 313.263 72.8877C313.759 72.8877 314.135 73.0157 314.391 73.2717C314.663 73.5277 314.799 73.9197 314.799 74.4477V83.0397C314.799 84.5597 315.143 85.7037 315.831 86.4717C316.535 87.2237 317.551 87.5997 318.879 87.5997C320.207 87.5997 321.215 87.2237 321.903 86.4717C322.591 85.7037 322.935 84.5597 322.935 83.0397V74.4477C322.935 73.9197 323.063 73.5277 323.319 73.2717C323.591 73.0157 323.975 72.8877 324.471 72.8877C324.951 72.8877 325.319 73.0157 325.575 73.2717C325.847 73.5277 325.983 73.9197 325.983 74.4477V83.0637C325.983 84.6317 325.711 85.9517 325.167 87.0237C324.639 88.0957 323.847 88.9037 322.791 89.4477C321.735 89.9757 320.431 90.2397 318.879 90.2397Z" fill="white"/>
</svg>
