<svg width="112" height="33" viewBox="0 0 112 33" fill="none" xmlns="http://www.w3.org/2000/svg">
<path d="M12.5 10.808C12.956 10.808 13.184 11.648 13.184 13.328C13.184 13.832 13.124 14.432 13.004 15.128C12.908 15.8 12.716 16.136 12.428 16.136H7.856V19.736H14.48C14.888 19.736 15.164 20.264 15.308 21.32C15.38 21.776 15.416 22.268 15.416 22.796C15.416 23.3 15.344 23.96 15.2 24.776C15.056 25.592 14.816 26 14.48 26H2.168C1.256 26 0.8 25.628 0.8 24.884V1.736C0.8 1.112 1.076 0.799998 1.628 0.799998H14.516C15.02 0.799998 15.272 1.868 15.272 4.004C15.272 6.116 15.02 7.172 14.516 7.172H7.856V10.808H12.5ZM17.1139 8.18C17.1139 7.916 18.2059 7.784 20.3899 7.784C22.5979 7.784 23.7379 7.904 23.8099 8.144L26.4019 16.64L28.8859 8.072C28.9819 7.88 29.7259 7.784 31.1179 7.784C34.3099 7.784 35.8339 7.94 35.6899 8.252L27.2299 32.336C27.2059 32.48 26.5459 32.552 25.2499 32.552C23.9779 32.552 22.7899 32.504 21.6859 32.408C20.5819 32.336 20.0539 32.24 20.1019 32.12L23.2339 24.56L17.1139 8.18ZM51.3178 25.028C49.8058 25.916 47.8618 26.36 45.4858 26.36C43.1098 26.36 41.1058 25.556 39.4738 23.948C37.8418 22.316 37.0258 20.072 37.0258 17.216C37.0258 14.336 37.8058 12.02 39.3658 10.268C40.9498 8.516 42.9418 7.64 45.3418 7.64C47.7418 7.64 49.5898 8.252 50.8858 9.476C52.2058 10.7 52.8658 12.188 52.8658 13.94C52.8658 17.828 50.6338 19.772 46.1698 19.772H43.6858C43.6858 20.492 43.8778 20.996 44.2618 21.284C44.6698 21.548 45.2578 21.68 46.0258 21.68C47.7058 21.68 49.3018 21.296 50.8138 20.528C50.8378 20.504 50.9458 20.672 51.1378 21.032C51.7138 22.064 52.0018 22.94 52.0018 23.66C52.0018 24.356 51.7738 24.812 51.3178 25.028ZM46.8178 14.624C46.8178 13.616 46.3258 13.112 45.3418 13.112C44.8858 13.112 44.4898 13.256 44.1538 13.544C43.8418 13.808 43.6858 14.204 43.6858 14.732V15.848H45.6298C46.4218 15.848 46.8178 15.44 46.8178 14.624ZM55.9737 19.52C57.9177 20.696 59.4537 21.284 60.5817 21.284C61.3017 21.284 61.6617 21.032 61.6617 20.528C61.6617 20.168 61.0377 19.7 59.7897 19.124C56.7897 17.9 55.2897 15.896 55.2897 13.112C55.2897 11.336 55.9377 9.98 57.2337 9.044C58.5297 8.108 60.0777 7.64 61.8777 7.64C63.7017 7.64 65.2377 7.832 66.4857 8.216C67.7577 8.6 68.3937 9.104 68.3937 9.728C68.3937 10.256 68.1297 10.952 67.6017 11.816C67.0977 12.68 66.7497 13.148 66.5577 13.22C65.5257 12.644 64.4097 12.356 63.2097 12.356C62.5617 12.356 62.2377 12.584 62.2377 13.04C62.2377 13.328 62.3577 13.58 62.5977 13.796C62.8617 13.988 63.3297 14.24 64.0017 14.552C64.6737 14.84 65.2257 15.104 65.6577 15.344C66.1137 15.584 66.6177 15.92 67.1697 16.352C68.3217 17.264 68.8977 18.452 68.8977 19.916C68.8977 21.836 68.2617 23.396 66.9897 24.596C65.7177 25.772 63.7977 26.36 61.2297 26.36C59.5257 26.36 57.9777 26.072 56.5857 25.496C55.1937 24.92 54.4977 24.128 54.4977 23.12C54.4977 22.448 54.6537 21.74 54.9657 20.996C55.3017 20.252 55.6377 19.76 55.9737 19.52Z" fill="#F3F3F4"/>
<path d="M83.3767 1.52C83.3767 1.04 84.6727 0.799998 87.2647 0.799998C89.8807 0.799998 91.1887 1.04 91.1887 1.52V18.044C91.1887 20.492 90.3127 22.496 88.5607 24.056C86.8087 25.592 84.3847 26.36 81.2887 26.36C78.2167 26.36 75.7087 25.568 73.7647 23.984C71.8447 22.376 70.8847 20.216 70.8847 17.504V1.556C70.8847 1.076 72.1807 0.835998 74.7727 0.835998C77.3887 0.835998 78.6967 1.076 78.6967 1.556V17.792C78.6967 18.272 78.9487 18.656 79.4527 18.944C79.9807 19.232 80.5327 19.376 81.1087 19.376C81.6847 19.376 82.2007 19.244 82.6567 18.98C83.1367 18.716 83.3767 18.32 83.3767 17.792V1.52ZM97.3422 26.072C95.1582 26.072 94.0662 25.832 94.0662 25.352V2.024C94.0662 1.208 94.4382 0.799998 95.1822 0.799998H101.518C105.07 0.799998 107.626 1.532 109.186 2.996C110.77 4.46 111.562 6.584 111.562 9.368C111.562 11.672 110.818 13.784 109.33 15.704C108.586 16.664 107.494 17.432 106.054 18.008C104.614 18.584 102.934 18.872 101.014 18.872V25.316C101.014 25.604 100.558 25.808 99.6462 25.928C98.7582 26.024 97.9902 26.072 97.3422 26.072ZM101.014 7.064V12.752H101.482C102.322 12.752 103.03 12.488 103.606 11.96C104.182 11.432 104.47 10.688 104.47 9.728C104.47 8.768 104.266 8.084 103.858 7.676C103.474 7.268 102.778 7.064 101.77 7.064H101.014Z" fill="#4794BA"/>
</svg>
