<svg width="180" height="84" viewBox="0 0 180 84" fill="none" xmlns="http://www.w3.org/2000/svg">
<path fill-rule="evenodd" clip-rule="evenodd" d="M180 3.882C168.234 -0.416943 162.9 -0.301498 154.35 0.31361C145.65 0.928718 137.1 3.38915 128.55 7.0798C120 10.7704 111.45 15.6913 102.9 15.0762C94.35 14.4611 85.65 8.31001 77.1 5.23447C68.55 2.15893 60 2.15893 51.45 4.00426C42.9 5.84958 34.35 9.54023 25.65 9.54023C17.1 9.54023 4.2 5.72741 0 3.88209V42H4.34999C8.54999 42 17.1 42 25.65 42C34.35 42 42.9 42 51.45 42C60 42 68.55 42 77.1 42C85.65 42 94.35 42 102.9 42C111.45 42 120 42 128.55 42C137.1 42 145.65 42 154.35 42C162.9 42 171.45 42 175.65 42H180V3.882Z" fill="url(#paint0_linear_638_16)" fill-opacity="0.1"/>
<path fill-rule="evenodd" clip-rule="evenodd" d="M9.69644e-07 80.118C11.7663 84.4169 17.1 84.3015 25.65 83.6864C34.35 83.0713 42.9 80.6108 51.45 76.9202C60 73.2295 68.55 68.3087 77.1 68.9238C85.65 69.5389 94.35 75.69 102.9 78.7655C111.45 81.8411 120 81.8411 128.55 79.9957C137.1 78.1504 145.65 74.4598 154.35 74.4598C162.9 74.4598 175.8 78.2726 180 80.1179L180 42L175.65 42C171.45 42 162.9 42 154.35 42C145.65 42 137.1 42 128.55 42C120 42 111.45 42 102.9 42C94.35 42 85.65 42 77.1 42C68.55 42 60 42 51.45 42C42.9 42 34.35 42 25.65 42C17.1 42 8.55001 42 4.35001 42L1.04907e-05 42L9.69644e-07 80.118Z" fill="url(#paint1_linear_638_16)" fill-opacity="0.1"/>
<defs>
<linearGradient id="paint0_linear_638_16" x1="90" y1="0.0827833" x2="90" y2="24.3028" gradientUnits="userSpaceOnUse">
<stop stop-color="#929DE3"/>
<stop offset="1" stop-color="#929DE3" stop-opacity="0"/>
</linearGradient>
<linearGradient id="paint1_linear_638_16" x1="90" y1="83.9172" x2="90" y2="59.6972" gradientUnits="userSpaceOnUse">
<stop stop-color="#929DE3"/>
<stop offset="1" stop-color="#929DE3" stop-opacity="0"/>
</linearGradient>
</defs>
</svg>
