<svg width="32" height="32" viewBox="0 0 32 32" fill="none" xmlns="http://www.w3.org/2000/svg">
<path d="M18.6666 6.66642C18.9782 6.66581 19.2801 6.77431 19.52 6.97309C19.655 7.08502 19.7666 7.22249 19.8484 7.37762C19.9302 7.53275 19.9806 7.70249 19.9967 7.87712C20.0128 8.05176 19.9943 8.22786 19.9422 8.39533C19.8902 8.5628 19.8056 8.71836 19.6933 8.85308L13.72 15.9998L19.48 23.1598C19.5907 23.2961 19.6734 23.4531 19.7233 23.6215C19.7733 23.79 19.7894 23.9666 19.7708 24.1413C19.7522 24.316 19.6993 24.4853 19.615 24.6395C19.5308 24.7937 19.4169 24.9297 19.28 25.0398C19.142 25.1611 18.9805 25.2527 18.8054 25.3087C18.6304 25.3647 18.4457 25.3839 18.2629 25.3651C18.0801 25.3463 17.9032 25.2899 17.7432 25.1995C17.5833 25.1091 17.4437 24.9867 17.3333 24.8398L10.8933 16.8398C10.6972 16.6012 10.59 16.3019 10.59 15.9931C10.59 15.6843 10.6972 15.385 10.8933 15.1464L17.56 7.14642C17.6937 6.98506 17.8636 6.85751 18.0559 6.77411C18.2482 6.69072 18.4574 6.65382 18.6666 6.66642Z" fill="#212529"/>
</svg>
