<svg width="24" height="24" viewBox="0 0 24 24" fill="none" xmlns="http://www.w3.org/2000/svg">
<path d="M21 11.9973C21.0019 12.2596 20.9221 12.516 20.7716 12.7309C20.6212 12.9458 20.4076 13.1086 20.1605 13.1966L15.0515 15.0515L13.1966 20.1605C13.1057 20.4053 12.9421 20.6164 12.7277 20.7655C12.5133 20.9146 12.2584 20.9946 11.9973 20.9946C11.7361 20.9946 11.4812 20.9146 11.2669 20.7655C11.0525 20.6164 10.8889 20.4053 10.798 20.1605L8.94307 15.0515L3.83409 13.1966C3.58927 13.1057 3.37813 12.9421 3.22902 12.7277C3.07992 12.5133 3 12.2584 3 11.9973C3 11.7361 3.07992 11.4813 3.22902 11.2669C3.37813 11.0525 3.58927 10.8889 3.83409 10.798L8.94307 8.94308L10.798 3.83409C10.8889 3.58927 11.0525 3.37813 11.2669 3.22902C11.4812 3.07992 11.7361 3 11.9973 3C12.2584 3 12.5133 3.07992 12.7277 3.22902C12.9421 3.37813 13.1057 3.58927 13.1966 3.83409L15.0515 8.94308L20.1605 10.798C20.4076 10.886 20.6212 11.0487 20.7716 11.2636C20.9221 11.4785 21.0019 11.735 21 11.9973Z" fill="#F99A16"/>
</svg>
