<svg width="24" height="24" viewBox="0 0 24 24" fill="none" xmlns="http://www.w3.org/2000/svg">
<g clip-path="url(#clip0_693_1679)">
<path d="M8.28044 0.5385C8.32615 0.382993 8.421 0.246478 8.5508 0.1494C8.6806 0.0523218 8.83835 -9.47797e-05 9.00044 1.28657e-07H15.0004C15.1192 9.02905e-05 15.2363 0.028389 15.342 0.0825666C15.4477 0.136744 15.539 0.215251 15.6084 0.311625C15.6778 0.407999 15.7234 0.519484 15.7413 0.636901C15.7592 0.754318 15.749 0.874311 15.7114 0.987L13.0414 9H18.7504C18.8909 8.9999 19.0285 9.03924 19.1477 9.11355C19.2669 9.18785 19.3628 9.29413 19.4246 9.42028C19.4863 9.54643 19.5114 9.68738 19.497 9.82709C19.4826 9.96679 19.4292 10.0996 19.3429 10.2105L8.84294 23.7105C8.73537 23.8495 8.58243 23.9462 8.41079 23.984C8.23915 24.0217 8.05972 23.9979 7.90381 23.9168C7.74791 23.8357 7.62542 23.7025 7.55773 23.5403C7.49004 23.3782 7.48144 23.1974 7.53344 23.0295L10.2349 14.25H5.25044C5.13384 14.2501 5.01882 14.2229 4.91453 14.1708C4.81025 14.1186 4.71955 14.0429 4.64966 13.9496C4.57977 13.8562 4.5326 13.7479 4.51191 13.6331C4.49121 13.5184 4.49756 13.4004 4.53044 13.2885L8.28044 0.5385Z" fill="#BDBDD8"/>
</g>
<defs>
<clipPath id="clip0_693_1679">
<rect width="24" height="24" fill="white"/>
</clipPath>
</defs>
</svg>
