<svg width="300" height="293" viewBox="0 0 300 293" fill="none" xmlns="http://www.w3.org/2000/svg">
<path style="mix-blend-mode:screen" opacity="0.64" d="M152.528 292.67C233.549 292.67 299.231 227.365 299.231 146.807C299.231 66.2495 233.549 0.94458 152.528 0.94458C71.5055 0.94458 5.82422 66.2495 5.82422 146.807C5.82422 227.365 71.5055 292.67 152.528 292.67Z" fill="url(#paint0_radial_698_2135)"/>
<g opacity="0.1">
<path d="M152.391 73.0602C169.385 64.6041 139.353 56.3623 131.44 69.7634C123.528 83.1645 206.918 81.9118 184.781 70.9832C184.781 70.9832 221.918 75.4502 188.539 84.9283C155.16 94.4063 77.836 54.8294 144.874 60.203C211.913 65.5766 152.391 73.0602 152.391 73.0602Z" fill="#D2EFFF"/>
<path d="M189.679 114.417C171.168 146.691 92.8877 109.801 127.767 111.647C162.646 113.494 187.19 115.323 165.118 118.653C165.118 118.653 211.915 118.653 154.915 110.527C97.9151 102.4 82.2228 92.8233 110.723 117.549C139.223 142.274 235.124 122.065 216.036 110.527C196.948 98.9881 228.498 89.5101 223.157 104.625C223.157 104.625 266.739 79.4881 188.723 88.554C188.723 88.554 236.129 93.4991 192.811 97.7519C149.492 102.005 69.3492 65.1969 127.635 75.5321C127.635 75.5321 53.7063 49.7683 108.135 88.554C162.563 127.34 208.19 82.1255 189.679 114.417ZM164.591 101.23C162.184 102.647 136.569 102.351 126.679 93.4497C120.91 88.1749 171.712 97.076 164.591 101.23ZM202.75 102.878C209.822 106.488 222.646 118.686 193.009 119.724C189.662 119.757 195.679 99.1859 202.75 102.878Z" fill="#D2EFFF"/>
<path d="M208.205 136.259C223.7 128.989 248.804 116.083 230.425 131.825C212.046 147.566 125.326 168.204 110.722 147.385C96.1175 126.566 166.238 138.698 156.744 145.16C156.744 145.16 208.716 140.347 132.645 131.841C56.5735 123.336 73.4526 108.896 94.0735 116.314C94.0735 116.314 33.2823 97.0114 83.4581 127.061C133.634 157.11 23.3428 137.89 118.403 158.511C213.464 179.132 221.557 150.022 221.557 150.022C221.557 150.022 213.628 160.868 178.7 158.511C143.771 156.154 211.881 156.863 235.008 138.055C258.134 119.248 258.513 101.511 206.986 136.885L208.205 136.259Z" fill="#D2EFFF"/>
<path d="M217.19 165.861C217.19 165.861 213.135 209.642 88.1073 159.68C88.1073 159.68 131.047 187.702 169.388 189.004C207.728 190.307 97.3051 210.021 88.1073 168.812C88.1073 168.812 57.9755 216.861 176.492 197.23C245.723 185.774 197.508 199.125 197.508 199.125C197.508 199.125 248.294 192.301 202.454 185.312C202.47 185.296 261.844 159.68 217.19 165.861Z" fill="#D2EFFF"/>
<path d="M200.193 201.978C200.193 201.978 160.633 223.406 106.946 212.379C53.2589 201.351 122.16 205.192 122.16 205.192C122.16 205.192 73.3688 194.511 77.3084 205.505C81.2479 216.5 166.501 216.055 159.248 221.989C151.995 227.923 109.319 230.231 129.083 224.923C129.083 224.923 80.638 223.093 138.644 231.516C196.649 239.939 194.687 216.088 194.687 216.088C194.687 216.088 186.644 230.198 171.759 224.956C156.874 219.714 225.281 197.511 201.874 219.846C201.874 219.846 227.77 199.703 196.27 206.445L200.193 201.978Z" fill="#D2EFFF"/>
<path d="M153.185 238.62C153.185 238.62 125.163 243.565 114.861 233.28C114.861 233.28 109.718 251.099 153.185 238.62Z" fill="#D2EFFF"/>
</g>
<path style="mix-blend-mode:screen" d="M250.649 170.656C263.803 116.489 230.556 61.9144 176.389 48.76C122.222 35.6056 67.6474 68.8529 54.493 123.02C41.3385 177.187 74.5858 231.761 128.753 244.916C182.92 258.07 237.494 224.823 250.649 170.656Z" fill="url(#paint1_radial_698_2135)"/>
<path style="mix-blend-mode:screen" opacity="0.53" d="M241.917 158.642C222.4 182.527 178.603 103.472 118.488 145.768C58.3725 188.065 47.3945 116.362 84.3506 82.0761C113.18 55.2904 140.395 43.9827 187.471 60.0871C234.548 76.1914 254.922 142.735 241.917 158.642Z" fill="url(#paint2_linear_698_2135)"/>
<path style="mix-blend-mode:screen" opacity="0.55" d="M61.8329 136.637C81.3493 112.753 125.146 191.808 185.261 149.511C245.377 107.214 256.355 178.917 219.465 213.203C190.635 239.989 163.421 251.297 116.344 235.192C69.2669 219.088 48.8274 152.544 61.8329 136.637Z" fill="url(#paint3_linear_698_2135)"/>
<g style="mix-blend-mode:screen">
<path d="M153.761 53.84C126.975 43.1422 174.332 32.6916 186.728 49.6861C199.124 66.6806 67.7499 65.0653 102.662 51.3345C102.662 51.3345 44.1126 56.9718 96.7445 68.9718C149.376 80.9718 271.288 30.8784 165.58 37.6532C59.8709 44.4279 153.761 53.84 153.761 53.84Z" fill="url(#paint4_linear_698_2135)"/>
<path d="M223.586 73.4722C309.416 24.3678 192.861 56.9886 192.861 56.9886C284.74 43.9007 158.377 90.582 90.0696 85.1425C21.7619 79.7029 96.5147 73.4886 96.5147 73.4886C-26.4853 61.9502 42.2345 93.8458 42.2345 93.8458C33.8114 74.6919 83.5421 86.7249 53.4597 101.329C23.3773 115.934 174.647 141.5 219.531 110.197C264.416 78.8952 239.641 91.0271 149.773 101.329C59.9048 111.631 133.685 111.599 133.685 111.599C98.9047 107.395 137.608 105.005 192.597 102.73C247.586 100.456 124.141 147.104 94.9652 106.225C65.7894 65.3458 137.756 122.659 223.586 73.4722ZM194.278 79.637C178.817 90.8952 138.234 91.2743 134.526 89.5271C123.399 84.2688 203.41 72.9941 194.278 79.637ZM89.707 112.769C43.0092 111.467 63.2015 96.0051 74.3443 91.4392C85.4872 86.8732 94.9817 112.983 89.707 112.769Z" fill="url(#paint5_linear_698_2135)"/>
<path d="M65.773 133.884C41.3115 124.67 1.75102 108.335 30.729 128.263C59.7071 148.192 196.438 174.335 219.515 147.945C242.592 121.554 131.971 136.95 146.987 145.142C146.987 145.142 65.0477 139.043 184.982 128.263C304.916 117.483 278.311 99.2028 245.822 108.615C245.822 108.615 341.674 84.1698 262.553 122.197C183.432 160.225 357.333 135.928 207.449 162.021C57.5642 188.115 44.7895 151.274 44.7895 151.274C44.7895 151.274 57.284 165.038 112.372 162.021C167.46 159.005 60.0368 159.879 23.5917 136.126C-12.8534 112.373 -13.4797 89.8566 67.8334 134.642L65.773 133.884Z" fill="url(#paint6_linear_698_2135)"/>
<path d="M51.5956 171.384C51.5956 171.384 57.9911 226.801 255.134 163.537C255.134 163.537 187.403 198.944 126.975 200.691C66.5461 202.438 240.612 227.378 255.134 175.142C255.134 175.142 302.623 235.999 115.766 211.125C6.74392 196.62 82.634 213.515 82.634 213.515C82.634 213.515 2.54063 204.894 74.8208 196.043C74.8208 196.043 -18.8055 163.537 51.5956 171.384Z" fill="url(#paint7_linear_698_2135)"/>
<path d="M78.383 217.109C78.383 217.109 140.691 244.208 225.416 230.296C310.141 216.384 201.383 221.164 201.383 221.164C201.383 221.164 278.312 207.647 272.081 221.576C265.85 235.505 131.46 234.928 142.899 242.477C154.339 250.027 221.625 252.878 190.471 246.186C190.471 246.186 266.839 243.862 175.388 254.428C83.9379 264.994 87.0533 234.911 87.0533 234.911C91.2341 240.217 96.9254 244.13 103.376 246.134C109.827 248.138 116.734 248.139 123.185 246.136C146.641 239.543 38.8061 211.373 75.7127 239.658C75.7127 239.658 34.883 214.142 84.5643 222.68L78.383 217.109Z" fill="url(#paint8_linear_698_2135)"/>
<path d="M152.527 263.493C152.527 263.493 196.753 269.856 212.956 256.751C212.923 256.751 221.049 279.251 152.527 263.493Z" fill="url(#paint9_linear_698_2135)"/>
</g>
<defs>
<radialGradient id="paint0_radial_698_2135" cx="0" cy="0" r="1" gradientUnits="userSpaceOnUse" gradientTransform="translate(148.553 147.557) scale(156.738)">
<stop offset="0.44" stop-color="#8B6FFF"/>
<stop offset="0.58" stop-color="#524196"/>
<stop offset="0.69" stop-color="#261E45"/>
<stop offset="0.77" stop-color="#0A0813"/>
<stop offset="0.81"/>
</radialGradient>
<radialGradient id="paint1_radial_698_2135" cx="0" cy="0" r="1" gradientUnits="userSpaceOnUse" gradientTransform="translate(152.608 146.794) scale(100.929 100.929)">
<stop offset="0.29"/>
<stop offset="0.42" stop-color="#010203"/>
<stop offset="0.51" stop-color="#050A0C"/>
<stop offset="0.6" stop-color="#0C181C"/>
<stop offset="0.67" stop-color="#152B33"/>
<stop offset="0.75" stop-color="#214450"/>
<stop offset="0.81" stop-color="#306274"/>
<stop offset="0.88" stop-color="#42869E"/>
<stop offset="0.94" stop-color="#56AFCE"/>
<stop offset="1" stop-color="#6AD8FF"/>
</radialGradient>
<linearGradient id="paint2_linear_698_2135" x1="199.594" y1="59.0947" x2="127.008" y2="179.826" gradientUnits="userSpaceOnUse">
<stop stop-color="#00FDFD"/>
<stop offset="0.12" stop-color="#00C3C3"/>
<stop offset="0.25" stop-color="#008F8F"/>
<stop offset="0.37" stop-color="#006363"/>
<stop offset="0.5" stop-color="#003F3F"/>
<stop offset="0.62" stop-color="#002323"/>
<stop offset="0.75" stop-color="#001010"/>
<stop offset="0.87" stop-color="#000404"/>
<stop offset="1"/>
</linearGradient>
<linearGradient id="paint3_linear_698_2135" x1="133.3" y1="242.446" x2="162.61" y2="125.013" gradientUnits="userSpaceOnUse">
<stop stop-color="#FF00FF"/>
<stop offset="0.01" stop-color="#F600F6"/>
<stop offset="0.05" stop-color="#C800C8"/>
<stop offset="0.09" stop-color="#9D009D"/>
<stop offset="0.14" stop-color="#770077"/>
<stop offset="0.2" stop-color="#570057"/>
<stop offset="0.25" stop-color="#3B003B"/>
<stop offset="0.32" stop-color="#250025"/>
<stop offset="0.4" stop-color="#140014"/>
<stop offset="0.49" stop-color="#090009"/>
<stop offset="0.63" stop-color="#020002"/>
<stop offset="1"/>
</linearGradient>
<linearGradient id="paint4_linear_698_2135" x1="74.8214" y1="53.84" x2="207.382" y2="53.84" gradientUnits="userSpaceOnUse">
<stop/>
<stop offset="0.09" stop-color="#1C1F32"/>
<stop offset="0.25" stop-color="#4C5689"/>
<stop offset="0.38" stop-color="#6F7FC8"/>
<stop offset="0.48" stop-color="#8598F0"/>
<stop offset="0.53" stop-color="#8DA1FF"/>
<stop offset="1"/>
</linearGradient>
<linearGradient id="paint5_linear_698_2135" x1="23.0971" y1="85.7029" x2="255.135" y2="85.7029" gradientUnits="userSpaceOnUse">
<stop/>
<stop offset="0.09" stop-color="#1C1F32"/>
<stop offset="0.25" stop-color="#4C5689"/>
<stop offset="0.38" stop-color="#6F7FC8"/>
<stop offset="0.48" stop-color="#8598F0"/>
<stop offset="0.53" stop-color="#8DA1FF"/>
<stop offset="1"/>
</linearGradient>
<linearGradient id="paint6_linear_698_2135" x1="-0.029187" y1="136.126" x2="293.773" y2="136.126" gradientUnits="userSpaceOnUse">
<stop/>
<stop offset="0.09" stop-color="#1C1F32"/>
<stop offset="0.25" stop-color="#4C5689"/>
<stop offset="0.38" stop-color="#6F7FC8"/>
<stop offset="0.48" stop-color="#8598F0"/>
<stop offset="0.53" stop-color="#8DA1FF"/>
<stop offset="1"/>
</linearGradient>
<linearGradient id="paint7_linear_698_2135" x1="25.3703" y1="190.323" x2="260.524" y2="190.323" gradientUnits="userSpaceOnUse">
<stop/>
<stop offset="0.09" stop-color="#1C1F32"/>
<stop offset="0.25" stop-color="#4C5689"/>
<stop offset="0.38" stop-color="#6F7FC8"/>
<stop offset="0.48" stop-color="#8598F0"/>
<stop offset="0.53" stop-color="#8DA1FF"/>
<stop offset="1"/>
</linearGradient>
<linearGradient id="paint8_linear_698_2135" x1="59.9709" y1="236.016" x2="272.493" y2="236.016" gradientUnits="userSpaceOnUse">
<stop/>
<stop offset="0.09" stop-color="#1C1F32"/>
<stop offset="0.25" stop-color="#4C5689"/>
<stop offset="0.38" stop-color="#6F7FC8"/>
<stop offset="0.48" stop-color="#8598F0"/>
<stop offset="0.53" stop-color="#8DA1FF"/>
<stop offset="1"/>
</linearGradient>
<linearGradient id="paint9_linear_698_2135" x1="152.527" y1="262.933" x2="213.253" y2="262.933" gradientUnits="userSpaceOnUse">
<stop/>
<stop offset="0.09" stop-color="#1C1F32"/>
<stop offset="0.25" stop-color="#4C5689"/>
<stop offset="0.38" stop-color="#6F7FC8"/>
<stop offset="0.48" stop-color="#8598F0"/>
<stop offset="0.53" stop-color="#8DA1FF"/>
<stop offset="1"/>
</linearGradient>
</defs>
</svg>
