<svg width="102" height="38" viewBox="0 0 102 38" fill="none" xmlns="http://www.w3.org/2000/svg">
<g clip-path="url(#clip0_29_2046)">
<path d="M52.6606 11.5865L57.5134 11.2719C57.6241 12.0678 57.8271 12.6601 58.1592 13.0858C58.6943 13.7521 59.4323 14.0853 60.4103 14.0853C61.1299 14.0853 61.7019 13.9187 62.0894 13.567C62.4584 13.2894 62.6798 12.8452 62.6798 12.3824C62.6798 11.9382 62.4768 11.5125 62.1263 11.2348C61.7572 10.9017 60.89 10.5685 59.5246 10.2723C57.292 9.77258 55.6867 9.10624 54.7457 8.2548C53.8046 7.45889 53.2695 6.2928 53.3064 5.05266C53.3064 4.20122 53.5648 3.34978 54.0445 2.64642C54.598 1.85052 55.3546 1.22119 56.2587 0.869512C57.2366 0.443794 58.602 0.22168 60.318 0.22168C62.4215 0.22168 64.0268 0.610379 65.1339 1.40629C66.241 2.18369 66.9052 3.44233 67.1082 5.16372L62.3108 5.44136C62.1816 4.70098 61.9233 4.1642 61.4989 3.81252C61.0745 3.46084 60.521 3.29426 59.8014 3.29426C59.2109 3.29426 58.7681 3.42382 58.4729 3.66445C58.1961 3.88656 58.0116 4.21973 58.03 4.58992C58.03 4.86756 58.1776 5.1267 58.3991 5.29328C58.6389 5.5154 59.2109 5.719 60.115 5.9041C62.3477 6.38534 63.9345 6.86659 64.9124 7.36635C65.8904 7.8661 66.5915 8.47692 67.0159 9.19879C67.4588 9.93917 67.6802 10.7906 67.6617 11.6606C67.6617 12.6971 67.3665 13.7336 66.776 14.6036C66.1671 15.5105 65.3184 16.2139 64.322 16.6396C63.2703 17.1023 61.9418 17.343 60.3549 17.343C57.5503 17.343 55.6129 16.8062 54.5242 15.7141C53.4356 14.6221 52.7898 13.2524 52.6606 11.5865ZM1.16245 17.0653V0.517832H9.6686C11.237 0.517832 12.4548 0.647398 13.2851 0.925041C14.097 1.18417 14.8166 1.72095 15.2963 2.44282C15.8314 3.23873 16.0897 4.1642 16.0713 5.1267C16.1266 6.75553 15.2963 8.31033 13.8755 9.12475C13.322 9.43941 12.7131 9.66152 12.0857 9.77258C12.547 9.90215 13.0083 10.1243 13.4143 10.3834C13.7279 10.6425 13.9863 10.9387 14.2261 11.2533C14.5029 11.568 14.7428 11.9197 14.9457 12.2899L17.4182 17.0838H11.6245L8.89363 11.9937C8.54305 11.3459 8.24783 10.9202 7.97106 10.7166C7.60203 10.4574 7.15919 10.3279 6.71635 10.3279H6.27352V17.0468H1.16245V17.0653ZM6.27352 7.21827H8.43234C8.89363 7.18125 9.33647 7.10721 9.77931 6.99616C10.1114 6.94063 10.4067 6.75553 10.6096 6.47789C11.1078 5.81155 11.034 4.86756 10.4251 4.29377C10.093 4.01613 9.44718 3.86805 8.5246 3.86805H6.27352V7.21827ZM0 31.2436L4.85275 30.9289C4.96346 31.7248 5.16643 32.3171 5.49855 32.7429C6.0152 33.4092 6.77171 33.7609 7.74964 33.7609C8.46925 33.7609 9.04124 33.5943 9.42873 33.2426C9.79776 32.9465 10.0192 32.5208 10.0192 32.058C10.0192 31.6138 9.81621 31.1881 9.46563 30.9104C9.0966 30.5773 8.22938 30.2441 6.84551 29.9479C4.61288 29.4482 3.0076 28.7818 2.06657 27.9304C1.12554 27.1345 0.590449 25.9684 0.627352 24.7283C0.627352 23.8768 0.885673 23.0254 1.36541 22.322C1.91896 21.5261 2.67547 20.8968 3.57959 20.5451C4.55753 20.1194 5.92294 19.8973 7.63893 19.8973C9.7424 19.8973 11.3477 20.286 12.4548 21.0819C13.5619 21.8778 14.2077 23.1179 14.4106 24.8393L9.61324 25.117C9.48408 24.3766 9.22576 23.8398 8.80137 23.4881C8.39544 23.1364 7.82344 22.9699 7.10383 22.9884C6.51339 22.9884 6.07055 23.1179 5.77533 23.3771C5.4801 23.5992 5.31404 23.9323 5.33249 24.3025C5.33249 24.5802 5.4801 24.8393 5.70152 25.0059C5.94139 25.228 6.51339 25.4316 7.41751 25.6167C9.65014 26.098 11.237 26.5792 12.2149 27.079C13.1928 27.5787 13.894 28.1895 14.3184 28.9114C14.7612 29.6518 14.9826 30.5032 14.9826 31.3547C14.9826 32.3912 14.669 33.4092 14.097 34.2792C13.4881 35.1861 12.6393 35.8895 11.6429 36.3152C10.5912 36.7779 9.26266 37.0186 7.67583 37.0186C4.8712 37.0186 2.93379 36.4818 1.84515 35.3897C0.756512 34.2792 0.147612 32.9095 0 31.2436H0Z" fill="#212529"/>
<path d="M24.5876 30.0602L29.0528 31.4114C28.813 32.5405 28.3148 33.614 27.6321 34.558C27.0047 35.3909 26.1744 36.0387 25.2334 36.4645C24.2739 36.8902 23.0561 37.1123 21.58 37.1123C19.7902 37.1123 18.314 36.8532 17.1885 36.3349C16.0445 35.8166 15.0666 34.8912 14.2363 33.577C13.4059 32.2628 13 30.5784 13 28.5239C13 25.7845 13.7196 23.6744 15.1773 22.2122C16.635 20.7499 18.6831 20.0095 21.3401 20.0095C23.4251 20.0095 25.0488 20.4352 26.2482 21.2682C27.4291 22.1196 28.3148 23.4153 28.9052 25.1552L24.403 26.1547C24.2923 25.766 24.1263 25.3773 23.9048 25.0441C23.6281 24.6554 23.2775 24.3593 22.8531 24.1371C22.4287 23.915 21.949 23.8225 21.4692 23.8225C20.3068 23.8225 19.4211 24.2852 18.8122 25.2292C18.3509 25.9141 18.1111 27.0061 18.1111 28.4869C18.1111 30.3193 18.3878 31.578 18.9414 32.2628C19.4949 32.9477 20.2699 33.2808 21.2847 33.2808C22.2627 33.2808 23.0007 33.0032 23.4989 32.4664C23.9971 31.8926 24.3661 31.0967 24.5876 30.0602ZM35.0127 20.2872H40.1053V26.0806H45.6776V20.2872H50.8072V36.8347H45.6776V30.1342H40.1053V36.8347H35.0127V20.2872V20.2872Z" fill="#212529"/>
<path d="M50.0591 28.4486C50.0591 25.7462 50.8156 23.6361 52.3102 22.1368C53.8047 20.6376 55.9082 19.8787 58.5837 19.8787C61.333 19.8787 63.4364 20.619 64.931 22.0998C66.4256 23.5806 67.1636 25.6536 67.1636 28.319C67.1636 30.2625 66.8315 31.8358 66.1857 33.0759C65.5584 34.2976 64.5804 35.2971 63.3811 35.9634C62.1448 36.6483 60.6134 36.9999 58.7867 36.9999C56.9231 36.9999 55.3916 36.7038 54.1738 36.1115C52.9191 35.4822 51.8858 34.5012 51.2031 33.298C50.4466 32.0024 50.0591 30.3921 50.0591 28.4486ZM55.1517 28.4671C55.1517 30.1329 55.4654 31.336 56.0743 32.0764C56.6832 32.7983 57.532 33.1685 58.6021 33.1685C59.6908 33.1685 60.5395 32.8168 61.1484 32.0949C61.7573 31.3731 62.0526 30.0959 62.0526 28.245C62.0526 26.6902 61.7389 25.5426 61.1115 24.8392C60.4842 24.1173 59.6354 23.7657 58.5652 23.7657C57.6242 23.7286 56.7201 24.1358 56.0927 24.8577C55.4654 25.5796 55.1517 26.7827 55.1517 28.4671V28.4671ZM72.3854 28.4486C72.3854 25.7462 73.1419 23.6361 74.6365 22.1368C76.1311 20.6376 78.2346 19.8787 80.91 19.8787C83.6593 19.8787 85.7812 20.619 87.2573 22.0998C88.7335 23.5806 89.49 25.6536 89.49 28.319C89.49 30.2625 89.1579 31.8358 88.5121 33.0759C87.8847 34.2976 86.9068 35.2971 85.7074 35.9634C84.4712 36.6483 82.9397 36.9999 81.113 36.9999C79.2494 36.9999 77.7179 36.7038 76.5001 36.1115C75.2454 35.4822 74.2121 34.5012 73.5294 33.298C72.7729 32.0024 72.3854 30.3921 72.3854 28.4486V28.4486ZM77.478 28.4671C77.478 30.1329 77.7917 31.336 78.4006 32.0764C79.0095 32.7983 79.8583 33.1685 80.9285 33.1685C82.0171 33.1685 82.8659 32.8168 83.4748 32.0949C84.0837 31.3731 84.3789 30.0959 84.3789 28.245C84.3789 26.6902 84.0652 25.5426 83.4379 24.8392C82.8105 24.1173 81.9618 23.7657 80.8916 23.7657C79.9505 23.7286 79.028 24.1358 78.4191 24.8577C77.7917 25.5796 77.478 26.7827 77.478 28.4671V28.4671Z" fill="#212529"/>
<path d="M88.9547 20.1748H94.0474V32.6502H102V36.7223H88.9363V20.1748H88.9547Z" fill="#212529"/>
<path d="M83.3415 19.22C88.4687 15.3441 90.0497 8.77383 86.8728 4.5449C83.696 0.315974 76.9642 0.0297775 71.837 3.90567C66.7099 7.78156 65.1288 14.3518 68.3057 18.5807C71.4825 22.8097 78.2143 23.0959 83.3415 19.22Z" fill="#212529"/>
<path d="M83.3886 19.3322C88.5158 15.4563 90.0968 8.88608 86.92 4.65715C83.7431 0.428217 77.0113 0.142021 71.8842 4.01791C66.757 7.8938 65.1759 14.4641 68.3528 18.693C71.5297 22.9219 78.2614 23.2081 83.3886 19.3322Z" fill="#212529"/>
<path d="M83.3886 19.3322C88.5158 15.4563 90.0968 8.88608 86.92 4.65715C83.7431 0.428217 77.0113 0.142021 71.8842 4.01791C66.757 7.8938 65.1759 14.4641 68.3528 18.693C71.5297 22.9219 78.2614 23.2081 83.3886 19.3322Z" fill="white"/>
<path d="M83.3886 19.3322C88.5158 15.4563 90.0968 8.88608 86.92 4.65715C83.7431 0.428217 77.0113 0.142021 71.8842 4.01791C66.757 7.8938 65.1759 14.4641 68.3528 18.693C71.5297 22.9219 78.2614 23.2081 83.3886 19.3322Z" stroke="#212529" stroke-miterlimit="10"/>
<path d="M72.4508 10.4586L74.2959 9.16298L76.5654 12.4021C76.9529 12.9204 77.2481 13.4757 77.4696 14.0865C77.5987 14.5492 77.5618 15.049 77.3773 15.4932C77.1374 16.0485 76.75 16.5113 76.2333 16.8444C75.6244 17.2701 75.1078 17.5108 74.6649 17.5848C74.2405 17.6588 73.7977 17.5848 73.3918 17.3997C72.9489 17.1776 72.5615 16.8629 72.2662 16.4557L73.8531 14.975C73.9822 15.1786 74.1483 15.3637 74.3328 15.5117C74.462 15.6043 74.6096 15.6598 74.7756 15.6598C74.9048 15.6598 75.034 15.6043 75.1262 15.5302C75.3107 15.4192 75.4399 15.1971 75.4214 14.975C75.3661 14.6603 75.2369 14.3456 75.034 14.105L72.4508 10.4586V10.4586ZM77.9862 12.5132L79.6653 11.1805C79.8498 11.4026 80.0897 11.5692 80.348 11.6618C80.717 11.7728 81.1045 11.6988 81.4182 11.4582C81.6396 11.3101 81.8241 11.1065 81.8979 10.8473C82.0086 10.5142 81.8241 10.144 81.492 10.0329C81.4366 10.0144 81.3813 9.99591 81.3259 9.99591C81.1045 9.9774 80.717 10.0699 80.145 10.3106C79.204 10.6993 78.4659 10.8473 77.9124 10.7918C77.3773 10.7363 76.8791 10.4586 76.5839 9.99591C76.3625 9.68125 76.2518 9.31106 76.2333 8.94087C76.2333 8.51515 76.344 8.08943 76.5839 7.73775C76.9345 7.23799 77.3589 6.81228 77.8755 6.47911C78.6505 5.94233 79.3332 5.6832 79.9236 5.6832C80.5141 5.6832 81.0676 5.96084 81.5843 6.53463L79.9236 7.84881C79.5915 7.42309 78.9641 7.33054 78.5398 7.66371L78.4844 7.71924C78.2999 7.8303 78.1707 7.99688 78.0969 8.20049C78.0416 8.34856 78.0785 8.51515 78.1707 8.64472C78.2445 8.73726 78.3552 8.8113 78.4844 8.8113C78.632 8.82981 78.8903 8.75577 79.2594 8.58919C80.1819 8.20049 80.8831 7.97837 81.3628 7.90434C81.7688 7.8303 82.1932 7.86732 82.5806 8.0339C82.9312 8.18198 83.2264 8.44111 83.4294 8.75577C83.6877 9.12596 83.8353 9.57019 83.8538 10.0329C83.8722 10.5142 83.7431 10.9769 83.4848 11.3841C83.1526 11.8839 82.7282 12.3096 82.2301 12.6428C81.2152 13.3461 80.3849 13.6423 79.7206 13.5312C79.001 13.4202 78.4106 13.05 77.9862 12.5132V12.5132Z" fill="#212529"/>
</g>
<defs>
<clipPath id="clip0_29_2046">
<rect width="102" height="38" fill="white"/>
</clipPath>
</defs>
</svg>
