<svg width="16" height="16" viewBox="0 0 16 16" fill="none" xmlns="http://www.w3.org/2000/svg">
<path d="M15.9555 5.74401C15.9052 5.59592 15.8127 5.4658 15.6893 5.36971C15.5659 5.27362 15.4171 5.21576 15.2612 5.20328L10.701 4.84093L8.72766 0.472711C8.66482 0.33202 8.5626 0.212523 8.43334 0.128643C8.30408 0.044763 8.15331 8.4692e-05 7.99922 1.20287e-07C7.84513 -8.44514e-05 7.69431 0.0444284 7.56496 0.128166C7.43561 0.211905 7.33326 0.331289 7.27026 0.471912L5.29692 4.84093L0.736723 5.20328C0.583508 5.21542 0.437033 5.27144 0.314823 5.36465C0.192613 5.45785 0.0998421 5.58429 0.0476092 5.72884C-0.00462369 5.87339 -0.0141069 6.02992 0.0202943 6.17972C0.0546954 6.32951 0.131524 6.46623 0.241589 6.5735L3.61154 9.85867L2.4197 15.0196C2.38351 15.1758 2.39511 15.3393 2.45299 15.4888C2.51087 15.6384 2.61237 15.7671 2.7443 15.8582C2.87623 15.9494 3.03251 15.9988 3.19286 16C3.35322 16.0012 3.51023 15.9542 3.64354 15.8651L7.99896 12.9615L12.3544 15.8651C12.4906 15.9555 12.6513 16.0021 12.8148 15.9985C12.9783 15.9949 13.1368 15.9414 13.269 15.845C13.4011 15.7487 13.5006 15.6142 13.554 15.4596C13.6075 15.305 13.6123 15.1378 13.5678 14.9804L12.1048 9.86107L15.7331 6.5959C15.9707 6.38153 16.0579 6.04717 15.9555 5.74401Z" fill="#848ED9"/>
</svg>
