<svg width="24" height="24" viewBox="0 0 24 24" fill="none" xmlns="http://www.w3.org/2000/svg">
<path d="M19.734 16.0596C18.888 17.7701 17.5158 19.1644 15.819 20.0376C14.1344 20.9026 12.2136 21.1947 10.348 20.8696C8.47659 20.5406 6.76206 19.6144 5.461 18.2296C4.14787 16.8318 3.31181 15.0536 3.073 13.1506C2.83045 11.2433 3.19579 9.30817 4.117 7.62061C5.02975 5.94598 6.45609 4.60867 8.186 3.80561C9.90431 3.00978 11.8354 2.79631 13.686 3.19761C15.536 3.59861 17.052 4.51061 18.306 5.95261C18.457 6.11261 19.041 6.75861 19.526 7.73361" stroke="#848ED9" stroke-width="2" stroke-linecap="round" stroke-linejoin="round"/>
<path d="M15.069 7.81284L20.109 8.71984L21 3.58984" stroke="#848ED9" stroke-width="2" stroke-linecap="round" stroke-linejoin="round"/>
</svg>
