<svg width="32" height="32" viewBox="0 0 32 32" fill="none" xmlns="http://www.w3.org/2000/svg">
<path d="M13.3334 25.3336C13.0218 25.3342 12.7199 25.2257 12.48 25.0269C12.345 24.915 12.2334 24.7775 12.1516 24.6224C12.0698 24.4673 12.0194 24.2975 12.0033 24.1229C11.9872 23.9482 12.0057 23.7721 12.0578 23.6047C12.1098 23.4372 12.1944 23.2816 12.3067 23.1469L18.28 16.0002L12.52 8.84025C12.4093 8.70386 12.3266 8.54693 12.2767 8.37848C12.2267 8.21003 12.2106 8.03337 12.2292 7.85867C12.2478 7.68397 12.3007 7.51466 12.385 7.36047C12.4692 7.20629 12.5831 7.07028 12.72 6.96025C12.858 6.83886 13.0195 6.74731 13.1946 6.69132C13.3696 6.63534 13.5543 6.61613 13.7371 6.63491C13.9199 6.65369 14.0968 6.71005 14.2568 6.80045C14.4167 6.89086 14.5563 7.01335 14.6667 7.16025L21.1067 15.1602C21.3028 15.3988 21.41 15.6981 21.41 16.0069C21.41 16.3157 21.3028 16.615 21.1067 16.8536L14.44 24.8536C14.3063 25.0149 14.1364 25.1425 13.9441 25.2259C13.7518 25.3093 13.5426 25.3462 13.3334 25.3336Z" fill="#212529"/>
</svg>
