<svg width="24" height="24" viewBox="0 0 24 24" fill="none" xmlns="http://www.w3.org/2000/svg">
<path d="M9.28802 4.17029C8.60102 3.15479 7.89752 2.29829 7.26302 1.70579C6.94818 1.39703 6.58928 1.1367 6.19802 0.933286C5.87252 0.777286 5.35802 0.625786 4.87502 0.903286C4.32452 1.22279 4.23452 1.84829 4.23002 2.24729C4.22552 2.70329 4.32602 3.24329 4.48952 3.81329C4.78352 4.84379 5.32352 6.10529 6.04202 7.41629L1.12802 12.3303C0.712524 12.7458 0.724524 13.3143 0.801024 13.7073C0.883524 14.1318 1.08152 14.5968 1.34102 15.0618C1.86302 16.0023 2.72102 17.1033 3.78002 18.1638C4.84052 19.2243 5.94152 20.0808 6.88202 20.6028C7.34702 20.8623 7.81202 21.0603 8.23652 21.1428C8.62952 21.2178 9.19652 21.2313 9.61352 20.8158L18.036 12.3933C18.213 12.7788 18.174 13.1613 18.111 13.8018C18.066 14.2398 18.009 14.7993 18.0015 15.5658V15.7503H18.006C18.0375 16.1251 18.2086 16.4744 18.4854 16.729C18.7623 16.9836 19.1247 17.1249 19.5008 17.1249C19.8769 17.1249 20.2393 16.9836 20.5161 16.729C20.793 16.4744 20.9641 16.1251 20.9955 15.7503H21V15.6648C21.0014 15.6062 20.9994 15.5476 20.994 15.4893C20.9115 13.6143 19.944 11.3823 18.204 10.2483C18.1107 10.0256 18.0051 9.80822 17.8875 9.59729C17.364 8.65829 16.5075 7.55729 15.447 6.49679C14.3865 5.43629 13.2855 4.57829 12.345 4.05629C11.88 3.79829 11.415 3.60029 10.9905 3.51629C10.5975 3.44129 10.0305 3.42929 9.61352 3.84479L9.28802 4.16879V4.17029ZM6.24002 2.80079C6.81152 3.33479 7.50602 4.18379 8.20652 5.24879L7.15052 6.30629C6.57752 5.21579 6.16052 4.20329 5.93102 3.39929C5.83047 3.07057 5.76461 2.73222 5.73452 2.38979C5.87102 2.48129 6.04052 2.61479 6.24002 2.80079ZM6.83102 8.74829C7.64102 10.0263 8.49152 11.0988 9.24152 11.7978C9.31362 11.865 9.39824 11.9173 9.49055 11.9517C9.58287 11.9862 9.68106 12.0022 9.77954 11.9987C9.87802 11.9952 9.97484 11.9723 10.0645 11.9314C10.1541 11.8905 10.2349 11.8324 10.302 11.7603C10.3692 11.6882 10.4215 11.6036 10.456 11.5113C10.4904 11.4189 10.5064 11.3207 10.5029 11.2223C10.4994 11.1238 10.4766 11.027 10.4357 10.9373C10.3948 10.8477 10.3366 10.767 10.2645 10.6998C9.58502 10.0668 8.73902 8.99579 7.91852 7.65929L9.55052 6.02729C9.63152 6.20729 9.72302 6.39179 9.82502 6.57479C10.3485 7.51529 11.205 8.61629 12.2655 9.67679C13.3245 10.7373 14.4255 11.5938 15.3675 12.1158C15.5505 12.2178 15.7335 12.3108 15.915 12.3903L8.62352 19.6833C8.58925 19.6803 8.55519 19.6753 8.52152 19.6683C8.31602 19.6278 8.00852 19.5123 7.60952 19.2903C6.82352 18.8523 5.83052 18.0903 4.84052 17.1003C3.85052 16.1103 3.08852 15.1203 2.65052 14.3313C2.43002 13.9338 2.31302 13.6263 2.27402 13.4208C2.26699 13.3871 2.26198 13.3531 2.25902 13.3188L6.83102 8.74829V8.74829ZM11.136 5.84579C10.9808 5.58153 10.8593 5.29882 10.7745 5.00429C10.977 5.05379 11.2605 5.16929 11.6175 5.36579C12.4035 5.80379 13.3965 6.56579 14.3865 7.55579C15.0615 8.23079 15.6315 8.90729 16.0635 9.52079C15.5267 9.484 14.9874 9.53004 14.4645 9.65729C14.0689 9.32783 13.6885 8.98046 13.3245 8.61629C12.3345 7.62629 11.574 6.63329 11.1375 5.84579H11.136Z" fill="#848ED9"/>
</svg>
