<svg width="24" height="24" viewBox="0 0 24 24" fill="none" xmlns="http://www.w3.org/2000/svg">
<path d="M7 2C7.15319 2.0001 7.30269 2.04711 7.42837 2.13471C7.55405 2.22231 7.64989 2.3463 7.703 2.49L10.655 10.475L10.667 10.507L10.89 11.109L10.061 13.195L9.435 11.501H4.563L3.451 14.511C3.41679 14.6034 3.36472 14.6881 3.29776 14.7604C3.2308 14.8326 3.15026 14.891 3.06074 14.9322C2.97123 14.9733 2.87449 14.9964 2.77604 15.0001C2.6776 15.0039 2.57938 14.9882 2.487 14.954C2.39461 14.9198 2.30987 14.8677 2.23761 14.8008C2.16535 14.7338 2.10698 14.6533 2.06585 14.5637C2.02471 14.4742 2.00161 14.3775 1.99786 14.279C1.99411 14.1806 2.00979 14.0824 2.044 13.99L3.332 10.507C3.33574 10.4959 3.33974 10.4849 3.344 10.474L6.296 2.49C6.34916 2.34614 6.44516 2.22204 6.57104 2.13443C6.69691 2.04681 6.84663 1.9999 7 2V2ZM5.118 10H8.881L7 4.914L5.118 10ZM13.806 6.473C13.8615 6.33342 13.9575 6.21371 14.0818 6.12937C14.2061 6.04502 14.3528 5.99993 14.503 5.99993C14.6532 5.99993 14.7999 6.04502 14.9242 6.12937C15.0485 6.21371 15.1445 6.33342 15.2 6.473L20.755 20.504H21.249C21.4479 20.504 21.6387 20.583 21.7793 20.7237C21.92 20.8643 21.999 21.0551 21.999 21.254C21.999 21.4529 21.92 21.6437 21.7793 21.7843C21.6387 21.925 21.4479 22.004 21.249 22.004H18.75C18.5511 22.004 18.3603 21.925 18.2197 21.7843C18.079 21.6437 18 21.4529 18 21.254C18 21.0551 18.079 20.8643 18.2197 20.7237C18.3603 20.583 18.5511 20.504 18.75 20.504H19.142L17.952 17.5H11.042L9.85 20.504H10.249C10.4479 20.504 10.6387 20.583 10.7793 20.7237C10.92 20.8643 10.999 21.0551 10.999 21.254C10.999 21.4529 10.92 21.6437 10.7793 21.7843C10.6387 21.925 10.4479 22.004 10.249 22.004H7.75C7.55108 22.004 7.36032 21.925 7.21967 21.7843C7.07901 21.6437 7 21.4529 7 21.254C7 21.0551 7.07901 20.8643 7.21967 20.7237C7.36032 20.583 7.55108 20.504 7.75 20.504H8.236L13.806 6.474V6.473ZM17.358 16L14.502 8.785L11.638 16H17.358Z" fill="#848ED9"/>
</svg>
