<svg width="600" height="326" viewBox="0 0 600 326" fill="none" xmlns="http://www.w3.org/2000/svg">
<path d="M0 22C0 10.9543 8.95431 2 20 2H580C591.046 2 600 10.9543 600 22V300C600 311.046 591.046 320 580 320H20C8.95432 320 0 311.046 0 300V22Z" fill="#F8F8F8"/>
<path fill-rule="evenodd" clip-rule="evenodd" d="M22 0C9.84974 0 0 9.84974 0 22C0 10.9543 8.95431 2 20 2H580C591.046 2 600 10.9543 600 22C600 9.84974 590.15 0 578 0H22ZM600 300C600 311.046 591.046 320 580 320H20C8.95432 320 0 311.046 0 300C0 314.359 11.6406 326 26 326H574C588.359 326 600 314.359 600 300Z" fill="#848ED9"/>
<path d="M120 2H122V320H120V2Z" fill="#E6E6E6"/>
<path d="M477 2H479V320H477V2Z" fill="#E6E6E6"/>
<path d="M358 2H360V320H358V2Z" fill="#E6E6E6"/>
<path d="M239 2H241V320H239V2Z" fill="#E6E6E6"/>
<path d="M31 142C31 136.477 35.4772 132 41 132H81C86.5228 132 91 136.477 91 142V182C91 187.523 86.5228 192 81 192H41C35.4772 192 31 187.523 31 182V142Z" fill="#848ED9"/>
<path d="M54.5128 173.256C53.8515 173.256 53.3395 173.075 52.9768 172.712C52.6355 172.328 52.4648 171.806 52.4648 171.144V152.52C52.4648 151.838 52.6462 151.326 53.0088 150.984C53.3715 150.622 53.8835 150.44 54.5448 150.44H62.2568C64.7315 150.44 66.6408 151.038 67.9848 152.232C69.3288 153.406 70.0008 155.059 70.0008 157.192C70.0008 158.579 69.6915 159.774 69.0728 160.776C68.4755 161.779 67.6008 162.547 66.4488 163.08C65.2968 163.614 63.8995 163.88 62.2568 163.88L62.5448 163.4H63.6008C64.4755 163.4 65.2328 163.614 65.8728 164.04C66.5342 164.467 67.1102 165.139 67.6008 166.056L70.0008 170.504C70.2568 170.952 70.3742 171.39 70.3528 171.816C70.3315 172.243 70.1715 172.595 69.8728 172.872C69.5742 173.128 69.1368 173.256 68.5608 173.256C67.9848 173.256 67.5155 173.139 67.1528 172.904C66.7902 172.648 66.4702 172.264 66.1928 171.752L62.9608 165.8C62.5768 165.075 62.1182 164.595 61.5848 164.36C61.0728 164.104 60.4115 163.976 59.6008 163.976H56.5608V171.144C56.5608 171.806 56.3902 172.328 56.0488 172.712C55.7075 173.075 55.1955 173.256 54.5128 173.256ZM56.5608 160.936H61.5528C63.0248 160.936 64.1342 160.638 64.8808 160.04C65.6488 159.422 66.0328 158.504 66.0328 157.288C66.0328 156.094 65.6488 155.198 64.8808 154.6C64.1342 153.982 63.0248 153.672 61.5528 153.672H56.5608V160.936Z" fill="#F8F8F8"/>
<path d="M151 56C151 50.4772 155.477 46 161 46H201C206.523 46 211 50.4772 211 56V96C211 101.523 206.523 106 201 106H161C155.477 106 151 101.523 151 96V56Z" fill="#848ED9"/>
<path d="M171.383 87.2556C170.786 87.2556 170.327 87.0849 170.007 86.7436C169.687 86.4023 169.527 85.9329 169.527 85.3356V66.1036C169.527 65.4849 169.698 65.0156 170.039 64.6956C170.381 64.3543 170.85 64.1836 171.447 64.1836C171.981 64.1836 172.397 64.2903 172.695 64.5036C173.015 64.6956 173.303 65.0369 173.559 65.5276L181.463 80.1516H180.439L188.343 65.5276C188.599 65.0369 188.877 64.6956 189.175 64.5036C189.474 64.2903 189.89 64.1836 190.423 64.1836C191.021 64.1836 191.479 64.3543 191.799 64.6956C192.119 65.0156 192.279 65.4849 192.279 66.1036V85.3356C192.279 85.9329 192.119 86.4023 191.799 86.7436C191.501 87.0849 191.042 87.2556 190.423 87.2556C189.826 87.2556 189.367 87.0849 189.047 86.7436C188.727 86.4023 188.567 85.9329 188.567 85.3356V70.5196H189.271L182.551 82.7756C182.338 83.1383 182.114 83.4049 181.879 83.5756C181.645 83.7463 181.325 83.8316 180.919 83.8316C180.514 83.8316 180.183 83.7463 179.927 83.5756C179.671 83.3836 179.447 83.1169 179.255 82.7756L172.471 70.4876H173.239V85.3356C173.239 85.9329 173.079 86.4023 172.759 86.7436C172.461 87.0849 172.002 87.2556 171.383 87.2556Z" fill="#F8F8F8"/>
<path d="M271 237C271 231.477 275.477 227 281 227H321C326.523 227 331 231.477 331 237V277C331 282.523 326.523 287 321 287H281C275.477 287 271 282.523 271 277V237Z" fill="#848ED9"/>
<path d="M301.241 268.32C300.302 268.32 299.364 268.245 298.425 268.096C297.486 267.968 296.601 267.765 295.769 267.488C294.937 267.189 294.19 266.827 293.529 266.4C293.145 266.144 292.878 265.835 292.729 265.472C292.58 265.109 292.526 264.757 292.569 264.416C292.633 264.053 292.772 263.744 292.985 263.488C293.22 263.211 293.508 263.04 293.849 262.976C294.19 262.912 294.564 263.008 294.969 263.264C295.908 263.819 296.9 264.224 297.945 264.48C298.99 264.736 300.089 264.864 301.241 264.864C302.926 264.864 304.153 264.587 304.921 264.032C305.689 263.456 306.073 262.72 306.073 261.824C306.073 261.077 305.796 260.491 305.241 260.064C304.708 259.637 303.78 259.285 302.457 259.008L298.937 258.272C296.91 257.845 295.396 257.131 294.393 256.128C293.412 255.104 292.921 253.76 292.921 252.096C292.921 251.051 293.134 250.101 293.561 249.248C293.988 248.395 294.585 247.659 295.353 247.04C296.142 246.421 297.07 245.952 298.137 245.632C299.225 245.291 300.42 245.12 301.721 245.12C303.001 245.12 304.217 245.28 305.369 245.6C306.521 245.92 307.556 246.389 308.473 247.008C308.814 247.243 309.038 247.531 309.145 247.872C309.273 248.213 309.305 248.555 309.241 248.896C309.177 249.216 309.028 249.493 308.793 249.728C308.558 249.963 308.26 250.101 307.897 250.144C307.556 250.187 307.161 250.08 306.713 249.824C305.924 249.376 305.124 249.056 304.313 248.864C303.502 248.672 302.628 248.576 301.689 248.576C300.708 248.576 299.865 248.715 299.161 248.992C298.457 249.269 297.913 249.664 297.529 250.176C297.166 250.667 296.985 251.253 296.985 251.936C296.985 252.704 297.241 253.323 297.753 253.792C298.265 254.24 299.14 254.592 300.377 254.848L303.865 255.584C305.977 256.032 307.545 256.736 308.569 257.696C309.614 258.656 310.137 259.936 310.137 261.536C310.137 262.56 309.924 263.488 309.497 264.32C309.092 265.152 308.494 265.867 307.705 266.464C306.937 267.061 306.009 267.52 304.921 267.84C303.833 268.16 302.606 268.32 301.241 268.32Z" fill="#F8F8F8"/>
<path d="M389 120C389 114.477 393.477 110 399 110H439C444.523 110 449 114.477 449 120V160C449 165.523 444.523 170 439 170H399C393.477 170 389 165.523 389 160V120Z" fill="#848ED9"/>
<path d="M418.952 151.256C418.291 151.256 417.779 151.075 417.416 150.712C417.075 150.328 416.904 149.806 416.904 149.144V131.864H410.664C410.11 131.864 409.672 131.715 409.352 131.416C409.054 131.096 408.904 130.67 408.904 130.136C408.904 129.582 409.054 129.166 409.352 128.888C409.672 128.59 410.11 128.44 410.664 128.44H427.24C427.795 128.44 428.222 128.59 428.52 128.888C428.84 129.166 429 129.582 429 130.136C429 130.67 428.84 131.096 428.52 131.416C428.222 131.715 427.795 131.864 427.24 131.864H421V149.144C421 149.806 420.83 150.328 420.488 150.712C420.147 151.075 419.635 151.256 418.952 151.256Z" fill="#F8F8F8"/>
<path d="M508 35C508 29.4772 512.477 25 518 25H558C563.523 25 568 29.4772 568 35V75C568 80.5228 563.523 85 558 85H518C512.477 85 508 80.5228 508 75V35Z" fill="#848ED9"/>
<path d="M539.313 66.3201C536.817 66.3201 534.705 65.8508 532.977 64.9121C531.27 63.9735 529.969 62.6401 529.073 60.9121C528.177 59.1841 527.729 57.1361 527.729 54.7681C527.729 52.9761 527.985 51.3655 528.497 49.9361C529.03 48.5068 529.787 47.2908 530.769 46.2881C531.771 45.2641 532.987 44.4855 534.417 43.9521C535.846 43.3975 537.467 43.1201 539.281 43.1201C540.475 43.1201 541.67 43.2695 542.865 43.5681C544.081 43.8455 545.222 44.3255 546.289 45.0081C546.651 45.2428 546.886 45.5308 546.993 45.8721C547.121 46.2135 547.142 46.5655 547.057 46.9281C546.971 47.2695 546.811 47.5681 546.577 47.8241C546.342 48.0801 546.043 48.2401 545.681 48.3041C545.339 48.3681 544.955 48.2828 544.529 48.0481C543.718 47.5788 542.897 47.2375 542.065 47.0241C541.233 46.8108 540.305 46.7041 539.281 46.7041C537.702 46.7041 536.369 47.0241 535.281 47.6641C534.193 48.2828 533.371 49.1895 532.817 50.3841C532.283 51.5788 532.017 53.0401 532.017 54.7681C532.017 57.3921 532.646 59.3868 533.905 60.7521C535.163 62.1175 537.03 62.8001 539.505 62.8001C540.358 62.8001 541.222 62.7148 542.097 62.5441C542.971 62.3735 543.825 62.1388 544.657 61.8401L543.857 63.6641V56.8481H540.337C539.803 56.8481 539.387 56.7095 539.089 56.4321C538.811 56.1548 538.673 55.7815 538.673 55.3121C538.673 54.8215 538.811 54.4481 539.089 54.1921C539.387 53.9361 539.803 53.8081 540.337 53.8081H545.617C546.15 53.8081 546.555 53.9575 546.833 54.2561C547.131 54.5335 547.281 54.9388 547.281 55.4721V63.2481C547.281 63.7175 547.185 64.1121 546.993 64.4321C546.822 64.7521 546.534 64.9868 546.129 65.1361C545.19 65.4775 544.113 65.7655 542.897 66.0001C541.681 66.2135 540.486 66.3201 539.313 66.3201Z" fill="#F8F8F8"/>
</svg>
