<svg width="600" height="130" viewBox="0 0 600 130" fill="none" xmlns="http://www.w3.org/2000/svg">
<g filter="url(#filter0_d_347_291)">
<path d="M140 20H480V90C480 101.046 471.046 110 460 110H160C148.954 110 140 101.046 140 90V20Z" fill="#F4F4F4"/>
</g>
<path d="M216.408 72.9998C215.912 72.9998 215.528 72.8638 215.256 72.5918C214.984 72.3038 214.848 71.9118 214.848 71.4158V57.5678C214.848 57.0558 214.976 56.6718 215.232 56.4158C215.504 56.1438 215.888 56.0078 216.384 56.0078C216.88 56.0078 217.256 56.1438 217.512 56.4158C217.784 56.6718 217.92 57.0558 217.92 57.5678V70.3838H224.88C225.312 70.3838 225.64 70.4958 225.864 70.7198C226.104 70.9438 226.224 71.2638 226.224 71.6798C226.224 72.0958 226.104 72.4238 225.864 72.6638C225.64 72.8878 225.312 72.9998 224.88 72.9998H216.408Z" fill="#848ED9"/>
<path d="M233.703 73.2398C232.375 73.2398 231.231 72.9918 230.271 72.4958C229.311 71.9998 228.567 71.2958 228.039 70.3838C227.527 69.4718 227.271 68.3918 227.271 67.1438C227.271 65.9278 227.519 64.8638 228.015 63.9518C228.527 63.0398 229.223 62.3278 230.103 61.8158C230.999 61.2878 232.015 61.0238 233.151 61.0238C233.983 61.0238 234.727 61.1598 235.383 61.4318C236.055 61.7038 236.623 62.0958 237.087 62.6078C237.567 63.1198 237.927 63.7438 238.167 64.4798C238.423 65.1998 238.551 66.0158 238.551 66.9278C238.551 67.2158 238.447 67.4398 238.239 67.5998C238.047 67.7438 237.767 67.8158 237.399 67.8158H229.695V66.0878H236.439L236.055 66.4478C236.055 65.7118 235.943 65.0958 235.719 64.5998C235.511 64.1038 235.199 63.7278 234.783 63.4718C234.383 63.1998 233.879 63.0638 233.271 63.0638C232.599 63.0638 232.023 63.2238 231.543 63.5438C231.079 63.8478 230.719 64.2878 230.463 64.8638C230.223 65.4238 230.103 66.0958 230.103 66.8798V67.0478C230.103 68.3598 230.407 69.3438 231.015 69.9998C231.639 70.6398 232.551 70.9598 233.751 70.9598C234.167 70.9598 234.631 70.9118 235.143 70.8158C235.671 70.7038 236.167 70.5198 236.631 70.2638C236.967 70.0718 237.263 69.9918 237.519 70.0238C237.775 70.0398 237.975 70.1278 238.119 70.2878C238.279 70.4478 238.375 70.6478 238.407 70.8878C238.439 71.1118 238.391 71.3438 238.263 71.5838C238.151 71.8238 237.951 72.0318 237.663 72.2078C237.103 72.5598 236.455 72.8238 235.719 72.9998C234.999 73.1598 234.327 73.2398 233.703 73.2398Z" fill="#848ED9"/>
<path d="M245.491 73.1918C245.091 73.1918 244.739 73.0878 244.435 72.8798C244.147 72.6718 243.907 72.3518 243.715 71.9198L239.899 63.0638C239.755 62.7118 239.699 62.3838 239.731 62.0798C239.779 61.7758 239.923 61.5358 240.163 61.3598C240.419 61.1678 240.763 61.0718 241.195 61.0718C241.563 61.0718 241.859 61.1598 242.083 61.3358C242.307 61.4958 242.507 61.8078 242.683 62.2718L245.923 70.3598H245.203L248.539 62.2478C248.715 61.7998 248.915 61.4958 249.139 61.3358C249.379 61.1598 249.699 61.0718 250.099 61.0718C250.451 61.0718 250.731 61.1678 250.939 61.3598C251.147 61.5358 251.275 61.7758 251.323 62.0798C251.371 62.3678 251.315 62.6878 251.155 63.0398L247.267 71.9198C247.091 72.3518 246.851 72.6718 246.547 72.8798C246.259 73.0878 245.907 73.1918 245.491 73.1918Z" fill="#848ED9"/>
<path d="M258.945 73.2398C257.617 73.2398 256.473 72.9918 255.513 72.4958C254.553 71.9998 253.809 71.2958 253.281 70.3838C252.769 69.4718 252.513 68.3918 252.513 67.1438C252.513 65.9278 252.761 64.8638 253.257 63.9518C253.769 63.0398 254.465 62.3278 255.345 61.8158C256.241 61.2878 257.257 61.0238 258.393 61.0238C259.225 61.0238 259.969 61.1598 260.625 61.4318C261.297 61.7038 261.865 62.0958 262.329 62.6078C262.809 63.1198 263.169 63.7438 263.409 64.4798C263.665 65.1998 263.793 66.0158 263.793 66.9278C263.793 67.2158 263.689 67.4398 263.481 67.5998C263.289 67.7438 263.009 67.8158 262.641 67.8158H254.937V66.0878H261.681L261.297 66.4478C261.297 65.7118 261.185 65.0958 260.961 64.5998C260.753 64.1038 260.441 63.7278 260.025 63.4718C259.625 63.1998 259.121 63.0638 258.513 63.0638C257.841 63.0638 257.265 63.2238 256.785 63.5438C256.321 63.8478 255.961 64.2878 255.705 64.8638C255.465 65.4238 255.345 66.0958 255.345 66.8798V67.0478C255.345 68.3598 255.649 69.3438 256.257 69.9998C256.881 70.6398 257.793 70.9598 258.993 70.9598C259.409 70.9598 259.873 70.9118 260.385 70.8158C260.913 70.7038 261.409 70.5198 261.873 70.2638C262.209 70.0718 262.505 69.9918 262.761 70.0238C263.017 70.0398 263.217 70.1278 263.361 70.2878C263.521 70.4478 263.617 70.6478 263.649 70.8878C263.681 71.1118 263.633 71.3438 263.505 71.5838C263.393 71.8238 263.193 72.0318 262.905 72.2078C262.345 72.5598 261.697 72.8238 260.961 72.9998C260.241 73.1598 259.569 73.2398 258.945 73.2398Z" fill="#848ED9"/>
<path d="M270.177 73.2398C268.849 73.2398 267.849 72.8638 267.177 72.1118C266.505 71.3438 266.169 70.2238 266.169 68.7518V57.3998C266.169 56.9038 266.297 56.5278 266.553 56.2718C266.809 56.0158 267.177 55.8878 267.657 55.8878C268.137 55.8878 268.505 56.0158 268.761 56.2718C269.033 56.5278 269.169 56.9038 269.169 57.3998V68.6078C269.169 69.3438 269.321 69.8878 269.625 70.2398C269.945 70.5918 270.393 70.7678 270.969 70.7678C271.097 70.7678 271.217 70.7678 271.329 70.7678C271.441 70.7518 271.553 70.7358 271.665 70.7198C271.889 70.6878 272.041 70.7518 272.121 70.9118C272.201 71.0558 272.241 71.3598 272.241 71.8238C272.241 72.2238 272.161 72.5358 272.001 72.7598C271.841 72.9838 271.577 73.1198 271.209 73.1678C271.049 73.1838 270.881 73.1998 270.705 73.2158C270.529 73.2318 270.353 73.2398 270.177 73.2398Z" fill="#848ED9"/>
<path d="M288.509 73.2398C286.749 73.2398 285.237 72.8878 283.973 72.1838C282.725 71.4638 281.765 70.4558 281.093 69.1598C280.421 67.8478 280.085 66.3038 280.085 64.5278C280.085 63.1998 280.277 62.0078 280.661 60.9518C281.045 59.8798 281.597 58.9678 282.317 58.2158C283.037 57.4478 283.917 56.8638 284.957 56.4638C286.013 56.0478 287.197 55.8398 288.509 55.8398C289.389 55.8398 290.253 55.9518 291.101 56.1758C291.949 56.3998 292.693 56.7198 293.333 57.1358C293.669 57.3438 293.893 57.5998 294.005 57.9038C294.117 58.1918 294.141 58.4798 294.077 58.7678C294.013 59.0398 293.877 59.2718 293.669 59.4638C293.477 59.6558 293.229 59.7678 292.925 59.7998C292.637 59.8158 292.317 59.7118 291.965 59.4878C291.469 59.1678 290.933 58.9358 290.357 58.7918C289.781 58.6478 289.197 58.5758 288.605 58.5758C287.469 58.5758 286.509 58.8078 285.725 59.2718C284.941 59.7358 284.349 60.4078 283.949 61.2878C283.549 62.1678 283.349 63.2478 283.349 64.5278C283.349 65.7918 283.549 66.8718 283.949 67.7678C284.349 68.6638 284.941 69.3438 285.725 69.8078C286.509 70.2718 287.469 70.5038 288.605 70.5038C289.213 70.5038 289.813 70.4318 290.405 70.2878C290.997 70.1278 291.557 69.8878 292.085 69.5678C292.437 69.3598 292.749 69.2718 293.021 69.3038C293.309 69.3198 293.549 69.4158 293.741 69.5918C293.933 69.7678 294.061 69.9918 294.125 70.2638C294.189 70.5198 294.173 70.7918 294.077 71.0798C293.981 71.3518 293.789 71.5918 293.501 71.7998C292.861 72.2638 292.093 72.6238 291.197 72.8798C290.317 73.1198 289.421 73.2398 288.509 73.2398Z" fill="#848ED9"/>
<path d="M301.169 73.2398C299.953 73.2398 298.897 72.9918 298.001 72.4958C297.105 71.9998 296.409 71.2958 295.913 70.3838C295.417 69.4558 295.169 68.3678 295.169 67.1198C295.169 66.1758 295.305 65.3358 295.577 64.5998C295.865 63.8478 296.273 63.2078 296.801 62.6798C297.329 62.1358 297.961 61.7278 298.697 61.4558C299.433 61.1678 300.257 61.0238 301.169 61.0238C302.385 61.0238 303.441 61.2718 304.337 61.7678C305.233 62.2638 305.929 62.9678 306.425 63.8798C306.921 64.7918 307.169 65.8718 307.169 67.1198C307.169 68.0638 307.025 68.9118 306.737 69.6638C306.465 70.4158 306.065 71.0638 305.537 71.6078C305.009 72.1358 304.377 72.5438 303.641 72.8318C302.905 73.1038 302.081 73.2398 301.169 73.2398ZM301.169 70.9598C301.761 70.9598 302.281 70.8158 302.729 70.5278C303.177 70.2398 303.521 69.8158 303.761 69.2558C304.017 68.6798 304.145 67.9678 304.145 67.1198C304.145 65.8398 303.873 64.8878 303.329 64.2638C302.785 63.6238 302.065 63.3038 301.169 63.3038C300.577 63.3038 300.057 63.4478 299.609 63.7358C299.161 64.0078 298.809 64.4318 298.553 65.0078C298.313 65.5678 298.193 66.2718 298.193 67.1198C298.193 68.3838 298.465 69.3438 299.009 69.9998C299.553 70.6398 300.273 70.9598 301.169 70.9598Z" fill="#848ED9"/>
<path d="M311.182 73.1918C310.702 73.1918 310.334 73.0638 310.078 72.8078C309.822 72.5358 309.694 72.1518 309.694 71.6558V62.5838C309.694 62.0878 309.822 61.7118 310.078 61.4558C310.334 61.1998 310.694 61.0718 311.158 61.0718C311.622 61.0718 311.982 61.1998 312.238 61.4558C312.494 61.7118 312.622 62.0878 312.622 62.5838V64.3358L312.358 63.6158C312.678 62.8158 313.174 62.1838 313.846 61.7198C314.518 61.2558 315.318 61.0238 316.246 61.0238C317.19 61.0238 317.966 61.2478 318.574 61.6958C319.182 62.1438 319.606 62.8318 319.846 63.7598H319.51C319.83 62.9118 320.358 62.2478 321.094 61.7678C321.83 61.2718 322.678 61.0238 323.638 61.0238C324.534 61.0238 325.27 61.1998 325.846 61.5518C326.438 61.9038 326.878 62.4398 327.166 63.1598C327.454 63.8638 327.598 64.7598 327.598 65.8478V71.6558C327.598 72.1518 327.462 72.5358 327.19 72.8078C326.934 73.0638 326.566 73.1918 326.086 73.1918C325.606 73.1918 325.238 73.0638 324.982 72.8078C324.726 72.5358 324.598 72.1518 324.598 71.6558V65.9678C324.598 65.0718 324.446 64.4158 324.142 63.9998C323.854 63.5838 323.358 63.3758 322.654 63.3758C321.87 63.3758 321.254 63.6558 320.806 64.2158C320.358 64.7598 320.134 65.5198 320.134 66.4958V71.6558C320.134 72.1518 320.006 72.5358 319.75 72.8078C319.494 73.0638 319.126 73.1918 318.646 73.1918C318.166 73.1918 317.79 73.0638 317.518 72.8078C317.262 72.5358 317.134 72.1518 317.134 71.6558V65.9678C317.134 65.0718 316.982 64.4158 316.678 63.9998C316.39 63.5838 315.902 63.3758 315.214 63.3758C314.43 63.3758 313.814 63.6558 313.366 64.2158C312.918 64.7598 312.694 65.5198 312.694 66.4958V71.6558C312.694 72.6798 312.19 73.1918 311.182 73.1918Z" fill="#848ED9"/>
<path d="M332.18 77.5118C331.7 77.5118 331.332 77.3838 331.076 77.1278C330.82 76.8718 330.692 76.4958 330.692 75.9998V62.5838C330.692 62.0878 330.82 61.7118 331.076 61.4558C331.332 61.1998 331.692 61.0718 332.156 61.0718C332.636 61.0718 333.004 61.1998 333.26 61.4558C333.516 61.7118 333.644 62.0878 333.644 62.5838V64.4558L333.38 63.7358C333.62 62.9198 334.108 62.2638 334.844 61.7678C335.596 61.2718 336.468 61.0238 337.46 61.0238C338.484 61.0238 339.38 61.2718 340.148 61.7678C340.932 62.2638 341.54 62.9678 341.972 63.8798C342.404 64.7758 342.62 65.8558 342.62 67.1198C342.62 68.3678 342.404 69.4558 341.972 70.3838C341.54 71.2958 340.94 71.9998 340.172 72.4958C339.404 72.9918 338.5 73.2398 337.46 73.2398C336.484 73.2398 335.628 72.9998 334.892 72.5198C334.156 72.0238 333.66 71.3838 333.404 70.5998H333.692V75.9998C333.692 76.4958 333.556 76.8718 333.284 77.1278C333.028 77.3838 332.66 77.5118 332.18 77.5118ZM336.62 70.9598C337.212 70.9598 337.732 70.8158 338.18 70.5278C338.628 70.2398 338.972 69.8158 339.212 69.2558C339.468 68.6798 339.596 67.9678 339.596 67.1198C339.596 65.8398 339.324 64.8878 338.78 64.2638C338.236 63.6238 337.516 63.3038 336.62 63.3038C336.028 63.3038 335.508 63.4478 335.06 63.7358C334.612 64.0078 334.26 64.4318 334.004 65.0078C333.764 65.5678 333.644 66.2718 333.644 67.1198C333.644 68.3838 333.916 69.3438 334.46 69.9998C335.004 70.6398 335.724 70.9598 336.62 70.9598Z" fill="#848ED9"/>
<path d="M349.091 73.2398C347.763 73.2398 346.763 72.8638 346.091 72.1118C345.419 71.3438 345.083 70.2238 345.083 68.7518V57.3998C345.083 56.9038 345.211 56.5278 345.467 56.2718C345.723 56.0158 346.091 55.8878 346.571 55.8878C347.051 55.8878 347.419 56.0158 347.675 56.2718C347.947 56.5278 348.083 56.9038 348.083 57.3998V68.6078C348.083 69.3438 348.235 69.8878 348.539 70.2398C348.859 70.5918 349.307 70.7678 349.883 70.7678C350.011 70.7678 350.131 70.7678 350.243 70.7678C350.355 70.7518 350.467 70.7358 350.579 70.7198C350.803 70.6878 350.955 70.7518 351.035 70.9118C351.115 71.0558 351.155 71.3598 351.155 71.8238C351.155 72.2238 351.075 72.5358 350.915 72.7598C350.755 72.9838 350.491 73.1198 350.123 73.1678C349.963 73.1838 349.795 73.1998 349.619 73.2158C349.443 73.2318 349.267 73.2398 349.091 73.2398Z" fill="#848ED9"/>
<path d="M358.414 73.2398C357.086 73.2398 355.942 72.9918 354.982 72.4958C354.022 71.9998 353.278 71.2958 352.75 70.3838C352.238 69.4718 351.982 68.3918 351.982 67.1438C351.982 65.9278 352.23 64.8638 352.726 63.9518C353.238 63.0398 353.934 62.3278 354.814 61.8158C355.71 61.2878 356.726 61.0238 357.862 61.0238C358.694 61.0238 359.438 61.1598 360.094 61.4318C360.766 61.7038 361.334 62.0958 361.798 62.6078C362.278 63.1198 362.638 63.7438 362.878 64.4798C363.134 65.1998 363.262 66.0158 363.262 66.9278C363.262 67.2158 363.158 67.4398 362.95 67.5998C362.758 67.7438 362.478 67.8158 362.11 67.8158H354.406V66.0878H361.15L360.766 66.4478C360.766 65.7118 360.654 65.0958 360.43 64.5998C360.222 64.1038 359.91 63.7278 359.494 63.4718C359.094 63.1998 358.59 63.0638 357.982 63.0638C357.31 63.0638 356.734 63.2238 356.254 63.5438C355.79 63.8478 355.43 64.2878 355.174 64.8638C354.934 65.4238 354.814 66.0958 354.814 66.8798V67.0478C354.814 68.3598 355.118 69.3438 355.726 69.9998C356.35 70.6398 357.262 70.9598 358.462 70.9598C358.878 70.9598 359.342 70.9118 359.854 70.8158C360.382 70.7038 360.878 70.5198 361.342 70.2638C361.678 70.0718 361.974 69.9918 362.23 70.0238C362.486 70.0398 362.686 70.1278 362.83 70.2878C362.99 70.4478 363.086 70.6478 363.118 70.8878C363.15 71.1118 363.102 71.3438 362.974 71.5838C362.862 71.8238 362.662 72.0318 362.374 72.2078C361.814 72.5598 361.166 72.8238 360.43 72.9998C359.71 73.1598 359.038 73.2398 358.414 73.2398Z" fill="#848ED9"/>
<path d="M370.967 73.2398C369.927 73.2398 369.055 73.0638 368.351 72.7118C367.663 72.3598 367.151 71.8478 366.815 71.1758C366.479 70.4878 366.311 69.6398 366.311 68.6318V63.5198H365.063C364.679 63.5198 364.383 63.4238 364.175 63.2318C363.967 63.0238 363.863 62.7438 363.863 62.3918C363.863 62.0238 363.967 61.7438 364.175 61.5518C364.383 61.3598 364.679 61.2638 365.063 61.2638H366.311V59.0798C366.311 58.5838 366.439 58.2078 366.695 57.9518C366.967 57.6958 367.343 57.5678 367.823 57.5678C368.303 57.5678 368.671 57.6958 368.927 57.9518C369.183 58.2078 369.311 58.5838 369.311 59.0798V61.2638H371.855C372.239 61.2638 372.535 61.3598 372.743 61.5518C372.951 61.7438 373.055 62.0238 373.055 62.3918C373.055 62.7438 372.951 63.0238 372.743 63.2318C372.535 63.4238 372.239 63.5198 371.855 63.5198H369.311V68.4638C369.311 69.2318 369.479 69.8078 369.815 70.1918C370.151 70.5758 370.695 70.7678 371.447 70.7678C371.719 70.7678 371.959 70.7438 372.167 70.6958C372.375 70.6478 372.559 70.6158 372.719 70.5998C372.911 70.5838 373.071 70.6478 373.199 70.7918C373.327 70.9198 373.391 71.1918 373.391 71.6078C373.391 71.9278 373.335 72.2158 373.223 72.4718C373.127 72.7118 372.943 72.8798 372.671 72.9758C372.463 73.0398 372.191 73.0958 371.855 73.1438C371.519 73.2078 371.223 73.2398 370.967 73.2398Z" fill="#848ED9"/>
<path d="M380.469 73.2398C379.141 73.2398 377.997 72.9918 377.037 72.4958C376.077 71.9998 375.333 71.2958 374.805 70.3838C374.293 69.4718 374.037 68.3918 374.037 67.1438C374.037 65.9278 374.285 64.8638 374.781 63.9518C375.293 63.0398 375.989 62.3278 376.869 61.8158C377.765 61.2878 378.781 61.0238 379.917 61.0238C380.749 61.0238 381.493 61.1598 382.149 61.4318C382.821 61.7038 383.389 62.0958 383.853 62.6078C384.333 63.1198 384.693 63.7438 384.933 64.4798C385.189 65.1998 385.317 66.0158 385.317 66.9278C385.317 67.2158 385.213 67.4398 385.005 67.5998C384.813 67.7438 384.533 67.8158 384.165 67.8158H376.461V66.0878H383.205L382.821 66.4478C382.821 65.7118 382.709 65.0958 382.485 64.5998C382.277 64.1038 381.965 63.7278 381.549 63.4718C381.149 63.1998 380.645 63.0638 380.037 63.0638C379.365 63.0638 378.789 63.2238 378.309 63.5438C377.845 63.8478 377.485 64.2878 377.229 64.8638C376.989 65.4238 376.869 66.0958 376.869 66.8798V67.0478C376.869 68.3598 377.173 69.3438 377.781 69.9998C378.405 70.6398 379.317 70.9598 380.517 70.9598C380.933 70.9598 381.397 70.9118 381.909 70.8158C382.437 70.7038 382.933 70.5198 383.397 70.2638C383.733 70.0718 384.029 69.9918 384.285 70.0238C384.541 70.0398 384.741 70.1278 384.885 70.2878C385.045 70.4478 385.141 70.6478 385.173 70.8878C385.205 71.1118 385.157 71.3438 385.029 71.5838C384.917 71.8238 384.717 72.0318 384.429 72.2078C383.869 72.5598 383.221 72.8238 382.485 72.9998C381.765 73.1598 381.093 73.2398 380.469 73.2398Z" fill="#848ED9"/>
<path d="M392.204 73.2398C391.18 73.2398 390.276 72.9918 389.492 72.4958C388.724 71.9998 388.124 71.2958 387.692 70.3838C387.26 69.4558 387.044 68.3678 387.044 67.1198C387.044 65.8558 387.26 64.7758 387.692 63.8798C388.124 62.9678 388.724 62.2638 389.492 61.7678C390.276 61.2718 391.18 61.0238 392.204 61.0238C393.18 61.0238 394.028 61.2638 394.748 61.7438C395.484 62.2238 395.98 62.8558 396.236 63.6398H395.972V57.3998C395.972 56.9038 396.1 56.5278 396.356 56.2718C396.612 56.0158 396.98 55.8878 397.46 55.8878C397.94 55.8878 398.308 56.0158 398.564 56.2718C398.836 56.5278 398.972 56.9038 398.972 57.3998V71.6558C398.972 72.1518 398.844 72.5358 398.588 72.8078C398.332 73.0638 397.964 73.1918 397.484 73.1918C397.004 73.1918 396.636 73.0638 396.38 72.8078C396.124 72.5358 395.996 72.1518 395.996 71.6558V69.7838L396.26 70.5038C396.02 71.3358 395.532 71.9998 394.796 72.4958C394.06 72.9918 393.196 73.2398 392.204 73.2398ZM393.044 70.9598C393.636 70.9598 394.156 70.8158 394.604 70.5278C395.052 70.2398 395.396 69.8158 395.636 69.2558C395.892 68.6798 396.02 67.9678 396.02 67.1198C396.02 65.8398 395.748 64.8878 395.204 64.2638C394.66 63.6238 393.94 63.3038 393.044 63.3038C392.452 63.3038 391.932 63.4478 391.484 63.7358C391.036 64.0078 390.684 64.4318 390.428 65.0078C390.188 65.5678 390.068 66.2718 390.068 67.1198C390.068 68.3838 390.34 69.3438 390.884 69.9998C391.428 70.6398 392.148 70.9598 393.044 70.9598Z" fill="#848ED9"/>
<path d="M403.523 68.1278C403.219 68.1278 402.979 68.0318 402.803 67.8398C402.643 67.6478 402.547 67.3758 402.515 67.0238L401.795 57.8558C401.747 57.2638 401.875 56.7918 402.179 56.4398C402.483 56.0718 402.931 55.8878 403.523 55.8878C404.099 55.8878 404.531 56.0718 404.819 56.4398C405.123 56.7918 405.251 57.2638 405.203 57.8558L404.483 67.0238C404.467 67.3758 404.371 67.6478 404.195 67.8398C404.035 68.0318 403.811 68.1278 403.523 68.1278ZM403.523 73.1198C402.979 73.1198 402.539 72.9518 402.203 72.6158C401.883 72.2798 401.723 71.8478 401.723 71.3198C401.723 70.8078 401.883 70.3918 402.203 70.0718C402.539 69.7358 402.979 69.5678 403.523 69.5678C404.083 69.5678 404.515 69.7358 404.819 70.0718C405.139 70.3918 405.299 70.8078 405.299 71.3198C405.299 71.8478 405.139 72.2798 404.819 72.6158C404.515 72.9518 404.083 73.1198 403.523 73.1198Z" fill="#848ED9"/>
<defs>
<filter id="filter0_d_347_291" x="120" y="0" width="380" height="130" filterUnits="userSpaceOnUse" color-interpolation-filters="sRGB">
<feFlood flood-opacity="0" result="BackgroundImageFix"/>
<feColorMatrix in="SourceAlpha" type="matrix" values="0 0 0 0 0 0 0 0 0 0 0 0 0 0 0 0 0 0 127 0" result="hardAlpha"/>
<feOffset/>
<feGaussianBlur stdDeviation="10"/>
<feComposite in2="hardAlpha" operator="out"/>
<feColorMatrix type="matrix" values="0 0 0 0 0.045 0 0 0 0 0.075 0 0 0 0 0.3 0 0 0 0.15 0"/>
<feBlend mode="normal" in2="BackgroundImageFix" result="effect1_dropShadow_347_291"/>
<feBlend mode="normal" in="SourceGraphic" in2="effect1_dropShadow_347_291" result="shape"/>
</filter>
</defs>
</svg>
