<svg width="600" height="110" viewBox="0 0 600 110" fill="none" xmlns="http://www.w3.org/2000/svg">
<path d="M140 0H480V70C480 81.0457 471.046 90 460 90H160C148.954 90 140 81.0457 140 70V0Z" fill="#FAFAFA"/>
<path d="M216.408 52.9998C215.912 52.9998 215.528 52.8638 215.256 52.5918C214.984 52.3038 214.848 51.9118 214.848 51.4158V37.5678C214.848 37.0558 214.976 36.6718 215.232 36.4158C215.504 36.1438 215.888 36.0078 216.384 36.0078C216.88 36.0078 217.256 36.1438 217.512 36.4158C217.784 36.6718 217.92 37.0558 217.92 37.5678V50.3838H224.88C225.312 50.3838 225.64 50.4958 225.864 50.7198C226.104 50.9438 226.224 51.2638 226.224 51.6798C226.224 52.0958 226.104 52.4238 225.864 52.6638C225.64 52.8878 225.312 52.9998 224.88 52.9998H216.408Z" fill="#848ED9"/>
<path d="M233.703 53.2398C232.375 53.2398 231.231 52.9918 230.271 52.4958C229.311 51.9998 228.567 51.2958 228.039 50.3838C227.527 49.4718 227.271 48.3918 227.271 47.1438C227.271 45.9278 227.519 44.8638 228.015 43.9518C228.527 43.0398 229.223 42.3278 230.103 41.8158C230.999 41.2878 232.015 41.0238 233.151 41.0238C233.983 41.0238 234.727 41.1598 235.383 41.4318C236.055 41.7038 236.623 42.0958 237.087 42.6078C237.567 43.1198 237.927 43.7438 238.167 44.4798C238.423 45.1998 238.551 46.0158 238.551 46.9278C238.551 47.2158 238.447 47.4398 238.239 47.5998C238.047 47.7438 237.767 47.8158 237.399 47.8158H229.695V46.0878H236.439L236.055 46.4478C236.055 45.7118 235.943 45.0958 235.719 44.5998C235.511 44.1038 235.199 43.7278 234.783 43.4718C234.383 43.1998 233.879 43.0638 233.271 43.0638C232.599 43.0638 232.023 43.2238 231.543 43.5438C231.079 43.8478 230.719 44.2878 230.463 44.8638C230.223 45.4238 230.103 46.0958 230.103 46.8798V47.0478C230.103 48.3598 230.407 49.3438 231.015 49.9998C231.639 50.6398 232.551 50.9598 233.751 50.9598C234.167 50.9598 234.631 50.9118 235.143 50.8158C235.671 50.7038 236.167 50.5198 236.631 50.2638C236.967 50.0718 237.263 49.9918 237.519 50.0238C237.775 50.0398 237.975 50.1278 238.119 50.2878C238.279 50.4478 238.375 50.6478 238.407 50.8878C238.439 51.1118 238.391 51.3438 238.263 51.5838C238.151 51.8238 237.951 52.0318 237.663 52.2078C237.103 52.5598 236.455 52.8238 235.719 52.9998C234.999 53.1598 234.327 53.2398 233.703 53.2398Z" fill="#848ED9"/>
<path d="M245.491 53.1918C245.091 53.1918 244.739 53.0878 244.435 52.8798C244.147 52.6718 243.907 52.3518 243.715 51.9198L239.899 43.0638C239.755 42.7118 239.699 42.3838 239.731 42.0798C239.779 41.7758 239.923 41.5358 240.163 41.3598C240.419 41.1678 240.763 41.0718 241.195 41.0718C241.563 41.0718 241.859 41.1598 242.083 41.3358C242.307 41.4958 242.507 41.8078 242.683 42.2718L245.923 50.3598H245.203L248.539 42.2478C248.715 41.7998 248.915 41.4958 249.139 41.3358C249.379 41.1598 249.699 41.0718 250.099 41.0718C250.451 41.0718 250.731 41.1678 250.939 41.3598C251.147 41.5358 251.275 41.7758 251.323 42.0798C251.371 42.3678 251.315 42.6878 251.155 43.0398L247.267 51.9198C247.091 52.3518 246.851 52.6718 246.547 52.8798C246.259 53.0878 245.907 53.1918 245.491 53.1918Z" fill="#848ED9"/>
<path d="M258.945 53.2398C257.617 53.2398 256.473 52.9918 255.513 52.4958C254.553 51.9998 253.809 51.2958 253.281 50.3838C252.769 49.4718 252.513 48.3918 252.513 47.1438C252.513 45.9278 252.761 44.8638 253.257 43.9518C253.769 43.0398 254.465 42.3278 255.345 41.8158C256.241 41.2878 257.257 41.0238 258.393 41.0238C259.225 41.0238 259.969 41.1598 260.625 41.4318C261.297 41.7038 261.865 42.0958 262.329 42.6078C262.809 43.1198 263.169 43.7438 263.409 44.4798C263.665 45.1998 263.793 46.0158 263.793 46.9278C263.793 47.2158 263.689 47.4398 263.481 47.5998C263.289 47.7438 263.009 47.8158 262.641 47.8158H254.937V46.0878H261.681L261.297 46.4478C261.297 45.7118 261.185 45.0958 260.961 44.5998C260.753 44.1038 260.441 43.7278 260.025 43.4718C259.625 43.1998 259.121 43.0638 258.513 43.0638C257.841 43.0638 257.265 43.2238 256.785 43.5438C256.321 43.8478 255.961 44.2878 255.705 44.8638C255.465 45.4238 255.345 46.0958 255.345 46.8798V47.0478C255.345 48.3598 255.649 49.3438 256.257 49.9998C256.881 50.6398 257.793 50.9598 258.993 50.9598C259.409 50.9598 259.873 50.9118 260.385 50.8158C260.913 50.7038 261.409 50.5198 261.873 50.2638C262.209 50.0718 262.505 49.9918 262.761 50.0238C263.017 50.0398 263.217 50.1278 263.361 50.2878C263.521 50.4478 263.617 50.6478 263.649 50.8878C263.681 51.1118 263.633 51.3438 263.505 51.5838C263.393 51.8238 263.193 52.0318 262.905 52.2078C262.345 52.5598 261.697 52.8238 260.961 52.9998C260.241 53.1598 259.569 53.2398 258.945 53.2398Z" fill="#848ED9"/>
<path d="M270.177 53.2398C268.849 53.2398 267.849 52.8638 267.177 52.1118C266.505 51.3438 266.169 50.2238 266.169 48.7518V37.3998C266.169 36.9038 266.297 36.5278 266.553 36.2718C266.809 36.0158 267.177 35.8878 267.657 35.8878C268.137 35.8878 268.505 36.0158 268.761 36.2718C269.033 36.5278 269.169 36.9038 269.169 37.3998V48.6078C269.169 49.3438 269.321 49.8878 269.625 50.2398C269.945 50.5918 270.393 50.7678 270.969 50.7678C271.097 50.7678 271.217 50.7678 271.329 50.7678C271.441 50.7518 271.553 50.7358 271.665 50.7198C271.889 50.6878 272.041 50.7518 272.121 50.9118C272.201 51.0558 272.241 51.3598 272.241 51.8238C272.241 52.2238 272.161 52.5358 272.001 52.7598C271.841 52.9838 271.577 53.1198 271.209 53.1678C271.049 53.1838 270.881 53.1998 270.705 53.2158C270.529 53.2318 270.353 53.2398 270.177 53.2398Z" fill="#848ED9"/>
<path d="M288.509 53.2398C286.749 53.2398 285.237 52.8878 283.973 52.1838C282.725 51.4638 281.765 50.4558 281.093 49.1598C280.421 47.8478 280.085 46.3038 280.085 44.5278C280.085 43.1998 280.277 42.0078 280.661 40.9518C281.045 39.8798 281.597 38.9678 282.317 38.2158C283.037 37.4478 283.917 36.8638 284.957 36.4638C286.013 36.0478 287.197 35.8398 288.509 35.8398C289.389 35.8398 290.253 35.9518 291.101 36.1758C291.949 36.3998 292.693 36.7198 293.333 37.1358C293.669 37.3438 293.893 37.5998 294.005 37.9038C294.117 38.1918 294.141 38.4798 294.077 38.7678C294.013 39.0398 293.877 39.2718 293.669 39.4638C293.477 39.6558 293.229 39.7678 292.925 39.7998C292.637 39.8158 292.317 39.7118 291.965 39.4878C291.469 39.1678 290.933 38.9358 290.357 38.7918C289.781 38.6478 289.197 38.5758 288.605 38.5758C287.469 38.5758 286.509 38.8078 285.725 39.2718C284.941 39.7358 284.349 40.4078 283.949 41.2878C283.549 42.1678 283.349 43.2478 283.349 44.5278C283.349 45.7918 283.549 46.8718 283.949 47.7678C284.349 48.6638 284.941 49.3438 285.725 49.8078C286.509 50.2718 287.469 50.5038 288.605 50.5038C289.213 50.5038 289.813 50.4318 290.405 50.2878C290.997 50.1278 291.557 49.8878 292.085 49.5678C292.437 49.3598 292.749 49.2718 293.021 49.3038C293.309 49.3198 293.549 49.4158 293.741 49.5918C293.933 49.7678 294.061 49.9918 294.125 50.2638C294.189 50.5198 294.173 50.7918 294.077 51.0798C293.981 51.3518 293.789 51.5918 293.501 51.7998C292.861 52.2638 292.093 52.6238 291.197 52.8798C290.317 53.1198 289.421 53.2398 288.509 53.2398Z" fill="#848ED9"/>
<path d="M301.169 53.2398C299.953 53.2398 298.897 52.9918 298.001 52.4958C297.105 51.9998 296.409 51.2958 295.913 50.3838C295.417 49.4558 295.169 48.3678 295.169 47.1198C295.169 46.1758 295.305 45.3358 295.577 44.5998C295.865 43.8478 296.273 43.2078 296.801 42.6798C297.329 42.1358 297.961 41.7278 298.697 41.4558C299.433 41.1678 300.257 41.0238 301.169 41.0238C302.385 41.0238 303.441 41.2718 304.337 41.7678C305.233 42.2638 305.929 42.9678 306.425 43.8798C306.921 44.7918 307.169 45.8718 307.169 47.1198C307.169 48.0638 307.025 48.9118 306.737 49.6638C306.465 50.4158 306.065 51.0638 305.537 51.6078C305.009 52.1358 304.377 52.5438 303.641 52.8318C302.905 53.1038 302.081 53.2398 301.169 53.2398ZM301.169 50.9598C301.761 50.9598 302.281 50.8158 302.729 50.5278C303.177 50.2398 303.521 49.8158 303.761 49.2558C304.017 48.6798 304.145 47.9678 304.145 47.1198C304.145 45.8398 303.873 44.8878 303.329 44.2638C302.785 43.6238 302.065 43.3038 301.169 43.3038C300.577 43.3038 300.057 43.4478 299.609 43.7358C299.161 44.0078 298.809 44.4318 298.553 45.0078C298.313 45.5678 298.193 46.2718 298.193 47.1198C298.193 48.3838 298.465 49.3438 299.009 49.9998C299.553 50.6398 300.273 50.9598 301.169 50.9598Z" fill="#848ED9"/>
<path d="M311.182 53.1918C310.702 53.1918 310.334 53.0638 310.078 52.8078C309.822 52.5358 309.694 52.1518 309.694 51.6558V42.5838C309.694 42.0878 309.822 41.7118 310.078 41.4558C310.334 41.1998 310.694 41.0718 311.158 41.0718C311.622 41.0718 311.982 41.1998 312.238 41.4558C312.494 41.7118 312.622 42.0878 312.622 42.5838V44.3358L312.358 43.6158C312.678 42.8158 313.174 42.1838 313.846 41.7198C314.518 41.2558 315.318 41.0238 316.246 41.0238C317.19 41.0238 317.966 41.2478 318.574 41.6958C319.182 42.1438 319.606 42.8318 319.846 43.7598H319.51C319.83 42.9118 320.358 42.2478 321.094 41.7678C321.83 41.2718 322.678 41.0238 323.638 41.0238C324.534 41.0238 325.27 41.1998 325.846 41.5518C326.438 41.9038 326.878 42.4398 327.166 43.1598C327.454 43.8638 327.598 44.7598 327.598 45.8478V51.6558C327.598 52.1518 327.462 52.5358 327.19 52.8078C326.934 53.0638 326.566 53.1918 326.086 53.1918C325.606 53.1918 325.238 53.0638 324.982 52.8078C324.726 52.5358 324.598 52.1518 324.598 51.6558V45.9678C324.598 45.0718 324.446 44.4158 324.142 43.9998C323.854 43.5838 323.358 43.3758 322.654 43.3758C321.87 43.3758 321.254 43.6558 320.806 44.2158C320.358 44.7598 320.134 45.5198 320.134 46.4958V51.6558C320.134 52.1518 320.006 52.5358 319.75 52.8078C319.494 53.0638 319.126 53.1918 318.646 53.1918C318.166 53.1918 317.79 53.0638 317.518 52.8078C317.262 52.5358 317.134 52.1518 317.134 51.6558V45.9678C317.134 45.0718 316.982 44.4158 316.678 43.9998C316.39 43.5838 315.902 43.3758 315.214 43.3758C314.43 43.3758 313.814 43.6558 313.366 44.2158C312.918 44.7598 312.694 45.5198 312.694 46.4958V51.6558C312.694 52.6798 312.19 53.1918 311.182 53.1918Z" fill="#848ED9"/>
<path d="M332.18 57.5118C331.7 57.5118 331.332 57.3838 331.076 57.1278C330.82 56.8718 330.692 56.4958 330.692 55.9998V42.5838C330.692 42.0878 330.82 41.7118 331.076 41.4558C331.332 41.1998 331.692 41.0718 332.156 41.0718C332.636 41.0718 333.004 41.1998 333.26 41.4558C333.516 41.7118 333.644 42.0878 333.644 42.5838V44.4558L333.38 43.7358C333.62 42.9198 334.108 42.2638 334.844 41.7678C335.596 41.2718 336.468 41.0238 337.46 41.0238C338.484 41.0238 339.38 41.2718 340.148 41.7678C340.932 42.2638 341.54 42.9678 341.972 43.8798C342.404 44.7758 342.62 45.8558 342.62 47.1198C342.62 48.3678 342.404 49.4558 341.972 50.3838C341.54 51.2958 340.94 51.9998 340.172 52.4958C339.404 52.9918 338.5 53.2398 337.46 53.2398C336.484 53.2398 335.628 52.9998 334.892 52.5198C334.156 52.0238 333.66 51.3838 333.404 50.5998H333.692V55.9998C333.692 56.4958 333.556 56.8718 333.284 57.1278C333.028 57.3838 332.66 57.5118 332.18 57.5118ZM336.62 50.9598C337.212 50.9598 337.732 50.8158 338.18 50.5278C338.628 50.2398 338.972 49.8158 339.212 49.2558C339.468 48.6798 339.596 47.9678 339.596 47.1198C339.596 45.8398 339.324 44.8878 338.78 44.2638C338.236 43.6238 337.516 43.3038 336.62 43.3038C336.028 43.3038 335.508 43.4478 335.06 43.7358C334.612 44.0078 334.26 44.4318 334.004 45.0078C333.764 45.5678 333.644 46.2718 333.644 47.1198C333.644 48.3838 333.916 49.3438 334.46 49.9998C335.004 50.6398 335.724 50.9598 336.62 50.9598Z" fill="#848ED9"/>
<path d="M349.091 53.2398C347.763 53.2398 346.763 52.8638 346.091 52.1118C345.419 51.3438 345.083 50.2238 345.083 48.7518V37.3998C345.083 36.9038 345.211 36.5278 345.467 36.2718C345.723 36.0158 346.091 35.8878 346.571 35.8878C347.051 35.8878 347.419 36.0158 347.675 36.2718C347.947 36.5278 348.083 36.9038 348.083 37.3998V48.6078C348.083 49.3438 348.235 49.8878 348.539 50.2398C348.859 50.5918 349.307 50.7678 349.883 50.7678C350.011 50.7678 350.131 50.7678 350.243 50.7678C350.355 50.7518 350.467 50.7358 350.579 50.7198C350.803 50.6878 350.955 50.7518 351.035 50.9118C351.115 51.0558 351.155 51.3598 351.155 51.8238C351.155 52.2238 351.075 52.5358 350.915 52.7598C350.755 52.9838 350.491 53.1198 350.123 53.1678C349.963 53.1838 349.795 53.1998 349.619 53.2158C349.443 53.2318 349.267 53.2398 349.091 53.2398Z" fill="#848ED9"/>
<path d="M358.414 53.2398C357.086 53.2398 355.942 52.9918 354.982 52.4958C354.022 51.9998 353.278 51.2958 352.75 50.3838C352.238 49.4718 351.982 48.3918 351.982 47.1438C351.982 45.9278 352.23 44.8638 352.726 43.9518C353.238 43.0398 353.934 42.3278 354.814 41.8158C355.71 41.2878 356.726 41.0238 357.862 41.0238C358.694 41.0238 359.438 41.1598 360.094 41.4318C360.766 41.7038 361.334 42.0958 361.798 42.6078C362.278 43.1198 362.638 43.7438 362.878 44.4798C363.134 45.1998 363.262 46.0158 363.262 46.9278C363.262 47.2158 363.158 47.4398 362.95 47.5998C362.758 47.7438 362.478 47.8158 362.11 47.8158H354.406V46.0878H361.15L360.766 46.4478C360.766 45.7118 360.654 45.0958 360.43 44.5998C360.222 44.1038 359.91 43.7278 359.494 43.4718C359.094 43.1998 358.59 43.0638 357.982 43.0638C357.31 43.0638 356.734 43.2238 356.254 43.5438C355.79 43.8478 355.43 44.2878 355.174 44.8638C354.934 45.4238 354.814 46.0958 354.814 46.8798V47.0478C354.814 48.3598 355.118 49.3438 355.726 49.9998C356.35 50.6398 357.262 50.9598 358.462 50.9598C358.878 50.9598 359.342 50.9118 359.854 50.8158C360.382 50.7038 360.878 50.5198 361.342 50.2638C361.678 50.0718 361.974 49.9918 362.23 50.0238C362.486 50.0398 362.686 50.1278 362.83 50.2878C362.99 50.4478 363.086 50.6478 363.118 50.8878C363.15 51.1118 363.102 51.3438 362.974 51.5838C362.862 51.8238 362.662 52.0318 362.374 52.2078C361.814 52.5598 361.166 52.8238 360.43 52.9998C359.71 53.1598 359.038 53.2398 358.414 53.2398Z" fill="#848ED9"/>
<path d="M370.967 53.2398C369.927 53.2398 369.055 53.0638 368.351 52.7118C367.663 52.3598 367.151 51.8478 366.815 51.1758C366.479 50.4878 366.311 49.6398 366.311 48.6318V43.5198H365.063C364.679 43.5198 364.383 43.4238 364.175 43.2318C363.967 43.0238 363.863 42.7438 363.863 42.3918C363.863 42.0238 363.967 41.7438 364.175 41.5518C364.383 41.3598 364.679 41.2638 365.063 41.2638H366.311V39.0798C366.311 38.5838 366.439 38.2078 366.695 37.9518C366.967 37.6958 367.343 37.5678 367.823 37.5678C368.303 37.5678 368.671 37.6958 368.927 37.9518C369.183 38.2078 369.311 38.5838 369.311 39.0798V41.2638H371.855C372.239 41.2638 372.535 41.3598 372.743 41.5518C372.951 41.7438 373.055 42.0238 373.055 42.3918C373.055 42.7438 372.951 43.0238 372.743 43.2318C372.535 43.4238 372.239 43.5198 371.855 43.5198H369.311V48.4638C369.311 49.2318 369.479 49.8078 369.815 50.1918C370.151 50.5758 370.695 50.7678 371.447 50.7678C371.719 50.7678 371.959 50.7438 372.167 50.6958C372.375 50.6478 372.559 50.6158 372.719 50.5998C372.911 50.5838 373.071 50.6478 373.199 50.7918C373.327 50.9198 373.391 51.1918 373.391 51.6078C373.391 51.9278 373.335 52.2158 373.223 52.4718C373.127 52.7118 372.943 52.8798 372.671 52.9758C372.463 53.0398 372.191 53.0958 371.855 53.1438C371.519 53.2078 371.223 53.2398 370.967 53.2398Z" fill="#848ED9"/>
<path d="M380.469 53.2398C379.141 53.2398 377.997 52.9918 377.037 52.4958C376.077 51.9998 375.333 51.2958 374.805 50.3838C374.293 49.4718 374.037 48.3918 374.037 47.1438C374.037 45.9278 374.285 44.8638 374.781 43.9518C375.293 43.0398 375.989 42.3278 376.869 41.8158C377.765 41.2878 378.781 41.0238 379.917 41.0238C380.749 41.0238 381.493 41.1598 382.149 41.4318C382.821 41.7038 383.389 42.0958 383.853 42.6078C384.333 43.1198 384.693 43.7438 384.933 44.4798C385.189 45.1998 385.317 46.0158 385.317 46.9278C385.317 47.2158 385.213 47.4398 385.005 47.5998C384.813 47.7438 384.533 47.8158 384.165 47.8158H376.461V46.0878H383.205L382.821 46.4478C382.821 45.7118 382.709 45.0958 382.485 44.5998C382.277 44.1038 381.965 43.7278 381.549 43.4718C381.149 43.1998 380.645 43.0638 380.037 43.0638C379.365 43.0638 378.789 43.2238 378.309 43.5438C377.845 43.8478 377.485 44.2878 377.229 44.8638C376.989 45.4238 376.869 46.0958 376.869 46.8798V47.0478C376.869 48.3598 377.173 49.3438 377.781 49.9998C378.405 50.6398 379.317 50.9598 380.517 50.9598C380.933 50.9598 381.397 50.9118 381.909 50.8158C382.437 50.7038 382.933 50.5198 383.397 50.2638C383.733 50.0718 384.029 49.9918 384.285 50.0238C384.541 50.0398 384.741 50.1278 384.885 50.2878C385.045 50.4478 385.141 50.6478 385.173 50.8878C385.205 51.1118 385.157 51.3438 385.029 51.5838C384.917 51.8238 384.717 52.0318 384.429 52.2078C383.869 52.5598 383.221 52.8238 382.485 52.9998C381.765 53.1598 381.093 53.2398 380.469 53.2398Z" fill="#848ED9"/>
<path d="M392.204 53.2398C391.18 53.2398 390.276 52.9918 389.492 52.4958C388.724 51.9998 388.124 51.2958 387.692 50.3838C387.26 49.4558 387.044 48.3678 387.044 47.1198C387.044 45.8558 387.26 44.7758 387.692 43.8798C388.124 42.9678 388.724 42.2638 389.492 41.7678C390.276 41.2718 391.18 41.0238 392.204 41.0238C393.18 41.0238 394.028 41.2638 394.748 41.7438C395.484 42.2238 395.98 42.8558 396.236 43.6398H395.972V37.3998C395.972 36.9038 396.1 36.5278 396.356 36.2718C396.612 36.0158 396.98 35.8878 397.46 35.8878C397.94 35.8878 398.308 36.0158 398.564 36.2718C398.836 36.5278 398.972 36.9038 398.972 37.3998V51.6558C398.972 52.1518 398.844 52.5358 398.588 52.8078C398.332 53.0638 397.964 53.1918 397.484 53.1918C397.004 53.1918 396.636 53.0638 396.38 52.8078C396.124 52.5358 395.996 52.1518 395.996 51.6558V49.7838L396.26 50.5038C396.02 51.3358 395.532 51.9998 394.796 52.4958C394.06 52.9918 393.196 53.2398 392.204 53.2398ZM393.044 50.9598C393.636 50.9598 394.156 50.8158 394.604 50.5278C395.052 50.2398 395.396 49.8158 395.636 49.2558C395.892 48.6798 396.02 47.9678 396.02 47.1198C396.02 45.8398 395.748 44.8878 395.204 44.2638C394.66 43.6238 393.94 43.3038 393.044 43.3038C392.452 43.3038 391.932 43.4478 391.484 43.7358C391.036 44.0078 390.684 44.4318 390.428 45.0078C390.188 45.5678 390.068 46.2718 390.068 47.1198C390.068 48.3838 390.34 49.3438 390.884 49.9998C391.428 50.6398 392.148 50.9598 393.044 50.9598Z" fill="#848ED9"/>
<path d="M403.523 48.1278C403.219 48.1278 402.979 48.0318 402.803 47.8398C402.643 47.6478 402.547 47.3758 402.515 47.0238L401.795 37.8558C401.747 37.2638 401.875 36.7918 402.179 36.4398C402.483 36.0718 402.931 35.8878 403.523 35.8878C404.099 35.8878 404.531 36.0718 404.819 36.4398C405.123 36.7918 405.251 37.2638 405.203 37.8558L404.483 47.0238C404.467 47.3758 404.371 47.6478 404.195 47.8398C404.035 48.0318 403.811 48.1278 403.523 48.1278ZM403.523 53.1198C402.979 53.1198 402.539 52.9518 402.203 52.6158C401.883 52.2798 401.723 51.8478 401.723 51.3198C401.723 50.8078 401.883 50.3918 402.203 50.0718C402.539 49.7358 402.979 49.5678 403.523 49.5678C404.083 49.5678 404.515 49.7358 404.819 50.0718C405.139 50.3918 405.299 50.8078 405.299 51.3198C405.299 51.8478 405.139 52.2798 404.819 52.6158C404.515 52.9518 404.083 53.1198 403.523 53.1198Z" fill="#848ED9"/>
</svg>
