<svg width="390" height="285" viewBox="0 0 390 285" fill="none" xmlns="http://www.w3.org/2000/svg">
<path d="M99.1869 225.95H98.6289V254.917H99.1869V225.95Z" fill="#1C468A"/>
<path d="M100.97 253.352L98.9077 254.229L96.8457 253.352L98.9077 258.24L100.97 253.352Z" fill="#1C468A"/>
<path d="M100.97 227.514L98.9077 226.636L96.8457 227.514L98.9077 222.625L100.97 227.514Z" fill="#1C468A"/>
<path d="M0.735913 282H389.262C389.458 282 389.646 282.081 389.784 282.226C389.922 282.37 390 282.566 390 282.77V284.232C390 284.333 389.981 284.433 389.944 284.526C389.907 284.619 389.853 284.704 389.784 284.775C389.716 284.846 389.635 284.903 389.546 284.942C389.456 284.98 389.361 285 389.264 285H0.735913C0.540737 285 0.353554 284.919 0.215544 284.775C0.0775334 284.631 0 284.436 0 284.232V282.77C-7.17385e-07 282.566 0.0774693 282.371 0.215423 282.226C0.353376 282.082 0.540553 282.001 0.735913 282V282Z" fill="#2E3552"/>
<path d="M230.695 129.307L230.459 129.283L242.836 6.67651L243.069 6.70077C247.317 7.1418 250.407 11.014 249.97 15.3406L239.177 122.273C238.74 126.606 234.943 129.753 230.695 129.307Z" fill="#F99746"/>
<path d="M250.357 143.987H237.945V138.121H250.353C252.675 138.126 254.964 137.572 257.026 136.506C259.089 135.44 260.865 133.894 262.205 131.998C263.632 130.035 264.566 127.757 264.929 125.357C265.291 122.957 265.071 120.506 264.287 118.209L247.153 66.886L252.719 65.0293L269.851 116.352C270.911 119.533 271.203 122.92 270.702 126.236C270.2 129.552 268.92 132.701 266.966 135.427C263.049 140.867 256.996 143.987 250.357 143.987Z" fill="#F99746"/>
<path d="M240.93 83.7598L244.225 51.1235C249.414 51.6682 253.189 56.3939 252.656 61.6796L251.293 75.1774C250.759 80.4587 246.119 84.3023 240.93 83.7598Z" fill="#F99746"/>
<path d="M289.171 136.393H236.625C235.35 136.393 234.316 137.426 234.316 138.701V138.745C234.316 140.021 235.35 141.054 236.625 141.054H289.171C290.447 141.054 291.48 140.021 291.48 138.745V138.701C291.48 137.426 290.447 136.393 289.171 136.393Z" fill="#F99746"/>
<path d="M310.174 139.837H160.063C159.701 139.837 159.343 139.908 159.008 140.047C158.674 140.185 158.37 140.388 158.114 140.644C157.858 140.9 157.655 141.204 157.516 141.539C157.378 141.873 157.307 142.231 157.307 142.593V142.593C157.307 143.324 157.597 144.026 158.114 144.542C158.631 145.059 159.332 145.35 160.063 145.35H310.174C310.905 145.35 311.606 145.059 312.123 144.542C312.64 144.026 312.931 143.324 312.931 142.593C312.931 141.862 312.64 141.161 312.123 140.644C311.606 140.127 310.905 139.837 310.174 139.837Z" fill="#2C3A64"/>
<path d="M300.987 281.829H298.973L298.7 276.757L291.356 140.842C291.353 140.715 291.375 140.588 291.421 140.469C291.467 140.349 291.537 140.241 291.625 140.148C291.713 140.056 291.819 139.982 291.936 139.93C292.053 139.879 292.179 139.851 292.306 139.848C292.565 139.828 292.821 139.911 293.019 140.079C293.216 140.247 293.339 140.487 293.36 140.745L300.713 276.757L300.987 281.829Z" fill="#2C3A64"/>
<path d="M300.713 277.641L300.986 281.831H253.129C253.129 280.72 253.57 279.654 254.356 278.869C255.142 278.083 256.208 277.641 257.319 277.641H300.713Z" fill="#2C3A64"/>
<path d="M180.783 240.288C158.693 236.687 153.749 219.304 152.648 211.996L153.2 211.915C154.283 219.099 159.154 236.198 180.871 239.737L180.783 240.288Z" fill="#1C468A"/>
<path d="M151.078 213.727L153.037 212.636L155.18 213.286L152.606 208.646L151.078 213.727Z" fill="#1C468A"/>
<path d="M179.006 241.81L180.155 239.885L179.568 237.724L184.131 240.434L179.006 241.81Z" fill="#1C468A"/>
<path d="M180.413 118.65C174.167 95.5464 154.445 91.597 146.256 90.9729L146.298 90.4172C154.605 91.0501 174.613 95.0481 180.949 118.504L180.413 118.65Z" fill="#1C468A"/>
<path d="M147.756 92.8519L146.963 90.757L147.92 88.7305L142.953 90.5982L147.756 92.8519Z" fill="#1C468A"/>
<path d="M178.275 117.56L180.487 117.922L182.283 116.579L181.442 121.819L178.275 117.56Z" fill="#1C468A"/>
<path d="M209.945 29.2514L141.699 41.1118L141.795 41.6615L210.041 29.801L209.945 29.2514Z" fill="#1C468A"/>
<path d="M208.804 31.8373L209.313 29.6542L208.096 27.7732L213.267 28.9684L208.804 31.8373Z" fill="#1C468A"/>
<path d="M141.822 46.483L141.621 47.0034L205.326 71.608L205.527 71.0875L141.822 46.483Z" fill="#1C468A"/>
<path d="M203.242 72.7298L204.804 71.1223L204.729 68.8818L208.546 72.5689L203.242 72.7298Z" fill="#1C468A"/>
<path d="M46.7383 129.201C46.7378 127.773 47.1609 126.377 47.9541 125.19C48.7472 124.002 49.8747 123.076 51.1941 122.53C52.5134 121.983 53.9653 121.84 55.3661 122.118C56.7668 122.396 58.0536 123.084 59.0636 124.093C60.0736 125.103 60.7615 126.389 61.0403 127.79C61.3191 129.19 61.1763 130.642 60.6298 131.962C60.0834 133.281 59.1579 134.409 57.9705 135.202C56.783 135.995 55.3869 136.419 53.9588 136.419C52.0441 136.419 50.2079 135.659 48.8539 134.305C47.4998 132.952 46.7389 131.116 46.7383 129.201V129.201Z" fill="#F77D48"/>
<path d="M54.0222 133.195L50.7207 129.585L52.1476 128.282L53.7399 130.024L56.4459 125.742L58.0801 126.774L54.0222 133.195Z" fill="white"/>
<path d="M220.484 184.895C220.484 183.467 220.908 182.071 221.701 180.884C222.495 179.696 223.622 178.771 224.942 178.225C226.261 177.678 227.713 177.535 229.114 177.814C230.514 178.092 231.801 178.78 232.811 179.79C233.82 180.799 234.508 182.086 234.787 183.486C235.065 184.887 234.922 186.338 234.376 187.658C233.829 188.977 232.904 190.104 231.716 190.898C230.529 191.691 229.133 192.114 227.705 192.114C225.79 192.114 223.953 191.354 222.599 190C221.245 188.646 220.484 186.809 220.484 184.895Z" fill="#F77D48"/>
<path d="M227.759 188.888L224.457 185.279L225.882 183.975L227.476 185.717L230.18 181.435L231.814 182.467L227.759 188.888Z" fill="white"/>
<path d="M76.4277 239.497C76.4277 238.069 76.8512 236.673 77.6446 235.485C78.438 234.298 79.5657 233.373 80.8851 232.826C82.2044 232.28 83.6562 232.137 85.0568 232.416C86.4575 232.694 87.744 233.382 88.7538 234.391C89.7636 235.401 90.4514 236.688 90.73 238.088C91.0086 239.489 90.8656 240.94 90.3191 242.259C89.7726 243.579 88.8471 244.706 87.6597 245.499C86.4723 246.293 85.0763 246.716 83.6482 246.716C82.6999 246.716 81.7609 246.53 80.8847 246.167C80.0085 245.804 79.2125 245.273 78.5419 244.602C77.8714 243.932 77.3395 243.136 76.9768 242.26C76.614 241.384 76.4274 240.445 76.4277 239.497V239.497Z" fill="#F77D48"/>
<path d="M83.7021 243.492L80.3984 239.882L81.8253 238.577L83.4198 240.319L86.1237 236.037L87.7579 237.071L83.7021 243.492Z" fill="white"/>
<path d="M188.066 90.79C188.066 89.3621 188.49 87.9662 189.283 86.779C190.077 85.5917 191.204 84.6663 192.524 84.1199C193.843 83.5734 195.295 83.4305 196.696 83.709C198.096 83.9876 199.383 84.6752 200.393 85.6849C201.402 86.6946 202.09 87.981 202.369 89.3815C202.647 90.782 202.504 92.2336 201.958 93.5528C201.411 94.8721 200.486 95.9996 199.298 96.7929C198.111 97.5862 196.715 98.0097 195.287 98.0097C193.372 98.0097 191.535 97.249 190.181 95.8951C188.827 94.5411 188.066 92.7048 188.066 90.79Z" fill="#F77D48"/>
<path d="M195.343 94.7855L192.039 91.1756L193.466 89.8702L195.06 91.6122L197.764 87.332L199.398 88.3641L195.343 94.7855Z" fill="white"/>
<path d="M175.57 136.392L209.939 132.608V139.943H175.57V136.392Z" fill="#2C3A64"/>
<path d="M245.089 281.836H225.682C225.682 281.836 210.658 281.836 210.244 281.809C207.783 281.617 208.219 269.853 208.466 265.476C208.521 264.461 208.576 263.861 208.576 263.861C208.576 263.861 208.821 263.504 209.238 262.979C211.071 260.79 216.134 255.645 219.034 262.241C219.539 263.379 220.193 264.446 220.977 265.414C221.976 266.696 223.124 267.853 224.398 268.861C229.104 272.746 235.343 275.18 239.119 275.866C244.734 276.912 245.089 281.836 245.089 281.836Z" fill="#163560"/>
<path d="M233.008 281.836H213.601C213.601 281.836 198.577 281.836 198.163 281.809C195.699 281.617 196.138 269.853 196.383 265.476C196.438 264.461 196.493 263.861 196.493 263.861C196.493 263.861 196.738 263.504 197.155 262.979C198.988 260.79 204.049 255.645 206.951 262.241C207.456 263.379 208.11 264.446 208.894 265.414C209.892 266.695 211.039 267.853 212.313 268.861C217.021 272.746 223.26 275.18 227.036 275.866C232.653 276.912 233.008 281.836 233.008 281.836Z" fill="#204572"/>
<path d="M220.868 264.188C220.868 264.188 219.664 264.9 217.038 265.42C215.547 265.692 214.036 265.84 212.521 265.861C210.174 265.936 207.826 265.854 205.49 265.617C205.133 265.561 204.806 265.533 204.531 265.48C204.033 265.418 203.54 265.327 203.053 265.206C184.528 206.135 196.13 203.753 189.51 198.445C184.391 194.342 170.272 192.917 170.272 192.917H102.465C100.385 188.979 99.4545 179.483 99.0994 174.259C98.934 172.07 98.8789 170.647 98.8789 170.647C98.8789 170.647 118.8 164.956 133.303 161.838C138.53 160.687 141.022 163.203 143.637 163.121L147.786 164.444C156.387 164.715 202.7 170.791 210.494 178.809C211.943 180.286 214.301 182.875 215.313 187.115C220.868 209.822 220.868 264.188 220.868 264.188Z" fill="#153C6B"/>
<path d="M212.718 267.5C209.443 268.754 205.964 269.392 202.457 269.381C198.253 269.381 195.143 267.293 192.532 266.587C174.007 207.515 190.724 203.74 184.103 198.448C178.985 194.344 164.866 192.92 164.866 192.92H97.0606C94.9809 188.981 94.0502 179.486 93.6951 174.262C93.5297 172.072 93.4746 170.65 93.4746 170.65C93.4746 170.65 113.396 164.958 127.899 161.84C133.125 160.689 137.642 159.869 140.269 159.787H141.008C149.609 160.061 198.443 170.266 206.241 178.282C207.692 179.761 210.354 182.782 209.909 187.12C206.345 221.869 212.718 267.5 212.718 267.5Z" fill="#1C468A"/>
<path d="M120.837 71.6933C126.446 74.2293 127.575 80.5933 127.575 80.5933C115.346 85.5196 95.0938 73.8742 95.0938 73.8742C95.0938 73.8742 102.526 67.3359 103.973 54.9099C104.048 54.2836 104.105 53.6419 104.145 52.9892C104.281 50.7633 104.222 48.5298 103.968 46.3142L110.472 50.7708L121.278 58.1691C121.278 58.1691 121.528 61.7922 121.126 68.132C121.058 69.2346 120.961 70.4254 120.837 71.6933Z" fill="#FFB27D"/>
<path d="M136.675 137.213C136.613 140.093 137.778 142.249 138.479 144.296C138.758 145.043 138.926 145.828 138.977 146.624C139.304 154.526 140.742 157.604 140.206 160.237C140.206 160.237 138.929 159.917 133.751 162.693C131.499 163.897 128.784 165.229 125.635 166.559L125.136 166.766C112.93 171.838 99.7236 174.306 95.9524 174.705C88.7473 175.45 84.9254 157.445 84.5946 134.181C84.0807 97.9391 87.4285 79.8987 100.579 65.4616C101.406 64.553 101.128 67.3139 106.41 69.0626C111.291 70.6723 116.897 70.4651 121.067 68.9523L124.903 71.9778C133.003 81.7047 135.35 94.2013 136.15 104.768C137.158 118.107 136.863 128.91 136.675 137.213Z" fill="#8C9DF4"/>
<path d="M121.279 58.1668C121.279 58.1668 121.72 57.5582 121.319 63.9002C110.206 62.2001 106.004 57.201 104.101 53.7698C103.561 52.8017 107.879 51.6837 110.479 50.7708L121.279 58.1668Z" fill="#ED975D"/>
<path d="M126.255 57.5472C126.255 57.5472 105.978 63.2034 102.657 50.5237C99.3354 37.8441 94.4615 30.0423 107.268 25.8856C120.075 21.7288 123.868 25.9142 126.014 29.8747C128.16 33.8351 131.444 55.75 126.255 57.5472Z" fill="#FFB27D"/>
<path d="M93.0091 28.0113C92.8172 27.8393 92.4114 27.7313 91.5469 27.7908C92.0016 27.4534 92.5313 27.231 93.0907 27.1425C93.1237 25.9253 93.5008 23.7311 95.4945 22.966C95.1835 23.2023 94.9301 23.5061 94.7532 23.8544C94.5764 24.2027 94.4807 24.5865 94.4734 24.9771C96.5553 22.2383 101.442 19.8324 115.716 19.215C134.528 18.4013 129.85 31.0831 127.612 32.8009C125.373 34.5188 118.825 31.3632 114.379 32.2717C109.933 33.1802 109.869 39.7692 108.456 40.8542C107.042 41.9391 107.446 40.283 105.269 39.6038C103.092 38.9246 103.315 42.3669 104.184 44.5147C105.053 46.6625 102.576 49.9438 102.576 49.9438L99.3341 47.2094C96.0922 44.4772 91.7917 31.7447 92.751 28.7986C92.8304 28.5384 92.9208 28.2782 93.0091 28.0113Z" fill="#2C3A64"/>
<path d="M141.006 159.789C141.006 159.789 136.293 162.111 130.799 164.2C107.023 146.856 108.864 105.229 108.734 104.526L138.598 130.818L139.581 146C139.762 146.778 139.827 147.577 139.775 148.373C139.076 156.248 141.886 157.247 141.006 159.789Z" fill="#6980E2"/>
<path d="M173.326 132.838C173.326 132.838 176.4 132.538 178.474 131.717C180.547 130.897 187.679 128.348 188.958 128.835C190.237 129.323 194.348 131.995 195.323 132.516C196.298 133.036 197.923 135.488 197.923 135.488C197.14 136.185 194.659 134.322 193.512 134.282C192.365 134.242 183.526 138.373 180.983 138.315C178.44 138.258 173.926 137.89 173.926 137.89L173.326 132.838Z" fill="#FFB27D"/>
<path d="M189.957 133.444C189.97 133.585 192.855 137.23 195.285 136.282L192.859 133.565L189.957 133.444Z" fill="#FFB27D"/>
<path d="M178.469 131.718C178.469 131.718 181.409 129.318 182.408 128.139C182.408 128.139 182.946 128.425 182.939 128.897C182.939 129.682 182.075 131.072 182.075 131.072L178.469 131.718Z" fill="#FFB27D"/>
<path d="M120.747 83.5659C104.462 76.0904 91.6621 93.9566 101.095 109.19C112.033 126.855 124.11 135.925 131.328 140.629C135.827 143.559 149.929 145.48 176.098 139.813C176.098 139.813 177.686 136.681 174.508 132.108C174.508 132.108 147.578 127.885 141.403 121.541C138.09 118.141 120.875 83.6276 120.747 83.5659Z" fill="#8C9DF4"/>
<path d="M164.646 226.742C164.85 226.752 165.054 226.744 165.257 226.716C165.695 226.666 166.105 226.476 166.426 226.173C166.836 225.781 167.097 225.259 167.164 224.696H167.138C166.978 224.889 166.775 225.043 166.545 225.146C166.316 225.249 166.066 225.298 165.815 225.289C164.818 225.289 164.174 224.532 164.174 223.578C164.174 222.521 164.937 221.593 166.082 221.593C167.226 221.593 167.93 222.513 167.93 223.957C167.93 225.176 167.517 226.036 166.968 226.57C166.523 226.99 165.952 227.253 165.343 227.318C165.112 227.354 164.879 227.368 164.646 227.359V226.742ZM164.921 223.536C164.921 224.23 165.343 224.722 165.995 224.722C166.214 224.729 166.431 224.679 166.624 224.576C166.818 224.474 166.981 224.323 167.098 224.138C167.146 224.051 167.17 223.953 167.167 223.853C167.167 222.898 166.814 222.169 166.015 222.169C165.387 222.173 164.921 222.74 164.921 223.54V223.536Z" fill="#1C468A"/>
<path d="M172.341 224.424C172.341 226.325 171.627 227.373 170.396 227.373C169.293 227.373 168.557 226.35 168.539 224.506C168.539 222.623 169.357 221.602 170.491 221.602C171.662 221.597 172.341 222.645 172.341 224.424ZM169.304 224.51C169.304 225.964 169.745 226.788 170.44 226.788C171.205 226.788 171.576 225.886 171.576 224.46C171.576 223.084 171.232 222.182 170.44 222.182C169.798 222.182 169.304 222.993 169.304 224.51Z" fill="#1C468A"/>
<path d="M173.722 222.949C173.507 222.95 173.298 222.886 173.119 222.768C172.941 222.649 172.802 222.48 172.72 222.282C172.637 222.084 172.616 221.866 172.657 221.656C172.699 221.445 172.802 221.252 172.954 221.101C173.105 220.949 173.299 220.846 173.509 220.804C173.719 220.763 173.937 220.784 174.135 220.867C174.333 220.949 174.502 221.088 174.621 221.266C174.74 221.445 174.803 221.654 174.802 221.869C174.802 222.155 174.688 222.43 174.485 222.632C174.283 222.835 174.008 222.949 173.722 222.949V222.949ZM173.722 221.434C173.635 221.434 173.549 221.46 173.477 221.509C173.404 221.557 173.348 221.626 173.314 221.706C173.281 221.787 173.272 221.876 173.289 221.961C173.306 222.047 173.348 222.125 173.41 222.187C173.472 222.249 173.55 222.291 173.636 222.308C173.721 222.325 173.81 222.316 173.891 222.283C173.971 222.249 174.04 222.193 174.089 222.12C174.137 222.048 174.163 221.962 174.163 221.875C174.163 221.758 174.116 221.646 174.034 221.563C173.951 221.481 173.839 221.434 173.722 221.434Z" fill="#1C468A"/>
<path d="M157.357 109.951C157.561 109.961 157.765 109.952 157.968 109.924C158.406 109.875 158.816 109.684 159.137 109.382C159.547 108.99 159.808 108.467 159.876 107.904H159.849C159.689 108.098 159.486 108.252 159.257 108.355C159.027 108.458 158.777 108.506 158.526 108.497C157.529 108.497 156.883 107.741 156.883 106.786C156.883 105.728 157.648 104.802 158.793 104.802C159.937 104.802 160.641 105.723 160.641 107.168C160.641 108.387 160.228 109.247 159.679 109.781C159.233 110.2 158.662 110.462 158.054 110.528C157.823 110.565 157.59 110.579 157.357 110.57V109.951ZM157.633 106.744C157.633 107.439 158.054 107.931 158.707 107.931C158.926 107.938 159.143 107.887 159.336 107.785C159.53 107.682 159.693 107.53 159.809 107.344C159.858 107.258 159.881 107.16 159.878 107.062C159.878 106.107 159.525 105.377 158.727 105.377C158.087 105.377 157.633 105.944 157.633 106.744Z" fill="#1C468A"/>
<path d="M165.046 107.629C165.046 109.529 164.334 110.577 163.103 110.577C162 110.577 161.264 109.554 161.246 107.71C161.246 105.827 162.064 104.804 163.198 104.804C164.367 104.797 165.046 105.849 165.046 107.629ZM162.011 107.715C162.011 109.168 162.452 109.992 163.147 109.992C163.912 109.992 164.281 109.091 164.281 107.664C164.281 106.288 163.939 105.386 163.147 105.386C162.494 105.386 162.011 106.193 162.011 107.715Z" fill="#1C468A"/>
<path d="M166.431 106.153C166.216 106.154 166.007 106.09 165.828 105.972C165.65 105.853 165.511 105.684 165.429 105.486C165.346 105.288 165.325 105.07 165.366 104.86C165.408 104.65 165.511 104.456 165.663 104.305C165.814 104.153 166.008 104.05 166.218 104.008C166.428 103.967 166.646 103.988 166.844 104.071C167.042 104.153 167.211 104.292 167.33 104.47C167.449 104.649 167.512 104.858 167.511 105.073C167.51 105.359 167.396 105.633 167.194 105.835C166.991 106.038 166.717 106.152 166.431 106.153V106.153ZM166.431 104.638C166.344 104.638 166.258 104.664 166.186 104.713C166.113 104.761 166.057 104.83 166.023 104.911C165.99 104.991 165.981 105.08 165.998 105.165C166.015 105.251 166.057 105.33 166.119 105.391C166.181 105.453 166.259 105.495 166.345 105.512C166.43 105.529 166.519 105.52 166.6 105.487C166.68 105.453 166.749 105.397 166.798 105.324C166.846 105.252 166.872 105.167 166.872 105.079C166.872 104.962 166.825 104.85 166.743 104.767C166.66 104.685 166.548 104.638 166.431 104.638Z" fill="#1C468A"/>
<path d="M124.218 277.904H118.182L116.488 201.092H125.711L124.218 277.904Z" fill="#2B478B"/>
<path d="M150.454 277.904H91.7422V272.6L121.667 269.901L150.454 272.6V277.904Z" fill="#2B478B"/>
<path d="M86.0371 277.07C86.0371 276.115 86.3204 275.181 86.8511 274.387C87.3818 273.593 88.1361 272.974 89.0187 272.609C89.9012 272.243 90.8723 272.147 91.8092 272.334C92.7461 272.52 93.6067 272.98 94.2822 273.655C94.9576 274.331 95.4176 275.191 95.604 276.128C95.7903 277.065 95.6947 278.036 95.3291 278.918C94.9636 279.801 94.3445 280.555 93.5502 281.086C92.756 281.616 91.8222 281.9 90.8669 281.9C89.5862 281.899 88.358 281.39 87.4524 280.484C86.5468 279.579 86.0377 278.351 86.0371 277.07V277.07Z" fill="#2B478B"/>
<path d="M144.75 277.07C144.75 276.115 145.033 275.181 145.564 274.387C146.095 273.593 146.849 272.974 147.732 272.609C148.614 272.243 149.585 272.147 150.522 272.334C151.459 272.52 152.32 272.98 152.995 273.655C153.67 274.331 154.13 275.191 154.317 276.128C154.503 277.065 154.408 278.036 154.042 278.918C153.676 279.801 153.057 280.555 152.263 281.086C151.469 281.616 150.535 281.9 149.58 281.9C148.299 281.899 147.071 281.39 146.165 280.484C145.26 279.579 144.751 278.351 144.75 277.07V277.07Z" fill="#2B478B"/>
<path d="M148.348 206.131H93.8462C92.5095 206.131 91.2275 205.6 90.2821 204.655C89.3367 203.71 88.8053 202.428 88.8047 201.092H153.388C153.388 202.428 152.857 203.71 151.912 204.655C150.967 205.6 149.685 206.131 148.348 206.131Z" fill="#2B478B"/>
<path d="M82.8744 170.643H79.5332V192.115H82.8744V170.643Z" fill="#2B478B"/>
<path d="M80.5416 173.598C80.3806 173.598 80.2152 173.598 80.0498 173.576C78.6155 173.447 77.2912 172.753 76.3681 171.648C75.445 170.542 74.9987 169.116 75.1273 167.681C77.0835 145.888 74.1724 122.553 71.3782 106.819C68.3347 89.6389 64.773 77.5149 64.7377 77.3959C64.3283 76.0151 64.4842 74.5282 65.1712 73.2623C65.8582 71.9964 67.0199 71.0553 68.4009 70.6459C69.7818 70.2365 71.2689 70.3924 72.5349 71.0793C73.8009 71.7662 74.7422 72.9278 75.1516 74.3087C75.3038 74.8202 78.9008 87.0258 82.0457 104.773C84.9612 121.201 88.0003 145.619 85.936 168.654C85.8146 170.002 85.1942 171.256 84.1963 172.17C83.1985 173.085 81.8952 173.594 80.5416 173.598V173.598Z" fill="#F99746"/>
<path d="M174.799 209.041C173.887 209.044 172.99 208.816 172.189 208.38L162.85 203.248C160.368 201.888 157.584 201.173 154.754 201.171H79.4238C77.9838 201.171 76.6027 200.599 75.5845 199.581C74.5662 198.563 73.9941 197.182 73.9941 195.742C73.9941 194.302 74.5662 192.921 75.5845 191.903C76.6027 190.885 77.9838 190.313 79.4238 190.313H154.754C159.412 190.316 163.994 191.492 168.079 193.731L177.419 198.86C178.475 199.441 179.308 200.357 179.786 201.463C180.265 202.57 180.361 203.804 180.061 204.971C179.761 206.139 179.081 207.173 178.128 207.911C177.175 208.65 176.004 209.051 174.799 209.05V209.041Z" fill="#F99746"/>
<path d="M95.2949 89.1228C95.2949 88.8668 95.3708 88.6165 95.5131 88.4037C95.6553 88.1908 95.8575 88.0249 96.0941 87.9269C96.3306 87.8289 96.5909 87.8033 96.842 87.8532C97.0932 87.9032 97.3238 88.0265 97.5049 88.2075C97.6859 88.3885 97.8092 88.6192 97.8592 88.8703C97.9091 89.1214 97.8835 89.3816 97.7855 89.6182C97.6875 89.8547 97.5216 90.0568 97.3087 90.1991C97.0958 90.3413 96.8455 90.4172 96.5895 90.4172C96.2461 90.4172 95.9169 90.2809 95.6741 90.0381C95.4313 89.7953 95.2949 89.4661 95.2949 89.1228V89.1228Z" fill="#F77D48"/>
<path d="M95.2949 115.393C95.2954 115.137 95.3716 114.887 95.5141 114.674C95.6567 114.462 95.859 114.296 96.0956 114.198C96.3322 114.101 96.5924 114.076 96.8434 114.126C97.0944 114.176 97.3248 114.299 97.5057 114.48C97.6865 114.662 97.8096 114.892 97.8593 115.143C97.9091 115.394 97.8833 115.654 97.7853 115.891C97.6872 116.127 97.5213 116.329 97.3085 116.471C97.0956 116.614 96.8454 116.689 96.5895 116.689C96.4193 116.689 96.2508 116.656 96.0936 116.591C95.9364 116.526 95.7935 116.43 95.6733 116.31C95.5531 116.189 95.4577 116.046 95.3928 115.889C95.3279 115.732 95.2946 115.563 95.2949 115.393V115.393Z" fill="#F77D48"/>
<path d="M95.2949 154.801C95.2949 154.545 95.3708 154.295 95.5131 154.082C95.6553 153.869 95.8575 153.703 96.0941 153.605C96.3306 153.507 96.5909 153.482 96.842 153.531C97.0932 153.581 97.3238 153.705 97.5049 153.886C97.6859 154.067 97.8092 154.297 97.8592 154.548C97.9091 154.8 97.8835 155.06 97.7855 155.296C97.6875 155.533 97.5216 155.735 97.3087 155.877C97.0958 156.02 96.8455 156.095 96.5895 156.095C96.2461 156.095 95.9169 155.959 95.6741 155.716C95.4313 155.474 95.2949 155.144 95.2949 154.801V154.801Z" fill="#F77D48"/>
<path d="M95.2949 102.259C95.2949 102.003 95.3708 101.753 95.5131 101.54C95.6553 101.327 95.8575 101.161 96.0941 101.063C96.3306 100.965 96.5909 100.94 96.842 100.989C97.0932 101.039 97.3238 101.163 97.5049 101.344C97.6859 101.525 97.8092 101.755 97.8592 102.007C97.9091 102.258 97.8835 102.518 97.7855 102.754C97.6875 102.991 97.5216 103.193 97.3087 103.335C97.0958 103.478 96.8455 103.553 96.5895 103.553C96.2461 103.553 95.9169 103.417 95.6741 103.174C95.4313 102.932 95.2949 102.602 95.2949 102.259V102.259Z" fill="#F77D48"/>
<path d="M95.2949 141.665C95.2949 141.409 95.3708 141.159 95.5131 140.946C95.6553 140.733 95.8575 140.567 96.0941 140.469C96.3306 140.371 96.5909 140.346 96.842 140.395C97.0932 140.445 97.3238 140.569 97.5049 140.75C97.6859 140.931 97.8092 141.161 97.8592 141.413C97.9091 141.664 97.8835 141.924 97.7855 142.16C97.6875 142.397 97.5216 142.599 97.3087 142.741C97.0958 142.884 96.8455 142.959 96.5895 142.959C96.2461 142.959 95.9169 142.823 95.6741 142.58C95.4313 142.338 95.2949 142.008 95.2949 141.665V141.665Z" fill="#F77D48"/>
<path d="M95.2949 128.529C95.2949 128.273 95.3708 128.023 95.5131 127.81C95.6553 127.597 95.8575 127.431 96.0941 127.333C96.3306 127.235 96.5909 127.209 96.842 127.259C97.0932 127.309 97.3238 127.432 97.5049 127.614C97.6859 127.795 97.8092 128.025 97.8592 128.276C97.9091 128.527 97.8835 128.788 97.7855 129.024C97.6875 129.261 97.5216 129.463 97.3087 129.605C97.0958 129.747 96.8455 129.823 96.5895 129.823C96.2461 129.823 95.9169 129.687 95.6741 129.444C95.4313 129.201 95.2949 128.872 95.2949 128.529V128.529Z" fill="#F77D48"/>
</svg>
