<svg width="390" height="285" viewBox="0 0 390 285" fill="none" xmlns="http://www.w3.org/2000/svg">
<path d="M108.189 225.95H107.631V254.917H108.189V225.95Z" fill="#325DA3"/>
<path d="M109.972 253.352L107.91 254.229L105.848 253.352L107.91 258.24L109.972 253.352Z" fill="#325DA3"/>
<path d="M109.972 227.514L107.91 226.636L105.848 227.514L107.91 222.625L109.972 227.514Z" fill="#325DA3"/>
<path d="M0.735913 282H389.262C389.458 282 389.646 282.081 389.784 282.226C389.922 282.37 390 282.566 390 282.77V284.232C390 284.333 389.981 284.433 389.944 284.526C389.907 284.619 389.853 284.704 389.784 284.775C389.716 284.846 389.635 284.903 389.546 284.942C389.456 284.98 389.361 285 389.264 285H0.735913C0.540737 285 0.353554 284.919 0.215544 284.775C0.0775334 284.631 0 284.436 0 284.232V282.77C-7.17385e-07 282.566 0.0774693 282.371 0.215423 282.226C0.353376 282.082 0.540553 282.001 0.735913 282V282Z" fill="#2E3552"/>
<path d="M239.695 129.307L239.459 129.283L251.836 6.67651L252.069 6.70077C256.317 7.1418 259.407 11.014 258.97 15.3406L248.177 122.273C247.74 126.606 243.943 129.753 239.695 129.307Z" fill="#D98F52"/>
<path d="M259.357 143.987H246.945V138.121H259.353C261.675 138.126 263.964 137.572 266.026 136.506C268.089 135.44 269.865 133.894 271.205 131.998C272.632 130.035 273.566 127.757 273.929 125.357C274.291 122.957 274.071 120.506 273.287 118.209L256.153 66.886L261.719 65.0293L278.851 116.352C279.911 119.533 280.203 122.92 279.702 126.236C279.2 129.552 277.92 132.701 275.966 135.427C272.049 140.867 265.996 143.987 259.357 143.987Z" fill="#D98F52"/>
<path d="M249.93 83.7598L253.225 51.1235C258.414 51.6682 262.189 56.3939 261.656 61.6796L260.293 75.1774C259.759 80.4587 255.119 84.3023 249.93 83.7598Z" fill="#D98F52"/>
<path d="M298.171 136.393H245.625C244.35 136.393 243.316 137.426 243.316 138.701V138.745C243.316 140.021 244.35 141.054 245.625 141.054H298.171C299.447 141.054 300.48 140.021 300.48 138.745V138.701C300.48 137.426 299.447 136.393 298.171 136.393Z" fill="#D98F52"/>
<path d="M319.174 139.837H169.063C168.701 139.837 168.343 139.908 168.008 140.047C167.674 140.185 167.37 140.388 167.114 140.644C166.858 140.9 166.655 141.204 166.516 141.539C166.378 141.873 166.307 142.231 166.307 142.593V142.593C166.307 143.324 166.597 144.026 167.114 144.542C167.631 145.059 168.332 145.35 169.063 145.35H319.174C319.905 145.35 320.606 145.059 321.123 144.542C321.64 144.026 321.931 143.324 321.931 142.593C321.931 141.862 321.64 141.161 321.123 140.644C320.606 140.127 319.905 139.837 319.174 139.837Z" fill="#3E4E7D"/>
<path d="M309.987 281.829H307.973L307.7 276.757L300.356 140.842C300.353 140.715 300.375 140.588 300.421 140.469C300.467 140.349 300.537 140.241 300.625 140.148C300.713 140.056 300.819 139.982 300.936 139.93C301.053 139.879 301.179 139.851 301.306 139.848C301.565 139.828 301.821 139.911 302.019 140.079C302.216 140.247 302.339 140.487 302.36 140.745L309.713 276.757L309.987 281.829Z" fill="#3E4E7D"/>
<path d="M309.713 277.641L309.986 281.831H262.129C262.129 280.72 262.57 279.654 263.356 278.869C264.142 278.083 265.208 277.641 266.319 277.641H309.713Z" fill="#3E4E7D"/>
<path d="M189.783 240.288C167.693 236.687 162.749 219.304 161.648 211.996L162.2 211.915C163.283 219.099 168.154 236.198 189.871 239.737L189.783 240.288Z" fill="#325DA3"/>
<path d="M160.078 213.727L162.037 212.636L164.18 213.286L161.606 208.646L160.078 213.727Z" fill="#325DA3"/>
<path d="M188.006 241.81L189.155 239.885L188.568 237.724L193.131 240.434L188.006 241.81Z" fill="#325DA3"/>
<path d="M189.413 118.65C183.167 95.5464 163.445 91.597 155.256 90.9729L155.298 90.4172C163.605 91.0501 183.613 95.0481 189.949 118.504L189.413 118.65Z" fill="#325DA3"/>
<path d="M156.756 92.8519L155.963 90.757L156.92 88.7305L151.953 90.5982L156.756 92.8519Z" fill="#325DA3"/>
<path d="M187.275 117.56L189.487 117.922L191.283 116.579L190.442 121.819L187.275 117.56Z" fill="#325DA3"/>
<path d="M218.945 29.2514L150.699 41.1118L150.795 41.6615L219.041 29.801L218.945 29.2514Z" fill="#325DA3"/>
<path d="M217.804 31.8373L218.313 29.6542L217.096 27.7732L222.267 28.9684L217.804 31.8373Z" fill="#325DA3"/>
<path d="M150.822 46.483L150.621 47.0034L214.326 71.608L214.527 71.0875L150.822 46.483Z" fill="#325DA3"/>
<path d="M212.242 72.7298L213.804 71.1223L213.729 68.8818L217.546 72.5689L212.242 72.7298Z" fill="#325DA3"/>
<path d="M55.7383 129.201C55.7378 127.773 56.1609 126.377 56.9541 125.19C57.7472 124.002 58.8747 123.076 60.1941 122.53C61.5134 121.983 62.9653 121.84 64.3661 122.118C65.7668 122.396 67.0536 123.084 68.0636 124.093C69.0736 125.103 69.7615 126.389 70.0403 127.79C70.3191 129.19 70.1763 130.642 69.6298 131.962C69.0834 133.281 68.1579 134.409 66.9705 135.202C65.783 135.995 64.3869 136.419 62.9588 136.419C61.0441 136.419 59.2079 135.659 57.8539 134.305C56.4998 132.952 55.7389 131.116 55.7383 129.201V129.201Z" fill="#DD7F56"/>
<path d="M63.0202 133.195L59.7188 129.585L61.1456 128.282L62.7379 130.024L65.444 125.742L67.0782 126.774L63.0202 133.195Z" fill="white"/>
<path d="M229.484 184.895C229.484 183.467 229.908 182.071 230.701 180.884C231.495 179.696 232.622 178.771 233.942 178.225C235.261 177.678 236.713 177.535 238.114 177.814C239.514 178.092 240.801 178.78 241.811 179.79C242.82 180.799 243.508 182.086 243.787 183.486C244.065 184.887 243.922 186.338 243.376 187.658C242.829 188.977 241.904 190.104 240.716 190.898C239.529 191.691 238.133 192.114 236.705 192.114C234.79 192.114 232.953 191.354 231.599 190C230.245 188.646 229.484 186.809 229.484 184.895Z" fill="#DD7F56"/>
<path d="M236.759 188.888L233.457 185.279L234.882 183.975L236.476 185.717L239.18 181.435L240.814 182.467L236.759 188.888Z" fill="white"/>
<path d="M85.4277 239.497C85.4277 238.069 85.8512 236.673 86.6446 235.485C87.438 234.298 88.5657 233.373 89.8851 232.826C91.2044 232.28 92.6562 232.137 94.0568 232.416C95.4575 232.694 96.744 233.382 97.7538 234.391C98.7636 235.401 99.4514 236.688 99.73 238.088C100.009 239.489 99.8656 240.94 99.3191 242.259C98.7726 243.579 97.8471 244.706 96.6597 245.499C95.4723 246.293 94.0763 246.716 92.6482 246.716C91.6999 246.716 90.7609 246.53 89.8847 246.167C89.0085 245.804 88.2125 245.273 87.5419 244.602C86.8714 243.932 86.3395 243.136 85.9768 242.26C85.614 241.384 85.4274 240.445 85.4277 239.497V239.497Z" fill="#DD7F56"/>
<path d="M92.7021 243.492L89.3984 239.882L90.8253 238.577L92.4198 240.319L95.1237 236.037L96.7579 237.071L92.7021 243.492Z" fill="white"/>
<path d="M197.066 90.79C197.066 89.3621 197.49 87.9662 198.283 86.779C199.077 85.5917 200.204 84.6663 201.524 84.1199C202.843 83.5734 204.295 83.4305 205.696 83.709C207.096 83.9876 208.383 84.6752 209.393 85.6849C210.402 86.6946 211.09 87.981 211.369 89.3815C211.647 90.782 211.504 92.2336 210.958 93.5528C210.411 94.8721 209.486 95.9996 208.298 96.7929C207.111 97.5862 205.715 98.0097 204.287 98.0097C202.372 98.0097 200.535 97.249 199.181 95.8951C197.827 94.5411 197.066 92.7048 197.066 90.79Z" fill="#DD7F56"/>
<path d="M204.343 94.7855L201.039 91.1756L202.466 89.8702L204.06 91.6122L206.764 87.332L208.398 88.3641L204.343 94.7855Z" fill="white"/>
<path d="M184.57 136.392L218.939 132.608V139.943H184.57V136.392Z" fill="#3E4E7D"/>
<path d="M254.089 281.836H234.682C234.682 281.836 219.658 281.836 219.244 281.809C216.783 281.617 217.219 269.853 217.466 265.476C217.521 264.461 217.576 263.861 217.576 263.861C217.576 263.861 217.821 263.504 218.238 262.979C220.071 260.79 225.134 255.645 228.034 262.241C228.539 263.379 229.193 264.446 229.977 265.414C230.976 266.696 232.124 267.853 233.398 268.861C238.104 272.746 244.343 275.18 248.119 275.866C253.734 276.912 254.089 281.836 254.089 281.836Z" fill="#163560"/>
<path d="M242.008 281.836H222.601C222.601 281.836 207.577 281.836 207.163 281.809C204.699 281.617 205.138 269.853 205.383 265.476C205.438 264.461 205.493 263.861 205.493 263.861C205.493 263.861 205.738 263.504 206.155 262.979C207.988 260.79 213.049 255.645 215.951 262.241C216.456 263.379 217.11 264.446 217.894 265.414C218.892 266.695 220.039 267.853 221.313 268.861C226.021 272.746 232.26 275.18 236.036 275.866C241.653 276.912 242.008 281.836 242.008 281.836Z" fill="#204572"/>
<path d="M229.868 264.188C229.868 264.188 228.664 264.9 226.038 265.42C224.547 265.692 223.036 265.84 221.521 265.861C219.174 265.936 216.826 265.854 214.49 265.617C214.133 265.561 213.806 265.533 213.531 265.48C213.033 265.418 212.54 265.327 212.053 265.206C193.528 206.135 205.13 203.753 198.51 198.445C193.391 194.342 179.272 192.917 179.272 192.917H111.465C109.385 188.979 108.455 179.483 108.099 174.259C107.934 172.07 107.879 170.647 107.879 170.647C107.879 170.647 127.8 164.956 142.303 161.838C147.53 160.687 150.022 163.203 152.637 163.121L156.786 164.444C165.387 164.715 211.7 170.791 219.494 178.809C220.943 180.286 223.301 182.875 224.313 187.115C229.868 209.822 229.868 264.188 229.868 264.188Z" fill="#153C6B"/>
<path d="M221.718 267.5C218.443 268.754 214.964 269.392 211.457 269.381C207.253 269.381 204.143 267.293 201.532 266.587C183.007 207.515 199.724 203.74 193.103 198.448C187.985 194.344 173.866 192.92 173.866 192.92H106.061C103.981 188.981 103.05 179.486 102.695 174.262C102.53 172.072 102.475 170.65 102.475 170.65C102.475 170.65 122.396 164.958 136.899 161.84C142.125 160.689 146.642 159.869 149.269 159.787H150.008C158.609 160.061 207.443 170.266 215.241 178.282C216.692 179.761 219.354 182.782 218.909 187.12C215.345 221.869 221.718 267.5 221.718 267.5Z" fill="#325DA3"/>
<path d="M129.837 71.6933C135.446 74.2293 136.575 80.5933 136.575 80.5933C124.346 85.5196 104.094 73.8742 104.094 73.8742C104.094 73.8742 111.526 67.3359 112.973 54.9099C113.048 54.2836 113.105 53.6419 113.145 52.9892C113.281 50.7633 113.222 48.5298 112.968 46.3142L119.472 50.7708L130.278 58.1691C130.278 58.1691 130.528 61.7922 130.126 68.132C130.058 69.2346 129.961 70.4254 129.837 71.6933Z" fill="#FFB27D"/>
<path d="M145.675 137.213C145.613 140.093 146.778 142.249 147.479 144.296C147.758 145.043 147.926 145.828 147.977 146.624C148.304 154.526 149.742 157.604 149.206 160.237C149.206 160.237 147.929 159.917 142.751 162.693C140.499 163.897 137.784 165.229 134.635 166.559L134.136 166.766C121.93 171.838 108.724 174.306 104.952 174.705C97.7473 175.45 93.9254 157.445 93.5946 134.181C93.0807 97.9391 96.4285 79.8987 109.579 65.4616C110.406 64.553 110.128 67.3139 115.41 69.0626C120.291 70.6723 125.897 70.4651 130.067 68.9523L133.903 71.9778C142.003 81.7047 144.35 94.2013 145.15 104.768C146.158 118.107 145.863 128.91 145.675 137.213Z" fill="#8C9DF4"/>
<path d="M130.279 58.1668C130.279 58.1668 130.72 57.5582 130.319 63.9002C119.206 62.2001 115.004 57.201 113.101 53.7698C112.561 52.8017 116.879 51.6837 119.479 50.7708L130.279 58.1668Z" fill="#ED975D"/>
<path d="M135.255 57.5472C135.255 57.5472 114.978 63.2034 111.657 50.5237C108.335 37.8441 103.461 30.0423 116.268 25.8856C129.075 21.7288 132.868 25.9142 135.014 29.8747C137.16 33.8351 140.444 55.75 135.255 57.5472Z" fill="#FFB27D"/>
<path d="M102.009 28.0113C101.817 27.8393 101.411 27.7313 100.547 27.7908C101.002 27.4534 101.531 27.231 102.091 27.1425C102.124 25.9253 102.501 23.7311 104.495 22.966C104.183 23.2023 103.93 23.5061 103.753 23.8544C103.576 24.2027 103.481 24.5865 103.473 24.9771C105.555 22.2383 110.442 19.8324 124.716 19.215C143.528 18.4013 138.85 31.0831 136.612 32.8009C134.373 34.5188 127.825 31.3632 123.379 32.2717C118.933 33.1802 118.869 39.7692 117.456 40.8542C116.042 41.9391 116.446 40.283 114.269 39.6038C112.092 38.9246 112.315 42.3669 113.184 44.5147C114.053 46.6625 111.576 49.9438 111.576 49.9438L108.334 47.2094C105.092 44.4772 100.792 31.7447 101.751 28.7986C101.83 28.5384 101.921 28.2782 102.009 28.0113Z" fill="#3E4E7D"/>
<path d="M150.006 159.789C150.006 159.789 145.293 162.111 139.799 164.2C116.023 146.856 117.864 105.229 117.734 104.526L147.598 130.818L148.581 146C148.762 146.778 148.827 147.577 148.775 148.373C148.076 156.248 150.886 157.247 150.006 159.789Z" fill="#6980E2"/>
<path d="M182.326 132.838C182.326 132.838 185.4 132.538 187.474 131.717C189.547 130.897 196.679 128.348 197.958 128.835C199.237 129.323 203.348 131.995 204.323 132.516C205.298 133.036 206.923 135.488 206.923 135.488C206.14 136.185 203.659 134.322 202.512 134.282C201.365 134.242 192.526 138.373 189.983 138.315C187.44 138.258 182.926 137.89 182.926 137.89L182.326 132.838Z" fill="#FFB27D"/>
<path d="M198.957 133.444C198.97 133.585 201.855 137.23 204.285 136.282L201.859 133.565L198.957 133.444Z" fill="#FFB27D"/>
<path d="M187.469 131.718C187.469 131.718 190.409 129.318 191.408 128.139C191.408 128.139 191.946 128.425 191.939 128.897C191.939 129.682 191.075 131.072 191.075 131.072L187.469 131.718Z" fill="#FFB27D"/>
<path d="M129.749 83.5659C113.464 76.0904 100.664 93.9566 110.097 109.19C121.035 126.855 133.112 135.925 140.33 140.629C144.829 143.559 158.931 145.48 185.1 139.813C185.1 139.813 186.688 136.681 183.51 132.108C183.51 132.108 156.58 127.885 150.405 121.541C147.092 118.141 129.877 83.6276 129.749 83.5659Z" fill="#8C9DF4"/>
<path d="M173.646 226.742C173.85 226.752 174.054 226.744 174.257 226.716C174.695 226.666 175.105 226.476 175.426 226.173C175.836 225.781 176.097 225.259 176.164 224.696H176.138C175.978 224.889 175.775 225.043 175.545 225.146C175.316 225.249 175.066 225.298 174.815 225.289C173.818 225.289 173.174 224.532 173.174 223.578C173.174 222.521 173.937 221.593 175.082 221.593C176.226 221.593 176.93 222.513 176.93 223.957C176.93 225.176 176.517 226.036 175.968 226.57C175.523 226.99 174.952 227.253 174.343 227.318C174.112 227.354 173.879 227.368 173.646 227.359V226.742ZM173.921 223.536C173.921 224.23 174.343 224.722 174.995 224.722C175.214 224.729 175.431 224.679 175.624 224.576C175.818 224.474 175.981 224.323 176.098 224.138C176.146 224.051 176.17 223.953 176.167 223.853C176.167 222.898 175.814 222.169 175.015 222.169C174.387 222.173 173.921 222.74 173.921 223.54V223.536Z" fill="#325DA3"/>
<path d="M181.341 224.424C181.341 226.325 180.627 227.373 179.396 227.373C178.293 227.373 177.557 226.35 177.539 224.506C177.539 222.623 178.357 221.602 179.491 221.602C180.662 221.597 181.341 222.645 181.341 224.424ZM178.304 224.51C178.304 225.964 178.745 226.788 179.44 226.788C180.205 226.788 180.576 225.886 180.576 224.46C180.576 223.084 180.232 222.182 179.44 222.182C178.798 222.182 178.304 222.993 178.304 224.51Z" fill="#325DA3"/>
<path d="M182.722 222.949C182.507 222.95 182.298 222.886 182.119 222.768C181.941 222.649 181.802 222.48 181.72 222.282C181.637 222.084 181.616 221.866 181.657 221.656C181.699 221.445 181.802 221.252 181.954 221.101C182.105 220.949 182.299 220.846 182.509 220.804C182.719 220.763 182.937 220.784 183.135 220.867C183.333 220.949 183.502 221.088 183.621 221.266C183.74 221.445 183.803 221.654 183.802 221.869C183.802 222.155 183.688 222.43 183.485 222.632C183.283 222.835 183.008 222.949 182.722 222.949V222.949ZM182.722 221.434C182.635 221.434 182.549 221.46 182.477 221.509C182.404 221.557 182.348 221.626 182.314 221.706C182.281 221.787 182.272 221.876 182.289 221.961C182.306 222.047 182.348 222.125 182.41 222.187C182.472 222.249 182.55 222.291 182.636 222.308C182.721 222.325 182.81 222.316 182.891 222.283C182.971 222.249 183.04 222.193 183.089 222.12C183.137 222.048 183.163 221.962 183.163 221.875C183.163 221.758 183.116 221.646 183.034 221.563C182.951 221.481 182.839 221.434 182.722 221.434Z" fill="#325DA3"/>
<path d="M166.357 109.951C166.561 109.961 166.765 109.952 166.968 109.924C167.406 109.875 167.816 109.684 168.137 109.382C168.547 108.99 168.808 108.467 168.876 107.904H168.849C168.689 108.098 168.486 108.252 168.257 108.355C168.027 108.458 167.777 108.506 167.526 108.497C166.529 108.497 165.883 107.741 165.883 106.786C165.883 105.728 166.648 104.802 167.793 104.802C168.937 104.802 169.641 105.723 169.641 107.168C169.641 108.387 169.228 109.247 168.679 109.781C168.233 110.2 167.662 110.462 167.054 110.528C166.823 110.565 166.59 110.579 166.357 110.57V109.951ZM166.633 106.744C166.633 107.439 167.054 107.931 167.707 107.931C167.926 107.938 168.143 107.887 168.336 107.785C168.53 107.682 168.693 107.53 168.809 107.344C168.858 107.258 168.881 107.16 168.878 107.062C168.878 106.107 168.525 105.377 167.727 105.377C167.087 105.377 166.633 105.944 166.633 106.744Z" fill="#325DA3"/>
<path d="M174.046 107.629C174.046 109.529 173.334 110.577 172.103 110.577C171 110.577 170.264 109.554 170.246 107.71C170.246 105.827 171.064 104.804 172.198 104.804C173.367 104.797 174.046 105.849 174.046 107.629ZM171.011 107.715C171.011 109.168 171.452 109.992 172.147 109.992C172.912 109.992 173.281 109.091 173.281 107.664C173.281 106.288 172.939 105.386 172.147 105.386C171.494 105.386 171.011 106.193 171.011 107.715Z" fill="#325DA3"/>
<path d="M175.431 106.153C175.216 106.154 175.007 106.09 174.828 105.972C174.65 105.853 174.511 105.684 174.429 105.486C174.346 105.288 174.325 105.07 174.366 104.86C174.408 104.65 174.511 104.456 174.663 104.305C174.814 104.153 175.008 104.05 175.218 104.008C175.428 103.967 175.646 103.988 175.844 104.071C176.042 104.153 176.211 104.292 176.33 104.47C176.449 104.649 176.512 104.858 176.511 105.073C176.51 105.359 176.396 105.633 176.194 105.835C175.991 106.038 175.717 106.152 175.431 106.153V106.153ZM175.431 104.638C175.344 104.638 175.258 104.664 175.186 104.713C175.113 104.761 175.057 104.83 175.023 104.911C174.99 104.991 174.981 105.08 174.998 105.165C175.015 105.251 175.057 105.33 175.119 105.391C175.181 105.453 175.259 105.495 175.345 105.512C175.43 105.529 175.519 105.52 175.6 105.487C175.68 105.453 175.749 105.397 175.798 105.324C175.846 105.252 175.872 105.167 175.872 105.079C175.872 104.962 175.825 104.85 175.743 104.767C175.66 104.685 175.548 104.638 175.431 104.638Z" fill="#325DA3"/>
<path d="M133.218 277.904H127.182L125.488 201.092H134.711L133.218 277.904Z" fill="#2B478B"/>
<path d="M159.454 277.904H100.742V272.6L130.667 269.901L159.454 272.6V277.904Z" fill="#2B478B"/>
<path d="M95.0352 277.07C95.0352 276.115 95.3184 275.181 95.8492 274.387C96.3799 273.593 97.1342 272.974 98.0167 272.609C98.8992 272.243 99.8703 272.147 100.807 272.334C101.744 272.52 102.605 272.98 103.28 273.655C103.956 274.331 104.416 275.191 104.602 276.128C104.788 277.065 104.693 278.036 104.327 278.918C103.962 279.801 103.343 280.555 102.548 281.086C101.754 281.616 100.82 281.9 99.865 281.9C98.5842 281.899 97.3561 281.39 96.4504 280.484C95.5448 279.579 95.0357 278.351 95.0352 277.07V277.07Z" fill="#2B478B"/>
<path d="M153.75 277.07C153.75 276.115 154.033 275.181 154.564 274.387C155.095 273.593 155.849 272.974 156.732 272.609C157.614 272.243 158.585 272.147 159.522 272.334C160.459 272.52 161.32 272.98 161.995 273.655C162.67 274.331 163.13 275.191 163.317 276.128C163.503 277.065 163.408 278.036 163.042 278.918C162.676 279.801 162.057 280.555 161.263 281.086C160.469 281.616 159.535 281.9 158.58 281.9C157.299 281.899 156.071 281.39 155.165 280.484C154.26 279.579 153.751 278.351 153.75 277.07V277.07Z" fill="#2B478B"/>
<path d="M157.348 206.131H102.846C101.51 206.131 100.228 205.6 99.2821 204.655C98.3367 203.71 97.8053 202.428 97.8047 201.092H162.388C162.388 202.428 161.857 203.71 160.912 204.655C159.967 205.6 158.685 206.131 157.348 206.131Z" fill="#2B478B"/>
<path d="M91.8744 170.643H88.5332V192.115H91.8744V170.643Z" fill="#2B478B"/>
<path d="M89.5416 173.598C89.3806 173.598 89.2152 173.598 89.0498 173.576C87.6155 173.447 86.2912 172.753 85.3681 171.648C84.445 170.542 83.9987 169.116 84.1273 167.681C86.0835 145.888 83.1724 122.553 80.3782 106.819C77.3347 89.6389 73.773 77.5149 73.7377 77.3959C73.3283 76.0151 73.4842 74.5282 74.1712 73.2623C74.8582 71.9964 76.0199 71.0553 77.4009 70.6459C78.7818 70.2365 80.2689 70.3924 81.5349 71.0793C82.8009 71.7662 83.7422 72.9278 84.1516 74.3087C84.3038 74.8202 87.9008 87.0258 91.0457 104.773C93.9612 121.201 97.0003 145.619 94.936 168.654C94.8146 170.002 94.1942 171.256 93.1963 172.17C92.1985 173.085 90.8952 173.594 89.5416 173.598V173.598Z" fill="#D98F52"/>
<path d="M183.799 209.041C182.887 209.044 181.99 208.816 181.189 208.38L171.85 203.248C169.368 201.888 166.584 201.173 163.754 201.171H88.4238C86.9838 201.171 85.6027 200.599 84.5845 199.581C83.5662 198.563 82.9941 197.182 82.9941 195.742C82.9941 194.302 83.5662 192.921 84.5845 191.903C85.6027 190.885 86.9838 190.313 88.4238 190.313H163.754C168.412 190.316 172.994 191.492 177.079 193.731L186.419 198.86C187.475 199.441 188.308 200.357 188.786 201.463C189.265 202.57 189.361 203.804 189.061 204.971C188.761 206.139 188.081 207.173 187.128 207.911C186.175 208.65 185.004 209.051 183.799 209.05V209.041Z" fill="#D98F52"/>
<path d="M104.295 89.1228C104.295 88.8668 104.371 88.6165 104.513 88.4037C104.655 88.1908 104.858 88.0249 105.094 87.9269C105.331 87.8289 105.591 87.8033 105.842 87.8532C106.093 87.9032 106.324 88.0265 106.505 88.2075C106.686 88.3885 106.809 88.6192 106.859 88.8703C106.909 89.1214 106.883 89.3816 106.785 89.6182C106.688 89.8547 106.522 90.0568 106.309 90.1991C106.096 90.3413 105.846 90.4172 105.589 90.4172C105.246 90.4172 104.917 90.2809 104.674 90.0381C104.431 89.7953 104.295 89.4661 104.295 89.1228V89.1228Z" fill="#DD7F56"/>
<path d="M104.295 115.393C104.295 115.137 104.372 114.887 104.514 114.674C104.657 114.462 104.859 114.296 105.096 114.198C105.332 114.101 105.592 114.076 105.843 114.126C106.094 114.176 106.325 114.299 106.506 114.48C106.686 114.662 106.81 114.892 106.859 115.143C106.909 115.394 106.883 115.654 106.785 115.891C106.687 116.127 106.521 116.329 106.308 116.471C106.096 116.614 105.845 116.689 105.589 116.689C105.419 116.689 105.251 116.656 105.094 116.591C104.936 116.526 104.794 116.43 104.673 116.31C104.553 116.189 104.458 116.046 104.393 115.889C104.328 115.732 104.295 115.563 104.295 115.393V115.393Z" fill="#DD7F56"/>
<path d="M104.295 154.801C104.295 154.545 104.371 154.295 104.513 154.082C104.655 153.869 104.858 153.703 105.094 153.605C105.331 153.507 105.591 153.482 105.842 153.531C106.093 153.581 106.324 153.705 106.505 153.886C106.686 154.067 106.809 154.297 106.859 154.548C106.909 154.8 106.883 155.06 106.785 155.296C106.688 155.533 106.522 155.735 106.309 155.877C106.096 156.02 105.846 156.095 105.589 156.095C105.246 156.095 104.917 155.959 104.674 155.716C104.431 155.474 104.295 155.144 104.295 154.801V154.801Z" fill="#DD7F56"/>
<path d="M104.295 102.259C104.295 102.003 104.371 101.753 104.513 101.54C104.655 101.327 104.858 101.161 105.094 101.063C105.331 100.965 105.591 100.94 105.842 100.989C106.093 101.039 106.324 101.163 106.505 101.344C106.686 101.525 106.809 101.755 106.859 102.007C106.909 102.258 106.883 102.518 106.785 102.754C106.688 102.991 106.522 103.193 106.309 103.335C106.096 103.478 105.846 103.553 105.589 103.553C105.246 103.553 104.917 103.417 104.674 103.174C104.431 102.932 104.295 102.602 104.295 102.259V102.259Z" fill="#DD7F56"/>
<path d="M104.295 141.665C104.295 141.409 104.371 141.159 104.513 140.946C104.655 140.733 104.858 140.567 105.094 140.469C105.331 140.371 105.591 140.346 105.842 140.395C106.093 140.445 106.324 140.569 106.505 140.75C106.686 140.931 106.809 141.161 106.859 141.413C106.909 141.664 106.883 141.924 106.785 142.16C106.688 142.397 106.522 142.599 106.309 142.741C106.096 142.884 105.846 142.959 105.589 142.959C105.246 142.959 104.917 142.823 104.674 142.58C104.431 142.338 104.295 142.008 104.295 141.665V141.665Z" fill="#DD7F56"/>
<path d="M104.295 128.529C104.295 128.273 104.371 128.023 104.513 127.81C104.655 127.597 104.858 127.431 105.094 127.333C105.331 127.235 105.591 127.209 105.842 127.259C106.093 127.309 106.324 127.432 106.505 127.614C106.686 127.795 106.809 128.025 106.859 128.276C106.909 128.527 106.883 128.788 106.785 129.024C106.688 129.261 106.522 129.463 106.309 129.605C106.096 129.747 105.846 129.823 105.589 129.823C105.246 129.823 104.917 129.687 104.674 129.444C104.431 129.201 104.295 128.872 104.295 128.529V128.529Z" fill="#DD7F56"/>
</svg>
