<svg width="200" height="200" viewBox="0 0 200 200" fill="none" xmlns="http://www.w3.org/2000/svg">
<path style="mix-blend-mode:screen" d="M101 191C149.601 191 189 151.601 189 103C189 54.3989 149.601 15 101 15C52.3989 15 13 54.3989 13 103C13 151.601 52.3989 191 101 191Z" fill="url(#paint0_radial_361_52)"/>
<path style="mix-blend-mode:screen" d="M181.001 108.01C181.001 67.0491 147.796 33.8436 106.835 33.8436C65.8735 33.8436 32.668 67.0491 32.668 108.01C32.668 148.971 65.8735 182.177 106.835 182.177C147.796 182.177 181.001 148.971 181.001 108.01Z" fill="url(#paint1_radial_361_52)"/>
<path style="mix-blend-mode:screen" d="M100.215 172.493C139.304 172.493 170.991 140.805 170.991 101.717C170.991 62.6284 139.304 30.9409 100.215 30.9409C61.1269 30.9409 29.4395 62.6284 29.4395 101.717C29.4395 140.805 61.1269 172.493 100.215 172.493Z" fill="url(#paint2_radial_361_52)"/>
<path fill-rule="evenodd" clip-rule="evenodd" d="M168.281 117.994L167.777 119.803C167.759 119.888 167.736 119.972 167.707 120.054C163.431 134.746 154.498 147.651 142.253 156.825C130.008 166 115.114 170.948 99.8133 170.924C98.5649 170.924 97.2814 170.895 96.0545 170.825H96.0389C94.1887 170.728 92.3522 170.558 90.5429 170.334C78.9441 168.819 67.9083 164.427 58.4395 157.558C57.569 156.927 56.714 156.281 55.8863 155.623C57.5125 154.22 60.9499 154.08 60.9499 154.08L56.1667 150.278L44.1757 143.828C41.8641 140.909 39.7911 137.809 37.9766 134.558C37.5417 133.779 37.121 132.993 36.7146 132.201C36.7146 132.172 36.6874 132.158 36.6718 132.131C36.2511 131.274 35.8447 130.419 35.4526 129.564H35.4487C34.2142 126.849 33.1551 124.057 32.2781 121.205C31.6335 119.143 31.0726 117.026 30.6227 114.866C30.6118 114.849 30.607 114.83 30.6091 114.81C30.3013 113.31 30.0345 111.781 29.83 110.237C29.3503 106.917 29.1114 103.566 29.1153 100.211C29.1153 99.4319 29.1289 98.6256 29.1562 97.8544C29.1854 96.6858 29.2555 95.5173 29.3665 94.3897C29.4775 93.2621 29.5768 92.1169 29.7171 90.9951C29.7199 90.9107 29.7296 90.8267 29.7463 90.7439C29.9566 89.1722 30.2079 87.6434 30.5253 86.1145C30.9563 83.9226 31.5037 81.7552 32.1651 79.6214C33.0401 76.6732 34.1231 73.7907 35.4059 70.9957C36.6235 68.3042 38.015 65.6948 39.5717 63.1841C44.3958 60.6309 47.4807 59.289 47.4807 59.289C47.4807 59.289 129.807 42.951 131.083 41.5488C132.359 40.1466 138.587 41.0288 138.587 41.0288C142.442 43.5662 146.045 46.4691 149.343 49.6973C150.122 50.4393 150.859 51.2262 151.616 52.011C152.107 52.5427 152.59 53.1055 153.075 53.6509C153.889 54.5779 154.687 55.5458 155.459 56.5118C158.287 60.1056 160.758 63.9671 162.836 68.0413C163.65 69.611 164.394 71.2255 165.08 72.8654C165.08 72.879 165.095 72.8946 165.095 72.9082C171.448 97.7609 163.607 118.839 163.607 118.839C165.115 118.328 166.69 118.043 168.281 117.994Z" fill="url(#paint3_radial_361_52)"/>
<path fill-rule="evenodd" clip-rule="evenodd" d="M168.281 117.994L167.777 119.803C167.759 119.888 167.736 119.972 167.707 120.054C163.431 134.746 154.498 147.651 142.253 156.825C130.008 166 115.114 170.948 99.8133 170.924C98.5649 170.924 97.2814 170.895 96.0545 170.825H96.0389C94.1887 170.728 92.3522 170.558 90.5429 170.334C78.9441 168.819 67.9083 164.427 58.4395 157.558C57.569 156.927 56.714 156.281 55.8863 155.623C57.5125 154.22 60.9499 154.08 60.9499 154.08L56.1667 150.278L44.1757 143.828C41.8641 140.909 39.7911 137.809 37.9766 134.558C37.5417 133.779 37.121 132.993 36.7146 132.201C36.7146 132.172 36.6874 132.158 36.6718 132.131C36.2511 131.274 35.8447 130.419 35.4526 129.564H35.4487C34.2142 126.849 33.1551 124.057 32.2781 121.205C31.6335 119.143 31.0726 117.026 30.6227 114.866C30.6118 114.849 30.607 114.83 30.6091 114.81C30.3013 113.31 30.0345 111.781 29.83 110.237C29.3503 106.917 29.1114 103.566 29.1153 100.211C29.1153 99.4319 29.1289 98.6256 29.1562 97.8544C29.1854 96.6858 29.2555 95.5173 29.3665 94.3897C29.4775 93.2621 29.5768 92.1169 29.7171 90.9951C29.7199 90.9107 29.7296 90.8267 29.7463 90.7439C29.9566 89.1722 30.2079 87.6434 30.5253 86.1145C30.9563 83.9226 31.5037 81.7552 32.1651 79.6214C33.0401 76.6732 34.1231 73.7907 35.4059 70.9957C36.6235 68.3042 38.015 65.6948 39.5717 63.1841C44.3958 60.6309 47.4807 59.289 47.4807 59.289C47.4807 59.289 129.807 42.951 131.083 41.5488C132.359 40.1466 138.587 41.0288 138.587 41.0288C142.442 43.5662 146.045 46.4691 149.343 49.6973C150.122 50.4393 150.859 51.2262 151.616 52.011C152.107 52.5427 152.59 53.1055 153.075 53.6509C153.889 54.5779 154.687 55.5458 155.459 56.5118C158.287 60.1056 160.758 63.9671 162.836 68.0413C163.65 69.611 164.394 71.2255 165.08 72.8654C165.08 72.879 165.095 72.8946 165.095 72.9082C171.448 97.7609 163.607 118.839 163.607 118.839C165.115 118.328 166.69 118.043 168.281 117.994Z" fill="url(#paint4_radial_361_52)"/>
<path fill-rule="evenodd" clip-rule="evenodd" d="M166.262 100.211C166.264 102.684 166.124 105.155 165.842 107.612C165.444 111.334 164.717 115.014 163.668 118.608C163.652 118.689 163.628 118.768 163.598 118.845C162.319 123.232 160.59 127.474 158.437 131.504C150.848 145.66 138.409 156.605 123.402 162.33C115.869 165.196 107.874 166.661 99.8137 166.652C98.6452 166.652 97.4436 166.625 96.2789 166.554H96.2653C94.5262 166.471 92.8006 166.301 91.1043 166.091C80.2088 164.668 69.8425 160.541 60.9504 154.086C59.6455 153.159 58.3835 152.164 57.1624 151.14C56.8274 150.859 56.4905 150.579 56.1672 150.285C50.3745 145.218 45.4894 139.199 41.7222 132.488C41.3152 131.758 40.9218 131.016 40.5303 130.272C40.5303 130.244 40.5148 130.229 40.5011 130.202C40.0941 129.401 39.7221 128.603 39.3521 127.788H39.3443C38.1813 125.239 37.1878 122.616 36.3704 119.936C35.7491 117.981 35.229 115.996 34.8123 113.988C34.8061 113.98 34.8016 113.971 34.7989 113.961C34.7962 113.952 34.7955 113.942 34.7968 113.932C34.5027 112.516 34.2495 111.086 34.0547 109.647C33.6027 106.526 33.3775 103.376 33.3809 100.223C33.3809 99.4789 33.3945 98.735 33.4237 98.0066C33.451 96.9121 33.5211 95.8175 33.6185 94.7522C33.7159 93.6869 33.8132 92.6099 33.9554 91.568C33.9575 91.488 33.9672 91.4085 33.9846 91.3304C34.1794 89.858 34.4189 88.4091 34.713 86.9815C35.1182 84.9223 35.6331 82.8861 36.2555 80.8818C37.0792 78.112 38.0964 75.4034 39.2995 72.7761C40.5856 69.9393 42.0714 67.1974 43.7457 64.5711C44.8941 62.7529 46.1391 60.9976 47.4753 59.3127C49.3303 56.9327 51.3476 54.6837 53.5127 52.582C65.8987 40.5017 82.5219 33.7508 99.8235 33.7745C100.525 33.7745 101.226 33.7881 101.913 33.8017C102.655 33.831 103.399 33.8582 104.143 33.9147C106.204 34.0549 108.252 34.2789 110.257 34.6022C110.286 34.6022 110.299 34.6158 110.327 34.6158C112.009 34.8671 113.665 35.2001 115.293 35.5896C117.396 36.094 119.457 36.6841 121.476 37.3852C122.851 37.8468 124.203 38.359 125.531 38.9277C126.526 39.3484 127.494 39.7827 128.452 40.2462C128.62 40.3299 128.789 40.4 128.957 40.4838C135.37 43.6211 141.237 47.7698 146.333 52.7709C147.063 53.472 147.764 54.2004 148.475 54.9443C148.939 55.4487 149.4 55.9668 149.85 56.4868C150.629 57.3554 151.363 58.2669 152.094 59.1803C159.954 69.168 164.769 81.2089 165.964 93.8622C166.17 95.9722 166.269 98.0912 166.262 100.211V100.211Z" fill="url(#paint5_radial_361_52)"/>
<path style="mix-blend-mode:screen" fill-rule="evenodd" clip-rule="evenodd" d="M67.3725 73.7301C67.3725 73.7301 65.6099 77.6506 67.0784 81.6275C68.5468 85.6044 72.6659 82.9654 77.5815 81.6275C82.4971 80.2895 87.5471 75.1207 90.7353 71.9248C93.9234 68.7288 96.9791 64.3449 96.7142 60.0934C96.4494 55.8419 91.9603 53.0511 91.9603 53.0511C91.9603 53.0511 93.5923 50.9691 92.2212 59.2988C90.8502 67.6285 88.9844 70.5946 87.2024 71.9248C85.4204 73.2549 79.9965 76.4041 77.0362 78.1764C74.0759 79.9487 70.7709 81.7813 68.8117 81.3529C66.8525 80.9244 65.8183 76.5229 67.3725 73.7301Z" fill="url(#paint6_radial_361_52)"/>
<path style="mix-blend-mode:screen" fill-rule="evenodd" clip-rule="evenodd" d="M76.3778 70.8617C76.3778 70.8617 73.8616 73.0975 74.5257 74.8989C75.1898 76.7004 79.9788 75.5475 83.0287 71.6738C86.0786 67.8001 83.6694 64.6724 83.6694 64.6724C83.6694 64.6724 82.5476 71.1363 79.5796 72.2678C76.6115 73.3993 75.6377 72.9261 75.6377 72.9261C75.6377 72.9261 75.1781 72.4119 76.3778 70.8617Z" fill="url(#paint7_radial_361_52)"/>
<path style="mix-blend-mode:screen" fill-rule="evenodd" clip-rule="evenodd" d="M68.752 73.6541C68.752 73.6541 71.202 70.875 73.9928 68.275C76.7837 65.675 81.6097 64.672 81.6097 64.672C81.6097 64.672 78.7916 63.1783 75.1828 65.2797C71.574 67.3811 68.752 73.6541 68.752 73.6541Z" fill="url(#paint8_radial_361_52)"/>
<path style="mix-blend-mode:screen" fill-rule="evenodd" clip-rule="evenodd" d="M58.7482 73.7031C58.7482 73.7031 64.4292 67.3911 71.3371 64.6723C78.2451 61.9535 80.6386 61.157 83.6943 58.6349C85.7537 56.9668 87.928 55.4459 90.2011 54.0835C90.2011 54.0835 83.4762 54.4263 73.197 60.9369C62.9179 67.4476 58.7209 71.5861 58.7482 73.7031Z" fill="url(#paint9_radial_361_52)"/>
<path style="mix-blend-mode:screen" fill-rule="evenodd" clip-rule="evenodd" d="M44.8906 72.4471C44.8906 72.4471 54.7258 62.6179 62.4322 58.7656C70.1387 54.9134 75.3211 52.3874 82.231 50.6599C89.1409 48.9324 99.8174 45.9196 99.8174 45.9196L101.745 44.9458C101.745 44.9458 79.7771 45.3898 65.3555 54.0818C50.9339 62.7737 44.8906 72.4471 44.8906 72.4471Z" fill="url(#paint10_radial_361_52)"/>
<path style="mix-blend-mode:screen" fill-rule="evenodd" clip-rule="evenodd" d="M56.6759 83.7798C56.6759 83.7798 58.3158 97.3562 60.6762 97.9657C63.0366 98.5753 71.5026 98.513 84.0857 92.0783C96.6688 85.6436 99.2221 87.1315 106.274 79.9626C113.326 72.7937 116.181 64.6588 118.365 59.2991C120.548 53.9394 121.187 47.8222 120.507 45.9194C120.507 45.9194 122.883 47.3392 122.883 52.6541C122.883 57.9689 121.288 66.8965 119.029 72.0653C116.77 77.2341 110.925 85.3378 103.883 89.3245C96.8402 93.3111 82.7614 100.965 68.9455 100.858C55.1296 100.751 57.3108 99.7516 55.8969 96.9959C54.483 94.2401 56.6759 83.7798 56.6759 83.7798Z" fill="url(#paint11_radial_361_52)"/>
<g style="mix-blend-mode:multiply" opacity="0.5">
<path fill-rule="evenodd" clip-rule="evenodd" d="M35.1426 95.3714C35.1426 95.3714 37.6121 100.844 38.9948 105.847C40.3776 110.851 40.1127 119.354 45.8249 120.682C51.537 122.01 59.5103 125.73 62.5738 124.801C65.6373 123.872 76.9117 121.846 83.1672 123.073C89.4227 124.3 100.839 123.605 104.824 121.611C108.809 119.616 117.393 114.5 121.472 112.94C125.55 111.38 131.188 106.94 136.043 102.005C140.898 97.0697 140.832 91.451 142.028 88.6602C143.224 85.8693 145.615 74.7099 145.339 69.6599C145.062 64.6099 142.028 55.1779 142.028 55.1779L139.186 52.1748C139.186 52.1748 142.692 65.1435 141.097 74.3106C139.502 83.4778 140.965 87.1995 134.586 95.9674C128.208 104.735 119.308 111.647 109.342 114.968C99.3766 118.288 92.9828 117.889 82.6355 118.849C72.9737 119.745 60.9554 119.061 56.1722 117.815C51.8876 116.697 46.0975 113.821 41.7136 106.821C37.3297 99.8216 35.1426 95.3714 35.1426 95.3714Z" fill="#7D72B3"/>
</g>
<g style="mix-blend-mode:multiply" opacity="0.4">
<path fill-rule="evenodd" clip-rule="evenodd" d="M57.118 81.02C57.118 81.02 58.0333 95.763 59.9088 97.0308C61.7843 98.2987 65.7515 98.8245 69.4752 97.5625C73.1989 96.3005 85.9514 92.1094 88.1424 90.787C90.3334 89.4646 103.768 82.7475 106.412 80.7551C109.057 78.7628 112.592 71.6718 113.786 70.2014C114.98 68.731 118.238 59.9612 119.169 56.6386C120.1 53.3161 120.762 49.3314 120.762 49.3314C120.762 49.3314 121.029 47.4715 119.434 46.8736C117.839 46.2757 117.576 46.8736 117.576 46.8736C117.576 46.8736 117.241 49.0666 115.846 55.3766C114.452 61.6867 95.6502 83.3454 86.1501 88.9933C76.6499 94.6412 67.6153 94.8359 64.3609 94.4464C61.1066 94.0569 57.0518 83.544 57.118 81.02Z" fill="#7D72B3"/>
</g>
<g style="mix-blend-mode:multiply" opacity="0.4">
<path fill-rule="evenodd" clip-rule="evenodd" d="M56.6765 83.7794C56.6765 83.7794 57.066 74.6006 59.4381 71.5098C61.8102 68.4191 69.7601 62.0779 74.4673 59.6843C79.1745 57.2908 86.0202 53.904 88.404 53.3996C90.7878 52.8952 92.4666 53.3996 92.4666 53.3996C92.4666 53.3996 89.5998 51.8415 83.0229 53.5067C76.446 55.1718 69.0005 61.2833 65.4171 63.1743C61.8336 65.0654 56.2558 69.6636 54.9237 71.985C53.5915 74.3065 56.6765 83.7794 56.6765 83.7794Z" fill="#7D72B3"/>
</g>
<g style="mix-blend-mode:multiply" opacity="0.4">
<path fill-rule="evenodd" clip-rule="evenodd" d="M40.5117 74.1041L60.8987 56.2412L73.5266 50.5271C73.5266 50.5271 86.0104 46.2853 91.7245 44.9513C97.4386 43.6172 110.259 43.2199 110.259 43.2199L116.98 43.9502C116.98 43.9502 105.283 37.572 88.0027 42.2227C70.7221 46.8735 59.2374 52.6811 54.1894 57.4506C49.1413 62.2202 41.5244 71.769 40.5117 74.1041Z" fill="#7D72B3"/>
</g>
<path style="mix-blend-mode:screen" fill-rule="evenodd" clip-rule="evenodd" d="M39.9498 74.8987C39.9498 74.8987 28.9968 88.1186 34.3117 96.2535C39.6265 104.388 41.9753 116.119 43.5177 118.845C45.0602 121.572 62.6933 125.675 66.3547 124.828C70.0161 123.981 78.7995 121.675 84.5467 123.901C84.5467 123.901 94.7227 123.025 97.644 123.025C100.565 123.025 105.882 120.545 107.123 119.924C108.363 119.303 115.271 117.09 118.808 115.673C122.345 114.255 128.02 109.83 130.322 108.056C132.624 106.281 138.65 99.1086 139.801 96.8943C140.952 94.6799 144.399 81.7462 145.293 75.6348C146.187 69.5234 143.557 57.7427 141.571 53.6684C139.584 49.5941 133.335 45.7847 133.335 45.7847L133.697 43.9424L138.566 41.0347C138.566 41.0347 147.059 52.1708 147.858 61.7877C148.325 67.4356 149.628 79.4559 148.146 84.6169C146.954 88.7613 142.888 100.945 139.353 105.296C135.818 109.647 125.18 120.758 119.511 122.91C113.842 125.062 97.1143 127.962 87.2694 128.168C80.0089 128.316 64.0157 127.017 56.1554 126.752C48.2951 126.487 42.6744 121.56 39.5506 119.063C36.4267 116.566 37.4881 109.766 34.2922 104.396C31.0963 99.0268 29.3454 91.8832 30.1361 87.9959C30.9268 84.1086 39.9498 74.8987 39.9498 74.8987Z" fill="url(#paint12_radial_361_52)"/>
<path fill-rule="evenodd" clip-rule="evenodd" d="M59.181 125.231C57.4983 124.842 55.985 123.913 54.3121 123.492C53.3714 123.266 52.4463 123.126 51.5193 122.861C50.5675 122.587 49.5873 122.422 48.598 122.37C46.6641 122.3 44.6581 121.85 43.4233 120.211C42.3756 118.781 41.6054 117.168 41.1525 115.455C40.4923 113.1 39.8613 110.744 39.1329 108.387C38.4667 106.26 37.5231 104.23 36.3265 102.35C35.8493 101.571 35.4442 100.807 34.9242 100.065C34.4471 99.3913 33.7888 98.7467 33.4246 97.9891L33.409 97.9755C32.484 96.0104 32.1607 93.8369 32.2171 91.7063C32.2464 90.5553 32.5677 89.4764 32.8209 88.3526C33.1578 86.9368 33.522 85.6884 34.2504 84.4127C34.9242 83.2442 35.5845 82.0562 36.2564 80.8643C37.7579 78.2273 39.3276 75.5903 41.1934 73.2202C43.6342 70.2078 46.2346 67.3285 48.9836 64.5945C50.5533 62.9955 52.3353 61.5933 54.131 60.2612C55.6442 59.1394 57.0523 57.9047 58.548 56.7692C61.1285 54.8061 64.0732 53.5305 66.9634 52.1263C70.4553 50.4436 73.9473 48.8154 77.5794 47.4853C81.8853 45.9169 86.3023 44.6722 90.7936 43.7616C95.9137 42.7235 101.31 42.5132 106.53 42.5424C109.391 42.556 112.448 42.1918 115.183 43.2571C116.725 43.8609 118.521 44.4627 119.857 45.3994C120.167 45.6098 120.307 45.6507 120.503 45.9311C120.62 46.1121 120.71 46.3088 120.77 46.5154C120.981 47.0062 121.232 47.8183 121.232 48.3383C121.232 48.9128 120.981 49.4172 120.981 50.021C120.994 50.876 120.77 51.6472 120.741 52.4885C120.7 53.4623 120.461 54.2141 120.32 55.1547C120.04 56.8939 119.787 58.5629 119.115 60.2028C118.141 62.5729 117.487 65.0716 116.408 67.4087C116.084 68.1234 115.51 68.6707 115.187 69.3855C114.879 70.0301 114.602 70.5637 114.234 71.1811C113.547 72.3302 112.986 73.5182 112.201 74.6166C110.573 76.8601 108.917 79.2595 106.773 81.0435C104.177 83.2033 101.345 84.9386 98.3715 86.5142C96.4356 87.5386 94.416 88.3643 92.4529 89.3478C90.7001 90.2164 88.9473 91.1143 87.1789 91.942C82.6353 94.059 77.8112 95.6306 73.0436 97.1166C71.6686 97.5509 70.3774 98.0144 68.9538 98.2111C67.6625 98.3923 66.1629 98.8129 64.8639 98.7954C63.4341 98.7294 62.0215 98.4552 60.6708 97.9813C58.398 97.2237 58.1741 94.7562 58.0066 92.7093C57.8962 91.1799 57.7011 89.6579 57.4223 88.1501C57.1983 86.9309 57.101 85.7234 56.8205 84.4906C56.5289 83.2436 56.369 81.9694 56.3434 80.689C56.3142 79.0628 56.9452 77.534 57.3172 75.9487C57.5548 74.9243 57.6677 73.8726 58.0962 72.891C58.698 71.4615 59.849 70.2268 60.9844 69.2024C62.1529 68.1643 63.2981 67.1419 64.4491 66.0863C65.1366 65.4397 65.9487 64.9626 66.679 64.3744C67.9547 63.35 69.3725 62.5515 70.8312 61.8075C71.9803 61.2038 72.8216 60.2495 73.8869 59.5503C75.0179 58.801 76.1881 58.1126 77.3925 57.4879C78.4149 56.9835 79.5231 56.6329 80.5904 56.2122C81.459 55.8753 82.2594 55.3709 83.1417 55.0768C83.9557 54.7944 84.7971 54.7107 85.5956 54.3737C86.3548 54.0454 87.1357 53.7696 87.9326 53.548C88.8441 53.3221 89.8685 52.9443 90.7936 52.917C92.6165 52.8878 93.5201 53.7992 93.9778 55.5676C94.6225 57.9787 93.8785 60.0119 93.004 62.2418C92.3029 64.0375 91.5317 65.8195 90.8442 67.6424C89.9327 70.069 87.7729 71.3427 85.95 73.0001C83.9692 74.7808 81.7268 76.2469 79.3011 77.347C78.5591 77.684 77.7586 77.8807 77.0302 78.1884C76.3992 78.4688 75.7819 78.8194 75.1509 79.1622C74.7438 79.3861 74.4497 79.7094 74.07 79.9626C73.7331 80.1866 73.3416 80.3132 72.991 80.5371C72.1526 81.1173 71.2658 81.6242 70.3404 82.0523C69.4426 82.4574 67.6606 82.697 67.0724 81.6453C66.7628 81.1117 66.8056 80.3677 66.6654 79.7659C66.5164 79.0751 66.451 78.3689 66.4706 77.6625C66.4706 76.9186 66.6108 76.3713 66.7238 75.6566C66.8368 74.9418 67.1445 74.4218 67.3685 73.748C68.0423 71.8413 69.3608 70.4254 70.5235 68.8538C71.2538 67.8586 71.8868 66.877 72.7398 65.9519C74.0018 64.6042 75.7838 63.9323 77.5639 63.4824C79.1628 63.0929 81.5486 62.6138 83.017 63.5389C84.2654 64.3179 83.3948 66.0065 82.9878 67.0445C82.7638 67.6288 82.5262 68.213 82.3295 68.7973C82.1893 69.2335 82.1348 69.7243 81.8796 70.145C81.3616 71.0136 80.3372 71.6173 79.566 72.2873C79.2154 72.5814 78.6545 73.0021 78.2338 73.1423C77.7002 73.3098 77.1257 73.2961 76.592 73.4227C76.3272 73.4792 76.187 73.8122 75.8637 73.6895C75.5696 73.5902 75.5696 73.2533 75.6241 72.9456C75.6786 72.6379 75.8072 72.3847 75.8637 72.1179C75.8773 72.0614 75.8072 71.964 75.8208 71.8939C76.0467 71.0662 77.0984 70.0281 77.5736 69.327C78.3293 69.6347 77.8112 70.0846 77.671 70.4216C77.6053 70.6992 77.554 70.98 77.5171 71.2629C77.4607 71.5005 77.0965 71.9348 77.3633 72.188C77.5444 72.371 78.1618 72.0478 78.3585 71.9776C79.9847 71.4031 81.0364 69.6211 81.5427 68.0085C81.8641 66.9569 81.8076 65.134 80.6449 64.6704C79.7743 64.3335 78.7227 64.5166 77.8112 64.503C74.516 64.4465 72.5665 67.9676 70.8137 70.2385C69.6325 71.7937 68.6959 73.5204 68.0365 75.3586C67.5593 76.6206 67.3626 77.9235 67.0257 79.2011C66.7725 80.1398 66.4648 81.5849 67.9099 81.3882C68.7512 81.2616 69.6627 80.8039 70.4612 80.5469C71.1432 80.3225 71.8051 80.041 72.4399 79.7055C73.4779 79.1446 74.6406 78.9908 75.7215 78.5136C76.5628 78.1338 77.4178 77.6723 78.2533 77.2652C80.4287 76.2136 82.5379 74.0674 84.0609 72.2172C85.0697 70.9688 86.5148 70.0281 87.6639 68.8927C88.8713 67.7008 89.516 66.2129 90.3437 64.7542C91.1714 63.2955 91.5921 61.8329 91.9563 60.1969C92.2932 58.7382 93.1618 57.0808 92.7139 55.5695C92.2367 53.9979 90.2171 53.9706 88.9122 54.1946C87.8333 54.3757 86.6414 54.5588 85.617 54.9736C83.7103 55.7312 81.8309 56.5433 79.9379 57.3107C76.9504 58.5435 74.4673 60.5767 71.7329 62.2457C70.3443 63.0871 68.8427 63.7337 67.5535 64.7425C66.5992 65.4865 65.6877 66.3551 64.7763 67.1691C64.1316 67.7534 63.5844 68.3903 62.8696 68.8947C61.929 69.5529 60.9902 70.2833 60.2891 71.1947C59.7049 71.9367 59.0544 72.8209 58.7311 73.7265C58.4935 74.4413 58.7174 75.1151 58.7603 75.8435C58.8148 76.8407 58.5344 77.7658 58.4935 78.7473C58.4506 79.7854 58.4935 80.8507 58.5071 81.8887C58.5071 83.922 58.1994 85.9007 58.2403 87.9612C58.2695 89.2251 58.55 90.5573 58.8012 91.8056C58.9959 92.8008 59.4049 93.6558 59.475 94.6802C59.5023 95.3249 59.6153 96.209 60.1898 96.6278C60.4702 96.8381 60.8344 96.8946 61.1636 97.0173C61.4927 97.14 61.7245 97.2276 62.0049 97.3133C62.1588 97.3678 62.3282 97.3971 62.4957 97.4535C62.6223 97.5236 62.7197 97.7048 62.8463 97.7612C63.1832 97.9015 63.6876 97.8177 64.0382 97.7476C64.8522 97.5938 65.6507 97.397 66.4648 97.2568C68.498 96.9063 70.5546 96.9472 72.5022 96.2188C74.7321 95.3774 76.8063 94.1719 79.009 93.2741C82.3042 91.9264 85.839 90.937 88.994 89.2485C90.4118 88.4695 91.8842 87.7625 93.3429 87.1062C96.8076 85.5482 100.44 84.2881 103.482 81.9452C104.65 81.0474 105.531 80.023 106.526 78.9713C107.087 78.3695 107.694 77.8359 108.195 77.1776C109.718 75.2287 111.073 73.155 112.248 70.9786C112.739 70.0671 113.027 69.07 113.539 68.1585C114.318 66.7426 115.278 65.4943 116.007 64.0355C116.735 62.5768 117.142 61.1746 117.619 59.6594C117.915 58.7343 118.125 57.9767 118.096 56.9952C118.069 55.032 118.279 53.3338 119.07 51.542C119.504 50.5585 120.122 49.1017 119.798 47.9936C119.631 47.4463 118.846 47.3061 118.369 47.1522C117.247 46.7725 116.082 46.492 115.004 46.0149C114.006 45.5669 113.292 45.0411 112.197 44.8463C111.797 44.7552 111.388 44.7127 110.978 44.7198C109.926 44.7762 109.015 45.4988 107.963 45.4618C107.64 45.4227 107.321 45.3576 107.009 45.267C106.462 45.1677 105.873 45.2378 105.34 45.2242C104.134 45.1813 102.97 44.9573 101.749 44.971C100.319 44.9866 98.9168 45.1112 97.4854 45.1969C96.1532 45.267 94.8075 45.1541 93.4753 45.1969C92.6184 45.2242 92.0867 45.6176 91.333 45.9525C90.6455 46.2622 89.8743 46.3888 89.1596 46.6556C88.5266 46.9068 87.9385 47.1308 87.2646 47.16C86.3259 47.1737 85.3852 47.0334 84.4738 47.2301C83.34 47.5201 82.2326 47.9045 81.1629 48.3792C78.1754 49.6568 75.2716 51.2557 72.173 52.2373C70.6715 52.6989 69.129 52.9092 67.6703 53.4993C67.1231 53.7233 66.6479 54.1167 66.1551 54.438C65.1814 55.0982 64.1511 55.7 63.1403 56.331C60.8831 57.7625 58.7369 59.3342 56.5907 60.9311C54.0589 62.8105 51.6537 64.6899 49.564 67.0757C45.9181 71.2687 42.1165 75.5047 38.9615 80.0892C37.4619 82.249 35.7773 84.5783 34.7119 86.9894C34.6847 87.0458 34.6711 87.0887 34.6418 87.1452C34.0576 88.5338 33.744 89.9925 33.9407 91.4921C33.9384 91.5207 33.9431 91.5494 33.9543 91.5758C34.1238 92.8106 34.6555 94.2693 35.1462 95.3911C35.637 96.5129 36.0441 97.7048 36.6751 98.772C37.3626 99.9406 38.3169 100.903 38.8174 102.165C39.4211 103.723 39.9684 105.392 40.4299 107.004C41.0232 109.048 41.5056 111.122 41.875 113.217C42.1282 114.506 42.3385 115.811 42.9403 116.989C43.7973 118.645 45.6202 119.262 47.1061 120.23C47.7726 120.707 48.5728 120.962 49.3926 120.958C50.7247 121.029 51.9867 121.348 53.2623 121.738C55.9889 122.579 58.7155 123.196 61.5667 123.153C63.263 123.14 64.8775 122.678 66.5446 122.468C68.1027 122.273 69.6607 122.117 71.2012 121.864C72.6035 121.64 73.9784 121.247 75.4079 121.247C76.8257 121.258 78.236 121.455 79.6029 121.831C81.94 122.476 84.2303 123 86.6706 122.896C88.1566 122.853 89.6153 122.507 91.0876 122.419C92.4762 122.335 93.7947 122.546 95.1775 122.643C97.6178 122.797 99.9607 122.195 102.232 121.451C103.79 120.947 105.079 120.203 106.467 119.375C107.589 118.717 108.67 118.52 109.903 118.207C112.342 117.582 114.694 116.655 116.902 115.445C119.763 113.817 122.12 111.419 124.887 109.68C126.459 108.706 128.225 108.054 129.756 107.002C131.023 106.142 132.202 105.16 133.277 104.069C134.526 102.807 135.704 101.489 136.952 100.227C137.905 99.2531 138.285 98.0534 138.845 96.8478C139.687 95.0658 139.981 93.2293 140.291 91.2934C140.612 89.3868 141.459 87.7041 142.281 85.9357C143.333 83.6785 144.228 81.5596 144.454 79.0356C144.637 77.1425 144.891 75.2359 144.891 73.3273C144.891 72.1081 144.68 70.9162 144.524 69.7088C144.371 68.587 144.147 67.508 143.907 66.3979C143.599 65.0346 143.642 63.6343 143.389 62.2594C143.165 61.0811 142.805 59.8347 142.478 58.67C142.244 57.8282 141.954 57.0031 141.609 56.2005C140.992 54.7611 140.175 53.4157 139.182 52.2042C138.762 51.7134 138.228 51.5595 137.751 51.209C137.387 50.9285 137.303 50.689 136.882 50.4786C136.298 50.1846 135.714 49.8944 135.13 49.5672C134.202 49.0355 133.151 48.8797 132.226 48.3753C131.342 47.8981 130.543 47.2671 129.694 46.7355C128.74 46.1317 127.772 45.7247 126.944 44.9398C126.116 44.155 125.598 43.1578 124.813 42.373C124.013 41.5589 122.866 41.0272 121.95 40.3261C120.367 39.0913 118.501 38.992 116.719 38.2364C115.808 37.8468 114.939 37.7865 113.993 37.5898C112.914 37.3658 112.183 36.7075 111.034 36.5809C110.01 36.468 108.999 36.4544 108.004 36.1739C107.425 36.0104 106.835 35.8932 106.238 35.8233C105.046 35.7104 103.901 35.8798 102.716 36.0064C101.678 36.1174 100.627 36.0609 99.5887 36.0609C98.7201 36.0609 97.8086 36.1466 96.9381 36.0064C94.4705 35.6266 91.7634 35.6695 89.2667 35.837C86.8829 36.0064 84.5556 36.1739 82.2964 36.9588C80.3761 37.619 78.4812 38.1799 76.6018 38.9511C75.3125 39.4692 74.1907 40.1859 72.9852 40.8578C70.0814 42.4859 67.4171 44.4763 64.6536 46.3284C61.5686 48.3753 58.6648 50.6481 55.6948 52.878C53.7609 54.3367 51.7998 55.7799 49.8892 57.2814C49.0615 57.9397 48.263 58.6272 47.4762 59.3283C49.3312 56.9483 51.3484 54.6994 53.5136 52.5976C65.8995 40.5173 82.5228 33.7664 99.8244 33.7901C100.525 33.7901 101.227 33.8037 101.914 33.8174C102.656 33.8466 103.4 33.8738 104.144 33.9303C106.205 34.0705 108.253 34.2945 110.257 34.6178C110.287 34.6178 110.3 34.6314 110.327 34.6314C112.614 35.2482 114.891 35.9025 117.158 36.5946C119.053 37.1691 120.959 37.6891 122.825 38.3337C124.058 38.7544 125.265 39.3075 126.457 39.7924C127.536 40.256 128.73 40.6474 129.739 41.2219C131.38 42.149 132.907 43.3818 134.423 44.5055C135.429 45.2805 136.384 46.119 137.284 47.0159C138.563 48.2613 139.702 49.644 140.678 51.1389C142.951 54.6581 144.768 58.6408 145.615 62.7365C146.344 66.1876 146.246 69.9425 146.106 73.448C146 75.3963 145.739 77.333 145.327 79.2401C144.906 81.2733 144.19 83.1683 143.979 85.2775C143.882 86.2999 144.049 87.3535 143.882 88.3624C143.742 89.1901 143.432 89.9886 143.264 90.8163C142.936 92.5727 142.37 94.2762 141.582 95.8799C140.487 98.0826 139.001 99.9055 137.416 101.799C135.636 103.915 133.727 105.949 131.877 108.031C130.027 110.113 127.768 111.803 125.368 113.235C123.503 114.356 121.596 115.702 119.563 116.489C117.654 117.246 115.494 118.325 113.434 118.549C111.862 118.703 110.614 119.293 109.344 120.248C108.565 120.809 107.998 121.566 107.283 122.168C106.637 122.715 105.879 122.883 105.108 123.142C103.272 123.759 101.476 123.619 99.5556 123.619C96.829 123.619 94.1278 123.886 91.407 124.166C90.0442 124.335 88.6698 124.391 87.2977 124.334C86.063 124.263 84.8419 123.944 83.6227 123.788C82.2594 123.619 80.8961 123.594 79.5562 123.381C78.57 123.201 77.561 123.182 76.5687 123.325C75.6981 123.422 74.8295 123.325 73.959 123.395C73.0884 123.465 72.1789 123.675 71.2811 123.802C67.1756 124.334 63.3468 126.213 59.181 125.231Z" fill="#00C4FF"/>
<path style="mix-blend-mode:screen" fill-rule="evenodd" clip-rule="evenodd" d="M55.8848 155.623C55.8848 155.623 71.4398 158.35 78.5094 158.155C89.1976 157.845 101.518 159.174 111.084 159.438C120.651 159.703 137.376 151.861 140.426 150.423C143.476 148.986 150.861 144.775 157.301 137.634C163.742 130.492 166.284 118.854 166.284 118.854H163.596C163.596 118.854 162.577 123.892 158.694 129.548C156.357 132.94 152.941 135.91 148.265 139.951C141.54 145.765 132.782 150.24 123.952 152.441C112.196 155.362 101.75 154.56 94.5436 155.635C84.1086 157.193 60.9484 153.504 60.9484 153.504L55.8848 155.623Z" fill="url(#paint13_radial_361_52)"/>
<path fill-rule="evenodd" clip-rule="evenodd" d="M51.7812 147.92C51.7812 147.92 54.2624 154.37 55.8867 155.622C55.8867 155.622 59.3027 155.831 60.9503 154.08L56.1671 150.278L51.7812 147.92Z" fill="url(#paint14_radial_361_52)"/>
<path fill-rule="evenodd" clip-rule="evenodd" d="M166.482 106.821C166.482 106.821 168.145 114.111 168.282 117.994C168.282 117.994 165.685 119.63 163.607 118.849C163.598 118.849 166.048 109.933 166.482 106.821Z" fill="url(#paint15_radial_361_52)"/>
<path fill-rule="evenodd" clip-rule="evenodd" d="M121.465 37.3794C121.465 37.3794 135.329 38.7699 138.576 41.0388C138.576 41.0388 136.282 43.6077 133.707 43.9465C133.703 43.9563 122.46 37.7105 121.465 37.3794Z" fill="#FF61C7"/>
<path fill-rule="evenodd" clip-rule="evenodd" d="M39.5625 63.1847L45.2455 62.2888L47.4715 59.2993C47.4715 59.2993 43.3953 61.095 39.5625 63.1847Z" fill="#FF61C7"/>
<g style="mix-blend-mode:multiply" opacity="0.5">
<path fill-rule="evenodd" clip-rule="evenodd" d="M44.1758 143.829C44.1758 143.829 71.0714 151.636 92.064 152.045C113.057 152.454 120.944 147.761 130.022 144.255C139.099 140.75 154.004 132.694 158.499 126.753C162.994 120.811 166.484 106.823 166.484 106.823C166.484 106.823 162.17 127.8 158.438 131.516C154.707 135.232 138.038 146.46 135.115 147.922C132.191 149.385 124.249 155.413 109.884 153.736C109.884 153.736 100.228 155.099 96.7323 154.83C93.2365 154.562 87.8145 158.089 77.8411 154.865C77.8411 154.865 63.9765 154.166 60.9442 153.502C57.9118 152.838 44.1758 143.829 44.1758 143.829Z" fill="#54469B"/>
</g>
<path fill-rule="evenodd" clip-rule="evenodd" d="M50.709 115.601C50.709 115.601 73.0006 119.465 89.1517 117.815C105.303 116.165 114.034 112.134 118.639 109.121C123.245 106.108 132.272 96.462 135.645 92.0781C139.019 87.6942 140.725 76.7178 140.725 76.7178C140.725 76.7178 141.334 87.4293 138.582 92.0781C135.831 96.7269 126.352 105.549 122.486 108.114C118.62 110.679 107.538 116.763 101.752 117.815C95.9661 118.867 86.4173 121.792 79.4996 120.522C72.5819 119.252 55.8077 119.47 50.709 115.601Z" fill="#B04FE2"/>
<path fill-rule="evenodd" clip-rule="evenodd" d="M81.6035 151.288C81.6035 151.288 104.811 149.691 112.784 147.92C120.757 146.15 131.239 141.836 138.569 139.145C145.9 136.453 151.439 131.134 155.478 128.178C159.517 125.222 164.7 112.94 164.7 112.94C164.7 112.94 161.389 125.117 156.325 129.091C151.262 133.066 138.26 140.344 123.583 146.857C107.272 154.094 94.5859 152.045 81.6035 151.288Z" fill="#8B40E0"/>
<path fill-rule="evenodd" clip-rule="evenodd" d="M162.475 122.145C162.839 121.037 163.233 119.944 163.597 118.85C162.318 123.236 160.589 127.479 158.436 131.509L158.393 131.55C157.777 132.153 157.03 132.63 156.445 133.289C155.861 133.947 155.339 134.607 154.708 135.225C151.678 138.226 148.213 140.806 144.637 143.136C140.962 145.533 137.289 147.81 133.264 149.562C130.19 150.928 127.009 152.04 123.754 152.887C121.132 153.559 118.326 153.861 115.619 153.979C114.246 154.05 112.892 154.276 111.529 154.4C109.833 154.583 108.093 154.556 106.424 154.85C103.519 155.393 100.581 155.749 97.6293 155.915C95.1189 156.056 92.6222 156.406 90.1137 156.406C86.8866 156.393 83.6868 155.888 80.4636 155.902C77.3359 155.929 74.1808 155.789 71.0667 155.512C69.2009 155.331 67.378 154.981 65.5415 154.77C63.9835 154.587 62.4839 154.25 60.9414 154.083C59.6365 153.156 58.3745 152.16 57.1534 151.136C56.8184 150.856 56.4815 150.575 56.1582 150.281C57.9266 150.842 59.6794 151.45 61.4594 152.007C63.9562 152.786 66.7607 153.255 69.3704 153.578C71.501 153.843 74.0679 154.04 76.1712 153.508C78.3603 152.961 79.9865 153.662 81.9788 154.482C82.9039 154.862 83.8446 155.043 84.8105 155.323C86.1738 155.713 87.1807 155.633 88.5693 155.45C89.7904 155.296 91.0661 155.086 92.2872 154.819C93.3252 154.595 94.3204 154.174 95.3721 154.04C97.195 153.816 99.1309 153.549 100.954 153.872C103.057 154.237 105.147 154.457 107.266 154.11C109.406 153.74 111.573 153.545 113.745 153.526C114.451 153.527 115.155 153.593 115.849 153.72C116.663 153.861 117.418 153.637 118.219 153.553C119.626 153.427 121.017 153.159 122.371 152.753C123.66 152.347 124.903 151.779 126.157 151.296C128.625 150.369 130.855 149.457 133.044 147.971C134.88 146.737 136.913 145.868 138.779 144.674C140.561 143.525 142.144 142.08 143.969 140.987C145.89 139.819 147.642 138.391 149.481 137.092C150.649 136.265 151.682 135.283 152.846 134.442C153.855 133.711 154.963 133.137 155.904 132.299C157.516 130.924 159.02 129.438 160.07 127.573C161.057 125.851 161.863 124.032 162.475 122.145V122.145Z" fill="#00C4FF"/>
<path fill-rule="evenodd" clip-rule="evenodd" d="M91.2734 85.2153C91.2734 85.2153 107.306 72.0908 114.042 59.2993C114.042 59.2993 95.3574 78.4944 91.2734 85.2153Z" fill="#FF77F4"/>
<path fill-rule="evenodd" clip-rule="evenodd" d="M74.4141 100.859C74.4141 100.859 84.5413 100.926 95.7456 96.2535C106.95 91.5813 112.572 81.9468 112.572 81.9468C112.572 81.9468 104.993 89.1897 96.7388 93.2426C88.4851 97.2954 82.2335 98.2926 74.4141 100.859Z" fill="#EA9CF4"/>
<path fill-rule="evenodd" clip-rule="evenodd" d="M114.445 79.6356C114.445 79.6356 115.581 76.7435 117.706 71.674C119.83 66.6045 121.505 63.8838 121.505 63.8838C121.505 63.8838 120.822 71.6233 114.445 79.6356Z" fill="#EA9CF4"/>
<path fill-rule="evenodd" clip-rule="evenodd" d="M70.9473 127.555C70.9473 127.555 85.0202 130.974 103.356 127.555C121.693 124.135 122.489 123.021 127.539 119.061C132.589 115.102 136.175 110.029 138.167 108.114C140.159 106.2 142.67 99.5449 142.67 99.5449C142.67 99.5449 137.483 108.866 130.053 115.104C122.624 121.342 116.51 124.4 104.021 126.259C91.5309 128.119 77.1775 127.925 70.9473 127.555Z" fill="#D374F4"/>
<path fill-rule="evenodd" clip-rule="evenodd" d="M83.2969 158.112C83.2969 158.112 96.0514 159.212 101.232 160.276C106.412 161.339 116.38 161.3 122.092 159.195C127.804 157.09 139.123 151.029 139.123 151.029C139.123 151.029 128.562 156.955 115.981 158.278C103.399 159.6 95.7456 157.487 83.2969 158.112Z" fill="#D374F4"/>
<path fill-rule="evenodd" clip-rule="evenodd" d="M142.83 149.168C142.83 149.168 150.926 143.733 154.905 140.124C154.901 140.124 150.659 145.926 142.83 149.168Z" fill="#D374F4"/>
<path fill-rule="evenodd" clip-rule="evenodd" d="M81.3145 79.9622C81.3145 79.9622 90.5556 73.0094 93.4866 67.9828C96.4177 62.9562 96.7137 60.0933 96.7137 60.0933C96.7137 60.0933 98.0186 64.9816 92.472 71.1943C86.9253 77.407 81.3145 79.9622 81.3145 79.9622Z" fill="#F2C4F8"/>
<path style="mix-blend-mode:screen" opacity="0.5" fill-rule="evenodd" clip-rule="evenodd" d="M59.7325 75.1168C58.9846 78.5094 58.227 81.9566 59.378 85.2246C60.529 88.4926 62.2994 90.6193 63.984 90.7965C65.6686 90.9738 68.1478 86.9871 68.0582 85.8361C67.9687 84.6851 65.3122 81.6723 65.1369 78.6614C64.9616 75.6504 68.2413 71.2198 68.0582 69.5371C67.8752 67.8544 60.9614 69.5293 59.7325 75.1168Z" fill="url(#paint16_linear_361_52)"/>
<path style="mix-blend-mode:screen" opacity="0.5" fill-rule="evenodd" clip-rule="evenodd" d="M61.2372 61.2426C60.1271 60.0487 52.6582 67.0404 47.47 72.4468C42.2817 77.8532 37.148 84.9403 36.702 89.4567C36.256 93.9731 39.9797 100.799 46.7104 106.821C53.4412 112.843 70.9691 118.333 75.1778 115.854C79.3864 113.375 77.8401 105.668 74.3987 103.808C70.9574 101.948 59.8058 105.695 54.5805 100.203C49.3552 94.7112 51.7156 87.3319 52.3661 81.1309C53.1627 73.5355 55.5562 67.1358 57.7706 65.1863C59.0959 64.0313 60.2616 62.705 61.2372 61.2426V61.2426Z" fill="url(#paint17_linear_361_52)"/>
<path fill-rule="evenodd" clip-rule="evenodd" d="M38.3413 84.6213C36.8981 89.5194 36.7287 94.7486 39.7416 98.778C42.7544 102.808 45.0292 99.7908 46.0925 89.9732C47.1559 80.1556 46.5463 73.4404 46.5463 73.4404C46.5463 73.4404 40.1564 78.4573 38.3413 84.6213Z" fill="#FFFFF8"/>
<path fill-rule="evenodd" clip-rule="evenodd" d="M43.2661 101.645C41.229 103.534 46.092 107.283 46.8846 105.475C47.6773 103.668 44.5885 100.416 43.2661 101.645Z" fill="#F5CEFA"/>
<path fill-rule="evenodd" clip-rule="evenodd" d="M37.8678 116.463C37.673 119.579 39.4491 123.11 44.8906 125.148C50.3321 127.185 54.5933 126.63 54.5933 126.63C54.5933 126.63 48.2268 125.368 44.7231 122.914C41.2195 120.46 37.8678 116.463 37.8678 116.463Z" fill="#F5CEFA"/>
<path fill-rule="evenodd" clip-rule="evenodd" d="M60.1832 75.5923C58.3876 73.2143 60.7246 69.9619 64.0179 67.9598C67.3112 65.9578 67.7066 66.5654 67.0016 68.3123C66.2966 70.0593 65.2196 73.7538 63.6888 75.5923C62.158 77.4308 61.2466 76.9984 60.1832 75.5923Z" fill="#FFFFF8"/>
<path fill-rule="evenodd" clip-rule="evenodd" d="M72.0217 71.4535C71.3381 70.2849 72.715 66.8845 74.5964 67.1981C76.4777 67.5116 76.0161 68.2595 75.1358 69.5001C74.4776 70.429 72.6663 72.5538 72.0217 71.4535Z" fill="#FFFFF8"/>
<path fill-rule="evenodd" clip-rule="evenodd" d="M85.6264 77.2808C84.9857 75.9585 90.2304 71.9192 90.9393 72.3419C91.6482 72.7645 91.1886 74.9029 89.9655 75.7053C88.7425 76.5077 85.8504 77.7424 85.6264 77.2808Z" fill="#FFFFF8"/>
<defs>
<radialGradient id="paint0_radial_361_52" cx="0" cy="0" r="1" gradientUnits="userSpaceOnUse" gradientTransform="translate(101 103) scale(88)">
<stop offset="0.583333" stop-color="#E213FF"/>
<stop offset="1" stop-opacity="0"/>
</radialGradient>
<radialGradient id="paint1_radial_361_52" cx="0" cy="0" r="1" gradientUnits="userSpaceOnUse" gradientTransform="translate(106.835 108.01) rotate(-45) scale(74.1666)">
<stop offset="0.677083" stop-color="#E213FF"/>
<stop offset="1" stop-opacity="0"/>
</radialGradient>
<radialGradient id="paint2_radial_361_52" cx="0" cy="0" r="1" gradientUnits="userSpaceOnUse" gradientTransform="translate(100.215 101.717) scale(70.7759 70.7759)">
<stop stop-color="#E213FF"/>
<stop offset="1" stop-opacity="0"/>
</radialGradient>
<radialGradient id="paint3_radial_361_52" cx="0" cy="0" r="1" gradientUnits="userSpaceOnUse" gradientTransform="translate(55.5883 75.4128) scale(108.578 108.578)">
<stop offset="0.01" stop-color="#FF9AFF"/>
<stop offset="0.09" stop-color="#FB94FF"/>
<stop offset="0.21" stop-color="#F183FF"/>
<stop offset="0.34" stop-color="#E068FF"/>
<stop offset="0.49" stop-color="#C841FF"/>
<stop offset="0.64" stop-color="#A910FF"/>
<stop offset="0.68" stop-color="#9F00FF"/>
<stop offset="0.74" stop-color="#9900F8"/>
<stop offset="0.83" stop-color="#8700E5"/>
<stop offset="0.93" stop-color="#6A00C6"/>
<stop offset="1" stop-color="#5200AB"/>
</radialGradient>
<radialGradient id="paint4_radial_361_52" cx="0" cy="0" r="1" gradientUnits="userSpaceOnUse" gradientTransform="translate(55.5883 75.4128) scale(108.578 108.578)">
<stop offset="0.01" stop-color="#FF9AFF"/>
<stop offset="0.09" stop-color="#FB94FF"/>
<stop offset="0.21" stop-color="#F183FF"/>
<stop offset="0.34" stop-color="#E068FF"/>
<stop offset="0.49" stop-color="#C841FF"/>
<stop offset="0.64" stop-color="#A910FF"/>
<stop offset="0.68" stop-color="#9F00FF"/>
<stop offset="0.74" stop-color="#9900F8"/>
<stop offset="0.83" stop-color="#8700E5"/>
<stop offset="0.93" stop-color="#6A00C6"/>
<stop offset="1" stop-color="#5200AB"/>
</radialGradient>
<radialGradient id="paint5_radial_361_52" cx="0" cy="0" r="1" gradientUnits="userSpaceOnUse" gradientTransform="translate(58.6679 69.1303) scale(106.732 106.732)">
<stop offset="0.01" stop-color="#FF9AFF"/>
<stop offset="0.09" stop-color="#FB94FF"/>
<stop offset="0.21" stop-color="#F183FF"/>
<stop offset="0.34" stop-color="#E068FF"/>
<stop offset="0.49" stop-color="#C841FF"/>
<stop offset="0.64" stop-color="#A910FF"/>
<stop offset="0.68" stop-color="#9F00FF"/>
<stop offset="0.74" stop-color="#9900F8"/>
<stop offset="0.83" stop-color="#8700E5"/>
<stop offset="0.93" stop-color="#6A00C6"/>
<stop offset="1" stop-color="#5200AB"/>
</radialGradient>
<radialGradient id="paint6_radial_361_52" cx="0" cy="0" r="1" gradientUnits="userSpaceOnUse" gradientTransform="translate(72.7029 57.842) scale(23.8652 23.8653)">
<stop stop-color="white"/>
<stop offset="1" stop-color="#623964"/>
</radialGradient>
<radialGradient id="paint7_radial_361_52" cx="0" cy="0" r="1" gradientUnits="userSpaceOnUse" gradientTransform="translate(76.5005 66.47) scale(8.3024 8.3024)">
<stop stop-color="white"/>
<stop offset="1" stop-color="#623964"/>
</radialGradient>
<radialGradient id="paint8_radial_361_52" cx="0" cy="0" r="1" gradientUnits="userSpaceOnUse" gradientTransform="translate(71.3948 65.7004) scale(8.74839 8.74839)">
<stop stop-color="white"/>
<stop offset="1" stop-color="#623964"/>
</radialGradient>
<radialGradient id="paint9_radial_361_52" cx="0" cy="0" r="1" gradientUnits="userSpaceOnUse" gradientTransform="translate(65.2082 57.2755) scale(20.2097 20.2097)">
<stop stop-color="white"/>
<stop offset="1" stop-color="#623964"/>
</radialGradient>
<radialGradient id="paint10_radial_361_52" cx="0" cy="0" r="1" gradientUnits="userSpaceOnUse" gradientTransform="translate(56.5662 49.4193) scale(34.2632)">
<stop stop-color="white"/>
<stop offset="1" stop-color="#623964"/>
</radialGradient>
<radialGradient id="paint11_radial_361_52" cx="0" cy="0" r="1" gradientUnits="userSpaceOnUse" gradientTransform="translate(69.2668 54.847) scale(47.7422)">
<stop stop-color="white"/>
<stop offset="1" stop-color="#623964"/>
</radialGradient>
<radialGradient id="paint12_radial_361_52" cx="0" cy="0" r="1" gradientUnits="userSpaceOnUse" gradientTransform="translate(54.3812 55.1972) scale(80.6577 80.6577)">
<stop stop-color="white"/>
<stop offset="1" stop-color="#623964"/>
</radialGradient>
<radialGradient id="paint13_radial_361_52" cx="0" cy="0" r="1" gradientUnits="userSpaceOnUse" gradientTransform="translate(78.5581 125.446) scale(63.57 63.57)">
<stop stop-color="#FFFF4A"/>
<stop offset="1" stop-color="#360038"/>
</radialGradient>
<radialGradient id="paint14_radial_361_52" cx="0" cy="0" r="1" gradientUnits="userSpaceOnUse" gradientTransform="translate(53.5263 149.971) scale(6.86121 6.86121)">
<stop stop-color="#6D00C2"/>
<stop offset="0.4" stop-color="#6600BC"/>
<stop offset="0.98" stop-color="#5300AC"/>
<stop offset="1" stop-color="#5200AB"/>
</radialGradient>
<radialGradient id="paint15_radial_361_52" cx="0" cy="0" r="1" gradientUnits="userSpaceOnUse" gradientTransform="translate(164.49 110.08) scale(7.16698)">
<stop stop-color="#1F0081"/>
<stop offset="0.73" stop-color="#260087"/>
<stop offset="1" stop-color="#2A008B"/>
</radialGradient>
<linearGradient id="paint16_linear_361_52" x1="58.7879" y1="79.8474" x2="68.068" y2="79.8474" gradientUnits="userSpaceOnUse">
<stop stop-color="#BDFFE8"/>
<stop offset="0.2" stop-color="#8BBBAA"/>
<stop offset="0.42" stop-color="#5A796E"/>
<stop offset="0.61" stop-color="#33453F"/>
<stop offset="0.78" stop-color="#171F1D"/>
<stop offset="0.91" stop-color="#060808"/>
<stop offset="1"/>
</linearGradient>
<linearGradient id="paint17_linear_361_52" x1="36.6669" y1="88.7867" x2="77.729" y2="88.7867" gradientUnits="userSpaceOnUse">
<stop stop-color="#BDFFE8"/>
<stop offset="0.2" stop-color="#8BBBAA"/>
<stop offset="0.42" stop-color="#5A796E"/>
<stop offset="0.61" stop-color="#33453F"/>
<stop offset="0.78" stop-color="#171F1D"/>
<stop offset="0.91" stop-color="#060808"/>
<stop offset="1"/>
</linearGradient>
</defs>
</svg>
