<svg width="300" height="300" viewBox="0 0 300 300" fill="none" xmlns="http://www.w3.org/2000/svg">
<path style="mix-blend-mode:screen" d="M297.533 150.009C297.533 68.5602 231.505 2.5328 150.056 2.5328C68.6075 2.5328 2.58007 68.5602 2.58007 150.009C2.58008 231.458 68.6075 297.485 150.056 297.485C231.505 297.485 297.533 231.458 297.533 150.009Z" fill="url(#paint0_radial_698_1954)"/>
<path style="mix-blend-mode:screen" d="M278.794 171.206C290.506 100.075 242.337 32.9179 171.206 21.2061C100.075 9.49418 32.9181 57.6628 21.2062 128.794C9.49434 199.924 57.663 267.082 128.794 278.794C199.925 290.505 267.082 242.337 278.794 171.206Z" fill="url(#paint1_radial_698_1954)"/>
<path style="mix-blend-mode:screen" d="M263.055 177.175C278.067 114.742 239.625 51.961 177.192 36.9492C114.759 21.9374 51.9782 60.3795 36.9664 122.812C21.9546 185.245 60.3968 248.026 122.829 263.038C185.262 278.05 248.043 239.607 263.055 177.175Z" fill="url(#paint2_radial_698_1954)"/>
<path d="M262.856 150.195C262.879 168.455 258.465 186.448 249.995 202.623C240.056 209.728 230.83 217.779 222.444 226.664C206.61 242.93 206.239 247.99 205.953 248.304C190.51 257.114 173.205 262.154 155.448 263.014C137.69 263.874 119.98 260.53 103.757 253.255C87.5351 245.979 73.2585 234.976 62.0886 221.141C50.9186 207.307 43.1706 191.031 39.4745 173.636C36.3915 159.093 36.2069 144.085 38.9315 129.47C38.9624 129.242 39.03 129.02 39.1316 128.813C39.7492 127.602 40.5493 126.493 41.5037 125.525C42.1039 124.868 42.7327 124.182 43.2757 123.524C43.9157 122.822 44.4024 121.995 44.7047 121.094L48.563 114.462L49.4204 113.004C52.5642 107.544 56.5654 100.598 58.9089 96.2812C62.8816 88.9345 68.7119 79.1293 73.1989 72.0684C74.5136 69.9244 75.6854 67.9806 76.6571 66.3511C78.2576 63.7212 79.2865 62.1203 79.2865 62.1203C80.9441 60.7767 82.6589 59.4618 84.4023 58.2326L85.5169 57.4321C99.4005 47.7461 115.299 41.3345 132.017 38.6794C134.875 38.1934 137.733 37.8504 140.791 37.6217C143.849 37.393 146.878 37.25 149.993 37.25C163.16 37.24 176.228 39.5329 188.605 44.025C210.377 51.9708 229.181 66.4169 242.473 85.4071C255.764 104.397 262.899 127.014 262.913 150.195H262.856Z" fill="url(#paint3_radial_698_1954)"/>
<path d="M203.495 99.4198C197.817 102.895 188.533 96.5716 183.622 88.8246C178.71 81.0776 177.773 71.7356 190.265 71.109C194.263 70.9984 198.185 72.2139 201.424 74.5672C204.663 76.9206 207.037 80.2801 208.179 84.1251C209.826 90.0208 208.691 96.2298 203.495 99.4198Z" fill="url(#paint4_linear_698_1954)"/>
<path d="M196.315 59.8495C190.532 63.382 200.769 69.6404 202.099 66.1913C203.429 62.7423 199.612 57.8468 196.315 59.8495Z" fill="url(#paint5_linear_698_1954)"/>
<path style="mix-blend-mode:multiply" opacity="0.3" d="M243.45 166.589C242.039 171.638 242.5 182.885 246.732 182.408C250.963 181.931 254.706 174.246 252.489 169.058C250.273 163.869 244.572 162.495 243.45 166.589Z" fill="url(#paint6_linear_698_1954)"/>
<path d="M70.4284 133.485C68.6884 133.724 66.9141 133.582 65.24 133.069C57.066 130.298 73.9357 111.37 81.443 119.212C81.7596 119.515 82.0413 119.85 82.2836 120.21C86.0227 125.587 78.0807 132.543 70.4284 133.485Z" fill="url(#paint7_linear_698_1954)"/>
<path d="M176.058 155.338C170.896 157.316 166.451 151.494 163.21 145.671C162.493 144.342 161.804 142.844 161.202 141.742C155.667 130.266 171.556 118.451 179.443 122.804C180.602 123.696 181.546 124.831 182.205 126.126C182.865 127.422 183.224 128.845 183.257 130.294C184.49 139.594 180.676 153.585 176.058 155.338Z" fill="url(#paint8_linear_698_1954)"/>
<path d="M54.3194 131.021C51.3423 131.529 51.7889 133.846 52.5629 137.83C53.3369 141.813 58.1598 141.277 57.8323 138.932C57.5048 136.587 56.7308 130.54 54.3194 131.021Z" fill="url(#paint9_linear_698_1954)"/>
<path d="M85.8239 90.925C84.6155 93.2239 82.6877 95.0631 84.9032 96.1973C87.1186 97.3314 91.6647 97.5766 92.2113 96.1973C92.758 94.8179 91.6359 89.5763 90.0822 89.423C89.3111 89.2597 88.5134 89.3123 87.767 89.5755C87.0207 89.8388 86.3512 90.3037 85.8239 90.925Z" fill="url(#paint10_linear_698_1954)"/>
<path d="M87.145 62.4541C87.145 66.287 89.0313 66.5426 91.355 65.0378C93.6787 63.533 98.3261 58.167 97.4513 57.4572C96.5765 56.7474 87.0083 55.0723 87.145 62.4541Z" fill="url(#paint11_linear_698_1954)"/>
<path style="mix-blend-mode:multiply" opacity="0.3" d="M197.333 247.16C190.796 249.418 187.833 247.56 187.426 244.931C187.321 243.839 187.504 242.74 187.957 241.739C188.41 240.737 189.118 239.868 190.012 239.214C195.154 235.126 193.788 228.009 203.027 229.495C204.118 229.645 205.161 230.036 206.077 230.639C211.103 234.24 206.978 243.816 197.333 247.16Z" fill="url(#paint12_linear_698_1954)"/>
<path style="mix-blend-mode:multiply" opacity="0.3" d="M218.538 219.479C215.903 226.833 209.359 226.606 206.956 222.703C204.552 218.8 209.041 214.897 212.4 208.109C214.774 203.329 217.177 205.083 218.422 208.845C219.547 212.299 219.587 216.002 218.538 219.479Z" fill="url(#paint13_linear_698_1954)"/>
<path style="mix-blend-mode:multiply" opacity="0.3" d="M175.046 249.116C175.535 252.673 181.15 252.008 182.676 247.931C184.202 243.853 174.558 245.588 175.046 249.116Z" fill="url(#paint14_linear_698_1954)"/>
<path style="mix-blend-mode:multiply" opacity="0.3" d="M78.8032 229.96C77.3666 238.718 89.0605 244.897 87.6813 238.151C86.3022 231.406 79.9525 222.988 78.8032 229.96Z" fill="url(#paint15_linear_698_1954)"/>
<path style="mix-blend-mode:multiply" opacity="0.6" d="M183.492 130.456C183.202 129.97 182.912 129.397 182.594 128.768C177.408 118.122 163.184 131.086 163.01 144.336L163.242 145.967C162.517 144.622 161.822 143.105 161.214 141.989C155.622 130.37 171.672 118.408 179.639 122.815C180.817 123.725 181.775 124.883 182.441 126.205C183.108 127.527 183.467 128.979 183.492 130.456Z" fill="url(#paint16_linear_698_1954)"/>
<path style="mix-blend-mode:multiply" opacity="0.6" d="M208.229 84.4965C198.464 76.675 177.195 68.8243 183.164 89.33C177.861 81.1863 177.195 71.7537 189.945 71.1092C194.025 70.9954 198.028 72.2456 201.334 74.6661C204.64 77.0865 207.063 80.5419 208.229 84.4965Z" fill="url(#paint17_linear_698_1954)"/>
<path style="mix-blend-mode:multiply" opacity="0.6" d="M197.318 247.158C190.772 249.422 187.805 247.559 187.397 244.923C191.354 247.788 207.354 238.591 206.074 230.597C211.107 234.207 206.976 243.806 197.318 247.158Z" fill="url(#paint18_linear_698_1954)"/>
<path style="mix-blend-mode:multiply" opacity="0.6" d="M218.484 219.575C215.855 226.809 209.326 226.587 206.928 222.747C213.312 223.888 218.744 213.259 218.484 209.114C219.568 212.523 219.568 216.166 218.484 219.575Z" fill="url(#paint19_linear_698_1954)"/>
<path style="mix-blend-mode:multiply" opacity="0.6" d="M81.2846 119.192C68.9061 115.709 63.8226 127.209 70.3708 133.485C68.6467 133.724 66.8887 133.582 65.2299 133.07C57.1307 130.333 73.7311 111.396 81.2846 119.192Z" fill="url(#paint20_linear_698_1954)"/>
<path d="M64.5193 141.843C51.5183 157.847 58.8046 191.92 75.3201 213.546C91.8356 235.171 130.524 251.032 162.298 242.628C194.072 234.225 206.273 217.246 205.587 188.937C205.587 188.937 228.274 186.356 235.16 173.937C244.99 156.184 252.019 137.139 235.16 107.684C229.131 97.1293 222.474 90.4753 209.187 104.357C195.9 118.239 184.528 137.484 184.985 155.008C185.328 167.599 194.329 179.731 194.329 179.731C182.136 168.712 168.644 159.234 154.154 151.509C133.667 141.556 76.7488 126.814 64.5193 141.843Z" fill="url(#paint21_radial_698_1954)"/>
<path d="M194.345 206.397C193.82 211.049 192.191 215.508 189.591 219.404C186.992 223.3 183.498 226.52 179.401 228.795C160.126 240.595 113.43 229.597 90.0241 217.71C82.1804 213.549 75.5046 207.493 70.6056 200.095C69.9459 199.15 69.3148 198.176 68.7125 197.231C60.1076 182.91 57.4687 165.467 64.4387 154.096C84.7464 121.015 178.426 179.072 189.727 189.183C190.059 189.45 190.367 189.747 190.645 190.071C193.797 194.894 195.111 200.688 194.345 206.397Z" fill="url(#paint22_radial_698_1954)"/>
<path style="mix-blend-mode:overlay" opacity="0.92" d="M188.433 244.211C239.891 223.421 264.752 164.853 243.962 113.395C223.171 61.9372 164.603 37.0764 113.145 57.8667C61.6874 78.6569 36.8265 137.225 57.6167 188.683C78.407 240.141 136.976 265.002 188.433 244.211Z" fill="url(#paint23_radial_698_1954)"/>
<path style="mix-blend-mode:multiply" opacity="0.6" d="M194.345 206.51C187.719 199.049 164.285 174.946 134.598 170.757C102.874 166.252 68.1962 167.629 70.6056 200.197C69.9459 199.25 69.3148 198.274 68.7125 197.327C60.1076 182.98 57.4687 165.506 64.4387 154.114C84.7464 120.973 178.426 179.136 189.727 189.264C190.059 189.532 190.367 189.83 190.645 190.154C193.797 194.986 195.111 200.79 194.345 206.51Z" fill="url(#paint24_linear_698_1954)"/>
<path d="M236.008 153.021C235.75 155.079 235.435 157.022 235.12 158.736C234.597 161.918 233.888 165.066 232.998 168.166C232.377 170.173 231.331 172.024 229.931 173.595C227.494 176.283 224.396 178.293 220.943 179.425C217.489 180.558 213.8 180.774 210.237 180.052C205.966 178.709 199.229 171.309 195.044 162.622C192.831 158.288 191.561 153.536 191.317 148.678C191.227 146.402 191.588 144.13 192.378 141.992C197.624 128.019 210.237 104.846 215.827 103.589C221.417 102.331 230.16 99.1024 235.177 113.018C236.64 117.711 237.413 122.591 237.47 127.505C237.698 136.036 237.209 144.571 236.008 153.021Z" fill="url(#paint25_radial_698_1954)"/>
<path style="mix-blend-mode:multiply" opacity="0.6" d="M236.874 127.56C234.351 117.802 200.672 123.714 195.002 162.893C192.814 158.539 191.558 153.766 191.317 148.886C191.228 146.6 191.585 144.317 192.366 142.17C197.554 128.135 210.027 104.857 215.555 103.594C221.083 102.331 229.73 99.0878 234.691 113.066C236.104 117.766 236.839 122.648 236.874 127.56Z" fill="url(#paint26_linear_698_1954)"/>
<path d="M182.766 65.0437C174.374 73.4072 130.642 95.3293 104.465 93.0743C98.299 92.532 91.7906 83.7974 92.3901 80.8573C95.2446 66.5851 123.791 46.1474 140.69 37.5555C142.774 36.4994 144.658 35.6431 146.399 34.958C147.547 34.4774 148.73 34.0861 149.938 33.7877C158.046 31.7325 183.023 37.1845 187.762 42.665C188.057 43.064 188.305 43.4949 188.504 43.9495C189.592 47.6522 189.632 51.5841 188.619 55.3081C187.606 59.0321 185.58 62.4022 182.766 65.0437Z" fill="url(#paint27_radial_698_1954)"/>
<path d="M183.903 58.1444C173.741 72.4268 131.064 88.3375 117.324 88.0233C108.308 87.7948 96.2859 84.5384 99.3486 78.7111C106.505 65.0856 130.606 45.6615 148.81 40.5483C159.716 37.4919 182.128 45.4044 183.903 47.2897C187.023 50.5746 186.622 54.3167 183.903 58.1444Z" fill="url(#paint28_radial_698_1954)"/>
<path style="mix-blend-mode:multiply" opacity="0.6" d="M183.907 58.2398C183.736 57.8378 183.593 57.4358 183.422 56.9764C177.708 39.748 113.997 61.6568 99.5127 78.9139C106.655 65.2173 130.711 45.6918 148.881 40.552C159.766 37.4796 182.136 45.4333 183.907 47.3285C187.021 50.6306 186.621 54.3921 183.907 58.2398Z" fill="url(#paint29_linear_698_1954)"/>
<path d="M71.5671 103.456C63.9617 111.264 55.1997 117.819 45.5982 122.883C44.2643 123.545 43.5264 123.833 43.5264 123.833V123.631L44.8603 121.3C45.8253 119.66 47.1592 117.328 48.7769 114.508L49.6284 113.04C56.0142 101.96 65.7206 85.0945 70.9144 75.8272L73.1565 71.7979C73.7809 70.6467 74.2066 69.8409 74.3769 69.438C74.9385 68.2235 75.6856 67.1065 76.5906 66.1282C77.3489 65.2486 78.2515 64.5086 79.2585 63.9409C79.2585 63.9409 79.2584 64.1136 79.4004 64.4877C80.5356 68.0853 85.7862 89.3539 71.5671 103.456Z" fill="url(#paint30_radial_698_1954)"/>
<path d="M81.8344 88.0549C71.8679 112.404 59.3597 119.655 42.9963 126.706L38.9697 128.39L41.34 125.107L44.4528 120.797C44.4528 120.797 45.1096 120.54 46.1948 119.997C46.6016 119.739 47.0318 119.519 47.4798 119.341C56.7137 115.67 64.612 109.278 70.1259 101.015C84.4046 78.4921 77.0939 66.3032 77.0939 66.3032C77.0939 66.3032 74.7522 69.1577 70.5828 75.8089C67.5843 80.4903 63.6148 87.2271 58.6744 95.9906C59.0456 95.2484 65.0141 83.1165 72.2106 69.015C74.6076 63.9933 78.8386 60.0807 84.0334 58.082H84.2333C84.2333 58.082 84.4332 58.9955 84.6331 60.5655C85.9246 69.8203 84.9646 79.2499 81.8344 88.0549Z" fill="url(#paint31_radial_698_1954)"/>
<path style="mix-blend-mode:screen" opacity="0.5" d="M110.232 134.34C139.979 138.068 159.116 148.568 182.189 170.054C182.189 170.054 137.469 139.149 81.2842 135.905C81.2842 136.019 91.5515 131.978 110.232 134.34Z" fill="url(#paint32_radial_698_1954)"/>
<path d="M215.39 99.0947C208.248 105.482 202.297 113.121 197.822 121.647C193.228 130.146 189.146 138.92 185.598 147.92C184.694 136.067 187.802 124.255 194.411 114.437C199.917 107.502 207.164 102.202 215.39 99.0947Z" fill="url(#paint33_linear_698_1954)"/>
<path style="mix-blend-mode:screen" opacity="0.5" d="M76.7272 99.0947C76.7272 99.0947 73.1042 121.964 46.7812 125.786C46.7813 125.786 68.8869 116.218 76.7272 99.0947Z" fill="url(#paint34_radial_698_1954)"/>
<path style="mix-blend-mode:multiply" d="M101.466 92.1897C109.298 93.0671 132.536 95.2183 179.586 67.8472C174.99 76.5227 168.11 83.8165 159.669 88.9617C151.228 94.1069 141.538 96.9135 131.618 97.0865C121.335 97.4766 111.079 95.811 101.466 92.1897Z" fill="url(#paint35_linear_698_1954)"/>
<path style="mix-blend-mode:multiply" d="M58.6244 169.403C64.108 207.294 81.7743 218.348 87.7949 226.04C87.7949 226.04 70.6092 219.601 63.9102 205.214C57.2111 190.827 58.6244 169.403 58.6244 169.403Z" fill="url(#paint36_linear_698_1954)"/>
<path style="mix-blend-mode:multiply" d="M102.768 235.033C102.768 235.033 143.354 256.825 179.622 236.332C184.284 233.705 194.867 226.085 197.813 220.832C197.813 220.832 195.983 235.985 170.126 243.519C144.27 251.052 116.525 244.875 102.768 235.033Z" fill="url(#paint37_linear_698_1954)"/>
<path style="mix-blend-mode:multiply" d="M205.625 188.807C205.625 188.807 233.083 186.356 239.477 165.497C239.477 165.497 238.335 199.493 205.625 188.807Z" fill="url(#paint38_linear_698_1954)"/>
<path d="M19.934 220.616C12.1331 231.275 24.8025 248.513 32.4611 248.168C40.1197 247.824 54.7251 245.037 52.3905 238.371C50.0559 231.706 36.39 221.823 31.4931 220.616C26.5962 219.41 23.379 215.905 19.934 220.616Z" fill="url(#paint39_linear_698_1954)"/>
<path d="M58.5003 254.091C58.5003 260.406 70.4273 255.964 68.7553 252.7C67.0833 249.436 58.4445 250.613 58.5003 254.091Z" fill="url(#paint40_linear_698_1954)"/>
<path d="M139.704 27.455C144.969 26.4656 146.705 27.4551 147.226 24.8825C147.746 22.3099 148.441 19.5111 145.432 19.2284C142.423 18.9457 138.662 18.55 137.65 21.1225C136.637 23.6951 137.765 27.8791 139.704 27.455Z" fill="url(#paint41_linear_698_1954)"/>
<path d="M270.075 145.728C270.075 153.205 270.075 162.786 275.302 162.218C280.529 161.649 292.754 158.834 290.669 149.765C288.584 140.697 286.128 135.551 281.929 135.551C277.73 135.551 270.017 140.696 270.075 145.728Z" fill="url(#paint42_linear_698_1954)"/>
<path style="mix-blend-mode:multiply" opacity="0.3" d="M117.081 99.746C117.294 96.6244 117.912 93.5469 118.919 90.5969C118.919 90.5969 109.077 88.8374 106.022 86.7261C110.787 88.3579 115.862 88.7703 120.814 87.9284C121.861 90.245 118.071 97.8106 117.081 99.746Z" fill="url(#paint43_linear_698_1954)"/>
<path style="mix-blend-mode:multiply" opacity="0.3" d="M128.167 139.868C125.212 143.509 130.205 153.982 131.121 155.732C129.023 154.913 127.398 154.349 127.398 154.349C125.487 152.303 124.262 149.756 123.883 147.038C123.596 145.644 123.527 144.217 123.676 142.804C124.031 140.912 128.344 137.469 129.437 136.594C130.879 135.84 132.418 135.271 134.016 134.9C131.829 136.282 129.86 137.955 128.167 139.868Z" fill="url(#paint44_linear_698_1954)"/>
<path style="mix-blend-mode:multiply" opacity="0.3" d="M138.572 102.464C137.42 99.3645 137.535 96.1789 135.951 93.5098C134.367 90.8408 129.298 91.1278 126.792 92.9072C123.106 95.5475 118.67 105.19 126.619 109.381C128.893 110.74 130.855 112.558 132.38 114.719C128.434 111.849 123.739 108.979 122.011 106.109C119.275 101.574 122.818 90.152 123.854 89.1188C124.891 88.0857 131.084 89.2623 132.898 88.7744C133.676 88.5448 134.713 89.4919 135.778 91.1278C137.294 93.8361 138.133 96.8678 138.226 99.9672C138.238 100.81 138.354 101.649 138.572 102.464Z" fill="url(#paint45_linear_698_1954)"/>
<path style="mix-blend-mode:multiply" opacity="0.3" d="M156.8 100.468C154.657 99.4641 150.115 102.623 148.429 106.372C146.743 110.121 140.229 107.523 138.572 104.01C139.801 106.136 142.258 105.693 144.286 105.309C147.143 104.748 148.343 97.5452 151.658 95.5674C153.8 94.2094 155.743 96.6596 156.8 100.468Z" fill="url(#paint46_linear_698_1954)"/>
<path style="mix-blend-mode:multiply" opacity="0.3" d="M160.094 95.4633C159.336 97.9031 159.093 100.467 159.38 103.001C159.209 102.083 159.037 101.249 158.866 100.47C158.368 97.9726 157.399 95.5868 156.009 93.4329C154.266 90.8741 153.894 90.2066 159.151 90.8741C159.792 90.9863 160.391 91.2578 160.892 91.6624C161.393 92.0669 161.777 92.5906 162.009 93.1826C161.217 93.807 160.565 94.5833 160.094 95.4633Z" fill="url(#paint47_linear_698_1954)"/>
<path style="mix-blend-mode:multiply" opacity="0.3" d="M176.981 128.074C175.326 128.944 173.416 129.239 171.566 128.909C167.275 127.672 162.689 120.276 160.706 112.766C163.724 123.931 176.981 128.074 176.981 128.074Z" fill="url(#paint48_linear_698_1954)"/>
<path style="mix-blend-mode:multiply" opacity="0.3" d="M199.766 121.284C199.159 121.111 198.264 121.544 196.879 123.332C193.991 127.34 182.442 139.654 172.424 138.76C172.964 138.686 173.49 138.531 173.983 138.298C184.608 133.655 193.125 121.717 195.81 119.698C197.398 118.573 198.813 119.9 199.766 121.284Z" fill="url(#paint49_linear_698_1954)"/>
<path style="mix-blend-mode:multiply" opacity="0.3" d="M237.057 102.905C233.028 103.235 228.976 102.71 225.155 101.363C229.96 99.5925 237.14 99.4783 237.14 78.2627C240.884 89.1417 241.387 101.763 237.057 102.905Z" fill="url(#paint50_linear_698_1954)"/>
<path style="mix-blend-mode:multiply" opacity="0.3" d="M102.677 135.483C101.407 137.079 100.374 138.857 99.6095 140.759C99.6485 139.122 99.1755 137.515 98.2589 136.171C96.9645 134.737 101.073 129.002 96.9082 123.182C103.605 130.063 104.309 133.82 102.677 135.483Z" fill="url(#paint51_linear_698_1954)"/>
<path style="mix-blend-mode:multiply" opacity="0.3" d="M91.0405 131.645C89.0737 122.333 72.1134 110.144 68.8069 107.524C65.5003 104.904 65.1298 115.185 48.084 119.229C53.7321 117.233 58.8298 113.935 62.9634 109.603C62.9634 109.603 68.2083 104.306 68.6644 103.708C70.7167 101.145 69.8046 106.3 71.8854 107.268C73.9662 108.236 87.8195 121.108 89.9003 125.636C90.7269 127.528 91.1166 129.582 91.0405 131.645Z" fill="url(#paint52_linear_698_1954)"/>
<path style="mix-blend-mode:multiply" opacity="0.3" d="M100.163 237.107C90.8085 227.643 82.2523 209.231 78.2594 216.407C74.2665 223.584 66.1952 225.299 61.8885 219.266C57.5819 213.234 52.1345 194.936 43.8065 187.303C43.8065 187.303 41.8956 182.671 48.056 189.047C48.4175 189.402 48.7512 189.784 49.0542 190.19C50.0239 192.106 51.3644 194.507 53.2183 197.567L54.1309 199.082C57.6104 206.544 60.7192 214.921 64.1417 216.608C72.6979 220.81 80.5981 212.519 80.5981 212.519C80.5981 212.519 86.3022 216.264 90.5803 219.038C92.8147 220.959 94.7389 223.216 96.2844 225.728C97.14 227.615 100.078 236.821 100.163 237.107Z" fill="url(#paint53_linear_698_1954)"/>
<path style="mix-blend-mode:multiply" opacity="0.3" d="M121.29 238.739C122.955 241.593 122.334 249.072 121.036 254.667C121.056 248.728 119.713 242.865 117.112 237.54C113.866 232.059 110.564 238.253 108.87 243.991C107.176 249.728 112.624 256.636 112.624 256.636C111.878 256.561 111.146 256.379 110.451 256.094C109.494 254.789 108.617 253.426 107.826 252.012C105.003 246.617 108.023 236.055 109.914 233.258C112.511 229.404 118.862 234.542 121.29 238.739Z" fill="url(#paint54_linear_698_1954)"/>
<path style="mix-blend-mode:multiply" opacity="0.3" d="M140.687 251.262C140.859 251.988 141.003 252.685 141.176 253.381C137.088 244.671 133.662 244.149 129.458 248.62C131.531 243.481 134.007 238.661 135.418 239.91C137.807 242.204 139.305 245.571 140.687 251.262Z" fill="url(#paint55_linear_698_1954)"/>
<path style="mix-blend-mode:multiply" opacity="0.3" d="M158.199 251.014C159.653 254.255 161.597 257.249 163.962 259.892C158.055 256.497 150.362 244.66 144.686 248.751C144.686 247.475 144.34 245.56 144.455 244.225C145.089 237.669 145.723 233.201 145.723 233.201C151.468 233.767 157.249 233.874 163.011 233.52C161.023 238.8 155.865 242.746 158.199 251.014Z" fill="url(#paint56_linear_698_1954)"/>
<path style="mix-blend-mode:multiply" opacity="0.3" d="M185.444 225.389C184.224 226.896 182.76 228.188 181.114 229.21C172.801 235 167.259 244.003 166.307 250.778C165.96 245.856 165.903 240.008 165.96 237.634C165.96 233.813 164.661 234.421 175.832 231.497C179.561 230.443 182.902 228.32 185.444 225.389Z" fill="url(#paint57_linear_698_1954)"/>
<path style="mix-blend-mode:multiply" opacity="0.3" d="M224.718 186.414C225.062 190.097 217.729 201.808 217.729 213.03C217.729 223.676 218.875 227.014 219.791 227.992C217.929 227.302 214.32 224.77 213.117 215.677C211.513 203.218 222.398 184.026 222.398 184.026C222.398 184.026 213.805 188.745 204.323 178.473C206.215 180.309 208.739 181.34 211.37 181.35C216.621 181.552 221.817 180.212 226.322 177.495C226.322 177.495 231.478 171.74 231.65 173.725C232.051 177.696 224.374 182.703 224.718 186.414Z" fill="url(#paint58_linear_698_1954)"/>
<path style="mix-blend-mode:screen" d="M176.172 231.698C187.113 228.835 191.839 215.864 191.954 215.492C191.782 215.721 186.397 223.395 181.442 223.939C176.487 224.483 171.818 219.758 169.699 200.517C168.964 194.544 168.706 188.522 168.926 182.507C168.918 180.246 169.256 177.996 169.928 175.836L159.846 170.109C161.512 173.512 162.808 177.082 163.713 180.761C165.161 185.939 165.161 191.416 163.713 196.595C158.328 212.886 151.855 206.043 149.936 199.916C147.418 191.411 146.032 182.612 145.811 173.746C145.625 170.083 145.625 166.414 145.811 162.751C142.171 160.582 138.336 158.761 134.354 157.311C138.078 159.659 141.973 165.042 143.95 173.345C145.504 180.483 145.804 187.836 144.837 195.077C143.821 203.505 141.901 211.799 139.109 219.816C139.109 219.816 133.867 228.405 128.626 228.921C123.384 229.436 114.505 229.236 112.472 221.333C105.913 196.165 108.032 167.79 110.094 155.135C110.375 152.845 110.923 150.597 111.727 148.435C109.865 148.005 105.053 146.459 105.053 146.459C104.022 147.496 102.646 148.118 101.187 148.206C100.81 148.278 100.421 148.25 100.059 148.124C99.6971 147.998 99.3748 147.778 99.1249 147.488C98.8749 147.197 98.7061 146.846 98.6356 146.469C98.5651 146.092 98.5954 145.704 98.7233 145.342C99.0803 143.969 99.2252 142.55 99.153 141.133C99.2258 139.393 98.7335 137.675 97.7495 136.237C96.0023 134.319 103.85 124.784 88.9563 117.597C82.7648 114.802 77.2388 110.722 72.7448 105.629C71.5132 104.57 71.3127 103.539 70.0524 100.933C68.7921 98.3277 58.796 106.03 56.7624 106.66C51.9791 108.292 49.2867 106.345 47.3104 111.241C46.1521 114.001 45.3066 116.882 44.7899 119.831C51.4532 118.702 57.6657 115.726 62.72 111.241C62.72 111.241 68.4484 106.087 68.964 105.514C71.0262 102.938 69.2218 106.202 71.3127 107.175C73.4035 108.149 87.3237 121.091 89.4146 125.643C91.5055 130.196 90.0734 136.294 89.8729 137.869C89.5709 139.753 88.8676 141.549 87.8106 143.138C87.6086 143.444 87.368 143.723 87.0946 143.968C85.6911 145.142 87.6101 149.065 89.7583 151.871C91.9064 154.677 102.59 152.586 102.59 152.586C103.534 154.952 104.272 157.395 104.795 159.888C105.895 164.635 106.357 169.507 106.17 174.376C105.626 186.63 104.223 211.598 97.7495 215.406C93.6149 215.418 89.5381 214.436 85.863 212.543C70.1383 201.09 68.6776 197.139 68.6776 197.139C68.6776 203.867 58.9105 207.876 58.0513 206.301C57.192 204.726 49.1435 183.338 46.2793 180.589C44.6779 178.967 42.5609 177.955 40.293 177.726C39.6187 178.159 39.0789 178.772 38.7347 179.495C38.3905 180.219 38.2557 181.024 38.3454 181.82C38.9182 184.34 43.415 187.461 43.415 187.461C43.415 187.461 41.3814 182.708 47.6541 189.207C53.9268 195.707 58.5382 214.204 63.8083 216.809C72.401 221.018 80.335 212.715 80.335 212.715C80.335 212.715 86.0634 216.466 90.3598 219.243C92.6037 221.167 94.5361 223.427 96.0882 225.943C97.2339 228.004 100.241 237.396 100.241 237.396C100.755 241.491 101.061 245.61 101.158 249.737C101.158 254.805 106.886 258.326 113.073 261.619C119.26 264.912 128.282 264.253 131.948 264.482C135.615 264.711 135.815 262.02 135.815 262.02C135.815 262.02 126.191 261.505 126.363 259.157C126.535 256.809 133.008 237.969 135.643 240.259C138.278 242.55 139.653 245.843 140.885 251.455C141.579 255.536 142.923 259.48 144.866 263.137C146.069 264.711 151.024 265.799 156.982 264.568C162.939 263.337 162.051 262.564 162.051 262.564L158.901 262.822C154.956 262.622 151.117 261.483 147.702 259.5C147.365 259.235 147.075 258.915 146.842 258.555C145.892 256.803 145.455 254.818 145.582 252.829C144.721 248.238 144.614 243.538 145.267 238.913C146.842 229.837 149.019 204.211 151.883 212.171C157.182 226.974 163.111 212.629 163.111 212.629C164.099 217.082 164.855 221.583 165.374 226.115C164.552 231.253 162.595 236.144 159.645 240.431C157.928 243.711 157.548 247.528 158.586 251.082C159.703 254.833 166.147 262.077 166.147 262.077C169.023 263.243 172.16 263.609 175.227 263.137C179.752 262.249 180.039 259.243 180.039 259.243C180.039 259.243 169.212 261.075 167.98 257.754C166.749 254.432 166.548 241.576 166.634 237.711C166.72 233.846 165.088 234.59 176.172 231.698ZM119.145 260.674C116.854 264.54 110.724 257.525 107.688 252.084C104.652 246.644 107.889 236.079 109.808 233.273C112.443 229.436 118.887 234.59 121.265 238.799C123.642 243.008 121.408 256.837 119.145 260.674Z" fill="url(#paint59_radial_698_1954)"/>
<path style="mix-blend-mode:screen" d="M242.667 208.068L236.43 213.288C236.43 213.288 230.993 219.534 227.589 210.436C223.926 200.795 230.679 189.472 230.679 188.873C232.41 184.775 234.701 180.936 237.488 177.464C241.322 172.587 239.405 161.435 238.232 158.554C237.059 155.673 235.085 158.383 235.085 158.383C235.823 154.797 236.32 151.167 236.573 147.516C234.77 150.653 231.823 159.837 229.534 165.399C222.038 183.568 216.458 165.399 216.172 163.174C211.537 127.75 208.218 112.462 217.975 103.877C217.975 103.877 217.975 102.85 221.151 102.251L223.497 102.109C228.161 99.2563 237.488 102.109 237.488 78.264C237.488 71.9035 237.488 69.0228 227.531 67.6823C229.39 69.1482 231.054 70.8447 232.481 72.7307C235.743 76.6953 234.341 90.1577 228.504 91.7835C222.667 93.4093 213.712 104.618 213.712 104.618C213.712 104.618 210.85 114.744 208.819 114.573C206.787 114.402 207.016 112.947 207.016 112.947L204.155 117.539C202.193 117.054 200.277 116.396 198.433 115.571C197.374 114.858 193.883 115.571 189.849 118.908C185.815 122.245 176.716 130.317 171.709 128.862C166.702 127.408 161.208 116.826 160.264 108.041C160.041 105.459 159.64 102.895 159.062 100.369C158.579 97.7944 157.608 95.3356 156.201 93.124C154.456 90.5 154.084 89.8155 159.348 90.5C163.869 91.099 163.44 101.567 165.5 106.102C165.658 106.428 165.84 106.743 166.044 107.043C166.224 107.288 166.435 107.509 166.673 107.699C168.39 108.982 169.534 105.645 170.135 101.053C170.747 96.152 171.053 91.2177 171.051 86.2787C171.051 79.1197 171.709 68.8517 179.978 63.9744C188.247 59.0971 170.536 56.7012 167.388 54.7902C164.241 52.8793 160.235 50.4834 156.745 48.4298C152.956 45.9754 148.965 43.8475 144.813 42.0694C148.333 37.6484 146.73 34.8247 146.73 34.8247C144.704 34.6521 142.668 34.6044 140.636 34.6821C133.557 34.6882 126.583 36.3799 120.293 39.6165C117.088 41.4134 114.341 42.868 114.341 42.868L132.195 39.7305L137.918 38.6752C145.786 39.3598 136.172 46.148 136.172 46.148C132.716 47.5873 129.524 49.5925 126.73 52.0807C127.417 55.161 142.353 47.8023 142.782 52.3373C142.796 52.4032 142.796 52.4712 142.782 52.537C142.782 57.8706 139.921 67.0263 139.291 71.4757C138.347 78.5777 137.231 84.3963 130.908 81.6011C126.387 79.6045 126.816 73.7575 122.324 74.6131C117.832 75.4688 113.311 78.92 108.018 78.92C106.499 78.9247 105.027 79.4396 103.838 80.3815C102.649 81.3234 101.813 82.6373 101.466 84.111L102.324 84.7956C109.563 90.3289 121.323 88.1612 121.323 88.1612C122.553 90.5856 117.317 100.112 117.317 100.112C117.317 100.112 118.347 111.321 125.157 115.685C131.966 120.049 136.602 132.085 131.108 133.626C125.615 135.166 119.034 137.647 117.603 139.701C117.204 140.504 117.074 141.414 117.231 142.296C117.59 145.26 118.231 148.182 119.148 151.024C122.238 154.817 123.869 156.728 130.221 156.129C131.104 156.084 131.988 156.152 132.853 156.329C130.25 155.188 127.904 154.361 127.904 154.361C126.052 152.294 124.866 149.721 124.499 146.974C124.221 145.565 124.153 144.124 124.298 142.696C124.642 140.785 128.819 137.305 129.878 136.421C131.855 135.477 133.902 134.685 136.001 134.053C138.862 132.798 139.835 126.324 138.089 121.104C136.344 115.885 124.985 111.15 122.267 106.615C119.549 102.08 123.068 90.7567 124.127 89.7299C125.185 88.7031 131.308 89.8725 133.082 89.3876C133.855 89.1595 134.885 90.1007 135.944 91.7264C137.449 94.4181 138.283 97.431 138.376 100.511C138.576 106.387 142.067 105.759 144.985 105.246C147.903 104.733 149.048 97.7446 152.367 95.8336C154.542 94.5787 156.544 97.2312 157.603 101.224C158.06 103.582 158.176 105.993 157.946 108.383C157.603 115.514 163.669 143.038 174.255 138.446C184.842 133.854 193.225 122.046 195.886 120.049C198.547 118.052 200.865 123.643 200.865 123.643L199.119 127.008C199.491 126.495 203.526 120.733 206.187 120.733C208.848 120.733 211.909 136.078 211.079 152.821C210.25 169.563 199.634 170.162 199.634 170.162C200.121 170.961 200.55 171.76 200.951 172.558C203.125 176.78 204.67 180.944 211.709 181.4C216.947 181.586 222.127 180.248 226.616 177.55C226.616 177.55 231.766 171.845 231.938 173.813C232.252 177.749 224.641 182.712 224.985 186.392C225.328 190.071 218.032 201.651 218.032 212.775C218.032 230.886 221.437 227.692 221.265 227.891L223.898 227.007C227.726 225.746 231.648 224.793 235.629 224.155C236.026 224.103 236.401 223.945 236.716 223.698C239.949 221.303 243.239 210.635 242.667 208.068ZM152.768 49.7704C153.201 49.9381 153.578 50.2249 153.855 50.5975C155.965 54.0932 157.147 58.0677 157.287 62.1452C157.427 66.2228 156.522 70.2686 154.656 73.9001C152.853 77.009 147.217 77.3798 145.328 76.353C143.44 75.3262 144.956 61.1507 145.529 53.7064C145.551 53.2868 145.637 52.8731 145.786 52.48C146.379 51.222 147.435 50.2392 148.734 49.7349C150.033 49.2306 151.477 49.2433 152.768 49.7704Z" fill="url(#paint60_radial_698_1954)"/>
<path style="mix-blend-mode:multiply" opacity="0.3" d="M236.222 223.708C235.915 223.955 235.549 224.113 235.161 224.166C231.278 224.805 227.451 225.76 223.717 227.023L221.148 227.909C221.316 227.709 217.994 230.767 217.994 212.763C217.994 201.589 225.196 189.901 224.861 186.329C219.446 207.162 221.511 208.276 223.382 215.392C224.973 221.508 233.654 223.308 236.222 223.708Z" fill="url(#paint61_linear_698_1954)"/>
<path style="mix-blend-mode:multiply" opacity="0.3" d="M105.411 146.681C105.411 146.681 110.037 148.428 111.881 148.858C111.166 150.958 110.672 153.128 110.406 155.333C108.237 156.465 106.42 158.18 105.156 160.289C104.637 157.795 103.906 155.35 102.971 152.983C102.971 152.983 92.3858 155.075 90.2575 152.267C88.1291 149.46 86.2278 145.535 87.6183 144.36C87.8892 144.115 88.1277 143.836 88.3278 143.53C91.1656 143.73 90.8818 151.121 94.202 149.46C94.7412 149.202 98.9979 141.667 99.5654 141.41C99.637 142.827 99.4935 144.247 99.1398 145.621C99.013 145.982 98.983 146.371 99.0529 146.748C99.1227 147.125 99.2899 147.477 99.5376 147.767C99.7853 148.058 100.105 148.278 100.463 148.404C100.822 148.53 101.207 148.558 101.58 148.486C103.034 148.382 104.399 147.739 105.411 146.681Z" fill="url(#paint62_linear_698_1954)"/>
<path style="mix-blend-mode:multiply" opacity="0.3" d="M127.763 154.374C127.763 154.374 130.11 155.218 132.714 156.383C131.848 156.201 130.964 156.133 130.081 156.179C123.729 156.645 122.098 154.84 119.007 150.968C118.09 148.068 117.448 145.085 117.09 142.061C119.22 144.072 121.68 145.687 124.358 146.835C124.725 149.638 125.912 152.264 127.763 154.374Z" fill="url(#paint63_linear_698_1954)"/>
<path style="mix-blend-mode:multiply" opacity="0.3" d="M145.733 162.636C145.553 166.408 145.553 170.188 145.733 173.96L143.981 173.547C142.063 164.995 138.42 159.452 134.666 157.034C138.529 158.488 142.238 160.365 145.733 162.636Z" fill="url(#paint64_linear_698_1954)"/>
<path style="mix-blend-mode:multiply" opacity="0.3" d="M169.82 175.828C169.134 177.963 168.789 180.187 168.796 182.423L163.471 180.696C162.523 177.015 161.16 173.446 159.404 170.054L169.82 175.828Z" fill="url(#paint65_linear_698_1954)"/>
<path style="mix-blend-mode:multiply" opacity="0.3" d="M156.149 48.6336C155.112 49.1023 154.152 49.723 153.3 50.4749C153.024 50.1049 152.649 49.82 152.217 49.6534C150.915 49.1393 149.463 49.1472 148.166 49.6755C146.87 50.2038 145.83 51.2113 145.265 52.4862C144.787 52.261 144.269 52.1325 143.741 52.1082C143.212 52.0838 142.684 52.1642 142.188 52.3446C141.76 47.8404 126.887 55.1774 126.203 52.0896C128.985 49.6184 132.163 47.6269 135.606 46.1974L144.154 42.458C148.322 44.1728 152.335 46.2389 156.149 48.6336Z" fill="url(#paint66_linear_698_1954)"/>
<path d="M117.234 144.474C119.907 149.133 123.174 141.597 122.937 139.411C122.699 137.225 117.65 136.535 117.264 139.411C117.042 141.091 117.032 142.791 117.234 144.474Z" fill="white"/>
<path d="M104.072 82.4212C107.294 86.2783 109.929 78.2627 109.929 78.2627C109.929 78.2627 100.969 78.6544 104.072 82.4212Z" fill="white"/>
<path d="M113.184 77.8818C113.184 77.8818 121.579 81.7097 124.251 74.622C124.251 74.622 121.661 72.9772 113.184 77.8818Z" fill="white"/>
<path style="mix-blend-mode:screen" fill-rule="evenodd" clip-rule="evenodd" d="M85.415 57.4785C99.0431 47.9852 127.299 31.8208 146.384 35.0708C142.156 39.062 127.328 40.5729 127.328 40.5729C104.214 49.268 93.0433 55.1693 84.9007 60.6714C82.4437 62.3249 80.6437 63.7219 79.3866 64.7482C78.1295 65.7745 77.3581 66.4872 77.3581 66.4872C64.6443 101.809 46.7592 119.798 46.4449 120.112L45.2449 122.592L43.1593 126.925C35.131 144.629 39.3309 172.539 39.4737 173.309C36.3917 158.805 36.2072 143.838 38.9309 129.263C38.9618 129.035 39.0293 128.814 39.1309 128.607L42.6736 120.055C43.645 118.43 46.0163 113.355 48.6162 109.507C49.5591 108.138 52.3019 107.882 52.3019 107.882C55.4732 102.436 56.5588 100.498 58.9016 96.1931C59.273 95.4519 65.2442 83.3357 72.444 69.2525C74.8421 64.2374 79.075 60.3299 84.2722 58.3337L85.415 57.4785Z" fill="url(#paint67_radial_698_1954)"/>
<path style="mix-blend-mode:screen" fill-rule="evenodd" clip-rule="evenodd" d="M225.806 65.8937C215.502 57.7316 188.699 43.7598 188.699 43.7598C202.392 48.6888 214.993 56.2053 225.806 65.8937Z" fill="url(#paint68_radial_698_1954)"/>
<path fill-rule="evenodd" clip-rule="evenodd" d="M96.2578 72.4038C96.2578 72.4038 128.512 41.1255 145.734 35.2969H141.356C141.356 35.2969 112.212 48.5122 96.2578 72.4038Z" fill="url(#paint69_radial_698_1954)"/>
<path style="mix-blend-mode:screen" d="M45.1639 227.847C53.9966 240.137 56.5609 253.372 51.0334 257.411C45.5058 261.45 33.9378 254.776 24.9912 242.457C16.0445 230.139 13.5941 216.933 19.1217 212.894C24.6493 208.854 36.3597 215.558 45.1639 227.847Z" fill="url(#paint70_radial_698_1954)"/>
<path d="M74.7744 106.907C74.7744 106.907 78.6973 117.345 85.1904 115.88L74.7744 106.907Z" fill="white"/>
<path d="M94.3047 214.973C102.339 214.973 111.231 224.087 111.231 224.087C111.231 224.087 101.796 222.351 98.9079 219.949C97.1752 218.49 95.6289 216.819 94.3047 214.973Z" fill="white"/>
<path style="mix-blend-mode:screen" d="M122.364 196.927C172.228 196.927 212.651 156.505 212.651 106.641C212.651 56.7771 172.228 16.3545 122.364 16.3545C72.5007 16.3545 32.0781 56.7771 32.0781 106.641C32.0781 156.505 72.5007 196.927 122.364 196.927Z" fill="url(#paint71_radial_698_1954)"/>
<path style="mix-blend-mode:color-dodge" d="M166.891 199.348C170.306 199.348 173.075 196.58 173.075 193.164C173.075 189.748 170.306 186.979 166.891 186.979C163.475 186.979 160.706 189.748 160.706 193.164C160.706 196.58 163.475 199.348 166.891 199.348Z" fill="url(#paint72_radial_698_1954)"/>
<path style="mix-blend-mode:color-dodge" d="M217.994 141.084C217.994 147.407 215.054 152.477 211.144 152.477C207.234 152.477 204.323 147.35 204.323 141.084C204.323 134.819 207.263 129.692 211.144 129.692C215.025 129.692 217.994 134.79 217.994 141.084Z" fill="url(#paint73_radial_698_1954)"/>
<path style="mix-blend-mode:color-dodge" d="M151.592 186.003C151.592 192.298 149.12 197.396 146.073 197.396C143.026 197.396 140.525 192.269 140.525 186.003C140.525 179.737 143.026 174.611 146.073 174.611C149.12 174.611 151.592 179.68 151.592 186.003Z" fill="url(#paint74_radial_698_1954)"/>
<path style="mix-blend-mode:color-dodge" d="M84.5398 107.232C84.5398 109.486 83.8717 111.688 82.6199 113.562C81.368 115.435 79.5888 116.895 77.5071 117.758C75.4254 118.62 73.1347 118.845 70.9248 118.406C68.7149 117.966 66.6849 116.881 65.0917 115.288C63.4984 113.695 62.4134 111.665 61.9738 109.455C61.5342 107.245 61.7598 104.954 62.6221 102.873C63.4843 100.791 64.9446 99.0116 66.8181 97.7598C68.6915 96.508 70.8941 95.8398 73.1474 95.8398C76.1688 95.8398 79.0666 97.0401 81.2031 99.1766C83.3396 101.313 84.5398 104.211 84.5398 107.232Z" fill="url(#paint75_radial_698_1954)"/>
<path style="mix-blend-mode:color-dodge" d="M147.687 63.3172C147.681 64.2173 147.39 65.0956 146.85 65.8414C146.31 66.5872 145.545 67.1671 144.653 67.5078C143.76 67.8485 142.779 67.9349 141.834 67.756C140.889 67.5771 140.022 67.1409 139.342 66.5025C138.662 65.8642 138.2 65.0522 138.014 64.1689C137.828 63.2857 137.926 62.3709 138.296 61.5398C138.667 60.7087 139.293 59.9986 140.095 59.499C140.897 58.9995 141.84 58.7329 142.804 58.7329C143.448 58.7329 144.085 58.8517 144.679 59.0824C145.274 59.3131 145.813 59.6512 146.267 60.0773C146.721 60.5033 147.08 61.0089 147.323 61.5649C147.567 62.121 147.691 62.7165 147.687 63.3172Z" fill="url(#paint76_radial_698_1954)"/>
<path style="mix-blend-mode:color-dodge" d="M109.929 186.003C109.929 194.448 108.463 201.302 106.674 201.302C104.885 201.302 103.419 194.448 103.419 186.003C103.419 177.559 104.856 170.705 106.674 170.705C108.492 170.705 109.929 177.559 109.929 186.003Z" fill="url(#paint77_radial_698_1954)"/>
<defs>
<radialGradient id="paint0_radial_698_1954" cx="0" cy="0" r="1" gradientUnits="userSpaceOnUse" gradientTransform="translate(150.082 149.991) rotate(-13.59) scale(147.476 147.476)">
<stop stop-color="#FF9F00"/>
<stop offset="1"/>
</radialGradient>
<radialGradient id="paint1_radial_698_1954" cx="0" cy="0" r="1" gradientUnits="userSpaceOnUse" gradientTransform="translate(149.998 150.004) scale(130.528 130.528)">
<stop stop-color="#FF7300"/>
<stop offset="1"/>
</radialGradient>
<radialGradient id="paint2_radial_698_1954" cx="0" cy="0" r="1" gradientUnits="userSpaceOnUse" gradientTransform="translate(150.022 150.017) scale(116.266)">
<stop stop-color="#FF7900"/>
<stop offset="0.18" stop-color="#FC7800"/>
<stop offset="0.32" stop-color="#F37300"/>
<stop offset="0.43" stop-color="#E36C00"/>
<stop offset="0.54" stop-color="#CC6100"/>
<stop offset="0.64" stop-color="#AF5300"/>
<stop offset="0.74" stop-color="#8C4200"/>
<stop offset="0.83" stop-color="#622E00"/>
<stop offset="0.92" stop-color="#321800"/>
<stop offset="1"/>
</radialGradient>
<radialGradient id="paint3_radial_698_1954" cx="0" cy="0" r="1" gradientUnits="userSpaceOnUse" gradientTransform="translate(105.209 81.9022) scale(185.77 185.812)">
<stop offset="0.01" stop-color="#FFF81C"/>
<stop offset="0.1" stop-color="#FCED1B"/>
<stop offset="0.27" stop-color="#F4D018"/>
<stop offset="0.5" stop-color="#E6A014"/>
<stop offset="0.76" stop-color="#D45F0E"/>
<stop offset="0.91" stop-color="#C9380A"/>
<stop offset="0.93" stop-color="#CA3B10"/>
<stop offset="0.95" stop-color="#CC4221"/>
<stop offset="0.97" stop-color="#CF4F3C"/>
<stop offset="1" stop-color="#D45F5F"/>
</radialGradient>
<linearGradient id="paint4_linear_698_1954" x1="155.743" y1="25.6238" x2="271.264" y2="198.592" gradientUnits="userSpaceOnUse">
<stop stop-color="#F7920F"/>
<stop offset="0.32" stop-color="#F27F0F"/>
<stop offset="0.97" stop-color="#E44F0E"/>
<stop offset="1" stop-color="#E34D0E"/>
</linearGradient>
<linearGradient id="paint5_linear_698_1954" x1="167.686" y1="18.7109" x2="278.616" y2="191.948" gradientUnits="userSpaceOnUse">
<stop stop-color="#F7920F"/>
<stop offset="0.32" stop-color="#F27F0F"/>
<stop offset="0.97" stop-color="#E44F0E"/>
<stop offset="1" stop-color="#E34D0E"/>
</linearGradient>
<linearGradient id="paint6_linear_698_1954" x1="150.376" y1="31.2894" x2="262.825" y2="204.664" gradientUnits="userSpaceOnUse">
<stop stop-color="#F7920F"/>
<stop offset="0.32" stop-color="#F27F0F"/>
<stop offset="0.97" stop-color="#E44F0E"/>
<stop offset="1" stop-color="#E34D0E"/>
</linearGradient>
<linearGradient id="paint7_linear_698_1954" x1="57.8196" y1="104.358" x2="126.454" y2="212.18" gradientUnits="userSpaceOnUse">
<stop stop-color="#F7920F"/>
<stop offset="0.32" stop-color="#F27F0F"/>
<stop offset="0.97" stop-color="#E44F0E"/>
<stop offset="1" stop-color="#E34D0E"/>
</linearGradient>
<linearGradient id="paint8_linear_698_1954" x1="116.317" y1="52.4505" x2="230.17" y2="226.005" gradientUnits="userSpaceOnUse">
<stop stop-color="#F7920F"/>
<stop offset="0.32" stop-color="#F27F0F"/>
<stop offset="0.97" stop-color="#E44F0E"/>
<stop offset="1" stop-color="#E34D0E"/>
</linearGradient>
<linearGradient id="paint9_linear_698_1954" x1="34.0753" y1="106.441" x2="146.112" y2="283.771" gradientUnits="userSpaceOnUse">
<stop stop-color="#F7920F"/>
<stop offset="0.32" stop-color="#F27F0F"/>
<stop offset="0.97" stop-color="#E44F0E"/>
<stop offset="1" stop-color="#E34D0E"/>
</linearGradient>
<linearGradient id="paint10_linear_698_1954" x1="77.3648" y1="76.5182" x2="204.389" y2="255.616" gradientUnits="userSpaceOnUse">
<stop stop-color="#F7920F"/>
<stop offset="0.32" stop-color="#F27F0F"/>
<stop offset="0.97" stop-color="#E44F0E"/>
<stop offset="1" stop-color="#E34D0E"/>
</linearGradient>
<linearGradient id="paint11_linear_698_1954" x1="95.2096" y1="65.3501" x2="211.816" y2="234.044" gradientUnits="userSpaceOnUse">
<stop stop-color="#F7920F"/>
<stop offset="0.32" stop-color="#F27F0F"/>
<stop offset="0.97" stop-color="#E44F0E"/>
<stop offset="1" stop-color="#E34D0E"/>
</linearGradient>
<linearGradient id="paint12_linear_698_1954" x1="117.181" y1="120.219" x2="198.838" y2="244.894" gradientUnits="userSpaceOnUse">
<stop stop-color="#F7920F"/>
<stop offset="0.32" stop-color="#F27F0F"/>
<stop offset="0.97" stop-color="#E44F0E"/>
<stop offset="1" stop-color="#E34D0E"/>
</linearGradient>
<linearGradient id="paint13_linear_698_1954" x1="106.13" y1="59.0008" x2="219.643" y2="233.567" gradientUnits="userSpaceOnUse">
<stop stop-color="#F7920F"/>
<stop offset="0.32" stop-color="#F27F0F"/>
<stop offset="0.97" stop-color="#E44F0E"/>
<stop offset="1" stop-color="#E34D0E"/>
</linearGradient>
<linearGradient id="paint14_linear_698_1954" x1="61.5713" y1="81.0929" x2="176.174" y2="262.797" gradientUnits="userSpaceOnUse">
<stop stop-color="#F7920F"/>
<stop offset="0.32" stop-color="#F27F0F"/>
<stop offset="0.97" stop-color="#E44F0E"/>
<stop offset="1" stop-color="#E34D0E"/>
</linearGradient>
<linearGradient id="paint15_linear_698_1954" x1="8.41048" y1="124.04" x2="122.592" y2="297.972" gradientUnits="userSpaceOnUse">
<stop stop-color="#F7920F"/>
<stop offset="0.32" stop-color="#F27F0F"/>
<stop offset="0.97" stop-color="#E44F0E"/>
<stop offset="1" stop-color="#E34D0E"/>
</linearGradient>
<linearGradient id="paint16_linear_698_1954" x1="140.877" y1="88.5891" x2="198.721" y2="176.526" gradientUnits="userSpaceOnUse">
<stop stop-color="#E95A29"/>
<stop offset="1" stop-color="#F1E532"/>
</linearGradient>
<linearGradient id="paint17_linear_698_1954" x1="147.9" y1="13.6345" x2="238.03" y2="147.569" gradientUnits="userSpaceOnUse">
<stop stop-color="#E95A29"/>
<stop offset="1" stop-color="#F1E532"/>
</linearGradient>
<linearGradient id="paint18_linear_698_1954" x1="180.706" y1="214.093" x2="216.452" y2="268.633" gradientUnits="userSpaceOnUse">
<stop stop-color="#E95A29"/>
<stop offset="1" stop-color="#F1E532"/>
</linearGradient>
<linearGradient id="paint19_linear_698_1954" x1="193.003" y1="187.439" x2="233.481" y2="250.612" gradientUnits="userSpaceOnUse">
<stop stop-color="#E95A29"/>
<stop offset="1" stop-color="#F1E532"/>
</linearGradient>
<linearGradient id="paint20_linear_698_1954" x1="63.0758" y1="125.44" x2="81.2846" y2="125.44" gradientUnits="userSpaceOnUse">
<stop stop-color="#E95A29"/>
<stop offset="1" stop-color="#F1E532"/>
</linearGradient>
<radialGradient id="paint21_radial_698_1954" cx="0" cy="0" r="1" gradientUnits="userSpaceOnUse" gradientTransform="translate(139.268 110.294) scale(141.668 142.201)">
<stop offset="0.01" stop-color="#FFF81C"/>
<stop offset="0.23" stop-color="#FFED1C"/>
<stop offset="0.61" stop-color="#FFD01C"/>
<stop offset="1" stop-color="#FFAD1C"/>
</radialGradient>
<radialGradient id="paint22_radial_698_1954" cx="0" cy="0" r="1" gradientUnits="userSpaceOnUse" gradientTransform="translate(58.071 293.211) scale(103.604 103.455)">
<stop stop-color="#F7920F"/>
<stop offset="0.61" stop-color="#EC7F0A"/>
<stop offset="1" stop-color="#E37107"/>
</radialGradient>
<radialGradient id="paint23_radial_698_1954" cx="0" cy="0" r="1" gradientUnits="userSpaceOnUse" gradientTransform="translate(167.527 96.5615) scale(170.941 170.941)">
<stop/>
<stop offset="0.09" stop-color="#060606"/>
<stop offset="0.22" stop-color="#151717"/>
<stop offset="0.36" stop-color="#2F3232"/>
<stop offset="0.52" stop-color="#535858"/>
<stop offset="0.68" stop-color="#818A8A"/>
<stop offset="0.85" stop-color="#B9C5C5"/>
<stop offset="1" stop-color="#F0FFFF"/>
</radialGradient>
<linearGradient id="paint24_linear_698_1954" x1="119.31" y1="142.407" x2="129.815" y2="200.253" gradientUnits="userSpaceOnUse">
<stop stop-color="#E95A29"/>
<stop offset="1" stop-color="#F1E532"/>
</linearGradient>
<radialGradient id="paint25_radial_698_1954" cx="0" cy="0" r="1" gradientUnits="userSpaceOnUse" gradientTransform="translate(159.784 194.596) scale(65.876 65.6629)">
<stop stop-color="#F7920F"/>
<stop offset="0.61" stop-color="#EC7F0A"/>
<stop offset="1" stop-color="#E37107"/>
</radialGradient>
<linearGradient id="paint26_linear_698_1954" x1="191.232" y1="132.583" x2="236.874" y2="132.583" gradientUnits="userSpaceOnUse">
<stop stop-color="#E95A29"/>
<stop offset="1" stop-color="#F1E532"/>
</linearGradient>
<radialGradient id="paint27_radial_698_1954" cx="0" cy="0" r="1" gradientUnits="userSpaceOnUse" gradientTransform="translate(194.327 74.7774) scale(88.4066 88.4019)">
<stop offset="0.01" stop-color="#FFF81C"/>
<stop offset="0.23" stop-color="#FFED1C"/>
<stop offset="0.61" stop-color="#FFD01C"/>
<stop offset="1" stop-color="#FFAD1C"/>
</radialGradient>
<radialGradient id="paint28_radial_698_1954" cx="0" cy="0" r="1" gradientUnits="userSpaceOnUse" gradientTransform="translate(64.8285 72.3126) scale(65.0902 64.9567)">
<stop stop-color="#F7920F"/>
<stop offset="0.61" stop-color="#EC7F0A"/>
<stop offset="1" stop-color="#E37107"/>
</radialGradient>
<linearGradient id="paint29_linear_698_1954" x1="99.5127" y1="59.3884" x2="186.079" y2="59.3884" gradientUnits="userSpaceOnUse">
<stop stop-color="#E95A29"/>
<stop offset="1" stop-color="#F1E532"/>
</linearGradient>
<radialGradient id="paint30_radial_698_1954" cx="0" cy="0" r="1" gradientUnits="userSpaceOnUse" gradientTransform="translate(-23.8225 135.46) scale(79.3826 80.4986)">
<stop stop-color="#F7920F"/>
<stop offset="0.61" stop-color="#EC7F0A"/>
<stop offset="1" stop-color="#E37107"/>
</radialGradient>
<radialGradient id="paint31_radial_698_1954" cx="0" cy="0" r="1" gradientUnits="userSpaceOnUse" gradientTransform="translate(-8.20716 113.66) scale(84.1873 84.1525)">
<stop offset="0.01" stop-color="#FFF81C"/>
<stop offset="0.23" stop-color="#FFED1C"/>
<stop offset="0.61" stop-color="#FFD01C"/>
<stop offset="1" stop-color="#FFAD1C"/>
</radialGradient>
<radialGradient id="paint32_radial_698_1954" cx="0" cy="0" r="1" gradientUnits="userSpaceOnUse" gradientTransform="translate(131.737 151.813) scale(37.932 37.848)">
<stop stop-color="#FFEA00"/>
<stop offset="0.36" stop-color="#FFEB22"/>
<stop offset="1" stop-color="#FFED66"/>
</radialGradient>
<linearGradient id="paint33_linear_698_1954" x1="185.371" y1="123.522" x2="215.39" y2="123.522" gradientUnits="userSpaceOnUse">
<stop stop-color="#F7920F"/>
<stop offset="0.32" stop-color="#F27F0F"/>
<stop offset="0.97" stop-color="#E44F0E"/>
<stop offset="1" stop-color="#E34D0E"/>
</linearGradient>
<radialGradient id="paint34_radial_698_1954" cx="0" cy="0" r="1" gradientUnits="userSpaceOnUse" gradientTransform="translate(61.7542 112.426) scale(14.0106 14.4394)">
<stop stop-color="#FFEA00"/>
<stop offset="0.36" stop-color="#FFEB22"/>
<stop offset="1" stop-color="#FFED66"/>
</radialGradient>
<linearGradient id="paint35_linear_698_1954" x1="101.466" y1="82.5093" x2="179.586" y2="82.5093" gradientUnits="userSpaceOnUse">
<stop stop-color="#EF8C1D"/>
<stop offset="0.13" stop-color="#F29125"/>
<stop offset="0.68" stop-color="#FBA241"/>
<stop offset="0.99" stop-color="#FFA84B"/>
</linearGradient>
<linearGradient id="paint36_linear_698_1954" x1="58.5114" y1="197.721" x2="87.7949" y2="197.721" gradientUnits="userSpaceOnUse">
<stop stop-color="#EF8C1D"/>
<stop offset="0.13" stop-color="#F29125"/>
<stop offset="0.68" stop-color="#FBA241"/>
<stop offset="0.99" stop-color="#FFA84B"/>
</linearGradient>
<linearGradient id="paint37_linear_698_1954" x1="102.768" y1="233.849" x2="197.813" y2="233.849" gradientUnits="userSpaceOnUse">
<stop stop-color="#EF8C1D"/>
<stop offset="0.13" stop-color="#F29125"/>
<stop offset="0.68" stop-color="#FBA241"/>
<stop offset="0.99" stop-color="#FFA84B"/>
</linearGradient>
<linearGradient id="paint38_linear_698_1954" x1="205.625" y1="178.178" x2="239.477" y2="178.178" gradientUnits="userSpaceOnUse">
<stop stop-color="#EF8C1D"/>
<stop offset="0.13" stop-color="#F29125"/>
<stop offset="0.68" stop-color="#FBA241"/>
<stop offset="0.99" stop-color="#FFA84B"/>
</linearGradient>
<linearGradient id="paint39_linear_698_1954" x1="18.966" y1="247.048" x2="32.1718" y2="234.957" gradientUnits="userSpaceOnUse">
<stop stop-color="#F7920F"/>
<stop offset="0.32" stop-color="#F27F0F"/>
<stop offset="0.97" stop-color="#E44F0E"/>
<stop offset="1" stop-color="#E34D0E"/>
</linearGradient>
<linearGradient id="paint40_linear_698_1954" x1="58.5003" y1="254.038" x2="68.9225" y2="254.038" gradientUnits="userSpaceOnUse">
<stop stop-color="#F7920F"/>
<stop offset="0.32" stop-color="#F27F0F"/>
<stop offset="0.97" stop-color="#E44F0E"/>
<stop offset="1" stop-color="#E34D0E"/>
</linearGradient>
<linearGradient id="paint41_linear_698_1954" x1="137.273" y1="23.2428" x2="147.688" y2="23.2428" gradientUnits="userSpaceOnUse">
<stop stop-color="#F7920F"/>
<stop offset="0.32" stop-color="#F27F0F"/>
<stop offset="0.97" stop-color="#E44F0E"/>
<stop offset="1" stop-color="#E34D0E"/>
</linearGradient>
<linearGradient id="paint42_linear_698_1954" x1="270.075" y1="148.884" x2="290.898" y2="148.884" gradientUnits="userSpaceOnUse">
<stop stop-color="#F7920F"/>
<stop offset="0.32" stop-color="#F27F0F"/>
<stop offset="0.97" stop-color="#E44F0E"/>
<stop offset="1" stop-color="#E34D0E"/>
</linearGradient>
<linearGradient id="paint43_linear_698_1954" x1="115.271" y1="97.0482" x2="114.24" y2="91.9598" gradientUnits="userSpaceOnUse">
<stop stop-color="#EF8C1D"/>
<stop offset="1" stop-color="#E95A29"/>
</linearGradient>
<linearGradient id="paint44_linear_698_1954" x1="131.15" y1="151.667" x2="129.878" y2="144.842" gradientUnits="userSpaceOnUse">
<stop stop-color="#EF8C1D"/>
<stop offset="1" stop-color="#E95A29"/>
</linearGradient>
<linearGradient id="paint45_linear_698_1954" x1="131.372" y1="109.467" x2="129.57" y2="100.309" gradientUnits="userSpaceOnUse">
<stop stop-color="#EF8C1D"/>
<stop offset="1" stop-color="#E95A29"/>
</linearGradient>
<linearGradient id="paint46_linear_698_1954" x1="148.286" y1="105.28" x2="147.495" y2="101.393" gradientUnits="userSpaceOnUse">
<stop stop-color="#EF8C1D"/>
<stop offset="1" stop-color="#E95A29"/>
</linearGradient>
<linearGradient id="paint47_linear_698_1954" x1="159.837" y1="100.275" x2="158.996" y2="95.8997" gradientUnits="userSpaceOnUse">
<stop stop-color="#EF8C1D"/>
<stop offset="1" stop-color="#E95A29"/>
</linearGradient>
<linearGradient id="paint48_linear_698_1954" x1="169.938" y1="126.003" x2="168.761" y2="119.717" gradientUnits="userSpaceOnUse">
<stop stop-color="#EF8C1D"/>
<stop offset="1" stop-color="#E95A29"/>
</linearGradient>
<linearGradient id="paint49_linear_698_1954" x1="172.482" y1="129.041" x2="199.766" y2="129.041" gradientUnits="userSpaceOnUse">
<stop stop-color="#EF8C1D"/>
<stop offset="1" stop-color="#E95A29"/>
</linearGradient>
<linearGradient id="paint50_linear_698_1954" x1="225.155" y1="90.7122" x2="240.13" y2="90.7122" gradientUnits="userSpaceOnUse">
<stop stop-color="#EF8C1D"/>
<stop offset="1" stop-color="#E95A29"/>
</linearGradient>
<linearGradient id="paint51_linear_698_1954" x1="96.9082" y1="131.984" x2="103.408" y2="131.984" gradientUnits="userSpaceOnUse">
<stop stop-color="#EF8C1D"/>
<stop offset="1" stop-color="#E95A29"/>
</linearGradient>
<linearGradient id="paint52_linear_698_1954" x1="48.084" y1="117.321" x2="91.0405" y2="117.321" gradientUnits="userSpaceOnUse">
<stop stop-color="#EF8C1D"/>
<stop offset="1" stop-color="#E95A29"/>
</linearGradient>
<linearGradient id="paint53_linear_698_1954" x1="43.3787" y1="211.29" x2="100.163" y2="211.29" gradientUnits="userSpaceOnUse">
<stop stop-color="#EF8C1D"/>
<stop offset="1" stop-color="#E95A29"/>
</linearGradient>
<linearGradient id="paint54_linear_698_1954" x1="106.64" y1="244.248" x2="122.306" y2="244.248" gradientUnits="userSpaceOnUse">
<stop stop-color="#EF8C1D"/>
<stop offset="1" stop-color="#E95A29"/>
</linearGradient>
<linearGradient id="paint55_linear_698_1954" x1="129.314" y1="246.559" x2="141.032" y2="246.559" gradientUnits="userSpaceOnUse">
<stop stop-color="#EF8C1D"/>
<stop offset="1" stop-color="#E95A29"/>
</linearGradient>
<linearGradient id="paint56_linear_698_1954" x1="144.369" y1="246.546" x2="163.875" y2="246.546" gradientUnits="userSpaceOnUse">
<stop stop-color="#EF8C1D"/>
<stop offset="1" stop-color="#E95A29"/>
</linearGradient>
<linearGradient id="paint57_linear_698_1954" x1="165.96" y1="238.069" x2="185.444" y2="238.069" gradientUnits="userSpaceOnUse">
<stop stop-color="#EF8C1D"/>
<stop offset="1" stop-color="#E95A29"/>
</linearGradient>
<linearGradient id="paint58_linear_698_1954" x1="204.266" y1="200.629" x2="231.679" y2="200.629" gradientUnits="userSpaceOnUse">
<stop stop-color="#EF8C1D"/>
<stop offset="1" stop-color="#E95A29"/>
</linearGradient>
<radialGradient id="paint59_radial_698_1954" cx="0" cy="0" r="1" gradientUnits="userSpaceOnUse" gradientTransform="translate(123.757 182.221) scale(196.916 196.849)">
<stop stop-color="#D98E2C"/>
<stop offset="1"/>
</radialGradient>
<radialGradient id="paint60_radial_698_1954" cx="0" cy="0" r="1" gradientUnits="userSpaceOnUse" gradientTransform="translate(177.489 114.972) scale(196.709 196.09)">
<stop stop-color="#D98E2C"/>
<stop offset="1"/>
</radialGradient>
<linearGradient id="paint61_linear_698_1954" x1="217.994" y1="207.219" x2="236.222" y2="207.219" gradientUnits="userSpaceOnUse">
<stop stop-color="#EF8C1D"/>
<stop offset="1" stop-color="#E95A29"/>
</linearGradient>
<linearGradient id="paint62_linear_698_1954" x1="87.1359" y1="150.835" x2="111.881" y2="150.835" gradientUnits="userSpaceOnUse">
<stop stop-color="#EF8C1D"/>
<stop offset="1" stop-color="#E95A29"/>
</linearGradient>
<linearGradient id="paint63_linear_698_1954" x1="117.09" y1="149.222" x2="132.714" y2="149.222" gradientUnits="userSpaceOnUse">
<stop stop-color="#EF8C1D"/>
<stop offset="1" stop-color="#E95A29"/>
</linearGradient>
<linearGradient id="paint64_linear_698_1954" x1="134.555" y1="165.497" x2="145.733" y2="165.497" gradientUnits="userSpaceOnUse">
<stop stop-color="#EF8C1D"/>
<stop offset="1" stop-color="#E95A29"/>
</linearGradient>
<linearGradient id="paint65_linear_698_1954" x1="159.521" y1="176.252" x2="169.82" y2="176.252" gradientUnits="userSpaceOnUse">
<stop stop-color="#EF8C1D"/>
<stop offset="1" stop-color="#E95A29"/>
</linearGradient>
<linearGradient id="paint66_linear_698_1954" x1="126.346" y1="47.5288" x2="156.149" y2="47.5288" gradientUnits="userSpaceOnUse">
<stop stop-color="#EF8C1D"/>
<stop offset="1" stop-color="#E95A29"/>
</linearGradient>
<radialGradient id="paint67_radial_698_1954" cx="0" cy="0" r="1" gradientUnits="userSpaceOnUse" gradientTransform="translate(91.7005 103.976) scale(62.5122 62.3767)">
<stop stop-color="#FFFFD9"/>
<stop offset="1" stop-color="#FFF19D"/>
</radialGradient>
<radialGradient id="paint68_radial_698_1954" cx="0" cy="0" r="1" gradientUnits="userSpaceOnUse" gradientTransform="translate(207.31 54.8409) scale(15.2709 15.1622)">
<stop stop-color="#FFFFD9"/>
<stop offset="1" stop-color="#FFF19D"/>
</radialGradient>
<radialGradient id="paint69_radial_698_1954" cx="0" cy="0" r="1" gradientUnits="userSpaceOnUse" gradientTransform="translate(120.996 53.8503) scale(21.8581 21.9006)">
<stop stop-color="#FFFFD9"/>
<stop offset="1" stop-color="#FFF19D"/>
</radialGradient>
<radialGradient id="paint70_radial_698_1954" cx="0" cy="0" r="1" gradientUnits="userSpaceOnUse" gradientTransform="translate(61.6799 231.363) rotate(-36.1748) scale(12.3935 27.2941)">
<stop stop-color="#FFBB00"/>
<stop offset="0.17" stop-color="#C59000"/>
<stop offset="0.4" stop-color="#805E00"/>
<stop offset="0.6" stop-color="#493500"/>
<stop offset="0.78" stop-color="#211800"/>
<stop offset="0.92" stop-color="#090700"/>
<stop offset="1"/>
</radialGradient>
<radialGradient id="paint71_radial_698_1954" cx="0" cy="0" r="1" gradientUnits="userSpaceOnUse" gradientTransform="translate(122.366 106.646) rotate(45) scale(90.2863)">
<stop stop-color="#FFBB00"/>
<stop offset="0.17" stop-color="#C59000"/>
<stop offset="0.4" stop-color="#805E00"/>
<stop offset="0.6" stop-color="#493500"/>
<stop offset="0.78" stop-color="#211800"/>
<stop offset="0.92" stop-color="#090700"/>
<stop offset="1"/>
</radialGradient>
<radialGradient id="paint72_radial_698_1954" cx="0" cy="0" r="1" gradientUnits="userSpaceOnUse" gradientTransform="translate(166.891 193.164) scale(6.18449)">
<stop stop-color="#FFBB00"/>
<stop offset="0.17" stop-color="#C59000"/>
<stop offset="0.4" stop-color="#805E00"/>
<stop offset="0.6" stop-color="#493500"/>
<stop offset="0.78" stop-color="#211800"/>
<stop offset="0.92" stop-color="#090700"/>
<stop offset="1"/>
</radialGradient>
<radialGradient id="paint73_radial_698_1954" cx="0" cy="0" r="1" gradientUnits="userSpaceOnUse" gradientTransform="translate(216.665 141.084) scale(6.85489 11.4494)">
<stop stop-color="#FFBB00"/>
<stop offset="0.17" stop-color="#C59000"/>
<stop offset="0.4" stop-color="#805E00"/>
<stop offset="0.6" stop-color="#493500"/>
<stop offset="0.78" stop-color="#211800"/>
<stop offset="0.92" stop-color="#090700"/>
<stop offset="1"/>
</radialGradient>
<radialGradient id="paint74_radial_698_1954" cx="0" cy="0" r="1" gradientUnits="userSpaceOnUse" gradientTransform="translate(159.304 186.003) scale(5.54671 11.4494)">
<stop stop-color="#FFBB00"/>
<stop offset="0.17" stop-color="#C59000"/>
<stop offset="0.4" stop-color="#805E00"/>
<stop offset="0.6" stop-color="#493500"/>
<stop offset="0.78" stop-color="#211800"/>
<stop offset="0.92" stop-color="#090700"/>
<stop offset="1"/>
</radialGradient>
<radialGradient id="paint75_radial_698_1954" cx="0" cy="0" r="1" gradientUnits="userSpaceOnUse" gradientTransform="translate(73.1189 107.232) scale(11.4494)">
<stop stop-color="#FFBB00"/>
<stop offset="0.17" stop-color="#C59000"/>
<stop offset="0.4" stop-color="#805E00"/>
<stop offset="0.6" stop-color="#493500"/>
<stop offset="0.78" stop-color="#211800"/>
<stop offset="0.92" stop-color="#090700"/>
<stop offset="1"/>
</radialGradient>
<radialGradient id="paint76_radial_698_1954" cx="0" cy="0" r="1" gradientUnits="userSpaceOnUse" gradientTransform="translate(142.804 63.3172) scale(4.88249 4.55699)">
<stop stop-color="#FFBB00"/>
<stop offset="0.17" stop-color="#C59000"/>
<stop offset="0.4" stop-color="#805E00"/>
<stop offset="0.6" stop-color="#493500"/>
<stop offset="0.78" stop-color="#211800"/>
<stop offset="0.92" stop-color="#090700"/>
<stop offset="1"/>
</radialGradient>
<radialGradient id="paint77_radial_698_1954" cx="0" cy="0" r="1" gradientUnits="userSpaceOnUse" gradientTransform="translate(163.976 216.216) scale(3.2937 15.2938)">
<stop stop-color="#FFBB00"/>
<stop offset="0.17" stop-color="#C59000"/>
<stop offset="0.4" stop-color="#805E00"/>
<stop offset="0.6" stop-color="#493500"/>
<stop offset="0.78" stop-color="#211800"/>
<stop offset="0.92" stop-color="#090700"/>
<stop offset="1"/>
</radialGradient>
</defs>
</svg>
