<svg width="200" height="200" viewBox="0 0 200 200" fill="none" xmlns="http://www.w3.org/2000/svg">
<path d="M136.159 46.8854L127.88 44.7842L126.412 44.4044L121.918 43.2525L103.412 38.5057C104.463 36.1639 105.729 33.5943 107.134 31.012C112.286 21.5943 119.349 12.0247 125.273 13.3918C126 13.5654 126.644 13.9859 127.096 14.5816C129.526 17.5437 129.703 25.2272 129.286 32.1006C130.411 31.2468 131.815 30.8449 133.222 30.974C135.058 31.2525 135.994 33.1639 136.425 35.569C136.861 39.3352 136.772 43.1438 136.159 46.8854Z" fill="url(#paint0_radial_357_1340)"/>
<path style="mix-blend-mode:multiply" opacity="0.8" d="M129.286 32.1136C126.17 35.3501 123.673 39.1297 121.918 43.2655L103.412 38.5187C104.463 36.1769 105.729 33.6073 107.134 31.025C113.463 34.9744 126.589 27.4934 127.096 14.5693C129.526 17.6073 129.703 25.2022 129.286 32.1136Z" fill="url(#paint1_linear_357_1340)"/>
<path style="mix-blend-mode:multiply" opacity="0.8" d="M136.159 46.8857L127.88 44.7845L126.412 44.4047C133.729 42.911 136.425 35.5439 136.425 35.5439C136.863 39.3185 136.774 43.1358 136.159 46.8857Z" fill="url(#paint2_linear_357_1340)"/>
<path style="mix-blend-mode:screen" d="M199.032 102.113C199.032 121.025 193.424 139.512 182.917 155.237C172.41 170.962 157.476 183.218 140.004 190.455C122.531 197.692 103.305 199.586 84.7567 195.896C66.2082 192.207 49.1703 183.1 35.7976 169.727C22.4249 156.354 13.3179 139.316 9.62838 120.768C5.93885 102.219 7.83245 82.9934 15.0697 65.5211C22.307 48.0488 34.5629 33.1149 50.2875 22.608C66.0122 12.1012 84.4994 6.49312 103.411 6.49312C115.988 6.4243 128.453 8.85061 140.085 13.6316C151.717 18.4126 162.286 25.4533 171.178 34.3462C180.071 43.2391 187.112 53.8076 191.893 65.4398C196.674 77.0721 199.1 89.5371 199.032 102.113Z" fill="url(#paint3_radial_357_1340)"/>
<path style="mix-blend-mode:screen" d="M180.981 104.633C180.991 114.571 179.041 124.414 175.242 133.598C171.443 142.782 165.871 151.126 158.843 158.154C151.816 165.181 143.471 170.754 134.287 174.552C125.104 178.351 115.261 180.301 105.322 180.291C89.8797 180.285 74.8091 175.551 62.1367 166.725C49.4643 157.9 39.7976 145.406 34.4364 130.924C30.5882 120.548 29.0631 109.454 29.9685 98.4251C30.8739 87.3958 34.1879 76.6993 39.6767 67.09C45.1654 57.4806 52.6954 49.1923 61.7357 42.8096C70.7759 36.4268 81.1064 32.1048 91.9985 30.1486C102.891 28.1923 114.079 28.6493 124.776 31.4873C135.472 34.3253 145.416 39.4752 153.905 46.574C162.395 53.6727 169.224 62.5475 173.911 72.5724C178.598 82.5974 181.028 93.5284 181.031 104.595L180.981 104.633Z" fill="url(#paint4_radial_357_1340)"/>
<path d="M172.488 102.113C172.49 115.779 168.44 129.138 160.85 140.502C153.259 151.865 142.469 160.722 129.844 165.953C117.219 171.184 103.327 172.553 89.9238 169.888C76.5207 167.222 64.2091 160.642 54.5462 150.979C44.8832 141.316 38.3029 129.004 35.6375 115.601C32.9721 102.198 34.3413 88.3058 39.5721 75.681C44.8028 63.0562 53.66 52.2662 65.0235 44.6756C76.387 37.085 89.7463 33.0348 103.412 33.0373C112.498 32.9836 121.505 34.7336 129.91 38.1859C138.314 41.6383 145.951 46.7243 152.376 53.1494C158.801 59.5744 163.887 67.2107 167.339 75.6156C170.792 84.0206 172.542 93.0271 172.488 102.113Z" fill="url(#paint5_radial_357_1340)"/>
<g style="mix-blend-mode:multiply" opacity="0.3">
<path fill-rule="evenodd" clip-rule="evenodd" d="M132.526 41.9995L131.855 42.0881C131.151 42.2253 130.422 42.1773 129.742 41.9489C129.253 41.7644 128.754 41.608 128.248 41.4805C127.425 41.3539 126.653 40.9995 125.83 40.8982C124.993 40.7396 124.178 40.4847 123.4 40.1387C122.876 39.9492 122.303 39.9492 121.779 40.1387C121.221 40.2338 120.648 40.1163 120.172 39.8096C119.557 39.5926 118.92 39.444 118.273 39.3666C116.564 39.0122 114.855 38.4679 113.21 38.1008C112.189 37.8718 111.142 37.774 110.096 37.8096C109.248 37.8096 108.488 38.0501 107.64 38.0501C107.101 38.028 106.564 37.9687 106.033 37.8729C105.463 37.7717 104.868 37.8729 104.298 37.797C103.582 37.601 102.825 37.601 102.109 37.797C101.524 37.9598 100.918 38.0365 100.311 38.0248C99.5593 38.0897 98.8142 38.2167 98.0833 38.4046C96.793 38.737 95.4663 38.9071 94.1339 38.9109C93.2232 38.7777 92.2979 38.7777 91.3871 38.9109C90.9061 39.0881 90.6529 39.6198 90.3112 39.9742C89.59 40.6065 88.9173 41.292 88.2985 42.0248C87.6379 42.7106 87.2392 43.6067 87.1719 44.5565C87.2792 45.4423 87.5496 46.3007 87.9694 47.0881C88.3365 47.8982 88.4757 48.6451 87.6403 49.1894C86.5754 49.9078 85.4112 50.4664 84.1846 50.8476C83.8365 51.0194 83.4476 51.0915 83.061 51.0557C82.6745 51.02 82.3054 50.8778 81.9947 50.6451C81.7542 50.4425 81.6023 50.0248 81.2985 49.8603C80.9947 49.6957 80.6529 49.8603 80.3111 49.9742C79.463 50.2147 78.6402 50.4932 77.7795 50.6451C77.2478 50.721 76.7922 50.9995 76.2732 51.1008C75.7542 51.202 75.1972 50.759 74.5517 50.9109C73.6572 51.2051 72.7378 51.417 71.8048 51.5438C71.0716 51.5383 70.3537 51.3326 69.7289 50.9489C69.3998 50.759 69.3238 50.5691 68.9441 50.6704C68.5807 50.8119 68.2617 51.0479 68.02 51.3539C67.7922 51.6704 67.7162 52.0881 67.4884 52.4172C67.2605 52.7463 67.0327 53.1261 66.8175 53.5185C66.4289 54.2627 65.9801 54.9739 65.4757 55.6451C65.1339 56.1134 64.8808 56.7463 64.501 57.1767C64.2243 57.404 63.9228 57.5993 63.6023 57.759C62.8934 58.2527 62.1592 58.6957 61.4757 59.2274C60.2099 60.2527 58.944 61.3919 57.577 62.3919C56.4448 63.0962 55.234 63.6655 53.9694 64.0881C53.2352 64.3793 52.4884 64.5818 51.7542 64.8982C51.4501 64.9756 51.1598 65.0994 50.8934 65.2653C50.6522 65.5588 50.4363 65.8722 50.2479 66.202C49.5845 66.9612 48.9914 67.7789 48.4757 68.6451C48.1961 69.1543 47.9753 69.6936 47.8175 70.2527C47.5517 71.0248 47.1466 71.721 46.8808 72.4932C46.3618 74.0881 46.2479 75.7463 45.6149 77.3413C45.2416 78.2332 44.819 79.1038 44.3491 79.9489C43.7394 81.4535 43.3843 83.0492 43.2985 84.6704C43.1888 85.6359 43.2186 86.6121 43.3871 87.5691C43.5245 88.5586 43.5669 89.5589 43.5137 90.5565C43.3929 91.6415 42.9167 92.6562 42.1593 93.4425C41.5517 94.1894 40.6276 94.4679 39.9441 95.1261C39.2831 95.6598 38.7618 96.3462 38.4251 97.1261C38.3995 97.5012 38.3995 97.8776 38.4251 98.2527C38.2732 99.0881 38.058 99.8729 37.9441 100.784C37.8199 101.809 37.7649 102.841 37.7795 103.873C37.7795 104.405 37.7795 104.949 37.7795 105.468C37.7795 105.987 37.982 106.443 38.02 106.949C38.058 107.455 38.02 107.658 38.02 108.012C38.02 108.367 38.2479 108.822 38.3365 109.202C38.577 110.139 38.7542 111.063 38.9187 112C39.126 112.859 39.3882 113.705 39.7036 114.531C40.0579 115.689 40.337 116.869 40.539 118.063C40.7162 118.962 40.7035 119.886 40.8428 120.784C40.982 121.683 41.1086 122.253 41.1466 122.987C41.1466 124.088 40.9061 125.189 40.8934 126.303C41.0648 128.2 41.4599 130.069 42.0706 131.873C42.1972 132.379 42.3238 132.898 42.4757 133.405C37.2618 123.084 34.7777 111.6 35.2602 100.048C35.7426 88.4949 39.1756 77.2582 45.2319 67.4084C51.2883 57.5586 59.7662 49.4239 69.8577 43.7795C79.9492 38.1351 91.318 35.1691 102.881 35.1641C104.362 35.1641 105.817 35.1641 107.273 35.3033C116.048 35.8589 124.629 38.1341 132.526 41.9995Z" fill="#7D72B3"/>
</g>
<path style="mix-blend-mode:screen" d="M161.967 65.4554C151.72 50.5808 136.055 40.3108 118.328 36.8454C100.601 33.38 82.2216 36.9948 67.1273 46.9153C52.0329 56.8359 41.4239 72.2733 37.5729 89.9207C33.7219 107.568 36.9351 126.022 46.5243 141.329C41.3052 133.753 37.6517 125.211 35.7781 116.204C33.9045 107.197 33.8485 97.9072 35.6135 88.8785C37.3785 79.8498 40.9289 71.2645 46.0564 63.6264C51.1838 55.9882 57.7851 49.451 65.473 44.3983C73.1608 39.3456 81.7803 35.8791 90.8258 34.2023C99.8712 32.5255 109.161 32.672 118.149 34.6334C127.137 36.5948 135.643 40.3315 143.167 45.6242C150.692 50.917 157.083 57.6592 161.967 65.4554Z" fill="url(#paint6_radial_357_1340)"/>
<g style="mix-blend-mode:multiply" opacity="0.3">
<path d="M172.007 110.379C172.209 108.696 172.349 106.987 172.425 105.316C155.969 111.734 131.576 120.759 126.678 120.151C119.855 119.303 163.779 99.8982 172.247 96.2653C172.023 93.604 171.643 90.9581 171.108 88.3413C168.07 92.6324 160.323 101.898 150.855 100.683C138.589 99.1134 160.83 63.721 160.83 63.721C159.363 61.5202 157.77 59.4069 156.057 57.3919C149.944 85.0881 106.614 92.835 97.8296 92.1767C89.0448 91.5185 72.0574 74.9109 56.9435 50.9995C54.4761 53.2388 52.1747 55.6545 50.0574 58.2274C64.8043 68.9109 102.918 98.7337 74.8169 103.417C55.9941 106.518 42.6397 102.506 34.4245 98.24C34.3486 99.5058 34.3106 100.772 34.3106 102.126C34.2939 115.031 37.9037 127.68 44.7283 138.632C68.6524 131.683 108.817 121.075 107.045 128.746C105.5 135.417 81.9182 149.177 63.9182 158.822C66.3902 160.549 68.9739 162.109 71.6524 163.493C93.0574 145.354 122.956 120.949 125.88 126.025C129.45 132.189 123.804 151.594 117.019 169.873C121.083 169.056 125.065 167.879 128.918 166.354C130.513 149.227 134.222 128.379 140.551 123.721C145.754 119.924 158.045 124.886 166.906 129.379C167.749 127.388 168.513 125.354 169.197 123.278C160.526 121.139 153.146 118.708 152.994 116.658C152.602 111.62 172.007 110.379 172.007 110.379ZM127.994 89.3793C129.032 87.9109 134.475 86.24 142.222 81.2147C149.969 76.1894 150.728 82.7084 146.614 87.0755C142.5 91.4425 126.374 91.6071 127.994 89.3793ZM122.336 117.139C103.526 123.797 67.9055 112.075 72.9688 108.848C78.8296 105.05 140.159 91.6831 144.551 95.6577C148.943 99.6324 141.159 110.481 122.336 117.139Z" fill="#7D72B3"/>
</g>
<path style="mix-blend-mode:multiply" opacity="0.6" d="M92.2591 170.304C80.2214 168.329 68.9201 163.206 59.5011 155.454C50.0821 147.702 42.8804 137.597 38.6262 126.165L38.373 122.671L70.1072 113.215C73.6044 116.075 75.9069 120.138 76.5629 124.608C76.5629 124.608 84.6009 131.367 84.6009 141.658C84.6009 141.658 99.0439 164.81 92.2591 170.304Z" fill="url(#paint7_linear_357_1340)"/>
<path style="mix-blend-mode:multiply" opacity="0.6" d="M161.601 139.354C153.499 152.006 141.504 161.682 127.424 166.924C126.668 164.615 126.346 162.186 126.475 159.759C126.656 153.758 128.439 147.915 131.639 142.835C130.201 140.491 128.953 138.036 127.905 135.493L133.956 129.076L159.589 133.683L161.601 139.354Z" fill="url(#paint8_linear_357_1340)"/>
<path d="M87.3854 162.848C87.3854 162.848 76.8284 170.303 67.8411 173.721C63.1955 175.468 58.9803 176.151 56.8284 174.151C48.993 166.848 70.2208 144.582 70.4993 144.291C70.1828 144.468 53.9044 153.822 42.1829 157.202C40.9338 157.565 39.6662 157.861 38.3854 158.088C35.2968 158.62 32.8158 158.481 31.474 157.253C25.6892 151.936 39.7905 135.012 42.4614 131.936L42.8791 131.455C42.8791 131.455 34.3727 133.683 31.8538 130.341C29.3348 127 39.955 108.708 41.7651 108.253C44.5032 107.618 47.3808 108.072 49.7905 109.519C51.467 110.474 52.9658 111.711 54.2208 113.177C54.3854 112.784 55.6892 109.683 56.8664 109.025C59.6892 107.455 64.8158 108.481 68.3601 111.417C69.4031 112.268 70.2824 113.302 70.955 114.468C71.7872 115.977 72.1884 117.685 72.1147 119.406C72.041 121.128 71.4954 122.795 70.5373 124.227C74.1337 125.043 77.3417 127.067 79.6259 129.962C80.1031 130.574 80.5266 131.226 80.8917 131.911C84.2335 138.329 79.7019 140.696 79.7019 140.696L73.3727 142.797C75.6738 143.357 77.8306 144.396 79.7019 145.848C87.2462 151.784 87.3854 162.848 87.3854 162.848Z" fill="url(#paint9_radial_357_1340)"/>
<path d="M163.576 139.265C163.044 139.952 162.286 140.428 161.436 140.607C157.955 141.493 152.411 139.341 152.272 139.265C152.778 140.278 162.272 159.025 156.424 163.316C156.256 163.448 156.079 163.567 155.892 163.67C149.563 167.139 135.335 156.43 129.917 149.924C131.007 148.022 132.348 146.276 133.905 144.734C135.099 143.545 136.439 142.511 137.892 141.658L137.284 141.518C135.467 140.964 133.755 140.108 132.221 138.987C130.657 137.94 129.195 136.75 127.854 135.43C127.664 132.759 130.069 122.544 138.867 119.632C141.48 118.826 144.246 118.644 146.943 119.101L150.74 124.696C151.226 124.197 151.76 123.748 152.335 123.354C153.167 122.704 154.122 122.228 155.142 121.954C156.161 121.68 157.226 121.614 158.272 121.759C159.145 121.999 166.082 135.772 163.576 139.265Z" fill="url(#paint10_radial_357_1340)"/>
<path d="M38.373 158.114L42.1705 157.228C40.9215 157.591 39.6538 157.887 38.373 158.114Z" fill="url(#paint11_linear_357_1340)"/>
<path style="mix-blend-mode:multiply" opacity="0.8" d="M52.7405 123.709C49.1011 126.179 45.6603 128.93 42.4494 131.936L42.8671 131.455C42.8671 131.455 34.3608 133.683 31.8418 130.341C39.4367 130.822 54.2342 115.683 49.7785 109.544C51.4575 110.49 52.9606 111.719 54.2215 113.177C51.6899 120.569 52.7405 123.709 52.7405 123.709Z" fill="url(#paint12_linear_357_1340)"/>
<path style="mix-blend-mode:multiply" opacity="0.8" d="M79.6391 140.658L73.31 142.759L70.4493 144.291C70.1328 144.468 53.8543 153.822 42.1328 157.202C42.6645 156.974 57.5759 150.645 58.6771 141.076C59.7784 131.506 57.2974 127.151 57.2974 127.151C57.2974 127.151 55.7277 127.354 53.4239 124.62C53.4239 124.62 60.4366 125.455 65.1455 121.481C69.8543 117.506 68.2721 111.354 68.2721 111.354C69.315 112.205 70.1943 113.239 70.867 114.405C71.6992 115.913 72.1004 117.622 72.0267 119.343C71.953 121.064 71.4073 122.732 70.4493 124.164C70.4493 124.164 62.6392 130.379 61.4873 135.557C60.3354 140.734 71.2214 142.151 75.0822 139.746C78.943 137.341 79.5379 129.848 79.5379 129.848C80.0151 130.46 80.4386 131.112 80.8037 131.797C84.1708 138.291 79.6391 140.658 79.6391 140.658Z" fill="url(#paint13_linear_357_1340)"/>
<path style="mix-blend-mode:multiply" opacity="0.8" d="M87.3842 162.848C87.3842 162.848 76.8272 170.303 67.8398 173.721C77.3335 167.05 80.8145 150.569 79.6373 145.873C87.2449 151.784 87.3842 162.848 87.3842 162.848Z" fill="url(#paint14_linear_357_1340)"/>
<path style="mix-blend-mode:multiply" opacity="0.8" d="M150.741 124.76C152.437 132.494 151.437 135.949 151.437 135.949C151.437 127.266 143.842 119.836 138.893 119.696C141.506 118.89 144.272 118.708 146.968 119.165L150.741 124.76Z" fill="url(#paint15_linear_357_1340)"/>
<path style="mix-blend-mode:multiply" opacity="0.8" d="M163.574 139.265C163.043 139.952 162.285 140.428 161.435 140.607C163.397 129.974 152.334 123.417 152.334 123.417C153.166 122.768 154.121 122.292 155.141 122.018C156.16 121.744 157.225 121.677 158.271 121.822C159.144 122 166.081 135.772 163.574 139.265Z" fill="url(#paint16_linear_357_1340)"/>
<path style="mix-blend-mode:multiply" opacity="0.8" d="M156.449 163.405C156.281 163.537 156.104 163.656 155.917 163.759C156.107 154.721 143.474 144.43 133.93 144.772C135.114 143.571 136.445 142.525 137.892 141.658L137.284 141.519C137.284 141.519 139.651 143.303 144.449 142.873C149.246 142.443 150.525 137.708 150.525 137.708L152.271 139.24C152.803 140.316 162.297 159.063 156.449 163.405Z" fill="url(#paint17_linear_357_1340)"/>
<path style="mix-blend-mode:screen" opacity="0.6" d="M38.8145 90.2783C38.8145 109.266 63.0296 102.278 79.9916 80.5061C96.9537 58.734 127.283 40.4681 160.814 63.6707C160.814 63.6707 132.599 24.1264 85.7132 38.3542C43.5486 51.1137 38.8145 84.696 38.8145 90.2783Z" fill="url(#paint18_linear_357_1340)"/>
<path d="M129.462 75.2531C125.664 77.1645 132.171 76.924 132.487 76.0885C132.803 75.2531 130.727 74.5695 129.462 75.2531Z" fill="#0EDBFF"/>
<path d="M135.625 69.3918C134.651 70.0374 135.625 72.4298 136.726 70.7463C137.828 69.0627 136.878 68.5564 135.625 69.3918Z" fill="#0EDBFF"/>
<path d="M121.501 45.8482C121.792 47.114 122.969 48.0381 123.59 46.8862C124.21 45.7343 121.311 45.076 121.501 45.8482Z" fill="#0EDBFF"/>
<path d="M82.0674 43.2653C81.4471 45.5944 84.675 45.0122 84.7763 43.9615C84.8775 42.9109 82.3838 42.0501 82.0674 43.2653Z" fill="#0EDBFF"/>
<path d="M86.0173 47.4299C86.2958 47.9615 86.6502 49.2147 86.9667 47.4299C87.2831 45.6451 85.8654 47.1387 86.0173 47.4299Z" fill="#0EDBFF"/>
<path d="M90.6263 44.3794C91.5757 47.468 95.5504 45.2908 95.0187 43.2655C94.4871 41.2401 90.2086 43.025 90.6263 44.3794Z" fill="#0EDBFF"/>
<path d="M160.12 76.7211C158.347 77.9869 161.385 79.1262 161.385 77.873C161.385 76.6199 161.474 75.835 160.12 76.7211Z" fill="#0EDBFF"/>
<path d="M41.1208 83.4301C40.7031 84.8351 43.1208 83.5314 43.0069 82.8984C42.893 82.2655 41.7537 81.3162 41.1208 83.4301Z" fill="#0EDBFF"/>
<path d="M37.9789 103.405C36.6118 105.936 39.9789 108.114 39.9789 105.607C39.9789 103.101 39.0296 101.519 37.9789 103.405Z" fill="#0EDBFF"/>
<path d="M54.728 84.6962C54.0698 85.962 57.2596 86.3797 57.4495 85.1139C57.6394 83.8481 55.2596 83.6202 54.728 84.6962Z" fill="#0EDBFF"/>
<path d="M64.6754 54.6325C64.5488 55.4679 66.6627 55.8983 66.9792 54.6325C67.2956 53.3667 65.0931 51.911 64.6754 54.6325Z" fill="#0EDBFF"/>
<path d="M81.981 110.418C81.1709 111.013 82.9177 113.393 83.3734 111.38C83.8291 109.367 83.3354 109.481 81.981 110.418Z" fill="#0EDBFF"/>
<path d="M76.6006 115.645C77.1576 118.265 80.3981 116.278 79.955 114.81C79.512 113.341 76.1829 113.658 76.6006 115.645Z" fill="#0EDBFF"/>
<path d="M86.5105 114.493C84.5612 114.759 86.7637 117.468 87.1814 116.354C87.5991 115.24 88.8776 114.189 86.5105 114.493Z" fill="#0EDBFF"/>
<path d="M100.676 160.962C101.942 164.557 104.233 165.784 104.651 163.164C105.069 160.544 100.258 159.784 100.676 160.962Z" fill="#0EDBFF"/>
<path d="M97.1203 156.468C96.4874 158.341 99.2089 159.063 99.7279 157.658C100.247 156.253 97.4241 155.582 97.1203 156.468Z" fill="#0EDBFF"/>
<path d="M108.004 157.215C107.574 159.303 109.992 158.747 109.992 157.658C109.992 156.569 108.207 156.19 108.004 157.215Z" fill="#0EDBFF"/>
<path d="M121.602 143.595C121.918 145.481 123.171 147.937 123.387 145.81C123.602 143.683 121.311 141.658 121.602 143.595Z" fill="#0EDBFF"/>
<path d="M161.967 115.076C160.512 115.911 161.892 118.063 163.043 116.671C164.195 115.278 164.347 113.658 161.967 115.076Z" fill="#0EDBFF"/>
<path d="M157.182 117.532C155.612 118.532 158.865 119.519 158.865 118.481C158.865 117.443 158.334 116.798 157.182 117.532Z" fill="#0EDBFF"/>
<path d="M161.967 119.519C160.461 120.532 163.929 121.684 163.854 120.861C163.778 120.038 163.765 118.316 161.967 119.519Z" fill="#0EDBFF"/>
<path d="M147.664 116.62C147.157 118.304 150.486 117.354 150.486 117.076C150.486 116.797 147.892 115.924 147.664 116.62Z" fill="#0EDBFF"/>
<path d="M154.676 109.05C153.17 110.316 155.803 111.582 156.752 110.417C157.701 109.253 157.6 106.544 154.676 109.05Z" fill="#0EDBFF"/>
<path d="M160.473 90.7845C159.486 96.6452 160.992 98.0756 162.6 94.9364C164.207 91.7971 160.739 89.1389 160.473 90.7845Z" fill="#0EDBFF"/>
<path d="M135.233 58.1135C135.132 60.2907 137.765 62.3034 137.765 59.9996C137.765 57.6958 135.347 55.3667 135.233 58.1135Z" fill="#0EDBFF"/>
<path d="M98.1445 50.9873C94.5369 55.5949 101.094 55.0506 102.246 51.9114C103.398 48.7722 100.436 48.0633 98.1445 50.9873Z" fill="#0EDBFF"/>
<path d="M133.969 64.8855C133.64 66.5691 129.753 64.8855 126.374 62.1767C121.728 58.5058 117.981 53.0121 125.348 51.7463C127.526 51.3792 129.374 52.5438 130.817 54.3539C133.171 57.4425 134.399 62.3919 133.969 64.8855Z" fill="#0EDBFF"/>
<path d="M109.98 72.8982C105.917 70.4804 103.651 66.4804 106.854 60.9994C109.892 55.8095 115.284 56.5311 119.904 59.5817C124.196 62.4298 127.816 67.3032 128.246 71.3412C128.816 76.5944 116.854 76.9868 109.98 72.8982Z" fill="#0EDBFF"/>
<path style="mix-blend-mode:multiply" opacity="0.4" d="M109.992 72.8982C105.929 70.4804 103.663 66.4804 106.866 60.9994C109.904 55.8095 115.296 56.5311 119.916 59.5817C109.992 56.2273 104.41 65.0374 109.992 72.8982Z" fill="url(#paint19_linear_357_1340)"/>
<path style="mix-blend-mode:multiply" opacity="0.4" d="M130.74 54.3161C127.36 52.8983 123.524 53.6958 126.309 62.1388C121.664 58.468 117.917 52.9743 125.284 51.7085C127.449 51.3794 129.297 52.5439 130.74 54.3161Z" fill="url(#paint20_linear_357_1340)"/>
<path style="mix-blend-mode:multiply" opacity="0.8" d="M71.9429 117.215C69.4112 123.076 61.4366 126.848 57.4492 126.531C57.4492 126.531 61.2467 127.721 70.4872 124.19C71.2719 123.121 71.7728 121.871 71.9429 120.557C72.044 119.445 72.044 118.326 71.9429 117.215Z" fill="url(#paint21_linear_357_1340)"/>
<path style="mix-blend-mode:multiply" opacity="0.8" d="M63.0828 139.671C66.9562 142.203 73.336 142.76 73.336 142.76L63.0828 148.291L55.0195 152.228C55.0195 152.228 61.0955 148.203 62.3486 145C63.0951 143.33 63.3498 141.481 63.0828 139.671Z" fill="url(#paint22_linear_357_1340)"/>
<g style="mix-blend-mode:overlay" opacity="0.6">
<path d="M30.259 155.227C32.6514 157.973 40.9552 150.986 37.664 149.315C34.3729 147.644 27.8666 152.467 30.259 155.227Z" fill="#FFF19D"/>
<path d="M44.0936 145.809C40.7012 153.645 48.7012 150.872 51.0809 143.594C53.4607 136.315 46.9164 139.379 44.0936 145.809Z" fill="#FFF19D"/>
<path d="M59.475 113.898C57.2218 118.683 62.9687 114.936 63.3864 113.214C63.8041 111.493 61.4244 109.746 59.475 113.898Z" fill="#FFF19D"/>
<path d="M67.8406 159.758C63.2203 168.201 73.1444 164.632 74.1697 159.758C75.195 154.885 70.0557 155.708 67.8406 159.758Z" fill="#FFF19D"/>
<path d="M139.437 152.417C142.171 160.556 149.893 162.429 146.69 157.202C143.488 151.974 138.171 148.683 139.437 152.417Z" fill="#FFF19D"/>
<path d="M137.208 127.986C137.904 135.417 143.195 135.467 142.081 131.151C140.967 126.834 136.815 123.682 137.208 127.986Z" fill="#FFF19D"/>
<path d="M156.753 135.214C158.234 138.86 162.247 137.316 159.563 133.683C156.88 130.05 154.829 130.48 156.753 135.214Z" fill="#FFF19D"/>
<path d="M147.614 154.316C149.183 158.619 152.221 159.885 151.728 156.594C151.234 153.303 146.449 151.126 147.614 154.316Z" fill="#FFF19D"/>
<path d="M148.221 145.81C148.968 152.139 156.17 152.404 154.221 147.999C152.271 143.594 147.803 142.316 148.221 145.81Z" fill="#FFF19D"/>
<path d="M119.904 24.0122C115.512 30.4679 121.372 34.8856 122.588 31.2653C123.803 27.6451 122.575 20.1388 119.904 24.0122Z" fill="#FFF19D"/>
<path d="M122.576 15.2143C121.196 19.075 126.222 19.8219 125.918 17.4421C125.614 15.0624 123.678 12.151 122.576 15.2143Z" fill="#FFF19D"/>
</g>
<path style="mix-blend-mode:screen" d="M71.2692 150.088C84.1565 137.201 84.1565 116.307 71.2692 103.419C58.3819 90.5321 37.4874 90.5321 24.6001 103.419C11.7128 116.307 11.7128 137.201 24.6001 150.088C37.4874 162.976 58.3819 162.976 71.2692 150.088Z" fill="url(#paint23_radial_357_1340)"/>
<path style="mix-blend-mode:screen" d="M149.057 176.481C160.452 176.481 169.69 167.492 169.69 156.405C169.69 145.317 160.452 136.329 149.057 136.329C137.661 136.329 128.424 145.317 128.424 156.405C128.424 167.492 137.661 176.481 149.057 176.481Z" fill="url(#paint24_radial_357_1340)"/>
<path style="mix-blend-mode:screen" d="M128.476 33.0892C134.101 27.4637 134.101 18.3429 128.476 12.7174C122.85 7.09187 113.729 7.09187 108.104 12.7174C102.478 18.3429 102.478 27.4637 108.104 33.0892C113.729 38.7148 122.85 38.7148 128.476 33.0892Z" fill="url(#paint25_radial_357_1340)"/>
<path d="M47.8922 72.8986C43.5884 79.0631 53.2213 78.8226 58.0187 72.8986C62.8162 66.9745 52.8668 65.8479 47.8922 72.8986Z" fill="white"/>
<path d="M54.2206 62.1773C52.9548 67.114 59.9168 65.7469 74.2966 58.6203C88.6763 51.4937 88.9675 45.8482 80.0434 46.8861C71.1194 47.9241 55.9422 55.3292 54.2206 62.1773Z" fill="white"/>
<path style="mix-blend-mode:color-dodge" opacity="0.5" d="M88.3695 83.9358C108.395 63.9103 114.887 37.9345 102.87 25.9172C90.8524 13.9 64.8766 20.3919 44.8512 40.4174C24.8257 60.4429 18.3337 86.4187 30.351 98.436C42.3683 110.453 68.344 103.961 88.3695 83.9358Z" fill="url(#paint26_radial_357_1340)"/>
<path style="mix-blend-mode:screen" d="M139.391 59.9902C140.938 53.4668 136.904 46.9245 130.38 45.3776C123.857 43.8308 117.315 47.865 115.768 54.3885C114.221 60.9119 118.255 67.4542 124.778 69.0011C131.302 70.548 137.844 66.5136 139.391 59.9902Z" fill="url(#paint27_radial_357_1340)"/>
<path style="mix-blend-mode:screen" d="M154.552 113.746C156.929 113.746 158.856 111.819 158.856 109.442C158.856 107.066 156.929 105.139 154.552 105.139C152.175 105.139 150.248 107.066 150.248 109.442C150.248 111.819 152.175 113.746 154.552 113.746Z" fill="url(#paint28_radial_357_1340)"/>
<path style="mix-blend-mode:screen" d="M160.462 81.7341C162.839 81.7341 164.766 79.8072 164.766 77.4303C164.766 75.0533 162.839 73.1265 160.462 73.1265C158.085 73.1265 156.158 75.0533 156.158 77.4303C156.158 79.8072 158.085 81.7341 160.462 81.7341Z" fill="url(#paint29_radial_357_1340)"/>
<path style="mix-blend-mode:screen" d="M83.5258 115.418C83.5258 116.59 83.178 117.736 82.5265 118.71C81.875 119.685 80.9491 120.444 79.8659 120.892C78.7827 121.34 77.5909 121.457 76.4414 121.227C75.2919 120.997 74.2363 120.432 73.4084 119.602C72.5804 118.772 72.0172 117.716 71.79 116.566C71.5629 115.416 71.682 114.224 72.1323 113.142C72.5826 112.06 73.3439 111.135 74.3197 110.486C75.2956 109.836 76.4422 109.491 77.6144 109.494C78.3918 109.494 79.1615 109.647 79.8795 109.945C80.5976 110.243 81.2498 110.679 81.7989 111.23C82.348 111.78 82.7832 112.433 83.0795 113.152C83.3758 113.87 83.5275 114.64 83.5258 115.418Z" fill="url(#paint30_radial_357_1340)"/>
<path style="mix-blend-mode:screen" d="M108.651 162.493C108.651 163.665 108.303 164.81 107.652 165.785C107.002 166.759 106.076 167.518 104.994 167.966C103.911 168.415 102.72 168.532 101.571 168.304C100.422 168.075 99.3664 167.511 98.5379 166.682C97.7094 165.854 97.1451 164.798 96.9166 163.649C96.688 162.5 96.8053 161.309 97.2537 160.226C97.7021 159.144 98.4614 158.219 99.4356 157.568C100.41 156.917 101.555 156.569 102.727 156.569C104.297 156.573 105.802 157.198 106.912 158.308C108.022 159.418 108.647 160.923 108.651 162.493Z" fill="url(#paint31_radial_357_1340)"/>
<defs>
<radialGradient id="paint0_radial_357_1340" cx="0" cy="0" r="1" gradientUnits="userSpaceOnUse" gradientTransform="translate(99.4881 39.6449) scale(32 32)">
<stop offset="0.01" stop-color="#FFC22E"/>
<stop offset="0.2" stop-color="#FEBD2E"/>
<stop offset="0.43" stop-color="#FDAE2F"/>
<stop offset="0.69" stop-color="#FA9531"/>
<stop offset="0.96" stop-color="#F77333"/>
<stop offset="1" stop-color="#F66D33"/>
</radialGradient>
<linearGradient id="paint1_linear_357_1340" x1="121.475" y1="34.7466" x2="112.893" y2="23.4428" gradientUnits="userSpaceOnUse">
<stop stop-color="#E74136"/>
<stop offset="1" stop-color="#F09E50"/>
</linearGradient>
<linearGradient id="paint2_linear_357_1340" x1="137.083" y1="48.43" x2="128.501" y2="35.6579" gradientUnits="userSpaceOnUse">
<stop stop-color="#E74136"/>
<stop offset="1" stop-color="#F09E50"/>
</linearGradient>
<radialGradient id="paint3_radial_357_1340" cx="0" cy="0" r="1" gradientUnits="userSpaceOnUse" gradientTransform="translate(103.411 102.113) scale(95.6202 95.6203)">
<stop stop-color="#FF0003" stop-opacity="0.9"/>
<stop offset="0.08" stop-color="#F90003" stop-opacity="0.87"/>
<stop offset="0.2" stop-color="#E60003" stop-opacity="0.77"/>
<stop offset="0.34" stop-color="#C80002" stop-opacity="0.76"/>
<stop offset="0.5" stop-color="#9F0002" stop-opacity="0.73"/>
<stop offset="0.9998" stop-color="#690001" stop-opacity="0"/>
<stop offset="0.9999" stop-opacity="0"/>
<stop offset="1" stop-color="#290000" stop-opacity="0"/>
</radialGradient>
<radialGradient id="paint4_radial_357_1340" cx="0" cy="0" r="1" gradientUnits="userSpaceOnUse" gradientTransform="translate(105.322 104.633) scale(75.6456 75.6456)">
<stop stop-color="#E95A29"/>
<stop offset="0.19" stop-color="#E65928"/>
<stop offset="0.33" stop-color="#DD5527"/>
<stop offset="0.45" stop-color="#CD4F24"/>
<stop offset="0.56" stop-color="#B64620"/>
<stop offset="0.66" stop-color="#993B1B"/>
<stop offset="0.9997" stop-color="#762E15" stop-opacity="0"/>
<stop offset="0.9998" stop-color="#4C1D0D" stop-opacity="0"/>
<stop offset="0.9999" stop-color="#1C0B05" stop-opacity="0"/>
<stop offset="1" stop-opacity="0"/>
</radialGradient>
<radialGradient id="paint5_radial_357_1340" cx="0" cy="0" r="1" gradientUnits="userSpaceOnUse" gradientTransform="translate(89.3232 76.9108) scale(93.5823 93.5823)">
<stop offset="0.01" stop-color="#DE6B52"/>
<stop offset="0.19" stop-color="#DB6952"/>
<stop offset="0.34" stop-color="#D16151"/>
<stop offset="0.47" stop-color="#C15550"/>
<stop offset="0.59" stop-color="#A9434E"/>
<stop offset="0.71" stop-color="#8B2C4C"/>
<stop offset="0.82" stop-color="#671049"/>
<stop offset="0.87" stop-color="#520048"/>
<stop offset="1" stop-color="#6B1944"/>
</radialGradient>
<radialGradient id="paint6_radial_357_1340" cx="0" cy="0" r="1" gradientUnits="userSpaceOnUse" gradientTransform="translate(85.1319 67.4174) scale(79.3544 79.3544)">
<stop stop-color="#FFFF4A"/>
<stop offset="1"/>
</radialGradient>
<linearGradient id="paint7_linear_357_1340" x1="65.8287" y1="122.203" x2="66.7654" y2="174.317" gradientUnits="userSpaceOnUse">
<stop stop-color="#280077"/>
<stop offset="1" stop-color="#EAAEE6"/>
</linearGradient>
<linearGradient id="paint8_linear_357_1340" x1="144.184" y1="162.038" x2="143.88" y2="140.379" gradientUnits="userSpaceOnUse">
<stop stop-color="#280077"/>
<stop offset="1" stop-color="#EAAEE6"/>
</linearGradient>
<radialGradient id="paint9_radial_357_1340" cx="0" cy="0" r="1" gradientUnits="userSpaceOnUse" gradientTransform="translate(48.2715 127.645) scale(31.2785 31.2785)">
<stop offset="0.01" stop-color="#FFC22E"/>
<stop offset="0.2" stop-color="#FEBD2E"/>
<stop offset="0.43" stop-color="#FDAE2F"/>
<stop offset="0.69" stop-color="#FA9531"/>
<stop offset="0.96" stop-color="#F77333"/>
<stop offset="1" stop-color="#F66D33"/>
</radialGradient>
<radialGradient id="paint10_radial_357_1340" cx="0" cy="0" r="1" gradientUnits="userSpaceOnUse" gradientTransform="translate(111.386 96.7843) scale(65.5443 65.5443)">
<stop offset="0.01" stop-color="#FFC22E"/>
<stop offset="0.2" stop-color="#FEBD2E"/>
<stop offset="0.43" stop-color="#FDAE2F"/>
<stop offset="0.69" stop-color="#FA9531"/>
<stop offset="0.96" stop-color="#F77333"/>
<stop offset="1" stop-color="#F66D33"/>
</radialGradient>
<linearGradient id="paint11_linear_357_1340" x1="38.373" y1="157.658" x2="42.1452" y2="157.658" gradientUnits="userSpaceOnUse">
<stop offset="0.01" stop-color="#FFB80B"/>
<stop offset="0.39" stop-color="#FFB60C"/>
<stop offset="0.58" stop-color="#FEAE10"/>
<stop offset="0.73" stop-color="#FCA117"/>
<stop offset="0.85" stop-color="#FA8E21"/>
<stop offset="0.97" stop-color="#F7762E"/>
<stop offset="1" stop-color="#F66D33"/>
</linearGradient>
<linearGradient id="paint12_linear_357_1340" x1="47.6646" y1="122.696" x2="24.6393" y2="114.531" gradientUnits="userSpaceOnUse">
<stop stop-color="#E74136"/>
<stop offset="1" stop-color="#F09E50"/>
</linearGradient>
<linearGradient id="paint13_linear_357_1340" x1="71.6898" y1="134.291" x2="43.2214" y2="134.291" gradientUnits="userSpaceOnUse">
<stop stop-color="#E74136"/>
<stop offset="1" stop-color="#F09E50"/>
</linearGradient>
<linearGradient id="paint14_linear_357_1340" x1="83.131" y1="167.455" x2="70.3588" y2="157" gradientUnits="userSpaceOnUse">
<stop stop-color="#E74136"/>
<stop offset="1" stop-color="#F09E50"/>
</linearGradient>
<linearGradient id="paint15_linear_357_1340" x1="138.893" y1="127.443" x2="151.728" y2="127.443" gradientUnits="userSpaceOnUse">
<stop stop-color="#E74136"/>
<stop offset="1" stop-color="#F09E50"/>
</linearGradient>
<linearGradient id="paint16_linear_357_1340" x1="152.334" y1="131.152" x2="164.119" y2="131.152" gradientUnits="userSpaceOnUse">
<stop stop-color="#E74136"/>
<stop offset="1" stop-color="#F09E50"/>
</linearGradient>
<linearGradient id="paint17_linear_357_1340" x1="133.93" y1="150.746" x2="158.347" y2="150.746" gradientUnits="userSpaceOnUse">
<stop stop-color="#E74136"/>
<stop offset="1" stop-color="#F09E50"/>
</linearGradient>
<linearGradient id="paint18_linear_357_1340" x1="38.8145" y1="68.2909" x2="160.814" y2="68.2909" gradientUnits="userSpaceOnUse">
<stop offset="0.02" stop-color="#EF8C1D"/>
<stop offset="0.18" stop-color="#BB6E17"/>
<stop offset="0.4" stop-color="#79470F"/>
<stop offset="0.6" stop-color="#452808"/>
<stop offset="0.77" stop-color="#1F1204"/>
<stop offset="0.91" stop-color="#080501"/>
<stop offset="1"/>
</linearGradient>
<linearGradient id="paint19_linear_357_1340" x1="118.587" y1="58.5564" x2="104.638" y2="69.5184" gradientUnits="userSpaceOnUse">
<stop stop-color="#8A2787"/>
<stop offset="1" stop-color="#8880EA"/>
</linearGradient>
<linearGradient id="paint20_linear_357_1340" x1="129.638" y1="53.3034" x2="122.221" y2="59.1262" gradientUnits="userSpaceOnUse">
<stop stop-color="#8A2787"/>
<stop offset="1" stop-color="#8880EA"/>
</linearGradient>
<linearGradient id="paint21_linear_357_1340" x1="71.1074" y1="124.405" x2="51.7024" y2="116.734" gradientUnits="userSpaceOnUse">
<stop stop-color="#E74136"/>
<stop offset="1" stop-color="#F09E50"/>
</linearGradient>
<linearGradient id="paint22_linear_357_1340" x1="62.2727" y1="146.722" x2="42.8803" y2="139.051" gradientUnits="userSpaceOnUse">
<stop stop-color="#E74136"/>
<stop offset="1" stop-color="#F09E50"/>
</linearGradient>
<radialGradient id="paint23_radial_357_1340" cx="0" cy="0" r="1" gradientUnits="userSpaceOnUse" gradientTransform="translate(47.9417 126.754) scale(33)">
<stop stop-color="#FF5B00"/>
<stop offset="0.17" stop-color="#C54600"/>
<stop offset="0.4" stop-color="#802E00" stop-opacity="0.64"/>
<stop offset="0.9997" stop-color="#491A00" stop-opacity="0"/>
<stop offset="0.9998" stop-color="#210C00" stop-opacity="0"/>
<stop offset="0.9999" stop-color="#090300" stop-opacity="0"/>
<stop offset="1" stop-opacity="0"/>
</radialGradient>
<radialGradient id="paint24_radial_357_1340" cx="0" cy="0" r="1" gradientUnits="userSpaceOnUse" gradientTransform="translate(120.05 137.542) scale(20.4676 19.9428)">
<stop stop-color="#FF5B00"/>
<stop offset="0.17" stop-color="#C54600"/>
<stop offset="0.4" stop-color="#802E00"/>
<stop offset="0.9997" stop-color="#491A00" stop-opacity="0"/>
<stop offset="0.9998" stop-color="#210C00" stop-opacity="0"/>
<stop offset="0.9999" stop-color="#090300" stop-opacity="0"/>
<stop offset="1" stop-opacity="0"/>
</radialGradient>
<radialGradient id="paint25_radial_357_1340" cx="0" cy="0" r="1" gradientUnits="userSpaceOnUse" gradientTransform="translate(118.29 22.9103) scale(14.4051)">
<stop stop-color="#FF5B00"/>
<stop offset="0.546875" stop-color="#C54600" stop-opacity="0"/>
<stop offset="0.9995" stop-color="#802E00" stop-opacity="0"/>
<stop offset="0.9996" stop-color="#491A00" stop-opacity="0"/>
<stop offset="0.9997" stop-color="#210C00" stop-opacity="0"/>
<stop offset="0.9998" stop-color="#1B0A00" stop-opacity="0.31"/>
<stop offset="0.9999" stop-color="#090300" stop-opacity="0"/>
<stop offset="1" stop-opacity="0"/>
</radialGradient>
<radialGradient id="paint26_radial_357_1340" cx="0" cy="0" r="1" gradientUnits="userSpaceOnUse" gradientTransform="translate(70.6201 48.5812) rotate(-45) scale(51.1804 30.7082)">
<stop stop-color="#F1E532"/>
<stop offset="0.14" stop-color="#C5BB29"/>
<stop offset="0.6875" stop-color="#80791A" stop-opacity="0"/>
<stop offset="0.9997" stop-color="#49450F" stop-opacity="0"/>
<stop offset="0.9998" stop-color="#212007" stop-opacity="0"/>
<stop offset="0.9999" stop-color="#090802" stop-opacity="0"/>
<stop offset="1" stop-opacity="0"/>
</radialGradient>
<radialGradient id="paint27_radial_357_1340" cx="0" cy="0" r="1" gradientUnits="userSpaceOnUse" gradientTransform="translate(127.583 57.183) scale(12.1392 12.1393)">
<stop stop-color="#317AFF"/>
<stop offset="0.1" stop-color="#2967D7"/>
<stop offset="0.29" stop-color="#1D4897"/>
<stop offset="0.47" stop-color="#132E61"/>
<stop offset="0.64" stop-color="#0B1A37"/>
<stop offset="0.78" stop-color="#050C19"/>
<stop offset="0.91" stop-color="#010307"/>
<stop offset="1"/>
</radialGradient>
<radialGradient id="paint28_radial_357_1340" cx="0" cy="0" r="1" gradientUnits="userSpaceOnUse" gradientTransform="translate(154.552 109.442) scale(4.30379 4.3038)">
<stop stop-color="#317AFF"/>
<stop offset="0.1" stop-color="#2967D7"/>
<stop offset="0.29" stop-color="#1D4897"/>
<stop offset="0.47" stop-color="#132E61"/>
<stop offset="0.64" stop-color="#0B1A37"/>
<stop offset="0.78" stop-color="#050C19"/>
<stop offset="0.91" stop-color="#010307"/>
<stop offset="1"/>
</radialGradient>
<radialGradient id="paint29_radial_357_1340" cx="0" cy="0" r="1" gradientUnits="userSpaceOnUse" gradientTransform="translate(160.462 77.4303) scale(4.3038 4.3038)">
<stop stop-color="#317AFF"/>
<stop offset="0.1" stop-color="#2967D7"/>
<stop offset="0.29" stop-color="#1D4897"/>
<stop offset="0.47" stop-color="#132E61"/>
<stop offset="0.64" stop-color="#0B1A37"/>
<stop offset="0.78" stop-color="#050C19"/>
<stop offset="0.91" stop-color="#010307"/>
<stop offset="1"/>
</radialGradient>
<radialGradient id="paint30_radial_357_1340" cx="0" cy="0" r="1" gradientUnits="userSpaceOnUse" gradientTransform="translate(77.6144 115.418) scale(5.92404 5.92405)">
<stop stop-color="#317AFF"/>
<stop offset="0.1" stop-color="#2967D7"/>
<stop offset="0.29" stop-color="#1D4897"/>
<stop offset="0.47" stop-color="#132E61"/>
<stop offset="0.64" stop-color="#0B1A37"/>
<stop offset="0.78" stop-color="#050C19"/>
<stop offset="0.91" stop-color="#010307"/>
<stop offset="1"/>
</radialGradient>
<radialGradient id="paint31_radial_357_1340" cx="0" cy="0" r="1" gradientUnits="userSpaceOnUse" gradientTransform="translate(102.663 162.493) scale(5.92405)">
<stop stop-color="#317AFF"/>
<stop offset="0.1" stop-color="#2967D7"/>
<stop offset="0.29" stop-color="#1D4897"/>
<stop offset="0.47" stop-color="#132E61"/>
<stop offset="0.64" stop-color="#0B1A37"/>
<stop offset="0.78" stop-color="#050C19"/>
<stop offset="0.91" stop-color="#010307"/>
<stop offset="1"/>
</radialGradient>
</defs>
</svg>
