<svg width="202" height="200" viewBox="0 0 202 200" fill="none" xmlns="http://www.w3.org/2000/svg">
<path style="mix-blend-mode:screen" opacity="0.64" d="M103.945 198.985C158.099 198.985 202 155.336 202 101.493C202 47.6489 158.099 4 103.945 4C49.7911 4 5.89062 47.6489 5.89062 101.493C5.89062 155.336 49.7911 198.985 103.945 198.985Z" fill="url(#paint0_radial_359_1343)"/>
<g opacity="0.1">
<path d="M103.857 52.2009C115.216 46.549 95.1422 41.0404 89.8539 49.9975C84.5655 58.9546 140.302 58.1173 125.506 50.8127C125.506 50.8127 150.328 53.7984 128.018 60.1334C105.708 66.4684 54.0254 40.0157 98.833 43.6074C143.641 47.1991 103.857 52.2009 103.857 52.2009Z" fill="#D2EFFF"/>
<path d="M128.781 79.8435C116.408 101.415 64.0869 76.7586 87.3997 77.9926C110.712 79.2265 127.117 80.4494 112.365 82.6749C112.365 82.6749 143.643 82.675 105.545 77.2434C67.4472 71.8118 56.9587 65.4107 76.0077 81.9368C95.0567 98.4628 159.156 84.9555 146.398 77.2434C133.64 69.5312 154.727 63.1962 151.157 73.2992C151.157 73.2992 180.287 56.4977 128.142 62.5572C128.142 62.5572 159.828 65.8625 130.874 68.7049C101.921 71.5474 48.3541 46.9456 87.3115 53.8535C87.3115 53.8535 37.8986 36.6334 74.278 62.5572C110.657 88.4811 141.153 58.2605 128.781 79.8435ZM112.012 71.0296C110.404 71.9771 93.2829 71.7788 86.6725 65.8294C82.8164 62.3038 116.772 68.2532 112.012 71.0296ZM137.518 72.1313C142.244 74.5441 150.816 82.697 131.006 83.3911C128.77 83.4131 132.791 69.6634 137.518 72.1313V72.1313Z" fill="#D2EFFF"/>
<path d="M141.164 94.4415C151.52 89.5828 168.299 80.9562 156.015 91.4778C143.731 101.999 85.7683 115.793 76.0069 101.878C66.2456 87.9633 113.113 96.072 106.767 100.391C106.767 100.391 141.505 97.1738 90.66 91.4888C39.8149 85.8039 51.0967 76.1527 64.8794 81.1105C64.8794 81.1105 24.2474 68.2092 57.7842 88.2938C91.3211 108.378 17.6039 95.5322 81.141 109.315C144.678 123.098 150.088 103.641 150.088 103.641C150.088 103.641 144.788 110.89 121.443 109.315C98.0967 107.739 143.621 108.213 159.078 95.6424C174.535 83.0716 174.789 71.2169 140.348 94.8601L141.164 94.4415Z" fill="#D2EFFF"/>
<path d="M147.167 114.229C147.167 114.229 144.457 143.491 60.8899 110.097C60.8899 110.097 89.5902 128.827 115.217 129.697C140.843 130.567 67.0376 143.744 60.8899 116.201C60.8899 116.201 40.7502 148.316 119.965 135.195C166.238 127.538 134.012 136.462 134.012 136.462C134.012 136.462 167.957 131.901 137.317 127.229C137.328 127.218 177.013 110.097 147.167 114.229Z" fill="#D2EFFF"/>
<path d="M135.807 138.368C135.807 138.368 109.366 152.691 73.482 145.32C37.5984 137.95 83.651 140.517 83.651 140.517C83.651 140.517 51.0396 133.377 53.6728 140.726C56.3059 148.075 113.288 147.777 108.44 151.743C103.592 155.71 75.0685 157.252 88.2783 153.704C88.2783 153.704 55.8983 152.482 94.6684 158.111C133.438 163.741 132.127 147.799 132.127 147.799C132.127 147.799 126.751 157.23 116.802 153.726C106.854 150.223 152.576 135.383 136.931 150.311C136.931 150.311 154.239 136.848 133.185 141.354L135.807 138.368Z" fill="#D2EFFF"/>
<path d="M104.388 162.859C104.388 162.859 85.6582 166.164 78.7723 159.29C78.7723 159.29 75.3349 171.199 104.388 162.859Z" fill="#D2EFFF"/>
</g>
<path style="mix-blend-mode:screen" d="M169.532 117.445C178.324 81.2403 156.102 44.7632 119.897 35.971C83.6929 27.1788 47.2159 49.4008 38.4236 85.6052C29.6314 121.81 51.8534 158.287 88.0579 167.079C124.262 175.871 160.739 153.649 169.532 117.445Z" fill="url(#paint1_radial_359_1343)"/>
<path style="mix-blend-mode:screen" opacity="0.53" d="M163.695 109.404C150.65 125.368 121.377 72.5285 81.1967 100.799C41.0163 129.07 33.6788 81.1441 58.3797 58.228C77.6491 40.3247 95.8387 32.7668 127.304 43.5308C158.77 54.2947 172.387 98.7718 163.695 109.404Z" fill="url(#paint2_linear_359_1343)"/>
<path style="mix-blend-mode:screen" opacity="0.55" d="M43.3275 94.6953C56.372 78.7311 85.6451 131.57 125.825 103.3C166.006 75.0293 173.343 122.955 148.686 145.871C129.417 163.774 111.227 171.332 79.7619 160.568C48.2963 149.804 34.6348 105.327 43.3275 94.6953Z" fill="url(#paint3_linear_359_1343)"/>
<g style="mix-blend-mode:screen">
<path d="M104.773 39.355C86.8695 32.2048 118.522 25.2198 126.807 36.5787C135.092 47.9376 47.2841 46.8579 70.6188 37.6804C70.6188 37.6804 31.4852 41.4483 66.6636 49.469C101.842 57.4896 183.327 24.0078 112.672 28.536C42.0178 33.0641 104.773 39.355 104.773 39.355Z" fill="url(#paint4_linear_359_1343)"/>
<path d="M151.442 52.4761C208.809 19.6554 130.906 41.4588 130.906 41.4588C192.316 32.711 107.857 63.9121 62.2013 60.2764C16.5454 56.6407 66.5091 52.4871 66.5091 52.4871C-15.7025 44.775 30.2289 66.0936 30.2289 66.0936C24.5991 53.2914 57.8384 61.3341 37.7318 71.0955C17.6251 80.8569 118.731 97.9448 148.732 77.0228C178.732 56.1008 162.173 64.2096 102.106 71.0955C42.0395 77.9813 91.3532 77.9593 91.3532 77.9593C68.1066 75.1499 93.9754 73.5523 130.729 72.032C167.483 70.5116 84.9742 101.691 65.4735 74.3676C45.9727 47.0446 94.0745 85.3519 151.442 52.4761ZM131.853 56.5966C121.519 64.1215 94.394 64.3749 91.9151 63.207C84.4784 59.6925 137.957 52.1566 131.853 56.5966ZM61.9589 78.7415C30.7467 77.8711 44.243 67.5369 51.6907 64.4851C59.1385 61.4332 65.4845 78.8847 61.9589 78.7415Z" fill="url(#paint5_linear_359_1343)"/>
<path d="M45.9618 92.8555C29.612 86.6968 3.17036 75.7785 22.5389 89.0985C41.9074 102.419 133.296 119.892 148.721 102.253C164.145 84.6145 90.2075 94.9047 100.244 100.38C100.244 100.38 45.477 96.3039 125.639 89.0985C205.802 81.8932 188.02 69.6749 166.304 75.9659C166.304 75.9659 230.37 59.6271 177.487 85.0442C124.604 110.461 240.837 94.2216 140.656 111.662C40.4751 129.103 31.9367 104.479 31.9367 104.479C31.9367 104.479 40.2878 113.678 77.1079 111.662C113.928 109.646 42.1278 110.23 17.7684 94.3538C-6.59102 78.4778 -7.00968 63.4281 47.339 93.3622L45.9618 92.8555Z" fill="url(#paint6_linear_359_1343)"/>
<path d="M36.4864 117.92C36.4864 117.92 40.7612 154.96 172.529 112.675C172.529 112.675 127.258 136.341 86.8688 137.508C46.4792 138.676 162.823 155.346 172.529 120.432C172.529 120.432 204.27 161.108 79.377 144.482C6.50818 134.787 57.2321 146.08 57.2321 146.08C57.2321 146.08 3.69876 140.318 52.0099 134.402C52.0099 134.402 -10.5687 112.675 36.4864 117.92Z" fill="url(#paint7_linear_359_1343)"/>
<path d="M54.3906 148.482C54.3906 148.482 96.0362 166.595 152.665 157.296C209.295 147.998 136.602 151.193 136.602 151.193C136.602 151.193 188.02 142.158 183.856 151.468C179.691 160.778 89.8665 160.392 97.5125 165.438C105.159 170.484 150.131 172.39 129.309 167.917C129.309 167.917 180.352 166.364 119.228 173.426C58.1034 180.488 60.1857 160.381 60.1857 160.381C62.9801 163.927 66.7841 166.543 71.0957 167.882C75.4074 169.222 80.0238 169.222 84.3358 167.884C100.013 163.477 27.9379 144.648 52.6058 163.554C52.6058 163.554 25.3158 146.499 58.5221 152.206L54.3906 148.482Z" fill="url(#paint8_linear_359_1343)"/>
<path d="M103.947 179.485C103.947 179.485 133.507 183.738 144.337 174.979C144.315 174.979 149.746 190.018 103.947 179.485Z" fill="url(#paint9_linear_359_1343)"/>
</g>
<defs>
<radialGradient id="paint0_radial_359_1343" cx="0" cy="0" r="1" gradientUnits="userSpaceOnUse" gradientTransform="translate(101.289 101.994) scale(104.762 104.762)">
<stop offset="0.234375" stop-color="#8B6FFF"/>
<stop offset="0.546875" stop-color="#524196" stop-opacity="0.58"/>
<stop offset="0.9998" stop-color="#261E45" stop-opacity="0"/>
<stop offset="0.9999" stop-color="#0A0813" stop-opacity="0"/>
<stop offset="1" stop-color="white" stop-opacity="0"/>
</radialGradient>
<radialGradient id="paint1_radial_359_1343" cx="0" cy="0" r="1" gradientUnits="userSpaceOnUse" gradientTransform="translate(104.003 101.496) scale(67.4593 67.4593)">
<stop offset="0.29"/>
<stop offset="0.42" stop-color="#010203"/>
<stop offset="0.51" stop-color="#050A0C"/>
<stop offset="0.6" stop-color="#0C181C"/>
<stop offset="0.67" stop-color="#152B33"/>
<stop offset="0.75" stop-color="#214450"/>
<stop offset="0.81" stop-color="#306274"/>
<stop offset="0.88" stop-color="#42869E"/>
<stop offset="0.94" stop-color="#56AFCE"/>
<stop offset="1" stop-color="#6AD8FF"/>
</radialGradient>
<linearGradient id="paint2_linear_359_1343" x1="135.407" y1="42.8675" x2="86.8915" y2="123.563" gradientUnits="userSpaceOnUse">
<stop stop-color="#00FDFD"/>
<stop offset="0.12" stop-color="#00C3C3"/>
<stop offset="0.25" stop-color="#008F8F"/>
<stop offset="0.37" stop-color="#006363"/>
<stop offset="0.5" stop-color="#003F3F"/>
<stop offset="0.62" stop-color="#002323"/>
<stop offset="0.75" stop-color="#001010"/>
<stop offset="0.87" stop-color="#000404"/>
<stop offset="1"/>
</linearGradient>
<linearGradient id="paint3_linear_359_1343" x1="91.095" y1="165.416" x2="110.685" y2="86.9255" gradientUnits="userSpaceOnUse">
<stop stop-color="#FF00FF"/>
<stop offset="0.01" stop-color="#F600F6"/>
<stop offset="0.05" stop-color="#C800C8"/>
<stop offset="0.09" stop-color="#9D009D"/>
<stop offset="0.14" stop-color="#770077"/>
<stop offset="0.2" stop-color="#570057"/>
<stop offset="0.25" stop-color="#3B003B"/>
<stop offset="0.32" stop-color="#250025"/>
<stop offset="0.4" stop-color="#140014"/>
<stop offset="0.49" stop-color="#090009"/>
<stop offset="0.63" stop-color="#020002"/>
<stop offset="1"/>
</linearGradient>
<linearGradient id="paint4_linear_359_1343" x1="52.0105" y1="39.355" x2="140.612" y2="39.355" gradientUnits="userSpaceOnUse">
<stop/>
<stop offset="0.09" stop-color="#1C1F32"/>
<stop offset="0.25" stop-color="#4C5689"/>
<stop offset="0.38" stop-color="#6F7FC8"/>
<stop offset="0.48" stop-color="#8598F0"/>
<stop offset="0.53" stop-color="#8DA1FF"/>
<stop offset="1"/>
</linearGradient>
<linearGradient id="paint5_linear_359_1343" x1="17.4378" y1="60.651" x2="172.529" y2="60.651" gradientUnits="userSpaceOnUse">
<stop/>
<stop offset="0.09" stop-color="#1C1F32"/>
<stop offset="0.25" stop-color="#4C5689"/>
<stop offset="0.38" stop-color="#6F7FC8"/>
<stop offset="0.48" stop-color="#8598F0"/>
<stop offset="0.53" stop-color="#8DA1FF"/>
<stop offset="1"/>
</linearGradient>
<linearGradient id="paint6_linear_359_1343" x1="1.98049" y1="94.3538" x2="198.354" y2="94.3538" gradientUnits="userSpaceOnUse">
<stop/>
<stop offset="0.09" stop-color="#1C1F32"/>
<stop offset="0.25" stop-color="#4C5689"/>
<stop offset="0.38" stop-color="#6F7FC8"/>
<stop offset="0.48" stop-color="#8598F0"/>
<stop offset="0.53" stop-color="#8DA1FF"/>
<stop offset="1"/>
</linearGradient>
<linearGradient id="paint7_linear_359_1343" x1="18.9578" y1="130.579" x2="176.131" y2="130.579" gradientUnits="userSpaceOnUse">
<stop/>
<stop offset="0.09" stop-color="#1C1F32"/>
<stop offset="0.25" stop-color="#4C5689"/>
<stop offset="0.38" stop-color="#6F7FC8"/>
<stop offset="0.48" stop-color="#8598F0"/>
<stop offset="0.53" stop-color="#8DA1FF"/>
<stop offset="1"/>
</linearGradient>
<linearGradient id="paint8_linear_359_1343" x1="42.0842" y1="161.119" x2="184.131" y2="161.119" gradientUnits="userSpaceOnUse">
<stop/>
<stop offset="0.09" stop-color="#1C1F32"/>
<stop offset="0.25" stop-color="#4C5689"/>
<stop offset="0.38" stop-color="#6F7FC8"/>
<stop offset="0.48" stop-color="#8598F0"/>
<stop offset="0.53" stop-color="#8DA1FF"/>
<stop offset="1"/>
</linearGradient>
<linearGradient id="paint9_linear_359_1343" x1="103.947" y1="179.111" x2="144.535" y2="179.111" gradientUnits="userSpaceOnUse">
<stop/>
<stop offset="0.09" stop-color="#1C1F32"/>
<stop offset="0.25" stop-color="#4C5689"/>
<stop offset="0.38" stop-color="#6F7FC8"/>
<stop offset="0.48" stop-color="#8598F0"/>
<stop offset="0.53" stop-color="#8DA1FF"/>
<stop offset="1"/>
</linearGradient>
</defs>
</svg>
