<svg width="180" height="107" viewBox="0 0 180 107" fill="none" xmlns="http://www.w3.org/2000/svg">
<path fill-rule="evenodd" clip-rule="evenodd" d="M180 5.14959C168.234 -0.553087 162.9 -0.399947 154.35 0.416013C145.65 1.23197 137.1 4.49581 128.55 9.39157C120 14.2873 111.45 20.815 102.9 19.9991C94.35 19.1831 85.65 11.0235 77.1 6.94369C68.55 2.86389 60 2.86389 51.45 5.31177C42.9 7.75965 34.35 12.6554 25.65 12.6554C17.1 12.6554 4.2 7.59759 0 5.14971V107H4.34999C8.54999 107 17.1 107 25.65 107C34.35 107 42.9 107 51.45 107C60 107 68.55 107 77.1 107C85.65 107 94.35 107 102.9 107C111.45 107 120 107 128.55 107C137.1 107 145.65 107 154.35 107C162.9 107 171.45 107 175.65 107H180V5.14959Z" fill="url(#paint0_linear_638_79)" fill-opacity="0.1"/>
<defs>
<linearGradient id="paint0_linear_638_79" x1="90" y1="0.109815" x2="90" y2="32.2385" gradientUnits="userSpaceOnUse">
<stop stop-color="#929DE3"/>
<stop offset="1" stop-color="#929DE3" stop-opacity="0"/>
</linearGradient>
</defs>
</svg>
