<svg width="24" height="24" viewBox="0 0 24 24" fill="none" xmlns="http://www.w3.org/2000/svg">
<path d="M12.66 2.58002C12.28 2.25002 11.71 2.25002 11.33 2.58002C6.45 6.88002 4 10.62 4 13.8C4 18.78 7.8 22 12 22C16.2 22 20 18.78 20 13.8C20 10.62 17.55 6.88002 12.66 2.58002ZM7.83 14C8.2 14 8.5 14.26 8.57 14.62C8.98 16.84 10.85 17.6 12.21 17.49C12.64 17.47 13 17.81 13 18.24C13 18.64 12.68 18.97 12.28 18.99C10.15 19.12 7.66 17.9 7.09 14.87C7.07262 14.7628 7.07874 14.6531 7.10792 14.5485C7.13711 14.4439 7.18867 14.3468 7.25905 14.2641C7.32942 14.1814 7.41692 14.1149 7.5155 14.0693C7.61408 14.0237 7.72139 14.0001 7.83 14Z" fill="#4C83DB"/>
</svg>
