<svg width="358" height="264" viewBox="0 0 358 264" fill="none" xmlns="http://www.w3.org/2000/svg">
<path d="M55.7099 178.19L69.4557 168.566L75.3468 164.152C75.5847 163.948 75.8339 163.759 76.0933 163.584L75.3468 164.152C74.227 165.077 72.4419 166.992 74.4056 168.452L76.6452 169.183C77.3955 169.426 78.1978 169.459 78.9658 169.28L111.959 161.555C112.661 161.39 113.311 161.051 113.849 160.57C114.386 160.089 114.795 159.481 115.037 158.802C115.279 158.122 115.347 157.393 115.234 156.68C115.122 155.968 114.833 155.295 114.394 154.723L111.148 150.406C110.56 149.609 109.719 149.037 108.762 148.783L80.8484 141.853C80.0095 141.641 79.1256 141.692 78.3166 141.999L64.5221 147.128C64.3069 147.21 64.0841 147.27 63.8568 147.306L32.9083 153.473C32.199 153.615 31.5369 153.934 30.9827 154.399C30.4285 154.864 30 155.46 29.7366 156.134C29.4732 156.808 29.3835 157.537 29.4755 158.255C29.5675 158.972 29.8382 159.655 30.263 160.241L31.3991 167.414C32.0773 168.296 33.073 168.878 34.1742 169.037L52.5776 178.774C53.658 178.984 54.7779 178.775 55.7099 178.19Z" fill="url(#paint0_linear_860_991)"/>
<path style="mix-blend-mode:multiply" opacity="0.14" d="M30.2156 160.257L31.3517 167.43C32.0299 168.312 33.0256 168.894 34.1268 169.053L52.5303 178.79C53.0927 178.888 53.669 178.874 54.226 178.749C54.7831 178.624 55.3098 178.389 55.776 178.06L69.522 168.436L75.3481 164.152C75.586 163.948 75.8352 163.759 76.0946 163.584L55.4353 167.397L50.8588 158.05L30.0048 155.469C29.5589 156.197 29.3406 157.042 29.3782 157.895C29.4158 158.748 29.7073 159.571 30.2156 160.257Z" fill="url(#paint1_linear_860_991)"/>
<path style="mix-blend-mode:multiply" opacity="0.14" d="M78.0897 148.669L76.1099 163.518L75.3634 164.086C74.2436 165.011 72.4585 166.926 74.4222 168.387L76.6618 169.117C77.4121 169.36 78.2144 169.394 78.9824 169.215L110.531 161.831L101.005 146.884L78.0897 148.669Z" fill="url(#paint2_linear_860_991)"/>
<path style="mix-blend-mode:multiply" opacity="0.14" d="M53.9745 176.355L55.4351 167.445L50.8586 158.098L50.1121 171.519L42.1924 173.418L52.5302 178.919L53.9745 176.355Z" fill="url(#paint3_linear_860_991)"/>
<path style="mix-blend-mode:multiply" opacity="0.14" d="M78.0906 148.669L51.3779 155.372L75.9485 151.931L76.1107 163.519L74.6015 164.801C73.6603 165.807 72.8813 167.235 74.423 168.387L76.6626 169.118C77.4129 169.361 78.2152 169.395 78.9832 169.215L85.2476 167.738L82.4238 151.412L78.0906 148.669Z" fill="url(#paint4_linear_860_991)"/>
<path style="mix-blend-mode:multiply" opacity="0.14" d="M87.4678 167.219L95.2576 165.401L95.5498 161.182L87.4678 167.219Z" fill="url(#paint5_linear_860_991)"/>
<path style="mix-blend-mode:color-dodge" opacity="0.32" d="M99.6893 146.981L77.7316 147.501L51.4247 155.372L77.5693 149.27L76.3034 160.63L75.9952 151.866C75.9952 151.866 75.9952 162.22 74.8105 162.756C73.6258 163.291 55.4494 166.975 55.4494 166.975L51.0352 156.703L30.6191 155.42C30.6191 155.42 49.8828 158.293 50.3048 159.965C50.4723 163.794 50.4236 167.63 50.1588 171.455C50.1588 171.455 51.3597 159.965 51.7816 160.987C52.2036 162.009 55.0274 167.397 55.0274 167.397L53.9887 176.291C53.9887 176.291 55.417 167.836 57.5267 167.284C59.6365 166.732 75.6381 162.707 69.4711 168.501L74.6158 164.736L80.4744 166.18C80.4744 166.18 76.8229 165.58 77.4233 159.429C78.0238 153.278 77.2935 149.075 79.0462 150.081C79.8921 150.623 80.7955 151.07 81.7401 151.412L85.3268 167.641C85.3268 167.641 83.0061 151.98 83.7039 151.233C85.013 150.402 86.4263 149.747 87.9071 149.286C87.9071 149.286 80.9774 149.708 79.5979 148.539L99.6893 146.981Z" fill="url(#paint6_linear_860_991)"/>
<g style="mix-blend-mode:multiply" opacity="0.47">
<path d="M34.1241 169.134L52.5276 178.871C53.09 178.969 53.6664 178.955 54.2234 178.83C54.7804 178.704 55.3071 178.47 55.7734 178.141L69.5194 168.517L75.3455 164.151C75.5834 163.948 75.8325 163.758 76.0919 163.583L75.3455 164.151C74.2257 165.076 72.4406 166.991 74.4043 168.452L76.6439 169.182C77.3942 169.425 78.1965 169.459 78.9645 169.28L111.958 161.555C112.66 161.39 113.31 161.051 113.847 160.57C114.385 160.089 114.793 159.481 115.035 158.802C115.278 158.122 115.346 157.393 115.233 156.68C115.121 155.968 114.832 155.294 114.392 154.722L111.146 150.406C110.559 149.609 109.717 149.036 108.761 148.783L83.7034 155.518L77.2118 152.694L54.0207 163.648L50.4505 161.149L30.3916 160.808L31.4301 167.413C32.0714 168.314 33.0372 168.931 34.1241 169.134Z" fill="#2D4E09"/>
</g>
<path d="M247.941 158.763L244.046 157.741L245.036 152.872C241.79 146.381 237.473 138.266 232.426 129.519L226.454 123.66C226.454 123.66 229.197 124.098 228.353 122.654C226.551 119.684 224.669 116.682 222.721 113.712L218.567 112.089C220.887 111.537 220.287 110.125 219.979 109.606C217.528 105.987 214.98 102.4 212.367 98.9437C211.593 98.2889 210.654 97.8593 209.652 97.7019C208.651 97.5445 207.625 97.6653 206.687 98.0511C209.105 96.5419 209.365 95.4545 209.154 94.8054C205.013 89.5446 200.518 84.5724 195.7 79.9235C195.105 79.3618 194.351 78.9966 193.541 78.8776C192.731 78.7586 191.904 78.8914 191.172 79.2581C184.162 82.8367 177.347 86.7859 170.757 91.089L171.73 94.0426C170.414 93.4732 168.994 93.1804 167.559 93.1825C164.476 95.2273 161.165 97.4994 157.692 100.015C154.625 103.455 160.419 104.105 160.419 104.105L149.562 106.052C144.141 110.223 138.396 114.88 132.44 120.09L94.2861 172.931C105.752 185.715 118.059 197.719 131.126 208.862C139.24 215.045 144.466 214.461 144.466 214.461C144.065 215.442 143.976 216.523 144.211 217.557C144.446 218.591 144.994 219.527 145.78 220.238C149.942 223.199 154.278 225.909 158.763 228.353C159.83 228.939 161.027 229.247 162.244 229.247C163.462 229.247 164.659 228.939 165.725 228.353C178.076 221.455 221.52 196.512 248.152 171.682C249.323 170.572 250.112 169.119 250.403 167.532C250.695 165.945 250.475 164.307 249.775 162.853C249.337 161.652 248.671 160.273 247.941 158.763Z" fill="url(#paint7_linear_860_991)"/>
<g style="mix-blend-mode:multiply" opacity="0.64">
<path d="M131.127 208.813C139.241 214.996 144.467 214.412 144.467 214.412C144.066 215.394 143.977 216.475 144.213 217.508C144.448 218.542 144.996 219.478 145.782 220.19C149.944 223.151 154.279 225.86 158.765 228.304C159.831 228.891 161.029 229.198 162.246 229.198C163.463 229.198 164.66 228.891 165.727 228.304C178.077 221.407 221.522 196.463 248.153 171.633C249.324 170.523 250.113 169.07 250.405 167.483C250.696 165.896 250.476 164.258 249.776 162.804C249.24 161.636 248.575 160.256 247.845 158.747L243.95 157.725L244.94 152.856C241.694 146.364 237.377 138.25 232.33 129.503L226.358 123.644C226.358 123.644 229.1 124.082 228.257 122.638C226.455 119.668 224.573 116.666 222.625 113.696L218.47 112.073C220.791 111.521 220.191 110.109 219.883 109.59C217.432 105.971 214.884 102.384 212.271 98.9275C211.497 98.2727 210.558 97.8431 209.556 97.6857C208.554 97.5282 207.529 97.6491 206.591 98.035C209.009 96.5257 209.269 95.4383 209.058 94.7892C204.917 89.5284 200.422 84.5562 195.604 79.9073C195.015 79.3567 194.275 78.995 193.478 78.8687L197.276 96.055L197.844 98.5867L198.298 102.043L201.3 112.105L202.096 114.799L204.075 118.775L206.802 126.89L207.857 129.99V132.375L214.965 145.456L196.448 187.05L176.973 209.219H174.993L162.238 201.737L152.679 204.042L140.426 211.215L126.794 205.097L129.812 196.463L171.099 177.345L177.038 146.511L103.797 159.688L94.2549 172.931C105.733 185.7 118.051 197.687 131.127 208.813Z" fill="#2D4E09"/>
</g>
<path style="mix-blend-mode:multiply" opacity="0.14" d="M228.351 122.638C228.221 122.411 228.075 122.183 227.929 121.956C227.605 123.758 220.772 121.421 220.772 121.421L206.897 126.825L166.227 102.481C166.227 102.481 162.316 102.741 160.953 102.968C159.54 102.919 158.153 102.576 156.879 101.962C157.188 103.585 160.482 104.007 160.482 104.007L163.728 107.09L149.674 105.954L150.729 120.853L165.562 108.113L177.182 112.462L208.017 129.876L226.517 123.595C226.517 123.595 229.195 124.082 228.351 122.638Z" fill="url(#paint8_linear_860_991)"/>
<path style="mix-blend-mode:multiply" opacity="0.14" d="M178.288 114.994C178.288 114.994 176.454 113.111 173.711 116.925C170.969 120.739 165.191 132.018 165.191 132.018C165.191 132.018 180.722 141.447 181.939 141.528C183.157 141.609 185.185 139.37 185.185 139.37L186.808 158.146L187.425 159.364L203.118 164.232L216.815 142.599L206.315 165.222L203.069 164.232L187.684 188.576L179.002 179.423C179.002 179.423 165.873 190.929 166.116 192.568C167.08 195.099 168.281 197.533 169.703 199.838L162.4 195.716C161.475 196.025 162.4 195.408 161.475 196.025C160.55 196.641 145.635 210.631 145.635 210.631L144.418 214.444C144.017 215.426 143.929 216.507 144.164 217.541C144.399 218.574 144.947 219.51 145.733 220.222C149.895 223.183 154.23 225.893 158.716 228.336C159.782 228.923 160.98 229.231 162.197 229.231C163.414 229.231 164.612 228.923 165.678 228.336C178.028 221.439 221.473 196.495 248.104 171.665C249.276 170.556 250.064 169.102 250.356 167.516C250.648 165.929 250.427 164.29 249.727 162.837C249.192 161.668 248.526 160.289 247.796 158.779L243.901 157.757L244.891 152.888C241.645 146.397 237.328 138.282 232.281 129.535L226.309 123.676L207.808 132.343L178.288 114.994Z" fill="url(#paint9_linear_860_991)"/>
<path style="mix-blend-mode:multiply" opacity="0.14" d="M202.193 114.767L218.568 112.041C220.889 111.489 220.288 110.077 219.98 109.558C217.529 105.939 214.982 102.352 212.369 98.8954C211.595 98.2405 210.655 97.8109 209.654 97.6535C208.652 97.4961 207.626 97.6169 206.689 98.0028L198.396 102.011L202.193 114.767Z" fill="url(#paint10_linear_860_991)"/>
<path style="mix-blend-mode:multiply" opacity="0.14" d="M207.938 132.294L189.178 121.356L185.137 139.37L186.808 158.147L187.425 159.364L199.142 162.999L207.938 132.294Z" fill="url(#paint11_linear_860_991)"/>
<path style="mix-blend-mode:multiply" opacity="0.14" d="M224.814 127.734L229.163 131.32L229.537 165.661L247.518 161.863L230.445 181.046L187.731 188.495L179.049 179.342L169.879 187.846L179.957 217.69L169.75 199.839L162.447 195.717L161.911 225.075L145.195 219.638C145.369 219.857 145.565 220.058 145.78 220.238C149.942 223.199 154.277 225.909 158.763 228.353C159.829 228.94 161.027 229.247 162.244 229.247C163.461 229.247 164.658 228.94 165.725 228.353C178.075 221.456 221.52 196.512 248.151 171.682C249.322 170.572 250.111 169.119 250.403 167.532C250.694 165.945 250.474 164.307 249.774 162.853C249.238 161.685 248.573 160.305 247.843 158.796L243.948 157.773L244.938 152.905C241.692 146.413 237.375 138.299 232.328 129.551L226.356 123.693L207.855 132.359L224.814 127.734Z" fill="url(#paint12_linear_860_991)"/>
<path style="mix-blend-mode:multiply" opacity="0.14" d="M129.812 196.463L150.114 189.047L171.211 177.346L177.151 146.511L120.788 157.546L117.688 196.869L119.117 198.216L121.064 192.52L129.812 196.463Z" fill="url(#paint13_linear_860_991)"/>
<path style="mix-blend-mode:multiply" opacity="0.14" d="M207.951 129.925L226.452 123.644C226.452 123.644 229.195 124.082 228.351 122.638C226.55 119.668 224.667 116.666 222.72 113.696L218.565 112.073L204.17 118.775L207.951 129.925Z" fill="url(#paint14_linear_860_991)"/>
<path style="mix-blend-mode:multiply" opacity="0.14" d="M197.371 95.99L197.939 98.5217L206.687 97.9699C209.105 96.4606 209.364 95.3733 209.153 94.7241L197.371 95.99Z" fill="url(#paint15_linear_860_991)"/>
<g style="mix-blend-mode:multiply" opacity="0.24">
<path d="M126.794 205.097L135.087 199.027L171.099 177.346L177.038 146.511L102.743 161.117L94.2549 172.899C104.467 184.254 115.332 195.005 126.794 205.097Z" fill="#2D4E09"/>
</g>
<path style="mix-blend-mode:multiply" opacity="0.14" d="M219.978 109.558C219.864 111.797 201.396 112.073 201.396 112.073L175.625 94.2212L197.939 98.4732L206.687 97.9214C209.105 96.4121 209.364 95.3248 209.153 94.6757C205.012 89.4148 200.517 84.4427 195.7 79.7938C195.11 79.2432 194.37 78.8815 193.574 78.7551L197.371 95.9415L170.756 90.9592L171.73 93.9129L202.191 114.686L218.566 111.959C220.887 111.489 220.286 110.077 219.978 109.558Z" fill="url(#paint16_linear_860_991)"/>
<path style="mix-blend-mode:multiply" opacity="0.14" d="M186.808 158.147L176.162 151.168L171.115 177.346L135.087 199.027L162.433 195.668L166.149 192.503L169.882 187.878L175.87 178.563L187.425 159.364L186.808 158.147Z" fill="url(#paint17_linear_860_991)"/>
<path style="mix-blend-mode:multiply" opacity="0.14" d="M166.146 192.503L171.113 177.346L175.868 178.563L169.879 187.878L166.146 192.503Z" fill="url(#paint18_linear_860_991)"/>
<path style="mix-blend-mode:multiply" opacity="0.14" d="M166.146 102.53L171.729 93.9937L185.134 103.13L172.735 106.457L166.146 102.53Z" fill="url(#paint19_linear_860_991)"/>
<path style="mix-blend-mode:multiply" opacity="0.24" d="M228.351 122.638C228.221 122.411 228.075 122.183 227.929 121.956C227.605 123.758 220.772 121.421 220.772 121.421L206.897 126.825L166.227 102.481C166.227 102.481 162.316 102.741 160.953 102.968C159.54 102.919 158.153 102.576 156.879 101.962C157.188 103.585 160.482 104.007 160.482 104.007L163.728 107.09L149.674 105.954L150.729 120.853L165.562 108.113L177.182 112.462L208.017 129.876L226.517 123.595C226.517 123.595 229.195 124.082 228.351 122.638Z" fill="url(#paint20_linear_860_991)"/>
<path style="mix-blend-mode:multiply" opacity="0.24" d="M219.978 109.558C219.864 111.797 201.396 112.073 201.396 112.073L175.625 94.2212L197.939 98.4732L206.687 97.9214C209.105 96.4121 209.364 95.3248 209.153 94.6757C205.012 89.4148 200.517 84.4427 195.7 79.7938C195.11 79.2432 194.37 78.8815 193.574 78.7551L197.371 95.9415L170.756 90.9592L171.73 93.9129L202.191 114.686L218.566 111.959C220.887 111.489 220.286 110.077 219.978 109.558Z" fill="url(#paint21_linear_860_991)"/>
<path style="mix-blend-mode:color-dodge" opacity="0.32" d="M170.756 91.1218C170.756 91.1218 195.553 95.2764 195.781 94.0755C196.008 92.8745 193.574 78.9177 193.574 78.9177L197.371 96.1041L170.756 91.1218Z" fill="url(#paint22_linear_860_991)"/>
<path style="mix-blend-mode:color-dodge" opacity="0.32" d="M197.938 98.5544L179.81 95.9902C179.81 95.9902 199.074 109.736 199.528 109.201C199.983 108.665 197.906 101.979 197.906 101.979L198.052 99.3009C198.052 99.3009 198.636 101.541 199.285 101.232L206.702 97.9864C206.702 97.9864 198.587 101.898 199.172 103.618C199.756 105.338 200.421 111.505 205.371 112.024H201.411L175.64 94.1726L197.938 98.5544Z" fill="url(#paint23_linear_860_991)"/>
<path style="mix-blend-mode:color-dodge" opacity="0.32" d="M171.729 93.9937L167.218 102.449C167.218 102.449 171.924 105.37 173.969 105.484C176.014 105.597 185.134 103.131 185.134 103.131C185.134 103.131 174.391 106.279 175.04 107.253C175.689 108.226 204.917 125.234 205.372 125.104C205.826 124.975 203.83 118.824 202.58 118.256C202.786 117.074 202.651 115.858 202.191 114.75L204.528 117.996L214.541 113.874C214.541 113.874 204.69 118.629 205.21 120.56C205.729 122.492 206.702 125.526 207.725 125.786C208.747 126.046 220.529 121.469 220.529 121.469L206.897 126.776L166.228 102.481L163.858 102.66C163.858 102.66 166.309 102.481 171.729 93.9937Z" fill="url(#paint24_linear_860_991)"/>
<path style="mix-blend-mode:color-dodge" opacity="0.32" d="M149.693 107.48C149.693 107.48 150.634 118.743 151.316 118.597C151.997 118.45 165.435 108.161 165.435 108.161L177.054 112.511L207.889 129.924L217.984 126.5C217.984 126.5 208.246 130.46 208.246 131.369C208.246 132.277 217.594 127.782 217.594 127.782L211.963 130.752L224.086 127.782C224.086 127.782 208.652 132.505 209.204 133.803C209.756 135.101 211.736 139.548 211.736 139.548C211.736 139.548 208.392 133.722 207.824 134.679C207.256 135.637 199.418 162.268 199.418 162.268L200.781 164.248L197.243 175.122C197.243 175.122 189.81 186.709 190.038 186.952C192.162 187.065 194.291 187.065 196.415 186.952L187.603 188.575L178.84 180.948C178.84 180.948 170.238 187.537 170.611 188.575C170.985 189.614 173.857 199.936 173.857 199.936C173.857 199.936 170.401 190.085 169.297 190.02C168.193 189.955 166.051 192.584 166.051 192.584C166.051 192.584 163.146 196.203 164.006 196.674C164.006 196.674 161.54 195.765 154.529 202.289C154.529 202.289 158.911 198.102 158.375 197.566C157.839 197.031 135.557 199.627 135.557 199.627L126.988 205.161C126.988 205.161 134.762 199.319 135.557 197.258L171.098 177.345L137.618 198.232C137.618 198.232 160.176 195.732 162.14 194.986C164.104 194.239 171.017 178.01 171.017 178.01L167.544 189.955L175.886 178.595L172.04 185.346C172.04 185.346 178.061 180.85 179.732 176.809C179.732 176.809 185.591 187.099 187.847 187.017C190.102 186.936 198.59 166.91 198.59 166.91C198.59 166.91 190.476 159.169 188.301 160.305C186.126 161.441 177.136 176.534 177.136 176.534C177.136 176.534 185.85 160.954 184.795 158.682C183.741 156.41 176.129 151.346 176.129 151.346C176.129 151.346 185.51 157.075 185.948 155.485C186.386 153.894 185.234 141.009 185.234 141.009C185.234 141.009 186.857 158.081 189.68 159.217C192.504 160.353 197.373 161.928 198.59 161.343C199.807 160.759 207.191 132.992 205.974 131.855C204.757 130.719 190.135 122.735 189.599 123.352C189.064 123.968 185.964 135.767 185.964 135.767C185.964 135.767 189.21 122.556 186.629 121.08C184.049 119.603 177.363 115.578 176.129 116.211C174.896 116.844 168.096 126.695 168.096 126.695C168.096 126.695 174.442 114.653 173.533 113.127C172.624 111.602 166.441 109.168 165.305 109.476C164.169 109.784 150.699 121.956 150.699 121.956L148.313 119.911C149.581 115.897 150.05 111.674 149.693 107.48Z" fill="url(#paint25_linear_860_991)"/>
<g style="mix-blend-mode:multiply" opacity="0.24">
<path d="M157.252 215.094L162.169 210.144L170.203 217.674L162.429 212.124L157.252 215.094Z" fill="#2D4E09"/>
</g>
<g style="mix-blend-mode:multiply" opacity="0.24">
<path d="M168.762 168.176H172.884L177.071 172.347L172.657 169.377L168.762 168.176Z" fill="#2D4E09"/>
</g>
<g style="mix-blend-mode:multiply" opacity="0.24">
<path d="M190.75 86.7401L194.759 84.1921L197.095 85.9935L194.921 84.8088L190.75 86.7401Z" fill="#2D4E09"/>
</g>
<g style="mix-blend-mode:multiply" opacity="0.24">
<path d="M187.941 89.4337L195.326 86.7397L198.912 89.4337L195.504 87.6161L187.941 89.4337Z" fill="#2D4E09"/>
</g>
<g style="mix-blend-mode:multiply" opacity="0.24">
<path d="M185.897 193.006L188.705 195.895V201.153L187.423 197.356L185.897 193.006Z" fill="#2D4E09"/>
</g>
<g style="mix-blend-mode:multiply" opacity="0.24">
<path d="M188.106 191.708L190.995 193.542L191.385 206.493L189.746 194.727L188.106 191.708Z" fill="#2D4E09"/>
</g>
<path d="M120.884 232.166L126.272 214.104C126.33 213.908 126.439 213.732 126.588 213.593C126.738 213.455 126.922 213.359 127.121 213.316C127.32 213.273 127.527 213.284 127.72 213.348C127.913 213.413 128.086 213.528 128.219 213.682L144.773 232.88C144.881 232.986 144.967 233.112 145.025 233.252C145.084 233.391 145.114 233.541 145.114 233.692C145.114 233.843 145.084 233.993 145.025 234.132C144.967 234.271 144.881 234.398 144.773 234.503L143.669 235.542C143.495 235.714 143.376 235.934 143.329 236.175L140.602 251.901C140.563 252.111 140.466 252.306 140.322 252.464C140.178 252.622 139.993 252.737 139.787 252.796C139.582 252.854 139.364 252.855 139.158 252.797C138.953 252.74 138.767 252.626 138.622 252.469L121.209 233.319C121.057 233.173 120.947 232.989 120.89 232.786C120.833 232.584 120.831 232.37 120.884 232.166Z" fill="url(#paint26_linear_860_991)"/>
<g style="mix-blend-mode:multiply" opacity="0.47">
<path d="M140.521 251.787L143.248 236.061C143.295 235.821 143.414 235.6 143.589 235.428L144.692 234.39C144.8 234.284 144.886 234.157 144.944 234.018C145.003 233.879 145.033 233.729 145.033 233.578C145.033 233.427 145.003 233.277 144.944 233.138C144.886 232.999 144.8 232.872 144.692 232.767L128.139 213.568L128.836 232.929L137.665 251.43L138.46 252.306C138.596 252.488 138.783 252.625 138.997 252.701C139.212 252.777 139.443 252.788 139.664 252.732C139.884 252.677 140.083 252.557 140.235 252.389C140.388 252.221 140.487 252.011 140.521 251.787Z" fill="#2D4E09"/>
</g>
<path style="mix-blend-mode:multiply" opacity="0.24" d="M144.693 234.455C144.801 234.349 144.887 234.223 144.945 234.083C145.004 233.944 145.034 233.794 145.034 233.643C145.034 233.492 145.004 233.343 144.945 233.203C144.887 233.064 144.801 232.938 144.693 232.832L143.07 230.982L142.437 230.868L128.805 232.994L143.135 236.078C143.182 235.837 143.301 235.617 143.476 235.445L144.693 234.455Z" fill="url(#paint27_linear_860_991)"/>
<path style="mix-blend-mode:color-dodge" opacity="0.32" d="M128.221 215.143L127.945 233.53L137.407 250.814C137.407 250.814 130.039 235.072 130.915 234.585C131.791 234.098 139.435 235.348 139.435 235.348C139.435 235.348 126.76 233.579 138.754 231.55C138.754 231.55 130.461 232.767 129.876 231.55C129.292 230.333 128.221 215.143 128.221 215.143Z" fill="url(#paint28_linear_860_991)"/>
<path style="mix-blend-mode:color-dodge" opacity="0.68" d="M120.867 232.167L127.391 219.995L126.271 214.104L120.867 232.167Z" fill="url(#paint29_linear_860_991)"/>
<path d="M144.985 257.921L147.777 242.309C147.808 242.124 147.892 241.953 148.019 241.814C148.145 241.676 148.309 241.577 148.491 241.53L153.359 240.183C153.523 240.138 153.695 240.136 153.859 240.176C154.024 240.216 154.175 240.298 154.299 240.414C154.422 240.53 154.514 240.675 154.566 240.836C154.617 240.998 154.627 241.169 154.593 241.335L150.292 262.611C150.253 262.791 150.165 262.956 150.039 263.09C149.912 263.223 149.752 263.319 149.574 263.368C149.397 263.416 149.21 263.415 149.033 263.365C148.856 263.315 148.697 263.217 148.572 263.082L145.57 259.723C145.337 259.489 145.163 259.205 145.062 258.892C144.96 258.579 144.934 258.246 144.985 257.921Z" fill="url(#paint30_linear_860_991)"/>
<g style="mix-blend-mode:multiply" opacity="0.47">
<path d="M148.506 263.147C148.631 263.282 148.791 263.38 148.968 263.43C149.145 263.48 149.332 263.481 149.509 263.433C149.686 263.384 149.847 263.288 149.973 263.155C150.1 263.021 150.187 262.856 150.227 262.676L154.527 241.4C154.562 241.251 154.56 241.096 154.522 240.948C154.485 240.799 154.412 240.662 154.31 240.547C154.208 240.433 154.081 240.345 153.938 240.29C153.795 240.235 153.641 240.215 153.489 240.232L149.48 244.922L145.423 259.674V259.788L148.506 263.147Z" fill="#2D4E09"/>
</g>
<path style="mix-blend-mode:multiply" opacity="0.24" d="M150.227 262.612L153.748 245.247L149.48 244.858L147.598 262.061L148.506 263.083C148.631 263.218 148.791 263.315 148.968 263.366C149.145 263.416 149.332 263.417 149.509 263.369C149.686 263.32 149.847 263.224 149.974 263.091C150.1 262.957 150.188 262.792 150.227 262.612Z" fill="url(#paint31_linear_860_991)"/>
<path style="mix-blend-mode:color-dodge" opacity="0.32" d="M146.267 256.542L148.977 244.273L153.245 240.427C153.245 240.427 150.486 244.355 152.937 245.117C152.937 245.117 149.691 243.494 148.571 253.475C148.539 253.524 149.431 243.348 146.267 256.542Z" fill="url(#paint32_linear_860_991)"/>
<path style="mix-blend-mode:color-dodge" opacity="0.68" d="M148.476 241.531L148.962 244.273L153.49 240.167L148.476 241.531Z" fill="url(#paint33_linear_860_991)"/>
<path d="M242.505 199.189L237.637 189.452C237.258 188.747 236.685 188.164 235.987 187.773C235.288 187.382 234.492 187.199 233.693 187.245C235.17 186.823 235.803 183.106 235.803 183.106L236.095 172.525C236.106 172.082 235.969 171.648 235.705 171.292L213.975 142.713C213.741 142.402 213.419 142.17 213.05 142.047L208.295 140.424C208.05 140.341 207.791 140.307 207.533 140.325C207.274 140.343 207.022 140.412 206.791 140.528C206.56 140.645 206.354 140.806 206.186 141.003C206.018 141.199 205.891 141.428 205.812 141.674L195.052 175.56C194.959 175.848 194.935 176.154 194.983 176.453C195.031 176.752 195.149 177.036 195.328 177.28L216.263 206.281C216.361 206.409 216.437 206.551 216.49 206.703L218.389 211.442C218.389 211.442 220.402 212.61 222.446 208.391C222.917 207.06 223.323 206.216 223.323 206.216C223.084 206.961 222.791 207.688 222.446 208.391C221.473 211.215 220.272 216.327 222.17 220.985L222.69 222.283C222.69 222.283 222.69 222.396 222.69 222.461L228.484 243.121C228.613 243.589 228.913 243.991 229.325 244.249C229.736 244.508 230.229 244.603 230.707 244.516L239.422 242.894C239.863 242.823 240.265 242.601 240.561 242.267C240.857 241.932 241.028 241.506 241.045 241.06L242.765 200.082C242.75 199.768 242.661 199.462 242.505 199.189Z" fill="url(#paint34_linear_860_991)"/>
<g style="mix-blend-mode:multiply" opacity="0.47">
<path d="M230.754 244.549L239.469 242.926C239.909 242.855 240.312 242.634 240.608 242.299C240.904 241.965 241.075 241.539 241.091 241.092L242.812 200.115C242.825 199.777 242.752 199.442 242.601 199.141L237.732 189.403C237.353 188.698 236.781 188.116 236.082 187.725C235.384 187.334 234.588 187.15 233.789 187.196C235.265 186.774 235.898 183.058 235.898 183.058L236.19 172.477C236.201 172.034 236.064 171.6 235.801 171.243L214.07 142.664C213.837 142.354 213.514 142.122 213.145 141.999L208.39 140.376C208.145 140.293 207.886 140.259 207.628 140.277C207.37 140.294 207.118 140.364 206.887 140.48C206.655 140.596 206.45 140.757 206.282 140.954C206.114 141.151 205.986 141.379 205.907 141.626V141.739L213.551 178.66L227.962 190.361L217.949 202.176L217.673 209.316L218.517 211.394C218.517 211.394 220.529 212.562 222.574 208.343C223.045 207.012 223.451 206.168 223.451 206.168C223.211 206.913 222.918 207.64 222.574 208.343C222.025 209.921 221.644 211.553 221.438 213.211L228.287 197.502L235.282 190.166L240.28 200.277L227.93 240.411L228.676 243.056C228.784 243.514 229.054 243.917 229.436 244.192C229.817 244.466 230.286 244.593 230.754 244.549Z" fill="#2D4E09"/>
</g>
<path style="mix-blend-mode:multiply" opacity="0.14" d="M213.032 142.08L210.225 141.122L214.185 174.943L215.807 145.098L214.022 142.745C213.771 142.423 213.425 142.19 213.032 142.08Z" fill="url(#paint35_linear_860_991)"/>
<path style="mix-blend-mode:multiply" opacity="0.14" d="M216.848 181.533L233.677 187.278C235.154 186.856 235.787 183.139 235.787 183.139L236.079 172.558C236.09 172.115 235.953 171.681 235.69 171.325L213.407 178.758L216.848 181.533Z" fill="url(#paint36_linear_860_991)"/>
<path style="mix-blend-mode:multiply" opacity="0.14" d="M227.784 240.508L228.531 243.153C228.66 243.621 228.96 244.024 229.372 244.282C229.783 244.54 230.276 244.636 230.754 244.549L239.469 242.926C239.91 242.855 240.312 242.634 240.608 242.299C240.904 241.965 241.075 241.538 241.092 241.092L242.812 200.114C242.829 199.947 242.829 199.779 242.812 199.611L240.215 200.325L227.784 240.508Z" fill="url(#paint37_linear_860_991)"/>
<path style="mix-blend-mode:multiply" opacity="0.14" d="M217.803 202.257L217.527 209.398L218.371 211.475C218.371 211.475 220.384 212.643 222.428 208.424C222.899 207.093 223.305 206.249 223.305 206.249C223.066 206.994 222.773 207.721 222.428 208.424C221.879 210.002 221.498 211.634 221.293 213.292L228.141 197.583L235.136 190.247L238.284 190.799L237.619 189.468C237.193 188.61 236.465 187.939 235.574 187.586L227.898 190.442L217.803 202.257Z" fill="url(#paint38_linear_860_991)"/>
<path style="mix-blend-mode:color-dodge" opacity="0.32" d="M196.04 176.712L211.766 177.426L205.859 142.307L213.389 174.278L210.484 143.297C210.484 143.297 213.876 176.323 216.488 176.583C219.101 176.842 233.74 171.974 233.74 171.974C233.74 171.974 215.888 177.93 216.894 180.088C217.9 182.246 227.816 190.377 227.816 190.377C227.816 190.377 212.155 177.865 196.04 176.712Z" fill="url(#paint39_linear_860_991)"/>
<path style="mix-blend-mode:color-dodge" opacity="0.32" d="M242.73 199.66C239.663 200.358 235.135 190.264 235.135 190.264C235.135 190.264 238.089 198.037 238.511 199.449C238.771 200.293 235.005 199.449 232.019 198.654C234.551 199.498 237.488 200.78 238.056 202.322C238.365 203.182 230.396 232.329 230.396 232.329C233.925 221.228 238.042 210.323 242.73 199.66Z" fill="url(#paint40_linear_860_991)"/>
<path style="mix-blend-mode:color-dodge" opacity="0.32" d="M235.136 190.264L228.142 197.599L221.293 213.309C221.293 213.309 229.407 199.222 231.939 198.703C232.301 195.671 233.398 192.774 235.136 190.264Z" fill="url(#paint41_linear_860_991)"/>
<path d="M174.343 130.282L165.742 113.583C165.605 113.311 165.415 113.07 165.184 112.872C164.953 112.674 164.685 112.524 164.395 112.43L137.634 103.602C137.305 103.489 136.955 103.456 136.611 103.504L109.428 106.75C109.105 106.785 108.793 106.889 108.513 107.054C108.233 107.219 107.992 107.442 107.805 107.708L105.955 110.256L108.162 112.301L104.916 111.684L93.2803 127.799C93.0971 128.045 92.9653 128.326 92.8928 128.624C92.8203 128.923 92.8086 129.233 92.8584 129.536L93.5074 133.788C93.5834 134.264 93.8044 134.706 94.1403 135.053L101.882 153.668C102.417 154.22 106.75 153.23 107.464 153.1L172.575 147.615C174.181 147.42 174.343 130.282 174.343 130.282Z" fill="url(#paint42_linear_860_991)"/>
<g style="mix-blend-mode:multiply" opacity="0.64">
<path d="M174.344 130.282L165.743 113.583C165.605 113.311 165.416 113.07 165.185 112.872C164.953 112.674 164.685 112.524 164.396 112.43L139.355 104.105L156.833 113.501L155.113 123.872L148.946 123.028C148.946 123.028 124.002 124.829 119.815 126.858C118.715 127.467 117.478 127.787 116.221 127.787C114.963 127.787 113.726 127.467 112.626 126.858L95.6504 124.553L92.9563 128.546C92.883 128.872 92.883 129.21 92.9563 129.536L104.787 136.985L112.593 130.98L122.331 130.169L133.983 134.583L151.64 127.296L159.397 137.845L172.608 147.582C174.182 147.42 174.344 130.282 174.344 130.282Z" fill="#2D4E09"/>
</g>
<g style="mix-blend-mode:multiply" opacity="0.47">
<path d="M107.968 125.64L115.369 120.869L124.619 122.135L145.587 118.126L153.912 130.46L149.757 144.482C149.757 144.482 147.988 149.464 147.112 149.756C146.236 150.048 101.915 153.732 101.915 153.732L93.4921 133.527L92.8916 129.6V129.162C92.8916 128.237 96.0398 123.757 96.9649 123.644L107.968 125.64Z" fill="#2D4E09"/>
</g>
<path style="mix-blend-mode:multiply" opacity="0.14" d="M93.1992 128.075L107.156 122.995L115.157 118.126L110.807 113.566L108.211 112.365L106.588 113.339L98.8956 123.433L95.4226 125.056L93.3777 127.912L93.1992 128.075Z" fill="url(#paint43_linear_860_991)"/>
<path style="mix-blend-mode:multiply" opacity="0.14" d="M151.623 127.361L162.415 137.812L172.591 147.679C174.214 147.42 174.343 130.282 174.343 130.282L173.548 128.659L156.037 126.354L151.623 127.361Z" fill="url(#paint44_linear_860_991)"/>
<path style="mix-blend-mode:multiply" opacity="0.14" d="M155.566 125.641L164.849 112.658L164.411 112.463L137.649 103.634C137.321 103.522 136.971 103.489 136.627 103.537V123.093L155.566 125.641Z" fill="url(#paint45_linear_860_991)"/>
<g style="mix-blend-mode:color-dodge" opacity="0.68">
<path d="M107.804 107.772L105.954 110.32L108.161 112.365L104.915 111.748L102.173 115.546L106.49 113.339H109.963C109.963 113.339 105.695 107.383 134.825 103.715L109.427 106.815C109.104 106.85 108.792 106.954 108.512 107.119C108.233 107.284 107.991 107.507 107.804 107.772Z" fill="#405A3F"/>
</g>
<path style="mix-blend-mode:color-dodge" opacity="0.32" d="M135.117 104.104C136.74 104.104 136.611 112.657 136.611 112.657C136.773 109.671 137.503 104.835 137.698 103.553C137.355 103.429 136.988 103.39 136.627 103.439L130.281 104.202C132.57 104.185 134.549 104.104 135.117 104.104Z" fill="url(#paint46_linear_860_991)"/>
<path style="mix-blend-mode:color-dodge" opacity="0.32" d="M156.376 113.842C156.798 114.183 155.338 122.638 154.543 123.044C152.948 123.149 151.346 123.023 149.787 122.671L123.091 121.762L115.139 120.269L110.173 123.661L108.388 123.044L115.139 118.175C113.03 119.515 110.828 120.703 108.55 121.73C106.577 121.129 104.694 120.267 102.951 119.165C102.643 118.792 106.521 113.388 106.521 113.388C102.318 119.182 99.7539 119.003 99.7539 119.003L107.966 125.689L115.366 120.918L124.616 122.184L122.848 123.044C122.848 123.044 143.767 123.823 149.463 124.18C155.159 124.537 156.1 126.355 156.1 126.355L164.848 112.674C164.848 112.674 156.49 123.58 156.035 123.58C155.581 123.58 156.409 118.938 156.798 116.195C157.188 113.453 158.697 113.615 158.697 113.615C156.782 113.242 146.736 107.578 142.549 105.192L139.304 104.105C143.669 106.588 156.019 113.518 156.376 113.842Z" fill="url(#paint47_linear_860_991)"/>
<path d="M95.6504 124.617C95.6504 124.617 95.2446 127.36 102.645 134.647C104.933 136.886 111.165 130.59 111.165 130.59C111.49 130.444 100.422 112.738 95.6504 124.617Z" fill="#549100"/>
<path d="M123.92 129.438C123.92 129.438 131.58 133.754 135.28 131.937C138.98 130.119 140.895 125.007 143.946 119.862C147.646 113.631 136.286 118.126 136.286 118.126L123.92 129.438Z" fill="#549100"/>
<path style="mix-blend-mode:screen" d="M147.534 120.95C149.4 126.192 144.288 132.829 135.93 135.799C127.572 138.769 119.409 136.903 117.543 131.661C115.677 126.419 120.789 119.781 129.147 116.828C137.505 113.874 145.668 115.708 147.534 120.95Z" fill="url(#paint48_radial_860_991)"/>
<path style="mix-blend-mode:screen" d="M118.645 131.775C117.671 137.26 109.865 140.457 101.199 138.932C92.5323 137.406 86.3003 131.71 87.274 126.241C88.2478 120.772 96.0539 117.558 104.72 119.084C113.386 120.609 119.602 126.306 118.645 131.775Z" fill="url(#paint49_radial_860_991)"/>
<g style="mix-blend-mode:multiply" opacity="0.68">
<path d="M99.5605 139.808L101.183 153.246L148.247 149.789L152.71 134.761L143.2 134.031L135.507 139.338C135.145 139.58 134.718 139.709 134.282 139.709C133.846 139.709 133.42 139.58 133.057 139.338L126.744 135.199L108.681 136.579L105.241 140.879C104.909 141.292 104.44 141.573 103.919 141.672C103.399 141.77 102.86 141.679 102.401 141.415L99.5605 139.808Z" fill="#2D4E09"/>
</g>
<g style="mix-blend-mode:multiply" opacity="0.82">
<path d="M105.564 153.733C105.564 153.733 129.388 132.992 151.638 144.19C173.888 155.388 105.564 153.733 105.564 153.733Z" fill="#2D4E09"/>
</g>
<path d="M88.768 148.782L92.9874 145.861C93.5079 145.503 94.1245 145.311 94.7563 145.309H95.3568C96.1078 145.31 96.8335 145.581 97.4016 146.072L102.936 150.941C103.305 151.266 103.746 151.498 104.224 151.616C104.701 151.735 105.2 151.737 105.678 151.622L128.22 146.38C128.705 146.259 129.212 146.259 129.697 146.38L137.357 148.344C138.129 148.552 138.951 148.447 139.645 148.052L157.156 138.315C157.834 137.924 158.638 137.813 159.396 138.006L169.409 140.376C169.657 140.431 169.898 140.518 170.123 140.635L178.238 144.822C178.963 145.203 179.51 145.854 179.759 146.635C180.008 147.415 179.94 148.263 179.568 148.993L164.476 178.514C164.111 179.22 163.489 179.76 162.739 180.023L129.892 191.626C129.477 191.778 129.035 191.837 128.595 191.801C128.155 191.764 127.728 191.633 127.344 191.416L92.9387 172.217C92.5534 172 92.2184 171.705 91.9555 171.35C91.6926 170.994 91.5078 170.587 91.4133 170.156L87.567 152.077C87.4135 151.471 87.446 150.832 87.6601 150.245C87.8743 149.657 88.2603 149.147 88.768 148.782Z" fill="url(#paint50_linear_860_991)"/>
<path style="mix-blend-mode:multiply" opacity="0.14" d="M92.5811 171.909C92.6703 171.99 92.7684 172.061 92.8733 172.12L127.278 191.319C127.972 191.699 128.786 191.797 129.55 191.594C122.572 189.874 97.5472 166.131 97.5472 166.131C95.5572 167.742 93.8747 169.699 92.5811 171.909Z" fill="url(#paint51_linear_860_991)"/>
<g style="mix-blend-mode:multiply" opacity="0.14">
<path d="M178.172 144.677L170.058 140.49C169.832 140.372 169.592 140.285 169.344 140.23L159.33 137.861C158.572 137.668 157.768 137.779 157.091 138.169L155.468 139.046C158.551 139.046 160.742 149.919 160.742 149.919L158.438 153.165L163.972 178.904C164.098 178.754 164.207 178.591 164.296 178.417L179.389 148.896C179.784 148.175 179.878 147.326 179.65 146.536C179.422 145.745 178.891 145.077 178.172 144.677Z" fill="#2D4E09"/>
</g>
<g style="mix-blend-mode:color-dodge" opacity="0.68">
<path d="M94.8205 145.31C94.1887 145.311 93.5721 145.503 93.0516 145.861L88.8322 148.783C88.3219 149.136 87.9287 149.634 87.7032 150.212C87.4776 150.79 87.43 151.423 87.5663 152.028L90.7146 166.797C89.9518 160.613 89.4163 149.675 94.8205 145.31Z" fill="#405A3F"/>
</g>
<path style="mix-blend-mode:multiply" opacity="0.14" d="M178.171 144.677L170.057 140.49C169.831 140.372 169.591 140.285 169.343 140.23L159.33 137.861C158.571 137.668 157.768 137.779 157.09 138.169L155.467 139.046C158.551 139.046 160.742 149.919 160.742 149.919L158.437 153.165C158.437 153.165 135.587 161.036 134.451 161.279C133.315 161.522 119.52 156.67 116.599 156.07L103.746 162.204L107.219 151.233L105.596 151.59C105.118 151.705 104.619 151.703 104.141 151.584C103.664 151.466 103.222 151.234 102.853 150.909L97.3193 146.04C97.0751 145.833 96.8016 145.664 96.5078 145.537L97.4653 166.099L118.563 160.24L119.033 163.291L161.569 180.234L162.559 179.894C163.309 179.63 163.931 179.09 164.296 178.384L179.389 148.864C179.774 148.146 179.862 147.305 179.634 146.522C179.407 145.739 178.882 145.077 178.171 144.677Z" fill="url(#paint52_linear_860_991)"/>
<path style="mix-blend-mode:multiply" opacity="0.14" d="M134.876 161.165L146.414 157.319L139.647 148.02C138.952 148.414 138.13 148.519 137.359 148.312L129.699 146.348C129.564 146.333 129.428 146.333 129.293 146.348L134.47 161.068L134.876 161.165Z" fill="url(#paint53_linear_860_991)"/>
<g style="mix-blend-mode:multiply" opacity="0.14">
<path d="M119.132 163.324L118.678 160.273L97.5479 166.132L113.339 180.267L110.06 167.673L119.132 163.324Z" fill="#2D4E09"/>
</g>
<path style="mix-blend-mode:multiply" opacity="0.14" d="M103.781 162.187L107.254 151.216L105.631 151.573C105.153 151.688 104.654 151.686 104.177 151.567C103.699 151.449 103.257 151.217 102.888 150.892L97.3544 146.023C97.1102 145.816 96.8368 145.647 96.543 145.52L97.5004 166.082L103.781 162.187Z" fill="url(#paint54_linear_860_991)"/>
<g style="mix-blend-mode:multiply" opacity="0.14">
<path d="M138.461 165.986L118.678 160.273L97.5479 166.132L113.339 180.267L110.06 167.673L119.132 163.324L138.461 171.016L154.316 162.529L138.461 165.986Z" fill="#2D4E09"/>
</g>
<path style="mix-blend-mode:color-dodge" opacity="0.32" d="M96.5895 145.569C96.5895 145.569 97.5795 164.135 96.5895 165.985C95.5996 167.835 93.1328 169.832 92.5811 171.909C92.5811 171.909 95.8267 166.927 97.7742 167.478C99.7217 168.03 113.338 180.267 113.338 180.267C113.338 180.267 99.1861 167.608 99.4133 166.748C99.6405 165.888 118.304 160.776 118.304 160.776C118.304 160.776 118.304 163.746 110.06 167.673L107.252 166.748C107.252 166.748 109.914 167.138 112.932 178.693C112.932 178.693 109.93 168.322 112.364 167.089C114.798 165.856 118.985 163.73 121.582 164.768C124.179 165.807 149.95 175.593 149.95 175.593L139.937 170.984L154.332 162.529L138.833 170.27C138.833 170.27 120.203 164.46 119.44 162.918C118.677 161.376 119.602 161.165 119.602 161.165L138.46 166.034L118.531 159.543C118.531 159.543 100.858 165.661 101.004 164.833C101.15 164.005 116.632 156.118 116.632 156.118L134.484 161.977L146.834 157.384C146.834 157.384 157.643 153.814 158.405 154.966C159.168 156.118 162.674 172.412 162.674 172.412C162.674 172.412 158.568 155.583 160.921 151.314C162.182 149.109 163.231 146.789 164.053 144.385C164.053 144.385 161.684 151.314 160.32 147.127C159.806 145.309 159.121 143.543 158.275 141.853C158.275 141.853 162.073 150.162 158.275 153.359C154.478 156.556 144.708 155.112 140.294 148.945C140.294 148.945 144.984 156.053 144.026 157.449C143.069 158.845 135.815 161.409 135.052 160.403C134.289 159.396 131.076 151.314 131.076 151.314C131.076 151.314 134.971 161.052 132.228 160.403C129.486 159.753 112.997 153.911 112.997 153.911L116.113 155.777C116.113 155.777 104.201 163.243 104.233 161.944C104.809 159.335 105.535 156.761 106.408 154.236C106.408 154.236 102.205 163.583 99.4458 164.947C97.8879 165.499 96.5895 145.569 96.5895 145.569Z" fill="url(#paint55_linear_860_991)"/>
<path style="mix-blend-mode:multiply" opacity="0.24" d="M127.846 191.562L128.252 191.643H128.414C128.598 191.659 128.783 191.659 128.966 191.643C129.164 191.629 129.359 191.596 129.55 191.545H129.826L152.741 183.431L161.683 180.266L162.674 179.925C163.424 179.662 164.045 179.122 164.41 178.416L179.503 148.896C179.874 148.165 179.942 147.318 179.693 146.537C179.444 145.757 178.898 145.106 178.172 144.725L170.058 140.538C169.832 140.421 169.592 140.333 169.344 140.278L160.434 162.187L144.708 176.793L113.273 180.218L95.8105 173.726L127.213 191.253C127.414 191.377 127.626 191.48 127.846 191.562Z" fill="url(#paint56_linear_860_991)"/>
<path d="M91.5767 124.634L97.9222 125.219C98.3106 125.25 98.6872 125.366 99.0257 125.559L107.984 130.59C108.576 130.923 109.271 131.021 109.932 130.866L113.843 129.974C114.359 129.857 114.83 129.595 115.202 129.218C115.573 128.841 115.828 128.365 115.936 127.848L116.293 126.111C116.388 125.607 116.343 125.086 116.163 124.605C115.983 124.124 115.674 123.702 115.271 123.385L105.793 116.13C105.404 115.831 105.102 115.433 104.917 114.978L104.316 113.485C104.042 112.808 103.511 112.267 102.838 111.981C102.166 111.695 101.408 111.687 100.73 111.96L91.3332 115.79C90.9028 115.975 90.5275 116.267 90.2432 116.64C89.959 117.012 89.7754 117.452 89.7103 117.916L89.1586 121.47C89.1015 121.837 89.1195 122.213 89.2113 122.573C89.3031 122.934 89.4668 123.272 89.6927 123.568C89.9186 123.863 90.2019 124.11 90.5257 124.294C90.8495 124.477 91.2069 124.593 91.5767 124.634Z" fill="url(#paint57_linear_860_991)"/>
<g style="mix-blend-mode:multiply" opacity="0.47">
<path d="M89.1078 121.47C89.0385 121.847 89.0488 122.235 89.1379 122.608C89.2269 122.981 89.3927 123.332 89.6248 123.637C89.857 123.942 90.1503 124.196 90.486 124.382C90.8217 124.567 91.1925 124.681 91.5746 124.715L97.9201 125.3C98.3085 125.331 98.6851 125.447 99.0236 125.641L107.982 130.671C108.574 131.004 109.269 131.102 109.93 130.947L113.841 130.055C114.357 129.938 114.828 129.676 115.2 129.299C115.571 128.922 115.826 128.447 115.934 127.929L116.291 126.192C116.386 125.688 116.341 125.167 116.161 124.686C115.981 124.205 115.672 123.783 115.269 123.466C115.593 126.338 107.592 125.77 107.592 125.77L101.247 120.626C97.9093 120.265 94.5937 119.723 91.3149 119.003C90.9711 118.791 90.6734 118.512 90.4392 118.184C90.2051 117.855 90.0393 117.482 89.9517 117.088C89.7987 117.366 89.6945 117.668 89.6434 117.98L89.1078 121.47Z" fill="#2D4E09"/>
</g>
<g style="mix-blend-mode:color-dodge" opacity="0.68">
<path d="M100.728 111.96L91.3319 115.79C90.7484 116.03 90.2667 116.466 89.9688 117.023C89.9688 117.023 99.3003 113.079 104.575 114.118L104.315 113.485C104.041 112.808 103.51 112.267 102.837 111.981C102.165 111.695 101.406 111.687 100.728 111.96Z" fill="#405A3F"/>
</g>
<path style="mix-blend-mode:multiply" opacity="0.14" d="M95.2275 119.717C98.0351 120.155 101.248 120.545 101.248 120.545L105.517 115.854C105.259 115.606 105.055 115.308 104.916 114.978L104.575 114.118L95.2275 119.717Z" fill="url(#paint58_linear_860_991)"/>
<path style="mix-blend-mode:multiply" opacity="0.14" d="M107.254 130.168L107.984 130.59C108.576 130.923 109.271 131.021 109.932 130.866L113.843 129.973C114.359 129.857 114.831 129.595 115.202 129.218C115.573 128.841 115.828 128.365 115.936 127.847L116.293 126.111C114.93 127.214 107.595 125.689 107.595 125.689L107.254 130.168Z" fill="url(#paint59_linear_860_991)"/>
<path style="mix-blend-mode:multiply" opacity="0.14" d="M91.5765 124.634L97.9221 125.218C98.2853 125.251 98.6383 125.356 98.9608 125.526L101.249 120.544C101.249 120.544 98.0032 120.155 95.228 119.717C91.4467 123.774 90.3594 124.115 90.3594 124.147C90.7198 124.405 91.1374 124.572 91.5765 124.634Z" fill="url(#paint60_linear_860_991)"/>
<path style="mix-blend-mode:color-dodge" opacity="0.32" d="M89.9531 117.088C90.3935 117.777 91.0123 118.334 91.7438 118.7C92.4753 119.066 93.2923 119.226 94.1078 119.165C97.0128 119.019 104.559 114.183 104.559 114.183C104.559 114.183 96.4447 119.344 96.7206 119.701C98.2271 120.139 99.8109 120.244 101.362 120.009C102.836 118.745 104.219 117.378 105.5 115.919C105.5 115.919 101.541 120.382 101.914 120.918C103.742 122.635 105.756 124.143 107.918 125.413C108.6 125.511 114.296 125.916 115.254 123.45C115.254 123.45 117.396 126.014 108.389 125.933L112.544 126.501C112.544 126.501 108.243 126.127 107.789 127.604C107.511 128.458 107.326 129.34 107.237 130.233C107.237 130.233 107.902 126.663 106.166 125.365C104.429 124.066 100.973 121.892 100.973 121.892L98.944 125.559C98.944 125.559 100.745 121.421 99.7229 120.934C98.2358 120.384 96.6369 120.206 95.0653 120.415C93.8249 121.274 92.6627 122.24 91.5923 123.303C91.5923 123.303 94.5947 120.399 93.8968 119.749C93.4619 119.851 93.0107 119.861 92.5715 119.78C92.1323 119.699 91.7146 119.528 91.3444 119.279C90.9743 119.029 90.6597 118.705 90.4203 118.328C90.1809 117.951 90.0219 117.529 89.9531 117.088Z" fill="url(#paint61_linear_860_991)"/>
<path d="M118.971 126.451L119.961 128.302C120.219 128.791 120.619 129.191 121.108 129.448C121.598 129.706 122.154 129.81 122.703 129.746L126.176 129.356C126.565 129.306 126.94 129.179 127.28 128.983L141.448 120.512C141.724 120.348 142.025 120.233 142.34 120.171L146.414 119.392C146.77 119.322 147.109 119.183 147.411 118.981C147.713 118.78 147.972 118.522 148.174 118.22C148.376 117.919 148.517 117.58 148.588 117.224C148.659 116.868 148.659 116.502 148.588 116.146L148.28 114.523C148.178 113.997 147.924 113.511 147.549 113.128C147.174 112.744 146.694 112.479 146.17 112.365L133.82 109.671C133.415 109.574 132.992 109.574 132.587 109.671L126.647 111.099C126.263 111.191 125.903 111.364 125.592 111.608C125.281 111.852 125.026 112.16 124.845 112.511L118.954 123.871C118.751 124.271 118.646 124.714 118.648 125.163C118.651 125.612 118.762 126.054 118.971 126.451Z" fill="url(#paint62_linear_860_991)"/>
<g style="mix-blend-mode:multiply" opacity="0.47">
<path d="M118.971 126.451L119.961 128.301C120.22 128.791 120.62 129.19 121.109 129.448C121.599 129.706 122.155 129.81 122.704 129.746L126.177 129.356C126.566 129.306 126.941 129.179 127.281 128.983L141.448 120.511C141.724 120.348 142.026 120.233 142.341 120.171L146.414 119.392C146.771 119.322 147.109 119.182 147.412 118.981C147.714 118.78 147.973 118.522 148.175 118.22C148.377 117.919 148.518 117.58 148.589 117.224C148.66 116.868 148.66 116.502 148.589 116.146L148.281 114.523C148.179 113.996 147.924 113.511 147.549 113.127C147.174 112.744 146.695 112.479 146.171 112.365L145.636 112.251C146.95 114.783 138.852 114.345 138.852 114.345C138.852 114.345 125.09 123.806 122.785 124.406C121.475 124.647 120.128 124.592 118.842 124.244C118.708 124.601 118.65 124.981 118.673 125.361C118.695 125.742 118.797 126.113 118.971 126.451Z" fill="#2D4E09"/>
</g>
<path style="mix-blend-mode:multiply" opacity="0.14" d="M123.156 124.261C125.58 123.019 127.927 121.632 130.183 120.106C130.183 120.106 132.147 115.027 133.527 112.268C134.5 110.337 135.344 110.061 135.782 110.077L133.819 109.655C133.413 109.558 132.991 109.558 132.585 109.655C134.419 110.596 123.156 124.261 123.156 124.261Z" fill="url(#paint63_linear_860_991)"/>
<path style="mix-blend-mode:multiply" opacity="0.14" d="M137.113 123.093L130.183 120.106C127.927 121.632 125.58 123.019 123.156 124.261L126.921 129.13L127.278 128.967L137.113 123.093Z" fill="url(#paint64_linear_860_991)"/>
<path style="mix-blend-mode:multiply" opacity="0.14" d="M139.078 121.956L141.448 120.545C141.724 120.381 142.026 120.266 142.34 120.204L143.963 119.895L138.916 114.361L139.078 121.956Z" fill="url(#paint65_linear_860_991)"/>
<path style="mix-blend-mode:multiply" opacity="0.14" d="M147.729 118.71C148.082 118.393 148.346 117.991 148.497 117.541C148.648 117.092 148.68 116.611 148.589 116.146L148.281 114.523C148.179 113.996 147.925 113.511 147.55 113.127C147.175 112.744 146.695 112.479 146.171 112.365L145.636 112.251C147.226 113.436 147.632 117.087 147.729 118.71Z" fill="url(#paint66_linear_860_991)"/>
<path style="mix-blend-mode:color-dodge" opacity="0.32" d="M118.839 124.228C119.621 124.451 120.447 124.474 121.241 124.295C122.035 124.117 122.771 123.742 123.383 123.205C126.284 120.003 128.993 116.632 131.497 113.111L126.093 122.134C127.534 121.465 128.843 120.542 129.956 119.408C131.245 117.275 132.379 115.051 133.347 112.754L131.075 119.246L138.898 114.377C138.898 114.377 146.752 114.62 145.519 112.316C145.519 112.316 149.446 114.556 139.417 114.62L143.474 119.392L139.173 115.172V121.972L138.362 115.367C138.362 115.367 131.221 119.586 131.87 120.236C133.581 121.351 135.397 122.296 137.291 123.059C137.291 123.059 130.946 120.268 129.777 120.804C128.609 121.339 124.162 123.676 124.681 125.153C125.336 126.559 126.147 127.888 127.099 129.113C127.099 129.113 123.854 124.163 122.231 124.488C120.608 124.812 120.218 125.007 118.839 124.228Z" fill="url(#paint67_linear_860_991)"/>
<path d="M68.4978 23.2361L81.4809 23.9015C82.039 23.9281 82.5787 24.1091 83.04 24.4242C83.5013 24.7394 83.8661 25.1765 84.0938 25.6867L97.937 56.7487C98.166 57.2534 98.2508 57.8117 98.1821 58.3617C98.1133 58.9116 97.8938 59.4318 97.5475 59.8647L84.1587 76.7427C83.9458 77.0017 83.6938 77.2262 83.4121 77.4081L79.7281 79.7612C79.3795 79.9832 79.0802 80.2745 78.8487 80.6169C78.6172 80.9593 78.4586 81.3456 78.3825 81.7518C78.3065 82.158 78.3146 82.5755 78.4065 82.9785C78.4984 83.3815 78.672 83.7612 78.9166 84.0943L84.532 91.7544C84.803 92.129 84.9847 92.5606 85.0635 93.0163C85.1422 93.4719 85.1158 93.9396 84.9862 94.3835L83.6718 98.96C83.4951 99.548 83.1443 100.069 82.6656 100.453L72.9283 108.389C72.6604 108.617 72.352 108.793 72.0194 108.908L64.4731 111.537C63.8786 111.746 63.3637 112.135 63.0002 112.65C62.6367 113.165 62.4426 113.78 62.4445 114.41V122.735C62.4424 123.421 62.6773 124.086 63.1097 124.618L63.9212 125.624C64.2847 126.074 64.5128 126.618 64.5789 127.193C64.645 127.767 64.5463 128.349 64.2944 128.87L50.3376 158.715C50.1865 159.028 49.9835 159.313 49.7372 159.559L40.7303 168.663C40.1849 169.207 39.4549 169.525 38.6854 169.556L34.0278 169.718C33.3811 169.74 32.7442 169.556 32.2099 169.191C31.6757 168.826 31.2719 168.3 31.0577 167.689L18.8051 132.489C18.7663 132.361 18.7173 132.236 18.6589 132.116L7.42862 109.931C7.13596 109.344 7.0392 108.678 7.15266 108.032L13.6442 71.4683C13.7335 71.062 13.7335 70.6412 13.6442 70.2349L11.3884 60.8708C11.2831 60.4171 11.2831 59.9452 11.3884 59.4914L12.6705 53.8437C12.8279 53.2029 13.1932 52.6322 13.7092 52.2209L28.7046 40.033C29.0974 39.715 29.4039 39.3036 29.5963 38.8364C29.7887 38.3692 29.8608 37.8611 29.8059 37.3588C29.751 36.8565 29.5709 36.3761 29.2821 35.9614C28.9933 35.5468 28.6051 35.2114 28.1529 34.9858L14.8776 28.2995C14.2121 27.9632 13.6946 27.3924 13.4249 26.6972C13.1552 26.002 13.1524 25.2316 13.417 24.5344L21.2556 3.72902C21.4089 3.31171 21.6529 2.93364 21.97 2.62212C22.2872 2.31059 22.6695 2.07338 23.0895 1.92761L28.1692 0.158664C28.8011 -0.0528881 29.4846 -0.0528881 30.1165 0.158664L61.4383 10.6912C61.9039 10.8447 62.3247 11.1098 62.6642 11.4634C63.0037 11.817 63.2514 12.2484 63.3857 12.7198L65.82 21.175C66.0099 21.7465 66.3663 22.2481 66.8435 22.6154C67.3206 22.9827 67.8968 23.1988 68.4978 23.2361Z" fill="url(#paint68_linear_860_991)"/>
<path style="mix-blend-mode:multiply" opacity="0.14" d="M7.44624 109.866L18.6765 132.05C18.7349 132.171 18.7839 132.296 18.8227 132.424L31.0754 167.624C31.2895 168.235 31.6933 168.761 32.2276 169.126C32.7618 169.491 33.3988 169.675 34.0454 169.653L38.7031 169.49C39.4725 169.46 40.2025 169.141 40.7479 168.598L49.7548 159.493C50.0011 159.248 50.2041 158.963 50.3553 158.649L64.312 128.805L50.1443 139.921L45.1134 138.85L61.6667 124.634L62.6406 123.757C62.5238 123.429 62.4634 123.083 62.4621 122.735V114.41C62.4649 113.961 62.5644 113.518 62.7541 113.111L54.4612 115.594L50.7285 111.018L70.2031 102.189L52.8708 107.058L51.0369 105.159L44.5129 79.761L59.1189 72.6852L63.0139 73.3019L81.3038 87.5184L72.816 78.349L81.3201 73.4804L93.4267 52.3829L87.1299 58.2415L70.2681 58.4525L54.9157 37.3549L56.3763 26.6926L58.3724 25.7026L72.7999 23.5929L68.3693 23.3657C67.74 23.3364 67.1357 23.111 66.641 22.721C66.1462 22.331 65.7859 21.796 65.6104 21.191L64.8965 18.6917L64.5393 18.4808L46.996 18.0913L27.8458 3.32301L22.1008 2.43042C21.6852 2.76245 21.3659 3.19946 21.1758 3.69628L13.3373 24.5017C13.0727 25.1988 13.0756 25.9692 13.3453 26.6644C13.6149 27.3596 14.1323 27.9304 14.7978 28.2668L28.0731 34.9531C28.5252 35.1786 28.9134 35.5141 29.2023 35.9287C29.4911 36.3433 29.6713 36.8238 29.7263 37.3261C29.7812 37.8284 29.7091 38.3364 29.5167 38.8036C29.3242 39.2709 29.0175 39.6823 28.6248 40.0002L25.866 42.2398L35.0678 45.0961L38.0863 61.325L27.0506 76.4503L15.301 65.155L12.6719 53.7948L11.3897 59.4424C11.2844 59.8962 11.2844 60.3681 11.3897 60.8219L13.6456 70.1859L25.7362 83.0067L7.18652 109.379C7.31635 109.541 7.3651 109.703 7.44624 109.866Z" fill="url(#paint69_linear_860_991)"/>
<path style="mix-blend-mode:multiply" opacity="0.14" d="M40.0326 169.117C40.2932 168.977 40.5335 168.802 40.7468 168.598L49.7537 159.493L50.1432 139.921L45.1123 138.85L54.4114 115.594L50.6788 111.018L70.1535 102.189L52.821 107.058L50.7924 108.243L46.5729 108.015L35.9916 80.8482L38.9777 76.4339L57.4624 68.4818L62.3311 69.4393L72.9123 78.3489L81.4162 73.4803L93.5229 52.3827L87.2261 58.2414L86.1551 60.6757L64.9114 64.4895L55.872 56.375L50.6139 36.9004L56.4725 26.5951L58.4686 25.6051L72.8961 23.4954L68.4656 23.2682C68.0223 23.2453 67.5894 23.126 67.1969 22.9186C66.8045 22.7112 66.4621 22.4206 66.1935 22.0672L47.3843 21.6615L40.2436 30.3602L37.3873 31.3501L20.0225 21.9699L21.1422 3.64746L13.3037 24.4529C13.0391 25.15 13.042 25.9204 13.3116 26.6156C13.5813 27.3108 14.0988 27.8816 14.7644 28.218L28.0395 34.9043C28.4916 35.1298 28.8798 35.4653 29.1687 35.8799C29.4575 36.2945 29.6377 36.775 29.6927 37.2773C29.7476 37.7796 29.6755 38.2876 29.4831 38.7548C29.2906 39.2221 28.9839 39.6335 28.5912 39.9514L38.9452 43.9762L42.0937 63.7592L27.017 76.3365L15.2998 65.1549L13.677 70.1371L25.7674 82.9579L28.5751 86.6256L37.3711 134.03L25.8486 96.0871L7.34766 109.346L14.7156 123.952L18.7728 131.953C18.8313 132.073 18.88 132.198 18.9188 132.326L33.5248 146.608L40.0326 169.117Z" fill="url(#paint70_linear_860_991)"/>
<g style="mix-blend-mode:multiply" opacity="0.47">
<path d="M65.6249 24.5341L59.0035 25.5079L56.488 26.5465L50.6456 36.8681L55.8876 56.294L64.3915 63.9378L72.9279 78.3815L62.3629 69.4719L62.3467 66.5507L55.0761 59.4911L41.4439 59.5236L39.7885 40.6818L28.0713 34.8719L39.464 38.1177L44.1054 32.4214L48.9578 16.7605L48.7793 32.0643L54.784 24.1933L65.6249 24.5341Z" fill="#2D4E09"/>
</g>
<g style="mix-blend-mode:multiply" opacity="0.24">
<path d="M70.201 102.19L50.6614 111.018L32.4202 107.951L28.4766 86.6589L36.5423 104.316L46.6367 108.049L50.8562 108.26L70.201 102.19Z" fill="#2D4E09"/>
</g>
<g style="mix-blend-mode:multiply" opacity="0.24">
<path d="M86.1716 60.6111L68.5957 63.7757L78.4304 65.1876L75.1846 75.493L86.1716 60.6111Z" fill="#2D4E09"/>
</g>
<path style="mix-blend-mode:color-dodge" opacity="0.32" d="M27.8457 3.2417C27.8457 3.2417 45.1457 17.5393 45.2917 19.1784C45.4378 20.8176 39.6441 30.5386 39.6441 30.5386C39.6441 30.5386 45.2755 23.2681 47.0769 22.8299C48.8783 22.3918 66.227 22.0347 66.227 22.0347C66.227 22.0347 48.2617 20.8176 48.0345 20.1846C47.8073 19.5517 65.0261 18.5618 65.0261 18.5618C65.0261 18.5618 46.5738 17.6042 45.2917 15.9327C44.0097 14.2611 27.8457 3.2417 27.8457 3.2417Z" fill="url(#paint71_linear_860_991)"/>
<path style="mix-blend-mode:color-dodge" opacity="0.32" d="M56.5047 26.563C56.3261 30.1311 56.3261 33.7059 56.5047 37.274C56.8618 38.2802 70.3641 56.1482 71.2242 57.2518C72.0843 58.3553 87.3558 57.0083 87.9725 56.3592C88.5892 55.71 93.5389 52.3182 93.5389 52.3182L87.2421 58.1768L70.3803 58.3878L64.9274 64.4249C64.9274 64.4249 68.6276 58.7286 68.4004 57.6737C68.1732 56.6188 54.7033 38.6048 54.7033 38.6048L50.6299 36.8683C50.6299 36.8683 54.3138 37.0468 54.4761 36.2841L54.6221 35.5213L56.5047 26.563Z" fill="url(#paint72_linear_860_991)"/>
<path style="mix-blend-mode:color-dodge" opacity="0.32" d="M45.1464 79.5178C45.1464 79.5178 60.6935 74.3733 61.4888 75.0549C62.284 75.7365 65.6597 83.7373 65.6597 83.7373C65.6597 83.7373 62.5762 74.2434 64.0368 75.2821C65.4974 76.3207 81.4503 87.5511 81.4503 87.5511C81.4503 87.5511 62.7222 73.6917 62.5437 71.0139C62.5437 71.0139 60.2878 73.7728 58.2755 69.1151L57.5452 68.5146L39.0605 76.4668C39.0605 76.4668 57.042 69.5371 58.032 70.738C59.022 71.9389 60.58 73.2048 59.0707 74.0974C57.5614 74.99 45.1464 79.5178 45.1464 79.5178Z" fill="url(#paint73_linear_860_991)"/>
<g style="mix-blend-mode:multiply" opacity="0.47">
<path d="M18.8199 132.424L31.0725 167.624C31.2867 168.235 31.6904 168.761 32.2247 169.126C32.759 169.491 33.3959 169.675 34.0425 169.653L38.7002 169.49C39.4697 169.46 40.1997 169.142 40.7451 168.598L49.752 159.493C49.9983 159.248 50.2013 158.963 50.3524 158.65L64.3092 128.805C64.5611 128.284 64.6598 127.702 64.5937 127.128C64.5276 126.553 64.2995 126.009 63.936 125.559L63.1245 124.553C62.6921 124.021 62.4572 123.356 62.4593 122.67V114.345C62.4574 113.715 62.6515 113.099 63.015 112.585C63.3785 112.07 63.8934 111.681 64.4879 111.472L72.0342 108.843C72.3668 108.728 72.6752 108.552 72.9431 108.324L82.6804 100.388C83.1591 100.004 83.5099 99.4829 83.6866 98.8949L85.001 94.3184C85.1306 93.8745 85.157 93.4069 85.0783 92.9512C84.9995 92.4956 84.8178 92.0639 84.5468 91.6893L78.9314 84.0293C78.6868 83.6962 78.5132 83.3164 78.4213 82.9134C78.3294 82.5105 78.3213 82.0929 78.3974 81.6867C78.4734 81.2805 78.632 80.8942 78.8635 80.5518C79.095 80.2094 79.3943 79.9181 79.7429 79.6962L83.4269 77.343C83.7086 77.1611 83.9604 76.9366 84.1733 76.6776L97.5621 59.7996L85.212 66.8591L81.2035 67.3298L72.9756 78.3167L80.1486 86.35L75.5234 97.9374L51.0016 105.192L42.595 97.7751L30.3261 80.7835L28.4272 86.6583L32.3709 107.951L30.0826 110.563L23.8183 106.376L24.2403 129.097L14.9736 124.764L18.6251 131.969C18.7046 132.114 18.7698 132.266 18.8199 132.424Z" fill="#2D4E09"/>
</g>
<path d="M248.314 230.95L243.137 254.547C243.107 254.706 243.125 254.87 243.188 255.019C243.251 255.168 243.357 255.296 243.492 255.386C243.626 255.476 243.785 255.524 243.947 255.525C244.108 255.526 244.267 255.479 244.403 255.39L262.384 242.959C262.532 242.847 262.645 242.695 262.709 242.521L268.665 222.624C268.719 222.46 268.719 222.282 268.663 222.118C268.608 221.954 268.5 221.813 268.357 221.716L265.289 219.59C265.153 219.495 264.992 219.445 264.827 219.445C264.661 219.445 264.5 219.495 264.364 219.59L248.655 230.463C248.482 230.575 248.36 230.75 248.314 230.95Z" fill="url(#paint74_linear_860_991)"/>
<g style="mix-blend-mode:multiply" opacity="0.47">
<path d="M262.808 222.933L265.762 219.914L268.358 221.715C268.502 221.813 268.609 221.954 268.665 222.118C268.721 222.282 268.721 222.46 268.667 222.624L262.711 242.521C262.646 242.695 262.534 242.847 262.386 242.959L244.405 255.39C244.272 255.484 244.113 255.535 243.95 255.536L257.956 237.912L262.808 222.933Z" fill="#2D4E09"/>
</g>
<path style="mix-blend-mode:multiply" opacity="0.14" d="M268.664 222.575L262.708 242.471C262.644 242.645 262.531 242.797 262.383 242.91L258.115 237.343L262.805 222.883L267.544 221.114L268.356 221.666C268.499 221.763 268.607 221.905 268.662 222.069C268.718 222.233 268.719 222.41 268.664 222.575Z" fill="url(#paint75_linear_860_991)"/>
<path style="mix-blend-mode:color-dodge" opacity="0.32" d="M250.146 236.126C250.146 236.126 256.07 236.97 257.758 235.169C259.446 233.367 262.805 222.932 262.805 222.932C262.805 222.932 258.245 237.181 262.383 242.959C262.383 242.959 258.586 239.112 250.861 246.837C250.861 246.918 259.981 237.441 250.146 236.126Z" fill="url(#paint76_linear_860_991)"/>
<path d="M271.343 217.317L267.724 238.009C267.731 238.073 267.731 238.139 267.724 238.203L259.236 257.532C259.161 257.694 259.142 257.876 259.181 258.05C259.22 258.224 259.315 258.38 259.451 258.495C259.588 258.609 259.759 258.676 259.937 258.683C260.115 258.691 260.291 258.64 260.437 258.538L289.195 239.68C289.291 239.616 289.374 239.533 289.438 239.437L302.016 219.638C302.075 219.519 302.107 219.389 302.107 219.256C302.107 219.124 302.075 218.993 302.016 218.875L298.64 211.069C298.59 210.961 298.518 210.864 298.429 210.786C298.339 210.708 298.234 210.649 298.121 210.614L288.237 207.839C288.029 207.785 287.808 207.814 287.621 207.92L271.749 216.749C271.644 216.809 271.554 216.891 271.484 216.989C271.414 217.087 271.366 217.199 271.343 217.317Z" fill="url(#paint77_linear_860_991)"/>
<g style="mix-blend-mode:multiply" opacity="0.47">
<path d="M288.238 207.839L298.122 210.615C298.235 210.649 298.34 210.708 298.43 210.786C298.519 210.865 298.591 210.961 298.641 211.069L302.017 218.875C302.076 218.993 302.108 219.124 302.108 219.256C302.108 219.389 302.076 219.52 302.017 219.638L289.439 239.437C289.375 239.533 289.292 239.616 289.196 239.68L263.57 256.477L281.584 231.16L268.796 237.376L281.633 227.428L286.128 208.781L287.751 207.921C287.902 207.845 288.072 207.816 288.238 207.839Z" fill="#2D4E09"/>
</g>
<path style="mix-blend-mode:multiply" opacity="0.14" d="M301.951 219.638L289.374 239.437L281.519 231.16L268.73 237.376L281.567 227.428L298.121 210.615L298.673 211.15L302.016 218.875C302.066 218.998 302.086 219.132 302.075 219.264C302.063 219.397 302.021 219.525 301.951 219.638Z" fill="url(#paint78_linear_860_991)"/>
<path style="mix-blend-mode:color-dodge" opacity="0.32" d="M269.867 236.483C269.867 236.483 278.695 232.896 278.582 234.162C278.468 235.428 268.747 249.125 268.747 249.125C268.747 249.125 279.523 233.967 281.081 233.773C282.639 233.578 289.374 239.437 289.374 239.437C289.374 239.437 282.493 231.971 282.038 229.699C281.584 227.427 291.954 216.878 291.954 216.878L283.239 223.727L285.544 210.906C285.544 210.906 281.925 224.912 280.156 227.395C278.387 229.878 269.867 236.483 269.867 236.483Z" fill="url(#paint79_linear_860_991)"/>
<path d="M226.762 243.073L227.573 226.746C227.591 226.322 227.685 225.904 227.849 225.513L243.672 187.878C243.987 187.129 244.542 186.505 245.25 186.106C245.958 185.706 246.779 185.553 247.583 185.671L248.654 185.833C249.252 185.913 249.86 185.845 250.426 185.636C250.992 185.426 251.498 185.082 251.9 184.632L258.749 176.859C259.188 176.359 259.482 175.748 259.599 175.093C259.716 174.438 259.652 173.764 259.414 173.142L255.779 163.6C255.52 162.921 255.469 162.181 255.633 161.474L260.372 140.912C260.549 140.162 260.958 139.488 261.541 138.984C262.124 138.48 262.85 138.172 263.617 138.104L268.664 137.617C269.27 137.553 269.852 137.342 270.358 137.003C270.864 136.664 271.28 136.206 271.569 135.67L282.426 114.864C282.675 114.394 283.024 113.984 283.449 113.664L291.985 107.172C292.607 106.697 293.362 106.43 294.144 106.409L318.487 105.906C319.436 105.885 320.356 106.234 321.051 106.88L334.197 118.938C334.564 119.275 334.859 119.683 335.063 120.138C335.266 120.593 335.375 121.085 335.381 121.583V124.001C335.394 124.953 335.778 125.862 336.45 126.535C337.123 127.208 338.032 127.592 338.984 127.604C339.505 127.611 340.019 127.731 340.489 127.955C340.96 128.179 341.376 128.502 341.711 128.902L356.43 146.284C356.791 146.711 357.049 147.216 357.184 147.759C357.32 148.302 357.328 148.869 357.209 149.416L350.068 182.149C349.954 182.682 349.721 183.182 349.387 183.612C349.052 184.042 348.625 184.39 348.137 184.632L338.725 189.355C338.321 189.564 337.958 189.845 337.653 190.183L306.673 224.555C306.164 225.124 305.487 225.516 304.741 225.675L271.732 232.978L271.342 233.092L231.517 246.773C230.951 246.953 230.35 246.993 229.766 246.889C229.182 246.785 228.632 246.54 228.164 246.176C227.696 245.811 227.323 245.338 227.079 244.798C226.834 244.257 226.726 243.665 226.762 243.073Z" fill="url(#paint80_linear_860_991)"/>
<path style="mix-blend-mode:multiply" opacity="0.14" d="M310.324 138.607L322.301 153.116L352.438 150.113L322.625 159.364L306.397 185.622L308.912 188.576L323.615 182.506L330.74 168.046L344.973 165.596L334.44 170.545L326.537 188.965L337.702 190.117L306.721 224.49C306.212 225.058 305.536 225.45 304.79 225.61L271.78 232.913L271.391 233.026L231.565 246.707C230.999 246.909 230.391 246.967 229.797 246.877C229.203 246.787 228.64 246.552 228.158 246.192C227.677 245.833 227.291 245.36 227.036 244.816C226.781 244.271 226.665 243.672 226.697 243.072L226.94 237.992L228.693 238.755L276.389 217.317L248.963 210.533L251.884 184.567L258.732 176.793C259.171 176.293 259.465 175.683 259.583 175.028C259.7 174.373 259.636 173.698 259.398 173.077L256.915 166.585L277.769 184.746L290.379 174.424L291.726 162.869L268.616 137.552C269.222 137.488 269.803 137.277 270.309 136.938C270.815 136.598 271.231 136.141 271.521 135.605L282.378 114.799C282.627 114.329 282.976 113.919 283.4 113.598L291.937 107.107L307.419 134.176L331.568 123.628L334.164 118.873C334.532 119.209 334.826 119.618 335.03 120.073C335.234 120.528 335.342 121.019 335.349 121.518V123.936C335.361 124.888 335.745 125.797 336.418 126.47C337.091 127.143 338 127.526 338.952 127.539C339.523 127.573 340.079 127.74 340.575 128.026L334.959 127.734L310.324 138.607Z" fill="url(#paint81_linear_860_991)"/>
<path style="mix-blend-mode:multiply" opacity="0.14" d="M310.324 138.607L308.798 139.418L321.441 155.063L322.625 159.364L306.396 185.622L308.912 188.576L323.615 182.506L330.74 168.046L345.865 165.498L334.505 170.545L326.601 188.965L337.767 190.117L329.555 199.222L306.624 195.684L302.518 210.825L306.786 224.49C306.277 225.058 305.601 225.451 304.855 225.61L271.845 232.913L230.916 240.703L299.175 210.485L301.869 194.045L288.382 206.33L259.771 186.206L278.807 216.197C278.807 216.197 260.323 205.097 259.771 205.064C259.219 205.032 251.981 184.632 251.981 184.632L258.83 176.858C259.269 176.358 259.563 175.748 259.68 175.093C259.797 174.438 259.733 173.763 259.495 173.142L257.012 166.65L278.872 189.257L287.23 186.011L297.357 171.406L296.27 163.778L277.071 141.204L268.713 137.633C269.319 137.569 269.9 137.358 270.407 137.019C270.913 136.68 271.328 136.222 271.618 135.686L282.475 114.88L302.761 137.39L308.425 136.595L333.661 125.575L335.625 124.829C335.824 125.601 336.272 126.287 336.9 126.78C337.528 127.272 338.3 127.545 339.098 127.555C339.669 127.59 340.225 127.756 340.721 128.042L335.105 127.75L310.324 138.607Z" fill="url(#paint82_linear_860_991)"/>
<g style="mix-blend-mode:multiply" opacity="0.47">
<path d="M277.039 141.187L291.986 153.083L299.906 136.773L302.713 137.373L308.394 136.578L335.155 127.733L308.783 139.418L296.839 160.37L301.967 169.279L291.808 186.953L307.647 190.912L323.632 183.934V182.506L330.757 168.046L345.882 165.498L334.473 170.545L326.57 188.965L324.444 186.044L307.907 193.395L287.556 188.916L277.883 190.198L256.98 166.65L278.841 189.257L287.199 186.076L297.309 171.389L296.238 163.761L277.039 141.187Z" fill="#2D4E09"/>
</g>
<path style="mix-blend-mode:color-dodge" opacity="0.32" d="M331.633 123.579C331.633 123.579 309.172 133.138 308.149 132.554C307.127 131.97 293.933 110.434 293.933 110.434C293.933 110.434 306.202 133.804 305.667 134.469C305.131 135.134 284.082 116.617 284.082 116.617C284.082 116.617 299.142 133.95 298.688 135.41C298.234 136.871 292.018 153.019 292.018 153.019L299.938 136.709L302.761 137.309L308.425 136.514L331.633 123.579Z" fill="url(#paint83_linear_860_991)"/>
<path style="mix-blend-mode:color-dodge" opacity="0.32" d="M335.155 127.733C335.155 127.733 313.749 137.633 313.327 138.948C312.905 140.262 320.873 152.06 322.821 151.768C324.768 151.476 352.439 150.145 352.439 150.145C352.439 150.145 322.983 153.7 322.951 154.511C322.918 155.322 322.74 158.406 327.819 157.757C327.819 157.757 320.03 164.816 318.455 167.591C316.881 170.367 307.387 186.222 308.718 187.196C310.049 188.17 323.73 182.506 323.73 182.506L309.026 188.575L306.511 185.622L322.74 159.363L321.555 155.063L308.913 139.418L310.438 138.607L335.155 127.733Z" fill="url(#paint84_linear_860_991)"/>
<path style="mix-blend-mode:color-dodge" opacity="0.32" d="M268.68 137.617C268.68 137.617 289.988 161.96 290.735 163.794C291.481 165.628 290.037 172.801 289.112 173.24C288.187 173.678 276.437 171.065 276.437 171.065C276.437 171.065 287.911 174.619 287.197 175.463C286.483 176.307 277.768 184.811 277.768 184.811L290.378 174.489L297.259 171.389C297.259 171.389 291.465 172.801 291.546 171.503C291.627 170.205 295.652 163.129 295.652 163.129C295.652 163.129 286.677 159.964 268.68 137.617Z" fill="url(#paint85_linear_860_991)"/>
<path style="mix-blend-mode:color-dodge" opacity="0.32" d="M345.897 165.498C345.897 165.498 336.874 170.204 339.876 178.027C339.876 178.027 336.273 171.016 334.78 173.418C333.287 175.82 326.568 188.965 326.568 188.965L334.472 170.545L345.897 165.498Z" fill="url(#paint86_linear_860_991)"/>
<g style="mix-blend-mode:multiply" opacity="0.47">
<path d="M227.574 226.746L226.763 243.072C226.731 243.672 226.848 244.271 227.103 244.816C227.358 245.36 227.743 245.833 228.225 246.192C228.706 246.552 229.269 246.787 229.864 246.877C230.458 246.967 231.065 246.909 231.632 246.707L271.457 233.026L271.847 232.913L304.856 225.61C305.602 225.45 306.278 225.058 306.787 224.49L337.736 190.117C338.041 189.78 338.403 189.499 338.807 189.29L348.22 184.567C348.708 184.325 349.135 183.976 349.469 183.546C349.804 183.116 350.037 182.617 350.151 182.084L357.292 149.35C357.411 148.804 357.402 148.237 357.267 147.694C357.132 147.151 356.874 146.646 356.513 146.218L352.439 150.113L321.442 155.063L306.43 185.622L314.545 196.982L304.71 202.63L300.734 200.78L276.667 212.951L259.724 205.129L249.013 210.598L233.823 227.703L233.563 211.961L227.834 225.577C227.683 225.95 227.595 226.345 227.574 226.746Z" fill="#2D4E09"/>
</g>
<path style="mix-blend-mode:screen" d="M47.9999 104C74.5096 104 96 82.5097 96 56C96 29.4903 74.5096 8 47.9999 8C21.4902 8 0 29.4903 0 56C0 82.5097 21.4902 104 47.9999 104Z" fill="url(#paint87_radial_860_991)"/>
<defs>
<linearGradient id="paint0_linear_860_991" x1="92.3764" y1="134.166" x2="50.1318" y2="183.593" gradientUnits="userSpaceOnUse">
<stop stop-color="#7A8840"/>
<stop offset="0.08" stop-color="#708337"/>
<stop offset="0.22" stop-color="#667E2E"/>
<stop offset="0.39" stop-color="#637C2B"/>
<stop offset="1" stop-color="#2E9116"/>
</linearGradient>
<linearGradient id="paint1_linear_860_991" x1="82.2236" y1="125.487" x2="39.979" y2="174.915" gradientUnits="userSpaceOnUse">
<stop stop-color="#405A3F"/>
<stop offset="0.27" stop-color="#3D5836"/>
<stop offset="0.7" stop-color="#34531E"/>
<stop offset="1" stop-color="#2D4E09"/>
</linearGradient>
<linearGradient id="paint2_linear_860_991" x1="103.945" y1="144.068" x2="61.7158" y2="193.478" gradientUnits="userSpaceOnUse">
<stop stop-color="#405A3F"/>
<stop offset="0.27" stop-color="#3D5836"/>
<stop offset="0.7" stop-color="#34531E"/>
<stop offset="1" stop-color="#2D4E09"/>
</linearGradient>
<linearGradient id="paint3_linear_860_991" x1="85.8549" y1="128.62" x2="43.6252" y2="178.029" gradientUnits="userSpaceOnUse">
<stop stop-color="#405A3F"/>
<stop offset="0.27" stop-color="#3D5836"/>
<stop offset="0.7" stop-color="#34531E"/>
<stop offset="1" stop-color="#2D4E09"/>
</linearGradient>
<linearGradient id="paint4_linear_860_991" x1="92.0461" y1="133.883" x2="49.8015" y2="183.31" gradientUnits="userSpaceOnUse">
<stop stop-color="#405A3F"/>
<stop offset="0.27" stop-color="#3D5836"/>
<stop offset="0.7" stop-color="#34531E"/>
<stop offset="1" stop-color="#2D4E09"/>
</linearGradient>
<linearGradient id="paint5_linear_860_991" x1="107.695" y1="147.289" x2="65.4657" y2="196.699" gradientUnits="userSpaceOnUse">
<stop stop-color="#405A3F"/>
<stop offset="0.27" stop-color="#3D5836"/>
<stop offset="0.7" stop-color="#34531E"/>
<stop offset="1" stop-color="#2D4E09"/>
</linearGradient>
<linearGradient id="paint6_linear_860_991" x1="64.9628" y1="148.506" x2="67.0658" y2="175.348" gradientUnits="userSpaceOnUse">
<stop stop-color="#899142"/>
<stop offset="0.17" stop-color="#858D40"/>
<stop offset="0.34" stop-color="#7A813B"/>
<stop offset="0.5" stop-color="#686E32"/>
<stop offset="0.66" stop-color="#4E5225"/>
<stop offset="0.83" stop-color="#2C2F15"/>
<stop offset="0.99" stop-color="#040402"/>
<stop offset="1"/>
</linearGradient>
<linearGradient id="paint7_linear_860_991" x1="135.361" y1="117.12" x2="219.021" y2="200.796" gradientUnits="userSpaceOnUse">
<stop stop-color="#7A8840"/>
<stop offset="0.08" stop-color="#708337"/>
<stop offset="0.22" stop-color="#667E2E"/>
<stop offset="0.39" stop-color="#637C2B"/>
<stop offset="1" stop-color="#2E9116"/>
</linearGradient>
<linearGradient id="paint8_linear_860_991" x1="159.898" y1="92.0625" x2="257.742" y2="189.906" gradientUnits="userSpaceOnUse">
<stop stop-color="#405A3F"/>
<stop offset="0.27" stop-color="#3D5836"/>
<stop offset="0.7" stop-color="#34531E"/>
<stop offset="1" stop-color="#2D4E09"/>
</linearGradient>
<linearGradient id="paint9_linear_860_991" x1="133.366" y1="119.116" x2="217.042" y2="202.792" gradientUnits="userSpaceOnUse">
<stop stop-color="#405A3F"/>
<stop offset="0.27" stop-color="#3D5836"/>
<stop offset="0.7" stop-color="#34531E"/>
<stop offset="1" stop-color="#2D4E09"/>
</linearGradient>
<linearGradient id="paint10_linear_860_991" x1="176.47" y1="76.0127" x2="260.146" y2="159.689" gradientUnits="userSpaceOnUse">
<stop stop-color="#405A3F"/>
<stop offset="0.27" stop-color="#3D5836"/>
<stop offset="0.7" stop-color="#34531E"/>
<stop offset="1" stop-color="#2D4E09"/>
</linearGradient>
<linearGradient id="paint11_linear_860_991" x1="152.16" y1="100.307" x2="235.836" y2="183.983" gradientUnits="userSpaceOnUse">
<stop stop-color="#405A3F"/>
<stop offset="0.27" stop-color="#3D5836"/>
<stop offset="0.7" stop-color="#34531E"/>
<stop offset="1" stop-color="#2D4E09"/>
</linearGradient>
<linearGradient id="paint12_linear_860_991" x1="133.364" y1="119.116" x2="217.04" y2="202.792" gradientUnits="userSpaceOnUse">
<stop stop-color="#405A3F"/>
<stop offset="0.27" stop-color="#3D5836"/>
<stop offset="0.7" stop-color="#34531E"/>
<stop offset="1" stop-color="#2D4E09"/>
</linearGradient>
<linearGradient id="paint13_linear_860_991" x1="114.102" y1="138.38" x2="197.778" y2="222.04" gradientUnits="userSpaceOnUse">
<stop stop-color="#405A3F"/>
<stop offset="0.27" stop-color="#3D5836"/>
<stop offset="0.7" stop-color="#34531E"/>
<stop offset="1" stop-color="#2D4E09"/>
</linearGradient>
<linearGradient id="paint14_linear_860_991" x1="172.994" y1="79.4852" x2="256.67" y2="163.145" gradientUnits="userSpaceOnUse">
<stop stop-color="#405A3F"/>
<stop offset="0.27" stop-color="#3D5836"/>
<stop offset="0.7" stop-color="#34531E"/>
<stop offset="1" stop-color="#2D4E09"/>
</linearGradient>
<linearGradient id="paint15_linear_860_991" x1="179.682" y1="72.799" x2="263.357" y2="156.459" gradientUnits="userSpaceOnUse">
<stop stop-color="#405A3F"/>
<stop offset="0.27" stop-color="#3D5836"/>
<stop offset="0.7" stop-color="#34531E"/>
<stop offset="1" stop-color="#2D4E09"/>
</linearGradient>
<linearGradient id="paint16_linear_860_991" x1="158.081" y1="61.2766" x2="336.16" y2="239.356" gradientUnits="userSpaceOnUse">
<stop stop-color="#405A3F"/>
<stop offset="0.27" stop-color="#3D5836"/>
<stop offset="0.7" stop-color="#34531E"/>
<stop offset="1" stop-color="#2D4E09"/>
</linearGradient>
<linearGradient id="paint17_linear_860_991" x1="135.087" y1="175.09" x2="187.425" y2="175.09" gradientUnits="userSpaceOnUse">
<stop stop-color="#405A3F"/>
<stop offset="0.27" stop-color="#3D5836"/>
<stop offset="0.7" stop-color="#34531E"/>
<stop offset="1" stop-color="#2D4E09"/>
</linearGradient>
<linearGradient id="paint18_linear_860_991" x1="166.146" y1="184.925" x2="175.868" y2="184.925" gradientUnits="userSpaceOnUse">
<stop stop-color="#405A3F"/>
<stop offset="0.27" stop-color="#3D5836"/>
<stop offset="0.7" stop-color="#34531E"/>
<stop offset="1" stop-color="#2D4E09"/>
</linearGradient>
<linearGradient id="paint19_linear_860_991" x1="166.146" y1="100.226" x2="185.134" y2="100.226" gradientUnits="userSpaceOnUse">
<stop stop-color="#405A3F"/>
<stop offset="0.27" stop-color="#3D5836"/>
<stop offset="0.7" stop-color="#34531E"/>
<stop offset="1" stop-color="#2D4E09"/>
</linearGradient>
<linearGradient id="paint20_linear_860_991" x1="149.56" y1="115.968" x2="228.514" y2="115.968" gradientUnits="userSpaceOnUse">
<stop stop-color="#2D4E09"/>
<stop offset="0.3" stop-color="#34531E"/>
<stop offset="0.73" stop-color="#3D5836"/>
<stop offset="1" stop-color="#405A3F"/>
</linearGradient>
<linearGradient id="paint21_linear_860_991" x1="170.756" y1="96.8016" x2="220.286" y2="96.8016" gradientUnits="userSpaceOnUse">
<stop stop-color="#2D4E09"/>
<stop offset="0.3" stop-color="#34531E"/>
<stop offset="0.73" stop-color="#3D5836"/>
<stop offset="1" stop-color="#405A3F"/>
</linearGradient>
<linearGradient id="paint22_linear_860_991" x1="170.756" y1="87.4379" x2="197.371" y2="87.4379" gradientUnits="userSpaceOnUse">
<stop stop-color="#899142"/>
<stop offset="0.17" stop-color="#858D40"/>
<stop offset="0.34" stop-color="#7A813B"/>
<stop offset="0.5" stop-color="#686E32"/>
<stop offset="0.66" stop-color="#4E5225"/>
<stop offset="0.83" stop-color="#2C2F15"/>
<stop offset="0.99" stop-color="#040402"/>
<stop offset="1"/>
</linearGradient>
<linearGradient id="paint23_linear_860_991" x1="175.623" y1="103.196" x2="206.685" y2="103.196" gradientUnits="userSpaceOnUse">
<stop stop-color="#899142"/>
<stop offset="0.17" stop-color="#858D40"/>
<stop offset="0.34" stop-color="#7A813B"/>
<stop offset="0.5" stop-color="#686E32"/>
<stop offset="0.66" stop-color="#4E5225"/>
<stop offset="0.83" stop-color="#2C2F15"/>
<stop offset="0.99" stop-color="#040402"/>
<stop offset="1"/>
</linearGradient>
<linearGradient id="paint24_linear_860_991" x1="163.793" y1="110.417" x2="220.529" y2="110.417" gradientUnits="userSpaceOnUse">
<stop stop-color="#899142"/>
<stop offset="0.17" stop-color="#858D40"/>
<stop offset="0.34" stop-color="#7A813B"/>
<stop offset="0.5" stop-color="#686E32"/>
<stop offset="0.66" stop-color="#4E5225"/>
<stop offset="0.83" stop-color="#2C2F15"/>
<stop offset="0.99" stop-color="#040402"/>
<stop offset="1"/>
</linearGradient>
<linearGradient id="paint25_linear_860_991" x1="127.102" y1="156.28" x2="224.216" y2="156.28" gradientUnits="userSpaceOnUse">
<stop stop-color="#899142"/>
<stop offset="0.17" stop-color="#858D40"/>
<stop offset="0.34" stop-color="#7A813B"/>
<stop offset="0.5" stop-color="#686E32"/>
<stop offset="0.66" stop-color="#4E5225"/>
<stop offset="0.83" stop-color="#2C2F15"/>
<stop offset="0.99" stop-color="#040402"/>
<stop offset="1"/>
</linearGradient>
<linearGradient id="paint26_linear_860_991" x1="120.251" y1="219.93" x2="146.493" y2="246.172" gradientUnits="userSpaceOnUse">
<stop stop-color="#7A8840"/>
<stop offset="0.08" stop-color="#708337"/>
<stop offset="0.22" stop-color="#667E2E"/>
<stop offset="0.39" stop-color="#637C2B"/>
<stop offset="1" stop-color="#2E9116"/>
</linearGradient>
<linearGradient id="paint27_linear_860_991" x1="122.102" y1="218.08" x2="148.344" y2="244.322" gradientUnits="userSpaceOnUse">
<stop stop-color="#405A3F"/>
<stop offset="0.47" stop-color="#2E3D2F"/>
<stop offset="1" stop-color="#1D201F"/>
</linearGradient>
<linearGradient id="paint28_linear_860_991" x1="127.945" y1="232.978" x2="139.452" y2="232.978" gradientUnits="userSpaceOnUse">
<stop stop-color="#899142"/>
<stop offset="0.17" stop-color="#858D40"/>
<stop offset="0.34" stop-color="#7A813B"/>
<stop offset="0.5" stop-color="#686E32"/>
<stop offset="0.66" stop-color="#4E5225"/>
<stop offset="0.83" stop-color="#2C2F15"/>
<stop offset="0.99" stop-color="#040402"/>
<stop offset="1"/>
</linearGradient>
<linearGradient id="paint29_linear_860_991" x1="120.867" y1="223.143" x2="127.391" y2="223.143" gradientUnits="userSpaceOnUse">
<stop stop-color="#405A3F"/>
<stop offset="0.47" stop-color="#2E3D2F"/>
<stop offset="1" stop-color="#1D201F"/>
</linearGradient>
<linearGradient id="paint30_linear_860_991" x1="144.726" y1="245.1" x2="156.345" y2="256.72" gradientUnits="userSpaceOnUse">
<stop stop-color="#7A8840"/>
<stop offset="0.08" stop-color="#708337"/>
<stop offset="0.22" stop-color="#667E2E"/>
<stop offset="0.39" stop-color="#637C2B"/>
<stop offset="1" stop-color="#2E9116"/>
</linearGradient>
<linearGradient id="paint31_linear_860_991" x1="143.394" y1="246.432" x2="155.014" y2="258.052" gradientUnits="userSpaceOnUse">
<stop stop-color="#405A3F"/>
<stop offset="0.47" stop-color="#2E3D2F"/>
<stop offset="1" stop-color="#1D201F"/>
</linearGradient>
<linearGradient id="paint32_linear_860_991" x1="146.267" y1="248.509" x2="153.213" y2="248.509" gradientUnits="userSpaceOnUse">
<stop stop-color="#899142"/>
<stop offset="0.17" stop-color="#858D40"/>
<stop offset="0.34" stop-color="#7A813B"/>
<stop offset="0.5" stop-color="#686E32"/>
<stop offset="0.66" stop-color="#4E5225"/>
<stop offset="0.83" stop-color="#2C2F15"/>
<stop offset="0.99" stop-color="#040402"/>
<stop offset="1"/>
</linearGradient>
<linearGradient id="paint33_linear_860_991" x1="148.476" y1="242.212" x2="153.49" y2="242.212" gradientUnits="userSpaceOnUse">
<stop stop-color="#405A3F"/>
<stop offset="0.47" stop-color="#2E3D2F"/>
<stop offset="1" stop-color="#1D201F"/>
</linearGradient>
<linearGradient id="paint34_linear_860_991" x1="186.713" y1="169.332" x2="257.404" y2="218.427" gradientUnits="userSpaceOnUse">
<stop stop-color="#7A8840"/>
<stop offset="0.08" stop-color="#708337"/>
<stop offset="0.22" stop-color="#667E2E"/>
<stop offset="0.39" stop-color="#637C2B"/>
<stop offset="1" stop-color="#2E9116"/>
</linearGradient>
<linearGradient id="paint35_linear_860_991" x1="200.484" y1="149.501" x2="271.175" y2="198.597" gradientUnits="userSpaceOnUse">
<stop stop-color="#405A3F"/>
<stop offset="0.27" stop-color="#3D5836"/>
<stop offset="0.7" stop-color="#34531E"/>
<stop offset="1" stop-color="#2D4E09"/>
</linearGradient>
<linearGradient id="paint36_linear_860_991" x1="196.176" y1="155.688" x2="266.87" y2="204.799" gradientUnits="userSpaceOnUse">
<stop stop-color="#405A3F"/>
<stop offset="0.27" stop-color="#3D5836"/>
<stop offset="0.7" stop-color="#34531E"/>
<stop offset="1" stop-color="#2D4E09"/>
</linearGradient>
<linearGradient id="paint37_linear_860_991" x1="178.032" y1="181.831" x2="248.723" y2="230.925" gradientUnits="userSpaceOnUse">
<stop stop-color="#405A3F"/>
<stop offset="0.27" stop-color="#3D5836"/>
<stop offset="0.7" stop-color="#34531E"/>
<stop offset="1" stop-color="#2D4E09"/>
</linearGradient>
<linearGradient id="paint38_linear_860_991" x1="185.612" y1="170.916" x2="256.302" y2="220.011" gradientUnits="userSpaceOnUse">
<stop stop-color="#405A3F"/>
<stop offset="0.27" stop-color="#3D5836"/>
<stop offset="0.7" stop-color="#34531E"/>
<stop offset="1" stop-color="#2D4E09"/>
</linearGradient>
<linearGradient id="paint39_linear_860_991" x1="194.959" y1="170.534" x2="232.3" y2="163.801" gradientUnits="userSpaceOnUse">
<stop stop-color="#899142"/>
<stop offset="0.17" stop-color="#858D40"/>
<stop offset="0.34" stop-color="#7A813B"/>
<stop offset="0.5" stop-color="#686E32"/>
<stop offset="0.66" stop-color="#4E5225"/>
<stop offset="0.83" stop-color="#2C2F15"/>
<stop offset="0.99" stop-color="#040402"/>
<stop offset="1"/>
</linearGradient>
<linearGradient id="paint40_linear_860_991" x1="226.762" y1="212.573" x2="244.506" y2="209.374" gradientUnits="userSpaceOnUse">
<stop stop-color="#899142"/>
<stop offset="0.17" stop-color="#858D40"/>
<stop offset="0.34" stop-color="#7A813B"/>
<stop offset="0.5" stop-color="#686E32"/>
<stop offset="0.66" stop-color="#4E5225"/>
<stop offset="0.83" stop-color="#2C2F15"/>
<stop offset="0.99" stop-color="#040402"/>
<stop offset="1"/>
</linearGradient>
<linearGradient id="paint41_linear_860_991" x1="219.549" y1="203.567" x2="236.99" y2="200.423" gradientUnits="userSpaceOnUse">
<stop stop-color="#899142"/>
<stop offset="0.17" stop-color="#858D40"/>
<stop offset="0.34" stop-color="#7A813B"/>
<stop offset="0.5" stop-color="#686E32"/>
<stop offset="0.66" stop-color="#4E5225"/>
<stop offset="0.83" stop-color="#2C2F15"/>
<stop offset="0.99" stop-color="#040402"/>
<stop offset="1"/>
</linearGradient>
<linearGradient id="paint42_linear_860_991" x1="119.49" y1="102.011" x2="146.479" y2="159.884" gradientUnits="userSpaceOnUse">
<stop stop-color="#898F4D"/>
<stop offset="0.07" stop-color="#818B46"/>
<stop offset="0.25" stop-color="#708337"/>
<stop offset="0.45" stop-color="#667E2E"/>
<stop offset="0.7" stop-color="#637C2B"/>
</linearGradient>
<linearGradient id="paint43_linear_860_991" x1="98.36" y1="117.201" x2="144.061" y2="162.902" gradientUnits="userSpaceOnUse">
<stop stop-color="#405A3F"/>
<stop offset="0.27" stop-color="#3D5836"/>
<stop offset="0.7" stop-color="#34531E"/>
<stop offset="1" stop-color="#2D4E09"/>
</linearGradient>
<linearGradient id="paint44_linear_860_991" x1="119.019" y1="84.4678" x2="177.459" y2="142.908" gradientUnits="userSpaceOnUse">
<stop stop-color="#405A3F"/>
<stop offset="0.27" stop-color="#3D5836"/>
<stop offset="0.7" stop-color="#34531E"/>
<stop offset="1" stop-color="#2D4E09"/>
</linearGradient>
<linearGradient id="paint45_linear_860_991" x1="124.212" y1="91.3491" x2="169.912" y2="137.033" gradientUnits="userSpaceOnUse">
<stop stop-color="#405A3F"/>
<stop offset="0.27" stop-color="#3D5836"/>
<stop offset="0.7" stop-color="#34531E"/>
<stop offset="1" stop-color="#2D4E09"/>
</linearGradient>
<linearGradient id="paint46_linear_860_991" x1="122.264" y1="93.2959" x2="167.965" y2="138.981" gradientUnits="userSpaceOnUse">
<stop stop-color="#899142"/>
<stop offset="0.17" stop-color="#858D40"/>
<stop offset="0.34" stop-color="#7A813B"/>
<stop offset="0.5" stop-color="#686E32"/>
<stop offset="0.66" stop-color="#4E5225"/>
<stop offset="0.83" stop-color="#2C2F15"/>
<stop offset="0.99" stop-color="#040402"/>
<stop offset="1"/>
</linearGradient>
<linearGradient id="paint47_linear_860_991" x1="116.031" y1="99.5284" x2="161.732" y2="145.229" gradientUnits="userSpaceOnUse">
<stop stop-color="#899142"/>
<stop offset="0.17" stop-color="#858D40"/>
<stop offset="0.34" stop-color="#7A813B"/>
<stop offset="0.5" stop-color="#686E32"/>
<stop offset="0.66" stop-color="#4E5225"/>
<stop offset="0.83" stop-color="#2C2F15"/>
<stop offset="0.99" stop-color="#040402"/>
<stop offset="1"/>
</linearGradient>
<radialGradient id="paint48_radial_860_991" cx="0" cy="0" r="1" gradientUnits="userSpaceOnUse" gradientTransform="translate(124.901 122.947) rotate(-19.8852) scale(15.9141 10.1199)">
<stop stop-color="#918C49"/>
<stop offset="0.19" stop-color="#635F32"/>
<stop offset="0.39" stop-color="#38361C"/>
<stop offset="0.57" stop-color="#19190D"/>
<stop offset="0.73" stop-color="#070603"/>
<stop offset="0.84"/>
</radialGradient>
<radialGradient id="paint49_radial_860_991" cx="0" cy="0" r="1" gradientUnits="userSpaceOnUse" gradientTransform="translate(97.8633 125.188) rotate(-17.3175) scale(9.2183 5.83585)">
<stop stop-color="#918C49"/>
<stop offset="0.19" stop-color="#635F32"/>
<stop offset="1" stop-color="#38361C" stop-opacity="0"/>
</radialGradient>
<linearGradient id="paint50_linear_860_991" x1="152.271" y1="186.255" x2="118.71" y2="130.395" gradientUnits="userSpaceOnUse">
<stop stop-color="#637C2B"/>
<stop offset="0.55" stop-color="#78873E"/>
<stop offset="1" stop-color="#8C9150"/>
</linearGradient>
<linearGradient id="paint51_linear_860_991" x1="92.5811" y1="178.92" x2="129.55" y2="178.92" gradientUnits="userSpaceOnUse">
<stop stop-color="#405A3F"/>
<stop offset="0.27" stop-color="#3D5836"/>
<stop offset="0.7" stop-color="#34531E"/>
<stop offset="1" stop-color="#2D4E09"/>
</linearGradient>
<linearGradient id="paint52_linear_860_991" x1="96.589" y1="159.039" x2="179.843" y2="159.039" gradientUnits="userSpaceOnUse">
<stop stop-color="#405A3F"/>
<stop offset="0.27" stop-color="#3D5836"/>
<stop offset="0.7" stop-color="#34531E"/>
<stop offset="1" stop-color="#2D4E09"/>
</linearGradient>
<linearGradient id="paint53_linear_860_991" x1="129.293" y1="153.732" x2="146.414" y2="153.732" gradientUnits="userSpaceOnUse">
<stop stop-color="#405A3F"/>
<stop offset="0.27" stop-color="#3D5836"/>
<stop offset="0.7" stop-color="#34531E"/>
<stop offset="1" stop-color="#2D4E09"/>
</linearGradient>
<linearGradient id="paint54_linear_860_991" x1="96.5917" y1="155.858" x2="107.254" y2="155.858" gradientUnits="userSpaceOnUse">
<stop stop-color="#405A3F"/>
<stop offset="0.27" stop-color="#3D5836"/>
<stop offset="0.7" stop-color="#34531E"/>
<stop offset="1" stop-color="#2D4E09"/>
</linearGradient>
<linearGradient id="paint55_linear_860_991" x1="92.5811" y1="161.003" x2="164.004" y2="161.003" gradientUnits="userSpaceOnUse">
<stop stop-color="#899142"/>
<stop offset="0.17" stop-color="#858D40"/>
<stop offset="0.34" stop-color="#7A813B"/>
<stop offset="0.5" stop-color="#686E32"/>
<stop offset="0.66" stop-color="#4E5225"/>
<stop offset="0.83" stop-color="#2C2F15"/>
<stop offset="0.99" stop-color="#040402"/>
<stop offset="1"/>
</linearGradient>
<linearGradient id="paint56_linear_860_991" x1="87.4365" y1="165.985" x2="1290.79" y2="165.985" gradientUnits="userSpaceOnUse">
<stop stop-color="#405A3F"/>
<stop offset="0.27" stop-color="#3D5836"/>
<stop offset="0.7" stop-color="#34531E"/>
<stop offset="1" stop-color="#2D4E09"/>
</linearGradient>
<linearGradient id="paint57_linear_860_991" x1="95.3853" y1="116.411" x2="108.892" y2="136.844" gradientUnits="userSpaceOnUse">
<stop stop-color="#848D49"/>
<stop offset="0.03" stop-color="#818C45"/>
<stop offset="0.25" stop-color="#6C8328"/>
<stop offset="0.45" stop-color="#607E16"/>
<stop offset="0.59" stop-color="#5B7C10"/>
</linearGradient>
<linearGradient id="paint58_linear_860_991" x1="96.556" y1="115.623" x2="110.079" y2="136.059" gradientUnits="userSpaceOnUse">
<stop stop-color="#405A3F"/>
<stop offset="0.27" stop-color="#3D5836"/>
<stop offset="0.7" stop-color="#34531E"/>
<stop offset="1" stop-color="#2D4E09"/>
</linearGradient>
<linearGradient id="paint59_linear_860_991" x1="107.053" y1="130.919" x2="115.482" y2="132.639" gradientUnits="userSpaceOnUse">
<stop stop-color="#405A3F"/>
<stop offset="0.27" stop-color="#3D5836"/>
<stop offset="0.7" stop-color="#34531E"/>
<stop offset="1" stop-color="#2D4E09"/>
</linearGradient>
<linearGradient id="paint60_linear_860_991" x1="90.6466" y1="124.936" x2="100.475" y2="126.942" gradientUnits="userSpaceOnUse">
<stop stop-color="#405A3F"/>
<stop offset="0.27" stop-color="#3D5836"/>
<stop offset="0.7" stop-color="#34531E"/>
<stop offset="1" stop-color="#2D4E09"/>
</linearGradient>
<linearGradient id="paint61_linear_860_991" x1="89.4085" y1="122.315" x2="115.301" y2="127.599" gradientUnits="userSpaceOnUse">
<stop stop-color="#899142"/>
<stop offset="0.17" stop-color="#858D40"/>
<stop offset="0.34" stop-color="#7A813B"/>
<stop offset="0.5" stop-color="#686E32"/>
<stop offset="0.66" stop-color="#4E5225"/>
<stop offset="0.83" stop-color="#2C2F15"/>
<stop offset="0.99" stop-color="#040402"/>
<stop offset="1"/>
</linearGradient>
<linearGradient id="paint62_linear_860_991" x1="119.242" y1="109.921" x2="137.888" y2="122.511" gradientUnits="userSpaceOnUse">
<stop stop-color="#848D49"/>
<stop offset="0.03" stop-color="#818C45"/>
<stop offset="0.25" stop-color="#6C8328"/>
<stop offset="0.45" stop-color="#607E16"/>
<stop offset="0.59" stop-color="#5B7C10"/>
</linearGradient>
<linearGradient id="paint63_linear_860_991" x1="119.612" y1="109.37" x2="138.258" y2="121.96" gradientUnits="userSpaceOnUse">
<stop stop-color="#405A3F"/>
<stop offset="0.27" stop-color="#3D5836"/>
<stop offset="0.7" stop-color="#34531E"/>
<stop offset="1" stop-color="#2D4E09"/>
</linearGradient>
<linearGradient id="paint64_linear_860_991" x1="118.928" y1="121.418" x2="132.59" y2="118.769" gradientUnits="userSpaceOnUse">
<stop stop-color="#405A3F"/>
<stop offset="0.27" stop-color="#3D5836"/>
<stop offset="0.7" stop-color="#34531E"/>
<stop offset="1" stop-color="#2D4E09"/>
</linearGradient>
<linearGradient id="paint65_linear_860_991" x1="133.852" y1="114.036" x2="138.862" y2="113.064" gradientUnits="userSpaceOnUse">
<stop stop-color="#405A3F"/>
<stop offset="0.27" stop-color="#3D5836"/>
<stop offset="0.7" stop-color="#34531E"/>
<stop offset="1" stop-color="#2D4E09"/>
</linearGradient>
<linearGradient id="paint66_linear_860_991" x1="141.749" y1="111.349" x2="143.864" y2="110.939" gradientUnits="userSpaceOnUse">
<stop stop-color="#405A3F"/>
<stop offset="0.27" stop-color="#3D5836"/>
<stop offset="0.7" stop-color="#34531E"/>
<stop offset="1" stop-color="#2D4E09"/>
</linearGradient>
<linearGradient id="paint67_linear_860_991" x1="114.148" y1="118.977" x2="142.568" y2="113.467" gradientUnits="userSpaceOnUse">
<stop stop-color="#899142"/>
<stop offset="0.17" stop-color="#858D40"/>
<stop offset="0.34" stop-color="#7A813B"/>
<stop offset="0.5" stop-color="#686E32"/>
<stop offset="0.66" stop-color="#4E5225"/>
<stop offset="0.83" stop-color="#2C2F15"/>
<stop offset="0.99" stop-color="#040402"/>
<stop offset="1"/>
</linearGradient>
<linearGradient id="paint68_linear_860_991" x1="66.2308" y1="8.96412" x2="-0.829107" y2="148.581" gradientUnits="userSpaceOnUse">
<stop stop-color="#7A8840"/>
<stop offset="0.08" stop-color="#708337"/>
<stop offset="0.22" stop-color="#667E2E"/>
<stop offset="0.39" stop-color="#637C2B"/>
<stop offset="1" stop-color="#2E9116"/>
</linearGradient>
<linearGradient id="paint69_linear_860_991" x1="64.4184" y1="8.09267" x2="-2.64149" y2="147.709" gradientUnits="userSpaceOnUse">
<stop stop-color="#405A3F"/>
<stop offset="0.27" stop-color="#3D5836"/>
<stop offset="0.7" stop-color="#34531E"/>
<stop offset="1" stop-color="#2D4E09"/>
</linearGradient>
<linearGradient id="paint70_linear_860_991" x1="64.3554" y1="8.06285" x2="-2.7198" y2="147.685" gradientUnits="userSpaceOnUse">
<stop stop-color="#405A3F"/>
<stop offset="0.27" stop-color="#3D5836"/>
<stop offset="0.7" stop-color="#34531E"/>
<stop offset="1" stop-color="#2D4E09"/>
</linearGradient>
<linearGradient id="paint71_linear_860_991" x1="38.253" y1="-7.37944" x2="48.2731" y2="21.1629" gradientUnits="userSpaceOnUse">
<stop stop-color="#899142"/>
<stop offset="0.17" stop-color="#858D40"/>
<stop offset="0.34" stop-color="#7A813B"/>
<stop offset="0.5" stop-color="#686E32"/>
<stop offset="0.66" stop-color="#4E5225"/>
<stop offset="0.83" stop-color="#2C2F15"/>
<stop offset="0.99" stop-color="#040402"/>
<stop offset="1"/>
</linearGradient>
<linearGradient id="paint72_linear_860_991" x1="61.0027" y1="17.8421" x2="74.188" y2="55.4002" gradientUnits="userSpaceOnUse">
<stop stop-color="#899142"/>
<stop offset="0.17" stop-color="#858D40"/>
<stop offset="0.34" stop-color="#7A813B"/>
<stop offset="0.5" stop-color="#686E32"/>
<stop offset="0.66" stop-color="#4E5225"/>
<stop offset="0.83" stop-color="#2C2F15"/>
<stop offset="0.99" stop-color="#040402"/>
<stop offset="1"/>
</linearGradient>
<linearGradient id="paint73_linear_860_991" x1="52.0905" y1="63.1757" x2="60.6112" y2="87.4466" gradientUnits="userSpaceOnUse">
<stop stop-color="#899142"/>
<stop offset="0.17" stop-color="#858D40"/>
<stop offset="0.34" stop-color="#7A813B"/>
<stop offset="0.5" stop-color="#686E32"/>
<stop offset="0.66" stop-color="#4E5225"/>
<stop offset="0.83" stop-color="#2C2F15"/>
<stop offset="0.99" stop-color="#040402"/>
<stop offset="1"/>
</linearGradient>
<linearGradient id="paint74_linear_860_991" x1="250.281" y1="216.244" x2="258.529" y2="243.67" gradientUnits="userSpaceOnUse">
<stop stop-color="#7A8840"/>
<stop offset="0.08" stop-color="#708337"/>
<stop offset="0.22" stop-color="#667E2E"/>
<stop offset="0.39" stop-color="#637C2B"/>
<stop offset="1" stop-color="#2E9116"/>
</linearGradient>
<linearGradient id="paint75_linear_860_991" x1="246.714" y1="221.761" x2="265.767" y2="225.176" gradientUnits="userSpaceOnUse">
<stop stop-color="#405A3F"/>
<stop offset="0.27" stop-color="#3D5836"/>
<stop offset="0.7" stop-color="#34531E"/>
<stop offset="1" stop-color="#2D4E09"/>
</linearGradient>
<linearGradient id="paint76_linear_860_991" x1="252.072" y1="222.399" x2="261.322" y2="235.707" gradientUnits="userSpaceOnUse">
<stop stop-color="#899142"/>
<stop offset="0.17" stop-color="#858D40"/>
<stop offset="0.34" stop-color="#7A813B"/>
<stop offset="0.5" stop-color="#686E32"/>
<stop offset="0.66" stop-color="#4E5225"/>
<stop offset="0.83" stop-color="#2C2F15"/>
<stop offset="0.99" stop-color="#040402"/>
<stop offset="1"/>
</linearGradient>
<linearGradient id="paint77_linear_860_991" x1="271.604" y1="205.092" x2="283.333" y2="244.113" gradientUnits="userSpaceOnUse">
<stop stop-color="#7A8840"/>
<stop offset="0.08" stop-color="#708337"/>
<stop offset="0.22" stop-color="#667E2E"/>
<stop offset="0.39" stop-color="#637C2B"/>
<stop offset="1" stop-color="#2E9116"/>
</linearGradient>
<linearGradient id="paint78_linear_860_991" x1="264.711" y1="213.576" x2="299.46" y2="219.837" gradientUnits="userSpaceOnUse">
<stop stop-color="#405A3F"/>
<stop offset="0.27" stop-color="#3D5836"/>
<stop offset="0.7" stop-color="#34531E"/>
<stop offset="1" stop-color="#2D4E09"/>
</linearGradient>
<linearGradient id="paint79_linear_860_991" x1="270.532" y1="213.259" x2="285.147" y2="234.285" gradientUnits="userSpaceOnUse">
<stop stop-color="#899142"/>
<stop offset="0.17" stop-color="#858D40"/>
<stop offset="0.34" stop-color="#7A813B"/>
<stop offset="0.5" stop-color="#686E32"/>
<stop offset="0.66" stop-color="#4E5225"/>
<stop offset="0.83" stop-color="#2C2F15"/>
<stop offset="0.99" stop-color="#040402"/>
<stop offset="1"/>
</linearGradient>
<linearGradient id="paint80_linear_860_991" x1="286.201" y1="101.727" x2="295.304" y2="237.368" gradientUnits="userSpaceOnUse">
<stop stop-color="#7A8840"/>
<stop offset="0.08" stop-color="#708337"/>
<stop offset="0.22" stop-color="#667E2E"/>
<stop offset="0.39" stop-color="#637C2B"/>
<stop offset="1" stop-color="#2E9116"/>
</linearGradient>
<linearGradient id="paint81_linear_860_991" x1="327.144" y1="104.204" x2="260.476" y2="255.084" gradientUnits="userSpaceOnUse">
<stop stop-color="#405A3F"/>
<stop offset="0.27" stop-color="#3D5836"/>
<stop offset="0.7" stop-color="#34531E"/>
<stop offset="1" stop-color="#2D4E09"/>
</linearGradient>
<linearGradient id="paint82_linear_860_991" x1="327.144" y1="104.204" x2="260.476" y2="255.084" gradientUnits="userSpaceOnUse">
<stop stop-color="#405A3F"/>
<stop offset="0.27" stop-color="#3D5836"/>
<stop offset="0.7" stop-color="#34531E"/>
<stop offset="1" stop-color="#2D4E09"/>
</linearGradient>
<linearGradient id="paint83_linear_860_991" x1="329.068" y1="112.536" x2="284.861" y2="129.648" gradientUnits="userSpaceOnUse">
<stop stop-color="#899142"/>
<stop offset="0.17" stop-color="#858D40"/>
<stop offset="0.34" stop-color="#7A813B"/>
<stop offset="0.5" stop-color="#686E32"/>
<stop offset="0.66" stop-color="#4E5225"/>
<stop offset="0.83" stop-color="#2C2F15"/>
<stop offset="0.99" stop-color="#040402"/>
<stop offset="1"/>
</linearGradient>
<linearGradient id="paint84_linear_860_991" x1="350.959" y1="141.513" x2="299.22" y2="161.54" gradientUnits="userSpaceOnUse">
<stop stop-color="#899142"/>
<stop offset="0.17" stop-color="#858D40"/>
<stop offset="0.34" stop-color="#7A813B"/>
<stop offset="0.5" stop-color="#686E32"/>
<stop offset="0.66" stop-color="#4E5225"/>
<stop offset="0.83" stop-color="#2C2F15"/>
<stop offset="0.99" stop-color="#040402"/>
<stop offset="1"/>
</linearGradient>
<linearGradient id="paint85_linear_860_991" x1="292.122" y1="148.721" x2="269.407" y2="157.514" gradientUnits="userSpaceOnUse">
<stop stop-color="#899142"/>
<stop offset="0.17" stop-color="#858D40"/>
<stop offset="0.34" stop-color="#7A813B"/>
<stop offset="0.5" stop-color="#686E32"/>
<stop offset="0.66" stop-color="#4E5225"/>
<stop offset="0.83" stop-color="#2C2F15"/>
<stop offset="0.99" stop-color="#040402"/>
<stop offset="1"/>
</linearGradient>
<linearGradient id="paint86_linear_860_991" x1="348.419" y1="166.965" x2="323.833" y2="176.482" gradientUnits="userSpaceOnUse">
<stop stop-color="#405A3F"/>
<stop offset="0.21" stop-color="#3D563C"/>
<stop offset="0.42" stop-color="#354A34"/>
<stop offset="0.63" stop-color="#273726"/>
<stop offset="0.84" stop-color="#141B13"/>
<stop offset="1"/>
</linearGradient>
<radialGradient id="paint87_radial_860_991" cx="0" cy="0" r="1" gradientUnits="userSpaceOnUse" gradientTransform="translate(45.4735 60.0848) rotate(36.8699) scale(48)">
<stop stop-color="#749107"/>
<stop offset="0.06" stop-color="#6C8807"/>
<stop offset="1" stop-color="#323F03" stop-opacity="0"/>
</radialGradient>
</defs>
</svg>
